<svg viewBox="0 0 512 512" xmlns="http://www.w3.org/2000/svg">

<g transform="matrix(18.68858,0,0,18.68858,-233.23891,-38099.89176)">
<path d="m 1043.24 1752.86 h 11.474 a 2.7055 2.7055 0 0 1 2.7055 2.7055 v 17.5909 a 2.7055 2.7055 0 0 1 -2.7055 2.7055 h -11.474 a 2.7055 2.7055 0 0 1 -2.7055 -2.7055 v -17.5909 a 2.7055 2.7055 0 0 1 2.7055 -2.7055" fill="#fff" stroke="#000" transform="rotate(30)"/>
<path d="m 23.4797 2044.29 2.6079 -1.6511 -0.126 3.0842" fill="#fff" stroke="#000"/>
<path d="m 23.0306 2047.02 c 0 0.6546 -0.5306 1.1852 -1.1852 1.1852 s -1.1852 -0.5306 -1.1852 -1.1852 0.5306 -1.1852 1.1852 -1.1852 1.1852 0.5307 1.1852 1.1852 z" transform="matrix(.86603,.5,-.5,.86603,1030.7627,258.79814)"/>
<path d="m 26.4934 2059.32 -0.1259 3.084 2.6079 -1.651" fill="#fff" stroke="#000"/>
<path d="m 23.0306 2047.02 c 0 0.6546 -0.5306 1.1852 -1.1852 1.1852 s -1.1852 -0.5306 -1.1852 -1.1852 0.5306 -1.1852 1.1852 -1.1852 1.1852 0.5307 1.1852 1.1852 z" transform="matrix(.86603,.5,.5,-.86603,-1016.145,3824.4025)"/>
<path d="m 21.9408 2055.9 3.6871 -2.3343 -0.1781 4.3604"/>
<path d="m 30.1569 2052.69 c 1.0903 -1.7587 -0.9893 -4.6373 -0.6851 -5.7728 -0.9082 0.9082 -4.2119 0.4534 -5.3508 2.288 -1.0937 1.7619 0.8943 3.4288 2.6281 2.4278 3e-06 2.051 2.3334 2.7899 3.4077 1.057 z"/>
<path d="m 26.0464 2049.96 2.9204 -2.1854 -0.4325 3.622" fill="#fff"/>
<path d="m 30.4106 2054.81 c 1.4915 -2.4056 -1.3533 -6.3434 -0.9371 -7.8965 -1.2423 1.2423 -5.7615 0.6201 -7.3193 3.1297 -1.496 2.4101 1.2233 4.6902 3.595 3.3209 -2.2e-05 2.8056 3.1917 3.8164 4.6614 1.4459 z" fill="none" stroke="#000"/>
<path d="m 26.3302 2052.35 1.2 -2.0785" fill="none" stroke="#fff"/>
</g>
</svg>
