<svg viewBox="0 0 512 512" xmlns="http://www.w3.org/2000/svg">

<g transform="matrix(18.68858,0,0,18.68858,-233.23891,-38099.89176)">
<path d="m1043.2382,1752.863h11.474a2.7055,2.7055 0 0,1 2.7055,2.7055v17.5909a2.7055,2.7055 0 0,1 -2.7055,2.7055h-11.474a2.7055,2.7055 0 0,1 -2.7055-2.7055v-17.5909a2.7055,2.7055 0 0,1 2.7055-2.7055" fill="#fff" stroke="#000" transform="rotate(30)"/>
<path d="m23.4797,2044.2885 2.6079-1.6511-.126,3.0842" fill="#fff" stroke="#000"/>
<path d="m23.0306,2047.0162c0,.6546-.5306,1.1852-1.1852,1.1852s-1.1852-.5306-1.1852-1.1852 .5306-1.1852 1.1852-1.1852 1.1852.5307 1.1852,1.1852z" transform="matrix(.86603,.5,-.5,.86603,1030.7627,258.79814)"/>
<path d="m26.4934,2059.3246-.1259,3.084 2.6079-1.651" fill="#fff" stroke="#000"/>
<path d="m23.0306,2047.0162c0,.6546-.5306,1.1852-1.1852,1.1852s-1.1852-.5306-1.1852-1.1852 .5306-1.1852 1.1852-1.1852 1.1852.5307 1.1852,1.1852z" transform="matrix(.86603,.5,.5,-.86603,-1016.145,3824.4025)"/>
<path d="m21.9408,2055.8959 3.6871-2.3343-.1781,4.3604"/>
<path d="m30.1569,2052.6871c1.0903-1.7587-.9893-4.6373-.6851-5.7728-.9082.9082-4.2119.4534-5.3508,2.288-1.0937,1.7619.8943,3.4288 2.6281,2.4278 3e-06,2.051 2.3334,2.7899 3.4077,1.057z"/>
<path d="m26.0464,2049.9638 2.9204-2.1854-.4325,3.622" fill="#fff"/>
<path d="m30.4106,2054.8118c1.4915-2.4056-1.3533-6.3434-.9371-7.8965-1.2423,1.2423-5.7615.6201-7.3193,3.1297-1.496,2.4101 1.2233,4.6902 3.595,3.3209-2.2e-05,2.8056 3.1917,3.8164 4.6614,1.4459z" fill="none" stroke="#000"/>
<path d="m26.3302,2052.3452 1.2-2.0785" fill="none" stroke="#fff"/>
</g>
</svg>
