<svg xmlns="http://www.w3.org/2000/svg" viewBox="0 0 512 512">
<g transform="matrix(16 0 0 16 -8064 -7157.7949)">
<use width="744.094" height="1052.362" transform="translate(540 440.36218)"/>
<g fill="#fff">
<path d="m 482 198 a 2 2 0 1 1 -4 0 2 2 0 1 1 4 0 z" transform="translate(53 261.36218)"/>
<path d="m 485 203 a 1 1 0 1 1 -2 0 1 1 0 1 1 2 0 z" transform="matrix(2 0 0 2 -448 46.36217)"/>
<path d="m 516 460.362 c -3 0 -1 2 0 3 0 0.7131 -0.0241 1.3682 -0.0625 2 1.2243 -0.6234 2.5944 -1 4.0625 -1 1.4681 0 2.8382 0.3766 4.0625 1 -0.0384 -0.6318 -0.0625 -1.2869 -0.0625 -2 1 -1 3 -3 0 -3 -1 0 -2 1 -4 1 -2 0 -3 -1 -4 -1 z m -4.0625 1.9375 c -0.3304 -0.0248 -0.7188 0.2819 -1.1875 1.0938 -0.5 0.866 -0.1562 2.2367 -1.1562 3.9688 -1 1.7321 -2.3438 2.1027 -2.8438 2.9688 -1.5 2.5981 1.2277 1.866 2.5938 1.5 0.603 0.3481 1.1662 0.6913 1.6875 1.0312 0.1648 -2.9437 1.7371 -5.512 4.0625 -7.0312 -0.5572 -0.2855 -1.1336 -0.5816 -1.75 -0.9375 -0.2517 -0.9391 -0.6793 -2.5392 -1.4062 -2.5938 z m 16.125 0 c -0.727 0.0545 -1.1546 1.6546 -1.4062 2.5938 -0.6164 0.3559 -1.1928 0.652 -1.75 0.9375 2.3254 1.5192 3.8977 4.0875 4.0625 7.0312 0.5213 -0.3399 1.0845 -0.6831 1.6875 -1.0312 1.366 0.366 4.0938 1.0981 2.5938 -1.5 -0.5 -0.866 -1.8438 -1.2367 -2.8438 -2.9688 -1 -1.7321 -0.6562 -3.1027 -1.1562 -3.9688 -0.4688 -0.8119 -0.8571 -1.1185 -1.1875 -1.0938 z"/>
<path d="m 482 198 a 2 2 0 1 1 -4 0 2 2 0 1 1 4 0 z" transform="translate(27 261.36218)"/>
<path d="m 196 34 c -4 0 -7 3 -7 7 v 3 h 14 v -3 c 0 -4 -3 -7 -7 -7 z" transform="translate(324 432.36219)"/>
<path d="m 482 198 a 2 2 0 1 1 -4 0 2 2 0 1 1 4 0 z" transform="matrix(.5 0 0 .5 267 365.36218)"/>
<path d="m 482 198 a 2 2 0 1 1 -4 0 2 2 0 1 1 4 0 z" transform="matrix(.5 0 0 .5 293 365.36218)"/>
<path d="m 482 198 a 2 2 0 1 1 -4 0 2 2 0 1 1 4 0 z" transform="matrix(.5 0 0 .5 280 359.36218)"/>
</g>
</g>
</svg>
