<svg xmlns="http://www.w3.org/2000/svg" viewBox="0 0 512 512">
<g transform="matrix(16 0 0 16 -8064 -7157.7949)">
<use width="744.094" height="1052.362" transform="translate(540 440.36218)"/>
<g fill="#fff">
<path d="m482,198a2,2 0 1,1 -4,0 2,2 0 1,1 4,0z" transform="translate(53 261.36218)"/>
<path d="m485,203a1,1 0 1,1 -2,0 1,1 0 1,1 2,0z" transform="matrix(2 0 0 2 -448 46.36217)"/>
<path d="m516,460.3622c-3,0-1,2 0,3 0,.7131-.0241,1.3682-.0625,2 1.2243-.6234 2.5944-1 4.0625-1 1.4681,0 2.8382,.3766 4.0625,1-.0384-.6318-.0625-1.2869-.0625-2 1-1 3-3 0-3-1,0-2,1-4,1-2,0-3-1-4-1zm-4.0625,1.9375c-.3304-.0248-.7188,.2819-1.1875,1.0938-.5,.866-.1562,2.2367-1.1562,3.9688-1,1.7321-2.3438,2.1027-2.8438,2.9688-1.5,2.5981 1.2277,1.866 2.5938,1.5 .603,.3481 1.1662,.6913 1.6875,1.0312 .1648-2.9437 1.7371-5.512 4.0625-7.0312-.5572-.2855-1.1336-.5816-1.75-.9375-.2517-.9391-.6793-2.5392-1.4062-2.5938zm16.125,0c-.727,.0545-1.1546,1.6546-1.4062,2.5938-.6164,.3559-1.1928,.652-1.75,.9375 2.3254,1.5192 3.8977,4.0875 4.0625,7.0312 .5213-.3399 1.0845-.6831 1.6875-1.0312 1.366,.366 4.0938,1.0981 2.5938-1.5-.5-.866-1.8438-1.2367-2.8438-2.9688-1-1.7321-.6562-3.1027-1.1562-3.9688-.4688-.8119-.8571-1.1185-1.1875-1.0938z"/>
<path d="m482,198a2,2 0 1,1 -4,0 2,2 0 1,1 4,0z" transform="translate(27 261.36218)"/>
<path d="m196,34c-4,0-7,3-7,7v3h14v-3c0-4-3-7-7-7z" transform="translate(324 432.36219)"/>
<path d="m482,198a2,2 0 1,1 -4,0 2,2 0 1,1 4,0z" transform="matrix(.5 0 0 .5 267 365.36218)"/>
<path d="m482,198a2,2 0 1,1 -4,0 2,2 0 1,1 4,0z" transform="matrix(.5 0 0 .5 293 365.36218)"/>
<path d="m482,198a2,2 0 1,1 -4,0 2,2 0 1,1 4,0z" transform="matrix(.5 0 0 .5 280 359.36218)"/>
</g>
</g>
</svg>
