<svg viewBox="0 0 512 512" xmlns="http://www.w3.org/2000/svg">

<g transform="matrix(18.68858,0,0,18.68858,-13169.7545,-38100.83096)">
<path d="m730.5491,2055.0112c0,4.3512-5.4634,5.8476-12.2029,5.8476s-12.2029-1.4964-12.2029-5.8476 5.4634-10.4697 12.2029-10.4697 12.2029,6.1185 12.2029,10.4697z" stroke="#fff"/>
<path d="m716.7559,2055.4592c1.0658-.9435 3.9165-1.4062 4.3893-.3975 .3408.727-1.1494.8423-1.1242,1.3638 .056,1.1562 2.0016.1353 2.0323,1.1714 .028.9439-2.525,1.8989-4.2758,1.6838" fill="#fff"/>
<path d="m717.911,2051.603c0,1.4211-1.152,2.573-2.573,2.573s-2.573-1.1519-2.573-2.573 1.152-2.573 2.573-2.573 2.573,1.152 2.573,2.573z" stroke="#fff" stroke-width="1.5814" transform="matrix(.63235,0,0,.63235,265.55037,759.84106)"/>
<path d="m728.1299,2052.5592c-.5886-2.058-1.9747-3.4843-4.1724-4.0451-1.6289-.4158-1.7186.744-1.1077,1.1456 2.6353,1.7318.4538,2.4532-.8925,1.7144-1.2668-.6956-4.679-1.0359-5.9647.2108-1.0241.9928-.1756,2.885 1.4119,1.7534 2.6558-1.8929 5.0367-.8374 6.0748,1.541" fill="#fff"/>
<path d="m717.911,2051.603c0,1.4211-1.152,2.573-2.573,2.573s-2.573-1.1519-2.573-2.573 1.152-2.573 2.573-2.573 2.573,1.152 2.573,2.573z" stroke="#fff" stroke-width="1.2143" transform="matrix(.21315,.79547,-.79547,.21315,2205.3969,1047.5029)"/>
<path d="m718.8513,2048.3485c.0283,1.1847 1.9893,1.5759 2.2827.083s-2.311-1.2677-2.2827-.083z" fill="#fff"/>
<path d="m711.986,2054.8759-3.762-.2999c.1722-1.8184 2.3226-2.7777 3.6532-4.0472 1.1669-1.1133 1.8268-3.0168 2.9461-3.3329 2.3186-.6549 2.4668,2.5425.1599,2.6767-2.6098.1518-3.0881,2.9512-2.9973,5.0033z" fill="#fff"/>
<path d="m717.911,2051.603c0,1.4211-1.152,2.573-2.573,2.573s-2.573-1.1519-2.573-2.573 1.152-2.573 2.573-2.573 2.573,1.152 2.573,2.573z" stroke="#fff" stroke-width="1.8524" transform="matrix(.52144,.13972,-.13972,.52144,623.73429,885.08493)"/>
</g>
</svg>
