<svg xmlns="http://www.w3.org/2000/svg" viewBox="0 0 512 512">
<g transform="matrix(15 0 0 15 -7004 -6649.4327)">
<use width="744.094" height="1052.362" transform="translate(504 440.36218)"/>
<g fill="#fff">
<path d="m 480 456.362 c 1 0 2 1 4 1 2 0 3 -1 4 -1 3 0 1 2 0 3 0 10 8 15 8 17 h -24 c 0 -2 8 -7 8 -17 -1 -1 -3 -3 0 -3 z"/>
<path d="m 485 203 a 1 1 0 1 1 -2 0 1 1 0 1 1 2 0 z" transform="translate(0 252.36218)"/>
<path d="m 482 198 a 2 2 0 1 1 -4 0 2 2 0 1 1 4 0 z" transform="translate(4 248.36218)"/>
<path d="m 485 203 a 1 1 0 1 1 -2 0 1 1 0 1 1 2 0 z" transform="matrix(2 0 0 2 -487 45.36218)"/>
<path d="m 485 203 a 1 1 0 1 1 -2 0 1 1 0 1 1 2 0 z" transform="translate(2 249.36218)"/>
</g>
</g>
</svg>
