<svg viewBox="0 0 512 512" xmlns="http://www.w3.org/2000/svg">

<g transform="matrix(18.68858,0,0,18.68858,-13169.7545,-38100.83096)">
<path d="m 730.549 2055.01 c 0 4.3512 -5.4634 5.8476 -12.2029 5.8476 s -12.2029 -1.4964 -12.2029 -5.8476 5.4634 -10.4697 12.2029 -10.4697 12.2029 6.1185 12.2029 10.4697 z" stroke="#fff"/>
<path d="m 716.756 2055.46 c 1.0658 -0.9435 3.9165 -1.4062 4.3893 -0.3975 0.3408 0.727 -1.1494 0.8423 -1.1242 1.3638 0.056 1.1562 2.0016 0.1353 2.0323 1.1714 0.028 0.9439 -2.525 1.8989 -4.2758 1.6838" fill="#fff"/>
<path d="m 717.911 2051.6 c 0 1.4211 -1.152 2.573 -2.573 2.573 s -2.573 -1.1519 -2.573 -2.573 1.152 -2.573 2.573 -2.573 2.573 1.152 2.573 2.573 z" stroke="#fff" stroke-width="1.5814" transform="matrix(.63235,0,0,.63235,265.55037,759.84106)"/>
<path d="m 728.13 2052.56 c -0.5886 -2.058 -1.9747 -3.4843 -4.1724 -4.0451 -1.6289 -0.4158 -1.7186 0.744 -1.1077 1.1456 2.6353 1.7318 0.4538 2.4532 -0.8925 1.7144 -1.2668 -0.6956 -4.679 -1.0359 -5.9647 0.2108 -1.0241 0.9928 -0.1756 2.885 1.4119 1.7534 2.6558 -1.8929 5.0367 -0.8374 6.0748 1.541" fill="#fff"/>
<path d="m 717.911 2051.6 c 0 1.4211 -1.152 2.573 -2.573 2.573 s -2.573 -1.1519 -2.573 -2.573 1.152 -2.573 2.573 -2.573 2.573 1.152 2.573 2.573 z" stroke="#fff" stroke-width="1.2143" transform="matrix(.21315,.79547,-.79547,.21315,2205.3969,1047.5029)"/>
<path d="m 718.851 2048.35 c 0.0283 1.1847 1.9893 1.5759 2.2827 0.083 s -2.311 -1.2677 -2.2827 -0.083 z" fill="#fff"/>
<path d="m 711.986 2054.88 -3.762 -0.2999 c 0.1722 -1.8184 2.3226 -2.7777 3.6532 -4.0472 1.1669 -1.1133 1.8268 -3.0168 2.9461 -3.3329 2.3186 -0.6549 2.4668 2.5425 0.1599 2.6767 -2.6098 0.1518 -3.0881 2.9512 -2.9973 5.0033 z" fill="#fff"/>
<path d="m 717.911 2051.6 c 0 1.4211 -1.152 2.573 -2.573 2.573 s -2.573 -1.1519 -2.573 -2.573 1.152 -2.573 2.573 -2.573 2.573 1.152 2.573 2.573 z" stroke="#fff" stroke-width="1.8524" transform="matrix(.52144,.13972,-.13972,.52144,623.73429,885.08493)"/>
</g>
</svg>
