<svg viewBox="0 0 512 512" xmlns="http://www.w3.org/2000/svg">

<g transform="matrix(18.68858,0,0,18.68858,-4643.06069,-9759.41367)">
<path d="m 253.327 530.692 c 2.8221 -4.8826 7.8433 -4.5146 12.1614 -2.0242 s 6.7397 6.772 3.9177 11.6547 -10.6669 8.8346 -15.3321 6.6046 c -4.4973 -2.1497 -3.5691 -11.3524 -0.747 -16.235 z" fill="#fff"/>
<path d="m 265.29 527.581 c 2.5718 -0.901 4.0689 -2.7961 8.854 -1.6494 -1.7174 -5.2896 -7.0751 -1.9113 -8.854 1.6494 z" fill="#fff" fill-rule="evenodd"/>
<path d="m 271.912 537.393 c 1.8072 -4.5519 1.0239 -8.2847 -4.7678 -11.6249 -5.6968 -3.2855 -9.6065 -2.0067 -12.8241 1.4792 7.2159 1.0429 12.8602 4.805 17.5919 10.1457 z" fill="#fff" stroke="#000"/>
<path d="m 252.011 544.908 c 0.0402 1.2517 -0.4068 2.44 -0.9534 3.6153 1.4591 -0.6523 2.9382 -0.9531 4.4252 -1.1119" fill="#fff" fill-rule="evenodd"/>
<path d="m 257.696 523.712 1.2209 4.5564" fill="none" stroke="#000"/>
<path d="m 260.348 523.402 1.9981 6.501" fill="none" stroke="#000"/>
<path d="m 262.955 523.623 2.7052 8.2701" fill="none" stroke="#000"/>
<path d="m 266.093 524.728 3.5178 10.303" fill="none" stroke="#000"/>
<path d="m 269.01 526.584 3.5178 10.303" fill="none" stroke="#000"/>
</g>
</svg>
