<svg viewBox="0 0 512 512" xmlns="http://www.w3.org/2000/svg">

<g transform="matrix(18.68858,0,0,18.68858,-4643.06069,-9759.41367)">
<path d="m253.3272,530.6918c2.8221-4.8826 7.8433-4.5146 12.1614-2.0242s6.7397,6.772 3.9177,11.6547-10.6669,8.8346-15.3321,6.6046c-4.4973-2.1497-3.5691-11.3524-.747-16.235z" fill="#fff"/>
<path d="m265.2903,527.5812c2.5718-.901 4.0689-2.7961 8.854-1.6494-1.7174-5.2896-7.0751-1.9113-8.854,1.6494z" fill="#fff" fill-rule="evenodd"/>
<path d="m271.9119,537.3927c1.8072-4.5519 1.0239-8.2847-4.7678-11.6249-5.6968-3.2855-9.6065-2.0067-12.8241,1.4792 7.2159,1.0429 12.8602,4.805 17.5919,10.1457z" fill="#fff" stroke="#000"/>
<path d="m252.0107,544.9078c.0402,1.2517-.4068,2.44-.9534,3.6153 1.4591-.6523 2.9382-.9531 4.4252-1.1119" fill="#fff" fill-rule="evenodd"/>
<path d="m257.6962,523.7115 1.2209,4.5564" fill="none" stroke="#000"/>
<path d="m260.3479,523.4021 1.9981,6.501" fill="none" stroke="#000"/>
<path d="m262.9554,523.623 2.7052,8.2701" fill="none" stroke="#000"/>
<path d="m266.0931,524.7279 3.5178,10.303" fill="none" stroke="#000"/>
<path d="m269.0099,526.584 3.5178,10.303" fill="none" stroke="#000"/>
</g>
</svg>
