<svg viewBox="0 0 512 512" xmlns="http://www.w3.org/2000/svg">

<g transform="matrix(18.68858,0,0,18.68858,-2271.47212,-27219.60023)">
<path d="m 128.938 1458.56 c -3.7835 2.1729 -6.3438 6.2301 -6.3438 10.9063 0 4.7012 2.5891 8.7735 6.4062 10.9374 -2.5389 -2.4985 -4.1875 -6.4501 -4.1875 -10.9374 0 -4.4556 1.6168 -8.4046 4.125 -10.9063 z m 12.7188 0.125 c 2.4386 2.5074 4 6.3985 4 10.7813 0 4.3946 -1.5814 8.2746 -4.0312 10.7812 3.6753 -2.1999 6.1562 -6.1863 6.1562 -10.7812 s -2.4625 -8.5784 -6.125 -10.7813 z" fill="#fff"/>
<path d="m 132.062 1461.19 c -3.2867 1.3172 -5.625 4.5239 -5.625 8.2813 0 3.7676 2.3552 6.9708 5.6562 8.2812 -2.2125 -1.6188 -3.7188 -4.7189 -3.7188 -8.2812 0 -3.5512 1.4865 -6.6583 3.6875 -8.2813 z m 7.625 0.4687 c 1.8825 1.7102 3.0938 4.5788 3.0938 7.8126 0 3.2711 -1.2369 6.1407 -3.1562 7.8437 2.7828 -1.5117 4.6875 -4.4541 4.6875 -7.8437 0 -3.3649 -1.8755 -6.2911 -4.625 -7.8126 z" fill="#fff"/>
<path d="m 133.522 1464.02 c -2.2821 0.7673 -3.9129 2.9136 -3.9129 5.4544 0 2.5637 1.6579 4.7351 3.9722 5.484 -1.4472 -0.9929 -2.4604 -3.0643 -2.4604 -5.484 0 -2.385 0.9875 -4.4449 2.4011 -5.4544 z m 4.1797 0.1778 c 1.2755 1.0662 2.1047 3.036 2.1047 5.2766 0 2.2749 -0.8559 4.2516 -2.164 5.3061 2.0556 -0.8809 3.4979 -2.9281 3.4979 -5.3061 0 -2.3544 -1.4157 -4.3816 -3.4386 -5.2766 z" fill="#fff"/>
<path d="m 137.223 1469.75 c 0 0.9153 -0.742 1.6573 -1.6573 1.6573 s -1.6573 -0.742 -1.6573 -1.6573 0.742 -1.6573 1.6573 -1.6573 1.6573 0.742 1.6573 1.6573 z" fill="#fff" transform="matrix(1.18667,0,0,1.18667,-25.30872,-274.35408)"/>
<path d="m 134.833 1469.6 h 1.4584 v 13.3908 h -1.4584 z" fill="#fff"/>
</g>
</svg>
