<svg viewBox="0 0 512 512" xmlns="http://www.w3.org/2000/svg">

<g transform="matrix(18.68858,0,0,18.68858,-4320.93669,-42185.07874)">
<path d="m 233.968 2272.48 v 11.7968 h 7.8464 v -11.7968 z" fill="#fff" stroke="#000"/>
<path d="m 241.824 2272.22 c 3e-05 0.767 -1.7609 1.3886 -3.9331 1.3887 s -3.933 -0.6217 -3.9331 -1.3887 c 1e-05 -1.5296 1.7609 -2.5528 3.933 -2.5528 s 3.9331 1.1035 3.9331 2.5528 z" fill="#fff" stroke="#000"/>
<path d="m 239.526 2269.98 c -1e-05 0.3571 -0.7321 0.6296 -1.6353 0.6296 s -1.6354 -0.2725 -1.6354 -0.6296 l 1e-05 -2.6646 c -3e-05 -0.3571 0.7321 -0.6295 1.6353 -0.6295 s 1.6354 0.2725 1.6354 0.6295 z" fill="#fff" stroke="#000"/>
<path d="m 206.784 2261.52 c 0 0.3648 -0.2958 0.6606 -0.6606 0.6606 s -0.6606 -0.2958 -0.6606 -0.6606 0.2958 -0.6605 0.6606 -0.6605 0.6606 0.2957 0.6606 0.6605 z" transform="matrix(.97457,3.0807248e-8,-3.0477918e-8,.9851,38.16004,40.79398)"/>
<path d="m 246.188 2262.81 c -1.8463 0.1653 -2.6755 2.4389 -1.5938 3.7813 l -5.3869 2.0312 6.8203 3.2457 c -1.2598 1.3741 0.1722 2.9985 1.6562 2.6875 -1.4917 2.3693 2.1153 4.0983 3.4375 2.5 0.7354 1.9151 4.6548 2.4271 5.2542 -0.5417 0.3569 0.3988 1.1336 0.7006 1.5312 0.753 v -16.2695 l -0.3125 0.125 c -0.9176 -2.1676 -3.7435 -2.4962 -5.2812 -0.5605 -2.0387 -4.2274 -7.5373 -1.257 -6.125 2.248 z" fill="#fff"/>
<path d="m 258.089 2258.11 v 20.1424" fill="none" stroke="#000"/>
<path d="m 251.658 2262.76 c -1.4244 1.2108 -2.2183 1.6405 -2.8177 3.2838 0.072 -1.3034 -0.1813 -2.1008 -1.1737 -2.8794 1.2847 0.4639 2.5608 0.4432 3.9914 -0.4044 z"/>
<path d="m 244.077 2265.33 c 0.5217 1.8207 1.8168 2.5907 3.3576 2.5995 -1.7204 0.4501 -3.4792 0.2514 -4.3053 -1.7059"/>
<path d="m 245.335 2273.24 c 0.5217 -1.8205 1.8168 -2.5907 3.3576 -2.5995 -1.7205 -0.4496 -3.4792 -0.2512 -4.3053 1.706"/>
<path d="m 251.387 2271.93 c -0.6189 -1.8815 1.194 -3.7554 2.9289 -3.3981 -1.9351 -2.0641 -5.1144 1.4182 -2.9289 3.3981 z"/>
<path d="m 251.971 2278.09 c -1.3157 -1.3623 -1.3354 -2.8686 -0.5725 -4.2075 -1.25 1.265 -1.9575 2.8875 -0.6753 4.5815"/>
<path d="m 253.096 2265.13 c -0.6189 1.8815 1.194 3.7554 2.9289 3.3981 -1.9351 2.0641 -5.1144 -1.4182 -2.9289 -3.3981 z"/>
</g>
</svg>
