<svg viewBox="0 0 512 512" xmlns="http://www.w3.org/2000/svg">

<g transform="matrix(18.68858,0,0,18.68858,-4320.93669,-42185.07874)">
<path d="m233.9675,2272.4844v11.7968h7.8464v-11.7968z" fill="#fff" stroke="#000"/>
<path d="m241.8239,2272.2241c3e-05,.767-1.7609,1.3886-3.9331,1.3887s-3.933-.6217-3.9331-1.3887c1e-05-1.5296 1.7609-2.5528 3.933-2.5528s3.9331,1.1035 3.9331,2.5528z" fill="#fff" stroke="#000"/>
<path d="m239.5262,2269.9803c-1e-05,.3571-.7321.6296-1.6353.6296s-1.6354-.2725-1.6354-.6296l1e-05-2.6646c-3e-05-.3571.7321-.6295 1.6353-.6295s1.6354.2725 1.6354.6295z" fill="#fff" stroke="#000"/>
<path d="m206.7844,2261.5244c0,.3648-.2958.6606-.6606.6606s-.6606-.2958-.6606-.6606 .2958-.6605.6606-.6605 .6606.2957.6606.6605z" transform="matrix(.97457,3.0807248e-8,-3.0477918e-8,.9851,38.16004,40.79398)"/>
<path d="m246.1875,2262.8125c-1.8463.1653-2.6755,2.4389-1.5938,3.7813l-5.3869,2.0312 6.8203,3.2457c-1.2598,1.3741.1722,2.9985 1.6562,2.6875-1.4917,2.3693 2.1153,4.0983 3.4375,2.5 .7354,1.9151 4.6548,2.4271 5.2542-.5417 .3569.3988 1.1336.7006 1.5312.753v-16.2695l-.3125.125c-.9176-2.1676-3.7435-2.4962-5.2812-.5605-2.0387-4.2274-7.5373-1.257-6.125,2.248z" fill="#fff"/>
<path d="m258.0895,2258.1127v20.1424" fill="none" stroke="#000"/>
<path d="m251.6576,2262.7586c-1.4244,1.2108-2.2183,1.6405-2.8177,3.2838 .072-1.3034-.1813-2.1008-1.1737-2.8794 1.2847.4639 2.5608.4432 3.9914-.4044z"/>
<path d="m244.0769,2265.3272c.5217,1.8207 1.8168,2.5907 3.3576,2.5995-1.7204.4501-3.4792.2514-4.3053-1.7059"/>
<path d="m245.3353,2273.2402c.5217-1.8205 1.8168-2.5907 3.3576-2.5995-1.7205-.4496-3.4792-.2512-4.3053,1.706"/>
<path d="m251.3867,2271.9316c-.6189-1.8815 1.194-3.7554 2.9289-3.3981-1.9351-2.0641-5.1144,1.4182-2.9289,3.3981z"/>
<path d="m251.971,2278.0932c-1.3157-1.3623-1.3354-2.8686-.5725-4.2075-1.25,1.265-1.9575,2.8875-.6753,4.5815"/>
<path d="m253.0961,2265.1289c-.6189,1.8815 1.194,3.7554 2.9289,3.3981-1.9351,2.0641-5.1144-1.4182-2.9289-3.3981z"/>
</g>
</svg>
