<svg viewBox="0 0 512 512" xmlns="http://www.w3.org/2000/svg">

<g transform="matrix(18.68858,0,0,18.68858,-4995.41601,-27222.91371)">
<path d="m 267.351 1460.01 0.0448 -3.3475 3.258 0.044 11.6513 11.6509 -3.3027 3.3026 z" fill="#fff"/>
<g transform="matrix(1.07565,-1.07565,-1.07565,-1.07565,1566.6439,3342.0534)">
<path d="m 271.313 1462.83 -3.3091 7.5703 3.3089 -1.1291 1.0772 5.5118 1.039 -5.578 3.3473 1.1952 -3.3472 -7.5702 z" fill="#fff"/>
<path d="m 243.506 1476.13 c 0 0.9156 -0.4587 1.6578 -1.0245 1.6578 s -1.0245 -0.7422 -1.0245 -1.6578 0.4587 -1.6577 1.0245 -1.6577 1.0245 0.7422 1.0245 1.6577 z" transform="matrix(1.81166,-4.5559685e-5,-3.8489367e-5,2.14838,-166.85801,-1706.1795)"/>
</g>
<g transform="matrix(.5512,-.5512,-.5512,-.5512,965.33248,2422.456)">
<path d="m 237.487 1474.5 5.2741 3.1664 5.2741 -3.1664 -5.2741 -10.8747 z" fill="#fff"/>
<path d="m 240.951 1473.06 c 0 -6.9914 3.6186 -6.9822 3.6186 0 z"/>
<path d="m 240.33 1478.28 -1.5817 -5.385 h 8.0241 l -1.5817 5.385 z" fill="#fff"/>
<path d="m 237.709 1474.78 v -7.0676" fill="none" stroke="#fff" stroke-width="1.2828"/>
<path d="m 247.85 1474.78 v -7.0676" fill="none" stroke="#fff" stroke-width="1.2828"/>
<path d="m 247.764 1469.4 -0.5154 5.4985 4.4979 0.1765 z" fill="#fff"/>
<path d="m 237.843 1469.4 0.6583 5.4929 -4.6408 0.1821 z" fill="#fff"/>
</g>
<path d="m 282.941 1468.5 c -0.0353 -0.1421 -4.4078 -9.455 -4.4078 -9.455 l 1.5641 9.8816" fill="#fff"/>
<path d="m 279.054 1472.39 c -0.1416 -0.038 -9.4554 -4.4077 -9.4554 -4.4077 l 9.8819 1.5641" fill="#fff"/>
<path d="m 278.237 1457.11 h -10.4587 v 7.1555" fill="none" stroke="#000"/>
</g>
</svg>
