<svg viewBox="0 0 512 512" xmlns="http://www.w3.org/2000/svg">

<g transform="matrix(18.68858,0,0,18.68858,-4995.41601,-27222.91371)">
<path d="m267.3507,1460.0083 .0448-3.3475 3.258.044 11.6513,11.6509-3.3027,3.3026z" fill="#fff"/>
<g transform="matrix(1.07565,-1.07565,-1.07565,-1.07565,1566.6439,3342.0534)">
<path d="m271.3133,1462.8277-3.3091,7.5703 3.3089-1.1291 1.0772,5.5118 1.039-5.578 3.3473,1.1952-3.3472-7.5702z" fill="#fff"/>
<path d="m243.5058,1476.1313c0,.9156-.4587,1.6578-1.0245,1.6578s-1.0245-.7422-1.0245-1.6578 .4587-1.6577 1.0245-1.6577 1.0245.7422 1.0245,1.6577z" transform="matrix(1.81166,-4.5559685e-5,-3.8489367e-5,2.14838,-166.85801,-1706.1795)"/>
</g>
<g transform="matrix(.5512,-.5512,-.5512,-.5512,965.33248,2422.456)">
<path d="m237.4865,1474.4983 5.2741,3.1664 5.2741-3.1664-5.2741-10.8747z" fill="#fff"/>
<path d="m240.9514,1473.0635c0-6.9914 3.6186-6.9822 3.6186,0z"/>
<path d="m240.3303,1478.2822-1.5817-5.385h8.0241l-1.5817,5.385z" fill="#fff"/>
<path d="m237.7087,1474.7849v-7.0676" fill="none" stroke="#fff" stroke-width="1.2828"/>
<path d="m247.8499,1474.7849v-7.0676" fill="none" stroke="#fff" stroke-width="1.2828"/>
<path d="m247.7643,1469.3977-.5154,5.4985 4.4979.1765z" fill="#fff"/>
<path d="m237.8434,1469.3977 .6583,5.4929-4.6408.1821z" fill="#fff"/>
</g>
<path d="m282.9413,1468.5048c-.0353-.1421-4.4078-9.455-4.4078-9.455l1.5641,9.8816" fill="#fff"/>
<path d="m279.0541,1472.3918c-.1416-.038-9.4554-4.4077-9.4554-4.4077l9.8819,1.5641" fill="#fff"/>
<path d="m278.2368,1457.1124h-10.4587v7.1555" fill="none" stroke="#000"/>
</g>
</svg>
