<svg viewBox="0 0 512 512" xmlns="http://www.w3.org/2000/svg">

<g transform="matrix(18.68858,0,0,18.68858,-7717.47601,-23823.57738)">
<path d="m 417.78 1287.11 c 0 -14.9774 17.917 -15.1468 17.917 0 -5.1258 5.1628 -13.0886 4.8632 -17.917 0 z" fill="#fff" fill-rule="evenodd"/>
<path d="m 426.746 1301.93 c -2.0927 -0.028 -4.1973 -5.1263 -4.1973 -15.2156 0.005 -0.014 0.0182 -0.019 0.023 -0.033 h 8.3255 c 0.005 0.014 0.0182 0.019 0.023 0.033 0 10.2037 -2.0816 15.244 -4.1743 15.2156 z" fill="#fff" fill-rule="evenodd"/>
<path d="m 426.739 1289.28 c -0.8076 0.023 -1.6198 4.1621 -1.6198 12.3539 0.002 0.011 0.007 0.015 0.009 0.027 h 3.2129 c 0.002 -0.011 0.007 -0.015 0.009 -0.027 0 -8.2847 -0.8033 -12.3774 -1.6109 -12.3539 z" fill-rule="evenodd"/>
<path d="m 422.68 1301.63 h 8.75" fill="none" stroke="#000"/>
<path d="m 424.107 1287.39 c 0.1972 -1.1326 -1.7338 -3.0967 -5.9718 -4.7386 l -0.0163 0.01 -0.8314 4.4877 c 0.005 0 0.006 0.013 0.0116 0.018 4.2859 1.6607 6.611 1.359 6.8079 0.2262 z" fill-rule="evenodd"/>
<path d="m 429.801 1287.39 c -0.1972 -1.1326 1.7338 -3.0967 5.9718 -4.7386 l 0.0163 0.01 0.8314 4.4877 c -0.005 0 -0.006 0.013 -0.0116 0.018 -4.2859 1.6607 -6.611 1.359 -6.8079 0.2262 z" fill-rule="evenodd"/>
<path d="m 421.79 1285.86 c 0 0.5542 -0.4493 1.0035 -1.0035 1.0035 s -1.0035 -0.4493 -1.0035 -1.0035 0.4493 -1.0035 1.0035 -1.0035 1.0035 0.4493 1.0035 1.0035 z" fill="#fff" stroke="#000" stroke-width=".5637" transform="matrix(1.8881,-1.02058,.77085,1.25002,-1352.4785,108.24251)"/>
<path d="m 421.79 1285.86 c 0 0.5542 -0.4493 1.0035 -1.0035 1.0035 s -1.0035 -0.4493 -1.0035 -1.0035 0.4493 -1.0035 1.0035 -1.0035 1.0035 0.4493 1.0035 1.0035 z" fill="#fff" stroke="#000" stroke-width=".5637" transform="matrix(-1.8881,-1.02058,-.77085,1.25002,2206.3337,108.24251)"/>
</g>
</svg>
