<svg viewBox="0 0 512 512" xmlns="http://www.w3.org/2000/svg">

<g transform="matrix(18.68858,0,0,18.68858,-7717.47601,-23823.57738)">
<path d="m417.7804,1287.1135c0-14.9774 17.917-15.1468 17.917,0-5.1258,5.1628-13.0886,4.8632-17.917,0z" fill="#fff" fill-rule="evenodd"/>
<path d="m426.7459,1301.9282c-2.0927-.028-4.1973-5.1263-4.1973-15.2156 .005-.014.0182-.019.023-.033h8.3255c.005.014.0182.019.023.033 0,10.2037-2.0816,15.244-4.1743,15.2156z" fill="#fff" fill-rule="evenodd"/>
<path d="m426.7388,1289.2823c-.8076.023-1.6198,4.1621-1.6198,12.3539 .002.011.007.015.009.027h3.2129c.002-.011.007-.015.009-.027 0-8.2847-.8033-12.3774-1.6109-12.3539z" fill-rule="evenodd"/>
<path d="m422.6797,1301.6278h8.75" fill="none" stroke="#000"/>
<path d="m424.107,1287.3948c.1972-1.1326-1.7338-3.0967-5.9718-4.7386l-.0163.01-.8314,4.4877c.005,0 .006.013.0116.018 4.2859,1.6607 6.611,1.359 6.8079.2262z" fill-rule="evenodd"/>
<path d="m429.8012,1287.3948c-.1972-1.1326 1.7338-3.0967 5.9718-4.7386l.0163.01 .8314,4.4877c-.005,0-.006.013-.0116.018-4.2859,1.6607-6.611,1.359-6.8079.2262z" fill-rule="evenodd"/>
<path d="m421.7897,1285.8557c0,.5542-.4493,1.0035-1.0035,1.0035s-1.0035-.4493-1.0035-1.0035 .4493-1.0035 1.0035-1.0035 1.0035.4493 1.0035,1.0035z" fill="#fff" stroke="#000" stroke-width=".5637" transform="matrix(1.8881,-1.02058,.77085,1.25002,-1352.4785,108.24251)"/>
<path d="m421.7897,1285.8557c0,.5542-.4493,1.0035-1.0035,1.0035s-1.0035-.4493-1.0035-1.0035 .4493-1.0035 1.0035-1.0035 1.0035.4493 1.0035,1.0035z" fill="#fff" stroke="#000" stroke-width=".5637" transform="matrix(-1.8881,-1.02058,-.77085,1.25002,2206.3337,108.24251)"/>
</g>
</svg>
