<svg viewBox="0 0 512 512" xmlns="http://www.w3.org/2000/svg">

<g transform="matrix(18.68858,0,0,18.68858,-13164.89059,-23820.15737)">
<path d="m 719.15 1282.69 6.5 3.3773 -3.375 -4.1528 6.0625 -1.0507 -6.0625 -1.0257 3.375 -4.1528 -6.4688 3.3522 -0.0312 3.6525 z" fill="#fff"/>
<path d="m 726.398 1289.19 -12.4456 12.4456" fill="none" stroke="#000"/>
<path d="m 709.608 1289.19 12.4456 12.4456" fill="none" stroke="#000"/>
<path d="m 720.405 1301.66 -0.0001 -19.6905 -2.6313 -6.1252 -2.6317 6.1252 -9e-05 19.6908 5.2632 -0.0003 z" fill="#fff"/>
<path d="m 720.235 1279.81 1.3166 -4.3819 -3.1149 3.3437 1.7983 1.0382 z" fill="#fff"/>
<path d="m 722.092 1282.59 0.1377 4.5733 -2.1434 -4.0359 2.0057 -0.5374 z" fill="#fff"/>
<path d="m 720.9 1301.66 v -19.6875 l -2.5935 -6.1495" fill="none" stroke="#000"/>
<path d="m 715.042 1279.81 -1.3166 -4.3819 3.1149 3.3437 -1.7983 1.0382 z" fill="#fff"/>
<path d="m 716.04 1282.69 -6.3219 3.2461 3.1969 -4.0216 -6.0625 -1.0507 6.0625 -1.0257 -3.375 -4.1528 6.4688 3.3522 0.0312 3.6525 z" fill="#fff"/>
<path d="m 713.242 1282.73 -0.1377 4.5733 2.1434 -4.0359 -2.0057 -0.5374 z" fill="#fff"/>
<path d="m 717.377 1275.61 -2.7123 6.3557 v 19.6875" fill="none" stroke="#000"/>
<path d="m 730.906 1284.75 -6.1875 2.5 -14.3125 14.3125 h 7.4375 l 10.5938 -10.5937 2.4688 -6.2188 z" fill="#fff" stroke="#000"/>
<path d="m 725.52 1290.05 c -4.1416 3.2292 -8.6105 7.2533 -12.8179 11.4543 h 2.7272 c 3.7095 -3.8024 7.1893 -7.7332 10.0907 -11.4543 z"/>
<path d="m 717.827 1282.01 c 0.6452 5.212 0.9597 11.2174 0.9642 17.1631 l -1.9284 -1.9284 c 0.0657 -5.3118 0.3846 -10.5519 0.9642 -15.2347 z"/>
<path d="m 705.312 1284.75 2.4688 6.2188 10.5938 10.5937 h 7.4375 l -14.3125 -14.3125 -6.1875 -2.5 z" fill="#fff" stroke="#000"/>
<path d="m 710.565 1290.05 c 4.1416 3.2292 8.6105 7.2533 12.8179 11.4543 h -2.7272 c -3.7095 -3.8024 -7.1893 -7.7332 -10.0907 -11.4543 z"/>
</g>
</svg>
