<svg viewBox="0 0 512 512" xmlns="http://www.w3.org/2000/svg">

<g transform="matrix(18.68858,0,0,18.68858,-13164.89059,-23820.15737)">
<path d="m719.1496,1282.6922 6.5,3.3773-3.375-4.1528 6.0625-1.0507-6.0625-1.0257 3.375-4.1528-6.4688,3.3522-.0312,3.6525z" fill="#fff"/>
<path d="m726.3976,1289.1879-12.4456,12.4456" fill="none" stroke="#000"/>
<path d="m709.6083,1289.1879 12.4456,12.4456" fill="none" stroke="#000"/>
<path d="m720.4048,1301.6608-.0001-19.6905-2.6313-6.1252-2.6317,6.1252-9e-05,19.6908 5.2632-.0003z" fill="#fff"/>
<path d="m720.2346,1279.8066 1.3166-4.3819-3.1149,3.3437 1.7983,1.0382z" fill="#fff"/>
<path d="m722.0924,1282.5867 .1377,4.5733-2.1434-4.0359 2.0057-.5374z" fill="#fff"/>
<path d="m720.9005,1301.6563v-19.6875l-2.5935-6.1495" fill="none" stroke="#000"/>
<path d="m715.0422,1279.8066-1.3166-4.3819 3.1149,3.3437-1.7983,1.0382z" fill="#fff"/>
<path d="m716.0402,1282.6922-6.3219,3.2461 3.1969-4.0216-6.0625-1.0507 6.0625-1.0257-3.375-4.1528 6.4688,3.3522 .0312,3.6525z" fill="#fff"/>
<path d="m713.2419,1282.7276-.1377,4.5733 2.1434-4.0359-2.0057-.5374z" fill="#fff"/>
<path d="m717.3771,1275.6131-2.7123,6.3557v19.6875" fill="none" stroke="#000"/>
<path d="m730.9062,1284.75-6.1875,2.5-14.3125,14.3125h7.4375l10.5938-10.5937 2.4688-6.2188z" fill="#fff" stroke="#000"/>
<path d="m725.5198,1290.0457c-4.1416,3.2292-8.6105,7.2533-12.8179,11.4543h2.7272c3.7095-3.8024 7.1893-7.7332 10.0907-11.4543z"/>
<path d="m717.8275,1282.0099c.6452,5.212.9597,11.2174.9642,17.1631l-1.9284-1.9284c.0657-5.3118.3846-10.5519.9642-15.2347z"/>
<path d="m705.3125,1284.75 2.4688,6.2188 10.5938,10.5937h7.4375l-14.3125-14.3125-6.1875-2.5z" fill="#fff" stroke="#000"/>
<path d="m710.5652,1290.0457c4.1416,3.2292 8.6105,7.2533 12.8179,11.4543h-2.7272c-3.7095-3.8024-7.1893-7.7332-10.0907-11.4543z"/>
</g>
</svg>
