<svg viewBox="0 0 512 512" xmlns="http://www.w3.org/2000/svg">

<g transform="matrix(18.68858,0,0,18.68858,-3631.28359,-17252.34126)">
<path d="m 220.713 933.484 -18.3406 -9.5459 -0.8618 0.8618 c 0.8518 1.2574 0.5604 3.1961 -0.8176 4.5741 s -3.361 1.7158 -4.6183 0.8618 l -0.8176 0.8176 9.5238 18.3627 8.1538 -4.7951 -5.8115 -0.464 2.9168 -2.9168 -4.8835 -0.3757 2.5412 -2.5412 -4.3973 -0.3315 2.1213 -2.1213 -3.7786 -0.2873 1.9003 -1.9003 -3.2925 -0.2431 c 2.2727 -0.4126 4.2469 -2.3736 4.6625 -4.6625 l 0.2652 3.2704 1.8783 -1.8782 0.3094 3.7565 2.0992 -2.0992 0.3535 4.3752 2.5191 -2.5191 0.3756 4.8834 2.9168 -2.9168 0.4419 5.7011 4.6404 -7.8666 z" fill="#fff"/>
</g>
</svg>
