<svg viewBox="0 0 512 512" xmlns="http://www.w3.org/2000/svg">

<g transform="matrix(18.68858,0,0,18.68858,-3631.28359,-17252.34126)">
<path d="m220.7132,933.4842-18.3406-9.5459-.8618.8618c.8518,1.2574.5604,3.1961-.8176,4.5741s-3.361,1.7158-4.6183.8618l-.8176.8176 9.5238,18.3627 8.1538-4.7951-5.8115-.464 2.9168-2.9168-4.8835-.3757 2.5412-2.5412-4.3973-.3315 2.1213-2.1213-3.7786-.2873 1.9003-1.9003-3.2925-.2431c2.2727-.4126 4.2469-2.3736 4.6625-4.6625l.2652,3.2704 1.8783-1.8782 .3094,3.7565 2.0992-2.0992 .3535,4.3752 2.5191-2.5191 .3756,4.8834 2.9168-2.9168 .4419,5.7011 4.6404-7.8666z" fill="#fff"/>
</g>
</svg>
