<svg viewBox="0 0 512 512" xmlns="http://www.w3.org/2000/svg">

<g transform="matrix(18.68858,0,0,18.68858,-2951.19651,-37446.66791)">
<path d="m 174.51 2020.2 3.2588 3.4919 -0.5481 5.536" fill="none" stroke="#fff"/>
<path d="m 170.884 2020.54 1.1311 4.4608 -2.9772 4.1277" fill="none" stroke="#fff"/>
<path d="m 168.518 2019.19 -2.0881 3.9267 -4.0868 1.6965" fill="none" stroke="#fff"/>
<path d="m 166.856 2017.09 -3.6075 2.2657 -3.8463 -0.484" fill="none" stroke="#fff"/>
<path d="m 166.989 2014.63 -3.975 0.091 -3.109 -2.5547" fill="none" stroke="#fff"/>
<path d="m 168.586 2011.99 -3.4263 -1.7977 -1.0151 -3.3431" fill="none" stroke="#fff"/>
<path d="m 170.804 2011.31 -0.7032 -3.1668 0.51 -3.2979" fill="none" stroke="#fff"/>
<path d="m 173.034 2012.13 1.6893 -2.1369 2.631 -1.5416" fill="none" stroke="#fff"/>
<path d="m 174.041 2014.11 4.7558 -0.3846" fill="none" stroke="#fff"/>
<path d="m 173.177 2015.97 3.0802 3.08" fill="none" stroke="#fff"/>
<path d="m 172.207 2020.79 -0.3532 -4.1405 c 1.1463 0.018 2.0967 -1.2221 2.0681 -2.4975 -0.0395 -1.7604 -1.6765 -3.0116 -3.3615 -2.9589 -2.2956 0.072 -3.9252 2.2218 -3.8455 4.4313 0.1073 2.9744 2.884 5.075 5.7401 4.9494 3.8021 -0.167 6.4852 -3.7413 6.3098 -7.4114 -0.2311 -4.8354 -4.7618 -8.2317 -9.4176 -7.9763 -6.0754 0.3332 -10.3419 6.0645 -10.0013 11.944 0.4406 7.6031 7.5887 12.92 14.9274 12.4473 3.5722 -0.2299 6.9958 -1.7348 9.6535 -4.1293 l -1.5968 -5.4897 -4.9961 -2.2121" fill="none" stroke="#fff"/>
<path d="m 170.121 2016.13 c 0 0.9233 -0.7485 1.6718 -1.6718 1.6718 s -1.6718 -0.7485 -1.6718 -1.6718 0.7485 -1.6718 1.6718 -1.6718 1.6718 0.7485 1.6718 1.6718 z" fill="#fff" transform="matrix(.77816,.92407,-.92403,.77821,1903.1664,291.19579)"/>
<path d="m 170.264 2016.02 -2.5333 2.2098" fill="none" stroke="#fff"/>
<path d="m 167.2 2013.29 3.0864 1.2602" fill="none" stroke="#fff"/>
<path d="m 171.598 2011.34 -0.0953 2.5642" fill="none" stroke="#fff"/>
<path d="m 176.325 2013.09 c 0.2994 2.6732 -1.0677 5.1436 -4.1703 5.2744 -1.6517 0.07 -3.4972 -1.4446 -2.5696 -3.6183 l 3.6816 1.1523 1.1955 -1.6978 c -1.5626 -5.1357 -7.5834 -2.9625 -7.7121 0 -0.9858 4.4102 5.7587 9.9062 10.8598 3.4906 l 4.5251 2.2339 c -5.6235 9.2767 -22.5699 5.6975 -19.1779 -6.3659 2.0228 -7.1938 12.6346 -7.0152 13.3678 -0.4692 z" fill="#fff"/>
</g>
</svg>
