<svg xmlns="http://www.w3.org/2000/svg" viewBox="0 0 512 512">
<g transform="matrix(15 0 0 15 -4843.9997 -4363.9997)">
<use width="744.094" height="1052.362" transform="translate(360 288)"/>
</g>
<g fill="#fff" transform="matrix(10.43478 0 0 10.43478 5.56523 37.51346)">
<path d="m 15.375 -2.0617 c -0.7517 0 -1.4375 0.7047 -1.4375 1.4375 v 2.875 h 1.4375 v 2.875 h -5.75 c -6.5396 0 -7.1879 5.0922 -7.1875 7.1875 v 25.875 c 0.0002 1.1251 -1.4375 2.875 -1.4375 2.875 l 0 2.875 h 46 l -0 -2.875 c 0 0 -1.4377 -1.7499 -1.4375 -2.875 v -25.875 c 0.0004 -2.0953 -0.6479 -7.1875 -7.1875 -7.1875 h -5.75 v -2.875 h 1.4375 v -2.875 c 0 -0.7328 -0.6858 -1.4375 -1.4375 -1.4375 z m 7.1875 4.3125 2.875 0 c 1.4375 0 4.3125 0 4.3125 2.875 h -11.5 c 0 -2.875 2.875 -2.875 4.3125 -2.875 z m -11.5 8.625 25.875 0 c 1.8411 0 2.875 1.0523 2.875 2.875 v 23 c 0 0.8114 -0.7411 1.4375 -1.4375 1.4375 h -28.75 c -0.6964 0 -1.4375 -0.6261 -1.4375 -1.4375 v -23 c 0 -1.8227 1.0339 -2.875 2.875 -2.875 z"/>
<g fill-rule="evenodd">
<path d="m 31.1875 31.0008 5.75 0 0 2.875 -5.75 0 z"/>
<path d="m 31.1875 29.5633 0 -10.0625 c 0 -3.6568 2.875 -5.75 2.875 -5.75 0 0 2.875 2.0932 2.875 5.75 v 10.0625 z"/>
<path d="m 11.0625 29.5633 0 -10.0625 c 0 -3.6568 2.875 -5.75 2.875 -5.75 0 0 2.875 2.0932 2.875 5.75 v 10.0625 z"/>
<path d="m 21.125 29.5633 0 -10.0625 c 0 -3.6568 2.875 -5.75 2.875 -5.75 0 0 2.875 2.0932 2.875 5.75 v 10.0625 z"/>
<path d="m 21.125 31.0008 5.75 0 0 2.875 -5.75 0 z"/>
<path d="m 11.0625 31.0008 5.75 0 0 2.875 -5.75 0 z"/>
</g>
</g>
</svg>
