<svg viewBox="0 0 512 512" xmlns="http://www.w3.org/2000/svg">

<g transform="matrix(18.68858,0,0,18.68858,-10440.21661,-36085.68666)">
<path d="m 580.394 1941.31 c 2.1781 3.3971 2.195 6.8522 -0.6456 10.3838 -5.995 -1.2478 -8.0632 -4.2925 -6.779 -8.6083" fill="#fff"/>
<path d="m 569.529 1942.99 c -0.1462 1.1326 -1.2974 1.8132 -2.3751 1.663 -1.5201 -0.212 -2.4307 -1.7681 -2.2182 -3.2231 0.2953 -2.022 2.3613 -3.2267 4.2933 -2.9269 2.6484 0.4108 4.2228 3.136 3.8143 5.6806 -0.553 3.4447 -4.0902 5.4825 -7.393 4.9257 -4.4197 -0.745 -7.03 -5.3142 -6.2933 -9.5742 0.9753 -5.6397 6.7926 -8.9562 12.216 -7.9791 5.1192 0.9224 9.0256 5.2062 10.0045 10.2478 0.0354 2.36 -6.3247 4.6872 -8.4681 2.4591" fill="#fff" stroke="#000"/>
<path d="m 576.777 1947.87 c 0 0.4519 -0.3663 0.8182 -0.8182 0.8182 s -0.8182 -0.3663 -0.8182 -0.8182 0.3663 -0.8182 0.8182 -0.8182 0.8182 0.3664 0.8182 0.8182 z" stroke="#fff" stroke-width=".5755" transform="matrix(1.7377,0,0,1.7377,-424.98175,-1436.9652)"/>
<path d="m 576.777 1947.87 c 0 0.4519 -0.3663 0.8182 -0.8182 0.8182 s -0.8182 -0.3663 -0.8182 -0.8182 0.3663 -0.8182 0.8182 -0.8182 0.8182 0.3664 0.8182 0.8182 z" stroke="#fff" stroke-width=".5755" transform="matrix(1.7377,0,0,1.7377,-420.82379,-1438.1723)"/>
<path d="m 576.353 1949.86 c 3.1367 2.4149 -1.1417 4.8551 0.7029 7.9893" fill="none" stroke="#fff"/>
<path d="m 580.947 1948.19 c 0.7651 2.9764 2.9339 3.7876 4.6191 3.9169" fill="none" stroke="#fff"/>
<path d="m 579.83 1949.37 c -0.8244 2.6557 -0.1775 5.5084 1.9161 8.555" fill="none" stroke="#fff"/>
<path d="m 580.49 1949.35 c 0.2802 2.6815 2.2206 5.2032 5.191 7.5676" fill="none" stroke="#fff"/>
<path d="m 571.053 1956.61 c 3.4878 -0.48 5.9171 -5.1945 3.4185 -7.9887" fill="none" stroke="#fff"/>
<path d="m 580.947 1947.42 c 0.9797 1.9975 2.907 2.0774 4.6191 1.3425" fill="none" stroke="#fff"/>
<path d="m 567.643 1957.78 h 17.9195 v -13.1446" fill="none" stroke="#000"/>
<path d="m 574.69 1948.82 c 0.4389 3.4933 -2.6716 5.5766 -3.842 2.0158" fill="none" stroke="#fff"/>
<path d="m 574.712 1945.09 c -0.6885 -0.1401 -1.1088 -0.4272 -1.7973 -0.9121 -1.4037 0.304 -0.9218 2.3518 -0.1878 3.863" fill="#fff" stroke="#000"/>
<path d="m 580.935 1939.22 -3.5946 1.7704" fill="none" stroke="#000"/>
<path d="m 577.555 1934.55 -2.6289 2.6826" fill="none" stroke="#000"/>
<path d="m 572.19 1931.71 -0.8048 3.38" fill="none" stroke="#000"/>
<path d="m 565.537 1931.81 1.3413 3.1654" fill="none" stroke="#000"/>
<path d="m 561.674 1934.76 1.9314 1.8241" fill="none" stroke="#000"/>
<path d="m 559.529 1938.79 2.5753 0.4829" fill="none" stroke="#000"/>
<path d="m 559.882 1943.54 2.2534 -0.6975" fill="none" stroke="#000"/>
<path d="m 563.928 1945.92 -1.5022 2.0923" fill="none" stroke="#000"/>
<path d="m 566.648 1946.97 -0.0575 1.9591" fill="none" stroke="#000"/>
<path d="m 569.347 1946.3 1.1386 1.751" fill="none" stroke="#000"/>
<path d="m 571.051 1942.65 1.8483 -0.4262" fill="none" stroke="#000"/>
<path d="m 569.553 1940.53 0.7029 -1.5003" fill="none" stroke="#000"/>
<path d="m 566.998 1940.62 -0.9479 -1.3589" fill="none" stroke="#000"/>
</g>
</svg>
