<svg viewBox="0 0 512 512" xmlns="http://www.w3.org/2000/svg">

<g transform="matrix(18.68858,0,0,18.68858,-10440.21661,-36085.68666)">
<path d="m580.3944,1941.3128c2.1781,3.3971 2.195,6.8522-.6456,10.3838-5.995-1.2478-8.0632-4.2925-6.779-8.6083" fill="#fff"/>
<path d="m569.5287,1942.9933c-.1462,1.1326-1.2974,1.8132-2.3751,1.663-1.5201-.212-2.4307-1.7681-2.2182-3.2231 .2953-2.022 2.3613-3.2267 4.2933-2.9269 2.6484.4108 4.2228,3.136 3.8143,5.6806-.553,3.4447-4.0902,5.4825-7.393,4.9257-4.4197-.745-7.03-5.3142-6.2933-9.5742 .9753-5.6397 6.7926-8.9562 12.216-7.9791 5.1192.9224 9.0256,5.2062 10.0045,10.2478 .0354,2.36-6.3247,4.6872-8.4681,2.4591" fill="#fff" stroke="#000"/>
<path d="m576.7773,1947.8679c0,.4519-.3663.8182-.8182.8182s-.8182-.3663-.8182-.8182 .3663-.8182.8182-.8182 .8182.3664.8182.8182z" stroke="#fff" stroke-width=".5755" transform="matrix(1.7377,0,0,1.7377,-424.98175,-1436.9652)"/>
<path d="m576.7773,1947.8679c0,.4519-.3663.8182-.8182.8182s-.8182-.3663-.8182-.8182 .3663-.8182.8182-.8182 .8182.3664.8182.8182z" stroke="#fff" stroke-width=".5755" transform="matrix(1.7377,0,0,1.7377,-420.82379,-1438.1723)"/>
<path d="m576.3532,1949.8612c3.1367,2.4149-1.1417,4.8551.7029,7.9893" fill="none" stroke="#fff"/>
<path d="m580.9465,1948.1933c.7651,2.9764 2.9339,3.7876 4.6191,3.9169" fill="none" stroke="#fff"/>
<path d="m579.8304,1949.3722c-.8244,2.6557-.1775,5.5084 1.9161,8.555" fill="none" stroke="#fff"/>
<path d="m580.4898,1949.3478c.2802,2.6815 2.2206,5.2032 5.191,7.5676" fill="none" stroke="#fff"/>
<path d="m571.0529,1956.6058c3.4878-.48 5.9171-5.1945 3.4185-7.9887" fill="none" stroke="#fff"/>
<path d="m580.9465,1947.4154c.9797,1.9975 2.907,2.0774 4.6191,1.3425" fill="none" stroke="#fff"/>
<path d="m567.6432,1957.78h17.9195v-13.1446" fill="none" stroke="#000"/>
<path d="m574.69,1948.8248c.4389,3.4933-2.6716,5.5766-3.842,2.0158" fill="none" stroke="#fff"/>
<path d="m574.7117,1945.0914c-.6885-.1401-1.1088-.4272-1.7973-.9121-1.4037.304-.9218,2.3518-.1878,3.863" fill="#fff" stroke="#000"/>
<path d="m580.9353,1939.2167-3.5946,1.7704" fill="none" stroke="#000"/>
<path d="m577.5553,1934.549-2.6289,2.6826" fill="none" stroke="#000"/>
<path d="m572.1901,1931.7055-.8048,3.38" fill="none" stroke="#000"/>
<path d="m565.5374,1931.8128 1.3413,3.1654" fill="none" stroke="#000"/>
<path d="m561.6745,1934.7636 1.9314,1.8241" fill="none" stroke="#000"/>
<path d="m559.5285,1938.7874 2.5753.4829" fill="none" stroke="#000"/>
<path d="m559.8818,1943.5364 2.2534-.6975" fill="none" stroke="#000"/>
<path d="m563.9279,1945.9231-1.5022,2.0923" fill="none" stroke="#000"/>
<path d="m566.6484,1946.9684-.0575,1.9591" fill="none" stroke="#000"/>
<path d="m569.3466,1946.2997 1.1386,1.751" fill="none" stroke="#000"/>
<path d="m571.0514,1942.6488 1.8483-.4262" fill="none" stroke="#000"/>
<path d="m569.5528,1940.5254 .7029-1.5003" fill="none" stroke="#000"/>
<path d="m566.9982,1940.6157-.9479-1.3589" fill="none" stroke="#000"/>
</g>
</svg>
