<svg xmlns="http://www.w3.org/2000/svg" viewBox="0 0 512 512">
<g transform="matrix(15 0 0 15 -4843.9997 -4363.9997)">
<use width="744.094" height="1052.362" transform="translate(360 288)"/>
</g>
<g fill="#fff" transform="matrix(10.43478 0 0 10.43478 5.56523 37.51346)">
<path d="m15.375-2.0617c-.7517,0-1.4375,.7047-1.4375,1.4375v2.875h1.4375v2.875h-5.75c-6.5396,0-7.1879,5.0922-7.1875,7.1875v25.875c.0002,1.1251-1.4375,2.875-1.4375,2.875l0,2.875h46l-0-2.875c0,0-1.4377-1.7499-1.4375-2.875v-25.875c.0004-2.0953-.6479-7.1875-7.1875-7.1875h-5.75v-2.875h1.4375v-2.875c0-.7328-.6858-1.4375-1.4375-1.4375zm7.1875,4.3125 2.875,0c1.4375,0 4.3125,0 4.3125,2.875h-11.5c0-2.875 2.875-2.875 4.3125-2.875zm-11.5,8.625 25.875,0c1.8411,0 2.875,1.0523 2.875,2.875v23c0,.8114-.7411,1.4375-1.4375,1.4375h-28.75c-.6964,0-1.4375-.6261-1.4375-1.4375v-23c0-1.8227 1.0339-2.875 2.875-2.875z"/>
<g fill-rule="evenodd">
<path d="m31.1875,31.0008 5.75,0 0,2.875-5.75,0z"/>
<path d="m31.1875,29.5633 0-10.0625c0-3.6568 2.875-5.75 2.875-5.75 0,0 2.875,2.0932 2.875,5.75v10.0625z"/>
<path d="m11.0625,29.5633 0-10.0625c0-3.6568 2.875-5.75 2.875-5.75 0,0 2.875,2.0932 2.875,5.75v10.0625z"/>
<path d="m21.125,29.5633 0-10.0625c0-3.6568 2.875-5.75 2.875-5.75 0,0 2.875,2.0932 2.875,5.75v10.0625z"/>
<path d="m21.125,31.0008 5.75,0 0,2.875-5.75,0z"/>
<path d="m11.0625,31.0008 5.75,0 0,2.875-5.75,0z"/>
</g>
</g>
</svg>
