<svg viewBox="0 0 512 512" xmlns="http://www.w3.org/2000/svg">

<g transform="matrix(18.68858,0,0,18.68858,-2951.19651,-37446.66791)">
<path d="m174.5103,2020.2001 3.2588,3.4919-.5481,5.536" fill="none" stroke="#fff"/>
<path d="m170.8838,2020.5435 1.1311,4.4608-2.9772,4.1277" fill="none" stroke="#fff"/>
<path d="m168.5176,2019.1867-2.0881,3.9267-4.0868,1.6965" fill="none" stroke="#fff"/>
<path d="m166.8555,2017.0927-3.6075,2.2657-3.8463-.484" fill="none" stroke="#fff"/>
<path d="m166.9889,2014.6268-3.975.091-3.109-2.5547" fill="none" stroke="#fff"/>
<path d="m168.5864,2011.9888-3.4263-1.7977-1.0151-3.3431" fill="none" stroke="#fff"/>
<path d="m170.8035,2011.3124-.7032-3.1668 .51-3.2979" fill="none" stroke="#fff"/>
<path d="m173.0337,2012.1313 1.6893-2.1369 2.631-1.5416" fill="none" stroke="#fff"/>
<path d="m174.0408,2014.111 4.7558-.3846" fill="none" stroke="#fff"/>
<path d="m173.1772,2015.9732 3.0802,3.08" fill="none" stroke="#fff"/>
<path d="m172.2072,2020.7891-.3532-4.1405c1.1463.018 2.0967-1.2221 2.0681-2.4975-.0395-1.7604-1.6765-3.0116-3.3615-2.9589-2.2956.072-3.9252,2.2218-3.8455,4.4313 .1073,2.9744 2.884,5.075 5.7401,4.9494 3.8021-.167 6.4852-3.7413 6.3098-7.4114-.2311-4.8354-4.7618-8.2317-9.4176-7.9763-6.0754.3332-10.3419,6.0645-10.0013,11.944 .4406,7.6031 7.5887,12.92 14.9274,12.4473 3.5722-.2299 6.9958-1.7348 9.6535-4.1293l-1.5968-5.4897-4.9961-2.2121" fill="none" stroke="#fff"/>
<path d="m170.1207,2016.1255c0,.9233-.7485,1.6718-1.6718,1.6718s-1.6718-.7485-1.6718-1.6718 .7485-1.6718 1.6718-1.6718 1.6718.7485 1.6718,1.6718z" fill="#fff" transform="matrix(.77816,.92407,-.92403,.77821,1903.1664,291.19579)"/>
<path d="m170.2638,2016.0194-2.5333,2.2098" fill="none" stroke="#fff"/>
<path d="m167.1997,2013.2883 3.0864,1.2602" fill="none" stroke="#fff"/>
<path d="m171.598,2011.3419-.0953,2.5642" fill="none" stroke="#fff"/>
<path d="m176.3253,2013.0891c.2994,2.6732-1.0677,5.1436-4.1703,5.2744-1.6517.07-3.4972-1.4446-2.5696-3.6183l3.6816,1.1523 1.1955-1.6978c-1.5626-5.1357-7.5834-2.9625-7.7121,0-.9858,4.4102 5.7587,9.9062 10.8598,3.4906l4.5251,2.2339c-5.6235,9.2767-22.5699,5.6975-19.1779-6.3659 2.0228-7.1938 12.6346-7.0152 13.3678-.4692z" fill="#fff"/>
</g>
</svg>
