<svg viewBox="0 0 512 512" xmlns="http://www.w3.org/2000/svg">

<g transform="matrix(18.68858,0,0,18.68858,-11119.86469,-25183.59394)">
<path d="m609.3107,1348.6868c1.5798.2053 2.8132,1.9242 2.8132,3.999-1e-05,1.149-.3936,2.1749-.9997,2.9061 3.2855.6182 4.5013,5.3841 3.5339,10.0438h-2.2785l-.6045,8.1142h-5.7892l-.5347-8.1142h-2.1622c-.8532-4.5376-.0783-9.5337 3.5107-10.0903-.5801-.7278-.9532-1.739-.9532-2.8596 1e-05-2.213 1.4086-3.999 3.1387-3.999 .108,0 .2202-.016.3255,0z" fill="#fff" fill-rule="evenodd"/>
<path d="m606.5193,1352.2443c0,1.18-.9566,2.1366-2.1366,2.1366s-2.1366-.9566-2.1366-2.1366 .9566-2.1367 2.1366-2.1367 2.1366.9566 2.1366,2.1367z" stroke="#fff" stroke-width=".9703" transform="matrix(1.03057,0,0,1.03057,-13.81882,-42.18403)"/>
<path d="m598.9062,1348.7188c-1.5224.1299-2.5938,1.7497-2.5938,3.3437 0,.7015.6154,1.4053 1.2188,1.1563 1.1871-.4902 2.9977-.4922 4.0938,0 .5963.2677 1.625-.4538 1.625-1.1563 0-1.6151-1.0546-3.2779-2.5938-3.3437-.6556-.028-.7057.8657-.8125,1.6874-.0839-.9492-.3682-1.736-.9375-1.6874z" fill="#fff"/>
<path d="m608.8082,1351.3059h-4.3346" fill="none" stroke="#fff"/>
<path d="m599.6078,1354.8309v4.9085" fill="none" stroke="#fff"/>
<path d="m597.7341,1356.3305h3.6946" fill="none" stroke="#000"/>
<path d="m597.7341,1358.282h3.6946" fill="none" stroke="#000"/>
<path d="m601.4586,1352.4635c-1.1969,1.8629-2.3938,1.7898-3.5907,0" fill="#fff"/>
<path d="m606.5193,1352.2443c0,1.18-.9566,2.1366-2.1366,2.1366s-2.1366-.9566-2.1366-2.1366 .9566-2.1367 2.1366-2.1367 2.1366.9566 2.1366,2.1367z" stroke="#fff" stroke-width=".9703" transform="matrix(1.03057,0,0,1.03057,-12.13936,-35.09967)"/>
<path d="m610.8201,1358.5543h4.6772" fill="none" stroke="#fff"/>
<path d="m616.7261,1356.6699c.7557-1.3001 3.7824-1.2769 4.5778,0 .8089,1.2987-.5743,5.1913-2.1254,5.2372-1.6038.048-3.247-3.8702-2.4524-5.2372z" fill="#fff"/>
<path d="m617.6991,1357.2989c-.269-1.0798-1.0602-1.4575-1.8728-1.8063" fill="none" stroke="#fff"/>
<path d="m616.6957,1354.9597c1.2401.2258 1.9399.6057 1.6921,2.0186 .4226-1.0251.7635-1.5447 2.4578-.9653"/>
<path d="m617.8175,1356.9961c-.3176-1.0668.175-1.7818.701-2.4823" fill="none" stroke="#fff"/>
<path d="m619.8478,1357.1856c.9789-.5297 1.1361-1.3836 1.2596-2.2509" fill="none" stroke="#fff"/>
<path d="m605.0421,1367.6626-.0744-7.5807" fill="none" stroke="#000"/>
<path d="m612.8549,1367.6626 .0744-7.5807" fill="none" stroke="#000"/>
<path d="m608.9485,1374.1733v-9.6729" fill="none" stroke="#000"/>
</g>
</svg>
