<svg viewBox="0 0 512 512" xmlns="http://www.w3.org/2000/svg">

<g transform="matrix(18.68858,0,0,18.68858,-11119.86469,-25183.59394)">
<path d="m 609.311 1348.69 c 1.5798 0.2053 2.8132 1.9242 2.8132 3.999 -1e-05 1.149 -0.3936 2.1749 -0.9997 2.9061 3.2855 0.6182 4.5013 5.3841 3.5339 10.0438 h -2.2785 l -0.6045 8.1142 h -5.7892 l -0.5347 -8.1142 h -2.1622 c -0.8532 -4.5376 -0.0783 -9.5337 3.5107 -10.0903 -0.5801 -0.7278 -0.9532 -1.739 -0.9532 -2.8596 1e-05 -2.213 1.4086 -3.999 3.1387 -3.999 0.108 0 0.2202 -0.016 0.3255 0 z" fill="#fff" fill-rule="evenodd"/>
<path d="m 606.519 1352.24 c 0 1.18 -0.9566 2.1366 -2.1366 2.1366 s -2.1366 -0.9566 -2.1366 -2.1366 0.9566 -2.1367 2.1366 -2.1367 2.1366 0.9566 2.1366 2.1367 z" stroke="#fff" stroke-width=".9703" transform="matrix(1.03057,0,0,1.03057,-13.81882,-42.18403)"/>
<path d="m 598.906 1348.72 c -1.5224 0.1299 -2.5938 1.7497 -2.5938 3.3437 0 0.7015 0.6154 1.4053 1.2188 1.1563 1.1871 -0.4902 2.9977 -0.4922 4.0938 0 0.5963 0.2677 1.625 -0.4538 1.625 -1.1563 0 -1.6151 -1.0546 -3.2779 -2.5938 -3.3437 -0.6556 -0.028 -0.7057 0.8657 -0.8125 1.6874 -0.0839 -0.9492 -0.3682 -1.736 -0.9375 -1.6874 z" fill="#fff"/>
<path d="m 608.808 1351.31 h -4.3346" fill="none" stroke="#fff"/>
<path d="m 599.608 1354.83 v 4.9085" fill="none" stroke="#fff"/>
<path d="m 597.734 1356.33 h 3.6946" fill="none" stroke="#000"/>
<path d="m 597.734 1358.28 h 3.6946" fill="none" stroke="#000"/>
<path d="m 601.459 1352.46 c -1.1969 1.8629 -2.3938 1.7898 -3.5907 0" fill="#fff"/>
<path d="m 606.519 1352.24 c 0 1.18 -0.9566 2.1366 -2.1366 2.1366 s -2.1366 -0.9566 -2.1366 -2.1366 0.9566 -2.1367 2.1366 -2.1367 2.1366 0.9566 2.1366 2.1367 z" stroke="#fff" stroke-width=".9703" transform="matrix(1.03057,0,0,1.03057,-12.13936,-35.09967)"/>
<path d="m 610.82 1358.55 h 4.6772" fill="none" stroke="#fff"/>
<path d="m 616.726 1356.67 c 0.7557 -1.3001 3.7824 -1.2769 4.5778 0 0.8089 1.2987 -0.5743 5.1913 -2.1254 5.2372 -1.6038 0.048 -3.247 -3.8702 -2.4524 -5.2372 z" fill="#fff"/>
<path d="m 617.699 1357.3 c -0.269 -1.0798 -1.0602 -1.4575 -1.8728 -1.8063" fill="none" stroke="#fff"/>
<path d="m 616.696 1354.96 c 1.2401 0.2258 1.9399 0.6057 1.6921 2.0186 0.4226 -1.0251 0.7635 -1.5447 2.4578 -0.9653"/>
<path d="m 617.817 1357 c -0.3176 -1.0668 0.175 -1.7818 0.701 -2.4823" fill="none" stroke="#fff"/>
<path d="m 619.848 1357.19 c 0.9789 -0.5297 1.1361 -1.3836 1.2596 -2.2509" fill="none" stroke="#fff"/>
<path d="m 605.042 1367.66 -0.0744 -7.5807" fill="none" stroke="#000"/>
<path d="m 612.855 1367.66 0.0744 -7.5807" fill="none" stroke="#000"/>
<path d="m 608.948 1374.17 v -9.6729" fill="none" stroke="#000"/>
</g>
</svg>
