<svg viewBox="0 0 512 512" xmlns="http://www.w3.org/2000/svg">

<g transform="matrix(18.68858,0,0,18.68858,-2951.72898,-17931.7706)">
<path d="m 163.249 982.348 c 6.1052 4.3758 13.5945 4.7786 17.8436 0.5295 s 3.8463 -11.7384 -0.5295 -17.8436 c 2.1404 5.6446 1.5612 11.4934 -2.1298 15.1843 s -9.5397 4.2702 -15.1843 2.1298 z" fill="#fff"/>
<g transform="matrix(.86192,-.86192,.86192,.86192,-815.42387,282.43353)">
<path d="m 179.443 975.979 2.4858 -3.7557 -0.2167 5.7057 -2.2691 -1.95 z" fill="#fff" fill-rule="evenodd"/>
<path d="m 164.062 975.979 -2.4858 -3.7557 0.2167 5.7057 2.2691 -1.95 z" fill="#fff" fill-rule="evenodd"/>
</g>
<path d="m -568.282 799.764 h 2.6684 v 20.9027 h -2.6684 z" fill="#fff" transform="matrix(.70711,-.70711,.70711,.70711,0,0)"/>
<path d="m 174.611 965.609 c 0 1.4889 -1.207 2.6958 -2.6958 2.6958 s -2.6959 -1.207 -2.6959 -2.6958 1.207 -2.6959 2.6959 -2.6959 2.6958 1.207 2.6958 2.6959 z" fill="#fff" transform="matrix(1.00613,-1.00613,1.00613,1.00613,-981.71005,166.0119)"/>
<path d="m 174.611 965.609 c 0 1.4889 -1.207 2.6958 -2.6958 2.6958 s -2.6959 -1.207 -2.6959 -2.6958 1.207 -2.6959 2.6959 -2.6959 2.6958 1.207 2.6958 2.6959 z" transform="matrix(.62701,-.62701,.62701,.62701,-550.4514,466.91737)"/>
<path d="m 163.649 973.924 c 3.2268 -2.4338 6.1514 -5.1698 8.4909 -8.4909 l 1.6117 1.6117 c -3.1166 2.4622 -5.8919 5.3632 -8.4909 8.4909 l -1.6117 -1.6117 z" fill="#fff"/>
<path d="m 177.562 983.053 3.813 -3.8131 1.9451 5.7582 -5.7582 -1.9451 z" fill="#fff"/>
</g>
</svg>
