<svg viewBox="0 0 512 512" xmlns="http://www.w3.org/2000/svg">

<g transform="matrix(18.68858,0,0,18.68858,-3639.42985,-46286.58101)">
<path d="m 195.15 2482.6 14.1952 21.1704" fill="none" stroke="#fff"/>
<path d="m 221.656 2493.95 c -1.2363 -0.9745 -2.7372 -1.4746 -4.2266 -1.5094 l -2e-05 0.0005 c -0.2508 -0.011 -0.4884 0.012 -0.738 0.033 -1.5532 0.1339 -3.1012 0.7864 -4.2937 1.9792 -2.5255 2.5252 -2.6919 6.5775 -0.5367 9.3251 h 9.799 z" fill="#fff" stroke="#000"/>
<path d="m 217.998 2503.78 -1.77 -2.154 c -0.9074 -0.9642 -0.8842 -2.3908 0.059 -3.3342 s 2.3116 -0.9092 3.2745 0 l 2.0945 1.9179 0.004 3.5703 z" stroke="#000"/>
<path d="m 201.02 2479.47 c -0.5837 -0.5836 -1.3727 -0.8529 -2.133 -0.7874 -0.5914 0.051 -1.1711 0.3078 -1.6252 0.7622 -1.0377 1.0379 -1.0377 2.7464 0 3.7846 l 1.3712 1.9555 c 0.6736 0.6739 1.5857 0.9899 2.4632 0.9142 0.6825 -0.055 1.3551 -0.3647 1.8791 -0.8887 1.1976 -1.1978 1.1976 -3.1456 0 -4.3431 z" fill="#fff" stroke="#000"/>
<path d="m 201.527 2482.27 c 0.4054 0.431 0.3988 1.0773 -0.0226 1.4986 s -1.0684 0.4061 -1.4985 0 l -1.3396 -1.6347 c -0.3513 -0.3734 -0.3425 -0.9292 0.0227 -1.2943 s 0.8987 -0.3519 1.2715 0 z"/>
<path d="m 209.011 2485.15 c -0.9431 -0.9426 -2.2179 -1.3776 -3.4465 -1.2717 -0.9555 0.082 -1.8922 0.4972 -2.6259 1.2309 -1.6767 1.6766 -1.6767 4.4364 0 6.1135 l 2.2156 3.1587 c 1.0884 1.0885 2.5621 1.5989 3.9799 1.4767 1.1027 -0.091 2.1895 -0.5892 3.0362 -1.4356 1.935 -1.9348 1.9351 -5.081 0 -7.0154 z" fill="#fff" stroke="#000"/>
<path d="m 209.78 2489.61 c 0.6652 0.7074 0.6545 1.768 -0.0371 2.4592 s -1.7532 0.6665 -2.4591 0 l -2.1983 -2.6828 c -0.5764 -0.6124 -0.5621 -1.5244 0.0371 -2.1237 s 1.4748 -0.5774 2.0865 0 z"/>
<path d="m 195.25 2478.84 2.0027 2.2565 c 0.4918 0.4651 1.2373 0.4826 1.7194 0 s 0.4916 -1.2259 0.0281 -1.7196 l -2.1718 -2.0309 h -1.5784 z" fill="#fff" stroke="#000"/>
<path d="m 206.242 2486.51 c 0.5485 0.5834 0.5397 1.4582 -0.0304 2.028 s -1.4455 0.5497 -2.0276 -0.0002 l -3.5335 -4.1633 c -0.4178 -0.4439 -0.4074 -1.105 0.0269 -1.5396 s 1.0691 -0.4185 1.5124 0 z" fill="#fff" stroke="#000"/>
<path d="m 217.785 2496.65 c 0.906 0.9626 0.8914 2.4057 -0.0503 3.3458 s -2.3876 0.9069 -3.3491 -0.0002 l -5.8365 -6.8686 c -0.6901 -0.7323 -0.673 -1.8231 0.0443 -2.5401 s 1.7658 -0.6905 2.4981 0 z" fill="#fff" stroke="#000"/>
<path d="m 195.15 2486.8 8.6756 16.9756" fill="none" stroke="#fff"/>
<path d="m 195.222 2492.31 3.9242 11.4615" fill="none" stroke="#fff"/>
<path d="m 200.558 2477.25 21.1703 14.1952" fill="none" stroke="#fff"/>
<path d="m 204.753 2477.25 16.9754 8.6756" fill="none" stroke="#fff"/>
<path d="m 210.267 2477.33 11.4614 3.9241" fill="none" stroke="#fff"/>
<path d="m 195.239 2477.34 h 26.4314 v 26.4314 h -26.4314 z" fill="none" stroke="#000"/>
</g>
</svg>
