<svg viewBox="0 0 512 512" xmlns="http://www.w3.org/2000/svg">

<g transform="matrix(18.68858,0,0,18.68858,-3639.42985,-46286.58101)">
<path d="m195.1499,2482.604 14.1952,21.1704" fill="none" stroke="#fff"/>
<path d="m221.6563,2493.9523c-1.2363-.9745-2.7372-1.4746-4.2266-1.5094l-2e-05,.0005c-.2508-.011-.4884.012-.738.033-1.5532.1339-3.1012.7864-4.2937,1.9792-2.5255,2.5252-2.6919,6.5775-.5367,9.3251h9.799z" fill="#fff" stroke="#000"/>
<path d="m217.9983,2503.7807-1.77-2.154c-.9074-.9642-.8842-2.3908.059-3.3342s2.3116-.9092 3.2745,0l2.0945,1.9179 .004,3.5703z" stroke="#000"/>
<path d="m201.0199,2479.4719c-.5837-.5836-1.3727-.8529-2.133-.7874-.5914.051-1.1711.3078-1.6252.7622-1.0377,1.0379-1.0377,2.7464 0,3.7846l1.3712,1.9555c.6736.6739 1.5857.9899 2.4632.9142 .6825-.055 1.3551-.3647 1.8791-.8887 1.1976-1.1978 1.1976-3.1456 0-4.3431z" fill="#fff" stroke="#000"/>
<path d="m201.5272,2482.2716c.4054.431.3988,1.0773-.0226,1.4986s-1.0684.4061-1.4985,0l-1.3396-1.6347c-.3513-.3734-.3425-.9292.0227-1.2943s.8987-.3519 1.2715,0z"/>
<path d="m209.0106,2485.1487c-.9431-.9426-2.2179-1.3776-3.4465-1.2717-.9555.082-1.8922.4972-2.6259,1.2309-1.6767,1.6766-1.6767,4.4364 0,6.1135l2.2156,3.1587c1.0884,1.0885 2.5621,1.5989 3.9799,1.4767 1.1027-.091 2.1895-.5892 3.0362-1.4356 1.935-1.9348 1.9351-5.081 0-7.0154z" fill="#fff" stroke="#000"/>
<path d="m209.7799,2489.6061c.6652.7074.6545,1.768-.0371,2.4592s-1.7532.6665-2.4591,0l-2.1983-2.6828c-.5764-.6124-.5621-1.5244.0371-2.1237s1.4748-.5774 2.0865,0z"/>
<path d="m195.25,2478.8377 2.0027,2.2565c.4918.4651 1.2373.4826 1.7194,0s.4916-1.2259.0281-1.7196l-2.1718-2.0309h-1.5784z" fill="#fff" stroke="#000"/>
<path d="m206.2417,2486.5065c.5485.5834.5397,1.4582-.0304,2.028s-1.4455.5497-2.0276-.0002l-3.5335-4.1633c-.4178-.4439-.4074-1.105.0269-1.5396s1.0691-.4185 1.5124,0z" fill="#fff" stroke="#000"/>
<path d="m217.7846,2496.6454c.906.9626.8914,2.4057-.0503,3.3458s-2.3876.9069-3.3491-.0002l-5.8365-6.8686c-.6901-.7323-.673-1.8231.0443-2.5401s1.7658-.6905 2.4981,0z" fill="#fff" stroke="#000"/>
<path d="m195.1499,2486.7986 8.6756,16.9756" fill="none" stroke="#fff"/>
<path d="m195.2219,2492.3129 3.9242,11.4615" fill="none" stroke="#fff"/>
<path d="m200.5583,2477.2549 21.1703,14.1952" fill="none" stroke="#fff"/>
<path d="m204.753,2477.2549 16.9754,8.6756" fill="none" stroke="#fff"/>
<path d="m210.2672,2477.327 11.4614,3.9241" fill="none" stroke="#fff"/>
<path d="m195.2386,2477.3411h26.4314v26.4314h-26.4314z" fill="none" stroke="#000"/>
</g>
</svg>
