<svg viewBox="0 0 512 512" xmlns="http://www.w3.org/2000/svg">

<g transform="matrix(18.68858,0,0,18.68858,-13150.76911,-27312.0783)">
<path d="m 707.378 1466.76 c 6.8734 7.0306 13.7311 5.6425 20.5941 0 l -2.9935 6.8043 -7.3838 2.9997 -7.6556 -3.3278 z" fill="#fff"/>
<path d="m 708.816 1464.69 c 0.7984 0.7994 -0.7139 1.9843 -0.21 4.0874 0.8467 3.5341 5.0689 6.406 8.4458 8.0482 -1.3426 1.2841 -3.8909 0 -6.0196 -2.007 1.4578 1.9117 3.1603 3.5682 4.7518 4.9906 -2.0152 1.0891 -4.709 -1.4082 -6.5827 -4.5746 1.2834 2.8401 3.1042 5.359 4.8173 7.5093 -2.4354 0.8237 -4.8961 -2.5522 -6.3053 -6.4313 0.6912 3.2516 1.8572 6.3272 3.0345 9.0289 -5.2148 0.4134 -7.0184 -13.5215 -4.7016 -18.8319 0.6902 -1.582 2.1622 -2.4281 2.7699 -1.8196 z" fill="#fff"/>
<path d="m 726.407 1464.69 c -0.7984 0.7994 0.7139 1.9843 0.21 4.0874 -0.8467 3.5341 -5.0689 6.406 -8.4458 8.0482 1.3426 1.2841 3.8909 0 6.0195 -2.007 -1.4578 1.9117 -3.1603 3.5682 -4.7518 4.9906 2.0152 1.0891 4.709 -1.4082 6.5827 -4.5746 -1.2834 2.8401 -3.1042 5.359 -4.8173 7.5093 2.4354 0.8237 4.8961 -2.5522 6.3053 -6.4313 -0.6912 3.2516 -1.8572 6.3272 -3.0345 9.0289 5.2148 0.4134 7.0184 -13.5215 4.7016 -18.8319 -0.6902 -1.582 -2.1622 -2.4281 -2.7699 -1.8196 z" fill="#fff"/>
<path d="m 709.678 1465.93 c -2.6218 3.3866 2.7427 8.4827 8.0307 10.6512" fill="none" stroke="#000"/>
<path d="m 725.584 1465.93 c 2.6218 3.3866 -2.7427 8.4827 -8.0307 10.6512" fill="none" stroke="#000"/>
</g>
<path d="m 721.668 1463.91 c 0 1.6877 -1.3682 3.0559 -3.0559 3.0559 s -3.0559 -1.3682 -3.0559 -3.0559 1.3682 -3.0559 3.0559 -3.0559 3.0559 1.3681 3.0559 3.0559 z" stroke="#fff" stroke-width=".9546" transform="matrix(28.02718,0,0,13.67606,-19880.31211,-19943.07553)"/>
</svg>
