<svg viewBox="0 0 512 512" xmlns="http://www.w3.org/2000/svg">

<g transform="matrix(18.68858,0,0,18.68858,-210.39004,-1595.91684)">
<path d="m16.2642,86.1497c-3.7334,3.6924-5.3457,9.9071-3.6639,16.1761 1.0869,4.0519 3.3437,7.3845 6.1826,9.6098l4.2391-5.0325c-.7699-.8467-1.3696-1.9002-1.7035-3.1448-.7825-2.9171.1587-5.8003 2.15-7.1491l-7.2043-10.4595z" fill="#fff" stroke="#000"/>
<path d="m12.3891,89.6811 7.4891,7.0296" fill="none" stroke="#000"/>
<path d="m11.9359,95.8362 6.5826,3.3275" fill="none" stroke="#000"/>
<path d="m12.1249,101.1302 5.9554.4919" fill="none" stroke="#000"/>
<path d="m14.6349,109.629 4.8439-2.7302" fill="none" stroke="#000"/>
<path d="m12.5653,105.4897c.1761,0 5.818-1.0782 5.818-1.0782" fill="none" stroke="#000"/>
<g transform="matrix(-.9964,0,0,.9964,77.22188,-3.94796)">
<path d="m43.5312,90.4232c-3.7469,3.7058-5.365,9.9429-3.6772,16.2346 1.0909,4.0665 3.3558,7.4112 6.205,9.6445l4.2544-5.0507c-.7727-.8497-1.3745-1.907-1.7096-3.1561-.7854-2.9276.1593-5.8212 2.1578-7.175l-7.2303-10.4973z" fill="#fff" stroke="#000" stroke-width="1.0036"/>
<path d="m39.6422,93.9673 7.5162,7.055" fill="none" stroke="#000" stroke-width="1.0036"/>
<path d="m39.1873,100.1447 6.6064,3.3395" fill="none" stroke="#000" stroke-width="1.0036"/>
<path d="m39.377,105.4578 5.9769.4937" fill="none" stroke="#000" stroke-width="1.0036"/>
<path d="m41.8961,113.9872 4.8614-2.74" fill="none" stroke="#000" stroke-width="1.0036"/>
<path d="m39.819,109.833c.1768,0 5.839-1.0821 5.839-1.0821" fill="none" stroke="#000" stroke-width="1.0036"/>
</g>
<g fill="#fff" stroke="#000" stroke-width="1.4918" transform="matrix(.6686,0,0,.67211,-424.73733,17.5116)">
<path d="m665.3125,140.7997c0-5.9903.4067-8.8507 7.5108-8.8507 7.2291,0 7.1142,3.0375 7.1142,8.8507h-14.625z" fill="#fff" fill-rule="evenodd" stroke="#000" stroke-width="1.4918"/>
<path d="m675.1249,127.6122c0,3.1756-1.4271,5.75-3.1875,5.75s-3.1875-2.5744-3.1875-5.75 1.4271-5.75 3.1875-5.75 3.1875,2.5744 3.1875,5.75z" fill="#fff" stroke="#000" stroke-width="1.4918" transform="matrix(1.26471,0,0,.89674,-177.20955,14.0211)"/>
</g>
</g>
</svg>
