<svg viewBox="0 0 512 512" xmlns="http://www.w3.org/2000/svg">

<g transform="matrix(18.68858,0,0,18.68858,-7718.03244,-32000.62845)">
<path d="m 439.524 1726.78 -7.0127 8.9454 -15.4611 -7.5097 c 7.3273 -8.7871 14.7106 -14.7351 22.4738 -1.4357 z" fill="#fff"/>
<path d="m 438.994 1724.84 -6.8695 8.6868 -2.372 -1.1899" fill="none" stroke="#000"/>
<path d="m 414.418 1729.76 1.9507 -2.091 -2.4012 -4.0624 6.1004 2.9811 0.5132 2.6887 -6.3884 3.8371 2.1654 -3.204 z" fill="#fff"/>
<path d="m 431.273 1729.21 -2.7948 -2.2895 0.7773 -2.6232" fill="none" stroke="#000"/>
<path d="m 428.329 1729.27 -2.0462 -1.6762 0.5691 -1.9205" fill="none" stroke="#000"/>
<path d="m 423.13 1728.14 c 0 0.7066 -0.5727 1.2793 -1.2792 1.2793 s -1.2792 -0.5727 -1.2792 -1.2793 0.5727 -1.2792 1.2792 -1.2792 1.2792 0.5727 1.2792 1.2792 z" fill="#fff" transform="matrix(-.9752,0,0,.9752,849.66876,34.16379)"/>
<path d="m 438.253 1718.32 c -0.0423 -2.9518 -3.0921 -5.4196 -3.6872 3.3862" fill="none" stroke="#fff"/>
<path d="m 428.644 1732.55 -3.9399 4.7827 0.247 -2.5053 -2.7919 -0.052 1.7423 -1.1901 -1.9029 -0.7378 5.0111 -1.752" fill="#fff"/>
<path d="m 429.941 1720.98 -2.3086 -5.1452 -1.3351 3.814 -2.6951 -1.5956 -0.0426 3.3735 -2.4918 0.095 1.4736 3.5934" fill="#fff"/>
<path d="m 423.13 1728.14 c 0 0.7066 -0.5727 1.2793 -1.2792 1.2793 s -1.2792 -0.5727 -1.2792 -1.2793 0.5727 -1.2792 1.2792 -1.2792 1.2792 0.5727 1.2792 1.2792 z" transform="matrix(-.3465,1.29316,1.29316,.3465,-1654.6463,580.95337)"/>
<path d="m 421.365 1725.23 c 0 0.4052 -0.5315 0.7337 -1.1871 0.7337 s -1.1871 -0.3285 -1.1871 -0.7337 0.5315 -0.7337 1.1871 -0.7337 1.1871 0.3285 1.1871 0.7337 z" fill="#fff" transform="matrix(-.80984,0,0,1.07978,775.09722,-138.25891)"/>
</g>
</svg>
