<svg viewBox="0 0 512 512" xmlns="http://www.w3.org/2000/svg">

<g transform="matrix(18.68858,0,0,18.68858,-7718.03244,-32000.62845)">
<path d="m439.5241,1726.7822-7.0127,8.9454-15.4611-7.5097c7.3273-8.7871 14.7106-14.7351 22.4738-1.4357z" fill="#fff"/>
<path d="m438.9944,1724.8417-6.8695,8.6868-2.372-1.1899" fill="none" stroke="#000"/>
<path d="m414.4184,1729.7594 1.9507-2.091-2.4012-4.0624 6.1004,2.9811 .5132,2.6887-6.3884,3.8371 2.1654-3.204z" fill="#fff"/>
<path d="m431.2732,1729.2142-2.7948-2.2895 .7773-2.6232" fill="none" stroke="#000"/>
<path d="m428.3285,1729.2728-2.0462-1.6762 .5691-1.9205" fill="none" stroke="#000"/>
<path d="m423.1296,1728.1429c0,.7066-.5727,1.2793-1.2792,1.2793s-1.2792-.5727-1.2792-1.2793 .5727-1.2792 1.2792-1.2792 1.2792.5727 1.2792,1.2792z" fill="#fff" transform="matrix(-.9752,0,0,.9752,849.66876,34.16379)"/>
<path d="m438.2531,1718.322c-.0423-2.9518-3.0921-5.4196-3.6872,3.3862" fill="none" stroke="#fff"/>
<path d="m428.6438,1732.5478-3.9399,4.7827 .247-2.5053-2.7919-.052 1.7423-1.1901-1.9029-.7378 5.0111-1.752" fill="#fff"/>
<path d="m429.941,1720.9766-2.3086-5.1452-1.3351,3.814-2.6951-1.5956-.0426,3.3735-2.4918.095 1.4736,3.5934" fill="#fff"/>
<path d="m423.1296,1728.1429c0,.7066-.5727,1.2793-1.2792,1.2793s-1.2792-.5727-1.2792-1.2793 .5727-1.2792 1.2792-1.2792 1.2792.5727 1.2792,1.2792z" transform="matrix(-.3465,1.29316,1.29316,.3465,-1654.6463,580.95337)"/>
<path d="m421.3651,1725.2269c0,.4052-.5315.7337-1.1871.7337s-1.1871-.3285-1.1871-.7337 .5315-.7337 1.1871-.7337 1.1871.3285 1.1871.7337z" fill="#fff" transform="matrix(-.80984,0,0,1.07978,775.09722,-138.25891)"/>
</g>
</svg>
