<svg viewBox="0 0 512 512" xmlns="http://www.w3.org/2000/svg">

<g transform="matrix(18.68858,0,0,18.68858,-6358.92296,-33367.99157)">
<path d="m342.1102,1792.1992 1.66,6.7851h9.1417" fill="none" stroke="#fff"/>
<path d="m350.3368,1811.8246-2.5564-10.2506" fill="none" stroke="#fff"/>
<path d="m353.2084,1801.574h-9.0286l1.8003,7.3712" fill="none" stroke="#fff"/>
<path d="m365.7665,1792.1992-1.66,6.7851h-9.1417" fill="none" stroke="#fff"/>
<path d="m357.54,1811.8246 2.5564-10.2506" fill="none" stroke="#fff"/>
<path d="m354.6683,1801.574h9.0286l-1.8003,7.3712" fill="none" stroke="#fff"/>
<path d="m355.1654,1807.7252 1.3965-5.5996" fill="none" stroke="#fff"/>
<path d="m352.8006,1807.7252-1.3965-5.5996" fill="none" stroke="#fff"/>
<path d="m360.1735,1792.1997c0,2.8327-2.2964,5.1291-5.1291,5.1291s-5.1291-2.2964-5.1291-5.1291 2.2964-5.129 5.1291-5.129 5.1291,2.2963 5.1291,5.129z" fill="#fff" stroke="#000" stroke-width=".8282" transform="matrix(1.20741,0,0,1.20741,-74.58868,-371.63952)"/>
<path d="m358.1979,1803.9015c0,1.7416-1.4118,3.1534-3.1534,3.1534s-3.1534-1.4118-3.1534-3.1534 1.4118-3.1534 3.1534-3.1534 3.1534,1.4118 3.1534,3.1534z" fill="#fff" stroke="#000" stroke-width=".8751" transform="matrix(1.10664,0,0,1.18,-38.83655,-327.72167)"/>
<path d="m352.7119,1801.791c0,.4748-.3849.8597-.8597.8597s-.8597-.3849-.8597-.8597 .3849-.8597.8597-.8597 .8597.3849.8597.8597z" fill="#fff" stroke="#000" stroke-width=".7901" transform="matrix(1.26562,0,0,1.26562,-90.19664,-475.50815)"/>
<path d="m352.7119,1801.791c0,.4748-.3849.8597-.8597.8597s-.8597-.3849-.8597-.8597 .3849-.8597.8597-.8597 .8597.3849.8597.8597z" fill="#fff" stroke="#000" stroke-width=".7901" transform="matrix(1.26562,0,0,1.26562,-92.39957,-475.50815)"/>
<path d="m352.7119,1801.791c0,.4748-.3849.8597-.8597.8597s-.8597-.3849-.8597-.8597 .3849-.8597.8597-.8597 .8597.3849.8597.8597z" fill="#fff" stroke="#000" stroke-width=".7901" transform="matrix(1.26562,0,0,1.26562,-94.11894,-476.79767)"/>
<path d="m352.7119,1801.791c0,.4748-.3849.8597-.8597.8597s-.8597-.3849-.8597-.8597 .3849-.8597.8597-.8597 .8597.3849.8597.8597z" fill="#fff" stroke="#000" stroke-width=".7901" transform="matrix(1.26562,0,0,1.26562,-88.36981,-476.79767)"/>
<path d="m360.6829,1798.9843 2.6628-10.5831" fill="none" stroke="#fff"/>
<path d="m347.1938,1798.9843-2.6629-10.5831" fill="none" stroke="#fff"/>
</g>
</svg>
