<svg viewBox="0 0 512 512" xmlns="http://www.w3.org/2000/svg">

<g transform="matrix(18.68858,0,0,18.68858,-6358.92296,-33367.99157)">
<path d="m 342.11 1792.2 1.66 6.7851 h 9.1417" fill="none" stroke="#fff"/>
<path d="m 350.337 1811.82 -2.5564 -10.2506" fill="none" stroke="#fff"/>
<path d="m 353.208 1801.57 h -9.0286 l 1.8003 7.3712" fill="none" stroke="#fff"/>
<path d="m 365.767 1792.2 -1.66 6.7851 h -9.1417" fill="none" stroke="#fff"/>
<path d="m 357.54 1811.82 2.5564 -10.2506" fill="none" stroke="#fff"/>
<path d="m 354.668 1801.57 h 9.0286 l -1.8003 7.3712" fill="none" stroke="#fff"/>
<path d="m 355.165 1807.73 1.3965 -5.5996" fill="none" stroke="#fff"/>
<path d="m 352.801 1807.73 -1.3965 -5.5996" fill="none" stroke="#fff"/>
<path d="m 360.173 1792.2 c 0 2.8327 -2.2964 5.1291 -5.1291 5.1291 s -5.1291 -2.2964 -5.1291 -5.1291 2.2964 -5.129 5.1291 -5.129 5.1291 2.2963 5.1291 5.129 z" fill="#fff" stroke="#000" stroke-width=".8282" transform="matrix(1.20741,0,0,1.20741,-74.58868,-371.63952)"/>
<path d="m 358.198 1803.9 c 0 1.7416 -1.4118 3.1534 -3.1534 3.1534 s -3.1534 -1.4118 -3.1534 -3.1534 1.4118 -3.1534 3.1534 -3.1534 3.1534 1.4118 3.1534 3.1534 z" fill="#fff" stroke="#000" stroke-width=".8751" transform="matrix(1.10664,0,0,1.18,-38.83655,-327.72167)"/>
<path d="m 352.712 1801.79 c 0 0.4748 -0.3849 0.8597 -0.8597 0.8597 s -0.8597 -0.3849 -0.8597 -0.8597 0.3849 -0.8597 0.8597 -0.8597 0.8597 0.3849 0.8597 0.8597 z" fill="#fff" stroke="#000" stroke-width=".7901" transform="matrix(1.26562,0,0,1.26562,-90.19664,-475.50815)"/>
<path d="m 352.712 1801.79 c 0 0.4748 -0.3849 0.8597 -0.8597 0.8597 s -0.8597 -0.3849 -0.8597 -0.8597 0.3849 -0.8597 0.8597 -0.8597 0.8597 0.3849 0.8597 0.8597 z" fill="#fff" stroke="#000" stroke-width=".7901" transform="matrix(1.26562,0,0,1.26562,-92.39957,-475.50815)"/>
<path d="m 352.712 1801.79 c 0 0.4748 -0.3849 0.8597 -0.8597 0.8597 s -0.8597 -0.3849 -0.8597 -0.8597 0.3849 -0.8597 0.8597 -0.8597 0.8597 0.3849 0.8597 0.8597 z" fill="#fff" stroke="#000" stroke-width=".7901" transform="matrix(1.26562,0,0,1.26562,-94.11894,-476.79767)"/>
<path d="m 352.712 1801.79 c 0 0.4748 -0.3849 0.8597 -0.8597 0.8597 s -0.8597 -0.3849 -0.8597 -0.8597 0.3849 -0.8597 0.8597 -0.8597 0.8597 0.3849 0.8597 0.8597 z" fill="#fff" stroke="#000" stroke-width=".7901" transform="matrix(1.26562,0,0,1.26562,-88.36981,-476.79767)"/>
<path d="m 360.683 1798.98 2.6628 -10.5831" fill="none" stroke="#fff"/>
<path d="m 347.194 1798.98 -2.6629 -10.5831" fill="none" stroke="#fff"/>
</g>
</svg>
