<svg viewBox="0 0 512 512" xmlns="http://www.w3.org/2000/svg">

<g transform="matrix(18.68858,0,0,18.68858,-3631.70203,-24503.54268)">
<path d="m 214.274 1329.73 -1.4281 5.5095 -5.2872 2.1182 -3.2854 -1.8857 -2.0094 -5.2241 12.0101 -0.5179 z" fill="#fff" fill-rule="evenodd"/>
<path d="m 203.496 1323.87 13.4466 -0.2096 1.4162 -5.4507 -6.2942 -5.3984 -7.7104 -0.4716 -6.8187 6.8657 1.7834 5.1887 4.1772 -0.5241 z" fill="#fff" fill-rule="evenodd"/>
<path d="m 201.386 1316.96 5.2466 2.748 -6.2203 0.7196 0.9736 -3.4676 z" fill-rule="evenodd"/>
<path d="m 214.559 1316.91 0.7107 3.5966 -5.7403 -0.8692 5.0296 -2.7274 z" fill-rule="evenodd"/>
<path d="m 212.546 1321.89 3.9222 11.3737 -4.6906 -3.7334 -1.6056 3.3118 -2.1065 -3.3412 -2.2096 2.9438 -1.1195 -2.8408 -4.1712 3.7439 2.8453 -11.4905" fill="#fff" fill-rule="evenodd" stroke="#000"/>
<path d="m 199.249 1313.76 6.0321 2.8633" fill="none" stroke="#000"/>
<path d="m 210.473 1316.51 4.9631 -2.7488" fill="none" stroke="#000"/>
<path d="m 207.976 1323.52 -2.5954 3.4633 2.6872 1.0308 2.8969 -1.0308 -2.9887 -3.4633 z" fill-rule="evenodd"/>
<path d="m 208.094 1325.39 -1.038 2.9289 h 2.2332 l -1.1953 -2.9289 z" fill="#fff" fill-rule="evenodd"/>
</g>
</svg>
