<svg viewBox="0 0 512 512" xmlns="http://www.w3.org/2000/svg">

<g transform="matrix(18.68858,0,0,18.68858,-3631.70203,-24503.54268)">
<path d="m214.274,1329.7292-1.4281,5.5095-5.2872,2.1182-3.2854-1.8857-2.0094-5.2241 12.0101-.5179z" fill="#fff" fill-rule="evenodd"/>
<path d="m203.4965,1323.8695 13.4466-.2096 1.4162-5.4507-6.2942-5.3984-7.7104-.4716-6.8187,6.8657 1.7834,5.1887 4.1772-.5241z" fill="#fff" fill-rule="evenodd"/>
<path d="m201.3862,1316.9645 5.2466,2.748-6.2203.7196 .9736-3.4676z" fill-rule="evenodd"/>
<path d="m214.5591,1316.9149 .7107,3.5966-5.7403-.8692 5.0296-2.7274z" fill-rule="evenodd"/>
<path d="m212.5459,1321.8907 3.9222,11.3737-4.6906-3.7334-1.6056,3.3118-2.1065-3.3412-2.2096,2.9438-1.1195-2.8408-4.1712,3.7439 2.8453-11.4905" fill="#fff" fill-rule="evenodd" stroke="#000"/>
<path d="m199.249,1313.7644 6.0321,2.8633" fill="none" stroke="#000"/>
<path d="m210.4732,1316.5132 4.9631-2.7488" fill="none" stroke="#000"/>
<path d="m207.9763,1323.5202-2.5954,3.4633 2.6872,1.0308 2.8969-1.0308-2.9887-3.4633z" fill-rule="evenodd"/>
<path d="m208.0943,1325.3908-1.038,2.9289h2.2332l-1.1953-2.9289z" fill="#fff" fill-rule="evenodd"/>
</g>
</svg>
