<svg viewBox="0 0 512 512" xmlns="http://www.w3.org/2000/svg">

<g transform="matrix(18.68858,0,0,18.68858,6413.79222,-11110.14253)">
<path d="m -338.815 613.762 c 6.5995 -4.2192 10.9214 -8.6742 14.9242 -15.0989 l 3.2955 3.2574 c -6.2971 4.0258 -10.8261 8.5213 -14.9242 15.0989 l -3.2955 -3.2573 z" fill="#fff"/>
<path d="m -341.138 596.505 c 1.7478 -1.7683 5.7519 -0.6495 8.9458 2.5075 2.4295 2.4014 2.5548 5.5949 3.3917 7.305 2.0932 4.2771 7.0441 6.9656 11.9825 9.624 l -4.5748 4.6284 c -2.6813 -4.845 -5.5008 -9.7859 -9.8172 -11.8694 -1.7128 -0.8268 -4.9082 -0.8989 -7.3166 -3.2794 -3.1939 -3.157 -4.3592 -7.1478 -2.6114 -8.9161 z" fill="#fff"/>
<path d="m 517.558 530.849 c 0 2.6971 -1.3257 4.8834 -2.961 4.8834 s -2.961 -2.1864 -2.961 -4.8834 1.3257 -4.8835 2.961 -4.8835 2.961 2.1864 2.961 4.8835 z" transform="matrix(.54676,-.55316,.73272,.72425,-1005.8252,502.27047)"/>
</g>
</svg>
