<svg viewBox="0 0 512 512" xmlns="http://www.w3.org/2000/svg">

<g transform="matrix(-18.68858,0,0,18.68858,5156.79463,-15416.10652)">
<path d="m 251.083 829.164 c 8.8863 -5.1326 14.3043 4.0116 22.1649 -0.5286 -0.9123 1.6209 -2.9563 2.9794 -5.4289 3.6213 1.3062 1.9283 4.8706 2.8029 7.2722 2.5897 -7.6389 4.4121 -11.3512 -3.614 -20.6397 1.751 l -3.3684 -7.4334 z" fill="#fff" fill-rule="evenodd"/>
<path d="m 512.312 272.331 c 0 1.398 -2.2666 2.5312 -5.0625 2.5312 s -5.0625 -1.1333 -5.0625 -2.5312 2.2666 -2.5312 5.0625 -2.5312 5.0625 1.1333 5.0625 2.5312 z" fill="#fff" stroke="#fff" stroke-width="1.1184" transform="matrix(.79411,-.00136,-.19598,-1.00643,-95.4279,1121.1067)"/>
<path d="m 251.78 829.871 c 2.0699 -0.7825 4.2742 4.3706 2.3135 5.7178 l -2.3135 -5.7178 z" fill-rule="evenodd"/>
<path d="m 258.259 846.362 -7.0832 -17.3218" fill="#fff" fill-rule="evenodd" stroke="#fff"/>
<path d="m 250.973 846.351 h 23.8926" fill="none" stroke="#fff"/>
<path d="m 257.056 842.883 h 17.9256" fill="none" stroke="#fff"/>
<path d="m 255.634 839.539 h 19.3193" fill="none" stroke="#fff"/>
</g>
</svg>
