<svg viewBox="0 0 512 512" xmlns="http://www.w3.org/2000/svg">

<g transform="matrix(18.68858,0,0,18.68858,-11811.77873,-46286.74961)">
<g transform="translate(3.875,.625)">
<path d="m 642.433 2494.19 h 4.8611 c 0 3.4097 1.7189 5.7742 4.5391 7.6892 h -13.708 c 2.3671 -1.9176 4.3079 -4.2878 4.3079 -7.6892 z" fill="#fff"/>
<path d="m 650.621 2491.87 v 3.9717 c 1.2594 -0.3083 2.5189 -1.0515 3.7783 -2.1469 -1.2594 -1.1139 -2.4889 -1.6425 -3.7783 -1.8248 z" fill="#fff" fill-rule="evenodd"/>
<path d="m 633.972 2491.48 h 6.0957 v 4.1471 c -2.4758 -0.05 -5.0519 -1.6146 -6.0957 -4.1471 z" fill="#fff" fill-rule="evenodd"/>
<path d="m 638.73 2490.39 h 12.4988 v 6.8268 h -12.4988 v -6.8268 z" fill="#fff"/>
<path d="m 637.372 2501.87 h 15.2142" fill="none" stroke="#fff"/>
</g>
<path d="m 646.266 2485.14 -2.9867 -2.9343 -1.7119 0.7707 1.1417 3.7647 2.0612 3.3509 2.6375 -1.1874 z" fill="#fff"/>
<path d="m 2530.59 433.306 h 1.6352 v 11.7115 h -1.6352 z" fill="#fff" transform="rotate(65.765)"/>
<path d="m 654.15 2480.48 -4.0887 6.5042 -0.4423 -1.7492 -1.6173 4.7608 3.3539 -1.5715 0.0106 1.5753 6.7979 -2.7258 -3.7889 -0.1053 2.556 -3.6759 -3.9306 2.1014 z" fill="#fff"/>
</g>
</svg>
