<svg viewBox="0 0 512 512" xmlns="http://www.w3.org/2000/svg">

<g transform="matrix(18.68858,0,0,18.68858,-11811.77873,-46286.74961)">
<g transform="translate(3.875,.625)">
<path d="m642.4335,2494.1926h4.8611c0,3.4097 1.7189,5.7742 4.5391,7.6892h-13.708c2.3671-1.9176 4.3079-4.2878 4.3079-7.6892z" fill="#fff"/>
<path d="m650.6211,2491.8679v3.9717c1.2594-.3083 2.5189-1.0515 3.7783-2.1469-1.2594-1.1139-2.4889-1.6425-3.7783-1.8248z" fill="#fff" fill-rule="evenodd"/>
<path d="m633.9718,2491.4778h6.0957v4.1471c-2.4758-.05-5.0519-1.6146-6.0957-4.1471z" fill="#fff" fill-rule="evenodd"/>
<path d="m638.7302,2490.3896h12.4988v6.8268h-12.4988v-6.8268z" fill="#fff"/>
<path d="m637.3725,2501.8695h15.2142" fill="none" stroke="#fff"/>
</g>
<path d="m646.2665,2485.1371-2.9867-2.9343-1.7119.7707 1.1417,3.7647 2.0612,3.3509 2.6375-1.1874z" fill="#fff"/>
<path d="m2530.5854,433.3062h1.6352v11.7115h-1.6352z" fill="#fff" transform="rotate(65.765)"/>
<path d="m654.1503,2480.4804-4.0887,6.5042-.4423-1.7492-1.6173,4.7608 3.3539-1.5715 .0106,1.5753 6.7979-2.7258-3.7889-.1053 2.556-3.6759-3.9306,2.1014z" fill="#fff"/>
</g>
</svg>
