<svg viewBox="0 0 512 512" xmlns="http://www.w3.org/2000/svg">

<g transform="matrix(18.68858,0,0,18.68858,-1590.09801,-25182.73987)">
<path d="m99.2011,1363.958c1.9985-.039 3.7785,1.6087 3.8803,4.0439 .1163,2.7832-1.7614,5.5464-4.1592,6.1641-.6136.1583-1.4915.2135-1.9291-.1611-.3896.3569-1.2896.4377-1.9142.3358-2.4403-.3981-4.3327-2.9883-4.449-5.7716s1.7697-4.7189 4.2101-4.3207c.6224.1015 1.2228.341 1.7713.6939 .5169-.4012 1.095-.6945 1.7067-.8519 .2997-.077.5976-.1267.8831-.1324z" fill="#fff" stroke="#000"/>
<path d="m97.1556,1366.5631c-.0733-1.41.2335-2.5765.9054-3.8969-.3515-.7325-1.3465-.7872-1.8564-.7277-.2549,1.7354-.2493,3.0593-.0071,4.7088" fill="#fff" fill-rule="evenodd"/>
<path d="m101.9061,1363.4646c0,.7771-.63,1.407-1.407,1.407s-1.407-.6299-1.407-1.407 .6299-1.407 1.407-1.407 1.407.6299 1.407,1.407z" fill="#fff" stroke="#000" stroke-width="1.1848" transform="matrix(-.77564,-.3316,-.33143,.77668,621.65891,342.43686)"/>
<path d="m91.7592,1368.0355c-7.8411-6.0038-1.2538-18.1436 9.4721-13.103" fill="none" stroke="#fff"/>
<path d="m106.75,1355.2188-.9688,2.5312c2.186.5971 4.7767,1.5953 5.5312,4.8438 .3383-3.4457-.6172-6.5245-4.5625-7.375z" fill="#fff" fill-rule="evenodd"/>
<path d="m88.5141,1363.5788 .9249.9228c-3.0042-7.8961 8.0489-9.8204 12.2444-6.4378l1.7152-5.1445c-5.3533-6.7323-19.1884-1.219-14.8845,10.6595z" fill="#fff" fill-rule="evenodd"/>
<path d="m101.4311,1352.4497 1.2067-2.1756" fill="none" stroke="#fff"/>
<path d="m88.7677,1358.5174-2.2609-.1156" fill="none" stroke="#fff"/>
<path d="m89.1694,1356.3007-2.1727-1.0199" fill="none" stroke="#fff"/>
<path d="m90.2175,1354.0473-1.7864-1.7293" fill="none" stroke="#fff"/>
<path d="m92.1239,1352.2301-1.2782-2.1335" fill="none" stroke="#fff"/>
<path d="m94.5528,1351.2567-.6832-2.3918" fill="none" stroke="#fff"/>
<path d="m97.1511,1351.0282-.0414-2.4877" fill="none" stroke="#fff"/>
<path d="m99.4446,1351.4642 .6031-2.4135" fill="none" stroke="#fff"/>
<path d="m88.5989,1360.8451-1.8949.1726" fill="none" stroke="#fff"/>
<path d="m88.8447,1362.8081-1.6657.4197" fill="none" stroke="#fff"/>
<path d="m100.5312,1354.6875c-.2374,2.1271 1.0634,4.2808 2.1669,4.8203 .192,2.9498 2.0156,5.6543 6.8809,6.1567-1.8758-2.3104-3.2041-4.0868-3.3602-6.1957 .3271-.1777.6586-.4196.9688-.7188 2.7679-2.6699.4863-6.99-3.0625-6.8437-.507.021-1.0458.1539-1.5938.375" fill="#fff" fill-rule="evenodd" stroke="#000"/>
<path d="m104.1611,1356.0106c0,.381-.3088.6898-.6898.6898s-.6898-.3088-.6898-.6898 .3088-.6898.6898-.6898 .6898.3088.6898.6898z" transform="translate(-.6102,-.5572)"/>
<path d="m104.1611,1356.0106c0,.381-.3088.6898-.6898.6898s-.6898-.3088-.6898-.6898 .3088-.6898.6898-.6898 .6898.3088.6898.6898z" transform="translate(.5041,1.4592)"/>
<path d="m104.1611,1356.0106c0,.381-.3088.6898-.6898.6898s-.6898-.3088-.6898-.6898 .3088-.6898.6898-.6898 .6898.3088.6898.6898z" transform="translate(4.3246,-.8225)"/>
<path d="m104.1611,1356.0106c0,.381-.3088.6898-.6898.6898s-.6898-.3088-.6898-.6898 .3088-.6898.6898-.6898 .6898.3088.6898.6898z" transform="translate(2.6531,-2.998)"/>
<path d="m96.4109,1353.5204c.3213,2.116 2.1351,3.8597 3.3406,4.0952" fill="none" stroke="#000"/>
<path d="m91.9004,1353.9666c.8912,1.9458 3.1149,3.123 4.3386,3.0177" fill="none" stroke="#000"/>
<path d="m89.3241,1356.8027c1.0281.8955 2.7481,1.1113 3.5216.8167" fill="none" stroke="#000"/>
</g>
</svg>
