<svg viewBox="0 0 512 512" xmlns="http://www.w3.org/2000/svg">

<g transform="matrix(18.68858,0,0,18.68858,-229.31148,-23821.86925)">
<path d="m 20.5067 1279.8 c -4.2252 0.1469 -7.7929 3.84 -7.725 9.0063 0.0775 5.9042 4.3641 11.5365 9.4997 12.5677 1.3143 0.264 3.1747 0.2798 4.0553 -0.5639 0.8641 0.7108 2.7743 0.7781 4.0814 0.4905 5.1073 -1.1237 8.8029 -6.824 8.7253 -12.7283 s -4.2856 -9.7842 -9.393 -8.6606 c -1.3027 0.2866 -2.5429 0.8629 -3.6602 1.6728 -1.1383 -0.7895 -2.3934 -1.3433 -3.7033 -1.6063 -0.642 -0.1289 -1.2767 -0.1992 -1.8803 -0.1782 z" fill="#fff" stroke="#000"/>
<path d="m 25.4974 1283.2 c -0.0067 -2.2325 -0.5912 -4.0478 -1.7639 -6.0751 0.4901 -1.1867 2.053 -1.3585 2.8615 -1.3084 0.5519 2.7182 0.6577 4.809 0.4193 7.4341" fill="#fff" fill-rule="evenodd"/>
<path d="m 24.3828 1292.29 c -1.6892 -1.0203 -4.0981 0.3343 -3.8802 2.7236 2.1926 0.3732 3.5886 -0.3885 3.8802 -2.7236 z" fill-rule="evenodd" stroke="#fff"/>
<path d="m 24.2056 1290.58 c -0.6294 -1.8702 -3.3431 -2.3939 -4.7211 -0.4299 1.4317 1.7021 2.9892 2.0232 4.7211 0.4299 z" fill-rule="evenodd" stroke="#fff"/>
<path d="m 24.8216 1288.37 c 0.0389 -1.9731 -2.3386 -3.3821 -4.2988 -1.9986 0.773 2.0855 2.1307 2.9135 4.2988 1.9986 z" fill-rule="evenodd" stroke="#fff"/>
<path d="m 26.456 1292.32 c 1.6651 -1.0592 4.1048 0.2393 3.9422 2.6331 -2.1834 0.4238 -3.5966 -0.3054 -3.9422 -2.6331 z" fill-rule="evenodd" stroke="#fff"/>
<path d="m 27.0864 1290.34 c 0.9657 -1.721 3.7294 -1.7316 4.7188 0.454 -1.7228 1.4068 -3.3129 1.4331 -4.7188 -0.454 z" fill-rule="evenodd" stroke="#fff"/>
<path d="m 27.1731 1288.89 c -0.5324 -1.9002 1.4159 -3.8604 3.6604 -3.0125 -0.2255 2.2127 -1.3322 3.3546 -3.6604 3.0125 z" fill-rule="evenodd" stroke="#fff"/>
<path d="m 25.3316 1292.71 c 1.8433 0.7047 2.2565 3.4372 0.2384 4.7346 -1.6426 -1.4995 -1.9004 -3.0687 -0.2384 -4.7346 z" fill-rule="evenodd" stroke="#fff"/>
<path d="m 26.2335 1283.61 c -1.8433 0.7047 -2.2565 3.4372 -0.2384 4.7346 1.6426 -1.4995 1.9004 -3.0687 0.2384 -4.7346 z" fill-rule="evenodd" stroke="#fff"/>
</g>
</svg>
