<svg viewBox="0 0 512 512" xmlns="http://www.w3.org/2000/svg">

<g transform="matrix(18.68858,0,0,18.68858,-1590.09801,-25182.73987)">
<path d="m 99.2011 1363.96 c 1.9985 -0.039 3.7785 1.6087 3.8803 4.0439 0.1163 2.7832 -1.7614 5.5464 -4.1592 6.1641 -0.6136 0.1583 -1.4915 0.2135 -1.9291 -0.1611 -0.3896 0.3569 -1.2896 0.4377 -1.9142 0.3358 -2.4403 -0.3981 -4.3327 -2.9883 -4.449 -5.7716 s 1.7697 -4.7189 4.2101 -4.3207 c 0.6224 0.1015 1.2228 0.341 1.7713 0.6939 0.5169 -0.4012 1.095 -0.6945 1.7067 -0.8519 0.2997 -0.077 0.5976 -0.1267 0.8831 -0.1324 z" fill="#fff" stroke="#000"/>
<path d="m 97.1556 1366.56 c -0.0733 -1.41 0.2335 -2.5765 0.9054 -3.8969 -0.3515 -0.7325 -1.3465 -0.7872 -1.8564 -0.7277 -0.2549 1.7354 -0.2493 3.0593 -0.0071 4.7088" fill="#fff" fill-rule="evenodd"/>
<path d="m 101.906 1363.46 c 0 0.7771 -0.63 1.407 -1.407 1.407 s -1.407 -0.6299 -1.407 -1.407 0.6299 -1.407 1.407 -1.407 1.407 0.6299 1.407 1.407 z" fill="#fff" stroke="#000" stroke-width="1.1848" transform="matrix(-.77564,-.3316,-.33143,.77668,621.65891,342.43686)"/>
<path d="m 91.7592 1368.04 c -7.8411 -6.0038 -1.2538 -18.1436 9.4721 -13.103" fill="none" stroke="#fff"/>
<path d="m 106.75 1355.22 -0.9688 2.5312 c 2.186 0.5971 4.7767 1.5953 5.5312 4.8438 0.3383 -3.4457 -0.6172 -6.5245 -4.5625 -7.375 z" fill="#fff" fill-rule="evenodd"/>
<path d="m 88.5141 1363.58 0.9249 0.9228 c -3.0042 -7.8961 8.0489 -9.8204 12.2444 -6.4378 l 1.7152 -5.1445 c -5.3533 -6.7323 -19.1884 -1.219 -14.8845 10.6595 z" fill="#fff" fill-rule="evenodd"/>
<path d="m 101.431 1352.45 1.2067 -2.1756" fill="none" stroke="#fff"/>
<path d="m 88.7677 1358.52 -2.2609 -0.1156" fill="none" stroke="#fff"/>
<path d="m 89.1694 1356.3 -2.1727 -1.0199" fill="none" stroke="#fff"/>
<path d="m 90.2175 1354.05 -1.7864 -1.7293" fill="none" stroke="#fff"/>
<path d="m 92.1239 1352.23 -1.2782 -2.1335" fill="none" stroke="#fff"/>
<path d="m 94.5528 1351.26 -0.6832 -2.3918" fill="none" stroke="#fff"/>
<path d="m 97.1511 1351.03 -0.0414 -2.4877" fill="none" stroke="#fff"/>
<path d="m 99.4446 1351.46 0.6031 -2.4135" fill="none" stroke="#fff"/>
<path d="m 88.5989 1360.85 -1.8949 0.1726" fill="none" stroke="#fff"/>
<path d="m 88.8447 1362.81 -1.6657 0.4197" fill="none" stroke="#fff"/>
<path d="m 100.531 1354.69 c -0.2374 2.1271 1.0634 4.2808 2.1669 4.8203 0.192 2.9498 2.0156 5.6543 6.8809 6.1567 -1.8758 -2.3104 -3.2041 -4.0868 -3.3602 -6.1957 0.3271 -0.1777 0.6586 -0.4196 0.9688 -0.7188 2.7679 -2.6699 0.4863 -6.99 -3.0625 -6.8437 -0.507 0.021 -1.0458 0.1539 -1.5938 0.375" fill="#fff" fill-rule="evenodd" stroke="#000"/>
<path d="m 104.161 1356.01 c 0 0.381 -0.3088 0.6898 -0.6898 0.6898 s -0.6898 -0.3088 -0.6898 -0.6898 0.3088 -0.6898 0.6898 -0.6898 0.6898 0.3088 0.6898 0.6898 z" transform="translate(-.6102,-.5572)"/>
<path d="m 104.161 1356.01 c 0 0.381 -0.3088 0.6898 -0.6898 0.6898 s -0.6898 -0.3088 -0.6898 -0.6898 0.3088 -0.6898 0.6898 -0.6898 0.6898 0.3088 0.6898 0.6898 z" transform="translate(.5041,1.4592)"/>
<path d="m 104.161 1356.01 c 0 0.381 -0.3088 0.6898 -0.6898 0.6898 s -0.6898 -0.3088 -0.6898 -0.6898 0.3088 -0.6898 0.6898 -0.6898 0.6898 0.3088 0.6898 0.6898 z" transform="translate(4.3246,-.8225)"/>
<path d="m 104.161 1356.01 c 0 0.381 -0.3088 0.6898 -0.6898 0.6898 s -0.6898 -0.3088 -0.6898 -0.6898 0.3088 -0.6898 0.6898 -0.6898 0.6898 0.3088 0.6898 0.6898 z" transform="translate(2.6531,-2.998)"/>
<path d="m 96.4109 1353.52 c 0.3213 2.116 2.1351 3.8597 3.3406 4.0952" fill="none" stroke="#000"/>
<path d="m 91.9004 1353.97 c 0.8912 1.9458 3.1149 3.123 4.3386 3.0177" fill="none" stroke="#000"/>
<path d="m 89.3241 1356.8 c 1.0281 0.8955 2.7481 1.1113 3.5216 0.8167" fill="none" stroke="#000"/>
</g>
</svg>
