<svg viewBox="0 0 512 512" xmlns="http://www.w3.org/2000/svg">

<path d="m380.911,328.082-23.431,16.539v-18.492l30.465-20.144 7.586,14.698 19.17-14.978 7.79,14.688 19.214-14.354 10.332,15.34-.274,24.32-14.66-16.943-20.138,14.689-7.477-14.95-20.065,14.038z" fill="#fff" transform="matrix(4.63573,0,0,4.63573,-1621.1243,-1348.26612)"/>
<path d="m380.911,369.958-23.431,16.541v-18.492l30.465-20.143 7.586,14.696 19.17-14.977 7.79,14.688 19.214-14.355 10.332,15.341-.274,24.32-14.66-16.943-20.138,14.688-7.477-14.95-20.065,14.039z" fill="#fff" transform="matrix(4.63573,0,0,4.63573,-1621.1243,-1348.26612)"/>
</svg>
