<svg viewBox="0 0 512 512" xmlns="http://www.w3.org/2000/svg">

<g transform="matrix(18.68858,0,0,18.68858,5785.34947,-7972.29631)">
<path d="m -297.469 427.882 -7.4381 24.8095 h 2.5088 l 4.9828 -15.2969 v 15.2969 h 2.7876 v -15.0878 l 4.948 15.0878 h 2.5088 l -7.5264 -24.8095 h -2.7715 z" fill="#fff"/>
<path d="m 455.956 438.545 c 0 4.6014 -3.7301 8.3315 -8.3315 8.3315 s -8.3315 -3.7301 -8.3315 -8.3315 3.7301 -8.3315 8.3315 -8.3315 8.3315 3.7301 8.3315 8.3315 z" fill="#fff" stroke="#000" stroke-width=".8867" transform="matrix(1.22216,0,0,1.22216,-842.91181,-95.83564)"/>
<path d="m 455.956 438.545 c 0 4.6014 -3.7301 8.3315 -8.3315 8.3315 s -8.3315 -3.7301 -8.3315 -8.3315 3.7301 -8.3315 8.3315 -8.3315 8.3315 3.7301 8.3315 8.3315 z" transform="matrix(.88941,0,0,.88941,-693.9642,50.0907)"/>
<path d="m 455.956 438.545 c 0 4.6014 -3.7301 8.3315 -8.3315 8.3315 s -8.3315 -3.7301 -8.3315 -8.3315 3.7301 -8.3315 8.3315 -8.3315 8.3315 3.7301 8.3315 8.3315 z" fill="#fff" transform="matrix(.63912,0,0,.63912,-581.93065,159.85176)"/>
<path d="m 455.956 438.545 c 0 4.6014 -3.7301 8.3315 -8.3315 8.3315 s -8.3315 -3.7301 -8.3315 -8.3315 3.7301 -8.3315 8.3315 -8.3315 8.3315 3.7301 8.3315 8.3315 z" transform="matrix(.38437,0,0,.38437,-467.89643,271.57288)"/>
<path d="m 455.956 438.545 c 0 4.6014 -3.7301 8.3315 -8.3315 8.3315 s -8.3315 -3.7301 -8.3315 -8.3315 3.7301 -8.3315 8.3315 -8.3315 8.3315 3.7301 8.3315 8.3315 z" fill="#fff" transform="matrix(.18597,0,0,.18597,-379.08777,358.58014)"/>
</g>
</svg>
