<svg viewBox="0 0 512 512" xmlns="http://www.w3.org/2000/svg">

<g transform="matrix(18.68858,0,0,18.68858,-6357.05529,-32681.44968)">
<path d="m345.7031,1762.0748c-6e-05-16.2754 16.2667-16.5884 16.2665,0 .0004,6.2607-8.1331,13.064-8.1331,13.064s-8.1334-6.8041-8.1334-13.064z" fill="#fff"/>
<g transform="translate(.0697)">
<path d="m358.1965,1756.4644c1.6607,3.8197.715,9.3959-2.1122,12.4544"/>
<path d="m352.8023,1763.399c0,1.2858-1.0423,2.3282-2.3281,2.3282s-2.3281-1.0424-2.3281-2.3282 1.0423-2.3281 2.3281-2.3281 2.3281,1.0424 2.3281,2.3281z" fill="#fff" stroke="#000" stroke-width="1.248" transform="matrix(.80126,-.00696,.00696,.80126,64.80072,352.45772)"/>
<path d="m349.3369,1756.4644c-1.6607,3.8197-.715,9.3959 2.1122,12.4544"/>
<path d="m352.8023,1763.399c0,1.2858-1.0423,2.3282-2.3281,2.3282s-2.3281-1.0424-2.3281-2.3282 1.0423-2.3281 2.3281-2.3281 2.3281,1.0424 2.3281,2.3281z" fill="#fff" stroke="#000" stroke-width="1.248" transform="matrix(-.80126,-.00696,-.00696,.80126,642.73262,352.45772)"/>
</g>
</g>
</svg>
