<svg viewBox="0 0 512 512" xmlns="http://www.w3.org/2000/svg">

<g transform="matrix(18.68858,0,0,18.68858,-9084.83571,-38782.58447)">
<path d="m501.6875,2077.6875c1.5994,1.9446 2.9484,4.0015 3.9688,6.1563-2.6247-2.0647-5.6203-3.6898-9.0312-4.7813 2.8554,2.041 5.4012,4.4272 7.4688,7-4.6696-1.5123-9.5439-1.7289-14.625-.625 3.2431.3154 6.3536.9805 9.25,2.0313-4.2624.356-8.3024,2.4468-11.625,6.5 2.5937-1.4797 5.9359-2.6988 8.5938-2.875-3.4154,1.7614-7.1399,6.0509-8.1562,10.5937h6.9375c3.3394-5.4056 8.8615-8.5078 13.9375-8.9375l3.75-1.625c1.152-3.7869-.1683-7.8169-2.9375-11.0625 .5309,2.0419.6821,4.1327.3125,6.125-1.7561-3.4632-4.3857-6.2764-7.8438-8.5z" fill="#fff"/>
<path d="m511.1889,2091.1748c0,2.0753-1.6824,3.7576-3.7576,3.7576s-3.7576-1.6823-3.7576-3.7576 1.6824-3.7576 3.7576-3.7576 3.7576,1.6823 3.7576,3.7576z" stroke="#fff" stroke-width=".8383" transform="matrix(1.1522,.30873,-.30873,1.1522,568.40756,-473.91608)"/>
<path d="m510.7261,2089.744 1.6049.1108c-.3375,1.9659-1.2679,3.411-2.7623,4.3593 .7696-.9091 1.4707-3.0683 1.1575-4.4701z" fill="#fff"/>
<path d="m506.4976,2088.0914 2.2824-.315c.8935,2.3284.9477,3.4892.0112,5.9384 .0392-1.5653-.8172-4.1226-2.2936-5.6234z" fill="#fff"/>
<path d="m502.9716,2091.7533 .1916-2.3398c2.7049,1.0339 4.2222,2.8753 4.7945,4.7921-.9133-1.1314-2.8632-2.3395-4.986-2.4523z" fill="#fff"/>
<path d="m496.7901,2082.3926c2.2858.9646 5.4626,3.3164 7.2252,6.1676l3.156-.8252c-3.5017-3.4177-7.2453-5.03-10.3823-5.3411z" fill="#fff"/>
<path d="m498.4038,2099.6564c.6869-1.805 2.5958-4.2145 5.1141-5.4007l-1.0868-2.7029c-2.8833,2.5754-4.0388,5.5287-4.026,8.1046z" fill="#fff"/>
<path d="m498.9219,2091.0145c-1.6644.1688-4.5049,1.0734-6.8875,2.5996l-1.1734-1.1956c3.5616-1.5441 6.3046-1.8419 8.0604-1.4026z"/>
<path d="m502.8388,2087.001c-1.3032-.9765-4.046-2.1562-6.9923-2.5398l.1874-1.7265c3.784,1.1555 5.9482,2.7494 6.8034,4.2671z"/>
</g>
</svg>
