<svg xmlns="http://www.w3.org/2000/svg" viewBox="0 0 512 512">
<g transform="matrix(15 0 0 15 -4304 -44)">
<use width="744.094" height="1052.362" transform="translate(324)"/>
<path fill="#fff" d="m292,4c-2.6667,1.3333-3,2-3,2 2.6667,10.6667 .3333,18.3333-1,25 0,0 .6667,1.6667 6,3v-14c0-5.3333-2-16-2-16zm24,0c0,0-2,10.6667-2,16v14c5.3333-1.3333 6-3 6-3-1.3333-6.6667-3.6667-14.3333-1-25 0,0-.3333-.6667-3-2zm-14,12c-2.6667,0-6,1-6,1v18c0,0 3.3333,1 6,1h4c2.6667,0 6-1 6-1v-18c0,0-3.3333-1-6-1h-4z"/>
</g>
</svg>
