<svg viewBox="0 0 512 512" xmlns="http://www.w3.org/2000/svg">

<g transform="matrix(4.84453,0,0,4.84453,-440.03115,-142.69013)">
<path d="m 123.892 82.578 h -17.471 c -21.055 -16.686 -10.165 -55.968 18.267 -42.272 8.878 4.276 14.81 13.617 18.734 24.925 3.923 -11.308 9.854 -20.649 18.733 -24.925 28.432 -13.695 39.322 25.586 18.267 42.272 h -17.47 c 0 0 5.176 -9.065 5.783 -10.349 0.927 -1.96 6.395 -16.151 -1.339 -11.155 -10.462 6.759 -12.851 30.887 -13.993 41.503 -1.149 10.685 -1.816 24.795 -1.816 24.795 h -1.005 -14.32 -1.005 c 0 0 -0.667 -14.11 -1.815 -24.795 -1.142 -10.617 -3.531 -34.744 -13.994 -41.503 -7.733 -4.996 -2.267 9.194 -1.338 11.155 0.606 1.284 5.782 10.349 5.782 10.349 z" fill="#fff"/>
</g>
</svg>
