<svg viewBox="0 0 512 512" xmlns="http://www.w3.org/2000/svg">

<g transform="matrix(18.68858,0,0,18.68858,-2740.53648,-9757.81416)">
<path d="m147.4848,523.3125v7.9349c7.6616-1.5828 20.1194,6.7577 21.765,17.5651 6.8203-7.6415-3.5675-21.1319-8.2722-25.5h-13.4928z" fill="#fff" fill-rule="evenodd"/>
<path d="m173.3426,541.2026-5.18.1819-2.1618-4.8775 4.9669-1.4163 2.3749,6.112z" fill="#fff" stroke="#000"/>
<path d="m172.3893,535.0846-6.0362,2.2049-3.7694-5.0357 4.8166-3.1458 4.9891,5.9766z" fill="#fff" stroke="#000"/>
<path d="m169.8905,529.1484-6.5678,4.1595-5.9165-5.0733 3.6124-4.4746 2.1113,1e-05 6.7606,5.3884z" fill="#fff" stroke="#000"/>
<path d="m165.0236,522.7804-5.8924,6.9961-6.8902-3.5127 .7847-3.4834 11.9979,1e-05z" fill="#fff" stroke="#000"/>
<path d="m152.4707,526.3248-5.5794-.527" fill="none" stroke="#000"/>
<path d="m168.1588,541.3449 .1768,5.7452" fill="none" stroke="#000"/>
</g>
</svg>
