<svg viewBox="0 0 512 512" xmlns="http://www.w3.org/2000/svg">

<g transform="matrix(18.68858,0,0,18.68858,-5674.69017,-230.9801)">
<path d="m317.3368,12.6186v26.8257" fill="none" stroke="#000"/>
<g transform="translate(442.9657,-72.5681)">
<path d="m-113.6761,99.4202c2.2498,4.1979-9.7461,8.2826-11.9966,8.2826-2.3079,0-13.8559-3.5777-11.9966-8.2826 2.0527-5.1943 5.3745-5.7817 11.9966-5.7817s9.6074,1.3238 11.9966,5.7817z" fill="#fff"/>
<path d="m-132.3101,95.2405-5.8214-2.8519 2.7031,5.8204 3.1183-2.9684z" fill="#fff" fill-rule="evenodd"/>
<path d="m-115.7384,102.3939c0,2.2056-8.0039,4.7608-9.8179,4.7608-2.0864,0-9.8179-2.5552-9.8179-4.7608s1.2003-3.1054 9.8179-3.1054c8.5496,0 9.8179.8998 9.8179,3.1054z" stroke="#fff"/>
<path d="m-127.2623,94.028-3.6155-5.3806-.5692,6.3921 4.1847-1.0116z" fill="#fff" fill-rule="evenodd"/>
<path d="m-118.8962,95.2405 5.8214-2.8519-2.7031,5.8204-3.1183-2.9684z" fill="#fff" fill-rule="evenodd"/>
<path d="m-123.944,94.028 3.6155-5.3806 .5692,6.3921-4.1847-1.0116z" fill="#fff" fill-rule="evenodd"/>
<path d="m642.4065,100.7291c0,.2685-.653.4861-1.4584.4861s-1.4584-.2177-1.4584-.4861 .653-.4861 1.4584-.4861 1.4584.2177 1.4584.4861z" fill="#fff" transform="matrix(1.11817,0,0,1.67725,-845.59799,-66.24646)"/>
<path d="m642.4065,100.7291c0,.2685-.653.4861-1.4584.4861s-1.4584-.2177-1.4584-.4861 .653-.4861 1.4584-.4861 1.4584.2177 1.4584.4861z" fill="#fff" transform="matrix(1.11817,0,0,1.67725,-839.12664,-66.24646)"/>
</g>
</g>
</svg>
