<svg viewBox="0 0 512 512" xmlns="http://www.w3.org/2000/svg">

<g transform="matrix(18.68858,0,0,18.68858,-5674.69017,-230.9801)">
<path d="m 317.337 12.6186 v 26.8257" fill="none" stroke="#000"/>
<g transform="translate(442.9657,-72.5681)">
<path d="m -113.676 99.4202 c 2.2498 4.1979 -9.7461 8.2826 -11.9966 8.2826 -2.3079 0 -13.8559 -3.5777 -11.9966 -8.2826 2.0527 -5.1943 5.3745 -5.7817 11.9966 -5.7817 s 9.6074 1.3238 11.9966 5.7817 z" fill="#fff"/>
<path d="m -132.31 95.2405 -5.8214 -2.8519 2.7031 5.8204 3.1183 -2.9684 z" fill="#fff" fill-rule="evenodd"/>
<path d="m -115.738 102.394 c 0 2.2056 -8.0039 4.7608 -9.8179 4.7608 -2.0864 0 -9.8179 -2.5552 -9.8179 -4.7608 s 1.2003 -3.1054 9.8179 -3.1054 c 8.5496 0 9.8179 0.8998 9.8179 3.1054 z" stroke="#fff"/>
<path d="m -127.262 94.028 -3.6155 -5.3806 -0.5692 6.3921 4.1847 -1.0116 z" fill="#fff" fill-rule="evenodd"/>
<path d="m -118.896 95.2405 5.8214 -2.8519 -2.7031 5.8204 -3.1183 -2.9684 z" fill="#fff" fill-rule="evenodd"/>
<path d="m -123.944 94.028 3.6155 -5.3806 0.5692 6.3921 -4.1847 -1.0116 z" fill="#fff" fill-rule="evenodd"/>
<path d="m 642.407 100.729 c 0 0.2685 -0.653 0.4861 -1.4584 0.4861 s -1.4584 -0.2177 -1.4584 -0.4861 0.653 -0.4861 1.4584 -0.4861 1.4584 0.2177 1.4584 0.4861 z" fill="#fff" transform="matrix(1.11817,0,0,1.67725,-845.59799,-66.24646)"/>
<path d="m 642.407 100.729 c 0 0.2685 -0.653 0.4861 -1.4584 0.4861 s -1.4584 -0.2177 -1.4584 -0.4861 0.653 -0.4861 1.4584 -0.4861 1.4584 0.2177 1.4584 0.4861 z" fill="#fff" transform="matrix(1.11817,0,0,1.67725,-839.12664,-66.24646)"/>
</g>
</g>
</svg>
