<svg viewBox="0 0 512 512" xmlns="http://www.w3.org/2000/svg">

<g transform="matrix(18.68858,0,0,18.68858,-5913.16151,-1591.7329)">
<path d="m316.932,86.9479 4.7469,2.3674" fill="none" stroke="#fff"/>
<path d="m349.6056,96.2356h-3.4181l1.7091-2.9602z" fill="#fff" transform="matrix(2.44122,.37609,.70494,1.69761,-592.79199,-202.42907)"/>
<path d="m316.9544,95.7689 4.6816.4319" fill="none" stroke="#fff"/>
<path d="m349.6056,96.2356h-3.4181l1.7091-2.9602z" fill="#fff" transform="matrix(2.30113,-.48317,1.19677,1.2763,-590.86333,142.8934)"/>
<path d="m316.8134,104.2761 6.3713-1.8384" fill="none" stroke="#fff"/>
<path d="m349.6056,96.2356h-3.4181l1.7091-2.9602z" fill="#fff" transform="matrix(2.20639,.01726,.86409,-1.39621,-525.12581,229.09522)"/>
<path d="m320.8069,112.0813 4.2188-2.8161" fill="none" stroke="#fff"/>
<path d="m349.6056,96.2356h-3.4181l1.7091-2.9602z" fill="#fff" transform="matrix(2.27271,-.69575,.43666,-1.71407,-505.54583,513.4513)"/>
<g transform="matrix(1.13558,0,0,1.13594,-409.97917,-436.38038)">
<path d="m663.2477,462.55c-4.0019-1.4991-9.6851-1.6495-12.4479,1.0095 0,7.4485.8847,14.6411 6.2275,16.8702 4.8993-1.9573 6.2204-10.4518 6.2204-17.8798z" fill="#fff" fill-rule="evenodd" stroke="#000" stroke-width=".8805"/>
<path d="m660.8811,464.4637c-2.6345-1.1016-6.3759-1.2122-8.1946.7419 0,5.4736.5824,10.7592 4.0996,12.3973 3.2253-1.4383 4.095-7.6806 4.095-13.1392z" fill="#fff" fill-rule="evenodd" stroke="#000" stroke-width=".8805"/>
</g>
<path d="m343.2757,112.1948h-26.4354v-26.4354h26.4354" fill="none" stroke="#000"/>
</g>
</svg>
