<svg viewBox="0 0 512 512" xmlns="http://www.w3.org/2000/svg">

<g transform="matrix(18.68858,0,0,18.68858,1980.72517,-3501.17431)">
<path d="m -80.3388 213.285 c -4.4397 -0.2675 -9.7599 -2.419 -13.1883 -4.7508 2.0926 -3.1566 1.1098 -6.7329 -2.1875 -10.625 4.0326 3.3266 7.2526 4.6073 10.625 2.1875 2.4857 3.5019 4.9442 8.6269 4.7508 13.1883 z" fill="#fff"/>
<path d="m -88.5169 200.892 c 7.2725 9.6453 5.4921 11.2448 -4.2813 4.2812" fill="none" stroke="#000"/>
<path d="m -104.819 188.411 0.6637 -0.006 12.3817 12.3504 -1.1362 1.1362 -11.9066 -11.8753 -0.003 -1.6054 z" fill="#fff"/>
<path d="m 651.562 198.362 c 0 1.07 -0.8675 1.9375 -1.9375 1.9375 s -1.9375 -0.8675 -1.9375 -1.9375 0.8675 -1.9375 1.9375 -1.9375 1.9375 0.8675 1.9375 1.9375 z" fill="#fff" stroke="#000" transform="translate(-742.7867,2.3296)"/>
</g>
</svg>
