<svg viewBox="0 0 512 512" xmlns="http://www.w3.org/2000/svg">

<g transform="matrix(9.34429,16.18487,-16.18487,9.34429,1600.51106,-4742.45873)">
<path d="m 184.806 194.757 h 16.8062" fill="none" stroke="#fff"/>
<path d="m 184.163 196.066 h 1.8964 l 1.0057 -1.2915 -1.0057 -1.2915 h -1.8964 l 1.0057 1.2915 -1.0057 1.2915 z" fill="#fff" stroke="#fff"/>
</g>
<g transform="matrix(13.77124,12.63385,-12.63385,13.77124,19.37814,-4877.3129)">
<path d="m 184.806 194.757 h 13.0684" fill="none" stroke="#fff"/>
<path d="m 184.163 196.066 h 1.8964 l 1.0057 -1.2915 -1.0057 -1.2915 h -1.8964 l 1.0057 1.2915 -1.0057 1.2915 z" fill="#fff" stroke="#fff"/>
</g>
<g transform="matrix(2.05294,18.57551,18.57551,-2.05294,-3700.27497,-2964.67018)">
<path d="m 184.806 194.757 h 11.3888" fill="none" stroke="#fff"/>
<path d="m 184.163 196.066 h 1.8964 l 1.0057 -1.2915 -1.0057 -1.2915 h -1.8964 l 1.0057 1.2915 -1.0057 1.2915 z" fill="#fff" stroke="#fff"/>
</g>
<g transform="matrix(17.04305,0,0,17.04305,-1313.90739,-3125.15238)">
<path d="m 88.0877 209.761 h -7.0009 l -1.552 2.8012 h 15.0891 l -5.1915 -6.0582 c 1.4241 -1.5671 3.9579 -2.5645 5.6913 -2.6442 0.8093 2.6461 2.1269 6.6595 4.209 8.7023 h 3.5713 c -2.7516 -2.9737 -4.8367 -7.0598 -4.8536 -11.6694 l 0.6072 -2.2245 c -5.453 -3.4194 -19.4624 4.4087 -10.5698 11.0927 z" fill="#fff"/>
<path d="m 100.321 202.353 c 0 1.7696 -0.9794 3.2041 -2.1876 3.2041 s -2.1876 -1.4345 -2.1876 -3.2041 0.9794 -3.2041 2.1876 -3.2041 2.1876 1.4345 2.1876 3.2041 z" fill="#fff" transform="matrix(.90638,.90638,-.90638,.90638,195.83238,-72.73435)"/>
<path d="m 84.6775 204.74 c 0.3703 -5.3264 9.5703 -8.9449 13.8233 -6.8613" fill="none" stroke="#000" stroke-width="1.0966"/>
</g>
</svg>
