<svg viewBox="0 0 512 512" xmlns="http://www.w3.org/2000/svg">

<g transform="matrix(18.68858,0,0,18.68858,-229.01198,-29261.34983)">
<path d="m 1765.88 -1277.69 h 8.4313 v 7.2504 h -8.4313 z" fill="#fff" transform="matrix(.7071,.70711,.96677,-.25563,0,0)"/>
<path d="m 17.0219 1568.53 -1.6824 1.6825 22.4322 22.4637 h 1.3397 v -2.0251 l -22.0895 -22.1211 z" fill="#fff" stroke="#000"/>
<path d="m 487.974 1263.61 h 8.4313 v 7.2505 h -8.4313 z" fill="#fff" transform="matrix(.7071,.70711,-.25562,.96678,0,0)"/>
<path d="m 1780.2 -1288.18 h 5.2911 v 4.5501 h -5.2911 z" fill="#fff" transform="matrix(.70711,.7071,.96678,-.25563,0,0)"/>
<path d="m 15.9937 1583.61 -1.5266 1.5267 7.5397 7.5398 h 3.0221 l -9.0352 -9.0665 z" fill="#fff" stroke="#000"/>
<path d="m 489.112 1279.32 h 5.2911 v 4.5501 h -5.2911 z" fill="#fff" transform="matrix(.70711,.7071,-.25563,.96677,0,0)"/>
<path d="m 1770.82 -1264.87 h 5.2911 v 4.5501 h -5.2911 z" fill="#fff" transform="matrix(.70711,.7071,.96678,-.25563,0,0)"/>
<path d="m 31.8832 1571.02 -1.4955 1.5267 8.7236 8.7238 v -3.0222 l -7.2281 -7.2283 z" fill="#fff" stroke="#000"/>
<path d="m 503.17 1256.01 h 5.2911 v 4.5501 h -5.2911 z" fill="#fff" transform="matrix(.70711,.7071,-.25563,.96677,0,0)"/>
<path d="m 1784.68 -1278.99 h 3.3901 v 2.9154 h -3.3901 z" fill="#fff" transform="matrix(.70711,.7071,.96678,-.25563,0,0)"/>
<path d="m 501.234 1273.31 h 3.3901 v 2.9153 h -3.3901 z" fill="#fff" transform="matrix(.70711,.7071,-.25563,.96677,0,0)"/>
<path d="m 26.7414 1586.71 5.933 5.933" fill="none" stroke="#fff"/>
<path d="m 14.303 1576.18 2.7475 -0.054 -2.3704 0.9427"/>
<path d="m 16.9126 1579.01 2.018 0.1255 -1.3633 0.9428"/>
<path d="m 17.3312 1579.56 2.018 0.1255 -1.3633 0.9428"/>
<path d="m 26.1476 1570.31 0.0198 3.4012 1.1577 -2.5861"/>
<path d="m 24.0693 1568.06 0.1722 2.5304 0.9183 -1.4976"/>
<path d="m 30.4748 1576.84 1.9109 0.1301 -1.131 0.6933"/>
<path d="m 16.192 1590.96 h 1.9297 l -0.98 0.9198"/>
<path d="m 29.6205 1585.89 0.2253 1.3204 0.5982 -0.5407"/>
<path d="m 27.5032 1592.71 h 7.1425" fill="none" stroke="#000"/>
<path d="m 21.0427 1584.8 0.1302 1.9108 0.6933 -1.131"/>
</g>
</svg>
