<svg viewBox="0 0 512 512" xmlns="http://www.w3.org/2000/svg">

<g transform="matrix(18.68858,0,0,18.68858,-10439.20962,-31324.8029)">
<path d="m 572.346 1695.44 1.9878 2.2163 v 3.7928 l -1.9878 -0.5941 -1.9649 0.5941 v -3.7928 z" stroke="#fff"/>
<path d="m 571.365 1680.41 v 21.9247" fill="none" stroke="#000"/>
<path d="m 572.36 1680.41 v 21.9247" fill="none" stroke="#fff"/>
<path d="m 572.357 1676.99 2.7075 4.6829 -2.7075 -0.8158 -2.6959 0.8158 z" fill="#fff"/>
<g transform="matrix(-1,0,0,1,1142.067,3.27481)">
<path d="m 568.631 1683.86 6.0672 7.0873" fill="none" stroke="#000"/>
<path d="m 574.434 1692.16 2.8406 0.3815 2.3698 2.7794 -1.8271 0.8071 -1.0679 1.6639 -2.3698 -2.7794 z" stroke="#fff"/>
<path d="m 564.456 1680.47 14.2299 16.6793" fill="none" stroke="#fff"/>
<path d="m 562.232 1677.87 5.0991 1.8052 -2.5891 1.1369 -1.5214 2.3703 z" fill="#fff"/>
<path d="m 566.879 1684.88 11.285 13.0582" fill="none" stroke="#000"/>
</g>
<g transform="translate(2.6903,3.2748)">
<path d="m 568.631 1683.86 6.0672 7.0873" fill="none" stroke="#000"/>
<path d="m 574.453 1692.18 2.8303 0.38 2.3613 2.7695 -1.8205 0.8042 -1.064 1.6579 -2.3613 -2.7694 z" stroke="#fff"/>
<path d="m 564.456 1680.47 14.2299 16.6793" fill="none" stroke="#fff"/>
<path d="m 562.232 1677.87 5.0991 1.8052 -2.5891 1.1369 -1.5214 2.3703 z" fill="#fff"/>
<path d="m 563.475 1679.29 2.9504 1.0446 -1.4981 0.6578 -0.8803 1.3715 z"/>
<path d="m 575.993 1679.29 -2.9504 1.0446 1.4981 0.6578 0.8803 1.3715 z"/>
<path d="m 566.879 1684.88 13.0383 15.0647" fill="none" stroke="#000"/>
</g>
<path d="m 572.359 1679.14 1.4794 2.5589 -1.4794 -0.4458 -1.4731 0.4458 z"/>
</g>
</svg>
