<svg viewBox="0 0 512 512" xmlns="http://www.w3.org/2000/svg">

<g transform="matrix(18.68858,0,0,18.68858,-229.01198,-29261.34983)">
<path d="m1765.8822-1277.6863h8.4313v7.2504h-8.4313z" fill="#fff" transform="matrix(.7071,.70711,.96677,-.25563,0,0)"/>
<path d="m17.0219,1568.5272-1.6824,1.6825 22.4322,22.4637h1.3397v-2.0251l-22.0895-22.1211z" fill="#fff" stroke="#000"/>
<path d="m487.9739,1263.6099h8.4313v7.2505h-8.4313z" fill="#fff" transform="matrix(.7071,.70711,-.25562,.96678,0,0)"/>
<path d="m1780.1969-1288.1801h5.2911v4.5501h-5.2911z" fill="#fff" transform="matrix(.70711,.7071,.96678,-.25563,0,0)"/>
<path d="m15.9937,1583.6069-1.5266,1.5267 7.5397,7.5398h3.0221l-9.0352-9.0665z" fill="#fff" stroke="#000"/>
<path d="m489.112,1279.3199h5.2911v4.5501h-5.2911z" fill="#fff" transform="matrix(.70711,.7071,-.25563,.96677,0,0)"/>
<path d="m1770.8164-1264.8746h5.2911v4.5501h-5.2911z" fill="#fff" transform="matrix(.70711,.7071,.96678,-.25563,0,0)"/>
<path d="m31.8832,1571.0197-1.4955,1.5267 8.7236,8.7238v-3.0222l-7.2281-7.2283z" fill="#fff" stroke="#000"/>
<path d="m503.1698,1256.0146h5.2911v4.5501h-5.2911z" fill="#fff" transform="matrix(.70711,.7071,-.25563,.96677,0,0)"/>
<path d="m1784.6769-1278.9916h3.3901v2.9154h-3.3901z" fill="#fff" transform="matrix(.70711,.7071,.96678,-.25563,0,0)"/>
<path d="m501.2343,1273.3102h3.3901v2.9153h-3.3901z" fill="#fff" transform="matrix(.70711,.7071,-.25563,.96677,0,0)"/>
<path d="m26.7414,1586.7131 5.933,5.933" fill="none" stroke="#fff"/>
<path d="m14.303,1576.1843 2.7475-.054-2.3704.9427"/>
<path d="m16.9126,1579.0143 2.018.1255-1.3633.9428"/>
<path d="m17.3312,1579.5596 2.018.1255-1.3633.9428"/>
<path d="m26.1476,1570.3108 .0198,3.4012 1.1577-2.5861"/>
<path d="m24.0693,1568.0582 .1722,2.5304 .9183-1.4976"/>
<path d="m30.4748,1576.8434 1.9109.1301-1.131.6933"/>
<path d="m16.192,1590.9637h1.9297l-.98.9198"/>
<path d="m29.6205,1585.8852 .2253,1.3204 .5982-.5407"/>
<path d="m27.5032,1592.7127h7.1425" fill="none" stroke="#000"/>
<path d="m21.0427,1584.8041 .1302,1.9108 .6933-1.131"/>
</g>
</svg>
