<svg viewBox="0 0 512 512" xmlns="http://www.w3.org/2000/svg">

<g transform="matrix(9.34429,16.18487,-16.18487,9.34429,1600.51106,-4742.45873)">
<path d="m184.8062,194.7575h16.8062" fill="none" stroke="#fff"/>
<path d="m184.1635,196.0657h1.8964l1.0057-1.2915-1.0057-1.2915h-1.8964l1.0057,1.2915-1.0057,1.2915z" fill="#fff" stroke="#fff"/>
</g>
<g transform="matrix(13.77124,12.63385,-12.63385,13.77124,19.37814,-4877.3129)">
<path d="m184.8062,194.7575h13.0684" fill="none" stroke="#fff"/>
<path d="m184.1635,196.0657h1.8964l1.0057-1.2915-1.0057-1.2915h-1.8964l1.0057,1.2915-1.0057,1.2915z" fill="#fff" stroke="#fff"/>
</g>
<g transform="matrix(2.05294,18.57551,18.57551,-2.05294,-3700.27497,-2964.67018)">
<path d="m184.8062,194.7575h11.3888" fill="none" stroke="#fff"/>
<path d="m184.1635,196.0657h1.8964l1.0057-1.2915-1.0057-1.2915h-1.8964l1.0057,1.2915-1.0057,1.2915z" fill="#fff" stroke="#fff"/>
</g>
<g transform="matrix(17.04305,0,0,17.04305,-1313.90739,-3125.15238)">
<path d="m88.0877,209.7613h-7.0009l-1.552,2.8012h15.0891l-5.1915-6.0582c1.4241-1.5671 3.9579-2.5645 5.6913-2.6442 .8093,2.6461 2.1269,6.6595 4.209,8.7023h3.5713c-2.7516-2.9737-4.8367-7.0598-4.8536-11.6694l.6072-2.2245c-5.453-3.4194-19.4624,4.4087-10.5698,11.0927z" fill="#fff"/>
<path d="m100.3208,202.3535c0,1.7696-.9794,3.2041-2.1876,3.2041s-2.1876-1.4345-2.1876-3.2041 .9794-3.2041 2.1876-3.2041 2.1876,1.4345 2.1876,3.2041z" fill="#fff" transform="matrix(.90638,.90638,-.90638,.90638,195.83238,-72.73435)"/>
<path d="m84.6775,204.74c.3703-5.3264 9.5703-8.9449 13.8233-6.8613" fill="none" stroke="#000" stroke-width="1.0966"/>
</g>
</svg>
