<svg viewBox="0 0 512 512" xmlns="http://www.w3.org/2000/svg">

<g transform="matrix(18.68858,0,0,18.68858,-10439.20962,-31324.8029)">
<path d="m572.3465,1695.437 1.9878,2.2163v3.7928l-1.9878-.5941-1.9649.5941v-3.7928z" stroke="#fff"/>
<path d="m571.3655,1680.4095v21.9247" fill="none" stroke="#000"/>
<path d="m572.3599,1680.4095v21.9247" fill="none" stroke="#fff"/>
<path d="m572.3566,1676.9869 2.7075,4.6829-2.7075-.8158-2.6959.8158z" fill="#fff"/>
<g transform="matrix(-1,0,0,1,1142.067,3.27481)">
<path d="m568.6312,1683.8624 6.0672,7.0873" fill="none" stroke="#000"/>
<path d="m574.4342,1692.1567 2.8406.3815 2.3698,2.7794-1.8271.8071-1.0679,1.6639-2.3698-2.7794z" stroke="#fff"/>
<path d="m564.4559,1680.4729 14.2299,16.6793" fill="none" stroke="#fff"/>
<path d="m562.232,1677.8713 5.0991,1.8052-2.5891,1.1369-1.5214,2.3703z" fill="#fff"/>
<path d="m566.8788,1684.8785 11.285,13.0582" fill="none" stroke="#000"/>
</g>
<g transform="translate(2.6903,3.2748)">
<path d="m568.6312,1683.8624 6.0672,7.0873" fill="none" stroke="#000"/>
<path d="m574.4531,1692.177 2.8303.38 2.3613,2.7695-1.8205.8042-1.064,1.6579-2.3613-2.7694z" stroke="#fff"/>
<path d="m564.4559,1680.4729 14.2299,16.6793" fill="none" stroke="#fff"/>
<path d="m562.232,1677.8713 5.0991,1.8052-2.5891,1.1369-1.5214,2.3703z" fill="#fff"/>
<path d="m563.4746,1679.2922 2.9504,1.0446-1.4981.6578-.8803,1.3715z"/>
<path d="m575.9931,1679.2922-2.9504,1.0446 1.4981.6578 .8803,1.3715z"/>
<path d="m566.8789,1684.8785 13.0383,15.0647" fill="none" stroke="#000"/>
</g>
<path d="m572.3592,1679.1421 1.4794,2.5589-1.4794-.4458-1.4731.4458z"/>
</g>
</svg>
