<svg viewBox="0 0 512 512" xmlns="http://www.w3.org/2000/svg">

<g transform="matrix(18.68858,0,0,18.68858,-7719.18601,-23143.61396)">
<path d="m428.6781,1239.2506c-5.9652.7598-7.2426,5.3407-5.0873,8.8971-2.3093-.9564-3.3066-2.3648-2.3355-4.4133-2.2297,1.1566-3.4065,3.4577-3.3568,5.9409 .1838,9.1764 16.8533,8.8315 17.102,0 .0676-2.4013-1.1267-3.9848-3.8601-5.1407 1.032,1.4919.6289,3.2257-.4708,3.9507 .723-3.6487-6.4534-5.6227-1.9915-9.2314z" fill="#fff" fill-rule="evenodd"/>
<path d="m420.4758,1255.4136c-1.0471-1.8799-1.4235-3.9994-.936-5.7182 1.9125,2.6396 7.3732-1.0702 7.8713-4.2425-.002,3.4071 3.4234,6.3334 6.0304,2.8031 .6867,2.8427.1347,5.8367-1.0791,7.5009" fill-rule="evenodd"/>
<path d="m429.3214,1250.3665v4.3894h-8.5552v10.3806h11.9326v-14.77h-3.3773z" fill="#fff" stroke="#000"/>
<path d="m426.7556,1250.7461 8.2339,6.3001h-16.4677l8.2339-6.3001z" fill="#fff"/>
<path d="m428.9735,1260.9841h1.9803v3.9226h-1.9803z"/>
<path d="m422.4992,1257.6539h1.9803v1.9042h-1.9803z"/>
<path d="m425.6983,1257.6539h1.9803v1.9042h-1.9803z"/>
<path d="m422.4992,1260.946h1.9803v1.9042h-1.9803z"/>
<path d="m425.6983,1260.946h1.9803v1.9042h-1.9803z"/>
<path d="m428.9354,1257.6539h1.9803v1.9042h-1.9803z"/>
<path d="m422.9182,1250.4919h6.8741v2.5706h-6.8741z"/>
</g>
</svg>
