<svg viewBox="0 0 512 512" xmlns="http://www.w3.org/2000/svg">

<g transform="matrix(18.68858,0,0,18.68858,-7719.18601,-23143.61396)">
<path d="m 428.678 1239.25 c -5.9652 0.7598 -7.2426 5.3407 -5.0873 8.8971 -2.3093 -0.9564 -3.3066 -2.3648 -2.3355 -4.4133 -2.2297 1.1566 -3.4065 3.4577 -3.3568 5.9409 0.1838 9.1764 16.8533 8.8315 17.102 0 0.0676 -2.4013 -1.1267 -3.9848 -3.8601 -5.1407 1.032 1.4919 0.6289 3.2257 -0.4708 3.9507 0.723 -3.6487 -6.4534 -5.6227 -1.9915 -9.2314 z" fill="#fff" fill-rule="evenodd"/>
<path d="m 420.476 1255.41 c -1.0471 -1.8799 -1.4235 -3.9994 -0.936 -5.7182 1.9125 2.6396 7.3732 -1.0702 7.8713 -4.2425 -0.002 3.4071 3.4234 6.3334 6.0304 2.8031 0.6867 2.8427 0.1347 5.8367 -1.0791 7.5009" fill-rule="evenodd"/>
<path d="m 429.321 1250.37 v 4.3894 h -8.5552 v 10.3806 h 11.9326 v -14.77 h -3.3773 z" fill="#fff" stroke="#000"/>
<path d="m 426.756 1250.75 8.2339 6.3001 h -16.4677 l 8.2339 -6.3001 z" fill="#fff"/>
<path d="m 428.974 1260.98 h 1.9803 v 3.9226 h -1.9803 z"/>
<path d="m 422.499 1257.65 h 1.9803 v 1.9042 h -1.9803 z"/>
<path d="m 425.698 1257.65 h 1.9803 v 1.9042 h -1.9803 z"/>
<path d="m 422.499 1260.95 h 1.9803 v 1.9042 h -1.9803 z"/>
<path d="m 425.698 1260.95 h 1.9803 v 1.9042 h -1.9803 z"/>
<path d="m 428.935 1257.65 h 1.9803 v 1.9042 h -1.9803 z"/>
<path d="m 422.918 1250.49 h 6.8741 v 2.5706 h -6.8741 z"/>
</g>
</svg>
