<svg viewBox="0 0 512 512" xmlns="http://www.w3.org/2000/svg">

<path d="m29.9668,1225.0249h-12.1151l-6.0575-10.4919 6.0575-10.492h12.1151l6.0575,10.492z" fill="#fff" stroke="#000" stroke-width=".9275" transform="matrix(17.46059,-10.06942,10.08087,17.44075,-12409.44717,-20684.61048)"/>
<path d="m29.9668,1225.0249h-12.1151l-6.0575-10.4919 6.0575-10.492h12.1151l6.0575,10.492z" transform="matrix(4.32523,-2.49717,2.49717,4.32523,-2886.40181,-5052.01918)"/>
<path d="m29.9668,1225.0249h-12.1151l-6.0575-10.4919 6.0575-10.492h12.1151l6.0575,10.492z" transform="matrix(4.32523,-2.49717,2.49717,4.32523,-2781.42503,-4991.55315)"/>
<path d="m29.9668,1225.0249h-12.1151l-6.0575-10.4919 6.0575-10.492h12.1151l6.0575,10.492z" transform="matrix(4.32523,-2.49717,2.49717,4.32523,-2991.75307,-4991.55315)"/>
<path d="m29.9668,1225.0249h-12.1151l-6.0575-10.4919 6.0575-10.492h12.1151l6.0575,10.492z" transform="matrix(4.32523,2.49717,2.49717,-4.32523,-2886.40181,5576.78778)"/>
<path d="m29.9668,1225.0249h-12.1151l-6.0575-10.4919 6.0575-10.492h12.1151l6.0575,10.492z" transform="matrix(4.32523,2.49717,2.49717,-4.32523,-2781.42503,5516.32175)"/>
<path d="m29.9668,1225.0249h-12.1151l-6.0575-10.4919 6.0575-10.492h12.1151l6.0575,10.492z" transform="matrix(4.32523,2.49717,2.49717,-4.32523,-2991.75307,5516.32175)"/>
<path d="m29.9668,1225.0249h-12.1151l-6.0575-10.4919 6.0575-10.492h12.1151l6.0575,10.492z" transform="matrix(4.32523,2.49717,2.49717,-4.32523,-2886.40181,5455.93423)"/>
</svg>
