<svg viewBox="0 0 512 512" xmlns="http://www.w3.org/2000/svg">

<g transform="matrix(18.68858,0,0,18.68858,4525.52426,-7331.74149)">
<path d="m -235.401 405.266 c -2.0473 2.7916 -3.3498 2.8361 -5.6514 0.9376 0.0277 2.3883 3.8859 4.359 5.485 1.8025 1.732 2.6035 5.372 2.7584 7.5042 -0.2701 1.2749 1.8218 4.6006 3.455 7.0421 -0.5864 1.2794 2.5463 3.92 1.1309 4.9806 -0.7371 -1.7394 0.9088 -4.0805 -0.3739 -5.1119 -2.1362 -2.5449 3.5343 -4.8015 3.9162 -6.9108 -0.0838 -1.9767 3.6144 -5.5745 3.9144 -7.3378 1.0735 z" fill="#fff" fill-rule="evenodd"/>
<path d="m -238.57 413.058 c 1.8481 0.9088 4.973 -0.3739 6.0688 -2.1362 2.7039 3.5343 6.3389 3.9162 8.58 -0.0838 2.1002 3.6144 3.713 3.605 6.4262 1.2503 -1.7518 2.2942 -4.4701 4.5262 -6.4262 2.2931 -1.3545 1.8218 -6.1254 3.455 -8.7195 -0.5864 -1.3593 2.5463 -4.8024 1.1309 -5.9293 -0.7371 z" fill="#fff" fill-rule="evenodd"/>
<path d="m 531.037 404.564 c 0 7.4688 -6.0546 13.5234 -13.5234 13.5234 s -13.5234 -6.0546 -13.5234 -13.5234 6.0546 -13.5234 13.5234 -13.5234 13.5234 6.0546 13.5234 13.5234 z" fill="none" stroke="#fff" stroke-width="1.0479" transform="matrix(.91335,0,0,.91335,-701.10435,36.39256)"/>
</g>
</svg>
