<svg viewBox="0 0 512 512" xmlns="http://www.w3.org/2000/svg">

<g transform="matrix(18.68858,0,0,18.68858,712.59284,-958.45391)">
<path d="m-23.2545,70.3143c-8.3247,9.3176-15.4787-5.087-5.8718-13.3566-15.0785,11.2994-1.5757,28.237 5.8718,13.3566z" fill="#fff" fill-rule="evenodd"/>
<path d="m-23.3489,62.068c13.05-.2632 8.1289,14.1329-5.1432,12.8165 19.6217,3.1622 21.53-17.3218 5.1432-12.8165z" fill="#fff" fill-rule="evenodd"/>
<path d="m-26.9255,66.18c-7.6309-11.0521 7.8532-13.0755 14.2172-1.1492-8.3364-18.1586-27.4806-10.921-14.2172,1.1492z" fill="#fff" fill-rule="evenodd"/>
<path d="m720.7186,63.1198c0,1.8062-1.4642,3.2704-3.2704,3.2704s-3.2704-1.4642-3.2704-3.2704 1.4642-3.2704 3.2704-3.2704 3.2704,1.4642 3.2704,3.2704z" fill="#fff" transform="matrix(-.97736,-.21158,-.21158,.97736,691.26308,156.31968)"/>
</g>
</svg>
