<svg viewBox="0 0 512 512" xmlns="http://www.w3.org/2000/svg">

<g transform="matrix(18.68858,0,0,18.68858,-3638.49329,-41515.78462)">
<path d="m212.8865,2233.8978c8.2563-2.0502 10.8881,10.0946 2.7583,12.6858-6.2735,1.9999-15.062-1.0308-17.843-11.4982-1.6955-6.3808 5.8589-9.0932 7.4758-3.8435 1.0779,3.5001 3.7318,3.6227 7.6089,2.6559z" fill="none" stroke="#fff"/>
<path d="m205.0085,2230.0294c-.2563-1.2513.1444-2.1884 1.0591-2.8797-1.1019-.2334-2.1924-.3583-3.1406.8726 .2892-.7194-.0388-2.0265-.687-2.4038-.7971,2.775-2.7597,2.3722-5.0538,1.3869l1.0496,1.9509c-.7779-.3755-1.5749-.271-2.3336-.016 1.7114,1.1226.9853,2.0747-.1647,3.1646 1.4095-.2944 2.8897-1.4986 3.228.2176 .9298-.7316 1.587-1.5018 1.6802-2.3521 .9374,0 1.8747.1549 2.8121.7608 .0678-.5393-.01-1.0556-.4583-1.528z" fill="#fff"/>
<path d="m200.2585,2228.4794c-1.2054-1.0531-1.6884-4.1361-.7883-5.7553" fill="none" stroke="#fff"/>
<path d="m211.1629,2234.3856c-7.1906,4.7602 4.3957,13.7432 9.2059,6.5702l-.0382-3.6289-3.5907-3.476z" fill="#fff"/>
</g>
</svg>
