<svg viewBox="0 0 512 512" xmlns="http://www.w3.org/2000/svg">

<g transform="matrix(18.68858,0,0,18.68858,-3638.49329,-41515.78462)">
<path d="m 212.887 2233.9 c 8.2563 -2.0502 10.8881 10.0946 2.7583 12.6858 -6.2735 1.9999 -15.062 -1.0308 -17.843 -11.4982 -1.6955 -6.3808 5.8589 -9.0932 7.4758 -3.8435 1.0779 3.5001 3.7318 3.6227 7.6089 2.6559 z" fill="none" stroke="#fff"/>
<path d="m 205.008 2230.03 c -0.2563 -1.2513 0.1444 -2.1884 1.0591 -2.8797 -1.1019 -0.2334 -2.1924 -0.3583 -3.1406 0.8726 0.2892 -0.7194 -0.0388 -2.0265 -0.687 -2.4038 -0.7971 2.775 -2.7597 2.3722 -5.0538 1.3869 l 1.0496 1.9509 c -0.7779 -0.3755 -1.5749 -0.271 -2.3336 -0.016 1.7114 1.1226 0.9853 2.0747 -0.1647 3.1646 1.4095 -0.2944 2.8897 -1.4986 3.228 0.2176 0.9298 -0.7316 1.587 -1.5018 1.6802 -2.3521 0.9374 0 1.8747 0.1549 2.8121 0.7608 0.0678 -0.5393 -0.01 -1.0556 -0.4583 -1.528 z" fill="#fff"/>
<path d="m 200.258 2228.48 c -1.2054 -1.0531 -1.6884 -4.1361 -0.7883 -5.7553" fill="none" stroke="#fff"/>
<path d="m 211.163 2234.39 c -7.1906 4.7602 4.3957 13.7432 9.2059 6.5702 l -0.0382 -3.6289 -3.5907 -3.476 z" fill="#fff"/>
</g>
</svg>
