<svg viewBox="0 0 512 512" xmlns="http://www.w3.org/2000/svg">

<g transform="matrix(18.68858,0,0,18.68858,1349.43921,-13635.23436)">
<path d="m -55.0342 730.312 c -0.8907 1.8505 -2.0572 3.2188 -3.375 3.2188 -1.3121 0 -2.5168 -1.3512 -3.4062 -3.1875 0.0196 2.106 -0.5203 4.863 -1.6562 5.625 s -2.6562 -0.642 -4.2188 -1.7188 c 0.934 1.8215 2.2527 3.6115 1.5938 4.9375 -0.6534 1.315 -3.1655 1.9241 -4.9688 1.9062 1.5698 1.0322 4.2187 2.45 4.2188 3.9688 s -2.6489 2.874 -4.2188 3.9062 c 1.8033 -0.0178 4.3153 0.6225 4.9688 1.9375 0.6543 1.3168 -0.4826 3.0129 -1.8053 4.5782 2.3986 -0.8247 3.4852 -0.3074 4.5678 0.578 h 9.5105 c 1.062 -0.7823 2.1297 -1.373 4.7993 -0.4971 -1.4037 -1.6193 -2.258 -3.3423 -1.6036 -4.6592 0.6558 -1.3198 3.0312 -1.9602 4.8438 -1.9375 -1.5732 -1.0326 -4.0312 -2.3857 -4.0312 -3.9062 s 2.4581 -2.9362 4.0312 -3.9688 c -1.8126 0.0227 -4.1879 -0.5865 -4.8438 -1.9062 -0.6589 -1.326 0.5348 -3.116 1.4688 -4.9375 -1.5625 1.0767 -3.0811 2.4819 -4.2188 1.7188 s -1.68 -3.5394 -1.6562 -5.6562 z" fill="#fff"/>
<path d="m -58.4593 734.312 c -3.8787 0 -7.0313 5.1528 -7.0312 11.5 0 5.157 2.0777 9.5122 4.9375 10.9688 h 4.1875 c 2.8598 -1.4566 4.9375 -5.8117 4.9375 -10.9688 0 -6.3471 -3.1525 -11.5 -7.0312 -11.5 z"/>
<path d="m -58.7878 734.834 c -1.3673 0.1777 -2.4348 1.665 -2.4348 3.4601 2e-05 0.9942 0.3406 1.882 0.8652 2.5146 -2.8435 0.535 -3.0585 5.3266 -3.0585 8.6905 h 1.9719 l 0.5232 7.0208 h 5.0103 l 0.4628 -7.0208 h 1.8714 c 0 -3.3733 0.0677 -8.2492 -3.0384 -8.7308 0.5021 -0.6297 0.825 -1.5048 0.825 -2.4744 -3e-05 -1.9147 -1.2191 -3.4601 -2.7165 -3.4601 -0.0936 0 -0.1905 -0.0119 -0.2817 0 z" fill="#fff" fill-rule="evenodd" stroke="#000"/>
</g>
</svg>
