<svg viewBox="0 0 512 512" xmlns="http://www.w3.org/2000/svg">

<g transform="matrix(18.68858,0,0,18.68858,1349.43921,-13635.23436)">
<path d="m-55.0342,730.3125c-.8907,1.8505-2.0572,3.2188-3.375,3.2188-1.3121,0-2.5168-1.3512-3.4062-3.1875 .0196,2.106-.5203,4.863-1.6562,5.625s-2.6562-.642-4.2188-1.7188c.934,1.8215 2.2527,3.6115 1.5938,4.9375-.6534,1.315-3.1655,1.9241-4.9688,1.9062 1.5698,1.0322 4.2187,2.45 4.2188,3.9688s-2.6489,2.874-4.2188,3.9062c1.8033-.0178 4.3153.6225 4.9688,1.9375 .6543,1.3168-.4826,3.0129-1.8053,4.5782 2.3986-.8247 3.4852-.3074 4.5678.578h9.5105c1.062-.7823 2.1297-1.373 4.7993-.4971-1.4037-1.6193-2.258-3.3423-1.6036-4.6592 .6558-1.3198 3.0312-1.9602 4.8438-1.9375-1.5732-1.0326-4.0312-2.3857-4.0312-3.9062s2.4581-2.9362 4.0312-3.9688c-1.8126.0227-4.1879-.5865-4.8438-1.9062-.6589-1.326.5348-3.116 1.4688-4.9375-1.5625,1.0767-3.0811,2.4819-4.2188,1.7188s-1.68-3.5394-1.6562-5.6562z" fill="#fff"/>
<path d="m-58.4593,734.3125c-3.8787,0-7.0313,5.1528-7.0312,11.5 0,5.157 2.0777,9.5122 4.9375,10.9688h4.1875c2.8598-1.4566 4.9375-5.8117 4.9375-10.9688 0-6.3471-3.1525-11.5-7.0312-11.5z"/>
<path d="m-58.7878,734.8342c-1.3673.1777-2.4348,1.665-2.4348,3.4601 2e-05,.9942.3406,1.882.8652,2.5146-2.8435.535-3.0585,5.3266-3.0585,8.6905h1.9719l.5232,7.0208h5.0103l.4628-7.0208h1.8714c0-3.3733.0677-8.2492-3.0384-8.7308 .5021-.6297.825-1.5048.825-2.4744-3e-05-1.9147-1.2191-3.4601-2.7165-3.4601-.0936,0-.1905-.0119-.2817,0z" fill="#fff" fill-rule="evenodd" stroke="#000"/>
</g>
</svg>
