<svg viewBox="0 0 512 512" xmlns="http://www.w3.org/2000/svg">

<g transform="matrix(18.68858,0,0,18.68858,-8405.16887,-40153.2096)">
<path d="m 460.909 2149.87 -1e-05 5.9242 c -1.636 0 -2.9621 -1.3262 -2.9621 -2.9621 s 1.3261 -2.962 2.9621 -2.9621 z" fill="#fff"/>
<path d="m 463.505 2159.94 h 12.6792 v 3.7847 h -12.6792 z" fill="#fff" stroke="#000"/>
<path d="m 469.427 2159.1 h 4.3673 v 5.4649 h -4.3673 z" fill="#fff" stroke="#000"/>
<path d="m 458.728 2153.03 v 4.4146 h -3.8001 z" fill="#fff"/>
<path d="m 451.765 2156.7 v 5.0448 l 8.9422 5.2239 h 3.4622 v -10.2687 z" fill="#fff" stroke="#000"/>
<path d="m 460.345 2152.77 h 3.6997" fill="none" stroke="#fff"/>
<path d="m 464.044 2163.47 c 0 1.7666 -1.4321 3.1988 -3.1987 3.1988 s -3.1987 -1.4322 -3.1987 -3.1988 1.4321 -3.1987 3.1987 -3.1987 3.1987 1.4321 3.1987 3.1987 z" fill="#fff" stroke="#000" transform="translate(-3.3848,-.9798)"/>
<path d="m 464.012 2175.46 h -10.0201 c 0 -2.767 2.2431 -5.01 5.01 -5.01 s 5.01 2.243 5.01 5.01 z" fill="#fff" stroke="#000"/>
<path d="m 456.596 2172.59 -4.1733 -4.3615 4.2046 -4.9264" fill="none" stroke="#fff"/>
<path d="m 464.044 2163.47 c 0 1.7666 -1.4321 3.1988 -3.1987 3.1988 s -3.1987 -1.4322 -3.1987 -3.1988 1.4321 -3.1987 3.1987 -3.1987 3.1987 1.4321 3.1987 3.1987 z" fill="#fff" stroke="#000" stroke-width="1.5229" transform="matrix(.65663,0,0,.65663,150.52175,747.33276)"/>
<path d="m 452.665 2174.46 h 12.6989" fill="none" stroke="#fff"/>
<path d="m 464.044 2163.47 c 0 1.7666 -1.4321 3.1988 -3.1987 3.1988 s -3.1987 -1.4322 -3.1987 -3.1988 1.4321 -3.1987 3.1987 -3.1987 3.1987 1.4321 3.1987 3.1987 z" fill="#fff" stroke="#000" stroke-width="2.5564" transform="matrix(.39117,0,0,.39117,277.21641,1316.2093)"/>
<path d="m 461.964 2175.46 h -5.9242 c 0 -1.636 1.3262 -2.9621 2.9621 -2.9621 s 2.9621 1.3261 2.9621 2.9621 z" fill="#fff" stroke="#000"/>
</g>
</svg>
