<svg viewBox="0 0 512 512" xmlns="http://www.w3.org/2000/svg">

<g transform="matrix(18.68858,0,0,18.68858,-8405.16887,-40153.2096)">
<path d="m460.9093,2149.8703-1e-05,5.9242c-1.636,0-2.9621-1.3262-2.9621-2.9621s1.3261-2.962 2.9621-2.9621z" fill="#fff"/>
<path d="m463.5047,2159.9407h12.6792v3.7847h-12.6792z" fill="#fff" stroke="#000"/>
<path d="m469.4271,2159.1006h4.3673v5.4649h-4.3673z" fill="#fff" stroke="#000"/>
<path d="m458.7277,2153.0287v4.4146h-3.8001z" fill="#fff"/>
<path d="m451.7652,2156.7023v5.0448l8.9422,5.2239h3.4622v-10.2687z" fill="#fff" stroke="#000"/>
<path d="m460.3446,2152.7665h3.6997" fill="none" stroke="#fff"/>
<path d="m464.0443,2163.4709c0,1.7666-1.4321,3.1988-3.1987,3.1988s-3.1987-1.4322-3.1987-3.1988 1.4321-3.1987 3.1987-3.1987 3.1987,1.4321 3.1987,3.1987z" fill="#fff" stroke="#000" transform="translate(-3.3848,-.9798)"/>
<path d="m464.0123,2175.4588h-10.0201c0-2.767 2.2431-5.01 5.01-5.01s5.01,2.243 5.01,5.01z" fill="#fff" stroke="#000"/>
<path d="m456.5957,2172.5882-4.1733-4.3615 4.2046-4.9264" fill="none" stroke="#fff"/>
<path d="m464.0443,2163.4709c0,1.7666-1.4321,3.1988-3.1987,3.1988s-3.1987-1.4322-3.1987-3.1988 1.4321-3.1987 3.1987-3.1987 3.1987,1.4321 3.1987,3.1987z" fill="#fff" stroke="#000" stroke-width="1.5229" transform="matrix(.65663,0,0,.65663,150.52175,747.33276)"/>
<path d="m452.6652,2174.4572h12.6989" fill="none" stroke="#fff"/>
<path d="m464.0443,2163.4709c0,1.7666-1.4321,3.1988-3.1987,3.1988s-3.1987-1.4322-3.1987-3.1988 1.4321-3.1987 3.1987-3.1987 3.1987,1.4321 3.1987,3.1987z" fill="#fff" stroke="#000" stroke-width="2.5564" transform="matrix(.39117,0,0,.39117,277.21641,1316.2093)"/>
<path d="m461.9644,2175.4588h-5.9242c0-1.636 1.3262-2.9621 2.9621-2.9621s2.9621,1.3261 2.9621,2.9621z" fill="#fff" stroke="#000"/>
</g>
</svg>
