<svg viewBox="0 0 512 512" xmlns="http://www.w3.org/2000/svg">

<g transform="matrix(-19.29596,-1.66908,1.66908,-19.29596,-1030.55129,45722.36217)">
<path d="m 137.406 2335.91 c -2.714 -0.07 -5.4539 1.0417 -7.375 3.25 -3.4152 3.926 -2.9884 9.8661 0.9375 13.2813 s 9.866 3.0197 13.2812 -0.9063 2.9884 -9.8972 -0.9375 -13.3124 c -1.7176 -1.4942 -3.7953 -2.2577 -5.9062 -2.3126 z m -0.0625 2.0626 c 1.6494 0.043 3.283 0.645 4.625 1.8124 3.0676 2.6686 3.3873 7.3075 0.7188 10.375 s -7.3075 3.4186 -10.375 0.75 -3.3873 -7.3387 -0.7188 -10.4062 c 1.501 -1.7255 3.6294 -2.5864 5.75 -2.5312 z" fill="#fff"/>
<g transform="matrix(.66154,.57548,-.57548,.66154,1416.0718,694.04971)">
<path d="m 126.212 2376.66 -3.4668 1.3809 0.0746 1.5587 3.5828 1.0436 z" fill="#fff"/>
<path d="m 144.734 2375.77 3.5828 1.0436 0.0746 1.5587 -3.4668 1.3809 z" fill="#fff"/>
<path d="m 127.739 2372.85 -3.7257 -0.2112 -0.5902 1.4445 2.8076 2.4582 z" fill="#fff"/>
<path d="m 144.795 2380.29 2.6739 2.603 -0.6656 1.4114 -3.7094 -0.4077 z" fill="#fff"/>
<path d="m 130.939 2369.85 -3.2404 -1.8507 -1.1725 1.0296 1.4165 3.4523 z" fill="#fff"/>
<path d="m 143.175 2383.79 1.4165 3.4523 -1.1725 1.0297 -3.2404 -1.8507 z" fill="#fff"/>
<path d="m 134.919 2368.67 -2.1395 -3.0574 -1.4999 0.4302 -0.1941 3.7266 z" fill="#fff"/>
<path d="m 140.031 2386.5 -0.1941 3.7267 -1.4999 0.4302 -2.1395 -3.0575 z" fill="#fff"/>
<path d="m 139.422 2369.47 -0.4604 -3.7031 -1.5269 -0.3215 -1.9148 3.2029 z" fill="#fff"/>
<path d="m 136.109 2387.67 -1.743 3.2996 -1.5418 -0.2405 -0.6553 -3.6736 z" fill="#fff"/>
<path d="m 142.643 2371.89 1.0992 -3.566 -1.2606 -0.9197 -3.0602 2.1355 z" fill="#fff"/>
<path d="m 131.715 2386.87 -3.0602 2.1355 -1.2606 -0.9197 1.0992 -3.566 z" fill="#fff"/>
<path d="m 144.665 2375.52 2.5188 -2.7532 -0.7461 -1.3705 -3.6795 0.6214 z" fill="#fff"/>
<path d="m 128.378 2384.39 -3.6795 0.6214 -0.7461 -1.3705 2.5188 -2.7532 z" fill="#fff"/>
</g>
</g>
<g transform="matrix(-19.1885,2.63135,-2.63135,-19.1885,9003.40973,44900.44963)">
<path d="m 140.79 2343.33 c 1.3041 1.3039 1.5045 3.2725 0.657 4.8101 l -2.5741 -2.5738 c -0.4535 -0.4534 -1.1979 -0.4707 -1.6332 -0.035 s -0.4002 1.1618 0.0533 1.6152 l 2.5742 2.5736 c -1.5379 0.8474 -3.5067 0.647 -4.8108 -0.6568 -1.0022 -1.0022 -1.3693 -2.4034 -1.1008 -3.692 l -6.1957 -6.1948 c -1.2891 0.269 -2.69 -0.098 -3.6924 -1.1005 -1.304 -1.304 -1.5045 -3.2726 -0.6571 -4.8101 l 2.5741 2.5739 c 0.4535 0.4532 1.1803 0.4882 1.6155 0.053 s 0.4179 -1.1796 -0.0356 -1.633 l -2.5742 -2.5737 c 1.5379 -0.8474 3.5067 -0.647 4.8108 0.6568 1.0025 1.0024 1.3572 2.4157 1.083 3.7099 l 6.1957 6.1947 c 1.2941 -0.2739 2.708 0.081 3.7102 1.0828 z" fill="#fff" stroke="#000" stroke-width=".9649"/>
<path d="m 136.184 2344.46 -7.5106 -7.5106" fill="none" stroke="#000" stroke-width=".9649"/>
</g>
</svg>
