<svg viewBox="0 0 512 512" xmlns="http://www.w3.org/2000/svg">

<g transform="matrix(-19.29596,-1.66908,1.66908,-19.29596,-1030.55129,45722.36217)">
<path d="m137.4062,2335.9062c-2.714-.07-5.4539,1.0417-7.375,3.25-3.4152,3.926-2.9884,9.8661.9375,13.2813s9.866,3.0197 13.2812-.9063 2.9884-9.8972-.9375-13.3124c-1.7176-1.4942-3.7953-2.2577-5.9062-2.3126zm-.0625,2.0626c1.6494.043 3.283.645 4.625,1.8124 3.0676,2.6686 3.3873,7.3075.7188,10.375s-7.3075,3.4186-10.375.75-3.3873-7.3387-.7188-10.4062c1.501-1.7255 3.6294-2.5864 5.75-2.5312z" fill="#fff"/>
<g transform="matrix(.66154,.57548,-.57548,.66154,1416.0718,694.04971)">
<path d="m126.2117,2376.6564-3.4668,1.3809 .0746,1.5587 3.5828,1.0436z" fill="#fff"/>
<path d="m144.7341,2375.7702 3.5828,1.0436 .0746,1.5587-3.4668,1.3809z" fill="#fff"/>
<path d="m127.7393,2372.8523-3.7257-.2112-.5902,1.4445 2.8076,2.4582z" fill="#fff"/>
<path d="m144.795,2380.2866 2.6739,2.603-.6656,1.4114-3.7094-.4077z" fill="#fff"/>
<path d="m130.9387,2369.8523-3.2404-1.8507-1.1725,1.0296 1.4165,3.4523z" fill="#fff"/>
<path d="m143.1747,2383.786 1.4165,3.4523-1.1725,1.0297-3.2404-1.8507z" fill="#fff"/>
<path d="m134.919,2368.6725-2.1395-3.0574-1.4999.4302-.1941,3.7266z" fill="#fff"/>
<path d="m140.0312,2386.4976-.1941,3.7267-1.4999.4302-2.1395-3.0575z" fill="#fff"/>
<path d="m139.422,2369.4673-.4604-3.7031-1.5269-.3215-1.9148,3.2029z" fill="#fff"/>
<path d="m136.1092,2387.6679-1.743,3.2996-1.5418-.2405-.6553-3.6736z" fill="#fff"/>
<path d="m142.6434,2371.8895 1.0992-3.566-1.2606-.9197-3.0602,2.1355z" fill="#fff"/>
<path d="m131.7146,2386.8705-3.0602,2.1355-1.2606-.9197 1.0992-3.566z" fill="#fff"/>
<path d="m144.6648,2375.5225 2.5188-2.7532-.7461-1.3705-3.6795.6214z" fill="#fff"/>
<path d="m128.3784,2384.3896-3.6795.6214-.7461-1.3705 2.5188-2.7532z" fill="#fff"/>
</g>
</g>
<g transform="matrix(-19.1885,2.63135,-2.63135,-19.1885,9003.40973,44900.44963)">
<path d="m140.7898,2343.3285c1.3041,1.3039 1.5045,3.2725.657,4.8101l-2.5741-2.5738c-.4535-.4534-1.1979-.4707-1.6332-.035s-.4002,1.1618.0533,1.6152l2.5742,2.5736c-1.5379.8474-3.5067.647-4.8108-.6568-1.0022-1.0022-1.3693-2.4034-1.1008-3.692l-6.1957-6.1948c-1.2891.269-2.69-.098-3.6924-1.1005-1.304-1.304-1.5045-3.2726-.6571-4.8101l2.5741,2.5739c.4535.4532 1.1803.4882 1.6155.053s.4179-1.1796-.0356-1.633l-2.5742-2.5737c1.5379-.8474 3.5067-.647 4.8108.6568 1.0025,1.0024 1.3572,2.4157 1.083,3.7099l6.1957,6.1947c1.2941-.2739 2.708.081 3.7102,1.0828z" fill="#fff" stroke="#000" stroke-width=".9649"/>
<path d="m136.1838,2344.4565-7.5106-7.5106" fill="none" stroke="#000" stroke-width=".9649"/>
</g>
</svg>
