<svg xmlns="http://www.w3.org/2000/svg" viewBox="0 0 512 512">
<g transform="matrix(18.68858 0 0 18.68858 3240.28947 -12371.12464)">
<path fill="#fff" stroke="#000" fill-rule="evenodd" d="m-159.8014,664.0595c-1.5737,.2032-2.8023,1.9037-2.8023,3.9562 0,1.1367 .3921,2.1518 .9959,2.8751-3.2728,.6117-3.5203,6.0903-3.5203,9.9365h2.2697l.6021,8.0274h5.7668l.5327-8.0274h2.1539c0-3.8569 .078-9.4319-3.4971-9.9825 .5779-.7199 .9495-1.7205 .9495-2.8291 0-2.1892-1.4032-3.9562-3.1266-3.9562-.1077,0-.2193-.0136-.3243,0z"/>
</g>
<g fill="#fff">
<g transform="matrix(25.77481 0 0 21.74732 -5993.80238 -14398.88879)">
<path d="m 247.984 662.941 c 1.3189 1.0118 2.1668 2.5309 2.1668 4.2432 0.0001 1.7025 -0.8367 3.2313 -2.1424 4.2432 2.236 -0.7649 3.7795 -2.38 3.7794 -4.2431 -0.0001 -1.87 -1.5543 -3.4817 -3.8038 -4.2433 z"/>
<path d="m 246.359 664.015 c 0.9851 0.7557 1.6183 1.8902 1.6183 3.1691 0 1.2715 -0.6249 2.4133 -1.6001 3.169 1.67 -0.5713 2.8228 -1.7775 2.8227 -3.169 -0.0001 -1.3966 -1.1609 -2.6004 -2.841 -3.1691 z"/>
<path d="m 244.795 664.888 c 0.7138 0.5476 1.1726 1.3697 1.1727 2.2964 0 0.9214 -0.4528 1.7487 -1.1594 2.2963 1.2101 -0.4139 2.0454 -1.288 2.0454 -2.2963 0 -1.012 -0.8412 -1.8842 -2.0586 -2.2964 z"/>
</g>
<g transform="matrix(-25.77481 0 0 21.74732 6513.14663 -14398.88879)">
<path d="m 247.984 662.941 c 1.3189 1.0118 2.1668 2.5309 2.1668 4.2432 0.0001 1.7025 -0.8367 3.2313 -2.1424 4.2432 2.236 -0.7649 3.7795 -2.38 3.7794 -4.2431 -0.0001 -1.87 -1.5543 -3.4817 -3.8038 -4.2433 z"/>
<path d="m 246.359 664.015 c 0.9851 0.7557 1.6183 1.8902 1.6183 3.1691 0 1.2715 -0.6249 2.4133 -1.6001 3.169 1.67 -0.5713 2.8228 -1.7775 2.8227 -3.169 -0.0001 -1.3966 -1.1609 -2.6004 -2.841 -3.1691 z"/>
<path d="m 244.795 664.888 c 0.7138 0.5476 1.1726 1.3697 1.1727 2.2964 0 0.9214 -0.4528 1.7487 -1.1594 2.2963 1.2101 -0.4139 2.0454 -1.288 2.0454 -2.2963 0 -1.012 -0.8412 -1.8842 -2.0586 -2.2964 z"/>
</g>
</g>
</svg>
