<svg viewBox="0 0 512 512" xmlns="http://www.w3.org/2000/svg">

<g transform="matrix(18.68858,0,0,18.68858,-10441.51222,-21806.17321)">
<g transform="translate(473.5464,36.3397)">
<path d="m90.634,1146.4483h16.8199c0,4.471 1.4175,6.7408 4.0727,7.821-2.5039.06-5.0078.4407-7.5117-.2483-.6026,1.128-1.3022,2.2914-2.2416,2.9684l-3.2744-3.1419c-2.5369,1.9553-4.9874,2.5502-7.6108,2.9854l1.6874-2.5636c-1.9326.6887-4.0383.388-5.7978,0 1.8099-1.2781 3.8564-2.4605 3.8564-7.821z" fill="#fff"/>
<path d="m107.8136,1145.6639c0,1.5107-3.4527,2.7353-7.7118,2.7353s-7.7118-1.2246-7.7118-2.7353 3.4527-2.7352 7.7118-2.7352 7.7118,1.2246 7.7118,2.7352z" fill="#fff" stroke="#000" stroke-width=".8762" transform="matrix(1.13894,0,0,1.14375,-14.90068,-164.29459)"/>
<path d="m85.6562,1131.0313v3.125c3.9838.712 7.4743,1.8639 11.2812,3.4687 2.4463.8432 1.2344,3.6435-.9688,2.6875-.6197,1.3007-1.5084,2.5822-2.8125,3.8438 .8081.5484 1.6383,1.0164 2.5,1.4062h6.3125c1.2308-3.2201 1.9806-6.5122 2.25-9.5312-5.7561-.784-11.2006-2.5008-16.375-5h-2.1875z" fill="#fff" stroke="#000"/>
<path d="m95.5806,1145.5751h8.6507" fill="none" stroke="#000"/>
</g>
<path d="m565.1993,1191.8286c1.1138-1.2963 1.9312-2.5706 2.4749-3.889-1.2099,1.3515-2.9735,3.1035-4.5368,3.2724" fill-rule="evenodd"/>
<path d="m570.375,1187.418c.3997,1.8907 1.1005,3.8176 2.125,5.877l2.6875.4199 2.125-.9572c.743-1.8049.9542-3.4174.9688-4.9367-.7974,1.8483-1.7969,3.6834-3.1562,5.3733-1.9169-1.6953-3.4394-3.6868-4.75-5.7763z" fill-rule="evenodd"/>
</g>
</svg>
