<svg viewBox="0 0 512 512" xmlns="http://www.w3.org/2000/svg">

<g transform="matrix(18.68858,0,0,18.68858,-4319.06223,-42867.77257)">
<path d="m1744.455-1536.0308h1.3927v13.9861c.04.9393-1.2884,1.1009-1.3927-.049z" fill="#fff" transform="matrix(-.576,.81745,-.81729,-.57623,0,0)"/>
<path d="m252.4799,2311.4477-2.6317-1.9534c-1.6527,4.8692-4.9685,4.7858-6.2806,1.3158-2.8856,2.4415-1.5472,6.8096 1.2256,8.7417 2.5737,1.7935 6.434,1.3774 8.0423-1.8623-3.9346.02-4.3681-3.145-.3556-6.2418z" fill="#fff" stroke="#000"/>
<path d="m241.68,2295.6195c-6.2754,1.7334-10.1402,8.1227-9.0167,14.5971 .182-4.7159 3.2893-8.99 7.9438-10.2757 5.7289-1.5825 11.6074,1.9411 13.1426,7.8468 1.2413,4.7761-.7478,9.6465-4.5826,12.1775 5.9663-2.2544 9.3809-8.8541 7.7046-15.3038-1.7745-6.8268-8.5693-10.8712-15.1916-9.0419z" fill="#fff"/>
<path d="m250.2558,2296.7581c-6.1559-3.2119-14.0379-1.4267-18.151,3.9458 3.7648-3.206 9.4385-4.031 14.0045-1.6488z" fill="#fff"/>
<path d="m233.8195,2303.7705c-.4831,3.456.3999,7.0277 2.6697,9.8004-2.0816-4.1631-1.1771-10.6253 2.3743-13.0316l-2.7068.558z" fill="#fff"/>
<path d="m249.808,2319.2746c1.2865-.5722 2.3919-1.3175 3.1492-2.3955" fill="none" stroke="#fff"/>
</g>
</svg>
