<svg viewBox="0 0 512 512" xmlns="http://www.w3.org/2000/svg">

<g transform="matrix(18.68858,0,0,18.68858,-10441.51222,-21806.17321)">
<g transform="translate(473.5464,36.3397)">
<path d="m 90.634 1146.45 h 16.8199 c 0 4.471 1.4175 6.7408 4.0727 7.821 -2.5039 0.06 -5.0078 0.4407 -7.5117 -0.2483 -0.6026 1.128 -1.3022 2.2914 -2.2416 2.9684 l -3.2744 -3.1419 c -2.5369 1.9553 -4.9874 2.5502 -7.6108 2.9854 l 1.6874 -2.5636 c -1.9326 0.6887 -4.0383 0.388 -5.7978 0 1.8099 -1.2781 3.8564 -2.4605 3.8564 -7.821 z" fill="#fff"/>
<path d="m 107.814 1145.66 c 0 1.5107 -3.4527 2.7353 -7.7118 2.7353 s -7.7118 -1.2246 -7.7118 -2.7353 3.4527 -2.7352 7.7118 -2.7352 7.7118 1.2246 7.7118 2.7352 z" fill="#fff" stroke="#000" stroke-width=".8762" transform="matrix(1.13894,0,0,1.14375,-14.90068,-164.29459)"/>
<path d="m 85.6562 1131.03 v 3.125 c 3.9838 0.712 7.4743 1.8639 11.2812 3.4687 2.4463 0.8432 1.2344 3.6435 -0.9688 2.6875 -0.6197 1.3007 -1.5084 2.5822 -2.8125 3.8438 0.8081 0.5484 1.6383 1.0164 2.5 1.4062 h 6.3125 c 1.2308 -3.2201 1.9806 -6.5122 2.25 -9.5312 -5.7561 -0.784 -11.2006 -2.5008 -16.375 -5 h -2.1875 z" fill="#fff" stroke="#000"/>
<path d="m 95.5806 1145.58 h 8.6507" fill="none" stroke="#000"/>
</g>
<path d="m 565.199 1191.83 c 1.1138 -1.2963 1.9312 -2.5706 2.4749 -3.889 -1.2099 1.3515 -2.9735 3.1035 -4.5368 3.2724" fill-rule="evenodd"/>
<path d="m 570.375 1187.42 c 0.3997 1.8907 1.1005 3.8176 2.125 5.877 l 2.6875 0.4199 2.125 -0.9572 c 0.743 -1.8049 0.9542 -3.4174 0.9688 -4.9367 -0.7974 1.8483 -1.7969 3.6834 -3.1562 5.3733 -1.9169 -1.6953 -3.4394 -3.6868 -4.75 -5.7763 z" fill-rule="evenodd"/>
</g>
</svg>
