<svg viewBox="0 0 512 512" xmlns="http://www.w3.org/2000/svg">

<g transform="matrix(18.68858,0,0,18.68858,-11804.50538,-34718.59273)">
<path d="m644.9123,1858.9311c-1.5869.2061-2.8259,1.9309-2.8259,4.0126 3e-05,1.153.3954,2.1825 1.0042,2.9162-3.3003.6204-3.5499,6.1771-3.5499,10.0782h2.2887l.6072,8.1418h5.8153l.5372-8.1418h2.172c0-3.9119.0786-9.5664-3.5265-10.1249 .5827-.7302.9575-1.745.9575-2.8695-3e-05-2.2204-1.415-4.0126-3.1529-4.0126-.1086,0-.2212-.014-.327,0z" fill="#fff" fill-rule="evenodd"/>
<path d="m649.7911,1858.9062c1.7379,0 3.1562,1.7797 3.1562,4 0,1.1246-.386,2.1449-.9688,2.875 3.6051.5586 3.5312,6.2131 3.5312,10.125h-2.1562l-.5625,8.1563h-3.375l.5312-8.1563h2.1875c0-3.9119.0739-9.5664-3.5312-10.125 .5827-.7301.9688-1.7504.9688-2.875-2e-05-1.4249-.5919-2.6632-1.4688-3.375 .4047-.3334.8408-.5596 1.3438-.625 .1058-.014.2351,0 .3438,0z" fill="#fff" fill-rule="evenodd"/>
<path d="m642.3982,1859.5312c-.8722.7187-1.4688,1.9531-1.4688,3.375 3e-05,1.1531.3911,2.2039 1,2.9376-3.3003.6204-3.5313,6.1614-3.5312,10.0624h2.2812l.5938,8.1563h-3.375l-.5938-8.1563h-2.3125c-2e-05-3.901.2622-9.442 3.5625-10.0624-.6089-.7337-1-1.7845-1-2.9376 0-2.0816 1.2256-3.7938 2.8125-4 .1058-.014.2351,0 .3438,0 .6226,0 1.198.2277 1.6875.625z" fill="#fff" fill-rule="evenodd"/>
</g>
</svg>
