<svg viewBox="0 0 512 512" xmlns="http://www.w3.org/2000/svg">

<g transform="matrix(18.68858,0,0,18.68858,-1460.02985,-3480.98388)">
<path d="m 86.0739 193.383 5.6033 -1.9044 0.618 1.8183 c -2.1975 -0.3354 -4.2023 0.2616 -5.6033 1.9044 l -0.618 -1.8183 z" fill="#fff"/>
<path d="m 87.3216 187.651 1.9297 5.7359" fill="none" stroke="#fff"/>
<path d="m 90.2864 192.942 -2.1625 0.7275 c 0.9364 3.7194 2.6318 7.1481 4.6651 10.2886 -0.1396 -3.7476 -1.0267 -7.4424 -2.5026 -11.0161 z" fill="#fff"/>
<path d="m 92.4216 190.938 -7.3559 2.5044" fill="none" stroke="#000"/>
</g>
<g transform="matrix(18.5486,0,0,18.5486,-1458.00363,-3447.72045)">
<path d="m 88.0877 209.761 h -7.0009 l -1.552 2.8012 h 15.0891 l -5.1915 -6.0582 c 1.4241 -1.5671 3.9579 -2.5645 5.6913 -2.6442 0.8093 2.6461 2.1269 6.6595 4.209 8.7023 h 3.5713 c -2.7516 -2.9737 -4.8367 -7.0598 -4.8536 -11.6694 l 0.6072 -2.2245 c -5.453 -3.4194 -19.4624 4.4087 -10.5698 11.0927 z" fill="#fff"/>
<path d="m 100.321 202.353 c 0 1.7696 -0.9794 3.2041 -2.1876 3.2041 s -2.1876 -1.4345 -2.1876 -3.2041 0.9794 -3.2041 2.1876 -3.2041 2.1876 1.4345 2.1876 3.2041 z" fill="#fff" transform="matrix(.90638,.90638,-.90638,.90638,195.83238,-72.73435)"/>
<path d="m 84.6775 204.74 c 0.3703 -5.3264 9.5703 -8.9449 13.8233 -6.8613" fill="none" stroke="#000" stroke-width="1.0075"/>
</g>
</svg>
