<svg viewBox="0 0 512 512" xmlns="http://www.w3.org/2000/svg">
<path d="m0,0h512v512h-512z"/>
<g transform="matrix(18.68858,0,0,18.68858,-1460.02985,-3480.98388)">
<path d="m86.0739,193.3827 5.6033-1.9044 .618,1.8183c-2.1975-.3354-4.2023.2616-5.6033,1.9044l-.618-1.8183z" fill="#fff"/>
<path d="m87.3216,187.6508 1.9297,5.7359" fill="none" stroke="#fff"/>
<path d="m90.2864,192.9416-2.1625.7275c.9364,3.7194 2.6318,7.1481 4.6651,10.2886-.1396-3.7476-1.0267-7.4424-2.5026-11.0161z" fill="#fff"/>
<path d="m92.4216,190.9375-7.3559,2.5044" fill="none" stroke="#000"/>
</g>
<g transform="matrix(18.5486,0,0,18.5486,-1458.00363,-3447.72045)">
<path d="m88.0877,209.7613h-7.0009l-1.552,2.8012h15.0891l-5.1915-6.0582c1.4241-1.5671 3.9579-2.5645 5.6913-2.6442 .8093,2.6461 2.1269,6.6595 4.209,8.7023h3.5713c-2.7516-2.9737-4.8367-7.0598-4.8536-11.6694l.6072-2.2245c-5.453-3.4194-19.4624,4.4087-10.5698,11.0927z" fill="#fff"/>
<path d="m100.3208,202.3535c0,1.7696-.9794,3.2041-2.1876,3.2041s-2.1876-1.4345-2.1876-3.2041 .9794-3.2041 2.1876-3.2041 2.1876,1.4345 2.1876,3.2041z" fill="#fff" transform="matrix(.90638,.90638,-.90638,.90638,195.83238,-72.73435)"/>
<path d="m84.6775,204.74c.3703-5.3264 9.5703-8.9449 13.8233-6.8613" fill="none" stroke="#000" stroke-width="1.0075"/>
</g>
</svg>
