<svg viewBox="0 0 512 512" xmlns="http://www.w3.org/2000/svg">

<g transform="matrix(18.68858,0,0,18.68858,-11804.50538,-34718.59273)">
<path d="m 644.912 1858.93 c -1.5869 0.2061 -2.8259 1.9309 -2.8259 4.0126 3e-05 1.153 0.3954 2.1825 1.0042 2.9162 -3.3003 0.6204 -3.5499 6.1771 -3.5499 10.0782 h 2.2887 l 0.6072 8.1418 h 5.8153 l 0.5372 -8.1418 h 2.172 c 0 -3.9119 0.0786 -9.5664 -3.5265 -10.1249 0.5827 -0.7302 0.9575 -1.745 0.9575 -2.8695 -3e-05 -2.2204 -1.415 -4.0126 -3.1529 -4.0126 -0.1086 0 -0.2212 -0.014 -0.327 0 z" fill="#fff" fill-rule="evenodd"/>
<path d="m 649.791 1858.91 c 1.7379 0 3.1562 1.7797 3.1562 4 0 1.1246 -0.386 2.1449 -0.9688 2.875 3.6051 0.5586 3.5312 6.2131 3.5312 10.125 h -2.1562 l -0.5625 8.1563 h -3.375 l 0.5312 -8.1563 h 2.1875 c 0 -3.9119 0.0739 -9.5664 -3.5312 -10.125 0.5827 -0.7301 0.9688 -1.7504 0.9688 -2.875 -2e-05 -1.4249 -0.5919 -2.6632 -1.4688 -3.375 0.4047 -0.3334 0.8408 -0.5596 1.3438 -0.625 0.1058 -0.014 0.2351 0 0.3438 0 z" fill="#fff" fill-rule="evenodd"/>
<path d="m 642.398 1859.53 c -0.8722 0.7187 -1.4688 1.9531 -1.4688 3.375 3e-05 1.1531 0.3911 2.2039 1 2.9376 -3.3003 0.6204 -3.5313 6.1614 -3.5312 10.0624 h 2.2812 l 0.5938 8.1563 h -3.375 l -0.5938 -8.1563 h -2.3125 c -2e-05 -3.901 0.2622 -9.442 3.5625 -10.0624 -0.6089 -0.7337 -1 -1.7845 -1 -2.9376 0 -2.0816 1.2256 -3.7938 2.8125 -4 0.1058 -0.014 0.2351 0 0.3438 0 0.6226 0 1.198 0.2277 1.6875 0.625 z" fill="#fff" fill-rule="evenodd"/>
</g>
</svg>
