<svg viewBox="0 0 512 512" xmlns="http://www.w3.org/2000/svg">

<g transform="matrix(18.68858,0,0,18.68858,-5275.48416,-12900.03283)">
<path d="m292.4486,709.3993-8.4661-1.6379 5.5722-1.6057-5.6207-3.6483 4.3919.1113-1.8342-3.3248 4.1581,1.577-3.8862-7.4858 6.9688,5.6964-.741-7.6899 4.3161,8.2642 1.7503-4.4681 .7424,2.0674 2.2401-5.134-1.0279,8.6556 4.3936-4.418-3.2146,7.9992" fill="#fff" fill-rule="evenodd"/>
<g transform="matrix(.91195,0,0,.91195,213.04907,522.75768)">
<path d="m88.0877,209.7613h-7.0009l-1.552,2.8012h15.0891l-5.1915-6.0582c1.4241-1.5671 3.9579-2.5645 5.6913-2.6442 .8093,2.6461 2.1269,6.6595 4.209,8.7023h3.5713c-2.7516-2.9737-4.8367-7.0598-4.8536-11.6694l.6072-2.2245c-5.453-3.4194-19.4624,4.4087-10.5698,11.0927z" fill="#fff"/>
<path d="m100.3208,202.3535c0,1.7696-.9794,3.2041-2.1876,3.2041s-2.1876-1.4345-2.1876-3.2041 .9794-3.2041 2.1876-3.2041 2.1876,1.4345 2.1876,3.2041z" fill="#fff" transform="matrix(.90638,.90638,-.90638,.90638,195.83238,-72.73435)"/>
<path d="m84.6775,204.74c.4388-5.7718 9.4332-8.8421 14.166-6.6214" fill="none" stroke="#000" stroke-width="1.0966"/>
</g>
</g>
</svg>
