<svg viewBox="0 0 512 512" xmlns="http://www.w3.org/2000/svg">

<g transform="matrix(18.68858,0,0,18.68858,-8397.52678,-29260.68452)">
<path d="m468.1843,1570.3379c5.2379-1.4012 9.0111,6.0224 3.1183,11.6182-9.2806-2.6874-8.3562-10.217-3.1183-11.6182z" fill="#fff"/>
<path d="m472.6672,1583.9722-1.729-2.9971 3.1387,1.0936z" fill="#fff"/>
<path d="m471.0326,1580.9698c.977,3.0457-2.0176,6.1799-6.2205,4.551-5.0933-1.974-8.4369,3.8664-3.7125,5.6085" fill="none" stroke="#fff"/>
<path d="m456.2443,1567.1189c-5.5812,1.2474-5.4653,9.8651 2.7853,12.1408 7.3531-6.9425 2.796-13.3882-2.7853-12.1408z" fill="#fff"/>
<path d="m459.5459,1581.6615 .173-4.2586-2.8515,2.9955z" fill="#fff"/>
<path d="m458.6769,1578.4168c9.209,3.2939 4.4391,7.5348 4.504,14.1461" fill="none" stroke="#fff"/>
<path d="m458.6812,1592.677h8.5704" fill="none" stroke="#000"/>
</g>
</svg>
