<svg viewBox="0 0 512 512" xmlns="http://www.w3.org/2000/svg">

<g transform="matrix(18.68858,0,0,18.68858,1347.26212,-11111.18161)">
<path d="m-66.59,595.0232 10.1903.0341c2.6142.176 4.7149,4.7149 4.7149,10.3174s-2.1007,10.1415-4.7149,10.3176l-10.1903.034-1.2e-05-20.7031z" fill="#fff" stroke="#000"/>
<path d="m-60.205,607.0503c-.66,4.5803.6627,9.1091 3.8652,12.3676 1.924-2.1755 6.2636-.8898 8.8133-3.3403-2.9553-.5298-5.127-4.5813-4.8365-8.8416l-7.8419-.1857z" fill="#fff" fill-rule="evenodd"/>
<path d="m-65.2843,595.0231c-2.4029,0-4.3531,4.6375-4.3531,10.3515s1.9502,10.3515 4.3531,10.3515" fill="#fff" stroke="#000"/>
<path d="m-48.9557,616.5094 2.8624.1002" fill="none" stroke="#fff"/>
<path d="m-56.3667,618.6593 1.8718,2.087" fill="none" stroke="#fff"/>
<path d="m-53.4158,617.6112c.1514.1191 1.9684,2.1744 1.9684,2.1744" fill="none" stroke="#fff"/>
<path d="m-50.8621,617.1745c.1771.0758 3.3333,1.8745 3.3333,1.8745" fill="none" stroke="#fff"/>
<path d="m-52.739,617.2102c.1771.0758 3.3333,1.8745 3.3333,1.8745" fill="none" stroke="#fff"/>
<path d="m-64.3429,603.734c.7644.6062 1.0912,2.8152.8457,4.6296-.3381,2.4987-1.5034,3.5541-2.4581,2.7059-1.2779-1.1354-1.8123-4.8828-1.3586-7.945 .5931-4.0026 2.4841-5.6623 4.0254-4.1873 1.3036,1.2474 2.464,4.4085 2.2926,8.0916-.2392,5.14 1.2147,9.9147 4.8969,13.485" fill="none" stroke="#000"/>
<path d="m559.75,570.2997c0,2.2091-4.4072,4-9.8438,4s-9.8438-1.7909-9.8438-4 4.4072-4 9.8438-4 9.8438,1.7909 9.8438,4z" transform="matrix(0,.27836,.28807,-3.6666724e-8,-228.73111,452.82185)"/>
<path d="m559.75,570.2997c0,2.2091-4.4072,4-9.8438,4s-9.8438-1.7909-9.8438-4 4.4072-4 9.8438-4 9.8438,1.7909 9.8438,4z" fill="#fff" transform="matrix(0,.21887,.19631,-2.8830843e-8,-176.64243,486.95925)"/>
<path d="m-55.6184,618.0218 1.3921,1.5689" fill="none" stroke="#fff"/>
</g>
</svg>
