<svg viewBox="0 0 512 512" xmlns="http://www.w3.org/2000/svg">

<g transform="matrix(18.68858,0,0,18.68858,1347.26212,-11111.18161)">
<path d="m -66.59 595.023 10.1903 0.0341 c 2.6142 0.176 4.7149 4.7149 4.7149 10.3174 s -2.1007 10.1415 -4.7149 10.3176 l -10.1903 0.034 -1.2e-05 -20.7031 z" fill="#fff" stroke="#000"/>
<path d="m -60.205 607.05 c -0.66 4.5803 0.6627 9.1091 3.8652 12.3676 1.924 -2.1755 6.2636 -0.8898 8.8133 -3.3403 -2.9553 -0.5298 -5.127 -4.5813 -4.8365 -8.8416 l -7.8419 -0.1857 z" fill="#fff" fill-rule="evenodd"/>
<path d="m -65.2843 595.023 c -2.4029 0 -4.3531 4.6375 -4.3531 10.3515 s 1.9502 10.3515 4.3531 10.3515" fill="#fff" stroke="#000"/>
<path d="m -48.9557 616.509 2.8624 0.1002" fill="none" stroke="#fff"/>
<path d="m -56.3667 618.659 1.8718 2.087" fill="none" stroke="#fff"/>
<path d="m -53.4158 617.611 c 0.1514 0.1191 1.9684 2.1744 1.9684 2.1744" fill="none" stroke="#fff"/>
<path d="m -50.8621 617.174 c 0.1771 0.0758 3.3333 1.8745 3.3333 1.8745" fill="none" stroke="#fff"/>
<path d="m -52.739 617.21 c 0.1771 0.0758 3.3333 1.8745 3.3333 1.8745" fill="none" stroke="#fff"/>
<path d="m -64.3429 603.734 c 0.7644 0.6062 1.0912 2.8152 0.8457 4.6296 -0.3381 2.4987 -1.5034 3.5541 -2.4581 2.7059 -1.2779 -1.1354 -1.8123 -4.8828 -1.3586 -7.945 0.5931 -4.0026 2.4841 -5.6623 4.0254 -4.1873 1.3036 1.2474 2.464 4.4085 2.2926 8.0916 -0.2392 5.14 1.2147 9.9147 4.8969 13.485" fill="none" stroke="#000"/>
<path d="m 559.75 570.3 c 0 2.2091 -4.4072 4 -9.8438 4 s -9.8438 -1.7909 -9.8438 -4 4.4072 -4 9.8438 -4 9.8438 1.7909 9.8438 4 z" transform="matrix(0,.27836,.28807,-3.6666724e-8,-228.73111,452.82185)"/>
<path d="m 559.75 570.3 c 0 2.2091 -4.4072 4 -9.8438 4 s -9.8438 -1.7909 -9.8438 -4 4.4072 -4 9.8438 -4 9.8438 1.7909 9.8438 4 z" fill="#fff" transform="matrix(0,.21887,.19631,-2.8830843e-8,-176.64243,486.95925)"/>
<path d="m -55.6184 618.022 1.3921 1.5689" fill="none" stroke="#fff"/>
</g>
</svg>
