<svg viewBox="0 0 512 512" xmlns="http://www.w3.org/2000/svg">

<g transform="matrix(18.68858,0,0,18.68858,1349.34029,-9854.73343)">
<path d="m-59.2845,527.9375c-1.9988.2147-3.5592,2.0115-3.5592,4.18 1e-05,1.201.4979,2.2736 1.2649,3.0378-4.1568.6463-4.4711,6.4349-4.4711,10.4987h2.8827l.7648,8.4816h7.3244l.6766-8.4816h2.7356c0-4.0751.099-9.9656-4.4417-10.5473 .734-.7607 1.206-1.8178 1.206-2.9892-3e-05-2.3131-1.7822-4.18-3.971-4.18-.1368,0-.2786-.0143-.4118,0z" fill="#fff" fill-rule="evenodd" stroke="#000"/>
<path d="m-54.1341,532.4934-14.5261,3.5858 17.5736,2.062-18.2025,1.8474m1.4414,9.2248 17.4612,3.0887m.6177-9.9261-19.3215,2.2433 19.2391,2.3703m-4.7359-16.8847-9.4719,1.5237" fill="none" stroke="#000"/>
</g>
</svg>
