<svg viewBox="0 0 512 512" xmlns="http://www.w3.org/2000/svg">

<g transform="matrix(18.68858,0,0,18.68858,-4643.99787,-13525.86139)">
<path d="m 252.099 728.734 c -7.0747 8.573 16.9958 27.4981 20.763 15.3413 4.5921 -14.819 -14.7795 -22.5919 -20.763 -15.3413 z" fill="none" stroke="#fff"/>
<path d="m 269.601 733.797 c -9.3216 -12.5719 -26.3225 -1.5762 -15.9993 9.1352 10.9165 11.327 23.8407 1.4404 15.9993 -9.1352 z" fill="none" stroke="#fff"/>
<path d="m 264.79 747.436 c 16.0928 -3.3145 7.5393 -23.301 -4.1449 -20.4151 -13.779 3.4034 -7.5473 22.8232 4.1449 20.4151 z" fill="none" stroke="#fff"/>
<path d="m 270.504 730.013 c -0.005 -0.1829 1.2632 -3.812 1.2632 -3.812 l -3.2198 2.117" fill="#fff" fill-rule="evenodd"/>
<path d="m 271.904 733.983 c -0.0835 0.1612 -2.9314 2.6461 -2.9314 2.6461 l 3.8089 -0.1634" fill="#fff" fill-rule="evenodd"/>
<path d="m 270.922 747.41 c 0.1763 -0.006 3.6748 1.3104 3.6748 1.3104 l -2.0409 -3.34" fill="#fff" fill-rule="evenodd"/>
<path d="m 271.762 734.183 c 0.0835 -0.1612 2.9314 -2.646 2.9314 -2.646 l -3.8089 0.1634" fill="#fff" fill-rule="evenodd"/>
<path d="m 264.144 729.2 c -0.0508 -0.1752 0.2691 -4.0212 0.2691 -4.0212 l -2.5819 2.9093" fill="#fff" fill-rule="evenodd"/>
<path d="m 268.205 729.038 c -0.1689 0.0528 -3.0825 2.4543 -3.0825 2.4543 l 0.9113 -3.8398" fill="#fff" fill-rule="evenodd"/>
<path d="m 258.688 744.37 c -0.005 -0.1829 1.2632 -3.8119 1.2632 -3.8119 l -3.2198 2.117" fill="#fff" fill-rule="evenodd"/>
<path d="m 258.476 746.34 c 0.0509 0.1752 -0.2691 4.0212 -0.2691 4.0212 l 2.5819 -2.9094" fill="#fff" fill-rule="evenodd"/>
<path d="m 251.81 740.651 c -0.0404 0.1781 -2.1713 3.3429 -2.1713 3.3429 l 3.6383 -1.1805" fill="#fff" fill-rule="evenodd"/>
<path d="m 257.284 728.622 c 0.1717 0.0419 3.2226 2.2523 3.2226 2.2523 l -1.138 -3.7741" fill="#fff" fill-rule="evenodd"/>
<path d="m 252.311 738.343 c 0.15 -0.0963 3.8141 -0.7712 3.8141 -0.7712 l -3.3774 -1.8339" fill="#fff" fill-rule="evenodd"/>
<path d="m 251.392 732.554 3.706 1.1853 -2.2284 -2.9962" fill="#fff" fill-rule="evenodd"/>
<path d="m 256.976 727.997 c -0.1569 -0.0835 -2.6068 -2.9893 -2.6068 -2.9893 l 0.2308 3.9472" fill="#fff" fill-rule="evenodd"/>
<path d="m 253.44 727.042 c -0.1743 -0.028 -3.3813 -1.9864 -3.3813 -1.9864 l 1.4167 3.6712" fill="#fff" fill-rule="evenodd"/>
<path d="m 271.737 738.807 c -0.1208 0.1333 -3.4917 1.7689 -3.4917 1.7689 l 3.7199 0.8648" fill="#fff" fill-rule="evenodd"/>
<path d="m 266.49 747.361 c -0.1611 -0.0868 -2.6696 -3 -2.6696 -3 l 0.2235 3.8469" fill="#fff" fill-rule="evenodd"/>
</g>
</svg>
