<svg viewBox="0 0 512 512" xmlns="http://www.w3.org/2000/svg">

<g transform="matrix(18.68858,0,0,18.68858,712.70489,-4772.35983)">
<path d="m -34.4942 263.298 c 2.5372 -3.7416 6.2394 -6.353 10.0014 -7.5528 3.5262 1.21 7.737 3.7448 10.084 7.5528 -1.9838 6.5122 -1.9837 7.7835 0 14.2957 -6.61 5.2453 -13.5273 5.0082 -20.0854 0 2.4246 -6.5122 2.4246 -7.7836 0 -14.2957 z" fill="#fff" stroke="#000" stroke-width="1.0322"/>
<path d="m -30.6706 265.698 v 3.8163 c 1.6398 0.9328 3.2835 1.4673 4.9233 1.6428 -0.6749 3.5674 -0.2913 7.1349 0 10.7023 h 3.1985 c 0.3972 -3.5929 0.5161 -7.1858 0 -10.7787 1.6084 -0.2439 3.2207 -0.7971 4.8292 -1.5664 v -3.8163 c -4.4495 2.2231 -8.6345 2.261 -12.951 0 z"/>
<path d="m 717.713 266.115 c 0 0.482 -0.831 0.8728 -1.8561 0.8728 s -1.8562 -0.3908 -1.8562 -0.8728 0.831 -0.8728 1.8562 -0.8728 1.8561 0.3908 1.8561 0.8728 z" fill="#fff" transform="matrix(-.96593,.25882,.25882,.96593,602.04538,-173.7003)"/>
<path d="m 717.713 266.115 c 0 0.482 -0.831 0.8728 -1.8561 0.8728 s -1.8562 -0.3908 -1.8562 -0.8728 0.831 -0.8728 1.8562 -0.8728 1.8561 0.3908 1.8561 0.8728 z" fill="#fff" transform="matrix(.96593,.25882,-.25882,.96593,-650.42552,-173.7003)"/>
</g>
</svg>
