<svg viewBox="0 0 512 512" xmlns="http://www.w3.org/2000/svg">

<g transform="matrix(18.68858,0,0,18.68858,5785.34947,-5414.08387)">
<path d="m-282.9015,316.3198c-1.0072-4.5857-2.154-7.5666-5.1715-11.23-.0108,1.2231-.2062,2.284-.566,3.2375-1.04-3.3788-2.441-6.1388-5.0542-9.3115-.0126,1.4237-.2318,2.6912-.6461,3.8045-1.0986-3.379-2.5987-6.2129-5.259-9.4427-.0479,5.4185-2.7744,8.7735-8.4491,9.7963 3.6785,2.1352 6.766,3.0924 10.2512,3.7073-1.0553.5997-2.329,1.0393-3.8068,1.3056 3.5987,2.0889 6.593,2.954 10.0428,3.5276-.8978.511-1.9511.9128-3.2092,1.1396 4.1562,2.4125 7.3327,2.9041 11.8678,3.466z" fill="#fff"/>
<path d="m-308.5938,290.5 .0625,5.875 4.7812,4.2188c1.0249-.8053 2.1453-2.2694 2.5625-3.4062l-7.125-6.6875h-.2812z" fill="#fff"/>
<path d="m56.875,156.3438-.9062,1.0312c6.355,5.5289 16.4916,14.2812 17.0938,14.2812 1e-06-.5989-9.9252-9.6507-16.1875-15.3125z" fill-rule="evenodd" transform="translate(-358.2582,142.8931)"/>
<path d="m-304.8482,300.3921c.415-2.045 1.5077-3.8647 2.5045-5.7162-2.6894.3254-4.2962,1.8082-5.3125,3.937" fill="none" stroke="#000"/>
</g>
</svg>
