<svg viewBox="0 0 512 512" xmlns="http://www.w3.org/2000/svg">

<g transform="matrix(18.68858,0,0,18.68858,-7042.37519,-39464.34107)">
<path d="m 378.004 2112.66 c 4.794 6.7718 11.871 14.6961 19.2812 21.8438 l 2.5938 -2.5938 c -0.8047 -0.8339 -1.6128 -1.6439 -2.4375 -2.4687 -6.4683 -6.4682 -13.4308 -12.5332 -19.4375 -16.7813 z" fill="#fff"/>
<path d="m 403.309 2138.07 c -0.2308 -5.0938 -2.3257 -9.702 -5.5477 -13.1942 0.603 2.3954 0.7735 5.0944 0.3745 8.0216 -2.9188 0.3925 -5.6299 0.2324 -8.0206 -0.3747 3.4925 3.2231 8.1121 5.3085 13.1938 5.5473 z" fill="#fff"/>
<path d="m 2146.73 3440.42 h 4.8864 v 4.8864 h -4.8864 z" fill="#fff" transform="matrix(.89508,-.4459,-.4459,.89508,0,0)"/>
<path d="m 2138.19 3431.8 h 3.9251 v 3.9251 h -3.9251 z" fill="#fff" transform="matrix(.89508,-.4459,-.4459,.89508,0,0)"/>
<path d="m 2130.77 3424.37 h 2.9756 v 2.9756 h -2.9756 z" fill="#fff" transform="matrix(.89508,-.4459,-.4459,.89508,0,0)"/>
<path d="m 2156.23 3449.8 h 5.1435 v 5.1435 h -5.1435 z" fill="#fff" transform="matrix(.89508,-.4459,-.4459,.89508,0,0)"/>
</g>
</svg>
