<svg viewBox="0 0 512 512" xmlns="http://www.w3.org/2000/svg">

<g transform="matrix(18.68858,0,0,18.68858,-7042.37519,-39464.34107)">
<path d="m378.004,2112.6562c4.794,6.7718 11.871,14.6961 19.2812,21.8438l2.5938-2.5938c-.8047-.8339-1.6128-1.6439-2.4375-2.4687-6.4683-6.4682-13.4308-12.5332-19.4375-16.7813z" fill="#fff"/>
<path d="m403.3091,2138.0719c-.2308-5.0938-2.3257-9.702-5.5477-13.1942 .603,2.3954.7735,5.0944.3745,8.0216-2.9188.3925-5.6299.2324-8.0206-.3747 3.4925,3.2231 8.1121,5.3085 13.1938,5.5473z" fill="#fff"/>
<path d="m2146.7271,3440.4185h4.8864v4.8864h-4.8864z" fill="#fff" transform="matrix(.89508,-.4459,-.4459,.89508,0,0)"/>
<path d="m2138.1877,3431.7993h3.9251v3.9251h-3.9251z" fill="#fff" transform="matrix(.89508,-.4459,-.4459,.89508,0,0)"/>
<path d="m2130.7695,3424.3713h2.9756v2.9756h-2.9756z" fill="#fff" transform="matrix(.89508,-.4459,-.4459,.89508,0,0)"/>
<path d="m2156.2339,3449.8035h5.1435v5.1435h-5.1435z" fill="#fff" transform="matrix(.89508,-.4459,-.4459,.89508,0,0)"/>
</g>
</svg>
