<svg viewBox="0 0 512 512" xmlns="http://www.w3.org/2000/svg">

<g transform="matrix(18.68858,0,0,18.68858,-4643.99787,-13525.86139)">
<path d="m252.0986,728.7339c-7.0747,8.573 16.9958,27.4981 20.763,15.3413 4.5921-14.819-14.7795-22.5919-20.763-15.3413z" fill="none" stroke="#fff"/>
<path d="m269.6011,733.7973c-9.3216-12.5719-26.3225-1.5762-15.9993,9.1352 10.9165,11.327 23.8407,1.4404 15.9993-9.1352z" fill="none" stroke="#fff"/>
<path d="m264.7896,747.4359c16.0928-3.3145 7.5393-23.301-4.1449-20.4151-13.779,3.4034-7.5473,22.8232 4.1449,20.4151z" fill="none" stroke="#fff"/>
<path d="m270.5044,730.0126c-.005-.1829 1.2632-3.812 1.2632-3.812l-3.2198,2.117" fill="#fff" fill-rule="evenodd"/>
<path d="m271.9041,733.9832c-.0835.1612-2.9314,2.6461-2.9314,2.6461l3.8089-.1634" fill="#fff" fill-rule="evenodd"/>
<path d="m270.9224,747.4097c.1763-.006 3.6748,1.3104 3.6748,1.3104l-2.0409-3.34" fill="#fff" fill-rule="evenodd"/>
<path d="m271.7621,734.1826c.0835-.1612 2.9314-2.646 2.9314-2.646l-3.8089.1634" fill="#fff" fill-rule="evenodd"/>
<path d="m264.1437,729.2002c-.0508-.1752.2691-4.0212.2691-4.0212l-2.5819,2.9093" fill="#fff" fill-rule="evenodd"/>
<path d="m268.205,729.0378c-.1689.0528-3.0825,2.4543-3.0825,2.4543l.9113-3.8398" fill="#fff" fill-rule="evenodd"/>
<path d="m258.6877,744.3695c-.005-.1829 1.2632-3.8119 1.2632-3.8119l-3.2198,2.117" fill="#fff" fill-rule="evenodd"/>
<path d="m258.4765,746.3402c.0509.1752-.2691,4.0212-.2691,4.0212l2.5819-2.9094" fill="#fff" fill-rule="evenodd"/>
<path d="m251.8098,740.6507c-.0404.1781-2.1713,3.3429-2.1713,3.3429l3.6383-1.1805" fill="#fff" fill-rule="evenodd"/>
<path d="m257.2841,728.6219c.1717.0419 3.2226,2.2523 3.2226,2.2523l-1.138-3.7741" fill="#fff" fill-rule="evenodd"/>
<path d="m252.3115,738.3432c.15-.0963 3.8141-.7712 3.8141-.7712l-3.3774-1.8339" fill="#fff" fill-rule="evenodd"/>
<path d="m251.3918,732.5541 3.706,1.1853-2.2284-2.9962" fill="#fff" fill-rule="evenodd"/>
<path d="m256.9759,727.9968c-.1569-.0835-2.6068-2.9893-2.6068-2.9893l.2308,3.9472" fill="#fff" fill-rule="evenodd"/>
<path d="m253.4402,727.0415c-.1743-.028-3.3813-1.9864-3.3813-1.9864l1.4167,3.6712" fill="#fff" fill-rule="evenodd"/>
<path d="m271.737,738.8071c-.1208.1333-3.4917,1.7689-3.4917,1.7689l3.7199.8648" fill="#fff" fill-rule="evenodd"/>
<path d="m266.4899,747.361c-.1611-.0868-2.6696-3-2.6696-3l.2235,3.8469" fill="#fff" fill-rule="evenodd"/>
</g>
</svg>
