<svg viewBox="0 0 512 512" xmlns="http://www.w3.org/2000/svg">

<g transform="matrix(18.68858,0,0,18.68858,-13164.09763,-23140.95659)">
<path d="m713.5261,1245.5384-1.7689,1.7391 11.3787,12.6639 5.0324,2.0081-2.008-5.0325-12.6341-11.3786z" fill="#fff"/>
<path d="m727.3982,1253.9581c-.992-4.6436-5.3221-4.3213-8.6725-2.2193l-1.6782-2.8422c1.9664.345 4.0065-.7154 3.0249-3.9026 1.9954,1.751 4.9101-.1242 3.5331-3.1322 2.9666,2.5856 4.9162-.077 3.9841-2.7496 3.683,5.1961 4.7177,10.9618-.1914,14.8459z" fill="#fff" fill-rule="evenodd"/>
<path d="m706.8125,1238.9688-1.6562,1.6562c2.1181,1.0701 3.9135,2.5919 5.0312,5.0625l-3.1875,3.1875 2.3125,2.2813c1.9259-3.3358 4.6574-6.1146 8.0312-8.0625l-2.2812-2.2813-3.1875,3.1875c-2.1598-.8899-3.8053-2.637-5.0625-5.0312z" fill="#fff"/>
<path d="m720.2805,1261.303c-4.6437-1.0029-4.3213-5.3807-2.2193-8.768l-2.8423-1.6965c.345,1.988-.7153,4.0506-3.9028,3.0582 1.7512,2.0174-.1239,4.9641-3.132,3.572 2.5856,2.9991-.0773,4.9701-2.7496,4.0278 5.1961,3.7236 10.9618,4.7696 14.846-.1935z" fill="#fff" fill-rule="evenodd"/>
<path d="m709.1473,1251.1757c2.2145-3.5175 4.9381-6.2664 8.3537-8.3537" fill="none" stroke="#000"/>
<path d="m730.856,1264.5878-7.6762-2.9745c2.5004-.6341 4.0675-2.2014 4.7016-4.7019l2.9745,7.6764z" fill="#fff"/>
</g>
</svg>
