<svg viewBox="0 0 512 512" xmlns="http://www.w3.org/2000/svg">

<g transform="matrix(18.68858,0,0,18.68858,-13164.09763,-23140.95659)">
<path d="m 713.526 1245.54 -1.7689 1.7391 11.3787 12.6639 5.0324 2.0081 -2.008 -5.0325 -12.6341 -11.3786 z" fill="#fff"/>
<path d="m 727.398 1253.96 c -0.992 -4.6436 -5.3221 -4.3213 -8.6725 -2.2193 l -1.6782 -2.8422 c 1.9664 0.345 4.0065 -0.7154 3.0249 -3.9026 1.9954 1.751 4.9101 -0.1242 3.5331 -3.1322 2.9666 2.5856 4.9162 -0.077 3.9841 -2.7496 3.683 5.1961 4.7177 10.9618 -0.1914 14.8459 z" fill="#fff" fill-rule="evenodd"/>
<path d="m 706.812 1238.97 -1.6562 1.6562 c 2.1181 1.0701 3.9135 2.5919 5.0312 5.0625 l -3.1875 3.1875 2.3125 2.2813 c 1.9259 -3.3358 4.6574 -6.1146 8.0312 -8.0625 l -2.2812 -2.2813 -3.1875 3.1875 c -2.1598 -0.8899 -3.8053 -2.637 -5.0625 -5.0312 z" fill="#fff"/>
<path d="m 720.28 1261.3 c -4.6437 -1.0029 -4.3213 -5.3807 -2.2193 -8.768 l -2.8423 -1.6965 c 0.345 1.988 -0.7153 4.0506 -3.9028 3.0582 1.7512 2.0174 -0.1239 4.9641 -3.132 3.572 2.5856 2.9991 -0.0773 4.9701 -2.7496 4.0278 5.1961 3.7236 10.9618 4.7696 14.846 -0.1935 z" fill="#fff" fill-rule="evenodd"/>
<path d="m 709.147 1251.18 c 2.2145 -3.5175 4.9381 -6.2664 8.3537 -8.3537" fill="none" stroke="#000"/>
<path d="m 730.856 1264.59 -7.6762 -2.9745 c 2.5004 -0.6341 4.0675 -2.2014 4.7016 -4.7019 l 2.9745 7.6764 z" fill="#fff"/>
</g>
</svg>
