<svg viewBox="0 0 512 512" xmlns="http://www.w3.org/2000/svg">

<g transform="matrix(18.68858,0,0,18.68858,-1466.83436,-4108.68656)">
<g transform="translate(-33.7722,-.0679)">
<path d="m133.5573,246.6799 5.5671-.04-.007-2.812c-4.4376-6.5287-4.1533-11.6855-3.0142-16.5201-7.0052-5.9453-15.0809-6.2401-22.598-6.327 2.1621,2.4893 2.084,5.1053.6329,7.468 3.2842,1.0513 3.4712,5.644 2.1518,8.3541 4.0546-1.1408 8.0033,2.3964 5.5693,6.4554 4.9308-4.1453 12.147-2.3431 11.6979,3.4216z" fill="#fff" fill-rule="evenodd"/>
<path d="m113.0576,229.24c7.1899-3.7593 15.9462-3.5619 23.1361-2.2337" fill="none" stroke="#000"/>
<path d="m115.5514,237.8682c4.3278-5.6645 13.4507-9.3848 20.4609-10.5361" fill="none" stroke="#000"/>
<path d="m121.6088,244.2801c4.28-7.5527 8.7514-12.4659 14.8027-17.0692" fill="none" stroke="#000"/>
<path d="m136.1115,227.6379-4.0797,9.5679 7.0903,9.1927" fill="none" stroke="#000"/>
</g>
<path d="m78.9964,220.2394h26.4314v26.4314h-26.4314z" fill="none" stroke="#000"/>
</g>
</svg>
