<svg viewBox="0 0 512 512" xmlns="http://www.w3.org/2000/svg">

<g transform="matrix(18.68858,0,0,18.68858,2603.71047,-10484.51428)">
<path d="m -127.427 573.2 h 12.8662 c 0 6.2922 -0.8621 12.678 -6.4368 13.8035 -5.064 -1.3178 -6.4295 -7.5286 -6.4295 -13.8035 z" fill="#fff" fill-rule="evenodd"/>
<g transform="matrix(.9306,0,0,-.92943,-578.71193,1043.4707)">
<path d="m 478.219 498.132 c 0 6.8322 0.0532 12.9974 1.5761 19.4961 1.5869 -6.27 1.4185 -12.5933 1.4185 -19.3295" fill="#fff" fill-rule="evenodd"/>
<path d="m 474.998 497.573 h 9.4408 v 1.6439 c -3.1061 -0.8312 -6.3458 -1.0083 -9.4408 0 v -1.6439 z" fill="#fff"/>
<path d="m 478.91 491.524 h 1.6175 c -0.4295 2.0932 -0.478 4.1865 0 6.2797 h -1.6175 c 0.5704 -2.0932 0.4481 -4.1865 0 -6.2797 z" fill="#fff"/>
</g>
<g transform="translate(-744.2634,2.4859)">
<path d="m 615.111 562.418 c 0.9823 -1.4725 2.4157 -2.5003 3.8722 -2.9724 1.3653 0.4762 2.9955 1.4738 3.9042 2.9724 -0.7681 2.5629 -0.768 3.0633 0 5.6262 -2.5592 2.0643 -5.2374 1.971 -7.7765 0 0.9387 -2.5629 0.9387 -3.0633 0 -5.6262 z" fill="#fff"/>
<path d="m 616.444 562.943 v 1.7247 c 0.7291 0.4216 1.2503 0.6631 1.9794 0.7425 -0.3 1.6122 -0.1295 3.2245 0 4.8368 h 1.4221 c 0.1766 -1.6238 0.2295 -3.2475 0 -4.8713 0.7151 -0.1102 1.1701 -0.3602 1.8852 -0.7079 v -1.7247 c -1.9783 1.0047 -3.3675 1.0218 -5.2866 0 z"/>
</g>
</g>
</svg>
