<svg viewBox="0 0 512 512" xmlns="http://www.w3.org/2000/svg">

<g transform="matrix(18.68858,0,0,18.68858,-2741.58559,-5997.06504)">
<g transform="matrix(-.40257,.92877,-.92877,-.40257,534.09089,327.82123)">
<path d="m 151.101 330.734 v -5.3681 h 9.052 v 5.3681" fill="#fff"/>
<path d="m 151.21 344.662 v -19.1911 h 9.0767 v 19.1911" fill="none" stroke="#fff" stroke-width=".9879"/>
<path d="m 166.812 332.893 c 0 1.6741 -3.0641 3.0312 -6.8438 3.0312 s -6.8438 -1.3571 -6.8438 -3.0312 3.0641 -3.0312 6.8438 -3.0312 6.8438 1.3571 6.8438 3.0312 z" stroke="#fff" stroke-width="1.3822" transform="matrix(.66314,0,0,.77034,49.66726,68.58388)"/>
<path d="m 160.287 344.59 c 0 1.289 -2.0332 2.3351 -4.5384 2.3351 s -4.5384 -1.0461 -4.5384 -2.3351" fill="none" stroke="#fff" stroke-width=".9879"/>
<path d="m 166.812 332.893 c 0 1.6741 -3.0641 3.0312 -6.8438 3.0312 s -6.8438 -1.3571 -6.8438 -3.0312 3.0641 -3.0312 6.8438 -3.0312 6.8438 1.3571 6.8438 3.0312 z" fill="#fff" transform="matrix(.29835,0,0,.31349,108.02215,219.61925)"/>
<path d="m 160.287 329.765 c 0 1.289 -2.0332 2.3351 -4.5384 2.3351 s -4.5384 -1.0461 -4.5384 -2.3351" fill="#fff" stroke="#fff" stroke-width=".9879"/>
<path d="m 154.537 330.744 3.0018 6.2939 -1.2644 0.6262 2.7349 5.5914 -6.4079 -6.7328 1.948 -0.6804 -3.1135 -4.611 3.1011 -0.4873 z" fill="#fff" fill-rule="evenodd"/>
</g>
<path d="m 151.478 330.643 h 8.5446 v 14.226 h -8.5446 z"/>
<g transform="matrix(1.01226,0,0,1.01226,-1.96682,-4.08245)">
<path d="m 151.101 330.734 v -5.3681 h 9.052 v 5.3681" fill="#fff"/>
<path d="m 151.21 344.662 v -19.1911 h 9.0767 v 19.1911" fill="none" stroke="#fff" stroke-width=".9879"/>
<path d="m 166.812 332.893 c 0 1.6741 -3.0641 3.0312 -6.8438 3.0312 s -6.8438 -1.3571 -6.8438 -3.0312 3.0641 -3.0312 6.8438 -3.0312 6.8438 1.3571 6.8438 3.0312 z" stroke="#fff" stroke-width="1.3822" transform="matrix(.66314,0,0,.77034,49.66726,68.58388)"/>
<path d="m 160.287 344.59 c 0 1.289 -2.0332 2.3351 -4.5384 2.3351 s -4.5384 -1.0461 -4.5384 -2.3351" fill="none" stroke="#fff" stroke-width=".9879"/>
<path d="m 166.812 332.893 c 0 1.6741 -3.0641 3.0312 -6.8438 3.0312 s -6.8438 -1.3571 -6.8438 -3.0312 3.0641 -3.0312 6.8438 -3.0312 6.8438 1.3571 6.8438 3.0312 z" fill="#fff" transform="matrix(.29835,0,0,.31349,108.02215,219.61925)"/>
<path d="m 160.287 329.765 c 0 1.289 -2.0332 2.3351 -4.5384 2.3351 s -4.5384 -1.0461 -4.5384 -2.3351" fill="#fff" stroke="#fff" stroke-width=".9879"/>
<path d="m 154.537 330.744 3.0018 6.2939 -1.2644 0.6262 2.7349 5.5914 -6.4079 -6.7328 1.948 -0.6804 -3.1135 -4.611 3.1011 -0.4873 z" fill="#fff" fill-rule="evenodd"/>
</g>
</g>
</svg>
