<svg viewBox="0 0 512 512" xmlns="http://www.w3.org/2000/svg">

<g transform="matrix(18.68858,0,0,18.68858,3238.21167,-4117.30564)">
<path d="m -172.171 239.293 11.457 -16.7749 c 1.116 0.3268 2.3245 1.0549 2.9884 2.0594 l -14.4024 20.636 -0.0429 -5.9204 z" fill="#fff"/>
<path d="m -164.585 222.147 c -1.812 2.7607 -1.5138 4.0202 -1.5138 6.3458 5.6807 3.1453 8.621 9.0719 1.8125 13.3685 2.7795 0.809 5.371 0.8506 7.6875 0.3125 l 0.4688 -2.9688 1.9835 2.0669 c 1.6429 -0.9415 4.0651 -2.6774 5.14 -4.2241 l -1.7173 -2.9679 2.9375 0.8125 c 1.8026 -2.7707 1.9959 -8.7768 -0.125 -12.3438 -3.8221 8.5168 -11.0481 3.9759 -16.6736 -0.4018 z" fill="#fff" fill-rule="evenodd" stroke="#000"/>
<path d="m -161.17 236.284 c 4.544 0.6172 9.7007 -4.5217 8.3085 -9.3691" fill="none" stroke="#000"/>
<path d="m -163.346 223.762 c -1.8692 -1.8405 -4.9055 -2.6296 -8.4572 -2.6296 3.3687 1.3605 5.8235 3.2818 6.1985 7.0669" fill="#fff" fill-rule="evenodd"/>
</g>
</svg>
