<svg xmlns="http://www.w3.org/2000/svg" viewBox="0 0 512 512">
<g transform="matrix(15 0 0 15 -2684 -3284)">
<use width="744.094" height="1052.362" transform="translate(216 216)"/>
<path fill="#fff" d="m194.2812,220c-.9497,0-3.4375,.7964-3.4375,1.7812v1.7812h-3.4062c-1.8994,0-3.4375,1.5927-3.4375,3.5625v21.3125c0,1.9698 1.5381,3.5625 3.4375,3.5625h17.125c1.8994,0 3.4375-1.5927 3.4375-3.5625v-21.3125c0-1.9698-1.5381-3.5625-3.4375-3.5625h-3.4062v-1.7812c0-.9849-2.4878-1.7812-3.4375-1.7812h-3.4375zm1.7188,7.125 0,8.875 6.8438,0-6.8438,12.4375 0-8.875-6.8438,0l6.8438-12.4375z"/>
</g>
</svg>
