<svg viewBox="0 0 512 512" xmlns="http://www.w3.org/2000/svg">

<g transform="matrix(18.68858,0,0,18.68858,-5275.21001,-2214.09999)">
<path d="m 298.753 119.719 c -8.8347 -3.547 -18.3639 7.213 -15.3074 15.6491 3.8702 -2.2499 7.9054 -2.759 10.0313 -0.6353 2.1286 2.1263 1.6169 6.1571 -0.6353 10.0313 8.4361 3.0565 19.1961 -6.4727 15.6491 -15.3074 -4.1099 2.4053 -7.0806 1.9711 -9.3923 -0.3453 -2.3077 -2.3123 -2.7474 -5.288 -0.3453 -9.3923 z" fill="#fff" stroke="#000"/>
<g transform="matrix(.6435,.6435,-.87251,.87251,219.40464,-172.19756)">
<path d="m 290.5 123.862 c -5.5984 3.2532 -6.1914 9.4912 0.1875 13.125" fill="none" stroke="#000" stroke-width=".9437"/>
<path d="m 301.601 123.862 c 5.5984 3.2532 6.1914 9.4912 -0.1875 13.125" fill="none" stroke="#000" stroke-width=".9437"/>
</g>
<path d="m 300.04 125.777 -17.1959 17.1958 v 2.4337 h 2.2416 l 17.2919 -17.2918 -2.3376 -2.3376 z" fill="#fff" stroke="#000"/>
<path d="m 298.053 127.007 3.0936 3.0936 -7.0934 7.0934 -3.0936 -3.0936 7.0934 -7.0934 z" fill="#fff" stroke="#000"/>
</g>
</svg>
