<svg viewBox="0 0 512 512" xmlns="http://www.w3.org/2000/svg">

<g transform="matrix(18.68858,0,0,18.68858,-2741.58559,-5997.06504)">
<g transform="matrix(-.40257,.92877,-.92877,-.40257,534.09089,327.82123)">
<path d="m151.1006,330.7341v-5.3681h9.052v5.3681" fill="#fff"/>
<path d="m151.2103,344.6618v-19.1911h9.0767v19.1911" fill="none" stroke="#fff" stroke-width=".9879"/>
<path d="m166.8125,332.8934c0,1.6741-3.0641,3.0312-6.8438,3.0312s-6.8438-1.3571-6.8438-3.0312 3.0641-3.0312 6.8438-3.0312 6.8438,1.3571 6.8438,3.0312z" stroke="#fff" stroke-width="1.3822" transform="matrix(.66314,0,0,.77034,49.66726,68.58388)"/>
<path d="m160.287,344.5896c0,1.289-2.0332,2.3351-4.5384,2.3351s-4.5384-1.0461-4.5384-2.3351" fill="none" stroke="#fff" stroke-width=".9879"/>
<path d="m166.8125,332.8934c0,1.6741-3.0641,3.0312-6.8438,3.0312s-6.8438-1.3571-6.8438-3.0312 3.0641-3.0312 6.8438-3.0312 6.8438,1.3571 6.8438,3.0312z" fill="#fff" transform="matrix(.29835,0,0,.31349,108.02215,219.61925)"/>
<path d="m160.287,329.7651c0,1.289-2.0332,2.3351-4.5384,2.3351s-4.5384-1.0461-4.5384-2.3351" fill="#fff" stroke="#fff" stroke-width=".9879"/>
<path d="m154.5374,330.7443 3.0018,6.2939-1.2644.6262 2.7349,5.5914-6.4079-6.7328 1.948-.6804-3.1135-4.611 3.1011-.4873z" fill="#fff" fill-rule="evenodd"/>
</g>
<path d="m151.4776,330.6427h8.5446v14.226h-8.5446z"/>
<g transform="matrix(1.01226,0,0,1.01226,-1.96682,-4.08245)">
<path d="m151.1006,330.7341v-5.3681h9.052v5.3681" fill="#fff"/>
<path d="m151.2103,344.6618v-19.1911h9.0767v19.1911" fill="none" stroke="#fff" stroke-width=".9879"/>
<path d="m166.8125,332.8934c0,1.6741-3.0641,3.0312-6.8438,3.0312s-6.8438-1.3571-6.8438-3.0312 3.0641-3.0312 6.8438-3.0312 6.8438,1.3571 6.8438,3.0312z" stroke="#fff" stroke-width="1.3822" transform="matrix(.66314,0,0,.77034,49.66726,68.58388)"/>
<path d="m160.287,344.5896c0,1.289-2.0332,2.3351-4.5384,2.3351s-4.5384-1.0461-4.5384-2.3351" fill="none" stroke="#fff" stroke-width=".9879"/>
<path d="m166.8125,332.8934c0,1.6741-3.0641,3.0312-6.8438,3.0312s-6.8438-1.3571-6.8438-3.0312 3.0641-3.0312 6.8438-3.0312 6.8438,1.3571 6.8438,3.0312z" fill="#fff" transform="matrix(.29835,0,0,.31349,108.02215,219.61925)"/>
<path d="m160.287,329.7651c0,1.289-2.0332,2.3351-4.5384,2.3351s-4.5384-1.0461-4.5384-2.3351" fill="#fff" stroke="#fff" stroke-width=".9879"/>
<path d="m154.5374,330.7443 3.0018,6.2939-1.2644.6262 2.7349,5.5914-6.4079-6.7328 1.948-.6804-3.1135-4.611 3.1011-.4873z" fill="#fff" fill-rule="evenodd"/>
</g>
</g>
</svg>
