<svg viewBox="0 0 512 512" xmlns="http://www.w3.org/2000/svg">

<g transform="matrix(18.68858,0,0,18.68858,2603.71047,-10484.51428)">
<path d="m-127.4275,573.2003h12.8662c0,6.2922-.8621,12.678-6.4368,13.8035-5.064-1.3178-6.4295-7.5286-6.4295-13.8035z" fill="#fff" fill-rule="evenodd"/>
<g transform="matrix(.9306,0,0,-.92943,-578.71193,1043.4707)">
<path d="m478.2189,498.1319c0,6.8322.0532,12.9974 1.5761,19.4961 1.5869-6.27 1.4185-12.5933 1.4185-19.3295" fill="#fff" fill-rule="evenodd"/>
<path d="m474.9984,497.5732h9.4408v1.6439c-3.1061-.8312-6.3458-1.0083-9.4408,0v-1.6439z" fill="#fff"/>
<path d="m478.91,491.5236h1.6175c-.4295,2.0932-.478,4.1865 0,6.2797h-1.6175c.5704-2.0932.4481-4.1865 0-6.2797z" fill="#fff"/>
</g>
<g transform="translate(-744.2634,2.4859)">
<path d="m615.1109,562.4176c.9823-1.4725 2.4157-2.5003 3.8722-2.9724 1.3653.4762 2.9955,1.4738 3.9042,2.9724-.7681,2.5629-.768,3.0633 0,5.6262-2.5592,2.0643-5.2374,1.971-7.7765,0 .9387-2.5629.9387-3.0633 0-5.6262z" fill="#fff"/>
<path d="m616.4437,562.9431v1.7247c.7291.4216 1.2503.6631 1.9794.7425-.3,1.6122-.1295,3.2245 0,4.8368h1.4221c.1766-1.6238.2295-3.2475 0-4.8713 .7151-.1102 1.1701-.3602 1.8852-.7079v-1.7247c-1.9783,1.0047-3.3675,1.0218-5.2866,0z"/>
</g>
</g>
</svg>
