<svg viewBox="0 0 512 512" xmlns="http://www.w3.org/2000/svg">

<g transform="matrix(18.68858,0,0,18.68858,-213.29786,-5365.36648)">
<path d="m 26.6122 305.12 c 3.0428 -1.077 4.2331 -5.1749 1.3878 -7.4467 1.831 -4.5332 5.6483 -8.2368 10.1595 -9.1917 -2.2333 2.28 -2.816 6.884 -0.7201 9.3525 -3.4148 0.5746 -4.0506 3.2804 -3.4483 7.3569 -1.8677 -1.1657 -4.1857 -0.6102 -5.5275 1.9489 l -1.8514 -2.02 z" fill="#fff" fill-rule="evenodd"/>
<path d="m 23.7846 305.12 c -3.0428 -1.077 -4.2331 -5.1749 -1.3878 -7.4467 -1.831 -4.5332 -5.6483 -8.2368 -10.1595 -9.1917 2.2333 2.28 2.816 6.884 0.7201 9.3525 3.4148 0.5746 4.0506 3.2804 3.4483 7.3569 1.8677 -1.1657 4.1857 -0.6102 5.5275 1.9489 l 1.8514 -2.02 z" fill="#fff" fill-rule="evenodd"/>
<g fill="#fff" stroke="#000">
<path d="m 55.9375 42.3309 c 0 1.6396 -1.3292 2.9688 -2.9688 2.9688 s -2.9688 -1.3292 -2.9688 -2.9688 1.3292 -2.9688 2.9688 -2.9688 2.9688 1.3292 2.9688 2.9688 z" fill="#000" stroke="#fff" stroke-width=".8261" transform="matrix(1.21053,0,0,1.21053,-38.92167,257.489)"/>
</g>
<path d="m 27.4888 309.104 c 0 1.0495 -0.8508 1.9003 -1.9003 1.9003 s -1.9003 -0.8508 -1.9003 -1.9003 0.8508 -1.9003 1.9003 -1.9003 1.9003 0.8508 1.9003 1.9003 z" fill="#fff" transform="matrix(1.10465,0,0,1.10465,-1.99285,-33.69607)"/>
</g>
</svg>
