<svg viewBox="0 0 512 512" xmlns="http://www.w3.org/2000/svg">

<g transform="matrix(18.68858,0,0,18.68858,-2952.5193,-34717.93116)">
<path d="m 161.777 1860.58 -0.9018 1.1163 16.5314 22.4241 h 6.875 v -6.8438 z" fill="#fff"/>
<path d="m 166.154 1875.78 c 0.2265 0.5888 0.5681 1.1428 1.023 1.5976 2.2179 2.218 6.3509 1.681 9.2309 -1.1989 s 3.4169 -7.0129 1.1989 -9.231 c -0.4549 -0.4547 -1.009 -0.7964 -1.5975 -1.0228 1.6358 2.1823 1.0277 5.779 -1.5243 8.3309 s -6.1485 3.1599 -8.331 1.5242 z" fill="#fff"/>
<path d="m 164.102 1872.13 c 0.1898 0.4931 0.476 0.9572 0.8569 1.3382 1.8579 1.858 5.32 1.4079 7.7324 -1.0042 s 2.8622 -5.8745 1.0043 -7.7323 c -0.3811 -0.3811 -0.8452 -0.6672 -1.3382 -0.857 1.3701 1.8282 0.8608 4.8411 -1.2769 6.9787 s -5.1504 2.6469 -6.9785 1.2767 z" fill="#fff"/>
<path d="m 162.515 1868.92 c 0.1495 0.3885 0.3751 0.7541 0.6752 1.0545 1.4636 1.4636 4.1908 1.1092 6.0915 -0.7914 s 2.2548 -4.6278 0.7913 -6.0915 c -0.3002 -0.3001 -0.6659 -0.5256 -1.0542 -0.6753 1.0794 1.4404 0.6783 3.8138 -1.0058 5.4979 s -4.0575 2.0852 -5.4979 1.0057 z" fill="#fff"/>
<path d="m 160.873 1865.81 c 0.1189 0.3083 0.298 0.5987 0.5362 0.8371 1.1623 1.1623 3.328 0.8809 4.8372 -0.6282 s 1.7908 -3.6753 0.6285 -4.8373 c -0.2386 -0.2382 -0.5285 -0.4178 -0.8371 -0.5364 0.8572 1.1437 0.5386 3.0285 -0.7986 4.3658 s -3.2222 1.6559 -4.366 0.7987 z" fill="#fff"/>
<path d="m 159.609 1863.32 c 0.0929 0.2413 0.233 0.4686 0.4196 0.6552 0.9095 0.9095 2.6046 0.6878 3.7853 -0.4916 s 1.4011 -2.8759 0.4917 -3.7854 c -0.1867 -0.1862 -0.414 -0.3267 -0.6551 -0.4198 0.6707 0.8952 0.4215 2.3701 -0.625 3.4166 s -2.5214 1.2957 -3.4164 0.6248 z" fill="#fff"/>
<path d="m 168.501 1880.18 c 0.2737 0.7108 0.6862 1.3802 1.2356 1.9296 2.6791 2.6788 7.6707 2.0305 11.1494 -1.4481 s 4.1272 -8.4706 1.4482 -11.1496 c -0.5494 -0.5493 -1.2187 -0.9618 -1.9295 -1.2356 1.9756 2.6361 1.2411 6.9802 -1.8412 10.0626 s -7.4263 3.8166 -10.0625 1.8411 z" fill="#fff"/>
<path d="m 159.649 1858.48 25.2299 19.5488" fill="none" stroke="#000"/>
<path d="m 158.739 1859.34 18.9425 25.0724" fill="none" stroke="#000"/>
<path d="m 162.082 1860.42 c 0 0.6895 -0.559 1.2484 -1.2485 1.2484 s -1.2485 -0.5589 -1.2485 -1.2484 0.559 -1.2485 1.2485 -1.2485 1.2485 0.5589 1.2485 1.2485 z" fill="#fff" transform="matrix(1.23894,0,0,1.23894,-38.72759,-444.62445)"/>
</g>
</svg>
