<svg viewBox="0 0 512 512" xmlns="http://www.w3.org/2000/svg">

<g transform="matrix(18.68858,0,0,18.68858,-2952.5193,-34717.93116)">
<path d="m161.7767,1860.5846-.9018,1.1163 16.5314,22.4241h6.875v-6.8438z" fill="#fff"/>
<path d="m166.1539,1875.7795c.2265.5888.5681,1.1428 1.023,1.5976 2.2179,2.218 6.3509,1.681 9.2309-1.1989s3.4169-7.0129 1.1989-9.231c-.4549-.4547-1.009-.7964-1.5975-1.0228 1.6358,2.1823 1.0277,5.779-1.5243,8.3309s-6.1485,3.1599-8.331,1.5242z" fill="#fff"/>
<path d="m164.1023,1872.128c.1898.4931.476.9572.8569,1.3382 1.8579,1.858 5.32,1.4079 7.7324-1.0042s2.8622-5.8745 1.0043-7.7323c-.3811-.3811-.8452-.6672-1.3382-.857 1.3701,1.8282.8608,4.8411-1.2769,6.9787s-5.1504,2.6469-6.9785,1.2767z" fill="#fff"/>
<path d="m162.5148,1868.9213c.1495.3885.3751.7541.6752,1.0545 1.4636,1.4636 4.1908,1.1092 6.0915-.7914s2.2548-4.6278.7913-6.0915c-.3002-.3001-.6659-.5256-1.0542-.6753 1.0794,1.4404.6783,3.8138-1.0058,5.4979s-4.0575,2.0852-5.4979,1.0057z" fill="#fff"/>
<path d="m160.8727,1865.8077c.1189.3083.298.5987.5362.8371 1.1623,1.1623 3.328.8809 4.8372-.6282s1.7908-3.6753.6285-4.8373c-.2386-.2382-.5285-.4178-.8371-.5364 .8572,1.1437.5386,3.0285-.7986,4.3658s-3.2222,1.6559-4.366.7987z" fill="#fff"/>
<path d="m159.6092,1863.3169c.0929.2413.233.4686.4196.6552 .9095.9095 2.6046.6878 3.7853-.4916s1.4011-2.8759.4917-3.7854c-.1867-.1862-.414-.3267-.6551-.4198 .6707.8952.4215,2.3701-.625,3.4166s-2.5214,1.2957-3.4164.6248z" fill="#fff"/>
<path d="m168.5015,1880.1756c.2737.7108.6862,1.3802 1.2356,1.9296 2.6791,2.6788 7.6707,2.0305 11.1494-1.4481s4.1272-8.4706 1.4482-11.1496c-.5494-.5493-1.2187-.9618-1.9295-1.2356 1.9756,2.6361 1.2411,6.9802-1.8412,10.0626s-7.4263,3.8166-10.0625,1.8411z" fill="#fff"/>
<path d="m159.6494,1858.4812 25.2299,19.5488" fill="none" stroke="#000"/>
<path d="m158.7386,1859.3384 18.9425,25.0724" fill="none" stroke="#000"/>
<path d="m162.0821,1860.4196c0,.6895-.559,1.2484-1.2485,1.2484s-1.2485-.5589-1.2485-1.2484 .559-1.2485 1.2485-1.2485 1.2485.5589 1.2485,1.2485z" fill="#fff" transform="matrix(1.23894,0,0,1.23894,-38.72759,-444.62445)"/>
</g>
</svg>
