<svg viewBox="0 0 512 512" xmlns="http://www.w3.org/2000/svg">

<g transform="matrix(18.68858,0,0,18.68858,-4635.90916,-12275.95509)">
<g transform="matrix(1,0,0,1.10772,-33.89693,-72.33873)">
<path d="m 283.361 670.713 h 25.4036" fill="none" stroke="#fff" stroke-width=".9501"/>
<path d="m 283.794 667.425 24.538 6.5749" fill="none" stroke="#fff" stroke-width=".9501"/>
<path d="m 285.063 664.362 22.0002 12.7018" fill="none" stroke="#fff" stroke-width=".9501"/>
<path d="m 287.082 661.731 17.9631 17.9631" fill="none" stroke="#fff" stroke-width=".9501"/>
<path d="m 289.712 659.713 12.7018 22.0002" fill="none" stroke="#fff" stroke-width=".9501"/>
<path d="m 302.414 659.713 -12.7019 22.0002" fill="none" stroke="#fff" stroke-width=".9501"/>
<path d="m 305.045 661.731 -17.9631 17.9631" fill="none" stroke="#fff" stroke-width=".9501"/>
<path d="m 307.063 664.362 -22.0002 12.7018" fill="none" stroke="#fff" stroke-width=".9501"/>
<path d="m 308.332 667.425 -24.5381 6.5749" fill="none" stroke="#fff" stroke-width=".9501"/>
</g>
<path d="m 261.808 657.525 c -1.6797 0.216 -2.9911 2.0237 -2.9911 4.2056 0 1.2084 0.4184 2.4549 1.0629 3.2239 -3.4933 0.6503 -3.7574 5.4695 -3.7574 9.5582 h 2.4226 l 0.6427 9.3708 h 6.1552 l 0.5686 -9.3708 h 2.299 c 0 -4.1001 0.0832 -9.0218 -3.7327 -9.6071 0.6168 -0.7653 1.0135 -1.9964 1.0135 -3.175 -2e-05 -2.3273 -1.4977 -4.2056 -3.3372 -4.2056 -0.115 0 -0.2341 -0.0144 -0.3461 0 z" fill="#fff" fill-rule="evenodd" stroke="#000"/>
<path d="m 265.342 662.26 c 0 2.2943 -1.3752 4.1543 -3.0715 4.1543 s -3.0715 -1.8599 -3.0715 -4.1543 1.3752 -4.1543 3.0715 -4.1543 3.0715 1.8599 3.0715 4.1543 z" fill="#fff" stroke="#000" stroke-width=".9468" transform="matrix(1.05921,0,0,1.05319,-15.63308,-35.6373)"/>
<path d="m 258.57 674.944 -0.2365 -4.5788" fill="none" stroke="#000"/>
<path d="m 265.887 674.944 0.2365 -4.5788" fill="none" stroke="#000"/>
<path d="m 262.188 683.562 v -7.2703" fill="none" stroke="#000"/>
</g>
</svg>
