<svg viewBox="0 0 512 512" xmlns="http://www.w3.org/2000/svg">

<g transform="matrix(18.68858,0,0,18.68858,-4635.90916,-12275.95509)">
<g transform="matrix(1,0,0,1.10772,-33.89693,-72.33873)">
<path d="m283.3613,670.7128h25.4036" fill="none" stroke="#fff" stroke-width=".9501"/>
<path d="m283.7941,667.4253 24.538,6.5749" fill="none" stroke="#fff" stroke-width=".9501"/>
<path d="m285.063,664.3619 22.0002,12.7018" fill="none" stroke="#fff" stroke-width=".9501"/>
<path d="m287.0815,661.7313 17.9631,17.9631" fill="none" stroke="#fff" stroke-width=".9501"/>
<path d="m289.7122,659.7127 12.7018,22.0002" fill="none" stroke="#fff" stroke-width=".9501"/>
<path d="m302.414,659.7127-12.7019,22.0002" fill="none" stroke="#fff" stroke-width=".9501"/>
<path d="m305.0446,661.7313-17.9631,17.9631" fill="none" stroke="#fff" stroke-width=".9501"/>
<path d="m307.0632,664.3619-22.0002,12.7018" fill="none" stroke="#fff" stroke-width=".9501"/>
<path d="m308.3321,667.4253-24.5381,6.5749" fill="none" stroke="#fff" stroke-width=".9501"/>
</g>
<path d="m261.8076,657.5253c-1.6797.216-2.9911,2.0237-2.9911,4.2056 0,1.2084.4184,2.4549 1.0629,3.2239-3.4933.6503-3.7574,5.4695-3.7574,9.5582h2.4226l.6427,9.3708h6.1552l.5686-9.3708h2.299c0-4.1001.0832-9.0218-3.7327-9.6071 .6168-.7653 1.0135-1.9964 1.0135-3.175-2e-05-2.3273-1.4977-4.2056-3.3372-4.2056-.115,0-.2341-.0144-.3461,0z" fill="#fff" fill-rule="evenodd" stroke="#000"/>
<path d="m265.3419,662.2602c0,2.2943-1.3752,4.1543-3.0715,4.1543s-3.0715-1.8599-3.0715-4.1543 1.3752-4.1543 3.0715-4.1543 3.0715,1.8599 3.0715,4.1543z" fill="#fff" stroke="#000" stroke-width=".9468" transform="matrix(1.05921,0,0,1.05319,-15.63308,-35.6373)"/>
<path d="m258.5696,674.9439-.2365-4.5788" fill="none" stroke="#000"/>
<path d="m265.8865,674.9439 .2365-4.5788" fill="none" stroke="#000"/>
<path d="m262.1875,683.5616v-7.2703" fill="none" stroke="#000"/>
</g>
</svg>
