<svg viewBox="0 0 512 512" xmlns="http://www.w3.org/2000/svg">

<g transform="matrix(18.68858,0,0,18.68858,-7044.39073,-47619.95575)">
<path d="m396.0938,2548.5625c-.4343,8.4004-11.9855,9.6954-18.625,22.75v3.6875h10.2812c.6275-6.5416 4.3664-10.5839 8.0938-13.9375 4.1873-.027 6.7731-3.0723 8.0625-6.625v-5.875h-7.8125z" fill="#fff" stroke="#000"/>
<path d="m381.8315,2575.0243c3.3376-1.5979 6.5695-4.452 8.6841-7.88" fill="none" stroke="#000"/>
<path d="m383.3687,2562.9806c6.5437-6.7363 9.1339-.2712 15.541-2.4638" fill="none" stroke="#000"/>
<path d="m392.2364,2555.6018c2.464-1.4859 10.1409,2.4673 11.7199-3.2788" fill="none" stroke="#000"/>
<path d="m378.6686,2569.6139c3.1733.4872 8.1447-1.4955 8.8697-3.9421" fill="none" stroke="#000"/>
<path d="m390.1537,2558.6595c1.5137-3.8046.2135-6.565-2.5017-6.785-2.1999-.1782-3.2746,2.4071-1.0234,3.5631" fill="none" stroke="#fff"/>
<path d="m395.2391,2553.8233c.7033-2.26-.6802-4.8875-3.3834-5.2533" fill="none" stroke="#fff"/>
<path d="m388.3579,2548.5566h8.7377" fill="none" stroke="#000"/>
<path d="m382.6855,2565.4241c2.5711-3.7747-1.8099-5.4896-3.4606-3.7793-1.7538,1.8171.2129,3.7637 1.9255,2.2395" fill="none" stroke="#fff"/>
<path d="m378.3395,2569.285c4.8456-6.8641 8.3324-.5421 16.4109-7.126" fill="none" stroke="#000"/>
<path d="m386.9824,2573.2013c2.5101-3.6551 7.4229-6.5006 9.8839-4.4085 1.9941,1.6952.071,5.1428-2.7131,3.7443" fill="none" stroke="#fff"/>
<path d="m392.5264,2562.3103c2.2629-.956 3.9735-.2439 4.1846,1.3435 .1711,1.2863-1.3654,1.9629-2.1306.6641" fill="none" stroke="#fff"/>
<path d="m396.376,2555.4663c3.2961-1.0506 5.7293-4.539 4.3706-6.873" fill="none" stroke="#000"/>
</g>
</svg>
