<svg viewBox="0 0 512 512" xmlns="http://www.w3.org/2000/svg">

<g transform="matrix(18.68858,0,0,18.68858,-7044.39073,-47619.95575)">
<path d="m 396.094 2548.56 c -0.4343 8.4004 -11.9855 9.6954 -18.625 22.75 v 3.6875 h 10.2812 c 0.6275 -6.5416 4.3664 -10.5839 8.0938 -13.9375 4.1873 -0.027 6.7731 -3.0723 8.0625 -6.625 v -5.875 h -7.8125 z" fill="#fff" stroke="#000"/>
<path d="m 381.832 2575.02 c 3.3376 -1.5979 6.5695 -4.452 8.6841 -7.88" fill="none" stroke="#000"/>
<path d="m 383.369 2562.98 c 6.5437 -6.7363 9.1339 -0.2712 15.541 -2.4638" fill="none" stroke="#000"/>
<path d="m 392.236 2555.6 c 2.464 -1.4859 10.1409 2.4673 11.7199 -3.2788" fill="none" stroke="#000"/>
<path d="m 378.669 2569.61 c 3.1733 0.4872 8.1447 -1.4955 8.8697 -3.9421" fill="none" stroke="#000"/>
<path d="m 390.154 2558.66 c 1.5137 -3.8046 0.2135 -6.565 -2.5017 -6.785 -2.1999 -0.1782 -3.2746 2.4071 -1.0234 3.5631" fill="none" stroke="#fff"/>
<path d="m 395.239 2553.82 c 0.7033 -2.26 -0.6802 -4.8875 -3.3834 -5.2533" fill="none" stroke="#fff"/>
<path d="m 388.358 2548.56 h 8.7377" fill="none" stroke="#000"/>
<path d="m 382.685 2565.42 c 2.5711 -3.7747 -1.8099 -5.4896 -3.4606 -3.7793 -1.7538 1.8171 0.2129 3.7637 1.9255 2.2395" fill="none" stroke="#fff"/>
<path d="m 378.339 2569.28 c 4.8456 -6.8641 8.3324 -0.5421 16.4109 -7.126" fill="none" stroke="#000"/>
<path d="m 386.982 2573.2 c 2.5101 -3.6551 7.4229 -6.5006 9.8839 -4.4085 1.9941 1.6952 0.071 5.1428 -2.7131 3.7443" fill="none" stroke="#fff"/>
<path d="m 392.526 2562.31 c 2.2629 -0.956 3.9735 -0.2439 4.1846 1.3435 0.1711 1.2863 -1.3654 1.9629 -2.1306 0.6641" fill="none" stroke="#fff"/>
<path d="m 396.376 2555.47 c 3.2961 -1.0506 5.7293 -4.539 4.3706 -6.873" fill="none" stroke="#000"/>
</g>
</svg>
