<svg viewBox="0 0 512 512" xmlns="http://www.w3.org/2000/svg">

<g transform="matrix(18.68858,0,0,18.68858,-9079.67304,-32680.78623)">
<path d="m 505.334 1751.75 c 1.9715 2.0572 1.3195 6.4598 6.8062 5.3222 -2.4689 4.1657 -10.5079 1.4639 -11.8745 -0.254 -2.9489 -3.7067 1.8373 -8.4396 5.0683 -5.0682 z" fill="#fff"/>
<path d="m 507.58 1760.59 c 0 3.4807 -8.0268 14.6645 -8.0268 14.6645 s -8.0268 -11.1838 -8.0268 -14.6645 c 0 -8.3293 16.0537 -8.2113 16.0537 0 z" fill="#fff"/>
<path d="m 493.802 1751.75 c -1.9716 2.0572 -1.1322 6.2457 -6.8062 5.9644 2.9773 3.8179 10.5079 0.8217 11.8745 -0.8962 2.9489 -3.7067 -1.8373 -8.4396 -5.0683 -5.0682 z" fill="#fff"/>
<path d="m 497.923 1756.34 c -1.2599 2.2095 -3.7711 4.3965 -8.9378 3.5323" fill="none" stroke="#000"/>
<path d="m 492.679 1753.84 c -0.8192 1.3309 -1.9316 2.3311 -3.596 2.7089 0.9233 0.8405 2.0514 0.6805 3.1947 0.4461" fill="#fff"/>
<path d="m 505.908 1757.14 c 1.2114 1.355 2.5686 2.1668 5.3113 2.145 -2.0907 1.0248 -3.8871 0.5983 -6.3548 -0.1625" fill="#fff"/>
<path d="m 500.944 1756.34 c 1.3115 2.2999 4.5992 4.4625 9.5533 3.996" fill="none" stroke="#000"/>
<path d="m 491.729 1761.72 1.5794 6.1464 0.3065 -2.5506" fill="#fff"/>
<path d="m 506.779 1763.37 -2.3013 5.914 v -2.5689" fill="#fff"/>
<path d="m 496.532 1772.17 0.1356 -3.8108 c 0.3254 2.1498 1.1777 4.091 2.2202 5.957"/>
<path d="m 502.919 1772.08 0.1076 -3.8819 c -0.4693 2.164 -1.4606 4.0822 -2.6404 5.9116"/>
</g>
</svg>
