<svg viewBox="0 0 512 512" xmlns="http://www.w3.org/2000/svg">

<g transform="matrix(18.68858,0,0,18.68858,-5276.10838,-15415.27135)">
<g transform="matrix(.94715,0,0,.94715,209.27654,42.24047)">
<path d="m 79.5937 834.053 c 12.0101 -7.2349 19.714 -1.5355 25.2001 10.5164 -9.9048 0.008 -20.0345 9.5577 -25.2001 -10.5164 z" fill="#fff" fill-rule="evenodd"/>
<path d="m 99.25 838.362 c 0 4.9706 -3.3579 9 -7.5 9 s -7.5 -4.0294 -7.5 -9 3.3579 -9 7.5 -9 7.5 4.0294 7.5 9 z" fill="none" stroke="#000" stroke-width=".9388" transform="matrix(1.18634,0,0,1.06612,-15.972,-54.4017)"/>
<path d="m 94.3248 829.545 c 2.5096 6.5038 2.0593 13.5396 -2.2298 19.2137 -2.6103 -6.9265 -1.1012 -13.2119 2.2298 -19.2137 z" fill-rule="evenodd"/>
<path d="m 96.6875 836.175 c 0 0.932 -0.7555 1.6875 -1.6875 1.6875 s -1.6875 -0.7555 -1.6875 -1.6875 0.7555 -1.6875 1.6875 -1.6875 1.6875 0.7555 1.6875 1.6875 z" fill="#fff" transform="matrix(.93872,0,0,.93841,5.96863,50.32863)"/>
</g>
<path d="m 283.313 833.228 c 0.9715 16.2343 12.3474 17.2984 25.3876 10.0146 -9.9785 0.2358 -20.1836 10.0899 -25.3876 -10.0146 z" fill="#fff" fill-rule="evenodd"/>
<path d="m 285.856 846.695 c 6.9693 6.1993 18.3057 4.4069 22.5286 -2.0943 -6.7988 4.2312 -14.3051 5.9739 -22.5286 2.0943 z" fill="#fff" fill-rule="evenodd"/>
<path d="m 289.8 827.872 c 12.3394 -2.2281 19.0543 3.7192 19.0543 12.6427 -2.8888 -7.9325 -8.3621 -13.4237 -19.0543 -12.6427 z" fill="#fff" fill-rule="evenodd"/>
</g>
</svg>
