<svg viewBox="0 0 512 512" xmlns="http://www.w3.org/2000/svg">

<g transform="matrix(18.68858,0,0,18.68858,-1589.76971,-3637.15873)">
<path d="m102.3588,210.1627c-8.5788-6.671-11.1824-16.1095-1.1434-15.0262 2.3962,4.4661 3.3828,8.9027 1.1434,15.0262z" fill="#fff" fill-rule="evenodd" stroke="#000"/>
<path d="m97.6019,211.0837c-5.3065-3.8534-10.1449,1.5828-11.4414,7.4905 6.0641,3.8936 10.1352-.4026 12.8289-6.1254 1.7122,2.4674 4.3485,1.856 5.5555-.8159 .7673,3.2233 4.6122,3.3846 5.5186.4249 .8788-2.8697-2.7326-5.3472-4.8665-2.7769-1.0604-3.6062-7.0479-4.2542-7.5951,1.8028z" fill="#fff"/>
<path d="m104.7402,207.5022c-1.3525-1.5772-3.3714-1.5945-5.1707-.5745" fill="none" stroke="#000"/>
<path d="m100.9702,209.4633c-12.5416-.1211-20.343-7.634-11.7449-13.9409 5.0166,2.3436 9.2136,5.6221 12.8089,12.3333" fill="#fff" fill-rule="evenodd" stroke="#000"/>
<path d="m106.862,208.7807-.8067-3.7594c1.987.3518 3.7417,1.2865 5.0326,3.3853" fill="none" stroke="#fff"/>
<path d="m97.5101,213.1005 1.6092,3.6833" fill="none" stroke="#fff"/>
<path d="m100.8094,212.0132 .1087,3.4496 2.0552,1.6749" fill="none" stroke="#fff"/>
<path d="m103.5923,211.4765 .0922,3.3965 3.3323,1.2888" fill="none" stroke="#fff"/>
<path d="m491.837,368.9877c0,1.0495-.6035,1.9003-1.3479,1.9003s-1.3479-.8508-1.3479-1.9003 .6035-1.9003 1.3479-1.9003 1.3479.8508 1.3479,1.9003z" stroke="#fff" stroke-width=".8432" transform="matrix(1.04751,-.55615,.55649,1.04718,-612.04444,97.44524)"/>
<path d="m87.7033,196.8513 1.3479,1.3037" fill="none" stroke="#000"/>
<path d="m86.1344,199.5693 1.4142.3315" fill="none" stroke="#000"/>
<path d="m87.7475,202.2872-1.6352.7955" fill="none" stroke="#000"/>
<path d="m89.2722,204.4969-1.1932,1.2816" fill="none" stroke="#000"/>
<path d="m91.8355,205.9775-.8397,1.6131" fill="none" stroke="#000"/>
<path d="m94.2662,206.9718-.5303,1.5468" fill="none" stroke="#000"/>
<path d="m96.8957,207.5906-.2431,1.4584" fill="none" stroke="#000"/>
<path d="m99.1275,195.1278 .2652,1.5468" fill="none" stroke="#000"/>
<path d="m96.3569,195.8791 1.0776,1.37" fill="none" stroke="#000"/>
<path d="m95.0175,198.7517 1.591-.0884" fill="none" stroke="#000"/>
</g>
</svg>
