<svg viewBox="0 0 512 512" xmlns="http://www.w3.org/2000/svg">

<g transform="matrix(18.68858,0,0,18.68858,-1589.76971,-3637.15873)">
<path d="m 102.359 210.163 c -8.5788 -6.671 -11.1824 -16.1095 -1.1434 -15.0262 2.3962 4.4661 3.3828 8.9027 1.1434 15.0262 z" fill="#fff" fill-rule="evenodd" stroke="#000"/>
<path d="m 97.6019 211.084 c -5.3065 -3.8534 -10.1449 1.5828 -11.4414 7.4905 6.0641 3.8936 10.1352 -0.4026 12.8289 -6.1254 1.7122 2.4674 4.3485 1.856 5.5555 -0.8159 0.7673 3.2233 4.6122 3.3846 5.5186 0.4249 0.8788 -2.8697 -2.7326 -5.3472 -4.8665 -2.7769 -1.0604 -3.6062 -7.0479 -4.2542 -7.5951 1.8028 z" fill="#fff"/>
<path d="m 104.74 207.502 c -1.3525 -1.5772 -3.3714 -1.5945 -5.1707 -0.5745" fill="none" stroke="#000"/>
<path d="m 100.97 209.463 c -12.5416 -0.1211 -20.343 -7.634 -11.7449 -13.9409 5.0166 2.3436 9.2136 5.6221 12.8089 12.3333" fill="#fff" fill-rule="evenodd" stroke="#000"/>
<path d="m 106.862 208.781 -0.8067 -3.7594 c 1.987 0.3518 3.7417 1.2865 5.0326 3.3853" fill="none" stroke="#fff"/>
<path d="m 97.5101 213.101 1.6092 3.6833" fill="none" stroke="#fff"/>
<path d="m 100.809 212.013 0.1087 3.4496 2.0552 1.6749" fill="none" stroke="#fff"/>
<path d="m 103.592 211.476 0.0922 3.3965 3.3323 1.2888" fill="none" stroke="#fff"/>
<path d="m 491.837 368.988 c 0 1.0495 -0.6035 1.9003 -1.3479 1.9003 s -1.3479 -0.8508 -1.3479 -1.9003 0.6035 -1.9003 1.3479 -1.9003 1.3479 0.8508 1.3479 1.9003 z" stroke="#fff" stroke-width=".8432" transform="matrix(1.04751,-.55615,.55649,1.04718,-612.04444,97.44524)"/>
<path d="m 87.7033 196.851 1.3479 1.3037" fill="none" stroke="#000"/>
<path d="m 86.1344 199.569 1.4142 0.3315" fill="none" stroke="#000"/>
<path d="m 87.7475 202.287 -1.6352 0.7955" fill="none" stroke="#000"/>
<path d="m 89.2722 204.497 -1.1932 1.2816" fill="none" stroke="#000"/>
<path d="m 91.8355 205.977 -0.8397 1.6131" fill="none" stroke="#000"/>
<path d="m 94.2662 206.972 -0.5303 1.5468" fill="none" stroke="#000"/>
<path d="m 96.8957 207.591 -0.2431 1.4584" fill="none" stroke="#000"/>
<path d="m 99.1275 195.128 0.2652 1.5468" fill="none" stroke="#000"/>
<path d="m 96.3569 195.879 1.0776 1.37" fill="none" stroke="#000"/>
<path d="m 95.0175 198.752 1.591 -0.0884" fill="none" stroke="#000"/>
</g>
</svg>
