<svg viewBox="0 0 512 512" xmlns="http://www.w3.org/2000/svg">

<g transform="matrix(18.68858,0,0,18.68858,-9760.85563,-23139.6738)">
<path d="m529.4116,1250.777c2.3542,1.0884 3.3147,3.3713 4.2775,5.6524 1.7556-2.9103 2.437-5.928 3.2081-8.9368" fill="none" stroke="#fff"/>
<path d="m532.1614,1245.1628c2.2024,3.3078 2.8565,6.656 3.1317,10.4645 .7375-2.5084 2.3691-4.5696 4.7358-6.2634" fill="none" stroke="#fff"/>
<path d="m532.8489,1255.4745c.552,2.6352.4557,5.6333-.191,8.2685h4.6594c-1.9217-2.8007-1.9416-6.1934-1.2221-8.9559" fill="#fff" fill-rule="evenodd"/>
<path d="m535.6776,1259.1984c.5113-2.486 1.5259-3.9243 3.0742-5.4234-1.7324.6902-3.2959,1.6728-4.2408,3.727" fill="#fff" fill-rule="evenodd"/>
<path d="m530.8438,1240.9063c-2.9822-2.1178-7.0659.7325-5.75,3.7812-2.4464,1.6386-2.8794,3.8793-1.5938,6.4688-.8729,1.2263-.5623,2.5997.4062,3.4062 1.2875,1.0721 2.8138.5332 3.9375-.8437 3.1975-.1384 5.2528-2.4408 4.8438-5.4688 .5419-.186 1.0007-.5555 1.2812-1.0625 .5148.401 1.4651.5974 2.125.4063 .2571,1.755 1.4619,3.1591 3.0312,3.625-.4056,1.9221 1.2732,3.2446 3.25,2.7187 1.5837,2.2085 4.059,2.36 5.8125.5938 1.5418-1.5531 1.1071-3.6395-.375-5 1.211-.8608.8038-3.04-.625-3.2188 .6768-4.9324-4.5925-8.3413-9.5-5.9062-1.8736-2.3374-5.8955-2.1403-6.8438.5z" fill="#fff" stroke="#000"/>
<path d="m528.0503,1264.7876h13.5341c-5.1916-2.4466-8.1814-2.449-13.5341,0z" fill="#fff" fill-rule="evenodd"/>
</g>
</svg>
