<svg viewBox="0 0 512 512" xmlns="http://www.w3.org/2000/svg">

<g transform="matrix(18.68858,0,0,18.68858,-9760.85563,-23139.6738)">
<path d="m 529.412 1250.78 c 2.3542 1.0884 3.3147 3.3713 4.2775 5.6524 1.7556 -2.9103 2.437 -5.928 3.2081 -8.9368" fill="none" stroke="#fff"/>
<path d="m 532.161 1245.16 c 2.2024 3.3078 2.8565 6.656 3.1317 10.4645 0.7375 -2.5084 2.3691 -4.5696 4.7358 -6.2634" fill="none" stroke="#fff"/>
<path d="m 532.849 1255.47 c 0.552 2.6352 0.4557 5.6333 -0.191 8.2685 h 4.6594 c -1.9217 -2.8007 -1.9416 -6.1934 -1.2221 -8.9559" fill="#fff" fill-rule="evenodd"/>
<path d="m 535.678 1259.2 c 0.5113 -2.486 1.5259 -3.9243 3.0742 -5.4234 -1.7324 0.6902 -3.2959 1.6728 -4.2408 3.727" fill="#fff" fill-rule="evenodd"/>
<path d="m 530.844 1240.91 c -2.9822 -2.1178 -7.0659 0.7325 -5.75 3.7812 -2.4464 1.6386 -2.8794 3.8793 -1.5938 6.4688 -0.8729 1.2263 -0.5623 2.5997 0.4062 3.4062 1.2875 1.0721 2.8138 0.5332 3.9375 -0.8437 3.1975 -0.1384 5.2528 -2.4408 4.8438 -5.4688 0.5419 -0.186 1.0007 -0.5555 1.2812 -1.0625 0.5148 0.401 1.4651 0.5974 2.125 0.4063 0.2571 1.755 1.4619 3.1591 3.0312 3.625 -0.4056 1.9221 1.2732 3.2446 3.25 2.7187 1.5837 2.2085 4.059 2.36 5.8125 0.5938 1.5418 -1.5531 1.1071 -3.6395 -0.375 -5 1.211 -0.8608 0.8038 -3.04 -0.625 -3.2188 0.6768 -4.9324 -4.5925 -8.3413 -9.5 -5.9062 -1.8736 -2.3374 -5.8955 -2.1403 -6.8438 0.5 z" fill="#fff" stroke="#000"/>
<path d="m 528.05 1264.79 h 13.5341 c -5.1916 -2.4466 -8.1814 -2.449 -13.5341 0 z" fill="#fff" fill-rule="evenodd"/>
</g>
</svg>
