<svg viewBox="0 0 512 512" xmlns="http://www.w3.org/2000/svg">

<g transform="matrix(18.68858,0,0,18.68858,-211.6375,-5999.6283)">
<g transform="matrix(1.13924,.1287,-.16234,1.14247,50.76735,-50.30555)">
<path d="m 15.3125 328.925 c 2.5 0.4198 5 0.5024 7.5 0 v 12 c -2.5 0.2454 -5 0.7575 -7.5 0 -0.7122 -4 -0.7178 -8 0 -12 z" fill="#fff"/>
<path d="m 16.8635 330.803 c 1.9094 0.2303 3.7935 0.0243 5.7022 -0.4596 l -0.0407 8.943 c -1.9089 0.2849 -3.8175 0.7763 -5.7272 0.2845 -0.547 -3.0707 -0.4794 -5.643 0.0656 -8.7679 z"/>
</g>
<path d="m 20.8694 326.328 c 0.894 3.102 0.1087 13.1085 -1.6647 18.8622 h 16.1461 c -1.2932 -6.2839 -2.4274 -15.2299 -1.2786 -18.8622 h -13.2028 z" fill="#fff" stroke="#000"/>
<path d="m 18.1975 344.228 h 17.7001 l 1.6113 3.5892 h -20.6925 l 1.3811 -3.5892 z" fill="#fff" stroke="#000"/>
<path d="m 22.0058 323.489 c -1.731 -0.3834 -3.0335 0.4385 -3.0554 2.0479 -0.0319 2.3488 2.1294 2.4719 3.8462 1.473 0.9748 0.898 1.6571 0.9742 2.8397 0.6108 0.1928 0.9411 1.0506 1.6527 2.0489 1.6527 0.9393 0 1.6899 -0.651 1.9411 -1.509 0.6751 0.0753 1.3622 -0.2633 1.7664 -0.7186 2.2066 1.8365 4.4942 0.6061 4.3802 -1.8683 -0.1113 -2.3801 -2.7705 -3.2982 -4.8886 -1.8682 -0.9041 -1.2313 -2.5909 -1.5538 -3.5586 -0.503 -1.4982 -1.8887 -4.4967 -1.5281 -5.3199 0.6826 z" fill="#fff" stroke="#000"/>
</g>
</svg>
