<svg viewBox="0 0 512 512" xmlns="http://www.w3.org/2000/svg">

<g transform="matrix(18.68858,0,0,18.68858,-211.6375,-5999.6283)">
<g transform="matrix(1.13924,.1287,-.16234,1.14247,50.76735,-50.30555)">
<path d="m15.3125,328.9246c2.5.4198 5,.5024 7.5,0v12c-2.5.2454-5,.7575-7.5,0-.7122-4-.7178-8 0-12z" fill="#fff"/>
<path d="m16.8635,330.8029c1.9094.2303 3.7935.0243 5.7022-.4596l-.0407,8.943c-1.9089.2849-3.8175.7763-5.7272.2845-.547-3.0707-.4794-5.643.0656-8.7679z"/>
</g>
<path d="m20.8694,326.3277c.894,3.102.1087,13.1085-1.6647,18.8622h16.1461c-1.2932-6.2839-2.4274-15.2299-1.2786-18.8622h-13.2028z" fill="#fff" stroke="#000"/>
<path d="m18.1975,344.2282h17.7001l1.6113,3.5892h-20.6925l1.3811-3.5892z" fill="#fff" stroke="#000"/>
<path d="m22.0058,323.4894c-1.731-.3834-3.0335.4385-3.0554,2.0479-.0319,2.3488 2.1294,2.4719 3.8462,1.473 .9748.898 1.6571.9742 2.8397.6108 .1928.9411 1.0506,1.6527 2.0489,1.6527 .9393,0 1.6899-.651 1.9411-1.509 .6751.0753 1.3622-.2633 1.7664-.7186 2.2066,1.8365 4.4942.6061 4.3802-1.8683-.1113-2.3801-2.7705-3.2982-4.8886-1.8682-.9041-1.2313-2.5909-1.5538-3.5586-.503-1.4982-1.8887-4.4967-1.5281-5.3199.6826z" fill="#fff" stroke="#000"/>
</g>
</svg>
