<svg viewBox="0 0 512 512" xmlns="http://www.w3.org/2000/svg">

<g transform="matrix(18.68858,0,0,18.68858,2603.71043,-5415.12295)">
<path d="m -125.862 290.784 v 11.4125" fill="none" stroke="#000"/>
<path d="m -126.597 309.372 v -17.856 c -9.5362 1.9991 -15.2927 17.856 0 17.856 z" fill-rule="evenodd" stroke="#fff"/>
<path d="m -124.405 309.372 v -17.856 c 9.5362 1.9991 15.2927 17.856 0 17.856 z" fill-rule="evenodd" stroke="#fff"/>
<path d="m -131.381 307.092 h 11.7608 c -0.0886 -2.9618 -4.0082 -6.5503 -5.9525 -7.5337 -1.929 0.8314 -5.7058 4.5184 -5.8082 7.5337 z" fill="#fff" fill-rule="evenodd" stroke="#000"/>
<path d="m 624.994 308.442 a 6.5407 3.2704 0 1 1 -13.0815 0 6.5407 3.2704 0 1 1 13.0815 0 z" fill="#fff" stroke="#000" stroke-width=".92" transform="matrix(1.08691,0,0,1.08691,-797.70137,-26.34965)"/>
<path d="m 614.299 310.209 a 1.7678 1.7678 0 1 1 -3.5355 0 1.7678 1.7678 0 1 1 3.5355 0 z" fill="#fff" stroke="#000" stroke-width=".92" transform="matrix(1.08691,0,0,1.08691,-797.26908,-24.09201)"/>
<path d="m 614.299 310.209 a 1.7678 1.7678 0 1 1 -3.5355 0 1.7678 1.7678 0 1 1 3.5355 0 z" fill="#fff" stroke="#000" stroke-width=".92" transform="matrix(1.08691,0,0,1.08691,-785.26035,-24.09201)"/>
<path d="m 624.375 310.077 a 5.0381 2.5191 0 1 1 -10.0763 0 5.0381 2.5191 0 1 1 10.0763 0 z" fill="#fff" stroke="#000" stroke-width=".9258" transform="matrix(1.00177,0,0,1.16453,-745.93662,-48.16224)"/>
<path d="m -121.901 292.55 v 7.8125" fill="none" stroke="#fff"/>
<path d="m -119.589 294.12 v 8.8543" fill="none" stroke="#fff"/>
<path d="m -117.276 296.11 v 8.7544" fill="none" stroke="#fff"/>
<path d="m -128.9 292.55 v 7.8125" fill="none" stroke="#fff"/>
<path d="m -131.212 294.12 v 8.8543" fill="none" stroke="#fff"/>
<path d="m -133.525 296.11 v 8.7544" fill="none" stroke="#fff"/>
</g>
</svg>
