<svg viewBox="0 0 512 512" xmlns="http://www.w3.org/2000/svg">

<g transform="matrix(18.68858,0,0,18.68858,2603.71043,-5415.12295)">
<path d="m-125.8621,290.7841v11.4125" fill="none" stroke="#000"/>
<path d="m-126.5969,309.3719v-17.856c-9.5362,1.9991-15.2927,17.856 0,17.856z" fill-rule="evenodd" stroke="#fff"/>
<path d="m-124.4047,309.3719v-17.856c9.5362,1.9991 15.2927,17.856 0,17.856z" fill-rule="evenodd" stroke="#fff"/>
<path d="m-131.3811,307.0922h11.7608c-.0886-2.9618-4.0082-6.5503-5.9525-7.5337-1.929.8314-5.7058,4.5184-5.8082,7.5337z" fill="#fff" fill-rule="evenodd" stroke="#000"/>
<path d="m624.994,308.4416a6.5407,3.2704 0 1,1 -13.0815,0 6.5407,3.2704 0 1,1 13.0815,0z" fill="#fff" stroke="#000" stroke-width=".92" transform="matrix(1.08691,0,0,1.08691,-797.70137,-26.34965)"/>
<path d="m614.299,310.2094a1.7678,1.7678 0 1,1 -3.5355,0 1.7678,1.7678 0 1,1 3.5355,0z" fill="#fff" stroke="#000" stroke-width=".92" transform="matrix(1.08691,0,0,1.08691,-797.26908,-24.09201)"/>
<path d="m614.299,310.2094a1.7678,1.7678 0 1,1 -3.5355,0 1.7678,1.7678 0 1,1 3.5355,0z" fill="#fff" stroke="#000" stroke-width=".92" transform="matrix(1.08691,0,0,1.08691,-785.26035,-24.09201)"/>
<path d="m624.3753,310.0768a5.0381,2.5191 0 1,1 -10.0763,0 5.0381,2.5191 0 1,1 10.0763,0z" fill="#fff" stroke="#000" stroke-width=".9258" transform="matrix(1.00177,0,0,1.16453,-745.93662,-48.16224)"/>
<path d="m-121.9015,292.5497v7.8125" fill="none" stroke="#fff"/>
<path d="m-119.589,294.1203v8.8543" fill="none" stroke="#fff"/>
<path d="m-117.2765,296.11v8.7544" fill="none" stroke="#fff"/>
<path d="m-128.8996,292.5497v7.8125" fill="none" stroke="#fff"/>
<path d="m-131.2121,294.1203v8.8543" fill="none" stroke="#fff"/>
<path d="m-133.5246,296.11v8.7544" fill="none" stroke="#fff"/>
</g>
</svg>
