<svg viewBox="0 0 512 512" xmlns="http://www.w3.org/2000/svg">

<g transform="matrix(18.68858,0,0,18.68858,-11122.79457,-29262.67298)">
<g fill="#fff" transform="matrix(1.15493,0,0,1.15493,-93.14527,-246.64373)">
<path d="m 601.573 1584.65 c -1.2174 2.3248 -0.2384 4.1878 1.1507 5.9726 -0.4044 -1.838 -0.6395 -3.7262 1.0975 -6.1363" fill="#fff"/>
<path d="m 603.696 1585.67 c -0.7235 2.3515 -0.1187 4.2883 1.1419 5.9147 -0.2417 -1.7642 -0.2647 -3.783 1.0287 -6.2644" fill="#fff"/>
<path d="m 605.662 1586.39 c -0.0176 2.0786 0.5469 3.9927 1.3128 5.85 -0.076 -1.9991 0.0994 -4.0323 0.722 -6.1261" fill="#fff"/>
<path d="m 614.07 1584.65 c 1.2174 2.3248 0.2384 4.1878 -1.1507 5.9726 0.4044 -1.838 0.6395 -3.7262 -1.0975 -6.1363" fill="#fff"/>
<path d="m 611.947 1585.67 c 0.7235 2.3515 0.1187 4.2883 -1.1419 5.9147 0.2417 -1.7642 0.2647 -3.783 -1.0287 -6.2644" fill="#fff"/>
<path d="m 609.981 1586.39 c 0.0176 2.0786 -0.5469 3.9927 -1.3128 5.85 0.076 -1.9991 -0.0994 -4.0323 -0.722 -6.1261" fill="#fff"/>
</g>
<path d="m 617.341 1579.79 c 0 4.7771 -3.8727 8.6498 -8.6498 8.6498 s -8.6498 -3.8727 -8.6498 -8.6498 3.8727 -8.6499 8.6498 -8.6499 8.6498 3.8727 8.6498 8.6499 z" fill="#fff" stroke="#000" stroke-width=".8349" transform="matrix(1.1977,0,0,1.1977,-120.18591,-315.37287)"/>
<path d="m 607.534 1587.4 3.1141 -21.2277" fill="none" stroke="#000"/>
<path d="m 602.146 1585.02 15.2785 -15.2786" fill="none" stroke="#000"/>
<path d="m 598.445 1576.36 20.4475 3.9729" fill="none" stroke="#000"/>
<path d="m 600.713 1569.24 14.2193 16.0854" fill="none" stroke="#000"/>
<path d="m 469.571 1359.96 c 0 3.7926 -3.0745 6.8671 -6.867 6.8671 s -6.867 -3.0745 -6.867 -6.8671 3.0745 -6.867 6.867 -6.867 6.867 3.0745 6.867 6.867 z" fill="#fff" stroke="#000" stroke-width="1.0634" transform="matrix(-.94037,0,0,.94037,1043.95793,299.63097)"/>
<path d="m 469.571 1359.96 c 0 3.7926 -3.0745 6.8671 -6.867 6.8671 s -6.867 -3.0745 -6.867 -6.8671 3.0745 -6.867 6.867 -6.867 6.867 3.0745 6.867 6.867 z" transform="matrix(-.56904,0,0,.56904,872.4348,804.14262)"/>
<path d="m 469.571 1359.96 c 0 3.7926 -3.0745 6.8671 -6.867 6.8671 s -6.867 -3.0745 -6.867 -6.8671 3.0745 -6.867 6.867 -6.867 6.867 3.0745 6.867 6.867 z" fill="#fff" transform="matrix(-.28452,0,0,.28452,741.82823,1188.08327)"/>
<path d="m 469.571 1359.96 c 0 3.7926 -3.0745 6.8671 -6.867 6.8671 s -6.867 -3.0745 -6.867 -6.8671 3.0745 -6.867 6.867 -6.867 6.867 3.0745 6.867 6.867 z" fill="#fff" transform="matrix(-.18494,0,0,.18494,694.5138,1327.58148)"/>
</g>
</svg>
