<svg viewBox="0 0 512 512" xmlns="http://www.w3.org/2000/svg">

<g transform="matrix(18.68858,0,0,18.68858,-11122.79457,-29262.67298)">
<g fill="#fff" transform="matrix(1.15493,0,0,1.15493,-93.14527,-246.64373)">
<path d="m601.5729,1584.6457c-1.2174,2.3248-.2384,4.1878 1.1507,5.9726-.4044-1.838-.6395-3.7262 1.0975-6.1363" fill="#fff"/>
<path d="m603.6959,1585.6722c-.7235,2.3515-.1187,4.2883 1.1419,5.9147-.2417-1.7642-.2647-3.783 1.0287-6.2644" fill="#fff"/>
<path d="m605.6622,1586.3883c-.0176,2.0786.5469,3.9927 1.3128,5.85-.076-1.9991.0994-4.0323.722-6.1261" fill="#fff"/>
<path d="m614.0701,1584.6457c1.2174,2.3248.2384,4.1878-1.1507,5.9726 .4044-1.838.6395-3.7262-1.0975-6.1363" fill="#fff"/>
<path d="m611.9471,1585.6722c.7235,2.3515.1187,4.2883-1.1419,5.9147 .2417-1.7642.2647-3.783-1.0287-6.2644" fill="#fff"/>
<path d="m609.9808,1586.3883c.0176,2.0786-.5469,3.9927-1.3128,5.85 .076-1.9991-.0994-4.0323-.722-6.1261" fill="#fff"/>
</g>
<path d="m617.3406,1579.7874c0,4.7771-3.8727,8.6498-8.6498,8.6498s-8.6498-3.8727-8.6498-8.6498 3.8727-8.6499 8.6498-8.6499 8.6498,3.8727 8.6498,8.6499z" fill="#fff" stroke="#000" stroke-width=".8349" transform="matrix(1.1977,0,0,1.1977,-120.18591,-315.37287)"/>
<path d="m607.5341,1587.3996 3.1141-21.2277" fill="none" stroke="#000"/>
<path d="m602.146,1585.0239 15.2785-15.2786" fill="none" stroke="#000"/>
<path d="m598.4453,1576.3562 20.4475,3.9729" fill="none" stroke="#000"/>
<path d="m600.7128,1569.2351 14.2193,16.0854" fill="none" stroke="#000"/>
<path d="m469.5706,1359.9604c0,3.7926-3.0745,6.8671-6.867,6.8671s-6.867-3.0745-6.867-6.8671 3.0745-6.867 6.867-6.867 6.867,3.0745 6.867,6.867z" fill="#fff" stroke="#000" stroke-width="1.0634" transform="matrix(-.94037,0,0,.94037,1043.95793,299.63097)"/>
<path d="m469.5706,1359.9604c0,3.7926-3.0745,6.8671-6.867,6.8671s-6.867-3.0745-6.867-6.8671 3.0745-6.867 6.867-6.867 6.867,3.0745 6.867,6.867z" transform="matrix(-.56904,0,0,.56904,872.4348,804.14262)"/>
<path d="m469.5706,1359.9604c0,3.7926-3.0745,6.8671-6.867,6.8671s-6.867-3.0745-6.867-6.8671 3.0745-6.867 6.867-6.867 6.867,3.0745 6.867,6.867z" fill="#fff" transform="matrix(-.28452,0,0,.28452,741.82823,1188.08327)"/>
<path d="m469.5706,1359.9604c0,3.7926-3.0745,6.8671-6.867,6.8671s-6.867-3.0745-6.867-6.8671 3.0745-6.867 6.867-6.867 6.867,3.0745 6.867,6.867z" fill="#fff" transform="matrix(-.18494,0,0,.18494,694.5138,1327.58148)"/>
</g>
</svg>
