<svg viewBox="0 0 512 512" xmlns="http://www.w3.org/2000/svg">

<g transform="matrix(18.68858,0,0,18.68858,-5674.16012,-23142.75802)">
<path d="m304.8277,1261.0012v-5.2263h25.2931v5.2263h-25.2931z" fill="#fff"/>
<path d="m309.3992,1253.0014v2.2296h7.6971v6.3283h-7.6971v2.265h11v-10.8229h-11z" fill="#fff" stroke="#000"/>
<path d="m273.6772,1252.3116c0,.5627-.4561,1.0188-1.0188,1.0188s-1.0188-.4561-1.0188-1.0188 .4561-1.0187 1.0188-1.0187 1.0188.4561 1.0188,1.0187z" transform="matrix(.89023,0,0,.89023,80.52972,143.54136)"/>
<path d="m273.6772,1252.3116c0,.5627-.4561,1.0188-1.0188,1.0188s-1.0188-.4561-1.0188-1.0188 .4561-1.0187 1.0188-1.0187 1.0188.4561 1.0188,1.0187z" transform="matrix(.89023,0,0,.89023,84.66494,143.54136)"/>
<path d="m330.1627,1247.6636h-25.4647m0-4.3223h25.4647" stroke="#fff"/>
<path d="m312.4307,1240.1158v2.2296h7.6971v6.3283h-7.6971v2.265h11v-10.8229h-11z" fill="#fff" stroke="#000"/>
<path d="m316.5797,1244.5579h3.8495c1.5222,0 1.4853,1.9517 0,1.9517h-3.8495c-1.6185,0-1.5972-1.9517 0-1.9517z" fill="#fff" stroke="#000"/>
<path d="m273.6772,1252.3116c0,.5627-.4561,1.0188-1.0188,1.0188s-1.0188-.4561-1.0188-1.0188 .4561-1.0187 1.0188-1.0187 1.0188.4561 1.0188,1.0187z" fill="#fff" stroke="#000" stroke-width=".9048" transform="matrix(1.10526,0,0,1.10526,24.55694,-138.67101)"/>
<path d="m273.6772,1252.3116c0,.5627-.4561,1.0188-1.0188,1.0188s-1.0188-.4561-1.0188-1.0188 .4561-1.0187 1.0188-1.0187 1.0188.4561 1.0188,1.0187z" fill="#fff" stroke="#000" stroke-width=".9048" transform="matrix(1.10526,0,0,1.10526,28.09171,-138.67101)"/>
<path d="m313.4893,1257.3863h3.8495c1.5222,0 1.4853,1.9517 0,1.9517h-3.8495c-1.6185,0-1.5972-1.9517 0-1.9517z" fill="#fff" stroke="#000"/>
</g>
</svg>
