<svg viewBox="0 0 512 512" xmlns="http://www.w3.org/2000/svg">

<g transform="matrix(18.68858,0,0,18.68858,-5674.16012,-23142.75802)">
<path d="m 304.828 1261 v -5.2263 h 25.2931 v 5.2263 h -25.2931 z" fill="#fff"/>
<path d="m 309.399 1253 v 2.2296 h 7.6971 v 6.3283 h -7.6971 v 2.265 h 11 v -10.8229 h -11 z" fill="#fff" stroke="#000"/>
<path d="m 273.677 1252.31 c 0 0.5627 -0.4561 1.0188 -1.0188 1.0188 s -1.0188 -0.4561 -1.0188 -1.0188 0.4561 -1.0187 1.0188 -1.0187 1.0188 0.4561 1.0188 1.0187 z" transform="matrix(.89023,0,0,.89023,80.52972,143.54136)"/>
<path d="m 273.677 1252.31 c 0 0.5627 -0.4561 1.0188 -1.0188 1.0188 s -1.0188 -0.4561 -1.0188 -1.0188 0.4561 -1.0187 1.0188 -1.0187 1.0188 0.4561 1.0188 1.0187 z" transform="matrix(.89023,0,0,.89023,84.66494,143.54136)"/>
<path d="m 330.163 1247.66 h -25.4647 m 0 -4.3223 h 25.4647" stroke="#fff"/>
<path d="m 312.431 1240.12 v 2.2296 h 7.6971 v 6.3283 h -7.6971 v 2.265 h 11 v -10.8229 h -11 z" fill="#fff" stroke="#000"/>
<path d="m 316.58 1244.56 h 3.8495 c 1.5222 0 1.4853 1.9517 0 1.9517 h -3.8495 c -1.6185 0 -1.5972 -1.9517 0 -1.9517 z" fill="#fff" stroke="#000"/>
<path d="m 273.677 1252.31 c 0 0.5627 -0.4561 1.0188 -1.0188 1.0188 s -1.0188 -0.4561 -1.0188 -1.0188 0.4561 -1.0187 1.0188 -1.0187 1.0188 0.4561 1.0188 1.0187 z" fill="#fff" stroke="#000" stroke-width=".9048" transform="matrix(1.10526,0,0,1.10526,24.55694,-138.67101)"/>
<path d="m 273.677 1252.31 c 0 0.5627 -0.4561 1.0188 -1.0188 1.0188 s -1.0188 -0.4561 -1.0188 -1.0188 0.4561 -1.0187 1.0188 -1.0187 1.0188 0.4561 1.0188 1.0187 z" fill="#fff" stroke="#000" stroke-width=".9048" transform="matrix(1.10526,0,0,1.10526,28.09171,-138.67101)"/>
<path d="m 313.489 1257.39 h 3.8495 c 1.5222 0 1.4853 1.9517 0 1.9517 h -3.8495 c -1.6185 0 -1.5972 -1.9517 0 -1.9517 z" fill="#fff" stroke="#000"/>
</g>
</svg>
