<svg viewBox="0 0 512 512" xmlns="http://www.w3.org/2000/svg">

<g transform="matrix(18.68858,0,0,18.68858,-6357.54729,-24502.68487)">
<path d="m 365.39 1317.52 c 0 0 -2.7365 -0.9504 -7.2243 0 -3.8579 0.8171 -9.9983 3.1548 -10.0425 7.3097 -0.0563 5.2955 6.3734 6.9667 10.2945 8.3164 3.1883 1.0976 5.3164 0.8086 6.2863 0.5468 0.5131 2.4317 -0.6415 3.4959 -3.6524 3.4959 -5.6408 -0.1712 -11.158 -2.4591 -16.7465 -6.983 -2.2831 -2.4465 1.7937 -9.3662 -3.1013 -8.3682 0.2572 -5.0024 3.9918 -9.1495 10.0302 -7.3107 3.702 -1.5827 9.5817 -3.176 12.002 -0.9114 l 2.154 3.9045 z" fill="#fff" fill-rule="evenodd"/>
<path d="m 362.364 1335 c 1.562 -2.6077 2.3606 -5.2643 3.1503 -7.9212 0.1182 2.9786 0.0479 6.1886 -1.0305 8.8534" fill="#fff" fill-rule="evenodd"/>
<path d="m 358.477 1334.49 3.5298 -7.7595 c -0.2111 2.9325 -0.5266 5.8652 -1.3645 8.7977" fill="#fff" fill-rule="evenodd"/>
<path d="m 358.776 1333.98 c -7.8803 -5.9983 -7.107 -11.8681 0.126 -17.6424" fill="none" stroke="#fff"/>
<path d="m 360.685 1315.23 c 3.4797 2.5198 4.7769 5.5528 5.6282 8.8077 0.3374 -3.8438 -0.6963 -7.3314 -3.1798 -10.443" fill="#fff" fill-rule="evenodd"/>
<path d="m 357.405 1314.97 c 1.6388 3.2792 2.7736 6.527 3.7308 9.7639 0.5422 -3.5691 0.0988 -7.1991 -1.0023 -10.8702" fill="#fff" fill-rule="evenodd"/>
<path d="m 351.971 1329.93 c -4.0632 -2.0248 -6.297 -5.2438 -3.8222 -9.5145" fill="none" stroke="#000"/>
<path d="m 351.368 1315.14 c -1.1323 2.4332 -4.0252 3.0241 -6.5706 2.5733 0.5144 -0.897 1.0863 -1.7959 1.1733 -2.6785 2.1217 -1.0436 4.0579 -0.8485 5.3973 0.1052 z" fill-rule="evenodd" stroke="#fff"/>
<path d="m 361.165 1318.24 c -0.293 -1.4099 -0.6487 -2.4006 -1.3074 -3.2838 1.1206 0.5463 1.9398 1.346 2.4442 2.8252" fill-rule="evenodd"/>
<path d="m 361.263 1332.95 c -0.332 1.494 -0.7245 2.5416 -1.4375 3.4707 1.1596 -0.6578 1.7765 -1.7804 2.4286 -3.1209" fill-rule="evenodd"/>
</g>
</svg>
