<svg viewBox="0 0 512 512" xmlns="http://www.w3.org/2000/svg">

<g transform="matrix(18.68858,0,0,18.68858,-6357.54729,-24502.68487)">
<path d="m365.3903,1317.523c0,0-2.7365-.9504-7.2243,0-3.8579.8171-9.9983,3.1548-10.0425,7.3097-.0563,5.2955 6.3734,6.9667 10.2945,8.3164 3.1883,1.0976 5.3164.8086 6.2863.5468 .5131,2.4317-.6415,3.4959-3.6524,3.4959-5.6408-.1712-11.158-2.4591-16.7465-6.983-2.2831-2.4465 1.7937-9.3662-3.1013-8.3682 .2572-5.0024 3.9918-9.1495 10.0302-7.3107 3.702-1.5827 9.5817-3.176 12.002-.9114l2.154,3.9045z" fill="#fff" fill-rule="evenodd"/>
<path d="m362.3636,1334.9994c1.562-2.6077 2.3606-5.2643 3.1503-7.9212 .1182,2.9786.0479,6.1886-1.0305,8.8534" fill="#fff" fill-rule="evenodd"/>
<path d="m358.4769,1334.4948 3.5298-7.7595c-.2111,2.9325-.5266,5.8652-1.3645,8.7977" fill="#fff" fill-rule="evenodd"/>
<path d="m358.7756,1333.9813c-7.8803-5.9983-7.107-11.8681.126-17.6424" fill="none" stroke="#fff"/>
<path d="m360.6855,1315.2252c3.4797,2.5198 4.7769,5.5528 5.6282,8.8077 .3374-3.8438-.6963-7.3314-3.1798-10.443" fill="#fff" fill-rule="evenodd"/>
<path d="m357.4046,1314.9679c1.6388,3.2792 2.7736,6.527 3.7308,9.7639 .5422-3.5691.0988-7.1991-1.0023-10.8702" fill="#fff" fill-rule="evenodd"/>
<path d="m351.9713,1329.9278c-4.0632-2.0248-6.297-5.2438-3.8222-9.5145" fill="none" stroke="#000"/>
<path d="m351.3677,1315.1434c-1.1323,2.4332-4.0252,3.0241-6.5706,2.5733 .5144-.897 1.0863-1.7959 1.1733-2.6785 2.1217-1.0436 4.0579-.8485 5.3973.1052z" fill-rule="evenodd" stroke="#fff"/>
<path d="m361.165,1318.2381c-.293-1.4099-.6487-2.4006-1.3074-3.2838 1.1206.5463 1.9398,1.346 2.4442,2.8252" fill-rule="evenodd"/>
<path d="m361.263,1332.9456c-.332,1.494-.7245,2.5416-1.4375,3.4707 1.1596-.6578 1.7765-1.7804 2.4286-3.1209" fill-rule="evenodd"/>
</g>
</svg>
