<svg viewBox="0 0 512 512" xmlns="http://www.w3.org/2000/svg">

<g transform="matrix(18.68858,0,0,18.68858,-5681.63912,-42866.83627)">
<path d="m304.5971,2307.9782c6.2258.1346 7.9058-8.7189 15.8381-9.4483" fill="none" stroke="#fff"/>
<path d="m312.5339,2302.3159c7.7862-9.9505 20.7437-1.2463 17.3193,4.0329-.0996-3.3106-2.0671-3.9579-3.0299.5683-.9076-5.8584-2.924-6.9728-3.6383-3.4896-.4738-2.6454-3.3299-3.6465-3.5761-1.0101-.9358-1.8739-4.0254-2.2226-6.858.9295z" fill="#fff"/>
<path d="m326.3816,2300.6642c-4.7147,5.3176-.4399,15.0704 4.6404,16.726" fill="none" stroke="#fff"/>
<path d="m328.3565,2320.6927h-4.6455c-2.9507-5.0776-3.5214-11.1276-1.6074-15.665-.9595,5.3081 1.7662,13.1976 6.2529,15.665z" fill="#fff"/>
<path d="m319.5145,2320.6927h-4.4294c-.3976-5.4017 1.6227-14.3687 5.8486-17.0694-3.0296,3.2014-3.9536,12.9815-1.4191,17.0694z" fill="#fff"/>
<path d="m311.2441,2321.0708h-5.0098c.7798-7.321 7.9875-17.5816 12.9659-18.1794-4.3245,2.335-8.2068,10.8021-7.9561,18.1794z" fill="#fff"/>
<path d="m304.4613,2312.6053v-4.4689c3.0566-.095 5.9747-3.3732 8.9379-5.6149-5.4046,5.642-4.8598,7.8747-8.9379,10.0838z" fill="#fff"/>
<path d="m304.5278,2294.2988h26.4314v26.4314h-26.4314z" fill="none" stroke="#000"/>
</g>
</svg>
