<svg viewBox="0 0 512 512" xmlns="http://www.w3.org/2000/svg">

<g transform="matrix(18.68858,0,0,18.68858,-5681.63912,-42866.83627)">
<path d="m 304.597 2307.98 c 6.2258 0.1346 7.9058 -8.7189 15.8381 -9.4483" fill="none" stroke="#fff"/>
<path d="m 312.534 2302.32 c 7.7862 -9.9505 20.7437 -1.2463 17.3193 4.0329 -0.0996 -3.3106 -2.0671 -3.9579 -3.0299 0.5683 -0.9076 -5.8584 -2.924 -6.9728 -3.6383 -3.4896 -0.4738 -2.6454 -3.3299 -3.6465 -3.5761 -1.0101 -0.9358 -1.8739 -4.0254 -2.2226 -6.858 0.9295 z" fill="#fff"/>
<path d="m 326.382 2300.66 c -4.7147 5.3176 -0.4399 15.0704 4.6404 16.726" fill="none" stroke="#fff"/>
<path d="m 328.356 2320.69 h -4.6455 c -2.9507 -5.0776 -3.5214 -11.1276 -1.6074 -15.665 -0.9595 5.3081 1.7662 13.1976 6.2529 15.665 z" fill="#fff"/>
<path d="m 319.514 2320.69 h -4.4294 c -0.3976 -5.4017 1.6227 -14.3687 5.8486 -17.0694 -3.0296 3.2014 -3.9536 12.9815 -1.4191 17.0694 z" fill="#fff"/>
<path d="m 311.244 2321.07 h -5.0098 c 0.7798 -7.321 7.9875 -17.5816 12.9659 -18.1794 -4.3245 2.335 -8.2068 10.8021 -7.9561 18.1794 z" fill="#fff"/>
<path d="m 304.461 2312.61 v -4.4689 c 3.0566 -0.095 5.9747 -3.3732 8.9379 -5.6149 -5.4046 5.642 -4.8598 7.8747 -8.9379 10.0838 z" fill="#fff"/>
<path d="m 304.528 2294.3 h 26.4314 v 26.4314 h -26.4314 z" fill="none" stroke="#000"/>
</g>
</svg>
