<svg viewBox="0 0 512 512" xmlns="http://www.w3.org/2000/svg">

<g transform="matrix(18.68858,0,0,18.68858,-9080.3348,-26544.86961)">
<g transform="matrix(1.13377,0,0,1.13392,-67.41537,-194.86783)">
<path d="m500.1562,1436.6645c-3.4131,0-6.1875-2.7745-6.1875-6.1876 0-1.5405.5676-2.949 1.5-4.0312-.4092.7532-.625,1.6138-.625,2.5312 0,2.9359 2.3767,5.3126 5.3125,5.3126s5.3125-2.3767 5.3125-5.3126c0-.9174-.2471-1.778-.6562-2.5312 .9341,1.0827 1.5312,2.4891 1.5312,4.0312 0,3.4131-2.7744,6.1876-6.1875,6.1876z" fill="#fff"/>
<path d="m500.1749,1436.6264c-1.7065-2.9558-5.4966-3.9713-8.4524-2.2647-1.3341.7701-2.2701,1.966-2.7411,3.3146 .4476-.731 1.0851-1.3482 1.8795-1.8069 2.5426-1.4679 5.7893-.5981 7.2571,1.9445s.598,5.7891-1.9445,7.257c-.7946.4588-1.6634.6751-2.5202.6972 1.4047.2677 2.9212.082 4.2567-.6894 2.9558-1.7066 3.9714-5.4965 2.2649-8.4523z" fill="#fff"/>
<path d="m500.1189,1436.6277c1.7066-2.9558 5.4966-3.9713 8.4524-2.2647 1.3341.7702 2.2701,1.966 2.741,3.3147-.4475-.7311-1.0849-1.3483-1.8793-1.8072-2.5425-1.468-5.7891-.598-7.2569,1.9444s-.598,5.7891 1.9446,7.2571c.7944.4587 1.6631.675 2.5203.697-1.4048.2677-2.9214.082-4.2568-.6895-2.9559-1.7065-3.9714-5.4966-2.265-8.4523z" fill="#fff"/>
</g>
<path d="m501.7217,1434.4406c0,1.1714-.9496,2.121-2.121,2.121s-2.1211-.9496-2.1211-2.121 .9496-2.1211 2.1211-2.1211 2.121.9496 2.121,2.1211z" fill="none" stroke="#fff" stroke-width=".3386" transform="matrix(2.95341,0,0,2.9538,-975.91165,-2802.821)"/>
<path d="m500.36,1433.524c0,.8678-.7034,1.5712-1.5712,1.5712s-1.5712-.7034-1.5712-1.5712 .7034-1.5711 1.5712-1.5711 1.5712.7034 1.5712,1.5711z" stroke="#fff" stroke-width=".735" transform="matrix(1.36053,0,0,1.36071,-178.88501,-516.49522)"/>
<path d="m499.0468,1433.8149 4.8974,2.6664" fill="none" stroke="#000"/>
<path d="m499.6788,1429.0933-9e-05,5.1845" fill="none" stroke="#000"/>
<path d="m499.9818,1434.0194-4.5685,2.4618" fill="none" stroke="#000"/>
</g>
</svg>
