<svg viewBox="0 0 512 512" xmlns="http://www.w3.org/2000/svg">

<g transform="matrix(18.68858,0,0,18.68858,-9080.3348,-26544.86961)">
<g transform="matrix(1.13377,0,0,1.13392,-67.41537,-194.86783)">
<path d="m 500.156 1436.66 c -3.4131 0 -6.1875 -2.7745 -6.1875 -6.1876 0 -1.5405 0.5676 -2.949 1.5 -4.0312 -0.4092 0.7532 -0.625 1.6138 -0.625 2.5312 0 2.9359 2.3767 5.3126 5.3125 5.3126 s 5.3125 -2.3767 5.3125 -5.3126 c 0 -0.9174 -0.2471 -1.778 -0.6562 -2.5312 0.9341 1.0827 1.5312 2.4891 1.5312 4.0312 0 3.4131 -2.7744 6.1876 -6.1875 6.1876 z" fill="#fff"/>
<path d="m 500.175 1436.63 c -1.7065 -2.9558 -5.4966 -3.9713 -8.4524 -2.2647 -1.3341 0.7701 -2.2701 1.966 -2.7411 3.3146 0.4476 -0.731 1.0851 -1.3482 1.8795 -1.8069 2.5426 -1.4679 5.7893 -0.5981 7.2571 1.9445 s 0.598 5.7891 -1.9445 7.257 c -0.7946 0.4588 -1.6634 0.6751 -2.5202 0.6972 1.4047 0.2677 2.9212 0.082 4.2567 -0.6894 2.9558 -1.7066 3.9714 -5.4965 2.2649 -8.4523 z" fill="#fff"/>
<path d="m 500.119 1436.63 c 1.7066 -2.9558 5.4966 -3.9713 8.4524 -2.2647 1.3341 0.7702 2.2701 1.966 2.741 3.3147 -0.4475 -0.7311 -1.0849 -1.3483 -1.8793 -1.8072 -2.5425 -1.468 -5.7891 -0.598 -7.2569 1.9444 s -0.598 5.7891 1.9446 7.2571 c 0.7944 0.4587 1.6631 0.675 2.5203 0.697 -1.4048 0.2677 -2.9214 0.082 -4.2568 -0.6895 -2.9559 -1.7065 -3.9714 -5.4966 -2.265 -8.4523 z" fill="#fff"/>
</g>
<path d="m 501.722 1434.44 c 0 1.1714 -0.9496 2.121 -2.121 2.121 s -2.1211 -0.9496 -2.1211 -2.121 0.9496 -2.1211 2.1211 -2.1211 2.121 0.9496 2.121 2.1211 z" fill="none" stroke="#fff" stroke-width=".3386" transform="matrix(2.95341,0,0,2.9538,-975.91165,-2802.821)"/>
<path d="m 500.36 1433.52 c 0 0.8678 -0.7034 1.5712 -1.5712 1.5712 s -1.5712 -0.7034 -1.5712 -1.5712 0.7034 -1.5711 1.5712 -1.5711 1.5712 0.7034 1.5712 1.5711 z" stroke="#fff" stroke-width=".735" transform="matrix(1.36053,0,0,1.36071,-178.88501,-516.49522)"/>
<path d="m 499.047 1433.81 4.8974 2.6664" fill="none" stroke="#000"/>
<path d="m 499.679 1429.09 -9e-05 5.1845" fill="none" stroke="#000"/>
<path d="m 499.982 1434.02 -4.5685 2.4618" fill="none" stroke="#000"/>
</g>
</svg>
