<svg viewBox="0 0 512 512" xmlns="http://www.w3.org/2000/svg">

<g transform="matrix(18.68858,0,0,18.68858,-7037.21169,-25864.71259)">
<path d="m 395.725 1397.89 c 2.8475 1.5739 5.2133 -2.8418 2.4228 -4.384 s -5.2702 2.8106 -2.4228 4.384 z" fill="#fff"/>
<path d="m 392.639 1391.39 c 2.8474 1.5738 5.2133 -2.8422 2.4228 -4.3843 s -5.2703 2.8107 -2.4228 4.3843 z" fill="#fff"/>
<path d="m 393.141 1404.08 c 2.8475 1.5736 5.2134 -2.8421 2.4229 -4.3844 s -5.2703 2.8108 -2.4229 4.3844 z" fill="#fff"/>
<path d="m 379.617 1402.75 c 2.8475 1.5736 5.2133 -2.8422 2.4228 -4.3841 s -5.2703 2.8103 -2.4228 4.3841 z" fill="#fff"/>
<path d="m 398.041 1396.9 c -1.3401 0.2043 -1.546 -2.5655 0.1955 -2.6321 2.3832 -0.091 5.0056 1.1789 3.6657 5.2944 -0.8662 -1.6256 -2.3347 -2.8951 -3.8612 -2.6623 z" stroke="#fff"/>
<path d="m 393.991 1403.58 c -1.1044 -0.7861 1 -3.1969 2.2785 -2.0125 1.7498 1.6205 3.259 4.1909 0.0405 7.085 0.5124 -1.9964 -1.0257 -4.1524 -2.319 -5.0725 z" stroke="#fff"/>
<path d="m 394.89 1390.33 c -1.1201 0.5916 -1.9713 -2.3908 -0.4651 -2.9451 2.0613 -0.7593 4.7351 -0.8572 5.4311 3.3275 -1.2839 -1.3948 -3.6544 -1.0753 -4.966 -0.3822 z" stroke="#fff"/>
<path d="m 377.425 1384.76 v 3.7187 c 3.1864 1.4937 7.9506 7.255 6.3125 8.4375 l 3.1562 -0.375 2.7352 -4.2428 c -2.12 1.8712 -5.5706 -3.1562 -6.8179 -7.5384 z" fill="#fff"/>
<path d="m 394.143 1399.39 -2.0871 3.4758 c -1.7657 -3.076 -5.444 -4.552 -6.6474 -4.1737 -1.1499 0.3614 -1.8562 1.4569 -2.2974 2.6493 l -3.1765 -3.1011 c 1.9928 -0.634 3.6334 -1.2633 5.1152 -2.1294 3.114 -1.8201 5.3699 -4.4582 6.573 -7.8556 l 2.7279 3.3785 c -1.7648 0.5271 -3.5234 1.9007 -4.7606 3.5071 2.1395 -0.3428 4.2332 -0.6852 6.3993 -1.7355 l -0.4619 4.3402 c -1.6957 -0.9153 -4.1208 -1.5862 -6.2683 -0.3454 0.8607 1.3385 3.1557 2.0071 4.8838 1.9898 z" fill="#fff"/>
<path d="m 381.036 1402.18 c 0.8238 -1.0767 -1.546 -2.5654 -2.4184 -1.0567 -1.1941 2.0646 -1.2965 4.9768 2.9681 5.7142 -1.496 -1.4176 -1.5143 -3.3969 -0.5497 -4.6575 z" stroke="#fff"/>
<path d="m 388.423 1394.25 2.2539 -3.6018 c -2.214 2.2919 -4.3172 1.2718 -5.8115 -1.2154 l 0.7411 4.3386 z" fill="#fff"/>
<path d="m 391.195 1394.96 c -0.6415 -0.1532 -0.8449 -0.5453 -0.3189 -1.3353 l -1.5147 1.6941 z" fill="#fff"/>
<path d="m 391.479 1398.95 c -1.3634 -0.9504 -1.1246 -1.8571 0.1977 -2.372 l -2.8449 0.5805 1.1841 1.5019 z" fill="#fff"/>
</g>
</svg>
