<svg viewBox="0 0 512 512" xmlns="http://www.w3.org/2000/svg">

<g transform="matrix(18.68858,0,0,18.68858,-13162.76352,-21805.26093)">
<path d="m 705.501 1183.66 v 9.4862 h 7.8819 c 0.1462 -13.8793 10.03 -17.3775 17.4298 -16.535 -3.486 -2.4598 -7.1102 -3.3702 -10.7655 -3.0758 -4.6876 -5.3398 -15.2501 -3.5551 -14.5462 10.1246 z" fill="#fff" fill-rule="evenodd"/>
<path d="m 715.437 1179.8 c 0 1.001 -0.8115 1.8125 -1.8125 1.8125 s -1.8125 -0.8115 -1.8125 -1.8125 0.8115 -1.8125 1.8125 -1.8125 1.8125 0.8115 1.8125 1.8125 z" transform="matrix(1.27586,0,0,1.27586,-198.04955,-328.91415)"/>
<path d="m 715.985 1171.03 -7.526 -2.7403 2.6904 3.787" fill="#fff" fill-rule="evenodd"/>
<path d="m 711.832 1170.65 -5.1093 1.3778 3.7593 2.0105" fill="#fff" fill-rule="evenodd"/>
<path d="m 717.817 1177.15 c 2.3037 3.2658 6.0934 5.8103 9.6151 7.3412 -4.3898 1.0236 -9.0132 -0.086 -11.7009 -1.4374 l 2.0858 -5.9038 z" fill="#fff" fill-rule="evenodd"/>
<path d="m 722.219 1181.72 c 0.6136 -2.3499 4.5729 -5.6368 6.8612 -5.7187" fill="none" stroke="#fff"/>
<path d="m 710.88 1181.74 v 11.3986 h 7.875 c -1.3705 -5.8878 -0.4856 -10.3929 2.4062 -11.8125 -3.1467 0.1978 -7.9126 -0.503 -10.2812 0.4139 z" fill="#fff" fill-rule="evenodd"/>
<path d="m 715.437 1179.8 c 0 1.001 -0.8115 1.8125 -1.8125 1.8125 s -1.8125 -0.8115 -1.8125 -1.8125 0.8115 -1.8125 1.8125 -1.8125 1.8125 0.8115 1.8125 1.8125 z" fill="#fff" transform="matrix(.62191,0,0,.62191,269.68432,441.4907)"/>
<path d="m 720.984 1179.83 c 1.0486 1.0881 2.3287 1.9254 3.7199 2.6719" fill="none" stroke="#000"/>
<path d="m 719.859 1184.47 c -0.962 -0.2116 -2.0451 -0.5446 -3.3546 -1.3367 0.5378 1.0016 1.0008 1.6316 2.3844 2.1669" fill-rule="evenodd"/>
</g>
</svg>
