<svg viewBox="0 0 512 512" xmlns="http://www.w3.org/2000/svg">

<g transform="matrix(18.68858,0,0,18.68858,-13162.76352,-21805.26093)">
<path d="m705.5008,1183.6633v9.4862h7.8819c.1462-13.8793 10.03-17.3775 17.4298-16.535-3.486-2.4598-7.1102-3.3702-10.7655-3.0758-4.6876-5.3398-15.2501-3.5551-14.5462,10.1246z" fill="#fff" fill-rule="evenodd"/>
<path d="m715.4374,1179.7997c0,1.001-.8115,1.8125-1.8125,1.8125s-1.8125-.8115-1.8125-1.8125 .8115-1.8125 1.8125-1.8125 1.8125.8115 1.8125,1.8125z" transform="matrix(1.27586,0,0,1.27586,-198.04955,-328.91415)"/>
<path d="m715.9846,1171.0307-7.526-2.7403 2.6904,3.787" fill="#fff" fill-rule="evenodd"/>
<path d="m711.8323,1170.6483-5.1093,1.3778 3.7593,2.0105" fill="#fff" fill-rule="evenodd"/>
<path d="m717.8172,1177.1485c2.3037,3.2658 6.0934,5.8103 9.6151,7.3412-4.3898,1.0236-9.0132-.086-11.7009-1.4374l2.0858-5.9038z" fill="#fff" fill-rule="evenodd"/>
<path d="m722.2187,1181.7195c.6136-2.3499 4.5729-5.6368 6.8612-5.7187" fill="none" stroke="#fff"/>
<path d="m710.88,1181.74v11.3986h7.875c-1.3705-5.8878-.4856-10.3929 2.4062-11.8125-3.1467.1978-7.9126-.503-10.2812.4139z" fill="#fff" fill-rule="evenodd"/>
<path d="m715.4374,1179.7997c0,1.001-.8115,1.8125-1.8125,1.8125s-1.8125-.8115-1.8125-1.8125 .8115-1.8125 1.8125-1.8125 1.8125.8115 1.8125,1.8125z" fill="#fff" transform="matrix(.62191,0,0,.62191,269.68432,441.4907)"/>
<path d="m720.9843,1179.8289c1.0486,1.0881 2.3287,1.9254 3.7199,2.6719" fill="none" stroke="#000"/>
<path d="m719.8593,1184.4732c-.962-.2116-2.0451-.5446-3.3546-1.3367 .5378,1.0016 1.0008,1.6316 2.3844,2.1669" fill-rule="evenodd"/>
</g>
</svg>
