<svg viewBox="0 0 512 512" xmlns="http://www.w3.org/2000/svg">

<g transform="matrix(18.68858,0,0,18.68858,-7037.21169,-25864.71259)">
<path d="m395.7252,1397.892c2.8475,1.5739 5.2133-2.8418 2.4228-4.384s-5.2702,2.8106-2.4228,4.384z" fill="#fff"/>
<path d="m392.6393,1391.3882c2.8474,1.5738 5.2133-2.8422 2.4228-4.3843s-5.2703,2.8107-2.4228,4.3843z" fill="#fff"/>
<path d="m393.1413,1404.084c2.8475,1.5736 5.2134-2.8421 2.4229-4.3844s-5.2703,2.8108-2.4229,4.3844z" fill="#fff"/>
<path d="m379.6173,1402.7526c2.8475,1.5736 5.2133-2.8422 2.4228-4.3841s-5.2703,2.8103-2.4228,4.3841z" fill="#fff"/>
<path d="m398.0409,1396.9007c-1.3401.2043-1.546-2.5655.1955-2.6321 2.3832-.091 5.0056,1.1789 3.6657,5.2944-.8662-1.6256-2.3347-2.8951-3.8612-2.6623z" stroke="#fff"/>
<path d="m393.9911,1403.582c-1.1044-.7861 1-3.1969 2.2785-2.0125 1.7498,1.6205 3.259,4.1909.0405,7.085 .5124-1.9964-1.0257-4.1524-2.319-5.0725z" stroke="#fff"/>
<path d="m394.8904,1390.326c-1.1201.5916-1.9713-2.3908-.4651-2.9451 2.0613-.7593 4.7351-.8572 5.4311,3.3275-1.2839-1.3948-3.6544-1.0753-4.966-.3822z" stroke="#fff"/>
<path d="m377.4246,1384.763v3.7187c3.1864,1.4937 7.9506,7.255 6.3125,8.4375l3.1562-.375 2.7352-4.2428c-2.12,1.8712-5.5706-3.1562-6.8179-7.5384z" fill="#fff"/>
<path d="m394.143,1399.3894-2.0871,3.4758c-1.7657-3.076-5.444-4.552-6.6474-4.1737-1.1499.3614-1.8562,1.4569-2.2974,2.6493l-3.1765-3.1011c1.9928-.634 3.6334-1.2633 5.1152-2.1294 3.114-1.8201 5.3699-4.4582 6.573-7.8556l2.7279,3.3785c-1.7648.5271-3.5234,1.9007-4.7606,3.5071 2.1395-.3428 4.2332-.6852 6.3993-1.7355l-.4619,4.3402c-1.6957-.9153-4.1208-1.5862-6.2683-.3454 .8607,1.3385 3.1557,2.0071 4.8838,1.9898z" fill="#fff"/>
<path d="m381.0363,1402.1768c.8238-1.0767-1.546-2.5654-2.4184-1.0567-1.1941,2.0646-1.2965,4.9768 2.9681,5.7142-1.496-1.4176-1.5143-3.3969-.5497-4.6575z" stroke="#fff"/>
<path d="m388.4226,1394.2483 2.2539-3.6018c-2.214,2.2919-4.3172,1.2718-5.8115-1.2154l.7411,4.3386z" fill="#fff"/>
<path d="m391.1955,1394.9631c-.6415-.1532-.8449-.5453-.3189-1.3353l-1.5147,1.6941z" fill="#fff"/>
<path d="m391.4792,1398.9523c-1.3634-.9504-1.1246-1.8571.1977-2.372l-2.8449.5805 1.1841,1.5019z" fill="#fff"/>
</g>
</svg>
