<svg viewBox="0 0 512 512" xmlns="http://www.w3.org/2000/svg">

<g transform="matrix(18.68858,0,0,18.68858,-8398.18836,-31999.96687)">
<path d="m472.9449,1721.6714c0,3.5949-3.9755,6.5091-8.8795,6.5091s-8.8795-2.9142-8.8795-6.5091 3.9755-6.5091 8.8795-6.5091 8.8795,2.9142 8.8795,6.5091z" fill="#fff" transform="matrix(1.08247,0,0,1.08247,-39.47515,-143.10373)"/>
<path d="m466.5544,1726.1564c.0001,2.126-3.5763,12.533-3.5763,12.533s-3.5764-10.4066-3.5764-12.533 1.6012-3.8495 3.5763-3.8492 3.5765,1.7234 3.5765,3.8492z" fill="#fff"/>
<path d="m461.9902,1725.524c.1379.7124.0884,4.4678.0884,4.4678s-1.3997-3.218-1.5376-3.9303 .0747-1.4099.4749-1.5583 .8364.3088.9743,1.0208z"/>
<path d="m463.9216,1725.5976c-.1379.7125-.0884,4.4678-.0884,4.4678s1.3997-3.2179 1.5376-3.9303-.0747-1.4099-.4749-1.5583-.8364.3088-.9743,1.0208z"/>
<path d="m462.41,1720.806c0,2.0364-1.6508,3.6873-3.6872,3.6873s-3.6872-1.6509-3.6872-3.6873 1.6508-3.6872 3.6872-3.6872 3.6872,1.6508 3.6872,3.6872z" stroke="#fff" stroke-width=".7654" transform="matrix(1.15979,0,0,1.15979,-73.92504,-275.09621)"/>
<path d="m462.41,1720.806c0,2.0364-1.6508,3.6873-3.6872,3.6873s-3.6872-1.6509-3.6872-3.6873 1.6508-3.6872 3.6872-3.6872 3.6872,1.6508 3.6872,3.6872z" stroke="#fff" stroke-width=".7654" transform="matrix(1.15979,0,0,1.15979,-64.31329,-275.09621)"/>
<path d="m461.5446,1721.1071c0,1.6831-1.3645,3.0476-3.0476,3.0476s-3.0476-1.3645-3.0476-3.0476 1.3645-3.0477 3.0476-3.0477 3.0476,1.3645 3.0476,3.0477z" fill="#fff" stroke="#000" transform="translate(-.1881,-.5267)"/>
<path d="m461.5446,1721.1071c0,1.6831-1.3645,3.0476-3.0476,3.0476s-3.0476-1.3645-3.0476-3.0476 1.3645-3.0477 3.0476-3.0477 3.0476,1.3645 3.0476,3.0477z" fill="#fff" stroke="#000" transform="translate(9.4438,-.5267)"/>
<path d="m461.5446,1721.1071c0,1.6831-1.3645,3.0476-3.0476,3.0476s-3.0476-1.3645-3.0476-3.0476 1.3645-3.0477 3.0476-3.0477 3.0476,1.3645 3.0476,3.0477z" transform="matrix(.8642,0,0,.8642,61.21152,234.10683)"/>
<path d="m461.5446,1721.1071c0,1.6831-1.3645,3.0476-3.0476,3.0476s-3.0476-1.3645-3.0476-3.0476 1.3645-3.0477 3.0476-3.0477 3.0476,1.3645 3.0476,3.0477z" transform="matrix(.8642,0,0,.8642,70.80587,234.10683)"/>
<path d="m461.5446,1721.1071c0,1.6831-1.3645,3.0476-3.0476,3.0476s-3.0476-1.3645-3.0476-3.0476 1.3645-3.0477 3.0476-3.0477 3.0476,1.3645 3.0476,3.0477z" fill="#fff" transform="matrix(.33025,0,0,.33025,307.37133,1151.8043)"/>
<path d="m461.5446,1721.1071c0,1.6831-1.3645,3.0476-3.0476,3.0476s-3.0476-1.3645-3.0476-3.0476 1.3645-3.0477 3.0476-3.0477 3.0476,1.3645 3.0476,3.0477z" fill="#fff" transform="matrix(.33025,0,0,.33025,316.94687,1151.8043)"/>
</g>
</svg>
