<svg viewBox="0 0 512 512" xmlns="http://www.w3.org/2000/svg">

<g transform="matrix(18.68858,0,0,18.68858,-13171.24873,-44906.93478)">
<path d="m727.7999,2417.6997c0,5.7639-4.6725,10.4364-10.4364,10.4364s-10.4364-4.6725-10.4364-10.4364 4.6725-10.4364 10.4364-10.4364 10.4364,4.6725 10.4364,10.4364z" fill="#fff" transform="matrix(1.20976,0,0,1.20976,-149.36435,-508.10234)"/>
<path d="m723.8987,2418.9049 .1037-.4702c-1.7041-1.2368-.242-6.7513 2.3524-7.4096l.4556-.649c-11.7433-5.7293-5.2635,6.559-17.2157.667-1.0676,1.621-2.2395,6.4795-2.7372,8.6398 11.9522,5.892 5.298-6.5073 17.0413-.778z" fill-rule="evenodd"/>
<path d="m726.9688,2409.75c-.2556.057-.5353.2667-.7188.6562l-7.7812,19.5626h1.375l7.6562-19.2813c.2319-.6775-.1052-1.0326-.5312-.9375z"/>
</g>
</svg>
