<svg viewBox="0 0 512 512" xmlns="http://www.w3.org/2000/svg">

<g transform="matrix(-18.68858,0,0,18.68858,11635.45661,-36087.49624)">
<path d="m617.0794,1931.9853h4.3615v2.1384c-6.4242,1.9496-12.905,7.9814-17.3003,13.321 3.1709-5.9269 7.2231-11.2568 12.9389-15.4594z" fill="#fff"/>
<path d="m610.4683,1939.4849c-3.7437,4.3593-7.5292,8.6903-9.6284,14.1639" fill="none" stroke="#fff"/>
<path d="m613.8447,1935.4523c-4.4668.3136-8.9412.5892-13.1086,2.4013" fill="none" stroke="#fff"/>
<path d="m611.6575,1938.6488c1.1081,3.3202 1.4593,7.082 1.2983,11.2253" fill="none" stroke="#fff"/>
<path d="m607.9931,1942.1402c-3.0591.6364-6.0424,2.1013-9.0359,4.1658" fill="none" stroke="#fff"/>
<path d="m604.9724,1946.101c1.206,1.9495 1.9618,4.296 2.4242,6.9643" fill="none" stroke="#fff"/>
<path d="m604.7028,1954.4268c0,1.3185-1.0689,2.3874-2.3875,2.3874s-2.3875-1.0689-2.3875-2.3874 1.0689-2.3875 2.3875-2.3875 2.3875,1.0689 2.3875,2.3875z" fill="#fff" transform="matrix(1.01124,0,0,1.01124,-9.07459,-21.58429)"/>
<path d="m604.7028,1954.4268c0,1.3185-1.0689,2.3874-2.3875,2.3874s-2.3875-1.0689-2.3875-2.3874 1.0689-2.3875 2.3875-2.3875 2.3875,1.0689 2.3875,2.3875z" stroke="#fff" stroke-width="1.8737" transform="matrix(.53371,0,0,.53371,277.48826,912.15198)"/>
<path d="m604.7028,1954.4268c0,1.3185-1.0689,2.3874-2.3875,2.3874s-2.3875-1.0689-2.3875-2.3874 1.0689-2.3875 2.3875-2.3875 2.3875,1.0689 2.3875,2.3875z" fill="#fff" transform="matrix(1.01124,0,0,1.01124,-1.40247,-22.17446)"/>
<path d="m604.7028,1954.4268c0,1.3185-1.0689,2.3874-2.3875,2.3874s-2.3875-1.0689-2.3875-2.3874 1.0689-2.3875 2.3875-2.3875 2.3875,1.0689 2.3875,2.3875z" fill="#fff" transform="matrix(1.01124,0,0,1.01124,4.07647,-26.35386)"/>
<path d="m604.7028,1954.4268c0,1.3185-1.0689,2.3874-2.3875,2.3874s-2.3875-1.0689-2.3875-2.3874 1.0689-2.3875 2.3875-2.3875 2.3875,1.0689 2.3875,2.3875z" fill="#fff" transform="matrix(1.01124,0,0,1.01124,-10.41587,-28.82721)"/>
<path d="m604.7028,1954.4268c0,1.3185-1.0689,2.3874-2.3875,2.3874s-2.3875-1.0689-2.3875-2.3874 1.0689-2.3875 2.3875-2.3875 2.3875,1.0689 2.3875,2.3875z" fill="#fff" transform="matrix(1.01124,0,0,1.01124,-6.88219,-38.25601)"/>
<path d="m604.7028,1954.4268c0,1.3185-1.0689,2.3874-2.3875,2.3874s-2.3875-1.0689-2.3875-2.3874 1.0689-2.3875 2.3875-2.3875 2.3875,1.0689 2.3875,2.3875z" stroke="#fff" stroke-width="1.8737" transform="matrix(.53371,0,0,.53371,276.65668,905.66018)"/>
<path d="m604.7028,1954.4268c0,1.3185-1.0689,2.3874-2.3875,2.3874s-2.3875-1.0689-2.3875-2.3874 1.0689-2.3875 2.3875-2.3875 2.3875,1.0689 2.3875,2.3875z" stroke="#fff" stroke-width="1.8737" transform="matrix(.53371,0,0,.53371,286.39437,912.23245)"/>
<path d="m604.7028,1954.4268c0,1.3185-1.0689,2.3874-2.3875,2.3874s-2.3875-1.0689-2.3875-2.3874 1.0689-2.3875 2.3875-2.3875 2.3875,1.0689 2.3875,2.3875z" stroke="#fff" stroke-width="1.8737" transform="matrix(.53371,0,0,.53371,291.92044,908.20862)"/>
<path d="m604.7028,1954.4268c0,1.3185-1.0689,2.3874-2.3875,2.3874s-2.3875-1.0689-2.3875-2.3874 1.0689-2.3875 2.3875-2.3875 2.3875,1.0689 2.3875,2.3875z" stroke="#fff" stroke-width="1.8737" transform="matrix(.53371,0,0,.53371,280.22448,895.97613)"/>
<path d="m619.0624,1934.1426c-.4513,2.1572-1.2076,5.6196-1.8221,8.2521" fill="none" stroke="#fff"/>
<path d="m604.7028,1954.4268c0,1.3185-1.0689,2.3874-2.3875,2.3874s-2.3875-1.0689-2.3875-2.3874 1.0689-2.3875 2.3875-2.3875 2.3875,1.0689 2.3875,2.3875z" fill="#fff" transform="matrix(.97678,.26173,-.26173,.97678,540.33633,-123.00891)"/>
<path d="m604.7028,1954.4268c0,1.3185-1.0689,2.3874-2.3875,2.3874s-2.3875-1.0689-2.3875-2.3874 1.0689-2.3875 2.3875-2.3875 2.3875,1.0689 2.3875,2.3875z" stroke="#fff" stroke-width="1.8737" transform="matrix(.51552,.13813,-.13813,.51552,576.40219,853.94297)"/>
<path d="m621.965,1932.2152v18.0805" fill="none" stroke="#000"/>
<path d="m620.3913,1934.2324-2.6088,5.1923 .2047-5.6008" fill="#fff"/>
<path d="m614.3661,1934.3048-6.8666,1.6312 6.639.7209" fill="#fff"/>
<path d="m608.5043,1940.9545-4.5106,2.1903 3.3405.066" fill="#fff"/>
<path d="m613.1947,1938.275-.3312,4.2531-1.9478-2.8876" fill="#fff"/>
<path d="m606.1216,1944.9091-.0759,2.8832-.9105-1.3657z" fill="#fff"/>
</g>
</svg>
