<svg viewBox="0 0 512 512" xmlns="http://www.w3.org/2000/svg">

<g transform="matrix(18.68858,0,0,18.68858,-7041.40525,-43546.71746)">
<path d="m 390.919 2349.31 h 5.969 m 0.6749 -1.7997 c -2.3956 7.0644 -10.0186 3.2135 -4.9954 -0.095 2.1316 -1.4039 0.2088 -4.0347 -2.3534 -2.1939 -6.0703 4.3611 -1.3826 9.4617 2.3632 9.7336 4.2801 0.3106 7.4506 -3.1474 9.1964 -6.2415 2.7378 -4.8522 -0.8226 -9.66 -5.8973 -9.2984 -1.7651 0.1258 -3.7651 0.8921 -5.81 2.5211 -8.1456 -5.7543 -9.8416 1.2024 -8.0905 7.3736 h 5.2779" stroke="#fff"/>
<path d="m 387.366 2334.18 c 3.547 6.6204 0.4724 8.9957 -2.7611 9.8524 -5.2634 -0.3601 -8.1965 -3.7787 -4.4424 -9.8861 l 2.4376 2.4245 c 1.262 -0.4087 2.1705 -0.3288 3.3523 0 z" stroke="#fff"/>
<path d="m 383.35 2340.29 c -1.9299 0.9313 -2.8064 0.1768 -3.1814 -1.3804 1.8942 -1.1753 3.0223 -0.2312 3.1814 1.3804 z" fill="#fff"/>
<path d="m 385.76 2340.29 c 1.9299 0.9313 2.8064 0.1768 3.1814 -1.3804 -1.8942 -1.1753 -3.0223 -0.2312 -3.1814 1.3804 z" fill="#fff"/>
</g>
</svg>
