<svg viewBox="0 0 512 512" xmlns="http://www.w3.org/2000/svg">

<g transform="matrix(18.68858,0,0,18.68858,-10441.65147,-22486.08401)">
<path d="m 578.08 1219.46 c 0 2.3072 -1.8703 4.1775 -4.1774 4.1775 s -4.1774 -1.8703 -4.1774 -4.1775 1.8703 -4.1774 4.1774 -4.1774 4.1774 1.8703 4.1774 4.1774 z" fill="#fff" transform="matrix(1.4713,-.2187,.21887,1.47247,-538.22031,-452.31453)"/>
<path d="m 577.344 1214.14 c -3.4592 -4.5444 -10.7044 -5.9314 -15.7013 1.4726" fill="none" stroke="#fff"/>
<path d="m 573.957 1223.35 c 5.6614 -0.7249 10.4828 -6.3104 6.573 -14.3447" fill="none" stroke="#fff"/>
<path d="m 578.08 1219.46 c 0 2.3072 -1.8703 4.1775 -4.1774 4.1775 s -4.1774 -1.8703 -4.1774 -4.1775 1.8703 -4.1774 4.1774 -4.1774 4.1774 1.8703 4.1774 4.1774 z" fill="#fff" transform="matrix(.49829,-.07407,.07413,.49869,206.64096,660.1518)"/>
<path d="m 567.472 1218.94 c 0.7687 6.0013 6.6733 11.1146 15.1614 6.9742" fill="none" stroke="#fff"/>
<path d="m 578.08 1219.46 c 0 2.3072 -1.8703 4.1775 -4.1774 4.1775 s -4.1774 -1.8703 -4.1774 -4.1775 1.8703 -4.1774 4.1774 -4.1774 4.1774 1.8703 4.1774 4.1774 z" fill="#fff" transform="matrix(.50482,-.07504,.0751,.50523,180.55415,642.12397)"/>
<path d="m 578.08 1219.46 c 0 2.3072 -1.8703 4.1775 -4.1774 4.1775 s -4.1774 -1.8703 -4.1774 -4.1775 1.8703 -4.1774 4.1774 -4.1774 4.1774 1.8703 4.1774 4.1774 z" fill="#fff" transform="matrix(.72084,-.10715,.10723,.72141,35.30437,389.05542)"/>
<path d="m 578.08 1219.46 c 0 2.3072 -1.8703 4.1775 -4.1774 4.1775 s -4.1774 -1.8703 -4.1774 -4.1775 1.8703 -4.1774 4.1774 -4.1774 4.1774 1.8703 4.1774 4.1774 z" fill="#fff" transform="matrix(.35205,-.05233,.05237,.35233,316.0092,815.60623)"/>
<path d="m 570.984 1212.5 c -4.8176 1.9758 -8.0153 7.4557 -4.8636 13.488" fill="none" stroke="#fff"/>
<path d="m 578.08 1219.46 c 0 2.3072 -1.8703 4.1775 -4.1774 4.1775 s -4.1774 -1.8703 -4.1774 -4.1775 1.8703 -4.1774 4.1774 -4.1774 4.1774 1.8703 4.1774 4.1774 z" fill="#fff" transform="matrix(.6493,.0745,-.07456,.64982,284.02345,390.94931)"/>
<path d="m 2491.15 -3082.96 h 4.5433 v 4.5433 h -4.5433 z" transform="matrix(-.97585,.21843,-.97585,-.21843,0,0)"/>
<path d="m 392.121 -1694.17 h 4.5433 v 4.5433 h -4.5433 z" transform="matrix(-.84449,-.53558,-.53558,-.84449,0,0)"/>
<path d="m -1937.94 685.705 h 4.5433 v 4.5433 h -4.5433 z" transform="matrix(-.21843,-.97585,.21843,-.97585,0,0)"/>
<path d="m -3134.11 2662.58 h 4.5433 v 4.5433 h -4.5433 z" transform="matrix(.53558,-.84449,.84449,-.53558,0,0)"/>
<path d="m 574.587 1217.52 c 0 0.772 -0.6258 1.3977 -1.3977 1.3977 s -1.3977 -0.6257 -1.3977 -1.3977 0.6258 -1.3976 1.3977 -1.3976 1.3977 0.6257 1.3977 1.3976 z" fill="#fff" stroke="#000" stroke-width="1.2081" transform="matrix(.82775,0,0,.82775,98.6174,209.79033)"/>
</g>
</svg>
