<svg viewBox="0 0 512 512" xmlns="http://www.w3.org/2000/svg">

<path d="m 69.9383 1652.97 -8.8252 -1.3121 -2.0028 8.6946 -4.4766 -7.7179 -8.0464 3.855 3.243 -8.312 -8.0309 -3.8873 8.5206 -2.647 -1.9679 -8.7025 7.382 5.0113 5.5769 -6.9645 0.6846 8.8959 8.9222 0.018 -6.5283 6.0818 z" fill="#fff" transform="matrix(-15.68533,4.20287,4.20287,15.68533,-5763.33929,-25793.66176)"/>
<g transform="matrix(18.68858,0,0,18.68858,-9768.47803,-25890.94853)">
<path d="m 524.374 1403.17 1.9817 -5.2951 13.5516 -7.224 6.5396 3.5554 1.7989 4.7604 -15.8839 8.4552 z" stroke="#fff"/>
<path d="m 546.307 1394.6 -13.3301 7.0562 -6.7045 -3.549" fill="none" stroke="#fff"/>
<path d="m 532.488 1407.51 0.4143 -5.9777" fill="none" stroke="#fff"/>
<path d="m 542.195 1393.61 -9.1885 4.8198 -2.223 -1.1881 -1.355 0.718 3.578 1.9085 10.5573 -5.5609 z" fill="#fff"/>
</g>
</svg>
