<svg viewBox="0 0 512 512" xmlns="http://www.w3.org/2000/svg">

<path d="m 212.762 1218.58 c 0 3.4634 -2.8076 6.271 -6.271 6.271 s -6.271 -2.8076 -6.271 -6.271 2.8077 -6.2711 6.271 -6.2711 6.271 2.8077 6.271 6.2711 z" stroke="#fff" stroke-width=".516" transform="matrix(36.21865,0,0,36.21865,-7221.69196,-43881.26894)"/>
<path d="m 212.762 1218.58 c 0 3.4634 -2.8076 6.271 -6.271 6.271 s -6.271 -2.8076 -6.271 -6.271 2.8077 -6.2711 6.271 -6.2711 6.271 2.8077 6.271 6.2711 z" fill="#fff" transform="matrix(31.26543,0,0,31.26543,-6196.83958,-37846.09105)"/>
<path d="m 212.762 1218.58 c 0 3.4634 -2.8076 6.271 -6.271 6.271 s -6.271 -2.8076 -6.271 -6.271 2.8077 -6.2711 6.271 -6.2711 6.271 2.8077 6.271 6.2711 z" transform="matrix(24.6009,-14.20332,16.6818,28.89348,-25174.14655,-32009.91102)"/>
<path d="m 212.498 1215.33 c 0 1.2101 -0.981 2.1911 -2.1911 2.1911 s -2.1911 -0.981 -2.1911 -2.1911 0.981 -2.1911 2.1911 -2.1911 2.1911 0.981 2.1911 2.1911 z" fill="#fff" transform="matrix(28.1478,0,0,28.1478,-5571.41186,-34025.85749)"/>
<path d="m 212.498 1215.33 c 0 1.2101 -0.981 2.1911 -2.1911 2.1911 s -2.1911 -0.981 -2.1911 -2.1911 0.981 -2.1911 2.1911 -2.1911 2.1911 0.981 2.1911 2.1911 z" fill="#fff" transform="matrix(18.68428,0,0,18.68428,-3603.05044,-22388.60114)"/>
<path d="m 212.498 1215.33 c 0 1.2101 -0.981 2.1911 -2.1911 2.1911 s -2.1911 -0.981 -2.1911 -2.1911 0.981 -2.1911 2.1911 -2.1911 2.1911 0.981 2.1911 2.1911 z" fill="#fff" transform="matrix(12.61797,0,0,12.61797,-2382.02066,-15241.9405)"/>
<path d="m 212.498 1215.33 c 0 1.2101 -0.981 2.1911 -2.1911 2.1911 s -2.1911 -0.981 -2.1911 -2.1911 0.981 -2.1911 2.1911 -2.1911 2.1911 0.981 2.1911 2.1911 z" fill="#fff" transform="matrix(13.74508,0,0,13.74508,-2568.00474,-16596.97562)"/>
<path d="m 212.498 1215.33 c 0 1.2101 -0.981 2.1911 -2.1911 2.1911 s -2.1911 -0.981 -2.1911 -2.1911 0.981 -2.1911 2.1911 -2.1911 2.1911 0.981 2.1911 2.1911 z" fill="#fff" transform="matrix(13.74508,0,0,13.74508,-2647.57623,-16456.68475)"/>
<path d="m 212.498 1215.33 c 0 1.2101 -0.981 2.1911 -2.1911 2.1911 s -2.1911 -0.981 -2.1911 -2.1911 0.981 -2.1911 2.1911 -2.1911 2.1911 0.981 2.1911 2.1911 z" fill="#fff" transform="matrix(13.74508,0,0,13.74508,-2661.86215,-16362.69689)"/>
</svg>
