<svg viewBox="0 0 512 512" xmlns="http://www.w3.org/2000/svg">

<g transform="matrix(18.68858,0,0,18.68858,-13171.24873,-44906.93478)">
<path d="m 727.8 2417.7 c 0 5.7639 -4.6725 10.4364 -10.4364 10.4364 s -10.4364 -4.6725 -10.4364 -10.4364 4.6725 -10.4364 10.4364 -10.4364 10.4364 4.6725 10.4364 10.4364 z" fill="#fff" transform="matrix(1.20976,0,0,1.20976,-149.36435,-508.10234)"/>
<path d="m 723.899 2418.9 0.1037 -0.4702 c -1.7041 -1.2368 -0.242 -6.7513 2.3524 -7.4096 l 0.4556 -0.649 c -11.7433 -5.7293 -5.2635 6.559 -17.2157 0.667 -1.0676 1.621 -2.2395 6.4795 -2.7372 8.6398 11.9522 5.892 5.298 -6.5073 17.0413 -0.778 z" fill-rule="evenodd"/>
<path d="m 726.969 2409.75 c -0.2556 0.057 -0.5353 0.2667 -0.7188 0.6562 l -7.7812 19.5626 h 1.375 l 7.6562 -19.2813 c 0.2319 -0.6775 -0.1052 -1.0326 -0.5312 -0.9375 z"/>
</g>
</svg>
