<svg viewBox="0 0 512 512" xmlns="http://www.w3.org/2000/svg">

<g transform="matrix(18.68858,0,0,18.68858,-10441.65147,-22486.08401)">
<path d="m578.08,1219.4592c0,2.3072-1.8703,4.1775-4.1774,4.1775s-4.1774-1.8703-4.1774-4.1775 1.8703-4.1774 4.1774-4.1774 4.1774,1.8703 4.1774,4.1774z" fill="#fff" transform="matrix(1.4713,-.2187,.21887,1.47247,-538.22031,-452.31453)"/>
<path d="m577.3436,1214.1408c-3.4592-4.5444-10.7044-5.9314-15.7013,1.4726" fill="none" stroke="#fff"/>
<path d="m573.9567,1223.3531c5.6614-.7249 10.4828-6.3104 6.573-14.3447" fill="none" stroke="#fff"/>
<path d="m578.08,1219.4592c0,2.3072-1.8703,4.1775-4.1774,4.1775s-4.1774-1.8703-4.1774-4.1775 1.8703-4.1774 4.1774-4.1774 4.1774,1.8703 4.1774,4.1774z" fill="#fff" transform="matrix(.49829,-.07407,.07413,.49869,206.64096,660.1518)"/>
<path d="m567.4724,1218.9353c.7687,6.0013 6.6733,11.1146 15.1614,6.9742" fill="none" stroke="#fff"/>
<path d="m578.08,1219.4592c0,2.3072-1.8703,4.1775-4.1774,4.1775s-4.1774-1.8703-4.1774-4.1775 1.8703-4.1774 4.1774-4.1774 4.1774,1.8703 4.1774,4.1774z" fill="#fff" transform="matrix(.50482,-.07504,.0751,.50523,180.55415,642.12397)"/>
<path d="m578.08,1219.4592c0,2.3072-1.8703,4.1775-4.1774,4.1775s-4.1774-1.8703-4.1774-4.1775 1.8703-4.1774 4.1774-4.1774 4.1774,1.8703 4.1774,4.1774z" fill="#fff" transform="matrix(.72084,-.10715,.10723,.72141,35.30437,389.05542)"/>
<path d="m578.08,1219.4592c0,2.3072-1.8703,4.1775-4.1774,4.1775s-4.1774-1.8703-4.1774-4.1775 1.8703-4.1774 4.1774-4.1774 4.1774,1.8703 4.1774,4.1774z" fill="#fff" transform="matrix(.35205,-.05233,.05237,.35233,316.0092,815.60623)"/>
<path d="m570.9841,1212.4981c-4.8176,1.9758-8.0153,7.4557-4.8636,13.488" fill="none" stroke="#fff"/>
<path d="m578.08,1219.4592c0,2.3072-1.8703,4.1775-4.1774,4.1775s-4.1774-1.8703-4.1774-4.1775 1.8703-4.1774 4.1774-4.1774 4.1774,1.8703 4.1774,4.1774z" fill="#fff" transform="matrix(.6493,.0745,-.07456,.64982,284.02345,390.94931)"/>
<path d="m2491.1484-3082.9587h4.5433v4.5433h-4.5433z" transform="matrix(-.97585,.21843,-.97585,-.21843,0,0)"/>
<path d="m392.1208-1694.1736h4.5433v4.5433h-4.5433z" transform="matrix(-.84449,-.53558,-.53558,-.84449,0,0)"/>
<path d="m-1937.9368,685.7046h4.5433v4.5433h-4.5433z" transform="matrix(-.21843,-.97585,.21843,-.97585,0,0)"/>
<path d="m-3134.1084,2662.5759h4.5433v4.5433h-4.5433z" transform="matrix(.53558,-.84449,.84449,-.53558,0,0)"/>
<path d="m574.5865,1217.5223c0,.772-.6258,1.3977-1.3977,1.3977s-1.3977-.6257-1.3977-1.3977 .6258-1.3976 1.3977-1.3976 1.3977.6257 1.3977,1.3976z" fill="#fff" stroke="#000" stroke-width="1.2081" transform="matrix(.82775,0,0,.82775,98.6174,209.79033)"/>
</g>
</svg>
