<svg viewBox="0 0 512 512" xmlns="http://www.w3.org/2000/svg">

<g transform="matrix(18.68858,0,0,18.68858,-7041.40525,-43546.71746)">
<path d="m390.9192,2349.3082h5.969m.6749-1.7997c-2.3956,7.0644-10.0186,3.2135-4.9954-.095 2.1316-1.4039.2088-4.0347-2.3534-2.1939-6.0703,4.3611-1.3826,9.4617 2.3632,9.7336 4.2801.3106 7.4506-3.1474 9.1964-6.2415 2.7378-4.8522-.8226-9.66-5.8973-9.2984-1.7651.1258-3.7651.8921-5.81,2.5211-8.1456-5.7543-9.8416,1.2024-8.0905,7.3736h5.2779" stroke="#fff"/>
<path d="m387.3661,2334.1768c3.547,6.6204.4724,8.9957-2.7611,9.8524-5.2634-.3601-8.1965-3.7787-4.4424-9.8861l2.4376,2.4245c1.262-.4087 2.1705-.3288 3.3523,0z" stroke="#fff"/>
<path d="m383.3502,2340.2891c-1.9299.9313-2.8064.1768-3.1814-1.3804 1.8942-1.1753 3.0223-.2312 3.1814,1.3804z" fill="#fff"/>
<path d="m385.7597,2340.2891c1.9299.9313 2.8064.1768 3.1814-1.3804-1.8942-1.1753-3.0223-.2312-3.1814,1.3804z" fill="#fff"/>
</g>
</svg>
