<svg viewBox="0 0 512 512" xmlns="http://www.w3.org/2000/svg">

<g transform="matrix(18.68858,0,0,18.68858,-7035.50415,-17931.77051)">
<path d="m 383.684 960.14 c 2.8855 4.2229 -1.0815 11.0379 -5.0843 17.8451 m -1.5917 -9.3156 c 1.1479 -2.474 2.524 -5.8496 2.9592 -8.5581" stroke="#fff"/>
<path d="m 377.128 976.095 c 5.2995 -4.1035 9.9879 -8.431 12.3598 -14.5503 6.6818 5.9932 -0.7447 12.4048 -8.2195 18.7868" stroke="#fff"/>
<path d="m 377.339 978.447 c 6.5015 -1.7266 14.9379 -4.6811 19.7765 -9.4152 3.6965 8.1793 -5.6853 11.0504 -15.0994 13.8749" stroke="#fff"/>
<path d="m 377.005 981.979 c 6.8219 -0.5045 19.2905 -2.732 25.0112 -6.4979 2.1693 8.7187 -7.7456 9.9597 -17.6842 11.009" stroke="#fff"/>
<path d="m 377.098 984.691 v -2.8453 c 8.5027 -0.1883 17.0514 -2.3153 24.8 -6.2288 0.2808 8.3012 -19.0449 8.6258 -24.8 9.0741 z" fill="#fff" fill-rule="evenodd"/>
<path d="m 399.256 975.719 c -6.287 3.1777 -15.5237 4.8689 -22.3213 5.3017" fill="none" stroke="#000"/>
<path d="m 394.652 969.872 c -5.081 3.7895 -11.292 5.9296 -17.6882 7.6937" fill="none" stroke="#000"/>
<path d="m 388.514 961.114 c -2.5328 5.6536 -6.6536 10.4326 -11.3113 13.7457" fill="none" stroke="#000"/>
<path d="m 403.909 986.484 h -26.8571 v -26.42 h 22.0701" fill="none" stroke="#000"/>
</g>
</svg>
