<svg viewBox="0 0 512 512" xmlns="http://www.w3.org/2000/svg">

<g transform="matrix(18.68858,0,0,18.68858,-915.21397,-40153.21147)">
<path d="m 68.8843 2150.63 2.034 8.4216 h -3.6755 c 0.5444 1.7128 0.3728 4.0424 -0.571 5.7553 l -0.9992 -2.8766 -1.1419 3.1264 -1.1419 -2.882 -1.1419 2.8462 -1.1062 -3.0906 -0.9992 2.8409 c -0.8373 -1.525 -1.3742 -3.7485 -0.571 -5.7196 h -3.7112 l 2.034 -8.4216 c 3.6239 -1.2562 7.3273 -1.4134 10.9909 0 z" fill="#fff"/>
<path d="m 64.504 2169.79 1.2514 2.7764 0.9091 -2.9072 c 0.8985 1.0601 1.1967 2.2799 1.0544 3.7898 -2.8038 1.0651 -5.588 1.1548 -8.583 0 0.0134 -1.3905 -0.0372 -2.5498 0.9773 -3.8247 l 0.8349 2.9421 1.3256 -2.7416 1.1151 3.1717 z" fill="#fff"/>
<g transform="matrix(-1.3014,0,0,1.3014,902.62919,-607.5614)">
<path d="m 649.163 2124.61 -0.4924 -2.2721 c -1.2348 0.2636 -2.2491 0.8211 -2.8154 1.976 z"/>
<path d="m 640.573 2124.61 0.4924 -2.2721 c 1.1751 0.3511 2.1963 0.9022 2.8154 1.976 z"/>
</g>
<path d="m 64.7262 2160.49 -1.3303 -1.7566 -1.3303 1.7566" fill="none" stroke="#000"/>
<path d="m 75.3664 2165.77 -4.2206 -0.3855 c -4.5994 0.8952 -9.8886 0.892 -14.9886 0.3855 v 2.4552 c 5.5263 0.8508 15.2506 1.6768 19.2092 -2.4552 z" fill="#fff"/>
<path d="m 57.3408 2163.12 c -1.3834 2.3004 -1.8913 5.7674 -0.9504 8.041" fill="none" stroke="#fff"/>
<path d="m 68.5793 2161.27 c 0 0.511 -0.4142 0.9252 -0.9252 0.9252 s -0.9252 -0.4142 -0.9252 -0.9252 0.4142 -0.9251 0.9252 -0.9251 0.9252 0.4142 0.9252 0.9251 z" fill="#fff" transform="matrix(-1.00334,.05346,.05346,1.00334,9.83199,-8.53552)"/>
<path d="m 68.5793 2161.27 c 0 0.511 -0.4142 0.9252 -0.9252 0.9252 s -0.9252 -0.4142 -0.9252 -0.9252 0.4142 -0.9251 0.9252 -0.9251 0.9252 0.4142 0.9252 0.9251 z" fill="#fff" transform="matrix(-1.00334,.05346,.05346,1.00334,9.08454,-1.08646)"/>
<path d="m 68.5793 2161.27 c 0 0.511 -0.4142 0.9252 -0.9252 0.9252 s -0.9252 -0.4142 -0.9252 -0.9252 0.4142 -0.9251 0.9252 -0.9251 0.9252 0.4142 0.9252 0.9251 z" fill="#fff" transform="matrix(-1.00476,0,0,1.00476,118.86597,-5.79263)"/>
<path d="m 50.637 2165.73 c 2.4235 -0.7078 4.5487 -0.5035 6.1004 1.4552 -2.2034 0.6556 -4.2566 0.3035 -6.1004 -1.4552 z" fill="#fff"/>
</g>
</svg>
