<svg viewBox="0 0 512 512" xmlns="http://www.w3.org/2000/svg">

<g transform="matrix(18.68858,0,0,18.68858,-915.21397,-40153.21147)">
<path d="m68.8843,2150.6298 2.034,8.4216h-3.6755c.5444,1.7128.3728,4.0424-.571,5.7553l-.9992-2.8766-1.1419,3.1264-1.1419-2.882-1.1419,2.8462-1.1062-3.0906-.9992,2.8409c-.8373-1.525-1.3742-3.7485-.571-5.7196h-3.7112l2.034-8.4216c3.6239-1.2562 7.3273-1.4134 10.9909,0z" fill="#fff"/>
<path d="m64.504,2169.7884 1.2514,2.7764 .9091-2.9072c.8985,1.0601 1.1967,2.2799 1.0544,3.7898-2.8038,1.0651-5.588,1.1548-8.583,0 .0134-1.3905-.0372-2.5498.9773-3.8247l.8349,2.9421 1.3256-2.7416 1.1151,3.1717z" fill="#fff"/>
<g transform="matrix(-1.3014,0,0,1.3014,902.62919,-607.5614)">
<path d="m649.1625,2124.6062-.4924-2.2721c-1.2348.2636-2.2491.8211-2.8154,1.976z"/>
<path d="m640.5734,2124.6062 .4924-2.2721c1.1751.3511 2.1963.9022 2.8154,1.976z"/>
</g>
<path d="m64.7262,2160.4893-1.3303-1.7566-1.3303,1.7566" fill="none" stroke="#000"/>
<path d="m75.3664,2165.7747-4.2206-.3855c-4.5994.8952-9.8886.892-14.9886.3855v2.4552c5.5263.8508 15.2506,1.6768 19.2092-2.4552z" fill="#fff"/>
<path d="m57.3408,2163.1173c-1.3834,2.3004-1.8913,5.7674-.9504,8.041" fill="none" stroke="#fff"/>
<path d="m68.5793,2161.2729c0,.511-.4142.9252-.9252.9252s-.9252-.4142-.9252-.9252 .4142-.9251.9252-.9251 .9252.4142.9252.9251z" fill="#fff" transform="matrix(-1.00334,.05346,.05346,1.00334,9.83199,-8.53552)"/>
<path d="m68.5793,2161.2729c0,.511-.4142.9252-.9252.9252s-.9252-.4142-.9252-.9252 .4142-.9251.9252-.9251 .9252.4142.9252.9251z" fill="#fff" transform="matrix(-1.00334,.05346,.05346,1.00334,9.08454,-1.08646)"/>
<path d="m68.5793,2161.2729c0,.511-.4142.9252-.9252.9252s-.9252-.4142-.9252-.9252 .4142-.9251.9252-.9251 .9252.4142.9252.9251z" fill="#fff" transform="matrix(-1.00476,0,0,1.00476,118.86597,-5.79263)"/>
<path d="m50.637,2165.7256c2.4235-.7078 4.5487-.5035 6.1004,1.4552-2.2034.6556-4.2566.3035-6.1004-1.4552z" fill="#fff"/>
</g>
</svg>
