<svg xmlns="http://www.w3.org/2000/svg" viewBox="0 0 512 512">
<g transform="matrix(15 0 0 15 -524 -3284)">
<use width="744.094" height="1052.362" transform="translate(72 216)"/>
<path fill="#fff" d="m52,220c-4.8,0-8,3.2063-8,6.4062 0,3.2277 1.6185,4.4423 3.4375,7.5-.2317,3.165-.25,7.4556-.25,13.2812 1.0392-3.4641 1.8758-6.1296 2.5625-8.0938 .9641,2.9851 1.7986,7.0377 2.25,12.9062 .4514-5.8685 1.2859-9.9212 2.25-12.9062 .6867,1.9641 1.5233,4.6296 2.5625,8.0938 0-5.8611-.014-10.1739-.25-13.3438 1.8084-3.0252 3.4375-4.2253 3.4375-7.4375 0-3.2-3.2-6.4062-8-6.4062zm0,3.1875c2.651,0 4.8125,1.7909 4.8125,4 0,.8732-.3677,1.686-.9375,2.3438-.673-2.2472-1.826-3.125-3.875-3.125-2.049,0-3.202,.8778-3.875,3.125-.5698-.6577-.9375-1.4706-.9375-2.3438 0-2.2091 2.1615-4 4.8125-4z"/>
</g>
</svg>
