<svg xmlns="http://www.w3.org/2000/svg" viewBox="0 0 512 512">
<g transform="matrix(15 0 0 15 16 -1123.9999)">
<use width="744.094" height="1052.362" transform="translate(36 72)"/>
<path fill="#fff" d="m16,84c4,5-3,3-11,3 3.4195,1.1398 6.0146,2.0114 7.875,2.75-2.9826,.9602-7.025,1.8-12.875,2.25 5.85,.45 9.8924,1.2898 12.875,2.25-1.8604,.7386-4.4555,1.6102-7.875,2.75 8,0 15-2 11,3 1.3106-.6553 2.8226-1.3056 4.2812-2.0312 1.688,1.1644 2.9715,2.0312 5.3125,2.0312 3.2,0 6.4062-3.2 6.4062-8 0-4.8-3.2063-8-6.4062-8-2.3567,0-3.6387,.8549-5.3438,2.0312-1.4509-.7206-2.947-1.3797-4.25-2.0312zm8.8125,3.1875c2.2091,0 4,2.1615 4,4.8125 0,2.651-1.7909,4.8125-4,4.8125-.6041,0-1.174-.181-1.6875-.4688 1.6755-1.1653 2.875-2.5609 2.875-4.3438 0-1.7828-1.1995-3.1785-2.875-4.3438 .5135-.2877 1.0834-.4688 1.6875-.4688z"/>
</g>
</svg>
