<svg viewBox="0 0 512 512" xmlns="http://www.w3.org/2000/svg">

<g transform="matrix(18.68858,0,0,18.68858,-12484.66503,-36085.68666)">
<g transform="matrix(-1.04734,-.16986,-.16986,1.04734,743.17627,-25.80125)">
<path d="m -236.8 1830.8 0.4654 3.8095 -2.7732 -0.7431 z" fill="#fff"/>
<path d="m 652.828 1942.09 c 0 3.8965 -3.1587 7.0552 -7.0551 7.0552 s -7.0551 -3.1587 -7.0551 -7.0552 3.1587 -7.0551 7.0551 -7.0551 7.0551 3.1587 7.0551 7.0551 z" fill="none" stroke="#fff" stroke-width=".7577" transform="matrix(1.2015,.32194,-.32194,1.2015,-390.99005,-698.55122)"/>
<path d="m -248.462 1852.14 1.5017 -3.5318 2.0302 2.03 z" fill="#fff"/>
<path d="m -234.853 1839.19 1.5604 -2.2762 1.4356 2.4863 z" fill="#fff"/>
<path d="m -237.063 1854.63 0.8068 -3.6577 -2.7732 0.743 z" fill="#fff"/>
<path d="m -242.334 1836.57 0.7092 -2.5206 -2.7732 0.7429 z" fill="#fff"/>
<path d="m -231.335 1851.1 -3.19 -1.388 2.0298 -2.0302 z" fill="#fff"/>
<path d="m -250.037 1834.69 3.7972 1.2741 -2.0299 2.0301 z" fill="#fff"/>
<path d="m -246.145 1842.07 -2.6446 -1.3895 -0.0702 2.5712 z" fill="#fff"/>
<path d="m -227.849 1841.36 -3.2925 1.7057 -0.4469 -2.8359 z" fill="#fff"/>
<path d="m -252.437 1845.4 3.0664 -2.3078 0.7432 2.7733 z" fill="#fff"/>
<path d="m -233.996 1844.61 2.3122 -0.9528 -0.7431 2.7733 z" fill="#fff"/>
</g>
<path d="m 682.443 1948.18 v 9.4426" fill="none" stroke="#fff"/>
<path d="m 686.306 1942.86 v 10.5269" fill="none" stroke="#fff"/>
<path d="m 679.896 1946.88 v 10.8495" fill="none" stroke="#fff"/>
<path d="m 676.421 1944.12 c 0.3863 3.1038 5.5651 4.5164 6.2847 6.1412 0.2063 -1.9305 4.5248 -4.531 4.1234 -7.7698 -0.3854 -3.1109 -4.3062 -3.1853 -5.396 -0.3619 -1.9465 -2.4131 -5.3928 -1.0685 -5.0122 1.9905 z" fill="#fff"/>
<path d="m 688.675 1957.97 v -2.2533 l -1.7973 -2.1998" fill="none" stroke="#fff"/>
<path d="m 674.074 1957.75 h 18.9925" fill="none" stroke="#000"/>
</g>
</svg>
