<svg viewBox="0 0 512 512" xmlns="http://www.w3.org/2000/svg">

<g transform="matrix(18.68858,0,0,18.68858,-12484.66503,-36085.68666)">
<g transform="matrix(-1.04734,-.16986,-.16986,1.04734,743.17627,-25.80125)">
<path d="m-236.8001,1830.7981 .4654,3.8095-2.7732-.7431z" fill="#fff"/>
<path d="m652.8279,1942.087c0,3.8965-3.1587,7.0552-7.0551,7.0552s-7.0551-3.1587-7.0551-7.0552 3.1587-7.0551 7.0551-7.0551 7.0551,3.1587 7.0551,7.0551z" fill="none" stroke="#fff" stroke-width=".7577" transform="matrix(1.2015,.32194,-.32194,1.2015,-390.99005,-698.55122)"/>
<path d="m-248.4616,1852.143 1.5017-3.5318 2.0302,2.03z" fill="#fff"/>
<path d="m-234.8526,1839.1857 1.5604-2.2762 1.4356,2.4863z" fill="#fff"/>
<path d="m-237.063,1854.6283 .8068-3.6577-2.7732.743z" fill="#fff"/>
<path d="m-242.3343,1836.5704 .7092-2.5206-2.7732.7429z" fill="#fff"/>
<path d="m-231.3354,1851.0992-3.19-1.388 2.0298-2.0302z" fill="#fff"/>
<path d="m-250.0375,1834.6885 3.7972,1.2741-2.0299,2.0301z" fill="#fff"/>
<path d="m-246.1454,1842.0703-2.6446-1.3895-.0702,2.5712z" fill="#fff"/>
<path d="m-227.8488,1841.3575-3.2925,1.7057-.4469-2.8359z" fill="#fff"/>
<path d="m-252.4368,1845.4041 3.0664-2.3078 .7432,2.7733z" fill="#fff"/>
<path d="m-233.9963,1844.6104 2.3122-.9528-.7431,2.7733z" fill="#fff"/>
</g>
<path d="m682.4434,1948.1764v9.4426" fill="none" stroke="#fff"/>
<path d="m686.3062,1942.8649v10.5269" fill="none" stroke="#fff"/>
<path d="m679.896,1946.8822v10.8495" fill="none" stroke="#fff"/>
<path d="m676.421,1944.1204c.3863,3.1038 5.5651,4.5164 6.2847,6.1412 .2063-1.9305 4.5248-4.531 4.1234-7.7698-.3854-3.1109-4.3062-3.1853-5.396-.3619-1.9465-2.4131-5.3928-1.0685-5.0122,1.9905z" fill="#fff"/>
<path d="m688.6751,1957.9677v-2.2533l-1.7973-2.1998" fill="none" stroke="#fff"/>
<path d="m674.0738,1957.7532h18.9925" fill="none" stroke="#000"/>
</g>
</svg>
