<svg viewBox="0 0 512 512" xmlns="http://www.w3.org/2000/svg">

<g transform="matrix(18.68858,0,0,18.68858,4526.56335,-6701.51772)">
<path d="m-240.943,367.2533c1.4465,2.6445 3.1193,4.111 3.125,7.0764 .002,1.1784-.8605,1.5787-.8605,2.4688 0,.4863.6219.9688 1.125.9688 .4921,0 1.1563-.519 1.1562-1.0312 0-.8847-.827-1.2091-.827-2.25 0-3.4882 6.0568-1.3212 6.3438,3.5312 .1467,2.482-1.2188,2.6488-1.2188,3.8438-1e-05,.957.6298,1.3125 1.2812,1.3125 .6371,0 1.1562-.3045 1.1562-1.3125 0-.8243-1.0946-1.3577-1.0625-3.8125 .0672-5.1431 4.351-3.4248 4.5938,1.9688 .072,1.6001-1.0312,2.1622-1.0312,3.4062 0,.6917.5372,1.1875 1.125,1.1875 .5749,0 1.1875-.5214 1.1875-1.25 0-1.3116-1.0957-1.7761-1.0625-3.4062 .1204-5.911 3.7117-10.0209 4.375-4.1562 .1587,1.4028-.8438,1.9033-.8438,3.1562 1e-05,.7461.5113,1.2812 1,1.2812 .4996,0 .9688-.5104.9688-1.2188 0-1.2115-1.0175-1.8032-.8438-3.25 .6525-5.4345 3.7428-6.3461 5.2188-8.5139-6.5371-9.48-19.8057-9.4957-24.9062,0z" fill="#fff" fill-rule="evenodd"/>
<path d="m-239.5384,367.2516c7.1019,6.0753 14.0808,6.0659 22.0971.2652-5.2733-8.2326-17.6579-8.2177-22.0971-.2652z" fill-rule="evenodd"/>
<path d="m520.2538,370.0483c0,2.7825-2.2557,5.0381-5.0381,5.0381s-5.0381-2.2557-5.0381-5.0381 2.2557-5.0381 5.0381-5.0381 5.0381,2.2557 5.0381,5.0381z" fill="#fff" transform="matrix(.86483,0,0,.86483,-674.32756,46.50055)"/>
<path d="m516.3438,365.5184c0,1.1218-.9094,2.0312-2.0312,2.0312s-2.0312-.9094-2.0312-2.0312 .9094-2.0312 2.0312-2.0312 2.0312.9094 2.0312,2.0312z" transform="matrix(.76939,0,0,.76939,-624.49035,85.13368)"/>
<path d="m-237.533,376.0587v-4.9055" fill="none" stroke="#fff"/>
<path d="m-230.8704,380.6107v-4.9055" fill="none" stroke="#fff"/>
<path d="m-226.0349,381.8923v-4.9055" fill="none" stroke="#fff"/>
<path d="m-221.3686,378.0475v-4.9055" fill="none" stroke="#fff"/>
</g>
</svg>
