<svg viewBox="0 0 512 512" xmlns="http://www.w3.org/2000/svg">

<g transform="matrix(18.68858,0,0,18.68858,-227.11203,-19083.59152)">
<path d="m25.2188,1022.3125c5.549,5.2016 9.8415,10.3964 13.4062,15.0938v-6.0152c-4.1762-3.7788-8.7797-6.8263-13.4062-9.0786z" fill="#fff" fill-rule="evenodd"/>
<path d="m17.75,1023.2813c7.7021,7.8012 13.8348,16.843 19.1875,24.375h1.6875v-6.1175c-2.2129-3.7041-8.2825-10.3451-9.875-11.4138 1.2916,1.7873 2.414,3.4424 3.4688,5.0313-4.6814-5.1234-9.8172-9.6106-14.4688-11.875z" fill="#fff" fill-rule="evenodd"/>
<path d="m13.5,1029.125c4.8703,5.3531 8.4916,10.1865 11.3438,14.5313-.4538-.073-.9873.265-1.0839.7276-.3328,1.5934.6908,2.8849 2.5474,3.2724h6.7241c-5.2423-7.4773-12.5634-15.1392-19.5312-18.5313z" fill="#fff" fill-rule="evenodd"/>
<path d="m21.3375,1042.4535c0,.5847-.474,1.0587-1.0587,1.0587s-1.0587-.474-1.0587-1.0587 .474-1.0587 1.0587-1.0587 1.0587.474 1.0587,1.0587z" fill="#fff" transform="matrix(1.66667,0,0,1.66667,1.72809,-691.97515)"/>
<path d="m21.3375,1042.4535c0,.5847-.474,1.0587-1.0587,1.0587s-1.0587-.474-1.0587-1.0587 .474-1.0587 1.0587-1.0587 1.0587.474 1.0587,1.0587z" fill="#fff" transform="translate(1.6187,.7558)"/>
<path d="m21.3375,1042.4535c0,.5847-.474,1.0587-1.0587,1.0587s-1.0587-.474-1.0587-1.0587 .474-1.0587 1.0587-1.0587 1.0587.474 1.0587,1.0587z" fill="#fff" transform="translate(16.4021,-12.7601)"/>
<path d="m21.3375,1042.4535c0,.5847-.474,1.0587-1.0587,1.0587s-1.0587-.474-1.0587-1.0587 .474-1.0587 1.0587-1.0587 1.0587.474 1.0587,1.0587z" fill="#fff" transform="matrix(.90581,.43932,-.16579,.80931,173.53713,172.48643)"/>
<path d="m21.3375,1042.4535c0,.5847-.474,1.0587-1.0587,1.0587s-1.0587-.474-1.0587-1.0587 .474-1.0587 1.0587-1.0587 1.0587.474 1.0587,1.0587z" fill="#fff" transform="matrix(.65675,-.31419,.31419,.65675,-324.5693,346.60882)"/>
<path d="m21.3375,1042.4535c0,.5847-.474,1.0587-1.0587,1.0587s-1.0587-.474-1.0587-1.0587 .474-1.0587 1.0587-1.0587 1.0587.474 1.0587,1.0587z" fill="#fff" transform="matrix(1.36262,0,0,1.36262,-9.99958,-382.41233)"/>
<path d="m21.3375,1042.4535c0,.5847-.474,1.0587-1.0587,1.0587s-1.0587-.474-1.0587-1.0587 .474-1.0587 1.0587-1.0587 1.0587.474 1.0587,1.0587z" fill="#fff" transform="matrix(.7643,0,0,.7643,12.45912,227.04564)"/>
<path d="m21.3375,1042.4535c0,.5847-.474,1.0587-1.0587,1.0587s-1.0587-.474-1.0587-1.0587 .474-1.0587 1.0587-1.0587 1.0587.474 1.0587,1.0587z" fill="#fff" transform="matrix(1.36262,0,0,1.36262,-6.94627,-393.6771)"/>
<path d="m21.3375,1042.4535c0,.5847-.474,1.0587-1.0587,1.0587s-1.0587-.474-1.0587-1.0587 .474-1.0587 1.0587-1.0587 1.0587.474 1.0587,1.0587z" fill="#fff" transform="matrix(-.58255,.38767,-.60449,-.79211,669.50505,1845.8838)"/>
<path d="m21.3375,1042.4535c0,.5847-.474,1.0587-1.0587,1.0587s-1.0587-.474-1.0587-1.0587 .474-1.0587 1.0587-1.0587 1.0587.474 1.0587,1.0587z" fill="#fff" transform="matrix(-.6331,.29806,-.4818,-.87219,550.65647,1929.3374)"/>
<path d="m21.3375,1042.4535c0,.5847-.474,1.0587-1.0587,1.0587s-1.0587-.474-1.0587-1.0587 .474-1.0587 1.0587-1.0587 1.0587.474 1.0587,1.0587z" fill="#fff" transform="matrix(-.46236,.52524,-.7889,-.60866,847.20749,1659.2731)"/>
</g>
</svg>
