<svg viewBox="0 0 512 512" xmlns="http://www.w3.org/2000/svg">

<g transform="matrix(18.68858,0,0,18.68858,-916.15027,-40834.02896)">
<g transform="matrix(.96812,-.29023,.29071,.96759,-242.96099,1440.48113)">
<path d="m64.0599,804.6394c-2.4641.8513-5.3754,3.7166-4.9005,8.2295 .425,4.0393 6.9575,3.8782 6.192.5853-.6831-2.9384-1.1862-5.9372 5.2005-5.9372 .5347-1.4841 1.0328-3.0579-.5745-4.2072-2.825-1.5918-5.1422-.3605-5.9174,1.3296z" fill="#fff" stroke="#000" stroke-width=".9896"/>
<path d="m64.967,808.7044c2.1279,2.6484 5.8598.8545 5.003-2.4045" fill="none" stroke="#fff" stroke-width=".9896"/>
</g>
<path d="m68.4585,2186.0771c-3.3021,6.1313-8.1396,8.9583-13.6402,12.354l2.1666,3.5037c5.496-3.3932 10.3292-6.4252 17.1799-6.6293z" fill="#fff"/>
<path d="m74.3713,2198.8848c0,2.6737-.5632,4.8412-1.2579,4.8412s-1.2579-2.1675-1.2579-4.8412 .5632-4.8412 1.2579-4.8412 1.2579,2.1675 1.2579,4.8412z" stroke="#fff" stroke-width=".8834" transform="matrix(1.06715,-.65879,.53733,.869,-1188.1501,327.91615)"/>
<path d="m53.856,2200.5072c-1.278-.238-2.0258-1.1768-1.972-1.9679" fill="none" stroke="#fff"/>
</g>
</svg>
