<svg viewBox="0 0 512 512" xmlns="http://www.w3.org/2000/svg">

<g transform="matrix(18.68858,0,0,18.68858,-916.15027,-40834.02896)">
<g transform="matrix(.96812,-.29023,.29071,.96759,-242.96099,1440.48113)">
<path d="m 64.0599 804.639 c -2.4641 0.8513 -5.3754 3.7166 -4.9005 8.2295 0.425 4.0393 6.9575 3.8782 6.192 0.5853 -0.6831 -2.9384 -1.1862 -5.9372 5.2005 -5.9372 0.5347 -1.4841 1.0328 -3.0579 -0.5745 -4.2072 -2.825 -1.5918 -5.1422 -0.3605 -5.9174 1.3296 z" fill="#fff" stroke="#000" stroke-width=".9896"/>
<path d="m 64.967 808.704 c 2.1279 2.6484 5.8598 0.8545 5.003 -2.4045" fill="none" stroke="#fff" stroke-width=".9896"/>
</g>
<path d="m 68.4585 2186.08 c -3.3021 6.1313 -8.1396 8.9583 -13.6402 12.354 l 2.1666 3.5037 c 5.496 -3.3932 10.3292 -6.4252 17.1799 -6.6293 z" fill="#fff"/>
<path d="m 74.3713 2198.88 c 0 2.6737 -0.5632 4.8412 -1.2579 4.8412 s -1.2579 -2.1675 -1.2579 -4.8412 0.5632 -4.8412 1.2579 -4.8412 1.2579 2.1675 1.2579 4.8412 z" stroke="#fff" stroke-width=".8834" transform="matrix(1.06715,-.65879,.53733,.869,-1188.1501,327.91615)"/>
<path d="m 53.856 2200.51 c -1.278 -0.238 -2.0258 -1.1768 -1.972 -1.9679" fill="none" stroke="#fff"/>
</g>
</svg>
