<svg viewBox="0 0 512 512" xmlns="http://www.w3.org/2000/svg">

<g transform="matrix(18.68858,0,0,18.68858,-229.01198,-29938.73237)">
<g transform="translate(.0746,-2.1358)">
<path d="m 30.4905 1621.89 c 3.4959 2.4313 7.346 -1.037 5.5388 -6.3138 3.1819 3.054 3.4089 6.787 0.1397 9.4488 -3.0103 2.4509 -6.3507 1.505 -7.9813 -0.1519" fill="#fff"/>
<path d="m 21.2978 1621.89 c -3.4959 2.4313 -7.346 -1.037 -5.5388 -6.3138 -3.1819 3.054 -3.4089 6.787 -0.1397 9.4488 3.0103 2.4509 6.3507 1.505 7.9813 -0.1519" fill="#fff"/>
</g>
<path d="m 26.0047 1611.32 c 2.7402 0 3.0735 3.0964 5.7651 4.1883 2.6004 1.0551 1.226 5.7781 -2.202 6.777 -2.4158 0.7038 -4.7889 0.6896 -7.1259 -0.0001 -2.7568 -0.8136 -5.5161 -5.6613 -2.2022 -6.777 2.7252 -0.9174 2.9162 -4.1882 5.765 -4.1882 z" fill="#fff" stroke="#000"/>
<path d="m 21.9449 1609.74 c 0 1.0321 -0.8367 1.8688 -1.8688 1.8688 s -1.8688 -0.8367 -1.8688 -1.8688 0.8367 -1.8688 1.8688 -1.8688 1.8688 0.8367 1.8688 1.8688 z" fill="#fff" transform="matrix(.63635,0,0,.63635,17.78531,585.3155)"/>
<path d="m 21.9449 1609.74 c 0 1.0321 -0.8367 1.8688 -1.8688 1.8688 s -1.8688 -0.8367 -1.8688 -1.8688 0.8367 -1.8688 1.8688 -1.8688 1.8688 0.8367 1.8688 1.8688 z" fill="#fff" transform="matrix(.63635,0,0,.63635,9.05608,585.3155)"/>
<g transform="translate(0,-2.1358)">
<path d="m 24.613 1616.33 c -0.9849 -0.2638 -4.9056 6.6019 -1.7536 6.6019 s 2.7385 -6.3379 1.7536 -6.6019 z"/>
<path d="m 27.3381 1616.33 c 0.9849 -0.2638 4.9056 6.6019 1.7536 6.6019 s -2.7385 -6.3379 -1.7536 -6.6019 z"/>
</g>
</g>
</svg>
