<svg viewBox="0 0 512 512" xmlns="http://www.w3.org/2000/svg">

<g transform="matrix(18.68858,0,0,18.68858,-229.01198,-29938.73237)">
<g transform="translate(.0746,-2.1358)">
<path d="m30.4905,1621.8947c3.4959,2.4313 7.346-1.037 5.5388-6.3138 3.1819,3.054 3.4089,6.787.1397,9.4488-3.0103,2.4509-6.3507,1.505-7.9813-.1519" fill="#fff"/>
<path d="m21.2978,1621.8947c-3.4959,2.4313-7.346-1.037-5.5388-6.3138-3.1819,3.054-3.4089,6.787-.1397,9.4488 3.0103,2.4509 6.3507,1.505 7.9813-.1519" fill="#fff"/>
</g>
<path d="m26.0047,1611.3183c2.7402,0 3.0735,3.0964 5.7651,4.1883 2.6004,1.0551 1.226,5.7781-2.202,6.777-2.4158.7038-4.7889.6896-7.1259-.0001-2.7568-.8136-5.5161-5.6613-2.2022-6.777 2.7252-.9174 2.9162-4.1882 5.765-4.1882z" fill="#fff" stroke="#000"/>
<path d="m21.9449,1609.7413c0,1.0321-.8367,1.8688-1.8688,1.8688s-1.8688-.8367-1.8688-1.8688 .8367-1.8688 1.8688-1.8688 1.8688.8367 1.8688,1.8688z" fill="#fff" transform="matrix(.63635,0,0,.63635,17.78531,585.3155)"/>
<path d="m21.9449,1609.7413c0,1.0321-.8367,1.8688-1.8688,1.8688s-1.8688-.8367-1.8688-1.8688 .8367-1.8688 1.8688-1.8688 1.8688.8367 1.8688,1.8688z" fill="#fff" transform="matrix(.63635,0,0,.63635,9.05608,585.3155)"/>
<g transform="translate(0,-2.1358)">
<path d="m24.613,1616.3259c-.9849-.2638-4.9056,6.6019-1.7536,6.6019s2.7385-6.3379 1.7536-6.6019z"/>
<path d="m27.3381,1616.3259c.9849-.2638 4.9056,6.6019 1.7536,6.6019s-2.7385-6.3379-1.7536-6.6019z"/>
</g>
</g>
</svg>
