<svg viewBox="0 0 512 512" xmlns="http://www.w3.org/2000/svg">

<g transform="matrix(18.68858,0,0,18.68858,-9079.17286,-19764.41177)">
<path d="m486.4497,1074.5767v9.715h26.5288v-12.137l-6.2443,1.8922-.3406,2.3842-2.7248,1.6651-3.7466.1514-3.2925-1.3246-4.7684-.227-5.4117-2.1193z" fill="#fff" fill-rule="evenodd"/>
<g transform="matrix(1.23106,0,0,1.23106,-80.34502,347.10692)">
<path d="m480.7387,586.7371c0-2.6489-2.1713-4.7988-4.8465-4.7988s-4.8465,2.1498-4.8465,4.7988c0,1.1116 2.1713,2.0138 4.8465,2.0138s4.8465-.9022 4.8465-2.0138z" stroke="#fff" stroke-width=".8123"/>
<path d="m56,703.3622c0,.7249-.5876,1.3125-1.3125,1.3125s-1.3125-.5876-1.3125-1.3125 .5876-1.3125 1.3125-1.3125 1.3125.5876 1.3125,1.3125z" fill="#fff" transform="matrix(1.17042,0,0,.75323,410.55541,53.65669)"/>
<path d="m475.6638,588.1585c0-3.9855-3.2325-7.2202-7.2153-7.2202s-7.2153,3.2346-7.2153,7.2202c0,1.6725 3.2325,3.0299 7.2153,3.0299s7.2153-1.3574 7.2153-3.0299z" stroke="#fff" stroke-width=".8123"/>
<path d="m56,703.3622c0,.7249-.5876,1.3125-1.3125,1.3125s-1.3125-.5876-1.3125-1.3125 .5876-1.3125 1.3125-1.3125 1.3125.5876 1.3125,1.3125z" fill="#fff" transform="matrix(2.19705,0,0,1.36822,347.30964,-377.95846)"/>
<path d="m474.9929,591.0519c0-1.4021-1.1813-2.54-2.6368-2.54s-2.6368,1.1379-2.6368,2.54c0,.5884 1.1813,1.0659 2.6368,1.0659s2.6368-.4775 2.6368-1.0659z" stroke="#fff" stroke-width=".8123"/>
<path d="m56,703.3622c0,.7249-.5876,1.3125-1.3125,1.3125s-1.3125-.5876-1.3125-1.3125 .5876-1.3125 1.3125-1.3125 1.3125.5876 1.3125,1.3125z" fill="#fff" transform="matrix(.85018,0,0,.57095,424.95587,187.93505)"/>
</g>
<path d="m486.2276,1074.3192c3.2842,1.923 7.1383,3.0907 10.6504,2.676 3.3813,2.3167 11.3385,1.3398 9.5265-2.8901 2.3298-.2106 4.747-.7818 6.5294-2.3548" fill="none" stroke="#fff"/>
<path d="m486.3365,1058.0709h26.4314v26.4314h-26.4314z" fill="none" stroke="#000"/>
<path d="m394.6058,1028.0475c0,.5228-.4238.9466-.9466.9466s-.9466-.4238-.9466-.9466 .4238-.9466.9466-.9466 .9466.4238.9466.9466z" transform="matrix(-1.14436,-1.14436,-1.14436,1.14436,2121.5839,357.51139)"/>
<path d="m394.6058,1028.0475c0,.5228-.4238.9466-.9466.9466s-.9466-.4238-.9466-.9466 .4238-.9466.9466-.9466 .9466.4238.9466.9466z" transform="matrix(-2.10806,-2.10806,-2.10806,2.10806,3489.3567,-257.28671)"/>
<path d="m394.6058,1028.0475c0,.5228-.4238.9466-.9466.9466s-.9466-.4238-.9466-.9466 .4238-.9466.9466-.9466 .9466.4238.9466.9466z" transform="matrix(-.92445,-.92445,-.92445,.92445,1811.7816,494.17828)"/>
<path d="m394.6058,1028.0475c0,.5228-.4238.9466-.9466.9466s-.9466-.4238-.9466-.9466 .4238-.9466.9466-.9466 .9466.4238.9466.9466z" transform="matrix(-1.292,1.292,-1.292,-1.292,2345.0338,1899.2216)"/>
</g>
</svg>
