<svg viewBox="0 0 512 512" xmlns="http://www.w3.org/2000/svg">

<g transform="matrix(18.68858,0,0,18.68858,-9084.83515,-39461.5303)">
<path d="m505.178,2120.8704c-2.5727-4.8871-8.4672-6.4012-14.5445-2.6643 3.4331-5.516 14.5492-7.8615 18.7582,1.044" fill="#fff"/>
<path d="m475.443,2134.7432c0,1.8065-1.4645,3.271-3.271,3.271s-3.271-1.4645-3.271-3.271 1.4645-3.2711 3.271-3.2711 3.271,1.4645 3.271,3.2711z" fill="#fff" stroke="#000" stroke-width=".7444" transform="matrix(1.15721,-.67518,.66811,1.16945,-1464.0328,-54.49011)"/>
<path d="m506.8855,2123.6489c0,.8303-.6731,1.5035-1.5034,1.5035s-1.5034-.6732-1.5034-1.5035 .6731-1.5034 1.5034-1.5034 1.5034.6731 1.5034,1.5034z" fill="none" stroke="#000" stroke-width="1.4845" transform="matrix(.67364,0,0,.67364,164.77885,693.54816)"/>
<path d="m495.1232,2127.6139 10.0729-3.483" fill="none" stroke="#fff"/>
<path d="m500.4215,2112.9024c1.4194.2276 2.7551.6872 3.9353,1.2844l-3.1564,1.7978c-2.2206-1.6426-5.8335-2.4057-10.415-1.8156 2.5753-1.3274 6.2736-1.8071 9.6363-1.2674z" fill="#fff"/>
<path d="m491.492,2115.9484c-1.2516.5442-2.3263,1.2881-3.1947,2.1275l3.7594.9801c1.4141-2.0725 4.5233-3.6303 9.1255-4.1257-3.0084-.6674-6.7245-.2702-9.6905,1.0177z"/>
<path d="m475.443,2134.7432c0,1.8065-1.4645,3.271-3.271,3.271s-3.271-1.4645-3.271-3.271 1.4645-3.2711 3.271-3.2711 3.271,1.4645 3.271,3.2711z" fill="#fff" stroke="#000" stroke-width=".7444" transform="matrix(1.15721,-.67518,.66811,1.16945,-1481.6856,-48.34247)"/>
<path d="m493.5374,2128.1075c2.5532,5.7176 8.4543,7.2886 14.5665,2.5997-3.4708,6.7029-14.6269,9.9336-18.7992-.5045" fill="#fff"/>
<path d="m506.0394,2128.9813c-1.0121,3.118-4.0269,5.4632-8.8125,6.125 5.1053,1.6148 11.7453-.8189 13.5312-6.125h-4.7188z"/>
<path d="m493.0822,2130.2465c3.4176,4.4557 10.102,6.228 16.3668,3.4388-3.1361,4.5424-15.1264,5.7323-20.8255-2.3508" fill="#fff"/>
<path d="m505.9601,2136.2879c-3.8389,1.3064-9.0238.2082-12.0068-3.1625 .3292,3.3427 7.5731,7.6114 14.2162,5.0895"/>
<path d="m496.6978,2125.0947 .9639,2.8238" fill="none" stroke="#000"/>
<path d="m502.5014,2123.4242 .9639,2.8239" fill="none" stroke="#000"/>
<path d="m499.5568,2124.3489 .9639,2.8239" fill="none" stroke="#000"/>
</g>
</svg>
