<svg viewBox="0 0 512 512" xmlns="http://www.w3.org/2000/svg">

<g transform="matrix(18.68858,0,0,18.68858,-9084.83515,-39461.5303)">
<path d="m 505.178 2120.87 c -2.5727 -4.8871 -8.4672 -6.4012 -14.5445 -2.6643 3.4331 -5.516 14.5492 -7.8615 18.7582 1.044" fill="#fff"/>
<path d="m 475.443 2134.74 c 0 1.8065 -1.4645 3.271 -3.271 3.271 s -3.271 -1.4645 -3.271 -3.271 1.4645 -3.2711 3.271 -3.2711 3.271 1.4645 3.271 3.2711 z" fill="#fff" stroke="#000" stroke-width=".7444" transform="matrix(1.15721,-.67518,.66811,1.16945,-1464.0328,-54.49011)"/>
<path d="m 506.885 2123.65 c 0 0.8303 -0.6731 1.5035 -1.5034 1.5035 s -1.5034 -0.6732 -1.5034 -1.5035 0.6731 -1.5034 1.5034 -1.5034 1.5034 0.6731 1.5034 1.5034 z" fill="none" stroke="#000" stroke-width="1.4845" transform="matrix(.67364,0,0,.67364,164.77885,693.54816)"/>
<path d="m 495.123 2127.61 10.0729 -3.483" fill="none" stroke="#fff"/>
<path d="m 500.421 2112.9 c 1.4194 0.2276 2.7551 0.6872 3.9353 1.2844 l -3.1564 1.7978 c -2.2206 -1.6426 -5.8335 -2.4057 -10.415 -1.8156 2.5753 -1.3274 6.2736 -1.8071 9.6363 -1.2674 z" fill="#fff"/>
<path d="m 491.492 2115.95 c -1.2516 0.5442 -2.3263 1.2881 -3.1947 2.1275 l 3.7594 0.9801 c 1.4141 -2.0725 4.5233 -3.6303 9.1255 -4.1257 -3.0084 -0.6674 -6.7245 -0.2702 -9.6905 1.0177 z"/>
<path d="m 475.443 2134.74 c 0 1.8065 -1.4645 3.271 -3.271 3.271 s -3.271 -1.4645 -3.271 -3.271 1.4645 -3.2711 3.271 -3.2711 3.271 1.4645 3.271 3.2711 z" fill="#fff" stroke="#000" stroke-width=".7444" transform="matrix(1.15721,-.67518,.66811,1.16945,-1481.6856,-48.34247)"/>
<path d="m 493.537 2128.11 c 2.5532 5.7176 8.4543 7.2886 14.5665 2.5997 -3.4708 6.7029 -14.6269 9.9336 -18.7992 -0.5045" fill="#fff"/>
<path d="m 506.039 2128.98 c -1.0121 3.118 -4.0269 5.4632 -8.8125 6.125 5.1053 1.6148 11.7453 -0.8189 13.5312 -6.125 h -4.7188 z"/>
<path d="m 493.082 2130.25 c 3.4176 4.4557 10.102 6.228 16.3668 3.4388 -3.1361 4.5424 -15.1264 5.7323 -20.8255 -2.3508" fill="#fff"/>
<path d="m 505.96 2136.29 c -3.8389 1.3064 -9.0238 0.2082 -12.0068 -3.1625 0.3292 3.3427 7.5731 7.6114 14.2162 5.0895"/>
<path d="m 496.698 2125.09 0.9639 2.8238" fill="none" stroke="#000"/>
<path d="m 502.501 2123.42 0.9639 2.8239" fill="none" stroke="#000"/>
<path d="m 499.557 2124.35 0.9639 2.8239" fill="none" stroke="#000"/>
</g>
</svg>
