<svg viewBox="0 0 512 512" xmlns="http://www.w3.org/2000/svg">

<g transform="matrix(18.68858,0,0,18.68858,-914.32032,-46958.57224)">
<g transform="translate(0,.2674)">
<path d="m 64.7873 2520.24 h 6.1081 v 12.0955 h -6.1081 z" fill="#fff"/>
<path d="m 66.2201 2524.77 7.1e-05 6.7396" fill="none" stroke="#000"/>
<path d="m 69.483 2524.77 7.1e-05 6.7396" fill="none" stroke="#000"/>
</g>
<path d="m 52.6644 2524.7 4.5466 0.5135 -3.3976 7.4654 1.9859 0.5321 -0.6457 2.4099 -5.0526 -1.3539 z" fill="#fff"/>
<path d="m 55.3918 2518.06 -2.8125 2.8437 v 4.5625 h 10.6395 v 4.0625 h 9.3385 v -11.4687 z" fill="#fff"/>
<path d="m 54.7191 2529.02 h 16.0541" fill="none" stroke="#fff"/>
<path d="m 58.1666 2525.11 2.122 2.5677 0.3921 -2.6463" fill="#fff"/>
<path d="m 59.5842 2530.02 h 16.0541" fill="none" stroke="#000"/>
<path d="m 73.1016 2519.01 h 2.8276 v 3.8256 h -2.8276 z" fill="#fff" stroke="#000"/>
<path d="m 64.922 2519.94 h 5.8218 v 1.7642 h -5.8218 z"/>
<path d="m 71.1554 2518.69 v -2.1758" fill="none" stroke="#fff"/>
</g>
</svg>
