<svg viewBox="0 0 512 512" xmlns="http://www.w3.org/2000/svg">

<g transform="matrix(18.68858,0,0,18.68858,-4313.93301,-26545.53249)">
<path d="m236.9298,1425.0629c.0414,5.7342 2.604,11.4925 7.7339,16.4492 5.0997-4.9462 7.7138-10.7108 7.7591-16.4492-4.3982.9706-11.0946.9828-15.493,0z" fill="#fff" stroke="#fff"/>
<path d="m250.9548,1436.6801 1.0127,2.9015-6.5453,5.9985z" fill="#fff"/>
<path d="m251.527,1443.6081-1.0128-2.9014 6.5453-5.9984z" fill="#fff"/>
<path d="m237.9871,1436.6801-1.0127,2.9015 6.5453,5.9985z" fill="#fff"/>
<path d="m237.4149,1443.6081 1.0128-2.9014-6.5453-5.9984z" fill="#fff"/>
<path d="m238.7439,1426.8001c.0317,4.3914 1.9942,8.8012 5.9228,12.5971 3.9054-3.7879 5.9074-8.2025 5.942-12.5971-3.3682.7433-8.4964.7526-11.8648,0z" fill="#fff" stroke="#000"/>
</g>
</svg>
