<svg viewBox="0 0 512 512" xmlns="http://www.w3.org/2000/svg">

<g transform="matrix(18.68858,0,0,18.68858,-914.32032,-46958.57224)">
<g transform="translate(0,.2674)">
<path d="m64.7873,2520.2397h6.1081v12.0955h-6.1081z" fill="#fff"/>
<path d="m66.2201,2524.7713 7.1e-05,6.7396" fill="none" stroke="#000"/>
<path d="m69.483,2524.7713 7.1e-05,6.7396" fill="none" stroke="#000"/>
</g>
<path d="m52.6644,2524.7019 4.5466.5135-3.3976,7.4654 1.9859.5321-.6457,2.4099-5.0526-1.3539z" fill="#fff"/>
<path d="m55.3918,2518.0587-2.8125,2.8437v4.5625h10.6395v4.0625h9.3385v-11.4687z" fill="#fff"/>
<path d="m54.7191,2529.0225h16.0541" fill="none" stroke="#fff"/>
<path d="m58.1666,2525.1096 2.122,2.5677 .3921-2.6463" fill="#fff"/>
<path d="m59.5842,2530.0205h16.0541" fill="none" stroke="#000"/>
<path d="m73.1016,2519.0129h2.8276v3.8256h-2.8276z" fill="#fff" stroke="#000"/>
<path d="m64.922,2519.9441h5.8218v1.7642h-5.8218z"/>
<path d="m71.1554,2518.6933v-2.1758" fill="none" stroke="#fff"/>
</g>
</svg>
