<svg viewBox="0 0 512 512" xmlns="http://www.w3.org/2000/svg">

<g transform="matrix(16.67675,16.67675,-16.67675,16.67675,14737.10086,-30681.27482)">
<path d="m499.1418,1358.5396c-1.7635,0-3.9264,1.424-3.9264,3.1876s2.1629,3.1874 3.9264,3.1874h3.8921c1.7635,0 3.1875-1.4239 3.1875-3.1874s-1.424-3.1876-3.1875-3.1876z" fill="#fff"/>
<path d="m492.893,1358.5396c-.923,2.0726-.8676,4.2029 0,6.375h2.4403c1.1342-2.125.8469-4.25 0-6.375z" fill="#fff"/>
<path d="m505.5821,1360.836v1.7822h.9848v-1.7822z" fill="#fff"/>
</g>
<g transform="matrix(5.20982,19.44322,-19.44322,5.20982,23990.24478,-16463.90488)">
<path d="m499.1418,1358.5396c-1.7635,0-3.9264,1.424-3.9264,3.1876s2.1629,3.1874 3.9264,3.1874h3.8921c1.7635,0 3.1875-1.4239 3.1875-3.1874s-1.424-3.1876-3.1875-3.1876z" fill="#fff"/>
<path d="m492.893,1358.5396c-.923,2.0726-.8676,4.2029 0,6.375h2.4403c1.1342-2.125.8469-4.25 0-6.375z" fill="#fff"/>
<path d="m505.5821,1360.836v1.7822h.9848v-1.7822z" fill="#fff"/>
</g>
<g transform="matrix(16.83075,9.71731,-9.71731,16.83075,5194.2019,-27635.20634)">
<path d="m499.1418,1358.5396c-1.7635,0-3.9264,1.424-3.9264,3.1876s2.1629,3.1874 3.9264,3.1874h3.8921c1.7635,0 3.1875-1.4239 3.1875-3.1874s-1.424-3.1876-3.1875-3.1876z" fill="#fff"/>
<path d="m492.893,1358.5396c-.923,2.0726-.8676,4.2029 0,6.375h2.4403c1.1342-2.125.8469-4.25 0-6.375z" fill="#fff"/>
<path d="m505.5821,1360.836v1.7822h.9848v-1.7822z" fill="#fff"/>
</g>
</svg>
