<svg viewBox="0 0 512 512" xmlns="http://www.w3.org/2000/svg">

<g transform="matrix(18.68858,0,0,18.68858,-6354.63369,-37446.66614)">
<path d="m351.3383,2014.5345c9.6746,5.6673 4.5049,10.8213 15.0911,15.1334-5.9537,1.665-11.693-1.4204-13.7441-5.1483 1.3326-2.6462.1629-5.4955-2.14-7.1127z" fill="#fff"/>
<path d="m345.9294,2008.6639c1.6753,1.7489 4.0646,3.0358 6.5646,3.6318 3.7389.8913 2.0979,4.6164-1.4677,2.9914 1.5412,5.0245-3.621,4.3527-3.5423.5277 .0352-1.7103-1.7399-4.8487-2.7211-6.0781" fill="#fff" stroke="#000"/>
<path d="m350.7294,2013.6728-1.5093,1.3153c-1.8648-2.7788-4.9299-5.5727-6.6951-6.1514l.9553-1.7306 1.9645-.7799c.9442,3.444 2.9493,5.4107 5.2846,7.3466z" fill="#fff"/>
<path d="m348.207,2017.9115c0,.9744-.7899,1.7643-1.7643,1.7643s-1.7643-.7899-1.7643-1.7643 .7899-1.7643 1.7643-1.7643 1.7643.7899 1.7643,1.7643z" fill="#fff" transform="matrix(.54079,.61995,-.62018,.54053,1406.4255,702.4451)"/>
<path d="m348.207,2017.9115c0,.9744-.7899,1.7643-1.7643,1.7643s-1.7643-.7899-1.7643-1.7643 .7899-1.7643 1.7643-1.7643 1.7643.7899 1.7643,1.7643z" fill="#fff" transform="matrix(.54079,.61995,-.62018,.54053,1408.5638,700.58142)"/>
<path d="m342.4427,2010.0864 4.66-4.0135" fill="none" stroke="#000"/>
<path d="m347.3652,2015.7967 4.3773-4.6866" fill="none" stroke="#000"/>
<path d="m343.7086,2011.4063 5.4412-3.394" fill="none" stroke="#000"/>
<path d="m345.9174,2013.1841 3.9597-3.5287" fill="none" stroke="#000"/>
</g>
</svg>
