<svg viewBox="0 0 512 512" xmlns="http://www.w3.org/2000/svg">

<g transform="matrix(18.68858,0,0,18.68858,-6354.63369,-37446.66614)">
<path d="m 351.338 2014.53 c 9.6746 5.6673 4.5049 10.8213 15.0911 15.1334 -5.9537 1.665 -11.693 -1.4204 -13.7441 -5.1483 1.3326 -2.6462 0.1629 -5.4955 -2.14 -7.1127 z" fill="#fff"/>
<path d="m 345.929 2008.66 c 1.6753 1.7489 4.0646 3.0358 6.5646 3.6318 3.7389 0.8913 2.0979 4.6164 -1.4677 2.9914 1.5412 5.0245 -3.621 4.3527 -3.5423 0.5277 0.0352 -1.7103 -1.7399 -4.8487 -2.7211 -6.0781" fill="#fff" stroke="#000"/>
<path d="m 350.729 2013.67 -1.5093 1.3153 c -1.8648 -2.7788 -4.9299 -5.5727 -6.6951 -6.1514 l 0.9553 -1.7306 1.9645 -0.7799 c 0.9442 3.444 2.9493 5.4107 5.2846 7.3466 z" fill="#fff"/>
<path d="m 348.207 2017.91 c 0 0.9744 -0.7899 1.7643 -1.7643 1.7643 s -1.7643 -0.7899 -1.7643 -1.7643 0.7899 -1.7643 1.7643 -1.7643 1.7643 0.7899 1.7643 1.7643 z" fill="#fff" transform="matrix(.54079,.61995,-.62018,.54053,1406.4255,702.4451)"/>
<path d="m 348.207 2017.91 c 0 0.9744 -0.7899 1.7643 -1.7643 1.7643 s -1.7643 -0.7899 -1.7643 -1.7643 0.7899 -1.7643 1.7643 -1.7643 1.7643 0.7899 1.7643 1.7643 z" fill="#fff" transform="matrix(.54079,.61995,-.62018,.54053,1408.5638,700.58142)"/>
<path d="m 342.443 2010.09 4.66 -4.0135" fill="none" stroke="#000"/>
<path d="m 347.365 2015.8 4.3773 -4.6866" fill="none" stroke="#000"/>
<path d="m 343.709 2011.41 5.4412 -3.394" fill="none" stroke="#000"/>
<path d="m 345.917 2013.18 3.9597 -3.5287" fill="none" stroke="#000"/>
</g>
</svg>
