<svg viewBox="0 0 512 512" xmlns="http://www.w3.org/2000/svg">

<g transform="matrix(18.68858,0,0,18.68858,5785.34947,-9853.69434)">
<path d="m -300.275 550.649 c 2.7805 1.0624 5.561 0.9241 8.3415 0 v 2.8107 c -2.7805 0.8958 -5.561 0.9395 -8.3415 0 v -2.8107 z" fill="#fff" stroke="#000"/>
<path d="m -305.993 545.306 c 7.5671 4.0647 12.3775 3.2526 20.5643 0 2.2919 -0.9106 3.2131 3.4553 0 3.8004 3.3406 0.1446 2.6452 4.2772 0 3.2033 -7.683 -3.1192 -13.1001 -3.3589 -20.5643 0 -2.8059 1.2627 -3.9032 -3.2394 0 -3.3118 -3.9151 -0.6782 -2.8621 -5.2293 0 -3.6919 z" fill="#fff"/>
<path d="m 440.346 544.846 -4.4548 -1.1937 3.2611 -3.2611 z" transform="matrix(.50294,.16676,.13476,-.62235,-590.76243,812.0806)"/>
<path d="m 440.346 544.846 -4.4548 -1.1937 3.2611 -3.2611 z" transform="matrix(.50294,.16676,.13476,-.62235,-588.60618,812.0806)"/>
<path d="m -295.899 527.964 c 6.2319 0 8.4541 7.7623 8.3639 13.5585 -2.9967 0 -4.291 2.3832 -4.1421 4.5261 -0.4967 0.3016 -0.9846 0.6263 -1.5856 0.7996 -0.8123 0.2342 -1.7044 0.3384 -2.5963 0.3383 s -1.7717 -0.1348 -2.6161 -0.3691 c -0.7672 -0.2128 -1.4858 -0.5474 -2.1135 -0.9534 0.0564 -2.0806 -0.9597 -4.3416 -4.1274 -4.3416 0.0855 -5.4874 2.532 -13.5584 8.817 -13.5585 z" fill="#fff" stroke="#000" stroke-width="1.2897"/>
<path d="m -300.059 539.016 c -0.5842 -0.2523 -1.04 -0.736 -1.2175 -1.3963 -0.3085 -1.1479 0.3732 -2.3253 1.5245 -2.6328 1.1253 -0.3007 2.2797 0.3404 2.6194 1.4417 -1.5105 0.6536 -2.586 1.6198 -2.9264 2.5875 z"/>
<path d="m -295.985 538.429 c 0.7882 0 1.2936 4.2078 1.7097 6.3117 -0.7177 -0.2451 -1.4412 -0.6504 -1.6844 -1.8067 -0.2434 1.1576 -0.8749 1.5129 -1.7351 1.8067 0.3079 -2.1039 0.923 -6.3117 1.7097 -6.3117 z" fill-rule="evenodd"/>
<path d="m -291.793 539.016 c 0.5842 -0.2523 1.0401 -0.736 1.2175 -1.3963 0.3085 -1.1479 -0.3732 -2.3253 -1.5245 -2.6328 -1.1253 -0.3007 -2.2797 0.3404 -2.6194 1.4417 1.5105 0.6536 2.586 1.6198 2.9264 2.5875 z"/>
<path d="m 440.346 544.846 -4.4548 -1.1937 3.2611 -3.2611 z" transform="matrix(.50294,.16676,.13476,-.62235,-593.16868,811.83753)"/>
<path d="m -291.39 546.184 -2.2909 0.1347 1.0902 2.4387 1.2007 -2.5734 z"/>
<path d="m 440.346 544.846 -4.4548 -1.1937 3.2611 -3.2611 z" transform="matrix(.50294,-.16676,.13476,.62235,-587.48061,285.71075)"/>
<path d="m 440.346 544.846 -4.4548 -1.1937 3.2611 -3.2611 z" transform="matrix(.50294,-.16676,.13476,.62235,-591.95525,285.71075)"/>
<path d="m 440.346 544.846 -4.4548 -1.1937 3.2611 -3.2611 z" transform="matrix(.50294,-.16676,.13476,.62235,-589.70525,285.71075)"/>
</g>
</svg>
