<svg viewBox="0 0 512 512" xmlns="http://www.w3.org/2000/svg">

<g transform="matrix(18.68858,0,0,18.68858,5785.34947,-9853.69434)">
<path d="m-300.2748,550.6493c2.7805,1.0624 5.561.9241 8.3415,0v2.8107c-2.7805.8958-5.561.9395-8.3415,0v-2.8107z" fill="#fff" stroke="#000"/>
<path d="m-305.993,545.3057c7.5671,4.0647 12.3775,3.2526 20.5643,0 2.2919-.9106 3.2131,3.4553 0,3.8004 3.3406.1446 2.6452,4.2772 0,3.2033-7.683-3.1192-13.1001-3.3589-20.5643,0-2.8059,1.2627-3.9032-3.2394 0-3.3118-3.9151-.6782-2.8621-5.2293 0-3.6919z" fill="#fff"/>
<path d="m440.3455,544.8455-4.4548-1.1937 3.2611-3.2611z" transform="matrix(.50294,.16676,.13476,-.62235,-590.76243,812.0806)"/>
<path d="m440.3455,544.8455-4.4548-1.1937 3.2611-3.2611z" transform="matrix(.50294,.16676,.13476,-.62235,-588.60618,812.0806)"/>
<path d="m-295.8995,527.9638c6.2319,0 8.4541,7.7623 8.3639,13.5585-2.9967,0-4.291,2.3832-4.1421,4.5261-.4967.3016-.9846.6263-1.5856.7996-.8123.2342-1.7044.3384-2.5963.3383s-1.7717-.1348-2.6161-.3691c-.7672-.2128-1.4858-.5474-2.1135-.9534 .0564-2.0806-.9597-4.3416-4.1274-4.3416 .0855-5.4874 2.532-13.5584 8.817-13.5585z" fill="#fff" stroke="#000" stroke-width="1.2897"/>
<path d="m-300.0594,539.0163c-.5842-.2523-1.04-.736-1.2175-1.3963-.3085-1.1479.3732-2.3253 1.5245-2.6328 1.1253-.3007 2.2797.3404 2.6194,1.4417-1.5105.6536-2.586,1.6198-2.9264,2.5875z"/>
<path d="m-295.9848,538.429c.7882,0 1.2936,4.2078 1.7097,6.3117-.7177-.2451-1.4412-.6504-1.6844-1.8067-.2434,1.1576-.8749,1.5129-1.7351,1.8067 .3079-2.1039.923-6.3117 1.7097-6.3117z" fill-rule="evenodd"/>
<path d="m-291.7934,539.0163c.5842-.2523 1.0401-.736 1.2175-1.3963 .3085-1.1479-.3732-2.3253-1.5245-2.6328-1.1253-.3007-2.2797.3404-2.6194,1.4417 1.5105.6536 2.586,1.6198 2.9264,2.5875z"/>
<path d="m440.3455,544.8455-4.4548-1.1937 3.2611-3.2611z" transform="matrix(.50294,.16676,.13476,-.62235,-593.16868,811.83753)"/>
<path d="m-291.3902,546.1844-2.2909.1347 1.0902,2.4387 1.2007-2.5734z"/>
<path d="m440.3455,544.8455-4.4548-1.1937 3.2611-3.2611z" transform="matrix(.50294,-.16676,.13476,.62235,-587.48061,285.71075)"/>
<path d="m440.3455,544.8455-4.4548-1.1937 3.2611-3.2611z" transform="matrix(.50294,-.16676,.13476,.62235,-591.95525,285.71075)"/>
<path d="m440.3455,544.8455-4.4548-1.1937 3.2611-3.2611z" transform="matrix(.50294,-.16676,.13476,.62235,-589.70525,285.71075)"/>
</g>
</svg>
