<svg viewBox="0 0 512 512" xmlns="http://www.w3.org/2000/svg">

<g transform="matrix(18.68858,0,0,18.68858,-5274.46621,-4107.85305)">
<path d="m 308.91 242.369 h -23.3976 c -2.1784 -2.7082 -2.721 -5.9357 0 -8.9035" fill="none" stroke="#fff"/>
<path d="m 285.48 233.419 h 22.6615 l -4.915 -12.0663 h -12.0525 l -5.694 12.0663 z" stroke="#fff"/>
<path d="m 308.181 234.428 c -0.6953 2.3119 -0.6896 4.6238 0 6.9357 h -22.1689 c -1.569 -2.1096 -1.9994 -4.6238 0 -6.9357 h 22.1689 z" fill="#fff" stroke="#000"/>
<path d="m 295.395 237.654 c 0 4.429 -0.8957 7.6101 -5.0907 9.1227 -0.541 -0.3185 -5.8359 -1.4841 -6.6406 -1.428 5.4688 -1.6926 6.5378 -3.2225 6.5378 -7.6948" fill="#fff" fill-rule="evenodd" stroke="#000"/>
<path d="m 288.827 237.664 h 7.9845" fill="none" stroke="#000"/>
<path d="m 292.872 221.051 -4.5489 12.4369" fill="none" stroke="#fff"/>
<path d="m 306.023 228.913 1.6564 4.0713 h -5.0326 l 3.3761 -4.0713 z" fill="#fff" fill-rule="evenodd"/>
<path d="m 303.201 221.425 0.9432 2.9268 -3.3471 -2.643 2.4039 -0.2837 z" fill="#fff" fill-rule="evenodd"/>
</g>
</svg>
