<svg xmlns="http://www.w3.org/2000/svg" viewBox="0 0 512 512">
<g transform="matrix(18.68858 0 0 18.68858 -18357.67158 -36586.79485)">
<path fill="#fff" d="m1000.3601,1965.946-4.4876,2.7195-4.4871-2.7198-.0001,8.1018 4.4874,2.5301 4.4875-2.5301z"/>
</g>
<g fill="none" transform="matrix(18.68858 0 0 18.68858 -18357.67158 -36586.79485)">
<path stroke="#fff" d="m989.8764,1965.9349v9.1365l5.9962,3.2563 5.9964-3.2563v-9.1355"/>
<path stroke="#000" d="m995.8201,1967.6518v9.4426"/>
</g>
<g fill="#fff" transform="matrix(18.92667 0 0 18.92667 -1614.32869 -37921.98027)">
<path d="m 111.29 2004.8 v 25.1935 h -2.2697 c -2.5791 0 -5.7128 -1.2104 -8.7761 -4.1181 6.72 0.6108 10.1661 -9.0064 11.0458 -21.0754 z"/>
<path d="m 86.0472 2004.8 v 25.1935 h 2.2697 c 2.5791 0 5.7128 -1.2104 8.7761 -4.1181 -6.72 0.6108 -10.1661 -9.0064 -11.0458 -21.0754 z"/>
</g>
<g transform="matrix(18.92667 0 0 18.92667 -1614.32869 -37921.98027)">
<path d="m 111.809 2014.03 v 7.0616 c -0.9317 2.1697 -2.9338 4.0351 -7.4361 4.9752 3.9713 -2.1447 6.3867 -5.7149 7.4361 -12.0368 z"/>
<path d="m 111.809 2023.82 v 3.8518 c -1.6807 0.9768 -2.8268 1.2246 -7.4361 -0.4281 4.0248 0.036 5.6913 -0.9445 7.4361 -3.4237 z"/>
<path d="m 85.5953 2014.03 v 7.0616 c 0.9317 2.1697 2.9338 4.0351 7.4361 4.9752 -3.9713 -2.1447 -6.3867 -5.7149 -7.4361 -12.0368 z"/>
<path d="m 85.5953 2023.82 v 3.8518 c 1.6807 0.9768 2.8268 1.2246 7.4361 -0.4281 -4.0248 0.036 -5.6913 -0.9445 -7.4361 -3.4237 z"/>
</g>
<g transform="matrix(18.68858 0 0 18.68858 -1592.08853 -37442.62716)">
<path fill="#fff" d="m90.3734,2004.5903c3.9473,1.6578 7.1907,4.6399 8.4624,8.4642 1.2717-3.8243 4.3829-6.8064 8.3301-8.4642h-16.7925z"/>
<path fill="none" stroke="#000" d="m85.5539,2004.2203h26.4314v26.4314h-26.4314z"/>
</g>
<g transform="matrix(18.68858 0 0 18.68858 -1595.28054 -37442.62716)">
<path d="m 91.6862 2004.23 h 4.1 c 1.3989 0.647 2.4636 2.0366 2.5979 5.1625 -1.0317 -2.7571 -3.2857 -4.434 -6.6979 -5.1625 z"/>
<path d="m 106.195 2004.23 h -4.1 c -1.3989 0.647 -2.4636 2.0366 -2.5979 5.1625 1.0317 -2.7571 3.2858 -4.434 6.6979 -5.1625 z"/>
</g>
</svg>
