<svg viewBox="0 0 512 512" xmlns="http://www.w3.org/2000/svg">

<g transform="matrix(18.68858,0,0,18.68858,-11122.47284,-3423.11979)">
<g transform="matrix(1.0739,.49029,-.62055,1.06301,197.02381,-534.67217)">
<path d="m 604.505 401.646 c -0.8195 -0.8544 -0.6823 -3.3104 0.5364 -4.1719 l 24.3282 8.0319 c -2.0125 1.5623 -1.0611 3.3813 0.1078 4.0215 l -12.836 4.5959 z" fill="#fff"/>
<path d="m 604.721 397.164 12.724 -4.6177 12.1182 12.7787 -12.724 4.6177 -12.1182 -12.7787 z" fill="#fff" stroke="#000" stroke-width=".8317"/>
<path d="m 617.31 409.659 c -1.2658 1.5227 -0.9752 3.6626 0.0617 4.568" fill="none" stroke="#000" stroke-width=".8317"/>
<path d="m 605.978 398.654 c -1.3735 1.6392 -0.6261 4.824 0.489 5.792" fill="none" stroke="#000" stroke-width=".8317"/>
<path d="m 615.723 408.552 c -1.6881 1.6473 -1.279 4.5068 -0.1958 5.2874" fill="none" stroke="#000" stroke-width=".8317"/>
</g>
<path d="m 606.548 195.695 c -2.5913 -1.4398 -2.1821 -3.0484 -0.8164 -4.1664 l 0.9799 1.5397 2.4723 -0.9643 0.8718 1.5584 c -4.5781 2.9087 1.2735 3.3768 3.8627 -1.3683 l 2.4608 2.0761 -2.3701 1.0252 c 0.9382 1.6232 2.6891 0.9135 3.6045 0.3199" fill="none" stroke="#000"/>
<path d="m 603.354 189.443 12.8301 0.8654" fill="none" stroke="#000"/>
<path d="m 605.499 197.607 12.8301 0.8654" fill="none" stroke="#000"/>
<path d="m 618.525 205.756 1.5129 1.4426 -2.1463 0.0703" fill="#fff"/>
<path d="m 620.367 206.793 -3.1415 0.4929 2.8199 1.1341"/>
</g>
</svg>
