<svg viewBox="0 0 512 512" xmlns="http://www.w3.org/2000/svg">

<g transform="matrix(18.68858,0,0,18.68858,-11122.47284,-3423.11979)">
<g transform="matrix(1.0739,.49029,-.62055,1.06301,197.02381,-534.67217)">
<path d="m604.5053,401.6455c-.8195-.8544-.6823-3.3104.5364-4.1719l24.3282,8.0319c-2.0125,1.5623-1.0611,3.3813.1078,4.0215l-12.836,4.5959z" fill="#fff"/>
<path d="m604.7206,397.1645 12.724-4.6177 12.1182,12.7787-12.724,4.6177-12.1182-12.7787z" fill="#fff" stroke="#000" stroke-width=".8317"/>
<path d="m617.3097,409.6589c-1.2658,1.5227-.9752,3.6626.0617,4.568" fill="none" stroke="#000" stroke-width=".8317"/>
<path d="m605.9778,398.6535c-1.3735,1.6392-.6261,4.824.489,5.792" fill="none" stroke="#000" stroke-width=".8317"/>
<path d="m615.7227,408.5518c-1.6881,1.6473-1.279,4.5068-.1958,5.2874" fill="none" stroke="#000" stroke-width=".8317"/>
</g>
<path d="m606.5482,195.6948c-2.5913-1.4398-2.1821-3.0484-.8164-4.1664l.9799,1.5397 2.4723-.9643 .8718,1.5584c-4.5781,2.9087 1.2735,3.3768 3.8627-1.3683l2.4608,2.0761-2.3701,1.0252c.9382,1.6232 2.6891.9135 3.6045.3199" fill="none" stroke="#000"/>
<path d="m603.3544,189.4426 12.8301.8654" fill="none" stroke="#000"/>
<path d="m605.499,197.6072 12.8301.8654" fill="none" stroke="#000"/>
<path d="m618.5248,205.7561 1.5129,1.4426-2.1463.0703" fill="#fff"/>
<path d="m620.3669,206.7935-3.1415.4929 2.8199,1.1341"/>
</g>
</svg>
