<svg viewBox="0 0 512 512" xmlns="http://www.w3.org/2000/svg">

<g transform="matrix(18.68858,0,0,18.68858,-10447.41204,-39462.46504)">
<g transform="matrix(2.01935,0,0,1.36628,-1438.2827,-570.45595)">
<path d="m 1001.13 1964.71 c -1.8085 0.7132 -3.8496 -0.063 -5.2616 3.1886 -1.119 -2.5576 -3.1709 -2.3088 -5.2611 -3.1889 l -0.0001 9.4992 5.2613 2.9665 5.2615 -2.9665 z" fill="#fff"/>
<path d="m 989.876 1965.93 v 9.1365 l 5.9962 3.2563 5.9964 -3.2563 v -9.1355" fill="none" stroke="#fff" stroke-width=".602"/>
<path d="m 995.82 1966.64 v 10.8077" fill="none" stroke="#000" stroke-width=".602"/>
</g>
<path d="m 570.214 2132.06 v 1.016 c 1.2202 0.5747 3.302 0.5476 4.9531 0 v -1.016 z" fill="#fff"/>
<path d="m 572.646 2130.96 c -1.6255 -5.8565 -6.7467 -2.9386 -9.2417 -5.5399" fill="none" stroke="#000"/>
<path d="m 565.339 2113.59 3.1616 0.6553 1.5509 13.1924 v 11.1431 h -3.1616 v -12.0899 z" fill="#fff" stroke="#000"/>
<path d="m 572.634 2130.96 c 2.0726 -5.8367 6.4599 -3.2499 9.487 -5.6966" fill="none" stroke="#000"/>
<path d="m 567.189 2138.45 1.2657 -2.4926 1.3376 2.4926"/>
</g>
</svg>
