<svg viewBox="0 0 512 512" xmlns="http://www.w3.org/2000/svg">

<g transform="matrix(18.68858,0,0,18.68858,-10447.41204,-39462.46504)">
<g transform="matrix(2.01935,0,0,1.36628,-1438.2827,-570.45595)">
<path d="m1001.1341,1964.7069c-1.8085.7132-3.8496-.063-5.2616,3.1886-1.119-2.5576-3.1709-2.3088-5.2611-3.1889l-.0001,9.4992 5.2613,2.9665 5.2615-2.9665z" fill="#fff"/>
<path d="m989.8764,1965.9349v9.1365l5.9962,3.2563 5.9964-3.2563v-9.1355" fill="none" stroke="#fff" stroke-width=".602"/>
<path d="m995.8201,1966.6383v10.8077" fill="none" stroke="#000" stroke-width=".602"/>
</g>
<path d="m570.2136,2132.0555v1.016c1.2202.5747 3.302.5476 4.9531,0v-1.016z" fill="#fff"/>
<path d="m572.6458,2130.9636c-1.6255-5.8565-6.7467-2.9386-9.2417-5.5399" fill="none" stroke="#000"/>
<path d="m565.3387,2113.5864 3.1616.6553 1.5509,13.1924v11.1431h-3.1616v-12.0899z" fill="#fff" stroke="#000"/>
<path d="m572.6336,2130.9637c2.0726-5.8367 6.4599-3.2499 9.487-5.6966" fill="none" stroke="#000"/>
<path d="m567.1895,2138.4545 1.2657-2.4926 1.3376,2.4926"/>
</g>
</svg>
