<svg viewBox="0 0 512 512" xmlns="http://www.w3.org/2000/svg">

<g transform="matrix(18.68858,0,0,18.68858,-8399.14944,-23140.19395)">
<path d="m457.7313,1244.8211 4.4051,7.8762-3.5975.8974 1.6765,3.2963-3.3076-2.8894 7.7119,10.7788-3.3107-7.6861 2.8053,3.7192-2.1109-5.4916 3.1305-.5393-.9152-2.8222 5.0017,7.5583-4.359-10.5267 3.0411,4.4619-2.0087-7.8722-8.1625-.7606z" fill="#fff" fill-rule="evenodd"/>
<g transform="translate(0,.625)">
<path d="m475.6131,1244.629-11.1131-3.8863" fill="none" stroke="#fff"/>
<path d="m450.5304,1244.629 11.1131-3.8863" fill="none" stroke="#fff"/>
<path d="m460.667,1240.0915c1.6491-.5675 3.2981-.5584 4.9472,0" fill="none" stroke="#fff"/>
<g stroke="#000" stroke-width=".9902" transform="matrix(1.00989,0,0,-1.00989,215.99402,2331.9868)">
<path d="m235.7318,1073.5089c4.1711.6975 9.3256-1.7749 9.5051,6.0187" fill="none" stroke="#000" stroke-width=".9902"/>
<path d="m253.7056,1073.5089c-4.1711.6975-9.3256-1.7749-9.5051,6.0187" fill="none" stroke="#000" stroke-width=".9902"/>
</g>
<g fill="#fff" transform="matrix(1.00989,0,0,-1.00989,215.99402,2331.9868)">
<path d="m235.8438,1074.0313-2.7812,1.9375 11.625,3.8125 11.6562-3.8125-2.75-1.9375c-3.7445.6312-8.4787-1.6122-8.9062,4.7812-.3373-6.437-5.0983-4.1507-8.8438-4.7812z" fill="#fff" fill-rule="evenodd"/>
</g>
<path d="m475.1691,1245.5439-12.0627-4.2489-11.9623,4.1932" fill="none" stroke="#000"/>
</g>
</g>
</svg>
