<svg viewBox="0 0 512 512" xmlns="http://www.w3.org/2000/svg">

<g transform="matrix(18.68858,0,0,18.68858,-5274.46621,-4107.85305)">
<path d="m308.9096,242.3694h-23.3976c-2.1784-2.7082-2.721-5.9357 0-8.9035" fill="none" stroke="#fff"/>
<path d="m285.4796,233.4193h22.6615l-4.915-12.0663h-12.0525l-5.694,12.0663z" stroke="#fff"/>
<path d="m308.1808,234.4277c-.6953,2.3119-.6896,4.6238 0,6.9357h-22.1689c-1.569-2.1096-1.9994-4.6238 0-6.9357h22.1689z" fill="#fff" stroke="#000"/>
<path d="m295.3947,237.6539c0,4.429-.8957,7.6101-5.0907,9.1227-.541-.3185-5.8359-1.4841-6.6406-1.428 5.4688-1.6926 6.5378-3.2225 6.5378-7.6948" fill="#fff" fill-rule="evenodd" stroke="#000"/>
<path d="m288.8271,237.6638h7.9845" fill="none" stroke="#000"/>
<path d="m292.8717,221.0514-4.5489,12.4369" fill="none" stroke="#fff"/>
<path d="m306.0234,228.9134 1.6564,4.0713h-5.0326l3.3761-4.0713z" fill="#fff" fill-rule="evenodd"/>
<path d="m303.2011,221.4246 .9432,2.9268-3.3471-2.643 2.4039-.2837z" fill="#fff" fill-rule="evenodd"/>
</g>
</svg>
