<svg viewBox="0 0 512 512" xmlns="http://www.w3.org/2000/svg">

<path d="m 444.824 74.7262 c -31.6529 -32.995 -158.615 -32.041 -260.526 -14.7028 l 6.4634 70.6948 c 59.959 -4.4787 124.028 -3.2256 160.112 33.5269 34.9673 37.8161 33.1253 101.871 25.7568 161.544 l 70.3003 9.8694 c 22.2388 -100.955 29.322 -227.723 -2.1061 -260.932 z m -280.746 -10.9747 c -5.4976 1.0921 -10.9192 2.236 -16.1867 3.4206 l 6.1048 66.8031 c 5.3603 -0.5262 10.8062 -1.0492 16.3323 -1.5589 l -6.2504 -68.6647 z m 278.152 291.923 -68.2829 -9.5586 c -0.776 5.495 -1.5613 10.9094 -2.3457 16.238 l 66.4304 9.3233 c 1.4376 -5.2041 2.8419 -10.5642 4.1982 -16.0026 z m -314.421 -283.604 c -48.3038 12.7865 -81.6964 29.5407 -79.7558 47.2432 2.4444 22.2977 38.3002 21.0368 85.5742 16.6228 l -5.8184 -63.866 z m 304.36 319.428 -63.5105 -8.8954 c -6.6916 47.0057 -9.6822 82.7588 12.4714 86.277 17.5882 2.7931 35.9351 -29.7515 51.0391 -77.3816 z" fill="#fff"/>
</svg>
