<svg viewBox="0 0 512 512" xmlns="http://www.w3.org/2000/svg">

<path d="m444.8236,74.7262c-31.6529-32.995-158.6151-32.041-260.526-14.7028l6.4634,70.6948c59.959-4.4787 124.0281-3.2256 160.1117,33.5269 34.9673,37.8161 33.1253,101.871 25.7568,161.5438l70.3003,9.8694c22.2388-100.9549 29.322-227.7229-2.1061-260.9321zm-280.7462-10.9747c-5.4976,1.0921-10.9192,2.236-16.1867,3.4206l6.1048,66.8031c5.3603-.5262 10.8062-1.0492 16.3323-1.5589l-6.2504-68.6647zm278.1521,291.9233-68.2829-9.5586c-.776,5.495-1.5613,10.9094-2.3457,16.238l66.4304,9.3233c1.4376-5.2041 2.8419-10.5642 4.1982-16.0026zm-314.4205-283.6039c-48.3038,12.7865-81.6964,29.5407-79.7558,47.2432 2.4444,22.2977 38.3002,21.0368 85.5742,16.6228l-5.8184-63.866zm304.3596,319.4283-63.5105-8.8954c-6.6916,47.0057-9.6822,82.7588 12.4714,86.277 17.5882,2.7931 35.9351-29.7515 51.0391-77.3816z" fill="#fff"/>
</svg>
