<svg viewBox="0 0 512 512" xmlns="http://www.w3.org/2000/svg">

<g transform="matrix(18.68858,0,0,18.68858,-11809.05095,-38101.76735)">
<path d="m653.7983,2057.238c0,1.2933-4.2423,2.3416-9.4753,2.3416s-9.4753-1.0483-9.4753-2.3416 4.2423-2.3416 9.4753-2.3416 9.4753,1.0484 9.4753,2.3416z" fill="#fff" transform="matrix(1.13224,0,0,.94294,-83.9926,117.68463)"/>
<path d="m653.7983,2057.238c0,1.2933-4.2423,2.3416-9.4753,2.3416s-9.4753-1.0483-9.4753-2.3416 4.2423-2.3416 9.4753-2.3416 9.4753,1.0484 9.4753,2.3416z" transform="matrix(.9805,0,0,.769,13.77914,474.82443)"/>
<path d="m643.25,2044.5c-1.654.088-3.6261.6605-5.25,1.875l.9375,9.125-.1127,2.881 2.7472.6003 .928-1.7938 .9627,2.0399c3.7656.7204 6.7084.4253 8.2248-.4462 .5056-2.9795-1.5729-6.895-6.3438-5.1874l1.25-7.2188c.3767-1.2889-1.2172-1.9882-3.3438-1.875z" fill="#fff" transform="matrix(1.12361,-.08083,.08083,1.12361,-245.645,-204.41934)"/>
<path d="m655.4828,2056.6906 2.9068,1.6823-3.1593-.3334" fill="#fff"/>
<path d="m655.032,2057.7014 2.0141,3.0729-4.0198-2.0463" fill="#fff"/>
<path d="m652.7779,2058.5873 .666,4.1443-3.3999-3.3505" fill="#fff"/>
<path d="m649.3497,2059.0536-.4172,4.7974-3.1276-4.2717" fill="#fff"/>
<path d="m635.6427,2056.6905-2.9069,1.6825 3.1593-.3334" fill="#fff"/>
<path d="m636.0934,2057.7016-2.0141,3.0727 4.0199-2.0463" fill="#fff"/>
<path d="m638.3476,2058.5874-.666,4.1441 3.3999-3.3075" fill="#fff"/>
<path d="m641.7757,2059.0537 .7086,4.7062 2.8362-4.1806" fill="#fff"/>
<path d="m637.9516,2054.4052c4.7425,1.9092 13.304,2.0465 15.1932-.2711" fill="none" stroke="#000"/>
<path d="m647.3552,2050.2193c-1.1981.2288-2.5083.8451-3.7679,1.7671 1.1751-1.7034 2.6172-2.6877 3.9762-3.0111"/>
<path d="m642.1447,2042.9706 4.0842,2.4233" fill="none" stroke="#000"/>
<path d="m646.6373,2042.8073-4.4382,2.8317" fill="none" stroke="#000"/>
<path d="m641.8725,2047.4285 4.0842,2.1398" fill="none" stroke="#000"/>
<path d="m646.3651,2046.9534-4.4382,3.1397" fill="none" stroke="#000"/>
<path d="m636.3166,2056.4084h-2.5452l2.1998.9782" fill="#fff"/>
<path d="m654.7174,2056.4084h2.6402l-2.1998.9782" fill="#fff"/>
</g>
</svg>
