<svg viewBox="0 0 512 512" xmlns="http://www.w3.org/2000/svg">

<g transform="matrix(18.68858,0,0,18.68858,-11809.05095,-38101.76735)">
<path d="m 653.798 2057.24 c 0 1.2933 -4.2423 2.3416 -9.4753 2.3416 s -9.4753 -1.0483 -9.4753 -2.3416 4.2423 -2.3416 9.4753 -2.3416 9.4753 1.0484 9.4753 2.3416 z" fill="#fff" transform="matrix(1.13224,0,0,.94294,-83.9926,117.68463)"/>
<path d="m 653.798 2057.24 c 0 1.2933 -4.2423 2.3416 -9.4753 2.3416 s -9.4753 -1.0483 -9.4753 -2.3416 4.2423 -2.3416 9.4753 -2.3416 9.4753 1.0484 9.4753 2.3416 z" transform="matrix(.9805,0,0,.769,13.77914,474.82443)"/>
<path d="m 643.25 2044.5 c -1.654 0.088 -3.6261 0.6605 -5.25 1.875 l 0.9375 9.125 -0.1127 2.881 2.7472 0.6003 0.928 -1.7938 0.9627 2.0399 c 3.7656 0.7204 6.7084 0.4253 8.2248 -0.4462 0.5056 -2.9795 -1.5729 -6.895 -6.3438 -5.1874 l 1.25 -7.2188 c 0.3767 -1.2889 -1.2172 -1.9882 -3.3438 -1.875 z" fill="#fff" transform="matrix(1.12361,-.08083,.08083,1.12361,-245.645,-204.41934)"/>
<path d="m 655.483 2056.69 2.9068 1.6823 -3.1593 -0.3334" fill="#fff"/>
<path d="m 655.032 2057.7 2.0141 3.0729 -4.0198 -2.0463" fill="#fff"/>
<path d="m 652.778 2058.59 0.666 4.1443 -3.3999 -3.3505" fill="#fff"/>
<path d="m 649.35 2059.05 -0.4172 4.7974 -3.1276 -4.2717" fill="#fff"/>
<path d="m 635.643 2056.69 -2.9069 1.6825 3.1593 -0.3334" fill="#fff"/>
<path d="m 636.093 2057.7 -2.0141 3.0727 4.0199 -2.0463" fill="#fff"/>
<path d="m 638.348 2058.59 -0.666 4.1441 3.3999 -3.3075" fill="#fff"/>
<path d="m 641.776 2059.05 0.7086 4.7062 2.8362 -4.1806" fill="#fff"/>
<path d="m 637.952 2054.41 c 4.7425 1.9092 13.304 2.0465 15.1932 -0.2711" fill="none" stroke="#000"/>
<path d="m 647.355 2050.22 c -1.1981 0.2288 -2.5083 0.8451 -3.7679 1.7671 1.1751 -1.7034 2.6172 -2.6877 3.9762 -3.0111"/>
<path d="m 642.145 2042.97 4.0842 2.4233" fill="none" stroke="#000"/>
<path d="m 646.637 2042.81 -4.4382 2.8317" fill="none" stroke="#000"/>
<path d="m 641.872 2047.43 4.0842 2.1398" fill="none" stroke="#000"/>
<path d="m 646.365 2046.95 -4.4382 3.1397" fill="none" stroke="#000"/>
<path d="m 636.317 2056.41 h -2.5452 l 2.1998 0.9782" fill="#fff"/>
<path d="m 654.717 2056.41 h 2.6402 l -2.1998 0.9782" fill="#fff"/>
</g>
</svg>
