<svg viewBox="0 0 512 512" xmlns="http://www.w3.org/2000/svg">

<g transform="matrix(18.68858,0,0,18.68858,-3638.27557,-39464.34032)">
<g transform="matrix(-.85691,0,0,1.07902,994.59811,-40.32642)">
<path d="m 920.131 2015.31 0.3175 -2.9598 c 0.8385 -1.3601 3.3925 -1.9934 4.9544 -1.7556 4.6096 0.7016 7.1062 1.8459 6.6192 4.7154 z" fill="#fff"/>
<path d="m 919.578 2004.06 c 3.3721 -2.5221 8.4193 -2.0817 7.8108 0 l -1.5679 9.0376 -5.1534 1.3112 z" fill="#fff"/>
</g>
<path d="m 212.474 2116.13 c -1.6631 0.1118 -3.6463 0.8363 -5.2791 2.374 l 0.9427 11.5539 -0.3457 4.1546 h 3.1109 l 0.817 -2.0179 1.1312 2.0179 h 8.1072 c 0.5084 -3.7726 -1.5817 -8.7304 -6.3789 -6.5682 l 1.2569 -9.1403 c 0.3788 -1.632 -1.224 -2.5174 -3.3623 -2.374 z" fill="#fff"/>
<path d="m 199.41 2121.93 c -0.2261 -2.425 4.6442 -3.0976 7.6354 0.1618" fill="none" stroke="#000"/>
<path d="m 216.37 2118.43 c 0.2956 -3.1698 -6.0705 -4.049 -9.9803 0.2114" fill="none" stroke="#000"/>
<path d="m 198.732 2129.69 1.1514 -1.3634 c 2.2757 -0.5462 3.3648 0.774 4.2345 2.4392 l -0.9269 0.4895 -0.9012 0.4759 c -0.8701 -0.9393 -1.726 -1.8901 -3.5578 -2.0412 z" fill="#fff" stroke="#000"/>
<path d="m 216.029 2126.8 -0.8734 -1.5739 c -2.7299 -0.3555 -4.4802 1.4532 -5.2814 3.5341 l 2.261 0.9086 c 0.8954 -1.2222 1.7727 -2.4562 3.8937 -2.8688 z" fill="#fff" stroke="#000"/>
<path d="m 210.94 2129.28 -0.9184 2.351" fill="none" stroke="#000"/>
<path d="m 203.251 2131.31 0.9406 1.743" fill="none" stroke="#000"/>
<path d="m 209.386 2123.23 c 2.0449 -0.7997 4.4002 -0.9057 5.9964 0.081" fill="none" stroke="#000"/>
<path d="m 208.927 2120.03 c 2.3949 -1.371 5.1534 -1.5527 7.0228 0.1388" fill="none" stroke="#000"/>
<path d="m 204.102 2126.59 c -1.3662 -0.6907 -2.9398 -0.7822 -4.0062 0.07" fill="none" stroke="#000"/>
<path d="m 204.409 2123.83 c -1.6 -1.184 -3.443 -1.341 -4.6919 0.1198" fill="none" stroke="#000"/>
</g>
</svg>
