<svg viewBox="0 0 512 512" xmlns="http://www.w3.org/2000/svg">

<g fill="#fff" transform="matrix(-23.05722,-6.17826,-5.65872,21.11828,26535.00497,-39190.38293)">
<path d="m 627.516 2055.21 h 4.3159 c 0.2533 -1.6106 0.8246 -3.3595 2.017 -4.8056 1.1927 -4.3521 0.8673 -8.8237 -2.5849 -8.8237 -3.8003 0 -5.5697 8.9184 -3.7481 13.6293 z" fill="#fff"/>
<path d="m 627.327 2057.14 c -1.8583 8.543 6.9846 6.9741 4.3917 0 z" fill="#fff"/>
</g>
<g fill="#fff" transform="matrix(23.05722,-6.17826,5.65872,21.11828,-26017.59969,-39190.38293)">
<path d="m 627.516 2055.21 h 4.3159 c 0.2533 -1.6106 0.8246 -3.3595 2.017 -4.8056 1.1927 -4.3521 0.8673 -8.8237 -2.5849 -8.8237 -3.8003 0 -5.5697 8.9184 -3.7481 13.6293 z" fill="#fff"/>
<path d="m 627.327 2057.14 c -1.8583 8.543 6.9846 6.9741 4.3917 0 z" fill="#fff"/>
</g>
</svg>
