<svg viewBox="0 0 512 512" xmlns="http://www.w3.org/2000/svg">

<g transform="matrix(18.68858,0,0,18.68858,-4995.05263,-24501.83081)">
<path d="m 280.54 1326.19 c -1.6484 -2.6779 -3.784 -4.3428 -6.8045 -4.1673 3.0374 -2.7954 7.8486 0.025 6.8045 4.1673 z" fill="#fff" fill-rule="evenodd"/>
<path d="m 272.827 1322.57 c -2.2324 0.4373 -3.8588 -0.07 -4.3844 -2.2927 -1.2638 3.7175 2.0239 4.9384 4.3844 2.2927 z" fill="#fff" fill-rule="evenodd"/>
<path d="m 279.777 1322.93 c -0.896 -6.2778 -6.6994 -10.8172 -8.6977 -6.613 0.6221 -7.6653 8.8258 -4.0891 8.6977 6.613 z" fill="#fff" fill-rule="evenodd"/>
<path d="m 285.742 1313.86 c -3.4762 -2.007 -9.3411 2.5482 -4.8353 12.0631 -0.4802 -7.3162 1.5682 -11.628 4.5797 -9.9754 1.2319 0.676 1.0428 2.4048 -0.3922 2.8817 2.9563 -0.6127 3.4771 -3.3359 0.6478 -4.9694 z" fill="#fff" fill-rule="evenodd"/>
<path d="m 279.184 1320.54 c -1.6627 -2.6003 -3.7842 -3.648 -6.7408 -1.874 2.8855 -5.0323 7.3905 -3.1155 6.7408 1.874 z" fill="#fff" fill-rule="evenodd"/>
<path d="m 284.632 1318.82 c -0.8015 -0.2961 -0.8598 -1.4766 0.0355 -2.2332 -1.7438 -0.3065 -2.3053 2.5945 -0.0355 2.2332 z" fill="#fff" fill-rule="evenodd"/>
<path d="m 289.08 1312.8 c 4.321 -0.7269 2.8776 5.8288 -0.5678 6.6243 2.1225 -1.5707 1.6875 -3.0584 0.8517 -4.4477 -0.4333 6.2091 -10.152 5.9214 -8.7378 12.0814 0.7649 -2.8659 3.0587 -4.6833 6.4643 -5.4559 8.5656 -1.9434 8.5294 -11.4652 1.9896 -8.8021 z" fill="#fff" fill-rule="evenodd"/>
<path d="m 287.68 1337.89 c -0.3333 -3.0213 -1.8932 -5.4728 -4.5773 -6.0511 0 -2.9862 0.9861 -5.2782 2.1903 -7.1189 -2.6126 -1.6447 -6.6086 -1.4149 -9.2212 0 1.204 1.8403 2.1328 4.3067 2.1328 7.1189 -2.6929 0.5649 -4.1851 3.017 -4.5198 6.0511" fill="#fff" stroke="#000"/>
<path d="m 286.103 1337.6 c -0.1948 -1.7089 -1.5529 -4.2764 -3.9318 -4.4375 1.7983 1.2173 2.4018 2.7586 2.4018 4.8347" fill-rule="evenodd"/>
<path d="m 270.84 1338.05 h 19.3153" fill="none" stroke="#000"/>
<path d="m 282.12 1323.66 c -0.4497 2.0851 -0.6912 4.9603 -0.5164 8.3435 0.1751 -3.3579 1.0016 -5.935 1.9547 -8.0049 l -1.4384 -0.3386 z"/>
</g>
</svg>
