<svg viewBox="0 0 512 512" xmlns="http://www.w3.org/2000/svg">

<g transform="matrix(18.68858,0,0,18.68858,-4995.05263,-24501.83081)">
<path d="m280.5398,1326.1862c-1.6484-2.6779-3.784-4.3428-6.8045-4.1673 3.0374-2.7954 7.8486.025 6.8045,4.1673z" fill="#fff" fill-rule="evenodd"/>
<path d="m272.8265,1322.5699c-2.2324.4373-3.8588-.07-4.3844-2.2927-1.2638,3.7175 2.0239,4.9384 4.3844,2.2927z" fill="#fff" fill-rule="evenodd"/>
<path d="m279.7771,1322.9339c-.896-6.2778-6.6994-10.8172-8.6977-6.613 .6221-7.6653 8.8258-4.0891 8.6977,6.613z" fill="#fff" fill-rule="evenodd"/>
<path d="m285.7416,1313.8609c-3.4762-2.007-9.3411,2.5482-4.8353,12.0631-.4802-7.3162 1.5682-11.628 4.5797-9.9754 1.2319.676 1.0428,2.4048-.3922,2.8817 2.9563-.6127 3.4771-3.3359.6478-4.9694z" fill="#fff" fill-rule="evenodd"/>
<path d="m279.1841,1320.542c-1.6627-2.6003-3.7842-3.648-6.7408-1.874 2.8855-5.0323 7.3905-3.1155 6.7408,1.874z" fill="#fff" fill-rule="evenodd"/>
<path d="m284.6316,1318.8181c-.8015-.2961-.8598-1.4766.0355-2.2332-1.7438-.3065-2.3053,2.5945-.0355,2.2332z" fill="#fff" fill-rule="evenodd"/>
<path d="m289.0802,1312.8045c4.321-.7269 2.8776,5.8288-.5678,6.6243 2.1225-1.5707 1.6875-3.0584.8517-4.4477-.4333,6.2091-10.152,5.9214-8.7378,12.0814 .7649-2.8659 3.0587-4.6833 6.4643-5.4559 8.5656-1.9434 8.5294-11.4652 1.9896-8.8021z" fill="#fff" fill-rule="evenodd"/>
<path d="m287.6798,1337.8852c-.3333-3.0213-1.8932-5.4728-4.5773-6.0511 0-2.9862.9861-5.2782 2.1903-7.1189-2.6126-1.6447-6.6086-1.4149-9.2212,0 1.204,1.8403 2.1328,4.3067 2.1328,7.1189-2.6929.5649-4.1851,3.017-4.5198,6.0511" fill="#fff" stroke="#000"/>
<path d="m286.1025,1337.5971c-.1948-1.7089-1.5529-4.2764-3.9318-4.4375 1.7983,1.2173 2.4018,2.7586 2.4018,4.8347" fill-rule="evenodd"/>
<path d="m270.8397,1338.0475h19.3153" fill="none" stroke="#000"/>
<path d="m282.1205,1323.6647c-.4497,2.0851-.6912,4.9603-.5164,8.3435 .1751-3.3579 1.0016-5.935 1.9547-8.0049l-1.4384-.3386z"/>
</g>
</svg>
