<svg viewBox="0 0 512 512" xmlns="http://www.w3.org/2000/svg">

<g transform="matrix(18.68858,0,0,18.68858,-3594.02211,-23795.12028)">
<g transform="matrix(.70397,.70397,-.70397,.70397,971.43902,237.41216)">
<path d="m198.023,1291.8659h13.8959c2.6697.0001 6.5048-.5955 7.9227-2.8489-1.7045.082-7.1945-.9542-8.2886-2.8492h-13.53l-5e-05,5.6981z" fill="#fff"/>
<path d="m187.0633,1289.106c2.1971-1.4869 7.8127-1.5201 9.846,0-1.8391,1.4862-7.5031,1.5746-9.846,0z" fill="#fff" fill-rule="evenodd"/>
<path d="m195.4765,1283.9985h2.0161v10.6694h-2.0161z" fill="#fff" stroke="#000" stroke-width="1.0044"/>
<path d="m185.2779,1287.485h2.5886v3.3564h-2.5886z" fill="#fff"/>
<path d="m188.2167,1287.1542v4.035" fill="none" stroke="#000" stroke-width="1.0044"/>
<path d="m202.8582,1288.0068-1.3018-1.9183h10.0742l-1.3381,1.9183-1.233-1.8132-1.2693,1.8132-1.1967-1.8132-1.233,1.8132-1.233-1.8132-1.2693,1.8132z"/>
</g>
<path d="m202.0142,1286.9225c.5632-.5631 1.4774-.5632 2.0406.0001s.5632,1.4774 1e-05,2.0406"/>
</g>
</svg>
