<svg viewBox="0 0 512 512" xmlns="http://www.w3.org/2000/svg">

<g transform="matrix(18.68858,0,0,18.68858,-3594.02211,-23795.12028)">
<g transform="matrix(.70397,.70397,-.70397,.70397,971.43902,237.41216)">
<path d="m 198.023 1291.87 h 13.8959 c 2.6697 0.0001 6.5048 -0.5955 7.9227 -2.8489 -1.7045 0.082 -7.1945 -0.9542 -8.2886 -2.8492 h -13.53 l -5e-05 5.6981 z" fill="#fff"/>
<path d="m 187.063 1289.11 c 2.1971 -1.4869 7.8127 -1.5201 9.846 0 -1.8391 1.4862 -7.5031 1.5746 -9.846 0 z" fill="#fff" fill-rule="evenodd"/>
<path d="m 195.476 1284 h 2.0161 v 10.6694 h -2.0161 z" fill="#fff" stroke="#000" stroke-width="1.0044"/>
<path d="m 185.278 1287.48 h 2.5886 v 3.3564 h -2.5886 z" fill="#fff"/>
<path d="m 188.217 1287.15 v 4.035" fill="none" stroke="#000" stroke-width="1.0044"/>
<path d="m 202.858 1288.01 -1.3018 -1.9183 h 10.0742 l -1.3381 1.9183 -1.233 -1.8132 -1.2693 1.8132 -1.1967 -1.8132 -1.233 1.8132 -1.233 -1.8132 -1.2693 1.8132 z"/>
</g>
<path d="m 202.014 1286.92 c 0.5632 -0.5631 1.4774 -0.5632 2.0406 0.0001 s 0.5632 1.4774 1e-05 2.0406"/>
</g>
</svg>
