<svg xmlns="http://www.w3.org/2000/svg" viewBox="0 0 512 512">
<g transform="matrix(18.68858 0 0 18.68858 -4991.97616 -22487.70056)">
<path fill="none" stroke="#fff" d="m274.7594,1216.9119 7.4409,13.3174"/>
<path fill="#fff" d="m279.8514,1211.063 14.0836,10.5581 0,8.3542-8.6551,0-10.454-13.4353 3.0112-2.3032 2.0143-3.1738z"/>
<g stroke="#fff">
<path fill="none" d="m278.1909,1203.7862c1.0686,1.3975 1.7034,3.1425 1.7034,5.0344 0,4.5884-3.7342,8.3123-8.3353,8.3123-1.3843,0-2.6902-.3371-3.8395-.9335"/>
<path d="m 275.146 1203.7 c 1.5321 1.1356 2.5258 2.9571 2.5258 5.0092 0 3.4397 -2.7917 6.2313 -6.2314 6.2313 -1.3775 0 -2.6511 -0.4477 -3.683 -1.2054"/>
</g>
<g fill="#fff">
<path d="m 280.058 1209.87 c 0 1.5865 -1.2861 2.8727 -2.8726 2.8727 -1.5865 0 -2.8726 -1.2862 -2.8726 -2.8727 0 -1.5865 1.2861 -2.8726 2.8726 -2.8726 1.5865 0 2.8726 1.2861 2.8726 2.8726 z" transform="matrix(1.15385 0 0 1.15385 -45.84426 -189.24925)"/>
<path d="m 280.058 1209.87 c 0 1.5865 -1.2861 2.8727 -2.8726 2.8727 -1.5865 0 -2.8726 -1.2862 -2.8726 -2.8727 0 -1.5865 1.2861 -2.8726 2.8726 -2.8726 1.5865 0 2.8726 1.2861 2.8726 2.8726 z" transform="matrix(.54615 0 0 .54615 117.93696 549.89075)"/>
<g fill-rule="evenodd">
<path d="m 271.603 1217.44 3.941 5.4826 -0.8501 -6.2428"/>
<path d="m 278.963 1212.32 11.5509 3.8213 -10.0908 -6.7834"/>
<path d="m 279.986 1209.91 5.1485 0.496 -4.8869 -2.3282"/>
</g>
</g>
<path fill="none" stroke="#000" d="m267.753,1203.8h26.431v26.43h-26.431z"/>
</g>
</svg>
