<svg viewBox="0 0 512 512" xmlns="http://www.w3.org/2000/svg">

<g transform="matrix(18.68858,0,0,18.68858,-7042.78538,-46288.91771)">
<g transform="matrix(1.1115,0,0,1.1115,193.20747,9.38221)">
<path d="m178.3223,2221.5779c5.8916,1.3115 8.2346,10.7255 4.1494,15.4857 1.6282-5.2821.453-11.5693-4.1494-15.4857z" fill="#fff"/>
<path d="m171.3109,2243.5995h11.5082l-5.529-10.5698-.2274-3.4076 6.5213-1.2926-.2069-1.2714-7.7187,1.1979-2.3677-.2682c-2.4291-.015-4.1583.4583-5.0085,1.8464 1.015.9534 3.0239,1.1209 4.5937.8721l.9768,2.653z" fill="#fff"/>
<path d="m172.776,2244.0989 3.1217-8.6306 5.7724,8.8491"/>
<path d="m172.868,2226.3792c0,1.626-1.0037,2.9441-2.2419,2.9441s-2.2419-1.3181-2.2419-2.9441 1.0037-2.9442 2.2419-2.9442 2.2419,1.3181 2.2419,2.9442z" fill="#fff" transform="matrix(.82325,-.08315,.08852,.87647,-163.3408,289.35388)"/>
</g>
<path d="m387.3438,2487.3446 13.1612-2.653" fill="none" stroke="#fff"/>
<path d="m399.1524,2482.8189 .9884,3.7975 2.9652-2.497z" fill="#fff"/>
<path d="m392.076,2478.3382-6.3792,10.2481 10.9958,7.0775c3.4272-7.3184 1.5808-13.9565-4.6166-17.3256z" fill="none" stroke="#fff"/>
</g>
</svg>
