<svg viewBox="0 0 512 512" xmlns="http://www.w3.org/2000/svg">

<g transform="matrix(18.68858,0,0,18.68858,-7042.78538,-46288.91771)">
<g transform="matrix(1.1115,0,0,1.1115,193.20747,9.38221)">
<path d="m 178.322 2221.58 c 5.8916 1.3115 8.2346 10.7255 4.1494 15.4857 1.6282 -5.2821 0.453 -11.5693 -4.1494 -15.4857 z" fill="#fff"/>
<path d="m 171.311 2243.6 h 11.5082 l -5.529 -10.5698 -0.2274 -3.4076 6.5213 -1.2926 -0.2069 -1.2714 -7.7187 1.1979 -2.3677 -0.2682 c -2.4291 -0.015 -4.1583 0.4583 -5.0085 1.8464 1.015 0.9534 3.0239 1.1209 4.5937 0.8721 l 0.9768 2.653 z" fill="#fff"/>
<path d="m 172.776 2244.1 3.1217 -8.6306 5.7724 8.8491"/>
<path d="m 172.868 2226.38 c 0 1.626 -1.0037 2.9441 -2.2419 2.9441 s -2.2419 -1.3181 -2.2419 -2.9441 1.0037 -2.9442 2.2419 -2.9442 2.2419 1.3181 2.2419 2.9442 z" fill="#fff" transform="matrix(.82325,-.08315,.08852,.87647,-163.3408,289.35388)"/>
</g>
<path d="m 387.344 2487.34 13.1612 -2.653" fill="none" stroke="#fff"/>
<path d="m 399.152 2482.82 0.9884 3.7975 2.9652 -2.497 z" fill="#fff"/>
<path d="m 392.076 2478.34 -6.3792 10.2481 10.9958 7.0775 c 3.4272 -7.3184 1.5808 -13.9565 -4.6166 -17.3256 z" fill="none" stroke="#fff"/>
</g>
</svg>
