<svg viewBox="0 0 512 512" xmlns="http://www.w3.org/2000/svg">

<g transform="matrix(18.68858,0,0,18.68858,-11122.13299,-32681.44781)">
<path d="m 608.679 1757.81 c -0.8588 -2.8652 -3.6527 -7.2074 -6.6439 -6.4371 -3.3387 0.8596 -6.3072 5.0088 -6.294 8.6888 0.0148 4.1387 7.4688 4.1685 9.6865 2.5472 z" fill="#fff" stroke="#000"/>
<path d="m 601.889 1757.09 c -4.8213 5.8298 -1.2378 9.3974 3.5351 12.6445 l 6.582 -12.3346 z" fill="#fff"/>
<path d="m 618.672 1771.64 c -8.4884 10.2608 -20.114 -1.2532 -11.8398 -11.1702 9.2228 -11.0544 21.1149 -0.042 11.8398 11.1702 z" fill="#fff" stroke="#000"/>
<path d="m 607.468 1757.42 c -6.2627 7.8203 0.1056 9.9172 3.8136 5.3034 8.7576 -10.8957 -2.2736 -14.6106 -10.1235 -5.5962" fill="#fff" stroke="#000"/>
<path d="m 599.382 1760.62 c -0.3226 0.9399 -0.1929 2.4186 -0.0191 3.3683" fill="none" stroke="#000"/>
</g>
</svg>
