<svg viewBox="0 0 512 512" xmlns="http://www.w3.org/2000/svg">

<g transform="matrix(18.68858,0,0,18.68858,-10447.40543,-47619.95332)">
<path d="m570.3357,2567.1451c-2.2507-.091-4.584-1.5551-5.2119-3.2692" fill="none" stroke="#fff"/>
<path d="m568.3914,2569.0896c-2.2507-.091-4.5841-1.5551-5.212-3.2693" fill="none" stroke="#fff"/>
<path d="m566.4467,2571.0341c-2.2506-.091-4.5841-1.555-5.2118-3.2689" fill="none" stroke="#fff"/>
<path d="m564.5022,2572.9786c-1.9764-.08-4.0162-1.2183-4.9094-2.6552" fill="none" stroke="#fff"/>
<path d="m562.7079,2574.9952c-1.1468-.047-2.3142-.4433-3.2866-1.0495" fill="none" stroke="#fff"/>
<g transform="matrix(.19969,-.74524,.74524,.19969,-859.44632,2660.1679)">
<path d="m608.6786,1757.8126c-.8588-2.8652-3.6527-7.2074-6.6439-6.4371-3.3387.8596-6.3072,5.0088-6.294,8.6888 .0148,4.1387 7.4688,4.1685 9.6865,2.5472z" fill="#fff" stroke="#000" stroke-width="1.2961"/>
<path d="m601.8891,1757.0905c-4.8213,5.8298-1.2378,9.3974 3.5351,12.6445l6.582-12.3346z" fill="#fff"/>
<path d="m618.6724,1771.6361c-8.4884,10.2608-20.114-1.2532-11.8398-11.1702 9.2228-11.0544 21.1149-.042 11.8398,11.1702z" fill="#fff" stroke="#000" stroke-width="1.2961"/>
<path d="m607.4677,1757.422c-6.2627,7.8203.1056,9.9172 3.8136,5.3034 8.7576-10.8957-2.2736-14.6106-10.1235-5.5962" fill="#fff" stroke="#000" stroke-width="1.2961"/>
<path d="m599.2444,1760.6603c-.3226.9399-.1929,2.4186-.0191,3.3683" fill="none" stroke="#000" stroke-width="1.2961"/>
</g>
<path d="m559.6218,2548.563h26.4314v26.4314h-26.4314z" fill="none" stroke="#000"/>
</g>
</svg>
