<svg viewBox="0 0 512 512" xmlns="http://www.w3.org/2000/svg">

<g transform="matrix(18.68858,0,0,18.68858,-11122.13299,-32681.44781)">
<path d="m608.6786,1757.8126c-.8588-2.8652-3.6527-7.2074-6.6439-6.4371-3.3387.8596-6.3072,5.0088-6.294,8.6888 .0148,4.1387 7.4688,4.1685 9.6865,2.5472z" fill="#fff" stroke="#000"/>
<path d="m601.8891,1757.0905c-4.8213,5.8298-1.2378,9.3974 3.5351,12.6445l6.582-12.3346z" fill="#fff"/>
<path d="m618.6724,1771.6361c-8.4884,10.2608-20.114-1.2532-11.8398-11.1702 9.2228-11.0544 21.1149-.042 11.8398,11.1702z" fill="#fff" stroke="#000"/>
<path d="m607.4677,1757.422c-6.2627,7.8203.1056,9.9172 3.8136,5.3034 8.7576-10.8957-2.2736-14.6106-10.1235-5.5962" fill="#fff" stroke="#000"/>
<path d="m599.3824,1760.6233c-.3226.9399-.1929,2.4186-.0191,3.3683" fill="none" stroke="#000"/>
</g>
</svg>
