<svg viewBox="0 0 512 512" xmlns="http://www.w3.org/2000/svg">

<g transform="matrix(18.68858,0,0,18.68858,-6356.69135,-23141.90395)">
<path d="m351.8494,1253.4622h3.7793l-.721,11.7091h-2.4512l-.6071-11.7091z" fill="#fff" stroke="#000"/>
<path d="m349.5799,1249.8651c-3.109,5.3849 11.462,5.4233 8.2452-.1485" fill="#fff" fill-rule="evenodd" stroke="#000"/>
<path d="m349.5335,1251.1749h8.4759c3.4509,0 4.1787-.5489 4.3472-2.0063 .8952-.9281.5987-1.8604 0-2.7886 .9689-1.6138.0552-3.2671-1.7486-3.2493 .3787-1.3379-.8971-2.6983-2.4772-2.7644-.6938-1.7513-2.6671-2.2905-4.3472.3395l-.0243.024v-.024c-.84-1.315-1.7342-1.841-2.5258-1.8187s-1.4745.6035-1.8215,1.4792c-1.5801.066-2.8316,1.4265-2.4529,2.7644-1.8038-.018-2.7418,1.6355-1.7729,3.2493-.5987.9282-.8709,1.8605.0243,2.7886 .1685,1.4574.7532,2.0063 4.3229,2.0063z" fill="#fff"/>
<path d="m346.791,1246.43c-1.7825-.079-2.1949.076-2.3367,1.2329-.1441,1.1764.5713,1.8035 3.3863,1.5639" fill="none" stroke="#000"/>
<path d="m347.8119,1243.7126c-1.6263-.9242-2.5049-1.0196-3.0217.4224-.4179,1.1662-.3753,2.3252 2.0833,2.302" fill="none" stroke="#000"/>
<path d="m350.4812,1242.5644c-.6835-2.6584-1.7265-2.6512-2.9362-1.7584-1.0029.7402-1.5532,2.0827.7571,3.1793" fill="none" stroke="#000"/>
<path d="m360.7833,1246.43c1.7825-.079 2.1949.076 2.3367,1.2329 .1441,1.1764-.5713,1.8035-3.3863,1.5639" fill="none" stroke="#000"/>
<path d="m359.7624,1243.7126c1.6263-.9242 2.5049-1.0196 3.0217.4224 .4179,1.1662.3753,2.3252-2.0833,2.302" fill="none" stroke="#000"/>
<path d="m357.0931,1242.5644c.6834-2.6584 1.7265-2.6512 2.9362-1.7584 1.0028.7402 1.5532,2.0827-.7571,3.1793" fill="none" stroke="#000"/>
<path d="m351.8256,1259.6643h3.671" fill="none" stroke="#fff"/>
<path d="m351.4632,1261.5202h4.5095" fill="none" stroke="#000"/>
<path d="m351.4632,1257.7198h4.5095" fill="none" stroke="#000"/>
<path d="m351.4632,1255.7614h4.5095" fill="none" stroke="#fff"/>
<path d="m362.513,1249.5621c-.2529,1.148-1.0287,1.8104-1.9288,1.8104h-5.0389c-.7672,0-1.4414-.6218-1.7367-1.5615-.2364.9397-.919,1.5615-1.7367,1.5615h-5.0389c-.9001,0-1.6759-.6624-1.9288-1.8104m12.6365-8.5544c.7558-1.5335-.2856-2.2352-1.4757-2.2352-2.1402-.1075-2.4475,2.4451-2.4475,3.9184l-.009,1.6569-.009-1.6569c0-1.4733-.3072-4.0259-2.4475-3.9184-1.1901,0-2.2315.7017-1.4757,2.2352" fill="none" stroke="#000"/>
<path d="m352.0621,1263.3455h3.3117" fill="none" stroke="#fff"/>
</g>
</svg>
