<svg viewBox="0 0 512 512" xmlns="http://www.w3.org/2000/svg">

<g transform="matrix(18.68858,0,0,18.68858,-11801.12392,-20443.62092)">
<path d="m634.5629,1108.9771 16.1005-1.1701c-.554,6.964-17.8266,13.426-16.1005,1.1701z" fill="#fff" fill-rule="evenodd"/>
<g transform="translate(0,-.7627)">
<path d="m642.8125,1113.1289c-6.6853,4.0839-13.7667-3.5488-9.4679-10.6831 3.5831-5.9465 15.0449-8.1371 22.7584-.418 4.7023,4.7056 1.7049,10.6782-3.4682,8.8602-3.0725-1.0798-6.8815.4444-9.8223,2.2409z" fill="#fff" fill-rule="evenodd" stroke="#000"/>
<path d="m646.4375,1108.0174c-4.0401-1.3045-2.6307-5.863-.4429-5.7905 2.9966.1 4.718-3.6596 1.1886-4.9096" fill="none" stroke="#000"/>
<path d="m654.5493,1107.2865c-3.0946-.248-3.2834,3.738-.055,3.9492" fill="none" stroke="#000"/>
<path d="m635.8736,1099.6827c-1.7443,1.4743-.7502,4.1215 1.9968,3.2525" fill="none" stroke="#000"/>
<path d="m633.3754,1102.4197c-1.9758,4.4996 3.1403,4.9142 6.0915,2.71 1.4801-1.1054 2.3105-4.5081-.3679-4.4804" fill="none" stroke="#000"/>
<path d="m643.7988,1097.0807c-2.8312.3122-1.313,4.6097 1.7271,2.6665" fill="none" stroke="#000"/>
<path d="m647.104,1104.7958c3.5238.3485 3.6884,4.6566.1008,6.2641" fill="none" stroke="#000"/>
<path d="m653.9593,1100.1908c2.344,1.6406.7281,3.5988-.8209,3.8867-2.2646.4208-3.3314-1.8089-1.9677-2.7315" fill="none" stroke="#000"/>
<path d="m642.6105,1113.2594c2.1292-1.2804.8429-3.0674-.4833-3.4068-1.9391-.4963-2.995,1.3679-1.8668,2.2453" fill="none" stroke="#000"/>
<path d="m638.0969,1108.7743c-3.7708-.4955-3.7816,4.5428-.3743,5.3795" fill="none" stroke="#000"/>
</g>
<path d="m647.2417,1112.8864c-2.1816,1.7397-3.9004,3.8211-5.0692,6.2017-.4254.8665-1.3763.5358-1.1864-.3236 .3025-1.3687 1.705-4.2048 2.4807-5.231" fill="#fff" fill-rule="evenodd"/>
<path d="m641.6196,1116.145c1.2079-.136 2.2491-1.4084 2.4661-2.5074" fill="none" stroke="#000"/>
</g>
</svg>
