<svg viewBox="0 0 512 512" xmlns="http://www.w3.org/2000/svg">

<g transform="matrix(18.68858,0,0,18.68858,-6356.69135,-23141.90395)">
<path d="m 351.849 1253.46 h 3.7793 l -0.721 11.7091 h -2.4512 l -0.6071 -11.7091 z" fill="#fff" stroke="#000"/>
<path d="m 349.58 1249.87 c -3.109 5.3849 11.462 5.4233 8.2452 -0.1485" fill="#fff" fill-rule="evenodd" stroke="#000"/>
<path d="m 349.534 1251.17 h 8.4759 c 3.4509 0 4.1787 -0.5489 4.3472 -2.0063 0.8952 -0.9281 0.5987 -1.8604 0 -2.7886 0.9689 -1.6138 0.0552 -3.2671 -1.7486 -3.2493 0.3787 -1.3379 -0.8971 -2.6983 -2.4772 -2.7644 -0.6938 -1.7513 -2.6671 -2.2905 -4.3472 0.3395 l -0.0243 0.024 v -0.024 c -0.84 -1.315 -1.7342 -1.841 -2.5258 -1.8187 s -1.4745 0.6035 -1.8215 1.4792 c -1.5801 0.066 -2.8316 1.4265 -2.4529 2.7644 -1.8038 -0.018 -2.7418 1.6355 -1.7729 3.2493 -0.5987 0.9282 -0.8709 1.8605 0.0243 2.7886 0.1685 1.4574 0.7532 2.0063 4.3229 2.0063 z" fill="#fff"/>
<path d="m 346.791 1246.43 c -1.7825 -0.079 -2.1949 0.076 -2.3367 1.2329 -0.1441 1.1764 0.5713 1.8035 3.3863 1.5639" fill="none" stroke="#000"/>
<path d="m 347.812 1243.71 c -1.6263 -0.9242 -2.5049 -1.0196 -3.0217 0.4224 -0.4179 1.1662 -0.3753 2.3252 2.0833 2.302" fill="none" stroke="#000"/>
<path d="m 350.481 1242.56 c -0.6835 -2.6584 -1.7265 -2.6512 -2.9362 -1.7584 -1.0029 0.7402 -1.5532 2.0827 0.7571 3.1793" fill="none" stroke="#000"/>
<path d="m 360.783 1246.43 c 1.7825 -0.079 2.1949 0.076 2.3367 1.2329 0.1441 1.1764 -0.5713 1.8035 -3.3863 1.5639" fill="none" stroke="#000"/>
<path d="m 359.762 1243.71 c 1.6263 -0.9242 2.5049 -1.0196 3.0217 0.4224 0.4179 1.1662 0.3753 2.3252 -2.0833 2.302" fill="none" stroke="#000"/>
<path d="m 357.093 1242.56 c 0.6834 -2.6584 1.7265 -2.6512 2.9362 -1.7584 1.0028 0.7402 1.5532 2.0827 -0.7571 3.1793" fill="none" stroke="#000"/>
<path d="m 351.826 1259.66 h 3.671" fill="none" stroke="#fff"/>
<path d="m 351.463 1261.52 h 4.5095" fill="none" stroke="#000"/>
<path d="m 351.463 1257.72 h 4.5095" fill="none" stroke="#000"/>
<path d="m 351.463 1255.76 h 4.5095" fill="none" stroke="#fff"/>
<path d="m 362.513 1249.56 c -0.2529 1.148 -1.0287 1.8104 -1.9288 1.8104 h -5.0389 c -0.7672 0 -1.4414 -0.6218 -1.7367 -1.5615 -0.2364 0.9397 -0.919 1.5615 -1.7367 1.5615 h -5.0389 c -0.9001 0 -1.6759 -0.6624 -1.9288 -1.8104 m 12.6365 -8.5544 c 0.7558 -1.5335 -0.2856 -2.2352 -1.4757 -2.2352 -2.1402 -0.1075 -2.4475 2.4451 -2.4475 3.9184 l -0.009 1.6569 -0.009 -1.6569 c 0 -1.4733 -0.3072 -4.0259 -2.4475 -3.9184 -1.1901 0 -2.2315 0.7017 -1.4757 2.2352" fill="none" stroke="#000"/>
<path d="m 352.062 1263.35 h 3.3117" fill="none" stroke="#fff"/>
</g>
</svg>
