<svg viewBox="0 0 512 512" xmlns="http://www.w3.org/2000/svg">

<g transform="matrix(18.68858,0,0,18.68858,-3389.52661,-7884.34302)">
<path d="m695.1875,438.8622c0,6.4548-3.5398,11.6875-7.9062,11.6875s-7.9062-5.2327-7.9062-11.6875 3.5398-11.6875 7.9062-11.6875 7.9062,5.2327 7.9062,11.6875z" fill="#fff" stroke="#000" stroke-width=".7539" transform="matrix(1.33445,0,0,1.13308,-722.18455,-61.67742)"/>
<path d="m183.8349,442.0581c4.7661,4.5205 17.6321,4.553 22.4325,0" fill="none" stroke="#000"/>
<path d="m193.4392,445.2886 .3747,3.1817" fill="none" stroke="#000"/>
<path d="m199.9046,444.8497-.9667,3.6041" fill="none" stroke="#000"/>
<path d="m190.144,444.8497 .9667,3.6041" fill="none" stroke="#000"/>
<path d="m197.0829,445.2886-.3747,3.1817" fill="none" stroke="#000"/>
<path d="m226.75,436.6747c0,1.001-.8115,1.8125-1.8125,1.8125s-1.8125-.8115-1.8125-1.8125 .8115-1.8125 1.8125-1.8125 1.8125.8115 1.8125,1.8125z" stroke="#fff" stroke-width=".7939" transform="matrix(1.25399,0,0,1.26509,-91.64869,-110.86405)"/>
<path d="m226.75,436.6747c0,1.001-.8115,1.8125-1.8125,1.8125s-1.8125-.8115-1.8125-1.8125 .8115-1.8125 1.8125-1.8125 1.8125.8115 1.8125,1.8125z" stroke="#fff" stroke-width=".7939" transform="matrix(1.25399,0,0,1.26509,-82.79236,-110.86405)"/>
<path d="m205.0625,433.8622c0,4.7635-3.8615,8.625-8.625,8.625s-8.625-3.8615-8.625-8.625 3.8615-8.625 8.625-8.625 8.625,3.8615 8.625,8.625z" stroke="#fff" stroke-width="1.0376" transform="matrix(.96377,0,0,.96377,5.73228,13.48285)"/>
<path d="m229.3755,431.5256-1.9068,1.1009-1.9068-1.1009v-2.2017l1.9068-1.1009 1.9068,1.1009z" fill="#fff" stroke="#fff" stroke-width=".3569" transform="matrix(1.40434,2.43854,-2.41455,1.39757,914.89039,-724.6142)"/>
<g stroke="#000" stroke-width=".4572" transform="matrix(2.17626,0,0,2.19784,-303.06751,-520.75597)">
<path d="m227.3454,430.6995 3.0848,5.2547" fill="none" stroke="#000" stroke-width=".4572"/>
<path d="m230.4302,430.6995-3.0848,5.2547" fill="none" stroke="#000" stroke-width=".4572"/>
<path d="m231.9725,433.3269-6.1696-1e-05" fill="none" stroke="#000" stroke-width=".4572"/>
</g>
<path d="m231.4007,432.8925c0,1.1472-.93,2.0771-2.0771,2.0771s-2.0771-.93-2.0771-2.0771 .93-2.0771 2.0771-2.0771 2.0771.93 2.0771,2.0771z" fill="#fff" transform="matrix(1.70995,0,0,1.71427,-197.07851,-310.47108)"/>
</g>
</svg>
