<svg viewBox="0 0 512 512" xmlns="http://www.w3.org/2000/svg">

<g transform="matrix(18.68858,0,0,18.68858,-907.84568,-27220.2633)">
<path d="m 55.1069 1470.2 13.7272 3.6782 c 0.2917 3.152 -0.2906 6.0697 -3.0787 8.3965 -4.5903 0.6327 -8.6096 -0.8655 -12.3738 -3.3156 -0.6409 -3.3116 -0.1761 -6.2668 1.7253 -8.7591 z" fill="#f00"/>
<path d="m 63.3162 1459.16 -1.1733 4.3787 c -1.2542 0.1685 -2.2444 0.8221 -2.51 1.8121 -0.1431 0.5333 -0.0567 1.1003 0.2099 1.6205 -2.9324 0.7098 -5.5165 3.1913 -6.4435 6.6474 -0.4913 1.8315 -0.446 3.656 0.0261 5.2828 3.7126 2.7517 7.8037 4.1775 12.5063 3.351 1.2165 -1.1716 2.1746 -2.7375 2.664 -4.562 0.9324 -3.477 -0.0655 -6.9396 -2.2775 -9.0148 0.4822 -0.3164 0.843 -0.7429 0.9844 -1.2698 0.2629 -0.9802 -0.2642 -2.0176 -1.2467 -2.7879 l 1.1809 -4.4074 -3.9207 -1.0506 z" stroke="#fff"/>
<path d="m 62.4528 1457.81 c 2.165 -0.086 4.2862 0.539 6.3319 1.6967 l -0.4663 1.7401 c -2.4015 0.2885 -4.3994 -0.1623 -6.3319 -1.6967 z" fill="#fff"/>
<path d="m 68.6875 1474.46 h -15.4687 l 0.1875 4.3438 5.5512 3.0378 6.8238 0.6497 2.4839 -3.452 z" fill="#fff"/>
<path d="m 59.8848 1469.94 c -0.3006 0.856 -1.2158 1.3721 -2.1072 1.1809 l -0.674 2.5128 c 0.8679 0.2787 1.4122 1.1458 1.2449 2.0337 l 5.3758 1.4404 c 0.3829 -0.9335 1.1279 -1.3153 2.0542 -1.1506 l 0.674 -2.5127 c -0.8416 -0.2961 -1.3575 -1.1874 -1.192 -2.064 z" fill="#fff" stroke="#000" stroke-width=".9481"/>
</g>
</svg>
