<svg viewBox="0 0 512 512" xmlns="http://www.w3.org/2000/svg">

<g transform="matrix(18.68858,0,0,18.68858,-907.84568,-27220.2633)">
<path d="m55.1069,1470.2008 13.7272,3.6782c.2917,3.152-.2906,6.0697-3.0787,8.3965-4.5903.6327-8.6096-.8655-12.3738-3.3156-.6409-3.3116-.1761-6.2668 1.7253-8.7591z" fill="#f00"/>
<path d="m63.3162,1459.1635-1.1733,4.3787c-1.2542.1685-2.2444.8221-2.51,1.8121-.1431.5333-.0567,1.1003.2099,1.6205-2.9324.7098-5.5165,3.1913-6.4435,6.6474-.4913,1.8315-.446,3.656.0261,5.2828 3.7126,2.7517 7.8037,4.1775 12.5063,3.351 1.2165-1.1716 2.1746-2.7375 2.664-4.562 .9324-3.477-.0655-6.9396-2.2775-9.0148 .4822-.3164.843-.7429.9844-1.2698 .2629-.9802-.2642-2.0176-1.2467-2.7879l1.1809-4.4074-3.9207-1.0506z" stroke="#fff"/>
<path d="m62.4528,1457.8139c2.165-.086 4.2862.539 6.3319,1.6967l-.4663,1.7401c-2.4015.2885-4.3994-.1623-6.3319-1.6967z" fill="#fff"/>
<path d="m68.6875,1474.4559h-15.4687l.1875,4.3438 5.5512,3.0378 6.8238.6497 2.4839-3.452z" fill="#fff"/>
<path d="m59.8848,1469.9446c-.3006.856-1.2158,1.3721-2.1072,1.1809l-.674,2.5128c.8679.2787 1.4122,1.1458 1.2449,2.0337l5.3758,1.4404c.3829-.9335 1.1279-1.3153 2.0542-1.1506l.674-2.5127c-.8416-.2961-1.3575-1.1874-1.192-2.064z" fill="#fff" stroke="#000" stroke-width=".9481"/>
</g>
</svg>
