<svg viewBox="0 0 512 512" xmlns="http://www.w3.org/2000/svg">

<path d="m 30.5 233.581 c 0 3.7107 -3.0081 6.7188 -6.7188 6.7188 s -6.7188 -3.0081 -6.7188 -6.7188 3.0081 -6.7188 6.7188 -6.7188 6.7188 3.0081 6.7188 6.7188 z" fill="#fff" stroke="#000" stroke-width=".5142" transform="matrix(31.47661,18.17296,-18.17296,31.47661,3750.9869,-7530.42875)"/>
<path d="m 28.5625 233.831 c 0 2.0538 -1.6649 3.7188 -3.7188 3.7188 s -3.7188 -1.6649 -3.7188 -3.7188 1.6649 -3.7188 3.7188 -3.7188 3.7188 1.6649 3.7188 3.7188 z" fill="#fff" stroke="#000" stroke-width=".4601" transform="matrix(33.31034,19.22064,-21.46103,37.15047,4502.64664,-8875.71441)"/>
<path d="m 170.312 238.643 c 0 3.2274 -1.609 5.8438 -3.5938 5.8438 s -3.5938 -2.6163 -3.5938 -5.8438 1.609 -5.8438 3.5938 -5.8438 3.5938 2.6163 3.5938 5.8438 z" transform="matrix(26.84801,15.49451,-13.03061,22.56067,-1075.3458,-7699.12328)"/>
<path d="m 27.3125 233.675 c 0 0.7939 -0.6436 1.4375 -1.4375 1.4375 s -1.4375 -0.6436 -1.4375 -1.4375 0.6436 -1.4375 1.4375 -1.4375 1.4375 0.6436 1.4375 1.4375 z" stroke="#fff" stroke-width=".3391" transform="matrix(45.2501,26.05057,-29.15362,50.35152,5978.71797,-12139.95898)"/>
<path d="m 165.375 235.212 c 0 0.7811 -0.6332 1.4142 -1.4142 1.4142 s -1.4142 -0.6332 -1.4142 -1.4142 0.6332 -1.4142 1.4142 -1.4142 1.4142 0.6332 1.4142 1.4142 z" fill="#fff" stroke="#fff" stroke-width=".8883" transform="matrix(21.04203,0,0,21.03362,-3138.94104,-4675.43606)"/>
</svg>
