<svg viewBox="0 0 512 512" xmlns="http://www.w3.org/2000/svg">

<g transform="matrix(18.68858,0,0,18.68858,-8398.35262,-19763.71196)">
<path d="m 463.034 1060.47 c -4.4581 1.3283 -7.6454 4.6136 -7.6454 8.4563 s 3.1873 7.0911 7.6454 8.4195 c 4.458 -1.3284 7.597 -4.577 7.597 -8.4195 s -3.1389 -7.128 -7.597 -8.4563 z" fill="#fff" stroke="#000"/>
<path d="m 463.06 1060.7 v 16.1686" fill="none" stroke="#000"/>
<path d="m 457.722 1074.41 c -2.2181 1.6939 -3.3173 3.8355 -4.4817 5.951 1.7583 1.8016 3.7646 2.7772 6.1114 2.8939 0.4871 -2.3854 1.4108 -4.5523 3.6261 -6.0732 l -5.2558 -2.7717 z" fill="#fff" fill-rule="evenodd" stroke="#000"/>
<path d="m 468.438 1074.41 c 2.2181 1.6939 3.3173 3.8355 4.4817 5.951 -1.7583 1.8016 -3.7646 2.7772 -6.1114 2.8939 -0.4871 -2.3854 -1.4108 -4.5523 -3.6261 -6.0732 l 5.2558 -2.7717 z" fill="#fff" fill-rule="evenodd" stroke="#000"/>
<path d="m 454.748 1078 c 1.3527 1.1132 3.2241 2.3468 5.1743 2.7309" fill="none" stroke="#000"/>
<path d="m 456.337 1076 c 1.3527 1.1133 3.2241 2.3468 5.1743 2.731" fill="none" stroke="#000"/>
<path d="m 471.534 1078 c -1.3527 1.1132 -3.2241 2.3468 -5.1743 2.7309" fill="none" stroke="#000"/>
<path d="m 469.945 1076 c -1.3527 1.1133 -3.2241 2.3468 -5.1743 2.731" fill="none" stroke="#000"/>
<path d="m 476.256 1066.93 c 0.2641 -4.7135 -3.4105 -6.2095 -7.7329 -5.8886 -0.0298 1.2698 -0.2977 2.4978 -0.7231 3.7768 1.6528 1.6571 4.5711 3.2899 8.456 2.1118 z" fill="#fff" fill-rule="evenodd" stroke="#000"/>
<path d="m 469.298 1066.35 c 1.4743 -1.3719 2.2252 -3.3844 1.8905 -5.109" fill="none" stroke="#000"/>
<path d="m 474.196 1062.21 c 0.0829 1.783 -0.6785 3.6515 -1.9426 4.7353" fill="none" stroke="#000"/>
<path d="m 449.952 1066.93 c -0.2641 -4.7135 3.4105 -6.2095 7.7329 -5.8886 0.0298 1.2698 0.2977 2.4978 0.7231 3.7768 -1.6528 1.6571 -4.5711 3.2899 -8.456 2.1118 z" fill="#fff" fill-rule="evenodd" stroke="#000"/>
<path d="m 456.911 1066.35 c -1.4743 -1.3719 -2.2252 -3.3844 -1.8905 -5.109" fill="none" stroke="#000"/>
<path d="m 452.012 1062.21 c -0.0829 1.783 0.6785 3.6515 1.9426 4.7353" fill="none" stroke="#000"/>
<path d="m 458.928 1060.36 c 2.7705 1.877 5.541 1.3665 8.3115 0 v 3.3014 c -2.7705 1.3651 -5.541 1.4603 -8.3115 0 v -3.3014 z" fill="#fff" stroke="#000"/>
</g>
</svg>
