<svg viewBox="0 0 512 512" xmlns="http://www.w3.org/2000/svg">

<g transform="matrix(18.68858,0,0,18.68858,-8398.35262,-19763.71196)">
<path d="m463.0339,1060.4713c-4.4581,1.3283-7.6454,4.6136-7.6454,8.4563s3.1873,7.0911 7.6454,8.4195c4.458-1.3284 7.597-4.577 7.597-8.4195s-3.1389-7.128-7.597-8.4563z" fill="#fff" stroke="#000"/>
<path d="m463.0596,1060.7028v16.1686" fill="none" stroke="#000"/>
<path d="m457.7223,1074.4118c-2.2181,1.6939-3.3173,3.8355-4.4817,5.951 1.7583,1.8016 3.7646,2.7772 6.1114,2.8939 .4871-2.3854 1.4108-4.5523 3.6261-6.0732l-5.2558-2.7717z" fill="#fff" fill-rule="evenodd" stroke="#000"/>
<path d="m468.4376,1074.4118c2.2181,1.6939 3.3173,3.8355 4.4817,5.951-1.7583,1.8016-3.7646,2.7772-6.1114,2.8939-.4871-2.3854-1.4108-4.5523-3.6261-6.0732l5.2558-2.7717z" fill="#fff" fill-rule="evenodd" stroke="#000"/>
<path d="m454.7481,1077.9987c1.3527,1.1132 3.2241,2.3468 5.1743,2.7309" fill="none" stroke="#000"/>
<path d="m456.337,1076.0014c1.3527,1.1133 3.2241,2.3468 5.1743,2.731" fill="none" stroke="#000"/>
<path d="m471.534,1077.9987c-1.3527,1.1132-3.2241,2.3468-5.1743,2.7309" fill="none" stroke="#000"/>
<path d="m469.9451,1076.0014c-1.3527,1.1133-3.2241,2.3468-5.1743,2.731" fill="none" stroke="#000"/>
<path d="m476.2562,1066.9286c.2641-4.7135-3.4105-6.2095-7.7329-5.8886-.0298,1.2698-.2977,2.4978-.7231,3.7768 1.6528,1.6571 4.5711,3.2899 8.456,2.1118z" fill="#fff" fill-rule="evenodd" stroke="#000"/>
<path d="m469.2975,1066.3457c1.4743-1.3719 2.2252-3.3844 1.8905-5.109" fill="none" stroke="#000"/>
<path d="m474.1956,1062.2087c.0829,1.783-.6785,3.6515-1.9426,4.7353" fill="none" stroke="#000"/>
<path d="m449.9518,1066.9286c-.2641-4.7135 3.4105-6.2095 7.7329-5.8886 .0298,1.2698.2977,2.4978.7231,3.7768-1.6528,1.6571-4.5711,3.2899-8.456,2.1118z" fill="#fff" fill-rule="evenodd" stroke="#000"/>
<path d="m456.9105,1066.3457c-1.4743-1.3719-2.2252-3.3844-1.8905-5.109" fill="none" stroke="#000"/>
<path d="m452.0124,1062.2087c-.0829,1.783.6785,3.6515 1.9426,4.7353" fill="none" stroke="#000"/>
<path d="m458.9277,1060.3555c2.7705,1.877 5.541,1.3665 8.3115,0v3.3014c-2.7705,1.3651-5.541,1.4603-8.3115,0v-3.3014z" fill="#fff" stroke="#000"/>
</g>
</svg>
