<svg viewBox="0 0 512 512" xmlns="http://www.w3.org/2000/svg">

<g transform="matrix(18.68858,0,0,18.68858,-5276.47897,-330.98821)">
<g fill="#fff" transform="matrix(.90966,0,0,.98838,102.4546,42.77436)">
<path d="m 212.75 -18.1063 c -4.0241 0 -7.5363 2.1911 -9.4096 5.4477 h -3.3091 v 5.0425 h 6.6182 c 0.1865 -3.2126 2.8414 -5.7628 6.1005 -5.7628 s 5.914 2.5503 6.1005 5.7628 h 6.6182 v -5.0425 h -3.3091 c -1.8733 -3.2566 -5.3855 -5.4477 -9.4096 -5.4477 z" fill="#fff"/>
<path d="m 212.75 -24.3704 -4.0316 10.0174 h 8.0632 l -4.0316 -10.0174 z" fill="#fff"/>
<path d="m 200.031 -6.7179 v 8.1336 h 6.625 v -8.1336 h -6.625 z m 18.8125 0 v 8.1336 h 6.625 v -8.1336 h -6.625 z" fill="#fff"/>
</g>
<path d="m 283.701 35.6512 h 24.875" fill="none" stroke="#000"/>
</g>
</svg>
