<svg viewBox="0 0 512 512" xmlns="http://www.w3.org/2000/svg">

<g transform="matrix(18.68858,0,0,18.68858,-5276.47897,-330.98821)">
<g fill="#fff" transform="matrix(.90966,0,0,.98838,102.4546,42.77436)">
<path d="m212.75-18.1063c-4.0241,0-7.5363,2.1911-9.4096,5.4477h-3.3091v5.0425h6.6182c.1865-3.2126 2.8414-5.7628 6.1005-5.7628s5.914,2.5503 6.1005,5.7628h6.6182v-5.0425h-3.3091c-1.8733-3.2566-5.3855-5.4477-9.4096-5.4477z" fill="#fff"/>
<path d="m212.75-24.3704-4.0316,10.0174h8.0632l-4.0316-10.0174z" fill="#fff"/>
<path d="m200.0313-6.7179v8.1336h6.625v-8.1336h-6.625zm18.8125,0v8.1336h6.625v-8.1336h-6.625z" fill="#fff"/>
</g>
<path d="m283.7012,35.6512h24.875" fill="none" stroke="#000"/>
</g>
</svg>
