<svg xmlns="http://www.w3.org/2000/svg" viewBox="0 0 512 512">
<g fill="#fff" transform="matrix(13.21488 13.21488 13.21488 -13.21488 -20892.32914 7285.0039)">
<path d="m 532.561 1061.41 c 0.6267 0.6266 0.6267 1.6545 0 2.2812 -0.235 0.2351 -0.5382 0.3787 -0.8438 0.4375 v 16.0313 l 2.5938 3.7187 2.5938 -3.7187 v -16.0313 c -0.3 -0.059 -0.5775 -0.2025 -0.8125 -0.4375 -0.6267 -0.6266 -0.6267 -1.6545 0 -2.2812"/>
<path stroke="#000" d="m532.7797,1049.2306h3.0618v10.1331h-3.0618z"/>
</g>
<g stroke="#000" transform="matrix(13.21488 13.21488 13.21488 -13.21488 -20892.32914 7285.0039)">
<path fill="none" d="m534.3106,1064.8617 0,14.5051"/>
<path fill="#fff" d="m526.8637,1058.5618h14.8938v4.2283c-4.919-1.318-10.0304-1.3031-14.8938,0v-4.2283z"/>
</g>
<g transform="matrix(13.21488 13.21488 13.21488 -13.21488 -20892.32914 7285.0039)">
<path fill-rule="evenodd" d="m537.849,1062.0123v-1.79h-7.0769v1.79"/>
<path stroke="#fff" d="m534.9306,1067.0801c0,1.3005-1.0543,2.3549-2.3549,2.3549s-2.3549-1.0544-2.3549-2.3549 1.0543-2.3549 2.3549-2.3549 2.3549,1.0543 2.3549,2.3549z" transform="matrix(.70711 .70711 -.70711 .70711 912.26219 -70.75408)"/>
</g>
<g fill="none" stroke="#000" transform="matrix(13.21488 13.21488 13.21488 -13.21488 -21059.94932 7452.62408)">
<path d="m 529.107 1072.91 v 1.79"/>
<path d="m 539.514 1072.91 v 1.79"/>
</g>
<g transform="matrix(13.21488 13.21488 13.21488 -13.21488 -20892.32914 7285.0039)">
<path fill="#fff" d="m532.178,1050.382h4.2651v1.8766h-4.2651z"/>
</g>
</svg>
