<svg xmlns="http://www.w3.org/2000/svg" viewBox="0 0 512 512">
<g fill="#fff" transform="matrix(13.21488 13.21488 13.21488 -13.21488 -20892.32914 7285.0039)">
<path d="m532.5606,1061.4096c.6267.6266.6267,1.6545 0,2.2812-.235.2351-.5382.3787-.8438.4375v16.0313l2.5938,3.7187 2.5938-3.7187v-16.0313c-.3-.059-.5775-.2025-.8125-.4375-.6267-.6266-.6267-1.6545 0-2.2812"/>
<path stroke="#000" d="m532.7797,1049.2306h3.0618v10.1331h-3.0618z"/>
</g>
<g stroke="#000" transform="matrix(13.21488 13.21488 13.21488 -13.21488 -20892.32914 7285.0039)">
<path fill="none" d="m534.3106,1064.8617 0,14.5051"/>
<path fill="#fff" d="m526.8637,1058.5618h14.8938v4.2283c-4.919-1.318-10.0304-1.3031-14.8938,0v-4.2283z"/>
</g>
<g transform="matrix(13.21488 13.21488 13.21488 -13.21488 -20892.32914 7285.0039)">
<path fill-rule="evenodd" d="m537.849,1062.0123v-1.79h-7.0769v1.79"/>
<path stroke="#fff" d="m534.9306,1067.0801c0,1.3005-1.0543,2.3549-2.3549,2.3549s-2.3549-1.0544-2.3549-2.3549 1.0543-2.3549 2.3549-2.3549 2.3549,1.0543 2.3549,2.3549z" transform="matrix(.70711 .70711 -.70711 .70711 912.26219 -70.75408)"/>
</g>
<g fill="none" stroke="#000" transform="matrix(13.21488 13.21488 13.21488 -13.21488 -21059.94932 7452.62408)">
<path d="m529.107,1072.9065v1.79"/>
<path d="m539.5142,1072.9065v1.79"/>
</g>
<g transform="matrix(13.21488 13.21488 13.21488 -13.21488 -20892.32914 7285.0039)">
<path fill="#fff" d="m532.178,1050.382h4.2651v1.8766h-4.2651z"/>
</g>
</svg>
