<svg viewBox="0 0 512 512" xmlns="http://www.w3.org/2000/svg">

<g transform="matrix(18.68858,0,0,18.68858,-10440.81242,-19082.19187)">
<path d="m 559.225 1021.67 v 2.6562 l 16.1875 16.1875 2.5 -2.5312 -16.3438 -16.3125 h -2.3438 z" fill="#fff" stroke="#000"/>
<path d="m 575.096 1035.04 c 0 1.8386 -1.4905 3.3291 -3.3291 3.3291 s -3.3291 -1.4905 -3.3291 -3.3291 1.4905 -3.3291 3.3291 -3.3291 3.3291 1.4905 3.3291 3.3291 z" fill="#fff" stroke="#000" transform="translate(-5.6489,-6.5125)"/>
<path d="m 575.096 1035.04 c 0 1.8386 -1.4905 3.3291 -3.3291 3.3291 s -3.3291 -1.4905 -3.3291 -3.3291 1.4905 -3.3291 3.3291 -3.3291 3.3291 1.4905 3.3291 3.3291 z" fill="#fff" stroke="#000" transform="translate(-2.9738,-3.7305)"/>
<path d="m 575.096 1035.04 c 0 1.8386 -1.4905 3.3291 -3.3291 3.3291 s -3.3291 -1.4905 -3.3291 -3.3291 1.4905 -3.3291 3.3291 -3.3291 3.3291 1.4905 3.3291 3.3291 z" fill="#fff" stroke="#000" transform="translate(.0757,-.6809)"/>
<path d="m 585.015 1047.51 -19.4185 -7.486 0.8842 -2.5251 7.0739 -1.4493 1.4494 -7.0739 2.5555 -0.9147 7.4555 19.449 z" fill="#fff"/>
<path d="m 574.457 1027.86 5.6393 14.7258 -14.7027 -5.6623" fill="none" stroke="#000"/>
<path d="m 574.845 1028.25 -1.7436 7.3428 -7.3197 1.7207" fill="none" stroke="#000"/>
</g>
</svg>
