<svg viewBox="0 0 512 512" xmlns="http://www.w3.org/2000/svg">

<g transform="matrix(18.68858,0,0,18.68858,6413.10074,-14263.71332)">
<path d="m-325.2428,778.4253-2.7842-1.4584 .3094,1.8561-2.1434-.7292c3.7673,2.6464 6.3237,5.9786 8.6621,10.2089 1.212,2.1926 3.8474.3458 1.834-1.8341 2.2152,1.8179 4.1787-1.3372 2.1876-2.1876-3.406-1.4547-6.3158-3.3541-8.0654-5.8557z" fill="#fff"/>
<path d="m-342.2557,779.5946c-.7379,1.1051.4433,2.7301 2.9073,1.7856-2.9707,1.7832-.4428,4.3441 1.3437,2.3274 1.8321-2.068 4.0106-3.988 6.3002-4.9003l.6793-1.5108-1.7556.3356 2.5917-3.1999c-3.1906,2.2464-6.6543,4.0121-10.6593,4.35-.7055.0595-1.1613.4441-1.4073.8125z" fill="#fff"/>
<path d="m-327.981,774.2018 2.3303-5.5547-1.3733-4.3257-1.7759,7.2106 .8189,2.6698z" fill="#fff" fill-rule="evenodd"/>
<path d="m-320.5588,778.9113-6.44-3.3034 5.9882.4606 .4518,2.8428z" fill="#fff" fill-rule="evenodd"/>
<path d="m-329.5631,773.4338-4.9608-7.8769 .1086,5.923 4.8522,1.9539z" fill="#fff" fill-rule="evenodd"/>
<path d="m-330.9001,779.4735-3.2239,4.2419 2.5027-.5514 .7211-3.6905z" fill="#fff" fill-rule="evenodd"/>
<path d="m-326.4534,774.5091 4.5626-2.0873-2.9824-.0836-1.5802,2.1709z" fill="#fff" fill-rule="evenodd"/>
<path d="m-329.8856,779.5236 1.0165,6.335 1.9484-1.0497-2.9649-5.2853z" fill="#fff" fill-rule="evenodd"/>
</g>
</svg>
