<svg viewBox="0 0 512 512" xmlns="http://www.w3.org/2000/svg">

<g transform="matrix(18.68858,0,0,18.68858,1979.68553,-4769.32786)">
<path d="m-101.969,257.9677h19.1856c0,9.4093-1.6342,20.3049-9.5238,21.9878-7.1668-1.9706-9.6618-12.6044-9.6618-21.9878z" fill="#fff" fill-rule="evenodd" stroke="#000"/>
<path d="m-98.8511,257.2491 5.8456,9.2701-2.1702.7696 7.9109,11.2641 .7001-.6996-4.3755-9.4451 2.5903-.8745-5.1456-10.2846h-5.3556z" fill-rule="evenodd"/>
<path d="m-102.9732,256.9646h21.2023c0,10.95-1.4207,22.0632-10.6072,24.0217-8.3449-2.2933-10.5951-13.1018-10.5951-24.0217z" fill="none" stroke="#fff"/>
<path d="m-93.25,267.1747c-.4375.125-3.9375,1.1875-3.9375,1.1875l2.375,4.375-3.108,2.6067" fill="none" stroke="#000"/>
<path d="m-89.1875,266.9872 1.625,3.0625 3.6049-.125" fill="none" stroke="#000"/>
<path d="m-91.1284,264.1149 7.9764-2.5999" fill="none" stroke="#000"/>
</g>
</svg>
