<svg viewBox="0 0 512 512" xmlns="http://www.w3.org/2000/svg">

<g transform="matrix(18.68858,0,0,18.68858,-5276.48083,-3483.52365)">
<path d="m299.4828,187.7918 3.4269-.8611c-1.8046,1.6047-2.8673,3.1755-3.0496,5.0333l4.0901-1.4874-.4162,5.4364 5.7245-.6502-8.6117,8.6118c-2.4774,2.4774-4.7076-.0628-7.3519,2.5816l-4.9091,4.9091-3.8529-3.853 4.909-4.9091c2.6444-2.6444.1042-4.8746 2.5816-7.352l7.4593-7.4594z" fill="#fff" fill-rule="evenodd"/>
<g fill="#fff" stroke="#000" stroke-width=".9781" transform="matrix(1.0565812e-7,-1.04546,-1.04545,-1.0565919e-7,462.20947,530.44664)">
<path d="m305.5976,167.9181 5.6256-5.5833c2.5294-2.5294.0997-4.6627 2.4693-7.0323l3.3303-3.3303" fill="none" stroke="#000" stroke-width=".9781"/>
</g>
<path d="m299.283,156.6346c0,.8299-2.1963,1.5026-4.9055,1.5026s-4.9055-.6727-4.9055-1.5026 2.1963-1.5026 4.9055-1.5026 4.9055.6727 4.9055,1.5026z" stroke="#fff" stroke-width="1.2853" transform="matrix(-.4362,-.4362,.6939,-.69391,305.96041,446.98191)"/>
</g>
</svg>
