<svg viewBox="0 0 512 512" xmlns="http://www.w3.org/2000/svg">

<g transform="matrix(18.68858,0,0,18.68858,5157.94768,-7973.2569)">
<path d="m-255.9445,427.5305-1.2625,1.9529c1.2163.7482 1.8547,1.4414 2.4713,2.6663-.4266.5904-.7458,1.3042-1.0138,2.1092 .2182.4854.3757,1.3517.3764,1.9254l-1.9209-.3135-1.6584,1.8209-1.3332-2.7313c-1.754,2.1564-2.2797,3.0625-4.9915,2.8777l-.7665-2.3644-2.7338.5296c0,0-.4983-2.7233-1.3353-3.3332 .235-.9821.9346-1.8511 2.2112-2.6338l-1.2127-2.2456c-4.4383,3.1119-6.2434,9.2957-6.2434,15.0873 4.9715,2.5002 6.4547,5.3415 6.1784,8.3566 .7412.4174 1.5079.832 2.4063,1.073 1.2287.3296 2.5467.4879 3.9021.4877s2.7435-.1581 4.0322-.4877c1.1668-.2985 2.2256-.7647 3.1867-1.3332-.043-2.9332 1.556-5.8314 6.3735-8.0964-1e-05-5.6725-1.8765-12.2515-6.6661-15.3474z" fill="#fff" stroke="#000" stroke-width="1.2897"/>
<path d="m-262.318,444.065c-1.0062,1.9332-1.6409,3.8663-2.1688,5.7995 1.4458-.4999 2.8916-.4411 4.3375,0-.3905-1.9332-1.1772-3.8663-2.1688-5.7995z" fill-rule="evenodd"/>
<g transform="matrix(1.04056,0,0,1.0405,-761.61555,-15.36815)">
<path d="m486.9837,439.2965c-.66-.0113-1.4381-.1439-2.276-.4641-.7982-.3049-1.5464-.7227-2.1434-1.1711-.3086.1622-.5775.4061-.7513.7071-.6283,1.0883.0496,2.6524 1.5026,3.4914s3.1503.6242 3.7786-.464c.3586-.6211.2807-1.3914-.1105-2.0992z"/>
<path d="m472.6827,439.2965c.66-.0113 1.4381-.1439 2.276-.4641 .7982-.3049 1.5464-.7227 2.1434-1.1711 .3086.1622.5775.4061.7513.7071 .6283,1.0883-.0496,2.6524-1.5026,3.4914s-3.1503.6242-3.7786-.464c-.3586-.6211-.2807-1.3914.1105-2.0992z"/>
</g>
<path d="m-254.9407,431.7091c-.9724.4858-2.9479-.4323-3.4669-1.3728-.4921.5536-.8014,1.2334-1.1119,2.0292-1.2747-.2236-1.7991-.1664-3.0738-.0253-.5148-1.2823-.4588-2.3973-.3247-3.4741l-1.8833-.2597c-.6453.4454-1.0801,1.3461-1.1689,2.6949-1.4128.9201-2.8424,1.0299-3.7541.6198" fill="none" stroke="#fff"/>
<path d="m-270.3486,432.9767c.2831-.7469.4755-1.6515 1.3901-2.2396" fill="none" stroke="#000"/>
<path d="m-254.4385,432.4246c-.3115-.5903-.8277-1.6212-1.4481-2.0843" fill="none" stroke="#000"/>
</g>
</svg>
