<svg viewBox="0 0 512 512" xmlns="http://www.w3.org/2000/svg">

<g transform="matrix(18.68858,0,0,18.68858,-11803.6158,-30620.2133)">
<path d="m638.3986,1644.4539 19.2615.6075 .1655,2.7575-4.4303,12.8783-10.0091,4.0037-5.3174-1.6511-.6579-3.2377z" fill="#fff"/>
<path d="m643.2681,1664.9817 .7094-4.4032" fill="none" stroke="#000"/>
<path d="m638.2026,1642.0006 6.4079-3.0377 12.489,6.3475-4.2065,12.2641-8.8083,4.4387-7.1435-2.3799z" fill="#fff" stroke="#000"/>
<path d="m652.971,1662.1916-.0919-4.525" fill="none" stroke="#000"/>
<path d="m655.0531,1650.7624-4.1605.8534 3.6211.5868"/>
<path d="m644.6336,1661.5185-2.1794-2.0679 .7452,2.4645"/>
<path d="m654.7331,1651.2958 1.8936,3.5471" fill="none" stroke="#000"/>
<path d="m643.5259,1643.0636 7.5279,5.3421" fill="none" stroke="#000"/>
<path d="m642.3652,1644.7515 6.0302,4.279c-5.6463,1.2477-6.8124,5.1897-4.6064,9.2053" fill="none" stroke="#000"/>
<path d="m644.2279,1651.2287c4.3424.2163 4.4871,2.9929 2.6752,4.4907" fill="none" stroke="#000"/>
<path d="m638.5107,1641.5646 2.2388,6.203-3.1495,2.3055"/>
<path d="m643.4022,1639.6324 2.1794,2.0679-.7452-2.4646"/>
<path d="m633.015,1644.4303-.3947,2.808 3.5967,3.7157 1.798-3.5849-.119-3.2604z" fill="#fff"/>
<path d="m635.0809,1640.7664-2.6299,3.3441 3.5967,3.7158 2.2044-4.1211z" fill="#fff" stroke="#000"/>
<path d="m636.0747,1647.707 .1355,4.3492" fill="none" stroke="#000"/>
</g>
</svg>
