<svg viewBox="0 0 512 512" xmlns="http://www.w3.org/2000/svg">

<g transform="matrix(18.68858,0,0,18.68858,-5276.48083,-3483.52365)">
<path d="m 299.483 187.792 3.4269 -0.8611 c -1.8046 1.6047 -2.8673 3.1755 -3.0496 5.0333 l 4.0901 -1.4874 -0.4162 5.4364 5.7245 -0.6502 -8.6117 8.6118 c -2.4774 2.4774 -4.7076 -0.0628 -7.3519 2.5816 l -4.9091 4.9091 -3.8529 -3.853 4.909 -4.9091 c 2.6444 -2.6444 0.1042 -4.8746 2.5816 -7.352 l 7.4593 -7.4594 z" fill="#fff" fill-rule="evenodd"/>
<g fill="#fff" stroke="#000" stroke-width=".9781" transform="matrix(1.0565812e-7,-1.04546,-1.04545,-1.0565919e-7,462.20947,530.44664)">
<path d="m 305.598 167.918 5.6256 -5.5833 c 2.5294 -2.5294 0.0997 -4.6627 2.4693 -7.0323 l 3.3303 -3.3303" fill="none" stroke="#000" stroke-width=".9781"/>
</g>
<path d="m 299.283 156.635 c 0 0.8299 -2.1963 1.5026 -4.9055 1.5026 s -4.9055 -0.6727 -4.9055 -1.5026 2.1963 -1.5026 4.9055 -1.5026 4.9055 0.6727 4.9055 1.5026 z" stroke="#fff" stroke-width="1.2853" transform="matrix(-.4362,-.4362,.6939,-.69391,305.96041,446.98191)"/>
</g>
</svg>
