<svg viewBox="0 0 512 512" xmlns="http://www.w3.org/2000/svg">

<g transform="matrix(18.68858,0,0,18.68858,-11803.6158,-30620.2133)">
<path d="m 638.399 1644.45 19.2615 0.6075 0.1655 2.7575 -4.4303 12.8783 -10.0091 4.0037 -5.3174 -1.6511 -0.6579 -3.2377 z" fill="#fff"/>
<path d="m 643.268 1664.98 0.7094 -4.4032" fill="none" stroke="#000"/>
<path d="m 638.203 1642 6.4079 -3.0377 12.489 6.3475 -4.2065 12.2641 -8.8083 4.4387 -7.1435 -2.3799 z" fill="#fff" stroke="#000"/>
<path d="m 652.971 1662.19 -0.0919 -4.525" fill="none" stroke="#000"/>
<path d="m 655.053 1650.76 -4.1605 0.8534 3.6211 0.5868"/>
<path d="m 644.634 1661.52 -2.1794 -2.0679 0.7452 2.4645"/>
<path d="m 654.733 1651.3 1.8936 3.5471" fill="none" stroke="#000"/>
<path d="m 643.526 1643.06 7.5279 5.3421" fill="none" stroke="#000"/>
<path d="m 642.365 1644.75 6.0302 4.279 c -5.6463 1.2477 -6.8124 5.1897 -4.6064 9.2053" fill="none" stroke="#000"/>
<path d="m 644.228 1651.23 c 4.3424 0.2163 4.4871 2.9929 2.6752 4.4907" fill="none" stroke="#000"/>
<path d="m 638.511 1641.56 2.2388 6.203 -3.1495 2.3055"/>
<path d="m 643.402 1639.63 2.1794 2.0679 -0.7452 -2.4646"/>
<path d="m 633.015 1644.43 -0.3947 2.808 3.5967 3.7157 1.798 -3.5849 -0.119 -3.2604 z" fill="#fff"/>
<path d="m 635.081 1640.77 -2.6299 3.3441 3.5967 3.7158 2.2044 -4.1211 z" fill="#fff" stroke="#000"/>
<path d="m 636.075 1647.71 0.1355 4.3492" fill="none" stroke="#000"/>
</g>
</svg>
