<svg viewBox="0 0 512 512" xmlns="http://www.w3.org/2000/svg">

<g transform="matrix(18.68858,0,0,18.68858,5157.94768,-7973.2569)">
<path d="m -255.945 427.531 -1.2625 1.9529 c 1.2163 0.7482 1.8547 1.4414 2.4713 2.6663 -0.4266 0.5904 -0.7458 1.3042 -1.0138 2.1092 0.2182 0.4854 0.3757 1.3517 0.3764 1.9254 l -1.9209 -0.3135 -1.6584 1.8209 -1.3332 -2.7313 c -1.754 2.1564 -2.2797 3.0625 -4.9915 2.8777 l -0.7665 -2.3644 -2.7338 0.5296 c 0 0 -0.4983 -2.7233 -1.3353 -3.3332 0.235 -0.9821 0.9346 -1.8511 2.2112 -2.6338 l -1.2127 -2.2456 c -4.4383 3.1119 -6.2434 9.2957 -6.2434 15.0873 4.9715 2.5002 6.4547 5.3415 6.1784 8.3566 0.7412 0.4174 1.5079 0.832 2.4063 1.073 1.2287 0.3296 2.5467 0.4879 3.9021 0.4877 s 2.7435 -0.1581 4.0322 -0.4877 c 1.1668 -0.2985 2.2256 -0.7647 3.1867 -1.3332 -0.043 -2.9332 1.556 -5.8314 6.3735 -8.0964 -1e-05 -5.6725 -1.8765 -12.2515 -6.6661 -15.3474 z" fill="#fff" stroke="#000" stroke-width="1.2897"/>
<path d="m -262.318 444.065 c -1.0062 1.9332 -1.6409 3.8663 -2.1688 5.7995 1.4458 -0.4999 2.8916 -0.4411 4.3375 0 -0.3905 -1.9332 -1.1772 -3.8663 -2.1688 -5.7995 z" fill-rule="evenodd"/>
<g transform="matrix(1.04056,0,0,1.0405,-761.61555,-15.36815)">
<path d="m 486.984 439.296 c -0.66 -0.0113 -1.4381 -0.1439 -2.276 -0.4641 -0.7982 -0.3049 -1.5464 -0.7227 -2.1434 -1.1711 -0.3086 0.1622 -0.5775 0.4061 -0.7513 0.7071 -0.6283 1.0883 0.0496 2.6524 1.5026 3.4914 s 3.1503 0.6242 3.7786 -0.464 c 0.3586 -0.6211 0.2807 -1.3914 -0.1105 -2.0992 z"/>
<path d="m 472.683 439.296 c 0.66 -0.0113 1.4381 -0.1439 2.276 -0.4641 0.7982 -0.3049 1.5464 -0.7227 2.1434 -1.1711 0.3086 0.1622 0.5775 0.4061 0.7513 0.7071 0.6283 1.0883 -0.0496 2.6524 -1.5026 3.4914 s -3.1503 0.6242 -3.7786 -0.464 c -0.3586 -0.6211 -0.2807 -1.3914 0.1105 -2.0992 z"/>
</g>
<path d="m -254.941 431.709 c -0.9724 0.4858 -2.9479 -0.4323 -3.4669 -1.3728 -0.4921 0.5536 -0.8014 1.2334 -1.1119 2.0292 -1.2747 -0.2236 -1.7991 -0.1664 -3.0738 -0.0253 -0.5148 -1.2823 -0.4588 -2.3973 -0.3247 -3.4741 l -1.8833 -0.2597 c -0.6453 0.4454 -1.0801 1.3461 -1.1689 2.6949 -1.4128 0.9201 -2.8424 1.0299 -3.7541 0.6198" fill="none" stroke="#fff"/>
<path d="m -270.349 432.977 c 0.2831 -0.7469 0.4755 -1.6515 1.3901 -2.2396" fill="none" stroke="#000"/>
<path d="m -254.439 432.425 c -0.3115 -0.5903 -0.8277 -1.6212 -1.4481 -2.0843" fill="none" stroke="#000"/>
</g>
</svg>
