<svg xmlns="http://www.w3.org/2000/svg" viewBox="0 0 512 512">
<g fill="#fff">
<g transform="matrix(15.8728 0 0 15.8728 2.03522 -9.31712)">
<path d="m 26.644 3.941 c 0.888 1.199 1.453 2.544 1.453 3.992 0 4.758 -5.407 8.614 -12.096 8.614 -6.689 0 -12.097 -3.857 -12.097 -8.615 0 -1.448 0.564 -2.793 1.453 -3.992 -2.507 1.88 -4.106 4.407 -4.106 7.2 0 5.787 6.613 10.478 14.749 10.478 8.136 0 14.749 -4.691 14.749 -10.478 0 -2.793 -1.599 -5.32 -4.105 -7.199 z"/>
</g>
<g stroke="#000" transform="matrix(15.8728 0 0 15.8728 2.03522 -9.31712)">
<path d="m 25.925 20.119 3.019 -1.394 -2.918 -8.414 -2.968 0.929"/>
<path d="m 8.943 11.24 -2.968 -0.929 -2.918 8.414 3.019 1.394"/>
<path d="m 16 31.335 c 3.651 0.023 7.249 -0.914 10.496 -2.799 0 -14.145 -2.746 -20.619 -10.496 -20.619 -7.75 0 -10.496 6.474 -10.496 20.619 3.247 1.885 6.845 2.822 10.496 2.799 z"/>
<path stroke-width=".73" d="m12.217,11.598c.909,.405 2.648,.787 3.783,.792 1.135-.005 2.874-.387 3.783-.792"/>
<path d="m 19.974 12.358 c -0.18 -1.236 -1.779 -2.168 -3.974 -2.168 -2.195 0 -3.794 0.932 -3.974 2.168 l -0.359 2.467 c 0.462 1.135 2.885 1.816 4.333 1.831 1.448 -0.014 3.871 -0.696 4.333 -1.831 l -0.359 -2.467 z"/>
<path d="m 16 2.095 c -1.179 0 -2.691 9.877 -2.691 9.984 0 0.724 1.205 1.311 2.691 1.311 1.486 0 2.691 -0.587 2.691 -1.311 0 -0.107 -1.512 -9.984 -2.691 -9.984 z"/>
</g>
</g>
<path d="m 136.24 272.568 c -2.619 12.2538 -6.3967 39.936 -6.3967 39.936 0 0 37.8725 30.8408 127.157 30.8408 89.2845 0 125.173 -30.8408 125.173 -30.8408 0 0 -3.7777 -27.6822 -6.3967 -39.936 -38.4122 12.9363 -78.8561 19.4442 -119.76 19.222 -40.9201 0.2381 -81.364 -6.2856 -119.776 -19.222 z"/>
<path stroke="#000" stroke-width="15.873" d="m245.3494,482.7396c0-60.5071-16.6982-179.8705-16.6982-179.8705h22.9521 8.7935 22.9521c0,0-16.6982,119.3634-16.6982,179.8705"/>
</svg>
