<svg viewBox="0 0 512 512" xmlns="http://www.w3.org/2000/svg">

<g transform="matrix(18.68858,0,0,18.68858,1348.11661,-4113.92005)">
<path d="m -56.1447 222.924 h -6.1569 c 0 0 3.0849 4.3343 0.6023 6.8261 -2.2542 2.2624 -5.8891 4.24 -5.8892 7.9972 0 0.2241 -0.004 7.9971 -0.0104 8.2167 l 16.7226 0.1217 c -0.0092 -0.2591 -0.0151 -8.0729 -0.0151 -8.3384 0 -3.842 -3.7845 -5.8067 -6.1234 -8.0641 -2.5086 -2.4213 0.87 -6.7591 0.87 -6.7591 z" fill="none" stroke="#fff"/>
<path d="m -62.1717 221.268 h 5.7298 c -1.0867 6.4594 -4.642 6.4128 -5.7298 0 z" fill="#fff" fill-rule="evenodd"/>
<path d="m -65.0992 234.986 c -0.568 0.8 -0.9688 1.6887 -0.9688 2.7812 0 0.2848 -0.0078 6.3987 -0.0186 6.6744 l 13.704 0.2034 c -0.0163 -0.3406 -0.0291 -6.5225 -0.0291 -6.8777 -1e-05 -1.091 -0.4007 -1.9866 -0.9688 -2.7812 h -11.7188 z" fill="#fff"/>
<path d="m -58.3125 236.222 c 0 1.0959 -0.8884 1.9844 -1.9844 1.9844 s -1.9844 -0.8884 -1.9844 -1.9844 0.8884 -1.9844 1.9844 -1.9844 1.9844 0.8884 1.9844 1.9844 z" fill="none" stroke="#000" stroke-width="1.4767" transform="matrix(.67717,0,0,.67717,-19.99668,79.10724)"/>
<path d="m -58.3125 236.222 c 0 1.0959 -0.8884 1.9844 -1.9844 1.9844 s -1.9844 -0.8884 -1.9844 -1.9844 0.8884 -1.9844 1.9844 -1.9844 1.9844 0.8884 1.9844 1.9844 z" fill="none" stroke="#000" transform="translate(4.4442,5.0312)"/>
<path d="m -58.3125 236.222 c 0 1.0959 -0.8884 1.9844 -1.9844 1.9844 s -1.9844 -0.8884 -1.9844 -1.9844 0.8884 -1.9844 1.9844 -1.9844 1.9844 0.8884 1.9844 1.9844 z" fill="none" stroke="#000" stroke-width="1.2865" transform="matrix(.77729,0,0,.77729,-10.26621,52.38123)"/>
<path d="m -58 232.206 c 0 0.6041 -0.4897 1.0938 -1.0938 1.0938 s -1.0938 -0.4897 -1.0938 -1.0938 0.4897 -1.0938 1.0938 -1.0938 1.0938 0.4897 1.0938 1.0938 z" stroke="#fff" stroke-width=".9211" transform="matrix(1.08571,0,0,1.08571,5.47858,-19.66604)"/>
</g>
</svg>
