<svg viewBox="0 0 512 512" xmlns="http://www.w3.org/2000/svg">

<g transform="matrix(18.68858,0,0,18.68858,1348.11661,-4113.92005)">
<path d="m-56.1447,222.9245h-6.1569c0,0 3.0849,4.3343.6023,6.8261-2.2542,2.2624-5.8891,4.24-5.8892,7.9972 0,.2241-.004,7.9971-.0104,8.2167l16.7226.1217c-.0092-.2591-.0151-8.0729-.0151-8.3384 0-3.842-3.7845-5.8067-6.1234-8.0641-2.5086-2.4213.87-6.7591.87-6.7591z" fill="none" stroke="#fff"/>
<path d="m-62.1717,221.2678h5.7298c-1.0867,6.4594-4.642,6.4128-5.7298,0z" fill="#fff" fill-rule="evenodd"/>
<path d="m-65.0992,234.9859c-.568.8-.9688,1.6887-.9688,2.7812 0,.2848-.0078,6.3987-.0186,6.6744l13.704.2034c-.0163-.3406-.0291-6.5225-.0291-6.8777-1e-05-1.091-.4007-1.9866-.9688-2.7812h-11.7188z" fill="#fff"/>
<path d="m-58.3125,236.2216c0,1.0959-.8884,1.9844-1.9844,1.9844s-1.9844-.8884-1.9844-1.9844 .8884-1.9844 1.9844-1.9844 1.9844.8884 1.9844,1.9844z" fill="none" stroke="#000" stroke-width="1.4767" transform="matrix(.67717,0,0,.67717,-19.99668,79.10724)"/>
<path d="m-58.3125,236.2216c0,1.0959-.8884,1.9844-1.9844,1.9844s-1.9844-.8884-1.9844-1.9844 .8884-1.9844 1.9844-1.9844 1.9844.8884 1.9844,1.9844z" fill="none" stroke="#000" transform="translate(4.4442,5.0312)"/>
<path d="m-58.3125,236.2216c0,1.0959-.8884,1.9844-1.9844,1.9844s-1.9844-.8884-1.9844-1.9844 .8884-1.9844 1.9844-1.9844 1.9844.8884 1.9844,1.9844z" fill="none" stroke="#000" stroke-width="1.2865" transform="matrix(.77729,0,0,.77729,-10.26621,52.38123)"/>
<path d="m-58,232.2059c0,.6041-.4897,1.0938-1.0938,1.0938s-1.0938-.4897-1.0938-1.0938 .4897-1.0938 1.0938-1.0938 1.0938.4897 1.0938,1.0938z" stroke="#fff" stroke-width=".9211" transform="matrix(1.08571,0,0,1.08571,5.47858,-19.66604)"/>
</g>
</svg>
