<svg viewBox="0 0 512 512" xmlns="http://www.w3.org/2000/svg">

<g transform="matrix(18.68858,0,0,18.68858,-2958.04586,-38102.11477)">
<path d="m 178.849 2039.78 c -4.2478 7.903 -16.2834 3.0246 -19.2399 13.5868 -2.8981 10.3535 13.434 16.8808 15.2891 6.4241 1.1763 -6.6306 3.3874 -12.6258 9.6681 -10.5033 -0.6526 -0.9988 -1.7755 -1.8141 -3.0835 -2.3769 l 2.6981 -3.7902 c -1.6176 0.1438 -3.3674 0.1788 -5.2677 0.032 0.2388 -0.9288 0.2649 -2.0086 -0.0642 -3.3726 z" fill="#fff"/>
<path d="m 177.333 2045.83 c 3.2161 -0.3885 6.5558 1.3014 7.9032 3.557" fill="none" stroke="#000"/>
<path d="m 179.288 2039.54 c 1.8834 7.8044 -7.2836 6.3736 -8.645 16.8762" fill="none" stroke="#000"/>
<path d="m 159.121 2050.39 c 0.9541 -2.0329 2.0928 -3.9893 4.134 -5.5729 l 0.7279 4.264 -2.1087 1.765 z" fill="#fff"/>
<path d="m 163.29 2057.59 -3.6264 -9.6687 c -1.7398 5.6085 -1.1926 15.5621 4.6551 17.2975 3.9322 1.1669 10.8332 0.05 12.4442 -5.8614 l -7.4919 2.2556" fill="#fff" stroke="#000"/>
<path d="m 169.033 2063.39 c 0.1024 -3.2586 -0.6183 -7.6023 -1.4587 -10.1011 -2.4769 1.0344 -4.2469 2.743 -5.7372 4.6442" fill="#fff" stroke="#000"/>
<path d="m 166.337 2045.79 c -2.4493 0.9731 -4.5183 2.1564 -5.9394 4.4719" fill="none" stroke="#000"/>
</g>
</svg>
