<svg viewBox="0 0 512 512" xmlns="http://www.w3.org/2000/svg">

<g transform="matrix(18.68858,0,0,18.68858,2603.71037,-9854.73343)">
<path d="m -128.412 535.453 v 14.8125" fill="none" stroke="#000"/>
<path d="m -121.099 528.236 -1.0312 4.7812 3.7812 -4.7812 h -2.75 z m 8.0938 1 -6.4062 7.0938 6.4062 -2.5625 v -4.5312 z m 0 9.9062 -4.5312 1.4688 4.5312 0.6875 v -2.1562 z" fill="#fff" fill-rule="evenodd"/>
<path d="m -129.506 531.611 c -0.5089 0.0226 -0.9834 0.1409 -1.375 0.4062 -0.9077 0.6149 -0.6042 1.9871 -1.2188 3.375 -2.0995 4.7417 -4.2196 8.181 -6.0938 10.7188 v 5.5312 c 3.2952 -1.1421 8.2027 -2.3248 15.375 -2.5625 1.5049 -0.0499 2.66 0.6738 3.5625 0.0625 2.228 -1.5093 1.421 -6.554 -1.7812 -11.2812 -0.2001 -0.2954 -0.385 -0.5966 -0.5938 -0.875 -2.5439 -3.3934 -5.6696 -5.4729 -7.875 -5.375 z" fill="#fff"/>
<path d="m -129.689 532.919 c -0.1872 0.027 -0.3488 0.1158 -0.4963 0.2157 -1.4394 0.9751 -0.3183 5.1607 2.5124 9.3394 s 6.3019 6.7723 7.7413 5.7971 c 0.1512 -0.1024 0.2516 -0.2664 0.3471 -0.4359 -1.3884 0.0771 -4.2501 -2.4807 -6.795 -6.2375 -2.5558 -3.7728 -3.9154 -7.4332 -3.3096 -8.6789 z"/>
<path d="m -114.875 539.3 c 0 1.2426 -2.5044 2.25 -5.5938 2.25 s -5.5938 -1.0074 -5.5938 -2.25 2.5044 -2.25 5.5938 -2.25 5.5938 1.0074 5.5938 2.25 z" transform="matrix(.63775,.95985,-.69436,.42211,326.17197,428.63706)"/>
</g>
</svg>
