<svg viewBox="0 0 512 512" xmlns="http://www.w3.org/2000/svg">

<g transform="matrix(18.68858,0,0,18.68858,2603.71037,-9854.73343)">
<path d="m-128.4116,535.4533v14.8125" fill="none" stroke="#000"/>
<path d="m-121.0992,528.2359-1.0312,4.7812 3.7812-4.7812h-2.75zm8.0938,1-6.4062,7.0938 6.4062-2.5625v-4.5312zm0,9.9062-4.5312,1.4688 4.5312.6875v-2.1562z" fill="#fff" fill-rule="evenodd"/>
<path d="m-129.5055,531.6109c-.5089.0226-.9834.1409-1.375.4062-.9077.6149-.6042,1.9871-1.2188,3.375-2.0995,4.7417-4.2196,8.181-6.0938,10.7188v5.5312c3.2952-1.1421 8.2027-2.3248 15.375-2.5625 1.5049-.0499 2.66.6738 3.5625.0625 2.228-1.5093 1.421-6.554-1.7812-11.2812-.2001-.2954-.385-.5966-.5938-.875-2.5439-3.3934-5.6696-5.4729-7.875-5.375z" fill="#fff"/>
<path d="m-129.689,532.9189c-.1872.027-.3488.1158-.4963.2157-1.4394.9751-.3183,5.1607 2.5124,9.3394s6.3019,6.7723 7.7413,5.7971c.1512-.1024.2516-.2664.3471-.4359-1.3884.0771-4.2501-2.4807-6.795-6.2375-2.5558-3.7728-3.9154-7.4332-3.3096-8.6789z"/>
<path d="m-114.875,539.2997c0,1.2426-2.5044,2.25-5.5938,2.25s-5.5938-1.0074-5.5938-2.25 2.5044-2.25 5.5938-2.25 5.5938,1.0074 5.5938,2.25z" transform="matrix(.63775,.95985,-.69436,.42211,326.17197,428.63706)"/>
</g>
</svg>
