<svg viewBox="0 0 512 512" xmlns="http://www.w3.org/2000/svg">

<g transform="matrix(18.68858,0,0,18.68858,-11121.38818,-18404.41655)">
<path d="m608.657,985.884c.5261.7715.6818,1.6793.6099,2.7167 .8624-1.1578 1.7248-2.0945 2.5873-2.8916-1.1614,8.7542 10.973,8.5698 9.429,16.5595-2.2996,11.8991-23.677,11.2433-24.9272.6414-1.1346-9.6212 10.4114-10.4839 12.301-17.0259z" fill="#fff" fill-rule="evenodd"/>
<path d="m610.188,985.7957c-3.0449,3.7687-4.7483,8.0037-2.5688,13.5884-1.2295-5.1227.3304-9.2864 3.2722-12.9749l-.7034-.6135z" fill-rule="evenodd"/>
<path d="m607.5377,1011.4639c4.3666-2.5819 7.8912-6.9763 7.406-14.2667 2.7064.4969 5.523,2.7676 6.5561,6.7096" fill="none" stroke="#000"/>
<path d="m611.2802,1008.2963c-3.7877-1.0871-7.1326-4.1424-9.6754-9.3117-1.8467,1.9477-3.144,5.6753-3.1676,9.5765" fill="none" stroke="#000"/>
<path d="m599.0231,1004.4266c-3.1096-4.1013-2.3509-8.0928 1.8929-11.4953" fill="none" stroke="#000"/>
<path d="m618.6902,999.3361c.9649-1.9275.5468-3.6925-1.0994-5.0916" fill="none" stroke="#000"/>
<path d="m616.3955,1010.2973c2.0906-3.53 2.983-6.9095.2663-10.6343 1.7709,3.5703.8126,6.9831-1.4976,10.3177l1.2312.3166z" fill-rule="evenodd"/>
<path d="m605.1276,1011.6718c-2.3022-2.2568-4.593-5.4957-3.4706-9.3222-.5468,3.9417 2.5217,6.8568 5.27,9.3134l-1.7994.01z" fill-rule="evenodd"/>
<path d="m608.2682,1007.0868c.8563-1.2193 1.1342-2.4385 1.4279-3.6578 1.2924.4853 2.5065,1.0724 3.4131,2.0592" fill="none" stroke="#000"/>
</g>
</svg>
