<svg viewBox="0 0 512 512" xmlns="http://www.w3.org/2000/svg">

<g transform="matrix(18.68858,0,0,18.68858,-11121.38818,-18404.41655)">
<path d="m 608.657 985.884 c 0.5261 0.7715 0.6818 1.6793 0.6099 2.7167 0.8624 -1.1578 1.7248 -2.0945 2.5873 -2.8916 -1.1614 8.7542 10.973 8.5698 9.429 16.5595 -2.2996 11.8991 -23.677 11.2433 -24.9272 0.6414 -1.1346 -9.6212 10.4114 -10.4839 12.301 -17.0259 z" fill="#fff" fill-rule="evenodd"/>
<path d="m 610.188 985.796 c -3.0449 3.7687 -4.7483 8.0037 -2.5688 13.5884 -1.2295 -5.1227 0.3304 -9.2864 3.2722 -12.9749 l -0.7034 -0.6135 z" fill-rule="evenodd"/>
<path d="m 607.538 1011.46 c 4.3666 -2.5819 7.8912 -6.9763 7.406 -14.2667 2.7064 0.4969 5.523 2.7676 6.5561 6.7096" fill="none" stroke="#000"/>
<path d="m 611.28 1008.3 c -3.7877 -1.0871 -7.1326 -4.1424 -9.6754 -9.3117 -1.8467 1.9477 -3.144 5.6753 -3.1676 9.5765" fill="none" stroke="#000"/>
<path d="m 599.023 1004.43 c -3.1096 -4.1013 -2.3509 -8.0928 1.8929 -11.4953" fill="none" stroke="#000"/>
<path d="m 618.69 999.336 c 0.9649 -1.9275 0.5468 -3.6925 -1.0994 -5.0916" fill="none" stroke="#000"/>
<path d="m 616.395 1010.3 c 2.0906 -3.53 2.983 -6.9095 0.2663 -10.6343 1.7709 3.5703 0.8126 6.9831 -1.4976 10.3177 l 1.2312 0.3166 z" fill-rule="evenodd"/>
<path d="m 605.128 1011.67 c -2.3022 -2.2568 -4.593 -5.4957 -3.4706 -9.3222 -0.5468 3.9417 2.5217 6.8568 5.27 9.3134 l -1.7994 0.01 z" fill-rule="evenodd"/>
<path d="m 608.268 1007.09 c 0.8563 -1.2193 1.1342 -2.4385 1.4279 -3.6578 1.2924 0.4853 2.5065 1.0724 3.4131 2.0592" fill="none" stroke="#000"/>
</g>
</svg>
