<svg viewBox="0 0 512 512" xmlns="http://www.w3.org/2000/svg">

<path d="m688.1517,342.9221c.6745,2.5173-.8194,5.1048-3.3367,5.7793s-5.1048-.8194-5.7793-3.3367 .8194-5.1048 3.3367-5.7793c.4684-.1255.9533-.1781 1.4377-.1558" fill="none" stroke="#fff" stroke-width="2.0232" transform="matrix(7.10129,-5.9069,5.9069,7.10129,-6629.46918,2020.75523)"/>
<g transform="matrix(20.98092,0,0,20.98092,-14088.07641,-6772.3865)">
<path d="m680.7546,327.2983c-3.3874.6673-8.06.7422-6.0143-3.1672-4.1355,2.4151-2.4321,6.5242 5.8791,6.5242" fill="#fff" fill-rule="evenodd"/>
<path d="m686.764,327.2983c3.3874.6673 8.06.7422 6.0143-3.1672 4.1355,2.4151 2.4321,6.5242-5.8791,6.5242" fill="#fff" fill-rule="evenodd"/>
</g>
<g transform="matrix(18.68858,0,0,18.68858,-12524.33826,-6022.76531)">
<path d="m678.8491,334.1945c-.1009,1.5957.6224,2.6919 2.5962,2.1339-.0293-1.6653-1.2064-2.5799-2.5962-2.1339z" fill="#fff" fill-rule="evenodd"/>
<path d="m689.0611,334.1945c.1009,1.5957-.6224,2.6919-2.5962,2.1339 .0293-1.6653 1.2064-2.5799 2.5962-2.1339z" fill="#fff" fill-rule="evenodd"/>
</g>
</svg>
