<svg viewBox="0 0 512 512" xmlns="http://www.w3.org/2000/svg">

<g transform="matrix(18.68858,0,0,18.68858,-9758.785,-16570.12979)">
<path d="m 535.141 907.618 -1.4963 2.5916 c 2.7227 1.572 5.2595 2.6731 7.9834 2.8469 -1.5276 -2.2948 -3.747 -3.8565 -6.4871 -5.4385 z" fill="#fff" fill-rule="evenodd"/>
<path d="m 517.352 -917.135 h 5.1662 v 10.5735 h -5.1662 z" fill="#fff" stroke="#000" transform="matrix(-.5,.86603,-.86603,-.5,0,0)"/>
<path d="m 524.829 902.706 10.0349 5.7632" fill="none" stroke="#000"/>
<path d="m 526.738 901.131 -2.9272 5.0701" fill="none" stroke="#fff"/>
<path d="m 541.144 891.825 -0.7745 2.8906 c 3.0368 0.8137 5.7721 1.2207 8.4482 0.6836 -2.0695 -1.8212 -4.6175 -2.7553 -7.6736 -3.5742 z" fill="#fff" fill-rule="evenodd"/>
<path d="m 720.28 -753.406 h 5.1662 v 10.5735 h -5.1662 z" fill="#fff" stroke="#000" transform="matrix(-.25882,.96593,-.96593,-.25882,0,0)"/>
<path d="m 529.248 889.43 11.1846 2.9696" fill="none" stroke="#000"/>
<path d="m 538.707 899.924 -1.1439 2.7653 c 2.9052 1.2017 5.5644 1.961 8.2875 1.7764 -1.8151 -2.0749 -4.22 -3.3324 -7.1437 -4.5418 z" fill="#fff" fill-rule="evenodd"/>
<path d="m 624.582 -841.66 h 5.1662 v 10.5735 h -5.1662 z" fill="#fff" stroke="#000" transform="matrix(-.38223,.92407,-.92407,-.38223,0,0)"/>
<path d="m 527.703 896.218 10.695 4.4194" fill="none" stroke="#000"/>
<path d="m 529.526 894.594 -2.2377 5.4099" fill="none" stroke="#fff"/>
<path d="m 531.348 887.734 -1.5152 5.6549" fill="none" stroke="#fff"/>
</g>
</svg>
