<svg viewBox="0 0 512 512" xmlns="http://www.w3.org/2000/svg">

<g transform="matrix(18.68858,0,0,18.68858,-9758.785,-16570.12979)">
<path d="m535.1414,907.6182-1.4963,2.5916c2.7227,1.572 5.2595,2.6731 7.9834,2.8469-1.5276-2.2948-3.747-3.8565-6.4871-5.4385z" fill="#fff" fill-rule="evenodd"/>
<path d="m517.3518-917.1353h5.1662v10.5735h-5.1662z" fill="#fff" stroke="#000" transform="matrix(-.5,.86603,-.86603,-.5,0,0)"/>
<path d="m524.8289,902.7061 10.0349,5.7632" fill="none" stroke="#000"/>
<path d="m526.738,901.1315-2.9272,5.0701" fill="none" stroke="#fff"/>
<path d="m541.1437,891.8249-.7745,2.8906c3.0368.8137 5.7721,1.2207 8.4482.6836-2.0695-1.8212-4.6175-2.7553-7.6736-3.5742z" fill="#fff" fill-rule="evenodd"/>
<path d="m720.2805-753.4061h5.1662v10.5735h-5.1662z" fill="#fff" stroke="#000" transform="matrix(-.25882,.96593,-.96593,-.25882,0,0)"/>
<path d="m529.248,889.4304 11.1846,2.9696" fill="none" stroke="#000"/>
<path d="m538.7072,899.9243-1.1439,2.7653c2.9052,1.2017 5.5644,1.961 8.2875,1.7764-1.8151-2.0749-4.22-3.3324-7.1437-4.5418z" fill="#fff" fill-rule="evenodd"/>
<path d="m624.582-841.6603h5.1662v10.5735h-5.1662z" fill="#fff" stroke="#000" transform="matrix(-.38223,.92407,-.92407,-.38223,0,0)"/>
<path d="m527.7029,896.2185 10.695,4.4194" fill="none" stroke="#000"/>
<path d="m529.5264,894.5944-2.2377,5.4099" fill="none" stroke="#fff"/>
<path d="m531.3477,887.7342-1.5152,5.6549" fill="none" stroke="#fff"/>
</g>
</svg>
