<svg viewBox="0 0 512 512" xmlns="http://www.w3.org/2000/svg">

<g transform="matrix(18.68858,0,0,18.68858,-228.5784,-36084.36351)">
<path d="m 31.2287 1953.78 c 8.2255 -2.0311 8.8571 -9.2228 3.846 -13.4607 -2.1766 -1.8409 -3.3242 -5.4518 0.4491 -7.3963 -5.0574 0.3848 -5.4034 5.5823 -3.7774 7.9237 3.7435 5.3906 1.4298 7.1696 -1.6847 8.6585" fill="#fff"/>
<path d="m 20.4752 1953.78 c -8.2255 -2.0311 -8.8571 -9.2228 -3.846 -13.4607 2.1766 -1.8409 3.3242 -5.4518 -0.4491 -7.3963 5.0574 0.3848 5.4034 5.5823 3.7774 7.9237 -3.7435 5.3906 -1.4298 7.1696 1.6847 8.6585" fill="#fff"/>
<path d="m 20.4941 1946.74 c 3.5924 1.0377 7.2591 0.5567 11.0535 0 1.3423 2.7183 2.0677 5.4612 0 8.3159 -3.6845 -0.3477 -7.369 -0.3676 -11.0535 0 -1.6179 -2.772 -1.5498 -5.5439 0 -8.3159 z" fill="#fff" stroke="#000"/>
</g>
</svg>
