<svg viewBox="0 0 512 512" xmlns="http://www.w3.org/2000/svg">

<g transform="matrix(18.68858,0,0,18.68858,-5674.47611,-37445.33924)">
<path d="m 317.75 2004.64 c -2.6961 0.6823 -4.3175 3.5481 -2.7188 5.9503 1.2027 1.8072 2.4055 3.2731 0.4676 4.2306 -1.2496 0.6175 -2.6764 -0.8804 -2.4676 -2.6369 0.2575 -2.1663 -1.0016 -4.2767 -2.4688 -4.7187 2.4741 5.6944 -2.3254 9.4707 -1.3125 4.125 -1.6205 0.8612 -1.7548 3.159 -0.6026 6.5676 -2.1602 -0.9203 -2.9459 -3.5736 -2.0477 -6.4522 -1.9191 1.5169 -2.8518 7.0044 -0.7824 9.8171 5.1161 6.9538 11.095 8.6809 12.1568 8.6809 1.1314 0 6.2784 -1.8041 10.1449 -6.1602 2.2357 -2.5188 2.7248 -9.038 0.4931 -13.0382 0.3201 1.3556 -0.3277 4.1083 -1.8114 5.0311 0.2675 -3.0914 -0.2096 -7.542 -1.9634 -9.1787 1.7455 9.2465 -4.9758 8.1447 -2.5874 5.3263 1.5791 -1.8634 -0.0102 -5.4844 -0.9375 -6.0128 0.5829 2.2539 -0.7618 3.7286 -2.9277 3.2877 -1.4583 -0.2968 -2.3936 -2.4054 -0.6348 -4.8189 z" fill="#fff"/>
<path d="m 322.571 2015.97 -4.4876 2.7195 -4.4871 -2.7198 -0.0001 8.1018 4.4874 2.5301 4.4875 -2.5301 z"/>
<path d="m 312.087 2015.96 v 9.1365 l 5.9962 3.2563 5.9964 -3.2563 v -9.1355" fill="none" stroke="#000"/>
<path d="m 318.031 2017.68 v 9.4426" fill="none" stroke="#fff"/>
</g>
</svg>
