<svg viewBox="0 0 512 512" xmlns="http://www.w3.org/2000/svg">

<g transform="matrix(18.68858,0,0,18.68858,-3632.61185,-20445.23175)">
<path d="m 203.191 1103.01 c 0 0.9989 -0.8098 1.8088 -1.8088 1.8088 s -1.8088 -0.8099 -1.8088 -1.8088 0.8098 -1.8089 1.8088 -1.8089 1.8088 0.8099 1.8088 1.8089 z" fill="#fff" transform="matrix(.76797,0,0,.76797,49.80512,251.0439)"/>
<path d="m 203.191 1103.01 c 0 0.9989 -0.8098 1.8088 -1.8088 1.8088 s -1.8088 -0.8099 -1.8088 -1.8088 0.8098 -1.8089 1.8088 -1.8089 1.8088 0.8099 1.8088 1.8089 z" fill="#fff" transform="matrix(.51198,0,0,.51198,111.57476,536.53452)"/>
<path d="m 203.191 1103.01 c 0 0.9989 -0.8098 1.8088 -1.8088 1.8088 s -1.8088 -0.8099 -1.8088 -1.8088 0.8098 -1.8089 1.8088 -1.8089 1.8088 0.8099 1.8088 1.8089 z" fill="#fff" transform="matrix(.51198,0,0,.51198,96.61327,540.7186)"/>
<path d="m 210.682 1096.87 c 1.4154 3.5918 -3.1698 6.276 -3.0505 1.8849 -2.1518 1.9757 -0.6856 4.5072 0.256 6.5216 0.7138 1.5274 0.6607 2.8803 -0.5415 3.3954 -0.858 0.3676 -1.8123 -0.6203 -2.1202 -1.6337 -0.137 -0.4509 -0.0914 -1.1184 0.0496 -2.0335 -1.1281 2.2902 -2.8883 2.4564 -2.0585 -1.6866 -3.7702 4.2904 -1.4737 13.306 5.1585 13.4173 7.0437 0.1181 8.9914 -9.0389 6.0266 -13.2685 -0.314 4.3937 -3.772 2.6776 -2.3561 -3.1248 0.3476 -1.4245 -0.6442 -3.0617 -1.364 -3.4721 z" fill="#fff"/>
<path d="m 199.792 1113.5 c -2.6836 0.7292 -4.4171 1.8093 -4.4171 3.0074 0 2.1948 5.6999 3.9785 12.7188 3.9785 s 12.7188 -1.7837 12.7188 -3.9785 c 0 -1.1938 -1.7187 -2.2783 -4.3858 -3.0074 0.922 0.4751 1.4724 1.03 1.4724 1.629 0 1.7192 -4.4043 3.1327 -9.8053 3.1327 s -9.774 -1.4136 -9.774 -3.1327 c 0 -0.6022 0.541 -1.1523 1.4724 -1.629 z" fill="#fff"/>
<path d="m 203.191 1103.01 c 0 0.9989 -0.8098 1.8088 -1.8088 1.8088 s -1.8088 -0.8099 -1.8088 -1.8088 0.8098 -1.8089 1.8088 -1.8089 1.8088 0.8099 1.8088 1.8089 z" fill="#fff" transform="matrix(.51198,0,0,.51198,104.07886,531.49148)"/>
<path d="m 204.864 1111.6 c 1.945 4.2173 6.4794 0.077 6.7433 -3.6956 0.8161 2.6986 0.5814 6.8004 -1.1048 9.2959 h -4.1908 c -1.0965 -1.4477 -1.8561 -3.7336 -1.4477 -5.6003 z" fill-rule="evenodd"/>
<path d="m 203.191 1103.01 c 0 0.9989 -0.8098 1.8088 -1.8088 1.8088 s -1.8088 -0.8099 -1.8088 -1.8088 0.8098 -1.8089 1.8088 -1.8089 1.8088 0.8099 1.8088 1.8089 z" fill="#fff" transform="matrix(.51198,0,0,.51198,94.18873,535.06134)"/>
<path d="m 203.191 1103.01 c 0 0.9989 -0.8098 1.8088 -1.8088 1.8088 s -1.8088 -0.8099 -1.8088 -1.8088 0.8098 -1.8089 1.8088 -1.8089 1.8088 0.8099 1.8088 1.8089 z" fill="#fff" transform="matrix(.76516,0,0,.76516,46.06737,258.04901)"/>
<path d="m 203.191 1103.01 c 0 0.9989 -0.8098 1.8088 -1.8088 1.8088 s -1.8088 -0.8099 -1.8088 -1.8088 0.8098 -1.8089 1.8088 -1.8089 1.8088 0.8099 1.8088 1.8089 z" fill="#fff" transform="matrix(.55666,0,0,.55666,84.39301,482.91493)"/>
<path d="m 203.191 1103.01 c 0 0.9989 -0.8098 1.8088 -1.8088 1.8088 s -1.8088 -0.8099 -1.8088 -1.8088 0.8098 -1.8089 1.8088 -1.8089 1.8088 0.8099 1.8088 1.8089 z" fill="#fff" transform="matrix(.55666,0,0,.55666,92.95971,491.21223)"/>
<path d="m 203.191 1103.01 c 0 0.9989 -0.8098 1.8088 -1.8088 1.8088 s -1.8088 -0.8099 -1.8088 -1.8088 0.8098 -1.8089 1.8088 -1.8089 1.8088 0.8099 1.8088 1.8089 z" fill="#fff" transform="matrix(.61729,0,0,.61729,76.54677,419.37021)"/>
</g>
</svg>
