<svg viewBox="0 0 512 512" xmlns="http://www.w3.org/2000/svg">

<g transform="matrix(18.68858,0,0,18.68858,4525.84296,-1586.73402)">
<path d="m-217.7619,93.9385c-.644,1.3659-1.5572,2.2003-3.2284,3.0772-.423-2.9589-1.6804-8.1402-5.1182-9.1906 1.3036,2.232 1.1761,5.3213-.2141,7.4345-1.4888-3.789-7.1882-7.4514-12.9692-7.7825 3.6954,2.1831 6.542,5.1735 6.6851,8.2043-2.6664.0355-3.8796-.7706-5.456-2.7286 .9484,4.98 2.9632,7.6971 5.3886,8.3771-1.1775,1.4431-3.2586,1.6289-5.2236,1.3553 1.9208,1.8152 5.0906,3.7946 7.9787,4.535-.9123.8208-2.0731,1.3123-3.6387,1.5606 14.4108,6.1154 20.6831.5492 15.7957-14.8423z" fill="#fff" fill-rule="evenodd"/>
<path d="m545.0893,103.255c0,2.5642-2.0787,4.6429-4.6429,4.6429s-4.6429-2.0787-4.6429-4.6429 2.0787-4.6429 4.6429-4.6429 4.6429,2.0787 4.6429,4.6429z" stroke="#fff" stroke-width=".867" transform="matrix(.88615,-.73834,.73834,.88615,-777.92581,412.53302)"/>
</g>
</svg>
