<svg viewBox="0 0 512 512" xmlns="http://www.w3.org/2000/svg">

<g transform="matrix(18.68858,0,0,18.68858,713.20967,-4115.05837)">
<path d="m -32.3851 241.351 c 17.5469 13.2058 25.4813 -0.9774 18.2404 -11.9315 -1.1975 -1.8116 -3.9557 -3.6102 -6.7806 -3.3962 6.7591 4.4455 -2.5429 6.22 -4.3035 -0.3509 -1.1107 -4.1453 -7.6826 0.9514 -10.2043 -4.1624 -3.5586 5.6217 2.6564 6.516 6.2586 6.9869 4.5164 0.5904 1.997 8.8924 -3.8432 4.5157 0.0024 3.1059 3.124 4.4174 5.0859 5.0626 2.1874 0.7187 -0.1997 4.2365 -4.4532 3.2757 z" fill="#fff" fill-rule="evenodd"/>
<path d="m 130.726 41.5309 c 0 2.5994 -2.1073 4.7067 -4.7067 4.7067 s -4.7067 -2.1073 -4.7067 -4.7067 2.1073 -4.7067 4.7067 -4.7067 4.7067 2.1073 4.7067 4.7067 z" transform="matrix(1.30886,0,0,1.30886,-183.82493,185.00272)"/>
<path d="m -22.7667 244.183 1.4142 -2.8284 3.6681 1.9445 5.2591 -2.9168" fill="none" stroke="#fff"/>
<path d="m -20.2919 242.416 3.2145 -6.5298" fill="none" stroke="#fff"/>
<path d="m -18.5574 238.69 -5.6366 -4.0068" fill="none" stroke="#fff"/>
<path d="m -18.4805 232.908 3.172 5.9818 -0.9526 3.617" fill="none" stroke="#fff"/>
<path d="m -26.5679 241.866 5.524 -4.9564" fill="none" stroke="#fff"/>
</g>
</svg>
