<svg xmlns="http://www.w3.org/2000/svg" viewBox="0 0 512 512">
<g transform="matrix(15 0 0 15 16 -10969.433)">
<use width="744.094" height="1052.362" transform="translate(36 728.36215)"/>
<g fill="#fff">
<path d="m 16 732.362 c -9 0 -16 4 -16 8 0 2 1 3 2 4 -1 1 -2 3.6278 -2 5 v 11 c 0 2 2 4 4 4 h 24 c 2 0 4 -1 4 -4 v -12 c 0 -1.2638 -1 -3 -2 -4 1 -1 2 -2 2 -4 0 -4 -7 -8 -16 -8 z m 0 4 c 7 0 12 1 12 4 0 1 -1 3 -2 4 1 1 2 4 2 5 v 11 h -24 v -11 c 0 -1 1 -4 2 -5 -1 -1 -2 -3 -2 -4 0 -3 5 -4 12 -4 z"/>
<path d="m 533.486 510.858 h 1 a 1 1 0 0 1 1 1 v 12 a 1 1 0 0 1 -1 1 h -1 a 1 1 0 0 1 -1 -1 v -12 a 1 1 0 0 1 1 -1" transform="rotate(45)"/>
<path d="m 539.986 507.858 h 1 a 1 1 0 0 1 1 1 v 18 a 1 1 0 0 1 -1 1 h -1 a 1 1 0 0 1 -1 -1 v -18 a 1 1 0 0 1 1 -1" transform="rotate(45)"/>
<path d="m 546.486 510.858 h 1 a 1 1 0 0 1 1 1 v 12 a 1 1 0 0 1 -1 1 h -1 a 1 1 0 0 1 -1 -1 v -12 a 1 1 0 0 1 1 -1" transform="rotate(45)"/>
</g>
</g>
</svg>
