<svg viewBox="0 0 512 512" xmlns="http://www.w3.org/2000/svg">

<g transform="matrix(18.68858,0,0,18.68858,-2101.07379,-11022.36515)">
<path d="m125.0049,590.747c-3.2426,6.2696 8.0561,2.136 7.2728,12.3939 1.5931-1.2884 2.2557-3.5993.9736-6.605 6.0815,3.2743 7.1873,17.3441-4.9071,19.5463-11.9703,2.1796-16.8517-13.6571-9.4943-19.6377-1.1436,4.7582 1.7052,4.8992 3.46,3.9542 3.4641-1.8657-6.6241-7.0655 2.695-9.6517z" fill="#fff" fill-rule="evenodd"/>
<path d="m132.5625,610.7372c0,3.3828-2.7423,6.125-6.125,6.125s-6.125-2.7422-6.125-6.125 2.7422-6.125 6.125-6.125 6.125,2.7423 6.125,6.125z" fill="#fff" stroke="#000" stroke-width=".8711" transform="matrix(1.14796,0,0,1.14796,-18.55134,-91.42667)"/>
<path d="m132.5625,610.7372c0,3.3828-2.7423,6.125-6.125,6.125s-6.125-2.7422-6.125-6.125 2.7422-6.125 6.125-6.125 6.125,2.7423 6.125,6.125z" fill="#fff" stroke="#000" stroke-width="1.5077" transform="matrix(.66327,0,0,.66327,42.73214,205.50014)"/>
<path d="m132.5625,610.7372c0,3.3828-2.7423,6.125-6.125,6.125s-6.125-2.7422-6.125-6.125 2.7422-6.125 6.125-6.125 6.125,2.7423 6.125,6.125z" transform="matrix(-.41837,0,0,.41837,179.49109,355.06843)"/>
<path d="m127.1908,609.183c0,.7566-.6134,1.37-1.37,1.37s-1.37-.6134-1.37-1.37 .6134-1.37 1.37-1.37 1.37.6134 1.37,1.37z" fill="#fff" transform="matrix(-1,0,0,1,251.52591,-.04419)"/>
</g>
</svg>
