<svg viewBox="0 0 512 512" xmlns="http://www.w3.org/2000/svg">

<g transform="matrix(18.68858,0,0,18.68858,-4644.05555,-958.69089)">
<path d="m251.2533,56.3752c.6009,4.0054 5.6427,6.0542 4.7961,1.6395 3.2611,6.767 9.9179,2.6879 3.4774-2.6095l-.0465-.079c32.5747,10.0253 5.5241,38.624-7.5282,10.696 1.9292,3.6788 6.2654,5.4116 6.0926,2.6131-.3062-4.9606-10.2517-5.0049-6.7913-12.26z" fill="#fff"/>
<path d="m254.2491,52.2613c2.1793,3.1148-3.4092,1.3867-4.7107.1322 .0567,2.1448 5.3535,5.3312 7.8868,3.8592 1.5549-.9035-1.5984-3.7273-3.1761-3.9914z" fill="#fff" fill-rule="evenodd"/>
<path d="m272.5649,65.433c-1.2864-1.8082-3.4784-2.809-5.8637-2.809-3.9142,0-7.0938,3.1795-7.0938,7.0938 0,3.4448 2.4681,6.3116 5.7263,6.9513-.8115-.514-1.383-1.5699-1.4529-3.4472 3.3183,6.0863 7.2885-1.1077 1.0541-4.9856 4.8276-.2369 6.0899,4.0108 4.7007,5.8402 4.5955-2.9781-2.0024-5.9769-.8547-9.1165 .3714,1.9394 6.1199,4.5189 3.784.4729z"/>
<path d="m262.7006,61.2342c.5868,3.7551 4.6255,2.1949 5.4585,6.5495-2.1405-1.6331-8.3359.7365-5.4585-6.5495z" fill="#fff" fill-rule="evenodd"/>
<path d="m262.6513,71.1495c2.1836,1.1813-.42-2.944-1.8129-3.3045 2.2936-.2357 5.9294,2.9574 4.8902,4.4372-.7739,1.102-2.895-.3515-3.0774-1.1327z" fill="#fff" fill-rule="evenodd"/>
</g>
</svg>
