<svg viewBox="0 0 512 512" xmlns="http://www.w3.org/2000/svg">

<g transform="matrix(18.68858,0,0,18.68858,-10446.44023,-44231.51749)">
<path d="m 576.048 2393.13 c 3.92 -3.5053 4.9901 -8.2964 2.8377 -12.6954 -2.1496 -4.3929 -1.1055 -9.2006 2.8377 -12.6952 h -18.3322 c 3.9432 3.4946 4.9873 8.3023 2.8377 12.6952 -2.1524 4.399 -1.0822 9.1901 2.8377 12.6954 z" fill="#fff"/>
<path d="m 575.565 2392.21 c 4.3804 -3.4244 6.1257 -8.1051 4.6268 -12.4027 -1.497 -4.2916 0.2249 -8.9884 4.6267 -12.4024" fill="none" stroke="#fff"/>
<path d="m 569.452 2392.21 c -4.3804 -3.4244 -6.1257 -8.1051 -4.6268 -12.4027 1.497 -4.2916 -0.2249 -8.9884 -4.6267 -12.4024" fill="none" stroke="#fff"/>
<path d="m 580.338 2367.49 c -2.9261 2.5967 -3.8751 5.0601 -3.3818 8.3653 -1.1921 -3.2821 -1.0303 -5.7156 1.3505 -8.3653"/>
<path d="m 564.833 2367.49 c 2.9261 2.5967 3.8751 5.0601 3.3818 8.3653 1.1921 -3.2821 1.0303 -5.7156 -1.3505 -8.3653"/>
<g transform="translate(66.0896,36.5184)">
<path d="m 505.385 2356.09 h 3.7812 l 0.5625 -8.1236 h 2.2188 c 3e-05 -3.7651 -0.252 -8.9026 -3.4375 -9.5014 0.5877 -0.7081 0.9688 -1.856 0.9688 -2.9688 0 -2.0092 -0.9673 -3.6875 -2.9978 -3.6875 s -2.9978 1.6783 -2.9978 3.6875 c 0 1.1128 0.381 2.2607 0.9688 2.9688 -3.1856 0.5988 -3.4375 5.7363 -3.4375 9.5014 h 2.2188 l 0.5625 8.1236 h 3.7812" stroke="#fff"/>
<path d="m 509.717 2349.57 -0.0676 -5.8732" fill="none" stroke="#fff"/>
<path d="m 506.437 2356.27 v -8.1575" fill="none" stroke="#fff"/>
<path d="m 503.266 2349.57 0.1621 -5.8732" fill="none" stroke="#fff"/>
</g>
<path d="m 575.638 2393.13 c 4.7655 -3.5138 7.243 -7.8462 7.6013 -12.3188 0.5945 4.4413 -0.8085 8.7333 -4.8525 12.3188" fill="#fff"/>
<path d="m 569.423 2393.13 c -4.7655 -3.5138 -7.243 -7.8462 -7.6013 -12.3188 -0.5945 4.4413 0.8085 8.7333 4.8525 12.3188" fill="#fff"/>
<path d="m 573.335 2392.09 c 3.5217 -2.5967 5.3526 -5.7983 5.6173 -9.1035 0.4394 3.2821 -0.5974 6.4538 -3.5859 9.1035"/>
<path d="m 571.866 2392.09 c -3.5217 -2.5967 -5.3526 -5.7983 -5.6173 -9.1035 -0.4394 3.2821 0.5974 6.4538 3.5859 9.1035"/>
<path d="m 580.652 2381.79 c -0.8108 -4.6517 1.2238 -9.2566 5.3179 -11.7716" fill="none" stroke="#fff"/>
<path d="m 564.364 2381.79 c 0.7813 -4.4828 -1.0797 -8.9221 -4.88 -11.4894" fill="none" stroke="#fff"/>
<path d="m 559.536 -2393.7 h 26.4314 v 26.4314 h -26.4314 z" fill="none" stroke="#000" transform="scale(1,-1)"/>
</g>
</svg>
