<svg xmlns="http://www.w3.org/2000/svg" viewBox="0 0 512 512">
<g transform="matrix(15 0 0 15 16 -10969.433)">
<use width="744.094" height="1052.362" transform="translate(36 728.36215)"/>
<g fill="#fff">
<path d="m16,732.3622c-9,0-16,4-16,8 0,2 1,3 2,4-1,1-2,3.6278-2,5v11c0,2 2,4 4,4h24c2,0 4-1 4-4v-12c0-1.2638-1-3-2-4 1-1 2-2 2-4 0-4-7-8-16-8zm0,4c7,0 12,1 12,4 0,1-1,3-2,4 1,1 2,4 2,5v11h-24v-11c0-1 1-4 2-5-1-1-2-3-2-4 0-3 5-4 12-4z"/>
<path d="m533.486,510.858h1a1,1 0 0,1 1,1v12a1,1 0 0,1 -1,1h-1a1,1 0 0,1 -1-1v-12a1,1 0 0,1 1-1" transform="rotate(45)"/>
<path d="m539.986,507.858h1a1,1 0 0,1 1,1v18a1,1 0 0,1 -1,1h-1a1,1 0 0,1 -1-1v-18a1,1 0 0,1 1-1" transform="rotate(45)"/>
<path d="m546.486,510.858h1a1,1 0 0,1 1,1v12a1,1 0 0,1 -1,1h-1a1,1 0 0,1 -1-1v-12a1,1 0 0,1 1-1" transform="rotate(45)"/>
</g>
</g>
</svg>
