<svg viewBox="0 0 512 512" xmlns="http://www.w3.org/2000/svg">

<g transform="matrix(-18.68858,0,0,18.68858,10271.34723,-36766.50864)">
<path d="m529.9618,1968.4768c-.5642,3.3849 1.7898,2.1324 2.1704,3.5568 .2777,1.0393-.5919,2.3918-1.6657.8671 1.479,3.9971-2.7514,4.8572-3.4806,1.2133-.8294,2.2427-.4172,4.9571 1.5128,6.364 1.4228,1.0372.5136,2.5646-1.8124.1392 1.5407,3.9807 6.5244,5.4514 9.7308,5.3796 2.188-.049 5.6354-.91 7.503-2.6402-3.4-3.2959 3.7006-3.2678.9947-8.3199-1.1028,3.7404-5.5032,2.9736-3.2416-.3387 1.0338-1.5141 1.3561-2.9337.4852-4.4007-.7858,3.5079-2.8042.4522-3.784-2.1092-.0293,3.2015-1.9532,6.9247-3.4826,4.9534-1.6705-2.1531 1.686-3.5566-1.5065-4.8274 .4556,2.1952-2.719,2.2184-3.4234.1627z" fill="#fff"/>
<path d="m531.4823,1980.8188 2.7132,1.1384 .4558-4.4676 1.5752,3.4394 2.9315-2.4367-.5343,2.7464 3.017-1.5385c-2.0227,3.239-7.6133,10.2045 4.1066,14.5176h-17.1155c9.2108-3.0724 5.0501-9.5605 2.8505-13.3987z" fill="#fff" stroke="#000"/>
<path d="m527.346,1968.4207c-.5282,3.1529-5.5636,2.9796-1.8139,7.6544-.1636-4.2604 3.5741-4.0719 1.8139-7.6544z" fill="#fff"/>
<path d="m546.3695,1979.3628c.5971-3.2287-.2261-6.3461-2.2242-8.9072 4.588,1.5221 5.3304,4.3289 2.2242,8.9072z" fill="#fff"/>
</g>
</svg>
