<svg viewBox="0 0 512 512" xmlns="http://www.w3.org/2000/svg">

<g transform="matrix(18.68858,0,0,18.68858,-3632.61185,-20445.23175)">
<path d="m203.1907,1103.0092c0,.9989-.8098,1.8088-1.8088,1.8088s-1.8088-.8099-1.8088-1.8088 .8098-1.8089 1.8088-1.8089 1.8088.8099 1.8088,1.8089z" fill="#fff" transform="matrix(.76797,0,0,.76797,49.80512,251.0439)"/>
<path d="m203.1907,1103.0092c0,.9989-.8098,1.8088-1.8088,1.8088s-1.8088-.8099-1.8088-1.8088 .8098-1.8089 1.8088-1.8089 1.8088.8099 1.8088,1.8089z" fill="#fff" transform="matrix(.51198,0,0,.51198,111.57476,536.53452)"/>
<path d="m203.1907,1103.0092c0,.9989-.8098,1.8088-1.8088,1.8088s-1.8088-.8099-1.8088-1.8088 .8098-1.8089 1.8088-1.8089 1.8088.8099 1.8088,1.8089z" fill="#fff" transform="matrix(.51198,0,0,.51198,96.61327,540.7186)"/>
<path d="m210.6819,1096.8701c1.4154,3.5918-3.1698,6.276-3.0505,1.8849-2.1518,1.9757-.6856,4.5072.256,6.5216 .7138,1.5274.6607,2.8803-.5415,3.3954-.858.3676-1.8123-.6203-2.1202-1.6337-.137-.4509-.0914-1.1184.0496-2.0335-1.1281,2.2902-2.8883,2.4564-2.0585-1.6866-3.7702,4.2904-1.4737,13.306 5.1585,13.4173 7.0437.1181 8.9914-9.0389 6.0266-13.2685-.314,4.3937-3.772,2.6776-2.3561-3.1248 .3476-1.4245-.6442-3.0617-1.364-3.4721z" fill="#fff"/>
<path d="m199.7918,1113.4997c-2.6836.7292-4.4171,1.8093-4.4171,3.0074 0,2.1948 5.6999,3.9785 12.7188,3.9785s12.7188-1.7837 12.7188-3.9785c0-1.1938-1.7187-2.2783-4.3858-3.0074 .922.4751 1.4724,1.03 1.4724,1.629 0,1.7192-4.4043,3.1327-9.8053,3.1327s-9.774-1.4136-9.774-3.1327c0-.6022.541-1.1523 1.4724-1.629z" fill="#fff"/>
<path d="m203.1907,1103.0092c0,.9989-.8098,1.8088-1.8088,1.8088s-1.8088-.8099-1.8088-1.8088 .8098-1.8089 1.8088-1.8089 1.8088.8099 1.8088,1.8089z" fill="#fff" transform="matrix(.51198,0,0,.51198,104.07886,531.49148)"/>
<path d="m204.8645,1111.6046c1.945,4.2173 6.4794.077 6.7433-3.6956 .8161,2.6986.5814,6.8004-1.1048,9.2959h-4.1908c-1.0965-1.4477-1.8561-3.7336-1.4477-5.6003z" fill-rule="evenodd"/>
<path d="m203.1907,1103.0092c0,.9989-.8098,1.8088-1.8088,1.8088s-1.8088-.8099-1.8088-1.8088 .8098-1.8089 1.8088-1.8089 1.8088.8099 1.8088,1.8089z" fill="#fff" transform="matrix(.51198,0,0,.51198,94.18873,535.06134)"/>
<path d="m203.1907,1103.0092c0,.9989-.8098,1.8088-1.8088,1.8088s-1.8088-.8099-1.8088-1.8088 .8098-1.8089 1.8088-1.8089 1.8088.8099 1.8088,1.8089z" fill="#fff" transform="matrix(.76516,0,0,.76516,46.06737,258.04901)"/>
<path d="m203.1907,1103.0092c0,.9989-.8098,1.8088-1.8088,1.8088s-1.8088-.8099-1.8088-1.8088 .8098-1.8089 1.8088-1.8089 1.8088.8099 1.8088,1.8089z" fill="#fff" transform="matrix(.55666,0,0,.55666,84.39301,482.91493)"/>
<path d="m203.1907,1103.0092c0,.9989-.8098,1.8088-1.8088,1.8088s-1.8088-.8099-1.8088-1.8088 .8098-1.8089 1.8088-1.8089 1.8088.8099 1.8088,1.8089z" fill="#fff" transform="matrix(.55666,0,0,.55666,92.95971,491.21223)"/>
<path d="m203.1907,1103.0092c0,.9989-.8098,1.8088-1.8088,1.8088s-1.8088-.8099-1.8088-1.8088 .8098-1.8089 1.8088-1.8089 1.8088.8099 1.8088,1.8089z" fill="#fff" transform="matrix(.61729,0,0,.61729,76.54677,419.37021)"/>
</g>
</svg>
