<svg viewBox="0 0 512 512" xmlns="http://www.w3.org/2000/svg">

<g transform="matrix(18.68858,0,0,18.68858,-10446.44023,-44231.51749)">
<path d="m576.0476,2393.1311c3.92-3.5053 4.9901-8.2964 2.8377-12.6954-2.1496-4.3929-1.1055-9.2006 2.8377-12.6952h-18.3322c3.9432,3.4946 4.9873,8.3023 2.8377,12.6952-2.1524,4.399-1.0822,9.1901 2.8377,12.6954z" fill="#fff"/>
<path d="m575.5649,2392.2116c4.3804-3.4244 6.1257-8.1051 4.6268-12.4027-1.497-4.2916.2249-8.9884 4.6267-12.4024" fill="none" stroke="#fff"/>
<path d="m569.452,2392.2116c-4.3804-3.4244-6.1257-8.1051-4.6268-12.4027 1.497-4.2916-.2249-8.9884-4.6267-12.4024" fill="none" stroke="#fff"/>
<path d="m580.3376,2367.49c-2.9261,2.5967-3.8751,5.0601-3.3818,8.3653-1.1921-3.2821-1.0303-5.7156 1.3505-8.3653"/>
<path d="m564.8329,2367.49c2.9261,2.5967 3.8751,5.0601 3.3818,8.3653 1.1921-3.2821 1.0303-5.7156-1.3505-8.3653"/>
<g transform="translate(66.0896,36.5184)">
<path d="m505.3849,2356.0873h3.7812l.5625-8.1236h2.2188c3e-05-3.7651-.252-8.9026-3.4375-9.5014 .5877-.7081.9688-1.856.9688-2.9688 0-2.0092-.9673-3.6875-2.9978-3.6875s-2.9978,1.6783-2.9978,3.6875c0,1.1128.381,2.2607.9688,2.9688-3.1856.5988-3.4375,5.7363-3.4375,9.5014h2.2188l.5625,8.1236h3.7812" stroke="#fff"/>
<path d="m509.7169,2349.5701-.0676-5.8732" fill="none" stroke="#fff"/>
<path d="m506.4365,2356.2687v-8.1575" fill="none" stroke="#fff"/>
<path d="m503.2658,2349.5701 .1621-5.8732" fill="none" stroke="#fff"/>
</g>
<path d="m575.6376,2393.1269c4.7655-3.5138 7.243-7.8462 7.6013-12.3188 .5945,4.4413-.8085,8.7333-4.8525,12.3188" fill="#fff"/>
<path d="m569.4228,2393.1269c-4.7655-3.5138-7.243-7.8462-7.6013-12.3188-.5945,4.4413.8085,8.7333 4.8525,12.3188" fill="#fff"/>
<path d="m573.3345,2392.0935c3.5217-2.5967 5.3526-5.7983 5.6173-9.1035 .4394,3.2821-.5974,6.4538-3.5859,9.1035"/>
<path d="m571.8663,2392.0935c-3.5217-2.5967-5.3526-5.7983-5.6173-9.1035-.4394,3.2821.5974,6.4538 3.5859,9.1035"/>
<path d="m580.6516,2381.7892c-.8108-4.6517 1.2238-9.2566 5.3179-11.7716" fill="none" stroke="#fff"/>
<path d="m564.3636,2381.7892c.7813-4.4828-1.0797-8.9221-4.88-11.4894" fill="none" stroke="#fff"/>
<path d="m559.5358-2393.7024h26.4314v26.4314h-26.4314z" fill="none" stroke="#000" transform="scale(1,-1)"/>
</g>
</svg>
