<svg viewBox="0 0 512 512" xmlns="http://www.w3.org/2000/svg">

<g transform="matrix(18.68858,0,0,18.68858,-5679.79755,-38100.82953)">
<path d="m 324.94 2055.18 c 0 4.0184 -3.2575 7.2759 -7.2759 7.2759 s -7.2759 -3.2575 -7.2759 -7.2759 3.2575 -7.2759 7.2759 -7.2759 7.2759 3.2575 7.2759 7.2759 z" fill="#fff" stroke="#000" stroke-width=".9183" transform="matrix(1.08901,0,0,1.08901,-28.27381,-180.44591)"/>
<path d="m 309.93 2056.01 c 0.8722 -3.1355 -0.3457 -7.0212 -3.2862 -8.7813 -2.8879 -1.7285 -2.5079 -4.4545 -1.0717 -5.4459 1.4528 -1.0028 3.9801 -0.2432 4.1963 2.9139 0.3196 4.6656 3.3274 9.2124 7.9193 9.5355 4.4622 0.3139 7.0865 -2.3163 7.1112 -5.3334 0.0221 -2.6897 2.6494 -4.1319 4.4184 -3.3146 2.0982 0.9695 3.0545 4.6137 -2.048 6.0082 -1.8625 0.509 -2.039 2.3476 -1.5623 5.7645 0.413 2.9602 -2.4821 8.308 -8.1308 8.308 -4.7391 0 -9.041 -4.2815 -7.5462 -9.6549 z" fill="#fff" stroke="#000"/>
<path d="m 313.525 2051.51 c 1.2181 -0.7992 0.5131 -4.2081 -1.2261 -5.3943 -0.8748 -0.5967 -1.0018 -2.4595 0.6247 -2.9518 1.3994 -0.4236 2.6668 1.038 1.9594 2.4161 -0.9857 1.9202 0.4116 4.8941 1.9012 4.7175" fill="#fff"/>
<path d="m 322.375 2051.91 c -1.8704 -1.1315 -1.2323 -5.9033 1.574 -7.5827 1.2864 -0.7698 1.5799 -3.5358 -0.7226 -4.2326 -1.9811 -0.5997 -3.7495 1.4563 -2.7739 3.4203 1.472 2.9633 -0.477 6.8693 -2.9081 6.7148" fill="#fff"/>
</g>
</svg>
