<svg viewBox="0 0 512 512" xmlns="http://www.w3.org/2000/svg">

<g transform="matrix(18.68858,0,0,18.68858,-234.58559,-45607.34258)">
<path d="m 38.9689 2452.7 c -4.876 -2.7303 -10.2564 -1.7487 -14.3526 2.5449 4.8573 2.6673 10.2822 1.7342 14.3526 -2.5449 z" fill="#fff"/>
<path d="m 15.4319 2443.13 c 5.3398 1.5075 8.4284 5.9754 8.2907 11.8667 -5.2824 -1.5386 -8.4364 -6.0037 -8.2907 -11.8667 z" fill="#fff"/>
<path d="m 24.2656 2456.25 c 4.5663 1.8074 6.0528 5.492 4.0309 9.7973 -4.502 -1.8227 -6.0513 -5.5136 -4.0309 -9.7973 z" fill="#fff"/>
<path d="m 23.4137 2455.95 c -4.439 -1.8216 -8.0959 -0.2449 -9.7775 4.1393 4.4057 1.7674 8.1103 0.2288 9.7775 -4.1393 z" fill="#fff"/>
<path d="m 24.0095 2442.85 c 0.9949 2.9642 1.4765 6.1221 1.3311 9.5164 2.4556 -1.9554 4.2457 -4.4688 5.3114 -7.5885" fill="none" stroke="#fff"/>
</g>
</svg>
