<svg viewBox="0 0 512 512" xmlns="http://www.w3.org/2000/svg">

<g transform="matrix(-18.68858,0,0,18.68858,5515.4698,-46290.00407)">
<g transform="translate(218.6356,109.2964)">
<path d="m 66.5555 2372.29 c -2.1434 -4.1396 -5.5804 -4.1586 -7.6768 -0.042 l -7.0939 12.32 c -2.5089 3.9281 -0.8071 6.9179 3.8009 6.678 h 14.185 c 4.608 0.2399 6.3098 -2.7499 3.8009 -6.678 z" fill="#fff" stroke="#fff"/>
<path d="m 66.098 2373.5 c -2.2747 -4.3911 -4.5268 -4.4416 -6.771 -0.037 l -6.2568 10.861 c -2.542 3.978 -1.8712 6.2004 3.3524 5.9287 h 12.5112 c 4.8139 0.2504 6.0729 -1.6714 3.3524 -5.9287 z" fill="none" stroke="#000"/>
</g>
<path d="m 290.044 2491.72 c -2.8675 -1.6035 -6.0316 -1.0271 -8.4405 1.4946 2.8565 1.5666 6.0468 1.0186 8.4405 -1.4946 z"/>
<path d="m 275.769 2485.72 c 3.1402 0.8854 4.9566 3.5094 4.8756 6.9694 -3.1065 -0.9036 -4.9613 -3.526 -4.8756 -6.9694 z"/>
<path d="m 281.194 2493.94 c 2.6853 1.0615 3.5595 3.2255 2.3705 5.7541 -2.6476 -1.0705 -3.5586 -3.2382 -2.3705 -5.7541 z"/>
<path d="m 280.551 2493.59 c -2.6105 -1.0698 -4.7611 -0.1438 -5.75 2.4311 2.5909 1.038 4.7695 0.1343 5.75 -2.4311 z"/>
<path d="m 280.999 2485.81 c 0.5851 1.7409 0.8683 3.5956 0.7828 5.589 1.4441 -1.1483 2.4968 -2.6245 3.1235 -4.4568" fill="none" stroke="#000"/>
</g>
</svg>
