<svg viewBox="0 0 512 512" xmlns="http://www.w3.org/2000/svg">

<g transform="matrix(18.68858,0,0,18.68858,-3633.11253,-31999.96874)">
<path d="m195.9717,1727.1439v10.1388l23.5767-2.3966v-11.2098c-1.7401-4.4121-8.2267-6.7952-12.3717-7.0533z" fill="#fff" stroke="#fff"/>
<path d="m195.1413,1729.0264 23.378-3.2997-.0467,10.5953" fill="none" stroke="#000"/>
<path d="m195.1413,1727.1272 23.378-3.2996" fill="none" stroke="#000"/>
<path d="m206.287,1712.8212c-2.887.1266-4.3764,3.9669-1.1778,5.6531 1.468.7737 4.0633-.2188 4.596-.9349 .6659.7884 1.307,1.3147 2.1548,1.4321-.925,2.1172 1.2492,3.132 2.6236,2.1035-.5024,3.8566 3.5268,7.608 6.3915,2.8374 1.3792-2.2967-.9445-5.0626-3.1291-4.2938 .0567-2.3195-2.145-4.1957-4.5861-3.6593-.5035-1.6452-2.1445-2.3797-3.4878-1.2941-.8258-1.2382-2.1261-1.8992-3.3852-1.844z" fill="#fff" stroke="#000"/>
<path d="m195.1664,1733.0492 2.1978-1.2221c1.9156,1.0908 3.2288.5046 4.7767-1.0472 2.5948.7355 3.2815.7108 5.1415-.9744 1.8343,1.6635 1.2841-1.2028 4.27.4053 1.1453-1.0597 1.3021-1.0336 2.5856-.3413 1.5871-1.595 2.3192.6386 4.2115-.8425" fill="none" stroke="#000"/>
<path d="m218.6299,1731.4218c-.8983.8479-2.1162,1.0354-3.2182.1702-1.398,1.1387-3.0831,1.0131-4.4395.4783-2.0051,1.6498-3.6478-1.0501-4.6198,1.8257-2.9296-1.3341-4.3926-1.0199-5.5392.7791-2.0103-.5947-3.8321-.6205-5.7606.5017" fill="none" stroke="#000"/>
<path d="m204.9635,1722.2183c0,1.4987-1.215,2.7137-2.7137,2.7137s-2.7137-1.215-2.7137-2.7137 1.215-2.7137 2.7137-2.7137 2.7137,1.2149 2.7137,2.7137z" stroke="#fff" stroke-width=".9002" transform="matrix(1.11092,0,0,1.11092,-18.92145,-191.93456)"/>
<path d="m207.7647,1719.1881c0,.5195-.4211.9406-.9406.9406s-.9406-.4211-.9406-.9406 .4211-.9406.9406-.9406 .9406.4211.9406.9406z" fill="#fff" transform="matrix(1.36,0,0,1.36,-74.73294,-618.12626)"/>
<path d="m203.3199,1722.7732c1.6841.5692 3.3682.6203 5.0523-.7373l-1.1596,1.9194-2.3101.2227z" fill="#fff"/>
</g>
</svg>
