<svg viewBox="0 0 512 512" xmlns="http://www.w3.org/2000/svg">

<g transform="matrix(18.68858,0,0,18.68858,-3633.11253,-31999.96874)">
<path d="m 195.972 1727.14 v 10.1388 l 23.5767 -2.3966 v -11.2098 c -1.7401 -4.4121 -8.2267 -6.7952 -12.3717 -7.0533 z" fill="#fff" stroke="#fff"/>
<path d="m 195.141 1729.03 23.378 -3.2997 -0.0467 10.5953" fill="none" stroke="#000"/>
<path d="m 195.141 1727.13 23.378 -3.2996" fill="none" stroke="#000"/>
<path d="m 206.287 1712.82 c -2.887 0.1266 -4.3764 3.9669 -1.1778 5.6531 1.468 0.7737 4.0633 -0.2188 4.596 -0.9349 0.6659 0.7884 1.307 1.3147 2.1548 1.4321 -0.925 2.1172 1.2492 3.132 2.6236 2.1035 -0.5024 3.8566 3.5268 7.608 6.3915 2.8374 1.3792 -2.2967 -0.9445 -5.0626 -3.1291 -4.2938 0.0567 -2.3195 -2.145 -4.1957 -4.5861 -3.6593 -0.5035 -1.6452 -2.1445 -2.3797 -3.4878 -1.2941 -0.8258 -1.2382 -2.1261 -1.8992 -3.3852 -1.844 z" fill="#fff" stroke="#000"/>
<path d="m 195.166 1733.05 2.1978 -1.2221 c 1.9156 1.0908 3.2288 0.5046 4.7767 -1.0472 2.5948 0.7355 3.2815 0.7108 5.1415 -0.9744 1.8343 1.6635 1.2841 -1.2028 4.27 0.4053 1.1453 -1.0597 1.3021 -1.0336 2.5856 -0.3413 1.5871 -1.595 2.3192 0.6386 4.2115 -0.8425" fill="none" stroke="#000"/>
<path d="m 218.63 1731.42 c -0.8983 0.8479 -2.1162 1.0354 -3.2182 0.1702 -1.398 1.1387 -3.0831 1.0131 -4.4395 0.4783 -2.0051 1.6498 -3.6478 -1.0501 -4.6198 1.8257 -2.9296 -1.3341 -4.3926 -1.0199 -5.5392 0.7791 -2.0103 -0.5947 -3.8321 -0.6205 -5.7606 0.5017" fill="none" stroke="#000"/>
<path d="m 204.964 1722.22 c 0 1.4987 -1.215 2.7137 -2.7137 2.7137 s -2.7137 -1.215 -2.7137 -2.7137 1.215 -2.7137 2.7137 -2.7137 2.7137 1.2149 2.7137 2.7137 z" stroke="#fff" stroke-width=".9002" transform="matrix(1.11092,0,0,1.11092,-18.92145,-191.93456)"/>
<path d="m 207.765 1719.19 c 0 0.5195 -0.4211 0.9406 -0.9406 0.9406 s -0.9406 -0.4211 -0.9406 -0.9406 0.4211 -0.9406 0.9406 -0.9406 0.9406 0.4211 0.9406 0.9406 z" fill="#fff" transform="matrix(1.36,0,0,1.36,-74.73294,-618.12626)"/>
<path d="m 203.32 1722.77 c 1.6841 0.5692 3.3682 0.6203 5.0523 -0.7373 l -1.1596 1.9194 -2.3101 0.2227 z" fill="#fff"/>
</g>
</svg>
