<svg viewBox="0 0 512 512" xmlns="http://www.w3.org/2000/svg">

<g transform="matrix(18.68858,0,0,18.68858,-7725.03725,-42866.8344)">
<path d="m413.7963,2312.0513c3.0293-3.932 5.2071-9.1463 5.9311-11.6151l2.971-2.2147c1.4883,1.4769 3.2875,1.0758 4.2134,0l3.4031-.6482 .7562,1.9986c1.46.3054 3.3522,1.0116 4.8392,2.467 .403,4.6286 1.5389,7.7797 4.4627,10.5512" fill="none" stroke="#fff"/>
<path d="m434.3006,2304.4875c0,1.7304-3.4342,3.1331-7.6705,3.1331s-7.6705-1.4027-7.6705-3.1331 3.4342-3.133 7.6705-3.133 7.6705,1.4027 7.6705,3.133z" fill="#fff" stroke="#000" stroke-width="1.0105" transform="matrix(.99004,0,0,.98916,5.06606,23.85071)"/>
<path d="m420.3976,2303.0874c-.6838,2.0371-1.5959,4.0743-2.6355,6.1114 1.3003-1.2517 2.3769-2.6699 3.0366-4.1634l-2.33,10.122 5.0801-11.2678" fill="#fff"/>
<path d="m434.5048,2303.2099c.009,2.3433 1.0712,4.9085 2.0795,7.3102-1.7592-2.0252-2.9691-4.0486-3.2822-6.189" fill="#fff"/>
<path d="m427.2167,2305.7202 .5007,6.3743 1.5298,6.7413-.2758-7.0475 .7885-3.9524 1.4178,2.023-.0599-4.6297" fill="#fff"/>
<path d="m420.5802,2308.2687-2.4308,6.6442 1.5665,2.1607-1.6745,3.8352" fill="none" stroke="#fff"/>
<path d="m413.817-2320.7302h26.4314v26.4314h-26.4314z" fill="none" stroke="#000" transform="scale(1,-1)"/>
</g>
</svg>
