<svg viewBox="0 0 512 512" xmlns="http://www.w3.org/2000/svg">

<g transform="matrix(18.68858,0,0,18.68858,-6355.82961,-18612.59091)">
<path d="m355.1562,997.1875c2.5919,3.8261-.9872,7.7895-3.4062,3.1563 1.4605,7.7321-3.4901,8.9012-4,4-4.7526,4.2036-2.6584,9.7381.3438,13.25l11.8125.2812c4.3391-1.4956 7.7028-8.154 2.1562-10.7812 2.0911,3.2361-.7019,5.6216-3.25,2.2187-2.0626-3.8598 4.408-6.0679-3.6562-12.125z" fill="#fff"/>
<path d="m357.4009,1017.7572-6.4797-2.053c-1.7642-.6164-2.8761-2.8638-2.6303-5.0362 1.3746,2.1098 5.7173.5393 5.1966-3.2077 .5723,1.7162 2.0225,1.5491 3.5196-1.098-2.0364,5.4962 1.1683,9.0627 3.313,7.4174 .1889,1.5407-1.446,3.6153-2.9191,3.9775z" fill-rule="evenodd"/>
<path d="m363.9962,1017.4656-10.9625-2.9247c-1.443,1.4084-1.826,3.6263-1.4501,5.3882l10.9625,2.9246c1.2654-1.5874 1.7747-3.3766 1.4501-5.3881z" fill="#fff" stroke="#000"/>
<path d="m343.5602,1017.9772 9.8287-5.65c1.7599.9886 2.7065,3.0322 2.8013,4.8309l-9.8287,5.65c-1.6349-1.2072-2.592-2.8043-2.8013-4.8309z" fill="#fff" stroke="#000"/>
<path d="m363.3946,1021.408-3.7958-1.484 4.1405.4051" fill-rule="evenodd"/>
<path d="m357.7336,1017.1284c0,1.6092-1.3045,2.9137-2.9137,2.9137s-2.9137-1.3045-2.9137-2.9137 1.3045-2.9136 2.9137-2.9136 2.9137,1.3044 2.9137,2.9136z" fill="#fff" stroke="#000" stroke-width=".9334" transform="matrix(-1.07367,0,0,1.06899,734.99206,-67.51305)"/>
<path d="m349.3954,998.5095c-.9499,2.0781 1.611,2.8566-.75,4.9399-.0327-1.7033-2.6814-3.2098.75-4.9399z" fill="#fff" fill-rule="evenodd"/>
<path d="m344.9075,1020.9333 5.1259-2.455-4.3975,3.3452" fill-rule="evenodd"/>
<path d="m354.4283,1013.3655-4.6891,3.2117 5.3639-2.2677" fill-rule="evenodd"/>
<path d="m363.6374,1019.8702-5.3605-1.8887 5.5434.8637" fill-rule="evenodd"/>
<path d="m353.7678,1017.8028c2.3425,0 3.1268,3.8309 0,3.8309 1.4245-1.2368 1.5951-2.509 0-3.8309z" fill-rule="evenodd"/>
<path d="m353.7789,1018.3292c-1.6987,0-2.2675,2.7781 0,2.7781-1.033-.8969-1.1567-1.8195 0-2.7781z" fill-rule="evenodd"/>
</g>
</svg>
