<svg xmlns="http://www.w3.org/2000/svg" viewBox="0 0 512 512">
<g transform="matrix(15 0 0 15 -3764 -2204)">
<use width="744.094" height="1052.362" transform="translate(288 144)"/>
</g>
<g fill="#fff" transform="matrix(30 0 0 30 -14144 -21954.866)">
<use width="800" height="600" transform="translate(176 -715.63781)"/>
<path d="m477.2108,736.3717c-.6099,.1145-1.5089,1.1579-1.1126,1.554l2.4386,2.4378-2.4386,2.4377c-.4877,.4875 .9755,1.9502 1.4632,1.4626l2.4387-2.4377 2.4386,2.4377c.4877,.4876 1.9509-.9751 1.4632-1.4626l-2.4386-2.4377 2.4386-2.4378c.4877-.4875-.9755-1.9501-1.4632-1.4626l-2.4386,2.4377-2.4386-2.4377c-.0915-.091-.2098-.1178-.3506-.091z"/>
</g>
<g transform="matrix(15 0 0 15 -3764 -2204)">
<path fill="#fff" d="m268,148c-8.8366,0-16,7.1634-16,16 0,8.8366 7.1634,16 16,16 8.8366,0 16-7.1634 16-16 0-8.8366-7.1634-16-16-16zm0,4c6.6274,0 12,5.3726 12,12 0,6.6274-5.3726,12-12,12-6.6274,0-12-5.3726-12-12 0-6.6274 5.3726-12 12-12z"/>
</g>
</svg>
