<svg viewBox="0 0 512 512" xmlns="http://www.w3.org/2000/svg">

<g transform="matrix(5.0371044,0,0,5.0371044,-2411.678,-173.09084)">
<path d="m485.763,63.25c8.104-13.346 27.813-22.8 49.658-22.8 14.528,0 27.549,3.407 39.395,11.93l.092,19.216c-16.065-12.251-36.105-18.001-55.366-10.663 3.542,3.856 5.709,9.004 5.709,14.658 0,11.97-9.702,21.673-21.671,21.673s-21.671-9.703-21.671-21.673c-.001-4.582 1.423-8.839 3.854-12.341zm17.758,16.552c2.461,0 4.456-1.996 4.456-4.458s-1.995-4.458-4.456-4.458-4.458,1.996-4.458,4.458 1.998,4.458 4.458,4.458zm51.794,9.488c-2.462,0-4.457,1.996-4.457,4.458s1.995,4.457 4.457,4.457 4.457-1.995 4.457-4.457-1.996-4.458-4.457-4.458zm17.758,16.552c-8.104,13.346-27.813,22.8-49.657,22.8-14.529,0-27.549-3.407-39.395-11.93l-.092-19.215c16.064,12.25 36.105,18 55.365,10.664-3.543-3.857-5.709-9.005-5.709-14.659 0-11.969 9.702-21.671 21.671-21.671s21.672,9.702 21.672,21.671c.001,4.581-1.423,8.837-3.855,12.34z" fill="#fff"/>
</g>
</svg>
