<svg viewBox="0 0 512 512" xmlns="http://www.w3.org/2000/svg">

<g transform="matrix(15.81484,0,0,15.81484,-11488.43682,-22088.16693)">
<path d="m 744.224 1426.79 c -3.6337 4.0195 -10.152 1.1166 -10.4965 -6.5324 -0.2336 -5.1869 5.4643 -7.6707 10.3675 -7.11 9.4712 1.0833 9.3392 8.8546 8.7951 15.437 h -8.1987 l -1.2783 -4.7818" fill="#fff" stroke="#000" stroke-width="1.1817"/>
<path d="m 746.873 1428.32 -0.3689 -2.4732" fill="none" stroke="#000" stroke-width="1.1817"/>
<path d="m 750.905 1428.32 -0.0125 -2.4732" fill="none" stroke="#000" stroke-width="1.1817"/>
<path d="m 748.885 1428.32 -0.0644 -2.4732" fill="none" stroke="#000" stroke-width="1.1817"/>
<path d="m 747.591 1419.63 -4.0826 0.635 c -1.5164 -4.5625 3.7694 -3.1132 4.0826 -0.635 z"/>
<path d="m 748.727 1415.25 3.9663 2.1731 -1.6433 2.0702" fill="#fff"/>
<path d="m 752.823 1417.32 c -1.1664 0.1123 -2.5456 1.0808 -2.7012 2.3121 l 2.7012 0.4119 v -2.724 z"/>
<path d="m 741.893 1416.03 c -1.0147 1.1188 -1.8981 2.7951 -1.7019 4.7828 1.1071 0.057 2.0955 0.3347 2.7823 1.1722" fill="none" stroke="#000" stroke-width="1.1817"/>
<path d="m 744.008 1426.27 c 3.0008 -0.5293 6.0015 -0.6809 9.0023 0.036" fill="none" stroke="#000" stroke-width="1.1817"/>
<path d="m 749.76 1420.15 1.0103 3.6915 -1.4183 -1.2629 -0.4857 1.3406 c -0.5311 -1.3772 -0.9956 -2.7925 0.8937 -3.7692 z"/>
</g>
<g transform="matrix(20.79684,0,0,20.79684,-14656.62096,-28785.41805)">
<path d="m 712.785 1396.41 c -1.3224 0.9583 -0.1529 3.4164 2.2714 1.0288 0.5026 -0.495 3.4749 -0.867 4.4273 0.3035 1.7072 2.098 3.5913 -0.4854 1.7148 -1.3767 -1.62 -0.7695 -3.3463 -2.4445 -4.0387 -4.184 -1.0722 1.6454 -2.9187 3.1731 -4.3748 4.2284 z" fill="#fff" stroke="#000" stroke-width=".8986"/>
<path d="m 718.114 1386.79 c 0 0.9478 -0.5542 1.7161 -1.2378 1.7161 s -1.2378 -0.7683 -1.2378 -1.7161 0.5542 -1.716 1.2378 -1.716 1.2378 0.7683 1.2378 1.716 z" fill="#fff" transform="matrix(1.41428,0,0,1.55625,-296.94164,-770.31722)"/>
<path d="m 718.114 1386.79 c 0 0.9478 -0.5542 1.7161 -1.2378 1.7161 s -1.2378 -0.7683 -1.2378 -1.7161 0.5542 -1.716 1.2378 -1.716 1.2378 0.7683 1.2378 1.716 z" transform="matrix(1.08083,0,0,1.08083,-57.90112,-109.73394)"/>
<path d="m 715.154 1390.74 c 1.1828 0.4086 2.3656 0.4405 3.5484 0 -0.6394 1.5414 -0.7812 3.083 0 4.6247 h -3.5484 c 0.7474 -1.5713 0.5256 -3.1041 0 -4.6247 z" fill="#fff"/>
<path d="m 716.927 1391.38 c -0.3147 -0.7409 -0.1641 -1.4816 0.0173 -2.2224" fill="none" stroke="#fff" stroke-width=".8986"/>
</g>
</svg>
