<svg viewBox="0 0 512 512" xmlns="http://www.w3.org/2000/svg">

<g transform="matrix(18.68858,0,0,18.68858,-3633.33866,-35399.41397)">
<path d="m200.184,1911.2495v9.1167h16.1142v-3.4901c0-8.7145-13.3904-10.4961-16.1142-5.6266z" fill="#fff"/>
<path d="m218.7417,1917.45c0,.8819-.7149,1.5968-1.5969,1.5968s-1.5969-.7149-1.5969-1.5968 .7149-1.5969 1.5969-1.5969 1.5969.7149 1.5969,1.5969z" fill="#fff" transform="matrix(1,0,0,2.0307,-16.88874,-1980.0851)"/>
<path d="m211.1394,1903.5731c.4317,6.2275-7.0557,3.4535-6.6374-.6681 .4431-4.3655 3.6654-6.6781 7.8202-7.8144-1.2159,2.3399-1.3785,5.6579-1.1828,8.4825z" fill="#fff"/>
<path d="m216.1823,1917.1766c0-5.8524-2.6379-7.6653-8.898-8.5456-4.5314-.6373-8.2474,1.5078-7.9794,4.4883" fill="none" stroke="#fff"/>
<path d="m207.7766,1904.0454c.9642,2.2231 1.2059,4.7859.3056,8.0131" fill="none" stroke="#000"/>
<path d="m218.7417,1917.45c0,.8819-.7149,1.5968-1.5969,1.5968s-1.5969-.7149-1.5969-1.5968 .7149-1.5969 1.5969-1.5969 1.5969.7149 1.5969,1.5969z" fill="#fff" transform="translate(-.6496,.3434)"/>
<path d="m214.8253,1914.0781c-1.3872.8958-3.7667,1.4867-6.4694,1.4867-4.2807,0-7.7509-1.4824-7.7509-3.3109" fill="none" stroke="#000"/>
<path d="m205.4337,1905.3094c-.5542-3.381 2.9628-6.2797.7863-9.4737-.0616,2.7971-3.6281,6.6167-.7863,9.4737z" fill="#fff"/>
</g>
</svg>
