<svg viewBox="0 0 512 512" xmlns="http://www.w3.org/2000/svg">

<g transform="matrix(18.68858,0,0,18.68858,-4992.99413,-37446.666)">
<g transform="matrix(.50417,0,0,.50417,363.04767,1909.3583)">
<path d="m-164.1119,203.578c3.328,1.0395 6.8754,1.0906 10.3131,0v24.5082h-10.3131z" fill="#fff"/>
<path d="m-154.2928,197.2016c0-3.8182-3.5734-8.487-5.0229-8.487-1.4936,0-5.0229,4.6688-5.0229,8.487 0,3.1758 1.4856,5.1604 5.2023,4.9897 3.6138-.1661 4.8435-1.9983 4.8435-4.9897z" fill="#fff"/>
</g>
<path d="m272.7305,2024.4829c.6339,1.2889 1.6009,2.4282 2.842,3.3517h15.3006c1.246-.9271 2.2414-2.0566 2.8751-3.3517z" fill="#fff"/>
<path d="m273.3285,2025.0812c3.6786-.099 3.7434-4.3398.8046-5.4318-2.4207-.8993-4.6798,2.0021-3.0671,4.8454 1.0317,1.819-.7764,3.6668-2.3617,2.2056" fill="none" stroke="#fff"/>
<path d="m276.8742,2023.9762h16.1294" fill="none" stroke="#000"/>
<path d="m282.6401,2011.866c.3051-1.3618.3248-2.7237-.0757-4.0855" fill="none" stroke="#000"/>
<path d="m280.4317,2015.2027c0,.9662-1.0349.8433-1.0504-.2046-.0155-1.0418.9581-1.1653.9167-2.5772" fill="#fff"/>
<path d="m285.3193,2018.3864c0,1.1616 1.2441,1.0138 1.2628-.2459 .0186-1.2525-1.1518-1.4009-1.102-3.0983" fill="#fff"/>
</g>
</svg>
