<svg viewBox="0 0 512 512" xmlns="http://www.w3.org/2000/svg">

<g transform="matrix(18.68858,0,0,18.68858,-4992.99413,-37446.666)">
<g transform="matrix(.50417,0,0,.50417,363.04767,1909.3583)">
<path d="m -164.112 203.578 c 3.328 1.0395 6.8754 1.0906 10.3131 0 v 24.5082 h -10.3131 z" fill="#fff"/>
<path d="m -154.293 197.202 c 0 -3.8182 -3.5734 -8.487 -5.0229 -8.487 -1.4936 0 -5.0229 4.6688 -5.0229 8.487 0 3.1758 1.4856 5.1604 5.2023 4.9897 3.6138 -0.1661 4.8435 -1.9983 4.8435 -4.9897 z" fill="#fff"/>
</g>
<path d="m 272.731 2024.48 c 0.6339 1.2889 1.6009 2.4282 2.842 3.3517 h 15.3006 c 1.246 -0.9271 2.2414 -2.0566 2.8751 -3.3517 z" fill="#fff"/>
<path d="m 273.329 2025.08 c 3.6786 -0.099 3.7434 -4.3398 0.8046 -5.4318 -2.4207 -0.8993 -4.6798 2.0021 -3.0671 4.8454 1.0317 1.819 -0.7764 3.6668 -2.3617 2.2056" fill="none" stroke="#fff"/>
<path d="m 276.874 2023.98 h 16.1294" fill="none" stroke="#000"/>
<path d="m 282.64 2011.87 c 0.3051 -1.3618 0.3248 -2.7237 -0.0757 -4.0855" fill="none" stroke="#000"/>
<path d="m 280.432 2015.2 c 0 0.9662 -1.0349 0.8433 -1.0504 -0.2046 -0.0155 -1.0418 0.9581 -1.1653 0.9167 -2.5772" fill="#fff"/>
<path d="m 285.319 2018.39 c 0 1.1616 1.2441 1.0138 1.2628 -0.2459 0.0186 -1.2525 -1.1518 -1.4009 -1.102 -3.0983" fill="#fff"/>
</g>
</svg>
