<svg viewBox="0 0 512 512" xmlns="http://www.w3.org/2000/svg">

<g transform="matrix(18.68858,0,0,18.68858,-12490.77652,-42865.89623)">
<path d="m 687.751 2318.43 c -3.8603 3.306 -12.0354 1.2298 -13.3508 -3.6793 s 5.0253 -10.0048 3.729 -19.9548 c 11.0059 4.4417 17.5661 16.8306 9.6218 23.6341 z" fill="#fff"/>
<path d="m 684.557 2319.76 c -3.5189 2.0239 -9.2896 -0.4248 -9.3705 -4.2134 s 5.6372 -6.865 6.5044 -14.3917 c 7.4638 4.5183 10.108 14.4394 2.8661 18.6051 z"/>
<path d="m 685.693 2301.93 c -1.8715 -1.8654 -5.9123 -1.2979 -6.6014 1.0705 s 2.3877 5.266 1.665 10.1443 c 5.4539 -1.5835 8.7878 -7.3757 4.9364 -11.2148 z" fill="#fff"/>
<path d="m 679.562 2314.99 c 0 1.2051 -0.7779 2.1104 -1.9833 2.1187 -3.667 0.025 -2.5432 -4.2535 -0.1986 -4.3006 1.2059 -0.024 2.1819 0.9769 2.1819 2.1819 z" fill="#fff" transform="matrix(1.47207,-.35452,.31062,1.04194,-1032.2394,145.7198)"/>
</g>
</svg>
