<svg viewBox="0 0 512 512" xmlns="http://www.w3.org/2000/svg">

<g transform="matrix(15.81484,0,0,15.81484,-11488.43682,-22088.16693)">
<path d="m744.2241,1426.786c-3.6337,4.0195-10.152,1.1166-10.4965-6.5324-.2336-5.1869 5.4643-7.6707 10.3675-7.11 9.4712,1.0833 9.3392,8.8546 8.7951,15.437h-8.1987l-1.2783-4.7818" fill="#fff" stroke="#000" stroke-width="1.1817"/>
<path d="m746.8734,1428.3213-.3689-2.4732" fill="none" stroke="#000" stroke-width="1.1817"/>
<path d="m750.9052,1428.3213-.0125-2.4732" fill="none" stroke="#000" stroke-width="1.1817"/>
<path d="m748.885,1428.3213-.0644-2.4732" fill="none" stroke="#000" stroke-width="1.1817"/>
<path d="m747.5915,1419.6333-4.0826.635c-1.5164-4.5625 3.7694-3.1132 4.0826-.635z"/>
<path d="m748.7272,1415.248 3.9663,2.1731-1.6433,2.0702" fill="#fff"/>
<path d="m752.8232,1417.3216c-1.1664.1123-2.5456,1.0808-2.7012,2.3121l2.7012.4119v-2.724z"/>
<path d="m741.8927,1416.032c-1.0147,1.1188-1.8981,2.7951-1.7019,4.7828 1.1071.057 2.0955.3347 2.7823,1.1722" fill="none" stroke="#000" stroke-width="1.1817"/>
<path d="m744.0077,1426.272c3.0008-.5293 6.0015-.6809 9.0023.036" fill="none" stroke="#000" stroke-width="1.1817"/>
<path d="m749.7596,1420.1456 1.0103,3.6915-1.4183-1.2629-.4857,1.3406c-.5311-1.3772-.9956-2.7925.8937-3.7692z"/>
</g>
<g transform="matrix(20.79684,0,0,20.79684,-14656.62096,-28785.41805)">
<path d="m712.7855,1396.412c-1.3224.9583-.1529,3.4164 2.2714,1.0288 .5026-.495 3.4749-.867 4.4273.3035 1.7072,2.098 3.5913-.4854 1.7148-1.3767-1.62-.7695-3.3463-2.4445-4.0387-4.184-1.0722,1.6454-2.9187,3.1731-4.3748,4.2284z" fill="#fff" stroke="#000" stroke-width=".8986"/>
<path d="m718.1144,1386.7939c0,.9478-.5542,1.7161-1.2378,1.7161s-1.2378-.7683-1.2378-1.7161 .5542-1.716 1.2378-1.716 1.2378.7683 1.2378,1.716z" fill="#fff" transform="matrix(1.41428,0,0,1.55625,-296.94164,-770.31722)"/>
<path d="m718.1144,1386.7939c0,.9478-.5542,1.7161-1.2378,1.7161s-1.2378-.7683-1.2378-1.7161 .5542-1.716 1.2378-1.716 1.2378.7683 1.2378,1.716z" transform="matrix(1.08083,0,0,1.08083,-57.90112,-109.73394)"/>
<path d="m715.1539,1390.7358c1.1828.4086 2.3656.4405 3.5484,0-.6394,1.5414-.7812,3.083 0,4.6247h-3.5484c.7474-1.5713.5256-3.1041 0-4.6247z" fill="#fff"/>
<path d="m716.927,1391.3764c-.3147-.7409-.1641-1.4816.0173-2.2224" fill="none" stroke="#fff" stroke-width=".8986"/>
</g>
</svg>
