<svg viewBox="0 0 512 512" xmlns="http://www.w3.org/2000/svg">

<g transform="matrix(18.68858,0,0,18.68858,-3633.33866,-35399.41397)">
<path d="m 200.184 1911.25 v 9.1167 h 16.1142 v -3.4901 c 0 -8.7145 -13.3904 -10.4961 -16.1142 -5.6266 z" fill="#fff"/>
<path d="m 218.742 1917.45 c 0 0.8819 -0.7149 1.5968 -1.5969 1.5968 s -1.5969 -0.7149 -1.5969 -1.5968 0.7149 -1.5969 1.5969 -1.5969 1.5969 0.7149 1.5969 1.5969 z" fill="#fff" transform="matrix(1,0,0,2.0307,-16.88874,-1980.0851)"/>
<path d="m 211.139 1903.57 c 0.4317 6.2275 -7.0557 3.4535 -6.6374 -0.6681 0.4431 -4.3655 3.6654 -6.6781 7.8202 -7.8144 -1.2159 2.3399 -1.3785 5.6579 -1.1828 8.4825 z" fill="#fff"/>
<path d="m 216.182 1917.18 c 0 -5.8524 -2.6379 -7.6653 -8.898 -8.5456 -4.5314 -0.6373 -8.2474 1.5078 -7.9794 4.4883" fill="none" stroke="#fff"/>
<path d="m 207.777 1904.05 c 0.9642 2.2231 1.2059 4.7859 0.3056 8.0131" fill="none" stroke="#000"/>
<path d="m 218.742 1917.45 c 0 0.8819 -0.7149 1.5968 -1.5969 1.5968 s -1.5969 -0.7149 -1.5969 -1.5968 0.7149 -1.5969 1.5969 -1.5969 1.5969 0.7149 1.5969 1.5969 z" fill="#fff" transform="translate(-.6496,.3434)"/>
<path d="m 214.825 1914.08 c -1.3872 0.8958 -3.7667 1.4867 -6.4694 1.4867 -4.2807 0 -7.7509 -1.4824 -7.7509 -3.3109" fill="none" stroke="#000"/>
<path d="m 205.434 1905.31 c -0.5542 -3.381 2.9628 -6.2797 0.7863 -9.4737 -0.0616 2.7971 -3.6281 6.6167 -0.7863 9.4737 z" fill="#fff"/>
</g>
</svg>
