<svg viewBox="0 0 512 512" xmlns="http://www.w3.org/2000/svg">

<g transform="matrix(18.68858,0,0,18.68858,-10441.4695,-1384.05107)">
<path d="m 572.418 84.8037 c 0.4964 3.3894 0.3251 5.5176 -0.1704 8.1702" fill="none" stroke="#fff"/>
<path d="m 568.208 89.3243 c 2.8438 1.0395 5.875 1.0906 8.8125 0 v 10.8525 h -8.8125 v -10.8525 z" fill="#fff"/>
<path d="m 572.554 75.3191 c -1.4936 0 -5.0229 4.6688 -5.0229 8.487 0 3.1758 1.5529 4.2654 3.6722 5.0766 -0.8278 -0.8352 -1.3929 -2.3412 -1.3929 -4.0768 0 -2.6343 1.6742 -4.7724 2.8491 -4.7724 1.1308 0 2.8491 2.138 2.8491 4.7724 0 1.6262 -0.5029 3.0412 -1.2452 3.9029 1.9315 -0.9641 3.3134 -1.9114 3.3134 -4.9027 0 -3.8182 -3.5734 -8.487 -5.0229 -8.487 z" fill="#fff"/>
<path d="m 576.789 94.6412 c 0 1.5673 1.6787 1.3679 1.7039 -0.3318 0.0251 -1.69 -1.5541 -1.8902 -1.487 -4.1805" fill="#fff"/>
<path d="m 568.409 97.5629 c 0 1.2721 -1.3625 1.1103 -1.383 -0.2693 -0.0204 -1.3717 1.2614 -1.5342 1.2069 -3.3931" fill="#fff"/>
</g>
</svg>
