<svg viewBox="0 0 512 512" xmlns="http://www.w3.org/2000/svg">

<g transform="matrix(18.68858,0,0,18.68858,-11121.46955,-26544.20672)">
<path d="m 603.648 1433.45 c 0 1.855 -1.5038 3.3587 -3.3588 3.3587 s -3.3588 -1.5037 -3.3588 -3.3587 1.5038 -3.3588 3.3588 -3.3588 3.3588 1.5038 3.3588 3.3588 z" fill="#fff" transform="matrix(.66796,-1.15701,1.15693,.668,-1446.3255,1162.9206)"/>
<path d="m 603.648 1433.45 c 0 1.855 -1.5038 3.3587 -3.3588 3.3587 s -3.3588 -1.5037 -3.3588 -3.3587 1.5038 -3.3588 3.3588 -3.3588 3.3588 1.5038 3.3588 3.3588 z" fill="#fff" transform="matrix(.66796,-1.15701,1.15693,.668,-1455.7143,1179.184)"/>
<path d="m -947.077 1238.05 h 19.0355 v 11.4339 h -19.0355 z" fill="#fff" stroke="#000" transform="matrix(.49997,-.86604,.86601,.50003,0,0)"/>
<g transform="matrix(-.5,.86603,-.86603,-.5,2155.4021,1619.0318)">
<path d="m 607.48 1432.91 h 5.0364 c 0.8345 0 1.8491 0.8047 1.8491 1.8517 v 5.666 h -8.6605 v -5.5919 c 0 -0.8483 1.0087 -1.9258 1.775 -1.9258 z" fill="#fff" stroke="#000"/>
<path d="m 610.517 1437.06 c 0 1.1453 -0.9285 2.0738 -2.0738 2.0738 s -2.0738 -0.9285 -2.0738 -2.0738 0.9285 -2.0738 2.0738 -2.0738 2.0738 0.9284 2.0738 2.0738 z" stroke="#fff" stroke-width="1.5329" transform="matrix(.64409,0,0,.66071,220.10563,485.81313)"/>
<path d="m 610.517 1437.06 c 0 1.1453 -0.9285 2.0738 -2.0738 2.0738 s -2.0738 -0.9285 -2.0738 -2.0738 0.9285 -2.0738 2.0738 -2.0738 2.0738 0.9284 2.0738 2.0738 z" stroke="#fff" transform="translate(.4074,-.4074)"/>
<path d="m 610.517 1437.06 c 0 1.1453 -0.9285 2.0738 -2.0738 2.0738 s -2.0738 -0.9285 -2.0738 -2.0738 0.9285 -2.0738 2.0738 -2.0738 2.0738 0.9284 2.0738 2.0738 z" stroke="#fff" stroke-width="1.5329" transform="matrix(.64409,0,0,.66071,220.10563,488.55353)"/>
</g>
<path d="m 608.566 1426.52 -4.4447 -2.5662" fill="none" stroke="#fff"/>
<path d="m 605.233 1432.29 -4.4448 -2.5662" fill="none" stroke="#fff"/>
<path d="m -941.788 1244.77 h 12.3244 v 3.5434 h -12.3244 z" fill="none" stroke="#000" transform="matrix(.49871,-.86677,.86528,.50129,0,0)"/>
</g>
</svg>
