<svg viewBox="0 0 512 512" xmlns="http://www.w3.org/2000/svg">

<g transform="matrix(18.68858,0,0,18.68858,-8404.95208,-39462.46411)">
<path d="m 450.713 2119.31 3.5941 2.8252 5.5741 -5.5979 -3.2097 -3.9304 -5.9586 -0.0002 z" fill="#fff"/>
<path d="m -52.0607 783.308 c 0 1.4157 -3.7396 2.5633 -8.3527 2.5633 s -8.3527 -1.1476 -8.3527 -2.5633 3.7396 -2.5633 8.3527 -2.5633 8.3527 1.1476 8.3527 2.5633 z" stroke="#fff" stroke-width="2.2237" transform="matrix(.29833,-.29832,.33893,.33893,209.39714,1835.5984)"/>
<path d="m 452.703 2121.52 c -0.7134 -0.7133 0.1757 -2.7594 1.9861 -4.5696 s 3.8563 -2.6995 4.5697 -1.9861" fill="none" stroke="#000"/>
<path d="m 469.485 2127.8 0.4078 -3.0532 3.1732 4.7725 0.2212 -2.2377 c 2.7864 2.8866 3.6639 8.172 1.912 9.9239 s -6.6481 0.6229 -10.977 -2.2336 l 2.2075 -0.8626 -4.5298 -4.0441 2.9389 -0.2563 -4.9038 -7.3576 z" fill="#fff" fill-rule="evenodd"/>
<path d="m 475.443 2134.74 c 0 1.8065 -1.4645 3.271 -3.271 3.271 s -3.271 -1.4645 -3.271 -3.271 1.4645 -3.2711 3.271 -3.2711 3.271 1.4645 3.271 3.2711 z" stroke="#fff" stroke-width="1.2565" transform="matrix(.79583,0,0,.79583,97.11049,435.95245)"/>
</g>
</svg>
