<svg viewBox="0 0 512 512" xmlns="http://www.w3.org/2000/svg">

<g transform="matrix(18.68858,0,0,18.68858,-6355.7286,-25865.376)">
<path d="m350.5009,1391.7267v7.5312l15.9443-1.1562v-5.1563l-15.9443-1.2187z" fill="#fff"/>
<path d="m349.1372,1396.3269c0,1.5741-1.276,2.8501-2.8501,2.8501s-2.8501-1.276-2.8501-2.8501 1.276-2.8501 2.8501-2.8501 2.8501,1.276 2.8501,2.8501z" fill="#fff" transform="matrix(1.34259,0,0,1.34259,-114.72969,-479.20589)"/>
<path d="m348.0667,1397.8847-4.223,5.4236-2.652,1.0289v.9538h3.8438l3.9375-5.125h11.5938v-2.2813z" fill="#fff"/>
<path d="m357.0541,1402.6077c0,2.3028-1.8668,4.1696-4.1696,4.1696s-4.1696-1.8668-4.1696-4.1696 1.8668-4.1696 4.1696-4.1696 4.1696,1.8668 4.1696,4.1696z" stroke="#fff" transform="matrix(.96593,.25882,-.25882,.96593,376.20698,-45.40437)"/>
<g transform="translate(-.009,-.0463)">
<path d="m352.2399,1398.9753 3.6295,3.6296" fill="none" stroke="#fff"/>
<path d="m354.7189,1398.311-1.3284,4.9582" fill="none" stroke="#fff"/>
<path d="m356.5337,1400.1259-4.958,1.3285" fill="none" stroke="#fff"/>
</g>
<path d="m348.6093,1392.6685-1.3308-2.1639" fill="none" stroke="#fff"/>
</g>
</svg>
