<svg viewBox="0 0 512 512" xmlns="http://www.w3.org/2000/svg">

<g transform="matrix(18.68858,0,0,18.68858,-11121.46955,-26544.20672)">
<path d="m603.6482,1433.4485c0,1.855-1.5038,3.3587-3.3588,3.3587s-3.3588-1.5037-3.3588-3.3587 1.5038-3.3588 3.3588-3.3588 3.3588,1.5038 3.3588,3.3588z" fill="#fff" transform="matrix(.66796,-1.15701,1.15693,.668,-1446.3255,1162.9206)"/>
<path d="m603.6482,1433.4485c0,1.855-1.5038,3.3587-3.3588,3.3587s-3.3588-1.5037-3.3588-3.3587 1.5038-3.3588 3.3588-3.3588 3.3588,1.5038 3.3588,3.3588z" fill="#fff" transform="matrix(.66796,-1.15701,1.15693,.668,-1455.7143,1179.184)"/>
<path d="m-947.0774,1238.0454h19.0355v11.4339h-19.0355z" fill="#fff" stroke="#000" transform="matrix(.49997,-.86604,.86601,.50003,0,0)"/>
<g transform="matrix(-.5,.86603,-.86603,-.5,2155.4021,1619.0318)">
<path d="m607.4802,1432.9075h5.0364c.8345,0 1.8491.8047 1.8491,1.8517v5.666h-8.6605v-5.5919c0-.8483 1.0087-1.9258 1.775-1.9258z" fill="#fff" stroke="#000"/>
<path d="m610.5169,1437.0552c0,1.1453-.9285,2.0738-2.0738,2.0738s-2.0738-.9285-2.0738-2.0738 .9285-2.0738 2.0738-2.0738 2.0738.9284 2.0738,2.0738z" stroke="#fff" stroke-width="1.5329" transform="matrix(.64409,0,0,.66071,220.10563,485.81313)"/>
<path d="m610.5169,1437.0552c0,1.1453-.9285,2.0738-2.0738,2.0738s-2.0738-.9285-2.0738-2.0738 .9285-2.0738 2.0738-2.0738 2.0738.9284 2.0738,2.0738z" stroke="#fff" transform="translate(.4074,-.4074)"/>
<path d="m610.5169,1437.0552c0,1.1453-.9285,2.0738-2.0738,2.0738s-2.0738-.9285-2.0738-2.0738 .9285-2.0738 2.0738-2.0738 2.0738.9284 2.0738,2.0738z" stroke="#fff" stroke-width="1.5329" transform="matrix(.64409,0,0,.66071,220.10563,488.55353)"/>
</g>
<path d="m608.5663,1426.5207-4.4447-2.5662" fill="none" stroke="#fff"/>
<path d="m605.233,1432.2942-4.4448-2.5662" fill="none" stroke="#fff"/>
<path d="m-941.7878,1244.7728h12.3244v3.5434h-12.3244z" fill="none" stroke="#000" transform="matrix(.49871,-.86677,.86528,.50129,0,0)"/>
</g>
</svg>
