<svg viewBox="0 0 512 512" xmlns="http://www.w3.org/2000/svg">

<g transform="matrix(18.68858,0,0,18.68858,1257.4149,-14420.31988)">
<path d="m -66.3008 772.221 v 13.5246 l 7.7628 5.3085 10.4304 -10.4302 -6.1889 -8.4029 h -12.0043 z" fill="#fff"/>
<path d="m -66.3957 772.141 v 2.8183 l 11.4612 10.1995 3.9725 -4.6434 -7.3545 -8.3743 h -8.0792 z"/>
<path d="m -52.0607 783.308 c 0 1.4157 -3.7396 2.5633 -8.3527 2.5633 s -8.3527 -1.1476 -8.3527 -2.5633 3.7396 -2.5633 8.3527 -2.5633 8.3527 1.1476 8.3527 2.5633 z" fill="#fff" stroke="#000" stroke-width="1.0046" transform="matrix(.66034,-.66033,.75022,.75021,-601.13776,158.21351)"/>
<path d="m -52.0607 783.308 c 0 1.4157 -3.7396 2.5633 -8.3527 2.5633 s -8.3527 -1.1476 -8.3527 -2.5633 3.7396 -2.5633 8.3527 -2.5633 8.3527 1.1476 8.3527 2.5633 z" transform="matrix(.39145,-.39145,.43231,.4323,-368.27887,423.55651)"/>
<g transform="matrix(.58727,-.58726,.58727,.58726,-485.39141,283.49146)">
<path d="m -70.0826 791.484 c 0 -2.0025 4.5496 -3.6278 10.1553 -3.6278 s 10.1553 1.6252 10.1553 3.6278" fill="none" stroke="#000" stroke-width="1.2041"/>
</g>
<path d="m -66.6102 776.897 9.9395 8.3038" fill="none" stroke="#000"/>
<path d="m -56.6421 798.011 c 2.0075 -6.9076 4.3255 -5.8554 6.1291 -0.3364 -0.9963 -5.8626 5.3177 -3.2973 9.8995 0.2888 -3.5539 -5.4462 -6.6685 -9.4988 0.2434 -10.0669 -6.6381 -0.2712 -7.5444 -2.3827 -1.1705 -5.4928 -10.1298 1.0741 -13.9703 4.1249 -15.1015 15.6073 z" fill="#fff" fill-rule="evenodd"/>
</g>
</svg>
