<svg viewBox="0 0 512 512" xmlns="http://www.w3.org/2000/svg">

<g transform="matrix(18.68858,0,0,18.68858,-6355.7286,-25865.376)">
<path d="m 350.501 1391.73 v 7.5312 l 15.9443 -1.1562 v -5.1563 l -15.9443 -1.2187 z" fill="#fff"/>
<path d="m 349.137 1396.33 c 0 1.5741 -1.276 2.8501 -2.8501 2.8501 s -2.8501 -1.276 -2.8501 -2.8501 1.276 -2.8501 2.8501 -2.8501 2.8501 1.276 2.8501 2.8501 z" fill="#fff" transform="matrix(1.34259,0,0,1.34259,-114.72969,-479.20589)"/>
<path d="m 348.067 1397.88 -4.223 5.4236 -2.652 1.0289 v 0.9538 h 3.8438 l 3.9375 -5.125 h 11.5938 v -2.2813 z" fill="#fff"/>
<path d="m 357.054 1402.61 c 0 2.3028 -1.8668 4.1696 -4.1696 4.1696 s -4.1696 -1.8668 -4.1696 -4.1696 1.8668 -4.1696 4.1696 -4.1696 4.1696 1.8668 4.1696 4.1696 z" stroke="#fff" transform="matrix(.96593,.25882,-.25882,.96593,376.20698,-45.40437)"/>
<g transform="translate(-.009,-.0463)">
<path d="m 352.24 1398.98 3.6295 3.6296" fill="none" stroke="#fff"/>
<path d="m 354.719 1398.31 -1.3284 4.9582" fill="none" stroke="#fff"/>
<path d="m 356.534 1400.13 -4.958 1.3285" fill="none" stroke="#fff"/>
</g>
<path d="m 348.609 1392.67 -1.3308 -2.1639" fill="none" stroke="#fff"/>
</g>
</svg>
