<svg viewBox="0 0 512 512" xmlns="http://www.w3.org/2000/svg">

<g transform="matrix(18.68858,0,0,18.68858,-8404.95208,-39462.46411)">
<path d="m450.7127,2119.3136 3.5941,2.8252 5.5741-5.5979-3.2097-3.9304-5.9586-.0002z" fill="#fff"/>
<path d="m-52.0607,783.308c0,1.4157-3.7396,2.5633-8.3527,2.5633s-8.3527-1.1476-8.3527-2.5633 3.7396-2.5633 8.3527-2.5633 8.3527,1.1476 8.3527,2.5633z" stroke="#fff" stroke-width="2.2237" transform="matrix(.29833,-.29832,.33893,.33893,209.39714,1835.5984)"/>
<path d="m452.7027,2121.5215c-.7134-.7133.1757-2.7594 1.9861-4.5696s3.8563-2.6995 4.5697-1.9861" fill="none" stroke="#000"/>
<path d="m469.485,2127.7969 .4078-3.0532 3.1732,4.7725 .2212-2.2377c2.7864,2.8866 3.6639,8.172 1.912,9.9239s-6.6481.6229-10.977-2.2336l2.2075-.8626-4.5298-4.0441 2.9389-.2563-4.9038-7.3576z" fill="#fff" fill-rule="evenodd"/>
<path d="m475.443,2134.7432c0,1.8065-1.4645,3.271-3.271,3.271s-3.271-1.4645-3.271-3.271 1.4645-3.2711 3.271-3.2711 3.271,1.4645 3.271,3.2711z" stroke="#fff" stroke-width="1.2565" transform="matrix(.79583,0,0,.79583,97.11049,435.95245)"/>
</g>
</svg>
