<svg viewBox="0 0 512 512" xmlns="http://www.w3.org/2000/svg">

<g transform="matrix(18.68858,0,0,18.68858,-7718.74293,-29936.81141)">
<path d="m 426.696 1602.92 3.0701 11.5084 h -6.1403 z" fill="#fff"/>
<g transform="matrix(.81606,0,0,1.24166,75.15005,-389.84731)">
<path d="m 425.048 1614.16 h 4.5306 v 9.2123 h -4.5306 z" fill="#fff" stroke="#000" stroke-width=".9934"/>
<path d="m 438.942 1614.16 h 4.5306 v 9.2123 h -4.5306 z" fill="#fff" stroke="#000" stroke-width=".9934"/>
<path d="m 418.101 1614.16 h 4.5306 v 9.2123 h -4.5306 z" fill="#fff" stroke="#000" stroke-width=".9934"/>
<path d="m 431.995 1614.16 h 4.5306 v 9.2123 h -4.5306 z" fill="#fff" stroke="#000" stroke-width=".9934"/>
</g>
<path d="m 433.718 1613.56 h -14.0451 c 0 -3.8784 3.1441 -7.0224 7.0226 -7.0224 s 7.0226 3.144 7.0226 7.0224 z" fill="#fff" stroke="#000"/>
<path d="m 413.557 1612.57 h 26.2776 v 2.7939 h -26.2776 z" fill="#fff" stroke="#000"/>
<path d="m 413.557 1624.88 h 26.2776 v 2.7939 h -26.2776 z" fill="#fff" stroke="#000"/>
<path d="m 424.901 1624.88 -2.25 4.0312 h 8.1573 l -2.2812 -4.0312 z" fill="#fff" stroke="#000"/>
</g>
</svg>
