<svg viewBox="0 0 512 512" xmlns="http://www.w3.org/2000/svg">

<g transform="matrix(18.68858,0,0,18.68858,-7718.74293,-29936.81141)">
<path d="m426.6959,1602.9157 3.0701,11.5084h-6.1403z" fill="#fff"/>
<g transform="matrix(.81606,0,0,1.24166,75.15005,-389.84731)">
<path d="m425.0481,1614.1597h4.5306v9.2123h-4.5306z" fill="#fff" stroke="#000" stroke-width=".9934"/>
<path d="m438.942,1614.1597h4.5306v9.2123h-4.5306z" fill="#fff" stroke="#000" stroke-width=".9934"/>
<path d="m418.1011,1614.1597h4.5306v9.2123h-4.5306z" fill="#fff" stroke="#000" stroke-width=".9934"/>
<path d="m431.9951,1614.1597h4.5306v9.2123h-4.5306z" fill="#fff" stroke="#000" stroke-width=".9934"/>
</g>
<path d="m433.7184,1613.5557h-14.0451c0-3.8784 3.1441-7.0224 7.0226-7.0224s7.0226,3.144 7.0226,7.0224z" fill="#fff" stroke="#000"/>
<path d="m413.557,1612.574h26.2776v2.7939h-26.2776z" fill="#fff" stroke="#000"/>
<path d="m413.557,1624.8821h26.2776v2.7939h-26.2776z" fill="#fff" stroke="#000"/>
<path d="m424.9011,1624.875-2.25,4.0312h8.1573l-2.2812-4.0312z" fill="#fff" stroke="#000"/>
</g>
</svg>
