<svg viewBox="0 0 512 512" xmlns="http://www.w3.org/2000/svg">

<g transform="matrix(4.51915,0,0,4.51915,-967.88708,-1388.80072)">
<path d="m 263.461 335.099 c -3.58 -0.593 -5 17.522 -5.522 26.174 l -14.984 0.022 c -0.64 -22.93 -0.942 -25.188 -4.418 -31.293 -1.589 -2.792 -6.272 -3.206 -6.272 -3.206 0 -2.974 -0.03 -15.143 -0.03 -15.143 8.251 0 13.972 5.957 17.575 12.512 l 0.537 -1.207 c 1.751 -3.75 5.936 -11.062 14.18 -11.062 26 0 9.459 71.5 32.191 65.606 1.468 -0.381 3.781 -5.144 -0.872 -5.144 -8.407 1.118 -11.54 46.609 -38.798 42.927 -2.61 -0.352 -4.186 -1.069 -4.186 -1.069 l 1.882 -16.188 c 5.008 0.624 11.968 -3.346 12.867 -5.891 3.795 -10.755 9.925 -37.188 29.622 -37.188 7.527 0 16.099 7.284 16.099 20.077 0 20.894 -37.526 34.097 -46.062 -10.928 -1.822 -9.597 -0.955 -29.714 -3.809 -28.999 z" fill="#fff"/>
</g>
</svg>
