<svg viewBox="0 0 512 512" xmlns="http://www.w3.org/2000/svg">

<g transform="matrix(18.68858,0,0,18.68858,-5000.13389,-40834.03083)">
<path d="m290.536,2198.0207 2.779-.1691-.3383,3.9566-1.2588.7497" fill="none" stroke="#fff"/>
<path d="m287.8706,2198.5162-2.4741.7679 1.6852,3.5955 1.4403.268" fill="none" stroke="#fff"/>
<path d="m274.6927,2208.3386-5.5433-15.2186" fill="none" stroke="#fff"/>
<path d="m278.1742,2208.031-4.9244-13.6177" fill="none" stroke="#fff"/>
<path d="m282.6903,2188.4512 2.6191-1.1831 5.0552,10.0044-1.8608,1.0736z" fill="#fff"/>
<path d="m288.8892,2196.4261-4.1932,2.554 1.2918,1.1767 3.3228-2.0035 4.0373.7248 .4968-1.5371z" fill="#fff"/>
<path d="m291.4333,2194.8875c0,.9378-.7603,1.6981-1.6981,1.6981s-1.6981-.7603-1.6981-1.6981 .7603-1.6982 1.6981-1.6982 1.6981.7603 1.6981,1.6982z" fill="#fff" stroke="#000" transform="matrix(.94036,.34017,-.34017,.94036,763.43602,35.01083)"/>
<path d="m270.9788,2197.7754 3.233.5222-1.5639,3.3497 2.9889.7161-1.6683,3.1866 3.5782.8703" fill="none" stroke="#fff"/>
<path d="m284.9698,2190.2865c1.2949-.5871 1.8774-2.0933 1.3012-3.3641s-2.0932-1.825-3.3881-1.2378l-12.8763,5.2523c-1.5688.7114-2.2745,2.5365-1.5763,4.0761s2.5359,2.2108 4.1047,1.4994z" fill="#fff" stroke="#000"/>
<path d="m274.1941,2196.6548c0,1.021-.8277,1.8488-1.8488,1.8488s-1.8488-.8278-1.8488-1.8488 .8277-1.8488 1.8488-1.8488 1.8488.8277 1.8488,1.8488z" stroke="#fff" stroke-width=".908" transform="matrix(1.08656,-.17975,.17975,1.08656,-419.56965,-144.10843)"/>
<path d="m274.1941,2196.6548c0,1.021-.8277,1.8488-1.8488,1.8488s-1.8488-.8278-1.8488-1.8488 .8277-1.8488 1.8488-1.8488 1.8488.8277 1.8488,1.8488z" stroke="#fff" stroke-width="1.2151" transform="matrix(.81194,-.13432,.13432,.81194,-232.23823,440.99996)"/>
<path d="m282.4508,2211.9117h-9.2049c0-2.5419 2.0606-4.6025 4.6025-4.6025s4.6025,2.0606 4.6025,4.6025z" fill="#fff" stroke="#000"/>
<path d="m280.2575,2211.9117h-4.8184c0-1.3306 1.0786-2.4092 2.4092-2.4092s2.4092,1.0786 2.4092,2.4092z" fill="#fff" stroke="#000"/>
</g>
</svg>
