<svg viewBox="0 0 512 512" xmlns="http://www.w3.org/2000/svg">

<g transform="matrix(18.68858,0,0,18.68858,-5000.13389,-40834.03083)">
<path d="m 290.536 2198.02 2.779 -0.1691 -0.3383 3.9566 -1.2588 0.7497" fill="none" stroke="#fff"/>
<path d="m 287.871 2198.52 -2.4741 0.7679 1.6852 3.5955 1.4403 0.268" fill="none" stroke="#fff"/>
<path d="m 274.693 2208.34 -5.5433 -15.2186" fill="none" stroke="#fff"/>
<path d="m 278.174 2208.03 -4.9244 -13.6177" fill="none" stroke="#fff"/>
<path d="m 282.69 2188.45 2.6191 -1.1831 5.0552 10.0044 -1.8608 1.0736 z" fill="#fff"/>
<path d="m 288.889 2196.43 -4.1932 2.554 1.2918 1.1767 3.3228 -2.0035 4.0373 0.7248 0.4968 -1.5371 z" fill="#fff"/>
<path d="m 291.433 2194.89 c 0 0.9378 -0.7603 1.6981 -1.6981 1.6981 s -1.6981 -0.7603 -1.6981 -1.6981 0.7603 -1.6982 1.6981 -1.6982 1.6981 0.7603 1.6981 1.6982 z" fill="#fff" stroke="#000" transform="matrix(.94036,.34017,-.34017,.94036,763.43602,35.01083)"/>
<path d="m 270.979 2197.78 3.233 0.5222 -1.5639 3.3497 2.9889 0.7161 -1.6683 3.1866 3.5782 0.8703" fill="none" stroke="#fff"/>
<path d="m 284.97 2190.29 c 1.2949 -0.5871 1.8774 -2.0933 1.3012 -3.3641 s -2.0932 -1.825 -3.3881 -1.2378 l -12.8763 5.2523 c -1.5688 0.7114 -2.2745 2.5365 -1.5763 4.0761 s 2.5359 2.2108 4.1047 1.4994 z" fill="#fff" stroke="#000"/>
<path d="m 274.194 2196.65 c 0 1.021 -0.8277 1.8488 -1.8488 1.8488 s -1.8488 -0.8278 -1.8488 -1.8488 0.8277 -1.8488 1.8488 -1.8488 1.8488 0.8277 1.8488 1.8488 z" stroke="#fff" stroke-width=".908" transform="matrix(1.08656,-.17975,.17975,1.08656,-419.56965,-144.10843)"/>
<path d="m 274.194 2196.65 c 0 1.021 -0.8277 1.8488 -1.8488 1.8488 s -1.8488 -0.8278 -1.8488 -1.8488 0.8277 -1.8488 1.8488 -1.8488 1.8488 0.8277 1.8488 1.8488 z" stroke="#fff" stroke-width="1.2151" transform="matrix(.81194,-.13432,.13432,.81194,-232.23823,440.99996)"/>
<path d="m 282.451 2211.91 h -9.2049 c 0 -2.5419 2.0606 -4.6025 4.6025 -4.6025 s 4.6025 2.0606 4.6025 4.6025 z" fill="#fff" stroke="#000"/>
<path d="m 280.257 2211.91 h -4.8184 c 0 -1.3306 1.0786 -2.4092 2.4092 -2.4092 s 2.4092 1.0786 2.4092 2.4092 z" fill="#fff" stroke="#000"/>
</g>
</svg>
