<svg viewBox="0 0 512 512" xmlns="http://www.w3.org/2000/svg">

<g transform="matrix(18.68858,0,0,18.68858,-9084.16046,-46279.79967)">
<path d="m 240.684 1880.83 c 0 1.1926 -0.9668 2.1594 -2.1595 2.1594 s -2.1595 -0.9668 -2.1595 -2.1594 0.9668 -2.1595 2.1595 -2.1595 2.1595 0.9669 2.1595 2.1595 z" fill="#fff" transform="matrix(.58834,8.9049539e-5,8.9038425e-5,.58823,359.55482,1392.4973)"/>
<path d="m 507.673 2479.36 v 1.4641 h -16.2108 v -1.4641 z" fill="#fff"/>
<path d="m 495.058 2490.28 c -1.0034 3.7462 -2.591 3.3858 -2.5907 5.8512 0.0002 1.4748 3.5871 2.3537 7.4832 2.3546 s 7.4828 -0.877 7.4826 -2.3525 c -0.0004 -2.4653 -1.5878 -2.1055 -2.5924 -5.8518 -1.1945 -4.4549 -2.1432 -6.3485 -4.8923 -6.3489 s -3.6973 1.8929 -4.8905 6.3474 z" fill="#fff" stroke="#000"/>
<path d="m 500.477 2484.38 c 0 0.5469 -0.4434 0.9903 -0.9903 0.9903 s -0.9903 -0.4434 -0.9903 -0.9903 0.4434 -0.9903 0.9903 -0.9903 0.9903 0.4434 0.9903 0.9903 z" stroke="#fff" transform="translate(.3874,-.4619)"/>
<path d="m 499.844 2483.02 v -2.2507" fill="none" stroke="#fff"/>
<path d="m 499.918 2485.21 c 1.1291 0.8146 2.0564 2.7679 2.0264 5.9032 -0.029 3.0318 2.1096 3.5079 1.4623 6.2254 l 2.1324 -0.6221 c 0.5548 -2.3484 -1.5902 -2.6691 -2.5057 -6.6118 -0.4349 -1.8726 -1.2163 -4.7024 -3.1154 -4.8947 z"/>
<path d="m 506.215 2495.28 c 0.6888 1.5477 -2.4747 1.9517 -3.8815 2.0706" fill="none" stroke="#fff"/>
<g transform="matrix(1.40459,0,0,.99336,-202.02173,16.0185)">
<path d="m 506.688 2477.34 2.8438 25.375 h 3.5625 v -6.8438 l -4.1562 -18.5312 h -2.25 z" fill="#fff" transform="matrix(.71195,0,0,1.00668,143.83016,-16.12554)"/>
<path d="m 494.868 2477.77 -2.0246 25.5445 h -2.5363 v -6.8895 l 2.9591 -18.655 h 1.6019 z" fill="#fff"/>
</g>
<path d="m 493.506 2477.93 -0.5702 5.0714" fill="none" stroke="#000"/>
<path d="m 506.238 2477.93 0.5702 5.0714" fill="none" stroke="#000"/>
</g>
</svg>
