<svg viewBox="0 0 512 512" xmlns="http://www.w3.org/2000/svg">

<g transform="matrix(18.68858,0,0,18.68858,-9084.16046,-46279.79967)">
<path d="m240.684,1880.8335c0,1.1926-.9668,2.1594-2.1595,2.1594s-2.1595-.9668-2.1595-2.1594 .9668-2.1595 2.1595-2.1595 2.1595.9669 2.1595,2.1595z" fill="#fff" transform="matrix(.58834,8.9049539e-5,8.9038425e-5,.58823,359.55482,1392.4973)"/>
<path d="m507.6729,2479.3559v1.4641h-16.2108v-1.4641z" fill="#fff"/>
<path d="m495.0578,2490.2795c-1.0034,3.7462-2.591,3.3858-2.5907,5.8512 .0002,1.4748 3.5871,2.3537 7.4832,2.3546s7.4828-.877 7.4826-2.3525c-.0004-2.4653-1.5878-2.1055-2.5924-5.8518-1.1945-4.4549-2.1432-6.3485-4.8923-6.3489s-3.6973,1.8929-4.8905,6.3474z" fill="#fff" stroke="#000"/>
<path d="m500.4768,2484.3838c0,.5469-.4434.9903-.9903.9903s-.9903-.4434-.9903-.9903 .4434-.9903.9903-.9903 .9903.4434.9903.9903z" stroke="#fff" transform="translate(.3874,-.4619)"/>
<path d="m499.844,2483.0215v-2.2507" fill="none" stroke="#fff"/>
<path d="m499.918,2485.2062c1.1291.8146 2.0564,2.7679 2.0264,5.9032-.029,3.0318 2.1096,3.5079 1.4623,6.2254l2.1324-.6221c.5548-2.3484-1.5902-2.6691-2.5057-6.6118-.4349-1.8726-1.2163-4.7024-3.1154-4.8947z"/>
<path d="m506.2151,2495.2802c.6888,1.5477-2.4747,1.9517-3.8815,2.0706" fill="none" stroke="#fff"/>
<g transform="matrix(1.40459,0,0,.99336,-202.02173,16.0185)">
<path d="m506.6875,2477.3438 2.8438,25.375h3.5625v-6.8438l-4.1562-18.5312h-2.25z" fill="#fff" transform="matrix(.71195,0,0,1.00668,143.83016,-16.12554)"/>
<path d="m494.8683,2477.7724-2.0246,25.5445h-2.5363v-6.8895l2.9591-18.655h1.6019z" fill="#fff"/>
</g>
<path d="m493.5062,2477.932-.5702,5.0714" fill="none" stroke="#000"/>
<path d="m506.2384,2477.932 .5702,5.0714" fill="none" stroke="#000"/>
</g>
</svg>
