<svg viewBox="0 0 512 512" xmlns="http://www.w3.org/2000/svg">

<g transform="matrix(18.68858,0,0,18.68858,-2958.61023,-40834.03083)">
<g transform="translate(-291.0953,250.5561)">
<path d="m454.0004,1940.0737c.386-.2838 1.0376-.1936 1.3456.5472 .8114,1.9518 1.9206,3.272 3.6852,5.0366l-1.0674,1.0674c-1.6023-1.6024-2.9064-2.9925-5.0132-3.7086-1.5969-.5429-.4391-2.4877 1.2568-1.2569-.7171-.7419-.5931-1.402-.207-1.6857z" fill="#fff"/>
<path d="m471.1528,1949.2104c2.7531-.7093 3.7795-3.0466 3.3348-5.6051 1.9897,2.1995 1.3859,5.4814-1.709,7.2072" fill="#fff"/>
<path d="m469.3408,1947.0498c2.4757-1.3977 2.8622-3.921 1.7705-6.2772 2.4912,1.6095 2.7573,4.9359.2146,7.4039" fill="#fff"/>
<path d="m466.6379,1946.1087c2.0296-1.9908 1.7498-4.5282.0855-6.5215 2.8229.9098 3.9409,4.054 2.1236,7.096" fill="#fff"/>
<path d="m451.8505,1956.2241h23.7138c2.0368-2.9891-.7769-5.7588-2.8435-5.1505 .7901-3.4466-3.0299-5.9183-5.9016-4.5067-1.2057-3.74-7.9682-3.6256-9.0567,1.7168-2.7762-1.2491-4.1283,1.0627-3.7123,4.1312-2.7393-2.8889-6.5697,1.9129-2.1997,3.8092z" fill="#fff" stroke="#000"/>
<path d="m456.6653,1947.9435c2.7775.7768 4.327,2.5003 4.2438,5.1145" fill="none" stroke="#000"/>
<path d="m463.074,1940.8475c-2.1831.5849-3.4714,2.7409-2.9211,4.7944 .3035,1.1328 1.1086,1.9808 2.1407,2.4352l.7036,2.6261 5.1013-1.3669-.7036-2.6261c.6666-.9096.9398-2.0465.6363-3.1793-.5502-2.0535-2.7741-3.2684-4.9572-2.6834z" fill="#fff" stroke="#000"/>
<path d="m461.069,1938.7444c0,.5133-.4161.9294-.9295.9294s-.9295-.4161-.9295-.9294 .4161-.9295.9295-.9295 .9295.4162.9295.9295z" transform="matrix(.96593,-.25882,.25882,.96593,-483.66859,191.59049)"/>
<path d="m461.069,1938.7444c0,.5133-.4161.9294-.9295.9294s-.9295-.4161-.9295-.9294 .4161-.9295.9295-.9295 .9295.4162.9295.9295z" transform="matrix(.96593,-.25882,.25882,.96593,-480.59045,190.76571)"/>
<path d="m464.2918,1945.4281-.2397,1.8905 1.4756-.356z"/>
</g>
<path d="m184.3062,2205.9407c0,1.4589-5.3837,2.6415-12.0249,2.6415-8.4201,0-12.6178-2.0991-12.6178-3.558z" fill="#fff"/>
<path d="m170.8901,2209.4629c0,.7895-1.4848,1.4295-3.3164,1.4295s-3.3164-.64-3.3164-1.4295 1.4848-1.4295 3.3164-1.4295 3.3164.64 3.3164,1.4295z" fill="#fff" transform="translate(-.1525,-.305)"/>
<path d="m170.8901,2209.4629c0,.7895-1.4848,1.4295-3.3164,1.4295s-3.3164-.64-3.3164-1.4295 1.4848-1.4295 3.3164-1.4295 3.3164.64 3.3164,1.4295z" fill="#fff" transform="matrix(.46552,0,0,.46552,84.51439,1182.254)"/>
<path d="m170.8901,2209.4629c0,.7895-1.4848,1.4295-3.3164,1.4295s-3.3164-.64-3.3164-1.4295 1.4848-1.4295 3.3164-1.4295 3.3164.64 3.3164,1.4295z" fill="#fff" transform="matrix(.46552,0,0,.46552,101.76351,1181.4345)"/>
<path d="m168.74,2207.0001c-1.5611-2.6366 2.5167-4.8035 4.4024-2.4184" fill="none" stroke="#000"/>
</g>
</svg>
