<svg viewBox="0 0 512 512" xmlns="http://www.w3.org/2000/svg">

<g transform="matrix(18.68858,0,0,18.68858,-2958.61023,-40834.03083)">
<g transform="translate(-291.0953,250.5561)">
<path d="m 454 1940.07 c 0.386 -0.2838 1.0376 -0.1936 1.3456 0.5472 0.8114 1.9518 1.9206 3.272 3.6852 5.0366 l -1.0674 1.0674 c -1.6023 -1.6024 -2.9064 -2.9925 -5.0132 -3.7086 -1.5969 -0.5429 -0.4391 -2.4877 1.2568 -1.2569 -0.7171 -0.7419 -0.5931 -1.402 -0.207 -1.6857 z" fill="#fff"/>
<path d="m 471.153 1949.21 c 2.7531 -0.7093 3.7795 -3.0466 3.3348 -5.6051 1.9897 2.1995 1.3859 5.4814 -1.709 7.2072" fill="#fff"/>
<path d="m 469.341 1947.05 c 2.4757 -1.3977 2.8622 -3.921 1.7705 -6.2772 2.4912 1.6095 2.7573 4.9359 0.2146 7.4039" fill="#fff"/>
<path d="m 466.638 1946.11 c 2.0296 -1.9908 1.7498 -4.5282 0.0855 -6.5215 2.8229 0.9098 3.9409 4.054 2.1236 7.096" fill="#fff"/>
<path d="m 451.851 1956.22 h 23.7138 c 2.0368 -2.9891 -0.7769 -5.7588 -2.8435 -5.1505 0.7901 -3.4466 -3.0299 -5.9183 -5.9016 -4.5067 -1.2057 -3.74 -7.9682 -3.6256 -9.0567 1.7168 -2.7762 -1.2491 -4.1283 1.0627 -3.7123 4.1312 -2.7393 -2.8889 -6.5697 1.9129 -2.1997 3.8092 z" fill="#fff" stroke="#000"/>
<path d="m 456.665 1947.94 c 2.7775 0.7768 4.327 2.5003 4.2438 5.1145" fill="none" stroke="#000"/>
<path d="m 463.074 1940.85 c -2.1831 0.5849 -3.4714 2.7409 -2.9211 4.7944 0.3035 1.1328 1.1086 1.9808 2.1407 2.4352 l 0.7036 2.6261 5.1013 -1.3669 -0.7036 -2.6261 c 0.6666 -0.9096 0.9398 -2.0465 0.6363 -3.1793 -0.5502 -2.0535 -2.7741 -3.2684 -4.9572 -2.6834 z" fill="#fff" stroke="#000"/>
<path d="m 461.069 1938.74 c 0 0.5133 -0.4161 0.9294 -0.9295 0.9294 s -0.9295 -0.4161 -0.9295 -0.9294 0.4161 -0.9295 0.9295 -0.9295 0.9295 0.4162 0.9295 0.9295 z" transform="matrix(.96593,-.25882,.25882,.96593,-483.66859,191.59049)"/>
<path d="m 461.069 1938.74 c 0 0.5133 -0.4161 0.9294 -0.9295 0.9294 s -0.9295 -0.4161 -0.9295 -0.9294 0.4161 -0.9295 0.9295 -0.9295 0.9295 0.4162 0.9295 0.9295 z" transform="matrix(.96593,-.25882,.25882,.96593,-480.59045,190.76571)"/>
<path d="m 464.292 1945.43 -0.2397 1.8905 1.4756 -0.356 z"/>
</g>
<path d="m 184.306 2205.94 c 0 1.4589 -5.3837 2.6415 -12.0249 2.6415 -8.4201 0 -12.6178 -2.0991 -12.6178 -3.558 z" fill="#fff"/>
<path d="m 170.89 2209.46 c 0 0.7895 -1.4848 1.4295 -3.3164 1.4295 s -3.3164 -0.64 -3.3164 -1.4295 1.4848 -1.4295 3.3164 -1.4295 3.3164 0.64 3.3164 1.4295 z" fill="#fff" transform="translate(-.1525,-.305)"/>
<path d="m 170.89 2209.46 c 0 0.7895 -1.4848 1.4295 -3.3164 1.4295 s -3.3164 -0.64 -3.3164 -1.4295 1.4848 -1.4295 3.3164 -1.4295 3.3164 0.64 3.3164 1.4295 z" fill="#fff" transform="matrix(.46552,0,0,.46552,84.51439,1182.254)"/>
<path d="m 170.89 2209.46 c 0 0.7895 -1.4848 1.4295 -3.3164 1.4295 s -3.3164 -0.64 -3.3164 -1.4295 1.4848 -1.4295 3.3164 -1.4295 3.3164 0.64 3.3164 1.4295 z" fill="#fff" transform="matrix(.46552,0,0,.46552,101.76351,1181.4345)"/>
<path d="m 168.74 2207 c -1.5611 -2.6366 2.5167 -4.8035 4.4024 -2.4184" fill="none" stroke="#000"/>
</g>
</svg>
