<svg viewBox="0 0 512 512" xmlns="http://www.w3.org/2000/svg">

<g transform="matrix(18.05186,4.83698,-4.83698,18.05186,-4897.92814,-4340.36029)">
<path d="m319.478,166.1746h21.169" fill="none" stroke="#fff"/>
<path d="m322.5781,158.6903 14.9688,14.9687" fill="none" stroke="#fff"/>
<path d="m330.0625,155.5901 1e-05,21.169" fill="none" stroke="#fff"/>
<path d="m337.5469,158.6902-14.9688,14.9688" fill="none" stroke="#fff"/>
<path d="m334.0196,166.4236c0,2.4042-1.949,4.3531-4.3531,4.3531s-4.3531-1.949-4.3531-4.3531 1.949-4.3531 4.3531-4.3531 4.3531,1.949 4.3531,4.3531z" fill="#fff" stroke="#000" stroke-width="1.4485" transform="matrix(.69036,0,0,.69036,102.47553,51.28321)"/>
<path d="m330.0625,152.9871c-7.282,0-13.1875,5.9055-13.1875,13.1875s5.9055,13.1875 13.1875,13.1875 13.1875-5.9055 13.1875-13.1875-5.9055-13.1875-13.1875-13.1875zm0,3.875c5.1352-1e-05 9.3125,4.1773 9.3125,9.3125s-4.1773,9.3125-9.3125,9.3125-9.2812-4.1773-9.2812-9.3125 4.1461-9.3125 9.2812-9.3125z" fill="#fff" stroke="#000"/>
<path d="m331.147,166.2911c0,.6468-.5243,1.1711-1.1711,1.1711s-1.1711-.5243-1.1711-1.1711 .5243-1.1711 1.1711-1.1711 1.1711.5243 1.1711,1.1711z" stroke="#fff" stroke-width=".5824" transform="matrix(1.71698,0,0,1.71698,-236.4997,-119.34394)"/>
</g>
</svg>
