<svg viewBox="0 0 512 512" xmlns="http://www.w3.org/2000/svg">

<g transform="matrix(18.05186,4.83698,-4.83698,18.05186,-4897.92814,-4340.36029)">
<path d="m 319.478 166.175 h 21.169" fill="none" stroke="#fff"/>
<path d="m 322.578 158.69 14.9688 14.9687" fill="none" stroke="#fff"/>
<path d="m 330.062 155.59 1e-05 21.169" fill="none" stroke="#fff"/>
<path d="m 337.547 158.69 -14.9688 14.9688" fill="none" stroke="#fff"/>
<path d="m 334.02 166.424 c 0 2.4042 -1.949 4.3531 -4.3531 4.3531 s -4.3531 -1.949 -4.3531 -4.3531 1.949 -4.3531 4.3531 -4.3531 4.3531 1.949 4.3531 4.3531 z" fill="#fff" stroke="#000" stroke-width="1.4485" transform="matrix(.69036,0,0,.69036,102.47553,51.28321)"/>
<path d="m 330.062 152.987 c -7.282 0 -13.1875 5.9055 -13.1875 13.1875 s 5.9055 13.1875 13.1875 13.1875 13.1875 -5.9055 13.1875 -13.1875 -5.9055 -13.1875 -13.1875 -13.1875 z m 0 3.875 c 5.1352 -1e-05 9.3125 4.1773 9.3125 9.3125 s -4.1773 9.3125 -9.3125 9.3125 -9.2812 -4.1773 -9.2812 -9.3125 4.1461 -9.3125 9.2812 -9.3125 z" fill="#fff" stroke="#000"/>
<path d="m 331.147 166.291 c 0 0.6468 -0.5243 1.1711 -1.1711 1.1711 s -1.1711 -0.5243 -1.1711 -1.1711 0.5243 -1.1711 1.1711 -1.1711 1.1711 0.5243 1.1711 1.1711 z" stroke="#fff" stroke-width=".5824" transform="matrix(1.71698,0,0,1.71698,-236.4997,-119.34394)"/>
</g>
</svg>
