<svg viewBox="0 0 512 512" xmlns="http://www.w3.org/2000/svg">

<g transform="matrix(18.68858,0,0,18.68858,-2957.4564,-39462.46492)">
<path d="m175.3704,2126.4924c0,1.3709-2.3676,2.4822-5.2881,2.4822s-5.2881-1.1113-5.2881-2.4822 2.3676-2.4821 5.2881-2.4821 5.2881,1.1113 5.2881,2.4821z" fill="#fff" stroke="#000" stroke-width=".9665" transform="matrix(1,0,0,1.07047,9.0653,-142.16372)"/>
<path d="m182.3833,2133.7629v2.6943" fill="none" stroke="#000"/>
<path d="m181.6282,2134.3118v2.6943" fill="none" stroke="#000"/>
<path d="m177.5828,2127.2813c0,3.349-3.3877,6.0639-7.5667,6.0639s-6.7861-2.8071-7.5667-6.0639c-1.0818-4.5138 4.0494-10.9187 9.0689-10.0137 4.1126.7416 6.0645,6.6648 6.0645,10.0137z" fill="#fff" stroke="#000"/>
<path d="m175.3704,2126.4924c0,1.3709-2.3676,2.4822-5.2881,2.4822s-5.2881-1.1113-5.2881-2.4822 2.3676-2.4821 5.2881-2.4821 5.2881,1.1113 5.2881,2.4821z" fill="#fff" stroke="#000" transform="translate(-1.7421,6.8981)"/>
<path d="m175.3704,2126.4924c0,1.3709-2.3676,2.4822-5.2881,2.4822s-5.2881-1.1113-5.2881-2.4822 2.3676-2.4821 5.2881-2.4821 5.2881,1.1113 5.2881,2.4821z" fill="#fff" stroke="#000" stroke-width=".9665" transform="matrix(1,0,0,1.07047,9.0653,-144.59808)"/>
<path d="m175.3704,2126.4924c0,1.3709-2.3676,2.4822-5.2881,2.4822s-5.2881-1.1113-5.2881-2.4822 2.3676-2.4821 5.2881-2.4821 5.2881,1.1113 5.2881,2.4821z" fill="#fff" stroke="#000" stroke-width=".9665" transform="matrix(1,0,0,1.07047,8.41778,-146.90858)"/>
<path d="m175.3704,2126.4924c0,1.3709-2.3676,2.4822-5.2881,2.4822s-5.2881-1.1113-5.2881-2.4822 2.3676-2.4821 5.2881-2.4821 5.2881,1.1113 5.2881,2.4821z" fill="#fff" stroke="#000" stroke-width=".9665" transform="matrix(1,0,0,1.07047,9.82074,-148.99122)"/>
<path d="m175.3704,2126.4924c0,1.3709-2.3676,2.4822-5.2881,2.4822s-5.2881-1.1113-5.2881-2.4822 2.3676-2.4821 5.2881-2.4821 5.2881,1.1113 5.2881,2.4821z" fill="#fff" stroke="#000" stroke-width=".9665" transform="matrix(1,0,0,1.07047,9.0653,-151.41725)"/>
<path d="m175.3704,2126.4924c0,1.3709-2.3676,2.4822-5.2881,2.4822s-5.2881-1.1113-5.2881-2.4822 2.3676-2.4821 5.2881-2.4821 5.2881,1.1113 5.2881,2.4821z" fill="#fff" stroke="#000" stroke-width=".9665" transform="matrix(1,0,0,1.07047,9.0653,-153.72776)"/>
<path d="m175.3704,2126.4924c0,1.3709-2.3676,2.4822-5.2881,2.4822s-5.2881-1.1113-5.2881-2.4822 2.3676-2.4821 5.2881-2.4821 5.2881,1.1113 5.2881,2.4821z" fill="#fff" stroke="#000" stroke-width=".9665" transform="matrix(1,0,0,1.07047,8.30986,-155.99191)"/>
<path d="m171.3706,2133.1241v2.0179" fill="none" stroke="#000"/>
<path d="m170.6155,2133.673v2.0179" fill="none" stroke="#000"/>
<path d="m181.8494,2119.9932c0,.5373-1.6869.9729-3.7679.9729s-3.7679-.4356-3.7679-.9729 1.6869-.973 3.7679-.973 3.7679.4356 3.7679.973z" fill="#fff" transform="matrix(.92685,0,0,1.37898,3.79773,-790.51013)"/>
<path d="m175.3704,2126.4924c0,1.3709-2.3676,2.4822-5.2881,2.4822s-5.2881-1.1113-5.2881-2.4822 2.3676-2.4821 5.2881-2.4821 5.2881,1.1113 5.2881,2.4821z" fill="#fff" stroke="#000" stroke-width="1.0582" transform="matrix(.8648,0,0,1.03261,19.48295,-59.97781)"/>
<path d="m169.3484,2135.6042v2.0179" fill="none" stroke="#000"/>
<path d="m168.5933,2136.1531v2.0179" fill="none" stroke="#000"/>
<path d="m181.8494,2119.9932c0,.5373-1.6869.9729-3.7679.9729s-3.7679-.4356-3.7679-.9729 1.6869-.973 3.7679-.973 3.7679.4356 3.7679.973z" fill="#fff" transform="matrix(.92685,0,0,1.37898,1.77548,-788.03002)"/>
<path d="m175.3704,2126.4924c0,1.3709-2.3676,2.4822-5.2881,2.4822s-5.2881-1.1113-5.2881-2.4822 2.3676-2.4821 5.2881-2.4821 5.2881,1.1113 5.2881,2.4821z" fill="#fff" stroke="#000" stroke-width="1.0534" transform="matrix(.88207,-.20496,.18471,.97877,-379.28249,86.80133)"/>
<path d="m181.3531,2120.4047v2.0179" fill="none" stroke="#000"/>
<path d="m182.3833,2122.2415v4.5553" fill="none" stroke="#000"/>
<path d="m183.3753,2126.4728v2.7384" fill="none" stroke="#000"/>
<path d="m181.2195,2129.5484v2.3337" fill="none" stroke="#000"/>
<path d="m182.3833,2131.3285v2.6943" fill="none" stroke="#000"/>
<path d="m180.598,2120.9536v2.0179" fill="none" stroke="#000"/>
<path d="m181.6282,2122.7904v4.5553" fill="none" stroke="#000"/>
<path d="m182.6202,2127.0217v2.7384" fill="none" stroke="#000"/>
<path d="m180.4644,2130.0973v1.8377" fill="none" stroke="#000"/>
<path d="m181.6282,2131.8774v2.6943" fill="none" stroke="#000"/>
<path d="m181.8494,2119.9932c0,.5373-1.6869.9729-3.7679.9729s-3.7679-.4356-3.7679-.9729 1.6869-.973 3.7679-.973 3.7679.4356 3.7679.973z" fill="#fff" transform="matrix(.92685,0,0,1.37898,13.78017,-803.2295)"/>
<path d="m166.3756,2132.3503-2e-05,2.0178" fill="none" stroke="#000"/>
<path d="m165.7501,2133.0759-2e-05,2.0178" fill="none" stroke="#000"/>
<path d="m181.8494,2119.9932c0,.5373-1.6869.9729-3.7679.9729s-3.7679-.4356-3.7679-.9729 1.6869-.973 3.7679-.973 3.7679.4356 3.7679.973z" fill="#fff" transform="matrix(.89527,-.23989,.35691,1.33199,-752.44079,-648.25816)"/>
<path d="m161.047,2115.6557 4.8665,3.7609c1.6611.5875 4.4933-.059 6.1335-1.6697l1.8277-4.5153c-.8561-1.1285-2.9821-1.6904-4.4.09-1.682-1.0378-4.151-.7676-4.8443,1.1445-1.8784-.9643-2.6097-.2184-3.5833,1.1893z" fill="#fff" stroke="#000"/>
<path d="m167.0499,2121.1107c.0825,1.4248.7108,2.5449 1.5472,3.5485" fill="none" stroke="#000"/>
<path d="m167.6337,2119.7589c-1.469,2.3755-1.2338,4.9041-.3482,7.4911" fill="none" stroke="#000"/>
</g>
</svg>
