<svg viewBox="0 0 512 512" xmlns="http://www.w3.org/2000/svg">

<g transform="matrix(18.68858,0,0,18.68858,-2957.4564,-39462.46492)">
<path d="m 175.37 2126.49 c 0 1.3709 -2.3676 2.4822 -5.2881 2.4822 s -5.2881 -1.1113 -5.2881 -2.4822 2.3676 -2.4821 5.2881 -2.4821 5.2881 1.1113 5.2881 2.4821 z" fill="#fff" stroke="#000" stroke-width=".9665" transform="matrix(1,0,0,1.07047,9.0653,-142.16372)"/>
<path d="m 182.383 2133.76 v 2.6943" fill="none" stroke="#000"/>
<path d="m 181.628 2134.31 v 2.6943" fill="none" stroke="#000"/>
<path d="m 177.583 2127.28 c 0 3.349 -3.3877 6.0639 -7.5667 6.0639 s -6.7861 -2.8071 -7.5667 -6.0639 c -1.0818 -4.5138 4.0494 -10.9187 9.0689 -10.0137 4.1126 0.7416 6.0645 6.6648 6.0645 10.0137 z" fill="#fff" stroke="#000"/>
<path d="m 175.37 2126.49 c 0 1.3709 -2.3676 2.4822 -5.2881 2.4822 s -5.2881 -1.1113 -5.2881 -2.4822 2.3676 -2.4821 5.2881 -2.4821 5.2881 1.1113 5.2881 2.4821 z" fill="#fff" stroke="#000" transform="translate(-1.7421,6.8981)"/>
<path d="m 175.37 2126.49 c 0 1.3709 -2.3676 2.4822 -5.2881 2.4822 s -5.2881 -1.1113 -5.2881 -2.4822 2.3676 -2.4821 5.2881 -2.4821 5.2881 1.1113 5.2881 2.4821 z" fill="#fff" stroke="#000" stroke-width=".9665" transform="matrix(1,0,0,1.07047,9.0653,-144.59808)"/>
<path d="m 175.37 2126.49 c 0 1.3709 -2.3676 2.4822 -5.2881 2.4822 s -5.2881 -1.1113 -5.2881 -2.4822 2.3676 -2.4821 5.2881 -2.4821 5.2881 1.1113 5.2881 2.4821 z" fill="#fff" stroke="#000" stroke-width=".9665" transform="matrix(1,0,0,1.07047,8.41778,-146.90858)"/>
<path d="m 175.37 2126.49 c 0 1.3709 -2.3676 2.4822 -5.2881 2.4822 s -5.2881 -1.1113 -5.2881 -2.4822 2.3676 -2.4821 5.2881 -2.4821 5.2881 1.1113 5.2881 2.4821 z" fill="#fff" stroke="#000" stroke-width=".9665" transform="matrix(1,0,0,1.07047,9.82074,-148.99122)"/>
<path d="m 175.37 2126.49 c 0 1.3709 -2.3676 2.4822 -5.2881 2.4822 s -5.2881 -1.1113 -5.2881 -2.4822 2.3676 -2.4821 5.2881 -2.4821 5.2881 1.1113 5.2881 2.4821 z" fill="#fff" stroke="#000" stroke-width=".9665" transform="matrix(1,0,0,1.07047,9.0653,-151.41725)"/>
<path d="m 175.37 2126.49 c 0 1.3709 -2.3676 2.4822 -5.2881 2.4822 s -5.2881 -1.1113 -5.2881 -2.4822 2.3676 -2.4821 5.2881 -2.4821 5.2881 1.1113 5.2881 2.4821 z" fill="#fff" stroke="#000" stroke-width=".9665" transform="matrix(1,0,0,1.07047,9.0653,-153.72776)"/>
<path d="m 175.37 2126.49 c 0 1.3709 -2.3676 2.4822 -5.2881 2.4822 s -5.2881 -1.1113 -5.2881 -2.4822 2.3676 -2.4821 5.2881 -2.4821 5.2881 1.1113 5.2881 2.4821 z" fill="#fff" stroke="#000" stroke-width=".9665" transform="matrix(1,0,0,1.07047,8.30986,-155.99191)"/>
<path d="m 171.371 2133.12 v 2.0179" fill="none" stroke="#000"/>
<path d="m 170.615 2133.67 v 2.0179" fill="none" stroke="#000"/>
<path d="m 181.849 2119.99 c 0 0.5373 -1.6869 0.9729 -3.7679 0.9729 s -3.7679 -0.4356 -3.7679 -0.9729 1.6869 -0.973 3.7679 -0.973 3.7679 0.4356 3.7679 0.973 z" fill="#fff" transform="matrix(.92685,0,0,1.37898,3.79773,-790.51013)"/>
<path d="m 175.37 2126.49 c 0 1.3709 -2.3676 2.4822 -5.2881 2.4822 s -5.2881 -1.1113 -5.2881 -2.4822 2.3676 -2.4821 5.2881 -2.4821 5.2881 1.1113 5.2881 2.4821 z" fill="#fff" stroke="#000" stroke-width="1.0582" transform="matrix(.8648,0,0,1.03261,19.48295,-59.97781)"/>
<path d="m 169.348 2135.6 v 2.0179" fill="none" stroke="#000"/>
<path d="m 168.593 2136.15 v 2.0179" fill="none" stroke="#000"/>
<path d="m 181.849 2119.99 c 0 0.5373 -1.6869 0.9729 -3.7679 0.9729 s -3.7679 -0.4356 -3.7679 -0.9729 1.6869 -0.973 3.7679 -0.973 3.7679 0.4356 3.7679 0.973 z" fill="#fff" transform="matrix(.92685,0,0,1.37898,1.77548,-788.03002)"/>
<path d="m 175.37 2126.49 c 0 1.3709 -2.3676 2.4822 -5.2881 2.4822 s -5.2881 -1.1113 -5.2881 -2.4822 2.3676 -2.4821 5.2881 -2.4821 5.2881 1.1113 5.2881 2.4821 z" fill="#fff" stroke="#000" stroke-width="1.0534" transform="matrix(.88207,-.20496,.18471,.97877,-379.28249,86.80133)"/>
<path d="m 181.353 2120.4 v 2.0179" fill="none" stroke="#000"/>
<path d="m 182.383 2122.24 v 4.5553" fill="none" stroke="#000"/>
<path d="m 183.375 2126.47 v 2.7384" fill="none" stroke="#000"/>
<path d="m 181.22 2129.55 v 2.3337" fill="none" stroke="#000"/>
<path d="m 182.383 2131.33 v 2.6943" fill="none" stroke="#000"/>
<path d="m 180.598 2120.95 v 2.0179" fill="none" stroke="#000"/>
<path d="m 181.628 2122.79 v 4.5553" fill="none" stroke="#000"/>
<path d="m 182.62 2127.02 v 2.7384" fill="none" stroke="#000"/>
<path d="m 180.464 2130.1 v 1.8377" fill="none" stroke="#000"/>
<path d="m 181.628 2131.88 v 2.6943" fill="none" stroke="#000"/>
<path d="m 181.849 2119.99 c 0 0.5373 -1.6869 0.9729 -3.7679 0.9729 s -3.7679 -0.4356 -3.7679 -0.9729 1.6869 -0.973 3.7679 -0.973 3.7679 0.4356 3.7679 0.973 z" fill="#fff" transform="matrix(.92685,0,0,1.37898,13.78017,-803.2295)"/>
<path d="m 166.376 2132.35 -2e-05 2.0178" fill="none" stroke="#000"/>
<path d="m 165.75 2133.08 -2e-05 2.0178" fill="none" stroke="#000"/>
<path d="m 181.849 2119.99 c 0 0.5373 -1.6869 0.9729 -3.7679 0.9729 s -3.7679 -0.4356 -3.7679 -0.9729 1.6869 -0.973 3.7679 -0.973 3.7679 0.4356 3.7679 0.973 z" fill="#fff" transform="matrix(.89527,-.23989,.35691,1.33199,-752.44079,-648.25816)"/>
<path d="m 161.047 2115.66 4.8665 3.7609 c 1.6611 0.5875 4.4933 -0.059 6.1335 -1.6697 l 1.8277 -4.5153 c -0.8561 -1.1285 -2.9821 -1.6904 -4.4 0.09 -1.682 -1.0378 -4.151 -0.7676 -4.8443 1.1445 -1.8784 -0.9643 -2.6097 -0.2184 -3.5833 1.1893 z" fill="#fff" stroke="#000"/>
<path d="m 167.05 2121.11 c 0.0825 1.4248 0.7108 2.5449 1.5472 3.5485" fill="none" stroke="#000"/>
<path d="m 167.634 2119.76 c -1.469 2.3755 -1.2338 4.9041 -0.3482 7.4911" fill="none" stroke="#000"/>
</g>
</svg>
