<svg viewBox="0 0 512 512" xmlns="http://www.w3.org/2000/svg">

<g transform="matrix(18.68858,0,0,18.68858,-1468.6498,-13527.73609)">
<path d="m 92.0938 726.375 -2.375 6.125 h -0.4062 l 0.75 1.2188 v 6.5938 h -2 v -0.9688 l 0.7812 -1.2188 h -0.4375 l -2.3438 -6.125 -2.375 6.125 h -0.4062 l 0.75 1.2188 v 8 h 16.0625 v -10.7188 l 0.75 -1.2188 h -0.4062 l -2.375 -6.125 -2.3438 6.125 h -0.4375 l 0.7812 1.2188 v 1.8125 h -1.9688 v -4.7188 l 0.7812 -1.2188 h -0.4062 l -2.375 -6.125 z" fill="#fff"/>
<path d="m 85.4443 740.147 v 1.9446" fill="none" stroke="#000"/>
<path d="m 92.7487 734.26 v 1.9446" fill="none" stroke="#000"/>
<path d="m 97.3071 743.353 v 1.9446" fill="none" stroke="#000"/>
<path d="m 98.6432 738.967 v 1.9446" fill="none" stroke="#000"/>
<path d="m 84.5877 746.936 h 15.3354 c -3.6627 3.6627 -11.6961 3.6393 -15.3354 0 z" fill="#fff" fill-rule="evenodd"/>
<path d="m 88.1674 741.721 v 1.9446" fill="none" stroke="#000"/>
<path d="m 531.037 404.564 c 0 7.4688 -6.0546 13.5234 -13.5234 13.5234 s -13.5234 -6.0546 -13.5234 -13.5234 6.0546 -13.5234 13.5234 -13.5234 13.5234 6.0546 13.5234 13.5234 z" fill="none" stroke="#fff" stroke-width="1.0949" transform="matrix(.91335,0,0,-.91335,-380.48181,1107.0311)"/>
</g>
</svg>
