<svg viewBox="0 0 512 512" xmlns="http://www.w3.org/2000/svg">

<g transform="matrix(18.68858,0,0,18.68858,-1468.6498,-13527.73609)">
<path d="m92.0938,726.375-2.375,6.125h-.4062l.75,1.2188v6.5938h-2v-.9688l.7812-1.2188h-.4375l-2.3438-6.125-2.375,6.125h-.4062l.75,1.2188v8h16.0625v-10.7188l.75-1.2188h-.4062l-2.375-6.125-2.3438,6.125h-.4375l.7812,1.2188v1.8125h-1.9688v-4.7188l.7812-1.2188h-.4062l-2.375-6.125z" fill="#fff"/>
<path d="m85.4443,740.1468v1.9446" fill="none" stroke="#000"/>
<path d="m92.7487,734.2605v1.9446" fill="none" stroke="#000"/>
<path d="m97.3071,743.3527v1.9446" fill="none" stroke="#000"/>
<path d="m98.6432,738.9675v1.9446" fill="none" stroke="#000"/>
<path d="m84.5877,746.9362h15.3354c-3.6627,3.6627-11.6961,3.6393-15.3354,0z" fill="#fff" fill-rule="evenodd"/>
<path d="m88.1674,741.7213v1.9446" fill="none" stroke="#000"/>
<path d="m531.0372,404.564c0,7.4688-6.0546,13.5234-13.5234,13.5234s-13.5234-6.0546-13.5234-13.5234 6.0546-13.5234 13.5234-13.5234 13.5234,6.0546 13.5234,13.5234z" fill="none" stroke="#fff" stroke-width="1.0949" transform="matrix(.91335,0,0,-.91335,-380.48181,1107.0311)"/>
</g>
</svg>
