<svg viewBox="0 0 512 512" xmlns="http://www.w3.org/2000/svg">

<g transform="matrix(18.68858,0,0,18.68858,1349.34029,-11737.84521)">
<g transform="matrix(1.05539,0,0,1.05526,-420.49908,-36.18517)">
<path d="m 334.382 646.893 c 1.6173 -1.3455 3.6519 -0.1901 3.2922 2.0164 -3.0327 5.3237 -6.3268 3.3105 -3.2922 -2.0164 z" fill="#fff" fill-rule="evenodd" stroke="#000" stroke-width=".9476"/>
<path d="m 351.918 646.893 c -1.6173 -1.3455 -3.6519 -0.1901 -3.2922 2.0164 3.0327 5.3237 6.3268 3.3105 3.2922 -2.0164 z" fill="#fff" fill-rule="evenodd" stroke="#000" stroke-width=".9476"/>
</g>
<path d="m -60.3649 649.939 c 0.7757 -2.0995 3.231 -2.1316 4.0491 0.0825 0 6.5027 -4.0491 6.4241 -4.0491 -0.0825 z" fill="#fff" fill-rule="evenodd" stroke="#000"/>
<path d="m 352.946 640.621 c 0 2.4409 -4.697 4.4196 -10.4911 4.4196 s -10.4911 -1.9787 -10.4911 -4.4196 4.697 -4.4196 10.4911 -4.4196 10.4911 1.9787 10.4911 4.4196 z" fill="#fff" stroke="#000" stroke-width=".6043" transform="matrix(1.14703,0,0,2.38765,-451.14555,-889.74518)"/>
<path d="m 352.946 640.621 c 0 2.4409 -4.697 4.4196 -10.4911 4.4196 s -10.4911 -1.9787 -10.4911 -4.4196 4.697 -4.4196 10.4911 -4.4196 10.4911 1.9787 10.4911 4.4196 z" stroke="#fff" stroke-width=".9699" transform="matrix(1.01486,0,0,1.04751,-405.88364,-36.50916)"/>
<path d="m -58.7555 631.344 c -4.3112 0 -7.8125 1.3903 -7.8125 3.0938 s 3.5013 3.0937 7.8125 3.0938 c 2.1424 0 4.0885 -0.3537 5.5 -0.9062 -1.1406 0.1786 -2.4118 0.3125 -3.7812 0.3125 -4.6053 3e-05 -8.3438 -1.1579 -8.3438 -2.5625 s 3.7384 -2.5312 8.3438 -2.5312 c 1.0932 -1e-05 2.1367 0.0395 3.0938 0.1562 -1.3278 -0.4122 -2.9942 -0.6562 -4.8125 -0.6562 z" fill="#fff"/>
</g>
</svg>
