<svg viewBox="0 0 512 512" xmlns="http://www.w3.org/2000/svg">

<g transform="matrix(18.68858,0,0,18.68858,-7038.11249,-21126.05093)">
<path d="m 377.299 1133.39 4.9762 -1.65" fill="none" stroke="#fff"/>
<path d="m 377.025 1135.74 c 0.4878 0.1261 1.0265 0.1162 1.5527 -0.058 1.3711 -0.4546 2.1417 -1.8557 1.7201 -3.1275 s -1.8767 -1.935 -3.2478 -1.4804" fill="#fff" stroke="#000"/>
<path d="m 377.047 1137.73 6.3957 -2.9424" fill="none" stroke="#fff"/>
<path d="m 377.139 1138.52 c 0.7009 0.8324 1.9577 1.1086 3.0665 0.5984 1.3123 -0.6037 1.9229 -2.0815 1.3628 -3.2988 s -2.0796 -1.7151 -3.3919 -1.1113 c -0.3927 0.1807 -0.7225 0.4395 -0.9769 0.7464" fill="#fff" stroke="#000"/>
<path d="m 376.876 1142.82 8.0417 -5.1997" fill="none" stroke="#fff"/>
<path d="m 388.966 1147.89 c 0 1.3294 -1.3639 2.4071 -3.0464 2.4071 s -3.0464 -1.0777 -3.0464 -2.4071 1.3639 -2.407 3.0464 -2.407 3.0464 1.0777 3.0464 2.407 z" fill="#fff" stroke="#000" stroke-width="1.0744" transform="matrix(.72135,-.46642,-.54753,-.8468,731.13738,2292.3703)"/>
<path d="m 380.096 1147.02 6.2839 -7.2263" fill="none" stroke="#fff"/>
<path d="m 388.966 1147.89 c 0 1.3294 -1.3639 2.4071 -3.0464 2.4071 s -3.0464 -1.0777 -3.0464 -2.4071 1.3639 -2.407 3.0464 -2.407 3.0464 1.0777 3.0464 2.407 z" fill="#fff" stroke="#000" stroke-width="1.0744" transform="matrix(.56367,-.6482,-.76093,-.66171,1039.3085,2153.2031)"/>
<path d="m 384.235 1149.89 4.2964 -8.5588" fill="none" stroke="#fff"/>
<path d="m 388.966 1147.89 c 0 1.3294 -1.3639 2.4071 -3.0464 2.4071 s -3.0464 -1.0777 -3.0464 -2.4071 1.3639 -2.407 3.0464 -2.407 3.0464 1.0777 3.0464 2.407 z" fill="#fff" stroke="#000" stroke-width="1.0744" transform="matrix(.38538,-.76771,-.90122,-.45241,1272.3122,1961.2324)"/>
<path d="m 388.194 1151.65 3.3216 -8.9819" fill="none" stroke="#fff"/>
<path d="m 388.966 1147.89 c 0 1.3294 -1.3639 2.4071 -3.0464 2.4071 s -3.0464 -1.0777 -3.0464 -2.4071 1.3639 -2.407 3.0464 -2.407 3.0464 1.0777 3.0464 2.407 z" fill="#fff" stroke="#000" stroke-width="1.0744" transform="matrix(.29793,-.80569,-.9458,-.34974,1360.7165,1859.5701)"/>
<path d="m 392.551 1152.99 2.0098 -9.3632" fill="none" stroke="#fff"/>
<path d="m 388.966 1147.89 c 0 1.3294 -1.3639 2.4071 -3.0464 2.4071 s -3.0464 -1.0777 -3.0464 -2.4071 1.3639 -2.407 3.0464 -2.407 3.0464 1.0777 3.0464 2.407 z" fill="#fff" stroke="#000" stroke-width="1.0744" transform="matrix(.18026,-.83988,-.98594,-.21162,1455.9019,1715.3382)"/>
<path d="m 388.966 1147.89 c 0 1.3294 -1.3639 2.4071 -3.0464 2.4071 s -3.0464 -1.0777 -3.0464 -2.4071 1.3639 -2.407 3.0464 -2.407 3.0464 1.0777 3.0464 2.407 z" fill="#fff" stroke="#000" stroke-width="1.0146" transform="matrix(-.04953,-.85868,-1.12605,.0907,1709.599,1376.0681)"/>
<path d="m 377.913 1131.65 -0.9681 2.3086 c 2.6932 9.2612 11.7283 16.3463 21.5566 15.2365 l -0.1305 -1.5008 c -9.6573 1.0903 -18.7229 -6.5729 -20.4579 -16.0443 z" fill="#fff" fill-rule="evenodd"/>
<path d="m 399.508 1149.61 c 3.5702 3.0677 2.993 7.2996 -2.1797 7.1718 4.599 -1.0422 4.1216 -3.9674 1.1874 -6.2389" fill="#fff" fill-rule="evenodd"/>
<path d="m 399.893 1148.19 c 4.0732 -2.3593 4.2832 -6.6254 -0.8248 -7.45 4.2261 1.7408 3.3628 4.5861 0.0209 6.3508" fill="#fff" fill-rule="evenodd"/>
<path d="m 387.471 1130.94 h -10.418 v 14.7056" fill="none" stroke="#000"/>
</g>
</svg>
