<svg viewBox="0 0 512 512" xmlns="http://www.w3.org/2000/svg">

<g transform="matrix(18.68858,0,0,18.68858,-228.44873,-17252.09562)">
<path d="m 34.4788 934.832 c 0.1578 5.0554 -6.4196 6.3351 -8.4548 11.3816 -1.9267 -5.0461 -8.3288 -6.6301 -8.4797 -11.3816 -0.1609 -5.0655 6.1076 -6.0378 8.4797 -1.9266 2.3763 -4.4878 8.3068 -2.8158 8.4548 1.9266 z" fill="#fff" stroke="#000"/>
<path d="m 36.3024 937.11 c 0 5.3871 -4.3671 9.7543 -9.7543 9.7543 s -9.7543 -4.3671 -9.7543 -9.7543 4.3671 -9.7543 9.7543 -9.7543 9.7543 4.3671 9.7543 9.7543 z" fill="none" stroke="#fff" stroke-width=".868" transform="matrix(1.07435,.41606,-.41606,1.07435,387.35152,-81.10792)"/>
<path d="m 350.258 862.581 h 2.0834 v 2.9042 h -2.0834 z" stroke="#fff" transform="rotate(21.17)"/>
<path d="m 372.671 862.581 h 2.0834 v 2.9042 h -2.0834 z" stroke="#fff" transform="rotate(21.17)"/>
<path d="m 733.708 565.57 h 2.0834 v 2.9042 h -2.0834 z" stroke="#fff" transform="rotate(51.17)"/>
<path d="m 756.121 565.57 h 2.0834 v 2.9042 h -2.0834 z" stroke="#fff" transform="rotate(51.17)"/>
<path d="m 917.28 116.625 h 2.0834 v 2.9042 h -2.0834 z" stroke="#fff" transform="rotate(81.17)"/>
<path d="m 939.693 116.625 h 2.0834 v 2.9042 h -2.0834 z" stroke="#fff" transform="rotate(81.17)"/>
<path d="m 851.785 -363.958 h 2.0834 v 2.9042 h -2.0834 z" stroke="#fff" transform="matrix(-.36113,.93251,-.93251,-.36113,0,0)"/>
<path d="m 874.198 -363.958 h 2.0834 v 2.9042 h -2.0834 z" stroke="#fff" transform="matrix(-.36113,.93251,-.93251,-.36113,0,0)"/>
<path d="m 554.774 -747.408 h 2.0834 v 2.9042 h -2.0834 z" stroke="#fff" transform="matrix(-.77901,.62701,-.62701,-.77901,0,0)"/>
<path d="m 577.186 -747.408 h 2.0834 v 2.9042 h -2.0834 z" stroke="#fff" transform="matrix(-.77901,.62701,-.62701,-.77901,0,0)"/>
<path d="m 105.829 -930.98 h 2.0834 v 2.9042 h -2.0834 z" stroke="#fff" transform="matrix(-.98815,.15351,-.15351,-.98815,0,0)"/>
<path d="m 128.242 -930.98 h 2.0834 v 2.9042 h -2.0834 z" stroke="#fff" transform="matrix(-.98815,.15351,-.15351,-.98815,0,0)"/>
</g>
</svg>
