<svg xmlns="http://www.w3.org/2000/svg" viewBox="0 0 512 512">
<g transform="matrix(14.99999 0 0 14.99999 16.0002 -6649.4283)">
<use width="744.094" height="1052.362" transform="translate(36 440.36217)"/>
</g>
<g fill="#fff" transform="matrix(6 0 0 6 -1088.00003 -3562.1732)">
<path d="m224,184c-6.6274,0-12,5.3726-12,12 0,6.6274 5.3726,12 12,12 6.6274,0 12-5.3726 12-12 0-6.6274-5.3726-12-12-12zm0,8c2.2091,0 4,1.7909 4,4 0,2.2091-1.7909,4-4,4-2.2091,0-4-1.7909-4-4 0-2.2091 1.7909-4 4-4z" transform="translate(0 412.36218)"/>
<path d="m92,66a30,34 0 1,1 -60,0 30,34 0 1,1 60,0z" transform="matrix(.26667 0 0 .23529 207.46667 620.83277)"/>
<path d="m224,652.3622c-6.6274,0-12,5.3726-12,12 0,6.6274 5.3726,12 12,12 6.6274,0 12-5.3726 12-12 0-6.6274-5.3726-12-12-12zm0,8c2.2091,0 4,1.7909 4,4 0,2.2091-1.7909,4-4,4-2.2091,0-4-1.7909-4-4 0-2.2091 1.7909-4 4-4z"/>
<path d="m258.641,616.3622c-3.3137-5.7395-10.6528-7.706-16.3923-4.3923-5.7395,3.3137-7.706,10.6528-4.3923,16.3923 3.3137,5.7395 10.6528,7.706 16.3923,4.3923 5.7395-3.3137 7.706-10.6528 4.3923-16.3923zm-6.9282,4c1.1046,1.9132 .4491,4.3595-1.4641,5.4641-1.9132,1.1046-4.3595,.4491-5.4641-1.4641-1.1046-1.9132-.4491-4.3595 1.4641-5.4641 1.9132-1.1046 4.3595-.4491 5.4641,1.4641z"/>
<path d="m210.1436,644.3622c-3.3137-5.7395-10.6528-7.706-16.3923-4.3923-5.7395,3.3137-7.706,10.6528-4.3923,16.3923 3.3137,5.7395 10.6528,7.706 16.3923,4.3923 5.7395-3.3137 7.706-10.6528 4.3923-16.3923zm-6.9282,4c1.1046,1.9132 .4491,4.3595-1.4641,5.4641-1.9132,1.1046-4.3595,.4491-5.4641-1.4641-1.1046-1.9132-.4491-4.3595 1.4641-5.4641 1.9132-1.1046 4.3595-.4491 5.4641,1.4641z"/>
<path d="m189.359,616.3622c-3.3137,5.7395-1.3472,13.0786 4.3923,16.3923 5.7395,3.3137 13.0786,1.3472 16.3923-4.3923 3.3137-5.7395 1.3472-13.0786-4.3923-16.3923-5.7395-3.3137-13.0786-1.3472-16.3923,4.3923zm6.9282,4c1.1046-1.9132 3.5509-2.5687 5.4641-1.4641 1.9132,1.1046 2.5687,3.5509 1.4641,5.4641-1.1046,1.9132-3.5509,2.5687-5.4641,1.4641-1.9132-1.1046-2.5687-3.5509-1.4641-5.4641z"/>
<path d="m237.8564,644.3622c-3.3137,5.7395-1.3472,13.0786 4.3923,16.3923 5.7395,3.3137 13.0786,1.3472 16.3923-4.3923 3.3137-5.7395 1.3472-13.0786-4.3923-16.3923-5.7395-3.3137-13.0786-1.3472-16.3923,4.3923zm6.9282,4c1.1046-1.9132 3.5509-2.5687 5.4641-1.4641 1.9132,1.1046 2.5687,3.5509 1.4641,5.4641-1.1046,1.9132-3.5509,2.5687-5.4641,1.4641-1.9132-1.1046-2.5687-3.5509-1.4641-5.4641z"/>
</g>
</svg>
