<svg xmlns="http://www.w3.org/2000/svg" viewBox="0 0 512 512">
<g transform="matrix(14.99999 0 0 14.99999 16.0002 -6649.4283)">
<use width="744.094" height="1052.362" transform="translate(36 440.36217)"/>
</g>
<g fill="#fff" transform="matrix(6 0 0 6 -1088.00003 -3562.1732)">
<path d="m 224 184 c -6.6274 0 -12 5.3726 -12 12 0 6.6274 5.3726 12 12 12 6.6274 0 12 -5.3726 12 -12 0 -6.6274 -5.3726 -12 -12 -12 z m 0 8 c 2.2091 0 4 1.7909 4 4 0 2.2091 -1.7909 4 -4 4 -2.2091 0 -4 -1.7909 -4 -4 0 -2.2091 1.7909 -4 4 -4 z" transform="translate(0 412.36218)"/>
<path d="m 92 66 a 30 34 0 1 1 -60 0 30 34 0 1 1 60 0 z" transform="matrix(.26667 0 0 .23529 207.46667 620.83277)"/>
<path d="m 224 652.362 c -6.6274 0 -12 5.3726 -12 12 0 6.6274 5.3726 12 12 12 6.6274 0 12 -5.3726 12 -12 0 -6.6274 -5.3726 -12 -12 -12 z m 0 8 c 2.2091 0 4 1.7909 4 4 0 2.2091 -1.7909 4 -4 4 -2.2091 0 -4 -1.7909 -4 -4 0 -2.2091 1.7909 -4 4 -4 z"/>
<path d="m 258.641 616.362 c -3.3137 -5.7395 -10.6528 -7.706 -16.3923 -4.3923 -5.7395 3.3137 -7.706 10.6528 -4.3923 16.3923 3.3137 5.7395 10.6528 7.706 16.3923 4.3923 5.7395 -3.3137 7.706 -10.6528 4.3923 -16.3923 z m -6.9282 4 c 1.1046 1.9132 0.4491 4.3595 -1.4641 5.4641 -1.9132 1.1046 -4.3595 0.4491 -5.4641 -1.4641 -1.1046 -1.9132 -0.4491 -4.3595 1.4641 -5.4641 1.9132 -1.1046 4.3595 -0.4491 5.4641 1.4641 z"/>
<path d="m 210.144 644.362 c -3.3137 -5.7395 -10.6528 -7.706 -16.3923 -4.3923 -5.7395 3.3137 -7.706 10.6528 -4.3923 16.3923 3.3137 5.7395 10.6528 7.706 16.3923 4.3923 5.7395 -3.3137 7.706 -10.6528 4.3923 -16.3923 z m -6.9282 4 c 1.1046 1.9132 0.4491 4.3595 -1.4641 5.4641 -1.9132 1.1046 -4.3595 0.4491 -5.4641 -1.4641 -1.1046 -1.9132 -0.4491 -4.3595 1.4641 -5.4641 1.9132 -1.1046 4.3595 -0.4491 5.4641 1.4641 z"/>
<path d="m 189.359 616.362 c -3.3137 5.7395 -1.3472 13.0786 4.3923 16.3923 5.7395 3.3137 13.0786 1.3472 16.3923 -4.3923 3.3137 -5.7395 1.3472 -13.0786 -4.3923 -16.3923 -5.7395 -3.3137 -13.0786 -1.3472 -16.3923 4.3923 z m 6.9282 4 c 1.1046 -1.9132 3.5509 -2.5687 5.4641 -1.4641 1.9132 1.1046 2.5687 3.5509 1.4641 5.4641 -1.1046 1.9132 -3.5509 2.5687 -5.4641 1.4641 -1.9132 -1.1046 -2.5687 -3.5509 -1.4641 -5.4641 z"/>
<path d="m 237.856 644.362 c -3.3137 5.7395 -1.3472 13.0786 4.3923 16.3923 5.7395 3.3137 13.0786 1.3472 16.3923 -4.3923 3.3137 -5.7395 1.3472 -13.0786 -4.3923 -16.3923 -5.7395 -3.3137 -13.0786 -1.3472 -16.3923 4.3923 z m 6.9282 4 c 1.1046 -1.9132 3.5509 -2.5687 5.4641 -1.4641 1.9132 1.1046 2.5687 3.5509 1.4641 5.4641 -1.1046 1.9132 -3.5509 2.5687 -5.4641 1.4641 -1.9132 -1.1046 -2.5687 -3.5509 -1.4641 -5.4641 z"/>
</g>
</svg>
