<svg viewBox="0 0 512 512" xmlns="http://www.w3.org/2000/svg">

<g transform="matrix(18.68858,0,0,18.68858,-228.44873,-17252.09562)">
<path d="m34.4788,934.8325c.1578,5.0554-6.4196,6.3351-8.4548,11.3816-1.9267-5.0461-8.3288-6.6301-8.4797-11.3816-.1609-5.0655 6.1076-6.0378 8.4797-1.9266 2.3763-4.4878 8.3068-2.8158 8.4548,1.9266z" fill="#fff" stroke="#000"/>
<path d="m36.3024,937.1101c0,5.3871-4.3671,9.7543-9.7543,9.7543s-9.7543-4.3671-9.7543-9.7543 4.3671-9.7543 9.7543-9.7543 9.7543,4.3671 9.7543,9.7543z" fill="none" stroke="#fff" stroke-width=".868" transform="matrix(1.07435,.41606,-.41606,1.07435,387.35152,-81.10792)"/>
<path d="m350.2581,862.5814h2.0834v2.9042h-2.0834z" stroke="#fff" transform="rotate(21.17)"/>
<path d="m372.6709,862.5814h2.0834v2.9042h-2.0834z" stroke="#fff" transform="rotate(21.17)"/>
<path d="m733.7083,565.5698h2.0834v2.9042h-2.0834z" stroke="#fff" transform="rotate(51.17)"/>
<path d="m756.121,565.5698h2.0834v2.9042h-2.0834z" stroke="#fff" transform="rotate(51.17)"/>
<path d="m917.2799,116.625h2.0834v2.9042h-2.0834z" stroke="#fff" transform="rotate(81.17)"/>
<path d="m939.6926,116.625h2.0834v2.9042h-2.0834z" stroke="#fff" transform="rotate(81.17)"/>
<path d="m851.7853-363.9583h2.0834v2.9042h-2.0834z" stroke="#fff" transform="matrix(-.36113,.93251,-.93251,-.36113,0,0)"/>
<path d="m874.198-363.9583h2.0834v2.9042h-2.0834z" stroke="#fff" transform="matrix(-.36113,.93251,-.93251,-.36113,0,0)"/>
<path d="m554.7737-747.4083h2.0834v2.9042h-2.0834z" stroke="#fff" transform="matrix(-.77901,.62701,-.62701,-.77901,0,0)"/>
<path d="m577.1864-747.4083h2.0834v2.9042h-2.0834z" stroke="#fff" transform="matrix(-.77901,.62701,-.62701,-.77901,0,0)"/>
<path d="m105.829-930.9799h2.0834v2.9042h-2.0834z" stroke="#fff" transform="matrix(-.98815,.15351,-.15351,-.98815,0,0)"/>
<path d="m128.2417-930.9799h2.0834v2.9042h-2.0834z" stroke="#fff" transform="matrix(-.98815,.15351,-.15351,-.98815,0,0)"/>
</g>
</svg>
