<svg viewBox="0 0 512 512" xmlns="http://www.w3.org/2000/svg">

<g transform="matrix(18.68858,0,0,18.68858,-12483.04971,-23820.49204)">
<path d="m 688.311 1285.19 c 0 4.2534 -2.937 7.7053 -6.5558 7.7053 s -6.5558 -3.4519 -6.5558 -7.7053 h 13.1117 z" fill="#fff"/>
<path d="m 680.871 1290.59 c -4e-05 3.1286 -1.3041 5.9837 -3.3757 8.1218 h 8.5095 c -2.0716 -2.1381 -3.3405 -4.9932 -3.3405 -8.1218 h -1.7933 z" fill="#fff"/>
<path d="m 686.657 1299.5 c 0 0.8926 -2.1967 1.6169 -4.9034 1.6169 s -4.9034 -0.7243 -4.9034 -1.6169 2.1967 -1.6168 4.9034 -1.6168 4.9034 0.7244 4.9034 1.6168 z" fill="#fff"/>
<path d="m 687.82 1285 c 0 1.1024 -2.7161 1.9962 -6.0664 1.9962 s -6.0664 -0.8938 -6.0664 -1.9962 2.7161 -1.996 6.0664 -1.996 6.0664 0.8936 6.0664 1.996 z" stroke="#fff" stroke-width=".9999"/>
<path d="m 681.364 1285.19 c -1.0103 0 -2.094 -0.8912 -2.0942 -1.6205 1e-05 -1.4698 1.6579 -3.658 1.9703 -6.5895 0.4777 2.7718 2.0097 5.0238 2.0096 6.5546 7e-05 0.768 -0.8976 1.6554 -1.8858 1.6554 z" fill="#fff" fill-rule="evenodd"/>
<path d="m 685.015 1281.89 c -0.7058 0 -1.4629 -0.6226 -1.463 -1.1321 1e-05 -1.0268 1.1582 -2.5555 1.3765 -4.6035 0.3337 1.9364 1.404 3.5097 1.404 4.5791 5e-05 0.5366 -0.6271 1.1565 -1.3174 1.1565 z" fill="#fff" fill-rule="evenodd"/>
<path d="m 679.095 1282.01 c -0.7838 0 -1.6245 -0.6913 -1.6247 -1.2571 1e-05 -1.1403 1.2862 -2.8379 1.5286 -5.1122 0.3706 2.1503 1.5591 3.8975 1.5591 5.0851 5e-05 0.5959 -0.6964 1.2842 -1.463 1.2842 z" fill="#fff" fill-rule="evenodd"/>
</g>
</svg>
