<svg viewBox="0 0 512 512" xmlns="http://www.w3.org/2000/svg">

<g transform="matrix(18.68858,0,0,18.68858,-12483.04971,-23820.49204)">
<path d="m688.311,1285.1892c0,4.2534-2.937,7.7053-6.5558,7.7053s-6.5558-3.4519-6.5558-7.7053h13.1117z" fill="#fff"/>
<path d="m680.8709,1290.5938c-4e-05,3.1286-1.3041,5.9837-3.3757,8.1218h8.5095c-2.0716-2.1381-3.3405-4.9932-3.3405-8.1218h-1.7933z" fill="#fff"/>
<path d="m686.6566,1299.4988c0,.8926-2.1967,1.6169-4.9034,1.6169s-4.9034-.7243-4.9034-1.6169 2.1967-1.6168 4.9034-1.6168 4.9034.7244 4.9034,1.6168z" fill="#fff"/>
<path d="m687.82,1285.0016c0,1.1024-2.7161,1.9962-6.0664,1.9962s-6.0664-.8938-6.0664-1.9962 2.7161-1.996 6.0664-1.996 6.0664.8936 6.0664,1.996z" stroke="#fff" stroke-width=".9999"/>
<path d="m681.3635,1285.1884c-1.0103,0-2.094-.8912-2.0942-1.6205 1e-05-1.4698 1.6579-3.658 1.9703-6.5895 .4777,2.7718 2.0097,5.0238 2.0096,6.5546 7e-05,.768-.8976,1.6554-1.8858,1.6554z" fill="#fff" fill-rule="evenodd"/>
<path d="m685.0152,1281.8854c-.7058,0-1.4629-.6226-1.463-1.1321 1e-05-1.0268 1.1582-2.5555 1.3765-4.6035 .3337,1.9364 1.404,3.5097 1.404,4.5791 5e-05,.5366-.6271,1.1565-1.3174,1.1565z" fill="#fff" fill-rule="evenodd"/>
<path d="m679.0945,1282.014c-.7838,0-1.6245-.6913-1.6247-1.2571 1e-05-1.1403 1.2862-2.8379 1.5286-5.1122 .3706,2.1503 1.5591,3.8975 1.5591,5.0851 5e-05,.5959-.6964,1.2842-1.463,1.2842z" fill="#fff" fill-rule="evenodd"/>
</g>
</svg>
