<svg viewBox="0 0 512 512" xmlns="http://www.w3.org/2000/svg">

<g transform="matrix(18.68858,0,0,18.68858,-6362.49306,-38782.5841)">
<path d="m 366.517 2091.91 c -1.2392 5.2823 -10.432 6.7638 -11.973 9.4326 5e-05 -3.3678 -6.9686 -8.6496 -5.6785 -14.1623 1.239 -5.2943 8.0151 -4.6989 9.3738 0.3716 3.8025 -3.8025 9.4987 -0.8469 8.2777 4.3581 z" fill="#fff"/>
<path d="m 341.547 2080.67 c 0.6327 2.697 5.3261 3.4535 6.1128 4.816 -3e-05 -1.7194 3.5579 -4.416 2.8992 -7.2307 -0.6326 -2.703 -4.0922 -2.399 -4.7858 0.1897 -1.9414 -1.9412 -4.8496 -0.4323 -4.2262 2.225 z" fill="#fff"/>
</g>
</svg>
