<svg viewBox="0 0 512 512" xmlns="http://www.w3.org/2000/svg">

<g transform="matrix(-20.19663,0,0,17.58427,7570.67274,-5796.74643)">
<path d="m351.2667,335.6079 22.7519,6.8583-6.709-6.5029c-1.6889.9703-4.6451-.7423-2.9367-2.8465l-.9084-.8805c-4.6991-.3983-9.6527.8266-12.1978,3.3716z" fill="#fff" fill-rule="evenodd"/>
<path d="m350.1061,335.7398v12.7812l8.3438,2.4688c2.3194-.7644 4.0556-.2876 5.125,1.5312l10.75,3.2188v-1.9062c-.1905.003-.3863-.008-.5938-.0625-1.2248-.3233-2.2188-1.5853-2.2188-2.8125s.994-1.9796 2.2188-1.6562c.21.0554.4012.1757.5938.2812v-6.5938l-24.2188-7.25z" fill="#fff" stroke="#000" stroke-width=".9664"/>
<path d="m295.9242,342.2943c0,1.2936-1.0487,2.3423-2.3423,2.3423s-2.3423-1.0487-2.3423-2.3423 1.0487-2.3423 2.3423-2.3423 2.3423,1.0487 2.3423,2.3423z" stroke="#000" stroke-width=".8508" transform="matrix(1.16563,0,0,1.16563,19.10746,-47.9549)"/>
<path d="m297.625,330.5184c0,1.398-1.1333,2.5312-2.5312,2.5312s-2.5312-1.1333-2.5312-2.5312 1.1333-2.5312 2.5312-2.5312 2.5312,1.1333 2.5312,2.5312z" fill="#fff" stroke="#000" stroke-width="1.1472" transform="matrix(.8642,.17828,0,.86466,112.86805,3.54302)"/>
<path d="m297.625,330.5184c0,1.398-1.1333,2.5312-2.5312,2.5312s-2.5312-1.1333-2.5312-2.5312 1.1333-2.5312 2.5312-2.5312 2.5312,1.1333 2.5312,2.5312z" fill="none" stroke="#000" stroke-width="1.2004" transform="matrix(.55757,.63261,.71261,-.41549,-34.36898,285.26496)"/>
<path d="m290.1347,336.4828c0,.8909-.7222,1.6131-1.6131,1.6131s-1.6131-.7222-1.6131-1.6131 .7222-1.6131 1.6131-1.6131 1.6131.7222 1.6131,1.6131z" fill="#fff" stroke="#000" stroke-width="1.0948" transform="matrix(.90561,0,0,.90609,93.90728,40.98458)"/>
</g>
</svg>
