<svg xmlns="http://www.w3.org/2000/svg" viewBox="0 0 512 512">
<g transform="matrix(18.68858 0 0 18.68858 -7036.28176 -20446.29695)">
<path fill="#fff" d="m378.0665,1102.8348c-.2258,7.2265 9.1865,9.0561 12.0989,16.27 2.7571-7.2133 11.9186-9.4777 12.1345-16.27 .2302-7.2412-8.74-8.6311-12.1345-2.7542-3.4005-6.4152-11.8871-4.0252-12.0989,2.7542z"/>
<path d="m 389.83 1103.23 0.0771 15.4164 9.6233 -10.6305 c -3.3806 2.8127 -9.2206 1.0399 -8.474 -5.0139 l -1.2264 0.228 z"/>
<path d="m 390.486 1103.23 -0.0771 15.4164 -9.4342 -10.1389 c 3.3806 2.8127 9.0315 0.5483 8.2849 -5.5055 l 1.2264 0.228 z"/>
<path fill="none" stroke="#fff" d="m378.0665,1102.8348c-.2258,7.2265 9.1865,9.0561 12.0989,16.27 2.7571-7.2133 11.9186-9.4777 12.1345-16.27 .2302-7.2412-8.74-8.6311-12.1345-2.7542-3.4005-6.4152-11.8871-4.0252-12.0989,2.7542z"/>
<path d="m 390.2 1100.66 4.9449 6.1611 c -3.5398 -0.8917 -6.7784 -0.6787 -9.8899 0.0001 l 4.945 -6.1612 z"/>
</g>
<g fill="#fff" transform="matrix(18.68858 0 0 18.68858 -7036.28176 -20446.29695)">
<path d="m 390.2 1103.61 2.3267 2.8989 c -1.6656 -0.4196 -3.1894 -0.3193 -4.6534 0.0001 l 2.3267 -2.899 z"/>
<path d="m 389.553 1106 c 0.5203 4.5419 -3.4105 7.6194 -5.7664 5.9811 l 6.2223 5.6056 v 0.3218 l 0.1609 -0.1609 0.1877 0.1609 v -0.3218 l 6.0357 -5.7134 c -2.3559 1.6384 -6.1535 -1.3314 -5.5797 -5.8733 h -1.2606 z"/>
</g>
</svg>
