<svg xmlns="http://www.w3.org/2000/svg" viewBox="0 0 512 512">
<g transform="matrix(18.68858 0 0 18.68858 -7036.28176 -20446.29695)">
<path fill="#fff" d="m378.0665,1102.8348c-.2258,7.2265 9.1865,9.0561 12.0989,16.27 2.7571-7.2133 11.9186-9.4777 12.1345-16.27 .2302-7.2412-8.74-8.6311-12.1345-2.7542-3.4005-6.4152-11.8871-4.0252-12.0989,2.7542z"/>
<path d="m389.83,1103.2288 .0771,15.4164 9.6233-10.6305c-3.3806,2.8127-9.2206,1.0399-8.474-5.0139l-1.2264.228z"/>
<path d="m390.4857,1103.2288-.0771,15.4164-9.4342-10.1389c3.3806,2.8127 9.0315.5483 8.2849-5.5055l1.2264.228z"/>
<path fill="none" stroke="#fff" d="m378.0665,1102.8348c-.2258,7.2265 9.1865,9.0561 12.0989,16.27 2.7571-7.2133 11.9186-9.4777 12.1345-16.27 .2302-7.2412-8.74-8.6311-12.1345-2.7542-3.4005-6.4152-11.8871-4.0252-12.0989,2.7542z"/>
<path d="m390.2002,1100.6647 4.9449,6.1611c-3.5398-.8917-6.7784-.6787-9.8899.0001l4.945-6.1612z"/>
</g>
<g fill="#fff" transform="matrix(18.68858 0 0 18.68858 -7036.28176 -20446.29695)">
<path d="m390.2002,1103.6061 2.3267,2.8989c-1.6656-.4196-3.1894-.3193-4.6534.0001l2.3267-2.899z"/>
<path d="m389.5527,1105.9978c.5203,4.5419-3.4105,7.6194-5.7664,5.9811l6.2223,5.6056v.3218l.1609-.1609 .1877.1609v-.3218l6.0357-5.7134c-2.3559,1.6384-6.1535-1.3314-5.5797-5.8733h-1.2606z"/>
</g>
</svg>
