<svg viewBox="0 0 512 512" xmlns="http://www.w3.org/2000/svg">

<g transform="matrix(-20.19663,0,0,17.58427,7570.67274,-5796.74643)">
<path d="m 351.267 335.608 22.7519 6.8583 -6.709 -6.5029 c -1.6889 0.9703 -4.6451 -0.7423 -2.9367 -2.8465 l -0.9084 -0.8805 c -4.6991 -0.3983 -9.6527 0.8266 -12.1978 3.3716 z" fill="#fff" fill-rule="evenodd"/>
<path d="m 350.106 335.74 v 12.7812 l 8.3438 2.4688 c 2.3194 -0.7644 4.0556 -0.2876 5.125 1.5312 l 10.75 3.2188 v -1.9062 c -0.1905 0.003 -0.3863 -0.008 -0.5938 -0.0625 -1.2248 -0.3233 -2.2188 -1.5853 -2.2188 -2.8125 s 0.994 -1.9796 2.2188 -1.6562 c 0.21 0.0554 0.4012 0.1757 0.5938 0.2812 v -6.5938 l -24.2188 -7.25 z" fill="#fff" stroke="#000" stroke-width=".9664"/>
<path d="m 295.924 342.294 c 0 1.2936 -1.0487 2.3423 -2.3423 2.3423 s -2.3423 -1.0487 -2.3423 -2.3423 1.0487 -2.3423 2.3423 -2.3423 2.3423 1.0487 2.3423 2.3423 z" stroke="#000" stroke-width=".8508" transform="matrix(1.16563,0,0,1.16563,19.10746,-47.9549)"/>
<path d="m 297.625 330.518 c 0 1.398 -1.1333 2.5312 -2.5312 2.5312 s -2.5312 -1.1333 -2.5312 -2.5312 1.1333 -2.5312 2.5312 -2.5312 2.5312 1.1333 2.5312 2.5312 z" fill="#fff" stroke="#000" stroke-width="1.1472" transform="matrix(.8642,.17828,0,.86466,112.86805,3.54302)"/>
<path d="m 297.625 330.518 c 0 1.398 -1.1333 2.5312 -2.5312 2.5312 s -2.5312 -1.1333 -2.5312 -2.5312 1.1333 -2.5312 2.5312 -2.5312 2.5312 1.1333 2.5312 2.5312 z" fill="none" stroke="#000" stroke-width="1.2004" transform="matrix(.55757,.63261,.71261,-.41549,-34.36898,285.26496)"/>
<path d="m 290.135 336.483 c 0 0.8909 -0.7222 1.6131 -1.6131 1.6131 s -1.6131 -0.7222 -1.6131 -1.6131 0.7222 -1.6131 1.6131 -1.6131 1.6131 0.7222 1.6131 1.6131 z" fill="#fff" stroke="#000" stroke-width="1.0948" transform="matrix(.90561,0,0,.90609,93.90728,40.98458)"/>
</g>
</svg>
