<svg viewBox="0 0 512 512" xmlns="http://www.w3.org/2000/svg">

<g transform="matrix(18.68858,0,0,18.68858,-3388.64832,-2849.67991)">
<path d="m188.4704,157.165h13.5589v18.2964h-13.5589z" stroke="#fff"/>
<path d="m189.9466,161.5486h10.6508v12.7285h-10.6508z" fill="#fff"/>
<path d="m195.2941,170.8431c0,1.1105-.9003,2.0108-2.0108,2.0108s-2.0108-.9003-2.0108-2.0108 .9003-2.0108 2.0108-2.0108 2.0108.9003 2.0108,2.0108z" transform="matrix(.83443,0,0,.83443,32.76961,19.50332)"/>
<path d="m186.1459,152.9665h18.208v4.9497h-18.208z" fill="#fff" stroke="#000"/>
<path d="m195.2941,170.8431c0,1.1105-.9003,2.0108-2.0108,2.0108s-2.0108-.9003-2.0108-2.0108 .9003-2.0108 2.0108-2.0108 2.0108.9003 2.0108,2.0108z" transform="matrix(.68731,0,0,.68731,63.81188,52.51904)"/>
<path d="m186.1459,174.3565h18.208v4.9497h-18.208z" fill="#fff" stroke="#000"/>
<path d="m195.2941,170.8431c0,1.1105-.9003,2.0108-2.0108,2.0108s-2.0108-.9003-2.0108-2.0108 .9003-2.0108 2.0108-2.0108 2.0108.9003 2.0108,2.0108z" transform="matrix(1.16506,0,0,1.16506,-27.8505,-33.50064)"/>
<path d="m195.2941,170.8431c0,1.1105-.9003,2.0108-2.0108,2.0108s-2.0108-.9003-2.0108-2.0108 .9003-2.0108 2.0108-2.0108 2.0108.9003 2.0108,2.0108z" transform="matrix(.68731,0,0,.68731,60.14213,48.27284)"/>
<path d="m195.2941,170.8431c0,1.1105-.9003,2.0108-2.0108,2.0108s-2.0108-.9003-2.0108-2.0108 .9003-2.0108 2.0108-2.0108 2.0108.9003 2.0108,2.0108z" transform="matrix(.46223,0,0,.46223,108.00155,82.50401)"/>
</g>
</svg>
