<svg viewBox="0 0 512 512" xmlns="http://www.w3.org/2000/svg">

<path d="m 324.312 742.737 c 0 1.2426 -1.0074 2.25 -2.25 2.25 s -2.25 -1.0074 -2.25 -2.25 1.0074 -2.25 2.25 -2.25 2.25 1.0074 2.25 2.25 z" fill="#fff" transform="matrix(-25.95477,2.64317,2.64317,25.95477,6624.24141,-19949.02161)"/>
<path d="m 324.312 742.737 c 0 1.2426 -1.0074 2.25 -2.25 2.25 s -2.25 -1.0074 -2.25 -2.25 1.0074 -2.25 2.25 -2.25 2.25 1.0074 2.25 2.25 z" fill="#fff" transform="matrix(-27.24582,2.77465,2.77465,27.24582,6983.56809,-20850.28131)"/>
<path d="m 324.312 742.737 c 0 1.2426 -1.0074 2.25 -2.25 2.25 s -2.25 -1.0074 -2.25 -2.25 1.0074 -2.25 2.25 -2.25 2.25 1.0074 2.25 2.25 z" fill="#fff" transform="matrix(-19.76855,2.01318,2.01318,19.76855,5063.13439,-15090.86742)"/>
<path d="m 324.312 742.737 c 0 1.2426 -1.0074 2.25 -2.25 2.25 s -2.25 -1.0074 -2.25 -2.25 1.0074 -2.25 2.25 -2.25 2.25 1.0074 2.25 2.25 z" fill="#fff" transform="matrix(-17.3114,1.76295,1.76295,17.3114,4385.42695,-13308.72979)"/>
<path d="m 324.312 742.737 c 0 1.2426 -1.0074 2.25 -2.25 2.25 s -2.25 -1.0074 -2.25 -2.25 1.0074 -2.25 2.25 -2.25 2.25 1.0074 2.25 2.25 z" fill="#fff" transform="matrix(-11.32521,1.15333,1.15333,11.32521,2869.82514,-8677.19081)"/>
<path d="m 324.312 742.737 c 0 1.2426 -1.0074 2.25 -2.25 2.25 s -2.25 -1.0074 -2.25 -2.25 1.0074 -2.25 2.25 -2.25 2.25 1.0074 2.25 2.25 z" fill="#fff" transform="matrix(-9.76597,.99454,.99454,9.76597,2600.98221,-7497.90219)"/>
<path d="m 324.312 742.737 c 0 1.2426 -1.0074 2.25 -2.25 2.25 s -2.25 -1.0074 -2.25 -2.25 1.0074 -2.25 2.25 -2.25 2.25 1.0074 2.25 2.25 z" fill="#fff" transform="matrix(-10.17658,1.03636,1.03636,10.17658,2547.07705,-7854.2886)"/>
<path d="m 324.312 742.737 c 0 1.2426 -1.0074 2.25 -2.25 2.25 s -2.25 -1.0074 -2.25 -2.25 1.0074 -2.25 2.25 -2.25 2.25 1.0074 2.25 2.25 z" fill="#fff" transform="matrix(-13.02176,1.3261,1.3261,13.02176,3408.43663,-9734.41702)"/>
<path d="m 324.312 742.737 c 0 1.2426 -1.0074 2.25 -2.25 2.25 s -2.25 -1.0074 -2.25 -2.25 1.0074 -2.25 2.25 -2.25 2.25 1.0074 2.25 2.25 z" fill="#fff" transform="matrix(-6.01986,.61305,.61305,6.01986,1643.95055,-4630.87533)"/>
<path d="m 324.312 742.737 c 0 1.2426 -1.0074 2.25 -2.25 2.25 s -2.25 -1.0074 -2.25 -2.25 1.0074 -2.25 2.25 -2.25 2.25 1.0074 2.25 2.25 z" fill="#fff" transform="matrix(-6.01986,.61305,.61305,6.01986,1544.99226,-4452.63895)"/>
<path d="m 324.312 742.737 c 0 1.2426 -1.0074 2.25 -2.25 2.25 s -2.25 -1.0074 -2.25 -2.25 1.0074 -2.25 2.25 -2.25 2.25 1.0074 2.25 2.25 z" fill="#fff" transform="matrix(-11.57857,1.17914,1.17914,11.57857,2938.15639,-8744.74443)"/>
<path d="m 324.312 742.737 c 0 1.2426 -1.0074 2.25 -2.25 2.25 s -2.25 -1.0074 -2.25 -2.25 1.0074 -2.25 2.25 -2.25 2.25 1.0074 2.25 2.25 z" fill="#fff" transform="matrix(-52.1199,5.30776,5.30776,52.1199,13221.61233,-40042.81763)"/>
<path d="m 324.312 742.737 c 0 1.2426 -1.0074 2.25 -2.25 2.25 s -2.25 -1.0074 -2.25 -2.25 1.0074 -2.25 2.25 -2.25 2.25 1.0074 2.25 2.25 z" fill="#fff" transform="matrix(-19.21289,1.95659,1.95659,19.21289,4888.96297,-14541.28293)"/>
<path d="m 324.312 742.737 c 0 1.2426 -1.0074 2.25 -2.25 2.25 s -2.25 -1.0074 -2.25 -2.25 1.0074 -2.25 2.25 -2.25 2.25 1.0074 2.25 2.25 z" fill="#fff" transform="matrix(-29.79951,3.03471,3.03471,29.79951,7713.7669,-22851.97988)"/>
<path d="m 324.312 742.737 c 0 1.2426 -1.0074 2.25 -2.25 2.25 s -2.25 -1.0074 -2.25 -2.25 1.0074 -2.25 2.25 -2.25 2.25 1.0074 2.25 2.25 z" fill="#fff" transform="matrix(-13.02176,1.3261,1.3261,13.02176,3546.03562,-9946.53617)"/>
<path d="m 324.312 742.737 c 0 1.2426 -1.0074 2.25 -2.25 2.25 s -2.25 -1.0074 -2.25 -2.25 1.0074 -2.25 2.25 -2.25 2.25 1.0074 2.25 2.25 z" fill="#fff" transform="matrix(-8.75859,.89195,.89195,8.75859,2264.00539,-6494.5064)"/>
<path d="m 324.312 742.737 c 0 1.2426 -1.0074 2.25 -2.25 2.25 s -2.25 -1.0074 -2.25 -2.25 1.0074 -2.25 2.25 -2.25 2.25 1.0074 2.25 2.25 z" fill="#fff" transform="matrix(-6.01986,.61305,.61305,6.01986,1880.16938,-4505.80199)"/>
<path d="m 324.312 742.737 c 0 1.2426 -1.0074 2.25 -2.25 2.25 s -2.25 -1.0074 -2.25 -2.25 1.0074 -2.25 2.25 -2.25 2.25 1.0074 2.25 2.25 z" fill="#fff" transform="matrix(-15.8793,1.61711,1.61711,15.8793,4176.6596,-11887.75208)"/>
<path d="m 324.312 742.737 c 0 1.2426 -1.0074 2.25 -2.25 2.25 s -2.25 -1.0074 -2.25 -2.25 1.0074 -2.25 2.25 -2.25 2.25 1.0074 2.25 2.25 z" fill="#fff" transform="matrix(-6.01986,.61305,.61305,6.01986,1568.1519,-4612.92925)"/>
<path d="m 324.312 742.737 c 0 1.2426 -1.0074 2.25 -2.25 2.25 s -2.25 -1.0074 -2.25 -2.25 1.0074 -2.25 2.25 -2.25 2.25 1.0074 2.25 2.25 z" fill="#fff" transform="matrix(-10.9442,1.11453,1.11453,10.9442,2828.92779,-8324.40065)"/>
</svg>
