<svg viewBox="0 0 512 512" xmlns="http://www.w3.org/2000/svg">

<g transform="matrix(18.68858,0,0,18.68858,-5674.68962,-5679.61869)">
<path d="m326.6407,308.5161c-6.4413,2.1059-12.481,4.0165-18.8146,6.0565-1.9088.6147-3.0348,2.4137-2.5142,4.013s2.4947,2.4055 4.4005,1.7813c6.3235-2.0707 12.3655-3.9752 18.8147-6.0565" fill="#fff" stroke="#fff"/>
<path d="m328.6591,308.7798c-5.4001,1.7564-15.9849,5.1575-20.4413,6.5935-1.4467.4661-2.3194,1.7702-1.9484,2.9092s1.8477,1.6902 3.2923,1.2174c4.4688-1.4625 15.1265-4.8843 20.5095-6.6193" fill="none" stroke="#000"/>
<path d="m329.7815,313.0354h-13.3048l11.5968-3.7514 1.708,3.7514z"/>
<path d="m325.1307,312.372c0,1.6942-.8403,3.0676-1.8769,3.0676s-1.8769-1.3734-1.8769-3.0676 .8403-3.0676 1.8769-3.0676 1.8769,1.3734 1.8769,3.0676z" stroke="#fff" stroke-width=".8789" transform="matrix(1.1038,-.29322,.29576,1.09432,-121.74254,64.43399)"/>
<path d="m324.2034,313.0364h5.4229c-.4947,1.8467-2.4736,1.9275-3.7104.1998l-1.7125-.1998z" fill="#fff" fill-rule="evenodd"/>
<path d="m329.5505,316.6506c0,.5907-.4789,1.0696-1.0696,1.0696s-1.0696-.4789-1.0696-1.0696 .4789-1.0696 1.0696-1.0696 1.0696.4789 1.0696,1.0696z" fill="#fff" transform="matrix(.83019,0,0,.83019,55.31559,52.98376)"/>
<path d="m330.1842,324.0327c0,1.1965-.971,2.1675-2.1675,2.1675s-2.1675-.971-2.1675-2.1675c0-1.9813 1.2606-1.5114 2.1675-4.8961 .9231,3.4449 2.1675,2.7574 2.1675,4.8961z" fill="#fff"/>
</g>
</svg>
