<svg viewBox="0 0 512 512" xmlns="http://www.w3.org/2000/svg">

<g transform="matrix(18.68858,0,0,18.68858,-4993.65797,-36766.50976)">
<path d="m 280.584 1985.14 c 0 -2.8342 4.5389 -2.5957 4.5389 0.2502 s -4.5389 2.5837 -4.5389 -0.2502 z" fill="#fff"/>
<path d="m 277.156 1987 c 0 -2.8341 4.5389 -2.5957 4.5389 0.2502 s -4.5389 2.5837 -4.5389 -0.2502 z" fill="#fff"/>
<path d="m 275.005 1979.73 c 0 -3.2344 5.1799 -2.9623 5.1799 0.2857 s -5.1799 2.9486 -5.1799 -0.2857 z" fill="#fff"/>
<path d="m 278.919 1979.15 c 0 -2.8341 4.5389 -2.5956 4.5389 0.2504 s -4.5389 2.5836 -4.5389 -0.2504 z" fill="#fff"/>
<path d="m 287.614 1985.02 c 0 -2.8341 4.5389 -2.5957 4.5389 0.2503 s -4.5389 2.5837 -4.5389 -0.2503 z" fill="#fff"/>
<path d="m 285.058 1991.53 c 0 -2.8342 4.5389 -2.5957 4.5389 0.2502 s -4.5389 2.5837 -4.5389 -0.2502 z" fill="#fff"/>
<path d="m 280.584 1989.17 c 0 -2.2538 3.6093 -2.0642 3.6093 0.1989 s -3.6093 2.0545 -3.6093 -0.1989 z" fill="#fff"/>
<path d="m 283.257 1988.88 c 0 -2.2536 3.6093 -2.064 3.6093 0.199 s -3.6093 2.0545 -3.6093 -0.199 z" fill="#fff"/>
<path d="m 288.935 1990.73 c 0.744 -2.7766 5.1281 -1.3514 4.3811 1.4367 s -5.125 1.3396 -4.3811 -1.4367 z" fill="#fff"/>
<path d="m 289.299 1987.28 c 0 -2.7029 4.3286 -2.4754 4.3286 0.2386 s -4.3286 2.4641 -4.3286 -0.2386 z" fill="#fff"/>
<path d="m 282.065 1982.05 c 0 -3.1687 5.0746 -2.9022 5.0746 0.2797 s -5.0746 2.8886 -5.0746 -0.2797 z" fill="#fff"/>
<path d="m 277.796 1981.91 c 0 -2.2537 3.6093 -2.064 3.6093 0.199 s -3.6093 2.0546 -3.6093 -0.199 z" fill="#fff"/>
<path d="m 279.422 1983.94 c 0 -2.2537 3.6093 -2.064 3.6093 0.199 s -3.6093 2.0546 -3.6093 -0.199 z" fill="#fff"/>
<path d="m 273.612 1977.32 c 0 -2.2537 3.6093 -2.0641 3.6093 0.199 s -3.6093 2.0545 -3.6093 -0.199 z" fill="#fff"/>
<path d="m 285.288 1980.09 c 0 -2.2537 3.6093 -2.0641 3.6093 0.199 s -3.6093 2.0546 -3.6093 -0.199 z" fill="#fff"/>
<path d="m 287.008 1982.42 c 0 -2.2538 3.6093 -2.0641 3.6093 0.199 s -3.6093 2.0545 -3.6093 -0.199 z" fill="#fff"/>
<path d="m 290.171 1983.25 c 0 -1.5208 2.4354 -1.3928 2.4354 0.1342 s -2.4354 1.3864 -2.4354 -0.1342 z" fill="#fff"/>
<path d="m 277.738 1991.56 c 0 -1.5206 2.4354 -1.3927 2.4354 0.1344 s -2.4354 1.3864 -2.4354 -0.1344 z" fill="#fff"/>
<path d="m 273.913 1972.92 c 0 -2.2364 3.5814 -2.0482 3.5814 0.1975 s -3.5814 2.0387 -3.5814 -0.1975 z" fill="#fff"/>
<path d="m 268.487 1972.31 c 0 -1.8533 2.9682 -1.6974 2.9682 0.1638 s -2.9682 1.6895 -2.9682 -0.1638 z" fill="#fff"/>
<path d="m 275.657 1975.2 c 0 -1.8333 2.9362 -1.6791 2.9362 0.1619 s -2.9362 1.6714 -2.9362 -0.1619 z" fill="#fff"/>
<path d="m 289.59 1979 c 0 -1.1578 1.8544 -1.0605 1.8544 0.1026 s -1.8544 1.0555 -1.8544 -0.1026 z" fill="#fff"/>
<path d="m 273.808 1983.99 c 0.2997 -1.1185 -1.5167 -1.5045 -1.8178 -0.381 s 1.5181 1.4995 1.8178 0.381 z" fill="#fff"/>
<path d="m 275.881 1984.71 c 0.4095 -1.5282 -2.0726 -2.0555 -2.4839 -0.5205 s 2.0743 2.0492 2.4839 0.5205 z" fill="#fff"/>
<path d="m 272.407 1971.8 c 0 -1.396 2.2357 -1.2786 2.2357 0.1235 s -2.2357 1.2727 -2.2357 -0.1235 z" fill="#fff"/>
<path d="m 269.857 1969.1 c 0 -1.1579 1.8544 -1.0606 1.8544 0.1025 s -1.8544 1.0555 -1.8544 -0.1025 z" fill="#fff"/>
<path d="m 267.746 1969.64 15.6453 15.5624 c 0 0 -0.6406 0.7458 -3.2344 1.9624 2.8535 1.9026 7.3342 3.6517 11.0295 3.8699 0.161 -3.7212 -1.8842 -7.8965 -3.9529 -10.7529 -0.6532 1.8533 -2.1286 3.2341 -2.1286 3.2341 l -15.8111 -15.7282 -1.548 0.0001 z"/>
<path d="m 270.897 1973.62 c 0 -1.1578 1.8544 -1.0605 1.8544 0.1026 s -1.8544 1.0555 -1.8544 -0.1026 z" fill="#fff"/>
<path d="m 268.915 1976.56 c 0 -1.1579 1.8544 -1.0606 1.8544 0.1025 s -1.8544 1.0555 -1.8544 -0.1025 z" fill="#fff"/>
<path d="m 276.902 1979.31 c 0 -1.1579 1.8544 -1.0606 1.8544 0.1025 s -1.8544 1.0555 -1.8544 -0.1025 z" fill="#fff"/>
<path d="m 276.872 1990.74 c 0.2225 -0.8304 1.5349 -0.3999 1.3102 0.4299 s -1.5332 0.3994 -1.3102 -0.4299 z" fill="#fff"/>
<path d="m 285.608 1976.68 c 0.2225 -0.8304 1.5349 -0.3999 1.3102 0.4299 s -1.5332 0.3994 -1.3102 -0.4299 z" fill="#fff"/>
<path d="m 276.844 1984.87 c 0.2225 -0.8304 1.5349 -0.3999 1.3102 0.4299 s -1.5332 0.3994 -1.3102 -0.4299 z" fill="#fff"/>
<path d="m 282.486 1971.87 c 0 -1.1578 1.8544 -1.0605 1.8544 0.1026 s -1.8544 1.0555 -1.8544 -0.1026 z" fill="#fff"/>
<path d="m 285.574 1977.1 c 1.9496 -1.1254 -0.0172 -4.1536 -1.9756 -3.0228 s 0.0253 4.1488 1.9756 3.0228 z" fill="#fff"/>
<path d="m 291.739 1981.25 c 0.7446 -0.4298 1.3681 0.8027 0.6225 1.2305 s -1.3665 -0.8017 -0.6225 -1.2305 z" fill="#fff"/>
<path d="m 283.283 1991.71 c 0.7446 -0.4298 1.3681 0.8027 0.6225 1.2305 s -1.3665 -0.8017 -0.6225 -1.2305 z" fill="#fff"/>
<path d="m 284.559 1983.41 c 0.2226 -0.8303 1.535 -0.3999 1.3103 0.43 s -1.5332 0.3994 -1.3103 -0.43 z" fill="#fff"/>
</g>
</svg>
