<svg viewBox="0 0 512 512" xmlns="http://www.w3.org/2000/svg">

<g transform="matrix(18.68858,0,0,18.68858,-5674.68962,-5679.61869)">
<path d="m 326.641 308.516 c -6.4413 2.1059 -12.481 4.0165 -18.8146 6.0565 -1.9088 0.6147 -3.0348 2.4137 -2.5142 4.013 s 2.4947 2.4055 4.4005 1.7813 c 6.3235 -2.0707 12.3655 -3.9752 18.8147 -6.0565" fill="#fff" stroke="#fff"/>
<path d="m 328.659 308.78 c -5.4001 1.7564 -15.9849 5.1575 -20.4413 6.5935 -1.4467 0.4661 -2.3194 1.7702 -1.9484 2.9092 s 1.8477 1.6902 3.2923 1.2174 c 4.4688 -1.4625 15.1265 -4.8843 20.5095 -6.6193" fill="none" stroke="#000"/>
<path d="m 329.781 313.035 h -13.3048 l 11.5968 -3.7514 1.708 3.7514 z"/>
<path d="m 325.131 312.372 c 0 1.6942 -0.8403 3.0676 -1.8769 3.0676 s -1.8769 -1.3734 -1.8769 -3.0676 0.8403 -3.0676 1.8769 -3.0676 1.8769 1.3734 1.8769 3.0676 z" stroke="#fff" stroke-width=".8789" transform="matrix(1.1038,-.29322,.29576,1.09432,-121.74254,64.43399)"/>
<path d="m 324.203 313.036 h 5.4229 c -0.4947 1.8467 -2.4736 1.9275 -3.7104 0.1998 l -1.7125 -0.1998 z" fill="#fff" fill-rule="evenodd"/>
<path d="m 329.55 316.651 c 0 0.5907 -0.4789 1.0696 -1.0696 1.0696 s -1.0696 -0.4789 -1.0696 -1.0696 0.4789 -1.0696 1.0696 -1.0696 1.0696 0.4789 1.0696 1.0696 z" fill="#fff" transform="matrix(.83019,0,0,.83019,55.31559,52.98376)"/>
<path d="m 330.184 324.033 c 0 1.1965 -0.971 2.1675 -2.1675 2.1675 s -2.1675 -0.971 -2.1675 -2.1675 c 0 -1.9813 1.2606 -1.5114 2.1675 -4.8961 0.9231 3.4449 2.1675 2.7574 2.1675 4.8961 z" fill="#fff"/>
</g>
</svg>
