<svg viewBox="0 0 512 512" xmlns="http://www.w3.org/2000/svg">

<g transform="matrix(18.68858,0,0,18.68858,-3388.64832,-2849.67991)">
<path d="m 188.47 157.165 h 13.5589 v 18.2964 h -13.5589 z" stroke="#fff"/>
<path d="m 189.947 161.549 h 10.6508 v 12.7285 h -10.6508 z" fill="#fff"/>
<path d="m 195.294 170.843 c 0 1.1105 -0.9003 2.0108 -2.0108 2.0108 s -2.0108 -0.9003 -2.0108 -2.0108 0.9003 -2.0108 2.0108 -2.0108 2.0108 0.9003 2.0108 2.0108 z" transform="matrix(.83443,0,0,.83443,32.76961,19.50332)"/>
<path d="m 186.146 152.966 h 18.208 v 4.9497 h -18.208 z" fill="#fff" stroke="#000"/>
<path d="m 195.294 170.843 c 0 1.1105 -0.9003 2.0108 -2.0108 2.0108 s -2.0108 -0.9003 -2.0108 -2.0108 0.9003 -2.0108 2.0108 -2.0108 2.0108 0.9003 2.0108 2.0108 z" transform="matrix(.68731,0,0,.68731,63.81188,52.51904)"/>
<path d="m 186.146 174.357 h 18.208 v 4.9497 h -18.208 z" fill="#fff" stroke="#000"/>
<path d="m 195.294 170.843 c 0 1.1105 -0.9003 2.0108 -2.0108 2.0108 s -2.0108 -0.9003 -2.0108 -2.0108 0.9003 -2.0108 2.0108 -2.0108 2.0108 0.9003 2.0108 2.0108 z" transform="matrix(1.16506,0,0,1.16506,-27.8505,-33.50064)"/>
<path d="m 195.294 170.843 c 0 1.1105 -0.9003 2.0108 -2.0108 2.0108 s -2.0108 -0.9003 -2.0108 -2.0108 0.9003 -2.0108 2.0108 -2.0108 2.0108 0.9003 2.0108 2.0108 z" transform="matrix(.68731,0,0,.68731,60.14213,48.27284)"/>
<path d="m 195.294 170.843 c 0 1.1105 -0.9003 2.0108 -2.0108 2.0108 s -2.0108 -0.9003 -2.0108 -2.0108 0.9003 -2.0108 2.0108 -2.0108 2.0108 0.9003 2.0108 2.0108 z" transform="matrix(.46223,0,0,.46223,108.00155,82.50401)"/>
</g>
</svg>
