<svg viewBox="0 0 512 512" xmlns="http://www.w3.org/2000/svg">

<g transform="matrix(18.68858,0,0,18.68858,-4993.65797,-36766.50976)">
<path d="m280.5843,1985.1385c0-2.8342 4.5389-2.5957 4.5389.2502s-4.5389,2.5837-4.5389-.2502z" fill="#fff"/>
<path d="m277.1565,1986.9977c0-2.8341 4.5389-2.5957 4.5389.2502s-4.5389,2.5837-4.5389-.2502z" fill="#fff"/>
<path d="m275.0048,1979.7284c0-3.2344 5.1799-2.9623 5.1799.2857s-5.1799,2.9486-5.1799-.2857z" fill="#fff"/>
<path d="m278.9194,1979.153c0-2.8341 4.5389-2.5956 4.5389.2504s-4.5389,2.5836-4.5389-.2504z" fill="#fff"/>
<path d="m287.6144,1985.0223c0-2.8341 4.5389-2.5957 4.5389.2503s-4.5389,2.5837-4.5389-.2503z" fill="#fff"/>
<path d="m285.058,1991.5295c0-2.8342 4.5389-2.5957 4.5389.2502s-4.5389,2.5837-4.5389-.2502z" fill="#fff"/>
<path d="m280.5843,1989.1731c0-2.2538 3.6093-2.0642 3.6093.1989s-3.6093,2.0545-3.6093-.1989z" fill="#fff"/>
<path d="m283.2569,1988.8825c0-2.2536 3.6093-2.064 3.6093.199s-3.6093,2.0545-3.6093-.199z" fill="#fff"/>
<path d="m288.9355,1990.7303c.744-2.7766 5.1281-1.3514 4.3811,1.4367s-5.125,1.3396-4.3811-1.4367z" fill="#fff"/>
<path d="m289.2993,1987.2807c0-2.7029 4.3286-2.4754 4.3286.2386s-4.3286,2.4641-4.3286-.2386z" fill="#fff"/>
<path d="m282.0645,1982.0492c0-3.1687 5.0746-2.9022 5.0746.2797s-5.0746,2.8886-5.0746-.2797z" fill="#fff"/>
<path d="m277.7956,1981.9105c0-2.2537 3.6093-2.064 3.6093.199s-3.6093,2.0546-3.6093-.199z" fill="#fff"/>
<path d="m279.4224,1983.944c0-2.2537 3.6093-2.064 3.6093.199s-3.6093,2.0546-3.6093-.199z" fill="#fff"/>
<path d="m273.6124,1977.3207c0-2.2537 3.6093-2.0641 3.6093.199s-3.6093,2.0545-3.6093-.199z" fill="#fff"/>
<path d="m285.2875,1980.0912c0-2.2537 3.6093-2.0641 3.6093.199s-3.6093,2.0546-3.6093-.199z" fill="#fff"/>
<path d="m287.0076,1982.4223c0-2.2538 3.6093-2.0641 3.6093.199s-3.6093,2.0545-3.6093-.199z" fill="#fff"/>
<path d="m290.1708,1983.2503c0-1.5208 2.4354-1.3928 2.4354.1342s-2.4354,1.3864-2.4354-.1342z" fill="#fff"/>
<path d="m277.7375,1991.5584c0-1.5206 2.4354-1.3927 2.4354.1344s-2.4354,1.3864-2.4354-.1344z" fill="#fff"/>
<path d="m273.9135,1972.9229c0-2.2364 3.5814-2.0482 3.5814.1975s-3.5814,2.0387-3.5814-.1975z" fill="#fff"/>
<path d="m268.4868,1972.3084c0-1.8533 2.9682-1.6974 2.9682.1638s-2.9682,1.6895-2.9682-.1638z" fill="#fff"/>
<path d="m275.6569,1975.2003c0-1.8333 2.9362-1.6791 2.9362.1619s-2.9362,1.6714-2.9362-.1619z" fill="#fff"/>
<path d="m289.5898,1979.0005c0-1.1578 1.8544-1.0605 1.8544.1026s-1.8544,1.0555-1.8544-.1026z" fill="#fff"/>
<path d="m273.808,1983.9862c.2997-1.1185-1.5167-1.5045-1.8178-.381s1.5181,1.4995 1.8178.381z" fill="#fff"/>
<path d="m275.8809,1984.7069c.4095-1.5282-2.0726-2.0555-2.4839-.5205s2.0743,2.0492 2.4839.5205z" fill="#fff"/>
<path d="m272.4072,1971.7997c0-1.396 2.2357-1.2786 2.2357.1235s-2.2357,1.2727-2.2357-.1235z" fill="#fff"/>
<path d="m269.8569,1969.1038c0-1.1579 1.8544-1.0606 1.8544.1025s-1.8544,1.0555-1.8544-.1025z" fill="#fff"/>
<path d="m267.7461,1969.6377 15.6453,15.5624c0,0-.6406.7458-3.2344,1.9624 2.8535,1.9026 7.3342,3.6517 11.0295,3.8699 .161-3.7212-1.8842-7.8965-3.9529-10.7529-.6532,1.8533-2.1286,3.2341-2.1286,3.2341l-15.8111-15.7282-1.548.0001z"/>
<path d="m270.8965,1973.6151c0-1.1578 1.8544-1.0605 1.8544.1026s-1.8544,1.0555-1.8544-.1026z" fill="#fff"/>
<path d="m268.915,1976.5638c0-1.1579 1.8544-1.0606 1.8544.1025s-1.8544,1.0555-1.8544-.1025z" fill="#fff"/>
<path d="m276.9025,1979.3142c0-1.1579 1.8544-1.0606 1.8544.1025s-1.8544,1.0555-1.8544-.1025z" fill="#fff"/>
<path d="m276.8722,1990.7361c.2225-.8304 1.5349-.3999 1.3102.4299s-1.5332.3994-1.3102-.4299z" fill="#fff"/>
<path d="m285.6081,1976.6826c.2225-.8304 1.5349-.3999 1.3102.4299s-1.5332.3994-1.3102-.4299z" fill="#fff"/>
<path d="m276.8438,1984.8695c.2225-.8304 1.5349-.3999 1.3102.4299s-1.5332.3994-1.3102-.4299z" fill="#fff"/>
<path d="m282.4863,1971.8729c0-1.1578 1.8544-1.0605 1.8544.1026s-1.8544,1.0555-1.8544-.1026z" fill="#fff"/>
<path d="m285.5736,1977.1031c1.9496-1.1254-.0172-4.1536-1.9756-3.0228s.0253,4.1488 1.9756,3.0228z" fill="#fff"/>
<path d="m291.7391,1981.2519c.7446-.4298 1.3681.8027.6225,1.2305s-1.3665-.8017-.6225-1.2305z" fill="#fff"/>
<path d="m283.283,1991.7108c.7446-.4298 1.3681.8027.6225,1.2305s-1.3665-.8017-.6225-1.2305z" fill="#fff"/>
<path d="m284.5588,1983.4078c.2226-.8303 1.535-.3999 1.3103.43s-1.5332.3994-1.3103-.43z" fill="#fff"/>
</g>
</svg>
