<svg viewBox="0 0 512 512" xmlns="http://www.w3.org/2000/svg">

<g transform="matrix(18.68858,0,0,18.68858,-2280.81889,-47617.78691)">
<path d="m125.4407,2571.9178c-1.5501,1.0862-2.9345-.8906-2.2091-1.7539 .7626-.9285 1.2559-.467 2.6306-.9791 1.7828-.6642 7.0275-4.7496 8.8031-7.0539l1.5596,1.4441c-2.4734,2.1951-7.6627,6.0181-8.5161,9.2032-.8594,3.1017-3.6816,1.3521-2.2682-.8604z" fill="#fff"/>
<path d="m136.5112,2553.3911c-3.0024,4.5349-3.5042,7.1616-3.5694,9.1472-.0846,2.5781 1.3999,1.132 1.9163,2.3464 2.0426.1169 5.3085.2722 9.7158-2.0058 10.1212-5.2313.6511-22.6493-8.0627-9.4878z" fill="#fff" stroke="#000"/>
<path d="m137.0795,2563.4321c3.483-1.2132 7.1583-3.1468 10.1982-5.3455-2.0513,2.7993-5.4204,5.4693-10.1982,5.3455z"/>
<path d="m143.2481,2559.5435c1.892-2.0368 3.4674-4.2297 3.4153-6.7536 1.3728,2.7697.3752,5.0592-3.4153,6.7536z"/>
<path d="m134.5939,2557.3247c1.4835,1.4094 3.2201.5937 2.6825-.8129 2.0304,1.0711 3.8817-.5492 1.978-2.6553 1.4161.3361 2.5337-1.1344.7045-2.5741-3.2205-2.5346-8.1059,3.4383-5.3649,6.0423z"/>
</g>
</svg>
