<svg viewBox="0 0 512 512" xmlns="http://www.w3.org/2000/svg">

<g transform="matrix(18.68858,0,0,18.68858,-1466.83436,-4108.68656)">
<path d="m90.5946,220.9863c-.3944-.004-.7744.0427-1.1562.1562 1.5989.9656 2.1874,2.2216 1.875,3.375-2.4608-2.0296-6.025-2.2337-7.8438-.3125 1.8677.0368 2.9753.8133 3.2812,1.9688-3.1404-.5187-6.3241,1.0877-6.9375,3.6562 1.6532-.9115 3.0349-.7786 3.875.0937-2.9835,1.1187-4.9412,4.0916-4.1875,6.625 .9767-1.6173 2.2418-2.2122 3.4062-1.875-2.0375,2.4611-2.2676,6.0224-.3438,7.8438 .0371-1.8836.8284-3.0182 2-3.3125-.5195,3.1409 1.056,6.324 3.625,6.9375-.9115-1.6532-.7786-3.0349.0938-3.875 1.1165,2.9877 4.0895,4.9731 6.625,4.2188-1.6152-.9754-2.2094-2.243-1.875-3.4062 2.4606,2.0258 6.0262,2.2324 7.8437.3125-1.8677-.0368-3.0066-.8133-3.3125-1.9688 3.1409.5195 6.324-1.0872 6.9375-3.6562-1.6421.9055-3.0332.7941-3.875-.0625 2.9895-1.1156 4.9734-4.1198 4.2188-6.6562-.9651,1.5981-2.222,2.2177-3.375,1.9062 2.0259-2.4606 2.2012-6.0262.2812-7.8438-.0368,1.8677-.8133,2.9753-1.9687,3.2812 .5195-3.1409-1.0872-6.324-3.6562-6.9375 .9055,1.6421.7941,3.0332-.0625,3.875-.9495-2.5352-3.2453-4.3226-5.4688-4.3438z" fill="#fff" fill-rule="evenodd"/>
<path d="m93.7001,235.2646-3.9357,1.0546-2.8811-2.8811 1.0546-3.9357 3.9357-1.0546 2.8811,2.8811z" fill="#fff" stroke="#000" stroke-width="1.603" transform="matrix(.62382,0,0,.62382,35.51705,88.85023)"/>
<path d="m99.81,237.404c1.4734-3.129.9058-6.9608-1.6794-9.5459s-6.4169-3.1528-9.5459-1.6794c2.5694-.5558 5.7699.5108 8.2422,2.9831s3.5389,5.6728 2.9831,8.2422zm-4.0438,4.0438c-2.5694.5558-5.792-.4887-8.2643-2.961s-3.5168-5.6949-2.961-8.2643c-1.4734,3.129-.9279,6.9829 1.6573,9.568s6.439,3.1307 9.568,1.6573z"/>
<path d="m97.1054,236.1336c.9517-2.021.5851-4.4959-1.0847-6.1657s-4.1446-2.0364-6.1657-1.0847c1.6596-.359 3.7268.3299 5.3236,1.9268s2.2858,3.6641 1.9268,5.3236zm-2.6119,2.6119c-1.6596.359-3.741-.3157-5.3379-1.9125s-2.2715-3.6783-1.9125-5.3379c-.9516,2.021-.5993,4.5102 1.0704,6.18s4.1589,2.0221 6.18,1.0704z"/>
</g>
</svg>
