<svg viewBox="0 0 512 512" xmlns="http://www.w3.org/2000/svg">

<g transform="matrix(18.68858,0,0,18.68858,-1466.83436,-4108.68656)">
<path d="m 90.5946 220.986 c -0.3944 -0.004 -0.7744 0.0427 -1.1562 0.1562 1.5989 0.9656 2.1874 2.2216 1.875 3.375 -2.4608 -2.0296 -6.025 -2.2337 -7.8438 -0.3125 1.8677 0.0368 2.9753 0.8133 3.2812 1.9688 -3.1404 -0.5187 -6.3241 1.0877 -6.9375 3.6562 1.6532 -0.9115 3.0349 -0.7786 3.875 0.0937 -2.9835 1.1187 -4.9412 4.0916 -4.1875 6.625 0.9767 -1.6173 2.2418 -2.2122 3.4062 -1.875 -2.0375 2.4611 -2.2676 6.0224 -0.3438 7.8438 0.0371 -1.8836 0.8284 -3.0182 2 -3.3125 -0.5195 3.1409 1.056 6.324 3.625 6.9375 -0.9115 -1.6532 -0.7786 -3.0349 0.0938 -3.875 1.1165 2.9877 4.0895 4.9731 6.625 4.2188 -1.6152 -0.9754 -2.2094 -2.243 -1.875 -3.4062 2.4606 2.0258 6.0262 2.2324 7.8437 0.3125 -1.8677 -0.0368 -3.0066 -0.8133 -3.3125 -1.9688 3.1409 0.5195 6.324 -1.0872 6.9375 -3.6562 -1.6421 0.9055 -3.0332 0.7941 -3.875 -0.0625 2.9895 -1.1156 4.9734 -4.1198 4.2188 -6.6562 -0.9651 1.5981 -2.222 2.2177 -3.375 1.9062 2.0259 -2.4606 2.2012 -6.0262 0.2812 -7.8438 -0.0368 1.8677 -0.8133 2.9753 -1.9687 3.2812 0.5195 -3.1409 -1.0872 -6.324 -3.6562 -6.9375 0.9055 1.6421 0.7941 3.0332 -0.0625 3.875 -0.9495 -2.5352 -3.2453 -4.3226 -5.4688 -4.3438 z" fill="#fff" fill-rule="evenodd"/>
<path d="m 93.7001 235.265 -3.9357 1.0546 -2.8811 -2.8811 1.0546 -3.9357 3.9357 -1.0546 2.8811 2.8811 z" fill="#fff" stroke="#000" stroke-width="1.603" transform="matrix(.62382,0,0,.62382,35.51705,88.85023)"/>
<path d="m 99.81 237.404 c 1.4734 -3.129 0.9058 -6.9608 -1.6794 -9.5459 s -6.4169 -3.1528 -9.5459 -1.6794 c 2.5694 -0.5558 5.7699 0.5108 8.2422 2.9831 s 3.5389 5.6728 2.9831 8.2422 z m -4.0438 4.0438 c -2.5694 0.5558 -5.792 -0.4887 -8.2643 -2.961 s -3.5168 -5.6949 -2.961 -8.2643 c -1.4734 3.129 -0.9279 6.9829 1.6573 9.568 s 6.439 3.1307 9.568 1.6573 z"/>
<path d="m 97.1054 236.134 c 0.9517 -2.021 0.5851 -4.4959 -1.0847 -6.1657 s -4.1446 -2.0364 -6.1657 -1.0847 c 1.6596 -0.359 3.7268 0.3299 5.3236 1.9268 s 2.2858 3.6641 1.9268 5.3236 z m -2.6119 2.6119 c -1.6596 0.359 -3.741 -0.3157 -5.3379 -1.9125 s -2.2715 -3.6783 -1.9125 -5.3379 c -0.9516 2.021 -0.5993 4.5102 1.0704 6.18 s 4.1589 2.0221 6.18 1.0704 z"/>
</g>
</svg>
