<svg viewBox="0 0 512 512" xmlns="http://www.w3.org/2000/svg">

<g transform="matrix(18.68858,0,0,18.68858,-12483.10996,-26544.20803)">
<path d="m 691.053 1434.89 -9.435 9.4349 2e-05 2.7904" fill="none" stroke="#fff"/>
<path d="m 668.752 1422.47 h 10.4298 l 3.5356 3.5355" fill="none" stroke="#fff"/>
<path d="m 677.364 1428.41 c 0 0.7566 -0.6134 1.37 -1.37 1.37 s -1.37 -0.6134 -1.37 -1.37 0.6134 -1.37 1.37 -1.37 1.37 0.6134 1.37 1.37 z" fill="#fff" transform="matrix(1.1090184e-8,1.16129,-1.16129,1.1090184e-8,2341.5167,641.1078)"/>
<path d="m 668.788 1425.43 7.4248 0.0001 3.5355 3.5356" fill="none" stroke="#fff"/>
<path d="m 677.364 1428.41 c 0 0.7566 -0.6134 1.37 -1.37 1.37 s -1.37 -0.6134 -1.37 -1.37 0.6134 -1.37 1.37 -1.37 1.37 0.6134 1.37 1.37 z" fill="#fff" transform="matrix(1.1090184e-8,1.16129,-1.16129,1.1090184e-8,2338.5479,644.07652)"/>
<path d="m 668.781 1428.4 4.4637 -0.0001 3.5355 3.5357" fill="none" stroke="#fff"/>
<path d="m 677.364 1428.41 c 0 0.7566 -0.6134 1.37 -1.37 1.37 s -1.37 -0.6134 -1.37 -1.37 0.6134 -1.37 1.37 -1.37 1.37 0.6134 1.37 1.37 z" fill="#fff" transform="matrix(1.1090184e-8,1.16129,-1.16129,1.1090184e-8,2335.5793,647.04526)"/>
<path d="m 1494.68 524.822 h 10.2089 v 10.2089 h -10.2089 z" stroke="#fff" transform="rotate(45)"/>
<path d="m 687.721 1429.74 2.8704 -2.8704 v -5.9421" fill="none" stroke="#fff"/>
<path d="m 689.708 1432.09 3.9016 -3.9017 1e-05 -7.0912" fill="none" stroke="#fff"/>
<path d="m 677.364 1428.41 c 0 0.7566 -0.6134 1.37 -1.37 1.37 s -1.37 -0.6134 -1.37 -1.37 0.6134 -1.37 1.37 -1.37 1.37 0.6134 1.37 1.37 z" fill="#fff" transform="matrix(1.1090184e-8,1.16129,-1.16129,1.1090184e-8,2350.6571,656.62767)"/>
<path d="m 677.364 1428.41 c 0 0.7566 -0.6134 1.37 -1.37 1.37 s -1.37 -0.6134 -1.37 -1.37 0.6134 -1.37 1.37 -1.37 1.37 0.6134 1.37 1.37 z" fill="#fff" transform="matrix(1.1090184e-8,1.16129,-1.16129,1.1090184e-8,2347.6885,659.59641)"/>
<path d="m 688.375 1444.36 3.0938 3.0937" fill="none" stroke="#fff"/>
<path d="m 691.875 1441.83 3.0938 3.0937" fill="none" stroke="#fff"/>
<path d="m 668.623 1431.67 9.435 9.4349 -2e-05 6.5027" fill="none" stroke="#fff"/>
<path d="m 668.403 1436.27 6.1647 6.1644 -9e-05 5.1771" fill="none" stroke="#fff"/>
<path d="m 668.535 1441.26 2.6292 2.6291 -0.0004 3.6746" fill="none" stroke="#fff"/>
<path d="m 686.081 1430.53 -4.707 4.707 4.7304 4.7306" fill="none" stroke="#fff"/>
<path d="m 687.178 1432.13 3.1082 3.1083 -3.1236 3.1237" fill="none" stroke="#fff"/>
<path d="m 687.175 1435.42 c 0 0.842 -0.6826 1.5247 -1.5247 1.5247 s -1.5247 -0.6827 -1.5247 -1.5247 0.6826 -1.5247 1.5247 -1.5247 1.5247 0.6826 1.5247 1.5247 z" fill="#fff" transform="matrix(1.1087,0,0,1.1087,-74.25102,-156.20017)"/>
<path d="m 668.623 1433 9.435 9.4349" fill="none" stroke="#fff"/>
<path d="m 668.403 1437.59 6.1647 6.1644" fill="none" stroke="#fff"/>
<path d="m 668.535 1442.59 2.6292 2.6291" fill="none" stroke="#fff"/>
<path d="m 668.49 1420.88 h 26.4314 v 26.4314 h -26.4314 z" fill="none" stroke="#000"/>
</g>
</svg>
