<svg viewBox="0 0 512 512" xmlns="http://www.w3.org/2000/svg">

<g transform="matrix(18.68858,0,0,18.68858,-12483.10996,-26544.20803)">
<path d="m691.053,1434.8931-9.435,9.4349 2e-05,2.7904" fill="none" stroke="#fff"/>
<path d="m668.7522,1422.4652h10.4298l3.5356,3.5355" fill="none" stroke="#fff"/>
<path d="m677.3641,1428.4104c0,.7566-.6134,1.37-1.37,1.37s-1.37-.6134-1.37-1.37 .6134-1.37 1.37-1.37 1.37.6134 1.37,1.37z" fill="#fff" transform="matrix(1.1090184e-8,1.16129,-1.16129,1.1090184e-8,2341.5167,641.1078)"/>
<path d="m668.7885,1425.4338 7.4248.0001 3.5355,3.5356" fill="none" stroke="#fff"/>
<path d="m677.3641,1428.4104c0,.7566-.6134,1.37-1.37,1.37s-1.37-.6134-1.37-1.37 .6134-1.37 1.37-1.37 1.37.6134 1.37,1.37z" fill="#fff" transform="matrix(1.1090184e-8,1.16129,-1.16129,1.1090184e-8,2338.5479,644.07652)"/>
<path d="m668.7809,1428.4026 4.4637-.0001 3.5355,3.5357" fill="none" stroke="#fff"/>
<path d="m677.3641,1428.4104c0,.7566-.6134,1.37-1.37,1.37s-1.37-.6134-1.37-1.37 .6134-1.37 1.37-1.37 1.37.6134 1.37,1.37z" fill="#fff" transform="matrix(1.1090184e-8,1.16129,-1.16129,1.1090184e-8,2335.5793,647.04526)"/>
<path d="m1494.6812,524.8221h10.2089v10.2089h-10.2089z" stroke="#fff" transform="rotate(45)"/>
<path d="m687.7211,1429.7372 2.8704-2.8704v-5.9421" fill="none" stroke="#fff"/>
<path d="m689.708,1432.0895 3.9016-3.9017 1e-05-7.0912" fill="none" stroke="#fff"/>
<path d="m677.3641,1428.4104c0,.7566-.6134,1.37-1.37,1.37s-1.37-.6134-1.37-1.37 .6134-1.37 1.37-1.37 1.37.6134 1.37,1.37z" fill="#fff" transform="matrix(1.1090184e-8,1.16129,-1.16129,1.1090184e-8,2350.6571,656.62767)"/>
<path d="m677.3641,1428.4104c0,.7566-.6134,1.37-1.37,1.37s-1.37-.6134-1.37-1.37 .6134-1.37 1.37-1.37 1.37.6134 1.37,1.37z" fill="#fff" transform="matrix(1.1090184e-8,1.16129,-1.16129,1.1090184e-8,2347.6885,659.59641)"/>
<path d="m688.375,1444.3622 3.0938,3.0937" fill="none" stroke="#fff"/>
<path d="m691.875,1441.8309 3.0938,3.0937" fill="none" stroke="#fff"/>
<path d="m668.6233,1431.6711 9.435,9.4349-2e-05,6.5027" fill="none" stroke="#fff"/>
<path d="m668.4025,1436.2672 6.1647,6.1644-9e-05,5.1771" fill="none" stroke="#fff"/>
<path d="m668.5353,1441.2608 2.6292,2.6291-.0004,3.6746" fill="none" stroke="#fff"/>
<path d="m686.0805,1430.5306-4.707,4.707 4.7304,4.7306" fill="none" stroke="#fff"/>
<path d="m687.1777,1432.1334 3.1082,3.1083-3.1236,3.1237" fill="none" stroke="#fff"/>
<path d="m687.1752,1435.4152c0,.842-.6826,1.5247-1.5247,1.5247s-1.5247-.6827-1.5247-1.5247 .6826-1.5247 1.5247-1.5247 1.5247.6826 1.5247,1.5247z" fill="#fff" transform="matrix(1.1087,0,0,1.1087,-74.25102,-156.20017)"/>
<path d="m668.6233,1432.9969 9.435,9.4349" fill="none" stroke="#fff"/>
<path d="m668.4025,1437.593 6.1647,6.1644" fill="none" stroke="#fff"/>
<path d="m668.5353,1442.5866 2.6292,2.6291" fill="none" stroke="#fff"/>
<path d="m668.4899,1420.8815h26.4314v26.4314h-26.4314z" fill="none" stroke="#000"/>
</g>
</svg>
