<svg xmlns="http://www.w3.org/2000/svg" viewBox="0 0 512 512">
<g transform="matrix(15 0 0 15 16.00003 -5569.4334)">
<use width="744.094" height="1052.362" transform="translate(36 368.36217)"/>
</g>
<g fill="#fff" transform="matrix(6 0 0 6 -127.99999 -2602.17305)">
<path d="m64,24 0,12-28,0 8,8-20,20 12,0 0,28 8-8 20,20 0-12 28,0-8-8 20-20-12,0 0-28-8,8-20-20zm0,20c11.0457,0 20,8.9543 20,20 0,11.0457-8.9543,20-20,20-11.0457,0-20-8.9543-20-20 0-11.0457 8.9543-20 20-20z" transform="translate(0 412.36218)"/>
<path d="m92,66a30,34 0 1,1 -60,0 30,34 0 1,1 60,0z" transform="matrix(.26667 0 0 .23529 47.46667 460.83277)"/>
</g>
</svg>
