<svg viewBox="0 0 512 512" xmlns="http://www.w3.org/2000/svg">

<g transform="matrix(18.68858,0,0,18.68858,-9086.33011,-45609.51317)">
<path d="m501.434,2446.1201 2.6584,2.0122c-5.189,6.8606-8.2587,13.7653-14.5347,19.2176l-2.6584-2.0123c3.3396-7.3583 9.5469-12.623 14.5347-19.2175z" fill="#fff" stroke="#000"/>
<path d="m490.6069,2458.6722 2.3095,5.0968" fill="none" stroke="#000"/>
<path d="m492.4666,2456.6082 3.2792,3.5717" fill="none" stroke="#000"/>
<path d="m494.6192,2453.5847 3.5668,3.0011" fill="none" stroke="#000"/>
<path d="m491.531,2465.5021-3.5135-2.7346" fill="none" stroke="#000"/>
<path d="m497.3348,2441.5151c-.1982.019-.3863.067-.5628.1112-.5541.1392-.9848.3934-1.2564.7524l4.6407,3.541-1.035,1.3682 4.4127,3.3682 1.0638-1.406 1.5203,3.3611 2.28,1.7249c2.8013-1.1774 4.0492-3.2609 4.4277-5.8516l-2.2801-1.7253-3.6479-.5491 1.0638-1.406-4.4127-3.3684-1.1213,1.4818c-1.8262-1.0789-3.7056-1.5451-5.0929-1.4032z" fill="#fff" stroke="#000"/>
<path d="m505.3824,2453.1546 5.539-7.3209" fill="none" stroke="#000"/>
</g>
</svg>
