<svg viewBox="0 0 512 512" xmlns="http://www.w3.org/2000/svg">

<g transform="matrix(18.68858,0,0,18.68858,-9086.33011,-45609.51317)">
<path d="m 501.434 2446.12 2.6584 2.0122 c -5.189 6.8606 -8.2587 13.7653 -14.5347 19.2176 l -2.6584 -2.0123 c 3.3396 -7.3583 9.5469 -12.623 14.5347 -19.2175 z" fill="#fff" stroke="#000"/>
<path d="m 490.607 2458.67 2.3095 5.0968" fill="none" stroke="#000"/>
<path d="m 492.467 2456.61 3.2792 3.5717" fill="none" stroke="#000"/>
<path d="m 494.619 2453.58 3.5668 3.0011" fill="none" stroke="#000"/>
<path d="m 491.531 2465.5 -3.5135 -2.7346" fill="none" stroke="#000"/>
<path d="m 497.335 2441.52 c -0.1982 0.019 -0.3863 0.067 -0.5628 0.1112 -0.5541 0.1392 -0.9848 0.3934 -1.2564 0.7524 l 4.6407 3.541 -1.035 1.3682 4.4127 3.3682 1.0638 -1.406 1.5203 3.3611 2.28 1.7249 c 2.8013 -1.1774 4.0492 -3.2609 4.4277 -5.8516 l -2.2801 -1.7253 -3.6479 -0.5491 1.0638 -1.406 -4.4127 -3.3684 -1.1213 1.4818 c -1.8262 -1.0789 -3.7056 -1.5451 -5.0929 -1.4032 z" fill="#fff" stroke="#000"/>
<path d="m 505.382 2453.15 5.539 -7.3209" fill="none" stroke="#000"/>
</g>
</svg>
