<svg viewBox="0 0 512 512" xmlns="http://www.w3.org/2000/svg">

<g transform="matrix(18.68858,0,0,18.68858,1981.7637,-10483.47706)">
<path d="m -100.162 585.348 c 0 -22.1987 15.4375 -22.1418 15.4375 0 -5.4422 3.227 -10.2382 3.083 -15.4375 0 z" fill="#fff" fill-rule="evenodd" stroke="#000"/>
<path d="m 655.562 577.768 c 0 4.1249 -2.1406 7.4688 -4.7812 7.4688 s -4.7812 -3.3439 -4.7812 -7.4688 2.1406 -7.4688 4.7812 -7.4688 4.7812 3.3439 4.7812 7.4688 z" transform="matrix(1.11297,0,0,1.14306,-816.74345,-81.23815)"/>
<path d="m -92.443 561.443 c -3.5217 1.6546 -6.4493 6.4736 -7.1944 10.0687 2.1517 0 3.7252 0.6853 4.8611 1.8905 l 2.3333 -2.549 2.3139 2.6029 c 1.1198 -1.1925 2.6892 -1.9444 4.8805 -1.9444 -0.8838 -3.5501 -3.5993 -8.3189 -7.1944 -10.0687 z" fill="#fff" stroke="#000"/>
<path d="m -94.1087 565.894 c -1.3156 0.1487 -2.3501 2.7036 -3.0285 4.3914 1.9006 0.917 3.1105 1.8387 3.8866 3.2304 h 1.6657 c 0.8082 -1.3838 2.0175 -2.2444 3.8361 -3.2304 -1.0345 -2.2633 -2.8171 -6.3855 -4.6942 -3.2641 -0.5997 -0.8747 -1.1509 -1.1855 -1.6657 -1.1273 z"/>
<g transform="matrix(.49914,0,0,.49914,-331.89054,328.45734)">
<path d="m 477.727 499.389 c 0 5.613 0.0707 10.678 2.093 16.0171 2.1073 -5.1511 1.8837 -10.3461 1.8837 -15.8802" fill="#fff" fill-rule="evenodd" stroke="#fff"/>
<path d="m 473.958 498.714 h 11.5219 v 1.9847 c -3.7907 -1.0035 -7.7447 -1.2173 -11.5219 0 v -1.9847 z" fill="#fff"/>
<path d="m 478.307 491.464 h 2.8229 c -0.7497 2.5093 -0.8342 5.0186 0 7.5279 h -2.8229 c 0.9955 -2.5093 0.7821 -5.0186 0 -7.5279 z" fill="#fff"/>
</g>
<path d="m 648.572 566.834 c 0 0.4455 -0.3611 0.8065 -0.8065 0.8065 s -0.8065 -0.3611 -0.8065 -0.8065 0.3611 -0.8065 0.8065 -0.8065 0.8065 0.3611 0.8065 0.8065 z" fill="#fff" transform="matrix(1.06849,0,0,.58562,-786.42054,237.21511)"/>
<path d="m 648.572 566.834 c 0 0.4455 -0.3611 0.8065 -0.8065 0.8065 s -0.8065 -0.3611 -0.8065 -0.8065 0.3611 -0.8065 0.8065 -0.8065 0.8065 0.3611 0.8065 0.8065 z" fill="#fff" transform="matrix(1.06849,0,0,.58562,-782.73033,237.21511)"/>
</g>
</svg>
