<svg viewBox="0 0 512 512" xmlns="http://www.w3.org/2000/svg">

<g transform="matrix(18.68858,0,0,18.68858,-1465.1957,-8505.7869)">
<path d="m 383.169 261.873 h 27.0999 v 9.0686 h -27.0999 z" fill="#fff" transform="rotate(45)"/>
<path d="m 252.857 -401.253 h 27.0999 v 9.0686 h -27.0999 z" fill="#fff" transform="matrix(-.70711,.70711,-.70711,-.70711,0,0)"/>
<path d="m 102.531 473.065 c 0 4.6863 -3.799 8.4853 -8.4853 8.4853 s -8.4853 -3.799 -8.4853 -8.4853 3.799 -8.4853 8.4853 -8.4853 8.4853 3.799 8.4853 8.4853 z" fill="#fff" stroke="#000" transform="matrix(1.35625,0,0,1.35625,-35.40461,-172.69323)"/>
<path d="m 92.1562 459.844 c -5.0059 0 -9.0938 4.0566 -9.0938 9.0625 s 4.0879 9.0625 9.0938 9.0625 9.0625 -4.0566 9.0625 -9.0625 -4.0566 -9.0625 -9.0625 -9.0625 z m 0.0312 2.3438 c 3.7129 1e-05 6.7188 3.0058 6.7188 6.7188 s -3.0058 6.7188 -6.7188 6.7188 -6.7188 -3.0058 -6.7188 -6.7188 3.0058 -6.7188 6.7188 -6.7188 z"/>
<path d="m 82.9083 468.999 h 18.429" fill="none" stroke="#fff"/>
<path d="m 84.1428 464.392 15.96 9.2145" fill="none" stroke="#fff"/>
<path d="m 87.5155 461.019 9.2145 15.9599" fill="none" stroke="#fff"/>
<path d="m 92.1227 459.785 1e-05 18.429" fill="none" stroke="#fff"/>
<path d="m 96.73 461.019 -9.2145 15.96" fill="none" stroke="#fff"/>
<path d="m 100.103 464.392 -15.96 9.2145" fill="none" stroke="#fff"/>
<path d="m 97.6691 470.369 c 0 3.3927 -2.7503 6.143 -6.143 6.143 s -6.143 -2.7503 -6.143 -6.143 2.7503 -6.143 6.143 -6.143 6.143 2.7503 6.143 6.143 z" fill="none" stroke="#000" stroke-width=".6774" transform="matrix(1.47626,0,0,1.47626,-42.97208,-225.48558)"/>
<path d="m 93.8797 469.972 -1.8181 1.3437 2.8663 3.8157 -0.9277 0.6989 6.1035 4.3264 -2.4631 -7.043 -0.8946 0.6739 -2.8663 -3.8157 z" fill="#fff" stroke="#000"/>
<path d="m 92.1772 457.363 -2.4375 6.9208 h 1.2188 v 2.875 h 2.4062 v -2.875 h 1.2188 l -2.4062 -6.9208 z" fill="#fff" stroke="#000"/>
<path d="m 128.87 436.119 c 0 1.2692 -1.0289 2.2981 -2.2981 2.2981 s -2.2981 -1.0289 -2.2981 -2.2981 1.0289 -2.2981 2.2981 -2.2981 2.2981 1.0289 2.2981 2.2981 z" fill="#fff" stroke="#000" transform="translate(-34.3844,32.7775)"/>
</g>
</svg>
