<svg viewBox="0 0 512 512" xmlns="http://www.w3.org/2000/svg">

<g transform="matrix(18.68858,0,0,18.68858,-5674.69017,-230.9801)">
<path d="m317.3368,12.6186v26.8257" fill="none" stroke="#000"/>
<g transform="translate(-327.9788,11.2714)">
<path d="m647.8018,24.4094 6.8687-7.2291-2.7691-11.4584-2.1313,5.2008-4.8018-6.6054-.1679,6.6572-11.4053-8.3909 7.8025,10.9937-6.4545.1616 6.8402,5.7285-5.312,1.0081 11.5303,3.9338z" fill="#fff" fill-rule="evenodd"/>
<path d="m649.4357,12.3903c3.4405,2.2142 6.2853,5.0437 8.6457,8.3735-.2195,2.8704-3.2664,6.1624-6.4934,6.707-3.4534-2.2599-6.4659-5.1987-8.6457-8.3735" fill="#fff" stroke="#000"/>
<path d="m650.0538,24.3648c1.4199-1.9273 3.0447-3.7678 4.9622-5.0794" fill="none" stroke="#000"/>
</g>
</g>
</svg>
