<svg xmlns="http://www.w3.org/2000/svg" viewBox="0 0 512 512">
<g fill="#fff" transform="matrix(6 0 0 6 -128 -3562.1731)">
<path d="m64,184c4,0 12,4 12,8 0,4-8,4-12,16-4-12-12-12-12-16 0-4 8-8 12-8z" transform="translate(0 412.36218)"/>
<path d="m92,66a30,34 0 1,1 -60,0 30,34 0 1,1 60,0z" transform="matrix(.4 0 0 .35294 39.2 613.06807)"/>
<path d="m64,676.3622c4,0 12-4 12-8 0-4-8-4-12-16-4,12-12,12-12,16 0,4 8,8 12,8z"/>
<path d="m24,636.3622c0-4 4-12 8-12 4,0 4,8 16,12-12,4-12,12-16,12-4,0-8-8-8-12z"/>
<path d="m104,636.3622c0,4-4,12-8,12-4,0-4-8-16-12 12-4 12-12 16-12 4,0 8,8 8,12z"/>
</g>
</svg>
