<svg xmlns="http://www.w3.org/2000/svg" viewBox="0 0 512 512">
<g fill="#fff" transform="matrix(6 0 0 6 -128 -3562.1731)">
<path d="m 64 184 c 4 0 12 4 12 8 0 4 -8 4 -12 16 -4 -12 -12 -12 -12 -16 0 -4 8 -8 12 -8 z" transform="translate(0 412.36218)"/>
<path d="m 92 66 a 30 34 0 1 1 -60 0 30 34 0 1 1 60 0 z" transform="matrix(.4 0 0 .35294 39.2 613.06807)"/>
<path d="m 64 676.362 c 4 0 12 -4 12 -8 0 -4 -8 -4 -12 -16 -4 12 -12 12 -12 16 0 4 8 8 12 8 z"/>
<path d="m 24 636.362 c 0 -4 4 -12 8 -12 4 0 4 8 16 12 -12 4 -12 12 -16 12 -4 0 -8 -8 -8 -12 z"/>
<path d="m 104 636.362 c 0 4 -4 12 -8 12 -4 0 -4 -8 -16 -12 12 -4 12 -12 16 -12 4 0 8 8 8 12 z"/>
</g>
</svg>
