<svg xmlns="http://www.w3.org/2000/svg" viewBox="0 0 512 512">
<g transform="matrix(15 0 0 15 16 -7189.4324)">
<use width="744.094" height="1052.362" transform="translate(36 476.36217)"/>
</g>
<g fill="#fff" transform="matrix(6 0 0 6 -128 -3562.17305)">
<path d="m 64 620.362 c 4 0 12 -4 12 -8 0 -4 -8 -4 -12 -16 -4 12 -12 12 -12 16 0 4 8 8 12 8 z"/>
<path d="m 92 66 a 30 34 0 1 1 -60 0 30 34 0 1 1 60 0 z" transform="matrix(.4 0 0 .35294 39.2 613.06807)"/>
<path d="m 64 652.362 c 4 0 12 4 12 8 0 4 -8 4 -12 16 -4 -12 -12 -12 -12 -16 0 -4 8 -8 12 -8 z"/>
<path d="m 48 636.362 c 0 -4 -4 -12 -8 -12 -4 0 -4 8 -16 12 12 4 12 12 16 12 4 0 8 -8 8 -12 z"/>
<path d="m 80 636.362 c 0 4 4 12 8 12 4 0 4 -8 16 -12 -12 -4 -12 -12 -16 -12 -4 0 -8 8 -8 12 z"/>
</g>
</svg>
