<svg viewBox="0 0 512 512" xmlns="http://www.w3.org/2000/svg">

<g transform="matrix(18.68858,0,0,18.68858,-10445.75436,-40833.09266)">
<path d="m569.6736,2190.4927c-2.1227-4.8304-6.6529-5.2519-9.1522-1.3128" fill="none" stroke="#fff"/>
<path d="m571.1857,2186.9066 2.1071,3.6525c4.0125-.5796 8.1518,1.2766 10.3027,5.0047 2.8202,4.8886 1.1134,11.1259-3.7713,13.9482s-11.0923,1.158-13.9124-3.7304c-2.2721-3.9385-1.6309-8.7737 1.2597-11.9754l-1.9818-3.4353 5.996-3.4643z" fill="#fff" stroke="#fff"/>
<path d="m572.0891,2197.3126c.5699-3.3889-.6197-5.3675-4.1166-5.4972" fill="none" stroke="#000"/>
<path d="m574.0061,2193.4441 1.4366,2.4904c2.7357-.3952 5.5578.8705 7.0242,3.4127 1.9228,3.3332.7591,7.5862-2.5713,9.5105s-7.5626.7897-9.4853-2.5435c-1.5491-2.6855-1.1119-5.9826.8589-8.1655l-1.3512-2.3424 4.088-2.3622z"/>
<path d="m571.1857,2186.9066 2.1071,3.6525c4.0125-.5796 8.1518,1.2766 10.3027,5.0047 2.8202,4.8886 1.1134,11.1259-3.7713,13.9482s-11.0923,1.158-13.9124-3.7304c-2.2721-3.9385-1.6309-8.7737 1.2597-11.9754l-1.9818-3.4353 5.996-3.4643z" fill="none" stroke="#fff"/>
<path d="m576.3298,2199.3649 .7889,1.3674c1.5022-.217 3.0518.478 3.857,1.874 1.0558,1.8302.4168,4.1655-1.4119,5.2222s-4.1526.4336-5.2084-1.3967c-.8506-1.4746-.6106-3.285.4716-4.4836l-.7419-1.2862 2.2447-1.2971z" fill="#fff"/>
<path d="m575.7335,2201.2859c-.3142-2.0086-1.9891-2.6168-3.3371-1.4006" fill="none" stroke="#fff"/>
</g>
</svg>
