<svg viewBox="0 0 512 512" xmlns="http://www.w3.org/2000/svg">

<g transform="matrix(18.68858,0,0,18.68858,5784.0182,-6068.9886)">
<path d="m -308.867 325.556 26.1629 21.8319" fill="none" stroke="#fff"/>
<path d="m -309.073 331.883 15.4151 19.9415" fill="none" stroke="#fff"/>
<path d="m -303.564 325.291 20.8269 10.58" fill="none" stroke="#fff"/>
<path d="m -309.025 340.628 4.5225 10.8884" fill="none" stroke="#fff"/>
<path d="m -297.521 325.285 14.8072 1.0406" fill="none" stroke="#fff"/>
<path d="m -309.044 341.908 c 1.0565 -1.901 2.8558 -2.8116 4.5962 -3.8007 0.6111 -2.5699 2.2369 -4.4619 3.9775 -5.8336 -0.1083 -1.8815 0.6227 -3.4854 1.5026 -4.8614 -0.1849 -0.7955 -0.3641 -1.591 -0.0884 -2.3865" fill="none" stroke="#fff"/>
<path d="m -309.084 332.536 c 0.9356 -1.7291 2.6676 -3.0196 4.1875 -3.5 -0.0824 -1.5828 0.4494 -2.7845 1.3125 -3.8125" fill="none" stroke="#fff"/>
<path d="m -309.243 348.294 c 0.9847 -0.5309 2.1262 -0.6239 3.2925 -0.464 1.9513 -1.6355 4.4924 -2.6963 7.1595 -2.6517 0.9684 -3.1981 3.1592 -5.0553 5.6569 -6.364 -0.0476 -2.7574 0.7158 -5.0949 2.961 -6.7617 -0.9804 -1.984 -0.0489 -4.1739 0.7513 -6.2314" fill="none" stroke="#fff"/>
<path d="m -299.286 351.588 c 1.536 -0.4889 3.6073 -0.5104 5.2464 -0.6203 2.0063 -3.297 4.206 -5.7719 7.7119 -6.3198 -0.3373 -4.1675 0.9198 -7.1155 2.3865 -9.104 -1.1868 -2.4459 -1.5375 -6.8331 0.6219 -9.3723" fill="none" stroke="#fff"/>
<path d="m -309.037 325.286 h 26.3281 v 26.3125 h -26.3281 v -26.3125 z" fill="none" stroke="#000"/>
</g>
</svg>
