<svg viewBox="0 0 512 512" xmlns="http://www.w3.org/2000/svg">

<g transform="matrix(18.68858,0,0,18.68858,5784.0182,-6068.9886)">
<path d="m-308.8669,325.5558 26.1629,21.8319" fill="none" stroke="#fff"/>
<path d="m-309.0729,331.8827 15.4151,19.9415" fill="none" stroke="#fff"/>
<path d="m-303.5636,325.2906 20.8269,10.58" fill="none" stroke="#fff"/>
<path d="m-309.0249,340.6276 4.5225,10.8884" fill="none" stroke="#fff"/>
<path d="m-297.5212,325.285 14.8072,1.0406" fill="none" stroke="#fff"/>
<path d="m-309.0437,341.9076c1.0565-1.901 2.8558-2.8116 4.5962-3.8007 .6111-2.5699 2.2369-4.4619 3.9775-5.8336-.1083-1.8815.6227-3.4854 1.5026-4.8614-.1849-.7955-.3641-1.591-.0884-2.3865" fill="none" stroke="#fff"/>
<path d="m-309.0836,332.5356c.9356-1.7291 2.6676-3.0196 4.1875-3.5-.0824-1.5828.4494-2.7845 1.3125-3.8125" fill="none" stroke="#fff"/>
<path d="m-309.2425,348.2937c.9847-.5309 2.1262-.6239 3.2925-.464 1.9513-1.6355 4.4924-2.6963 7.1595-2.6517 .9684-3.1981 3.1592-5.0553 5.6569-6.364-.0476-2.7574.7158-5.0949 2.961-6.7617-.9804-1.984-.0489-4.1739.7513-6.2314" fill="none" stroke="#fff"/>
<path d="m-299.2862,351.5877c1.536-.4889 3.6073-.5104 5.2464-.6203 2.0063-3.297 4.206-5.7719 7.7119-6.3198-.3373-4.1675.9198-7.1155 2.3865-9.104-1.1868-2.4459-1.5375-6.8331.6219-9.3723" fill="none" stroke="#fff"/>
<path d="m-309.0367,325.2856h26.3281v26.3125h-26.3281v-26.3125z" fill="none" stroke="#000"/>
</g>
</svg>
