<svg viewBox="0 0 512 512" xmlns="http://www.w3.org/2000/svg">

<g transform="matrix(18.68858,0,0,18.68858,-2951.72903,-18613.73629)">
<path d="m 162.271 1003.89 c -0.0293 4.3649 0.8698 8.7383 0.8002 13.0987 -0.0331 2.0745 2.5457 3.7244 6.7301 3.7244 s 6.2601 -1.689 6.2601 -3.7244 c 0 -4.4996 1.3121 -9.2271 1.3121 -13.0987 h -15.1025 z" fill="#fff" stroke="#fff"/>
<path d="m 170.486 1003.49 c 0 1.3378 -1.8936 2.4223 -4.2295 2.4223 s -4.2295 -1.0845 -4.2295 -2.4223 1.8936 -2.4224 4.2295 -2.4224 4.2295 1.0846 4.2295 2.4224 z" stroke="#fff" stroke-width=".5996" transform="matrix(1.79233,0,0,1.55172,-128.16585,-553.97395)"/>
<path d="m 178.89 1003.96 c -0.9983 0.2915 -2.1029 0.9074 -3.2937 1.8571 l 1.1977 1.4975 c 2.1186 -1.6898 3.3733 -1.8292 3.9525 -1.5575 s 0.9849 1.2215 0.9582 2.576 -0.5207 2.9698 -1.4373 4.1933 -2.1583 2.0257 -3.8327 2.0368 v 1.9169 c 2.3184 -0.015 4.1401 -1.2273 5.3299 -2.8156 s 1.8212 -3.5485 1.8565 -5.3314 -0.535 -3.581 -2.096 -4.3132 c -0.7805 -0.3661 -1.6366 -0.3515 -2.635 -0.06 z" fill="#fff" fill-rule="evenodd"/>
<path d="m 174.638 1004.18 c 0 0.9131 -1.9538 1.6533 -4.364 1.6533 s -4.364 -0.7402 -4.364 -1.6533 1.9538 -1.6533 4.364 -1.6533 4.364 0.7402 4.364 1.6533 z" fill="#fff" transform="matrix(1.3253,0,0,-1.18338,-55.8164,2191.815)"/>
<path d="m 174.638 1004.18 c 0 0.9131 -1.9538 1.6533 -4.364 1.6533 s -4.364 -0.7402 -4.364 -1.6533 1.9538 -1.6533 4.364 -1.6533 4.364 0.7402 4.364 1.6533 z" transform="matrix(1.00705,0,0,-1.00714,-1.5462,2014.1626)"/>
</g>
</svg>
