<svg viewBox="0 0 512 512" xmlns="http://www.w3.org/2000/svg">

<g transform="matrix(18.68858,0,0,18.68858,-2951.72903,-18613.73629)">
<path d="m162.2709,1003.8882c-.0293,4.3649.8698,8.7383.8002,13.0987-.0331,2.0745 2.5457,3.7244 6.7301,3.7244s6.2601-1.689 6.2601-3.7244c0-4.4996 1.3121-9.2271 1.3121-13.0987h-15.1025z" fill="#fff" stroke="#fff"/>
<path d="m170.4856,1003.4927c0,1.3378-1.8936,2.4223-4.2295,2.4223s-4.2295-1.0845-4.2295-2.4223 1.8936-2.4224 4.2295-2.4224 4.2295,1.0846 4.2295,2.4224z" stroke="#fff" stroke-width=".5996" transform="matrix(1.79233,0,0,1.55172,-128.16585,-553.97395)"/>
<path d="m178.8896,1003.961c-.9983.2915-2.1029.9074-3.2937,1.8571l1.1977,1.4975c2.1186-1.6898 3.3733-1.8292 3.9525-1.5575s.9849,1.2215.9582,2.576-.5207,2.9698-1.4373,4.1933-2.1583,2.0257-3.8327,2.0368v1.9169c2.3184-.015 4.1401-1.2273 5.3299-2.8156s1.8212-3.5485 1.8565-5.3314-.535-3.581-2.096-4.3132c-.7805-.3661-1.6366-.3515-2.635-.06z" fill="#fff" fill-rule="evenodd"/>
<path d="m174.6382,1004.1848c0,.9131-1.9538,1.6533-4.364,1.6533s-4.364-.7402-4.364-1.6533 1.9538-1.6533 4.364-1.6533 4.364.7402 4.364,1.6533z" fill="#fff" transform="matrix(1.3253,0,0,-1.18338,-55.8164,2191.815)"/>
<path d="m174.6382,1004.1848c0,.9131-1.9538,1.6533-4.364,1.6533s-4.364-.7402-4.364-1.6533 1.9538-1.6533 4.364-1.6533 4.364.7402 4.364,1.6533z" transform="matrix(1.00705,0,0,-1.00714,-1.5462,2014.1626)"/>
</g>
</svg>
