<svg viewBox="0 0 512 512" xmlns="http://www.w3.org/2000/svg">

<g transform="matrix(18.68858,0,0,18.68858,-9080.0344,-27221.89135)">
<path d="m 505.7 1469.31 c 0 3.1863 -2.583 5.7693 -5.7694 5.7693 s -5.7693 -2.583 -5.7693 -5.7693 2.583 -5.7693 5.7693 -5.7693 5.7694 2.583 5.7694 5.7693 z" fill="#fff" transform="matrix(2.18141,0,0,2.18141,-591.10652,-1734.8587)"/>
<path d="m 493.207 1459.13 12.9422 22.4165" fill="none" stroke="#000"/>
<path d="m 506.15 1459.13 -12.9421 22.4165" fill="none" stroke="#000"/>
<path d="m 512.621 1470.34 -25.8843 -0.0001" fill="none" stroke="#000"/>
<path d="m 506.236 1470.49 c 0 4.0123 -3.2526 7.2649 -7.2649 7.2649 s -7.2649 -3.2526 -7.2649 -7.2649 3.2526 -7.265 7.2649 -7.265 7.2649 3.2527 7.2649 7.265 z" fill="#fff" stroke="#000" stroke-width=".6704" transform="matrix(1.49166,0,0,1.49166,-244.70578,-723.2006)"/>
<g transform="matrix(1.25602,0,0,1.25602,-128.2552,-375.68347)">
<path d="m 492.6 1465.46 14.7133 8.4947" fill="none" stroke="#000" stroke-width=".7962"/>
<path d="m 499.957 1461.21 1e-05 16.9895" fill="none" stroke="#000" stroke-width=".7962"/>
<path d="m 507.313 1465.46 -14.7133 8.4947" fill="none" stroke="#000" stroke-width=".7962"/>
</g>
<path d="m 505.528 1469.59 c 0 3.3128 -2.6855 5.9983 -5.9982 5.9983 s -5.9982 -2.6855 -5.9982 -5.9983 2.6855 -5.9982 5.9982 -5.9982 5.9982 2.6855 5.9982 5.9982 z" fill="#fff" transform="matrix(1.25712,0,0,1.25712,-128.33432,-377.17615)"/>
<path d="m 497.211 1463.65 -2.1477 1.2348 2.4162 4.1881 h -4.8323 v 2.4698 h 4.8323 l -2.4162 4.188 2.1477 1.2349 2.4162 -4.1879 2.4162 4.1879 2.1477 -1.2349 -2.4162 -4.188 h 4.8323 v -2.4698 h -4.8323 l 2.4162 -4.1881 -2.1477 -1.2348 -2.4162 4.1879 -2.4162 -4.1879 z"/>
<path d="m 505.7 1469.31 c 0 3.1863 -2.583 5.7693 -5.7694 5.7693 s -5.7693 -2.583 -5.7693 -5.7693 2.583 -5.7693 5.7693 -5.7693 5.7694 2.583 5.7694 5.7693 z" transform="matrix(.85908,0,0,.85908,70.14597,208.05381)"/>
</g>
</svg>
