<svg viewBox="0 0 512 512" xmlns="http://www.w3.org/2000/svg">

<g transform="matrix(18.68858,0,0,18.68858,-11802.72468,-32679.52872)">
<path d="m644.1153,1749.6408c-1.3959.1266-2.7588.4577-4.0065,1.0047 .8225,1.7531.7616,3.5698-.3589,4.4099-1.1149.8357-2.8929.427-4.3413-.8387-.8693,1.0408-1.5696,2.2125-2.08,3.5109 1.8101.6599 3.0305,2.015 2.8327,3.3974s-1.7492,2.3412-3.6717,2.4671c.1251,1.3803.4756,2.7173 1.0122,3.9532 .953-.4378 1.9156-.5943 2.7344-.4792 .6973.1 1.2811.3756 1.6679.8915 .8463,1.1289.4051,2.9285-.8996,4.3869 1.0443.875 2.2597,1.5748 3.5641,2.0877 .6598-1.8101 2.0147-3.0306 3.3976-2.8328s2.3411,1.7493 2.467,3.6718c1.3959-.1266 2.7588-.4575 4.0065-1.0046-.8436-1.7656-.7627-3.6168.3665-4.4632 .5158-.3868 1.2072-.4819 1.9042-.3804 .8086.1156 1.668.5486 2.4371,1.2191 .8609-1.0351 1.573-2.2221 2.08-3.5108-1.8101-.6599-3.0305-2.0147-2.8327-3.3977s1.7492-2.341 3.6717-2.4669c-.1262-1.3883-.47-2.7113-1.0122-3.9533-1.745.8089-3.5664.7026-4.4023-.4121-.8399-1.1206-.389-2.8814.892-4.3337-1.0444-.8749-2.2597-1.5749-3.5641-2.0878-.6598,1.8101-2.0147,3.0304-3.3976,2.8328s-2.3412-1.7493-2.467-3.6718z" fill="#fff"/>
<path d="m649.4441,1765.3656c0,1.9751-1.6012,3.5763-3.5763,3.5763s-3.5763-1.6012-3.5763-3.5763 1.6012-3.5763 3.5763-3.5763 3.5763,1.6012 3.5763,3.5763z" transform="matrix(1.65516,0,0,1.65516,-423.73887,-1159.5027)"/>
<path d="m652.0848,1763.5863c0,3.9904-3.2348,7.2252-7.2252,7.2252s-7.2252-3.2348-7.2252-7.2252 3.2348-7.2252 7.2252-7.2252 7.2252,3.2349 7.2252,7.2252z" fill="none" stroke="#000" transform="translate(.4146,-1.1303)"/>
</g>
</svg>
