<svg viewBox="0 0 512 512" xmlns="http://www.w3.org/2000/svg">

<g transform="matrix(18.68858,0,0,18.68858,-11802.72468,-32679.52872)">
<path d="m 644.115 1749.64 c -1.3959 0.1266 -2.7588 0.4577 -4.0065 1.0047 0.8225 1.7531 0.7616 3.5698 -0.3589 4.4099 -1.1149 0.8357 -2.8929 0.427 -4.3413 -0.8387 -0.8693 1.0408 -1.5696 2.2125 -2.08 3.5109 1.8101 0.6599 3.0305 2.015 2.8327 3.3974 s -1.7492 2.3412 -3.6717 2.4671 c 0.1251 1.3803 0.4756 2.7173 1.0122 3.9532 0.953 -0.4378 1.9156 -0.5943 2.7344 -0.4792 0.6973 0.1 1.2811 0.3756 1.6679 0.8915 0.8463 1.1289 0.4051 2.9285 -0.8996 4.3869 1.0443 0.875 2.2597 1.5748 3.5641 2.0877 0.6598 -1.8101 2.0147 -3.0306 3.3976 -2.8328 s 2.3411 1.7493 2.467 3.6718 c 1.3959 -0.1266 2.7588 -0.4575 4.0065 -1.0046 -0.8436 -1.7656 -0.7627 -3.6168 0.3665 -4.4632 0.5158 -0.3868 1.2072 -0.4819 1.9042 -0.3804 0.8086 0.1156 1.668 0.5486 2.4371 1.2191 0.8609 -1.0351 1.573 -2.2221 2.08 -3.5108 -1.8101 -0.6599 -3.0305 -2.0147 -2.8327 -3.3977 s 1.7492 -2.341 3.6717 -2.4669 c -0.1262 -1.3883 -0.47 -2.7113 -1.0122 -3.9533 -1.745 0.8089 -3.5664 0.7026 -4.4023 -0.4121 -0.8399 -1.1206 -0.389 -2.8814 0.892 -4.3337 -1.0444 -0.8749 -2.2597 -1.5749 -3.5641 -2.0878 -0.6598 1.8101 -2.0147 3.0304 -3.3976 2.8328 s -2.3412 -1.7493 -2.467 -3.6718 z" fill="#fff"/>
<path d="m 649.444 1765.37 c 0 1.9751 -1.6012 3.5763 -3.5763 3.5763 s -3.5763 -1.6012 -3.5763 -3.5763 1.6012 -3.5763 3.5763 -3.5763 3.5763 1.6012 3.5763 3.5763 z" transform="matrix(1.65516,0,0,1.65516,-423.73887,-1159.5027)"/>
<path d="m 652.085 1763.59 c 0 3.9904 -3.2348 7.2252 -7.2252 7.2252 s -7.2252 -3.2348 -7.2252 -7.2252 3.2348 -7.2252 7.2252 -7.2252 7.2252 3.2349 7.2252 7.2252 z" fill="none" stroke="#000" transform="translate(.4146,-1.1303)"/>
</g>
</svg>
