<svg viewBox="0 0 512 512" xmlns="http://www.w3.org/2000/svg">

<g transform="matrix(18.68858,0,0,18.68858,-4319.31266,-40834.03083)">
<path d="m 209.2 2210.09 c -1.1579 0 -2.0966 -0.6571 -2.0966 -1.4676 s 0.9387 -1.4676 2.0966 -1.4676" stroke="#fff" stroke-width="1.1803" transform="matrix(-.59908,-.59908,-.59908,.59908,1684.87292,994.74647)"/>
<path d="m 211.297 2208.62 c 0 0.8105 -0.9387 1.4676 -2.0966 1.4676 s -2.0966 -0.6571 -2.0966 -1.4676 0.9387 -1.4676 2.0966 -1.4676 2.0966 0.657 2.0966 1.4676 z" stroke="#fff" stroke-width="1.1803" transform="matrix(-.59908,-.59908,-.59908,.59908,1686.19744,993.42195)"/>
<path d="m 209.2 2207.16 c 1.1579 0 2.0966 0.657 2.0966 1.4676 s -0.9387 1.4676 -2.0966 1.4676" stroke="#fff" stroke-width="1.1803" transform="matrix(-.59908,-.59908,-.59908,.59908,1688.77797,990.84142)"/>
<path d="m 211.297 2208.62 c 0 0.8105 -0.9387 1.4676 -2.0966 1.4676 s -2.0966 -0.6571 -2.0966 -1.4676 0.9387 -1.4676 2.0966 -1.4676 2.0966 0.657 2.0966 1.4676 z" stroke="#fff" stroke-width="1.1803" transform="matrix(-.59908,-.59908,-.59908,.59908,1687.49912,992.12027)"/>
<g transform="matrix(-.86603,-.5,-.5,.86603,1534.0147,400.65677)">
<path d="m 215.552 2191.21 4.2471 1.138" fill="none" stroke="#fff"/>
<path d="m 217.106 2189.65 1.1381 4.2469" fill="none" stroke="#fff"/>
<path d="m 219.23 2190.22 -3.1089 3.109" fill="none" stroke="#fff"/>
<path d="m 105.123 2207.18 c 0 1.4142 -1.1465 2.5607 -2.5607 2.5607 s -2.5607 -1.1465 -2.5607 -2.5607 1.1465 -2.5607 2.5607 -2.5607 2.5607 1.1465 2.5607 2.5607 z" stroke="#fff" stroke-width="2.3785" transform="matrix(.4061,.10881,-.10881,.4061,416.19809,1284.2774)"/>
</g>
<path d="m 232.295 2193.78 v 17.6284 h 13.8547 l -4.3612 -1.0998 11.6389 -2.1887 -8.4535 0.068 3.9197 -3.765 -1.9658 0.1498 3.2369 -3.9227 -1.0786 -1.5237 -6.9088 2.4791 4.781 -8.7953 -9.1208 8.3569 0.0517 -5.5619 -3.551 3.5809 z" fill="#fff"/>
<g transform="matrix(.99212,.12526,-.12526,.99212,279.54266,-15.12528)">
<path d="m 245.979 2198.34 8.9327 2.3935" fill="none" stroke="#fff"/>
<path d="m 247.176 2196.26 6.5392 6.539" fill="none" stroke="#fff"/>
<path d="m 249.249 2195.07 2.3937 8.9325" fill="none" stroke="#fff"/>
<path d="m 251.642 2195.07 -2.3933 8.9325" fill="none" stroke="#fff"/>
<path d="m 253.715 2196.26 -6.5389 6.539" fill="none" stroke="#fff"/>
<path d="m 254.912 2198.34 -8.9323 2.3935" fill="none" stroke="#fff"/>
<path d="m 105.123 2207.18 c 0 1.4142 -1.1465 2.5607 -2.5607 2.5607 s -2.5607 -1.1465 -2.5607 -2.5607 1.1465 -2.5607 2.5607 -2.5607 2.5607 1.1465 2.5607 2.5607 z" stroke="#fff" stroke-width=".7608" transform="matrix(1.26963,.3402,-.3402,1.26963,871.10306,-637.65654)"/>
<path d="m 247.117 2199.53 h 6.6578" fill="none" stroke="#fff"/>
<path d="m 105.123 2207.18 c 0 1.4142 -1.1465 2.5607 -2.5607 2.5607 s -2.5607 -1.1465 -2.5607 -2.5607 1.1465 -2.5607 2.5607 -2.5607 2.5607 1.1465 2.5607 2.5607 z" stroke="#fff" stroke-width="2.2366" transform="matrix(.43188,.11572,-.11572,.43188,461.57057,1234.4249)"/>
</g>
<g transform="matrix(.86603,-.5,.5,.86603,-1031.9759,418.33369)">
<path d="m 215.552 2191.21 4.2471 1.138" fill="none" stroke="#fff"/>
<path d="m 217.106 2189.65 1.1381 4.2469" fill="none" stroke="#fff"/>
<path d="m 219.23 2190.22 -3.1089 3.109" fill="none" stroke="#fff"/>
<path d="m 105.123 2207.18 c 0 1.4142 -1.1465 2.5607 -2.5607 2.5607 s -2.5607 -1.1465 -2.5607 -2.5607 1.1465 -2.5607 2.5607 -2.5607 2.5607 1.1465 2.5607 2.5607 z" stroke="#fff" stroke-width="2.3785" transform="matrix(.4061,.10881,-.10881,.4061,416.19809,1284.2774)"/>
</g>
</g>
</svg>
