<svg viewBox="0 0 512 512" xmlns="http://www.w3.org/2000/svg">

<g transform="matrix(18.68858,0,0,18.68858,-4319.31266,-40834.03083)">
<path d="m209.2003,2210.0919c-1.1579,0-2.0966-.6571-2.0966-1.4676s.9387-1.4676 2.0966-1.4676" stroke="#fff" stroke-width="1.1803" transform="matrix(-.59908,-.59908,-.59908,.59908,1684.87292,994.74647)"/>
<path d="m211.2968,2208.6243c0,.8105-.9387,1.4676-2.0966,1.4676s-2.0966-.6571-2.0966-1.4676 .9387-1.4676 2.0966-1.4676 2.0966.657 2.0966,1.4676z" stroke="#fff" stroke-width="1.1803" transform="matrix(-.59908,-.59908,-.59908,.59908,1686.19744,993.42195)"/>
<path d="m209.2003,2207.1567c1.1579,0 2.0966.657 2.0966,1.4676s-.9387,1.4676-2.0966,1.4676" stroke="#fff" stroke-width="1.1803" transform="matrix(-.59908,-.59908,-.59908,.59908,1688.77797,990.84142)"/>
<path d="m211.2968,2208.6243c0,.8105-.9387,1.4676-2.0966,1.4676s-2.0966-.6571-2.0966-1.4676 .9387-1.4676 2.0966-1.4676 2.0966.657 2.0966,1.4676z" stroke="#fff" stroke-width="1.1803" transform="matrix(-.59908,-.59908,-.59908,.59908,1687.49912,992.12027)"/>
<g transform="matrix(-.86603,-.5,-.5,.86603,1534.0147,400.65677)">
<path d="m215.5518,2191.2086 4.2471,1.138" fill="none" stroke="#fff"/>
<path d="m217.1063,2189.6541 1.1381,4.2469" fill="none" stroke="#fff"/>
<path d="m219.2298,2190.2231-3.1089,3.109" fill="none" stroke="#fff"/>
<path d="m105.123,2207.1787c0,1.4142-1.1465,2.5607-2.5607,2.5607s-2.5607-1.1465-2.5607-2.5607 1.1465-2.5607 2.5607-2.5607 2.5607,1.1465 2.5607,2.5607z" stroke="#fff" stroke-width="2.3785" transform="matrix(.4061,.10881,-.10881,.4061,416.19809,1284.2774)"/>
</g>
<path d="m232.2949,2193.7822v17.6284h13.8547l-4.3612-1.0998 11.6389-2.1887-8.4535.068 3.9197-3.765-1.9658.1498 3.2369-3.9227-1.0786-1.5237-6.9088,2.4791 4.781-8.7953-9.1208,8.3569 .0517-5.5619-3.551,3.5809z" fill="#fff"/>
<g transform="matrix(.99212,.12526,-.12526,.99212,279.54266,-15.12528)">
<path d="m245.9793,2198.3361 8.9327,2.3935" fill="none" stroke="#fff"/>
<path d="m247.176,2196.2634 6.5392,6.539" fill="none" stroke="#fff"/>
<path d="m249.2488,2195.0666 2.3937,8.9325" fill="none" stroke="#fff"/>
<path d="m251.6423,2195.0666-2.3933,8.9325" fill="none" stroke="#fff"/>
<path d="m253.7151,2196.2634-6.5389,6.539" fill="none" stroke="#fff"/>
<path d="m254.9118,2198.3361-8.9323,2.3935" fill="none" stroke="#fff"/>
<path d="m105.123,2207.1787c0,1.4142-1.1465,2.5607-2.5607,2.5607s-2.5607-1.1465-2.5607-2.5607 1.1465-2.5607 2.5607-2.5607 2.5607,1.1465 2.5607,2.5607z" stroke="#fff" stroke-width=".7608" transform="matrix(1.26963,.3402,-.3402,1.26963,871.10306,-637.65654)"/>
<path d="m247.1167,2199.5329h6.6578" fill="none" stroke="#fff"/>
<path d="m105.123,2207.1787c0,1.4142-1.1465,2.5607-2.5607,2.5607s-2.5607-1.1465-2.5607-2.5607 1.1465-2.5607 2.5607-2.5607 2.5607,1.1465 2.5607,2.5607z" stroke="#fff" stroke-width="2.2366" transform="matrix(.43188,.11572,-.11572,.43188,461.57057,1234.4249)"/>
</g>
<g transform="matrix(.86603,-.5,.5,.86603,-1031.9759,418.33369)">
<path d="m215.5518,2191.2086 4.2471,1.138" fill="none" stroke="#fff"/>
<path d="m217.1063,2189.6541 1.1381,4.2469" fill="none" stroke="#fff"/>
<path d="m219.2298,2190.2231-3.1089,3.109" fill="none" stroke="#fff"/>
<path d="m105.123,2207.1787c0,1.4142-1.1465,2.5607-2.5607,2.5607s-2.5607-1.1465-2.5607-2.5607 1.1465-2.5607 2.5607-2.5607 2.5607,1.1465 2.5607,2.5607z" stroke="#fff" stroke-width="2.3785" transform="matrix(.4061,.10881,-.10881,.4061,416.19809,1284.2774)"/>
</g>
</g>
</svg>
