<svg viewBox="0 0 512 512" xmlns="http://www.w3.org/2000/svg">

<g transform="matrix(18.68858,0,0,18.68858,-233.45457,-40154.1459)">
<g transform="matrix(-.24395,.91042,.91042,.24395,-1946.7858,1615.9835)">
<path d="m26.9729,2170.3332c-3.225.0007-5.8388-2.6152-5.8381-5.8427 .0004-1.7878 1.0688-3.2462 2.4951-3.895" fill="none" stroke="#fff" stroke-width="1.061"/>
<path d="m26.9314,2162.3833c0,.9635-.7811,1.7445-1.7445,1.7445s-1.7445-.781-1.7445-1.7445 .7811-1.7445 1.7445-1.7445 1.7445.781 1.7445,1.7445z" fill="#fff" transform="matrix(.91406,0,0,.91406,1.02033,184.97507)"/>
<path d="m27.1342,2169.7315c-2.9247.024-5.2761-2.3949-5.2521-5.4026 .0133-1.666.9927-3.0328 2.2908-3.6478" fill="none" stroke="#fff" stroke-width="1.061"/>
</g>
<g transform="matrix(-.13322,1.03753,1.03753,.13322,-2218.5643,1859.629)">
<path d="m25.786,2170.9505c-2.9032-.4318-5.1304-2.935-5.1304-5.9583-1.3e-05-2.5093 2.0429-4.3887 4.2796-4.3887" fill="none" stroke="#fff" stroke-width=".956"/>
<path d="m26.9314,2162.3833c0,.9635-.7811,1.7445-1.7445,1.7445s-1.7445-.781-1.7445-1.7445 .7811-1.7445 1.7445-1.7445 1.7445.781 1.7445,1.7445z" fill="#fff" transform="matrix(.91406,0,0,.91406,1.81742,185.12674)"/>
<path d="m25.8955,2170.0976c-2.5429-.3805-4.483-2.659-4.468-5.4244 .0125-2.2952 1.8127-4.0243 3.7735-4.0355" fill="none" stroke="#fff" stroke-width=".956"/>
</g>
<g transform="matrix(-.74766,.20033,.20033,.74766,-395.977,535.05126)">
<path d="m26.9749,2170.4349c-3.2457,0-5.8768-2.6363-5.8768-5.8882 0-2.4526 1.9929-4.2896 4.1749-4.2896" fill="none" stroke="#fff" stroke-width="1.2919"/>
<path d="m26.9314,2162.3833c0,.9635-.7811,1.7445-1.7445,1.7445s-1.7445-.781-1.7445-1.7445 .7811-1.7445 1.7445-1.7445 1.7445.781 1.7445,1.7445z" fill="#fff" transform="matrix(.96685,0,0,.96685,.83819,70.53604)"/>
<path d="m28.4039,2169.9812c-3.5639.3531-6.5404-1.9585-6.6481-5.163-.0556-1.6551.9246-3.1274 2.3175-3.9673" fill="none" stroke="#fff" stroke-width="1.2919"/>
</g>
<g transform="matrix(-.6177,-.16551,-.16551,.6177,397.50532,820.21689)">
<path d="m27.1222,2170.6699c-3.327,0-6.0241-2.6971-6.0241-6.0241 0-2.5093 2.0429-4.3887 4.2796-4.3887" fill="none" stroke="#fff" stroke-width="1.5637"/>
<path d="m26.9314,2162.3833c0,.9635-.7811,1.7445-1.7445,1.7445s-1.7445-.781-1.7445-1.7445 .7811-1.7445 1.7445-1.7445 1.7445.781 1.7445,1.7445z" fill="#fff" transform="matrix(.97042,0,0,.97042,1.10427,62.55541)"/>
<path d="m27.9342,2170.1099c-3.3975-.089-6.2234-2.6659-6.312-5.7565-.0668-2.331 1.9693-4.0225 4.2533-3.9629" fill="none" stroke="#fff" stroke-width="1.5637"/>
</g>
<g transform="matrix(-.41008,-.41008,-.41008,.41008,927.22598,1275.1058)">
<path d="m27.1222,2170.6699c-3.327,0-6.0241-2.6971-6.0241-6.0241 0-2.5093 2.0429-4.3887 4.2796-4.3887" fill="none" stroke="#fff" stroke-width="1.7243"/>
<path d="m26.9314,2162.3833c0,.9635-.7811,1.7445-1.7445,1.7445s-1.7445-.781-1.7445-1.7445 .7811-1.7445 1.7445-1.7445 1.7445.781 1.7445,1.7445z" fill="#fff" transform="matrix(1.06508,0,0,1.06508,-1.38895,-142.00816)"/>
</g>
<g transform="matrix(.06742,-.576,-.576,-.06742,1279.715,2315.6601)">
<path d="m27.1256,2170.6572c-3.5262,0-6.3818-2.8621-6.3783-6.4005 .0027-2.6688 2.1699-4.6698 4.5404-4.6722" fill="none" stroke="#fff" stroke-width="1.7243"/>
<path d="m26.9314,2162.3833c0,.9635-.7811,1.7445-1.7445,1.7445s-1.7445-.781-1.7445-1.7445 .7811-1.7445 1.7445-1.7445 1.7445.781 1.7445,1.7445z" fill="#fff" transform="matrix(1.09031,-.0011,-.0011,1.09412,.1055,-205.2709)"/>
</g>
<g transform="matrix(.43597,-.43597,-.43597,-.43597,968.36962,3116.0361)">
<path d="m27.293,2170.4791c-3.6573.01-6.617-2.9473-6.6106-6.5972 .0048-2.7529 2.2541-4.8186 4.7128-4.8228" fill="none" stroke="#fff" stroke-width="1.6219"/>
<path d="m26.9314,2162.3833c0,.9635-.7811,1.7445-1.7445,1.7445s-1.7445-.781-1.7445-1.7445 .7811-1.7445 1.7445-1.7445 1.7445.781 1.7445,1.7445z" fill="#fff" transform="matrix(1.09123,-.0019,-.0019,1.08904,1.74752,-194.70918)"/>
</g>
<g transform="matrix(.54275,0,0,-.54275,19.08336,3341.1255)">
<path d="m27.1222,2170.6699c-3.327,0-6.0241-2.6971-6.0241-6.0241 0-2.5093 2.0429-4.3887 4.2796-4.3887" fill="none" stroke="#fff" stroke-width="1.8425"/>
<path d="m26.9314,2162.3833c0,.9635-.7811,1.7445-1.7445,1.7445s-1.7445-.781-1.7445-1.7445 .7811-1.7445 1.7445-1.7445 1.7445.781 1.7445,1.7445z" fill="#fff" transform="matrix(1.09011,0,0,1.09011,-1.79787,-196.11244)"/>
</g>
<g transform="matrix(.27137,.47003,.47003,-.27137,-997.32501,2741.6056)">
<path d="m27.4871,2171.0927c-3.5064.01-6.3441-2.8149-6.3382-6.3006 .0034-1.9779 1.2248-3.5844 2.8335-4.2604" fill="none" stroke="#fff" stroke-width="1.8425"/>
<path d="m26.9314,2162.3833c0,.9635-.7811,1.7445-1.7445,1.7445s-1.7445-.781-1.7445-1.7445 .7811-1.7445 1.7445-1.7445 1.7445.781 1.7445,1.7445z" fill="#fff" transform="matrix(1.0741,0,0,1.0741,-2.61225,-161.44075)"/>
</g>
<g transform="matrix(-.39081,.29196,.29196,.39081,-596.46291,1307.4167)">
<path d="m27.1763,2170.7822c-3.3688,0-6.0998-2.731-6.0998-6.0998 0-2.5409 2.0686-4.4439 4.3334-4.4439" fill="none" stroke="#fff" stroke-width="2.0499"/>
<path d="m26.9314,2162.3833c0,.9635-.7811,1.7445-1.7445,1.7445s-1.7445-.781-1.7445-1.7445 .7811-1.7445 1.7445-1.7445 1.7445.781 1.7445,1.7445z" fill="#fff" transform="matrix(1.1622,0,0,1.1622,-3.69629,-352.02716)"/>
</g>
<g transform="matrix(-.35202,-.09432,-.09432,.35202,242.16313,1399.087)">
<path d="m27.0972,2170.7132c-3.1208.0003-5.6504-2.5296-5.6501-5.6507 .0002-2.354 1.9166-4.1173 4.0147-4.1175" fill="none" stroke="#fff" stroke-width="2.7439"/>
<path d="m26.9314,2162.3833c0,.9635-.7811,1.7445-1.7445,1.7445s-1.7445-.781-1.7445-1.7445 .7811-1.7445 1.7445-1.7445 1.7445.781 1.7445,1.7445z" fill="#fff" transform="matrix(1.22795,0,0,1.22795,-5.06475,-493.71919)"/>
</g>
<path d="m28.0763,2175.4674h5.0701" fill="none" stroke="#000"/>
<path d="m30.0292,2159.955c-.4532.4737-.4147,1.2309.086,1.6911 .3777.3472.9389.316 1.2435,0" fill="none" stroke="#fff"/>
</g>
</svg>
