<svg viewBox="0 0 512 512" xmlns="http://www.w3.org/2000/svg">

<g transform="matrix(18.68858,0,0,18.68858,-229.67542,-32000.63032)">
<path d="m397.3061,1697.697-9.6706,2.5912-7.0793-7.0793 2.5912-9.6706 9.6706-2.5912 7.0793,7.0794z" fill="#fff" transform="matrix(.49173,.85171,-.85171,.49173,1273.9958,562.30906)"/>
<path d="m23.363,1716.2588 5.2206,19.4829" fill="none" stroke="#000"/>
<path d="m33.1045,1718.869-14.2623,14.2625" fill="none" stroke="#000"/>
<path d="m35.7147,1728.6106-19.4827-5.2207" fill="none" stroke="#000"/>
<path d="m31.6933,1726.1373c-.7656,3.2636-6.4455,4.1788-7.3976,5.8279 1.6e-05-2.0807-4.3056-5.3441-3.5086-8.7502 .7655-3.2712 4.9522-2.9032 5.7917.2296 2.3495-2.3494 5.8689-.5231 5.1145,2.6927z" stroke="#fff"/>
<path d="m397.3061,1697.697-9.6706,2.5912-7.0793-7.0793 2.5912-9.6706 9.6706-2.5912 7.0793,7.0794z" fill="#fff" transform="matrix(.1065,.18447,-.18447,.1065,306.84704,1471.13077)"/>
<path d="m397.3061,1697.697-9.6706,2.5912-7.0793-7.0793 2.5912-9.6706 9.6706-2.5912 7.0793,7.0794z" fill="#fff" transform="matrix(.1065,.18447,-.18447,.1065,285.70288,1476.79634)"/>
<path d="m397.3061,1697.697-9.6706,2.5912-7.0793-7.0793 2.5912-9.6706 9.6706-2.5912 7.0793,7.0794z" fill="#fff" transform="matrix(-.1065,.18447,-.18447,-.1065,387.13361,1841.80918)"/>
<path d="m397.3061,1697.697-9.6706,2.5912-7.0793-7.0793 2.5912-9.6706 9.6706-2.5912 7.0793,7.0794z" fill="#fff" transform="matrix(-.1065,.18447,-.18447,-.1065,371.65501,1826.33058)"/>
<path d="m397.3061,1697.697-9.6706,2.5912-7.0793-7.0793 2.5912-9.6706 9.6706-2.5912 7.0793,7.0794z" fill="#fff" transform="matrix(-.213,2.80299596033817e-10,-2.80299596033817e-10,-.213,106.25999,2096.67852)"/>
<path d="m397.3061,1697.697-9.6706,2.5912-7.0793-7.0793 2.5912-9.6706 9.6706-2.5912 7.0793,7.0794z" fill="#fff" transform="matrix(-.213,2.80299596033817e-10,-2.80299596033817e-10,-.213,111.92555,2075.53436)"/>
<path d="m397.3061,1697.697-9.6706,2.5912-7.0793-7.0793 2.5912-9.6706 9.6706-2.5912 7.0793,7.0794z" transform="matrix(-2.53080120748983e-09,.16674,-.16674,-2.53080120748983e-09,316.13875,1663.15227)"/>
<path d="m397.3061,1697.697-9.6706,2.5912-7.0793-7.0793 2.5912-9.6706 9.6706-2.5912 7.0793,7.0794z" transform="matrix(-2.53080120748983e-09,.16674,-.16674,-2.53080120748983e-09,299.58719,1658.7173)"/>
<path d="m397.3061,1697.697-9.6706,2.5912-7.0793-7.0793 2.5912-9.6706 9.6706-2.5912 7.0793,7.0794z" transform="matrix(-.1444,.08337,-.08337,-.1444,225.48414,1945.86681)"/>
<path d="m397.3061,1697.697-9.6706,2.5912-7.0793-7.0793 2.5912-9.6706 9.6706-2.5912 7.0793,7.0794z" transform="matrix(-.1444,.08337,-.08337,-.1444,221.04916,1929.31526)"/>
<path d="m397.3061,1697.697-9.6706,2.5912-7.0793-7.0793 2.5912-9.6706 9.6706-2.5912 7.0793,7.0794z" transform="matrix(-.1444,-.08337,.08337,-.1444,-64.68139,2008.71481)"/>
<path d="m397.3061,1697.697-9.6706,2.5912-7.0793-7.0793 2.5912-9.6706 9.6706-2.5912 7.0793,7.0794z" transform="matrix(-.1444,-.08337,.08337,-.1444,-52.56481,1996.59823)"/>
<path d="m24.3637,1723.9992 3.3557,3.3556" fill="none" stroke="#fff"/>
<path d="m26.6557,1723.385-1.2283,4.584" fill="none" stroke="#fff"/>
<path d="m28.3336,1725.0629-4.584,1.2282" fill="none" stroke="#fff"/>
</g>
</svg>
