<svg viewBox="0 0 512 512" xmlns="http://www.w3.org/2000/svg">

<g transform="matrix(18.68858,0,0,18.68858,-839.37199,-9761.28811)">
<path d="m68.9356,534.5401c0,8.0734-4.4423,14.6258-9.9159,14.6258s-9.9159-6.5523-9.9159-14.6258c0-6.2128 4.4423-11.6879 9.9159-11.6879s9.9159,5.2785 9.9159,11.6879z" fill="#fff" stroke="#000" stroke-width=".927"/>
<path d="m60.1724,538.2401c1.8949,1.802 4.3657,1.7407 6.466-.3301" fill="none" stroke="#000"/>
<path d="m58.2352,538.2401c-1.8948,1.802-4.3656,1.7407-6.466-.3301" fill="none" stroke="#000"/>
<path d="m55.0558,545.7863c2.7466-.6831 5.4932-.7114 8.2398,0" fill="none" stroke="#000"/>
<path d="m66.9877,531.0184c0,3.5362-3.5505,6.4062-7.9252,6.4062s-7.9252-2.87-7.9252-6.4062 3.5505-7.2901 7.9252-7.2901 7.9252,3.7539 7.9252,7.2901z" stroke="#fff"/>
<path d="m51.2238,530.9981h3.9706l.7674-2.7919 1.3834,5.0334 1.0444-3.8 .4341,1.5793h8.0407" fill="none" stroke="#fff"/>
</g>
</svg>
