<svg viewBox="0 0 512 512" xmlns="http://www.w3.org/2000/svg">

<g transform="matrix(18.68858,0,0,18.68858,-839.37199,-9761.28811)">
<path d="m 68.9356 534.54 c 0 8.0734 -4.4423 14.6258 -9.9159 14.6258 s -9.9159 -6.5523 -9.9159 -14.6258 c 0 -6.2128 4.4423 -11.6879 9.9159 -11.6879 s 9.9159 5.2785 9.9159 11.6879 z" fill="#fff" stroke="#000" stroke-width=".927"/>
<path d="m 60.1724 538.24 c 1.8949 1.802 4.3657 1.7407 6.466 -0.3301" fill="none" stroke="#000"/>
<path d="m 58.2352 538.24 c -1.8948 1.802 -4.3656 1.7407 -6.466 -0.3301" fill="none" stroke="#000"/>
<path d="m 55.0558 545.786 c 2.7466 -0.6831 5.4932 -0.7114 8.2398 0" fill="none" stroke="#000"/>
<path d="m 66.9877 531.018 c 0 3.5362 -3.5505 6.4062 -7.9252 6.4062 s -7.9252 -2.87 -7.9252 -6.4062 3.5505 -7.2901 7.9252 -7.2901 7.9252 3.7539 7.9252 7.2901 z" stroke="#fff"/>
<path d="m 51.2238 530.998 h 3.9706 l 0.7674 -2.7919 1.3834 5.0334 1.0444 -3.8 0.4341 1.5793 h 8.0407" fill="none" stroke="#fff"/>
</g>
</svg>
