<svg viewBox="0 0 512 512" xmlns="http://www.w3.org/2000/svg">

<g transform="matrix(18.68858,0,0,18.68858,-8404.92031,-42185.07874)">
<path d="m476.2155,2272.9634c.964-4.134.446-10.3818-2.7042-10.1149-7.8576.6657-15.5972,2.4113-22.063,5.925-2.7799,1.5107-.193,7.0179 2.7041,10.1148z" fill="#fff" stroke="#000"/>
<path d="m453.7695,2270.5671 2.0387,7.6084" fill="none" stroke="#000"/>
<path d="m472.3855,2265.5792 2.0387,7.6083" fill="none" stroke="#000"/>
<path d="m470.3345,2266.1287 2.0387,7.6083" fill="none" stroke="#000"/>
<path d="m455.8598,2270.0071 2.0387,7.6083" fill="none" stroke="#000"/>
<path d="m457.8318,2269.4787 2.0387,7.6083" fill="none" stroke="#000"/>
<path d="m468.2442,2266.6888 2.0387,7.6083" fill="none" stroke="#000"/>
<path d="m459.8827,2268.9292 2.0387,7.6083" fill="none" stroke="#000"/>
<path d="m466.075,2267.27 2.0387,7.6083" fill="none" stroke="#000"/>
<path d="m461.9731,2268.369 2.0387,7.6084" fill="none" stroke="#000"/>
<path d="m464.0635,2267.8089 2.0387,7.6083" fill="none" stroke="#000"/>
</g>
</svg>
