<svg viewBox="0 0 512 512" xmlns="http://www.w3.org/2000/svg">

<g transform="matrix(18.68858,0,0,18.68858,-8404.92031,-42185.07874)">
<path d="m 476.216 2272.96 c 0.964 -4.134 0.446 -10.3818 -2.7042 -10.1149 -7.8576 0.6657 -15.5972 2.4113 -22.063 5.925 -2.7799 1.5107 -0.193 7.0179 2.7041 10.1148 z" fill="#fff" stroke="#000"/>
<path d="m 453.769 2270.57 2.0387 7.6084" fill="none" stroke="#000"/>
<path d="m 472.385 2265.58 2.0387 7.6083" fill="none" stroke="#000"/>
<path d="m 470.334 2266.13 2.0387 7.6083" fill="none" stroke="#000"/>
<path d="m 455.86 2270.01 2.0387 7.6083" fill="none" stroke="#000"/>
<path d="m 457.832 2269.48 2.0387 7.6083" fill="none" stroke="#000"/>
<path d="m 468.244 2266.69 2.0387 7.6083" fill="none" stroke="#000"/>
<path d="m 459.883 2268.93 2.0387 7.6083" fill="none" stroke="#000"/>
<path d="m 466.075 2267.27 2.0387 7.6083" fill="none" stroke="#000"/>
<path d="m 461.973 2268.37 2.0387 7.6084" fill="none" stroke="#000"/>
<path d="m 464.063 2267.81 2.0387 7.6083" fill="none" stroke="#000"/>
</g>
</svg>
