<svg viewBox="0 0 512 512" xmlns="http://www.w3.org/2000/svg">

<g transform="matrix(18.68858,0,0,18.68858,-2951.57115,-25863.26784)">
<path d="m168.6443,1404.2981c.2245,1.9407.134,3.7707-.4107,5.5424 2.5769-1.1182 3.1826-2.6994 3.0351-5.223" fill="#fff"/>
<path d="m166.3088,1402.9102c-.5016,1.3178-1.2361,2.409-2.3432,3.2372 2.6327.5938 3.7242-.085 4.5014-1.7265" fill="#fff"/>
<path d="m176.8814,1402.7255c.5016,1.3178 1.2361,2.409 2.3432,3.2372-2.6327.5938-3.7242-.085-4.5014-1.7265" fill="#fff"/>
<path d="m174.5481,1404.3727c-.2245,1.9407-.134,3.7707.4107,5.5424-2.5769-1.1182-3.1826-2.6994-3.0351-5.223" fill="#fff"/>
<path d="m167.9889,1390.5377-2.8652,12.1865 6.506,4.7892 6.506-4.7892-2.8652-12.1865z" fill="#fff" stroke="#000"/>
<path d="m176.9852,1400.1429c1.2865.5771 2.5775.8294 3.9459.6321-1.4418,2.2815-2.6935,2.5733-4.4038,1.9622" fill="#fff"/>
<path d="m166.2913,1400.1429c-1.2865.5771-2.5775.8294-3.9459.6321 1.4418,2.2815 2.6935,2.5733 4.4038,1.9622" fill="#fff"/>
<path d="m164.6126,1385.593-5.5221,5.522 12.5391,12.5392 12.5391-12.5392-5.5221-5.522-7.017,2.3167z" fill="#fff"/>
<g transform="matrix(.97628,0,0,.97628,4.29877,33.04283)">
<path d="m177.5933,1403.5058-1.1778-6.7844" fill="none" stroke="#000" stroke-width="1.0243"/>
<path d="m165.2329,1403.3838 1.1434-6.6624" fill="none" stroke="#000" stroke-width="1.0243"/>
</g>
<g transform="matrix(.97628,0,0,.97628,4.33521,33.04283)">
<path d="m168.2217,1405.5315 .6177-7.989" fill="none" stroke="#000" stroke-width="1.0243"/>
<path d="m174.4989,1405.551-.6212-8.0085" fill="none" stroke="#000" stroke-width="1.0243"/>
</g>
<path d="m171.6297,1407.6099v-10.17" fill="none" stroke="#000"/>
<path d="m171.6297,1394.0336 2.1589-.8248-2.1589,5.8887-2.1589-5.8885z"/>
<g transform="matrix(.97628,0,0,.97628,4.17686,33.04283)">
<path d="m175.7409,1394.0966 5.6247-2.3523-3.6274-3.8215z"/>
<path d="m167.145,1394.0966-5.6247-2.3523 3.6274-3.8215z"/>
</g>
</g>
</svg>
