<svg viewBox="0 0 512 512" xmlns="http://www.w3.org/2000/svg">

<g transform="matrix(18.68858,0,0,18.68858,-2951.57115,-25863.26784)">
<path d="m 168.644 1404.3 c 0.2245 1.9407 0.134 3.7707 -0.4107 5.5424 2.5769 -1.1182 3.1826 -2.6994 3.0351 -5.223" fill="#fff"/>
<path d="m 166.309 1402.91 c -0.5016 1.3178 -1.2361 2.409 -2.3432 3.2372 2.6327 0.5938 3.7242 -0.085 4.5014 -1.7265" fill="#fff"/>
<path d="m 176.881 1402.73 c 0.5016 1.3178 1.2361 2.409 2.3432 3.2372 -2.6327 0.5938 -3.7242 -0.085 -4.5014 -1.7265" fill="#fff"/>
<path d="m 174.548 1404.37 c -0.2245 1.9407 -0.134 3.7707 0.4107 5.5424 -2.5769 -1.1182 -3.1826 -2.6994 -3.0351 -5.223" fill="#fff"/>
<path d="m 167.989 1390.54 -2.8652 12.1865 6.506 4.7892 6.506 -4.7892 -2.8652 -12.1865 z" fill="#fff" stroke="#000"/>
<path d="m 176.985 1400.14 c 1.2865 0.5771 2.5775 0.8294 3.9459 0.6321 -1.4418 2.2815 -2.6935 2.5733 -4.4038 1.9622" fill="#fff"/>
<path d="m 166.291 1400.14 c -1.2865 0.5771 -2.5775 0.8294 -3.9459 0.6321 1.4418 2.2815 2.6935 2.5733 4.4038 1.9622" fill="#fff"/>
<path d="m 164.613 1385.59 -5.5221 5.522 12.5391 12.5392 12.5391 -12.5392 -5.5221 -5.522 -7.017 2.3167 z" fill="#fff"/>
<g transform="matrix(.97628,0,0,.97628,4.29877,33.04283)">
<path d="m 177.593 1403.51 -1.1778 -6.7844" fill="none" stroke="#000" stroke-width="1.0243"/>
<path d="m 165.233 1403.38 1.1434 -6.6624" fill="none" stroke="#000" stroke-width="1.0243"/>
</g>
<g transform="matrix(.97628,0,0,.97628,4.33521,33.04283)">
<path d="m 168.222 1405.53 0.6177 -7.989" fill="none" stroke="#000" stroke-width="1.0243"/>
<path d="m 174.499 1405.55 -0.6212 -8.0085" fill="none" stroke="#000" stroke-width="1.0243"/>
</g>
<path d="m 171.63 1407.61 v -10.17" fill="none" stroke="#000"/>
<path d="m 171.63 1394.03 2.1589 -0.8248 -2.1589 5.8887 -2.1589 -5.8885 z"/>
<g transform="matrix(.97628,0,0,.97628,4.17686,33.04283)">
<path d="m 175.741 1394.1 5.6247 -2.3523 -3.6274 -3.8215 z"/>
<path d="m 167.145 1394.1 -5.6247 -2.3523 3.6274 -3.8215 z"/>
</g>
</g>
</svg>
