<svg viewBox="0 0 512 512" xmlns="http://www.w3.org/2000/svg">

<g transform="matrix(18.68858,0,0,18.68858,-1590.09614,-23140.19208)">
<g transform="matrix(-1,0,0,1,161.27932,0)">
<path d="m69.0489,1258.7187c-2.9463,1.8788-9.1041,1.6818-12.2843.1997-2.111-.9838 1.984-5.1469 4.8307-7.2855 .9898-.7436 1.5632-.455 2.2663.087 2.9897,2.3056 6.948,5.8759 5.1873,6.9986z" fill="#fff" fill-rule="evenodd"/>
<path d="m68.4483,1263.9345c0,1.0877-2.3432,1.0779-2.3432,0s2.3432-1.0574 2.3432,0z" fill="#fff" fill-rule="evenodd"/>
<path d="m65.6434,1262.6284c0,1.0877-2.3432,1.0779-2.3432,0s2.3432-1.0573 2.3432,0z" fill="#fff" fill-rule="evenodd"/>
<path d="m59.0858,1259.2619c0,1.4154-3.0491,1.4026-3.0491,0s3.0491-1.3759 3.0491,0z" fill="#fff" fill-rule="evenodd"/>
<path d="m57.7463,1263.7043c0-1.2467 2.6858-1.2355 2.6858,0s-2.6858,1.212-2.6858,0z" fill="#fff" fill-rule="evenodd"/>
<path d="m50.9604,1260.7918c0-1.0678 2.3004-1.0582 2.3004,0s-2.3004,1.0381-2.3004,0z" fill="#fff" fill-rule="evenodd"/>
<path d="m56.7943,1258.5512c0,1.1392-2.4541,1.129-2.4541,0s2.4541-1.1074 2.4541,0z" fill="#fff" fill-rule="evenodd"/>
<path d="m70.9404,1257.9961c0-1.0677 2.3004-1.0581 2.3004,0s-2.3004,1.0381-2.3004,0z" fill="#fff" fill-rule="evenodd"/>
<path d="m60.7189,1259.8457c0,.9485-2.0434.94-2.0434,0s2.0434-.9221 2.0434,0z" fill="#fff" fill-rule="evenodd"/>
<path d="m63.1169,1261.1304c0,.9485-2.0434.94-2.0434,0s2.0434-.9221 2.0434,0z" fill="#fff" fill-rule="evenodd"/>
<path d="m57.4182,1262.3384c0,.9486-2.0434.94-2.0434,0s2.0434-.9221 2.0434,0z" fill="#fff" fill-rule="evenodd"/>
<path d="m68.9018,1259.3746c0,.9486-2.0434.94-2.0434,0s2.0434-.9221 2.0434,0z" fill="#fff" fill-rule="evenodd"/>
<path d="m70.3149,1258.6038c0,.9486-2.0434.94-2.0434,0s2.0434-.9221 2.0434,0z" fill="#fff" fill-rule="evenodd"/>
<path d="m71.3475,1261.6418c0-.9486 2.0434-.94 2.0434,0s-2.0434.9221-2.0434,0z" fill="#fff" fill-rule="evenodd"/>
<path d="m73.1193,1259.4449c0-.9485 2.0434-.94 2.0434,0s-2.0434.9221-2.0434,0z" fill="#fff" fill-rule="evenodd"/>
<path d="m56.2827,1263.3147c0,1.1174-2.4074,1.1074-2.4074,0s2.4074-1.0864 2.4074,0z" fill="#fff" fill-rule="evenodd"/>
<path d="m54.8267,1262.9087c0,.9486-2.0434.94-2.0434,0s2.0434-.9221 2.0434,0z" fill="#fff" fill-rule="evenodd"/>
<path d="m65.7411,1261.0546c0-.9485 2.0434-.94 2.0434,0s-2.0434.9221-2.0434,0z" fill="#fff" fill-rule="evenodd"/>
<path d="m67.1542,1261.2259c0-.9485 2.0434-.94 2.0434,0s-2.0434.9221-2.0434,0z" fill="#fff" fill-rule="evenodd"/>
<path d="m56.8515,1259.5459c0,.9486-2.0434.94-2.0434,0s2.0434-.9221 2.0434,0z" fill="#fff" fill-rule="evenodd"/>
<path d="m52.2204,1258.5936c0,.9486-2.0434.94-2.0434,0s2.0434-.922 2.0434,0z" fill="#fff" fill-rule="evenodd"/>
</g>
<path d="m863.3196,689.9316h1.9895v1.9895h-1.9895z" fill="#fff" transform="matrix(.59963,.80028,-.59963,.80028,0,0)"/>
<path d="m856.8089,693.054h1.9895v1.9895h-1.9895z" fill="#fff" transform="matrix(.59963,.80028,-.59963,.80028,0,0)"/>
<path d="m-688.6138-863.9924h1.9895v1.9895h-1.9895z" fill="#fff" transform="matrix(.59963,-.80028,-.59963,-.80028,0,0)"/>
<path d="m860.9611,696.5099h1.652v1.652h-1.652z" fill="#fff" transform="matrix(.59963,.80028,-.59963,.80028,0,0)"/>
<path d="m859.8697,701.954h1.5186v1.5186h-1.5186z" fill="#fff" transform="matrix(.59963,.80028,-.59963,.80028,0,0)"/>
<path d="m854.7637,705.2498h1.5186v1.5186h-1.5186z" fill="#fff" transform="matrix(.59963,.80028,-.59963,.80028,0,0)"/>
<path d="m848.403,701.6862h1.5186v1.5186h-1.5186z" fill="#fff" transform="matrix(.59963,.80028,-.59963,.80028,0,0)"/>
<path d="m852.6074,695.5114h1.5186v1.5186h-1.5186z" fill="#fff" transform="matrix(.59963,.80028,-.59963,.80028,0,0)"/>
<path d="m104.1235,1248.075-.75,1.625-1.625.75 1.625.7813 .75,1.5937 .75-1.625 1.625-.75-1.5938-.75-.7812-1.625z" fill="#fff"/>
<path d="m92.8067,1242.5428-.9128,1.9778-1.9778.9128 1.9778.9509 .9128,1.9397 .9128-1.9778 1.9778-.9128-1.9397-.9128-.9508-1.9778z" fill="#fff"/>
<path d="m108.9028,1241.8348-.7267,1.5742-1.5744.7268 1.5744.7571 .7267,1.5439 .7267-1.5742 1.5744-.7268-1.5441-.7268-.757-1.5742z" fill="#fff"/>
</g>
</svg>
