<svg viewBox="0 0 512 512" xmlns="http://www.w3.org/2000/svg">

<g transform="matrix(18.68858,0,0,18.68858,-1590.09614,-23140.19208)">
<g transform="matrix(-1,0,0,1,161.27932,0)">
<path d="m 69.0489 1258.72 c -2.9463 1.8788 -9.1041 1.6818 -12.2843 0.1997 -2.111 -0.9838 1.984 -5.1469 4.8307 -7.2855 0.9898 -0.7436 1.5632 -0.455 2.2663 0.087 2.9897 2.3056 6.948 5.8759 5.1873 6.9986 z" fill="#fff" fill-rule="evenodd"/>
<path d="m 68.4483 1263.93 c 0 1.0877 -2.3432 1.0779 -2.3432 0 s 2.3432 -1.0574 2.3432 0 z" fill="#fff" fill-rule="evenodd"/>
<path d="m 65.6434 1262.63 c 0 1.0877 -2.3432 1.0779 -2.3432 0 s 2.3432 -1.0573 2.3432 0 z" fill="#fff" fill-rule="evenodd"/>
<path d="m 59.0858 1259.26 c 0 1.4154 -3.0491 1.4026 -3.0491 0 s 3.0491 -1.3759 3.0491 0 z" fill="#fff" fill-rule="evenodd"/>
<path d="m 57.7463 1263.7 c 0 -1.2467 2.6858 -1.2355 2.6858 0 s -2.6858 1.212 -2.6858 0 z" fill="#fff" fill-rule="evenodd"/>
<path d="m 50.9604 1260.79 c 0 -1.0678 2.3004 -1.0582 2.3004 0 s -2.3004 1.0381 -2.3004 0 z" fill="#fff" fill-rule="evenodd"/>
<path d="m 56.7943 1258.55 c 0 1.1392 -2.4541 1.129 -2.4541 0 s 2.4541 -1.1074 2.4541 0 z" fill="#fff" fill-rule="evenodd"/>
<path d="m 70.9404 1258 c 0 -1.0677 2.3004 -1.0581 2.3004 0 s -2.3004 1.0381 -2.3004 0 z" fill="#fff" fill-rule="evenodd"/>
<path d="m 60.7189 1259.85 c 0 0.9485 -2.0434 0.94 -2.0434 0 s 2.0434 -0.9221 2.0434 0 z" fill="#fff" fill-rule="evenodd"/>
<path d="m 63.1169 1261.13 c 0 0.9485 -2.0434 0.94 -2.0434 0 s 2.0434 -0.9221 2.0434 0 z" fill="#fff" fill-rule="evenodd"/>
<path d="m 57.4182 1262.34 c 0 0.9486 -2.0434 0.94 -2.0434 0 s 2.0434 -0.9221 2.0434 0 z" fill="#fff" fill-rule="evenodd"/>
<path d="m 68.9018 1259.37 c 0 0.9486 -2.0434 0.94 -2.0434 0 s 2.0434 -0.9221 2.0434 0 z" fill="#fff" fill-rule="evenodd"/>
<path d="m 70.3149 1258.6 c 0 0.9486 -2.0434 0.94 -2.0434 0 s 2.0434 -0.9221 2.0434 0 z" fill="#fff" fill-rule="evenodd"/>
<path d="m 71.3475 1261.64 c 0 -0.9486 2.0434 -0.94 2.0434 0 s -2.0434 0.9221 -2.0434 0 z" fill="#fff" fill-rule="evenodd"/>
<path d="m 73.1193 1259.44 c 0 -0.9485 2.0434 -0.94 2.0434 0 s -2.0434 0.9221 -2.0434 0 z" fill="#fff" fill-rule="evenodd"/>
<path d="m 56.2827 1263.31 c 0 1.1174 -2.4074 1.1074 -2.4074 0 s 2.4074 -1.0864 2.4074 0 z" fill="#fff" fill-rule="evenodd"/>
<path d="m 54.8267 1262.91 c 0 0.9486 -2.0434 0.94 -2.0434 0 s 2.0434 -0.9221 2.0434 0 z" fill="#fff" fill-rule="evenodd"/>
<path d="m 65.7411 1261.05 c 0 -0.9485 2.0434 -0.94 2.0434 0 s -2.0434 0.9221 -2.0434 0 z" fill="#fff" fill-rule="evenodd"/>
<path d="m 67.1542 1261.23 c 0 -0.9485 2.0434 -0.94 2.0434 0 s -2.0434 0.9221 -2.0434 0 z" fill="#fff" fill-rule="evenodd"/>
<path d="m 56.8515 1259.55 c 0 0.9486 -2.0434 0.94 -2.0434 0 s 2.0434 -0.9221 2.0434 0 z" fill="#fff" fill-rule="evenodd"/>
<path d="m 52.2204 1258.59 c 0 0.9486 -2.0434 0.94 -2.0434 0 s 2.0434 -0.922 2.0434 0 z" fill="#fff" fill-rule="evenodd"/>
</g>
<path d="m 863.32 689.932 h 1.9895 v 1.9895 h -1.9895 z" fill="#fff" transform="matrix(.59963,.80028,-.59963,.80028,0,0)"/>
<path d="m 856.809 693.054 h 1.9895 v 1.9895 h -1.9895 z" fill="#fff" transform="matrix(.59963,.80028,-.59963,.80028,0,0)"/>
<path d="m -688.614 -863.992 h 1.9895 v 1.9895 h -1.9895 z" fill="#fff" transform="matrix(.59963,-.80028,-.59963,-.80028,0,0)"/>
<path d="m 860.961 696.51 h 1.652 v 1.652 h -1.652 z" fill="#fff" transform="matrix(.59963,.80028,-.59963,.80028,0,0)"/>
<path d="m 859.87 701.954 h 1.5186 v 1.5186 h -1.5186 z" fill="#fff" transform="matrix(.59963,.80028,-.59963,.80028,0,0)"/>
<path d="m 854.764 705.25 h 1.5186 v 1.5186 h -1.5186 z" fill="#fff" transform="matrix(.59963,.80028,-.59963,.80028,0,0)"/>
<path d="m 848.403 701.686 h 1.5186 v 1.5186 h -1.5186 z" fill="#fff" transform="matrix(.59963,.80028,-.59963,.80028,0,0)"/>
<path d="m 852.607 695.511 h 1.5186 v 1.5186 h -1.5186 z" fill="#fff" transform="matrix(.59963,.80028,-.59963,.80028,0,0)"/>
<path d="m 104.124 1248.08 -0.75 1.625 -1.625 0.75 1.625 0.7813 0.75 1.5937 0.75 -1.625 1.625 -0.75 -1.5938 -0.75 -0.7812 -1.625 z" fill="#fff"/>
<path d="m 92.8067 1242.54 -0.9128 1.9778 -1.9778 0.9128 1.9778 0.9509 0.9128 1.9397 0.9128 -1.9778 1.9778 -0.9128 -1.9397 -0.9128 -0.9508 -1.9778 z" fill="#fff"/>
<path d="m 108.903 1241.83 -0.7267 1.5742 -1.5744 0.7268 1.5744 0.7571 0.7267 1.5439 0.7267 -1.5742 1.5744 -0.7268 -1.5441 -0.7268 -0.757 -1.5742 z" fill="#fff"/>
</g>
</svg>
