<svg viewBox="0 0 512 512" xmlns="http://www.w3.org/2000/svg">

<g transform="matrix(18.81491,0,0,18.81491,-14624.69936,-12248.9005)">
<path d="m794.0092,653.8464c-3.4849,6.0638-6.7965,11.7006-10.2443,17.6396-1.0392,1.7899-.6618,3.9438.8398,4.8065s3.5705.1142 4.6008-1.6807c3.4188-5.9555 6.7365-11.5892 10.2444-17.6396" fill="#fff" stroke="#fff" stroke-width=".9933"/>
<path d="m796.3622,651.5686c-2.642,4.5956-9.1324,15.7571-11.7451,20.2588-.7875,1.3566-.5572,2.9571.5124,3.5714s2.5814.0146 3.3627-1.3456c2.5921-4.5134 9.0868-15.6728 11.7451-20.2587" fill="none" stroke="#000" stroke-width=".9933"/>
<path d="m1168.6134,752.2585h5.5304v10.3975h-5.5304z" transform="matrix(1,0,-.49612,.86825,0,0)"/>
<path d="m800.6856,654.5236c-.4309.7453-3.2563,5.4018-5.7856,3.9435-2.5767-1.4857.1525-6.2388.5626-6.9483" fill="#fff" stroke="#000" stroke-width=".9933"/>
</g>
</svg>
