<svg viewBox="0 0 512 512" xmlns="http://www.w3.org/2000/svg">

<g transform="matrix(18.81491,0,0,18.81491,-14624.69936,-12248.9005)">
<path d="m 794.009 653.846 c -3.4849 6.0638 -6.7965 11.7006 -10.2443 17.6396 -1.0392 1.7899 -0.6618 3.9438 0.8398 4.8065 s 3.5705 0.1142 4.6008 -1.6807 c 3.4188 -5.9555 6.7365 -11.5892 10.2444 -17.6396" fill="#fff" stroke="#fff" stroke-width=".9933"/>
<path d="m 796.362 651.569 c -2.642 4.5956 -9.1324 15.7571 -11.7451 20.2588 -0.7875 1.3566 -0.5572 2.9571 0.5124 3.5714 s 2.5814 0.0146 3.3627 -1.3456 c 2.5921 -4.5134 9.0868 -15.6728 11.7451 -20.2587" fill="none" stroke="#000" stroke-width=".9933"/>
<path d="m 1168.61 752.259 h 5.5304 v 10.3975 h -5.5304 z" transform="matrix(1,0,-.49612,.86825,0,0)"/>
<path d="m 800.686 654.524 c -0.4309 0.7453 -3.2563 5.4018 -5.7856 3.9435 -2.5767 -1.4857 0.1525 -6.2388 0.5626 -6.9483" fill="#fff" stroke="#000" stroke-width=".9933"/>
</g>
</svg>
