<svg viewBox="0 0 512 512" xmlns="http://www.w3.org/2000/svg">

<g transform="matrix(18.68858,0,0,18.68858,-11803.25186,-24503.54268)">
<path d="m654.0408,1329.4153c4.0796-6.616-4.6352-17.2668-9.0638-17.2668-4.5281,0-13.0316,9.0159-8.7483,17.0132" fill="#fff" fill-rule="evenodd"/>
<path d="m646.8664,1338.0625c1.6907-4.1819 7.4151-7.8872 7.4149-10.9062 .0003-3.4679-4.4181-7.4375-8.9375-7.4375-4.6208-.0001-9.2492,4.0194-9.25,7.3125 3e-05,2.9848 4.9912,6.7196 6.7957,11.0312" fill-rule="evenodd" stroke="#fff"/>
<path d="m695.1875,438.8622c0,6.4548-3.5398,11.6875-7.9062,11.6875s-7.9062-5.2327-7.9062-11.6875 3.5398-11.6875 7.9062-11.6875 7.9062,5.2327 7.9062,11.6875z" fill="#fff" transform="matrix(.81245,0,0,.80679,86.88842,968.43127)"/>
<path d="m639.9435,1324.2305c1.0245,2.2454 3.2784,2.1725 4.1799,0-1.3933-.5084-2.7866-.5519-4.1799,0z" fill-rule="evenodd"/>
<path d="m637.1324,1326.547c.7905-3.3911 4.8464-6.0659 7.841-7.7071 3.3552,1.1509 7.244,3.7903 8.2424,7.6276" fill="none" stroke="#000"/>
<path d="m650.6766,1324.2305c-1.0245,2.2454-3.2784,2.1725-4.1799,0 1.3933-.5084 2.7866-.5519 4.1799,0z" fill-rule="evenodd"/>
<path d="m638.1973,1338.0454h14.7446" fill="none" stroke="#000"/>
</g>
</svg>
