<svg viewBox="0 0 512 512" xmlns="http://www.w3.org/2000/svg">

<g transform="matrix(18.68858,0,0,18.68858,-5674.69017,-230.9801)">
<path d="m317.3368,12.6186v26.8257" fill="none" stroke="#000"/>
<g transform="translate(511.454,-72.5125)">
<path d="m-196.327,101.8217c2.472,2.5169 1.7682,7.6614 7.5125,5.7403-2.9067,7.5082-11.7906,1.1272-14.0899-5.0866 2.1328.1036 4.2132.3191 6.5774-.6537z" fill="#fff" fill-rule="evenodd"/>
<path d="m-184.6043,109.0212c16.9892-18.377-31.6876-28.9429-21.1134-7.0849 10.5002,2.7723 20.2549-7.6473 21.1134,7.0849z" fill="#fff" fill-rule="evenodd" stroke="#000"/>
<path d="m-195.6397,93.031-2.7712-6.9618-3.3119,5.61 6.0832,1.3518z" fill="#fff" fill-rule="evenodd"/>
<path d="m-186.7686,97.379-.8749-7.4419-4.6511,4.5617 5.526,2.8802z" fill="#fff" fill-rule="evenodd"/>
<path d="m-191.3004,94.8267-.8749-7.4419-4.6511,4.5617 5.526,2.8802z" fill="#fff" fill-rule="evenodd"/>
<path d="m-186.5624,100.4009 2.9632-6.8823-6.3088,1.625 3.3456,5.2573z" fill="#fff" fill-rule="evenodd"/>
</g>
</g>
</svg>
