<svg viewBox="0 0 512 512" xmlns="http://www.w3.org/2000/svg">

<g transform="matrix(18.68858,0,0,18.68858,-13165.49236,-21124.65302)">
<g transform="translate(109.2796,-.6236)">
<path d="m 616.547 1145.51 c 2.895 -4.9646 7.0332 -2.5074 4.6261 4.1447 -1.4612 4.0383 -6.1978 5.6523 -9.9351 2.389 1.4157 -0.8336 2.9966 -1.9202 3.4993 -3.0323 -1.6102 -0.024 -3.1242 0.3106 -4.6254 0.693 1.5524 -3.1722 3.3437 -4.7092 6.4351 -4.1944 z" fill="#fff" fill-rule="evenodd" stroke="#000"/>
<path d="m 602.557 1146.48 c -6.9816 -4.4812 -9.8332 1.0282 -3.1122 6.8946 4.0328 3.52 10.1526 2.3857 12.226 -3.4607 -2.0415 -0.045 -3.6535 -0.038 -4.8736 -0.9448 1.7318 -1.0101 2.2054 -1.1883 4.0658 -1.6879 -3.0754 -2.4393 -5.8749 -2.2612 -8.3059 -0.8012 z" fill="#fff" fill-rule="evenodd" stroke="#000"/>
<path d="m 596.234 1141.81 c 3.1326 -0.5343 6.0818 0.3249 8.8696 1.8188 3.7555 -2.1183 7.7446 -2.4015 11.4779 -1.0106 0.5626 -2.1959 2.2788 -3.4234 4.7866 -3.9858 -6.3784 -6.2625 -20.3458 -6.5299 -25.134 3.1776 z" fill="#fff" fill-rule="evenodd"/>
<path d="m 613.677 1144.62 c 0 0.625 -0.5067 1.1317 -1.1317 1.1317 s -1.1317 -0.5067 -1.1317 -1.1317 0.5067 -1.1316 1.1317 -1.1316 1.1317 0.5066 1.1317 1.1316 z" fill="#fff" stroke="#000" stroke-width=".7005" transform="matrix(1.41575,0,0,1.43957,-253.76922,-503.69923)"/>
<path d="m 613.677 1144.62 c 0 0.625 -0.5067 1.1317 -1.1317 1.1317 s -1.1317 -0.5067 -1.1317 -1.1317 0.5067 -1.1316 1.1317 -1.1316 1.1317 0.5066 1.1317 1.1316 z" fill="#fff" stroke="#000" stroke-width=".7005" transform="matrix(1.41575,0,0,1.43957,-258.2007,-503.47508)"/>
</g>
<path d="m 718.74 1147.71 c -1.4256 0.3911 -3.0073 0.5714 -5.3841 -0.6858 1.4662 1.4519 2.5556 2.3078 4.8075 2.5793" fill-rule="evenodd"/>
<path d="m 721.165 1149.23 c 1.4235 -0.3445 2.5911 -0.7959 4.1632 -2.4525 -0.6468 1.5423 -1.2814 3.1194 -2.9121 3.8525" fill-rule="evenodd"/>
</g>
</svg>
