<svg viewBox="0 0 512 512" xmlns="http://www.w3.org/2000/svg">

<g transform="matrix(18.68858,0,0,18.68858,-9760.05695,-34037.77337)">
<path d="m695.1875,438.8622c0,6.4548-3.5398,11.6875-7.9062,11.6875s-7.9062-5.2327-7.9062-11.6875 3.5398-11.6875 7.9062-11.6875 7.9062,5.2327 7.9062,11.6875z" fill="#fff" transform="matrix(1.39547,0,0,1.08075,-423.33531,1360.6966)"/>
<path d="m535.4016,1833.6226c0,2.0798-1.6861,3.7658-3.7659,3.7658s-3.7659-1.686-3.7659-3.7658 1.6861-3.7659 3.7659-3.7659 3.7659,1.686 3.7659,3.7659z" stroke="#000" stroke-width="1.5722" transform="matrix(-.61437,.16462,.16462,.61437,566.74543,621.66883)"/>
<path d="m541.4545,1833.3648c-3.1762.8511-5.0611,4.1158-4.21,7.2921" fill="none" stroke="#000"/>
<path d="m542.5622,1838.0275c3.1761-.851 5.0611-4.1156 4.21-7.2919" fill="none" stroke="#000"/>
<path d="m535.4016,1833.6226c0,2.0798-1.6861,3.7658-3.7659,3.7658s-3.7659-1.686-3.7659-3.7658 1.6861-3.7659 3.7659-3.7659 3.7659,1.686 3.7659,3.7659z" stroke="#000" stroke-width="1.5722" transform="matrix(.61437,.16462,-.16462,.61437,504.83184,621.66883)"/>
<path d="m530.1227,1833.3648c3.1762.8511 5.0611,4.1158 4.21,7.2921" fill="none" stroke="#000"/>
<path d="m529.015,1838.0275c-3.1761-.851-5.0611-4.1156-4.21-7.2919" fill="none" stroke="#000"/>
<path d="m524.4787,1845.5417c6.342-6.3417 16.624-6.342 22.9662.0003" fill="none" stroke="#000"/>
<path d="m530.5534,1823.6906 3.7692,2.6452-.8182,2.2763 4.3891,4.9976-5.8275-3.9323 .0117-2.9404-4.2983-1.5209"/>
</g>
</svg>
