<svg viewBox="0 0 512 512" xmlns="http://www.w3.org/2000/svg">

<g transform="matrix(18.68858,0,0,18.68858,713.92857,-5416.16204)">
<path d="m -34.4942 298.048 c 2.5372 -3.7416 6.2394 -6.353 10.0014 -7.5528 3.5262 1.21 7.737 3.7448 10.084 7.5528 -1.9838 6.5122 -1.9837 7.7835 0 14.2957 -6.61 5.2453 -13.5273 5.0082 -20.0854 0 2.4246 -6.5122 2.4246 -7.7836 0 -14.2957 z" fill="#fff" stroke="#000" stroke-width="1.0322"/>
<path d="m -17.7196 301.415 v 3.8163 c -4.4495 -2.2231 -8.6345 -2.261 -12.951 0 v -3.8163 c 4.263 -1.1988 8.9604 -0.803 12.951 0 z"/>
<path d="m -25.7474 302.954 c 0.8219 4.3121 1.0433 8.6242 0 12.9364 h 3.1985 c -0.81 -4.3429 -0.776 -8.6858 0 -13.0287"/>
<path d="m -28.0734 292.148 4.7329 3.6703 -1.187 1.195 4.2624 3.2413 -7.9953 -2.4878 1.6365 -1.5725 -4.5013 -1.4228 3.0517 -2.6235 z" fill-rule="evenodd"/>
</g>
</svg>
