<svg viewBox="0 0 512 512" xmlns="http://www.w3.org/2000/svg">

<g transform="matrix(18.68858,0,0,18.68858,1981.7637,-7973.2569)">
<path d="m-105.5294,427.0698h26.406v26.406h-26.406z" fill="#fff" stroke="#000"/>
<path d="m-95.9913,426.9047-3.4245,4.951m8.4816,4.7776 1.6794-5.5685-1.1826-3.9419" fill="none" stroke="#000"/>
<path d="m-89.0043,439.4139 9.7263-6.5443" fill="none" stroke="#000"/>
<path d="m-79.2391,449.6512-8.0193,3.4545-4.0293-5.4238 .5303-6.2756" fill="none" stroke="#000"/>
<path d="m-100.0889,445.8666 5.7269,7.5134m.7762-11.4434-11.8487,6.7804" fill="none" stroke="#000"/>
<path d="m-94.6465,439.1966-6.0988-2.2981-1.2374-6.0104 5.0823,2.2097 3.4913,3.8891" fill="none" stroke="#000"/>
<path d="m-100.701,436.8101-4.6244,1.7437" fill="none" stroke="#000"/>
<path d="m-89.321,431.2822 6.6954-1.3664-.5733-2.8666" fill="none" stroke="#000"/>
<path d="m-102.0711,430.9765-3.4341-3.1798" fill="none" stroke="#000"/>
<path d="m-89.531,439.974 10.4677,6.5211" fill="none" stroke="#000"/>
<path d="m-97.2867,438.0043 5.4943,2.4636-4.0881,2.8954 4.5312,1.2661 2.8491-3.0496-1.6051-1.2473 2.714-2.0889-2.9558-3.471-1.2618,4.0288-3.4592-3.5159-2.2188,2.7188z" fill-rule="evenodd" stroke="#000"/>
</g>
</svg>
