<svg viewBox="0 0 512 512" xmlns="http://www.w3.org/2000/svg">

<g transform="matrix(18.68858,0,0,18.68858,-8397.15444,-700.21711)">
<path d="m 517.451 132.555 c 0 5.823 -4.7205 10.5435 -10.5435 10.5435 s -10.5435 -4.7205 -10.5435 -10.5435 4.7205 -10.5435 10.5435 -10.5435 10.5435 4.7205 10.5435 10.5435 z" fill="#fff" stroke="#000" stroke-width=".7988" transform="matrix(1.25193,0,0,1.25193,-171.52218,-114.70826)"/>
<path d="m 461.381 38.4186 5.3957 13.0683 -3.2251 0.0536 4.431 9.3828 -12.7154 -13.2755 4.8647 0.3062 -5.6873 -8.2824 6.9364 -1.2531 z" fill-rule="evenodd"/>
<path d="m 458.797 50.7597 -2.9868 3.6295 4.8772 -2.2307" fill-rule="evenodd"/>
<path d="m 462.847 54.8808 -2.0838 2.5322 3.4027 -1.5563" fill-rule="evenodd"/>
<path d="m 463.846 52.5276 2.6682 1.9066 -3.6895 -0.6226" fill-rule="evenodd"/>
<path d="m 465.615 49.4239 4.1848 2.1405 -5.3621 -0.1047" fill-rule="evenodd"/>
<path d="m 462.46 41.941 6.6088 4.8838 -4.9138 -0.7774" fill-rule="evenodd"/>
<path d="m 466.384 45.4028 2.6682 -1.9066 -3.6895 0.6226" fill-rule="evenodd"/>
</g>
</svg>
