<svg viewBox="0 0 512 512" xmlns="http://www.w3.org/2000/svg">

<g transform="matrix(18.68858,0,0,18.68858,-7718.37325,-699.84727)">
<path d="m 415.844 38.8271 c 1.6347 1.393 2.8253 5.0913 2.8253 9.4433 0 2.3736 -0.3699 4.5289 -0.9527 6.2428 1.6659 3.8221 4.5979 6.5498 9.6256 9.3799 4.8991 -2.6084 7.7065 -5.1674 9.2971 -8.968 -0.6689 -1.769 -1.0841 -4.0914 -1.0841 -6.6547 0 -4.352 1.1906 -8.0503 2.8253 -9.4433 -7.5122 1.6705 -15.0243 1.9544 -22.5364 0 z" fill="#fff" fill-rule="evenodd"/>
<path d="m 427.606 38.1047 -3.4189 10.2134 2.2312 1.0161 -2.2186 9.0735 6.1575 -10.1317 -2.487 -1.1042 4.6973 -8.9977 -4.9615 -0.0695 z" fill-rule="evenodd"/>
<path d="m 424.757 47.0076 -3.363 2.8448 3.9045 -1.0911" fill-rule="evenodd"/>
</g>
</svg>
