<svg viewBox="0 0 512 512" xmlns="http://www.w3.org/2000/svg">

<g transform="matrix(18.68858,0,0,18.68858,-2098.26194,-12898.15826)">
<path d="m 127.438 694.25 -4.0625 2.375 -1.125 5.6875 -3.9375 -0.125 -1.3125 4.6875 -1.375 0.0625 -1 1.8125 c 1.8759 4.4327 6.2614 7.5625 11.375 7.5625 6.8181 2e-05 12.3438 -5.5569 12.3438 -12.375 0 -3.6536 -1.6008 -6.9255 -4.125 -9.1875 l -2.4062 1.3125 -4.375 -1.8125 z" fill="#fff"/>
<path d="m 134.625 694.737 -4.125 2 -1.1475 14.3714 -5.415 1.6911 -0.8125 3" fill="none" stroke="#000"/>
<path d="m 137.625 699.675 -3.4375 1.375 -1.75 13.125" fill="none" stroke="#000"/>
<path d="m 130.312 698.55 -3.25 0.25 -1.656 13.3943" fill="none" stroke="#000"/>
<path d="m 120.75 706.675 -5 0.3125 -0.875 2.375" fill="none" stroke="#000"/>
<path d="m 122.25 702.3 -3.85 0.0698 -1.0104 4.4819" fill="none" stroke="#000"/>
<path d="m 132 695.925 -4.375 -1.625 -4.125 2.4375 -1.1456 7.6231 -0.9282 0.1726 -1.7 10.4543" fill="none" stroke="#000"/>
<path d="m 531.037 404.564 c 0 7.4688 -6.0546 13.5234 -13.5234 13.5234 s -13.5234 -6.0546 -13.5234 -13.5234 6.0546 -13.5234 13.5234 -13.5234 13.5234 6.0546 13.5234 13.5234 z" fill="none" stroke="#fff" stroke-width="1.0949" transform="matrix(.91335,0,0,-.91335,-346.67819,1073.4568)"/>
</g>
</svg>
