<svg viewBox="0 0 512 512" xmlns="http://www.w3.org/2000/svg">

<g transform="matrix(18.68858,0,0,18.68858,4527.51047,-13638.09556)">
<path d="m-240.3492,730.1875v6.0625l3.5625,3.375v9.875c1.916,2.4934 4.6814,4.7821 8.4688,6.9688 3.8719-2.2355 6.6543-4.627 8.5625-7.1562v-9.6875l3.5625-3.375v-6.0625h-4.1562v3.625h-2.5312v-3.625h-4.1562v3.625h-2.5v-3.625h-4.1562v3.625h-2.5v-3.625h-4.1562z" fill="#fff" stroke="#000"/>
<path d="m-236.818,736.0625 2.5,2.3438v5.8304h6.0625v-8.1742h-8.5625zm8.5938,8.2367v8.9821c2.6908-1.5687 4.6649-3.2601 6-5.0312v-3.9508h-6z"/>
</g>
</svg>
