<svg viewBox="0 0 512 512" xmlns="http://www.w3.org/2000/svg">

<g transform="matrix(18.68858,0,0,18.68858,4527.51047,-13638.09556)">
<path d="m -240.349 730.188 v 6.0625 l 3.5625 3.375 v 9.875 c 1.916 2.4934 4.6814 4.7821 8.4688 6.9688 3.8719 -2.2355 6.6543 -4.627 8.5625 -7.1562 v -9.6875 l 3.5625 -3.375 v -6.0625 h -4.1562 v 3.625 h -2.5312 v -3.625 h -4.1562 v 3.625 h -2.5 v -3.625 h -4.1562 v 3.625 h -2.5 v -3.625 h -4.1562 z" fill="#fff" stroke="#000"/>
<path d="m -236.818 736.062 2.5 2.3438 v 5.8304 h 6.0625 v -8.1742 h -8.5625 z m 8.5938 8.2367 v 8.9821 c 2.6908 -1.5687 4.6649 -3.2601 6 -5.0312 v -3.9508 h -6 z"/>
</g>
</svg>
