<svg viewBox="0 0 512 512" xmlns="http://www.w3.org/2000/svg">

<g transform="matrix(18.68858,0,0,18.68858,-3389.52648,-8505.43961)">
<path d="m203.875,464.8309c0,4.2975-3.4838,7.7812-7.7812,7.7812s-7.7812-3.4838-7.7812-7.7812 3.4838-7.7812 7.7812-7.7812 7.7812,3.4838 7.7812,7.7812z" fill="#fff" stroke="#000" stroke-width="1.0439" transform="matrix(.93837,0,0,.97797,11.09798,13.53652)"/>
<path d="m202.4804,465.9425c0,0-4.1371,2.543-7.3921,2.5598s-7.4315-2.4924-7.4315-2.4924c0,8.0968-1.0975,16.0326 7.4938,16.0326s7.3298-8.087 7.3298-16.0999z" fill="#fff" stroke="#000"/>
<path d="m193.4477,476.5493h3.4168v5.3254h-3.4168z"/>
<path d="m201.4536,471.1406c-.8805,2.2274-3.9158,2.7851-5.3344.7133 0-2.9726 4.2924-3.3493 5.3344-.7133z" fill-rule="evenodd"/>
<path d="m196.6205,471.7876v10.1375" fill="none" stroke="#000"/>
<path d="m188.8555,471.1406c.8805,2.2274 3.9158,2.7851 5.3345.7133 0-2.9726-4.2924-3.3493-5.3345-.7133z" fill-rule="evenodd"/>
<path d="m193.6919,471.7876v10.1375" fill="none" stroke="#000"/>
<path d="m191.8466,455.625 2.0654,9.3107c.2184.8149 1.7968.8115 2.0142,0l2.0654-9.3107h-6.1451z" fill="#fff" stroke="#000"/>
</g>
</svg>
