<svg viewBox="0 0 512 512" xmlns="http://www.w3.org/2000/svg">

<g transform="matrix(18.68858,0,0,18.68858,-3389.52648,-8505.43961)">
<path d="m 203.875 464.831 c 0 4.2975 -3.4838 7.7812 -7.7812 7.7812 s -7.7812 -3.4838 -7.7812 -7.7812 3.4838 -7.7812 7.7812 -7.7812 7.7812 3.4838 7.7812 7.7812 z" fill="#fff" stroke="#000" stroke-width="1.0439" transform="matrix(.93837,0,0,.97797,11.09798,13.53652)"/>
<path d="m 202.48 465.942 c 0 0 -4.1371 2.543 -7.3921 2.5598 s -7.4315 -2.4924 -7.4315 -2.4924 c 0 8.0968 -1.0975 16.0326 7.4938 16.0326 s 7.3298 -8.087 7.3298 -16.0999 z" fill="#fff" stroke="#000"/>
<path d="m 193.448 476.549 h 3.4168 v 5.3254 h -3.4168 z"/>
<path d="m 201.454 471.141 c -0.8805 2.2274 -3.9158 2.7851 -5.3344 0.7133 0 -2.9726 4.2924 -3.3493 5.3344 -0.7133 z" fill-rule="evenodd"/>
<path d="m 196.62 471.788 v 10.1375" fill="none" stroke="#000"/>
<path d="m 188.856 471.141 c 0.8805 2.2274 3.9158 2.7851 5.3345 0.7133 0 -2.9726 -4.2924 -3.3493 -5.3345 -0.7133 z" fill-rule="evenodd"/>
<path d="m 193.692 471.788 v 10.1375" fill="none" stroke="#000"/>
<path d="m 191.847 455.625 2.0654 9.3107 c 0.2184 0.8149 1.7968 0.8115 2.0142 0 l 2.0654 -9.3107 h -6.1451 z" fill="#fff" stroke="#000"/>
</g>
</svg>
