<svg viewBox="0 0 512 512" xmlns="http://www.w3.org/2000/svg">

<g transform="matrix(0,18.68858,18.68858,0,-21805.36936,-11122.36498)">
<path d="m 606.375 1173.56 -4.4688 4.4688 15.5312 15.5312 h 4.1875 v -4.75 l -15.25 -15.25 z" fill="#fff"/>
<g transform="matrix(.70711,-.70711,.70711,.70711,-629.42398,747.29493)">
<path d="m 562.895 1174.27 h 12.804 v 2.0938 h -12.804 z" fill="#fff" stroke="#000"/>
<path d="m 570.85 1165.61 c -1.0205 -0.5398 -2.0143 -0.5212 -2.9843 0 0.5815 1.4513 0.8954 3.037 0.8952 4.6609 s -0.3136 3.2509 -0.8952 4.7199 h 2.9843 c -1.17 -2.9203 -1.17 -6.4604 0 -9.3808 z" fill="#fff"/>
</g>
<path d="m 615.161 1193.8 h 6.8943 v -7.5572" fill="none" stroke="#000"/>
<path d="m 604.7 1176.17 0.1768 0.9723 0.0221 -0.022 3.2482 3.204 3.3146 3.3146 3.2925 3.3367 3.3145 3.2702 3.2704 3.3147 0.7292 -0.7292 -0.4861 -2.7842 -2.8064 -0.5084 -0.5082 -2.8062 -2.7842 -0.4861 -0.5083 -2.8065 -2.8063 -0.5081 -0.5083 -2.8064 -2.8063 -0.5081 -0.4861 -2.7843 -3.6681 -0.6629 z"/>
</g>
</svg>
