<svg viewBox="0 0 512 512" xmlns="http://www.w3.org/2000/svg">

<g transform="matrix(0,18.68858,18.68858,0,-21805.36936,-11122.36498)">
<path d="m606.375,1173.5625-4.4688,4.4688 15.5312,15.5312h4.1875v-4.75l-15.25-15.25z" fill="#fff"/>
<g transform="matrix(.70711,-.70711,.70711,.70711,-629.42398,747.29493)">
<path d="m562.8949,1174.2684h12.804v2.0938h-12.804z" fill="#fff" stroke="#000"/>
<path d="m570.8497,1165.6056c-1.0205-.5398-2.0143-.5212-2.9843,0 .5815,1.4513.8954,3.037.8952,4.6609s-.3136,3.2509-.8952,4.7199h2.9843c-1.17-2.9203-1.17-6.4604 0-9.3808z" fill="#fff"/>
</g>
<path d="m615.1608,1193.7984h6.8943v-7.5572" fill="none" stroke="#000"/>
<path d="m604.6999,1176.1738 .1768.9723 .0221-.022 3.2482,3.204 3.3146,3.3146 3.2925,3.3367 3.3145,3.2702 3.2704,3.3147 .7292-.7292-.4861-2.7842-2.8064-.5084-.5082-2.8062-2.7842-.4861-.5083-2.8065-2.8063-.5081-.5083-2.8064-2.8063-.5081-.4861-2.7843-3.6681-.6629z"/>
</g>
</svg>
