<svg viewBox="0 0 512 512" xmlns="http://www.w3.org/2000/svg">

<g transform="matrix(18.68858,0,0,18.68858,-6354.28971,-31324.80103)">
<path d="m 347.887 1677.41 -6.9586 1.0706 0.0659 20.9543 4.5068 -1.1751 0.8158 1.8646 4.06 -1.6096 1.0902 2.1792 3.5866 -1.5761 1.0201 1.9983 3.9498 -1.5517 1.5316 2.4314 4.4266 -4.4428 0.0356 -4.2771 -3.2842 1.958 -1.3388 -3.5356 -2.7579 2.8372 -0.8046 -3.5862 -3.0391 2.5316 -0.9251 -3.1888 -2.953 2.2008 -0.8754 -3.0322 -2.2132 2.1067 -1.6303 -3.406 4.4345 -2.1791 1.5537 2.7998 2.3257 -2.2605 1.7186 2.2044 2.2973 -2.3829 1.8984 3.0821 1.9785 -3.01 2.4855 3.4156 1.3573 -3.2184 0.4532 -2.7048 -2.7637 -3.7319 -0.9436 1.5156 -2.2466 -2.8672 -1.5196 2.4531 -7.3857 -0.9622 z" fill="#fff"/>
<path d="m 347.781 1679.44 -5.25 1.5 2.875 1.7187 2.5633 -1.6617 2.4055 1.6 z"/>
<path d="m 340.658 1677.28 v 22.8106" fill="none" stroke="#000"/>
<path d="m 345.981 1686.45 2.6639 7.0336 2.4148 -1.1883 0.6516 2.4915 3.373 -1.6482 0.7474 3.143 3.1239 -2.4532 0.6324 3.1048 3.4564 -2.6374 0.8366 3.0399 2.4531 -0.058" fill="none" stroke="#000"/>
<path d="m 347.649 1688.17 4.8519 -2.7966 2.1153 1.6263 2.1937 -1.9737 1.9514 1.7617 1.6804 -1.6262 2.0327 1.843 1.843 -2.114 2.2496 1.6804" fill="none" stroke="#000"/>
<path d="m 348.012 1676.94 5.7932 5.3427" fill="none" stroke="#000"/>
<path d="m 350.255 1682.99 -2.8244 -3.201" fill="none" stroke="#000"/>
</g>
</svg>
