<svg viewBox="0 0 512 512" xmlns="http://www.w3.org/2000/svg">

<g transform="matrix(18.68858,0,0,18.68858,3236.48132,-14269.49557)">
<path d="m-162.9783,771.9246-7.1038-7.1038c1.1204-1.1204 3.6209-.4384 5.5816,1.5222s2.6426,4.4612 1.5223,5.5816z" fill="#fff" stroke="#000"/>
<path d="m425.8801,661.0756h10.0463v2.8704h-10.0463z" fill="#fff" stroke="#000" transform="rotate(45)"/>
<path d="m-165.0142,773.9605-7.1038-7.1038c-1.1204,1.1204-.4384,3.6209 1.5222,5.5816s4.4612,2.6426 5.5816,1.5223z" fill="#fff" stroke="#000"/>
<path d="m-154.7962,780.1067-7.1038-7.1038c1.1204-1.1204 3.6209-.4384 5.5816,1.5223s2.6426,4.4612 1.5222,5.5816z" fill="#fff" stroke="#000"/>
<path d="m-156.81,782.1205-7.1038-7.1038c-1.1204,1.1204-.4384,3.6209 1.5223,5.5816s4.4612,2.6426 5.5816,1.5223z" fill="#fff" stroke="#000"/>
<path d="m-146.9947,787.9082-7.1038-7.1038c1.1204-1.1204 3.6209-.4384 5.5816,1.5223s2.6426,4.4612 1.5222,5.5816z" fill="#fff" stroke="#000"/>
<path d="m-150.318,784.5937-2.0312,2 3.8438,3.875h2.1875v-1.875l-4-4z" fill="#fff" stroke="#000"/>
<path d="m-149.0085,789.922-7.1038-7.1038c-1.1204,1.1204-.4384,3.6209 1.5222,5.5816s4.4612,2.6426 5.5816,1.5223z" fill="#fff" stroke="#000"/>
<path d="m-172.6617,764.0938v2.16l3.5177,3.5794 2.0366-2.0366-3.6411-3.7028h-1.9131z" fill="#fff" stroke="#000"/>
<g transform="translate(-401.5992)">
<path d="m235.25,786.125-6.3438,3.6562v.6875h4.3125l3.4062-1.9688-1.375-2.375z" fill="#fff" stroke="#000"/>
<path d="m-188.3204,798.3726h9.6698v2.7628h-9.6698z" fill="#fff" stroke="#000" transform="matrix(.86603,-.5,.5,.86603,0,0)"/>
<path d="m241.5,785.6821-8.2812,4.7812h5.5312c2.2719-1.3369 3.5057-3.4723 2.75-4.7812z" fill="#fff" stroke="#000"/>
<path d="m249.667,777.736-8.3743,4.8349c-.7625-1.3208.4944-3.4757 2.8058-4.8101s4.806-1.3455 5.5686-.0248z" fill="#fff" stroke="#000"/>
<path d="m254.2188,775.1562-8.375,4.8438 1.375,2.4062 8.0625-4.6562v-.75l-1.0625-1.8438z" fill="#fff" stroke="#000"/>
<path d="m251.1313,780.11-8.3743,4.8349c.7625,1.3208 3.2572,1.3096 5.5686-.0248s3.5683-3.4894 2.8058-4.8101z" fill="#fff" stroke="#000"/>
<path d="m255.375,771.6509c-.6482.1648-1.3368.4296-2,.8125-2.3113,1.3344-3.5438,3.4917-2.7812,4.8125l4.7812-2.75v-2.875z" fill="#fff" stroke="#000"/>
<path d="m255.375,777.6509-3.4062,1.9688c.5259.9109 1.8608,1.1971 3.4062.8438v-2.8125z" fill="#fff" stroke="#000"/>
<path d="m240.1153,783.3048-8.3743,4.8349c-.7625-1.3208.4944-3.4757 2.8058-4.8101s4.806-1.3455 5.5686-.0248z" fill="#fff" stroke="#000"/>
</g>
</g>
</svg>
