<svg viewBox="0 0 512 512" xmlns="http://www.w3.org/2000/svg">

<g transform="matrix(14.18501,-12.16757,12.16757,14.18501,-10636.11085,-10333.16893)">
<path d="m 63.9826 800.749 c -1.77 0.9301 -2.2011 2.8143 0.0773 3.8902 -2.4641 0.8513 -5.3754 3.7166 -4.9005 8.2295 0.425 4.0393 6.9575 3.8782 6.192 0.5853 -0.6831 -2.9384 -0.7775 -6.1555 5.6092 -6.1555 h 15.1302 v -3.9888 h -18.21 c -2.3308 0 -3.3266 -1.5282 -3.8981 -2.5608 z" fill="#fff" stroke="#000"/>
<path d="m 64.3246 809.847 c 3.2267 0 5.3254 -0.2212 5.3254 -3.0715" fill="none" stroke="#fff"/>
</g>
<g transform="matrix(-14.18501,-12.16757,-12.16757,14.18501,11146.49383,-10333.16893)">
<path d="m 63.9826 800.749 c -1.77 0.9301 -2.2011 2.8143 0.0773 3.8902 -2.4641 0.8513 -5.3754 3.7166 -4.9005 8.2295 0.425 4.0393 6.9575 3.8782 6.192 0.5853 -0.6831 -2.9384 -0.7775 -6.1555 5.6092 -6.1555 h 15.1302 v -3.9888 h -18.21 c -2.3308 0 -3.3266 -1.5282 -3.8981 -2.5608 z" fill="#fff" stroke="#000"/>
<path d="m 64.3246 809.847 c 3.2267 0 5.3254 -0.2212 5.3254 -3.0715" fill="none" stroke="#fff"/>
</g>
</svg>
