<svg viewBox="0 0 512 512" xmlns="http://www.w3.org/2000/svg">

<g transform="matrix(18.68858,0,0,18.68858,6412.75313,-9854.73343)">
<path d="m-318.2046,547.325c-8.4021-2.8559-13.9452-9.5071-17.8162-17.8162-1.0837-2.3262-4.7475-.0329-2.5928,2.5928-2.5837-2.3864-4.8858.9503-2.1854,2.1854 7.8434,3.5872 14.5553,9.9721 17.8163,17.8162 1.2259,2.9487 5.1136.6935 2.2594-2.2594 3.3751,2.4497 5.6967-1.4385 2.5187-2.5187z" fill="#fff"/>
<path d="m610.3405,147.8343h11.0481v3.8394h-11.0481z" transform="matrix(-.70711,.70711,.70711,.70711,0,0)"/>
<path d="m-340.4931,547.2975c8.4022-2.8559 13.9452-9.5071 17.8162-17.8162 1.0838-2.3262 4.7475-.0329 2.5928,2.5928 2.5837-2.3864 4.8858.9503 2.1854,2.1854-7.8433,3.5873-14.5553,9.9721-17.8162,17.8162-1.2259,2.9487-5.1136.6935-2.2594-2.2594-3.3751,2.4497-5.6967-1.4385-2.5188-2.5187z" fill="#fff"/>
</g>
</svg>
