<svg viewBox="0 0 512 512" xmlns="http://www.w3.org/2000/svg">

<g transform="matrix(18.68858,0,0,18.68858,5157.94768,-9227.02888)">
<g transform="matrix(.92829,.92829,.92829,-.92829,-1175.7784,529.77929)">
<path d="m477.8817,498.1319c0,6.8988.0652,13.1242 1.9305,19.6863 1.9437-6.3312 1.7374-12.7162 1.7374-19.518" fill="#fff" fill-rule="evenodd"/>
<path d="m479.7188,510.0878-1e-05-12.6103" fill="#fff" fill-rule="evenodd" stroke="#000" stroke-width=".7617"/>
<path d="m474.9984,497.5732h9.4408v1.6439c-3.1061-.8312-6.3458-1.0083-9.4408,0v-1.6439z" fill="#fff"/>
<path d="m478.91,491.5236h1.6175c-.4295,2.0932-.478,4.1865 0,6.2797h-1.6175c.5704-2.0932.4481-4.1865 0-6.2797z" fill="#fff"/>
</g>
<g transform="matrix(-.92829,.92829,-.92829,-.92829,651.15308,529.77929)">
<path d="m477.8817,498.1319c0,6.8988.0652,13.1242 1.9305,19.6863 1.9437-6.3312 1.7374-12.7162 1.7374-19.518" fill="#fff" fill-rule="evenodd"/>
<path d="m479.7188,510.0878-1e-05-12.6103" fill="#fff" fill-rule="evenodd" stroke="#000" stroke-width=".7617"/>
<path d="m474.9984,497.5732h9.4408v1.6439c-3.1061-.8312-6.3458-1.0083-9.4408,0v-1.6439z" fill="#fff"/>
<path d="m478.91,491.5236h1.6175c-.4295,2.0932-.478,4.1865 0,6.2797h-1.6175c.5704-2.0932.4481-4.1865 0-6.2797z" fill="#fff"/>
</g>
<path d="m-266.6386,506.6121 4.7031,4.8594" fill="none" stroke="#000"/>
<path d="m-262.6855,502.7528 4.9844,4.7031" fill="none" stroke="#000"/>
</g>
</svg>
