<svg viewBox="0 0 512 512" xmlns="http://www.w3.org/2000/svg">

<g transform="matrix(18.68858,0,0,18.68858,3236.48132,-14269.49557)">
<path d="m -162.978 771.925 -7.1038 -7.1038 c 1.1204 -1.1204 3.6209 -0.4384 5.5816 1.5222 s 2.6426 4.4612 1.5223 5.5816 z" fill="#fff" stroke="#000"/>
<path d="m 425.88 661.076 h 10.0463 v 2.8704 h -10.0463 z" fill="#fff" stroke="#000" transform="rotate(45)"/>
<path d="m -165.014 773.961 -7.1038 -7.1038 c -1.1204 1.1204 -0.4384 3.6209 1.5222 5.5816 s 4.4612 2.6426 5.5816 1.5223 z" fill="#fff" stroke="#000"/>
<path d="m -154.796 780.107 -7.1038 -7.1038 c 1.1204 -1.1204 3.6209 -0.4384 5.5816 1.5223 s 2.6426 4.4612 1.5222 5.5816 z" fill="#fff" stroke="#000"/>
<path d="m -156.81 782.12 -7.1038 -7.1038 c -1.1204 1.1204 -0.4384 3.6209 1.5223 5.5816 s 4.4612 2.6426 5.5816 1.5223 z" fill="#fff" stroke="#000"/>
<path d="m -146.995 787.908 -7.1038 -7.1038 c 1.1204 -1.1204 3.6209 -0.4384 5.5816 1.5223 s 2.6426 4.4612 1.5222 5.5816 z" fill="#fff" stroke="#000"/>
<path d="m -150.318 784.594 -2.0312 2 3.8438 3.875 h 2.1875 v -1.875 l -4 -4 z" fill="#fff" stroke="#000"/>
<path d="m -149.008 789.922 -7.1038 -7.1038 c -1.1204 1.1204 -0.4384 3.6209 1.5222 5.5816 s 4.4612 2.6426 5.5816 1.5223 z" fill="#fff" stroke="#000"/>
<path d="m -172.662 764.094 v 2.16 l 3.5177 3.5794 2.0366 -2.0366 -3.6411 -3.7028 h -1.9131 z" fill="#fff" stroke="#000"/>
<g transform="translate(-401.5992)">
<path d="m 235.25 786.125 -6.3438 3.6562 v 0.6875 h 4.3125 l 3.4062 -1.9688 -1.375 -2.375 z" fill="#fff" stroke="#000"/>
<path d="m -188.32 798.373 h 9.6698 v 2.7628 h -9.6698 z" fill="#fff" stroke="#000" transform="matrix(.86603,-.5,.5,.86603,0,0)"/>
<path d="m 241.5 785.682 -8.2812 4.7812 h 5.5312 c 2.2719 -1.3369 3.5057 -3.4723 2.75 -4.7812 z" fill="#fff" stroke="#000"/>
<path d="m 249.667 777.736 -8.3743 4.8349 c -0.7625 -1.3208 0.4944 -3.4757 2.8058 -4.8101 s 4.806 -1.3455 5.5686 -0.0248 z" fill="#fff" stroke="#000"/>
<path d="m 254.219 775.156 -8.375 4.8438 1.375 2.4062 8.0625 -4.6562 v -0.75 l -1.0625 -1.8438 z" fill="#fff" stroke="#000"/>
<path d="m 251.131 780.11 -8.3743 4.8349 c 0.7625 1.3208 3.2572 1.3096 5.5686 -0.0248 s 3.5683 -3.4894 2.8058 -4.8101 z" fill="#fff" stroke="#000"/>
<path d="m 255.375 771.651 c -0.6482 0.1648 -1.3368 0.4296 -2 0.8125 -2.3113 1.3344 -3.5438 3.4917 -2.7812 4.8125 l 4.7812 -2.75 v -2.875 z" fill="#fff" stroke="#000"/>
<path d="m 255.375 777.651 -3.4062 1.9688 c 0.5259 0.9109 1.8608 1.1971 3.4062 0.8438 v -2.8125 z" fill="#fff" stroke="#000"/>
<path d="m 240.115 783.305 -8.3743 4.8349 c -0.7625 -1.3208 0.4944 -3.4757 2.8058 -4.8101 s 4.806 -1.3455 5.5686 -0.0248 z" fill="#fff" stroke="#000"/>
</g>
</g>
</svg>
