<svg viewBox="0 0 512 512" xmlns="http://www.w3.org/2000/svg">

<g transform="matrix(18.68858,0,0,18.68858,-3387.3775,-5365.36648)">
<path d="m 199.969 291.545 -2.3602 -1.3588 c -5.8794 8.4379 -4.9715 14.1776 -12.9246 21.0106 0.5299 1.005 1.5728 1.5592 2.7352 2.0084 6.6017 -5.8094 7.7867 -14.6974 12.5496 -21.6602 z" fill="#fff" stroke="#000"/>
<path d="m 197.781 288.004 c 3.6861 2.1348 5.9499 2.8849 7.4814 0.2322 6.202 3.5807 1.3461 12.6664 -4.2513 14.1003 1.7023 -3.1989 0.8532 -10.9051 -1.9149 -7.5109 l -3.9309 -2.2766 2.6158 -4.545 z" fill="#fff" stroke="#000"/>
<path d="m 203.65 289.681 c 2.2654 2.4523 0.5677 7.002 -1.848 8.5555" fill="none" stroke="#000"/>
<path d="m 334.905 134.677 h 4.3853 v 2.5479 h -4.3853 z" fill="#fff" stroke="#000" transform="matrix(.79919,.60107,-.60293,.79779,0,0)"/>
<g transform="matrix(-1,0,0,1,389.92758,0)">
<path d="m 199.969 291.545 -2.3602 -1.3588 c -5.8794 8.4379 -4.9715 14.1776 -12.9246 21.0106 0.5299 1.005 1.5728 1.5592 2.7352 2.0084 6.6017 -5.8094 7.7867 -14.6974 12.5496 -21.6602 z" fill="#fff" stroke="#000"/>
<path d="m 197.781 288.004 c 3.6861 2.1348 5.9499 2.8849 7.4814 0.2322 6.202 3.5807 1.3461 12.6664 -4.2513 14.1003 1.7023 -3.1989 0.8532 -10.9051 -1.9149 -7.5109 l -3.9309 -2.2766 2.6158 -4.545 z" fill="#fff" stroke="#000"/>
<path d="m 203.65 289.681 c 2.2654 2.4523 0.5677 7.002 -1.848 8.5555" fill="none" stroke="#000"/>
<path d="m 334.905 134.677 h 4.3853 v 2.5479 h -4.3853 z" fill="#fff" stroke="#000" transform="matrix(.79919,.60107,-.60293,.79779,0,0)"/>
</g>
</g>
</svg>
