<svg viewBox="0 0 512 512" xmlns="http://www.w3.org/2000/svg">

<g transform="matrix(18.68858,0,0,18.68858,-4313.22618,-3634.7871)">
<path d="m 231.336 195.047 h 11.7319 c 0.681 8.8425 -4.0591 13.9614 -11.7319 14.2344 v -14.2344 z" fill="#fff" stroke="#000"/>
<path d="m 257.21 205.562 c -3.2902 8.138 -13.8937 14.1199 -23.3129 7.188 -5.0203 -3.6946 2.3492 -10.7438 6.1704 -7.0258 3.7913 3.6888 9.7336 3.567 17.1425 -0.1622 z" fill="#fff" fill-rule="evenodd"/>
<g transform="matrix(.3656,.99373,.99373,-.3656,-48.60644,55.36509)">
<path d="m 227.487 206.442 1.5454 -1.5168 -0.2572 2.2875" fill-rule="evenodd"/>
<path d="m 229.112 207.602 1.8509 -1.1 -0.8783 2.1278" fill-rule="evenodd"/>
<path d="m 230.55 209.01 2.1391 -0.6755 -1.32 1.8859" fill-rule="evenodd"/>
<path d="m 231.624 210.722 2.1827 -0.3049 -1.5582 1.6943" fill-rule="evenodd"/>
<path d="m 232.444 212.73 2.1779 0.0769 -1.8432 1.3789" fill-rule="evenodd"/>
<path d="m 232.891 215.096 2.1595 0.4078 -2.0363 1.0734" fill-rule="evenodd"/>
<path d="m 232.944 217.236 2.0923 0.5301 -2.1075 0.926" fill-rule="evenodd"/>
</g>
<path d="m 244.9 220.728 c 7.0096 -5.2841 10.0437 -17.0739 0.9097 -24.3774 -4.8683 -3.8927 -9.7704 5.0496 -5.1898 7.7782 4.5446 2.7072 5.9649 8.478 4.2801 16.5992 z" fill="#fff" fill-rule="evenodd"/>
<path d="m 238.796 200.625 c 0.1875 2.5002 -1.5461 3.7998 -3.7874 4.782" fill="none" stroke="#000"/>
<path d="m 238.781 202.141 2.3535 2.3264 -1.055 1.5149 -2.583 -1.5755 1.2845 -2.2657 z" fill-rule="evenodd"/>
<g transform="matrix(1.07457,.08543,-.08543,1.07457,-.45096,-35.92034)">
<path d="m 240.453 203.747 1.4746 -1.5857 -0.1526 2.2968" fill-rule="evenodd"/>
<path d="m 242.127 204.776 1.8509 -1.1 -0.8783 2.1278" fill-rule="evenodd"/>
<path d="m 243.565 206.184 2.1391 -0.6755 -1.32 1.8859" fill-rule="evenodd"/>
<path d="m 244.638 207.897 2.1827 -0.3049 -1.5582 1.6943" fill-rule="evenodd"/>
<path d="m 245.459 209.904 2.1779 0.0769 -1.8432 1.3789" fill-rule="evenodd"/>
<path d="m 245.905 212.27 2.1595 0.4078 -2.0363 1.0734" fill-rule="evenodd"/>
<path d="m 246.031 214.384 2.0923 0.5301 -2.1075 0.926" fill-rule="evenodd"/>
</g>
<path d="m 245.265 215.932 c -3.2172 0.5793 -7.4523 -0.3002 -11.3679 -3.1818 -5.0203 -3.6946 2.3492 -10.7438 6.1704 -7.0258 1.1751 1.1433 2.5568 1.9205 4.1247 2.3378" fill="none" stroke="#000"/>
<path d="m 249.01 216.994 c 4.1551 -5.96 4.1602 -14.7581 -3.1999 -20.6432 -4.8683 -3.8927 -9.7704 5.0496 -5.1898 7.7782 3.8575 2.2979 5.3492 6.7648 4.334 13.0793" fill="none" stroke="#000"/>
</g>
</svg>
