<svg xmlns="http://www.w3.org/2000/svg" viewBox="0 0 512 512">
<g stroke-miterlimit="10">
<g fill="#fff">
<g stroke="#f00" stroke-linejoin="round" stroke-width=".892" transform="matrix(17.86918 0 0 17.86918 -36.10004 -23.71365)">
<path d="m20.856,11.145"/>
<path d="m19.743,12.258"/>
</g>
<g transform="matrix(17.86918 0 0 17.86918 -36.10004 -23.71365)">
<path stroke="#fff" stroke-width=".85" d="m22.29,9.711c-6.253-6.252-12.431-3.945-15.557-7.071 3.126,3.126 7.385,2.738 13.637,8.99 6.252,6.252 5.864,10.511 8.99,13.637-3.126-3.126-.818-9.304-7.07-15.556z"/>
<path stroke="#000" d="m25.172,9.765-2.937-2.937-5.196,3.891-14.399,16.112 2.529,2.529 16.113-14.399z"/>
</g>
</g>
<g fill="none" stroke="#fff" transform="matrix(17.86918 0 0 17.86918 -36.10004 -23.71365)">
<path stroke-linejoin="round" stroke-width=".804" d="m29.082,6.604-3.686-3.686c-.375-.375-1.903,0-2.207,.24l.28,3.489 1.883,1.883 3.489,.281c.241-.304 .616-1.833 .241-2.207z"/>
<path d="m6.9332,2.9022 1.6788,20.3318"/>
<path d="m29.1056,25.0601-20.374-1.51"/>
</g>
</g>
<path d="m129.7617,394.8718-12.6335-12.6335 210.0701-210.0701 31.5927-18.9592-18.9592,31.5927z"/>
</svg>
