<svg viewBox="0 0 512 512" xmlns="http://www.w3.org/2000/svg">

<g transform="matrix(18.68858,0,0,18.68858,-3387.3775,-958.69089)">
<g transform="matrix(1.00466,-.02229,.02229,1.00466,-30.00858,.29855)">
<path d="m 217.281 73.2636 c 6.9058 -5.2064 14.9511 -10.4827 17.577 -16.3179 2.2644 6.9438 -6.6494 13.8148 -15.9881 19.1244" fill="#fff" fill-rule="evenodd"/>
<path d="m 210.112 76.8622 c 2.6714 9.4384 12.349 2.3485 7.2914 -2.8103 -1.0168 -1.0372 -1.4933 -2.091 -1.4083 -2.8954" fill="none" stroke="#fff" stroke-width=".9951"/>
<path d="m 217.494 74.9791 c -1.4416 -0.5433 -5.7905 2.6107 -5.689 4.31 1.5215 0.7518 5.9459 -2.9095 5.689 -4.31 z" fill="#fff" fill-rule="evenodd"/>
<path d="m 211.294 77.3271 c 2.3906 6.8804 10.2873 0.8859 4.3964 -3.5868" fill="none" stroke="#000" stroke-width=".9951"/>
</g>
<g transform="matrix(-1.00466,-.02229,-.02229,1.00466,419.92444,.29855)">
<path d="m 217.281 73.2636 c 6.9058 -5.2064 14.9511 -10.4827 17.577 -16.3179 2.2644 6.9438 -6.6494 13.8148 -15.9881 19.1244" fill="#fff" fill-rule="evenodd"/>
<path d="m 210.112 76.8622 c 2.6714 9.4384 12.349 2.3485 7.2914 -2.8103 -1.0168 -1.0372 -1.4933 -2.091 -1.4083 -2.8954" fill="none" stroke="#fff" stroke-width=".9951"/>
<path d="m 217.494 74.9791 c -1.4416 -0.5433 -5.7905 2.6107 -5.689 4.31 1.5215 0.7518 5.9459 -2.9095 5.689 -4.31 z" fill="#fff" fill-rule="evenodd"/>
<path d="m 211.294 77.3271 c 2.3906 6.8804 10.2873 0.8859 4.3964 -3.5868" fill="none" stroke="#000" stroke-width=".9951"/>
</g>
<path d="m 190.42 67.1825 5.4688 3.7812" fill="none" stroke="#000"/>
<path d="m 193.451 63.2762 c 1.6792 1.3833 3.5691 2.9934 5.4062 4.2188" fill="none" stroke="#000"/>
</g>
</svg>
