<svg viewBox="0 0 512 512" xmlns="http://www.w3.org/2000/svg">

<g transform="matrix(14.18501,-12.16757,12.16757,14.18501,-10636.11085,-10333.16893)">
<path d="m63.9826,800.7492c-1.77.9301-2.2011,2.8143.0773,3.8902-2.4641.8513-5.3754,3.7166-4.9005,8.2295 .425,4.0393 6.9575,3.8782 6.192.5853-.6831-2.9384-.7775-6.1555 5.6092-6.1555h15.1302v-3.9888h-18.21c-2.3308,0-3.3266-1.5282-3.8981-2.5608z" fill="#fff" stroke="#000"/>
<path d="m64.3246,809.8466c3.2267,0 5.3254-.2212 5.3254-3.0715" fill="none" stroke="#fff"/>
</g>
<g transform="matrix(-14.18501,-12.16757,-12.16757,14.18501,11146.49383,-10333.16893)">
<path d="m63.9826,800.7492c-1.77.9301-2.2011,2.8143.0773,3.8902-2.4641.8513-5.3754,3.7166-4.9005,8.2295 .425,4.0393 6.9575,3.8782 6.192.5853-.6831-2.9384-.7775-6.1555 5.6092-6.1555h15.1302v-3.9888h-18.21c-2.3308,0-3.3266-1.5282-3.8981-2.5608z" fill="#fff" stroke="#000"/>
<path d="m64.3246,809.8466c3.2267,0 5.3254-.2212 5.3254-3.0715" fill="none" stroke="#fff"/>
</g>
</svg>
