<svg viewBox="0 0 512 512" xmlns="http://www.w3.org/2000/svg">

<g transform="matrix(18.68858,0,0,18.68858,-4313.22618,-3634.7871)">
<path d="m231.3357,195.0468h11.7319c.681,8.8425-4.0591,13.9614-11.7319,14.2344v-14.2344z" fill="#fff" stroke="#000"/>
<path d="m257.2103,205.5622c-3.2902,8.138-13.8937,14.1199-23.3129,7.188-5.0203-3.6946 2.3492-10.7438 6.1704-7.0258 3.7913,3.6888 9.7336,3.567 17.1425-.1622z" fill="#fff" fill-rule="evenodd"/>
<g transform="matrix(.3656,.99373,.99373,-.3656,-48.60644,55.36509)">
<path d="m227.4867,206.4425 1.5454-1.5168-.2572,2.2875" fill-rule="evenodd"/>
<path d="m229.1119,207.602 1.8509-1.1-.8783,2.1278" fill-rule="evenodd"/>
<path d="m230.5497,209.0097 2.1391-.6755-1.32,1.8859" fill-rule="evenodd"/>
<path d="m231.6235,210.7225 2.1827-.3049-1.5582,1.6943" fill-rule="evenodd"/>
<path d="m232.4443,212.7295 2.1779.0769-1.8432,1.3789" fill-rule="evenodd"/>
<path d="m232.8906,215.0961 2.1595.4078-2.0363,1.0734" fill-rule="evenodd"/>
<path d="m232.9439,217.2358 2.0923.5301-2.1075.926" fill-rule="evenodd"/>
</g>
<path d="m244.9002,220.7285c7.0096-5.2841 10.0437-17.0739.9097-24.3774-4.8683-3.8927-9.7704,5.0496-5.1898,7.7782 4.5446,2.7072 5.9649,8.478 4.2801,16.5992z" fill="#fff" fill-rule="evenodd"/>
<path d="m238.7956,200.6247c.1875,2.5002-1.5461,3.7998-3.7874,4.782" fill="none" stroke="#000"/>
<path d="m238.7815,202.141 2.3535,2.3264-1.055,1.5149-2.583-1.5755 1.2845-2.2657z" fill-rule="evenodd"/>
<g transform="matrix(1.07457,.08543,-.08543,1.07457,-.45096,-35.92034)">
<path d="m240.4535,203.7474 1.4746-1.5857-.1526,2.2968" fill-rule="evenodd"/>
<path d="m242.1268,204.7763 1.8509-1.1-.8783,2.1278" fill-rule="evenodd"/>
<path d="m243.5646,206.1839 2.1391-.6755-1.32,1.8859" fill-rule="evenodd"/>
<path d="m244.6385,207.8967 2.1827-.3049-1.5582,1.6943" fill-rule="evenodd"/>
<path d="m245.4592,209.9038 2.1779.0769-1.8432,1.3789" fill-rule="evenodd"/>
<path d="m245.9055,212.2704 2.1595.4078-2.0363,1.0734" fill-rule="evenodd"/>
<path d="m246.0307,214.3836 2.0923.5301-2.1075.926" fill-rule="evenodd"/>
</g>
<path d="m245.2653,215.932c-3.2172.5793-7.4523-.3002-11.3679-3.1818-5.0203-3.6946 2.3492-10.7438 6.1704-7.0258 1.1751,1.1433 2.5568,1.9205 4.1247,2.3378" fill="none" stroke="#000"/>
<path d="m249.0099,216.9943c4.1551-5.96 4.1602-14.7581-3.1999-20.6432-4.8683-3.8927-9.7704,5.0496-5.1898,7.7782 3.8575,2.2979 5.3492,6.7648 4.334,13.0793" fill="none" stroke="#000"/>
</g>
</svg>
