<svg viewBox="0 0 512 512" xmlns="http://www.w3.org/2000/svg">

<g transform="matrix(18.68858,0,0,18.68858,-2271.47212,-26544.86961)">
<path d="m 141.847 1435.71 c 0 4.7655 -3.8632 8.6287 -8.6287 8.6287 s -8.6287 -3.8632 -8.6287 -8.6287 3.8632 -8.6286 8.6287 -8.6286 8.6287 3.8632 8.6287 8.6286 z" fill="#fff" stroke="#000" stroke-width=".7927" transform="matrix(0,-1.04868,1.5174,0,-2043.4091,1575.4171)"/>
<path d="m 141.847 1435.71 c 0 4.7655 -3.8632 8.6287 -8.6287 8.6287 s -8.6287 -3.8632 -8.6287 -8.6287 3.8632 -8.6286 8.6287 -8.6286 8.6287 3.8632 8.6287 8.6286 z" fill="#fff" stroke="#000" stroke-width=".7927" transform="matrix(0,-1.04868,1.5174,0,-2043.4091,1572.4802)"/>
<path d="m 143.741 1433.92 c 0 3.487 -2.8267 6.3137 -6.3137 6.3137 s -6.3137 -2.8267 -6.3137 -6.3137 2.8267 -6.3136 6.3137 -6.3136 6.3137 2.8267 6.3137 6.3136 z" fill="#fff" stroke="#000" stroke-dasharray="0.73176493, 0.73176493" stroke-width=".7318" transform="matrix(0,1.10116,1.69592,0,-2296.5826,1281.4848)"/>
<path d="m 135.694 1429.82 -2.2288 2.6331 -4.5568 -1.9001 1.8326 5.9173 4.953 0.3628 5.0026 -0.3628 1.8326 -5.9173 -4.6063 1.9001 z" fill="#fff" stroke="#000"/>
<path d="m 127.646 1440.43 v 3.5235" fill="none" stroke="#000"/>
<path d="m 125.599 1439.09 v 3.5235" fill="none" stroke="#000"/>
<path d="m 123.702 1437.27 v 3.5235" fill="none" stroke="#000"/>
<path d="m 129.766 1441.1 v 3.5235" fill="none" stroke="#000"/>
<path d="m 142.415 1440.43 v 3.5235" fill="none" stroke="#000"/>
<path d="m 144.462 1439.09 v 3.5235" fill="none" stroke="#000"/>
<path d="m 146.359 1437.53 v 3.5235" fill="none" stroke="#000"/>
<path d="m 140.295 1441.1 v 3.5235" fill="none" stroke="#000"/>
<path d="m 133.97 1442.09 v 3.5235" fill="none" stroke="#000"/>
<path d="m 136.016 1441.63 v 3.5235" fill="none" stroke="#000"/>
<path d="m 131.85 1441.84 v 3.5235" fill="none" stroke="#000"/>
<path d="m 138.211 1441.86 v 3.5235" fill="none" stroke="#000"/>
<path d="m 128.39 1429.16 6.1386 3.9437" fill="none" stroke="#fff"/>
<path d="m 136.203 1428.88 2.2675 4.5139" fill="none" stroke="#fff"/>
<path d="m 143.373 1429.62 -3.7442 7.7474 1.929 0.013 z" fill="#fff"/>
</g>
</svg>
