<svg viewBox="0 0 512 512" xmlns="http://www.w3.org/2000/svg">

<g transform="matrix(18.68858,0,0,18.68858,-1591.97946,-29263.3383)">
<path d="m90.3197,1579.8264-.1806-8.3567 5.4134,7.2017 3.1363-6.5798 3.4659,6.0331 5.0765-7.0242 2.2819,8.1278" fill="#fff" fill-rule="evenodd" stroke="#000"/>
<path d="m109.2099,1584.1782 2.6303-12.227-5.9326,6.3448-2.7951-6.3448-4.1102,7.2701-4.7968-7.2701-1.8532,6.3448-6.5159-6.3448 3.7661,12.2271c.6648,1.3626 3.8453,2.416 9.4487,2.5259 5.929.1163 9.5309-.9386 10.1588-2.526z" fill="#fff"/>
<path d="m111.8402,1571.9513-5.9326,6.3448-2.7951-6.3448-4.1102,7.2701-4.7968-7.2701-1.8532,6.3448-6.5159-6.3448" fill="none" stroke="#000"/>
<path d="m93.7852,1582.1991c0,.7363-.5969,1.3333-1.3333,1.3333s-1.3333-.597-1.3333-1.3333 .5969-1.3333 1.3333-1.3333 1.3333.597 1.3333,1.3333z" fill="#fff" stroke="#000" transform="translate(-3.8855,-.6187)"/>
<path d="m93.7852,1582.1991c0,.7363-.5969,1.3333-1.3333,1.3333s-1.3333-.597-1.3333-1.3333 .5969-1.3333 1.3333-1.3333 1.3333.597 1.3333,1.3333z" fill="#fff" stroke="#000" transform="translate(17.2181,-.9235)"/>
<path d="m93.7852,1582.1991c0,.7363-.5969,1.3333-1.3333,1.3333s-1.3333-.597-1.3333-1.3333 .5969-1.3333 1.3333-1.3333 1.3333.597 1.3333,1.3333z" fill="#fff" stroke="#000" transform="translate(3.0882,1.336)"/>
<path d="m93.7852,1582.1991c0,.7363-.5969,1.3333-1.3333,1.3333s-1.3333-.597-1.3333-1.3333 .5969-1.3333 1.3333-1.3333 1.3333.597 1.3333,1.3333z" fill="#fff" stroke="#000" transform="translate(10.1104,1.336)"/>
</g>
</svg>
