<svg viewBox="0 0 512 512" xmlns="http://www.w3.org/2000/svg">

<g transform="matrix(18.68858,0,0,18.68858,-11801.33934,-36084.47599)">
<path d="m648.2462,1932.7253 .4654,3.8095-2.7732-.7431z" fill="#fff"/>
<path d="m652.8279,1942.087c0,3.8965-3.1587,7.0552-7.0551,7.0552s-7.0551-3.1587-7.0551-7.0552 3.1587-7.0551 7.0551-7.0551 7.0551,3.1587 7.0551,7.0551z" fill="none" stroke="#fff" stroke-width=".8039" transform="matrix(1.2015,.32194,-.32194,1.2015,494.05628,-596.62404)"/>
<path d="m637.2266,1954.3554 1.5017-3.5318 2.0302,2.03z" fill="#fff"/>
<path d="m649.8827,1942.2389 1.9473-2.6435 1.4356,2.4863z" fill="#fff"/>
<path d="m647.9834,1956.5555 .8068-3.6577-2.7732.743z" fill="#fff"/>
<path d="m653.8182,1952.7581-3.2973-1.1197 2.0298-2.0302z" fill="#fff"/>
<path d="m635.0088,1936.6157 3.7972,1.2741-2.0299,2.0301z" fill="#fff"/>
<path d="m639.8533,1945.074-3.5592-1.4354-8e-05,3.4022z" fill="#fff"/>
<path d="m657.3048,1943.0164-3.3998,1.974-.4469-2.8359z" fill="#fff"/>
<path d="m632.6096,1947.3313 3.0664-2.3078 .7432,2.7733z" fill="#fff"/>
<path d="m648.725,1945.2885c0,2.1161-1.7155,3.8316-3.8316,3.8316s-3.8316-1.7155-3.8316-3.8316 1.7155-3.8317 3.8316-3.8317 3.8316,1.7155 3.8316,3.8317z" fill="#fff" stroke="#fff" transform="translate(.0759,-.607)"/>
<path d="m632.0199,1950.6613-3e-05,5.4472 8.2326-8.9486z" fill="#fff"/>
<path d="m645.101,1957.5984-5.803-.0002 4.868-8.1957z" fill="#fff"/>
<path d="m641.1665,1931.3756-6.7945.0003 8.6412,9.0709z" fill="#fff"/>
<path d="m652.2041,1931.5366 5.1511.0002-9.2645,9.2135z" fill="#fff"/>
<path d="m658.1603,1945.9636-.0003,6.2845-8.5808-5.9717z" fill="#fff"/>
<path d="m631.9999,1931.3608h26.4314v26.4314h-26.4314z" fill="none" stroke="#000"/>
</g>
</svg>
