<svg viewBox="0 0 512 512" xmlns="http://www.w3.org/2000/svg">

<g transform="matrix(18.68858,0,0,18.68858,-3632.45095,-33369.19877)">
<path d="m217.5284,1800.2769c0,3.5322-4.5747,6.3956-10.2179,6.3956s-10.2179-2.8634-10.2179-6.3956 4.5747-6.3957 10.2179-6.3957 10.2179,2.8634 10.2179,6.3957z" fill="#fff" transform="matrix(1.11729,.64507,-.64507,1.11729,1137.8093,-345.58747)"/>
<path d="m217.5284,1800.2769c0,3.5322-4.5747,6.3956-10.2179,6.3956s-10.2179-2.8634-10.2179-6.3956 4.5747-6.3957 10.2179-6.3957 10.2179,2.8634 10.2179,6.3957z" transform="matrix(.89633,.5175,-.4275,.74045,792.50588,358.86509)"/>
<path d="m195.2008,1799.564 1.5906-.3145c-.4847-2.2668.8529-5.2709 2.7427-6.9875-3.2528.7839-4.6227,4.4401-4.3333,7.302z"/>
<path d="m216.9611,1799.5218-1.3717,1.022c1.6112,1.5392 1.8409,4.5445.8893,6.8106 2.7343-2.2003 2.2061-5.7322.4823-7.8326z"/>
<path d="m215.5908,1795.8577c.3482-1.3324 1.7589-2.5577 2.671-3.323-1.0159-.2856-3.6277.2771-4.3226.9504" fill="#fff"/>
<path d="m206.2633,1789.9959c3.02.5254 6.684,3.2349 8.5859,5.9279-.4606-3.6599-4.4329-6.9993-8.1903-7.9907-.7995.086-.4528,1.3218-.3956,2.0628z"/>
<path d="m201.9229,1790.0525c-.9151-.3711-2.0121-1.5582-2.4621-2.7567-.5388.9076-.5107,2.496-.2572,3.7379" fill="#fff"/>
<path d="m208.7233,1790.843c-.8699-1.3673-1.06-3.0302-.7069-3.9719-.981.5505-2.0279,2.599-2.3265,3.4283" fill="#fff"/>
<path d="m211.1111,1806.2001c1.1404-.6897 1.7606-2.5192 1.6694-3.4581 .7552.737 1.1421,2.8779 1.2112,3.7021" fill="#fff"/>
<path d="m217.9271,1798.4619c1.2941.3187 2.2315.1069 2.8309-.6216 .0129,1.0551-.4328,2.1992-.9666,2.8308" fill="#fff"/>
<path d="m196.7872,1798.9976c-.0269,1.3325-.4743,2.1831-1.3329,2.5738 1.0157.2855 2.2363.151 2.9846-.2012" fill="#fff"/>
<path d="m204.5618,1803.2321c-.3189-1.2939.3212-3.0877 1.0495-3.687-1.055-.013-2.6274,1.2892-3.2589,1.8231" fill="#fff"/>
<path d="m209.6366,1808.6669c.9232.9615.9943,2.3073.6633,3.1904 .9201-.5161 1.9022-1.9026 2.1822-2.6806" fill="#fff"/>
<path d="m206.2698,1807.7884c-1.3326.028-2.8307,1.568-3.43,2.2961-.013-1.0549.7053-3.1996 1.0574-3.9477" fill="#fff"/>
<path d="m217.8752,1807.2198c1.2942.2195 2.2315.8209 2.8309,1.7987 .0131-1.0497-.4328-2.3792-.9667-3.2329" fill="#fff"/>
<path d="m198.2366,1795.3634c.9095-.3846 2.5246-.3211 3.6901.2082-.2606-1.0226-1.4037-2.1259-2.4611-2.825" fill="#fff"/>
<path d="m212.0462,1794.6936c-.9799.1217-2.3469.9843-3.0916,2.0254-.2856-1.0159.1527-2.5429.7189-3.677" fill="#fff"/>
</g>
</svg>
