<svg viewBox="0 0 512 512" xmlns="http://www.w3.org/2000/svg">

<g transform="matrix(18.68858,0,0,18.68858,-3632.45095,-33369.19877)">
<path d="m 217.528 1800.28 c 0 3.5322 -4.5747 6.3956 -10.2179 6.3956 s -10.2179 -2.8634 -10.2179 -6.3956 4.5747 -6.3957 10.2179 -6.3957 10.2179 2.8634 10.2179 6.3957 z" fill="#fff" transform="matrix(1.11729,.64507,-.64507,1.11729,1137.8093,-345.58747)"/>
<path d="m 217.528 1800.28 c 0 3.5322 -4.5747 6.3956 -10.2179 6.3956 s -10.2179 -2.8634 -10.2179 -6.3956 4.5747 -6.3957 10.2179 -6.3957 10.2179 2.8634 10.2179 6.3957 z" transform="matrix(.89633,.5175,-.4275,.74045,792.50588,358.86509)"/>
<path d="m 195.201 1799.56 1.5906 -0.3145 c -0.4847 -2.2668 0.8529 -5.2709 2.7427 -6.9875 -3.2528 0.7839 -4.6227 4.4401 -4.3333 7.302 z"/>
<path d="m 216.961 1799.52 -1.3717 1.022 c 1.6112 1.5392 1.8409 4.5445 0.8893 6.8106 2.7343 -2.2003 2.2061 -5.7322 0.4823 -7.8326 z"/>
<path d="m 215.591 1795.86 c 0.3482 -1.3324 1.7589 -2.5577 2.671 -3.323 -1.0159 -0.2856 -3.6277 0.2771 -4.3226 0.9504" fill="#fff"/>
<path d="m 206.263 1790 c 3.02 0.5254 6.684 3.2349 8.5859 5.9279 -0.4606 -3.6599 -4.4329 -6.9993 -8.1903 -7.9907 -0.7995 0.086 -0.4528 1.3218 -0.3956 2.0628 z"/>
<path d="m 201.923 1790.05 c -0.9151 -0.3711 -2.0121 -1.5582 -2.4621 -2.7567 -0.5388 0.9076 -0.5107 2.496 -0.2572 3.7379" fill="#fff"/>
<path d="m 208.723 1790.84 c -0.8699 -1.3673 -1.06 -3.0302 -0.7069 -3.9719 -0.981 0.5505 -2.0279 2.599 -2.3265 3.4283" fill="#fff"/>
<path d="m 211.111 1806.2 c 1.1404 -0.6897 1.7606 -2.5192 1.6694 -3.4581 0.7552 0.737 1.1421 2.8779 1.2112 3.7021" fill="#fff"/>
<path d="m 217.927 1798.46 c 1.2941 0.3187 2.2315 0.1069 2.8309 -0.6216 0.0129 1.0551 -0.4328 2.1992 -0.9666 2.8308" fill="#fff"/>
<path d="m 196.787 1799 c -0.0269 1.3325 -0.4743 2.1831 -1.3329 2.5738 1.0157 0.2855 2.2363 0.151 2.9846 -0.2012" fill="#fff"/>
<path d="m 204.562 1803.23 c -0.3189 -1.2939 0.3212 -3.0877 1.0495 -3.687 -1.055 -0.013 -2.6274 1.2892 -3.2589 1.8231" fill="#fff"/>
<path d="m 209.637 1808.67 c 0.9232 0.9615 0.9943 2.3073 0.6633 3.1904 0.9201 -0.5161 1.9022 -1.9026 2.1822 -2.6806" fill="#fff"/>
<path d="m 206.27 1807.79 c -1.3326 0.028 -2.8307 1.568 -3.43 2.2961 -0.013 -1.0549 0.7053 -3.1996 1.0574 -3.9477" fill="#fff"/>
<path d="m 217.875 1807.22 c 1.2942 0.2195 2.2315 0.8209 2.8309 1.7987 0.0131 -1.0497 -0.4328 -2.3792 -0.9667 -3.2329" fill="#fff"/>
<path d="m 198.237 1795.36 c 0.9095 -0.3846 2.5246 -0.3211 3.6901 0.2082 -0.2606 -1.0226 -1.4037 -2.1259 -2.4611 -2.825" fill="#fff"/>
<path d="m 212.046 1794.69 c -0.9799 0.1217 -2.3469 0.9843 -3.0916 2.0254 -0.2856 -1.0159 0.1527 -2.5429 0.7189 -3.677" fill="#fff"/>
</g>
</svg>
