<svg viewBox="0 0 512 512" xmlns="http://www.w3.org/2000/svg">

<g transform="matrix(18.68858,0,0,18.68858,-11801.33934,-36084.47599)">
<path d="m 648.246 1932.73 0.4654 3.8095 -2.7732 -0.7431 z" fill="#fff"/>
<path d="m 652.828 1942.09 c 0 3.8965 -3.1587 7.0552 -7.0551 7.0552 s -7.0551 -3.1587 -7.0551 -7.0552 3.1587 -7.0551 7.0551 -7.0551 7.0551 3.1587 7.0551 7.0551 z" fill="none" stroke="#fff" stroke-width=".8039" transform="matrix(1.2015,.32194,-.32194,1.2015,494.05628,-596.62404)"/>
<path d="m 637.227 1954.36 1.5017 -3.5318 2.0302 2.03 z" fill="#fff"/>
<path d="m 649.883 1942.24 1.9473 -2.6435 1.4356 2.4863 z" fill="#fff"/>
<path d="m 647.983 1956.56 0.8068 -3.6577 -2.7732 0.743 z" fill="#fff"/>
<path d="m 653.818 1952.76 -3.2973 -1.1197 2.0298 -2.0302 z" fill="#fff"/>
<path d="m 635.009 1936.62 3.7972 1.2741 -2.0299 2.0301 z" fill="#fff"/>
<path d="m 639.853 1945.07 -3.5592 -1.4354 -8e-05 3.4022 z" fill="#fff"/>
<path d="m 657.305 1943.02 -3.3998 1.974 -0.4469 -2.8359 z" fill="#fff"/>
<path d="m 632.61 1947.33 3.0664 -2.3078 0.7432 2.7733 z" fill="#fff"/>
<path d="m 648.725 1945.29 c 0 2.1161 -1.7155 3.8316 -3.8316 3.8316 s -3.8316 -1.7155 -3.8316 -3.8316 1.7155 -3.8317 3.8316 -3.8317 3.8316 1.7155 3.8316 3.8317 z" fill="#fff" stroke="#fff" transform="translate(.0759,-.607)"/>
<path d="m 632.02 1950.66 -3e-05 5.4472 8.2326 -8.9486 z" fill="#fff"/>
<path d="m 645.101 1957.6 -5.803 -0.0002 4.868 -8.1957 z" fill="#fff"/>
<path d="m 641.167 1931.38 -6.7945 0.0003 8.6412 9.0709 z" fill="#fff"/>
<path d="m 652.204 1931.54 5.1511 0.0002 -9.2645 9.2135 z" fill="#fff"/>
<path d="m 658.16 1945.96 -0.0003 6.2845 -8.5808 -5.9717 z" fill="#fff"/>
<path d="m 632 1931.36 h 26.4314 v 26.4314 h -26.4314 z" fill="none" stroke="#000"/>
</g>
</svg>
