<svg viewBox="0 0 512 512" xmlns="http://www.w3.org/2000/svg">

<g transform="matrix(18.68858,0,0,18.68858,-10440.7572,-23821.8668)">
<path d="m580.2216,1275.9063-1.8438,7.0312h-12.3125l-1.75-6.75 4.375,3.4063 3.375-3.5938 3.375,3.5938 4.7812-3.6875z" fill="#fff"/>
<path d="m563.2399,1288.8082c-.1695,5.3983 6.896,6.7652 9.0822,12.1545 2.0697-5.3885 8.9469-7.0803 9.109-12.1545 .1728-5.4096-6.5608-6.4479-9.109-2.0578-2.5527-4.7926-8.9232-3.0073-9.0822,2.0578z" fill="#fff"/>
<path d="m566.9196,1281.5944c0,.4881-.3957.8839-.8839.8839s-.8839-.3958-.8839-.8839 .3957-.884.8839-.884 .8839.3958.8839.884z" stroke="#fff" stroke-width=".6735" transform="matrix(1.48485,0,0,1.48485,-272.98068,-621.84823)"/>
<path d="m566.9196,1281.5944c0,.4881-.3957.8839-.8839.8839s-.8839-.3958-.8839-.8839 .3957-.884.8839-.884 .8839.3958.8839.884z" stroke="#fff" stroke-width=".6735" transform="matrix(1.48485,0,0,1.48485,-263.5764,-621.84823)"/>
<path d="m572.0557,1279.1365 1.3244,1.2108-1.3244,1.7411-1.3244-1.7411 1.3244-1.2108z"/>
<path d="m580.2054,1287.4336c0,1.7456-1.4151,3.1607-3.1607,3.1607s-3.1607-1.4151-3.1607-3.1607 1.4151-3.1607 3.1607-3.1607 3.1607,1.4151 3.1607,3.1607z" stroke="#fff" stroke-width=".7398" transform="matrix(1.35169,0,0,1.35169,-203.22493,-451.49813)"/>
<path d="m570.4018,1289.8845c0,1.7087-1.3851,3.0938-3.0938,3.0938s-3.0938-1.3851-3.0938-3.0938 1.3851-3.0937 3.0938-3.0937 3.0938,1.3851 3.0938,3.0937z" fill="#fff" transform="matrix(.65368,1.13221,-.84728,.48918,1297.9355,16.06998)"/>
</g>
</svg>
