<svg viewBox="0 0 512 512" xmlns="http://www.w3.org/2000/svg">

<g transform="matrix(18.68858,0,0,18.68858,-5676.15459,-17254.38631)">
<path d="m 317.356 930.505 c -6.88 0 -9.4059 5.5151 -9.4059 10.6831 4.2284 1.847 5.2289 4.7325 4.5307 7.3395 2.7772 2.0187 7.19 1.9342 9.8563 -0.0815 -0.7777 -2.6285 0.2399 -5.3028 4.4247 -7.258 -2e-05 -5.4589 -2.584 -10.6831 -9.4059 -10.6831 z" fill="#fff" stroke="#000"/>
<path d="m 317.377 941.03 c 0.6298 1.1626 1.0271 2.3252 1.3575 3.4878 h -2.7149 c 0.2445 -1.1626 0.7368 -2.3251 1.3575 -3.4878 z" fill-rule="evenodd"/>
<path d="m 310.586 938.364 c -1.1507 3.8059 3.3006 3.7403 5.7943 1.9667 -1.8807 -1.4058 -3.8133 -2.043 -5.7943 -1.9667 z" fill-rule="evenodd"/>
<path d="m 324.321 938.364 c 1.1507 3.8059 -3.3006 3.7403 -5.7943 1.9667 1.8807 -1.4058 3.8133 -2.043 5.7943 -1.9667 z" fill-rule="evenodd"/>
<path d="m 315.174 946.46 -0.3642 3.1388" fill="none" stroke="#000"/>
<path d="m 319.668 946.46 0.3642 3.1388" fill="none" stroke="#000"/>
<path d="m 317.425 946.542 v 3.1412" fill="none" stroke="#000"/>
<g transform="matrix(1.10406,0,0,1.10406,-32.76078,-96.15052)">
<path d="m 309.248 923.958 -0.009 8.5885 c 5.2274 0.9167 10.4547 0.9941 15.6821 0 l 0.0838 -8.5885 -3.6746 4.6309 -1.6519 -4.6309 -2.6037 5.0278 -2.6037 -5.0278 -1.7177 4.6309 -3.505 -4.6309 z" fill="#fff"/>
</g>
<g transform="matrix(1.10406,0,0,1.10406,-32.76078,-93.56723)">
<path d="m 307.248 929.101 c 4.8443 2.697 13.4809 2.7125 19.5224 0" fill="none" stroke="#000" stroke-width=".9057"/>
</g>
<path d="m 308.979 932.927 c 5.5361 2.1701 11.5556 1.7463 16.5889 0 1.8924 -0.6566 1.9886 1.4436 0 2.2472 -5.3556 2.1642 -11.1284 1.8945 -16.5889 0 -2.4312 -0.8435 -1.7344 -2.927 0 -2.2472 z" fill="#fff" stroke="#000"/>
<path d="m -305.049 845.511 h 3.6814 v 3.6814 h -3.6814 z" fill="#fff" stroke="#000" stroke-width="1.0272" transform="matrix(.58343,-.81216,.58343,.81216,0,0)"/>
</g>
</svg>
