<svg viewBox="0 0 512 512" xmlns="http://www.w3.org/2000/svg">

<g transform="matrix(18.68858,0,0,18.68858,-2271.47212,-26544.86961)">
<path d="m141.8469,1435.7065c0,4.7655-3.8632,8.6287-8.6287,8.6287s-8.6287-3.8632-8.6287-8.6287 3.8632-8.6286 8.6287-8.6286 8.6287,3.8632 8.6287,8.6286z" fill="#fff" stroke="#000" stroke-width=".7927" transform="matrix(0,-1.04868,1.5174,0,-2043.4091,1575.4171)"/>
<path d="m141.8469,1435.7065c0,4.7655-3.8632,8.6287-8.6287,8.6287s-8.6287-3.8632-8.6287-8.6287 3.8632-8.6286 8.6287-8.6286 8.6287,3.8632 8.6287,8.6286z" fill="#fff" stroke="#000" stroke-width=".7927" transform="matrix(0,-1.04868,1.5174,0,-2043.4091,1572.4802)"/>
<path d="m143.741,1433.9177c0,3.487-2.8267,6.3137-6.3137,6.3137s-6.3137-2.8267-6.3137-6.3137 2.8267-6.3136 6.3137-6.3136 6.3137,2.8267 6.3137,6.3136z" fill="#fff" stroke="#000" stroke-dasharray="0.73176493, 0.73176493" stroke-width=".7318" transform="matrix(0,1.10116,1.69592,0,-2296.5826,1281.4848)"/>
<path d="m135.694,1429.8159-2.2288,2.6331-4.5568-1.9001 1.8326,5.9173 4.953.3628 5.0026-.3628 1.8326-5.9173-4.6063,1.9001z" fill="#fff" stroke="#000"/>
<path d="m127.6456,1440.4328v3.5235" fill="none" stroke="#000"/>
<path d="m125.5994,1439.0935v3.5235" fill="none" stroke="#000"/>
<path d="m123.702,1437.2705v3.5235" fill="none" stroke="#000"/>
<path d="m129.7662,1441.1025v3.5235" fill="none" stroke="#000"/>
<path d="m142.4154,1440.4328v3.5235" fill="none" stroke="#000"/>
<path d="m144.4616,1439.0935v3.5235" fill="none" stroke="#000"/>
<path d="m146.359,1437.5309v3.5235" fill="none" stroke="#000"/>
<path d="m140.2948,1441.1025v3.5235" fill="none" stroke="#000"/>
<path d="m133.9702,1442.0859v3.5235" fill="none" stroke="#000"/>
<path d="m136.0164,1441.6306v3.5235" fill="none" stroke="#000"/>
<path d="m131.8496,1441.8394v3.5235" fill="none" stroke="#000"/>
<path d="m138.2114,1441.8627v3.5235" fill="none" stroke="#000"/>
<path d="m128.3896,1429.1602 6.1386,3.9437" fill="none" stroke="#fff"/>
<path d="m136.2033,1428.8751 2.2675,4.5139" fill="none" stroke="#fff"/>
<path d="m143.3727,1429.6165-3.7442,7.7474 1.929.013z" fill="#fff"/>
</g>
</svg>
