<svg viewBox="0 0 512 512" xmlns="http://www.w3.org/2000/svg">

<g transform="matrix(18.68858,0,0,18.68858,-5675.80048,-34717.92929)">
<path d="m325.6297,1877.15 .9827,3.6155-3.616-.9819c1.0207.9932 3.2187,1.8579 4.9565,2.3236-.5195-1.9391-1.2703-3.9643-2.3235-4.9567z" fill="#fff"/>
<path d="m316.5892,1868.4425 5.5414,5.376c-.7081-2.3022 2.4004-3.7811 4.5488-.6342 1.6195,2.3721 6.4231-1.0052.7168-4.7419-4.2623-2.7912-6.5386-6.4957-9.2907-10.173-1.1905,1.1156-2.0621,2.4044-2.3371,4.1865 2.0805,3.3645 1.377,4.6464.8208,5.9866z" fill="#fff"/>
<path d="m314.294,1870.7377 5.376,5.5415c-2.3022-.7082-3.7811,2.4003-.6342,4.5487 2.3721,1.6195-1.0051,6.4231-4.7419.7168-2.7912-4.2624-6.4956-6.5386-10.173-9.2907 1.1156-1.1906 2.4043-2.0621 4.1864-2.3371 3.3645,2.0805 4.6465,1.3769 5.9866.8208z" fill="#fff"/>
<path d="m310.9062,1865.0625c-1.9118,1.9118-1.1556,4.032 2.375,7.5625 1.1046,1.1046 2.5982,2.0127 4.0938,2.8125l3.9375-3.9375c-.7986-1.4917-1.7113-2.992-2.8438-4.0625-2.9837-2.8206-5.6507-4.2868-7.5625-2.375z"/>
<path d="m317.7044,1865.49c0,1.2763-1.0347,2.311-2.311,2.311s-2.311-1.0347-2.311-2.311 1.0347-2.311 2.311-2.311 2.311,1.0347 2.311,2.311z" fill="#fff" transform="matrix(.52888,-.52888,-.71455,-.71455,1488.5307,3376.2872)"/>
<path d="m325.3559,1879.5045-1.34-3.2536h-1.9137l-1e-05,1.9137z" fill="#fff"/>
<path d="m319.3001,1868.8554c-3.1356-3.1356-9.566-4.9727-9.566-4.9727s1.8371,6.4306 4.9727,9.5661 5.4298,3.3732 6.6982,2.1048 1.031-3.5624-2.1048-6.6982z" fill="#fff"/>
<path d="m312.2039,1868.3333c-1.9079-2.4287-4.9249-2.8978-7.7246-3.8978l2.2205-.5673-1.6536-1.4646 2.1497.1654-.6142-1.8424 1.8189.6376-.1417-2.1732 1.5118,1.6063 .5197-2.126c.8461,3.0312 1.7219,5.5014 3.8977,7.6773z" fill="#fff"/>
<path d="m316.9795,1858.7024c.9587,2.0998 2.3374,3.9379 3.9103,5.2674-1.3604-1.8883-2.451-3.646-2.7493-5.9103"/>
<path d="m315.8955,1859.5654c.5588,1.9151 1.7232,3.3524 3.0416,4.3816-1.0646-1.7324-1.8519-3.3749-1.5871-5.8149"/>
<path d="m315.1506,1861.8958c.5663.6729 2.2567,2.5177 3.3916,3.4468-.9922-1.467-2.2241-3.3851-2.2185-5.3029"/>
<path d="m304.5539,1871.128c2.0998.9587 3.9379,2.3374 5.2674,3.9103-1.8977-1.3672-3.6633-2.4617-5.9439-2.7537"/>
<path d="m305.4169,1870.044c1.9151.5588 3.3524,1.7232 4.3816,3.0415-1.7324-1.0646-3.3749-1.8519-5.8149-1.587"/>
<path d="m307.7473,1869.2991c.673.5663 2.5177,2.2567 3.4469,3.3915-1.467-.9921-3.3851-2.2241-5.303-2.2185"/>
</g>
</svg>
