<svg viewBox="0 0 512 512" xmlns="http://www.w3.org/2000/svg">

<g transform="matrix(18.68858,0,0,18.68858,-4998.04189,-38100.82993)">
<path d="m 1591.13 -536.517 h 13.0918 v 13.0918 h -13.0918 z" fill="#fff" transform="matrix(.26343,.96468,.26343,-.96468,0,0)"/>
<path d="m 2473.16 484.786 h 13.0918 v 13.0918 h -13.0918 z" fill="#fff" transform="matrix(.2542,.96715,-.71048,-.70372,0,0)"/>
<path d="m 3252.04 1555.22 h 13.0918 v 13.0918 h -13.0918 z" fill="#fff" transform="matrix(-.2542,.96715,.71048,-.70372,0,0)"/>
<path d="m 3758.46 2442.14 h 13.0918 v 13.0918 h -13.0918 z" fill="#fff" transform="matrix(.70372,.71048,-.96715,-.2542,0,0)"/>
<path d="m 4039.81 3228.49 h 13.0918 v 13.0918 h -13.0918 z" fill="#fff" transform="matrix(-.70372,.71048,.96715,-.2542,0,0)"/>
<path d="m 4034.93 3743.37 h 13.0918 v 13.0918 h -13.0918 z" fill="#fff" transform="matrix(.96468,.26343,-.96468,.26343,0,0)"/>
<path d="m 292.942 2052.78 c 0 5.3018 -4.2979 9.5997 -9.5997 9.5997 s -9.5997 -4.2979 -9.5997 -9.5997 4.2979 -9.5996 9.5997 -9.5996 9.5997 4.2979 9.5997 9.5996 z" stroke="#fff" stroke-width="1.1403" transform="matrix(.62012,.62012,-.62012,.62012,1378.5335,603.81111)"/>
<path d="m 277.875 2043.61 c -1.2136 2.1034 -1.9688 5.3076 -1.9688 8.905 0 3.5852 0.7622 6.7714 1.9688 8.8752 h 6.7812 c 1.2065 -2.1038 1.9688 -5.29 1.9688 -8.8752 0 -3.5974 -0.7551 -6.8016 -1.9688 -8.905 h -6.7812 z"/>
<g transform="matrix(1.19366,0,0,1,-54.47076,.05389)">
<path d="m 285.681 2056.09 v -7.1966 l -4.4009 -2.849 -4.4294 2.849 v 7.1966 l 4.4294 2.849 4.4009 -2.849 z" fill="#fff"/>
<path d="m 276.85 2056.15 4.4294 -2.8491 4.4009 2.8491" fill="none" stroke="#000" stroke-width=".9153"/>
<path d="m 276.683 2048.81 4.5969 2.9568 4.5673 -2.9568" fill="none" stroke="#000" stroke-width=".9153"/>
<path d="m 283.184 2054.55 v -4.0206 l -1.9126 -1.3108 -1.925 1.3108 v 4.0206 l 1.925 1.311 1.9126 -1.311 z" fill="#fff" stroke="#000" stroke-width=".9153"/>
<path d="m 281.265 2055.78 v 3.3401" fill="none" stroke="#000" stroke-width=".9153"/>
<path d="m 281.265 2045.76 v 3.3401" fill="none" stroke="#000" stroke-width=".9153"/>
</g>
<path d="m 282.186 2061.53 c 0 0.4909 -0.398 0.8889 -0.8889 0.8889 s -0.8889 -0.398 -0.8889 -0.8889 0.398 -0.8889 0.8889 -0.8889 0.8889 0.398 0.8889 0.8889 z" fill="#fff" transform="matrix(1.15909,0,0,1.15909,-44.78546,-328.25429)"/>
<path d="m 282.186 2061.53 c 0 0.4909 -0.398 0.8889 -0.8889 0.8889 s -0.8889 -0.398 -0.8889 -0.8889 0.398 -0.8889 0.8889 -0.8889 0.8889 0.398 0.8889 0.8889 z" fill="#fff" transform="matrix(1.15909,0,0,1.15909,-44.78546,-345.77746)"/>
<path d="m 282.186 2061.53 c 0 0.4909 -0.398 0.8889 -0.8889 0.8889 s -0.8889 -0.398 -0.8889 -0.8889 0.398 -0.8889 0.8889 -0.8889 0.8889 0.398 0.8889 0.8889 z" fill="#fff" transform="matrix(1.15909,0,0,1.15909,-49.16625,-329.4352)"/>
<path d="m 282.186 2061.53 c 0 0.4909 -0.398 0.8889 -0.8889 0.8889 s -0.8889 -0.398 -0.8889 -0.8889 0.398 -0.8889 0.8889 -0.8889 0.8889 0.398 0.8889 0.8889 z" fill="#fff" transform="matrix(1.15909,0,0,1.15909,-40.44276,-344.59655)"/>
<path d="m 282.186 2061.53 c 0 0.4909 -0.398 0.8889 -0.8889 0.8889 s -0.8889 -0.398 -0.8889 -0.8889 0.398 -0.8889 0.8889 -0.8889 0.8889 0.398 0.8889 0.8889 z" fill="#fff" transform="matrix(-1.15909,0,0,1.15909,611.65475,-329.4352)"/>
<path d="m 282.186 2061.53 c 0 0.4909 -0.398 0.8889 -0.8889 0.8889 s -0.8889 -0.398 -0.8889 -0.8889 0.398 -0.8889 0.8889 -0.8889 0.8889 0.398 0.8889 0.8889 z" fill="#fff" transform="matrix(-1.15909,0,0,1.15909,602.93126,-344.59655)"/>
</g>
</svg>
