<svg viewBox="0 0 512 512" xmlns="http://www.w3.org/2000/svg">

<g transform="matrix(18.68858,0,0,18.68858,-4312.73257,-22488.39234)">
<path d="m 231.81 1211.04 c 8.4779 -2.6846 16.9558 -2.0297 25.4337 7.7159 -9.4552 6.6248 -23.845 6.1142 -25.4337 -7.7159 z" fill="#fff" fill-rule="evenodd"/>
<g transform="matrix(1.04926,0,0,-1.04926,28.0772,2494.0059)">
<path d="m 215.331 1214.58 c 0 3.9224 -3.1797 7.1021 -7.1021 7.1021 s -7.1022 -3.1797 -7.1022 -7.1021 3.1797 -7.1022 7.1022 -7.1022 7.1021 3.1798 7.1021 7.1022 z" fill="#fff" stroke="#000" stroke-width=".9742" transform="matrix(.97817,0,0,.97833,2.2751,29.39785)"/>
<path d="m 209.646 1218.68 -6.4824 1.0267 -2.9796 -5.8479 4.6409 -4.6409 5.8479 2.9797 z" fill="none" stroke="#000" stroke-width="1.3952" transform="matrix(.68324,0,0,.68298,65.87651,386.99381)"/>
<path d="m 202.774 1216.07 -3.6831 -0.7259" fill="none" stroke="#000" stroke-width=".953"/>
<path d="m 209.795 1215.01 2.1235 -1.0973" fill="none" stroke="#000" stroke-width=".953"/>
<path d="m 204.864 1219.75 -1.9063 4.2004" fill="none" stroke="#000" stroke-width=".953"/>
<path d="m 209.046 1219.22 2.716 2.6651" fill="none" stroke="#000" stroke-width=".953"/>
<path d="m 205.863 1213.14 0.0593 -2.5692" fill="none" stroke="#000" stroke-width=".953"/>
</g>
<path d="m 233.946 1206.88 v 3.5566 c 6.5303 -1.6038 13.0468 -0.922 19.5771 4.6392 v -8.1958 h -19.5771 z m 0 10.5773 v 8.938 h 19.5771 v -5.536 c -7.1661 3.2805 -15.6063 2.8326 -19.5771 -3.402 z"/>
</g>
</svg>
