<svg viewBox="0 0 512 512" xmlns="http://www.w3.org/2000/svg">

<g transform="matrix(18.68858,0,0,18.68858,-10441.53976,-35399.41397)">
<path d="m574.9404,1898.3803 8e-05,18.3615-2.5039,3.566-2.5039-3.5659 8e-05-18.3617 2.8832-3.1865z" fill="#fff"/>
<path d="m578.2795,1902.0927-7.1005,12.2985-3.0561,1.4203-.2981-3.3568 7.1007-12.2986 3.1634-1.0191z" fill="#fff"/>
<path d="m568.0732,1899.9789 6.42,11.1196-.2135,2.4053-2.1899-1.0176-6.4199-11.1197 .5009-2.3282z" fill="#fff"/>
<path d="m574.8563,1903.4124 3.8861,12.2377-.7244,2.3035-1.9207-1.4635-3.886-12.2378 .9886-2.1666z" fill="#fff"/>
<path d="m580.7138,1906.8191-14.9754,4.0126-1.8321-.6695 1.2518-1.4959 14.9755-4.0126 1.7118.8776z" fill="#fff"/>
<path d="m579.7754,1908.9362-12.5845-3.372-1.5396.5626 1.0519,1.2571 12.5846,3.3719 1.4385-.7374z" fill="#fff"/>
<g transform="translate(.2068,.8827)">
<path d="m572.3021,1900.1733 1.3271,6.7989-1.3271,6.7991-1.3271-6.799z"/>
<path d="m575.6371,1906.9723-3.3786,1.0177-3.3788-1.0177 3.3787-1.0176z"/>
</g>
</g>
</svg>
