<svg viewBox="0 0 512 512" xmlns="http://www.w3.org/2000/svg">

<g transform="matrix(18.68858,0,0,18.68858,-10441.53976,-35399.41397)">
<path d="m 574.94 1898.38 8e-05 18.3615 -2.5039 3.566 -2.5039 -3.5659 8e-05 -18.3617 2.8832 -3.1865 z" fill="#fff"/>
<path d="m 578.279 1902.09 -7.1005 12.2985 -3.0561 1.4203 -0.2981 -3.3568 7.1007 -12.2986 3.1634 -1.0191 z" fill="#fff"/>
<path d="m 568.073 1899.98 6.42 11.1196 -0.2135 2.4053 -2.1899 -1.0176 -6.4199 -11.1197 0.5009 -2.3282 z" fill="#fff"/>
<path d="m 574.856 1903.41 3.8861 12.2377 -0.7244 2.3035 -1.9207 -1.4635 -3.886 -12.2378 0.9886 -2.1666 z" fill="#fff"/>
<path d="m 580.714 1906.82 -14.9754 4.0126 -1.8321 -0.6695 1.2518 -1.4959 14.9755 -4.0126 1.7118 0.8776 z" fill="#fff"/>
<path d="m 579.775 1908.94 -12.5845 -3.372 -1.5396 0.5626 1.0519 1.2571 12.5846 3.3719 1.4385 -0.7374 z" fill="#fff"/>
<g transform="translate(.2068,.8827)">
<path d="m 572.302 1900.17 1.3271 6.7989 -1.3271 6.7991 -1.3271 -6.799 z"/>
<path d="m 575.637 1906.97 -3.3786 1.0177 -3.3788 -1.0177 3.3787 -1.0176 z"/>
</g>
</g>
</svg>
