<svg viewBox="0 0 512 512" xmlns="http://www.w3.org/2000/svg">

<g transform="matrix(18.68858,0,0,18.68858,-7718.23103,-21125.35197)">
<path d="m432.1126,1145.5347 7.5534-7.5534-.5038-6.4844-6.507-.5263-7.5534,7.5533 .5264,6.507 6.4843.5038z" fill="#fff" stroke="#000"/>
<path d="m425.0342,1138.5916 6.5071.5263 .5036,6.4844" fill="none" stroke="#000"/>
<path d="m432.6293,1130.9965 .5264,6.507 6.4844.5038" fill="none" stroke="#000"/>
<path d="m431.7423,1141.9412 4.2199-4.22-.1427-2.8943-2.9042-.1526-4.2199,4.22 .1524,2.9042 2.8945.1427z" fill="#fff" stroke="#000"/>
<path d="m424.125,1143.375-10.2188,10.1875v3.3125h2.875l10.4062-10.4062-3.0625-3.0938z" fill="#fff"/>
<g transform="matrix(.70711,.70711,-.70711,.70711,937.9818,30.14271)">
<path d="m422.4116,1149.6525h7.2254c-1.4241,1.7881-1.3751,3.5764 0,5.3644h-7.2254c1.3893-1.788 1.4443-3.5763 0-5.3644z" fill="#fff"/>
<path d="m421.4585,1151.1433h9.1317" fill="none" stroke="#000"/>
<path d="m421.4585,1153.5304h9.1317" fill="none" stroke="#000"/>
<path d="m421.4585,1155.5007h9.1317" fill="none" stroke="#000"/>
<path d="m421.512,1149.165h9.1317" fill="none" stroke="#000"/>
</g>
<path d="m413.5,1155.8622 8.4062-8.4063" fill="none" stroke="#000"/>
</g>
</svg>
