<svg viewBox="0 0 512 512" xmlns="http://www.w3.org/2000/svg">

<g transform="matrix(18.68858,0,0,18.68858,-4019.80091,-2847.142)">
<path d="m 234.506 166.323 1.6064 -10.4373 -7.6879 8.3728" fill="#fff" fill-rule="evenodd"/>
<path d="m 231.522 179.731 1.6029 -21.2363" fill="none" stroke="#000"/>
<path d="m 224.401 157.68 4.2762 -4.5006 3.9852 4.5006 -1.1217 21.7812 -6.301 -0.065 -0.8387 -21.7162 z" fill="#fff"/>
<path d="m 229.579 179.668 1.0686 -21.1738" fill="none" stroke="#000"/>
<path d="m 237.855 176.634 1.767 -4.5766 -4.3004 1.8688 -1.4509 4.8022 3.9843 -2.0943 z" fill="#fff" fill-rule="evenodd"/>
<path d="m 239.653 157.937 -5.2896 2.369 -7.6252 19.0205 h 6.4574 l 8.0717 -16.0679 -1.6143 -5.3216 z" fill="#fff" stroke="#000"/>
<path d="m 230.874 179.12 7.9334 -15.7515" fill="none" stroke="#000"/>
<path d="m 219.592 179.866 -2.6129 -7.7961 5.2597 2.4701 1.8062 4.5452 -4.453 0.7807 z" fill="#fff" fill-rule="evenodd"/>
<path d="m 220.968 158.898 -3.263 5.974 3.847 14.4542 h 8.0717 l -2.8509 -16.2739 -5.8048 -4.1543 z" fill="#fff" stroke="#000"/>
<path d="m 227.521 179.19 -2.82 -15.1554" fill="none" stroke="#000"/>
<path d="m 217.966 179.35 h 21.4784" fill="none" stroke="#000"/>
</g>
</svg>
