<svg viewBox="0 0 512 512" xmlns="http://www.w3.org/2000/svg">

<g transform="matrix(18.68858,0,0,18.68858,-4019.80091,-2847.142)">
<path d="m234.5062,166.3226 1.6064-10.4373-7.6879,8.3728" fill="#fff" fill-rule="evenodd"/>
<path d="m231.5221,179.731 1.6029-21.2363" fill="none" stroke="#000"/>
<path d="m224.4006,157.68 4.2762-4.5006 3.9852,4.5006-1.1217,21.7812-6.301-.065-.8387-21.7162z" fill="#fff"/>
<path d="m229.5791,179.6685 1.0686-21.1738" fill="none" stroke="#000"/>
<path d="m237.8546,176.6343 1.767-4.5766-4.3004,1.8688-1.4509,4.8022 3.9843-2.0943z" fill="#fff" fill-rule="evenodd"/>
<path d="m239.6534,157.9369-5.2896,2.369-7.6252,19.0205h6.4574l8.0717-16.0679-1.6143-5.3216z" fill="#fff" stroke="#000"/>
<path d="m230.8737,179.1204 7.9334-15.7515" fill="none" stroke="#000"/>
<path d="m219.5923,179.8659-2.6129-7.7961 5.2597,2.4701 1.8062,4.5452-4.453.7807z" fill="#fff" fill-rule="evenodd"/>
<path d="m220.9682,158.8982-3.263,5.974 3.847,14.4542h8.0717l-2.8509-16.2739-5.8048-4.1543z" fill="#fff" stroke="#000"/>
<path d="m227.521,179.1903-2.82-15.1554" fill="none" stroke="#000"/>
<path d="m217.9657,179.3504h21.4784" fill="none" stroke="#000"/>
</g>
</svg>
