<svg viewBox="0 0 512 512" xmlns="http://www.w3.org/2000/svg">

<path d="m31.2011,402.2217c0,3.8808-3.146,7.0269-7.0269,7.0269s-7.0269-3.146-7.0269-7.0269 3.146-7.0269 7.0269-7.0269 7.0269,3.146 7.0269,7.0269z" fill="#fff" stroke="#000" stroke-width=".9574" transform="matrix(-29.40708,0,0,12.95652,965.27731,-4799.6426)"/>
<path d="m31.2011,402.2217c0,3.8808-3.146,7.0269-7.0269,7.0269s-7.0269-3.146-7.0269-7.0269 3.146-7.0269 7.0269-7.0269 7.0269,3.146 7.0269,7.0269z" fill="#fff" stroke="#000" stroke-width="1.1998" transform="matrix(-23.62519,0,0,10.26913,825.50457,-3778.99628)"/>
<path d="m322.375,811.1747c0,5.9716-4.8409,10.8125-10.8125,10.8125s-10.8125-4.8409-10.8125-10.8125 4.8409-10.8125 10.8125-10.8125 10.8125,4.8409 10.8125,10.8125z" stroke="#fff" stroke-width="1.2735" transform="matrix(10.37715,10.37715,10.37715,-10.37715,-11396.37857,5373.26697)"/>
<path d="m322.375,811.1747c0,5.9716-4.8409,10.8125-10.8125,10.8125s-10.8125-4.8409-10.8125-10.8125 4.8409-10.8125 10.8125-10.8125 10.8125,4.8409 10.8125,10.8125z" fill="#fff" transform="matrix(3.78597,3.78597,2.41762,-2.41762,-2805.23455,887.18078)"/>
<path d="m322.375,811.1747c0,5.9716-4.8409,10.8125-10.8125,10.8125s-10.8125-4.8409-10.8125-10.8125 4.8409-10.8125 10.8125-10.8125 10.8125,4.8409 10.8125,10.8125z" fill="#fff" transform="matrix(7.57496,7.57496,4.83707,-4.83707,-6086.51679,1806.45787)"/>
<path d="m322.375,811.1747c0,5.9716-4.8409,10.8125-10.8125,10.8125s-10.8125-4.8409-10.8125-10.8125 4.8409-10.8125 10.8125-10.8125 10.8125,4.8409 10.8125,10.8125z" fill="none" stroke="#000" stroke-width="1.1402" transform="matrix(11.58963,11.58963,11.58963,-11.58963,-12757.72522,5978.55805)"/>
</svg>
