<svg viewBox="0 0 512 512" xmlns="http://www.w3.org/2000/svg">

<g transform="matrix(18.68858,0,0,18.68858,-7718.23103,-21125.35197)">
<path d="m 432.113 1145.53 7.5534 -7.5534 -0.5038 -6.4844 -6.507 -0.5263 -7.5534 7.5533 0.5264 6.507 6.4843 0.5038 z" fill="#fff" stroke="#000"/>
<path d="m 425.034 1138.59 6.5071 0.5263 0.5036 6.4844" fill="none" stroke="#000"/>
<path d="m 432.629 1131 0.5264 6.507 6.4844 0.5038" fill="none" stroke="#000"/>
<path d="m 431.742 1141.94 4.2199 -4.22 -0.1427 -2.8943 -2.9042 -0.1526 -4.2199 4.22 0.1524 2.9042 2.8945 0.1427 z" fill="#fff" stroke="#000"/>
<path d="m 424.125 1143.38 -10.2188 10.1875 v 3.3125 h 2.875 l 10.4062 -10.4062 -3.0625 -3.0938 z" fill="#fff"/>
<g transform="matrix(.70711,.70711,-.70711,.70711,937.9818,30.14271)">
<path d="m 422.412 1149.65 h 7.2254 c -1.4241 1.7881 -1.3751 3.5764 0 5.3644 h -7.2254 c 1.3893 -1.788 1.4443 -3.5763 0 -5.3644 z" fill="#fff"/>
<path d="m 421.459 1151.14 h 9.1317" fill="none" stroke="#000"/>
<path d="m 421.459 1153.53 h 9.1317" fill="none" stroke="#000"/>
<path d="m 421.459 1155.5 h 9.1317" fill="none" stroke="#000"/>
<path d="m 421.512 1149.16 h 9.1317" fill="none" stroke="#000"/>
</g>
<path d="m 413.5 1155.86 8.4062 -8.4063" fill="none" stroke="#000"/>
</g>
</svg>
