<svg viewBox="0 0 512 512" xmlns="http://www.w3.org/2000/svg">

<g transform="matrix(18.68858,0,0,18.68858,-11120.93181,-21125.35384)">
<path d="m608.6205,1132.9006c0,0-.9518,2.6059-2.3407,5.1129s-1.5233,2.5019-3.215,4.9151c-1.1644,1.6612-2.3689,3.4081-2.3689,5.6214 0,4.3828 3.549,7.9659 7.9247,7.966s7.9247-3.5832 7.9246-7.966c0-2.2062-1.2102-3.9634-2.3689-5.6214-1.7032-2.4368-1.8825-2.4929-3.2714-4.9999s-2.2843-5.0281-2.2843-5.0281z" fill="none" stroke="#fff"/>
<path d="m608.8198,1133.9375-1.9642,9.4173" fill="none" stroke="#fff"/>
<path d="m607.49,1153.2672-2.7498-3.3917 2.0853-6.5839 5.9845,2.9711-.6112,5.631-4.7088,1.3735z" fill-rule="evenodd" stroke="#fff"/>
<path d="m605.0327,1150.0342-4.235-1.7713" fill="none" stroke="#fff"/>
<path d="m607.3827,1153.052-.5589,2.9187" fill="none" stroke="#fff"/>
<path d="m612.2362,1151.916 2.546,1.1855" fill="none" stroke="#fff"/>
<path d="m612.6598,1146.2355 2.2388-1.9693" fill="none" stroke="#fff"/>
<path d="m616.6682,1147.8654c0,.7663-.6213,1.3876-1.3876,1.3876s-1.3876-.6213-1.3876-1.3876 .6213-1.3877 1.3876-1.3877 1.3876.6213 1.3876,1.3877z" fill="#fff" transform="matrix(1,0,0,1.62136,.05389,-712.77868)"/>
<path d="m616.6682,1147.8654c0,.7663-.6213,1.3876-1.3876,1.3876s-1.3876-.6213-1.3876-1.3876 .6213-1.3877 1.3876-1.3877 1.3876.6213 1.3876,1.3877z" fill="#fff" transform="translate(-10.9123,3.5027)"/>
<path d="m616.6682,1147.8654c0,.7663-.6213,1.3876-1.3876,1.3876s-1.3876-.6213-1.3876-1.3876 .6213-1.3877 1.3876-1.3877 1.3876.6213 1.3876,1.3877z" fill="#fff" transform="matrix(1.03398,1.79091,-.89966,.51942,1007.5075,-557.02913)"/>
<path d="m614.3227,1149.3956c0,1.7573-1.4245,3.1818-3.1817,3.1818s-3.1817-1.4245-3.1817-3.1818 1.4245-3.1817 3.1817-3.1817 3.1817,1.4245 3.1817,3.1817z" fill="#fff" transform="matrix(.88024,0,0,.88024,71.9331,136.08989)"/>
<path d="m616.6682,1147.8654c0,.7663-.6213,1.3876-1.3876,1.3876s-1.3876-.6213-1.3876-1.3876 .6213-1.3877 1.3876-1.3877 1.3876.6213 1.3876,1.3877z" fill="#fff" transform="matrix(-.69919,2.2614,.94342,.02121,-47.53678,-270.71477)"/>
<path d="m616.6682,1147.8654c0,.7663-.6213,1.3876-1.3876,1.3876s-1.3876-.6213-1.3876-1.3876 .6213-1.3877 1.3876-1.3877 1.3876.6213 1.3876,1.3877z" fill="#fff" transform="matrix(-1.48738,.44,-.07662,.6934,1613.9847,86.74936)"/>
</g>
</svg>
