<svg viewBox="0 0 512 512" xmlns="http://www.w3.org/2000/svg">

<g transform="matrix(18.68858,0,0,18.68858,-4998.04189,-38100.82993)">
<path d="m1591.1271-536.517h13.0918v13.0918h-13.0918z" fill="#fff" transform="matrix(.26343,.96468,.26343,-.96468,0,0)"/>
<path d="m2473.1619,484.7861h13.0918v13.0918h-13.0918z" fill="#fff" transform="matrix(.2542,.96715,-.71048,-.70372,0,0)"/>
<path d="m3252.0369,1555.225h13.0918v13.0918h-13.0918z" fill="#fff" transform="matrix(-.2542,.96715,.71048,-.70372,0,0)"/>
<path d="m3758.4629,2442.1392h13.0918v13.0918h-13.0918z" fill="#fff" transform="matrix(.70372,.71048,-.96715,-.2542,0,0)"/>
<path d="m4039.812,3228.4917h13.0918v13.0918h-13.0918z" fill="#fff" transform="matrix(-.70372,.71048,.96715,-.2542,0,0)"/>
<path d="m4034.9329,3743.3689h13.0918v13.0918h-13.0918z" fill="#fff" transform="matrix(.96468,.26343,-.96468,.26343,0,0)"/>
<path d="m292.9417,2052.7827c0,5.3018-4.2979,9.5997-9.5997,9.5997s-9.5997-4.2979-9.5997-9.5997 4.2979-9.5996 9.5997-9.5996 9.5997,4.2979 9.5997,9.5996z" stroke="#fff" stroke-width="1.1403" transform="matrix(.62012,.62012,-.62012,.62012,1378.5335,603.81111)"/>
<path d="m277.875,2043.6133c-1.2136,2.1034-1.9688,5.3076-1.9688,8.905 0,3.5852.7622,6.7714 1.9688,8.8752h6.7812c1.2065-2.1038 1.9688-5.29 1.9688-8.8752 0-3.5974-.7551-6.8016-1.9688-8.905h-6.7812z"/>
<g transform="matrix(1.19366,0,0,1,-54.47076,.05389)">
<path d="m285.6806,2056.0904v-7.1966l-4.4009-2.849-4.4294,2.849v7.1966l4.4294,2.849 4.4009-2.849z" fill="#fff"/>
<path d="m276.8503,2056.1548 4.4294-2.8491 4.4009,2.8491" fill="none" stroke="#000" stroke-width=".9153"/>
<path d="m276.6833,2048.8108 4.5969,2.9568 4.5673-2.9568" fill="none" stroke="#000" stroke-width=".9153"/>
<path d="m283.1843,2054.5549v-4.0206l-1.9126-1.3108-1.925,1.3108v4.0206l1.925,1.311 1.9126-1.311z" fill="#fff" stroke="#000" stroke-width=".9153"/>
<path d="m281.2654,2055.7783v3.3401" fill="none" stroke="#000" stroke-width=".9153"/>
<path d="m281.2654,2045.758v3.3401" fill="none" stroke="#000" stroke-width=".9153"/>
</g>
<path d="m282.1859,2061.5349c0,.4909-.398.8889-.8889.8889s-.8889-.398-.8889-.8889 .398-.8889.8889-.8889 .8889.398.8889.8889z" fill="#fff" transform="matrix(1.15909,0,0,1.15909,-44.78546,-328.25429)"/>
<path d="m282.1859,2061.5349c0,.4909-.398.8889-.8889.8889s-.8889-.398-.8889-.8889 .398-.8889.8889-.8889 .8889.398.8889.8889z" fill="#fff" transform="matrix(1.15909,0,0,1.15909,-44.78546,-345.77746)"/>
<path d="m282.1859,2061.5349c0,.4909-.398.8889-.8889.8889s-.8889-.398-.8889-.8889 .398-.8889.8889-.8889 .8889.398.8889.8889z" fill="#fff" transform="matrix(1.15909,0,0,1.15909,-49.16625,-329.4352)"/>
<path d="m282.1859,2061.5349c0,.4909-.398.8889-.8889.8889s-.8889-.398-.8889-.8889 .398-.8889.8889-.8889 .8889.398.8889.8889z" fill="#fff" transform="matrix(1.15909,0,0,1.15909,-40.44276,-344.59655)"/>
<path d="m282.1859,2061.5349c0,.4909-.398.8889-.8889.8889s-.8889-.398-.8889-.8889 .398-.8889.8889-.8889 .8889.398.8889.8889z" fill="#fff" transform="matrix(-1.15909,0,0,1.15909,611.65475,-329.4352)"/>
<path d="m282.1859,2061.5349c0,.4909-.398.8889-.8889.8889s-.8889-.398-.8889-.8889 .398-.8889.8889-.8889 .8889.398.8889.8889z" fill="#fff" transform="matrix(-1.15909,0,0,1.15909,602.93126,-344.59655)"/>
</g>
</svg>
