<svg viewBox="0 0 512 512" xmlns="http://www.w3.org/2000/svg">

<g transform="matrix(18.68858,0,0,18.68858,-4312.73257,-22488.39234)">
<path d="m231.8095,1211.041c8.4779-2.6846 16.9558-2.0297 25.4337,7.7159-9.4552,6.6248-23.845,6.1142-25.4337-7.7159z" fill="#fff" fill-rule="evenodd"/>
<g transform="matrix(1.04926,0,0,-1.04926,28.0772,2494.0059)">
<path d="m215.3313,1214.5784c0,3.9224-3.1797,7.1021-7.1021,7.1021s-7.1022-3.1797-7.1022-7.1021 3.1797-7.1022 7.1022-7.1022 7.1021,3.1798 7.1021,7.1022z" fill="#fff" stroke="#000" stroke-width=".9742" transform="matrix(.97817,0,0,.97833,2.2751,29.39785)"/>
<path d="m209.6458,1218.6773-6.4824,1.0267-2.9796-5.8479 4.6409-4.6409 5.8479,2.9797z" fill="none" stroke="#000" stroke-width="1.3952" transform="matrix(.68324,0,0,.68298,65.87651,386.99381)"/>
<path d="m202.7735,1216.0722-3.6831-.7259" fill="none" stroke="#000" stroke-width=".953"/>
<path d="m209.7948,1215.0115 2.1235-1.0973" fill="none" stroke="#000" stroke-width=".953"/>
<path d="m204.8643,1219.753-1.9063,4.2004" fill="none" stroke="#000" stroke-width=".953"/>
<path d="m209.0459,1219.2227 2.716,2.6651" fill="none" stroke="#000" stroke-width=".953"/>
<path d="m205.8628,1213.1399 .0593-2.5692" fill="none" stroke="#000" stroke-width=".953"/>
</g>
<path d="m233.9465,1206.883v3.5566c6.5303-1.6038 13.0468-.922 19.5771,4.6392v-8.1958h-19.5771zm0,10.5773v8.938h19.5771v-5.536c-7.1661,3.2805-15.6063,2.8326-19.5771-3.402z"/>
</g>
</svg>
