<svg viewBox="0 0 512 512" xmlns="http://www.w3.org/2000/svg">

<g transform="matrix(18.68858,0,0,18.68858,-11886.16076,-26432.78923)">
<path d="m647,1433.1122c0,1.7604-1.4271,3.1875-3.1875,3.1875s-3.1875-1.4271-3.1875-3.1875 1.4271-3.1875 3.1875-3.1875 3.1875,1.4271 3.1875,3.1875z" fill="#fff" transform="matrix(1.18024,0,0,1.18024,-115.99844,-258.3083)"/>
<path d="m641,1423.7188-1.4062.8124 .0312,1.7188 4.5,2.5938v5.0624l1.3125.8126 1.5625-.8126v-4.9687l4.5312-2.5937-.125-1.8126-1.25-.7187-4.5,2.5937-4.6562-2.6874z" transform="translate(-1.6875,5.1875)"/>
<path d="m649.7907,1429.9335-5.8531,3.3793-5.8531-3.3793" fill="none" stroke="#fff"/>
<path d="m643.875,1433.2372v6.8164" fill="none" stroke="#fff"/>
<path d="m644.5902,1433.9937-5.9652,3.444-5.9652-3.444v-6.888l5.9652-3.4441 5.9652,3.4441z" fill="none" stroke="#fff" transform="translate(5.1875,2.5625)"/>
</g>
<g transform="matrix(18.68858,0,0,18.68858,-11663.06583,-26432.78923)">
<path d="m647,1433.1122c0,1.7604-1.4271,3.1875-3.1875,3.1875s-3.1875-1.4271-3.1875-3.1875 1.4271-3.1875 3.1875-3.1875 3.1875,1.4271 3.1875,3.1875z" fill="#fff" transform="matrix(1.18024,0,0,1.18024,-115.99844,-258.3083)"/>
<path d="m641,1423.7188-1.4062.8124 .0312,1.7188 4.5,2.5938v5.0624l1.3125.8126 1.5625-.8126v-4.9687l4.5312-2.5937-.125-1.8126-1.25-.7187-4.5,2.5937-4.6562-2.6874z" transform="translate(-1.6875,5.1875)"/>
<path d="m649.7907,1429.9335-5.8531,3.3793-5.8531-3.3793" fill="none" stroke="#fff"/>
<path d="m643.875,1433.2372v6.8164" fill="none" stroke="#fff"/>
<path d="m644.5902,1433.9937-5.9652,3.444-5.9652-3.444v-6.888l5.9652-3.4441 5.9652,3.4441z" fill="none" stroke="#fff" transform="translate(5.1875,2.5625)"/>
</g>
<g transform="matrix(18.68858,0,0,18.68858,-11772.27816,-26616.17092)">
<path d="m651.4692,1437.5484-7.6567,4.4205-7.6567-4.4205v-8.8411l7.6567-4.4207 7.6567,4.4207z"/>
<path d="m647,1433.1122c0,1.7604-1.4271,3.1875-3.1875,3.1875s-3.1875-1.4271-3.1875-3.1875 1.4271-3.1875 3.1875-3.1875 3.1875,1.4271 3.1875,3.1875z" fill="#fff" transform="matrix(1.18024,0,0,1.18024,-115.99844,-258.3083)"/>
<path d="m641,1423.7188-1.4062.8124 .0312,1.7188 4.5,2.5938v5.0624l1.3125.8126 1.5625-.8126v-4.9687l4.5312-2.5937-.125-1.8126-1.25-.7187-4.5,2.5937-4.6562-2.6874z" transform="translate(-1.6875,5.1875)"/>
<path d="m649.7907,1429.9335-5.8531,3.3793-5.8531-3.3793" fill="none" stroke="#fff"/>
<path d="m643.875,1433.2372v6.8164" fill="none" stroke="#fff"/>
<path d="m644.5902,1433.9937-5.9652,3.444-5.9652-3.444v-6.888l5.9652-3.4441 5.9652,3.4441z" fill="none" stroke="#fff" transform="translate(5.1875,2.5625)"/>
</g>
</svg>
