<svg viewBox="0 0 512 512" xmlns="http://www.w3.org/2000/svg">

<g transform="matrix(18.68858,0,0,18.68858,-11886.16076,-26432.78923)">
<path d="m 647 1433.11 c 0 1.7604 -1.4271 3.1875 -3.1875 3.1875 s -3.1875 -1.4271 -3.1875 -3.1875 1.4271 -3.1875 3.1875 -3.1875 3.1875 1.4271 3.1875 3.1875 z" fill="#fff" transform="matrix(1.18024,0,0,1.18024,-115.99844,-258.3083)"/>
<path d="m 641 1423.72 -1.4062 0.8124 0.0312 1.7188 4.5 2.5938 v 5.0624 l 1.3125 0.8126 1.5625 -0.8126 v -4.9687 l 4.5312 -2.5937 -0.125 -1.8126 -1.25 -0.7187 -4.5 2.5937 -4.6562 -2.6874 z" transform="translate(-1.6875,5.1875)"/>
<path d="m 649.791 1429.93 -5.8531 3.3793 -5.8531 -3.3793" fill="none" stroke="#fff"/>
<path d="m 643.875 1433.24 v 6.8164" fill="none" stroke="#fff"/>
<path d="m 644.59 1433.99 -5.9652 3.444 -5.9652 -3.444 v -6.888 l 5.9652 -3.4441 5.9652 3.4441 z" fill="none" stroke="#fff" transform="translate(5.1875,2.5625)"/>
</g>
<g transform="matrix(18.68858,0,0,18.68858,-11663.06583,-26432.78923)">
<path d="m 647 1433.11 c 0 1.7604 -1.4271 3.1875 -3.1875 3.1875 s -3.1875 -1.4271 -3.1875 -3.1875 1.4271 -3.1875 3.1875 -3.1875 3.1875 1.4271 3.1875 3.1875 z" fill="#fff" transform="matrix(1.18024,0,0,1.18024,-115.99844,-258.3083)"/>
<path d="m 641 1423.72 -1.4062 0.8124 0.0312 1.7188 4.5 2.5938 v 5.0624 l 1.3125 0.8126 1.5625 -0.8126 v -4.9687 l 4.5312 -2.5937 -0.125 -1.8126 -1.25 -0.7187 -4.5 2.5937 -4.6562 -2.6874 z" transform="translate(-1.6875,5.1875)"/>
<path d="m 649.791 1429.93 -5.8531 3.3793 -5.8531 -3.3793" fill="none" stroke="#fff"/>
<path d="m 643.875 1433.24 v 6.8164" fill="none" stroke="#fff"/>
<path d="m 644.59 1433.99 -5.9652 3.444 -5.9652 -3.444 v -6.888 l 5.9652 -3.4441 5.9652 3.4441 z" fill="none" stroke="#fff" transform="translate(5.1875,2.5625)"/>
</g>
<g transform="matrix(18.68858,0,0,18.68858,-11772.27816,-26616.17092)">
<path d="m 651.469 1437.55 -7.6567 4.4205 -7.6567 -4.4205 v -8.8411 l 7.6567 -4.4207 7.6567 4.4207 z"/>
<path d="m 647 1433.11 c 0 1.7604 -1.4271 3.1875 -3.1875 3.1875 s -3.1875 -1.4271 -3.1875 -3.1875 1.4271 -3.1875 3.1875 -3.1875 3.1875 1.4271 3.1875 3.1875 z" fill="#fff" transform="matrix(1.18024,0,0,1.18024,-115.99844,-258.3083)"/>
<path d="m 641 1423.72 -1.4062 0.8124 0.0312 1.7188 4.5 2.5938 v 5.0624 l 1.3125 0.8126 1.5625 -0.8126 v -4.9687 l 4.5312 -2.5937 -0.125 -1.8126 -1.25 -0.7187 -4.5 2.5937 -4.6562 -2.6874 z" transform="translate(-1.6875,5.1875)"/>
<path d="m 649.791 1429.93 -5.8531 3.3793 -5.8531 -3.3793" fill="none" stroke="#fff"/>
<path d="m 643.875 1433.24 v 6.8164" fill="none" stroke="#fff"/>
<path d="m 644.59 1433.99 -5.9652 3.444 -5.9652 -3.444 v -6.888 l 5.9652 -3.4441 5.9652 3.4441 z" fill="none" stroke="#fff" transform="translate(5.1875,2.5625)"/>
</g>
</svg>
