<svg viewBox="0 0 512 512" xmlns="http://www.w3.org/2000/svg">

<g transform="matrix(18.68858,0,0,18.68858,-4999.88346,-43547.65376)">
<path d="m271.4612,2338.7345-.88-4.4173 2.7199-3.4739 4.9794,1.1783 .9098,4.5173" fill="#fff" stroke="#000"/>
<path d="m293.9057,2333.4678-5.579-2.1407c-2.1323,1.7136-3.5282,3.7218-4.6496,5.8397l9.0929,3.489c.7883-2.396 1.1602-4.792 1.1357-7.188z" fill="#fff"/>
<path d="m289.8719,2343.9504-5.579-2.1407-.6705-4.5009 9.093,3.4891z" fill="#fff"/>
<path d="m293.1883,2340.9223c-3.3988-.5903-6.7105-1.7895-9.9062-3.8013" fill="none" stroke="#000"/>
<path d="m271.6491,2338.6899 4.7112.6981 2.6201-2.8838-4.5683-1.0865z" fill="#fff" stroke="#000"/>
<path d="m274.4415,2335.42-.9611-4.1258" fill="none" stroke="#000"/>
<g transform="matrix(1.24372,0,0,1.24372,-19.56981,-67.30691)">
<path d="m233.4487,1936.1814c-.9718,2.3253-1.8077,4.7049-1.9713,7.3534 1.191,2.6492 3.5317,4.4213 5.414,5.7386 2.5198-.3284 5.0396-.9589 7.5594-2.2641 1.2518-2.6232 1.4166-4.8084 2.0164-7.5217" fill="#fff" stroke="#000" stroke-width=".804"/>
<path d="m-1296.5498,2150.5564c2.7942-.4044 5.2184-.2922 7.5137,0 .3729,2.4098.6516,4.8433 0,7.512h-7.5137c.4168-2.5788.3652-5.0735 0-7.512z" fill="#fff" stroke="#000" stroke-width=".8505" transform="matrix(.95796,-.28691,.68624,.72737,0,0)"/>
<path d="m236.8162,1949.5561 2.0711-7.7258" fill="none" stroke="#000" stroke-width=".804"/>
</g>
</g>
</svg>
