<svg viewBox="0 0 512 512" xmlns="http://www.w3.org/2000/svg">

<g transform="matrix(18.68858,0,0,18.68858,-13164.15564,-34035.12146)">
<path d="m 724.811 1834.76 c 3.7867 2.2389 5.3964 -3.0706 0.1947 -4.7594 -2.4789 -0.8048 -0.9343 -2.8412 1.0287 -3.1032" fill="none" stroke="#fff"/>
<path d="m 712.756 1844.1 c 4.1989 0.6726 5.0686 -4.6349 1.0642 -5.6974" fill="none" stroke="#fff"/>
<path d="m 715.942 1828.35 c 0.7934 2.478 3.4252 1.2924 2.8592 -1.202" fill="none" stroke="#fff"/>
<path d="m 725.673 1842.09 c -1.3811 2.1332 -4.8501 3.5048 -4.0251 -0.3487 -2.2619 4.3059 1.2821 4.5835 3.8104 1.7978 -2.2225 3.7357 0.4951 5.3733 2.5761 3.1664 -2.0756 0.922 -2.7719 -1.1776 -1.61 -3.8909" fill="#fff"/>
<path d="m 724.644 1830.4 c -2.2338 -0.6419 -2.4835 1.7724 -0.6362 2.0679 -2.2464 0.047 -2.9055 -1.373 -2.3914 -2.3743 0.459 -0.894 1.877 -1.2668 3.3832 -0.5918" fill="#fff"/>
<path d="m 719.296 1827.08 c -0.355 -2.3943 2.1716 -2.3194 2.2219 -0.3724 0.3583 -2.3122 -0.9755 -2.7609 -2.0798 -2.3682 -0.9858 0.3511 -1.5829 1.2946 -1.0907 3.0386" fill="#fff"/>
<path d="m 712.925 1843.61 c -2.4592 -0.5455 -1.4469 -2.9734 0.4644 -2.2983 -2.1142 -1.2082 -3.0463 -0.079 -3.0753 1.1409 -0.0254 1.0887 0.6325 1.9565 2.4838 2.1965" fill="#fff"/>
<path d="m 714.13 1832.02 c -1.2972 2.0366 1.0348 2.9962 1.8725 1.2431 -0.614 2.252 -2.0114 2.1183 -2.8578 1.3111 -0.7552 -0.7207 -0.8975 -1.7548 0.1948 -3.1723" fill="#fff"/>
<path d="m 716.479 1843.01 c -0.7095 2.2509 1.735 2.5671 2.0823 0.6999 -0.01 2.2816 -1.3631 2.5088 -2.3665 1.9608 -0.8953 -0.4892 -1.2913 -1.4296 -0.6186 -3.0443" fill="#fff"/>
<path d="m 711.574 1844.26 c 2.4293 1.265 -0.2118 3.5162 -1.6443 1.8412 1.3339 2.2873 2.8256 1.7305 3.516 0.5974 0.6159 -1.0111 0.5347 -2.5043 -1.3422 -3.2773" fill="#fff"/>
<path d="m 720.461 1836 c -2.8444 2.5473 1.5577 5.1011 3.0143 2.6156" fill="none" stroke="#fff"/>
<path d="m 723.813 1839.01 c 1.1108 -1.6019 -0.3501 -3.7327 -2.0651 -1.7196 1.5375 -0.7071 1.9888 -0.018 1.1528 1.3396" fill="#fff"/>
<path d="m 711.979 1834.04 c -1.7241 3.4067 -5.3304 -0.1846 -3.3065 -2.2345" fill="none" stroke="#fff"/>
<path d="m 708.205 1831.6 c 1.1159 -1.5538 3.5049 -0.8002 2.2076 1.4468 0.1483 -1.6539 -0.637 -1.8444 -1.6173 -0.6253" fill="#fff"/>
<path d="m 727.817 1833.54 c 0.197 -1.9763 2.947 -2.5388 2.9472 0.155 -0.7252 -1.5642 -1.7957 -1.3275 -2.0442 0.2773" fill="#fff"/>
<path d="m 709.564 1835.87 c -2.5625 -0.8076 -2.2921 2.586 -0.1366 2.4176 -2.5119 0.6614 -3.1603 -0.7594 -2.8533 -2.0245 0.2742 -1.1284 1.3662 -2.108 3.2043 -1.3422" fill="#fff"/>
<path d="m 708.094 1826.11 c -2.5558 -0.099 -2.9823 -2.6495 -0.4044 -3.1267 5.5241 -1.0225 10.6556 5.1897 7.0335 7.8889 -7.4655 5.5633 0.1011 11.7912 6.6217 4.1897 2.29 -2.6696 7.8545 1.4196 4.5918 7.6278" fill="none" stroke="#fff"/>
<path d="m 707.964 1826.59 c 2.3574 0.2715 1.6453 2.6449 -0.2112 2.1985 2.0988 0.926 2.8621 -0.223 2.7703 -1.3685 -0.0822 -1.0227 -0.7832 -1.7714 -2.5413 -1.816" fill="#fff"/>
<path d="m 727.006 1841.51 c 1.1152 -2.1416 3.1122 -0.6019 2.0128 1 1.6433 -1.6575 0.8288 -2.8011 -0.2935 -3.1304 -1.0018 -0.2933 -1.9685 0.1001 -2.6499 1.755" fill="#fff"/>
<path d="m 714.227 1825.83 c -2.0368 -1.2972 -2.9964 1.0348 -1.2431 1.8723 -2.2521 -0.6138 -2.1186 -2.0112 -1.3112 -2.8578 0.7207 -0.7548 1.7547 -0.8975 3.1721 0.195" fill="#fff"/>
<path d="m 721.672 1834.13 c -2.0368 1.2972 -2.9964 -1.0349 -1.2431 -1.8724 -2.252 0.6137 -2.1186 2.0112 -1.3112 2.8578 0.7207 0.7548 1.7546 0.8974 3.1723 -0.1949" fill="#fff"/>
<path d="m 725.538 1826.48 c 2.4181 -0.7818 4.6408 -3.7777 0.705 -3.9782 4.7447 -1.0704 4.0956 2.4246 0.7503 4.1458 4.1836 -1.1799 5.0622 1.8689 2.3918 3.3079 1.4278 -1.7663 -0.4201 -2.9822 -3.3414 -2.5622" fill="#fff"/>
<path d="m 712.475 1833.2 c -2.1446 5.112 3.9169 6.1694 8.117 2.652 2.8195 -2.3613 6.8254 0.2288 6.2954 4.2327" fill="none" stroke="#fff"/>
<path d="m 724.249 1829.64 c -2.7721 0.2914 -0.9294 -2.2907 2.3172 -3.0272" fill="none" stroke="#fff"/>
</g>
</svg>
