<svg viewBox="0 0 512 512" xmlns="http://www.w3.org/2000/svg">

<g transform="matrix(18.68858,0,0,18.68858,-4313.49645,-34037.10993)">
<path d="m232.3281,1822.4404c6.6651,7.8475 19.7597,8.8713 20.2907,16.7295 .1071,1.5854 1.2493,3.3284 3.1912,4.2212-4.8301-.9912-6.9416,7.1143-12.4085,1.8525 3.4809.2636 6.0851-2.546 8.6061-3.1883-4.9983-.037-10.1576,4.1504-14.1348-2.1185 4.5038,1.6134 9.2675-.4267 12.8798-.074-6.0657-2.0455-14.3255.4321-16.6412-7.0932 4.9641,3.2198 11.8214,2.8222 16.0053,4.634-6.4653-5.0118-17.4428-4.9636-17.7886-14.963z" fill="#fff"/>
<path d="m256.5108,1843.4408c0,1.1736-.9514,2.125-2.125,2.125s-2.125-.9514-2.125-2.125 .9514-2.125 2.125-2.125 2.125.9514 2.125,2.125z" fill="#fff" transform="matrix(1.05461,.04698,-.04698,1.05461,72.94769,-110.77712)"/>
<path d="m256.5108,1843.4408c0,1.1736-.9514,2.125-2.125,2.125s-2.125-.9514-2.125-2.125 .9514-2.125 2.125-2.125 2.125.9514 2.125,2.125z" transform="matrix(.70637,-.15595,.15595,.70637,-213.56804,582.73695)"/>
<path d="m256.5108,1843.4408c0,1.1736-.9514,2.125-2.125,2.125s-2.125-.9514-2.125-2.125 .9514-2.125 2.125-2.125 2.125.9514 2.125,2.125z" fill="#fff" transform="matrix(.55423,-.12236,.12236,.55423,-112.71962,855.40616)"/>
<path d="m256.5108,1843.4408c0,1.1736-.9514,2.125-2.125,2.125s-2.125-.9514-2.125-2.125 .9514-2.125 2.125-2.125 2.125.9514 2.125,2.125z" fill="#fff" transform="matrix(.77894,.7125,.7125,-.77894,-1256.6441,3094.7848)"/>
<path d="m256.5108,1843.4408c0,1.1736-.9514,2.125-2.125,2.125s-2.125-.9514-2.125-2.125 .9514-2.125 2.125-2.125 2.125.9514 2.125,2.125z" transform="matrix(.38921,.60975,.60975,-.38921,-968.85287,2401.7991)"/>
<path d="m256.5108,1843.4408c0,1.1736-.9514,2.125-2.125,2.125s-2.125-.9514-2.125-2.125 .9514-2.125 2.125-2.125 2.125.9514 2.125,2.125z" fill="#fff" transform="matrix(.26153,.40972,.40972,-.26153,-567.14417,2216.8058)"/>
</g>
</svg>
