<svg viewBox="0 0 512 512" xmlns="http://www.w3.org/2000/svg">

<g transform="matrix(18.68858,0,0,18.68858,-227.91309,-35398.75239)">
<path d="m 29.0058 1895.19 c 3.8472 0.046 6.6928 1.8866 8.0938 6.1563 2.2806 6.95 -8.6394 12.3829 -10.6874 5.9688 -0.8692 -2.7221 1.7778 -3.6938 3.3125 -2.3751 -1.3002 -0.1032 -2.5001 0.9312 -1.8437 2 0.6339 1.0319 1.5755 0.9235 2.4685 0.5943 2.185 -0.8057 3.3087 -3.4373 2.7188 -5.1563 -0.6651 -1.9392 -4.9207 -2.946 -7.5937 -1.2501 -8.5287 5.4117 -1.752 16.6397 5.8751 19.1874 l -13.2189 0.0001 c -3.4075 -6.1336 -4.9796 -11.9487 -1.8749 -17.9999 2.1885 -4.2657 7.8036 -7.1843 12.7499 -7.125 z" fill="#fff"/>
<path d="m 23.6427 1903.94 c 1.832 -0.048 1.832 -2.8914 -6.2e-05 -2.8421 s -1.8319 2.8916 6.2e-05 2.8421 z" fill="#fff"/>
<path d="m 21.8969 1908 c 1.9583 -0.051 1.9584 -3.091 -3.6e-05 -3.038 s -1.9581 3.0911 3.6e-05 3.038 z" fill="#fff"/>
<path d="m 22.4384 1912.71 c 1.9582 -0.051 1.9582 -3.0911 -3.5e-05 -3.0381 s -1.9583 3.091 3.5e-05 3.0381 z" fill="#fff"/>
<path d="m 24.7659 1916.94 c 1.9584 -0.051 1.9582 -3.0912 -3e-06 -3.0383 s -1.9582 3.0911 3e-06 3.0383 z" fill="#fff"/>
<path d="m 28.4469 1920.32 c 1.9582 -0.051 1.9583 -3.091 -8.9e-05 -3.0381 s -1.9581 3.091 8.9e-05 3.0381 z" fill="#fff"/>
<path d="m 27.083 1902.05 c 1.8317 -0.048 1.832 -2.8916 -0.0001 -2.8421 s -1.8319 2.8915 0.0001 2.8421 z" fill="#fff"/>
<path d="m 31.1563 1901.97 c 1.5613 -0.041 1.5614 -2.4644 4.9e-05 -2.4222 s -1.5614 2.4644 -4.9e-05 2.4222 z" fill="#fff"/>
<path d="m 33.1822 1904.79 c 1.317 -0.035 1.3172 -2.079 -8.3e-05 -2.0434 s -1.3173 2.0791 8.3e-05 2.0434 z" fill="#fff"/>
<path d="m 31.38 1907.43 c 1.0284 -0.027 1.0285 -1.6234 3.6e-05 -1.5956 s -1.0286 1.6234 -3.6e-05 1.5956 z" fill="#fff"/>
<path d="m 29.1403 1908.16 c 0.7669 -0.02 0.767 -1.2106 -2e-05 -1.19 s -0.7671 1.2105 2e-05 1.19 z" fill="#fff"/>
<path d="m 27.7831 1907.07 c 0.7668 -0.02 0.767 -1.2105 0.0001 -1.1898 s -0.767 1.2107 -0.0001 1.1898 z" fill="#fff"/>
<path d="m 25.7292 1919.67 c 1.9583 -0.051 1.9584 -3.0911 -0.0001 -3.0382 s -1.9581 3.0911 0.0001 3.0382 z"/>
<path d="m 22.5908 1915.17 c 1.6264 -0.042 1.6263 -2.5676 -0.0002 -2.5236 s -1.6265 2.5674 0.0002 2.5236 z"/>
<path d="m 20.9265 1910.21 c 1.5499 -0.04 1.5499 -2.4468 -3.8e-05 -2.4049 s -1.5502 2.4466 3.8e-05 2.4049 z"/>
<path d="m 21.6939 1904.96 c 1.2692 -0.033 1.2697 -2.0032 -9.5e-05 -1.9692 s -1.2689 2.0038 9.5e-05 1.9692 z"/>
<path d="m 24.5058 1901.13 c 1.2693 -0.033 1.2689 -2.0039 -0.0001 -1.9694 s -1.2688 2.0039 0.0001 1.9694 z"/>
<path d="m 29.3033 1900.07 c 1.2693 -0.033 1.2689 -2.004 9.8e-05 -1.9694 s -1.2698 2.0033 -9.8e-05 1.9694 z"/>
<path d="m 33.5144 1902.4 c 1.2693 -0.033 1.2688 -2.0039 9.3e-05 -1.9694 s -1.2698 2.0035 -9.3e-05 1.9694 z"/>
<path d="m 33.4131 1906.87 c 1.2694 -0.033 1.2699 -2.0033 0.0001 -1.9691 s -1.269 2.0038 -0.0001 1.9691 z"/>
<path d="m 30.6451 1909.15 c 1.0284 -0.027 1.0285 -1.6233 0.0001 -1.5955 s -1.0286 1.6233 -0.0001 1.5955 z"/>
<path d="m 28.9502 1905.51 c 1.0878 -0.014 1.0875 -0.848 2.8e-05 -0.8335 s -1.0875 0.848 -2.8e-05 0.8335 z" fill="#fff"/>
<path d="m 27.9366 1919.14 c -6.9343 -5.0772 -8.8924 -16.3948 -1.7989 -18.8701 5.6817 -1.9827 9.8739 2.761 5.5789 6.7853 -3.0648 2.6726 -5.8816 0.1317 -3.5121 -2.3453" fill="none" stroke="#fff"/>
</g>
</svg>
