<svg viewBox="0 0 512 512" xmlns="http://www.w3.org/2000/svg">

<g transform="matrix(18.68858,0,0,18.68858,-227.91309,-35398.75239)">
<path d="m29.0058,1895.1921c3.8472.046 6.6928,1.8866 8.0938,6.1563 2.2806,6.95-8.6394,12.3829-10.6874,5.9688-.8692-2.7221 1.7778-3.6938 3.3125-2.3751-1.3002-.1032-2.5001.9312-1.8437,2 .6339,1.0319 1.5755.9235 2.4685.5943 2.185-.8057 3.3087-3.4373 2.7188-5.1563-.6651-1.9392-4.9207-2.946-7.5937-1.2501-8.5287,5.4117-1.752,16.6397 5.8751,19.1874l-13.2189.0001c-3.4075-6.1336-4.9796-11.9487-1.8749-17.9999 2.1885-4.2657 7.8036-7.1843 12.7499-7.125z" fill="#fff"/>
<path d="m23.6427,1903.9365c1.832-.048 1.832-2.8914-6.2e-05-2.8421s-1.8319,2.8916 6.2e-05,2.8421z" fill="#fff"/>
<path d="m21.8969,1908.0038c1.9583-.051 1.9584-3.091-3.6e-05-3.038s-1.9581,3.0911 3.6e-05,3.038z" fill="#fff"/>
<path d="m22.4384,1912.7133c1.9582-.051 1.9582-3.0911-3.5e-05-3.0381s-1.9583,3.091 3.5e-05,3.0381z" fill="#fff"/>
<path d="m24.7659,1916.9356c1.9584-.051 1.9582-3.0912-3e-06-3.0383s-1.9582,3.0911 3e-06,3.0383z" fill="#fff"/>
<path d="m28.4469,1920.3186c1.9582-.051 1.9583-3.091-8.9e-05-3.0381s-1.9581,3.091 8.9e-05,3.0381z" fill="#fff"/>
<path d="m27.083,1902.0505c1.8317-.048 1.832-2.8916-.0001-2.8421s-1.8319,2.8915.0001,2.8421z" fill="#fff"/>
<path d="m31.1563,1901.9666c1.5613-.041 1.5614-2.4644 4.9e-05-2.4222s-1.5614,2.4644-4.9e-05,2.4222z" fill="#fff"/>
<path d="m33.1822,1904.7923c1.317-.035 1.3172-2.079-8.3e-05-2.0434s-1.3173,2.0791 8.3e-05,2.0434z" fill="#fff"/>
<path d="m31.38,1907.4303c1.0284-.027 1.0285-1.6234 3.6e-05-1.5956s-1.0286,1.6234-3.6e-05,1.5956z" fill="#fff"/>
<path d="m29.1403,1908.1619c.7669-.02.767-1.2106-2e-05-1.19s-.7671,1.2105 2e-05,1.19z" fill="#fff"/>
<path d="m27.7831,1907.0743c.7668-.02.767-1.2105.0001-1.1898s-.767,1.2107-.0001,1.1898z" fill="#fff"/>
<path d="m25.7292,1919.668c1.9583-.051 1.9584-3.0911-.0001-3.0382s-1.9581,3.0911.0001,3.0382z"/>
<path d="m22.5908,1915.1725c1.6264-.042 1.6263-2.5676-.0002-2.5236s-1.6265,2.5674.0002,2.5236z"/>
<path d="m20.9265,1910.215c1.5499-.04 1.5499-2.4468-3.8e-05-2.4049s-1.5502,2.4466 3.8e-05,2.4049z"/>
<path d="m21.6939,1904.9597c1.2692-.033 1.2697-2.0032-9.5e-05-1.9692s-1.2689,2.0038 9.5e-05,1.9692z"/>
<path d="m24.5058,1901.1259c1.2693-.033 1.2689-2.0039-.0001-1.9694s-1.2688,2.0039.0001,1.9694z"/>
<path d="m29.3033,1900.073c1.2693-.033 1.2689-2.004 9.8e-05-1.9694s-1.2698,2.0033-9.8e-05,1.9694z"/>
<path d="m33.5144,1902.396c1.2693-.033 1.2688-2.0039 9.3e-05-1.9694s-1.2698,2.0035-9.3e-05,1.9694z"/>
<path d="m33.4131,1906.8716c1.2694-.033 1.2699-2.0033.0001-1.9691s-1.269,2.0038-.0001,1.9691z"/>
<path d="m30.6451,1909.1455c1.0284-.027 1.0285-1.6233.0001-1.5955s-1.0286,1.6233-.0001,1.5955z"/>
<path d="m28.9502,1905.5132c1.0878-.014 1.0875-.848 2.8e-05-.8335s-1.0875.848-2.8e-05,.8335z" fill="#fff"/>
<path d="m27.9366,1919.1431c-6.9343-5.0772-8.8924-16.3948-1.7989-18.8701 5.6817-1.9827 9.8739,2.761 5.5789,6.7853-3.0648,2.6726-5.8816.1317-3.5121-2.3453" fill="none" stroke="#fff"/>
</g>
</svg>
