<svg viewBox="0 0 512 512" xmlns="http://www.w3.org/2000/svg">

<g transform="matrix(18.68858,0,0,18.68858,-12489.15249,-40834.96713)">
<path d="m679.3734,2193.3471c-1.6771-3.0325-3.801-5.6967-7.2971-7.3019-1.1517-.5288-2.0257.3469-2.4874,1.3756-1.8629,4.1499 4.8997-.3126 8.1292,7.4213" fill="#fff"/>
<path d="m679.1434,2193.6861c-.2456,1.7529-2.6481,3.5305-4.8143,3.5993 4.1605,9.9199 13.7452,17.079 20.4545,12.7701-8.8189-3.0177-10.3564-11.3034-13.9849-17.8644" fill="#fff"/>
<path d="m677.8492,2196.2426c.5655-2.7508 2.688-4.192 5.22-5.289" fill="none" stroke="#fff"/>
<path d="m676.8671,2195.6311c.9099-2.2153 2.0802-3.3621 3.3716-4.4187" fill="none" stroke="#000"/>
<path d="m674.2453,2192.256c1.4523-1.9042 2.8795-2.7092 4.4004-3.3955" fill="none" stroke="#000"/>
<path d="m672.2823,2190.859c.7477-2.3477 1.3982-3.77 2.1131-5.1409" fill="none" stroke="#000"/>
<path d="m676.7069,2195.4021c1.8419,6.649 7.6154,12.2788 14.1511,14.0545" fill="none" stroke="#000"/>
<path d="m681.9989,2201.2738c1.2987,3.7845 5.3347,6.8039 9.8169,8.5799" fill="none" stroke="#fff"/>
</g>
</svg>
