<svg viewBox="0 0 512 512" xmlns="http://www.w3.org/2000/svg">

<g transform="matrix(18.68858,0,0,18.68858,-12489.15249,-40834.96713)">
<path d="m 679.373 2193.35 c -1.6771 -3.0325 -3.801 -5.6967 -7.2971 -7.3019 -1.1517 -0.5288 -2.0257 0.3469 -2.4874 1.3756 -1.8629 4.1499 4.8997 -0.3126 8.1292 7.4213" fill="#fff"/>
<path d="m 679.143 2193.69 c -0.2456 1.7529 -2.6481 3.5305 -4.8143 3.5993 4.1605 9.9199 13.7452 17.079 20.4545 12.7701 -8.8189 -3.0177 -10.3564 -11.3034 -13.9849 -17.8644" fill="#fff"/>
<path d="m 677.849 2196.24 c 0.5655 -2.7508 2.688 -4.192 5.22 -5.289" fill="none" stroke="#fff"/>
<path d="m 676.867 2195.63 c 0.9099 -2.2153 2.0802 -3.3621 3.3716 -4.4187" fill="none" stroke="#000"/>
<path d="m 674.245 2192.26 c 1.4523 -1.9042 2.8795 -2.7092 4.4004 -3.3955" fill="none" stroke="#000"/>
<path d="m 672.282 2190.86 c 0.7477 -2.3477 1.3982 -3.77 2.1131 -5.1409" fill="none" stroke="#000"/>
<path d="m 676.707 2195.4 c 1.8419 6.649 7.6154 12.2788 14.1511 14.0545" fill="none" stroke="#000"/>
<path d="m 681.999 2201.27 c 1.2987 3.7845 5.3347 6.8039 9.8169 8.5799" fill="none" stroke="#fff"/>
</g>
</svg>
