<svg viewBox="0 0 512 512" xmlns="http://www.w3.org/2000/svg">

<g transform="matrix(18.68858,0,0,18.68858,-10440.75533,-23141.90208)">
<path d="m 575.741 1238.79 c -0.1532 0.01 -0.3002 0.022 -0.4375 0.062 l -5.9688 9.3615 c -1.1439 2.0068 -4.0124 6.2664 -10.125 8.8933 v 8.0821 h 8.3125 c 2.4841 -4.7558 4.9052 -8.1105 6.9062 -8.1445 l 10.0625 -0.3744 c 0.8308 -0.788 0.955 -2.7099 0.1562 -3.4637 l -7.625 0.2183 8.25 -2.8708 c 0.594 -1.0179 0.005 -2.7995 -0.9688 -3.2453 l -8.5938 2.9021 7.1875 -5.1489 c 0.1091 -0.5296 -0.1085 -1.1911 -0.5 -1.7162 s -0.9503 -0.9415 -1.5312 -0.9985 l -6.8438 4.9615 4.375 -6.8651 c -0.2226 -0.9341 -1.5837 -1.6924 -2.6562 -1.6538 z" fill="#fff" stroke="#000"/>
<path d="m 570.236 1248.54 c -0.9475 -3.4678 -1.22 -8.1288 -5.117 -6.4542 2.0494 5.5005 1.5036 11.8911 4.8374 12.7107" fill="#fff" stroke="#000"/>
<path d="m 574.764 1246.89 -0.4328 0.6832 -1.5275 -0.3222 c 0.1206 4.0057 6.582 6.2704 1.9603 -0.361 z" fill="#fff"/>
<path d="m 572.571 1245.88 c 3.4072 0.452 6.3135 5.5957 5.2058 9.7845 l -5.2058 -9.7845 z" fill="#fff" fill-rule="evenodd"/>
<path d="m 575.365 1263.79 c -0.8731 0 -1.7026 -0.6725 -1.7026 -1.4278 0 -1.5214 1.5068 -2.3527 1.7026 -5.0841 0.2451 2.7358 1.7367 3.4635 1.7367 5.0481 0 0.7953 -0.8828 1.4638 -1.7367 1.4638 z" fill="#fff" fill-rule="evenodd"/>
<path d="m 574.77 1257.12 -1.7219 -4.9571 1.1325 -0.3776 -1.8016 -4.229 3.6914 4.9679 -1.4928 0.4025 1.9193 4.0721" fill-rule="evenodd"/>
</g>
</svg>
