<svg viewBox="0 0 512 512" xmlns="http://www.w3.org/2000/svg">

<g transform="matrix(18.68858,0,0,18.68858,-10440.75533,-23141.90208)">
<path d="m575.7407,1238.7925c-.1532.01-.3002.022-.4375.062l-5.9688,9.3615c-1.1439,2.0068-4.0124,6.2664-10.125,8.8933v8.0821h8.3125c2.4841-4.7558 4.9052-8.1105 6.9062-8.1445l10.0625-.3744c.8308-.788.955-2.7099.1562-3.4637l-7.625.2183 8.25-2.8708c.594-1.0179.005-2.7995-.9688-3.2453l-8.5938,2.9021 7.1875-5.1489c.1091-.5296-.1085-1.1911-.5-1.7162s-.9503-.9415-1.5312-.9985l-6.8438,4.9615 4.375-6.8651c-.2226-.9341-1.5837-1.6924-2.6562-1.6538z" fill="#fff" stroke="#000"/>
<path d="m570.2359,1248.5373c-.9475-3.4678-1.22-8.1288-5.117-6.4542 2.0494,5.5005 1.5036,11.8911 4.8374,12.7107" fill="#fff" stroke="#000"/>
<path d="m574.7639,1246.888-.4328.6832-1.5275-.3222c.1206,4.0057 6.582,6.2704 1.9603-.361z" fill="#fff"/>
<path d="m572.5711,1245.8795c3.4072.452 6.3135,5.5957 5.2058,9.7845l-5.2058-9.7845z" fill="#fff" fill-rule="evenodd"/>
<path d="m575.3651,1263.7949c-.8731,0-1.7026-.6725-1.7026-1.4278 0-1.5214 1.5068-2.3527 1.7026-5.0841 .2451,2.7358 1.7367,3.4635 1.7367,5.0481 0,.7953-.8828,1.4638-1.7367,1.4638z" fill="#fff" fill-rule="evenodd"/>
<path d="m574.7696,1257.1185-1.7219-4.9571 1.1325-.3776-1.8016-4.229 3.6914,4.9679-1.4928.4025 1.9193,4.0721" fill-rule="evenodd"/>
</g>
</svg>
