<svg viewBox="0 0 512 512" xmlns="http://www.w3.org/2000/svg">

<g transform="matrix(18.68858,0,0,18.68858,-3632.01583,-37446.66666)">
<path d="m695.1875,438.8622c0,6.4548-3.5398,11.6875-7.9062,11.6875s-7.9062-5.2327-7.9062-11.6875 3.5398-11.6875 7.9062-11.6875 7.9062,5.2327 7.9062,11.6875z" fill="#fff" stroke="#000" stroke-width=".834" transform="matrix(1.27557,0,0,1.12705,-668.52909,1522.81845)"/>
<path d="m208.1493,2009.0971c-3.7766,0-6.9715,2.5438-8.0627,6.0221 4.7792-6.0354 11.2518-6.0903 16.0576-.1491-1.1336-3.4031-4.271-5.873-7.9949-5.873zm-8.0966,11.2096c1.072,3.511 4.2971,6.0519 8.0966,6.0519 3.7552,0 6.9201-2.4849 8.0288-5.9327-4.812,5.9793-11.336,5.9404-16.1254-.1192z"/>
<g transform="matrix(1.08146,0,0,1.08146,-16.68502,-163.00387)">
<path d="m214.7749,2016.4806c-.0331-.03-.0335-.068-.0506-.096-3.6868-6.6346-9.6618-6.6346-13.3487.0003l-.0503.092c.0338.03.0327.068.0506.096 3.6871,6.6342 9.6619,6.6346 13.3487-.0001l.0503-.092z" fill="#fff" stroke="#000" stroke-width=".9247"/>
<path d="m212.0646,2016.8098c0,1.64-1.3295,2.9695-2.9695,2.9695s-2.9695-1.3295-2.9695-2.9695 1.3295-2.9695 2.9695-2.9695 2.9695,1.3295 2.9695,2.9695z" transform="matrix(1.43312,0,0,1.43312,-91.6605,-873.0202)"/>
<path d="m209.3788,2016.6395c0,.7939-.6436,1.4375-1.4375,1.4375s-1.4375-.6436-1.4375-1.4375 .6436-1.4374 1.4375-1.4374 1.4375.6435 1.4375,1.4374z" fill="#fff" transform="matrix(1.35468,0,0,1.35468,-72.06477,-716.6713)"/>
<path d="m209.3788,2016.6395c0,.7939-.6436,1.4375-1.4375,1.4375s-1.4375-.6436-1.4375-1.4375 .6436-1.4374 1.4375-1.4374 1.4375.6435 1.4375,1.4374z" stroke="#fff" stroke-width=".6009" transform="matrix(1.5389,0,0,1.5389,-111.88288,-1085.3962)"/>
</g>
<path d="m216.583,2015.9249c.7534,1.1145.885,2.2291 0,3.3436 1.9297,0 1.7608-3.3436 0-3.3436z"/>
<path d="m199.7251,2015.9249c-.7534,1.1145-.885,2.2291 0,3.3436-1.9297,0-1.7608-3.3436 0-3.3436z"/>
</g>
</svg>
