<svg viewBox="0 0 512 512" xmlns="http://www.w3.org/2000/svg">

<g transform="matrix(18.68858,0,0,18.68858,-9759.16738,-31999.96874)">
<path d="m 544.92 1726.93 c 0 4.3345 -3.5139 7.8484 -7.8484 7.8484 s -7.8484 -3.5139 -7.8484 -7.8484 3.5139 -7.8485 7.8484 -7.8485 7.8484 3.5139 7.8484 7.8485 z" fill="#fff" stroke="#000" stroke-width=".5963" transform="matrix(1.34823,.99743,-.99743,1.34823,1534.1506,-1137.9786)"/>
<path d="m 544.92 1726.93 c 0 4.3345 -3.5139 7.8484 -7.8484 7.8484 s -7.8484 -3.5139 -7.8484 -7.8484 3.5139 -7.8485 7.8484 -7.8485 7.8484 3.5139 7.8484 7.8485 z" transform="matrix(.86211,.63779,-.63779,.86211,1174.1665,-105.32797)"/>
<path d="m 544.285 1732.67 c -3.4992 4.7299 -10.1703 5.7277 -14.9003 2.2285" fill="none" stroke="#000" stroke-width=".7367"/>
<path d="m 526.006 1721.68 c 2.1559 -5.4745 8.3415 -8.1648 13.8161 -6.0088" fill="none" stroke="#000" stroke-width=".7367"/>
<path d="m 545.051 1731.78 c -3.605 4.6497 -10.297 5.4967 -14.9468 1.8917" fill="none" stroke="#fff"/>
<path d="m 525.688 1722.39 c 2.2786 -5.4242 8.5234 -7.9745 13.948 -5.6959" fill="none" stroke="#fff"/>
<g transform="matrix(.80392,.59474,-.59474,.80392,1131.5313,19.81212)">
<path d="m 533.684 1729.53 6.4923 6.4921 -6.4924 6.4923" fill="#fff" stroke="#000"/>
<path d="m 538.069 1722.27 -6.4923 -6.4923 6.4924 -6.4921" fill="#fff" stroke="#000"/>
</g>
</g>
</svg>
