<svg viewBox="0 0 512 512" xmlns="http://www.w3.org/2000/svg">

<g transform="matrix(18.68858,0,0,18.68858,-3632.01583,-37446.66666)">
<path d="m 695.188 438.862 c 0 6.4548 -3.5398 11.6875 -7.9062 11.6875 s -7.9062 -5.2327 -7.9062 -11.6875 3.5398 -11.6875 7.9062 -11.6875 7.9062 5.2327 7.9062 11.6875 z" fill="#fff" stroke="#000" stroke-width=".834" transform="matrix(1.27557,0,0,1.12705,-668.52909,1522.81845)"/>
<path d="m 208.149 2009.1 c -3.7766 0 -6.9715 2.5438 -8.0627 6.0221 4.7792 -6.0354 11.2518 -6.0903 16.0576 -0.1491 -1.1336 -3.4031 -4.271 -5.873 -7.9949 -5.873 z m -8.0966 11.2096 c 1.072 3.511 4.2971 6.0519 8.0966 6.0519 3.7552 0 6.9201 -2.4849 8.0288 -5.9327 -4.812 5.9793 -11.336 5.9404 -16.1254 -0.1192 z"/>
<g transform="matrix(1.08146,0,0,1.08146,-16.68502,-163.00387)">
<path d="m 214.775 2016.48 c -0.0331 -0.03 -0.0335 -0.068 -0.0506 -0.096 -3.6868 -6.6346 -9.6618 -6.6346 -13.3487 0.0003 l -0.0503 0.092 c 0.0338 0.03 0.0327 0.068 0.0506 0.096 3.6871 6.6342 9.6619 6.6346 13.3487 -0.0001 l 0.0503 -0.092 z" fill="#fff" stroke="#000" stroke-width=".9247"/>
<path d="m 212.065 2016.81 c 0 1.64 -1.3295 2.9695 -2.9695 2.9695 s -2.9695 -1.3295 -2.9695 -2.9695 1.3295 -2.9695 2.9695 -2.9695 2.9695 1.3295 2.9695 2.9695 z" transform="matrix(1.43312,0,0,1.43312,-91.6605,-873.0202)"/>
<path d="m 209.379 2016.64 c 0 0.7939 -0.6436 1.4375 -1.4375 1.4375 s -1.4375 -0.6436 -1.4375 -1.4375 0.6436 -1.4374 1.4375 -1.4374 1.4375 0.6435 1.4375 1.4374 z" fill="#fff" transform="matrix(1.35468,0,0,1.35468,-72.06477,-716.6713)"/>
<path d="m 209.379 2016.64 c 0 0.7939 -0.6436 1.4375 -1.4375 1.4375 s -1.4375 -0.6436 -1.4375 -1.4375 0.6436 -1.4374 1.4375 -1.4374 1.4375 0.6435 1.4375 1.4374 z" stroke="#fff" stroke-width=".6009" transform="matrix(1.5389,0,0,1.5389,-111.88288,-1085.3962)"/>
</g>
<path d="m 216.583 2015.92 c 0.7534 1.1145 0.885 2.2291 0 3.3436 1.9297 0 1.7608 -3.3436 0 -3.3436 z"/>
<path d="m 199.725 2015.92 c -0.7534 1.1145 -0.885 2.2291 0 3.3436 -1.9297 0 -1.7608 -3.3436 0 -3.3436 z"/>
</g>
</svg>
