<svg viewBox="0 0 512 512" xmlns="http://www.w3.org/2000/svg">

<g transform="matrix(18.68858,0,0,18.68858,-229.21243,-21806.87216)">
<path d="m25.9441,1173.5944c-3.1997,5.6985-3.2,13.9449 0,19.6434 3.1799-6.4704 3.2678-13.4287 0-19.6434z" fill="#fff"/>
<path d="m-27.2605-1177.2515h2.6147v7.8361h-2.6147z" fill="#fff" stroke="#000" transform="scale(-1)"/>
<path d="m28.0258,1167.9321c-1.3007-.7518-2.8445-.7131-4.1453,0v1.5715h4.1453v-1.5715z" fill="#fff" stroke="#000"/>
<path d="m25.9531,1178.6422v10.1656" fill="none" stroke="#000"/>
<path d="m24.2188,1175.9063c-.2405.7603-1.1553,1.3416-2.2812,1.4375v1.5937c2.6774-.462 5.3536-.4195 8.0312,0v-1.5937c-1.1259-.096-2.0407-.6772-2.2812-1.4375h-3.4688z" fill="#fff" stroke="#000"/>
<path d="m18.8171,1179.3577c0,.7007-.5681,1.2688-1.2689,1.2688s-1.2689-.5681-1.2689-1.2688 .5681-1.2689 1.2689-1.2689 1.2689.5681 1.2689,1.2689z" fill="#fff" stroke="#000" stroke-width="1.2368" transform="matrix(.80851,0,0,.80851,11.76517,225.17205)"/>
<g transform="matrix(.96593,.25882,-.25882,.96593,314.3055,33.95137)">
<path d="m25.9441,1173.5944c-3.1997,5.6985-3.2,13.9449 0,19.6434 3.1799-6.4704 3.2678-13.4287 0-19.6434z" fill="#fff"/>
<path d="m-27.2605-1177.2515h2.6147v7.8361h-2.6147z" fill="#fff" stroke="#000" transform="scale(-1)"/>
<path d="m28.0258,1167.9321c-1.3007-.7518-2.8445-.7131-4.1453,0v1.5715h4.1453v-1.5715z" fill="#fff" stroke="#000"/>
<path d="m25.9531,1178.6422v10.1656" fill="none" stroke="#000"/>
<path d="m24.2188,1175.9063c-.2405.7603-1.1553,1.3416-2.2812,1.4375v1.5937c2.6774-.462 5.3536-.4195 8.0312,0v-1.5937c-1.1259-.096-2.0407-.6772-2.2812-1.4375h-3.4688z" fill="#fff" stroke="#000"/>
<path d="m18.8171,1179.3577c0,.7007-.5681,1.2688-1.2689,1.2688s-1.2689-.5681-1.2689-1.2688 .5681-1.2689 1.2689-1.2689 1.2689.5681 1.2689,1.2689z" fill="#fff" stroke="#000" stroke-width="1.2368" transform="matrix(.80851,0,0,.80851,11.76517,225.17205)"/>
</g>
<g transform="matrix(-.96593,.25882,.25882,.96593,-262.39183,33.95137)">
<path d="m25.9441,1173.5944c-3.1997,5.6985-3.2,13.9449 0,19.6434 3.1799-6.4704 3.2678-13.4287 0-19.6434z" fill="#fff"/>
<path d="m-27.2605-1177.2515h2.6147v7.8361h-2.6147z" fill="#fff" stroke="#000" transform="scale(-1)"/>
<path d="m28.0258,1167.9321c-1.3007-.7518-2.8445-.7131-4.1453,0v1.5715h4.1453v-1.5715z" fill="#fff" stroke="#000"/>
<path d="m25.9531,1178.6422v10.1656" fill="none" stroke="#000"/>
<path d="m24.2188,1175.9063c-.2405.7603-1.1553,1.3416-2.2812,1.4375v1.5937c2.6774-.462 5.3536-.4195 8.0312,0v-1.5937c-1.1259-.096-2.0407-.6772-2.2812-1.4375h-3.4688z" fill="#fff" stroke="#000"/>
<path d="m18.8171,1179.3577c0,.7007-.5681,1.2688-1.2689,1.2688s-1.2689-.5681-1.2689-1.2688 .5681-1.2689 1.2689-1.2689 1.2689.5681 1.2689,1.2689z" fill="#fff" stroke="#000" stroke-width="1.2368" transform="matrix(.80851,0,0,.80851,11.76517,225.17205)"/>
</g>
</g>
</svg>
