<svg viewBox="0 0 512 512" xmlns="http://www.w3.org/2000/svg">

<g transform="matrix(18.68858,0,0,18.68858,-229.21243,-21806.87216)">
<path d="m 25.9441 1173.59 c -3.1997 5.6985 -3.2 13.9449 0 19.6434 3.1799 -6.4704 3.2678 -13.4287 0 -19.6434 z" fill="#fff"/>
<path d="m -27.2605 -1177.25 h 2.6147 v 7.8361 h -2.6147 z" fill="#fff" stroke="#000" transform="scale(-1)"/>
<path d="m 28.0258 1167.93 c -1.3007 -0.7518 -2.8445 -0.7131 -4.1453 0 v 1.5715 h 4.1453 v -1.5715 z" fill="#fff" stroke="#000"/>
<path d="m 25.9531 1178.64 v 10.1656" fill="none" stroke="#000"/>
<path d="m 24.2188 1175.91 c -0.2405 0.7603 -1.1553 1.3416 -2.2812 1.4375 v 1.5937 c 2.6774 -0.462 5.3536 -0.4195 8.0312 0 v -1.5937 c -1.1259 -0.096 -2.0407 -0.6772 -2.2812 -1.4375 h -3.4688 z" fill="#fff" stroke="#000"/>
<path d="m 18.8171 1179.36 c 0 0.7007 -0.5681 1.2688 -1.2689 1.2688 s -1.2689 -0.5681 -1.2689 -1.2688 0.5681 -1.2689 1.2689 -1.2689 1.2689 0.5681 1.2689 1.2689 z" fill="#fff" stroke="#000" stroke-width="1.2368" transform="matrix(.80851,0,0,.80851,11.76517,225.17205)"/>
<g transform="matrix(.96593,.25882,-.25882,.96593,314.3055,33.95137)">
<path d="m 25.9441 1173.59 c -3.1997 5.6985 -3.2 13.9449 0 19.6434 3.1799 -6.4704 3.2678 -13.4287 0 -19.6434 z" fill="#fff"/>
<path d="m -27.2605 -1177.25 h 2.6147 v 7.8361 h -2.6147 z" fill="#fff" stroke="#000" transform="scale(-1)"/>
<path d="m 28.0258 1167.93 c -1.3007 -0.7518 -2.8445 -0.7131 -4.1453 0 v 1.5715 h 4.1453 v -1.5715 z" fill="#fff" stroke="#000"/>
<path d="m 25.9531 1178.64 v 10.1656" fill="none" stroke="#000"/>
<path d="m 24.2188 1175.91 c -0.2405 0.7603 -1.1553 1.3416 -2.2812 1.4375 v 1.5937 c 2.6774 -0.462 5.3536 -0.4195 8.0312 0 v -1.5937 c -1.1259 -0.096 -2.0407 -0.6772 -2.2812 -1.4375 h -3.4688 z" fill="#fff" stroke="#000"/>
<path d="m 18.8171 1179.36 c 0 0.7007 -0.5681 1.2688 -1.2689 1.2688 s -1.2689 -0.5681 -1.2689 -1.2688 0.5681 -1.2689 1.2689 -1.2689 1.2689 0.5681 1.2689 1.2689 z" fill="#fff" stroke="#000" stroke-width="1.2368" transform="matrix(.80851,0,0,.80851,11.76517,225.17205)"/>
</g>
<g transform="matrix(-.96593,.25882,.25882,.96593,-262.39183,33.95137)">
<path d="m 25.9441 1173.59 c -3.1997 5.6985 -3.2 13.9449 0 19.6434 3.1799 -6.4704 3.2678 -13.4287 0 -19.6434 z" fill="#fff"/>
<path d="m -27.2605 -1177.25 h 2.6147 v 7.8361 h -2.6147 z" fill="#fff" stroke="#000" transform="scale(-1)"/>
<path d="m 28.0258 1167.93 c -1.3007 -0.7518 -2.8445 -0.7131 -4.1453 0 v 1.5715 h 4.1453 v -1.5715 z" fill="#fff" stroke="#000"/>
<path d="m 25.9531 1178.64 v 10.1656" fill="none" stroke="#000"/>
<path d="m 24.2188 1175.91 c -0.2405 0.7603 -1.1553 1.3416 -2.2812 1.4375 v 1.5937 c 2.6774 -0.462 5.3536 -0.4195 8.0312 0 v -1.5937 c -1.1259 -0.096 -2.0407 -0.6772 -2.2812 -1.4375 h -3.4688 z" fill="#fff" stroke="#000"/>
<path d="m 18.8171 1179.36 c 0 0.7007 -0.5681 1.2688 -1.2689 1.2688 s -1.2689 -0.5681 -1.2689 -1.2688 0.5681 -1.2689 1.2689 -1.2689 1.2689 0.5681 1.2689 1.2689 z" fill="#fff" stroke="#000" stroke-width="1.2368" transform="matrix(.80851,0,0,.80851,11.76517,225.17205)"/>
</g>
</g>
</svg>
