<svg viewBox="0 0 512 512" xmlns="http://www.w3.org/2000/svg">

<g transform="matrix(18.68858,0,0,18.68858,-9758.50681,-18612.2816)">
<path d="m531.0753,1020.7236c-1.4495-2.0036-.3244-4.6726.966-7.5897 1.2412,1.9437 3.4046,2.2579 4.9907,3.461" fill="#fff" fill-rule="evenodd" stroke="#000"/>
<path d="m540.3891,1019.732c1.7577-1.7392 1.4532-4.0562 1.0678-6.5886-1.5624,1.6873-3.5143,1.96-5.1895,3.0044" fill="#fff" fill-rule="evenodd" stroke="#000"/>
<path d="m535.0324,1011.0392c1.6111,3.5316-.2446,8.3041-3.6014,11.8524h3.3274c3.1383-3.5847 4.3865-7.9905 2.8076-12.0918l-2.5335.2394z" fill="#fff" stroke="#000"/>
<path d="m535.4027,1022.7846c-7.0087.7342-8.1491-2.7066-7.7374-6.6887 1.8687,2.4534 6.7362-.1927 7.7374,6.6887z" fill="#fff" fill-rule="evenodd" stroke="#000"/>
<g transform="matrix(1.02492,-.12194,.19462,.64216,-250.3241,427.24106)">
<path d="m575.4034,1008.7362c-3.3022-2.2466-4.0528-8.3978-5e-05-11.8125 3.3027,2.2482 4.0513,8.3945 5e-05,11.8125z" fill="#fff" stroke="#000" stroke-width="1.211"/>
<path d="m575.9985,1008.8958c-.8289-5.618 2.5252-9.5492 5.9062-10.2301 1.8937,5.8212-2.3144,9.5867-5.9062,10.2301z" fill="#fff" stroke="#000" stroke-width="1.211"/>
<path d="m574.8083,1008.8955c-3.6584-.4654-7.0982-3.8565-5.5143-10.3337 3.8288.169 5.9409,4.0571 5.5143,10.3337z" fill="#fff" stroke="#000" stroke-width="1.211"/>
<path d="m574.3724,1009.3311c-4.3228,1.7079-8.3396.023-9.986-5.6222 4.3281-3.0812 8.4145-.4161 9.986,5.6222z" fill="#fff" stroke="#000" stroke-width="1.211"/>
<path d="m576.434,1009.3316c1.6535-6.5636 6.8143-7.1417 10.2299-5.9064-1.6541,6.5645-6.8136,7.1392-10.2299,5.9064z" fill="#fff" stroke="#000" stroke-width="1.211"/>
<path d="m576.5935,1009.9263c3.1382,4.0359 8.244,4.9858 11.4422-.07-2.3993-4.6289-7.2581-3.9197-11.4422.07z" fill="#fff" stroke="#000" stroke-width="1.211"/>
<path d="m574.213,1009.9263c-3.8794,4.1064-8.2135,3.719-11.3199.032 3.0969-4.7589 8.1764-3.9809 11.3199-.032z" fill="#fff" stroke="#000" stroke-width="1.211"/>
<path d="m576.434,1010.5215c1.4368,5.8864 5.9703,7.9137 10.1347,6.4077-.3204-6.3776-4.9407-8.1554-10.1347-6.4077z" fill="#fff" stroke="#000" stroke-width="1.211"/>
<path d="m574.3723,1010.5217c-3.5595-1.4524-8.3765-.4481-10.2298,5.9062 3.5608,1.4531 8.3738.4474 10.2298-5.9062z" fill="#fff" stroke="#000" stroke-width="1.211"/>
<path d="m575.9984,1010.9572c-1.8878,6.548 2.5067,9.6232 5.9062,10.2299 1.8879-6.5491-2.507-9.6212-5.9062-10.2299z" fill="#fff" stroke="#000" stroke-width="1.211"/>
<path d="m574.8081,1010.9573c-3.9696.4177-7.6544,4.4541-6.2363,10.2537 3.5971-.7702 7.4359-4.6564 6.2363-10.2537z" fill="#fff" stroke="#000" stroke-width="1.211"/>
<path d="m575.4033,1011.1168c-3.097,3.1505-2.385,9.2654 2e-05,11.8124 4.3912-3.3672 2.9163-9.3521-2e-05-11.8124z" fill="#fff" stroke="#000" stroke-width="1.211"/>
</g>
<path d="m535.8958,1006.4939c-3.2155,0-2.7297-3.0225.027-3.0225 2.8911,0 2.9479,3.0225-.027,3.0225z" fill="#fff" stroke="#000"/>
<path d="m535.675,1022.8895c8.2313.2278 8.9955-3.9358 8.0225-8.0869-1.6652,2.8179-7.8765.7033-8.0225,8.0869z" fill="#fff" fill-rule="evenodd" stroke="#000"/>
</g>
</svg>
