<svg viewBox="0 0 512 512" xmlns="http://www.w3.org/2000/svg">

<g transform="matrix(18.68858,0,0,18.68858,-5912.42344,-15416.72352)">
<g transform="translate(-31.2194,-5.3346)">
<path d="m 358.383 857.193 0.3797 -6.2919 h 2.2793 c 0 -4.0876 0.0825 -8.9943 -3.7008 -9.5778 l -4.5585 0.0488 c -3.4634 0.6483 -3.7253 5.4529 -3.7253 9.5291 h 2.4018 l 0.4256 6.2403" fill-rule="evenodd" stroke="#fff"/>
<path d="m 265.342 662.26 c 0 2.2943 -1.3752 4.1543 -3.0715 4.1543 s -3.0715 -1.8599 -3.0715 -4.1543 1.3752 -4.1543 3.0715 -4.1543 3.0715 1.8599 3.0715 4.1543 z" stroke="#fff" stroke-width="1.0036" transform="matrix(.99557,0,0,.99733,93.94103,177.49246)"/>
<path d="m 351.483 851.33 -0.2344 -4.5649" fill="none" stroke="#fff"/>
<path d="m 358.738 851.33 0.2344 -4.5649" fill="none" stroke="#fff"/>
<path d="m 353.349 837.98 h 3.4016" fill="none" stroke="#fff"/>
<path d="m 355.049 837.274 v 1.4883" fill="none" stroke="#000"/>
</g>
<path d="m 339.333 851.846 0.4963 -8.2241 h 2.2793 c 0 -4.0876 0.0825 -8.9943 -3.7008 -9.5778 l -4.5585 0.0488 c -3.4634 0.6483 -3.7253 5.4529 -3.7253 9.5291 h 2.4018 l 0.5677 8.3228" fill-rule="evenodd" stroke="#fff"/>
<path d="m 265.342 662.26 c 0 2.2943 -1.3752 4.1543 -3.0715 4.1543 s -3.0715 -1.8599 -3.0715 -4.1543 1.3752 -4.1543 3.0715 -4.1543 3.0715 1.8599 3.0715 4.1543 z" stroke="#fff" stroke-width="1.0036" transform="matrix(.99557,0,0,.99733,75.00765,170.21337)"/>
<path d="m 332.55 844.051 -0.2344 -4.5649" fill="none" stroke="#fff"/>
<path d="m 339.804 844.051 0.2344 -4.5649" fill="none" stroke="#fff"/>
<path d="m 334.415 830.701 h 3.4016" fill="none" stroke="#fff"/>
<path d="m 336.116 829.995 v 1.4883" fill="none" stroke="#000"/>
<path d="m 334.262 851.904 0.0624 -1.0345 h 2.2793 c 0 -4.0876 0.0825 -8.9943 -3.7008 -9.5778 l -4.5585 0.0488 c -3.4634 0.6483 -3.7253 5.4529 -3.7253 9.5291 h 2.4018 l 0.0703 1.0302" fill-rule="evenodd" stroke="#fff"/>
<path d="m 265.342 662.26 c 0 2.2943 -1.3752 4.1543 -3.0715 4.1543 s -3.0715 -1.8599 -3.0715 -4.1543 1.3752 -4.1543 3.0715 -4.1543 3.0715 1.8599 3.0715 4.1543 z" stroke="#fff" stroke-width="1.0036" transform="matrix(.99557,0,0,.99733,69.50353,177.46121)"/>
<path d="m 327.046 851.299 -0.2344 -4.5649" fill="none" stroke="#fff"/>
<path d="m 334.3 851.299 0.2344 -4.5649" fill="none" stroke="#fff"/>
<path d="m 328.911 837.949 h 3.4016" fill="none" stroke="#fff"/>
<path d="m 330.612 837.243 v 1.4883" fill="none" stroke="#000"/>
<path d="m 317.181 851.884 h 25.0139" fill="none" stroke="#000"/>
</g>
</svg>
