<svg viewBox="0 0 512 512" xmlns="http://www.w3.org/2000/svg">

<g transform="matrix(18.68858,0,0,18.68858,-5912.42344,-15416.72352)">
<g transform="translate(-31.2194,-5.3346)">
<path d="m358.3826,857.1927 .3797-6.2919h2.2793c0-4.0876.0825-8.9943-3.7008-9.5778l-4.5585.0488c-3.4634.6483-3.7253,5.4529-3.7253,9.5291h2.4018l.4256,6.2403" fill-rule="evenodd" stroke="#fff"/>
<path d="m265.3419,662.2602c0,2.2943-1.3752,4.1543-3.0715,4.1543s-3.0715-1.8599-3.0715-4.1543 1.3752-4.1543 3.0715-4.1543 3.0715,1.8599 3.0715,4.1543z" stroke="#fff" stroke-width="1.0036" transform="matrix(.99557,0,0,.99733,93.94103,177.49246)"/>
<path d="m351.4835,851.3304-.2344-4.5649" fill="none" stroke="#fff"/>
<path d="m358.7378,851.3304 .2344-4.5649" fill="none" stroke="#fff"/>
<path d="m353.3485,837.9801h3.4016" fill="none" stroke="#fff"/>
<path d="m355.0493,837.2743v1.4883" fill="none" stroke="#000"/>
</g>
<path d="m339.3326,851.8458 .4963-8.2241h2.2793c0-4.0876.0825-8.9943-3.7008-9.5778l-4.5585.0488c-3.4634.6483-3.7253,5.4529-3.7253,9.5291h2.4018l.5677,8.3228" fill-rule="evenodd" stroke="#fff"/>
<path d="m265.3419,662.2602c0,2.2943-1.3752,4.1543-3.0715,4.1543s-3.0715-1.8599-3.0715-4.1543 1.3752-4.1543 3.0715-4.1543 3.0715,1.8599 3.0715,4.1543z" stroke="#fff" stroke-width="1.0036" transform="matrix(.99557,0,0,.99733,75.00765,170.21337)"/>
<path d="m332.5501,844.0513-.2344-4.5649" fill="none" stroke="#fff"/>
<path d="m339.8044,844.0513 .2344-4.5649" fill="none" stroke="#fff"/>
<path d="m334.4151,830.7011h3.4016" fill="none" stroke="#fff"/>
<path d="m336.1159,829.9952v1.4883" fill="none" stroke="#000"/>
<path d="m334.2623,851.9041 .0624-1.0345h2.2793c0-4.0876.0825-8.9943-3.7008-9.5778l-4.5585.0488c-3.4634.6483-3.7253,5.4529-3.7253,9.5291h2.4018l.0703,1.0302" fill-rule="evenodd" stroke="#fff"/>
<path d="m265.3419,662.2602c0,2.2943-1.3752,4.1543-3.0715,4.1543s-3.0715-1.8599-3.0715-4.1543 1.3752-4.1543 3.0715-4.1543 3.0715,1.8599 3.0715,4.1543z" stroke="#fff" stroke-width="1.0036" transform="matrix(.99557,0,0,.99733,69.50353,177.46121)"/>
<path d="m327.046,851.2992-.2344-4.5649" fill="none" stroke="#fff"/>
<path d="m334.3003,851.2992 .2344-4.5649" fill="none" stroke="#fff"/>
<path d="m328.911,837.9489h3.4016" fill="none" stroke="#fff"/>
<path d="m330.6118,837.2431v1.4883" fill="none" stroke="#000"/>
<path d="m317.1806,851.8843h25.0139" fill="none" stroke="#000"/>
</g>
</svg>
