<svg viewBox="0 0 512 512" xmlns="http://www.w3.org/2000/svg">

<g transform="matrix(18.68858,0,0,18.68858,-4643.99781,-9139.75179)">
<path d="m256.1539,515.5371h10.3319c-3.9063-2.1307-4.6314-6.4122-2.3391-10.4083-2.5976-1.4342.1287-6.4106 2.4093-9.5548-3.1423,3.0269-4.0758,1.8968-5.5619-.3086 1.6729,4.1411 1.2792,7.6428-3.8003,4.4066 4.1577,3.5224 5.4153,12.3351 1.8944,11.528 .4862,2.0672-1.2985,3.6331-2.9343,4.3371z" fill="#fff" fill-rule="evenodd"/>
<path d="m249.2284,497.2636 3.2908,4.011 2.8998-1.924c1.6142,1.1093 3.2451,2.1936 4.8872,3.2609l.5213-.9131-5.4086-3.5871-2.7043,1.7935-3.4862-2.6414z" fill="#fff" fill-rule="evenodd"/>
<path d="m257.2761,500.1985-.7494,2.5762-2.6084,1.0831 3.4229-.2026 .9123-3.1631-.9775-.2935z" fill="#fff" fill-rule="evenodd"/>
<path d="m263.0105,493.4483 3.7469,1.4348-3.4862,3.6197-3.0627-6.6197-.9774.4239 .8145,1.7609-5.6692,1.2066-3.193-2.0544 2.802,3.1957 6.5163-1.3696 2.4436,5.2827 5.6692-5.8371-4.5614-1.7609v-3.1631l-1.0426,3.8805z" fill="#fff" fill-rule="evenodd"/>
<path d="m265.5193,502.1066-3.193,3.8153 .782.6848 2.6391-3.1631 3.3253.9238-3.5533-2.2608z" fill="#fff" fill-rule="evenodd"/>
<path d="m266.0406,495.7636-.5539.8805 2.8672,1.7935 .7168,3.0653 4.2682,1.1739-3.3885-1.8914-.6842-3.0001-3.2256-2.0218z" fill="#fff" fill-rule="evenodd"/>
<path d="m268.7055,498.1039 4.2954-2.0054" fill="none" stroke="#fff"/>
<path d="m266.2972,493.7685 .9326.4591 2.2794-4.4594-3.212,4.0003z" fill="#fff" fill-rule="evenodd"/>
<path d="m258.3513,494.7527-.2281,3.0979 1.1729-2.674-.9449-.4239z" fill="#fff" fill-rule="evenodd"/>
<path d="m259.4591,491.7852-4.8873-1.0761 5.4737,2.2827 1.1078-2.4131-1.6943,1.2066z" fill="#fff" fill-rule="evenodd"/>
<path d="m271.775,496.2853 .3258.7174 2.8672-.1631-1.8549-.6964 1.0404-2.7928-2.3785,2.9349z" fill="#fff" fill-rule="evenodd"/>
<path d="m262.2516,510.8001c-.9906,3.604.6814,5.0793 2.4735,5.7037l.3713-.9688c-2.054-.8762-2.7135-2.5412-2.8448-4.7349z" fill-rule="evenodd"/>
<path d="m257.6522,515.5345 .3869.9316c1.6358-.6671 2.6139-1.9369 2.6045-3.3839-.8395,1.3399-1.6421,2.0266-2.9914,2.4523z" fill-rule="evenodd"/>
<path d="m253.272,500.2023-.2281-3.0979 1.1729,2.674-.9449.4239z" fill="#fff" fill-rule="evenodd"/>
<path d="m266.8546,503.5089 1.1462-2.8871-1.9205,2.1994 .7743.6877z" fill="#fff" fill-rule="evenodd"/>
<path d="m271.6276,496.9979 1.5439,3.2406-2.4951-2.7519 .9511-.4888z" fill="#fff" fill-rule="evenodd"/>
<path d="m261.6894,495.8168 2.9333-1.0221-2.2793,1.825-.654-.803z" fill="#fff" fill-rule="evenodd"/>
<path d="m253.3906,495.5162-2.9333,1.0221 2.2793-1.8251 .654.803z" fill="#fff" fill-rule="evenodd"/>
<path d="m255.9537,495.4831-1.0221-2.9333 1.8251,2.2793-.803.654z" fill="#fff" fill-rule="evenodd"/>
<path d="m261.8093,500.2923-2.3518-2.0293 2.7202,1.0614-.3684.9679z" fill="#fff" fill-rule="evenodd"/>
<path d="m267.5015,494.1608 2.9333-1.0221-2.2793,1.825-.654-.803z" fill="#fff" fill-rule="evenodd"/>
<path d="m260.1711,502.1889c1.6138.8169 2.4722,3.2909 1.5536,4.9056-.215-1.4437-.7646-3.4619-1.5536-4.9056z" fill-rule="evenodd"/>
<path d="m264.6508,503.5456c-1.4686-1.0714-.6903-4.0768.1933-5.8692" fill="none" stroke="#fff"/>
</g>
</svg>
