<svg viewBox="0 0 512 512" xmlns="http://www.w3.org/2000/svg">

<g transform="matrix(18.68858,0,0,18.68858,-3630.69236,-36767.83291)">
<path d="m199.8248,1972.7631 16.3762,16.3762" fill="none" stroke="#fff"/>
<path d="m216.201,1972.7631-16.3761,16.3762" fill="none" stroke="#fff"/>
<path d="m218.2481,1981.1422c0,5.6207-4.5564,10.1771-10.1771,10.1771s-10.1771-4.5564-10.1771-10.1771 4.5564-10.1771 10.1771-10.1771 10.1771,4.5565 10.1771,10.1771z" fill="none" stroke="#fff" stroke-width="1.0305" transform="matrix(.97038,0,0,.97038,6.19366,58.46243)"/>
<path d="m214.9846,1981.7769c0,3.9119-3.1713,7.0832-7.0833,7.0832s-7.0833-3.1713-7.0833-7.0832 3.1713-7.0833 7.0833-7.0833 7.0833,3.1713 7.0833,7.0833z" transform="matrix(1.13298,0,0,1.13298,-27.45807,-264.32538)"/>
<path d="m214.0804,1980.4581c0,3.1837-2.5809,5.7646-5.7646,5.7646s-5.7646-2.5809-5.7646-5.7646 2.5809-5.7645 5.7646-5.7645 5.7646,2.5808 5.7646,5.7645z" fill="#fff" stroke="#000" stroke-width=".9311" transform="matrix(1.07395,0,0,1.07395,-15.45736,-145.91375)"/>
<path d="m214.0804,1980.4581c0,3.1837-2.5809,5.7646-5.7646,5.7646s-5.7646-2.5809-5.7646-5.7646 2.5809-5.7645 5.7646-5.7645 5.7646,2.5808 5.7646,5.7645z" fill="#fff" stroke="#000" stroke-width="1.9367" transform="matrix(.51634,0,0,.51634,100.61626,958.40149)"/>
<path d="m214.0804,1980.4581c0,3.1837-2.5809,5.7646-5.7646,5.7646s-5.7646-2.5809-5.7646-5.7646 2.5809-5.7645 5.7646-5.7645 5.7646,2.5808 5.7646,5.7645z" stroke="#fff" stroke-width="2.9143" transform="matrix(.34314,0,0,.34314,136.71593,1301.42193)"/>
<path d="m-2366.5261,2579.5864h3.4696v3.4696h-3.4696z" fill="#fff" transform="matrix(.9163,-.40049,.9163,.40049,0,0)"/>
<path d="m-2355.8352,2590.2771h3.4696v3.4696h-3.4696z" fill="#fff" transform="matrix(.9163,-.40049,.9163,.40049,0,0)"/>
<path d="m1333.752,813.8779h3.4696v3.4696h-3.4696z" fill="#fff" transform="matrix(.40049,.9163,-.40049,.9163,0,0)"/>
<path d="m1344.4429,824.5686h3.4696v3.4696h-3.4696z" fill="#fff" transform="matrix(.40049,.9163,-.40049,.9163,0,0)"/>
<path d="m211.8485,1979.6003c0,1.0489-.8503,1.8992-1.8991,1.8992s-1.8991-.8503-1.8991-1.8992 .8503-1.8991 1.8991-1.8991 1.8991.8503 1.8991,1.8991z" fill="#fff" transform="matrix(.85915,0,0,.85915,29.14235,278.49595)"/>
</g>
</svg>
