<svg viewBox="0 0 512 512" xmlns="http://www.w3.org/2000/svg">

<g transform="matrix(18.68858,0,0,18.68858,-4643.99781,-9139.75179)">
<path d="m 256.154 515.537 h 10.3319 c -3.9063 -2.1307 -4.6314 -6.4122 -2.3391 -10.4083 -2.5976 -1.4342 0.1287 -6.4106 2.4093 -9.5548 -3.1423 3.0269 -4.0758 1.8968 -5.5619 -0.3086 1.6729 4.1411 1.2792 7.6428 -3.8003 4.4066 4.1577 3.5224 5.4153 12.3351 1.8944 11.528 0.4862 2.0672 -1.2985 3.6331 -2.9343 4.3371 z" fill="#fff" fill-rule="evenodd"/>
<path d="m 249.228 497.264 3.2908 4.011 2.8998 -1.924 c 1.6142 1.1093 3.2451 2.1936 4.8872 3.2609 l 0.5213 -0.9131 -5.4086 -3.5871 -2.7043 1.7935 -3.4862 -2.6414 z" fill="#fff" fill-rule="evenodd"/>
<path d="m 257.276 500.199 -0.7494 2.5762 -2.6084 1.0831 3.4229 -0.2026 0.9123 -3.1631 -0.9775 -0.2935 z" fill="#fff" fill-rule="evenodd"/>
<path d="m 263.01 493.448 3.7469 1.4348 -3.4862 3.6197 -3.0627 -6.6197 -0.9774 0.4239 0.8145 1.7609 -5.6692 1.2066 -3.193 -2.0544 2.802 3.1957 6.5163 -1.3696 2.4436 5.2827 5.6692 -5.8371 -4.5614 -1.7609 v -3.1631 l -1.0426 3.8805 z" fill="#fff" fill-rule="evenodd"/>
<path d="m 265.519 502.107 -3.193 3.8153 0.782 0.6848 2.6391 -3.1631 3.3253 0.9238 -3.5533 -2.2608 z" fill="#fff" fill-rule="evenodd"/>
<path d="m 266.041 495.764 -0.5539 0.8805 2.8672 1.7935 0.7168 3.0653 4.2682 1.1739 -3.3885 -1.8914 -0.6842 -3.0001 -3.2256 -2.0218 z" fill="#fff" fill-rule="evenodd"/>
<path d="m 268.705 498.104 4.2954 -2.0054" fill="none" stroke="#fff"/>
<path d="m 266.297 493.769 0.9326 0.4591 2.2794 -4.4594 -3.212 4.0003 z" fill="#fff" fill-rule="evenodd"/>
<path d="m 258.351 494.753 -0.2281 3.0979 1.1729 -2.674 -0.9449 -0.4239 z" fill="#fff" fill-rule="evenodd"/>
<path d="m 259.459 491.785 -4.8873 -1.0761 5.4737 2.2827 1.1078 -2.4131 -1.6943 1.2066 z" fill="#fff" fill-rule="evenodd"/>
<path d="m 271.775 496.285 0.3258 0.7174 2.8672 -0.1631 -1.8549 -0.6964 1.0404 -2.7928 -2.3785 2.9349 z" fill="#fff" fill-rule="evenodd"/>
<path d="m 262.252 510.8 c -0.9906 3.604 0.6814 5.0793 2.4735 5.7037 l 0.3713 -0.9688 c -2.054 -0.8762 -2.7135 -2.5412 -2.8448 -4.7349 z" fill-rule="evenodd"/>
<path d="m 257.652 515.534 0.3869 0.9316 c 1.6358 -0.6671 2.6139 -1.9369 2.6045 -3.3839 -0.8395 1.3399 -1.6421 2.0266 -2.9914 2.4523 z" fill-rule="evenodd"/>
<path d="m 253.272 500.202 -0.2281 -3.0979 1.1729 2.674 -0.9449 0.4239 z" fill="#fff" fill-rule="evenodd"/>
<path d="m 266.855 503.509 1.1462 -2.8871 -1.9205 2.1994 0.7743 0.6877 z" fill="#fff" fill-rule="evenodd"/>
<path d="m 271.628 496.998 1.5439 3.2406 -2.4951 -2.7519 0.9511 -0.4888 z" fill="#fff" fill-rule="evenodd"/>
<path d="m 261.689 495.817 2.9333 -1.0221 -2.2793 1.825 -0.654 -0.803 z" fill="#fff" fill-rule="evenodd"/>
<path d="m 253.391 495.516 -2.9333 1.0221 2.2793 -1.8251 0.654 0.803 z" fill="#fff" fill-rule="evenodd"/>
<path d="m 255.954 495.483 -1.0221 -2.9333 1.8251 2.2793 -0.803 0.654 z" fill="#fff" fill-rule="evenodd"/>
<path d="m 261.809 500.292 -2.3518 -2.0293 2.7202 1.0614 -0.3684 0.9679 z" fill="#fff" fill-rule="evenodd"/>
<path d="m 267.502 494.161 2.9333 -1.0221 -2.2793 1.825 -0.654 -0.803 z" fill="#fff" fill-rule="evenodd"/>
<path d="m 260.171 502.189 c 1.6138 0.8169 2.4722 3.2909 1.5536 4.9056 -0.215 -1.4437 -0.7646 -3.4619 -1.5536 -4.9056 z" fill-rule="evenodd"/>
<path d="m 264.651 503.546 c -1.4686 -1.0714 -0.6903 -4.0768 0.1933 -5.8692" fill="none" stroke="#fff"/>
</g>
</svg>
