<svg viewBox="0 0 512 512" xmlns="http://www.w3.org/2000/svg">

<g transform="matrix(18.68858,0,0,18.68858,-3630.69236,-36767.83291)">
<path d="m 199.825 1972.76 16.3762 16.3762" fill="none" stroke="#fff"/>
<path d="m 216.201 1972.76 -16.3761 16.3762" fill="none" stroke="#fff"/>
<path d="m 218.248 1981.14 c 0 5.6207 -4.5564 10.1771 -10.1771 10.1771 s -10.1771 -4.5564 -10.1771 -10.1771 4.5564 -10.1771 10.1771 -10.1771 10.1771 4.5565 10.1771 10.1771 z" fill="none" stroke="#fff" stroke-width="1.0305" transform="matrix(.97038,0,0,.97038,6.19366,58.46243)"/>
<path d="m 214.985 1981.78 c 0 3.9119 -3.1713 7.0832 -7.0833 7.0832 s -7.0833 -3.1713 -7.0833 -7.0832 3.1713 -7.0833 7.0833 -7.0833 7.0833 3.1713 7.0833 7.0833 z" transform="matrix(1.13298,0,0,1.13298,-27.45807,-264.32538)"/>
<path d="m 214.08 1980.46 c 0 3.1837 -2.5809 5.7646 -5.7646 5.7646 s -5.7646 -2.5809 -5.7646 -5.7646 2.5809 -5.7645 5.7646 -5.7645 5.7646 2.5808 5.7646 5.7645 z" fill="#fff" stroke="#000" stroke-width=".9311" transform="matrix(1.07395,0,0,1.07395,-15.45736,-145.91375)"/>
<path d="m 214.08 1980.46 c 0 3.1837 -2.5809 5.7646 -5.7646 5.7646 s -5.7646 -2.5809 -5.7646 -5.7646 2.5809 -5.7645 5.7646 -5.7645 5.7646 2.5808 5.7646 5.7645 z" fill="#fff" stroke="#000" stroke-width="1.9367" transform="matrix(.51634,0,0,.51634,100.61626,958.40149)"/>
<path d="m 214.08 1980.46 c 0 3.1837 -2.5809 5.7646 -5.7646 5.7646 s -5.7646 -2.5809 -5.7646 -5.7646 2.5809 -5.7645 5.7646 -5.7645 5.7646 2.5808 5.7646 5.7645 z" stroke="#fff" stroke-width="2.9143" transform="matrix(.34314,0,0,.34314,136.71593,1301.42193)"/>
<path d="m -2366.53 2579.59 h 3.4696 v 3.4696 h -3.4696 z" fill="#fff" transform="matrix(.9163,-.40049,.9163,.40049,0,0)"/>
<path d="m -2355.84 2590.28 h 3.4696 v 3.4696 h -3.4696 z" fill="#fff" transform="matrix(.9163,-.40049,.9163,.40049,0,0)"/>
<path d="m 1333.75 813.878 h 3.4696 v 3.4696 h -3.4696 z" fill="#fff" transform="matrix(.40049,.9163,-.40049,.9163,0,0)"/>
<path d="m 1344.44 824.569 h 3.4696 v 3.4696 h -3.4696 z" fill="#fff" transform="matrix(.40049,.9163,-.40049,.9163,0,0)"/>
<path d="m 211.849 1979.6 c 0 1.0489 -0.8503 1.8992 -1.8991 1.8992 s -1.8991 -0.8503 -1.8991 -1.8992 0.8503 -1.8991 1.8991 -1.8991 1.8991 0.8503 1.8991 1.8991 z" fill="#fff" transform="matrix(.85915,0,0,.85915,29.14235,278.49595)"/>
</g>
</svg>
