<svg xmlns="http://www.w3.org/2000/svg" viewBox="0 0 512 512">
<g transform="matrix(14.99979 0 0 14.99979 15.99999 -3949.3737)">
<use width="744.094" height="1052.362" transform="translate(36 260.36218)"/>
<path fill="#800" d="m16,264.3622c-8,0-16,4-16,10 0,4 3,6 3,10 0,3-1,3-1,5 0,1 3.2008,2.1336 6,3v4h8 8v-4c0,0 6.0379-1.8638 6-3-.0621-1.8632-1-2-1-5 0-2 3.0429-6.0948 3-10 0-6-8-10-16-10zm-6,12c2.2091,0 4,1.7909 4,4 0,2.2091-1.7909,4-4,4-2.2091,0-4-1.7909-4-4 0-2.2091 1.7909-4 4-4zm12,0c2.2091,0 4,1.7909 4,4 0,2.2091-1.7909,4-4,4-2.2091,0-4-1.7909-4-4 0-2.2091 1.7909-4 4-4zm-6,7c1,0 3,4 3,5 0,2 0,2-1,2h-4c-1,0-1,0-1-2 0-1 2-5 3-5z"/>
</g>
</svg>
