<svg viewBox="0 0 512 512" xmlns="http://www.w3.org/2000/svg">

<g transform="matrix(18.68858,0,0,18.68858,-13168.09738,-41514.84833)">
<path d="m 723.097 2244.23 c 2.6734 3.2064 -5.7374 6.407 -8.0116 1.3724 -1.2287 -2.72 1.9225 -12.7965 4.854 -11.104 2.6625 1.5372 -0.7363 5.0613 3.1576 9.7316 z" fill="#fff" stroke="#000"/>
<path d="m 728.931 2233.62 c 0 2.2132 -4.7404 4.0977 -10.5331 4.0977 s -10.4442 -1.7953 -10.4442 -4.0977 c 0 -3.1485 3.3626 -11.714 11.1109 -11.714 7.0371 0 9.8665 8.5655 9.8665 11.714 z" fill="#fff"/>
<path d="m 722.844 2232.49 c 1.4475 -0.8821 2.4505 -2.2167 2.4565 -3.914 0.0234 -6.5531 -13.1444 -5.8656 -13.0561 0.042 0.0365 2.4416 1.4389 3.9353 3.3121 4.6271"/>
<path d="m 716.052 2232.03 -0.5595 5.1572 c 2.5232 0.5199 5.8972 0.1766 8.4204 -0.5434 l -1.5194 -5.0133"/>
<path d="m 718.088 2231.7 0.0806 5.5425" fill="none" stroke="#fff"/>
<path d="m 720.318 2231.45 0.9472 5.8753" fill="none" stroke="#fff"/>
<path d="m 718.957 2228.57 c -0.7785 0.715 -1.3249 2.0323 0.0824 2.0586 1.6703 0.031 0.7051 -1.3263 -0.0824 -2.0586 z" fill="#fff"/>
<path d="m 713.914 2228.88 c 3.0519 0.8875 5.8127 -0.7483 2.0869 -2.146 -2.2725 -0.8522 -2.1023 0.5847 -2.0869 2.146 z" fill="#fff"/>
<path d="m 723.748 2227.88 c -2.6226 1.4095 -5.4716 0.4502 -2.3312 -1.5582 1.9154 -1.2249 2.0402 0.1248 2.3312 1.5582 z" fill="#fff"/>
<path d="m 715.782 2231.45 -0.5093 5.7622" stroke="#fff"/>
<path d="m 724.105 2236.94 -1.5696 -5.9751" stroke="#fff"/>
<path d="m 728.931 2233.62 c 0 2.2132 -4.7404 4.0977 -10.5331 4.0977 s -10.4442 -1.7953 -10.4442 -4.0977 c 0 -3.1485 3.3626 -11.714 11.1109 -11.714 7.0371 0 9.8665 8.5655 9.8665 11.714 z" fill="none" stroke="#000"/>
</g>
</svg>
