<svg viewBox="0 0 512 512" xmlns="http://www.w3.org/2000/svg">

<g transform="matrix(18.68858,0,0,18.68858,-4992.79939,-19758.034)">
<g transform="translate(528.4631,75.3426)">
<path d="m -235.081 1000 -11.0044 3.8483" fill="none" stroke="#fff"/>
<path d="m -259.919 1000 11.0044 3.8483" fill="none" stroke="#fff"/>
<path d="m -249.881 1004.49 h 4.8988" fill="none" stroke="#fff"/>
<g stroke="#000" transform="translate(-492.159,-76.7136)">
<path d="m 235.677 1073.51 c 4.1711 0.6975 9.3256 -1.7749 9.5051 6.0187" fill="none" stroke="#000"/>
<path d="m 253.706 1073.51 c -4.1711 0.6975 -9.3256 -1.7749 -9.5051 6.0187" fill="none" stroke="#000"/>
</g>
<g transform="translate(-492.159,-76.7136)">
<path d="m 235.844 1074.03 -2.7812 1.9375 11.625 3.8125 11.6562 -3.8125 -2.75 -1.9375 c -3.7445 0.6312 -8.4787 -1.6122 -8.9062 4.7812 -0.4282 -6.3916 -5.0995 -4.1501 -8.8438 -4.7812 z" fill="#fff" fill-rule="evenodd"/>
</g>
<path d="m -235.521 999.094 -11.9446 4.2074 -11.8452 -4.1522" fill="none" stroke="#000"/>
</g>
<path d="m 282.48 1074.36 -1.4932 2.6429 -1.4932 -2.6429" fill="none" stroke="#fff"/>
</g>
<g transform="matrix(18.68858,0,0,18.68858,-4285.40599,-24476.74347)">
<path d="m 245.897 1319.75 1.3626 3.8466 -1.6996 -1.1254 -0.9873 2.0588 -1.6169 -2.0753 -1.6173 1.9837 -0.585 -1.9234 -2.0701 1.203 1.3795 -4.0006 -2.6282 0.4242 -0.9816 -3.771 4.2569 -3.7768 4.3418 -0.013 4.3417 3.9047 -1.0111 3.5905 -2.4855 -0.3259 z" fill="#fff" fill-rule="evenodd"/>
<path d="m 247.285 1317.8 -3.3148 -0.5022 c 0.8742 -2.0536 3.5266 -1.9427 3.3148 0.5022 z" fill-rule="evenodd"/>
<path d="m 242.976 1317.92 -1.1924 3.0352 h 2.5654 l -1.3731 -3.0352 z" fill-rule="evenodd"/>
<path d="m 238.911 1317.8 3.3148 -0.5022 c -0.8742 -2.0536 -3.5266 -1.9427 -3.3148 0.5022 z" fill-rule="evenodd"/>
</g>
</svg>
