<svg viewBox="0 0 512 512" xmlns="http://www.w3.org/2000/svg">

<g transform="matrix(18.68858,0,0,18.68858,-13168.09738,-41514.84833)">
<path d="m723.0975,2244.2319c2.6734,3.2064-5.7374,6.407-8.0116,1.3724-1.2287-2.72 1.9225-12.7965 4.854-11.104 2.6625,1.5372-.7363,5.0613 3.1576,9.7316z" fill="#fff" stroke="#000"/>
<path d="m728.931,2233.6218c0,2.2132-4.7404,4.0977-10.5331,4.0977s-10.4442-1.7953-10.4442-4.0977c0-3.1485 3.3626-11.714 11.1109-11.714 7.0371,0 9.8665,8.5655 9.8665,11.714z" fill="#fff"/>
<path d="m722.8438,2232.4882c1.4475-.8821 2.4505-2.2167 2.4565-3.914 .0234-6.5531-13.1444-5.8656-13.0561.042 .0365,2.4416 1.4389,3.9353 3.3121,4.6271"/>
<path d="m716.0517,2232.0253-.5595,5.1572c2.5232.5199 5.8972.1766 8.4204-.5434l-1.5194-5.0133"/>
<path d="m718.0883,2231.7029 .0806,5.5425" fill="none" stroke="#fff"/>
<path d="m720.3184,2231.4525 .9472,5.8753" fill="none" stroke="#fff"/>
<path d="m718.9566,2228.5716c-.7785.715-1.3249,2.0323.0824,2.0586 1.6703.031.7051-1.3263-.0824-2.0586z" fill="#fff"/>
<path d="m713.9143,2228.8801c3.0519.8875 5.8127-.7483 2.0869-2.146-2.2725-.8522-2.1023.5847-2.0869,2.146z" fill="#fff"/>
<path d="m723.7481,2227.8843c-2.6226,1.4095-5.4716.4502-2.3312-1.5582 1.9154-1.2249 2.0402.1248 2.3312,1.5582z" fill="#fff"/>
<path d="m715.7819,2231.4477-.5093,5.7622" stroke="#fff"/>
<path d="m724.1047,2236.941-1.5696-5.9751" stroke="#fff"/>
<path d="m728.931,2233.6218c0,2.2132-4.7404,4.0977-10.5331,4.0977s-10.4442-1.7953-10.4442-4.0977c0-3.1485 3.3626-11.714 11.1109-11.714 7.0371,0 9.8665,8.5655 9.8665,11.714z" fill="none" stroke="#000"/>
</g>
</svg>
