<svg viewBox="0 0 512 512" xmlns="http://www.w3.org/2000/svg">

<g transform="matrix(18.68858,0,0,18.68858,-3633.77597,-27902.40787)">
<path d="m199.8108,1511.9134c-2.6836.7292-4.4171,1.8093-4.4171,3.0074 0,2.1948 5.6999,3.9785 12.7188,3.9785s12.7188-1.7837 12.7188-3.9785c0-1.1938-1.7187-2.2783-4.3858-3.0074 .922.4751 1.4724,1.03 1.4724,1.629 0,1.7192-4.4043,3.1327-9.8053,3.1327s-9.774-1.4136-9.774-3.1327c0-.6022.541-1.1523 1.4724-1.629z" fill="#fff"/>
<path d="m203.2969,1511.6704-.9747,1.607c2.5269,2.0676 8.1039,2.341 11.3279-.026l-1.0274-1.3172z" fill="#fff"/>
<g transform="matrix(.8808,0,0,.8808,10.5075,182.27025)">
<path d="m234.7548,1502.0026c-4.8296,2.2642-5.5616,4.1371-3.7019,5.8735-3.2734,3.6099-10.9437,3.2303-13.788.035 1.5696-1.4733 1.11-3.7728-3.4449-5.909 0-6.2903 2.8777-13.2169 10.4674-13.2169 7.6544,0 10.4674,7.2617 10.4674,13.2169z" fill="#fff" stroke="#000" stroke-width="1.1353"/>
<path d="m224.069,1503.4551c-.746,1.3254-1.2166,2.6508-1.608,3.9762 1.0095.6747 2.4252.5891 3.2159,0-.2895-1.3254-.8728-2.6508-1.608-3.9762z" fill-rule="evenodd"/>
</g>
<path d="m201.235,1504.796c1.6628,1.1258 3.4417,2.0961 5.5494,1.0191l.0594-1.7972c-2.2852.095-3.5122-.8345-3.9241-2.4606-1.6958.3114-1.9442,1.6031-1.6848,3.2387z"/>
<path d="m214.5939,1504.796c-1.6628,1.1258-3.4416,2.0961-5.5494,1.0191l-.0594-1.7972c2.2852.095 3.5122-.8345 3.9241-2.4606 1.6958.3114 1.9442,1.6031 1.6848,3.2387z"/>
<path d="m204.7,1512.5145-.763,2.0157" fill="none" stroke="#000"/>
<path d="m206.8548,1512.9614-.2435,2.0454" fill="none" stroke="#000"/>
<path d="m211.1571,1512.5146 .7477,1.9893" fill="none" stroke="#000"/>
<path d="m209.0024,1512.9614 .2435,2.0454" fill="none" stroke="#000"/>
<path d="m211.8056,1500.8444c-2.7168.5617-5.3274.5706-7.799-.011 1.1683,2.024 6.4149,2.0224 7.799.011z"/>
<path d="m212.9827,1511.6577 .9368,1.4715" fill="none" stroke="#000"/>
<path d="m202.8172,1511.6577-.9368,1.4715" fill="none" stroke="#000"/>
</g>
</svg>
