<svg viewBox="0 0 512 512" xmlns="http://www.w3.org/2000/svg">

<g transform="matrix(18.68858,0,0,18.68858,2604.74939,-9225.98979)">
<g transform="translate(-709.3648,2.5283)">
<path d="m578.5332,510.3059h2.1921l.5816,7.766h5.5697l.5145-7.766h2.0802c.2539-4.6786-.2077-9.7389-5.553-10.0033-5.2531.027-5.2986,5.9175-5.385,10.0033z" fill="#fff" fill-rule="evenodd" stroke="#000"/>
<path d="m592.2903,496.8414c0,2.2943-1.3653,4.1543-3.0494,4.1543s-3.0494-1.8599-3.0494-4.1543 1.3653-4.1543 3.0494-4.1543 3.0494,1.8599 3.0494,4.1543z" fill="#fff" transform="matrix(-.60299,-.60562,-.60299,.60562,1240.9361,551.20638)"/>
<path d="m591.1976,494.477c8.7429,7.9179-12.9596,6.6962-19.8121-1.5519 8.5653,12.3443 36.1652,10.9793 19.8121,1.5519z" fill="#fff" fill-rule="evenodd"/>
</g>
<path d="m-133,500.7372c4.8587,3.0741 11.711,4.6451 17.0391,3.9375" fill="none" stroke="#000"/>
</g>
</svg>
