<svg viewBox="0 0 512 512" xmlns="http://www.w3.org/2000/svg">

<g transform="matrix(18.68858,0,0,18.68858,-12482.31138,-10912.30148)">
<path d="m682.9569,600.4948 1.0102,7.625c2.9425-1.7024 8.2385.8851 7.5395,2.875h3.6111l-4.442-5.3687c-3.9426,2.6257-6.4913-.9399-6.3618-6.2563l-1.3571,1.125z" fill="#fff" fill-rule="evenodd"/>
<path d="m680.2046,596.5573-6-2.875c1.5688-2.3214 3.2934-3.8284 5.1857-4.5566-2.1153-1.6481-3.3815-2.6806-4.1857-4.7559h-3.5625c5.5347,4.1685 4.6339,6.1917-.375,9.6875l8.25,3.5625 .6875-1.0625z" fill="#fff" fill-rule="evenodd"/>
<path d="m675.1565,591.6127c-2.116-1.8191-4.4209-2.5297-6.7552-3.0683l.3266-1.9155c2.3703.8464 4.7207,1.809 6.9258,3.6242l-.4972,1.3597z" fill="#fff" fill-rule="evenodd"/>
<path d="m679.2671,598.8073-4.8438,3.5312-5.9688-3.4688v2.7308c6.6152.3346 8.6032,6.2894 0,7.3942v2.1875l7.9375-3.7812c-2.8477-3.3763.5896-6.1142 3.5-7.4063l-.625-1.1875z" fill="#fff" fill-rule="evenodd"/>
<path d="m694.3662,602.5875-6.1433.4635c1.8677-3.2907-.8151-4.9158-6.2683-5.17 3.0416-.8884 6.1499-.6925 9.3042-.2088-1.4852,1.293-1.4528,2.2314-1.1842,3.5244l4.5675-.9809-.2758,2.3718z" fill="#fff" fill-rule="evenodd"/>
<path d="m685.6395,595.9607c2.6035-.5746 4.9813-1.4899 7.169-2.6926l-5.0498-2.9966c2.1452-1.4952 4.446-2.0858 7.0368-2.7358 .5289-3.3458-1.2373-3.294-4.0368-2.9526-.8972,2.2782-3.5688,4.3863-6.9599,6.403 2.351.2104 8.5662,1.8354 1.2978,4.0253l.5429.9493z" fill="#fff" fill-rule="evenodd"/>
<path d="m668.517,584.4888h26.3438v26.3438h-26.3438z" fill="none" stroke="#000"/>
<path d="m681.7816,595.5285c1.3416-3.7313 5.7638-1.9152 5.6547.9612-.1023,2.6983-4.4447,3.8518-5.6547,6.477-1.21-2.6252-5.5523-3.7787-5.6547-6.477-.1091-2.8764 4.3131-4.6925 5.6547-.9612z" stroke="#fff"/>
</g>
</svg>
