<svg viewBox="0 0 512 512" xmlns="http://www.w3.org/2000/svg">

<g transform="matrix(18.68858,0,0,18.68858,-12482.31138,-10912.30148)">
<path d="m 682.957 600.495 1.0102 7.625 c 2.9425 -1.7024 8.2385 0.8851 7.5395 2.875 h 3.6111 l -4.442 -5.3687 c -3.9426 2.6257 -6.4913 -0.9399 -6.3618 -6.2563 l -1.3571 1.125 z" fill="#fff" fill-rule="evenodd"/>
<path d="m 680.205 596.557 -6 -2.875 c 1.5688 -2.3214 3.2934 -3.8284 5.1857 -4.5566 -2.1153 -1.6481 -3.3815 -2.6806 -4.1857 -4.7559 h -3.5625 c 5.5347 4.1685 4.6339 6.1917 -0.375 9.6875 l 8.25 3.5625 0.6875 -1.0625 z" fill="#fff" fill-rule="evenodd"/>
<path d="m 675.157 591.613 c -2.116 -1.8191 -4.4209 -2.5297 -6.7552 -3.0683 l 0.3266 -1.9155 c 2.3703 0.8464 4.7207 1.809 6.9258 3.6242 l -0.4972 1.3597 z" fill="#fff" fill-rule="evenodd"/>
<path d="m 679.267 598.807 -4.8438 3.5312 -5.9688 -3.4688 v 2.7308 c 6.6152 0.3346 8.6032 6.2894 0 7.3942 v 2.1875 l 7.9375 -3.7812 c -2.8477 -3.3763 0.5896 -6.1142 3.5 -7.4063 l -0.625 -1.1875 z" fill="#fff" fill-rule="evenodd"/>
<path d="m 694.366 602.587 -6.1433 0.4635 c 1.8677 -3.2907 -0.8151 -4.9158 -6.2683 -5.17 3.0416 -0.8884 6.1499 -0.6925 9.3042 -0.2088 -1.4852 1.293 -1.4528 2.2314 -1.1842 3.5244 l 4.5675 -0.9809 -0.2758 2.3718 z" fill="#fff" fill-rule="evenodd"/>
<path d="m 685.639 595.961 c 2.6035 -0.5746 4.9813 -1.4899 7.169 -2.6926 l -5.0498 -2.9966 c 2.1452 -1.4952 4.446 -2.0858 7.0368 -2.7358 0.5289 -3.3458 -1.2373 -3.294 -4.0368 -2.9526 -0.8972 2.2782 -3.5688 4.3863 -6.9599 6.403 2.351 0.2104 8.5662 1.8354 1.2978 4.0253 l 0.5429 0.9493 z" fill="#fff" fill-rule="evenodd"/>
<path d="m 668.517 584.489 h 26.3438 v 26.3438 h -26.3438 z" fill="none" stroke="#000"/>
<path d="m 681.782 595.529 c 1.3416 -3.7313 5.7638 -1.9152 5.6547 0.9612 -0.1023 2.6983 -4.4447 3.8518 -5.6547 6.477 -1.21 -2.6252 -5.5523 -3.7787 -5.6547 -6.477 -0.1091 -2.8764 4.3131 -4.6925 5.6547 -0.9612 z" stroke="#fff"/>
</g>
</svg>
