<svg viewBox="0 0 512 512" xmlns="http://www.w3.org/2000/svg">

<g transform="matrix(18.68858,0,0,18.68858,-8397.75623,-37446.66609)">
<path d="m455.9187,2004.9037v4.5145l7.6246,9.4519 7.6246-9.4519v-4.5145h-2.6174v2.1294h-1.5932v-2.1294h-2.6459v2.1294h-1.5648v-2.1294h-2.6459v2.1294h-1.5647v-2.1294h-2.6174z" fill="#fff"/>
<path d="m458.7749,2012.1831h9.537v13.6916h-9.537z" fill="#fff" stroke="#fff"/>
<path d="m475.8962,2030.0793-4.5134-2.7715 2.9297-4.1174-5.3573,1.3782-1.7169-4.8542-3.0781,3.8248-2.8335-8.5838-2.3755,7.7599-4.7509-3.8007 1.9795,5.7803-5.226.2375 2.613,2.613-2.6922,2.5339" fill="#fff" stroke="#000"/>
<path d="m461.6494,2023.2768-1.5342,4.4917-3.029-1.1023 .9101,1.9936-2.0509,1.934h12.5882l1.4555-2.0456-3.4224.3816-.1099-2.9726-3.056,2.3038z"/>
</g>
</svg>
