<svg viewBox="0 0 512 512" xmlns="http://www.w3.org/2000/svg">

<g transform="matrix(18.68858,0,0,18.68858,-8397.75623,-37446.66609)">
<path d="m 455.919 2004.9 v 4.5145 l 7.6246 9.4519 7.6246 -9.4519 v -4.5145 h -2.6174 v 2.1294 h -1.5932 v -2.1294 h -2.6459 v 2.1294 h -1.5648 v -2.1294 h -2.6459 v 2.1294 h -1.5647 v -2.1294 h -2.6174 z" fill="#fff"/>
<path d="m 458.775 2012.18 h 9.537 v 13.6916 h -9.537 z" fill="#fff" stroke="#fff"/>
<path d="m 475.896 2030.08 -4.5134 -2.7715 2.9297 -4.1174 -5.3573 1.3782 -1.7169 -4.8542 -3.0781 3.8248 -2.8335 -8.5838 -2.3755 7.7599 -4.7509 -3.8007 1.9795 5.7803 -5.226 0.2375 2.613 2.613 -2.6922 2.5339" fill="#fff" stroke="#000"/>
<path d="m 461.649 2023.28 -1.5342 4.4917 -3.029 -1.1023 0.9101 1.9936 -2.0509 1.934 h 12.5882 l 1.4555 -2.0456 -3.4224 0.3816 -0.1099 -2.9726 -3.056 2.3038 z"/>
</g>
</svg>
