<svg viewBox="0 0 512 512" xmlns="http://www.w3.org/2000/svg">

<g transform="matrix(18.68858,0,0,18.68858,-914.99831,-38100.82806)">
<path d="m 70.1875 2048.88 c -2.0387 9.2702 -8.8724 14.7372 -20.3438 13.25 10.7606 7.7701 22.678 -1.0941 23 -12.9062 l -2.6562 -0.3438 z" fill="#fff"/>
<path d="m 55.3125 2049.31 -2.75 0.375 c 0.619 11.5765 12.382 20.1046 23 12.4375 -11.2877 1.4634 -18.0926 -3.8112 -20.25 -12.8125 z" fill="#fff"/>
<path d="m 67.3747 2048.16 7.9915 1.2456 -0.4756 3.0876 c -1.7841 -2.4528 -5.4425 -3.1215 -7.9915 -1.2456 z" fill="#fff"/>
<path d="m 55.617 2044.06 c 0 0.5049 -0.5458 0.9143 -1.219 0.9143 s -1.219 -0.4094 -1.219 -0.9143 0.5458 -0.9142 1.219 -0.9142 1.219 0.4093 1.219 0.9142 z" fill="#fff" transform="matrix(-1.09072,.25882,.29226,.96593,-467.06993,52.48974)"/>
<path d="m 58.1145 2048.16 -7.9915 1.2456 0.4756 3.0876 c 1.7841 -2.4528 5.4425 -3.1215 7.9915 -1.2456 z" fill="#fff"/>
<path d="m 55.617 2044.06 c 0 0.5049 -0.5458 0.9143 -1.219 0.9143 s -1.219 -0.4094 -1.219 -0.9143 0.5458 -0.9142 1.219 -0.9142 1.219 0.4093 1.219 0.9142 z" fill="#fff" transform="matrix(1.09072,.25882,-.29226,.96593,592.55908,52.48974)"/>
<path d="m 55.617 2044.06 c 0 0.5049 -0.5458 0.9143 -1.219 0.9143 s -1.219 -0.4094 -1.219 -0.9143 0.5458 -0.9142 1.219 -0.9142 1.219 0.4093 1.219 0.9142 z" fill="#fff" transform="matrix(.5117,.17789,-.18729,.44993,409.86521,1110.741)"/>
<path d="m 55.617 2044.06 c 0 0.5049 -0.5458 0.9143 -1.219 0.9143 s -1.219 -0.4094 -1.219 -0.9143 0.5458 -0.9142 1.219 -0.9142 1.219 0.4093 1.219 0.9142 z" fill="#fff" transform="matrix(-.5117,.17789,.18729,.44993,-284.29689,1110.741)"/>
<path d="m 57.0031 2061.58 c 2.3234 -0.361 5.0035 -1.3551 6.7597 -2.7999" fill="none" stroke="#000"/>
<path d="m 62.0237 2065.04 c 2.2333 -0.7448 4.6797 -2.183 6.3564 -3.8575" fill="none" stroke="#000"/>
<path d="m 54.0086 2041.08 0.7858 0.1022 c -0.4542 2.2898 -0.533 5.0588 0.0741 7.3581 l -2.1595 0.3045 c -0.211 -2.6284 0.1027 -5.5572 1.2996 -7.7648 z" fill="#fff"/>
<path d="m 71.4206 2041.08 -0.7858 0.1022 c 0.4542 2.2898 0.533 5.0588 -0.0741 7.3581 l 2.1595 0.3045 c 0.211 -2.6284 -0.1027 -5.5572 -1.2996 -7.7648 z" fill="#fff"/>
<path d="m 56.1884 2050.25 c 0 1.3149 -0.7334 2.3809 -1.638 2.3809 s -1.638 -1.066 -1.638 -2.3809 0.7334 -2.3809 1.638 -2.3809 1.638 1.066 1.638 2.3809 z" fill="#fff" stroke="#000" transform="matrix(.9835,-.18089,.18089,.9835,-370.42211,43.57461)"/>
<path d="m 56.1884 2050.25 c 0 1.3149 -0.7334 2.3809 -1.638 2.3809 s -1.638 -1.066 -1.638 -2.3809 0.7334 -2.3809 1.638 -2.3809 1.638 1.066 1.638 2.3809 z" fill="#fff" stroke="#000" transform="matrix(-.9835,-.18089,-.18089,.9835,495.86517,43.57461)"/>
</g>
</svg>
