<svg viewBox="0 0 512 512" xmlns="http://www.w3.org/2000/svg">

<g transform="matrix(18.68858,0,0,18.68858,-2099.78913,-331.72679)">
<path d="m 119.344 33.0663 c 0 -16.3956 13.4903 -16.4085 13.4903 0 -2.9064 2.2808 -3.3509 5.6855 -3.3509 9.8334 -2.3534 2.0498 -4.8319 2.1146 -7.0603 0 0 -4.2826 -0.7663 -7.501 -3.0791 -9.8334 z" fill="#fff" fill-rule="evenodd" stroke="#000"/>
<path d="m 124.415 44.4176 c 0.3134 -2.0423 0.0643 -4.0043 0 -5.9927 l 1.5019 2.2051 1.5824 -2.2323 c -0.0423 2.058 -0.226 4.1159 0 6.1739" fill="none" stroke="#000"/>
<path d="m 151.312 39.0496 c 0 1.6569 -0.7555 3 -1.6875 3 s -1.6875 -1.3431 -1.6875 -3 0.7555 -3 1.6875 -3 1.6875 1.3431 1.6875 3 z" stroke="#fff" transform="matrix(1,0,.0625,1,-30.08313,-6.67969)"/>
<path d="m 151.312 39.0496 c 0 1.6569 -0.7555 3 -1.6875 3 s -1.6875 -1.3431 -1.6875 -3 0.7555 -3 1.6875 -3 1.6875 1.3431 1.6875 3 z" stroke="#fff" transform="matrix(-1,0,-.0625,1,282.26685,-6.67969)"/>
<path d="m 133.655 23.1583 c 1e-05 -3.432 -4.3232 -4.2939 -4.3232 1.4671 0 4.9953 5.854 7.149 8.4062 4.5969 1.8075 -1.8074 2.0554 -4.3512 0.0662 -6.6074 -0.4253 5.3104 -4.1491 4.2116 -4.1491 0.5434 z" fill="#fff" stroke="#000"/>
<path d="m 118.373 23.1203 c 0 -3.432 4.3233 -4.2939 4.3233 1.4671 0 4.9953 -5.854 7.149 -8.4062 4.5969 -1.8075 -1.8074 -2.0554 -4.3512 -0.0662 -6.6074 0.4253 5.3104 4.1491 4.2116 4.1491 0.5434 z" fill="#fff" stroke="#000"/>
</g>
</svg>
