<svg viewBox="0 0 512 512" xmlns="http://www.w3.org/2000/svg">

<g transform="matrix(18.68858,0,0,18.68858,-11121.90532,-31322.92657)">
<path d="m606.4386,1683.5303c-2.428,5.1772-3.0786,9.9319-2.8853,16.6192l2.5648-.078c-.188-6.5032.3914-10.6267 2.6449-15.4318l-2.3243-1.1082z" fill="#fff" stroke="#000"/>
<g transform="matrix(.88273,-.13235,.13235,.88273,-150.68916,278.49216)">
<path d="m615.5482,1688.0046 2.6925,7.5989" fill="none" stroke="#fff" stroke-width="1.1203"/>
<path d="m617.0463,1686.9912 5.0149,4.2911" fill="none" stroke="#fff" stroke-width="1.1203"/>
<path d="m618.0809,1685.1837 4.7193.8232" fill="none" stroke="#fff" stroke-width="1.1203"/>
<path d="m618.0033,1682.8166 5.363-1.8565" fill="none" stroke="#fff" stroke-width="1.1203"/>
<path d="m613.6265,1688.0929-1.4677,7.9271" fill="none" stroke="#fff" stroke-width="1.1203"/>
</g>
<path d="m614.1135,1699.0964c0,1.7247-1.3982,3.1229-3.1229,3.1229s-3.1229-1.3982-3.1229-3.1229 1.3982-3.1228 3.1229-3.1228 3.1229,1.3981 3.1229,3.1228z" fill="#fff" stroke="#000" stroke-width=".8826" transform="matrix(.56661,-.98097,.9814,.56637,-1399.4878,1320.9619)"/>
<path d="m607.875,1676.625c-1.0803.058-2.2142.9328-2.8125,1.9688-.798,1.3816-.8722,3.463.4375,4.2187l4.7188,2.7187c.2089,1.4518.9144,2.9095 2.0625,4.0938l5.9375-10.2812c-1.6064-.4025-3.2278-.3009-4.5938.25l-4.7188-2.7188c-.3273-.1889-.6711-.2693-1.0312-.25z" fill="#fff" stroke="#000"/>
<path d="m602.0592,1700.2663c-2.3043-.5574-4.233-.3504-6.8075.4328l.2888.9579c2.4924-.7582 4.1694-.9096 6.3002-.394l.2183-.9967z" fill="#fff"/>
<path d="m601.9512,1699.2735c-.3597,1.0097-.6458,2.2647-.8045,3.7265h14.652c-.1587-1.4583-.4332-2.7177-.792-3.7265-4.3518-1.2455-8.7037-1.1619-13.0555,0z" fill="#fff" stroke="#000"/>
<path d="m622.0206,1678.4267v16.3886" fill="none" stroke="#000"/>
<path d="m595.6286,1699.0455v4.2567" fill="none" stroke="#000"/>
<path d="m602.6422,1696.8921 3.8172-.064" fill="none" stroke="#000"/>
<path d="m605.0295,1685.4356 3.5353,1.3488" fill="none" stroke="#000"/>
<path d="m604.1045,1687.6731 3.649,1.0013" fill="none" stroke="#000"/>
<path d="m603.6083,1689.9066 3.6972.8051" fill="none" stroke="#000"/>
<path d="m603.1928,1692.2101 3.7388.3964" fill="none" stroke="#000"/>
<path d="m602.9011,1694.4684 3.8083.1997" fill="none" stroke="#000"/>
</g>
</svg>
