<svg viewBox="0 0 512 512" xmlns="http://www.w3.org/2000/svg">

<g transform="matrix(18.68858,0,0,18.68858,-11121.90532,-31322.92657)">
<path d="m 606.439 1683.53 c -2.428 5.1772 -3.0786 9.9319 -2.8853 16.6192 l 2.5648 -0.078 c -0.188 -6.5032 0.3914 -10.6267 2.6449 -15.4318 l -2.3243 -1.1082 z" fill="#fff" stroke="#000"/>
<g transform="matrix(.88273,-.13235,.13235,.88273,-150.68916,278.49216)">
<path d="m 615.548 1688 2.6925 7.5989" fill="none" stroke="#fff" stroke-width="1.1203"/>
<path d="m 617.046 1686.99 5.0149 4.2911" fill="none" stroke="#fff" stroke-width="1.1203"/>
<path d="m 618.081 1685.18 4.7193 0.8232" fill="none" stroke="#fff" stroke-width="1.1203"/>
<path d="m 618.003 1682.82 5.363 -1.8565" fill="none" stroke="#fff" stroke-width="1.1203"/>
<path d="m 613.626 1688.09 -1.4677 7.9271" fill="none" stroke="#fff" stroke-width="1.1203"/>
</g>
<path d="m 614.114 1699.1 c 0 1.7247 -1.3982 3.1229 -3.1229 3.1229 s -3.1229 -1.3982 -3.1229 -3.1229 1.3982 -3.1228 3.1229 -3.1228 3.1229 1.3981 3.1229 3.1228 z" fill="#fff" stroke="#000" stroke-width=".8826" transform="matrix(.56661,-.98097,.9814,.56637,-1399.4878,1320.9619)"/>
<path d="m 607.875 1676.62 c -1.0803 0.058 -2.2142 0.9328 -2.8125 1.9688 -0.798 1.3816 -0.8722 3.463 0.4375 4.2187 l 4.7188 2.7187 c 0.2089 1.4518 0.9144 2.9095 2.0625 4.0938 l 5.9375 -10.2812 c -1.6064 -0.4025 -3.2278 -0.3009 -4.5938 0.25 l -4.7188 -2.7188 c -0.3273 -0.1889 -0.6711 -0.2693 -1.0312 -0.25 z" fill="#fff" stroke="#000"/>
<path d="m 602.059 1700.27 c -2.3043 -0.5574 -4.233 -0.3504 -6.8075 0.4328 l 0.2888 0.9579 c 2.4924 -0.7582 4.1694 -0.9096 6.3002 -0.394 l 0.2183 -0.9967 z" fill="#fff"/>
<path d="m 601.951 1699.27 c -0.3597 1.0097 -0.6458 2.2647 -0.8045 3.7265 h 14.652 c -0.1587 -1.4583 -0.4332 -2.7177 -0.792 -3.7265 -4.3518 -1.2455 -8.7037 -1.1619 -13.0555 0 z" fill="#fff" stroke="#000"/>
<path d="m 622.021 1678.43 v 16.3886" fill="none" stroke="#000"/>
<path d="m 595.629 1699.05 v 4.2567" fill="none" stroke="#000"/>
<path d="m 602.642 1696.89 3.8172 -0.064" fill="none" stroke="#000"/>
<path d="m 605.029 1685.44 3.5353 1.3488" fill="none" stroke="#000"/>
<path d="m 604.105 1687.67 3.649 1.0013" fill="none" stroke="#000"/>
<path d="m 603.608 1689.91 3.6972 0.8051" fill="none" stroke="#000"/>
<path d="m 603.193 1692.21 3.7388 0.3964" fill="none" stroke="#000"/>
<path d="m 602.901 1694.47 3.8083 0.1997" fill="none" stroke="#000"/>
</g>
</svg>
