<svg viewBox="0 0 512 512" xmlns="http://www.w3.org/2000/svg">

<g transform="matrix(18.68858,0,0,18.68858,-227.60148,-25182.738)">
<path d="m17.7847,1370.3955v-22.1983" fill="none" stroke="#fff"/>
<path d="m20.6779,1363.2308v-15.0336" fill="none" stroke="#fff"/>
<path d="m23.3646,1361.3594v-13.1622" fill="none" stroke="#fff"/>
<path d="m26.0512,1360.2365v-12.0393" fill="none" stroke="#fff"/>
<path d="m28.669,1360.1296v-11.9324" fill="none" stroke="#fff"/>
<path d="m31.5623,1360.29v-12.0928" fill="none" stroke="#fff"/>
<path d="m34.2489,1360.1296v-11.9324" fill="none" stroke="#fff"/>
<path d="m36.9355,1360.4504v-12.2532" fill="none" stroke="#fff"/>
<g transform="matrix(.91195,0,0,.91195,-57.88171,1180.07669)">
<path d="m100.3208,202.3535c0,1.7696-.9794,3.2041-2.1876,3.2041s-2.1876-1.4345-2.1876-3.2041 .9794-3.2041 2.1876-3.2041 2.1876,1.4345 2.1876,3.2041z" fill="#fff" stroke="#000" stroke-width=".7324" transform="matrix(1.12433,1.05866,-.99297,1.05866,192.01749,-118.48264)"/>
<path d="m88.0877,209.7613h-7.0009l-1.552,2.8012h15.0891l-5.1915-6.0582c1.4241-1.5671 3.9579-2.5645 5.6913-2.6442 .8093,2.6461 2.1269,6.6595 4.209,8.7023h3.5713c-2.7516-2.9737-4.8367-7.0598-4.8536-11.6694l.6072-2.2245c-5.453-3.4194-19.4624,4.4087-10.5698,11.0927z" fill="#fff"/>
<path d="m84.6775,204.74c.4388-5.7718 9.4332-8.8421 14.166-6.6214" fill="none" stroke="#000" stroke-width="1.0966"/>
</g>
<path d="m15.098,1372.053v-23.8558" fill="none" stroke="#fff"/>
<path d="m20.9519,1370.8546h-4.9793l-2.4676,3.6091" fill="none" stroke="#000"/>
<path d="m12.2195,1348.0187h26.4276" fill="none" stroke="#000"/>
</g>
</svg>
