<svg viewBox="0 0 512 512" xmlns="http://www.w3.org/2000/svg">

<g transform="matrix(18.68858,0,0,18.68858,-227.60148,-25182.738)">
<path d="m 17.7847 1370.4 v -22.1983" fill="none" stroke="#fff"/>
<path d="m 20.6779 1363.23 v -15.0336" fill="none" stroke="#fff"/>
<path d="m 23.3646 1361.36 v -13.1622" fill="none" stroke="#fff"/>
<path d="m 26.0512 1360.24 v -12.0393" fill="none" stroke="#fff"/>
<path d="m 28.669 1360.13 v -11.9324" fill="none" stroke="#fff"/>
<path d="m 31.5623 1360.29 v -12.0928" fill="none" stroke="#fff"/>
<path d="m 34.2489 1360.13 v -11.9324" fill="none" stroke="#fff"/>
<path d="m 36.9355 1360.45 v -12.2532" fill="none" stroke="#fff"/>
<g transform="matrix(.91195,0,0,.91195,-57.88171,1180.07669)">
<path d="m 100.321 202.353 c 0 1.7696 -0.9794 3.2041 -2.1876 3.2041 s -2.1876 -1.4345 -2.1876 -3.2041 0.9794 -3.2041 2.1876 -3.2041 2.1876 1.4345 2.1876 3.2041 z" fill="#fff" stroke="#000" stroke-width=".7324" transform="matrix(1.12433,1.05866,-.99297,1.05866,192.01749,-118.48264)"/>
<path d="m 88.0877 209.761 h -7.0009 l -1.552 2.8012 h 15.0891 l -5.1915 -6.0582 c 1.4241 -1.5671 3.9579 -2.5645 5.6913 -2.6442 0.8093 2.6461 2.1269 6.6595 4.209 8.7023 h 3.5713 c -2.7516 -2.9737 -4.8367 -7.0598 -4.8536 -11.6694 l 0.6072 -2.2245 c -5.453 -3.4194 -19.4624 4.4087 -10.5698 11.0927 z" fill="#fff"/>
<path d="m 84.6775 204.74 c 0.4388 -5.7718 9.4332 -8.8421 14.166 -6.6214" fill="none" stroke="#000" stroke-width="1.0966"/>
</g>
<path d="m 15.098 1372.05 v -23.8558" fill="none" stroke="#fff"/>
<path d="m 20.9519 1370.85 h -4.9793 l -2.4676 3.6091" fill="none" stroke="#000"/>
<path d="m 12.2195 1348.02 h 26.4276" fill="none" stroke="#000"/>
</g>
</svg>
