<svg viewBox="0 0 512 512" xmlns="http://www.w3.org/2000/svg">

<g transform="matrix(18.68858,0,0,18.68858,-4995.37818,-32681.4877)">
<path d="m278.5409,1753.8931-1.1943,4.6093c-3.1235-1.6234-5.277-.866-6.2622,1.5347-.9797,2.3872-.0385,5.8289 3.1297,5.8236-1.6808.9205-4.9179-.4903-5.5791-2.6876-1.8279-6.0753 4.1208-11.8052 9.9058-9.28z" fill="#fff"/>
<path d="m283.3312,1753.8931 1.1943,4.6093c3.1235-1.6234 5.277-.866 6.2622,1.5347 .9797,2.3872.0385,5.8289-3.1297,5.8236 1.6808.9205 4.9179-.4903 5.5791-2.6876 1.8279-6.0753-4.1208-11.8052-9.9058-9.28z" fill="#fff"/>
<path d="m288.1119,1764.1797h-14.4669c0-6.689 1.3881-12.1117 7.2335-12.1117s7.2335,5.4227 7.2335,12.1117z" fill="#fff" stroke="#000"/>
<path d="m284.4983,1766.4113h-7.2115c0-3.3431.6919-6.0533 3.6057-6.0533s3.6057,2.7102 3.6057,6.0533z" fill="#fff"/>
<g transform="matrix(1.12341,0,0,1.12341,-33.9365,-219.40671)">
<path d="m276.4531,1774.1084c-.528,1.9705-3.4309,1.3304-2.8684-.7686 .2122-.7922 2.6764-4.2519 2.6764-4.2519s.4042,4.2284.192,5.0205z" fill="#fff"/>
<path d="m283.9437,1774.1084c.528,1.9705 3.4309,1.3304 2.8684-.7686-.2122-.7922-2.6764-4.2519-2.6764-4.2519s-.4042,4.2284-.192,5.0205z" fill="#fff"/>
<path d="m280.7552,1773.8604c.1582,1.4991 2.3508,1.3666 2.1823-.2303-.0635-.6027-1.4634-3.4121-1.4634-3.4121s-.7825,3.0397-.7189,3.6424z" fill="#fff"/>
<path d="m279.7263,1773.8604c-.1582,1.4991-2.3508,1.3666-2.1823-.2303 .0635-.6027 1.4634-3.4121 1.4634-3.4121s.7825,3.0397.7189,3.6424z" fill="#fff"/>
<path d="m277.0423,1767.4742c.2799-1.4812 2.4545-1.1703 2.1562.4075-.1124.5955-1.7367,3.2814-1.7367,3.2814s-.532-3.0934-.4195-3.6889z" fill="#fff"/>
<path d="m283.4495,1767.4742c-.2799-1.4812-2.4545-1.1703-2.1562.4075 .1124.5955 1.7367,3.2814 1.7367,3.2814s.532-3.0934.4195-3.6889z" fill="#fff"/>
<path d="m279.0567,1767.417c-1e-05-1.6407 2.3883-1.7477 2.3883,0 6e-05,.6596-1.1941,3.8602-1.1941,3.8602s-1.1942-3.2007-1.1942-3.8602z" fill="#fff"/>
</g>
<path d="m278.7739,1761.3042h4.2091l-2.1045,4.3609z"/>
<path d="m277.7585,1760.8039h6.2398l-3.1199,2.1376z" fill="#fff"/>
<path d="m279.0521,1762.4222c0,.8055-.653,1.4585-1.4584,1.4585s-1.4584-.653-1.4584-1.4585 .653-1.4584 1.4584-1.4584 1.4584.653 1.4584,1.4584z" transform="matrix(1.10961,0,0,1.10961,-30.4007,-196.48256)"/>
<path d="m279.0521,1762.4222c0,.8055-.653,1.4585-1.4584,1.4585s-1.4584-.653-1.4584-1.4585 .653-1.4584 1.4584-1.4584 1.4584.653 1.4584,1.4584z" transform="matrix(1.10961,0,0,1.10961,-23.88253,-196.48256)"/>
<path d="m285.1991,1755.0199h-8.6413c0,2.488.8291,4.505 4.3206,4.505s4.3206-2.017 4.3206-4.505z" fill="#fff"/>
<path d="m282.5308,1754.2605c0,1.101-.8926,1.9936-1.9936,1.9936s-1.9936-.8926-1.9936-1.9936 .8926-1.9936 1.9936-1.9936 1.9936.8926 1.9936,1.9936z" fill="#fff" stroke="#000" stroke-width=".8663" transform="matrix(1.15436,0,0,1.15436,-42.80935,-271.30033)"/>
<path d="m279.1924,1753.5926c-2e-05,2.5278 3.6797,2.6927 3.6797,0 9e-05-1.0163-1.8398-4.0208-1.8398-4.0208s-1.8399,3.0047-1.8399,4.0208z" fill="#fff"/>
</g>
</svg>
