<svg viewBox="0 0 512 512" xmlns="http://www.w3.org/2000/svg">

<g transform="matrix(18.68858,0,0,18.68858,-4995.37818,-32681.4877)">
<path d="m 278.541 1753.89 -1.1943 4.6093 c -3.1235 -1.6234 -5.277 -0.866 -6.2622 1.5347 -0.9797 2.3872 -0.0385 5.8289 3.1297 5.8236 -1.6808 0.9205 -4.9179 -0.4903 -5.5791 -2.6876 -1.8279 -6.0753 4.1208 -11.8052 9.9058 -9.28 z" fill="#fff"/>
<path d="m 283.331 1753.89 1.1943 4.6093 c 3.1235 -1.6234 5.277 -0.866 6.2622 1.5347 0.9797 2.3872 0.0385 5.8289 -3.1297 5.8236 1.6808 0.9205 4.9179 -0.4903 5.5791 -2.6876 1.8279 -6.0753 -4.1208 -11.8052 -9.9058 -9.28 z" fill="#fff"/>
<path d="m 288.112 1764.18 h -14.4669 c 0 -6.689 1.3881 -12.1117 7.2335 -12.1117 s 7.2335 5.4227 7.2335 12.1117 z" fill="#fff" stroke="#000"/>
<path d="m 284.498 1766.41 h -7.2115 c 0 -3.3431 0.6919 -6.0533 3.6057 -6.0533 s 3.6057 2.7102 3.6057 6.0533 z" fill="#fff"/>
<g transform="matrix(1.12341,0,0,1.12341,-33.9365,-219.40671)">
<path d="m 276.453 1774.11 c -0.528 1.9705 -3.4309 1.3304 -2.8684 -0.7686 0.2122 -0.7922 2.6764 -4.2519 2.6764 -4.2519 s 0.4042 4.2284 0.192 5.0205 z" fill="#fff"/>
<path d="m 283.944 1774.11 c 0.528 1.9705 3.4309 1.3304 2.8684 -0.7686 -0.2122 -0.7922 -2.6764 -4.2519 -2.6764 -4.2519 s -0.4042 4.2284 -0.192 5.0205 z" fill="#fff"/>
<path d="m 280.755 1773.86 c 0.1582 1.4991 2.3508 1.3666 2.1823 -0.2303 -0.0635 -0.6027 -1.4634 -3.4121 -1.4634 -3.4121 s -0.7825 3.0397 -0.7189 3.6424 z" fill="#fff"/>
<path d="m 279.726 1773.86 c -0.1582 1.4991 -2.3508 1.3666 -2.1823 -0.2303 0.0635 -0.6027 1.4634 -3.4121 1.4634 -3.4121 s 0.7825 3.0397 0.7189 3.6424 z" fill="#fff"/>
<path d="m 277.042 1767.47 c 0.2799 -1.4812 2.4545 -1.1703 2.1562 0.4075 -0.1124 0.5955 -1.7367 3.2814 -1.7367 3.2814 s -0.532 -3.0934 -0.4195 -3.6889 z" fill="#fff"/>
<path d="m 283.45 1767.47 c -0.2799 -1.4812 -2.4545 -1.1703 -2.1562 0.4075 0.1124 0.5955 1.7367 3.2814 1.7367 3.2814 s 0.532 -3.0934 0.4195 -3.6889 z" fill="#fff"/>
<path d="m 279.057 1767.42 c -1e-05 -1.6407 2.3883 -1.7477 2.3883 0 6e-05 0.6596 -1.1941 3.8602 -1.1941 3.8602 s -1.1942 -3.2007 -1.1942 -3.8602 z" fill="#fff"/>
</g>
<path d="m 278.774 1761.3 h 4.2091 l -2.1045 4.3609 z"/>
<path d="m 277.759 1760.8 h 6.2398 l -3.1199 2.1376 z" fill="#fff"/>
<path d="m 279.052 1762.42 c 0 0.8055 -0.653 1.4585 -1.4584 1.4585 s -1.4584 -0.653 -1.4584 -1.4585 0.653 -1.4584 1.4584 -1.4584 1.4584 0.653 1.4584 1.4584 z" transform="matrix(1.10961,0,0,1.10961,-30.4007,-196.48256)"/>
<path d="m 279.052 1762.42 c 0 0.8055 -0.653 1.4585 -1.4584 1.4585 s -1.4584 -0.653 -1.4584 -1.4585 0.653 -1.4584 1.4584 -1.4584 1.4584 0.653 1.4584 1.4584 z" transform="matrix(1.10961,0,0,1.10961,-23.88253,-196.48256)"/>
<path d="m 285.199 1755.02 h -8.6413 c 0 2.488 0.8291 4.505 4.3206 4.505 s 4.3206 -2.017 4.3206 -4.505 z" fill="#fff"/>
<path d="m 282.531 1754.26 c 0 1.101 -0.8926 1.9936 -1.9936 1.9936 s -1.9936 -0.8926 -1.9936 -1.9936 0.8926 -1.9936 1.9936 -1.9936 1.9936 0.8926 1.9936 1.9936 z" fill="#fff" stroke="#000" stroke-width=".8663" transform="matrix(1.15436,0,0,1.15436,-42.80935,-271.30033)"/>
<path d="m 279.192 1753.59 c -2e-05 2.5278 3.6797 2.6927 3.6797 0 9e-05 -1.0163 -1.8398 -4.0208 -1.8398 -4.0208 s -1.8399 3.0047 -1.8399 4.0208 z" fill="#fff"/>
</g>
</svg>
