<svg viewBox="0 0 512 512" xmlns="http://www.w3.org/2000/svg">

<g transform="matrix(18.68858,0,0,18.68858,-6356.39185,-29261.3517)">
<path d="m 356.395 1575.61 2.0511 -3.1661 -0.5733 -0.9793 -0.9301 0.5766 -0.5472 3.5671 z" fill="#fff" fill-rule="evenodd"/>
<path d="m 354.574 1576.16 -4.6097 0.2547 -0.7694 -0.926 1.1682 -0.7209 z" fill="#fff" fill-rule="evenodd"/>
<path d="m 341.235 1567.49 c 5.6294 1.6192 10.295 4.5495 14.3604 8.2958 -1.3175 -6.0389 -9.2964 -10.7612 -14.3604 -8.2958 z" fill="#fff" fill-rule="evenodd"/>
<path d="m 347.251 1570.48 c 0.794 0.368 1.5383 0.7923 2.223 1.2843 l -6.0228 10.4378 c -1.119 0.047 -1.7763 -0.5492 -2.223 -1.2843 l 6.0228 -10.4378 z" fill="#fff" stroke="#000"/>
<path d="m 354.156 1208.77 c 0 0.7594 -0.7415 1.375 -1.6562 1.375 s -1.6562 -0.6156 -1.6562 -1.375 0.7415 -1.375 1.6562 -1.375 1.6562 0.6156 1.6562 1.375 z" fill="#fff" stroke="#000" stroke-width="1.0946" transform="matrix(.79113,.45685,-.45675,.79126,623.25675,450.51169)"/>
<g transform="matrix(1.37963,-.42596,.42596,1.37963,-813.68607,-451.34706)">
<path d="m 356.594 1581.28 -2.4045 2.4715 5.948 7.9353 5.8847 -7.9352 -2.4045 -2.4715 z" stroke="#fff" stroke-width=".6926"/>
<path d="m 354.618 1583.89 h 11.2058" fill="none" stroke="#fff" stroke-width=".6926"/>
<path d="m 360.221 1591 2.3524 -7.0067 -0.9756 -2.6714" fill="none" stroke="#fff" stroke-width=".6926"/>
<path d="m 360.168 1591.16 -2.4811 -7.1658 0.9756 -2.6714" fill="none" stroke="#fff" stroke-width=".6926"/>
</g>
</g>
</svg>
