<svg viewBox="0 0 512 512" xmlns="http://www.w3.org/2000/svg">

<g transform="matrix(18.68858,0,0,18.68858,-6356.39185,-29261.3517)">
<path d="m356.3947,1575.6108 2.0511-3.1661-.5733-.9793-.9301.5766-.5472,3.5671z" fill="#fff" fill-rule="evenodd"/>
<path d="m354.574,1576.1598-4.6097.2547-.7694-.926 1.1682-.7209z" fill="#fff" fill-rule="evenodd"/>
<path d="m341.2347,1567.4889c5.6294,1.6192 10.295,4.5495 14.3604,8.2958-1.3175-6.0389-9.2964-10.7612-14.3604-8.2958z" fill="#fff" fill-rule="evenodd"/>
<path d="m347.2512,1570.476c.794.368 1.5383.7923 2.223,1.2843l-6.0228,10.4378c-1.119.047-1.7763-.5492-2.223-1.2843l6.0228-10.4378z" fill="#fff" stroke="#000"/>
<path d="m354.1562,1208.7684c0,.7594-.7415,1.375-1.6562,1.375s-1.6562-.6156-1.6562-1.375 .7415-1.375 1.6562-1.375 1.6562.6156 1.6562,1.375z" fill="#fff" stroke="#000" stroke-width="1.0946" transform="matrix(.79113,.45685,-.45675,.79126,623.25675,450.51169)"/>
<g transform="matrix(1.37963,-.42596,.42596,1.37963,-813.68607,-451.34706)">
<path d="m356.5941,1581.2774-2.4045,2.4715 5.948,7.9353 5.8847-7.9352-2.4045-2.4715z" stroke="#fff" stroke-width=".6926"/>
<path d="m354.6181,1583.8852h11.2058" fill="none" stroke="#fff" stroke-width=".6926"/>
<path d="m360.2206,1590.9984 2.3524-7.0067-.9756-2.6714" fill="none" stroke="#fff" stroke-width=".6926"/>
<path d="m360.1684,1591.1575-2.4811-7.1658 .9756-2.6714" fill="none" stroke="#fff" stroke-width=".6926"/>
</g>
</g>
</svg>
