<svg viewBox="0 0 512 512" xmlns="http://www.w3.org/2000/svg">

<path d="m74.5,36h363a38.5,38.5 0 0,1 38.5,38.5v363a38.5,38.5 0 0,1 -38.5,38.5h-363a38.5,38.5 0 0,1 -38.5-38.5v-363a38.5,38.5 0 0,1 38.5-38.5" fill="#fff"/>
<path d="m8.428,184.011a69.882,69.5309 0 1,1 -139.7641,0 69.882,69.5309 0 1,1 139.7641,0z" transform="matrix(0,-.71549,.71911,0,257.67678,212.03015)"/>
<path d="m8.428,184.011a69.882,69.5309 0 1,1 -139.7641,0 69.882,69.5309 0 1,1 139.7641,0z" transform="matrix(0,-.71549,.71911,0,-10.32322,212.03015)"/>
<path d="m8.428,184.011a69.882,69.5309 0 1,1 -139.7641,0 69.882,69.5309 0 1,1 139.7641,0z" transform="matrix(-.71549,0,0,-.71911,346.03015,254.32322)"/>
<path d="m8.428,184.011a69.882,69.5309 0 1,1 -139.7641,0 69.882,69.5309 0 1,1 139.7641,0z" transform="matrix(-.71549,0,0,-.71911,346.03015,522.32322)"/>
<path d="m8.428,184.011a69.882,69.5309 0 1,1 -139.7641,0 69.882,69.5309 0 1,1 139.7641,0z" transform="matrix(-.71549,0,0,-.71911,78.03015,522.32322)"/>
<path d="m8.428,184.011a69.882,69.5309 0 1,1 -139.7641,0 69.882,69.5309 0 1,1 139.7641,0z" transform="matrix(-.71549,0,0,-.71911,78.03015,254.32322)"/>
</svg>
