<svg viewBox="0 0 512 512" xmlns="http://www.w3.org/2000/svg">

<path d="m 74.5 36 h 363 a 38.5 38.5 0 0 1 38.5 38.5 v 363 a 38.5 38.5 0 0 1 -38.5 38.5 h -363 a 38.5 38.5 0 0 1 -38.5 -38.5 v -363 a 38.5 38.5 0 0 1 38.5 -38.5" fill="#fff"/>
<path d="m 8.428 184.011 a 69.882 69.5309 0 1 1 -139.764 0 69.882 69.5309 0 1 1 139.764 0 z" transform="matrix(-.71549,0,0,-.71911,346.03015,254.32322)"/>
<path d="m 8.428 184.011 a 69.882 69.5309 0 1 1 -139.764 0 69.882 69.5309 0 1 1 139.764 0 z" transform="matrix(-.71549,0,0,-.71911,346.03015,522.32322)"/>
<path d="m 8.428 184.011 a 69.882 69.5309 0 1 1 -139.764 0 69.882 69.5309 0 1 1 139.764 0 z" transform="matrix(-.71549,0,0,-.71911,78.03015,522.32322)"/>
<path d="m 8.428 184.011 a 69.882 69.5309 0 1 1 -139.764 0 69.882 69.5309 0 1 1 139.764 0 z" transform="matrix(-.71549,0,0,-.71911,78.03015,254.32322)"/>
</svg>
