<svg viewBox="0 0 512 512" xmlns="http://www.w3.org/2000/svg">

<g transform="matrix(-14.47711,14.47711,-14.47711,-14.47711,20035.18183,7963.07401)">
<path d="m 415.584 937.746 1e-05 20.25 h 2.4184 c -0.0571 -6.7069 0.1708 -13.4801 0.3455 -20.25 h -2.7639 z" fill="#fff" stroke="#000" stroke-width=".9128"/>
<path d="m 419.663 961.855 -5.7083 2e-05 c -1e-05 -2.3493 1.2787 -4.256 2.8541 -4.256 s 2.8542 1.9067 2.8542 4.256 z" fill="none" stroke="#fff" stroke-width=".9128"/>
<path d="m 414.178 960.471 h 5.3643 v 1.1822 h -5.3643 z" fill="#fff"/>
<path d="m 416.95 933.661 c -2.0754 0.5024 -3.7161 3.6411 -3.7161 7.4784 2.2671 -0.482 5.3825 -0.5134 7.4322 1e-05 1e-05 -3.8656 -1.6184 -7.012 -3.7161 -7.4784 z" fill="#fff"/>
</g>
<g transform="matrix(20.47558,0,0,20.47558,-9933.44773,-39559.72156)">
<path d="m 495.636 1933.51 c 5.72 3.4431 9.9922 8.045 13.363 13.3683 0.3308 -7.0363 -7.0606 -14.5883 -13.363 -13.3683 z" fill="#fff" fill-rule="evenodd"/>
<path d="m 354.156 1208.77 c 0 0.7594 -0.7415 1.375 -1.6562 1.375 s -1.6562 -0.6156 -1.6562 -1.375 0.7415 -1.375 1.6562 -1.375 1.6562 0.6156 1.6562 1.375 z" fill="#fff" stroke="#000" stroke-width=".8766" transform="matrix(.73623,.73627,-.73623,.73627,1135.5847,787.1403)"/>
<path d="m 501.506 1938.61 c 0.6859 0.5719 1.3073 1.187 1.8524 1.8527 l -15.8009 15.8049 c -1.1154 -0.2498 -1.6059 -1.011 -1.8523 -1.8529 l 15.8008 -15.8048 z" fill="#fff" stroke="#000" stroke-width=".9127"/>
</g>
</svg>
