<svg viewBox="0 0 512 512" xmlns="http://www.w3.org/2000/svg">

<g transform="matrix(-14.47711,14.47711,-14.47711,-14.47711,20035.18183,7963.07401)">
<path d="m415.5843,937.7463 1e-05,20.25h2.4184c-.0571-6.7069.1708-13.4801.3455-20.25h-2.7639z" fill="#fff" stroke="#000" stroke-width=".9128"/>
<path d="m419.6629,961.8554-5.7083,2e-05c-1e-05-2.3493 1.2787-4.256 2.8541-4.256s2.8542,1.9067 2.8542,4.256z" fill="none" stroke="#fff" stroke-width=".9128"/>
<path d="m414.1779,960.4705h5.3643v1.1822h-5.3643z" fill="#fff"/>
<path d="m416.9504,933.6611c-2.0754.5024-3.7161,3.6411-3.7161,7.4784 2.2671-.482 5.3825-.5134 7.4322,1e-05 1e-05-3.8656-1.6184-7.012-3.7161-7.4784z" fill="#fff"/>
</g>
<g transform="matrix(20.47558,0,0,20.47558,-9933.44773,-39559.72156)">
<path d="m495.6358,1933.509c5.72,3.4431 9.9922,8.045 13.363,13.3683 .3308-7.0363-7.0606-14.5883-13.363-13.3683z" fill="#fff" fill-rule="evenodd"/>
<path d="m354.1562,1208.7684c0,.7594-.7415,1.375-1.6562,1.375s-1.6562-.6156-1.6562-1.375 .7415-1.375 1.6562-1.375 1.6562.6156 1.6562,1.375z" fill="#fff" stroke="#000" stroke-width=".8766" transform="matrix(.73623,.73627,-.73623,.73627,1135.5847,787.1403)"/>
<path d="m501.5056,1938.6127c.6859.5719 1.3073,1.187 1.8524,1.8527l-15.8009,15.8049c-1.1154-.2498-1.6059-1.011-1.8523-1.8529l15.8008-15.8048z" fill="#fff" stroke="#000" stroke-width=".9127"/>
</g>
</svg>
