<svg viewBox="0 0 512 512" xmlns="http://www.w3.org/2000/svg">

<g transform="matrix(18.68858,0,0,18.68858,-11120.28032,-20441.3015)">
<path d="m 608.801 1095.28 c 5.5448 -1.4877 11.3309 2.1111 12.9157 8.0329 s -3.4346 14.5758 -8.9792 16.0632 -15.3292 -3.1946 -16.9138 -9.1161 7.4328 -13.4926 12.9773 -14.98 z" fill="#fff" stroke="#000"/>
<path d="m 620.015 1103.73 c 1.3893 5.191 -3.0106 12.7763 -7.8707 14.0801 -2.9552 0.7929 -7.2842 -0.4136 -10.5361 -2.6479 7.3126 3.3235 17.1298 0.6395 18.4068 -11.4322 z"/>
<path d="m 602.267 1107.04 c 0 0.9688 -0.7853 1.7541 -1.7541 1.7541 s -1.7541 -0.7853 -1.7541 -1.7541 0.7853 -1.7541 1.7541 -1.7541 1.7541 0.7853 1.7541 1.7541 z" transform="matrix(3.07896,-1.63227,.95083,1.69178,-2293.6062,208.61144)"/>
<path d="m 604.86 1106.4 c 0 1.1162 -0.9048 2.021 -2.021 2.021 s -2.021 -0.9048 -2.021 -2.021 0.9049 -2.021 2.021 -2.021 2.021 0.9048 2.021 2.021 z" transform="translate(-2.6312,.4195)"/>
</g>
</svg>
