<svg viewBox="0 0 512 512" xmlns="http://www.w3.org/2000/svg">

<g transform="matrix(18.68858,0,0,18.68858,-8396.95308,-19083.59139)">
<path d="m 450.339 1021.69 h 13.435 v 25.5442 h -13.435 z"/>
<path d="m 469.321 1033.63 c 0.6402 -2.8396 3.6155 -3.6886 5.8494 -2.4448 l 0.4499 7.4187 -3.7837 0.5409 -2.5156 -5.5148 z" fill="#fff" fill-rule="evenodd"/>
<path d="m 473.86 1032.78 c -3.119 -6.2881 -10.1273 -9.6002 -16.2107 -5.4593 -9.0745 6.1769 -3.5419 21.7461 9.37 17.8147" fill="none" stroke="#fff"/>
<path d="m 453.402 1032.97 c 0.2874 0.1725 7.9737 0.8299 7.9737 0.8299 l -2.0631 4.5134 4.2405 0.1722" fill="none" stroke="#fff"/>
<path d="m 468.428 1027.09 -3.1904 3.0171 2.5293 2.902 -1.2533 2.58" fill="none" stroke="#fff"/>
<path d="m 453.713 1026.25 2.0532 2.4511" fill="none" stroke="#fff"/>
<path d="m 456.113 1024.71 2.5306 6.2792" fill="none" stroke="#fff"/>
<path d="m 458.782 1023.62 1.7941 7.5921" fill="none" stroke="#fff"/>
<path d="m 461.462 1023.05 1.0262 8.006" fill="none" stroke="#fff"/>
<path d="m 464.202 1023.49 0.2377 7.6376" fill="none" stroke="#fff"/>
<path d="m 474.781 1034.92 c 0 0.604 -0.4897 1.0937 -1.0938 1.0937 s -1.0938 -0.4897 -1.0938 -1.0937 0.4897 -1.0938 1.0938 -1.0938 1.0938 0.4897 1.0938 1.0938 z" stroke="#fff" stroke-width=".6297" transform="matrix(1.58442,.1112,-.11116,1.58397,-162.50393,-659.12912)"/>
<path d="m 473.516 1039.63 -1.7523 -4.4622" fill="none" stroke="#000"/>
<path d="m 455.99 1039.69 -3.5587 1.6203" fill="none" stroke="#fff"/>
<path d="m 457.067 1041.82 -2.6529 2.1743" fill="none" stroke="#fff"/>
<path d="m 458.846 1043.48 -1.5469 2.3293" fill="none" stroke="#fff"/>
<path d="m 466.731 1023.83 -0.4807 5.1258" fill="none" stroke="#fff"/>
<path d="m 455.634 1037.43 -4.5549 0.8396" fill="none" stroke="#fff"/>
<path d="m 455.843 1035.24 -5.2502 -0.295" fill="none" stroke="#fff"/>
<path d="m 450.797 1031.47 2.9807 0.8036" fill="none" stroke="#fff"/>
<path d="m 451.909 1028.71 2.5904 1.5905" fill="none" stroke="#fff"/>
<path d="m 467.331 1032.89 -2.3644 1.0827" fill="none" stroke="#fff"/>
<path d="m 459.636 1037.85 2.9112 -1.1455" fill="none" stroke="#fff"/>
<path d="m 458.823 1038.32 3.2889 1.9107" fill="none" stroke="#fff"/>
<path d="m 468.531 1026.89 0.6784 -2.0485" fill="none" stroke="#fff"/>
<path d="m 470.287 1028.05 1.1578 -1.7469" fill="none" stroke="#fff"/>
<path d="m 471.59 1029.71 1.4486 -1.4588" fill="none" stroke="#fff"/>
<path d="m 463.421 1044.35 0.0492 2.5191" fill="none" stroke="#000"/>
<path d="m 465.385 1044.24 0.5166 2.3708" fill="none" stroke="#000"/>
<path d="m 461.042 1044.42 -0.4866 2.4004" fill="none" stroke="#000"/>
</g>
</svg>
