<svg viewBox="0 0 512 512" xmlns="http://www.w3.org/2000/svg">

<g transform="matrix(18.68858,0,0,18.68858,-9759.93031,-17250.95038)">
<path d="m 528.909 928.7 c 3.1511 -6.2754 12.213 -3.4802 19.2839 2.8868 1.5359 1.383 -0.5067 4.8854 -2.1036 5.8182 -0.6016 3.6659 -1.2741 5.9358 -3.9561 5.3737 -12.9141 -2.7068 -18.5225 -3.5272 -13.2243 -14.0786 z" fill="#fff" fill-rule="evenodd"/>
<path d="m 1154.86 -346.05 h 3.6426 v 4.5753 h -3.6426 z" transform="matrix(.22036,.97542,-.82836,.56019,0,0)"/>
<path d="m 1157.47 -348.844 h 3.6426 v 4.5753 h -3.6426 z" transform="matrix(.22036,.97542,-.82836,.56019,0,0)"/>
<path d="m 1159.91 -351.794 h 3.6426 v 4.5753 h -3.6426 z" transform="matrix(.22036,.97542,-.82836,.56019,0,0)"/>
<path d="m 534.913 924.89 c -6.6582 -1.1149 -10.3541 1.4446 -11.6786 6.5015 v 18.2041 h 10.1283 c -0.3759 -3.957 0.7836 -8.4084 2.9471 -10.1487 l -1.3967 -14.5568 z" fill="#fff" fill-rule="evenodd"/>
<path d="m 544.296 943.702 c -3.8585 -1.8362 -9.2298 -3.1968 -14.0478 -3.3728 -0.4995 -3.107 -0.5251 -6.1775 1.1238 -9.1191" fill="none" stroke="#000"/>
<path d="m 531.653 925.785 c 1.3621 -1.6841 5.5687 -2.5288 7.2737 0 1.7697 -1.5813 4.729 1.2879 5.0282 2.6041" fill="#fff" fill-rule="evenodd"/>
<path d="m 539.22 929.232 c 0 0.4347 -0.3524 0.7871 -0.7871 0.7871 s -0.7871 -0.3524 -0.7871 -0.7871 0.3524 -0.7871 0.7871 -0.7871 0.7871 0.3524 0.7871 0.7871 z" stroke="#fff" stroke-width=".3499" transform="matrix(2.85234,0,0,2.8632,-1000.1124,-1733.4771)"/>
<path d="m 1152.26 -343.221 h 3.6426 v 4.5753 h -3.6426 z" transform="matrix(.22036,.97542,-.82836,.56019,0,0)"/>
<path d="m 538.113 928.402 c 0 0.7375 -0.5979 1.3354 -1.3354 1.3354 s -1.3354 -0.5979 -1.3354 -1.3354 0.5979 -1.3354 1.3354 -1.3354 1.3354 0.5979 1.3354 1.3354 z" fill="#fff" transform="matrix(.75714,0,0,.75714,130.03599,225.10668)"/>
</g>
</svg>
