<svg viewBox="0 0 512 512" xmlns="http://www.w3.org/2000/svg">

<g transform="matrix(18.68858,0,0,18.68858,-8396.95308,-19083.59139)">
<path d="m450.3386,1021.6914h13.435v25.5442h-13.435z"/>
<path d="m469.3211,1033.632c.6402-2.8396 3.6155-3.6886 5.8494-2.4448l.4499,7.4187-3.7837.5409-2.5156-5.5148z" fill="#fff" fill-rule="evenodd"/>
<path d="m473.8604,1032.7806c-3.119-6.2881-10.1273-9.6002-16.2107-5.4593-9.0745,6.1769-3.5419,21.7461 9.37,17.8147" fill="none" stroke="#fff"/>
<path d="m453.4016,1032.9697c.2874.1725 7.9737.8299 7.9737.8299l-2.0631,4.5134 4.2405.1722" fill="none" stroke="#fff"/>
<path d="m468.4281,1027.0914-3.1904,3.0171 2.5293,2.902-1.2533,2.58" fill="none" stroke="#fff"/>
<path d="m453.7132,1026.2536 2.0532,2.4511" fill="none" stroke="#fff"/>
<path d="m456.1132,1024.7126 2.5306,6.2792" fill="none" stroke="#fff"/>
<path d="m458.7819,1023.618 1.7941,7.5921" fill="none" stroke="#fff"/>
<path d="m461.4619,1023.0469 1.0262,8.006" fill="none" stroke="#fff"/>
<path d="m464.2025,1023.4878 .2377,7.6376" fill="none" stroke="#fff"/>
<path d="m474.7812,1034.9247c0,.604-.4897,1.0937-1.0938,1.0937s-1.0938-.4897-1.0938-1.0937 .4897-1.0938 1.0938-1.0938 1.0938.4897 1.0938,1.0938z" stroke="#fff" stroke-width=".6297" transform="matrix(1.58442,.1112,-.11116,1.58397,-162.50393,-659.12912)"/>
<path d="m473.5157,1039.6255-1.7523-4.4622" fill="none" stroke="#000"/>
<path d="m455.9902,1039.6936-3.5587,1.6203" fill="none" stroke="#fff"/>
<path d="m457.0667,1041.8192-2.6529,2.1743" fill="none" stroke="#fff"/>
<path d="m458.846,1043.4845-1.5469,2.3293" fill="none" stroke="#fff"/>
<path d="m466.7314,1023.8309-.4807,5.1258" fill="none" stroke="#fff"/>
<path d="m455.6336,1037.4303-4.5549.8396" fill="none" stroke="#fff"/>
<path d="m455.8426,1035.2351-5.2502-.295" fill="none" stroke="#fff"/>
<path d="m450.7966,1031.469 2.9807.8036" fill="none" stroke="#fff"/>
<path d="m451.9092,1028.7058 2.5904,1.5905" fill="none" stroke="#fff"/>
<path d="m467.3313,1032.8947-2.3644,1.0827" fill="none" stroke="#fff"/>
<path d="m459.6364,1037.8508 2.9112-1.1455" fill="none" stroke="#fff"/>
<path d="m458.8233,1038.3247 3.2889,1.9107" fill="none" stroke="#fff"/>
<path d="m468.5312,1026.8934 .6784-2.0485" fill="none" stroke="#fff"/>
<path d="m470.2866,1028.0467 1.1578-1.7469" fill="none" stroke="#fff"/>
<path d="m471.5898,1029.7125 1.4486-1.4588" fill="none" stroke="#fff"/>
<path d="m463.4205,1044.3545 .0492,2.5191" fill="none" stroke="#000"/>
<path d="m465.385,1044.2382 .5166,2.3708" fill="none" stroke="#000"/>
<path d="m461.0417,1044.4174-.4866,2.4004" fill="none" stroke="#000"/>
</g>
</svg>
