<svg viewBox="0 0 512 512" xmlns="http://www.w3.org/2000/svg">

<g transform="matrix(18.68858,0,0,18.68858,-12488.90206,-42185.07874)">
<path d="m668.8251,2257.8691h5.3379l21.0935,21.0614v5.3701h-5.6261l-20.8053-18.7803z" fill="#fff" stroke="#000"/>
<path d="m675.8083,2260.2615c1.9764,1.662 3.7152,2.6132 5.8471,2.0473l-2.623,2.1551z" fill="#fff"/>
<path d="m692.8643,2277.348c-1.662-1.9487-2.6132-3.663-2.0474-5.765l-2.155,2.5862z" fill="#fff"/>
<path d="m673.0776,2268.6645c2.0693,2.0531 3.2025,5.1746 1.6529,7.9712l3.4862-4.1364z" fill="#fff"/>
<path d="m687.4798,2263.1341c-3.3436-1.9305-7.9365-.2536-9.867,3.0901-1.2344,2.1379.4476,4.4668-.15,6.6972l-2.2587,3.9122 6.5493,3.7813 2.2587-3.9122c1.7137-1.7138 4.4917-1.3424 5.725-3.4785 1.9304-3.3437 1.0862-8.1597-2.2574-10.0901z" stroke="#fff"/>
<path d="m688.4231,2272.4113c-1.396,2.0746-4.3834-.3693-3.3359-1.926 1.396-2.0747 4.3834.3692 3.3359,1.926z" fill="#fff"/>
<path d="m682.2566,2268.8758c-1.396,2.0746-4.3834-.3693-3.3359-1.926 1.396-2.0747 4.3834.3692 3.3359,1.926z" fill="#fff"/>
<path d="m683.409,2270.1617-.2883,3.2155-2.3523-1.358z" fill="#fff"/>
<g stroke="#000" stroke-width="1.192" transform="matrix(.86603,.5,-.35187,.60946,726.2423,834.85254)">
<path d="m678.7258,1803.7874v4.686" fill="none" stroke="#fff" stroke-width="1.192"/>
<path d="m680.5874,1803.7874v4.686" fill="none" stroke="#fff" stroke-width="1.192"/>
<path d="m682.4301,1803.7874v4.686" fill="none" stroke="#fff" stroke-width="1.192"/>
</g>
<path d="m677.492,2266.46-1.1409,3.6524 3.4456.8896" stroke="#fff"/>
<path d="m689.6004,2273.4508-2.5926,2.8142-2.4932-2.5391" stroke="#fff"/>
<path d="m676.6994,2273.8797 6.5272,3.7684" fill="none" stroke="#fff"/>
<path d="m687.673,2281.8447c-2.1905-1.3274-4.1708-2.4173-5.6896-.7459l1.7026-3.1626z" fill="#fff"/>
<path d="m683.0441,2264.006c-.129,2.0979-2.9911,1.5743-2.8943,0 .1289-2.098 2.9911-1.5743 2.8943,0z" fill="#fff"/>
<path d="m684.3878,2264.6363c-.0887,1.4434-2.058,1.0832-1.9914,0 .0887-1.4435 2.058-1.0832 1.9914,0z" fill="#fff"/>
<path d="m687.4097,2263.568c-.4922,1.3624-3.033.3087-2.6636-.7138 .4922-1.3625 3.0329-.3087 2.6636.7138z" fill="#fff"/>
<path d="m683.2645,2268.3891c-.0655,1.0666-1.5207.8004-1.4715,0 .0655-1.0667 1.5207-.8004 1.4715,0z" fill="#fff"/>
<path d="m685.4022,2266.5992c-.0655,1.0666-1.5207.8004-1.4715,0 .0655-1.0667 1.5207-.8004 1.4715,0z" fill="#fff"/>
<path d="m687.4583,2277.6631c-.5525.8345-1.6081-.063-1.1934-.689 .5525-.8343 1.608.063 1.1934.689z"/>
<path d="m686.6884,2279.0992c-1.1687,1.7649-3.4011-.133-2.524-1.4572 1.1685-1.7646 3.401.1329 2.524,1.4572z"/>
<path d="m690.3954,2277.6716c-.0928,1.5114-2.1547,1.1342-2.085,0 .0928-1.5112 2.1547-1.1341 2.085,0z"/>
<path d="m689.498,2274.6706c-.1272,2.0722-2.9543,1.5551-2.8587,0 .1272-2.072 2.9542-1.555 2.8587,0z"/>
<path d="m690.0748,2275.301c-.059.9615-1.3708.7216-1.3264,0 .059-.9613 1.3708-.7215 1.3264,0z"/>
<path d="m692.4044,2279.0832c-.059.9615-1.3708.7216-1.3264,0 .059-.9613 1.3708-.7215 1.3264,0z"/>
<path d="m689.2252,2279.9328c-.059.9615-1.3708.7216-1.3264,0 .059-.9613 1.3708-.7215 1.3264,0z"/>
</g>
</svg>
