<svg viewBox="0 0 512 512" xmlns="http://www.w3.org/2000/svg">

<g transform="matrix(18.68858,0,0,18.68858,-12488.90206,-42185.07874)">
<path d="m 668.825 2257.87 h 5.3379 l 21.0935 21.0614 v 5.3701 h -5.6261 l -20.8053 -18.7803 z" fill="#fff" stroke="#000"/>
<path d="m 675.808 2260.26 c 1.9764 1.662 3.7152 2.6132 5.8471 2.0473 l -2.623 2.1551 z" fill="#fff"/>
<path d="m 692.864 2277.35 c -1.662 -1.9487 -2.6132 -3.663 -2.0474 -5.765 l -2.155 2.5862 z" fill="#fff"/>
<path d="m 673.078 2268.66 c 2.0693 2.0531 3.2025 5.1746 1.6529 7.9712 l 3.4862 -4.1364 z" fill="#fff"/>
<path d="m 687.48 2263.13 c -3.3436 -1.9305 -7.9365 -0.2536 -9.867 3.0901 -1.2344 2.1379 0.4476 4.4668 -0.15 6.6972 l -2.2587 3.9122 6.5493 3.7813 2.2587 -3.9122 c 1.7137 -1.7138 4.4917 -1.3424 5.725 -3.4785 1.9304 -3.3437 1.0862 -8.1597 -2.2574 -10.0901 z" stroke="#fff"/>
<path d="m 688.423 2272.41 c -1.396 2.0746 -4.3834 -0.3693 -3.3359 -1.926 1.396 -2.0747 4.3834 0.3692 3.3359 1.926 z" fill="#fff"/>
<path d="m 682.257 2268.88 c -1.396 2.0746 -4.3834 -0.3693 -3.3359 -1.926 1.396 -2.0747 4.3834 0.3692 3.3359 1.926 z" fill="#fff"/>
<path d="m 683.409 2270.16 -0.2883 3.2155 -2.3523 -1.358 z" fill="#fff"/>
<g stroke="#000" stroke-width="1.192" transform="matrix(.86603,.5,-.35187,.60946,726.2423,834.85254)">
<path d="m 678.726 1803.79 v 4.686" fill="none" stroke="#fff" stroke-width="1.192"/>
<path d="m 680.587 1803.79 v 4.686" fill="none" stroke="#fff" stroke-width="1.192"/>
<path d="m 682.43 1803.79 v 4.686" fill="none" stroke="#fff" stroke-width="1.192"/>
</g>
<path d="m 677.492 2266.46 -1.1409 3.6524 3.4456 0.8896" stroke="#fff"/>
<path d="m 689.6 2273.45 -2.5926 2.8142 -2.4932 -2.5391" stroke="#fff"/>
<path d="m 676.699 2273.88 6.5272 3.7684" fill="none" stroke="#fff"/>
<path d="m 687.673 2281.84 c -2.1905 -1.3274 -4.1708 -2.4173 -5.6896 -0.7459 l 1.7026 -3.1626 z" fill="#fff"/>
<path d="m 683.044 2264.01 c -0.129 2.0979 -2.9911 1.5743 -2.8943 0 0.1289 -2.098 2.9911 -1.5743 2.8943 0 z" fill="#fff"/>
<path d="m 684.388 2264.64 c -0.0887 1.4434 -2.058 1.0832 -1.9914 0 0.0887 -1.4435 2.058 -1.0832 1.9914 0 z" fill="#fff"/>
<path d="m 687.41 2263.57 c -0.4922 1.3624 -3.033 0.3087 -2.6636 -0.7138 0.4922 -1.3625 3.0329 -0.3087 2.6636 0.7138 z" fill="#fff"/>
<path d="m 683.264 2268.39 c -0.0655 1.0666 -1.5207 0.8004 -1.4715 0 0.0655 -1.0667 1.5207 -0.8004 1.4715 0 z" fill="#fff"/>
<path d="m 685.402 2266.6 c -0.0655 1.0666 -1.5207 0.8004 -1.4715 0 0.0655 -1.0667 1.5207 -0.8004 1.4715 0 z" fill="#fff"/>
<path d="m 687.458 2277.66 c -0.5525 0.8345 -1.6081 -0.063 -1.1934 -0.689 0.5525 -0.8343 1.608 0.063 1.1934 0.689 z"/>
<path d="m 686.688 2279.1 c -1.1687 1.7649 -3.4011 -0.133 -2.524 -1.4572 1.1685 -1.7646 3.401 0.1329 2.524 1.4572 z"/>
<path d="m 690.395 2277.67 c -0.0928 1.5114 -2.1547 1.1342 -2.085 0 0.0928 -1.5112 2.1547 -1.1341 2.085 0 z"/>
<path d="m 689.498 2274.67 c -0.1272 2.0722 -2.9543 1.5551 -2.8587 0 0.1272 -2.072 2.9542 -1.555 2.8587 0 z"/>
<path d="m 690.075 2275.3 c -0.059 0.9615 -1.3708 0.7216 -1.3264 0 0.059 -0.9613 1.3708 -0.7215 1.3264 0 z"/>
<path d="m 692.404 2279.08 c -0.059 0.9615 -1.3708 0.7216 -1.3264 0 0.059 -0.9613 1.3708 -0.7215 1.3264 0 z"/>
<path d="m 689.225 2279.93 c -0.059 0.9615 -1.3708 0.7216 -1.3264 0 0.059 -0.9613 1.3708 -0.7215 1.3264 0 z"/>
</g>
</svg>
