<svg viewBox="0 0 512 512" xmlns="http://www.w3.org/2000/svg">

<g transform="matrix(18.68858,0,0,18.68858,-6356.69135,-23820.15737)">
<g transform="matrix(-1,0,0,1,707.67271,0)">
<g transform="matrix(-1.02541,0,0,1.02541,975.29387,1090.0036)">
<path d="m 593.804 198.178 c 1.6649 2.0629 11.5422 4.145 18.3791 1.0925 4.231 -1.8891 7.1594 -6.4334 5.542 -12.4695 -1.3667 -5.1006 -4.2548 -5.5058 -7.0514 -2.7877 -1.2411 1.2063 -3.7152 1.1406 -4.0975 2.931 5.9223 -2.3766 7.2033 1.6951 2.6378 2.4413 -6.1652 1.0076 -9.068 8.6363 -15.4099 8.7924 z" fill="#fff" fill-rule="evenodd"/>
<path d="m 603.955 198.831 2.5 6.1875" fill="none" stroke="#fff" stroke-width=".9752"/>
<path d="m 608.268 198.831 2.5 6.1875" fill="none" stroke="#fff" stroke-width=".9752"/>
</g>
<path d="m 357.263 1301.04 c -1.9359 -2.1942 -5.8254 -1.7588 -7.1725 0 h 7.1725 z" fill="#fff" fill-rule="evenodd"/>
<path d="m 352.151 1301.04 c -1.9359 -2.1942 -5.8254 -1.7588 -7.1725 0 h 7.1725 z" fill="#fff" fill-rule="evenodd"/>
<path d="m 347.063 1279.82 c 0 0.7538 -0.6111 1.3649 -1.3649 1.3649 s -1.3649 -0.6111 -1.3649 -1.3649 0.6111 -1.3649 1.3649 -1.3649 1.3649 0.6111 1.3649 1.3649 z" stroke="#fff" stroke-width=".9934" transform="matrix(1.00661,0,0,1.00661,-1.53647,-9.12083)"/>
</g>
<path d="m 4027.21 3353.06 h 5.1211 v 5.1211 h -5.1211 z" fill="#fff" transform="matrix(.91395,.40583,-.99442,-.10552,0,0)"/>
<path d="m -1559.55 -2721.44 9.8666 4.5234 -4.7456 0.5976 h -5.121 z" fill="#fff" transform="matrix(-.40583,.91395,.10552,-.99442,0,0)"/>
<path d="m 2707.81 1544.09 11.3409 6.8264 -6.544 -1.6454 h -4.7449 z" fill="#fff" transform="matrix(.58859,.80843,-.80843,-.58859,0,0)"/>
<path d="m 344.996 1279.75 3.0624 -1.2099 -2.0605 2.6088 -1.0019 -1.3989 z" fill="#fff" fill-rule="evenodd"/>
</g>
</svg>
