<svg viewBox="0 0 512 512" xmlns="http://www.w3.org/2000/svg">

<g transform="matrix(18.68858,0,0,18.68858,-6356.69135,-23820.15737)">
<g transform="matrix(-1,0,0,1,707.67271,0)">
<g transform="matrix(-1.02541,0,0,1.02541,975.29387,1090.0036)">
<path d="m593.8041,198.1776c1.6649,2.0629 11.5422,4.145 18.3791,1.0925 4.231-1.8891 7.1594-6.4334 5.542-12.4695-1.3667-5.1006-4.2548-5.5058-7.0514-2.7877-1.2411,1.2063-3.7152,1.1406-4.0975,2.931 5.9223-2.3766 7.2033,1.6951 2.6378,2.4413-6.1652,1.0076-9.068,8.6363-15.4099,8.7924z" fill="#fff" fill-rule="evenodd"/>
<path d="m603.9553,198.8308 2.5,6.1875" fill="none" stroke="#fff" stroke-width=".9752"/>
<path d="m608.2678,198.8308 2.5,6.1875" fill="none" stroke="#fff" stroke-width=".9752"/>
</g>
<path d="m357.2632,1301.044c-1.9359-2.1942-5.8254-1.7588-7.1725,0h7.1725z" fill="#fff" fill-rule="evenodd"/>
<path d="m352.1515,1301.044c-1.9359-2.1942-5.8254-1.7588-7.1725,0h7.1725z" fill="#fff" fill-rule="evenodd"/>
<path d="m347.0626,1279.8209c0,.7538-.6111,1.3649-1.3649,1.3649s-1.3649-.6111-1.3649-1.3649 .6111-1.3649 1.3649-1.3649 1.3649.6111 1.3649,1.3649z" stroke="#fff" stroke-width=".9934" transform="matrix(1.00661,0,0,1.00661,-1.53647,-9.12083)"/>
</g>
<path d="m4027.2139,3353.0645h5.1211v5.1211h-5.1211z" fill="#fff" transform="matrix(.91395,.40583,-.99442,-.10552,0,0)"/>
<path d="m-1559.5527-2721.4377 9.8666,4.5234-4.7456.5976h-5.121z" fill="#fff" transform="matrix(-.40583,.91395,.10552,-.99442,0,0)"/>
<path d="m2707.8142,1544.0898 11.3409,6.8264-6.544-1.6454h-4.7449z" fill="#fff" transform="matrix(.58859,.80843,-.80843,-.58859,0,0)"/>
<path d="m344.9962,1279.7482 3.0624-1.2099-2.0605,2.6088-1.0019-1.3989z" fill="#fff" fill-rule="evenodd"/>
</g>
</svg>
