<svg viewBox="0 0 512 512" xmlns="http://www.w3.org/2000/svg">

<g transform="matrix(18.68858,0,0,18.68858,-2739.85184,-2212.83103)">
<path d="m 169.494 141.703 -10.5441 -9.45 c -0.3025 2.6587 -1.1837 4.9104 -3.6178 6.0702 l 14.1619 3.3799 z" fill="#fff" fill-rule="evenodd"/>
<path d="m 173.182 119.488 h -13.8574 l -11.7375 14.3468 25.2065 9.1059 -16.635 -10.3804 17.0234 -13.0723 z" fill="#fff" fill-rule="evenodd"/>
<path d="m 164.07 119.051 -13.8326 14.4085 11.3264 4.1085 -8.4715 -4.6565 15.6006 -13.7444" fill-rule="evenodd"/>
<path d="m 173.289 143.251 -4.6113 -10.2314 c -0.2498 5.2354 -1.6934 9.6403 -6.3406 11.8166 l 10.9519 -1.5852 z" fill="#fff" fill-rule="evenodd"/>
<path d="m 171.385 142.589 -7.6555 -9.7349 c -0.1781 3.7374 -1.2075 6.9029 -4.5213 8.5332 l 12.1768 1.2018 z" fill="#fff" fill-rule="evenodd"/>
</g>
</svg>
