<svg viewBox="0 0 512 512" xmlns="http://www.w3.org/2000/svg">

<g transform="matrix(18.68858,0,0,18.68858,-7721.39394,-40154.43795)">
<path d="m 424.956 2154.82 h 4.0805 v 20.6316 h -4.0805 z" fill="#fff"/>
<path d="m 434.719 2162.22 -10.7188 13.375 h 5.25 l 8.6562 -10.8126 -3.1875 -2.5624 z" fill="#fff"/>
<path d="m 419.344 2162.22 -3.1875 2.5624 8.6562 10.8126 h 5.25 l -10.7188 -13.375 z" fill="#fff"/>
<path d="m 421.663 2175.47 h 10.3284" fill="none" stroke="#000"/>
<path d="m 426.998 2150.32 4.317 7.2334 h -8.634 z" stroke="#fff"/>
<path d="m 439.071 2159.72 -1.1467 8.3451 -6.7427 -5.3926 z" stroke="#fff"/>
<path d="m 414.998 2159.72 1.1467 8.3451 6.7427 -5.3926 z" stroke="#fff"/>
<path d="m 418.222 2164.01 8.7868 11.3689" fill="none" stroke="#000"/>
<path d="m 435.834 2164.01 -8.7868 11.3689" fill="none" stroke="#000"/>
<path d="m 426.97 2156.11 v 18.6142" fill="none" stroke="#000"/>
<path d="m 426.998 2150.32 2.0726 3.4728 h -4.1452 z" fill="#fff"/>
<path d="m 439.17 2160.05 -0.9901 3.9213 -2.931 -2.9312 z" fill="#fff"/>
<path d="m 420.033 2163.78 c 0 1.0429 -0.8455 1.8884 -1.8884 1.8884 s -1.8884 -0.8455 -1.8884 -1.8884 0.8455 -1.8884 1.8884 -1.8884 1.8884 0.8455 1.8884 1.8884 z" fill="#fff" transform="translate(-.7322,-.9249)"/>
<path d="m 420.033 2163.78 c 0 1.0429 -0.8455 1.8884 -1.8884 1.8884 s -1.8884 -0.8455 -1.8884 -1.8884 0.8455 -1.8884 1.8884 -1.8884 1.8884 0.8455 1.8884 1.8884 z" fill="#fff" transform="translate(18.4215,-.9249)"/>
<path d="m 420.033 2163.78 c 0 1.0429 -0.8455 1.8884 -1.8884 1.8884 s -1.8884 -0.8455 -1.8884 -1.8884 0.8455 -1.8884 1.8884 -1.8884 1.8884 0.8455 1.8884 1.8884 z" fill="#fff" transform="translate(8.8639,-9.5191)"/>
<path d="m 415.248 2160.05 0.9901 3.9213 2.931 -2.9312 z" fill="#fff"/>
</g>
</svg>
