<svg viewBox="0 0 512 512" xmlns="http://www.w3.org/2000/svg">

<g transform="matrix(18.68858,0,0,18.68858,-7721.39394,-40154.43795)">
<path d="m424.9557,2154.8162h4.0805v20.6316h-4.0805z" fill="#fff"/>
<path d="m434.7188,2162.2188-10.7188,13.375h5.25l8.6562-10.8126-3.1875-2.5624z" fill="#fff"/>
<path d="m419.3438,2162.2188-3.1875,2.5624 8.6562,10.8126h5.25l-10.7188-13.375z" fill="#fff"/>
<path d="m421.663,2175.4697h10.3284" fill="none" stroke="#000"/>
<path d="m426.9977,2150.3198 4.317,7.2334h-8.634z" stroke="#fff"/>
<path d="m439.0706,2159.7167-1.1467,8.3451-6.7427-5.3926z" stroke="#fff"/>
<path d="m414.9981,2159.7167 1.1467,8.3451 6.7427-5.3926z" stroke="#fff"/>
<path d="m418.2218,2164.0105 8.7868,11.3689" fill="none" stroke="#000"/>
<path d="m435.834,2164.0105-8.7868,11.3689" fill="none" stroke="#000"/>
<path d="m426.9701,2156.11v18.6142" fill="none" stroke="#000"/>
<path d="m426.9977,2150.3198 2.0726,3.4728h-4.1452z" fill="#fff"/>
<path d="m439.1696,2160.0528-.9901,3.9213-2.931-2.9312z" fill="#fff"/>
<path d="m420.0331,2163.7793c0,1.0429-.8455,1.8884-1.8884,1.8884s-1.8884-.8455-1.8884-1.8884 .8455-1.8884 1.8884-1.8884 1.8884.8455 1.8884,1.8884z" fill="#fff" transform="translate(-.7322,-.9249)"/>
<path d="m420.0331,2163.7793c0,1.0429-.8455,1.8884-1.8884,1.8884s-1.8884-.8455-1.8884-1.8884 .8455-1.8884 1.8884-1.8884 1.8884.8455 1.8884,1.8884z" fill="#fff" transform="translate(18.4215,-.9249)"/>
<path d="m420.0331,2163.7793c0,1.0429-.8455,1.8884-1.8884,1.8884s-1.8884-.8455-1.8884-1.8884 .8455-1.8884 1.8884-1.8884 1.8884.8455 1.8884,1.8884z" fill="#fff" transform="translate(8.8639,-9.5191)"/>
<path d="m415.2485,2160.0528 .9901,3.9213 2.931-2.9312z" fill="#fff"/>
</g>
</svg>
