<svg viewBox="0 0 512 512" xmlns="http://www.w3.org/2000/svg">

<g transform="matrix(18.68858,0,0,18.68858,-2739.85184,-2212.83103)">
<path d="m169.4945,141.7029-10.5441-9.45c-.3025,2.6587-1.1837,4.9104-3.6178,6.0702l14.1619,3.3799z" fill="#fff" fill-rule="evenodd"/>
<path d="m173.1821,119.4883h-13.8574l-11.7375,14.3468 25.2065,9.1059-16.635-10.3804 17.0234-13.0723z" fill="#fff" fill-rule="evenodd"/>
<path d="m164.07,119.0508-13.8326,14.4085 11.3264,4.1085-8.4715-4.6565 15.6006-13.7444" fill-rule="evenodd"/>
<path d="m173.289,143.251-4.6113-10.2314c-.2498,5.2354-1.6934,9.6403-6.3406,11.8166l10.9519-1.5852z" fill="#fff" fill-rule="evenodd"/>
<path d="m171.3845,142.5891-7.6555-9.7349c-.1781,3.7374-1.2075,6.9029-4.5213,8.5332l12.1768,1.2018z" fill="#fff" fill-rule="evenodd"/>
</g>
</svg>
