<svg viewBox="0 0 512 512" xmlns="http://www.w3.org/2000/svg">

<g transform="matrix(18.68858,0,0,18.68858,-13170.65772,-44230.5812)">
<path d="m 716.732 2367.72 -11.016 0.0004 -0.0002 10.9706 8.4682 8.4315 10.9547 -10.9782 z" fill="#fff"/>
<path d="m 713.598 2367.17 10.2639 10.2644" fill="none" stroke="#000"/>
<path d="m 705.129 2375.6 9.9535 9.9539" fill="none" stroke="#000"/>
<path d="m 710.074 2367.17 11.3146 11.3152" fill="none" stroke="#000"/>
<path d="m 705.129 2372.1 10.8972 10.8978" fill="none" stroke="#000"/>
<path d="m 706.725 2367.22 12.0817 12.0823" fill="none" stroke="#000"/>
<path d="m 705.174 2368.82 11.0176 11.0183" fill="none" stroke="#000"/>
<path d="m 713.592 2375.65 c -1.3974 1.3449 -0.0835 3.3012 1.3003 3.02 0.5849 1.0166 1.436 1.7995 2.3265 2.5486 -1.1172 1.4502 -1.8848 3.2143 -2.2812 5.1562 1.4756 -0.3064 2.8272 -0.8567 4.0312 -1.5938 3.6788 3.6789 6.4127 5.6326 11.3438 7.375 -1.331 -4.9675 -3.676 -7.1757 -7.5938 -11.0937 0.795 -1.2451 1.3729 -2.6361 1.6875 -4.1875 -2.0204 0.4035 -3.8058 1.2227 -5.2812 2.4062 -0.7391 -0.8751 -1.525 -1.5505 -2.5173 -2.1335 0.5209 -1.2138 -1.6696 -2.7932 -3.0158 -1.4975 z" stroke="#fff"/>
<path d="m 720.042 2380.94 -0.8898 0.9554 c 2.2156 2.3329 6.0124 5.8256 8.4448 7.5259 -1.7133 -2.4572 -5.2133 -6.26 -7.555 -8.4813 z" fill="#fff"/>
</g>
</svg>
