<svg viewBox="0 0 512 512" xmlns="http://www.w3.org/2000/svg">

<g transform="matrix(18.68858,0,0,18.68858,-13170.65772,-44230.5812)">
<path d="m716.7319,2367.723-11.016.0004-.0002,10.9706 8.4682,8.4315 10.9547-10.9782z" fill="#fff"/>
<path d="m713.5976,2367.1685 10.2639,10.2644" fill="none" stroke="#000"/>
<path d="m705.1292,2375.604 9.9535,9.9539" fill="none" stroke="#000"/>
<path d="m710.0736,2367.1688 11.3146,11.3152" fill="none" stroke="#000"/>
<path d="m705.1292,2372.1013 10.8972,10.8978" fill="none" stroke="#000"/>
<path d="m706.7254,2367.2241 12.0817,12.0823" fill="none" stroke="#000"/>
<path d="m705.1736,2368.8201 11.0176,11.0183" fill="none" stroke="#000"/>
<path d="m713.592,2375.6502c-1.3974,1.3449-.0835,3.3012 1.3003,3.02 .5849,1.0166 1.436,1.7995 2.3265,2.5486-1.1172,1.4502-1.8848,3.2143-2.2812,5.1562 1.4756-.3064 2.8272-.8567 4.0312-1.5938 3.6788,3.6789 6.4127,5.6326 11.3438,7.375-1.331-4.9675-3.676-7.1757-7.5938-11.0937 .795-1.2451 1.3729-2.6361 1.6875-4.1875-2.0204.4035-3.8058,1.2227-5.2812,2.4062-.7391-.8751-1.525-1.5505-2.5173-2.1335 .5209-1.2138-1.6696-2.7932-3.0158-1.4975z" stroke="#fff"/>
<path d="m720.0421,2380.9418-.8898.9554c2.2156,2.3329 6.0124,5.8256 8.4448,7.5259-1.7133-2.4572-5.2133-6.26-7.555-8.4813z" fill="#fff"/>
</g>
</svg>
