<svg viewBox="0 0 512 512" xmlns="http://www.w3.org/2000/svg">

<g transform="matrix(18.68858,0,0,18.68858,-7718.03244,-27903.06945)">
<path d="m421.6125,1514.4775h9.5686" fill="none" stroke="#fff"/>
<path d="m423.5207,1511.698h6.2119" fill="none" stroke="#fff"/>
<path d="m423.0798,1502.1566h7.184" fill="none" stroke="#fff"/>
<path d="m421.0385,1499.3771h10.2357" fill="none" stroke="#fff"/>
<path d="m421.369,1496.2659h9.7918" fill="none" stroke="#fff"/>
<path d="m421.5153,1517.5886h9.2979" fill="none" stroke="#fff"/>
<path d="m419.7411,1493.084c-1.005,3.4495-.5186,6.2764.6886,8.5695s3.0563,4.0469 4.8203,5.7385 3.4385,3.3164 4.4377,5.2029 1.3982,4.0356.6121,7.1155l2.3719.612c.9129-3.5764.4027-6.5261-.8416-8.8754s-3.1305-4.1214-4.8968-5.815-3.4071-3.314-4.3612-5.1263-1.3174-3.7869-.4591-6.7332l-2.3719-.6885z" fill="#fff"/>
<path d="m430.431,1493.9192c.8583,2.9462.495,4.921-.4591,6.7331s-2.5949,3.4328-4.3612,5.1263" fill="none" stroke="#000"/>
<path d="m427.5761,1508.2742c-1.3395,1.3064-2.77,2.6735-3.7137,4.4858s-1.3305,4.0878-.6383,6.8466" fill="none" stroke="#000"/>
<path d="m433.3603,1493.084-2.3719.6885c.8583,2.9463.4951,4.9211-.4591,6.7332s-2.5949,3.4329-4.3612,5.1263-3.6524,3.4657-4.8968,5.815-1.7545,5.299-.8416,8.8754l2.3719-.612c-.7861-3.0799-.3871-5.2293.6121-7.1155s2.6737-3.5115 4.4377-5.2029 3.6131-3.4455 4.8202-5.7385 1.6936-5.12.6886-8.5695z" fill="#fff"/>
<path d="m417.4494,1503.0059c3.9917,4.7329 11.1226,5.3535 14.9761,9.7125l2.3888-1.8903c-4.061-4.6568-11.1271-6.0152-14.976-10.3988z"/>
<path d="m418.0367,1493.5301h17.3613" fill="none" stroke="#000"/>
<path d="m418.0367,1519.9447h17.3613" fill="none" stroke="#000"/>
</g>
</svg>
