<svg viewBox="0 0 512 512" xmlns="http://www.w3.org/2000/svg">

<g transform="matrix(18.68858,0,0,18.68858,-7718.03244,-27903.06945)">
<path d="m 421.613 1514.48 h 9.5686" fill="none" stroke="#fff"/>
<path d="m 423.521 1511.7 h 6.2119" fill="none" stroke="#fff"/>
<path d="m 423.08 1502.16 h 7.184" fill="none" stroke="#fff"/>
<path d="m 421.038 1499.38 h 10.2357" fill="none" stroke="#fff"/>
<path d="m 421.369 1496.27 h 9.7918" fill="none" stroke="#fff"/>
<path d="m 421.515 1517.59 h 9.2979" fill="none" stroke="#fff"/>
<path d="m 419.741 1493.08 c -1.005 3.4495 -0.5186 6.2764 0.6886 8.5695 s 3.0563 4.0469 4.8203 5.7385 3.4385 3.3164 4.4377 5.2029 1.3982 4.0356 0.6121 7.1155 l 2.3719 0.612 c 0.9129 -3.5764 0.4027 -6.5261 -0.8416 -8.8754 s -3.1305 -4.1214 -4.8968 -5.815 -3.4071 -3.314 -4.3612 -5.1263 -1.3174 -3.7869 -0.4591 -6.7332 l -2.3719 -0.6885 z" fill="#fff"/>
<path d="m 430.431 1493.92 c 0.8583 2.9462 0.495 4.921 -0.4591 6.7331 s -2.5949 3.4328 -4.3612 5.1263" fill="none" stroke="#000"/>
<path d="m 427.576 1508.27 c -1.3395 1.3064 -2.77 2.6735 -3.7137 4.4858 s -1.3305 4.0878 -0.6383 6.8466" fill="none" stroke="#000"/>
<path d="m 433.36 1493.08 -2.3719 0.6885 c 0.8583 2.9463 0.4951 4.9211 -0.4591 6.7332 s -2.5949 3.4329 -4.3612 5.1263 -3.6524 3.4657 -4.8968 5.815 -1.7545 5.299 -0.8416 8.8754 l 2.3719 -0.612 c -0.7861 -3.0799 -0.3871 -5.2293 0.6121 -7.1155 s 2.6737 -3.5115 4.4377 -5.2029 3.6131 -3.4455 4.8202 -5.7385 1.6936 -5.12 0.6886 -8.5695 z" fill="#fff"/>
<path d="m 417.449 1503.01 c 3.9917 4.7329 11.1226 5.3535 14.9761 9.7125 l 2.3888 -1.8903 c -4.061 -4.6568 -11.1271 -6.0152 -14.976 -10.3988 z"/>
<path d="m 418.037 1493.53 h 17.3613" fill="none" stroke="#000"/>
<path d="m 418.037 1519.94 h 17.3613" fill="none" stroke="#000"/>
</g>
</svg>
