<svg viewBox="0 0 512 512" xmlns="http://www.w3.org/2000/svg">

<g transform="matrix(18.68858,0,0,18.68858,-1590.65257,-28582.51707)">
<path d="m 105.924 1535.54 c -6.2678 -1.4608 -9.5412 0.9477 -8.3525 6.1459 6.2933 1.475 9.5567 -0.9262 8.3525 -6.1459 z" fill="none" stroke="#fff"/>
<path d="m 109.968 1529.85 c -2.3656 0.3714 -4.2663 1.7262 -3.9917 5.6752 2.4133 0.8118 4.458 1.0361 6.0406 0.7195" stroke="#fff"/>
<path d="m 90.9605 1556.16 c 1.5507 -1.4425 1.6002 -3.8762 -0.0389 -6.9978 -2.4099 -0.04 -4.179 0.4842 -5.2454 1.4737" fill="none" stroke="#fff"/>
<path d="m 97.7968 1541.75 c -6.1487 -0.78 -8.8274 2.1131 -6.8351 7.3823 6.1749 0.7922 8.8456 -2.0923 6.8351 -7.3823 z" fill="none" stroke="#fff"/>
<path d="m 109.601 1529.84 2.3597 6.4601" fill="none" stroke="#fff"/>
<path d="m 87.3653 1549.67 4.5774 3.1042" fill="none" stroke="#fff"/>
<path d="m 85.4712 1551.8 5.9191 4.0915" fill="none" stroke="#fff"/>
<path d="m 94.1986 1541.65 4.0164 3.8022" fill="none" stroke="#fff"/>
<path d="m 91.8013 1542.93 5.5495 5.3502" fill="none" stroke="#fff"/>
<path d="m 90.6472 1545.33 4.0164 3.8022" fill="none" stroke="#fff"/>
<path d="m 102.263 1535.29 3.2539 4.4723" fill="none" stroke="#fff"/>
<path d="m 99.4878 1535.67 4.4782 6.2742" fill="none" stroke="#fff"/>
<path d="m 97.9143 1537.82 3.2539 4.4723" fill="none" stroke="#fff"/>
<path d="m 107.42 1531.14 1.9855 5.1621" fill="none" stroke="#fff"/>
<path d="m 85.5384 1549.62 c 1.6483 -1.1543 3.6017 -1.148 5.5492 -0.404 6.0255 2.6665 10.5895 -2.5575 6.6165 -7.5355 -3.7291 -5.3236 4.0771 -9.9602 8.5069 -5.9032 1.7603 1.5991 4.0055 1.7014 6.0996 1.3594" fill="none" stroke="#fff"/>
<path d="m 85.6234 1554.84 2.308 1.4342" fill="none" stroke="#fff"/>
<path d="m 85.6342 1529.85 h 26.4314 v 26.4314 h -26.4314 z" fill="none" stroke="#000"/>
</g>
</svg>
