<svg viewBox="0 0 512 512" xmlns="http://www.w3.org/2000/svg">

<g transform="matrix(18.68858,0,0,18.68858,-909.58216,-12958.29812)">
<path d="m55.6325,693.6072c-2.4989,2.9172-4.1127,7.4507-4.1127,12.526 0,6.024 2.2596,11.267 5.5883,13.9702m10.2975,0c3.3383-2.7029 5.6197-7.9458 5.6197-13.9702 0-5.0754-1.6138-9.6088-4.1127-12.526" stroke="#fff" stroke-width=".927"/>
<path d="m59.4415,705.3531h5.922v2.6075h-5.922z" stroke="#fff"/>
<path d="m60.1041,471.5403c0,3.112-2.5228,5.6348-5.6348,5.6348s-5.6348-2.5228-5.6348-5.6348 2.5228-5.6348 5.6348-5.6348 5.6348,2.5228 5.6348,5.6348z" stroke="#fff" stroke-width="1.0897" transform="matrix(.91765,0,0,.91765,5.5246,273.99345)"/>
<path d="m60.1041,471.5403c0,3.112-2.5228,5.6348-5.6348,5.6348s-5.6348-2.5228-5.6348-5.6348 2.5228-5.6348 5.6348-5.6348 5.6348,2.5228 5.6348,5.6348z" stroke="#fff" stroke-width="1.0897" transform="matrix(.91765,0,0,.91765,19.1806,273.99345)"/>
<path d="m55.1543,468.8223c0,1.6597-1.3455,3.0052-3.0052,3.0052s-3.0052-1.3455-3.0052-3.0052 1.3455-3.0052 3.0052-3.0052 3.0052,1.3455 3.0052,3.0052z" fill="#fff" stroke="#000" stroke-width=".7292" transform="matrix(1.37132,0,0,1.37132,-16.08245,63.81602)"/>
<path d="m55.1543,468.8223c0,1.6597-1.3455,3.0052-3.0052,3.0052s-3.0052-1.3455-3.0052-3.0052 1.3455-3.0052 3.0052-3.0052 3.0052,1.3455 3.0052,3.0052z" fill="#fff" stroke="#000" stroke-width=".7292" transform="matrix(1.37132,0,0,1.37132,-2.33806,63.81602)"/>
<path d="m53.0321,714.4703c6.3738-2.9602 12.859-2.3849 18.6686,0l-4.1368,5.7122-10.7133-.1428-3.8186-5.5694z" fill="#fff"/>
<path d="m53.0693,720.2156h19.375" fill="none" stroke="#000"/>
<path d="m52.981,693.7892h19.375" fill="none" stroke="#000"/>
</g>
</svg>
