<svg viewBox="0 0 512 512" xmlns="http://www.w3.org/2000/svg">

<g transform="matrix(18.68858,0,0,18.68858,-909.58216,-12958.29812)">
<path d="m 55.6325 693.607 c -2.4989 2.9172 -4.1127 7.4507 -4.1127 12.526 0 6.024 2.2596 11.267 5.5883 13.9702 m 10.2975 0 c 3.3383 -2.7029 5.6197 -7.9458 5.6197 -13.9702 0 -5.0754 -1.6138 -9.6088 -4.1127 -12.526" stroke="#fff" stroke-width=".927"/>
<path d="m 59.4415 705.353 h 5.922 v 2.6075 h -5.922 z" stroke="#fff"/>
<path d="m 60.1041 471.54 c 0 3.112 -2.5228 5.6348 -5.6348 5.6348 s -5.6348 -2.5228 -5.6348 -5.6348 2.5228 -5.6348 5.6348 -5.6348 5.6348 2.5228 5.6348 5.6348 z" stroke="#fff" stroke-width="1.0897" transform="matrix(.91765,0,0,.91765,5.5246,273.99345)"/>
<path d="m 60.1041 471.54 c 0 3.112 -2.5228 5.6348 -5.6348 5.6348 s -5.6348 -2.5228 -5.6348 -5.6348 2.5228 -5.6348 5.6348 -5.6348 5.6348 2.5228 5.6348 5.6348 z" stroke="#fff" stroke-width="1.0897" transform="matrix(.91765,0,0,.91765,19.1806,273.99345)"/>
<path d="m 55.1543 468.822 c 0 1.6597 -1.3455 3.0052 -3.0052 3.0052 s -3.0052 -1.3455 -3.0052 -3.0052 1.3455 -3.0052 3.0052 -3.0052 3.0052 1.3455 3.0052 3.0052 z" fill="#fff" stroke="#000" stroke-width=".7292" transform="matrix(1.37132,0,0,1.37132,-16.08245,63.81602)"/>
<path d="m 55.1543 468.822 c 0 1.6597 -1.3455 3.0052 -3.0052 3.0052 s -3.0052 -1.3455 -3.0052 -3.0052 1.3455 -3.0052 3.0052 -3.0052 3.0052 1.3455 3.0052 3.0052 z" fill="#fff" stroke="#000" stroke-width=".7292" transform="matrix(1.37132,0,0,1.37132,-2.33806,63.81602)"/>
<path d="m 53.0321 714.47 c 6.3738 -2.9602 12.859 -2.3849 18.6686 0 l -4.1368 5.7122 -10.7133 -0.1428 -3.8186 -5.5694 z" fill="#fff"/>
<path d="m 53.0693 720.216 h 19.375" fill="none" stroke="#000"/>
<path d="m 52.981 693.789 h 19.375" fill="none" stroke="#000"/>
</g>
</svg>
