<svg viewBox="0 0 512 512" xmlns="http://www.w3.org/2000/svg">

<g transform="matrix(18.68858,0,0,18.68858,-4021.07174,-2215.37081)">
<path d="m215.8206,132.9341c.4875,4.428 4.2584,6.8975 7.5474,5.7364 1.7643-.6228 3.9657-4.7591 5.4831-4.7591s3.7188,4.1363 5.4831,4.7591c3.2889,1.161 6.994-1.3184 7.5474-5.7364 1.5549-12.4154-7.4185-7.241-13.0305-7.241-5.7899,0-14.3936-5.1398-13.0305,7.241z" fill="#fff" stroke="#000"/>
<g transform="matrix(1.03212,0,0,1.03373,-35.50031,-11.65506)">
<path d="m265.4063,136.948c-1.125,1.9175-4.5,2.8299-6.75,0 2.25-2.0302 4.5-2.2162 6.75,0z" fill-rule="evenodd"/>
<path d="m246.5938,136.948c1.125,1.9175 4.5,2.8299 6.75,0-2.25-2.0302-4.5-2.2162-6.75,0z" fill-rule="evenodd"/>
</g>
</g>
</svg>
