<svg viewBox="0 0 512 512" xmlns="http://www.w3.org/2000/svg">

<g transform="matrix(18.68858,0,0,18.68858,-11122.3326,-19765.81188)">
<path d="m616.1299,1078.3513c5.3886-5.3886-1.2826-12.7618-.1607-15.97 .6614-1.8915 1.9087-2.0445 2.9991-1.4147 1.0671.6158 1.627,1.6407.9618,2.9424 1.7681-.6753 1.9934-2.7527.5093-4.1307-.2119-.1969-.4826-.3754-.7638-.5377-2.0211-1.1669-5.0988-.9285-6.2527,2.5181-1.181,3.5275 5.4115,8.9612.1695,14.2033-5.1721,5.172-10.6757-1.3507-14.2031-.1696-3.4464,1.1538-3.685,4.2316-2.5181,6.2527 1.2982,2.2489 3.8967,2.275 4.6683.2547-1.3018.6651-2.3263.1048-2.9425-.962-.6294-1.0905-.4767-2.3378 1.4146-2.999 3.2085-1.122 10.5901,5.5406 16.1183.013z" fill="#fff" fill-rule="evenodd"/>
<path d="m600.7034,1061.6516-1.3823,1.3705 17.2028,20.1542 4.0393-4.2781-19.8597-17.2466z" fill="#fff" stroke="#000"/>
<path d="m598.4261,1060.7043 19.3771,19.7145" fill="none" stroke="#000"/>
<path d="m615.8797,1060.693-16.7327.7533-.7763,16.635" fill="none" stroke="#fff"/>
<path d="m596.8977,1076.6816c.9571-.8398 2.0429-1.2996 3.1014-1.6762" fill="none" stroke="#000"/>
<path d="m620.5416,1075.9267c-1.1642,3.6048-3.8132,5.7367-7.1595,7.1594l6.2092,1.0386-.3756-2.3644 2.3644.3757-1.0385-6.2093z" fill="#fff"/>
<path d="m612.7621,1062.0186c.409-1.2059 1.1194-2.147 1.8478-3.0024" fill="none" stroke="#000"/>
</g>
</svg>
