<svg viewBox="0 0 512 512" xmlns="http://www.w3.org/2000/svg">

<g transform="matrix(18.68858,0,0,18.68858,-7034.94664,-24502.68487)">
<path d="m387.5938,1314.9688c-3.5022.1616-7.1232,1.3856-9.9688,3.5625v18.8775h3.7055c1.5067-7.6118 10.0986-8.4357 11.9508-5.7525l.5938-5c-4.7131-2.1034-9.5794-2.4475-13.3125.031 2.5726-6.219 11.2979-8.0595 13-5.5937l.5938-5c-1.954-.872-4.2226-1.2331-6.5625-1.125z" fill="#fff" fill-rule="evenodd"/>
<g transform="matrix(.99043,-.13799,.13799,.99043,-180.53269,1225.0883)">
<path d="m548.425,164.9638c8.3086-.9114 8.1853,3.8675 16.2556,3.7946-.4991,2.8178-1.1878,5.5882-2.6219,8.1723l-7.9116-2.7665c1.9757-2.764 1.4731-7.5835-5.7221-9.2005z" fill="#fff" fill-rule="evenodd"/>
<path d="m172.75,364.2059c0,1.4325-1.1613,2.5938-2.5938,2.5938s-2.5938-1.1613-2.5938-2.5938 1.1613-2.5938 2.5938-2.5938 2.5938,1.1613 2.5938,2.5938z" transform="translate(391.743,-191.5412)"/>
<path d="m164.875,359.8934c0,.466-.3778.8438-.8438.8438s-.8438-.3778-.8438-.8438 .3778-.8438.8438-.8438 .8438.3778.8438.8438z" transform="translate(392.5555,-190.8537)"/>
</g>
<g transform="matrix(.92673,.37572,-.37572,.92673,-57.05365,962.25091)">
<path d="m548.3056,165.8209c8.3086-.9114 8.3047,3.0104 16.375,2.9375-.4991,2.8178-1.1878,5.5882-2.6219,8.1723l-7.9116-2.7665c1.9757-2.764 1.3537-6.7264-5.8415-8.3434z" fill="#fff" fill-rule="evenodd"/>
<path d="m172.75,364.2059c0,1.4325-1.1613,2.5938-2.5938,2.5938s-2.5938-1.1613-2.5938-2.5938 1.1613-2.5938 2.5938-2.5938 2.5938,1.1613 2.5938,2.5938z" transform="translate(391.743,-191.5412)"/>
<path d="m164.875,359.8934c0,.466-.3778.8438-.8438.8438s-.8438-.3778-.8438-.8438 .3778-.8438.8438-.8438 .8438.3778.8438.8438z" transform="translate(392.5555,-190.8537)"/>
</g>
<path d="m397.3427,1335.9162c.9507-.3539 1.5686-.7236 2.0053-1.3313-.0313.9546-.3521,1.6852-1.284,2.2163" fill="#fff" fill-rule="evenodd"/>
<path d="m400.8191,1331.6097c-.0958,1.0098-.2931,1.7024-.767,2.2815 .9141-.2773 1.5367-.7763 1.8086-1.8139" fill="#fff" fill-rule="evenodd"/>
<path d="m399.8213,1321.498c.6464-.7818.9966-1.411 1.0709-2.1556 .4502.8424.5377,1.6355-.004,2.5614" fill="#fff" fill-rule="evenodd"/>
<path d="m400.6787,1316.0303c.4219.9224.5974,1.6208.4764,2.3593 .653-.6972.9427-1.4406.6593-2.4751" fill="#fff" fill-rule="evenodd"/>
</g>
</svg>
