<svg viewBox="0 0 512 512" xmlns="http://www.w3.org/2000/svg">

<g transform="matrix(18.68858,0,0,18.68858,-7034.94664,-24502.68487)">
<path d="m 387.594 1314.97 c -3.5022 0.1616 -7.1232 1.3856 -9.9688 3.5625 v 18.8775 h 3.7055 c 1.5067 -7.6118 10.0986 -8.4357 11.9508 -5.7525 l 0.5938 -5 c -4.7131 -2.1034 -9.5794 -2.4475 -13.3125 0.031 2.5726 -6.219 11.2979 -8.0595 13 -5.5937 l 0.5938 -5 c -1.954 -0.872 -4.2226 -1.2331 -6.5625 -1.125 z" fill="#fff" fill-rule="evenodd"/>
<g transform="matrix(.99043,-.13799,.13799,.99043,-180.53269,1225.0883)">
<path d="m 548.425 164.964 c 8.3086 -0.9114 8.1853 3.8675 16.2556 3.7946 -0.4991 2.8178 -1.1878 5.5882 -2.6219 8.1723 l -7.9116 -2.7665 c 1.9757 -2.764 1.4731 -7.5835 -5.7221 -9.2005 z" fill="#fff" fill-rule="evenodd"/>
<path d="m 172.75 364.206 c 0 1.4325 -1.1613 2.5938 -2.5938 2.5938 s -2.5938 -1.1613 -2.5938 -2.5938 1.1613 -2.5938 2.5938 -2.5938 2.5938 1.1613 2.5938 2.5938 z" transform="translate(391.743,-191.5412)"/>
<path d="m 164.875 359.893 c 0 0.466 -0.3778 0.8438 -0.8438 0.8438 s -0.8438 -0.3778 -0.8438 -0.8438 0.3778 -0.8438 0.8438 -0.8438 0.8438 0.3778 0.8438 0.8438 z" transform="translate(392.5555,-190.8537)"/>
</g>
<g transform="matrix(.92673,.37572,-.37572,.92673,-57.05365,962.25091)">
<path d="m 548.306 165.821 c 8.3086 -0.9114 8.3047 3.0104 16.375 2.9375 -0.4991 2.8178 -1.1878 5.5882 -2.6219 8.1723 l -7.9116 -2.7665 c 1.9757 -2.764 1.3537 -6.7264 -5.8415 -8.3434 z" fill="#fff" fill-rule="evenodd"/>
<path d="m 172.75 364.206 c 0 1.4325 -1.1613 2.5938 -2.5938 2.5938 s -2.5938 -1.1613 -2.5938 -2.5938 1.1613 -2.5938 2.5938 -2.5938 2.5938 1.1613 2.5938 2.5938 z" transform="translate(391.743,-191.5412)"/>
<path d="m 164.875 359.893 c 0 0.466 -0.3778 0.8438 -0.8438 0.8438 s -0.8438 -0.3778 -0.8438 -0.8438 0.3778 -0.8438 0.8438 -0.8438 0.8438 0.3778 0.8438 0.8438 z" transform="translate(392.5555,-190.8537)"/>
</g>
<path d="m 397.343 1335.92 c 0.9507 -0.3539 1.5686 -0.7236 2.0053 -1.3313 -0.0313 0.9546 -0.3521 1.6852 -1.284 2.2163" fill="#fff" fill-rule="evenodd"/>
<path d="m 400.819 1331.61 c -0.0958 1.0098 -0.2931 1.7024 -0.767 2.2815 0.9141 -0.2773 1.5367 -0.7763 1.8086 -1.8139" fill="#fff" fill-rule="evenodd"/>
<path d="m 399.821 1321.5 c 0.6464 -0.7818 0.9966 -1.411 1.0709 -2.1556 0.4502 0.8424 0.5377 1.6355 -0.004 2.5614" fill="#fff" fill-rule="evenodd"/>
<path d="m 400.679 1316.03 c 0.4219 0.9224 0.5974 1.6208 0.4764 2.3593 0.653 -0.6972 0.9427 -1.4406 0.6593 -2.4751" fill="#fff" fill-rule="evenodd"/>
</g>
</svg>
