<svg viewBox="0 0 512 512" xmlns="http://www.w3.org/2000/svg">

<g transform="matrix(18.68858,0,0,18.68858,-9079.97067,-25183.59394)">
<path d="m 496.194 1364.44 c -0.5912 -10.3675 10.3119 -7.2859 3.6622 0.5452" fill="#fff"/>
<path d="m 511.845 1352.52 c -5.4414 4.9032 -11.2768 0.3907 -12.0468 6.9893 1.0663 3.7123 2.9259 5.8166 5.5619 4.9847 l -0.0629 -1.1673 0.8562 0.7997 c 0.4024 -0.2323 0.8065 -0.5425 1.2028 -0.8651 l -0.3739 -1.0237 1.0003 0.468 c 0.6813 -0.3552 1.2262 -0.9151 1.77 -1.4765 -0.8663 -0.6721 -1.7615 -1.4929 -2.5411 -2.1531 0.9492 0.4902 2.0717 0.9373 3.0442 1.2814 0.2284 -0.4008 0.6445 -1.127 0.8274 -1.5356 -1.0502 -0.2162 -2.1101 -0.6027 -3.1256 -1.1012 1.2512 0.137 2.4468 0.1631 3.5512 -0.061 0.1501 -0.4624 0.5255 -1.2134 0.5952 -1.6585 -1.2637 0.3691 -2.6349 0.4699 -4.0091 0.3762 1.5428 -0.4824 2.9588 -1.1272 4.0432 -2.1302 z" fill="#fff"/>
<path d="m 487.58 1350.72 c 1.0891 1.2352 2.5752 2.1768 4.2376 2.9964 -1.588 -0.2169 -3.1375 -0.6496 -4.5289 -1.3306 -0.0157 0.4609 -0.0313 1.4047 0.0479 1.9038 1.232 0.4813 2.6156 0.7505 4.064 0.8951 -1.268 0.2877 -2.5532 0.4057 -3.8218 0.3719 0.1425 0.5008 0.3919 1.1901 0.6024 1.6949 1.2065 -0.1058 2.4567 -0.4015 3.7114 -0.8277 -1.0052 0.7635 -2.0896 1.3989 -3.2205 1.8899 l 1.5452 1.6083 0.9174 -0.5296 -0.3199 1.1939 c 0.3632 0.3536 1.0968 0.8258 1.4746 1.1035 l 0.71 -0.624 -0.0181 1.0808 c 2.4174 1.6986 5.1756 -0.9769 6.8433 -3.4002 0.7772 -6.5287 -6.9432 -3.9695 -11.9007 -10.2842 z" fill="#fff"/>
<path d="m 498.964 1362.12 c -3.489 2.1558 -9.6046 2.1386 -9.3298 4.0477 l 1.8489 0.3717 -1.8251 0.9654 c 0.0804 0.3958 0.2055 0.8027 0.4136 1.2133 l 2.2119 -0.8737 -1.4946 1.9621 c 0.2529 0.328 0.7817 0.7932 1.0989 1.0978 l 2.112 -2.4743 -0.9611 3.3965 c 0.3338 0.2315 1.0373 0.4992 1.4058 0.6887 l 2.3176 -3.8032 -0.7565 4.2938 c 0.9217 0.1866 1.108 0.2574 2.1307 0.1707 l 0.9731 -4.0484 1.0861 3.8447 c 0.3924 -0.1343 1.242 -0.5097 1.604 -0.6776 l -0.6312 -3.1731 1.8927 2.4154 c 0.387 -0.2716 1.0136 -0.62 1.3011 -0.9272 l -0.9628 -1.9973 1.7108 0.9733 c 1.7854 -1.2003 -5.1292 -4.5038 -6.1447 -7.4625 z" fill="#fff"/>
<g fill="#fff">
<path d="m 319.019 531.676 c 0 0.6363 -0.5159 1.1522 -1.1522 1.1522 s -1.1522 -0.5159 -1.1522 -1.1522 0.5159 -1.1522 1.1522 -1.1522 1.1522 0.5159 1.1522 1.1522 z" fill="#fff" transform="matrix(1.57084,.4209,-.4209,1.57084,224.59937,389.85232)"/>
</g>
<path d="m 499.755 1359.72 1.2642 2.3732 0.516 -2.4509 c -0.6807 0.5073 -1.2345 0.3125 -1.7801 0.078 z"/>
</g>
</svg>
