<svg viewBox="0 0 512 512" xmlns="http://www.w3.org/2000/svg">

<g transform="matrix(18.68858,0,0,18.68858,-9079.97067,-25183.59394)">
<path d="m496.1939,1364.4419c-.5912-10.3675 10.3119-7.2859 3.6622.5452" fill="#fff"/>
<path d="m511.8452,1352.5156c-5.4414,4.9032-11.2768.3907-12.0468,6.9893 1.0663,3.7123 2.9259,5.8166 5.5619,4.9847l-.0629-1.1673 .8562.7997c.4024-.2323.8065-.5425 1.2028-.8651l-.3739-1.0237 1.0003.468c.6813-.3552 1.2262-.9151 1.77-1.4765-.8663-.6721-1.7615-1.4929-2.5411-2.1531 .9492.4902 2.0717.9373 3.0442,1.2814 .2284-.4008.6445-1.127.8274-1.5356-1.0502-.2162-2.1101-.6027-3.1256-1.1012 1.2512.137 2.4468.1631 3.5512-.061 .1501-.4624.5255-1.2134.5952-1.6585-1.2637.3691-2.6349.4699-4.0091.3762 1.5428-.4824 2.9588-1.1272 4.0432-2.1302z" fill="#fff"/>
<path d="m487.5804,1350.7214c1.0891,1.2352 2.5752,2.1768 4.2376,2.9964-1.588-.2169-3.1375-.6496-4.5289-1.3306-.0157.4609-.0313,1.4047.0479,1.9038 1.232.4813 2.6156.7505 4.064.8951-1.268.2877-2.5532.4057-3.8218.3719 .1425.5008.3919,1.1901.6024,1.6949 1.2065-.1058 2.4567-.4015 3.7114-.8277-1.0052.7635-2.0896,1.3989-3.2205,1.8899l1.5452,1.6083 .9174-.5296-.3199,1.1939c.3632.3536 1.0968.8258 1.4746,1.1035l.71-.624-.0181,1.0808c2.4174,1.6986 5.1756-.9769 6.8433-3.4002 .7772-6.5287-6.9432-3.9695-11.9007-10.2842z" fill="#fff"/>
<path d="m498.9636,1362.1244c-3.489,2.1558-9.6046,2.1386-9.3298,4.0477l1.8489.3717-1.8251.9654c.0804.3958.2055.8027.4136,1.2133l2.2119-.8737-1.4946,1.9621c.2529.328.7817.7932 1.0989,1.0978l2.112-2.4743-.9611,3.3965c.3338.2315 1.0373.4992 1.4058.6887l2.3176-3.8032-.7565,4.2938c.9217.1866 1.108.2574 2.1307.1707l.9731-4.0484 1.0861,3.8447c.3924-.1343 1.242-.5097 1.604-.6776l-.6312-3.1731 1.8927,2.4154c.387-.2716 1.0136-.62 1.3011-.9272l-.9628-1.9973 1.7108.9733c1.7854-1.2003-5.1292-4.5038-6.1447-7.4625z" fill="#fff"/>
<g fill="#fff">
<path d="m319.0188,531.6759c0,.6363-.5159,1.1522-1.1522,1.1522s-1.1522-.5159-1.1522-1.1522 .5159-1.1522 1.1522-1.1522 1.1522.5159 1.1522,1.1522z" fill="#fff" transform="matrix(1.57084,.4209,-.4209,1.57084,224.59937,389.85232)"/>
</g>
<path d="m499.7545,1359.7182 1.2642,2.3732 .516-2.4509c-.6807.5073-1.2345.3125-1.7801.078z"/>
</g>
</svg>
