<svg viewBox="0 0 512 512" xmlns="http://www.w3.org/2000/svg">

<g transform="matrix(19.15387,0,0,19.15387,-8753.42262,-29476.63415)">
<path d="m457.8046,1542.8565h5.1762" fill="none" stroke="#fff" stroke-width=".9757"/>
<path d="m459.0595,1547.3616 1.3332-2.6828 1.3332,2.6828" fill="none" stroke="#fff" stroke-width=".9757"/>
<path d="m460.3927,1545.05v-3.1337" fill="none" stroke="#fff" stroke-width=".9757"/>
<path d="m461.3429,1541.2161c0,.8664-.465,1.5689-1.0386,1.5689s-1.0386-.7025-1.0386-1.5689 .465-1.5689 1.0386-1.5689 1.0386.7024 1.0386,1.5689z" fill="#fff" transform="matrix(1.04486,0,0,.79489,-20.56159,316.20029)"/>
</g>
<g transform="matrix(19.15387,0,0,19.15387,-8626.52824,-29476.63415)">
<path d="m457.8046,1542.8565h5.1762" fill="none" stroke="#fff" stroke-width=".9757"/>
<path d="m459.0595,1547.3616 1.3332-2.6828 1.3332,2.6828" fill="none" stroke="#fff" stroke-width=".9757"/>
<path d="m460.3927,1545.05v-3.1337" fill="none" stroke="#fff" stroke-width=".9757"/>
<path d="m461.3429,1541.2161c0,.8664-.465,1.5689-1.0386,1.5689s-1.0386-.7025-1.0386-1.5689 .465-1.5689 1.0386-1.5689 1.0386.7024 1.0386,1.5689z" fill="#fff" transform="matrix(1.04486,0,0,.79489,-20.56159,316.20029)"/>
</g>
<g transform="matrix(19.15387,0,0,19.15387,-8503.2834,-29476.63415)">
<path d="m457.8046,1542.8565h5.1762" fill="none" stroke="#fff" stroke-width=".9757"/>
<path d="m459.0595,1547.3616 1.3332-2.6828 1.3332,2.6828" fill="none" stroke="#fff" stroke-width=".9757"/>
<path d="m460.3927,1545.05v-3.1337" fill="none" stroke="#fff" stroke-width=".9757"/>
<path d="m461.3429,1541.2161c0,.8664-.465,1.5689-1.0386,1.5689s-1.0386-.7025-1.0386-1.5689 .465-1.5689 1.0386-1.5689 1.0386.7024 1.0386,1.5689z" fill="#fff" transform="matrix(1.04486,0,0,.79489,-20.56159,316.20029)"/>
</g>
<g transform="matrix(19.15387,0,0,19.15387,-8381.11935,-29476.63415)">
<path d="m457.8046,1542.8565h5.1762" fill="none" stroke="#fff" stroke-width=".9757"/>
<path d="m459.0595,1547.3616 1.3332-2.6828 1.3332,2.6828" fill="none" stroke="#fff" stroke-width=".9757"/>
<path d="m460.3927,1545.05v-3.1337" fill="none" stroke="#fff" stroke-width=".9757"/>
<path d="m461.3429,1541.2161c0,.8664-.465,1.5689-1.0386,1.5689s-1.0386-.7025-1.0386-1.5689 .465-1.5689 1.0386-1.5689 1.0386.7024 1.0386,1.5689z" fill="#fff" transform="matrix(1.04486,0,0,.79489,-20.56159,316.20029)"/>
</g>
<g transform="matrix(19.15387,0,0,19.15387,-8753.42262,-29310.77298)">
<path d="m457.8046,1542.8565h5.1762" fill="none" stroke="#fff" stroke-width=".9757"/>
<path d="m459.0595,1547.3616 1.3332-2.6828 1.3332,2.6828" fill="none" stroke="#fff" stroke-width=".9757"/>
<path d="m460.3927,1545.05v-3.1337" fill="none" stroke="#fff" stroke-width=".9757"/>
<path d="m461.3429,1541.2161c0,.8664-.465,1.5689-1.0386,1.5689s-1.0386-.7025-1.0386-1.5689 .465-1.5689 1.0386-1.5689 1.0386.7024 1.0386,1.5689z" fill="#fff" transform="matrix(1.04486,0,0,.79489,-20.56159,316.20029)"/>
</g>
<g transform="matrix(19.15387,0,0,19.15387,-8626.52824,-29310.77298)">
<path d="m457.8046,1542.8565h5.1762" fill="none" stroke="#fff" stroke-width=".9757"/>
<path d="m459.0595,1547.3616 1.3332-2.6828 1.3332,2.6828" fill="none" stroke="#fff" stroke-width=".9757"/>
<path d="m460.3927,1545.05v-3.1337" fill="none" stroke="#fff" stroke-width=".9757"/>
<path d="m461.3429,1541.2161c0,.8664-.465,1.5689-1.0386,1.5689s-1.0386-.7025-1.0386-1.5689 .465-1.5689 1.0386-1.5689 1.0386.7024 1.0386,1.5689z" fill="#fff" transform="matrix(1.04486,0,0,.79489,-20.56159,316.20029)"/>
</g>
<g transform="matrix(19.15387,0,0,19.15387,-8503.2834,-29310.77298)">
<path d="m457.8046,1542.8565h5.1762" fill="none" stroke="#fff" stroke-width=".9757"/>
<path d="m459.0595,1547.3616 1.3332-2.6828 1.3332,2.6828" fill="none" stroke="#fff" stroke-width=".9757"/>
<path d="m460.3927,1545.05v-3.1337" fill="none" stroke="#fff" stroke-width=".9757"/>
<path d="m461.3429,1541.2161c0,.8664-.465,1.5689-1.0386,1.5689s-1.0386-.7025-1.0386-1.5689 .465-1.5689 1.0386-1.5689 1.0386.7024 1.0386,1.5689z" fill="#fff" transform="matrix(1.04486,0,0,.79489,-20.56159,316.20029)"/>
</g>
<g transform="matrix(19.15387,0,0,19.15387,-8381.11935,-29310.77298)">
<path d="m457.8046,1542.8565h5.1762" fill="none" stroke="#fff" stroke-width=".9757"/>
<path d="m459.0595,1547.3616 1.3332-2.6828 1.3332,2.6828" fill="none" stroke="#fff" stroke-width=".9757"/>
<path d="m460.3927,1545.05v-3.1337" fill="none" stroke="#fff" stroke-width=".9757"/>
<path d="m461.3429,1541.2161c0,.8664-.465,1.5689-1.0386,1.5689s-1.0386-.7025-1.0386-1.5689 .465-1.5689 1.0386-1.5689 1.0386.7024 1.0386,1.5689z" fill="#fff" transform="matrix(1.04486,0,0,.79489,-20.56159,316.20029)"/>
</g>
<g transform="matrix(19.15387,0,0,19.15387,-8753.42262,-29145.49582)">
<path d="m457.8046,1542.8565h5.1762" fill="none" stroke="#fff" stroke-width=".9757"/>
<path d="m459.0595,1547.3616 1.3332-2.6828 1.3332,2.6828" fill="none" stroke="#fff" stroke-width=".9757"/>
<path d="m460.3927,1545.05v-3.1337" fill="none" stroke="#fff" stroke-width=".9757"/>
<path d="m461.3429,1541.2161c0,.8664-.465,1.5689-1.0386,1.5689s-1.0386-.7025-1.0386-1.5689 .465-1.5689 1.0386-1.5689 1.0386.7024 1.0386,1.5689z" fill="#fff" transform="matrix(1.04486,0,0,.79489,-20.56159,316.20029)"/>
</g>
<g transform="matrix(19.15387,0,0,19.15387,-8626.52824,-29145.49582)">
<path d="m457.8046,1542.8565h5.1762" fill="none" stroke="#fff" stroke-width=".9757"/>
<path d="m459.0595,1547.3616 1.3332-2.6828 1.3332,2.6828" fill="none" stroke="#fff" stroke-width=".9757"/>
<path d="m460.3927,1545.05v-3.1337" fill="none" stroke="#fff" stroke-width=".9757"/>
<path d="m461.3429,1541.2161c0,.8664-.465,1.5689-1.0386,1.5689s-1.0386-.7025-1.0386-1.5689 .465-1.5689 1.0386-1.5689 1.0386.7024 1.0386,1.5689z" fill="#fff" transform="matrix(1.04486,0,0,.79489,-20.56159,316.20029)"/>
</g>
<g transform="matrix(19.15387,0,0,19.15387,-8503.2834,-29145.49582)">
<path d="m457.8046,1542.8565h5.1762" fill="none" stroke="#fff" stroke-width=".9757"/>
<path d="m459.0595,1547.3616 1.3332-2.6828 1.3332,2.6828" fill="none" stroke="#fff" stroke-width=".9757"/>
<path d="m460.3927,1545.05v-3.1337" fill="none" stroke="#fff" stroke-width=".9757"/>
<path d="m461.3429,1541.2161c0,.8664-.465,1.5689-1.0386,1.5689s-1.0386-.7025-1.0386-1.5689 .465-1.5689 1.0386-1.5689 1.0386.7024 1.0386,1.5689z" fill="#fff" transform="matrix(1.04486,0,0,.79489,-20.56159,316.20029)"/>
</g>
<g transform="matrix(19.15387,0,0,19.15387,-8381.11935,-29145.49582)">
<path d="m457.8046,1542.8565h5.1762" fill="none" stroke="#fff" stroke-width=".9757"/>
<path d="m459.0595,1547.3616 1.3332-2.6828 1.3332,2.6828" fill="none" stroke="#fff" stroke-width=".9757"/>
<path d="m460.3927,1545.05v-3.1337" fill="none" stroke="#fff" stroke-width=".9757"/>
<path d="m461.3429,1541.2161c0,.8664-.465,1.5689-1.0386,1.5689s-1.0386-.7025-1.0386-1.5689 .465-1.5689 1.0386-1.5689 1.0386.7024 1.0386,1.5689z" fill="#fff" transform="matrix(1.04486,0,0,.79489,-20.56159,316.20029)"/>
</g>
</svg>
