<svg viewBox="0 0 512 512" xmlns="http://www.w3.org/2000/svg">

<g transform="matrix(18.68858,0,0,18.68858,-7036.54963,-27901.74629)">
<path d="m 388.769 1507.08 c -2.1666 2.1194 -6.2641 -2.6056 -8.3068 -5.7434 -2.7243 -4.1847 0.0409 -5.1414 3.3847 -2.2568 2.7735 2.393 3.9708 4.1675 5.663 6.7232" fill="none" stroke="#fff"/>
<path d="m 389.88 1508.19 c -2.1194 2.1666 2.6056 6.2643 5.7431 8.3072 4.1846 2.7243 5.1412 -0.041 2.2567 -3.3848 -2.3929 -2.7736 -4.1673 -3.971 -6.7228 -5.6635" fill="none" stroke="#fff"/>
<path d="m 389.775 1505.78 c -2.7421 1.3872 -5.6367 -4.0484 -6.8747 -7.48 -1.6509 -4.5766 1.3901 -4.734 4.0073 -1.1945 2.1708 2.936 2.9131 4.8879 3.9501 7.6905" stroke="#fff"/>
<path d="m 391.337 1507.02 c -1.3873 2.7422 4.0481 5.6371 7.4795 6.8751 4.5764 1.6508 4.7338 -1.3903 1.1945 -4.0075 -2.9359 -2.1709 -4.8875 -2.9136 -7.69 -3.9503" stroke="#fff"/>
<path d="m 317.417 1396.51 c 0 1.9093 -0.9925 3.4571 -2.2167 3.4571 s -2.2167 -1.5478 -2.2167 -3.4571 0.9925 -3.4571 2.2167 -3.4571 2.2167 1.5478 2.2167 3.4571 z" fill="#fff" stroke="#000" stroke-width=".8959" transform="matrix(.78927,.7893,-.78927,.7893,1243.8462,155.18332)"/>
<path d="m 317.973 1390.13 c 0 1.1233 -0.9106 2.034 -2.034 2.034 s -2.034 -0.9107 -2.034 -2.034 0.9106 -2.034 2.034 -2.034 2.034 0.9106 2.034 2.034 z" fill="#fff" stroke="#000" stroke-width=".8959" transform="matrix(.78927,.7893,-.78927,.7893,1241.7637,155.97149)"/>
<path d="m 317.973 1390.13 c 0 1.1233 -0.9106 2.034 -2.034 2.034 s -2.034 -0.9107 -2.034 -2.034 0.9106 -2.034 2.034 -2.034 2.034 0.9106 2.034 2.034 z" fill="#fff" transform="matrix(.41274,.41276,-.41274,.41276,835.52281,796.55308)"/>
<path d="m 317.973 1390.13 c 0 1.1233 -0.9106 2.034 -2.034 2.034 s -2.034 -0.9107 -2.034 -2.034 0.9106 -2.034 2.034 -2.034 2.034 0.9106 2.034 2.034 z" fill="#fff" transform="matrix(.41274,.41276,-.41274,.41276,839.06543,800.13323)"/>
<path d="m 388.588 1507.76 c -1.8624 1.3552 -8.5371 6.8398 -10.6732 8.0308 -0.7552 2.5043 -0.1364 4.2479 3.0584 3.0586 1.1132 -2.1457 6.6394 -8.7686 8.0798 -10.5871 z" fill="#fff"/>
</g>
</svg>
