<svg viewBox="0 0 512 512" xmlns="http://www.w3.org/2000/svg">

<g transform="matrix(18.68858,0,0,18.68858,-3631.28261,-11805.77729)">
<path d="m 195.125 632.406 v 3.2812 c 4.1039 2.8998 8.4462 7.8965 3.4688 6.7188 3.0562 2.9466 5.5714 1.4333 9.3125 7.25 1.6277 2.5308 0.3998 4.3096 -1.5938 4.8438 -2.562 0.6865 -6.1189 -1.6292 -3.0938 -2.9062 -3.1729 -0.0775 -3.5827 2.5672 -2.0723 4.2934 -1.4945 -0.5156 -2.4619 -1.8358 -2.3027 -3.2429 -1.9286 2.5833 -0.2869 4.9915 2.9062 5.4809 h 19.125 v -18.4375 c -0.8428 -3.7621 -5.0766 -4.6961 -5.5312 -0.1875 0.7817 -1.9489 2.7268 -1.1036 4.5 1 -0.6036 -0.4012 -1.297 -0.6149 -1.9375 -0.5938 -1.0557 0.0348 -1.999 0.6467 -2.2188 1.9688 2.9913 -2.4674 4.5284 1.8577 3.3037 4.1136 -1.324 2.439 -5.0774 -1.0952 -5.0849 -4.0511 -1.4969 1.6713 -0.4181 5.7948 2.8022 6.5573 -6.1029 -0.6626 -4.0638 -6.9964 -6.5834 -8.3385 1.5372 6.8296 -9.3066 -5.1143 -12.2812 -7.75 h -2.7188 z" fill="#fff"/>
</g>
</svg>
