<svg xmlns="http://www.w3.org/2000/svg" viewBox="0 0 512 512">
<g transform="matrix(18.68858 0 0 18.68858 -11127.70343 -42868.11891)">
<path stroke="#fff" stroke-width=".962" d="m619.6114,2308.7878c0,4.5588-3.6956,8.2543-8.2543,8.2543s-8.2543-3.6955-8.2543-8.2543 3.6956-8.2542 8.2543-8.2542 8.2543,3.6955 8.2543,8.2542z" transform="matrix(1.03965 0 0 1.03965 -22.80145 -96.5054)"/>
<path fill="#fff" d="m613.7691,2299.9065c-2.1412-.2362-1.8762-2.2824-.0363-2.696 3.2994-.7414 6.7082,3.8647 5.6443,7.4139-.7537,2.5142-3.5238,2.6491-3.1657.1355 .2868-2.0133-.8348-4.676-2.4422-4.8534z"/>
<path stroke="#fff" stroke-width="2.64" d="m619.6114,2308.7878c0,4.5588-3.6956,8.2543-8.2543,8.2543s-8.2543-3.6955-8.2543-8.2543 3.6956-8.2542 8.2543-8.2542 8.2543,3.6955 8.2543,8.2542z" transform="matrix(.3788 0 0 .3788 374.36653 1441.7972)"/>
<path fill="#fff" d="m605.83,2315.6504c-.5815-.2464-.4123-.85.1306-.9547 .9735-.1877 1.9311,1.1927 1.5875,2.2231-.2434.73-1.3451.7128-1.1762-.012 .1779-.7633-.2182-1.1193-.5419-1.2564z"/>
<path stroke="#fff" d="m595.9688,2314.9688c.4065.102.8119.1562 1.25.1562 2.8716,0 5.2188-2.3158 5.2188-5.1875s-2.3471-5.1875-5.2188-5.1875c-.1795,0-.3565-.018-.5312,0-.2519.026-.4788.096-.7188.1562"/>
<path fill="#fff" d="m597.4593,2308.3855c-1.1977-.081-.8966-1.5004.1187-1.7624 1.8206-.4706 3.823,1.9289 3.3105,3.8575-.3631,1.3662-2.3375,1.4912-2.232.1306 .0852-1.0982-.2486-2.1617-1.1972-2.2259z"/>
<path fill="none" stroke="#000" d="m595.9654,2302.8805v15.4917"/>
</g>
<g fill="#fff" transform="matrix(18.68858 0 0 18.68858 -11127.70343 -42868.11891)">
<path d="m3330.3301,1536.2771h3.0711v3.0711h-3.0711z" transform="matrix(.63884 .76934 -.98569 -.16859 0 0)"/>
<path d="m343.1403-2113.5386h3.7762v3.7762h-3.7762z" transform="matrix(-.34684 .93792 -.34684 -.93792 0 0)"/>
<path d="m3647.8711,2985.3579h3.0711v3.0711h-3.0711z" transform="matrix(-.63884 .76934 .98569 -.16859 0 0)"/>
</g>
</svg>
