<svg viewBox="0 0 512 512" xmlns="http://www.w3.org/2000/svg">

<g transform="matrix(18.68858,0,0,18.68858,-1595.8158,-38101.76623)">
<g transform="matrix(1.14719,.22352,-.22352,1.14719,444.83822,-325.55348)">
<path d="m104.5072,2062.28c-2.5871,1.1665-5.5365,1.4729-8.2889.7776-5.6544-1.4278-9.7605-7.1934-8.2487-13.0581 1.1692-4.535 5.7803-7.8367 10.4473-6.6106 3.5765.9396 6.1727,4.6139 5.1741,8.3317-.758,2.8218-3.6505,4.8755-6.6344,4.1541 2.2016-.023 3.807-2.1698 3.7021-4.3742-.1382-2.9043-2.8492-4.9443-5.635-4.7909-3.6352.2002-6.188,3.6426-5.9843,7.174 .2637,4.5667 4.5407,7.7602 8.9317,7.4763 2.1374-.1381 4.1859-1.042 5.7761-2.4802" fill="#fff"/>
<path d="m99.7455,2054.1274c0,1.1307-.9165,2.0472-2.0472,2.0472s-2.0472-.9165-2.0472-2.0472 .9165-2.0471 2.0472-2.0471 2.0472.9165 2.0472,2.0471z" fill="#fff" transform="matrix(1.23918,.33204,-.25882,.96593,507.96993,37.31073)"/>
</g>
<path d="m100.7055,2057.7816c3.5658-.7721 6.9473-1.6149 10.4397-3.4771 0,0 .7173,5.8257.8618,8.7746l-8.1726,1.8207z" fill="#fff" fill-rule="evenodd"/>
<path d="m172.75,364.2059c0,1.4325-1.1613,2.5938-2.5938,2.5938s-2.5938-1.1613-2.5938-2.5938 1.1613-2.5938 2.5938-2.5938 2.5938,1.1613 2.5938,2.5938z" transform="matrix(.73461,-.45607,.45607,.73461,-181.24399,1869.5962)"/>
<path d="m103.2784,2058.8332 3.3258-1.4203-.086,1.9902z"/>
<path d="m101.8111,2057.5172c-2.4902.6697-6.7652.067-8.3743-1.6174 1.0127,2.2478 4.6094,3.5704 8.3656,3.5237z" fill="#fff"/>
<path d="m99.0721,2062.8279-2.0472-2.5859-2.6128,1.6432-1.1313-2.7476-2.3435.458-.0539-2.3705-2.1818-.5387 .7003-2.128-2.0202-.8081 1.266-1.9663-1.1852-1.8317 1.7239-1.1313-.5926-1.8586 2.1976-.4607 .2805-2.233 2.0741.6196 1.0236-2.1011 2.2088,1.6162 2.0741-.9698-7.4632-.9427-4.0702,6.8116 .9983,6.663 4.9211,5.2879z" fill="#fff"/>
</g>
</svg>
