<svg viewBox="0 0 512 512" xmlns="http://www.w3.org/2000/svg">

<g transform="matrix(18.68858,0,0,18.68858,-3387.65188,-11022.36525)">
<path d="m 189.506 590.613 c 5.5033 -1.2107 6.867 1.1439 9.1391 5.4586 -0.8911 0.9845 -2.0181 1.5324 -3.4819 1.4571 -0.505 -2.2466 -2.7707 -5.1059 -5.6572 -6.9158 z" fill="#fff" fill-rule="evenodd" stroke="#000"/>
<path d="m 189.781 594.906 c -3.0084 -0.6592 -6.3831 0.7006 -7.375 3.9079 v 17.2483 h 11.383 c -7.6379 -2.7655 -9.509 -16.99 -1.008 -13.5 l 4.625 -5.75 c -2.8047 -1.2236 -5.3541 -1.809 -7.625 -1.9062 z" fill="#fff"/>
<path d="m 206.667 602.319 c 3.5308 5.4491 -3.9203 10.2472 -5.8126 10.1792 -2.9817 -0.4017 -7.3121 -4.439 -9.0694 -9 0.8558 -2.3277 2.0035 -5.8848 1.1049 -7.599 1.9456 -0.6989 7.9901 0.2674 8.7851 2.8004 0.6207 1.9779 2.4918 3.3817 4.9921 3.6194 z" fill="#fff"/>
<path d="m 203.562 603.925 c 0 1.3807 -1.1193 2.5 -2.5 2.5 s -2.5 -1.1193 -2.5 -2.5 1.1193 -2.5 2.5 -2.5 2.5 1.1193 2.5 2.5 z" transform="matrix(.8298,.47856,-.6827,1.18117,449.2184,-200.61077)"/>
<path d="m 203.562 603.925 c 0 1.3807 -1.1193 2.5 -2.5 2.5 s -2.5 -1.1193 -2.5 -2.5 1.1193 -2.5 2.5 -2.5 2.5 1.1193 2.5 2.5 z" transform="matrix(.71878,.41454,-.59136,1.02315,413.34575,-93.92172)"/>
<path d="m 203.562 603.925 c 0 1.3807 -1.1193 2.5 -2.5 2.5 s -2.5 -1.1193 -2.5 -2.5 1.1193 -2.5 2.5 -2.5 2.5 1.1193 2.5 2.5 z" transform="matrix(.49973,.49919,-.71212,.71134,528.35307,75.12644)"/>
<path d="m 203.562 603.925 c 0 1.3807 -1.1193 2.5 -2.5 2.5 s -2.5 -1.1193 -2.5 -2.5 1.1193 -2.5 2.5 -2.5 2.5 1.1193 2.5 2.5 z" transform="matrix(.34128,.34091,-.48632,.48579,422.60551,241.44614)"/>
<path d="m 194.342 598.434 c 0.5961 1.3885 1.457 2.4626 3.375 2.2812 0.1833 -2.1622 -1.2327 -2.6108 -3.375 -2.2812 z" fill-rule="evenodd"/>
<path d="m 199.684 602.086 c -1.8067 0.4885 -1.3895 1.8142 -0.3485 2.167 -0.7586 0.6637 -0.1617 2.0851 1.2248 2.2431 -1.2905 0.937 0.4143 2.8285 1.6562 2.4688 -0.6588 1.2134 0.6071 1.6695 1.2188 2 -0.8841 0.9778 -1.7902 1.1331 -2.6743 1.0012" fill="none" stroke="#fff"/>
<path d="m 183.093 592.718 c 4.8062 -2.545 7.1144 -0.7185 11.125 2.6875 -0.4464 1.1419 -1.3044 1.9408 -2.75 2.25 -1.4333 -1.9489 -4.8252 -4.0092 -8.375 -4.9375 z" fill="#fff" fill-rule="evenodd" stroke="#000"/>
<path d="m 193.96 595.175 c 1.9165 -0.073 3.6391 0.3124 5.6348 1.0386" fill="none" stroke="#000"/>
<path d="m 192.369 599.926 c -0.1072 1.3111 -0.6784 2.6222 -1.37 3.9333" fill="none" stroke="#000"/>
</g>
</svg>
