<svg viewBox="0 0 512 512" xmlns="http://www.w3.org/2000/svg">

<g transform="matrix(18.68858,0,0,18.68858,-3387.65188,-11022.36525)">
<path d="m189.5061,590.6134c5.5033-1.2107 6.867,1.1439 9.1391,5.4586-.8911.9845-2.0181,1.5324-3.4819,1.4571-.505-2.2466-2.7707-5.1059-5.6572-6.9158z" fill="#fff" fill-rule="evenodd" stroke="#000"/>
<path d="m189.7812,594.9062c-3.0084-.6592-6.3831.7006-7.375,3.9079v17.2483h11.383c-7.6379-2.7655-9.509-16.99-1.008-13.5l4.625-5.75c-2.8047-1.2236-5.3541-1.809-7.625-1.9062z" fill="#fff"/>
<path d="m206.6672,602.3195c3.5308,5.4491-3.9203,10.2472-5.8126,10.1792-2.9817-.4017-7.3121-4.439-9.0694-9 .8558-2.3277 2.0035-5.8848 1.1049-7.599 1.9456-.6989 7.9901.2674 8.7851,2.8004 .6207,1.9779 2.4918,3.3817 4.9921,3.6194z" fill="#fff"/>
<path d="m203.5625,603.9247c0,1.3807-1.1193,2.5-2.5,2.5s-2.5-1.1193-2.5-2.5 1.1193-2.5 2.5-2.5 2.5,1.1193 2.5,2.5z" transform="matrix(.8298,.47856,-.6827,1.18117,449.2184,-200.61077)"/>
<path d="m203.5625,603.9247c0,1.3807-1.1193,2.5-2.5,2.5s-2.5-1.1193-2.5-2.5 1.1193-2.5 2.5-2.5 2.5,1.1193 2.5,2.5z" transform="matrix(.71878,.41454,-.59136,1.02315,413.34575,-93.92172)"/>
<path d="m203.5625,603.9247c0,1.3807-1.1193,2.5-2.5,2.5s-2.5-1.1193-2.5-2.5 1.1193-2.5 2.5-2.5 2.5,1.1193 2.5,2.5z" transform="matrix(.49973,.49919,-.71212,.71134,528.35307,75.12644)"/>
<path d="m203.5625,603.9247c0,1.3807-1.1193,2.5-2.5,2.5s-2.5-1.1193-2.5-2.5 1.1193-2.5 2.5-2.5 2.5,1.1193 2.5,2.5z" transform="matrix(.34128,.34091,-.48632,.48579,422.60551,241.44614)"/>
<path d="m194.3416,598.4336c.5961,1.3885 1.457,2.4626 3.375,2.2812 .1833-2.1622-1.2327-2.6108-3.375-2.2812z" fill-rule="evenodd"/>
<path d="m199.6841,602.0861c-1.8067.4885-1.3895,1.8142-.3485,2.167-.7586.6637-.1617,2.0851 1.2248,2.2431-1.2905.937.4143,2.8285 1.6562,2.4688-.6588,1.2134.6071,1.6695 1.2188,2-.8841.9778-1.7902,1.1331-2.6743,1.0012" fill="none" stroke="#fff"/>
<path d="m183.093,592.7181c4.8062-2.545 7.1144-.7185 11.125,2.6875-.4464,1.1419-1.3044,1.9408-2.75,2.25-1.4333-1.9489-4.8252-4.0092-8.375-4.9375z" fill="#fff" fill-rule="evenodd" stroke="#000"/>
<path d="m193.9597,595.1751c1.9165-.073 3.6391.3124 5.6348,1.0386" fill="none" stroke="#000"/>
<path d="m192.3687,599.926c-.1072,1.3111-.6784,2.6222-1.37,3.9333" fill="none" stroke="#000"/>
</g>
</svg>
