<svg viewBox="0 0 512 512" xmlns="http://www.w3.org/2000/svg">

<g transform="matrix(18.68858,0,0,18.68858,-6355.19274,-19083.59149)">
<path d="m351.4432,1028.2052c.3658,1.2281.9054,2.4805 1.6148,3.7089 3.0522,5.2846 8.1428,8.055 11.3688,6.1932s3.3712-7.6541.319-12.9388c-.6782-1.1742-1.4623-2.2157-2.2994-3.1191-1.1168,1.5154-2.7279,2.9701-4.7121,4.1153-2.1138,1.22-4.3251,1.8823-6.2911,2.0405z" fill="#fff" stroke="#000" stroke-width=".927"/>
<path d="m357.6179,1037.3026c3.4207-.7909 6.8438-2.5181 9.2773-5.363" fill="none" stroke="#000"/>
<path d="m352.4175,1030.9519 6.218.9715" fill="none" stroke="#000"/>
<path d="m354.8834,1029.8803c-.0353,1.2802-.2323,2.629-.5994,3.9984-1.5797,5.8915-5.7789,9.8826-9.3764,8.9194s-5.2372-6.5181-3.6575-12.4095c.351-1.3091.8387-2.5173 1.4133-3.606 1.4708,1.1742 3.4034,2.162 5.6161,2.7545 2.3572.6313 4.6643.6989 6.604.3432z" fill="#fff" stroke="#000" stroke-width=".927"/>
<path d="m344.2052,1033.7921c0,.6866-.5566,1.2431-1.2431,1.2431s-1.2431-.5565-1.2431-1.2431 .5565-1.2431 1.2431-1.2431 1.2431.5566 1.2431,1.2431z" transform="matrix(.96593,.25882,-.25882,.96593,280.39825,-53.11723)"/>
<path d="m341.6264,1038.6772c3.1497-.6218 6.0504.1289 8.3498,2.2373" fill="none" stroke="#000"/>
<path d="m364.0629,1024.2284-2.2677,5.8707" fill="none" stroke="#000"/>
<path d="m352.5488,1039.2988c0,.5378-.4359.9737-.9737.9737s-.9737-.4359-.9737-.9737 .4359-.9736.9737-.9736 .9737.4359.9737.9736z" transform="matrix(-.97629,.97609,.97594,.97575,-308.49983,-326.91636)"/>
<path d="m352.5488,1039.2988c0,.5378-.4359.9737-.9737.9737s-.9737-.4359-.9737-.9737 .4359-.9736.9737-.9736 .9737.4359.9737.9736z" transform="matrix(1.33346,-.35744,.35705,1.33306,-481.42688,-227.07688)"/>
<path d="m352.5238,1035.9914-2.9709-2.7518" fill="none" stroke="#000"/>
<path d="m344.2052,1033.7921c0,.6866-.5566,1.2431-1.2431,1.2431s-1.2431-.5565-1.2431-1.2431 .5565-1.2431 1.2431-1.2431 1.2431.5566 1.2431,1.2431z" transform="matrix(-.96593,-.25882,-.25882,.96593,948.93971,125.84911)"/>
<path d="m347.999,1032.639c-.3049,1.2767-.4679,2.6639-.4679,4.1168 0,6.2503 3.0976,11.314 6.9147,11.3142s6.9147-5.0639 6.9147-11.3142c0-1.3889-.1621-2.7142-.4419-3.944-1.7677.7723-3.9431,1.238-6.2908,1.238-2.5012,0-4.803-.5446-6.6288-1.4108z" fill="#fff" stroke="#000" stroke-width=".927"/>
<path d="m351.0136,1043.2553h6.9996c-2.1447,2.3862-4.9561,2.2926-6.9996,0z" fill-rule="evenodd"/>
<path d="m347.8438,1037.1521c1.6663.5546 3.4138.9572 5.1961,1.1649l.3043,3.2165" fill="none" stroke="#000"/>
<path d="m361.5678,1037.1521c-1.6663.5546-3.4138.9572-5.1961,1.1649l-.3043,3.2165" fill="none" stroke="#000"/>
<path d="m341.8385,1033.2971 3.9488-.8977" fill="none" stroke="#000"/>
<path d="m344.2052,1033.7921c0,.6866-.5566,1.2431-1.2431,1.2431s-1.2431-.5565-1.2431-1.2431 .5565-1.2431 1.2431-1.2431 1.2431.5566 1.2431,1.2431z" transform="matrix(.96593,.25882,-.25882,.96593,288.52622,-48.33607)"/>
<path d="m344.2052,1033.7921c0,.6866-.5566,1.2431-1.2431,1.2431s-1.2431-.5565-1.2431-1.2431 .5565-1.2431 1.2431-1.2431 1.2431.5566 1.2431,1.2431z" transform="matrix(.96593,.25882,-.25882,.96593,293.42213,-48.33607)"/>
</g>
</svg>
