<svg viewBox="0 0 512 512" xmlns="http://www.w3.org/2000/svg">

<g transform="matrix(18.68858,0,0,18.68858,-6355.19274,-19083.59149)">
<path d="m 351.443 1028.21 c 0.3658 1.2281 0.9054 2.4805 1.6148 3.7089 3.0522 5.2846 8.1428 8.055 11.3688 6.1932 s 3.3712 -7.6541 0.319 -12.9388 c -0.6782 -1.1742 -1.4623 -2.2157 -2.2994 -3.1191 -1.1168 1.5154 -2.7279 2.9701 -4.7121 4.1153 -2.1138 1.22 -4.3251 1.8823 -6.2911 2.0405 z" fill="#fff" stroke="#000" stroke-width=".927"/>
<path d="m 357.618 1037.3 c 3.4207 -0.7909 6.8438 -2.5181 9.2773 -5.363" fill="none" stroke="#000"/>
<path d="m 352.418 1030.95 6.218 0.9715" fill="none" stroke="#000"/>
<path d="m 354.883 1029.88 c -0.0353 1.2802 -0.2323 2.629 -0.5994 3.9984 -1.5797 5.8915 -5.7789 9.8826 -9.3764 8.9194 s -5.2372 -6.5181 -3.6575 -12.4095 c 0.351 -1.3091 0.8387 -2.5173 1.4133 -3.606 1.4708 1.1742 3.4034 2.162 5.6161 2.7545 2.3572 0.6313 4.6643 0.6989 6.604 0.3432 z" fill="#fff" stroke="#000" stroke-width=".927"/>
<path d="m 344.205 1033.79 c 0 0.6866 -0.5566 1.2431 -1.2431 1.2431 s -1.2431 -0.5565 -1.2431 -1.2431 0.5565 -1.2431 1.2431 -1.2431 1.2431 0.5566 1.2431 1.2431 z" transform="matrix(.96593,.25882,-.25882,.96593,280.39825,-53.11723)"/>
<path d="m 341.626 1038.68 c 3.1497 -0.6218 6.0504 0.1289 8.3498 2.2373" fill="none" stroke="#000"/>
<path d="m 364.063 1024.23 -2.2677 5.8707" fill="none" stroke="#000"/>
<path d="m 352.549 1039.3 c 0 0.5378 -0.4359 0.9737 -0.9737 0.9737 s -0.9737 -0.4359 -0.9737 -0.9737 0.4359 -0.9736 0.9737 -0.9736 0.9737 0.4359 0.9737 0.9736 z" transform="matrix(-.97629,.97609,.97594,.97575,-308.49983,-326.91636)"/>
<path d="m 352.549 1039.3 c 0 0.5378 -0.4359 0.9737 -0.9737 0.9737 s -0.9737 -0.4359 -0.9737 -0.9737 0.4359 -0.9736 0.9737 -0.9736 0.9737 0.4359 0.9737 0.9736 z" transform="matrix(1.33346,-.35744,.35705,1.33306,-481.42688,-227.07688)"/>
<path d="m 352.524 1035.99 -2.9709 -2.7518" fill="none" stroke="#000"/>
<path d="m 344.205 1033.79 c 0 0.6866 -0.5566 1.2431 -1.2431 1.2431 s -1.2431 -0.5565 -1.2431 -1.2431 0.5565 -1.2431 1.2431 -1.2431 1.2431 0.5566 1.2431 1.2431 z" transform="matrix(-.96593,-.25882,-.25882,.96593,948.93971,125.84911)"/>
<path d="m 347.999 1032.64 c -0.3049 1.2767 -0.4679 2.6639 -0.4679 4.1168 0 6.2503 3.0976 11.314 6.9147 11.3142 s 6.9147 -5.0639 6.9147 -11.3142 c 0 -1.3889 -0.1621 -2.7142 -0.4419 -3.944 -1.7677 0.7723 -3.9431 1.238 -6.2908 1.238 -2.5012 0 -4.803 -0.5446 -6.6288 -1.4108 z" fill="#fff" stroke="#000" stroke-width=".927"/>
<path d="m 351.014 1043.26 h 6.9996 c -2.1447 2.3862 -4.9561 2.2926 -6.9996 0 z" fill-rule="evenodd"/>
<path d="m 347.844 1037.15 c 1.6663 0.5546 3.4138 0.9572 5.1961 1.1649 l 0.3043 3.2165" fill="none" stroke="#000"/>
<path d="m 361.568 1037.15 c -1.6663 0.5546 -3.4138 0.9572 -5.1961 1.1649 l -0.3043 3.2165" fill="none" stroke="#000"/>
<path d="m 341.839 1033.3 3.9488 -0.8977" fill="none" stroke="#000"/>
<path d="m 344.205 1033.79 c 0 0.6866 -0.5566 1.2431 -1.2431 1.2431 s -1.2431 -0.5565 -1.2431 -1.2431 0.5565 -1.2431 1.2431 -1.2431 1.2431 0.5566 1.2431 1.2431 z" transform="matrix(.96593,.25882,-.25882,.96593,288.52622,-48.33607)"/>
<path d="m 344.205 1033.79 c 0 0.6866 -0.5566 1.2431 -1.2431 1.2431 s -1.2431 -0.5565 -1.2431 -1.2431 0.5565 -1.2431 1.2431 -1.2431 1.2431 0.5566 1.2431 1.2431 z" transform="matrix(.96593,.25882,-.25882,.96593,293.42213,-48.33607)"/>
</g>
</svg>
