<svg viewBox="0 0 512 512" xmlns="http://www.w3.org/2000/svg">

<g transform="matrix(18.68858,0,0,18.68858,-10448.3147,-43549.52636)">
<path d="m562.426,2343.905 21.975,11.7127-11.7127-21.9752c-.8044-3.002-6.9523-2.3062-9.9071.8454-2.7576,2.9412-2.4407,8.2131-.3552,9.4171z" fill="#fff" stroke="#fff"/>
<path d="m583.131,2348.7875c-2.0526,2.2346-2.153,5.0412 0,7.3848" fill="none" stroke="#000"/>
<path d="m579.9187,2343.3666c-3.537,3.3349-3.71,7.5239 0,11.0218" fill="none" stroke="#000"/>
<path d="m575.9953,2336.6419c-5.4415,4.7467-5.7077,10.7091 0,15.6878" fill="none" stroke="#000"/>
<path d="m570.4339,2330.672c-6.7018,5.681-7.0297,12.8171 0,18.7757" fill="none" stroke="#000"/>
<path d="m585.2747,2354.441-4.6585-9.6876-1.9776-8.4152 5.9138,12.3243z" fill="#fff"/>
<path d="m582.4611,2347.3641-.057-10.0778 2.1484,11.3762z" fill="#fff"/>
<path d="m583.0721,2347.6098 2.3777-4.7756-.9293,7.8074z" fill="#fff"/>
<path d="m583.513,2356.5999-16.5227-7.9453 10.7442,7.223z" fill="#fff"/>
<path d="m577.384,2354.2377-10.3938-1.0502 10.7443,2.6901z" fill="#fff"/>
<path d="m576.6817,2354.3972-4.7756,1.7909 7.8075-.3423z" fill="#fff"/>
<path d="m568.3422,2350.9342-3.847-.7494-2.4963-2.8935z" fill="#fff"/>
<path d="m559.9255,2341.3584 21.5477,12.231 .3002-.8377-21.5839-15.1183"/>
<path d="m572.6883,2333.6425c-.8044-3.002-6.9523-2.3062-9.9071.8454-2.7576,2.9412-2.4407,8.2131-.3552,9.4171" fill="none" stroke="#fff"/>
</g>
</svg>
