<svg viewBox="0 0 512 512" xmlns="http://www.w3.org/2000/svg">

<g transform="matrix(18.68858,0,0,18.68858,-10448.3147,-43549.52636)">
<path d="m 562.426 2343.91 21.975 11.7127 -11.7127 -21.9752 c -0.8044 -3.002 -6.9523 -2.3062 -9.9071 0.8454 -2.7576 2.9412 -2.4407 8.2131 -0.3552 9.4171 z" fill="#fff" stroke="#fff"/>
<path d="m 583.131 2348.79 c -2.0526 2.2346 -2.153 5.0412 0 7.3848" fill="none" stroke="#000"/>
<path d="m 579.919 2343.37 c -3.537 3.3349 -3.71 7.5239 0 11.0218" fill="none" stroke="#000"/>
<path d="m 575.995 2336.64 c -5.4415 4.7467 -5.7077 10.7091 0 15.6878" fill="none" stroke="#000"/>
<path d="m 570.434 2330.67 c -6.7018 5.681 -7.0297 12.8171 0 18.7757" fill="none" stroke="#000"/>
<path d="m 585.275 2354.44 -4.6585 -9.6876 -1.9776 -8.4152 5.9138 12.3243 z" fill="#fff"/>
<path d="m 582.461 2347.36 -0.057 -10.0778 2.1484 11.3762 z" fill="#fff"/>
<path d="m 583.072 2347.61 2.3777 -4.7756 -0.9293 7.8074 z" fill="#fff"/>
<path d="m 583.513 2356.6 -16.5227 -7.9453 10.7442 7.223 z" fill="#fff"/>
<path d="m 577.384 2354.24 -10.3938 -1.0502 10.7443 2.6901 z" fill="#fff"/>
<path d="m 576.682 2354.4 -4.7756 1.7909 7.8075 -0.3423 z" fill="#fff"/>
<path d="m 568.342 2350.93 -3.847 -0.7494 -2.4963 -2.8935 z" fill="#fff"/>
<path d="m 559.926 2341.36 21.5477 12.231 0.3002 -0.8377 -21.5839 -15.1183"/>
<path d="m 572.688 2333.64 c -0.8044 -3.002 -6.9523 -2.3062 -9.9071 0.8454 -2.7576 2.9412 -2.4407 8.2131 -0.3552 9.4171" fill="none" stroke="#fff"/>
</g>
</svg>
