<svg viewBox="0 0 512 512" xmlns="http://www.w3.org/2000/svg">

<g transform="matrix(18.68858,0,0,18.68858,-3639.42959,-40153.21147)">
<path d="m197.4113,2164.0101h15.4968l.0771,7.5171-2.0497,2.3798-4.5458.7059-4.7765-1.5437-3.1996-3.9321z" fill="#fff"/>
<path d="m211.9077,2165.2319c0,.6097-2.7886,1.104-6.2286,1.104s-6.2286-.4943-6.2286-1.104 2.7886-1.1039 6.2286-1.1039 6.2286.4942 6.2286,1.1039z" fill="#fff" stroke="#000" stroke-width=".5773" transform="matrix(1.33863,0,0,2.24134,-70.10921,-2688.8616)"/>
<path d="m216.3832,2155.9919c-4.5102,4.3702-3.4086,10.2258-3.3906,14.8455 .0174,4.4716-7.7373,4.5244-11.4515,1.9134s-6.2871-9.9241-2.0734-11.4206c4.3538-1.5462 10.2388-2.4915 12.8264-8.213" fill="none" stroke="#fff"/>
<path d="m214.9535,2164.2332c-.7429-3.3384 3.998-4.4423 4.5801-1.523l1.305,6.8375-4.58,1.5228z" fill="#fff" stroke="#000"/>
<path d="m213.9591,2149.8921-2.0232,4.1168 3.7696,2.6504 3.1894-3.2969c0-1.795-3.0371-3.8966-4.9358-3.4703z" fill="#fff"/>
<path d="m212.5068,2151.7455-.8984,2.5515c.671,1.5282 1.8952,2.5031 3.8739,2.7236l2.097-1.7087z" stroke="#fff"/>
<path d="m217.1413,2155.4052v8.014" fill="none" stroke="#fff"/>
<path d="m218.8859,2163.5828c0,.7226-.5858,1.3084-1.3084,1.3084s-1.3084-.5858-1.3084-1.3084 .5858-1.3084 1.3084-1.3084 1.3084.5857 1.3084,1.3084z" stroke="#fff" transform="translate(-.3816,-.2726)"/>
</g>
</svg>
