<svg viewBox="0 0 512 512" xmlns="http://www.w3.org/2000/svg">

<g transform="matrix(18.68858,0,0,18.68858,-3639.42959,-40153.21147)">
<path d="m 197.411 2164.01 h 15.4968 l 0.0771 7.5171 -2.0497 2.3798 -4.5458 0.7059 -4.7765 -1.5437 -3.1996 -3.9321 z" fill="#fff"/>
<path d="m 211.908 2165.23 c 0 0.6097 -2.7886 1.104 -6.2286 1.104 s -6.2286 -0.4943 -6.2286 -1.104 2.7886 -1.1039 6.2286 -1.1039 6.2286 0.4942 6.2286 1.1039 z" fill="#fff" stroke="#000" stroke-width=".5773" transform="matrix(1.33863,0,0,2.24134,-70.10921,-2688.8616)"/>
<path d="m 216.383 2155.99 c -4.5102 4.3702 -3.4086 10.2258 -3.3906 14.8455 0.0174 4.4716 -7.7373 4.5244 -11.4515 1.9134 s -6.2871 -9.9241 -2.0734 -11.4206 c 4.3538 -1.5462 10.2388 -2.4915 12.8264 -8.213" fill="none" stroke="#fff"/>
<path d="m 214.953 2164.23 c -0.7429 -3.3384 3.998 -4.4423 4.5801 -1.523 l 1.305 6.8375 -4.58 1.5228 z" fill="#fff" stroke="#000"/>
<path d="m 213.959 2149.89 -2.0232 4.1168 3.7696 2.6504 3.1894 -3.2969 c 0 -1.795 -3.0371 -3.8966 -4.9358 -3.4703 z" fill="#fff"/>
<path d="m 212.507 2151.75 -0.8984 2.5515 c 0.671 1.5282 1.8952 2.5031 3.8739 2.7236 l 2.097 -1.7087 z" stroke="#fff"/>
<path d="m 217.141 2155.41 v 8.014" fill="none" stroke="#fff"/>
<path d="m 218.886 2163.58 c 0 0.7226 -0.5858 1.3084 -1.3084 1.3084 s -1.3084 -0.5858 -1.3084 -1.3084 0.5858 -1.3084 1.3084 -1.3084 1.3084 0.5857 1.3084 1.3084 z" stroke="#fff" transform="translate(-.3816,-.2726)"/>
</g>
</svg>
