<svg viewBox="0 0 512 512" xmlns="http://www.w3.org/2000/svg">

<g transform="matrix(18.68858,0,0,18.68858,-3388.58928,-10387.11679)">
<path d="m201.1868,569.2333c-2.5841-2.0162-5.4047-2.549-10.2227-3.2177 3.7897,1.1865 4.5741,8.9442 3.8141,11.7163-.1736.6333-1.0991,2.3205-1.099,3.0797 3e-05,1.0229.7967,1.8136 1.8191,1.8055s1.857-.8116 1.857-1.8345c-1e-05-.7546-.8514-2.4471-1.0612-3.0627-.7894-2.3169-.2125-7.6928 1.1369-7.5538 1.1783.1212 1.356,2.6287.8717,4.2774-.1115.3795-.6442,1.3676-.6443,1.8249 3e-05,.6162.4831,1.0957 1.099,1.0908 .6159-.005 1.099-.492 1.0991-1.1082-1e-05-.4546-.48-1.4443-.6064-1.8151-.553-1.6232.5729-5.5698 1.9366-5.2027z" fill="#fff"/>
<path d="m188.8546,565.1946c-1.1103-.7256-4.4612-2.3345-6.1376-2.4177 1.3924.3749 2.6341,5.9468 1.9704,8.4303-.1597.5975-1.0195,2.1681-1.0195,2.879-1e-05,.9637.7738,1.7478 1.737,1.724s1.7369-.8633 1.737-1.8269c0-.7152-.8937-2.2336-1.0573-2.8249-.716-2.5883.9302-6.4425 2.7701-5.9638z" fill="#fff"/>
<path d="m207.4819,570.6253c-1.3801-.902-4.4879-1.3782-6.5717-1.4815 1.7309.466 2.5274,4.2806 1.7023,7.3677-.1986.7428-1.2673,2.6951-1.2674,3.5789-2e-05,1.1979.9618,2.1726 2.1592,2.1431s2.1592-1.0731 2.1592-2.271c0-.8891-1.111-2.7765-1.3143-3.5116-.89-3.2175 1.0564-5.8933 3.1326-5.8256z" fill="#fff"/>
<path d="m182.25,556.7188v5.8438c9.2448,4.0295 18.9486,7.0267 26.0312,8.1875-2.1942-2.4411-4.4363-4.6185-6.6562-6.5625-3.4992-3.0642-6.9294-5.5072-10.0312-7.4688h-9.3438z" fill="#fff"/>
<path d="m186.9207,556.2825c3.344,1.9461 7.8954,5.1487 10.8986,8.6027-4.8842-1.1959-11.2317-3.717-16.0929-5.8262" fill="none" stroke="#000"/>
<path d="m182.0274,562.4959c9.3101,4.0781 19.1123,7.0863 26.2507,8.2562" fill="none" stroke="#000"/>
</g>
</svg>
