<svg viewBox="0 0 512 512" xmlns="http://www.w3.org/2000/svg">

<g transform="matrix(18.68858,0,0,18.68858,-7036.71238,-19764.4107)">
<path d="m 302.254 608.616 -11.6162 3.1126 -8.5037 -8.5037 3.1126 -11.6162 11.6162 -3.1126 8.5037 8.5037 z" stroke="#fff" stroke-width="3.9344" transform="matrix(5.8046896e-4,.25316,-.25517,-5.8045185e-4,549.23579,996.77401)"/>
<path d="m 392.373 1069.85 c 2.8249 -0.7028 5.5659 -3.9388 8.4829 -3.2719 -1.8986 2.9215 -2.3971 9.9494 -1.7981 12.1339 0.1811 0.6603 1.1464 2.4197 1.1464 3.2113 -3e-05 1.0667 -0.8311 1.8912 -1.8975 1.8828 s -1.937 -0.8464 -1.937 -1.913 c 1e-05 -0.7869 0.8881 -2.5517 1.1069 -3.1937 0.8234 -2.4158 0.2217 -8.0216 -1.186 -7.8768 -1.229 0.1264 -1.4144 2.7411 -0.9092 4.4603 0.1163 0.3958 0.672 1.4261 0.672 1.9031 -3e-05 0.6425 -0.5039 1.1425 -1.1464 1.1374 s -1.1464 -0.513 -1.1464 -1.1556 c 1e-05 -0.474 0.5007 -1.506 0.6325 -1.8927 0.5768 -1.6926 -0.5976 -5.8079 -2.0201 -5.4251 z" fill="#fff"/>
<path d="m 386.234 1074.69 c -0.8886 -0.9177 -4.1562 -2.5477 -5.7396 -2.2035 1.0838 0.4219 2.1495 5.2118 1.5697 7.3803 -0.1395 0.5218 -0.8905 1.8932 -0.8905 2.514 -1e-05 0.8415 0.6759 1.5262 1.5172 1.5054 s 1.5172 -0.7538 1.5172 -1.5952 c 0 -0.6246 -0.7806 -1.9505 -0.9235 -2.4668 -0.6254 -2.2601 1.3424 -5.5522 2.9495 -5.1342 z" fill="#fff"/>
<path d="m 392.248 1075.56 c -0.957 -0.6252 -3.1119 -0.9552 -4.5568 -1.0269 1.2002 0.3231 1.7525 2.9672 1.1804 5.1071 -0.1377 0.5149 -0.8788 1.8682 -0.8788 2.4808 -1e-05 0.8303 0.6669 1.5059 1.4972 1.4855 s 1.4971 -0.7438 1.4972 -1.5741 c 0 -0.6164 -0.7703 -1.9248 -0.9113 -2.4343 -0.6171 -2.2302 0.7325 -4.0851 2.1721 -4.0381 z" fill="#fff"/>
<path d="m 302.254 608.616 -11.6162 3.1126 -8.5037 -8.5037 3.1126 -11.6162 11.6162 -3.1126 8.5037 8.5037 z" fill="none" stroke="#fff" stroke-width="4.1193" transform="matrix(.2098,.12036,-.12241,.21068,399.67643,906.78665)"/>
<path d="m 302.254 608.616 -11.6162 3.1126 -8.5037 -8.5037 3.1126 -11.6162 11.6162 -3.1126 8.5037 8.5037 z" fill="none" stroke="#fff" stroke-width="4.1193" transform="matrix(.2098,.12036,-.12241,.21068,400.99704,901.74306)"/>
<path d="m 302.254 608.616 -11.6162 3.1126 -8.5037 -8.5037 3.1126 -11.6162 11.6162 -3.1126 8.5037 8.5037 z" fill="#fff" stroke="#fff" stroke-width="4.1193" transform="matrix(.2098,.12036,-.12241,.21068,394.80147,908.22998)"/>
<path d="m 302.254 608.616 -11.6162 3.1126 -8.5037 -8.5037 3.1126 -11.6162 11.6162 -3.1126 8.5037 8.5037 z" fill="none" stroke="#fff" stroke-width="4.1193" transform="matrix(.2098,.12036,-.12241,.21068,396.12211,903.18641)"/>
<path d="m 302.254 608.616 -11.6162 3.1126 -8.5037 -8.5037 3.1126 -11.6162 11.6162 -3.1126 8.5037 8.5037 z" stroke="#fff" stroke-width="4.1193" transform="matrix(.2098,.12036,-.12241,.21068,403.15613,910.41179)"/>
<path d="m 302.254 608.616 -11.6162 3.1126 -8.5037 -8.5037 3.1126 -11.6162 11.6162 -3.1126 8.5037 8.5037 z" fill="#fff" stroke="#fff" stroke-width="4.1193" transform="matrix(.2098,.12036,-.12241,.21068,404.47676,905.36819)"/>
<path d="m 302.254 608.616 -11.6162 3.1126 -8.5037 -8.5037 3.1126 -11.6162 11.6162 -3.1126 8.5037 8.5037 z" fill="#fff" stroke="#fff" stroke-width="4.1193" transform="matrix(.2098,.12036,-.12241,.21068,398.29002,911.86544)"/>
<path d="m 302.254 608.616 -11.6162 3.1126 -8.5037 -8.5037 3.1126 -11.6162 11.6162 -3.1126 8.5037 8.5037 z" fill="none" stroke="#fff" stroke-width="4.1193" transform="matrix(.2098,.12036,-.12241,.21068,405.72038,900.39958)"/>
<path d="m 302.254 608.616 -11.6162 3.1126 -8.5037 -8.5037 3.1126 -11.6162 11.6162 -3.1126 8.5037 8.5037 z" fill="#fff" stroke="#fff" stroke-width="4.1193" transform="matrix(.2098,.12036,-.12241,.21068,409.35171,903.92485)"/>
</g>
</svg>
