<svg viewBox="0 0 512 512" xmlns="http://www.w3.org/2000/svg">

<g transform="matrix(18.68858,0,0,18.68858,1980.72462,-4115.22756)">
<path d="m -104.991 232.239 v 7.7689 c 12.8143 -4.1606 27.1012 -7.1566 25.2724 -19.005 -2.1479 3.7202 -6.6876 5.5723 -11.2117 5.2404 -3.2072 2.163 -9.2872 5.0144 -14.0607 5.9957 z" fill="#fff" fill-rule="evenodd"/>
<path d="m -105.39 236.713 c 8.5797 -2.2189 23.3473 -7.2862 21.4889 -13.553" fill="none" stroke="#000"/>
<path d="m -80.6557 227.561 c -7.2939 4.3024 -18.2967 9.6737 -23.6186 12.0844 1.128 -0.1049 2.6237 -0.0222 3.0018 2.8952 0.2832 -4.2564 7.1835 -6.5589 7.1835 -4.0841 0 0.6224 -0.6851 1.1248 -0.6851 1.6924 0 0.6823 0.6263 1.1644 1.2865 1.1644 0.6457 0 1.3195 -0.5402 1.3195 -1.2588 s -0.7503 -1.1206 -0.7503 -1.6994 c 0 -4.037 6.9244 -4.2115 7.2157 -0.2518 1.2905 -8.0106 3.5486 -7.0285 5.047 -10.5424 z" fill="#fff" fill-rule="evenodd"/>
<path d="m -85.6983 245.742 c -1.2145 0 -2.3684 -0.8539 -2.3684 -2.0333 0 -2.3766 1.7405 -3.316 2.3684 -6.8408 0.6076 3.5314 2.4158 4.2428 2.4158 6.7187 0 1.2422 -1.228 2.1554 -2.4158 2.1554 z" fill="#fff" fill-rule="evenodd"/>
<path d="m -81.4441 236.36 c 0.7924 0 1.5453 -0.5571 1.5453 -1.3267 0 -1.5507 -1.1356 -2.1636 -1.5453 -4.4634 -0.3965 2.3041 -1.5762 2.7683 -1.5762 4.3837 0 0.8105 0.8012 1.4063 1.5762 1.4063 z" fill="#fff" fill-rule="evenodd"/>
<path d="m -101.276 246.87 c 0.646 0 1.2597 -0.4542 1.2597 -1.0815 0 -1.2641 -0.9257 -1.7638 -1.2597 -3.6385 -0.3232 1.8783 -1.285 2.2567 -1.285 3.5736 0 0.6607 0.6532 1.1464 1.285 1.1464 z" fill="#fff" fill-rule="evenodd"/>
</g>
</svg>
