<svg viewBox="0 0 512 512" xmlns="http://www.w3.org/2000/svg">

<g transform="matrix(18.68858,0,0,18.68858,-7036.9625,-14318.06314)">
<path d="m 394.875 780.899 c 2.0595 -0.7199 -9.9587 -0.5998 -8.3548 0.1719 1.5531 0.1231 2.3674 2.8386 1.6616 3.8559 -0.1461 0.2106 -0.7355 0.8022 -0.7355 1.3852 0 0.5942 0.524 1.2573 1.2872 1.2573 0.7124 0 1.2872 -0.567 1.2872 -1.2573 0 -0.6791 -0.6513 -1.1695 -0.7723 -1.3852 -0.4582 -1.0162 -0.3585 -2.7313 1.0043 -2.8052 1.5608 -0.0847 2.2623 4.4545 1.3494 5.7705 -0.2426 0.3497 -1.2504 1.45 -1.2504 2.4908 0 1.0632 0.8235 2.2089 2.133 2.2088 1.3349 0 2.133 -1.2789 2.133 -2.2088 3e-05 -0.9076 -1.0863 -2.1328 -1.2872 -2.4908 -0.879 -1.5669 -0.4939 -6.4028 1.5446 -6.993 z" fill="#fff"/>
<path d="m 380.38 776.75 c 1.3565 2.1094 2.6149 6.1682 1.7073 8.8379 -0.1879 0.5527 -1.0165 2.038 -1.0165 2.7138 0 0.916 0.9443 2.0102 1.8602 2.0102 s 1.8602 -1.0941 1.8603 -2.0102 c 0 -0.6799 -0.808 -2.1479 -0.9636 -2.7138 -0.6809 -2.4771 -0.5265 -5.6784 1.5113 -4.9872 -1.5516 -2.5006 -4.6969 -5.0346 -4.959 -3.8507 z" fill="#fff"/>
<path d="m -109.188 505.05 c 0 1.1736 -0.9514 2.125 -2.125 2.125 s -2.125 -0.9514 -2.125 -2.125 0.9514 -2.125 2.125 -2.125 2.125 0.9514 2.125 2.125 z" fill="#fff" transform="matrix(.71612,0,0,.71612,478.5178,423.59103)"/>
<path d="m 400.311 776.893 c -2.0036 0.1592 -2.9575 2.9874 -4.801 3.7223 2.3259 -0.4771 2.0954 2.1099 3.1827 2.1099 0.9529 0 0.5027 -3.4716 1.6183 -5.8322 z" fill="#fff" fill-rule="evenodd"/>
<path d="m -109.5 495.862 c 0 5.5919 -4.5331 10.125 -10.125 10.125 s -10.125 -4.5331 -10.125 -10.125 4.5331 -10.125 10.125 -10.125 10.125 4.5331 10.125 10.125 z" stroke="#fff" stroke-width="1.2208" transform="matrix(1.00693,0,0,.66632,510.7894,443.90875)"/>
<path d="m -109.5 495.862 c 0 5.5919 -4.5331 10.125 -10.125 10.125 s -10.125 -4.5331 -10.125 -10.125 4.5331 -10.125 10.125 -10.125 10.125 4.5331 10.125 10.125 z" fill="#fff" transform="matrix(.86103,0,0,.58948,494.62623,481.18552)"/>
</g>
</svg>
