<svg viewBox="0 0 512 512" xmlns="http://www.w3.org/2000/svg">

<g transform="matrix(18.68858,0,0,18.68858,-10440.7495,-17252.09542)">
<path d="m575.6438,937.9061c2.0798-.7199-10.7895-.5998-9.2073.1719 1.5496.1231 3.1011,4.0495 2.3667,5.0668-.152.2106-.7581.8022-.7745,1.3852-.0167.5942.4886,1.2573 1.2518,1.2573 .7124,0 1.3031-.567 1.3225-1.2573 .0191-.6791-.6184-1.1695-.7333-1.3852-.4296-1.0162-.2475-3.9422 1.1173-4.0161 1.5631-.0847 2.137,4.4545 1.187,5.7705-.2524.3497-1.2912,1.45-1.3205,2.4908-.0299,1.0632.7613,2.2089 2.0708,2.2088 1.3349,0 2.169-1.2789 2.1952-2.2088 .0256-.9076-1.0263-2.1328-1.2171-2.4908-.8349-1.5669-.3137-6.4028 1.7414-6.993z" fill="#fff"/>
<path d="m581.8266,934.6985c-1.0958,1.6501-2.1468,4.8251-1.4808,6.9135 .1379.4324.7617,1.5943.7506,2.1229-.0151.7166-.6575,1.5725-1.3741,1.5724s-1.5514-.8559-1.5363-1.5724c.0112-.5318.6674-1.6802.7984-2.1229 .5733-1.9377-.8193-4.954-2.1363-4.3469 1.2548-1.9561 4.7929-3.4927 4.9785-2.5666z" fill="#fff"/>
<path d="m-109.1875,505.0497c0,1.1736-.9514,2.125-2.125,2.125s-2.125-.9514-2.125-2.125 .9514-2.125 2.125-2.125 2.125.9514 2.125,2.125z" fill="#fff" transform="matrix(-.56838,0,0,.56838,500.09442,657.66411)"/>
<path d="m561.9127,936.4901c1.6702.1327 2.4655.9201 4.0022,1.5327-1.9389-.3977-1.7468,3.3291-2.6532,3.3291-.7944,0-.419-2.8939-1.349-4.8618z" fill="#fff" fill-rule="evenodd"/>
<g transform="matrix(-.95354,0,0,.95354,533.04804,38.64726)">
<path d="m-46.5611,928.1557 9.4461.4464 2.0291,5.2582 2.7252.4438 2.8007,6.3516-2.7232,2.0982-14.4801.0416-4.3514-2.1398 1.0973-9.0364 1.9718-.005 1.4845-3.4591z" fill="#fff" stroke="#000" stroke-width="1.0487"/>
<path d="m-48.9293,931.6174 4.4194.0631 2.5885,3.7881" fill="none" stroke="#000" stroke-width="1.0487"/>
</g>
</g>
</svg>
