<svg viewBox="0 0 512 512" xmlns="http://www.w3.org/2000/svg">

<g transform="matrix(18.68858,0,0,18.68858,-7036.71238,-19764.4107)">
<path d="m302.2537,608.6159-11.6162,3.1126-8.5037-8.5037 3.1126-11.6162 11.6162-3.1126 8.5037,8.5037z" stroke="#fff" stroke-width="3.9344" transform="matrix(5.8046896e-4,.25316,-.25517,-5.8045185e-4,549.23579,996.77401)"/>
<path d="m392.3728,1069.8471c2.8249-.7028 5.5659-3.9388 8.4829-3.2719-1.8986,2.9215-2.3971,9.9494-1.7981,12.1339 .1811.6603 1.1464,2.4197 1.1464,3.2113-3e-05,1.0667-.8311,1.8912-1.8975,1.8828s-1.937-.8464-1.937-1.913c1e-05-.7869.8881-2.5517 1.1069-3.1937 .8234-2.4158.2217-8.0216-1.186-7.8768-1.229.1264-1.4144,2.7411-.9092,4.4603 .1163.3958.672,1.4261.672,1.9031-3e-05,.6425-.5039,1.1425-1.1464,1.1374s-1.1464-.513-1.1464-1.1556c1e-05-.474.5007-1.506.6325-1.8927 .5768-1.6926-.5976-5.8079-2.0201-5.4251z" fill="#fff"/>
<path d="m386.2342,1074.6913c-.8886-.9177-4.1562-2.5477-5.7396-2.2035 1.0838.4219 2.1495,5.2118 1.5697,7.3803-.1395.5218-.8905,1.8932-.8905,2.514-1e-05,.8415.6759,1.5262 1.5172,1.5054s1.5172-.7538 1.5172-1.5952c0-.6246-.7806-1.9505-.9235-2.4668-.6254-2.2601 1.3424-5.5522 2.9495-5.1342z" fill="#fff"/>
<path d="m392.2478,1075.5629c-.957-.6252-3.1119-.9552-4.5568-1.0269 1.2002.3231 1.7525,2.9672 1.1804,5.1071-.1377.5149-.8788,1.8682-.8788,2.4808-1e-05,.8303.6669,1.5059 1.4972,1.4855s1.4971-.7438 1.4972-1.5741c0-.6164-.7703-1.9248-.9113-2.4343-.6171-2.2302.7325-4.0851 2.1721-4.0381z" fill="#fff"/>
<path d="m302.2537,608.6159-11.6162,3.1126-8.5037-8.5037 3.1126-11.6162 11.6162-3.1126 8.5037,8.5037z" fill="none" stroke="#fff" stroke-width="4.1193" transform="matrix(.2098,.12036,-.12241,.21068,399.67643,906.78665)"/>
<path d="m302.2537,608.6159-11.6162,3.1126-8.5037-8.5037 3.1126-11.6162 11.6162-3.1126 8.5037,8.5037z" fill="none" stroke="#fff" stroke-width="4.1193" transform="matrix(.2098,.12036,-.12241,.21068,400.99704,901.74306)"/>
<path d="m302.2537,608.6159-11.6162,3.1126-8.5037-8.5037 3.1126-11.6162 11.6162-3.1126 8.5037,8.5037z" fill="#fff" stroke="#fff" stroke-width="4.1193" transform="matrix(.2098,.12036,-.12241,.21068,394.80147,908.22998)"/>
<path d="m302.2537,608.6159-11.6162,3.1126-8.5037-8.5037 3.1126-11.6162 11.6162-3.1126 8.5037,8.5037z" fill="none" stroke="#fff" stroke-width="4.1193" transform="matrix(.2098,.12036,-.12241,.21068,396.12211,903.18641)"/>
<path d="m302.2537,608.6159-11.6162,3.1126-8.5037-8.5037 3.1126-11.6162 11.6162-3.1126 8.5037,8.5037z" stroke="#fff" stroke-width="4.1193" transform="matrix(.2098,.12036,-.12241,.21068,403.15613,910.41179)"/>
<path d="m302.2537,608.6159-11.6162,3.1126-8.5037-8.5037 3.1126-11.6162 11.6162-3.1126 8.5037,8.5037z" fill="#fff" stroke="#fff" stroke-width="4.1193" transform="matrix(.2098,.12036,-.12241,.21068,404.47676,905.36819)"/>
<path d="m302.2537,608.6159-11.6162,3.1126-8.5037-8.5037 3.1126-11.6162 11.6162-3.1126 8.5037,8.5037z" fill="#fff" stroke="#fff" stroke-width="4.1193" transform="matrix(.2098,.12036,-.12241,.21068,398.29002,911.86544)"/>
<path d="m302.2537,608.6159-11.6162,3.1126-8.5037-8.5037 3.1126-11.6162 11.6162-3.1126 8.5037,8.5037z" fill="none" stroke="#fff" stroke-width="4.1193" transform="matrix(.2098,.12036,-.12241,.21068,405.72038,900.39958)"/>
<path d="m302.2537,608.6159-11.6162,3.1126-8.5037-8.5037 3.1126-11.6162 11.6162-3.1126 8.5037,8.5037z" fill="#fff" stroke="#fff" stroke-width="4.1193" transform="matrix(.2098,.12036,-.12241,.21068,409.35171,903.92485)"/>
</g>
</svg>
