<svg viewBox="0 0 512 512" xmlns="http://www.w3.org/2000/svg">

<g transform="matrix(18.68858,0,0,18.68858,-2101.07379,-9139.75161)">
<g transform="matrix(.757,0,0,.757,-394.52676,476.62929)">
<path d="m677.2614,40.9101c3.1811,0 6.2032-2.2365 6.2032-5.3255 0-6.2248-4.5586-8.6852-6.2032-17.9171-1.5915,9.2494-6.3275,11.1126-6.3275,17.5973 0,3.2536 3.2163,5.6453 6.3275,5.6453z" fill="#fff" fill-rule="evenodd"/>
</g>
<path d="m122.7714,503.0949c0,2.1845-1.7709,3.9554-3.9554,3.9554s-3.9554-1.7709-3.9554-3.9554 1.7709-3.9554 3.9554-3.9554 3.9554,1.7709 3.9554,3.9554z" stroke="#fff" stroke-width=".9295" transform="matrix(1.0687,0,0,1.08302,-8.86493,-42.03277)"/>
<path d="m129.8425,509.3926c0,1.3912-.9992,2.5191-2.2318,2.5191s-2.2318-1.1278-2.2318-2.5191 .9992-2.5191 2.2318-2.5191 2.2318,1.1278 2.2318,2.5191z" fill="#fff" stroke="#fff" stroke-width=".9726" transform="matrix(1.0687,0,0,.98909,-16.83157,-2.13964)"/>
<g transform="matrix(.757,0,0,.757,-378.66105,476.62929)">
<path d="m677.2614,40.9101c3.1811,0 6.2032-2.2365 6.2032-5.3255 0-6.2248-4.5586-8.6852-6.2032-17.9171-1.5915,9.2494-6.3275,11.1126-6.3275,17.5973 0,3.2536 3.2163,5.6453 6.3275,5.6453z" fill="#fff" fill-rule="evenodd"/>
</g>
<path d="m122.7714,503.0949c0,2.1845-1.7709,3.9554-3.9554,3.9554s-3.9554-1.7709-3.9554-3.9554 1.7709-3.9554 3.9554-3.9554 3.9554,1.7709 3.9554,3.9554z" stroke="#fff" stroke-width=".9295" transform="matrix(1.0687,0,0,1.08302,7.00077,-42.03277)"/>
<path d="m129.8425,509.3926c0,1.3912-.9992,2.5191-2.2318,2.5191s-2.2318-1.1278-2.2318-2.5191 .9992-2.5191 2.2318-2.5191 2.2318,1.1278 2.2318,2.5191z" fill="#fff" stroke="#fff" stroke-width=".9726" transform="matrix(1.0687,0,0,.98909,-.96586,-2.13964)"/>
<path d="m126.1535,489.1976c-1.8278,10.6185-7.2671,12.7574-7.2671,20.202 0,3.7352 3.694,6.4809 7.2671,6.4809 3.6535,0 7.1243-2.5675 7.1243-6.1137 0-7.1462-5.2356-9.9708-7.1243-20.5692z" fill="#fff" fill-rule="evenodd" stroke="#000" stroke-width="1.1329"/>
<path d="m122.7714,503.0949c0,2.1845-1.7709,3.9554-3.9554,3.9554s-3.9554-1.7709-3.9554-3.9554 1.7709-3.9554 3.9554-3.9554 3.9554,1.7709 3.9554,3.9554z" stroke="#fff" stroke-width=".6462" transform="matrix(1.53749,0,0,1.55752,-56.59651,-274.68288)"/>
<path d="m129.8425,509.3926c0,1.3912-.9992,2.5191-2.2318,2.5191s-2.2318-1.1278-2.2318-2.5191 .9992-2.5191 2.2318-2.5191 2.2318,1.1278 2.2318,2.5191z" fill="#fff" stroke="#fff" stroke-width=".6762" transform="matrix(1.53749,0,0,1.42243,-68.05778,-217.31174)"/>
</g>
</svg>
