<svg viewBox="0 0 512 512" xmlns="http://www.w3.org/2000/svg">

<g transform="matrix(18.68858,0,0,18.68858,712.89135,-9225.98979)">
<path d="m -32.568 510.5 c -2.7539 0.8923 -4.5312 2.2439 -4.5312 3.7433 0 2.6843 5.6085 4.875 12.5312 4.8749 s 12.5312 -2.1906 12.5312 -4.8749 c 0 -1.4993 -1.7773 -2.851 -4.5312 -3.7433 1.4526 0.6912 2.3438 1.5641 2.3438 2.5245 0 2.216 -4.6287 4.0044 -10.3438 4.0044 -5.715 3e-05 -10.3438 -1.7884 -10.3438 -4.0044 1e-05 -0.9604 0.8912 -1.8334 2.3438 -2.5245 z" fill="#fff"/>
<path d="m -28.8805 511.24 c -1.5117 0.4844 -2.5 1.183 -2.5 2.0022 0 1.4575 3.0536 2.6551 6.8125 2.6551 s 6.8125 -1.1976 6.8125 -2.6551 c 0 -0.8192 -0.9883 -1.5178 -2.5 -2.0022 0.7994 0.3765 1.3125 0.8239 1.3125 1.3493 1e-05 1.2032 -2.5219 2.1763 -5.625 2.1763 s -5.625 -0.9731 -5.625 -2.1763 c -1e-05 -0.5254 0.5131 -0.9728 1.3125 -1.3493 z" fill="#fff"/>
<path d="m -24.8492 498.493 c -0.2362 4.5502 -1.2462 7.9755 -2.4688 7.9755 -0.3032 0 -0.6055 -0.2252 -0.875 -0.6115 0.0691 2.2455 -0.2626 3.6805 -1.0625 3.6183 -0.2896 -0.0225 -0.6256 -0.2389 -0.9688 -0.6115 1.0837 2.6969 3.1471 4.5356 5.5312 4.5356 s 4.4475 -1.8387 5.5312 -4.5356 c -0.3432 0.3726 -0.6791 0.589 -0.9688 0.6115 -0.8709 0.0677 -1.2229 -1.6021 -1.0625 -4.2043 -0.3532 0.7387 -0.7602 1.1976 -1.1875 1.1976 -1.2226 1e-05 -2.2326 -3.4253 -2.4688 -7.9755 z" fill="#fff"/>
<path d="m 718.686 492.82 c 0 0.4637 -0.3759 0.8397 -0.8397 0.8397 s -0.8397 -0.3759 -0.8397 -0.8397 0.3759 -0.8397 0.8397 -0.8397 0.8397 0.376 0.8397 0.8397 z" fill="#fff" transform="matrix(1.55263,0,0,1.55263,-1139.4476,-269.13267)"/>
</g>
</svg>
