<svg viewBox="0 0 512 512" xmlns="http://www.w3.org/2000/svg">

<g transform="matrix(18.68858,0,0,18.68858,-10441.53976,-34036.44835)">
<path d="m75.6266,1068.3063c0,1.6659-1.3505,3.0164-3.0164,3.0164s-3.0164-1.3505-3.0164-3.0164 1.3505-3.0165 3.0164-3.0165 3.0164,1.3505 3.0164,3.0165z" stroke="#fff" stroke-width="1.2027" transform="matrix(-.83146,0,0,.83146,640.36899,941.43369)"/>
<path d="m563.7944,1847.7784c.4196-2.7123 1.6557-4.3773 5.2076-4.9363-.8974-1.1245-1.4398-2.7142-1.4397-4.4458 2e-05-3.4193 2.1639-6.1934 4.84-6.1934s4.84,2.774 4.84,6.1934c0,1.7755-.594,3.3774-1.5316,4.5071 3.2507.6118 4.5546,2.2304 5.085,4.875" fill="#fff" fill-rule="evenodd" stroke="#000"/>
<path d="m575.2484,1840.9601c-.93-3.0673-4.8663-3.0339-5.8668,0 2.0353-1.2923 3.8914-1.2656 5.8668,0z"/>
<path d="m571.7962,1836.5007c0,.4309-.3493.7801-.7801.7801s-.7801-.3492-.7801-.7801 .3493-.78.7801-.78 .7801.3492.7801.78z" transform="matrix(-1.13479,.65517,.47414,.82123,347.67065,-45.96608)"/>
<path d="m571.7962,1836.5007c0,.4309-.3493.7801-.7801.7801s-.7801-.3492-.7801-.7801 .3493-.78.7801-.78 .7801.3492.7801.78z" transform="matrix(1.13479,.65517,-.47414,.82123,797.03056,-45.96608)"/>
<path d="m75.6266,1068.3063c0,1.6659-1.3505,3.0164-3.0164,3.0164s-3.0164-1.3505-3.0164-3.0164 1.3505-3.0165 3.0164-3.0165 3.0164,1.3505 3.0164,3.0165z" stroke="#fff" stroke-width="1.5274" transform="matrix(-.65471,0,0,.65471,626.09363,1126.1697)"/>
<path d="m75.6266,1068.3063c0,1.6659-1.3505,3.0164-3.0164,3.0164s-3.0164-1.3505-3.0164-3.0164 1.3505-3.0165 3.0164-3.0165 3.0164,1.3505 3.0164,3.0165z" fill="#fff" transform="matrix(-.34809,0,0,.34809,604.3962,1452.8309)"/>
<path d="m75.6266,1068.3063c0,1.6659-1.3505,3.0164-3.0164,3.0164s-3.0164-1.3505-3.0164-3.0164 1.3505-3.0165 3.0164-3.0165 3.0164,1.3505 3.0164,3.0165z" stroke="#fff" stroke-width="2.1819" transform="matrix(-.45832,0,0,.45832,607.35946,1339.301)"/>
<path d="m75.6266,1068.3063c0,1.6659-1.3505,3.0164-3.0164,3.0164s-3.0164-1.3505-3.0164-3.0164 1.3505-3.0165 3.0164-3.0165 3.0164,1.3505 3.0164,3.0165z" stroke="#fff" stroke-width="2.1819" transform="matrix(-.45832,0,0,.45832,611.2414,1342.9636)"/>
<path d="m75.6266,1068.3063c0,1.6659-1.3505,3.0164-3.0164,3.0164s-3.0164-1.3505-3.0164-3.0164 1.3505-3.0165 3.0164-3.0165 3.0164,1.3505 3.0164,3.0165z" fill="#fff" transform="matrix(-.41051,0,0,.41051,610.82727,1390.3888)"/>
<path d="m75.6266,1068.3063c0,1.6659-1.3505,3.0164-3.0164,3.0164s-3.0164-1.3505-3.0164-3.0164 1.3505-3.0165 3.0164-3.0165 3.0164,1.3505 3.0164,3.0165z" fill="none" stroke="#fff" stroke-width="1.6574" transform="matrix(-.60335,0,0,.60335,614.52532,1180.2229)"/>
<path d="m575.2386,1821.8438c0,1.6068-1.2518,2.9093-2.7962,2.9093s-2.7962-1.3025-2.7962-2.9093" stroke="#fff"/>
<path d="m577.3113,1821.7726h-8.7114" fill="none" stroke="#000"/>
<path d="m75.6266,1068.3063c0,1.6659-1.3505,3.0164-3.0164,3.0164s-3.0164-1.3505-3.0164-3.0164 1.3505-3.0165 3.0164-3.0165 3.0164,1.3505 3.0164,3.0165z" stroke="#fff" stroke-width="1.3257" transform="matrix(-.75433,0,0,.75433,623.86213,1026.4298)"/>
<path d="m75.6266,1068.3063c0,1.6659-1.3505,3.0164-3.0164,3.0164s-3.0164-1.3505-3.0164-3.0164 1.3505-3.0165 3.0164-3.0165 3.0164,1.3505 3.0164,3.0165z" fill="#fff" transform="matrix(-.41051,0,0,.41051,599.49829,1392.6112)"/>
</g>
</svg>
