<svg viewBox="0 0 512 512" xmlns="http://www.w3.org/2000/svg">

<g transform="matrix(18.68858,0,0,18.68858,-10441.53976,-34036.44835)">
<path d="m 75.6266 1068.31 c 0 1.6659 -1.3505 3.0164 -3.0164 3.0164 s -3.0164 -1.3505 -3.0164 -3.0164 1.3505 -3.0165 3.0164 -3.0165 3.0164 1.3505 3.0164 3.0165 z" stroke="#fff" stroke-width="1.2027" transform="matrix(-.83146,0,0,.83146,640.36899,941.43369)"/>
<path d="m 563.794 1847.78 c 0.4196 -2.7123 1.6557 -4.3773 5.2076 -4.9363 -0.8974 -1.1245 -1.4398 -2.7142 -1.4397 -4.4458 2e-05 -3.4193 2.1639 -6.1934 4.84 -6.1934 s 4.84 2.774 4.84 6.1934 c 0 1.7755 -0.594 3.3774 -1.5316 4.5071 3.2507 0.6118 4.5546 2.2304 5.085 4.875" fill="#fff" fill-rule="evenodd" stroke="#000"/>
<path d="m 575.248 1840.96 c -0.93 -3.0673 -4.8663 -3.0339 -5.8668 0 2.0353 -1.2923 3.8914 -1.2656 5.8668 0 z"/>
<path d="m 571.796 1836.5 c 0 0.4309 -0.3493 0.7801 -0.7801 0.7801 s -0.7801 -0.3492 -0.7801 -0.7801 0.3493 -0.78 0.7801 -0.78 0.7801 0.3492 0.7801 0.78 z" transform="matrix(-1.13479,.65517,.47414,.82123,347.67065,-45.96608)"/>
<path d="m 571.796 1836.5 c 0 0.4309 -0.3493 0.7801 -0.7801 0.7801 s -0.7801 -0.3492 -0.7801 -0.7801 0.3493 -0.78 0.7801 -0.78 0.7801 0.3492 0.7801 0.78 z" transform="matrix(1.13479,.65517,-.47414,.82123,797.03056,-45.96608)"/>
<path d="m 75.6266 1068.31 c 0 1.6659 -1.3505 3.0164 -3.0164 3.0164 s -3.0164 -1.3505 -3.0164 -3.0164 1.3505 -3.0165 3.0164 -3.0165 3.0164 1.3505 3.0164 3.0165 z" stroke="#fff" stroke-width="1.5274" transform="matrix(-.65471,0,0,.65471,626.09363,1126.1697)"/>
<path d="m 75.6266 1068.31 c 0 1.6659 -1.3505 3.0164 -3.0164 3.0164 s -3.0164 -1.3505 -3.0164 -3.0164 1.3505 -3.0165 3.0164 -3.0165 3.0164 1.3505 3.0164 3.0165 z" fill="#fff" transform="matrix(-.34809,0,0,.34809,604.3962,1452.8309)"/>
<path d="m 75.6266 1068.31 c 0 1.6659 -1.3505 3.0164 -3.0164 3.0164 s -3.0164 -1.3505 -3.0164 -3.0164 1.3505 -3.0165 3.0164 -3.0165 3.0164 1.3505 3.0164 3.0165 z" stroke="#fff" stroke-width="2.1819" transform="matrix(-.45832,0,0,.45832,607.35946,1339.301)"/>
<path d="m 75.6266 1068.31 c 0 1.6659 -1.3505 3.0164 -3.0164 3.0164 s -3.0164 -1.3505 -3.0164 -3.0164 1.3505 -3.0165 3.0164 -3.0165 3.0164 1.3505 3.0164 3.0165 z" stroke="#fff" stroke-width="2.1819" transform="matrix(-.45832,0,0,.45832,611.2414,1342.9636)"/>
<path d="m 75.6266 1068.31 c 0 1.6659 -1.3505 3.0164 -3.0164 3.0164 s -3.0164 -1.3505 -3.0164 -3.0164 1.3505 -3.0165 3.0164 -3.0165 3.0164 1.3505 3.0164 3.0165 z" fill="#fff" transform="matrix(-.41051,0,0,.41051,610.82727,1390.3888)"/>
<path d="m 75.6266 1068.31 c 0 1.6659 -1.3505 3.0164 -3.0164 3.0164 s -3.0164 -1.3505 -3.0164 -3.0164 1.3505 -3.0165 3.0164 -3.0165 3.0164 1.3505 3.0164 3.0165 z" fill="none" stroke="#fff" stroke-width="1.6574" transform="matrix(-.60335,0,0,.60335,614.52532,1180.2229)"/>
<path d="m 575.239 1821.84 c 0 1.6068 -1.2518 2.9093 -2.7962 2.9093 s -2.7962 -1.3025 -2.7962 -2.9093" stroke="#fff"/>
<path d="m 577.311 1821.77 h -8.7114" fill="none" stroke="#000"/>
<path d="m 75.6266 1068.31 c 0 1.6659 -1.3505 3.0164 -3.0164 3.0164 s -3.0164 -1.3505 -3.0164 -3.0164 1.3505 -3.0165 3.0164 -3.0165 3.0164 1.3505 3.0164 3.0165 z" stroke="#fff" stroke-width="1.3257" transform="matrix(-.75433,0,0,.75433,623.86213,1026.4298)"/>
<path d="m 75.6266 1068.31 c 0 1.6659 -1.3505 3.0164 -3.0164 3.0164 s -3.0164 -1.3505 -3.0164 -3.0164 1.3505 -3.0165 3.0164 -3.0165 3.0164 1.3505 3.0164 3.0165 z" fill="#fff" transform="matrix(-.41051,0,0,.41051,599.49829,1392.6112)"/>
</g>
</svg>
