<svg viewBox="0 0 512 512" xmlns="http://www.w3.org/2000/svg">

<g transform="matrix(18.68858,0,0,18.68858,-2950.03415,-10441.51259)">
<path d="m 179.384 560.731 c -0.3291 -0.155 -0.6915 -0.25 -1.0625 -0.25 -0.1048 0 -0.2104 -0.0133 -0.3125 0 -1.5317 0.1989 -2.7188 1.6783 -2.7188 3.6875 0 1.1128 0.381 2.2607 0.9688 2.9688 -3.1856 0.5988 -3.4375 5.1099 -3.4375 8.875 h 2.2188 l 0.5625 8.75 h 3.7812" fill-rule="evenodd" stroke="#fff"/>
<path d="m 178.478 585.762 h 3.1562 l 0.5625 -8.75 h 2.25 c 0 -4.0864 0.0762 -9.3854 -3.6875 -9.9688 0.6084 -0.7628 1 -2.2004 1 -3.375 -1e-05 -2.3195 -1.4669 -4.1875 -3.2812 -4.1875" fill="#fff" fill-rule="evenodd" stroke="#000"/>
<path d="m 164.017 560.731 c 0.3291 -0.155 0.6915 -0.25 1.0625 -0.25 0.1048 0 0.2104 -0.0133 0.3125 0 1.5317 0.1989 2.7188 1.6783 2.7188 3.6875 0 1.1128 -0.381 2.2607 -0.9688 2.9688 3.1856 0.5988 3.4375 5.1099 3.4375 8.875 h -2.2188 l -0.5625 8.75 h -3.7812" fill-rule="evenodd" stroke="#fff"/>
<path d="m 164.923 585.762 h -3.1562 l -0.5625 -8.75 h -2.25 c 0 -4.0864 -0.0762 -9.3854 3.6875 -9.9688 -0.6084 -0.7628 -1 -2.2004 -1 -3.375 1e-05 -2.3195 1.4669 -4.1875 3.2812 -4.1875" fill="#fff" fill-rule="evenodd" stroke="#000"/>
<path d="m 162.606 585.756 h 20.2627" fill="none" stroke="#000"/>
</g>
</svg>
