<svg viewBox="0 0 512 512" xmlns="http://www.w3.org/2000/svg">

<g transform="matrix(18.68858,0,0,18.68858,-2950.03415,-10441.51259)">
<path d="m179.3839,560.7311c-.3291-.155-.6915-.25-1.0625-.25-.1048,0-.2104-.0133-.3125,0-1.5317.1989-2.7188,1.6783-2.7188,3.6875 0,1.1128.381,2.2607.9688,2.9688-3.1856.5988-3.4375,5.1099-3.4375,8.875h2.2188l.5625,8.75h3.7812" fill-rule="evenodd" stroke="#fff"/>
<path d="m178.4777,585.7624h3.1562l.5625-8.75h2.25c0-4.0864.0762-9.3854-3.6875-9.9688 .6084-.7628 1-2.2004 1-3.375-1e-05-2.3195-1.4669-4.1875-3.2812-4.1875" fill="#fff" fill-rule="evenodd" stroke="#000"/>
<path d="m164.0166,560.7311c.3291-.155.6915-.25 1.0625-.25 .1048,0 .2104-.0133.3125,0 1.5317.1989 2.7188,1.6783 2.7188,3.6875 0,1.1128-.381,2.2607-.9688,2.9688 3.1856.5988 3.4375,5.1099 3.4375,8.875h-2.2188l-.5625,8.75h-3.7812" fill-rule="evenodd" stroke="#fff"/>
<path d="m164.9229,585.7624h-3.1562l-.5625-8.75h-2.25c0-4.0864-.0762-9.3854 3.6875-9.9688-.6084-.7628-1-2.2004-1-3.375 1e-05-2.3195 1.4669-4.1875 3.2812-4.1875" fill="#fff" fill-rule="evenodd" stroke="#000"/>
<path d="m162.6057,585.7562h20.2627" fill="none" stroke="#000"/>
</g>
</svg>
