<svg xmlns="http://www.w3.org/2000/svg" viewBox="0 0 512 512">
<g transform="matrix(15 0 0 15 -4844 -1664)">
<use width="744.094" height="1052.362" transform="translate(360 108)"/>
<path fill="#fff" d="m328,112 0,7.375c0,0 1.4472-.7951 2.1562-.6562 1.0333,.1186 1.9036,.9931 2.0312,1.625-.8664,.1735-1.5312,1.0926-1.5312,2.1875 0,1.2189 .8339,2.2188 1.8438,2.2188 .0975,0 .3128,.0486 .4062,.0312l2.5312,10.5938v8.625h3.4062v-25.8438l-1.6875,1.2188c0,0-.5982-1.8414-2.3125-3.6875-1.7143-1.8461-6.8438-3.6875-6.8438-3.6875zm13.1562,0 0,25.8438 1.6875-1.2188c0,0 .5982,1.8414 2.3125,3.6875 1.7143,1.8462 6.8438,3.6875 6.8438,3.6875v-7.375c0,0-1.4472,.7951-2.1562,.6562-1.0333-.1186-1.9036-.9931-2.0312-1.625 .8664-.1735 1.5312-1.0926 1.5312-2.1875 0-1.2189-.8339-2.2188-1.8438-2.2188-.0975,0-.3128-.0486-.4062-.0312l-2.5312-10.5938v-8.625h-3.4062z"/>
</g>
</svg>
