<svg viewBox="0 0 512 512" xmlns="http://www.w3.org/2000/svg">

<g transform="matrix(-18.68858,0,0,18.68858,1354.0237,-15415.63488)">
<g transform="translate(1.2005,.1305)">
<path d="m54.5,845.9559c0,1.5015-1.2172,2.7188-2.7188,2.7188s-2.7188-1.2172-2.7188-2.7188 1.2172-2.7188 2.7188-2.7188 2.7188,1.2172 2.7188,2.7188z" fill="#fff" transform="matrix(.66667,0,0,.66667,16.94791,283.14143)"/>
<path d="m54.5,845.9559c0,1.5015-1.2172,2.7188-2.7188,2.7188s-2.7188-1.2172-2.7188-2.7188 1.2172-2.7188 2.7188-2.7188 2.7188,1.2172 2.7188,2.7188z" transform="matrix(.48276,0,0,.48276,25.9709,439.21957)"/>
<path d="m55.5407,842.7109c-2.2052,1.6064-4.2359,3.3821-5.5407,5.7763 2.258-1.2259 4.4645-2.7759 6.2869-4.8731" fill="#fff" fill-rule="evenodd"/>
</g>
<path d="m62.5363,850.8388c-2.5828,1.2023-6.1911,1.2178-8.4477,0l4.2238-8.4578 4.2238,8.4578z" fill="#fff"/>
<path d="m61.875,840.7482c0,2.8119-1.638,6.739-3.6562,6.739s-3.6562-3.9271-3.6562-6.739 1.638-3.4491 3.6562-3.4491 3.6562.6372 3.6562,3.4491z" fill="#fff"/>
<g transform="matrix(-1,0,0,1,115.45614,.13053)">
<path d="m54.5,845.9559c0,1.5015-1.2172,2.7188-2.7188,2.7188s-2.7188-1.2172-2.7188-2.7188 1.2172-2.7188 2.7188-2.7188 2.7188,1.2172 2.7188,2.7188z" fill="#fff" transform="matrix(.66667,0,0,.66667,16.94791,283.14143)"/>
<path d="m54.5,845.9559c0,1.5015-1.2172,2.7188-2.7188,2.7188s-2.7188-1.2172-2.7188-2.7188 1.2172-2.7188 2.7188-2.7188 2.7188,1.2172 2.7188,2.7188z" transform="matrix(.48276,0,0,.48276,25.9709,439.21957)"/>
<path d="m55.5407,842.7109c-2.2052,1.6064-4.2359,3.3821-5.5407,5.7763 2.258-1.2259 4.4645-2.7759 6.2869-4.8731" fill="#fff" fill-rule="evenodd"/>
</g>
<path d="m46.5625,826.0625c-.5511,1.4435-.875,3.018-.875,4.6562 0,7.1588 5.768,12.9688 12.875,12.9688s12.875-5.81 12.875-12.9688c0-1.6382-.3239-3.2128-.875-4.6562-1.419,2.2211-4.473,3.9561-8.2812,4.6562 .6779.8349 1.0938,1.9006 1.0938,3.0625-1e-06,2.6738-2.1581,4.8438-4.8125,4.8438s-4.8125-2.17-4.8125-4.8438c0-1.1619.4159-2.2276 1.0938-3.0625-3.8083-.7002-6.8623-2.4352-8.2812-4.6562z" fill="#fff"/>
<path d="m57.9946,832.307 4.3272.9338-1.8143,2.6842-3.1471-.6791 .6342-2.9388z" fill="#fff"/>
<path d="m58.3062,833.1129-2.706-.5839-.9794,2.1625c1.1685-.5471 2.2545-.6297 3.1552.2503" fill="#fff" fill-rule="evenodd"/>
<path d="m436.3125,771.4716c0,.4056-.3288.7344-.7344.7344s-.7344-.3288-.7344-.7344 .3288-.7344.7344-.7344 .7344.3288.7344.7344z" transform="matrix(.80298,.17327,-.17327,.80298,-157.11279,138.81044)"/>
<path d="m55.6331,837.9293c1.371-.7667 2.8769-1.8843 2.6663-2.8175l2.382-1.0606c1.2778,1.3305.7252,3.1064.0906,4.2597" fill="#fff" fill-rule="evenodd"/>
<path d="m66.2136,833.4248h5.9662" fill="none" stroke="#000"/>
<path d="m65.9621,835.335 5.7629,1.5442" fill="none" stroke="#000"/>
<path d="m65.2248,837.115 5.1669,2.9831" fill="none" stroke="#000"/>
<path d="m64.0519,838.6435 4.2188,4.2187" fill="none" stroke="#000"/>
<path d="m62.5234,839.8164 2.9831,5.1669" fill="none" stroke="#000"/>
<path d="m71.725,829.9704-5.7629,1.5442" fill="none" stroke="#000"/>
<path d="m51.0521,833.4248h-5.9662" fill="none" stroke="#000"/>
<path d="m51.3036,835.335-5.7629,1.5442" fill="none" stroke="#000"/>
<path d="m52.0409,837.115-5.1669,2.9831" fill="none" stroke="#000"/>
<path d="m53.2138,838.6435-4.2188,4.2187" fill="none" stroke="#000"/>
<path d="m54.7423,839.8164-2.9831,5.1669" fill="none" stroke="#000"/>
<path d="m45.5406,829.9704 5.7629,1.5442" fill="none" stroke="#000"/>
</g>
</svg>
