<svg viewBox="0 0 512 512" xmlns="http://www.w3.org/2000/svg">

<g transform="matrix(-18.68858,0,0,18.68858,1354.0237,-15415.63488)">
<g transform="translate(1.2005,.1305)">
<path d="m 54.5 845.956 c 0 1.5015 -1.2172 2.7188 -2.7188 2.7188 s -2.7188 -1.2172 -2.7188 -2.7188 1.2172 -2.7188 2.7188 -2.7188 2.7188 1.2172 2.7188 2.7188 z" fill="#fff" transform="matrix(.66667,0,0,.66667,16.94791,283.14143)"/>
<path d="m 54.5 845.956 c 0 1.5015 -1.2172 2.7188 -2.7188 2.7188 s -2.7188 -1.2172 -2.7188 -2.7188 1.2172 -2.7188 2.7188 -2.7188 2.7188 1.2172 2.7188 2.7188 z" transform="matrix(.48276,0,0,.48276,25.9709,439.21957)"/>
<path d="m 55.5407 842.711 c -2.2052 1.6064 -4.2359 3.3821 -5.5407 5.7763 2.258 -1.2259 4.4645 -2.7759 6.2869 -4.8731" fill="#fff" fill-rule="evenodd"/>
</g>
<path d="m 62.5363 850.839 c -2.5828 1.2023 -6.1911 1.2178 -8.4477 0 l 4.2238 -8.4578 4.2238 8.4578 z" fill="#fff"/>
<path d="m 61.875 840.748 c 0 2.8119 -1.638 6.739 -3.6562 6.739 s -3.6562 -3.9271 -3.6562 -6.739 1.638 -3.4491 3.6562 -3.4491 3.6562 0.6372 3.6562 3.4491 z" fill="#fff"/>
<g transform="matrix(-1,0,0,1,115.45614,.13053)">
<path d="m 54.5 845.956 c 0 1.5015 -1.2172 2.7188 -2.7188 2.7188 s -2.7188 -1.2172 -2.7188 -2.7188 1.2172 -2.7188 2.7188 -2.7188 2.7188 1.2172 2.7188 2.7188 z" fill="#fff" transform="matrix(.66667,0,0,.66667,16.94791,283.14143)"/>
<path d="m 54.5 845.956 c 0 1.5015 -1.2172 2.7188 -2.7188 2.7188 s -2.7188 -1.2172 -2.7188 -2.7188 1.2172 -2.7188 2.7188 -2.7188 2.7188 1.2172 2.7188 2.7188 z" transform="matrix(.48276,0,0,.48276,25.9709,439.21957)"/>
<path d="m 55.5407 842.711 c -2.2052 1.6064 -4.2359 3.3821 -5.5407 5.7763 2.258 -1.2259 4.4645 -2.7759 6.2869 -4.8731" fill="#fff" fill-rule="evenodd"/>
</g>
<path d="m 46.5625 826.062 c -0.5511 1.4435 -0.875 3.018 -0.875 4.6562 0 7.1588 5.768 12.9688 12.875 12.9688 s 12.875 -5.81 12.875 -12.9688 c 0 -1.6382 -0.3239 -3.2128 -0.875 -4.6562 -1.419 2.2211 -4.473 3.9561 -8.2812 4.6562 0.6779 0.8349 1.0938 1.9006 1.0938 3.0625 -1e-06 2.6738 -2.1581 4.8438 -4.8125 4.8438 s -4.8125 -2.17 -4.8125 -4.8438 c 0 -1.1619 0.4159 -2.2276 1.0938 -3.0625 -3.8083 -0.7002 -6.8623 -2.4352 -8.2812 -4.6562 z" fill="#fff"/>
<path d="m 57.9946 832.307 4.3272 0.9338 -1.8143 2.6842 -3.1471 -0.6791 0.6342 -2.9388 z" fill="#fff"/>
<path d="m 58.3062 833.113 -2.706 -0.5839 -0.9794 2.1625 c 1.1685 -0.5471 2.2545 -0.6297 3.1552 0.2503" fill="#fff" fill-rule="evenodd"/>
<path d="m 436.312 771.472 c 0 0.4056 -0.3288 0.7344 -0.7344 0.7344 s -0.7344 -0.3288 -0.7344 -0.7344 0.3288 -0.7344 0.7344 -0.7344 0.7344 0.3288 0.7344 0.7344 z" transform="matrix(.80298,.17327,-.17327,.80298,-157.11279,138.81044)"/>
<path d="m 55.6331 837.929 c 1.371 -0.7667 2.8769 -1.8843 2.6663 -2.8175 l 2.382 -1.0606 c 1.2778 1.3305 0.7252 3.1064 0.0906 4.2597" fill="#fff" fill-rule="evenodd"/>
<path d="m 66.2136 833.425 h 5.9662" fill="none" stroke="#000"/>
<path d="m 65.9621 835.335 5.7629 1.5442" fill="none" stroke="#000"/>
<path d="m 65.2248 837.115 5.1669 2.9831" fill="none" stroke="#000"/>
<path d="m 64.0519 838.644 4.2188 4.2187" fill="none" stroke="#000"/>
<path d="m 62.5234 839.816 2.9831 5.1669" fill="none" stroke="#000"/>
<path d="m 71.725 829.97 -5.7629 1.5442" fill="none" stroke="#000"/>
<path d="m 51.0521 833.425 h -5.9662" fill="none" stroke="#000"/>
<path d="m 51.3036 835.335 -5.7629 1.5442" fill="none" stroke="#000"/>
<path d="m 52.0409 837.115 -5.1669 2.9831" fill="none" stroke="#000"/>
<path d="m 53.2138 838.644 -4.2188 4.2187" fill="none" stroke="#000"/>
<path d="m 54.7423 839.816 -2.9831 5.1669" fill="none" stroke="#000"/>
<path d="m 45.5406 829.97 5.7629 1.5442" fill="none" stroke="#000"/>
</g>
</svg>
