<svg viewBox="0 0 512 512" xmlns="http://www.w3.org/2000/svg">

<g transform="matrix(18.68858,0,0,18.68858,-909.26892,-17254.38624)">
<path d="m50.8652,950.2142h-1.7891v-2.9103l3.1787-1.3304 .6079-3.5963 1.1812,4.7188-3.1787,3.1182z" fill="#fff" fill-rule="evenodd"/>
<path d="m49.1964,947.9 3.6847-1.3332-.4913-3.8822 7.1483-.941-1.3019-1.7501 3.4636-2.5145" fill="none" stroke="#fff"/>
<path d="m62.6941,950.0063 1.876-3.5755-2.8139-3.3676 1.6328-.0832 3.2655,2.6608 .139,4.407-4.0993-.0416z" fill="#fff" fill-rule="evenodd"/>
<path d="m63.6651,937.6506 3.1197,3.6665-4.0778,1.9458 2.6039,2.9562" fill="none" stroke="#fff"/>
<path d="m66.6865,941.2337 4.9621,1.1666-2.6039,4.1664 2.6039,3.4998" fill="none" stroke="#fff"/>
<path d="m70.3713,943.9707 5.2418,1.1569" fill="none" stroke="#fff"/>
<path d="m56.3715,944.8717 3.7866,1.5175-.3474,3.5547h-3.0397l1.1464-2.4322-2.1712-1.7954 .6253-.8446z" fill="#fff" fill-rule="evenodd"/>
<path d="m55.9763,941.977 .2081,3.4053 3.1819,1.416" fill="none" stroke="#fff"/>
<path d="m70.8626,950.1792h4.3882l-5.0708-3.5602 .9413-2.3204-1.7326,1.7648 1.4739,4.1158z" fill="#fff" fill-rule="evenodd"/>
<path d="m70.1632,944.4009 5.5821,2.2048v-1.8321l-5.5821-.3727z" fill="#fff" fill-rule="evenodd"/>
<path d="m49.1818,937.519h26.4376v12.5494h-26.4376v-12.5494z" fill="none" stroke="#000"/>
<g transform="translate(-.2525)">
<path d="m52.2037,934.2708 4.0006.3707-2.1909-6.7278 4.45,4.187-1.1682-7.973 1.5353,2.1126 .9909-.9727 1.7405,4.6825 2.7598-5.6079 .6563,5.3995 5.0967-2.7542-2.588,5.9845 3.7923-2.6169-1.1005,4.5486 2.743-.3663-1.9891,3.378h-16.6242l-2.1045-3.6446z" fill="#fff" fill-rule="evenodd"/>
<path d="m58.2276,938.1633-.6898-2.3203 1.505.8152 .0627-2.6338 2.383,2.7593 .7525-4.2016 .9407,3.2609 3.0728-2.1322-.9407,3.1355 2.9474-1.1915-1.8813,2.5711-8.1523-.0627z" fill-rule="evenodd"/>
</g>
</g>
</svg>
