<svg viewBox="0 0 512 512" xmlns="http://www.w3.org/2000/svg">

<g transform="matrix(18.68858,0,0,18.68858,-909.26892,-17254.38624)">
<path d="m 50.8652 950.214 h -1.7891 v -2.9103 l 3.1787 -1.3304 0.6079 -3.5963 1.1812 4.7188 -3.1787 3.1182 z" fill="#fff" fill-rule="evenodd"/>
<path d="m 49.1964 947.9 3.6847 -1.3332 -0.4913 -3.8822 7.1483 -0.941 -1.3019 -1.7501 3.4636 -2.5145" fill="none" stroke="#fff"/>
<path d="m 62.6941 950.006 1.876 -3.5755 -2.8139 -3.3676 1.6328 -0.0832 3.2655 2.6608 0.139 4.407 -4.0993 -0.0416 z" fill="#fff" fill-rule="evenodd"/>
<path d="m 63.6651 937.651 3.1197 3.6665 -4.0778 1.9458 2.6039 2.9562" fill="none" stroke="#fff"/>
<path d="m 66.6865 941.234 4.9621 1.1666 -2.6039 4.1664 2.6039 3.4998" fill="none" stroke="#fff"/>
<path d="m 70.3713 943.971 5.2418 1.1569" fill="none" stroke="#fff"/>
<path d="m 56.3715 944.872 3.7866 1.5175 -0.3474 3.5547 h -3.0397 l 1.1464 -2.4322 -2.1712 -1.7954 0.6253 -0.8446 z" fill="#fff" fill-rule="evenodd"/>
<path d="m 55.9763 941.977 0.2081 3.4053 3.1819 1.416" fill="none" stroke="#fff"/>
<path d="m 70.8626 950.179 h 4.3882 l -5.0708 -3.5602 0.9413 -2.3204 -1.7326 1.7648 1.4739 4.1158 z" fill="#fff" fill-rule="evenodd"/>
<path d="m 70.1632 944.401 5.5821 2.2048 v -1.8321 l -5.5821 -0.3727 z" fill="#fff" fill-rule="evenodd"/>
<path d="m 49.1818 937.519 h 26.4376 v 12.5494 h -26.4376 v -12.5494 z" fill="none" stroke="#000"/>
<g transform="translate(-.2525)">
<path d="m 52.2037 934.271 4.0006 0.3707 -2.1909 -6.7278 4.45 4.187 -1.1682 -7.973 1.5353 2.1126 0.9909 -0.9727 1.7405 4.6825 2.7598 -5.6079 0.6563 5.3995 5.0967 -2.7542 -2.588 5.9845 3.7923 -2.6169 -1.1005 4.5486 2.743 -0.3663 -1.9891 3.378 h -16.6242 l -2.1045 -3.6446 z" fill="#fff" fill-rule="evenodd"/>
<path d="m 58.2276 938.163 -0.6898 -2.3203 1.505 0.8152 0.0627 -2.6338 2.383 2.7593 0.7525 -4.2016 0.9407 3.2609 3.0728 -2.1322 -0.9407 3.1355 2.9474 -1.1915 -1.8813 2.5711 -8.1523 -0.0627 z" fill-rule="evenodd"/>
</g>
</g>
</svg>
