<svg viewBox="0 0 512 512" xmlns="http://www.w3.org/2000/svg">

<g transform="matrix(18.68858,0,0,18.68858,-11120.3744,-36766.50789)">
<path d="m596.2073,1979.9218 3.9005-1.4824-1.1034,1.8866 8.837-2.7627 3.9856.018 4.829,2.64-.2229-1.3969 3.3616,1.3209-.4009-1.8041 2.1038,1.5802v13.7224h-25.2904z" fill="#fff"/>
<path d="m613.3687,1977.1041h-7.1566l-2.0947,7.7731 4.8966.4447-3.4438,7.1153 8.6633-9.2118-3.7666-.5718z"/>
<path d="m609.46,1987.5708 2.4712-2.2674 2.2176,2.6246-1.2635,1.4154 3.1865,3.6676-5.7705-2.797 .9487-1.4279z"/>
<path d="m605.4625,1984.0513-3.2801,1.9681-.7911,3.3612-5.6815,3.0069" fill="none" stroke="#000"/>
<path d="m610.1545,1983.1242 6.4708.5452 1.63,1.1071 3.6191.6724" fill="none" stroke="#000"/>
<path d="m612.8882,1987.8631 4.7639,1.4566-.7281,1.208 4.9503,1.4648" fill="none" stroke="#000"/>
<path d="m616.1045,1983.1666 3.5228-.4504-2.1444,1.238"/>
<path d="m602.6121,1985.2919-3.2761,1.3713h2.4761"/>
<path d="m616.9874,1988.6384 3.5879.8133-3.119.9372"/>
<path d="m607.9172,1987.9045-4.396.8133 3.9023.7486"/>
</g>
</svg>
