<svg viewBox="0 0 512 512" xmlns="http://www.w3.org/2000/svg">

<g transform="matrix(18.68858,0,0,18.68858,-11120.3744,-36766.50789)">
<path d="m 596.207 1979.92 3.9005 -1.4824 -1.1034 1.8866 8.837 -2.7627 3.9856 0.018 4.829 2.64 -0.2229 -1.3969 3.3616 1.3209 -0.4009 -1.8041 2.1038 1.5802 v 13.7224 h -25.2904 z" fill="#fff"/>
<path d="m 613.369 1977.1 h -7.1566 l -2.0947 7.7731 4.8966 0.4447 -3.4438 7.1153 8.6633 -9.2118 -3.7666 -0.5718 z"/>
<path d="m 609.46 1987.57 2.4712 -2.2674 2.2176 2.6246 -1.2635 1.4154 3.1865 3.6676 -5.7705 -2.797 0.9487 -1.4279 z"/>
<path d="m 605.462 1984.05 -3.2801 1.9681 -0.7911 3.3612 -5.6815 3.0069" fill="none" stroke="#000"/>
<path d="m 610.154 1983.12 6.4708 0.5452 1.63 1.1071 3.6191 0.6724" fill="none" stroke="#000"/>
<path d="m 612.888 1987.86 4.7639 1.4566 -0.7281 1.208 4.9503 1.4648" fill="none" stroke="#000"/>
<path d="m 616.105 1983.17 3.5228 -0.4504 -2.1444 1.238"/>
<path d="m 602.612 1985.29 -3.2761 1.3713 h 2.4761"/>
<path d="m 616.987 1988.64 3.5879 0.8133 -3.119 0.9372"/>
<path d="m 607.917 1987.9 -4.396 0.8133 3.9023 0.7486"/>
</g>
</svg>
