<svg viewBox="0 0 512 512" xmlns="http://www.w3.org/2000/svg">

<g transform="matrix(18.68858,0,0,18.68858,3883.1294,-4115.74046)">
<path d="m -198.128 230.696 c -1.551 -0.0639 -2.8047 0.5805 -4.7475 3.5879 1.7411 -4.4253 0.9102 -5.2361 -3.7848 -4.6866 4.3028 -1.7114 4.907 -2.4045 0.3669 -5.1881 4.4982 1.3769 5.4088 0.8132 5.7725 -3.1915 0.9546 4.1274 2.9172 3.8759 6.2452 1.7503 -2.259 2.1817 -2.6613 3.7625 -2.0462 5.6566" fill="#fff" fill-rule="evenodd"/>
<path d="m 544.812 226.925 c 0 1.001 -0.8115 1.8125 -1.8125 1.8125 s -1.8125 -0.8115 -1.8125 -1.8125 0.8115 -1.8125 1.8125 -1.8125 1.8125 0.8115 1.8125 1.8125 z" transform="matrix(.49942,-1.03536,1.03536,.49942,-706.12006,676.30085)"/>
<path d="m -188.63 223.531 c -7.041 0 -12.7505 5.7094 -12.7505 12.7505 0 4.5045 2.3394 8.4523 5.8681 10.722 -2.2273 -2.3455 -3.6223 -5.4959 -3.6223 -8.9833 0 -7.2196 5.8569 -13.0765 13.0765 -13.0765 1.6545 0 3.2515 0.3081 4.709 0.8693 -2.0645 -1.4377 -4.5761 -2.282 -7.2808 -2.282 z" fill="#fff"/>
</g>
</svg>
