<svg viewBox="0 0 512 512" xmlns="http://www.w3.org/2000/svg">

<g transform="matrix(18.68858,0,0,18.68858,-3631.26901,-22.41093)">
<path d="m198.9168,4.7731c5.9373.8662 11.8746.7087 17.8119,0 0,9.1988-1.1935,18.5347-8.911,20.18-7.0105-1.9265-8.9009-11.0065-8.9009-20.18z" fill="#fff" fill-rule="evenodd"/>
<path d="m211.6065,3.4952-3.7799,8.8919-3.7799-8.8919h7.5598z"/>
<path d="m211.1071,25.4465-3.2806-7.7172-3.3445,7.8676 3.2948,1.2192 3.3303-1.3696z"/>
<path d="m197.3713,10.8122 8.5512,3.7774-6.8364,2.9023-1.7148-6.6798z"/>
<path d="m218.5432,10.8122-8.8977,3.7774 6.9569,2.9535 1.9408-6.7309z"/>
<path d="m197.158,2.9457c7.0938,1.0349 14.1876.8468 21.2814,0 0,10.9906-1.426,22.145-10.6468,24.1109-8.3761-2.3018-10.6347-13.1504-10.6347-24.1109z" fill="none" stroke="#fff"/>
<path d="m197.3713,11.9243 5.9927,2.6472-4.791,2.034-1.2017-4.6812z" fill="#fff"/>
<path d="m210.3749,3.4952-2.5483,5.9948-2.5483-5.9948h5.0967z" fill="#fff"/>
<path d="m210.0921,25.8662-2.2754-5.3526-2.3197,5.457 2.2852.8456 2.3099-.95z" fill="#fff"/>
<path d="m218.2798,11.9924-6.0758,2.5794 4.7505,2.0168 1.3253-4.5962z" fill="#fff"/>
</g>
</svg>
