<svg viewBox="0 0 512 512" xmlns="http://www.w3.org/2000/svg">

<g transform="matrix(18.68858,0,0,18.68858,-3631.26901,-22.41093)">
<path d="m 198.917 4.7731 c 5.9373 0.8662 11.8746 0.7087 17.8119 0 0 9.1988 -1.1935 18.5347 -8.911 20.18 -7.0105 -1.9265 -8.9009 -11.0065 -8.9009 -20.18 z" fill="#fff" fill-rule="evenodd"/>
<path d="m 211.607 3.4952 -3.7799 8.8919 -3.7799 -8.8919 h 7.5598 z"/>
<path d="m 211.107 25.4465 -3.2806 -7.7172 -3.3445 7.8676 3.2948 1.2192 3.3303 -1.3696 z"/>
<path d="m 197.371 10.8122 8.5512 3.7774 -6.8364 2.9023 -1.7148 -6.6798 z"/>
<path d="m 218.543 10.8122 -8.8977 3.7774 6.9569 2.9535 1.9408 -6.7309 z"/>
<path d="m 197.158 2.9457 c 7.0938 1.0349 14.1876 0.8468 21.2814 0 0 10.9906 -1.426 22.145 -10.6468 24.1109 -8.3761 -2.3018 -10.6347 -13.1504 -10.6347 -24.1109 z" fill="none" stroke="#fff"/>
<path d="m 197.371 11.9243 5.9927 2.6472 -4.791 2.034 -1.2017 -4.6812 z" fill="#fff"/>
<path d="m 210.375 3.4952 -2.5483 5.9948 -2.5483 -5.9948 h 5.0967 z" fill="#fff"/>
<path d="m 210.092 25.8662 -2.2754 -5.3526 -2.3197 5.457 2.2852 0.8456 2.3099 -0.95 z" fill="#fff"/>
<path d="m 218.28 11.9924 -6.0758 2.5794 4.7505 2.0168 1.3253 -4.5962 z" fill="#fff"/>
</g>
</svg>
