<svg viewBox="0 0 512 512" xmlns="http://www.w3.org/2000/svg">

<g transform="matrix(18.68858,0,0,18.68858,-10441.31176,-31999.96874)">
<path d="m581.5949,1722.2591c.2706,2.5454-1.6454,4.8686-4.2836,5.149s-4.9912-1.5074-5.2703-4.1335c-.4336-4.0791 1.2249-8.824 3.8632-9.1044s5.2572,4.0098 5.6908,8.0889z" fill="#fff" stroke="#000"/>
<path d="m574.1061,1722.0723c.1404,2.5558-1.8915,4.7783-4.5406,4.9239s-4.9078-1.7599-5.0527-4.3969c-.225-4.096 1.6733-8.75 4.3224-8.8956s5.0459,4.2725 5.2709,8.3686z" fill="#fff" stroke="#000"/>
<path d="m568.857,1728.2365c0,2.5597-2.1508,4.6674-4.8039,4.6674s-4.8039-2.0265-4.8039-4.6674c0-4.1022 2.1508-8.6451 4.8039-8.6451s4.8039,4.5429 4.8039,8.6451z" fill="#fff" stroke="#000"/>
<path d="m577.0004,1726.5086c.2795,2.5444-1.6282,4.8744-4.2655,5.1641s-4.9964-1.4898-5.2848-4.1149c-.448-4.0777 1.1939-8.8283 3.8311-9.118s5.2713,3.9912 5.7192,8.0688z" fill="#fff" stroke="#000"/>
<path d="m572.9157,1732.6199c0,2.5597-2.1508,4.6674-4.8039,4.6674s-4.8039-2.0265-4.8039-4.6674c0-4.1022 2.1508-8.6451 4.8039-8.6451s4.8039,4.5429 4.8039,8.6451z" fill="#fff" stroke="#000"/>
<path d="m585.5326,1729.5117c-.2154,2.6362-2.6078,4.6258-5.3401,4.4026s-4.7767-2.4912-4.5545-5.211c.3452-4.2246 2.9425-8.7223 5.6748-8.499s4.565,5.083 4.2198,9.3074z" fill="#fff" stroke="#000"/>
<path d="m581.1656,1733.8867c-.2474,2.5477-2.5919,4.4376-5.2326,4.1811s-4.5855-2.4813-4.3302-5.1099c.3965-4.0829 2.9764-8.3967 5.6171-8.1402s4.3422,4.9861 3.9457,9.069z" fill="#fff" stroke="#000"/>
<path d="m579.7465,1727.3796-2.2348,1.8091 .7449.7982" fill="none" stroke="#000"/>
<path d="m561.3258,1721.6338 1.6931.9782-.271,1.4894 .7901.7525" fill="none" stroke="#000"/>
</g>
</svg>
