<svg viewBox="0 0 512 512" xmlns="http://www.w3.org/2000/svg">

<g transform="matrix(18.68858,0,0,18.68858,-10441.31176,-31999.96874)">
<path d="m 581.595 1722.26 c 0.2706 2.5454 -1.6454 4.8686 -4.2836 5.149 s -4.9912 -1.5074 -5.2703 -4.1335 c -0.4336 -4.0791 1.2249 -8.824 3.8632 -9.1044 s 5.2572 4.0098 5.6908 8.0889 z" fill="#fff" stroke="#000"/>
<path d="m 574.106 1722.07 c 0.1404 2.5558 -1.8915 4.7783 -4.5406 4.9239 s -4.9078 -1.7599 -5.0527 -4.3969 c -0.225 -4.096 1.6733 -8.75 4.3224 -8.8956 s 5.0459 4.2725 5.2709 8.3686 z" fill="#fff" stroke="#000"/>
<path d="m 568.857 1728.24 c 0 2.5597 -2.1508 4.6674 -4.8039 4.6674 s -4.8039 -2.0265 -4.8039 -4.6674 c 0 -4.1022 2.1508 -8.6451 4.8039 -8.6451 s 4.8039 4.5429 4.8039 8.6451 z" fill="#fff" stroke="#000"/>
<path d="m 577 1726.51 c 0.2795 2.5444 -1.6282 4.8744 -4.2655 5.1641 s -4.9964 -1.4898 -5.2848 -4.1149 c -0.448 -4.0777 1.1939 -8.8283 3.8311 -9.118 s 5.2713 3.9912 5.7192 8.0688 z" fill="#fff" stroke="#000"/>
<path d="m 572.916 1732.62 c 0 2.5597 -2.1508 4.6674 -4.8039 4.6674 s -4.8039 -2.0265 -4.8039 -4.6674 c 0 -4.1022 2.1508 -8.6451 4.8039 -8.6451 s 4.8039 4.5429 4.8039 8.6451 z" fill="#fff" stroke="#000"/>
<path d="m 585.533 1729.51 c -0.2154 2.6362 -2.6078 4.6258 -5.3401 4.4026 s -4.7767 -2.4912 -4.5545 -5.211 c 0.3452 -4.2246 2.9425 -8.7223 5.6748 -8.499 s 4.565 5.083 4.2198 9.3074 z" fill="#fff" stroke="#000"/>
<path d="m 581.166 1733.89 c -0.2474 2.5477 -2.5919 4.4376 -5.2326 4.1811 s -4.5855 -2.4813 -4.3302 -5.1099 c 0.3965 -4.0829 2.9764 -8.3967 5.6171 -8.1402 s 4.3422 4.9861 3.9457 9.069 z" fill="#fff" stroke="#000"/>
<path d="m 579.746 1727.38 -2.2348 1.8091 0.7449 0.7982" fill="none" stroke="#000"/>
<path d="m 561.326 1721.63 1.6931 0.9782 -0.271 1.4894 0.7901 0.7525" fill="none" stroke="#000"/>
</g>
</svg>
