<svg viewBox="0 0 512 512" xmlns="http://www.w3.org/2000/svg">

<g transform="matrix(18.68858,0,0,18.68858,-11801.12379,-18398.99271)">
<path d="m634.2361,989.8606c7.5824.0236 11.7428,4.7959 15.6804,10.6128l1.0995-.021c-3.8167-6.5758-8.6088-11.9627-15.8321-14.2703-2.6378-.8427-3.6663,3.6699-.9478,3.6783z" fill="#fff" fill-rule="evenodd"/>
<path d="m649.6218,1008.4421c.3943-2.7903.5834-5.5984.2753-8.4505 2.0989,1.4595 3.4084,3.1786 4.9058,4.8361" fill="none" stroke="#fff"/>
<path d="m652.4151,1008.5228c0,.8081-.6551,1.4631-1.4631,1.4631s-1.4631-.655-1.4631-1.4631 .6551-1.4631 1.4631-1.4631 1.4631.6551 1.4631,1.4631z" fill="#fff" transform="matrix(1.4348,0,0,1.43699,-284.40006,-439.96218)"/>
<path d="m652.4151,1008.5228c0,.8081-.6551,1.4631-1.4631,1.4631s-1.4631-.655-1.4631-1.4631 .6551-1.4631 1.4631-1.4631 1.4631.6551 1.4631,1.4631z" fill="#fff" transform="matrix(1.13408,0,0,1.13581,-82.708,-139.96651)"/>
<path d="m645.2056,1005.9675c1.2557-3.2892 1.8795-6.7824 1.2894-10.2967 3.0807.8394 7.7844,3.0499 9.5679,5.4488" fill="none" stroke="#fff"/>
<path d="m652.4151,1008.5228c0,.8081-.6551,1.4631-1.4631,1.4631s-1.4631-.655-1.4631-1.4631 .6551-1.4631 1.4631-1.4631 1.4631.6551 1.4631,1.4631z" fill="#fff" transform="matrix(1.13408,0,0,1.13581,-93.18955,-139.23766)"/>
<path d="m652.4151,1008.5228c0,.8081-.6551,1.4631-1.4631,1.4631s-1.4631-.655-1.4631-1.4631 .6551-1.4631 1.4631-1.4631 1.4631.6551 1.4631,1.4631z" fill="#fff" transform="matrix(1.26503,0,0,1.26696,-167.48191,-277.04182)"/>
<path d="m639.8656,996.1998c1.1498,3.9523 1.3524,8.4054.5245,12.0038" fill="none" stroke="#fff"/>
<path d="m640.0205,990.0838c.7068,4.9426-.7336,10.0377-3.9273,13.7256" fill="none" stroke="#fff"/>
<path d="m652.4151,1008.5228c0,.8081-.6551,1.4631-1.4631,1.4631s-1.4631-.655-1.4631-1.4631 .6551-1.4631 1.4631-1.4631 1.4631.6551 1.4631,1.4631z" fill="#fff" transform="matrix(1.12559,-.13848,.13869,1.12731,-237.20088,-41.97341)"/>
<path d="m652.4151,1008.5228c0,.8081-.6551,1.4631-1.4631,1.4631s-1.4631-.655-1.4631-1.4631 .6551-1.4631 1.4631-1.4631 1.4631.6551 1.4631,1.4631z" fill="#fff" transform="matrix(1.18013,-.14519,.14541,1.18193,-274.32937,-90.01278)"/>
<path d="m643.8251,992.6758c3.1973-1.0265 6.6945-1.0845 9.4254-.1349" fill="none" stroke="#fff"/>
<path d="m652.4151,1008.5228c0,.8081-.6551,1.4631-1.4631,1.4631s-1.4631-.655-1.4631-1.4631 .6551-1.4631 1.4631-1.4631 1.4631.6551 1.4631,1.4631z" fill="#fff" transform="matrix(1.41186,0,0,1.41401,-264.36615,-432.64571)"/>
<path d="m652.4151,1008.5228c0,.8081-.6551,1.4631-1.4631,1.4631s-1.4631-.655-1.4631-1.4631 .6551-1.4631 1.4631-1.4631 1.4631.6551 1.4631,1.4631z" fill="#fff" transform="matrix(.91186,0,0,.91325,57.56043,67.96829)"/>
<path d="m647.3484,991.9408c.9657-1.0877 1.998-1.7764 3.0346-2.4385" fill="none" stroke="#fff"/>
<path d="m641.8948,991.1522c.9786,2.8817.9308,5.5807.782,8.3337 1.0274-2.4478 1.164-4.9808.7986-7.4202" fill="#fff" fill-rule="evenodd"/>
</g>
</svg>
