<svg viewBox="0 0 512 512" xmlns="http://www.w3.org/2000/svg">

<g transform="matrix(18.68858,0,0,18.68858,2602.67121,-7974.29599)">
<path d="m-133.807,427.8336c-.5065.009-1.033.1058-1.5427.2777 2.7868.1349 4.5877,1.2149 5.1834,3.147-3.2209-1.8003-7.8573-1.8485-8.1453,7.1271 .249-1.2942.655-2.2826 1.1724-3.0236 .0777,3.2209 2.1356,8.2043 6.7874,10.2433-7.5475-6.1685-6.42-18.225 3.2091-8.7006-.9379.1738-1.8078.7073-2.4991,1.5427 2.1842.163 4.2376,1.7455 6.1398,4.628-.7042-.5684-2.1178-.2229-2.8077.216 1.8318.7324 3.2382,2.4942 3.3939,4.3194 .2548,2.9884 1.2702,4.2119 4.0418,4.2577 2.6841.0444 3.6013-1.1578 5.3068-2.1597 1.3139-3.095.1575-8.7632-1.9438-12.0019-.0712,1.8062-.5091,2.5821-1.3267,3.4247 .2591-2.4323-.2631-4.4174-2.0055-6.8186-.1583,1.1182-.3279,2.2357-1.2341,2.7151-.9168-2.5494-3.7823-5.1986-6.5409-7.4973 .9034,1.5281 1.8932,3.0345 2.1289,4.9365-2.3674-3.0811-5.772-6.697-9.3177-6.6334z" fill="#fff" fill-rule="evenodd"/>
<path d="m628.5,447.6434c0,1.8122-1.4691,3.2812-3.2812,3.2812s-3.2812-1.4691-3.2812-3.2812 1.4691-3.2812 3.2812-3.2812 3.2812,1.4691 3.2812,3.2812z" stroke="#fff" stroke-width=".7679" transform="matrix(1.30231,0,0,1.3023,-932.19215,-134.97862)"/>
<path d="m-118.5509,443.7531c0,.9702-.7865,1.7567-1.7567,1.7567s-1.7567-.7865-1.7567-1.7567 .7865-1.7567 1.7567-1.7567 1.7567.7865 1.7567,1.7567z" transform="translate(1.6648,.1326)"/>
<path d="m-118.5509,443.7531c0,.9702-.7865,1.7567-1.7567,1.7567s-1.7567-.7865-1.7567-1.7567 .7865-1.7567 1.7567-1.7567 1.7567.7865 1.7567,1.7567z" transform="matrix(.75453,0,0,.75453,-30.39585,108.36531)"/>
<path d="m-118.5509,443.7531c0,.9702-.7865,1.7567-1.7567,1.7567s-1.7567-.7865-1.7567-1.7567 .7865-1.7567 1.7567-1.7567 1.7567.7865 1.7567,1.7567z" transform="matrix(.67296,0,0,.67296,-38.28564,141.73979)"/>
<path d="m-118.5509,443.7531c0,.9702-.7865,1.7567-1.7567,1.7567s-1.7567-.7865-1.7567-1.7567 .7865-1.7567 1.7567-1.7567 1.7567.7865 1.7567,1.7567z" transform="matrix(.53065,0,0,.53065,-58.1201,204.03082)"/>
<path d="m-118.5509,443.7531c0,.9702-.7865,1.7567-1.7567,1.7567s-1.7567-.7865-1.7567-1.7567 .7865-1.7567 1.7567-1.7567 1.7567.7865 1.7567,1.7567z" transform="matrix(.53065,0,0,.53065,-51.4951,207.74957)"/>
</g>
</svg>
