<svg viewBox="0 0 512 512" xmlns="http://www.w3.org/2000/svg">

<g transform="matrix(18.68858,0,0,18.68858,-12483.99972,-34716.6024)">
<path d="m 685.564 1869.06 c 0 2.8251 -2.2902 5.1153 -5.1153 5.1153 s -5.1153 -2.2902 -5.1153 -5.1153 2.2902 -5.1154 5.1153 -5.1154 5.1153 2.2902 5.1153 5.1154 z" fill="#fff" transform="matrix(1.25722,0,0,1.25722,-178.11929,-482.36199)"/>
<path d="m 691.562 1871.95 c -3.4796 -2.1264 -7.8167 1.1734 -4.9062 4.6718 -0.0693 -0.345 -0.0835 -0.6677 -0.0937 -0.9688 -0.0963 -2.8227 2.3243 -3.8459 4.1562 -2.6874 2.5669 1.6232 2.7049 6.1843 0.3125 7.4687 -6.4323 3.4534 -11.9326 -2.6131 -13.7812 -7.0313 l -7.2812 -6.2187 c -1.1286 16.8106 16.4449 20.7372 22.8906 13.8282 2.8453 -3.0499 1.2415 -7.5114 -1.2969 -9.0625 z" fill="#fff"/>
<path d="m 677.282 1874.5 c 3.6095 -1.9717 9.5011 2.6203 5.386 6.9016" fill="#fff"/>
<path d="m 675.09 1872.59 c 0.7434 1.6128 3.7798 2.2884 6.6562 1.8178 l -0.5312 -1.4543 c -1.58 0.7395 -3.699 0.945 -6.125 -0.3635 z"/>
<path d="m 684.265 1882.38 c -2.1026 -0.055 -2.1027 -3.319 0 -3.2622 s 2.1026 3.319 0 3.2622 z" fill="#fff"/>
<path d="m 669.998 1868.67 c -5.9419 -16.6079 23.6551 -9.3912 13.7073 -0.6873" fill="#fff"/>
<path d="m 679.171 1868.73 c 0 1.3001 -1.0539 2.354 -2.354 2.354 s -2.354 -1.0539 -2.354 -2.354 1.0539 -2.354 2.354 -2.354 2.354 1.0539 2.354 2.354 z" fill="#fff" stroke="#000" transform="translate(.9349,.433)"/>
<path d="m 681.427 1880.36 c 1.253 0.7049 3.3849 0.01 3.5675 -2.0285 l -0.9878 -0.6528 c 0.1887 1.2457 -0.4989 2.4253 -2.58 2.6809 z"/>
<path d="m 684.876 1882.8 c 1.3845 -0.3875 2.4006 -2.3864 1.0883 -3.957 l -1.1602 0.2363 c 1.0143 0.7475 1.3622 2.0678 0.0714 3.7201 z"/>
<path d="m 687.472 1876.32 c 0 0.4858 -0.2636 0.8797 -0.5887 0.8797 s -0.5887 -0.3939 -0.5887 -0.8797 0.2636 -0.8796 0.5887 -0.8796 0.5887 0.3938 0.5887 0.8796 z" fill="#fff" transform="matrix(.70711,-.70711,.70711,.70711,-1125.4429,1035.1271)"/>
<path d="m 679.171 1868.73 c 0 1.3001 -1.0539 2.354 -2.354 2.354 s -2.354 -1.0539 -2.354 -2.354 1.0539 -2.354 2.354 -2.354 2.354 1.0539 2.354 2.354 z" fill="#fff" stroke="#000" stroke-width="1.3283" transform="matrix(.58133,.33698,-.42048,.73119,1076.0683,274.58857)"/>
</g>
</svg>
