<svg viewBox="0 0 512 512" xmlns="http://www.w3.org/2000/svg">

<g transform="matrix(18.68858,0,0,18.68858,-12483.99972,-34716.6024)">
<path d="m685.5638,1869.0573c0,2.8251-2.2902,5.1153-5.1153,5.1153s-5.1153-2.2902-5.1153-5.1153 2.2902-5.1154 5.1153-5.1154 5.1153,2.2902 5.1153,5.1154z" fill="#fff" transform="matrix(1.25722,0,0,1.25722,-178.11929,-482.36199)"/>
<path d="m691.5625,1871.9532c-3.4796-2.1264-7.8167,1.1734-4.9062,4.6718-.0693-.345-.0835-.6677-.0937-.9688-.0963-2.8227 2.3243-3.8459 4.1562-2.6874 2.5669,1.6232 2.7049,6.1843.3125,7.4687-6.4323,3.4534-11.9326-2.6131-13.7812-7.0313l-7.2812-6.2187c-1.1286,16.8106 16.4449,20.7372 22.8906,13.8282 2.8453-3.0499 1.2415-7.5114-1.2969-9.0625z" fill="#fff"/>
<path d="m677.2818,1874.4974c3.6095-1.9717 9.5011,2.6203 5.386,6.9016" fill="#fff"/>
<path d="m675.0898,1872.591c.7434,1.6128 3.7798,2.2884 6.6562,1.8178l-.5312-1.4543c-1.58.7395-3.699.945-6.125-.3635z"/>
<path d="m684.2646,1882.3806c-2.1026-.055-2.1027-3.319 0-3.2622s2.1026,3.319 0,3.2622z" fill="#fff"/>
<path d="m669.9979,1868.6684c-5.9419-16.6079 23.6551-9.3912 13.7073-.6873" fill="#fff"/>
<path d="m679.1711,1868.7339c0,1.3001-1.0539,2.354-2.354,2.354s-2.354-1.0539-2.354-2.354 1.0539-2.354 2.354-2.354 2.354,1.0539 2.354,2.354z" fill="#fff" stroke="#000" transform="translate(.9349,.433)"/>
<path d="m681.4268,1880.3553c1.253.7049 3.3849.01 3.5675-2.0285l-.9878-.6528c.1887,1.2457-.4989,2.4253-2.58,2.6809z"/>
<path d="m684.8765,1882.7991c1.3845-.3875 2.4006-2.3864 1.0883-3.957l-1.1602.2363c1.0143.7475 1.3622,2.0678.0714,3.7201z"/>
<path d="m687.4719,1876.3243c0,.4858-.2636.8797-.5887.8797s-.5887-.3939-.5887-.8797 .2636-.8796.5887-.8796 .5887.3938.5887.8796z" fill="#fff" transform="matrix(.70711,-.70711,.70711,.70711,-1125.4429,1035.1271)"/>
<path d="m679.1711,1868.7339c0,1.3001-1.0539,2.354-2.354,2.354s-2.354-1.0539-2.354-2.354 1.0539-2.354 2.354-2.354 2.354,1.0539 2.354,2.354z" fill="#fff" stroke="#000" stroke-width="1.3283" transform="matrix(.58133,.33698,-.42048,.73119,1076.0683,274.58857)"/>
</g>
</svg>
