<svg viewBox="0 0 512 512" xmlns="http://www.w3.org/2000/svg">

<g transform="matrix(18.68858,0,0,18.68858,-2101.9584,-5366.10985)">
<path d="m127.5405,303.4651-8.7637,2.3482-6.4155-6.4155 2.3482-8.7637 8.7637-2.3482 6.4155,6.4155z" fill="#fff" transform="matrix(-1.469,-7.2411444e-4,-7.2395561e-4,-1.46649,304.17383,736.48312)"/>
<g stroke="#000" stroke-width=".8889" transform="matrix(1.125,0,0,1.125,-15.67184,-37.51974)">
<path d="m127.5405,303.4651-8.7637,2.3482-6.4155-6.4155 2.3482-8.7637 8.7637-2.3482 6.4155,6.4155z" fill="none" stroke="#000" stroke-width="1.1406" transform="matrix(-.77841,5.2050882e-4,5.2060934e-4,-.78021,219.75872,531.84022)"/>
<path d="m138.1023,297.7095-5.7845.5322" fill="none" stroke="#000" stroke-width=".8889"/>
<path d="m118.7979,302.0745-4.7372,1.8875" fill="none" stroke="#000" stroke-width=".8889"/>
<path d="m122.8178,312.8906 1.0771-6.025" fill="none" stroke="#000" stroke-width=".8889"/>
<path d="m130.5502,305.0892 4.1783,4.2092" fill="none" stroke="#000" stroke-width=".8889"/>
<path d="m127.6595,293.5681 1.6689-4.7246" fill="none" stroke="#000" stroke-width=".8889"/>
<path d="m117.2679,291.9927 3.6446,3.193" fill="none" stroke="#000" stroke-width=".8889"/>
</g>
<path d="m127.2604,294.0998-6.091,1.641-.5284,2.0025c5.1734-5.2171 13.4323,1.7651 7.0366,7.5372l2.3919-.6397 1.6131-6.091-4.4222-4.45z"/>
<path d="m134.5912,298.9862 3.2068-.2486-1.5661,6.2148c.36-3.6854-.002-4.8613-1.6407-5.9662z" fill-rule="evenodd"/>
<path d="m133.9489,296.8846 3.1476-.4037-6.6083-6.603c1.7326,2.1327 4.3274,5.8634 3.4606,7.0068z" fill-rule="evenodd"/>
<path d="m127.2965,290.8957 .4596-1.8006-6.2148,1.5661c3.7205-.6765 5.7402-.5957 5.7553.2345z" fill-rule="evenodd"/>
<path d="m132.1094,308.6028 1.2983,1.3296-6.1653,1.7511c3.279-1.415 4.4604-2.0027 4.867-3.0807z" fill-rule="evenodd"/>
<path d="m117.942,303.9382 4.1812,4.4111-.3987,3.2845c-.2798-2.3846-1.5166-4.5979-3.7825-7.6956z" fill-rule="evenodd"/>
<path d="m116.9224,301.3064 1.6133-6.3653-1.7564-1.6323c1.5691,1.8808.7742,7.2085-1.945,8.8428" fill-rule="evenodd"/>
</g>
</svg>
