<svg viewBox="0 0 512 512" xmlns="http://www.w3.org/2000/svg">

<g transform="matrix(18.68858,0,0,18.68858,-2101.9584,-5366.10985)">
<path d="m 127.54 303.465 -8.7637 2.3482 -6.4155 -6.4155 2.3482 -8.7637 8.7637 -2.3482 6.4155 6.4155 z" fill="#fff" transform="matrix(-1.469,-7.2411444e-4,-7.2395561e-4,-1.46649,304.17383,736.48312)"/>
<g stroke="#000" stroke-width=".8889" transform="matrix(1.125,0,0,1.125,-15.67184,-37.51974)">
<path d="m 127.54 303.465 -8.7637 2.3482 -6.4155 -6.4155 2.3482 -8.7637 8.7637 -2.3482 6.4155 6.4155 z" fill="none" stroke="#000" stroke-width="1.1406" transform="matrix(-.77841,5.2050882e-4,5.2060934e-4,-.78021,219.75872,531.84022)"/>
<path d="m 138.102 297.709 -5.7845 0.5322" fill="none" stroke="#000" stroke-width=".8889"/>
<path d="m 118.798 302.075 -4.7372 1.8875" fill="none" stroke="#000" stroke-width=".8889"/>
<path d="m 122.818 312.891 1.0771 -6.025" fill="none" stroke="#000" stroke-width=".8889"/>
<path d="m 130.55 305.089 4.1783 4.2092" fill="none" stroke="#000" stroke-width=".8889"/>
<path d="m 127.659 293.568 1.6689 -4.7246" fill="none" stroke="#000" stroke-width=".8889"/>
<path d="m 117.268 291.993 3.6446 3.193" fill="none" stroke="#000" stroke-width=".8889"/>
</g>
<path d="m 127.26 294.1 -6.091 1.641 -0.5284 2.0025 c 5.1734 -5.2171 13.4323 1.7651 7.0366 7.5372 l 2.3919 -0.6397 1.6131 -6.091 -4.4222 -4.45 z"/>
<path d="m 134.591 298.986 3.2068 -0.2486 -1.5661 6.2148 c 0.36 -3.6854 -0.002 -4.8613 -1.6407 -5.9662 z" fill-rule="evenodd"/>
<path d="m 133.949 296.885 3.1476 -0.4037 -6.6083 -6.603 c 1.7326 2.1327 4.3274 5.8634 3.4606 7.0068 z" fill-rule="evenodd"/>
<path d="m 127.296 290.896 0.4596 -1.8006 -6.2148 1.5661 c 3.7205 -0.6765 5.7402 -0.5957 5.7553 0.2345 z" fill-rule="evenodd"/>
<path d="m 132.109 308.603 1.2983 1.3296 -6.1653 1.7511 c 3.279 -1.415 4.4604 -2.0027 4.867 -3.0807 z" fill-rule="evenodd"/>
<path d="m 117.942 303.938 4.1812 4.4111 -0.3987 3.2845 c -0.2798 -2.3846 -1.5166 -4.5979 -3.7825 -7.6956 z" fill-rule="evenodd"/>
<path d="m 116.922 301.306 1.6133 -6.3653 -1.7564 -1.6323 c 1.5691 1.8808 0.7742 7.2085 -1.945 8.8428" fill-rule="evenodd"/>
</g>
</svg>
