<svg viewBox="0 0 512 512" xmlns="http://www.w3.org/2000/svg">

<g transform="matrix(18.68858,0,0,18.68858,-7716.20351,-21807.43408)">
<path d="m 434.233 1189.45 -10.9001 1.771 c -0.8764 -5.4052 0.8539 -10.1891 3.8623 -10.678 s 6.1613 3.5016 7.0377 8.907 z" fill="#fff" stroke="#000"/>
<path d="m 418.629 1170.58 3.5996 22.2007" fill="none" stroke="#fff"/>
<path d="m 435.658 1190.14 -3.4679 -21.3887" fill="none" stroke="#fff"/>
<path d="m 431.051 1169.82 -10.9001 1.7712 c 0.8764 5.4052 4.0293 9.3956 7.0377 8.9068 s 4.7387 -5.2728 3.8623 -10.678 z" fill="#fff" stroke="#000"/>
<path d="m 223.745 1221.96 h 17.9028 v 2.243 h -17.9028 z" fill="#f9f9f9" stroke="#000" transform="matrix(.98705,-.16038,.16005,.98711,0,0)"/>
<path d="m 223.745 1243.42 h 17.9028 v 2.243 h -17.9028 z" fill="#f9f9f9" stroke="#000" transform="matrix(.98705,-.16038,.16005,.98711,0,0)"/>
<path d="m 421.274 1180.75 c 0 0.9395 -0.7616 1.7011 -1.7011 1.7011 s -1.7011 -0.7616 -1.7011 -1.7011 0.7616 -1.7011 1.7011 -1.7011 1.7011 0.7616 1.7011 1.7011 z" fill="#f9f9f9" transform="matrix(.6925,-.11252,.11233,.69282,10.32487,406.0976)"/>
<path d="m 421.274 1180.75 c 0 0.9395 -0.7616 1.7011 -1.7011 1.7011 s -1.7011 -0.7616 -1.7011 -1.7011 0.7616 -1.7011 1.7011 -1.7011 1.7011 0.7616 1.7011 1.7011 z" fill="#f9f9f9" transform="matrix(.6925,-.11252,.11233,.69282,11.13208,411.10233)"/>
<path d="m 421.274 1180.75 c 0 0.9395 -0.7616 1.7011 -1.7011 1.7011 s -1.7011 -0.7616 -1.7011 -1.7011 0.7616 -1.7011 1.7011 -1.7011 1.7011 0.7616 1.7011 1.7011 z" fill="#f9f9f9" transform="matrix(.6925,-.11252,.11233,.69282,-3.1556,408.30398)"/>
<path d="m 421.274 1180.75 c 0 0.9395 -0.7616 1.7011 -1.7011 1.7011 s -1.7011 -0.7616 -1.7011 -1.7011 0.7616 -1.7011 1.7011 -1.7011 1.7011 0.7616 1.7011 1.7011 z" fill="#f9f9f9" transform="matrix(.6925,-.11252,.11233,.69282,-2.34839,413.30871)"/>
<path d="m 421.274 1180.75 c 0 0.9395 -0.7616 1.7011 -1.7011 1.7011 s -1.7011 -0.7616 -1.7011 -1.7011 0.7616 -1.7011 1.7011 -1.7011 1.7011 0.7616 1.7011 1.7011 z" fill="#f9f9f9" stroke="#000" stroke-width=".9114" transform="matrix(1.08279,-.17594,.17564,1.08329,-227.77874,-25.83856)"/>
<path d="m 421.274 1180.75 c 0 0.9395 -0.7616 1.7011 -1.7011 1.7011 s -1.7011 -0.7616 -1.7011 -1.7011 0.7616 -1.7011 1.7011 -1.7011 1.7011 0.7616 1.7011 1.7011 z" fill="#f9f9f9" stroke="#000" stroke-width=".9114" transform="matrix(1.08279,-.17594,.17564,1.08329,-241.25974,-23.64807)"/>
</g>
</svg>
