<svg viewBox="0 0 512 512" xmlns="http://www.w3.org/2000/svg">

<g transform="matrix(18.68858,0,0,18.68858,-7716.20351,-21807.43408)">
<path d="m434.2328,1189.4509-10.9001,1.771c-.8764-5.4052.8539-10.1891 3.8623-10.678s6.1613,3.5016 7.0377,8.907z" fill="#fff" stroke="#000"/>
<path d="m418.6288,1170.577 3.5996,22.2007" fill="none" stroke="#fff"/>
<path d="m435.6576,1190.1441-3.4679-21.3887" fill="none" stroke="#fff"/>
<path d="m431.0507,1169.8248-10.9001,1.7712c.8764,5.4052 4.0293,9.3956 7.0377,8.9068s4.7387-5.2728 3.8623-10.678z" fill="#fff" stroke="#000"/>
<path d="m223.7446,1221.9641h17.9028v2.243h-17.9028z" fill="#f9f9f9" stroke="#000" transform="matrix(.98705,-.16038,.16005,.98711,0,0)"/>
<path d="m223.7446,1243.4229h17.9028v2.243h-17.9028z" fill="#f9f9f9" stroke="#000" transform="matrix(.98705,-.16038,.16005,.98711,0,0)"/>
<path d="m421.2739,1180.7533c0,.9395-.7616,1.7011-1.7011,1.7011s-1.7011-.7616-1.7011-1.7011 .7616-1.7011 1.7011-1.7011 1.7011.7616 1.7011,1.7011z" fill="#f9f9f9" transform="matrix(.6925,-.11252,.11233,.69282,10.32487,406.0976)"/>
<path d="m421.2739,1180.7533c0,.9395-.7616,1.7011-1.7011,1.7011s-1.7011-.7616-1.7011-1.7011 .7616-1.7011 1.7011-1.7011 1.7011.7616 1.7011,1.7011z" fill="#f9f9f9" transform="matrix(.6925,-.11252,.11233,.69282,11.13208,411.10233)"/>
<path d="m421.2739,1180.7533c0,.9395-.7616,1.7011-1.7011,1.7011s-1.7011-.7616-1.7011-1.7011 .7616-1.7011 1.7011-1.7011 1.7011.7616 1.7011,1.7011z" fill="#f9f9f9" transform="matrix(.6925,-.11252,.11233,.69282,-3.1556,408.30398)"/>
<path d="m421.2739,1180.7533c0,.9395-.7616,1.7011-1.7011,1.7011s-1.7011-.7616-1.7011-1.7011 .7616-1.7011 1.7011-1.7011 1.7011.7616 1.7011,1.7011z" fill="#f9f9f9" transform="matrix(.6925,-.11252,.11233,.69282,-2.34839,413.30871)"/>
<path d="m421.2739,1180.7533c0,.9395-.7616,1.7011-1.7011,1.7011s-1.7011-.7616-1.7011-1.7011 .7616-1.7011 1.7011-1.7011 1.7011.7616 1.7011,1.7011z" fill="#f9f9f9" stroke="#000" stroke-width=".9114" transform="matrix(1.08279,-.17594,.17564,1.08329,-227.77874,-25.83856)"/>
<path d="m421.2739,1180.7533c0,.9395-.7616,1.7011-1.7011,1.7011s-1.7011-.7616-1.7011-1.7011 .7616-1.7011 1.7011-1.7011 1.7011.7616 1.7011,1.7011z" fill="#f9f9f9" stroke="#000" stroke-width=".9114" transform="matrix(1.08279,-.17594,.17564,1.08329,-241.25974,-23.64807)"/>
</g>
</svg>
