<svg viewBox="0 0 512 512" xmlns="http://www.w3.org/2000/svg">

<g transform="matrix(18.68858,0,0,18.68858,-11801.62878,-37447.55567)">
<path d="m642.3504,2015.823-5.8.1975 3.9541,2.5211-5.4975,2.2368 4.4939,1.3285-3.5732,4.1847 5.1677-1.3523 .5991,5.2542 3.4823-4.105 2.5354,4.0723 .9812-3.8976 2.5446,1.3241-.5899-6.5368" fill="#fff"/>
<path d="m651.6031,2017.3018 5.0049-2.2735-3.8675-1.301 3.7702-1.8516-3.0987-1.0749 2.3831-2.7554-4.3286.7683 .3183-3.7811-3.2712,3.1308-1.9929-3.3683-1.1286,3.4495-2.9451-1.9092 .3972,5.3723" fill="#fff"/>
<path d="m632.6875,2004.875v3.3905l5.1868,2.4665-3.1444.9351 20.471,12.4021-2.6995.3888 5.3409,3.7103 .0539-4.4141-3.3876-2.8602 2.9422-.2449-19.2117-12.636 2.5569-.7964-3.8561-2.3417z" fill="#fff"/>
<g transform="matrix(.96593,.25882,-.25882,.96593,544.90251,-96.14662)">
<path d="m643.3442,2007.2985h3.7786v7.0474h-3.7786z" fill="none" stroke="#000"/>
<path d="m641.6287,2008.2698h7.2099v13.4471h-7.2099z" fill="none" stroke="#000"/>
<path d="m643.8348,2007.7938h2.7976v6.1712h-2.7976z" fill="#fff"/>
<path d="m642.6432,2009.2795h5.1808v11.4282h-5.1808z" stroke="#fff"/>
</g>
<path d="m648.5481,2020.9957-3.5017-1.8856 .7273-1.3737-1.6701-.7542 .7004-2.8553 3.4209,1.5893-.9428,1.8047 1.9125.862z" fill="#fff"/>
</g>
</svg>
