<svg viewBox="0 0 512 512" xmlns="http://www.w3.org/2000/svg">

<g transform="matrix(18.68858,0,0,18.68858,-4318.6436,-43573.75423)">
<path d="m247.9048,2353.6811v-3.3719l-3.1303-1.822-3.1303,1.822 2e-05,3.3719" fill="none" stroke="#fff"/>
<path d="m251.4375,2348.9969v-4.0618l-3.3444-1.9491-3.3444,1.9491 2e-05,3.8984" fill="none" stroke="#fff"/>
<path d="m244.738,2348.8335v-3.8984l-3.3444-1.9491-3.3444,1.9491 2e-05,3.8984" fill="none" stroke="#fff"/>
<path d="m248.0605,2343.06v-3.8984l-3.3444-1.9491-3.3444,1.9491 2e-05,3.8984" fill="none" stroke="#fff"/>
<path d="m241.3611,2342.9963v-3.8559l-3.3444-1.9279-3.9992,2.1874c1.359,6.0655 5.0269,12.0385 10.8501,17.5962 5.6656-5.445 9.2379-11.3166 10.5254-17.3889l-4.0318-2.3947-3.3444,1.9279 2e-05,3.8559" fill="none" stroke="#fff"/>
<path d="m244.6836,2337.3332v-3.9026" fill="none" stroke="#fff"/>
<path d="m251.3286,2337.3332v-3.167c-3.8908-1.4916-9.2451-1.4959-13.2899-.1633v3.3303" fill="none" stroke="#fff"/>
<path d="m239.3822,2340.124c0,1.0829-.8779,1.9608-1.9608,1.9608s-1.9608-.8779-1.9608-1.9608 .8779-1.9608 1.9608-1.9608 1.9608.8779 1.9608,1.9608z" fill="#fff" transform="translate(10.73,5.2288)"/>
<path d="m239.3822,2340.124c0,1.0829-.8779,1.9608-1.9608,1.9608s-1.9608-.8779-1.9608-1.9608 .8779-1.9608 1.9608-1.9608 1.9608.8779 1.9608,1.9608z" fill="#fff" transform="translate(4.085,5.2288)"/>
<path d="m239.3822,2340.124c0,1.0829-.8779,1.9608-1.9608,1.9608s-1.9608-.8779-1.9608-1.9608 .8779-1.9608 1.9608-1.9608 1.9608.8779 1.9608,1.9608z" fill="#fff" transform="matrix(.98611,0,0,.98611,13.89601,27.1912)"/>
<path d="m239.3822,2340.124c0,1.0829-.8779,1.9608-1.9608,1.9608s-1.9608-.8779-1.9608-1.9608 .8779-1.9608 1.9608-1.9608 1.9608.8779 1.9608,1.9608z" fill="#fff" transform="matrix(1.06944,0,0,1.06944,-2.21726,-162.86265)"/>
<path d="m239.3822,2340.124c0,1.0829-.8779,1.9608-1.9608,1.9608s-1.9608-.8779-1.9608-1.9608 .8779-1.9608 1.9608-1.9608 1.9608.8779 1.9608,1.9608z" fill="#fff" transform="matrix(.90278,0,0,.90278,30.49014,238.16034)"/>
<path d="m239.3822,2340.124c0,1.0829-.8779,1.9608-1.9608,1.9608s-1.9608-.8779-1.9608-1.9608 .8779-1.9608 1.9608-1.9608 1.9608.8779 1.9608,1.9608z" fill="#fff" transform="matrix(.98611,0,0,.98611,7.19658,27.1912)"/>
<path d="m239.3822,2340.124c0,1.0829-.8779,1.9608-1.9608,1.9608s-1.9608-.8779-1.9608-1.9608 .8779-1.9608 1.9608-1.9608 1.9608.8779 1.9608,1.9608z" fill="#fff" transform="matrix(1.06944,0,0,1.06944,-16.16079,-162.86265)"/>
<path d="m239.3822,2340.124c0,1.0829-.8779,1.9608-1.9608,1.9608s-1.9608-.8779-1.9608-1.9608 .8779-1.9608 1.9608-1.9608 1.9608.8779 1.9608,1.9608z" fill="#fff" transform="matrix(.98611,0,0,.98611,10.65056,31.98428)"/>
</g>
</svg>
