<svg viewBox="0 0 512 512" xmlns="http://www.w3.org/2000/svg">

<g transform="matrix(18.68858,0,0,18.68858,-10446.47499,-38101.76623)">
<path d="m561.6562,2040.5312-.75.75 18.4688,19.7813 4.3125,2.25-2.25-4.3125-19.7812-18.4688z" fill="#fff"/>
<path d="m585.0461,2064.8783-10.9001-1.2454 3.0992-2.3208-6.9603-2.8976 6.2974.7659-4.1589-3.2874 3.5745.7222 .007-1.2334-.8952-4.7401 3.4114,4.8893 .1002-5.9124 2.7229,7.2354 2.4476-3.1188z" fill="#fff"/>
<path d="m563.4747,2039.7268 .6612,3.9415-3.9761-.6265 2.8197,4.0725 4.2854-.3171 .3172-4.2855z" fill="#fff"/>
<path d="m569.9934,2043.2708 4.9747,6.1661 1.9519-.05-.7939-1.8832z" fill="#fff"/>
<path d="m561.2247,2050.1637 8.8537,10.1805 .4458,1.9436-2.964-1.0575z" fill="#fff"/>
<path d="m566.1538,2051.3988 4.1293,3.2198 .922,2.2292-2.5458-1.0018z" fill="#fff"/>
<path d="m573.3311,2042.5854 8.7337,5.8146 .5513,3.3411-1.6485-.8007z" fill="#fff"/>
<path d="m584.6692,2064.4614-10.6451-3.3104 5.2564-2.0785 2.0784-5.2563z" stroke="#fff"/>
</g>
</svg>
