<svg viewBox="0 0 512 512" xmlns="http://www.w3.org/2000/svg">

<g transform="matrix(18.68858,0,0,18.68858,-10446.47499,-38101.76623)">
<path d="m 561.656 2040.53 -0.75 0.75 18.4688 19.7813 4.3125 2.25 -2.25 -4.3125 -19.7812 -18.4688 z" fill="#fff"/>
<path d="m 585.046 2064.88 -10.9001 -1.2454 3.0992 -2.3208 -6.9603 -2.8976 6.2974 0.7659 -4.1589 -3.2874 3.5745 0.7222 0.007 -1.2334 -0.8952 -4.7401 3.4114 4.8893 0.1002 -5.9124 2.7229 7.2354 2.4476 -3.1188 z" fill="#fff"/>
<path d="m 563.475 2039.73 0.6612 3.9415 -3.9761 -0.6265 2.8197 4.0725 4.2854 -0.3171 0.3172 -4.2855 z" fill="#fff"/>
<path d="m 569.993 2043.27 4.9747 6.1661 1.9519 -0.05 -0.7939 -1.8832 z" fill="#fff"/>
<path d="m 561.225 2050.16 8.8537 10.1805 0.4458 1.9436 -2.964 -1.0575 z" fill="#fff"/>
<path d="m 566.154 2051.4 4.1293 3.2198 0.922 2.2292 -2.5458 -1.0018 z" fill="#fff"/>
<path d="m 573.331 2042.59 8.7337 5.8146 0.5513 3.3411 -1.6485 -0.8007 z" fill="#fff"/>
<path d="m 584.669 2064.46 -10.6451 -3.3104 5.2564 -2.0785 2.0784 -5.2563 z" stroke="#fff"/>
</g>
</svg>
