<svg viewBox="0 0 512 512" xmlns="http://www.w3.org/2000/svg">

<g transform="matrix(18.68858,0,0,18.68858,-11801.62878,-37447.55567)">
<path d="m 642.35 2015.82 -5.8 0.1975 3.9541 2.5211 -5.4975 2.2368 4.4939 1.3285 -3.5732 4.1847 5.1677 -1.3523 0.5991 5.2542 3.4823 -4.105 2.5354 4.0723 0.9812 -3.8976 2.5446 1.3241 -0.5899 -6.5368" fill="#fff"/>
<path d="m 651.603 2017.3 5.0049 -2.2735 -3.8675 -1.301 3.7702 -1.8516 -3.0987 -1.0749 2.3831 -2.7554 -4.3286 0.7683 0.3183 -3.7811 -3.2712 3.1308 -1.9929 -3.3683 -1.1286 3.4495 -2.9451 -1.9092 0.3972 5.3723" fill="#fff"/>
<path d="m 632.688 2004.88 v 3.3905 l 5.1868 2.4665 -3.1444 0.9351 20.471 12.4021 -2.6995 0.3888 5.3409 3.7103 0.0539 -4.4141 -3.3876 -2.8602 2.9422 -0.2449 -19.2117 -12.636 2.5569 -0.7964 -3.8561 -2.3417 z" fill="#fff"/>
<g transform="matrix(.96593,.25882,-.25882,.96593,544.90251,-96.14662)">
<path d="m 643.344 2007.3 h 3.7786 v 7.0474 h -3.7786 z" fill="none" stroke="#000"/>
<path d="m 641.629 2008.27 h 7.2099 v 13.4471 h -7.2099 z" fill="none" stroke="#000"/>
<path d="m 643.835 2007.79 h 2.7976 v 6.1712 h -2.7976 z" fill="#fff"/>
<path d="m 642.643 2009.28 h 5.1808 v 11.4282 h -5.1808 z" stroke="#fff"/>
</g>
<path d="m 648.548 2021 -3.5017 -1.8856 0.7273 -1.3737 -1.6701 -0.7542 0.7004 -2.8553 3.4209 1.5893 -0.9428 1.8047 1.9125 0.862 z" fill="#fff"/>
</g>
</svg>
