<svg viewBox="0 0 512 512" xmlns="http://www.w3.org/2000/svg">

<g transform="matrix(18.68858,0,0,18.68858,-13169.72142,-42865.8981)">
<path d="m708.209,2312.7011c6.7342-6.7354 14.1022-12.5139 22.7735-17.8607-4.785,8.7593-11.0765,15.9918-17.8596,22.7739z" fill="#fff"/>
<path d="m706.8593,2313.8355c2.3641-2.366 5.4989-3.8462 9.6906-4.5769-.3102,4.446-2.194,7.3091-4.5759,9.6919z"/>
<path d="m723.1389,2302.869c-5.2919,1.7754-9.5198,6.0215-11.3072,11.3066 5.2504-1.7941 9.5357-6.0495 11.3072-11.3066z"/>
<path d="m711.7919,2312.2002c-1.6334,2.8276-3.8059,4.6721-6.1773,6.1784-.2616,1.5138.5233,2.0913 1.8595,1.8502 1.6371-2.7659 3.6761-4.7114 6.1775-6.1784 0-1.0466-.6616-1.8689-1.8595-1.8689z" fill="#fff"/>
</g>
</svg>
