<svg viewBox="0 0 512 512" xmlns="http://www.w3.org/2000/svg">

<g transform="matrix(18.68858,0,0,18.68858,-5675.01605,-25865.26737)">
<path d="m315.0082,1384.4788c-.9994-.033-1.9229.322-2.8438,1.125 .4603,4.5214 1.2113,8.8764 2.4688,12.9375-2.4987-3.0729-3.8729-6.4242-5.5312-9.7812-1.3883-.3947-3.6166.693-3.8438,2.25 1.8297,3.8496 4.188,7.9254 6.6562,11.4062-4.277-1.9306-8.3104-2.6496-7.6562,2.0938 4.3504.9905 6.714,3.1395 8.4062,4.5937 .7204.6191 1.4495,1.2182 2.375,1.7188h6.875c1.8359-.7628 3.312-2.0589 3.6562-3.75 .2426-1.1915.8555-3.2838 1.1562-4.5625 .9343-3.9731 3.7022-9.9265 3.8125-9.8125-.4626-1.536-2.1781-2.7279-3.5-2.25-1.4351,2.549-2.7419,5.2205-3.5625,8.4687-.4265-4.5415.1384-8.7407 1.3125-12.7187-.8619-1.3985-3.2854-1.8634-4.3438-.9688-1.1231,4.2733-1.7308,8.6382-1.4375,13.1563-1.2165-4.4935-1.9829-8.962-2.125-13.4375-.6693-.2771-1.2753-.4491-1.875-.4688z" fill="#fff" stroke="#000"/>
<path d="m314.075,1405.5237c-1.6451-2.1905-2.7225-4.6967-5.3951-6.1477" fill="none" stroke="#000"/>
<path d="m326.3714,1398.8537c-4.4209,2.5698-10.6201,2.2451-15.3768-1.4682 5.3149-.3907 10.7933-1.5418 15.3768,1.4682z" fill="#fff" fill-rule="evenodd"/>
<path d="m319.1347,1391.6389 4.576.4816c1.4316.1815 1.3006,2.8694-.3064,2.6563l-4.576-.4816c-1.289-.1465-1.2072-2.828.3064-2.6563z" fill="#fff" stroke="#000"/>
</g>
</svg>
