<svg viewBox="0 0 512 512" xmlns="http://www.w3.org/2000/svg">

<g transform="matrix(18.68858,0,0,18.68858,-5675.01605,-25865.26737)">
<path d="m 315.008 1384.48 c -0.9994 -0.033 -1.9229 0.322 -2.8438 1.125 0.4603 4.5214 1.2113 8.8764 2.4688 12.9375 -2.4987 -3.0729 -3.8729 -6.4242 -5.5312 -9.7812 -1.3883 -0.3947 -3.6166 0.693 -3.8438 2.25 1.8297 3.8496 4.188 7.9254 6.6562 11.4062 -4.277 -1.9306 -8.3104 -2.6496 -7.6562 2.0938 4.3504 0.9905 6.714 3.1395 8.4062 4.5937 0.7204 0.6191 1.4495 1.2182 2.375 1.7188 h 6.875 c 1.8359 -0.7628 3.312 -2.0589 3.6562 -3.75 0.2426 -1.1915 0.8555 -3.2838 1.1562 -4.5625 0.9343 -3.9731 3.7022 -9.9265 3.8125 -9.8125 -0.4626 -1.536 -2.1781 -2.7279 -3.5 -2.25 -1.4351 2.549 -2.7419 5.2205 -3.5625 8.4687 -0.4265 -4.5415 0.1384 -8.7407 1.3125 -12.7187 -0.8619 -1.3985 -3.2854 -1.8634 -4.3438 -0.9688 -1.1231 4.2733 -1.7308 8.6382 -1.4375 13.1563 -1.2165 -4.4935 -1.9829 -8.962 -2.125 -13.4375 -0.6693 -0.2771 -1.2753 -0.4491 -1.875 -0.4688 z" fill="#fff" stroke="#000"/>
<path d="m 314.075 1405.52 c -1.6451 -2.1905 -2.7225 -4.6967 -5.3951 -6.1477" fill="none" stroke="#000"/>
<path d="m 326.371 1398.85 c -4.4209 2.5698 -10.6201 2.2451 -15.3768 -1.4682 5.3149 -0.3907 10.7933 -1.5418 15.3768 1.4682 z" fill="#fff" fill-rule="evenodd"/>
<path d="m 319.135 1391.64 4.576 0.4816 c 1.4316 0.1815 1.3006 2.8694 -0.3064 2.6563 l -4.576 -0.4816 c -1.289 -0.1465 -1.2072 -2.828 0.3064 -2.6563 z" fill="#fff" stroke="#000"/>
</g>
</svg>
