<svg xmlns="http://www.w3.org/2000/svg" viewBox="0 0 512 512">
<g fill="#fff" fill-rule="evenodd" transform="matrix(18.68858 0 0 18.68858 -7718.37283 -19086.32058)">
<path d="m 413.956 1022.21 v 25.5 h 9.4375 l 6.4688 -7.4062 -7.375 3.375 3.7812 -5.7813 -6.125 3.2188 3.375 -4.7813 -6.3125 3 -2.0312 -3.5312 c 0.5689 -4.0808 2.3441 -7.4878 5.3125 -10.25 l 13.1562 -0.9063 4 1.4063 c 0.9682 -1.0272 1.5424 -2.3834 1.8438 -3.8438 h -25.5312 z"/>
<path d="m 438.7 1024.46 -5.838 10.4111 0.3595 -8.1112 -3.8081 7.5019 0.7787 -7.4128 -3.5572 5.7487 1.6759 -7.2354 -3.9127 5.5298 1.6275 -8.0269 12.6744 1.5948 z"/>
</g>
<g transform="matrix(18.68858 0 0 18.68858 -7718.37283 -19086.32058)">
<path fill="none" stroke="#fff" d="m423.8477,1040.6066c.5352-6.3388 3.4639-10.12 8.1316-15.3848"/>
</g>
</svg>
