<svg xmlns="http://www.w3.org/2000/svg" viewBox="0 0 512 512">
<g fill="#fff" fill-rule="evenodd" transform="matrix(18.68858 0 0 18.68858 -7718.37283 -19086.32058)">
<path d="m413.9558,1022.2058v25.5h9.4375l6.4688-7.4062-7.375,3.375 3.7812-5.7813-6.125,3.2188 3.375-4.7813-6.3125,3-2.0312-3.5312c.5689-4.0808 2.3441-7.4878 5.3125-10.25l13.1562-.9063 4,1.4063c.9682-1.0272 1.5424-2.3834 1.8438-3.8438h-25.5312z"/>
<path d="m438.6997,1024.459-5.838,10.4111 .3595-8.1112-3.8081,7.5019 .7787-7.4128-3.5572,5.7487 1.6759-7.2354-3.9127,5.5298 1.6275-8.0269 12.6744,1.5948z"/>
</g>
<g transform="matrix(18.68858 0 0 18.68858 -7718.37283 -19086.32058)">
<path fill="none" stroke="#fff" d="m423.8477,1040.6066c.5352-6.3388 3.4639-10.12 8.1316-15.3848"/>
</g>
</svg>
