<svg viewBox="0 0 512 512" xmlns="http://www.w3.org/2000/svg">

<g transform="matrix(-24.71877,0,2.46021,24.71877,-3422.98433,-25337.63118)">
<path d="m -55.9058 1033.06 c 1.5025 4.0492 4.3105 6.7377 7.8205 9.3817 3.9853 -0.9806 8.5461 -2.5895 12.3271 -5.6136 -1.7628 -3.5033 -3.9128 -6.7162 -7.3054 -8.9972 -4.8225 0.5782 -9.0611 1.8623 -12.8422 5.2291 z" fill="#fff" fill-rule="evenodd" stroke="#000" stroke-width=".756"/>
<path d="m -55.4828 1033.14 c 4.6431 1.3073 8.6203 1.9938 11.0827 1.9938 0.5935 -1.2289 1.1577 -5.3346 1.2596 -6.9153" fill="none" stroke="#000" stroke-width=".756"/>
<path d="m -43.7268 1033.89 c 2.4768 0.4181 4.9535 1.3379 7.4303 3.0187 m -11.6529 5.4598 c 0.0518 -2.5808 0.3663 -5.1922 1.3829 -7.5921" fill="none" stroke="#000" stroke-width=".756"/>
</g>
</svg>
