<svg viewBox="0 0 512 512" xmlns="http://www.w3.org/2000/svg">

<g transform="matrix(18.68858,0,0,18.68858,-3391.34879,-9135.76018)">
<path d="m 198.188 492.573 c -0.4386 0 -0.8438 0.0183 -0.8438 0.0183 v 7.3775 l 8.1875 10.3438 c 0.2157 0.3705 0.5312 0.9288 0.5312 1.6562 0 1.6473 -1.3555 2.9688 -2.9688 2.9688 h -16.0312 c -1.6133 -8e-05 -2.9688 -1.3461 -2.9688 -2.9688 0 -0.6668 0.2271 -1.2389 0.4688 -1.6562 0 0 5.5175 -7.0519 8.25 -10.5312 v -7.19 l -0.8438 -0.0183 c -0.4386 -2e-05 -0.7812 -0.7138 -0.7812 -1.0669 s 0.3426 -0.9435 0.7812 -0.9435 h 6.2188 c 0.4386 0 0.7812 0.5904 0.7812 0.9435 s -0.3426 1.0669 -0.7812 1.0669 z" stroke="#fff"/>
<path d="m 192.672 497.094 -0.1094 3.0625 -8 11.125 2.25 3.4688 16.625 0.125 2.25 -3.75 -8.1875 -10.9688 0.0312 -3.0625 h -4.8594 z" fill="#fff" fill-rule="evenodd"/>
<path d="m 193.817 495.55 v 4.5081 c -1.8343 2.3407 -8.4037 10.7961 -8.4037 10.7961 -0.1622 0.2807 -0.3146 0.6656 -0.3146 1.1142 -2e-05 1.0916 0.9099 1.9971 1.9928 1.9971 h 15.9987 c 1.0829 1e-05 1.9928 -0.889 1.9928 -1.9971 0 -0.4894 -0.2118 -0.865 -0.3566 -1.1142 l -8.3854 -10.7794 v -4.431" fill="none" stroke="#000"/>
<path d="m 197.68 509.039 c 0 1.1472 -0.93 2.0771 -2.0771 2.0771 s -2.0771 -0.93 -2.0771 -2.0771 0.93 -2.0771 2.0771 -2.0771 2.0771 0.93 2.0771 2.0771 z" fill="#fff" stroke="#000" stroke-width="1.3429" transform="matrix(.74468,0,0,.74468,48.43869,126.47606)"/>
<path d="m 197.68 509.039 c 0 1.1472 -0.93 2.0771 -2.0771 2.0771 s -2.0771 -0.93 -2.0771 -2.0771 0.93 -2.0771 2.0771 -2.0771 2.0771 0.93 2.0771 2.0771 z" fill="#fff" stroke="#000" stroke-width="1.093" transform="matrix(.91489,0,0,.91489,17.08904,44.69248)"/>
<path d="m 197.68 509.039 c 0 1.1472 -0.93 2.0771 -2.0771 2.0771 s -2.0771 -0.93 -2.0771 -2.0771 0.93 -2.0771 2.0771 -2.0771 2.0771 0.93 2.0771 2.0771 z" fill="#fff" stroke="#000" stroke-width="1.3429" transform="matrix(.74468,0,0,.74468,45.21252,130.40934)"/>
<path d="m 192.234 492.577 h 5.1875" fill="none" stroke="#fff"/>
</g>
</svg>
