<svg viewBox="0 0 512 512" xmlns="http://www.w3.org/2000/svg">

<g transform="matrix(18.68858,0,0,18.68858,-3391.34879,-9135.76018)">
<path d="m198.1875,492.5729c-.4386,0-.8438.0183-.8438.0183v7.3775l8.1875,10.3438c.2157.3705.5312.9288.5312,1.6562 0,1.6473-1.3555,2.9688-2.9688,2.9688h-16.0312c-1.6133-8e-05-2.9688-1.3461-2.9688-2.9688 0-.6668.2271-1.2389.4688-1.6562 0,0 5.5175-7.0519 8.25-10.5312v-7.19l-.8438-.0183c-.4386-2e-05-.7812-.7138-.7812-1.0669s.3426-.9435.7812-.9435h6.2188c.4386,0 .7812.5904.7812.9435s-.3426,1.0669-.7812,1.0669z" stroke="#fff"/>
<path d="m192.6719,497.0938-.1094,3.0625-8,11.125 2.25,3.4688 16.625.125 2.25-3.75-8.1875-10.9688 .0312-3.0625h-4.8594z" fill="#fff" fill-rule="evenodd"/>
<path d="m193.8173,495.5497v4.5081c-1.8343,2.3407-8.4037,10.7961-8.4037,10.7961-.1622.2807-.3146.6656-.3146,1.1142-2e-05,1.0916.9099,1.9971 1.9928,1.9971h15.9987c1.0829,1e-05 1.9928-.889 1.9928-1.9971 0-.4894-.2118-.865-.3566-1.1142l-8.3854-10.7794v-4.431" fill="none" stroke="#000"/>
<path d="m197.6805,509.039c0,1.1472-.93,2.0771-2.0771,2.0771s-2.0771-.93-2.0771-2.0771 .93-2.0771 2.0771-2.0771 2.0771.93 2.0771,2.0771z" fill="#fff" stroke="#000" stroke-width="1.3429" transform="matrix(.74468,0,0,.74468,48.43869,126.47606)"/>
<path d="m197.6805,509.039c0,1.1472-.93,2.0771-2.0771,2.0771s-2.0771-.93-2.0771-2.0771 .93-2.0771 2.0771-2.0771 2.0771.93 2.0771,2.0771z" fill="#fff" stroke="#000" stroke-width="1.093" transform="matrix(.91489,0,0,.91489,17.08904,44.69248)"/>
<path d="m197.6805,509.039c0,1.1472-.93,2.0771-2.0771,2.0771s-2.0771-.93-2.0771-2.0771 .93-2.0771 2.0771-2.0771 2.0771.93 2.0771,2.0771z" fill="#fff" stroke="#000" stroke-width="1.3429" transform="matrix(.74468,0,0,.74468,45.21252,130.40934)"/>
<path d="m192.2344,492.577h5.1875" fill="none" stroke="#fff"/>
</g>
</svg>
