<svg viewBox="0 0 512 512" xmlns="http://www.w3.org/2000/svg">

<g transform="matrix(18.68858,0,0,18.68858,-908.63188,-19083.59136)">
<path d="m63.4375,1021.75-1.9062.062c.6867,3.2692 1.0257,6.787 1.1875,10.1563-.0662.7744-.1986,1.5436-.3125,2.3125l-1.6562-1.2183c.5533,2.2817.5064,4.6408.2812,6.9375-2.5391-1.3287-3.8579-2.7865-5.4375-4.9062 1.1697,2.9689 2.0106,5.9372 2.3125,8.9062-1.7224-.8427-3.3589-2.4628-4.9375-4.3125l2.0938,6.1563c-1.2188.2376-2.4374-.2197-3.6562-.6875l1.5312,2.2187h20.8643l1.3045-3.449c-1.0225.5463-3.2015,1.2225-4.5125,1.4803 .7754-2.7129 1.4388-5.1069 2.7009-7.7813-1.2405,1.3621-3.2979,2.7196-4.7321,3.375-.7341-4.434-.7218-9.2684-.2188-13.5937-.7741,2.3053-1.2092,4.1941-2.6875,5.75-.6758-1.1901-1.1721-2.3762-1.5625-3.5625l-.6562-7.8438z" fill="#fff" fill-rule="evenodd"/>
<path d="m56.3028,1034.2551c0,.7647-.6199,1.3845-1.3845,1.3845s-1.3845-.6198-1.3845-1.3845 .6199-1.3845 1.3845-1.3845 1.3845.6199 1.3845,1.3845z" fill="#fff" transform="matrix(-1,0,0,-1,125.55481,2058.14)"/>
<path d="m56.3028,1034.2551c0,.7647-.6199,1.3845-1.3845,1.3845s-1.3845-.6198-1.3845-1.3845 .6199-1.3845 1.3845-1.3845 1.3845.6199 1.3845,1.3845z" fill="#fff" transform="matrix(-.70588,0,0,-.70588,107.96356,1755.0332)"/>
<path d="m52.4001,1021.5176c-1.188,1.3915-2.2904,3.638-3.2098,6.6169m14.6183,12.9888c-1.2164-10.5489-3.4799-16.8206-5.7256-19.5756" fill="none" stroke="#fff"/>
<path d="m67.3983,1046.1847c1.6146-11.9196 5.1781-15.1518 8.0988-12.4732" fill="none" stroke="#fff"/>
<path d="m75.6315,1029.5044v12.3247" fill="none" stroke="#000"/>
<path d="m55.578,1044.415c-2.3891-4.7793-4.5864-7.8209-6.4001-9.8112" fill="none" stroke="#fff"/>
<path d="m56.3028,1034.2551c0,.7647-.6199,1.3845-1.3845,1.3845s-1.3845-.6198-1.3845-1.3845 .6199-1.3845 1.3845-1.3845 1.3845.6199 1.3845,1.3845z" fill="#fff" transform="matrix(-.70588,0,0,-.70588,92.07406,1763.2612)"/>
<path d="m56.3028,1034.2551c0,.7647-.6199,1.3845-1.3845,1.3845s-1.3845-.6198-1.3845-1.3845 .6199-1.3845 1.3845-1.3845 1.3845.6199 1.3845,1.3845z" fill="#fff" transform="matrix(-.70588,0,0,-.70588,111.65555,1758.3452)"/>
<path d="m56.3028,1034.2551c0,.7647-.6199,1.3845-1.3845,1.3845s-1.3845-.6198-1.3845-1.3845 .6199-1.3845 1.3845-1.3845 1.3845.6199 1.3845,1.3845z" fill="#fff" transform="matrix(-1.11765,0,0,-1.11765,118.22512,2185.2194)"/>
<path d="m56.3028,1034.2551c0,.7647-.6199,1.3845-1.3845,1.3845s-1.3845-.6198-1.3845-1.3845 .6199-1.3845 1.3845-1.3845 1.3845.6199 1.3845,1.3845z" fill="#fff" transform="matrix(-.70588,0,0,-.70588,98.08097,1768.2965)"/>
<path d="m56.3028,1034.2551c0,.7647-.6199,1.3845-1.3845,1.3845s-1.3845-.6198-1.3845-1.3845 .6199-1.3845 1.3845-1.3845 1.3845.6199 1.3845,1.3845z" fill="#fff" transform="matrix(-.70588,0,0,-.70588,92.89809,1754.2452)"/>
<path d="m56.3028,1034.2551c0,.7647-.6199,1.3845-1.3845,1.3845s-1.3845-.6198-1.3845-1.3845 .6199-1.3845 1.3845-1.3845 1.3845.6199 1.3845,1.3845z" fill="#fff" transform="matrix(-.87226,0,0,-.87226,112.61887,1931.0837)"/>
<path d="m49.1903,1038.2051v-16.5597h17.1569" fill="none" stroke="#000"/>
</g>
</svg>
