<svg viewBox="0 0 512 512" xmlns="http://www.w3.org/2000/svg">

<g transform="matrix(18.68858,0,0,18.68858,-11122.49436,-30619.8527)">
<g transform="translate(218.4988,72.6548)">
<path d="m390.7464,1566.8009c1.6048.2086 2.8577,1.9547 2.8577,4.0623-1e-05,1.1671-.3998,2.2093-1.0155,2.952 3.3374.628 4.5724,5.4692 3.5898,10.2026h-2.3145l-.614,8.2425h-5.8807l-.5432-8.2425h-2.1964c-.8667-4.6093-.0795-9.6844 3.5662-10.2498-.5893-.7393-.9683-1.7665-.9683-2.9048 1e-05-2.248 1.4309-4.0623 3.1883-4.0623 .1097,0 .2236-.016.3306,0z" fill="#fff" fill-rule="evenodd"/>
<path d="m386.4103,1586.0768-.0756-7.7005" fill="none" stroke="#000"/>
<path d="m394.3466,1586.0768 .0756-7.7005" fill="none" stroke="#000"/>
<path d="m390.3784,1592.6905v-9.8259" fill="none" stroke="#000"/>
</g>
<path d="m608.8782,1646.5159-4e-05,7.551" fill="none" stroke="#000"/>
<path d="m574.5965,1645.2133c0,1.4908-.8536,2.6995-1.9066,2.6995s-1.9066-1.2087-1.9066-2.6995 .8536-2.6995 1.9066-2.6995 1.9066,1.2086 1.9066,2.6995z" stroke="#fff" stroke-width=".8973" transform="matrix(1.18396,0,0,1.04895,-69.12851,-81.32777)"/>
<path d="m606.6506,1643.873h4.6817" fill="none" stroke="#fff"/>
<path d="m604.9894,1653.9159h7.551" fill="none" stroke="#000"/>
<path d="m604.9894,1660.1097h7.551" fill="none" stroke="#000"/>
<path d="m604.9894,1663.2599h7.551" fill="none" stroke="#000"/>
<path d="m604.121,1656.4833c0,.7923-.6423,1.4347-1.4347,1.4347s-1.4347-.6424-1.4347-1.4347 .6423-1.4347 1.4347-1.4347 1.4347.6423 1.4347,1.4347z" fill="#fff" stroke="#000" transform="translate(11.6097,-.4342)"/>
<path d="m604.121,1656.4833c0,.7923-.6423,1.4347-1.4347,1.4347s-1.4347-.6424-1.4347-1.4347 .6423-1.4347 1.4347-1.4347 1.4347.6423 1.4347,1.4347z" fill="#fff" stroke="#000" transform="translate(.7551,-.4342)"/>
<path d="m601.0765,1655.5937-4.2861,1.1485" fill="none" stroke="#fff"/>
<path d="m599.5077,1654.0249-1.1484,4.2861" fill="none" stroke="#fff"/>
<path d="m597.3647,1654.5991 3.1376,3.1376" fill="none" stroke="#fff"/>
<path d="m621.3095,1653.2063-4.2861-1.1483" fill="none" stroke="#fff"/>
<path d="m620.7353,1651.0633-3.1377,3.1377" fill="none" stroke="#fff"/>
<path d="m618.5923,1650.4891 1.1485,4.2861" fill="none" stroke="#fff"/>
<path d="m603.0177,1644.3191-6.0983,1.6338" fill="none" stroke="#fff"/>
<path d="m602.2006,1647.3682-4.4643-4.4644" fill="none" stroke="#fff"/>
<path d="m599.1515,1648.1852 1.6341-6.0984" fill="none" stroke="#fff"/>
<path d="m615.1975,1642.6188 4.2861-1.1483" fill="none" stroke="#fff"/>
<path d="m615.7717,1640.4758 3.1377,3.1377" fill="none" stroke="#fff"/>
<path d="m617.9148,1639.9016-1.1485,4.2861" fill="none" stroke="#fff"/>
<path d="m617.988,1663.6777-3.9258-3.7546" fill="none" stroke="#fff"/>
<path d="m618.6324,1661.0392-5.2147,1.5225" fill="none" stroke="#fff"/>
<path d="m616.6696,1659.1619-1.2889,5.2771" fill="none" stroke="#fff"/>
</g>
</svg>
