<svg viewBox="0 0 512 512" xmlns="http://www.w3.org/2000/svg">

<g transform="matrix(18.68858,0,0,18.68858,-11122.49436,-30619.8527)">
<g transform="translate(218.4988,72.6548)">
<path d="m 390.746 1566.8 c 1.6048 0.2086 2.8577 1.9547 2.8577 4.0623 -1e-05 1.1671 -0.3998 2.2093 -1.0155 2.952 3.3374 0.628 4.5724 5.4692 3.5898 10.2026 h -2.3145 l -0.614 8.2425 h -5.8807 l -0.5432 -8.2425 h -2.1964 c -0.8667 -4.6093 -0.0795 -9.6844 3.5662 -10.2498 -0.5893 -0.7393 -0.9683 -1.7665 -0.9683 -2.9048 1e-05 -2.248 1.4309 -4.0623 3.1883 -4.0623 0.1097 0 0.2236 -0.016 0.3306 0 z" fill="#fff" fill-rule="evenodd"/>
<path d="m 386.41 1586.08 -0.0756 -7.7005" fill="none" stroke="#000"/>
<path d="m 394.347 1586.08 0.0756 -7.7005" fill="none" stroke="#000"/>
<path d="m 390.378 1592.69 v -9.8259" fill="none" stroke="#000"/>
</g>
<path d="m 608.878 1646.52 -4e-05 7.551" fill="none" stroke="#000"/>
<path d="m 574.596 1645.21 c 0 1.4908 -0.8536 2.6995 -1.9066 2.6995 s -1.9066 -1.2087 -1.9066 -2.6995 0.8536 -2.6995 1.9066 -2.6995 1.9066 1.2086 1.9066 2.6995 z" stroke="#fff" stroke-width=".8973" transform="matrix(1.18396,0,0,1.04895,-69.12851,-81.32777)"/>
<path d="m 606.651 1643.87 h 4.6817" fill="none" stroke="#fff"/>
<path d="m 604.989 1653.92 h 7.551" fill="none" stroke="#000"/>
<path d="m 604.989 1660.11 h 7.551" fill="none" stroke="#000"/>
<path d="m 604.989 1663.26 h 7.551" fill="none" stroke="#000"/>
<path d="m 604.121 1656.48 c 0 0.7923 -0.6423 1.4347 -1.4347 1.4347 s -1.4347 -0.6424 -1.4347 -1.4347 0.6423 -1.4347 1.4347 -1.4347 1.4347 0.6423 1.4347 1.4347 z" fill="#fff" stroke="#000" transform="translate(11.6097,-.4342)"/>
<path d="m 604.121 1656.48 c 0 0.7923 -0.6423 1.4347 -1.4347 1.4347 s -1.4347 -0.6424 -1.4347 -1.4347 0.6423 -1.4347 1.4347 -1.4347 1.4347 0.6423 1.4347 1.4347 z" fill="#fff" stroke="#000" transform="translate(.7551,-.4342)"/>
<path d="m 601.077 1655.59 -4.2861 1.1485" fill="none" stroke="#fff"/>
<path d="m 599.508 1654.02 -1.1484 4.2861" fill="none" stroke="#fff"/>
<path d="m 597.365 1654.6 3.1376 3.1376" fill="none" stroke="#fff"/>
<path d="m 621.309 1653.21 -4.2861 -1.1483" fill="none" stroke="#fff"/>
<path d="m 620.735 1651.06 -3.1377 3.1377" fill="none" stroke="#fff"/>
<path d="m 618.592 1650.49 1.1485 4.2861" fill="none" stroke="#fff"/>
<path d="m 603.018 1644.32 -6.0983 1.6338" fill="none" stroke="#fff"/>
<path d="m 602.201 1647.37 -4.4643 -4.4644" fill="none" stroke="#fff"/>
<path d="m 599.152 1648.19 1.6341 -6.0984" fill="none" stroke="#fff"/>
<path d="m 615.197 1642.62 4.2861 -1.1483" fill="none" stroke="#fff"/>
<path d="m 615.772 1640.48 3.1377 3.1377" fill="none" stroke="#fff"/>
<path d="m 617.915 1639.9 -1.1485 4.2861" fill="none" stroke="#fff"/>
<path d="m 617.988 1663.68 -3.9258 -3.7546" fill="none" stroke="#fff"/>
<path d="m 618.632 1661.04 -5.2147 1.5225" fill="none" stroke="#fff"/>
<path d="m 616.67 1659.16 -1.2889 5.2771" fill="none" stroke="#fff"/>
</g>
</svg>
