<svg viewBox="0 0 512 512" xmlns="http://www.w3.org/2000/svg">

<g transform="matrix(18.68858,0,0,18.68858,-9080.33461,-32001.29189)">
<path d="m 492.231 1736.15 -4.5492 -17.7657 c -0.2993 -1.2116 1.0833 -4.1542 3.3251 -4.0486 l 14.4007 0.6782 6.4046 16.5724 -16.7438 -0.5464 c -1.6938 0.1825 -2.9474 1.2384 -3.3491 2.524" stroke="#fff"/>
<path d="m 492.668 1737.17 c -1.3979 -1.3588 -0.3193 -4.8486 2.6073 -5.1613 l 16.8142 0.5853 c -1.8308 1.7027 -2.2526 3.4852 -1.6761 5.1879 z" fill="#fff" stroke="#000"/>
<path d="m 495.261 1729.56 -3.9094 -13.6551" fill="none" stroke="#fff"/>
<path d="m 510.881 1733.43 -2.1473 1.2572 2.9724 0.9406"/>
<path d="m 494.641 1716.79 c 1.0567 0.9272 2.0291 2.107 3.3522 2.2348 l -0.8514 0.4789 2.3476 1.0671 -0.4853 0.9016 c -1.8958 -0.1517 -4.1908 -1.3343 -4.3632 -4.6824 z" fill="#fff"/>
<path d="m 504.281 1716.95 c -0.5813 0.9787 -0.995 2.1732 -2.107 2.4685 l 0.5516 0.7408 -1.3274 0.8599 0.7996 0.7405 c 1.605 -0.395 3.1767 -1.7723 2.0831 -4.8097 z" fill="#fff"/>
<path d="m 497.759 1727.39 0.7184 -1.1664 2.4539 3.1606 1.0626 -2.4833 2.2044 2.5208 0.9517 -2.7842 1.077 1.5426 0.4302 -6.5091 -1.7889 3.1606 -0.973 -2.1447 -1.362 2.709 -2.6791 -1.9941 -0.4429 1.8812 -4.1169 -3.1981 z" fill="#fff"/>
</g>
</svg>
