<svg viewBox="0 0 512 512" xmlns="http://www.w3.org/2000/svg">

<g transform="matrix(18.68858,0,0,18.68858,-9077.3487,-36765.92)">
<path d="m486.2841,1967.7955h26.4244v11.4538c-1.8824,1.1824-3.2229,1.3916-4.7179.1127-.8037,1.9175-3.2283,1.8829-4.6549.8894l-7.6994,1.2926c-1.963.08-3.9259.8456-5.8889-1.6866-1.3312,1.7247-3.1928.6799-3.4633-.6081z" fill="#fff" stroke="#000"/>
<path d="m488.9333,1974.0357 5.5999,1.7098 .9407-6.7102 3.2511,5.1659 6.0503-3.6598-1.1027,4.125 6.2268-2.3108c-4.1746,4.8648-8.6442,12.0079-1.649,21.8048h-19.317c6.6964-8.0995 4.5396-14.3595 0-20.1243z" fill="#fff" stroke="#000"/>
<path d="m500.4567,1977.3023-1.8025-3.2751" fill="none" stroke="#000"/>
<path d="m496.5986,1976.4624 2.7698,2.9185-1.1963.5087 1.9733,2.3622-5.0611-1.3447 1.9421-1.8807z"/>
<path d="m505.7193,1977.9404-2.3523,1.431 .7423.7413-2.3287,1.9181 3.6681.221"/>
<path d="m502.9927,1984.3507-.9129,2.2661-.8453-2.0588-1.1272,3.3846-.8728-3.4225-1.2942,3.2961-.7683-4.6601-2.3415,9.4079 2.334-2.3975 .3535,2.4248 1.9344-2.8039 1.3706.3603 .779,2.4248 2.2955-2.6713 .101,2.4455 1.6963-3.0266-.8486-2.5332-1.7222.073z"/>
<path d="m494.3343,1978.0731 .213-2.5078" fill="none" stroke="#000"/>
<path d="m502.5471,1976.227 1.1571-1.6592" fill="none" stroke="#000"/>
<path d="m495.7923,1970.0763c-.1105-.1989-.5745-2.3644-.5745-2.3644" fill="none" stroke="#000"/>
</g>
</svg>
