<svg viewBox="0 0 512 512" xmlns="http://www.w3.org/2000/svg">

<g transform="matrix(18.68858,0,0,18.68858,-9077.3487,-36765.92)">
<path d="m 486.284 1967.8 h 26.4244 v 11.4538 c -1.8824 1.1824 -3.2229 1.3916 -4.7179 0.1127 -0.8037 1.9175 -3.2283 1.8829 -4.6549 0.8894 l -7.6994 1.2926 c -1.963 0.08 -3.9259 0.8456 -5.8889 -1.6866 -1.3312 1.7247 -3.1928 0.6799 -3.4633 -0.6081 z" fill="#fff" stroke="#000"/>
<path d="m 488.933 1974.04 5.5999 1.7098 0.9407 -6.7102 3.2511 5.1659 6.0503 -3.6598 -1.1027 4.125 6.2268 -2.3108 c -4.1746 4.8648 -8.6442 12.0079 -1.649 21.8048 h -19.317 c 6.6964 -8.0995 4.5396 -14.3595 0 -20.1243 z" fill="#fff" stroke="#000"/>
<path d="m 500.457 1977.3 -1.8025 -3.2751" fill="none" stroke="#000"/>
<path d="m 496.599 1976.46 2.7698 2.9185 -1.1963 0.5087 1.9733 2.3622 -5.0611 -1.3447 1.9421 -1.8807 z"/>
<path d="m 505.719 1977.94 -2.3523 1.431 0.7423 0.7413 -2.3287 1.9181 3.6681 0.221"/>
<path d="m 502.993 1984.35 -0.9129 2.2661 -0.8453 -2.0588 -1.1272 3.3846 -0.8728 -3.4225 -1.2942 3.2961 -0.7683 -4.6601 -2.3415 9.4079 2.334 -2.3975 0.3535 2.4248 1.9344 -2.8039 1.3706 0.3603 0.779 2.4248 2.2955 -2.6713 0.101 2.4455 1.6963 -3.0266 -0.8486 -2.5332 -1.7222 0.073 z"/>
<path d="m 494.334 1978.07 0.213 -2.5078" fill="none" stroke="#000"/>
<path d="m 502.547 1976.23 1.1571 -1.6592" fill="none" stroke="#000"/>
<path d="m 495.792 1970.08 c -0.1105 -0.1989 -0.5745 -2.3644 -0.5745 -2.3644" fill="none" stroke="#000"/>
</g>
</svg>
