<svg xmlns="http://www.w3.org/2000/svg" viewBox="0 0 512 512">
<g transform="matrix(15.00001 0 0 15.00001 -2144.002 -4904.0106)">
<use width="744.094" height="1052.362" transform="translate(180 324)"/>
<path fill="#fff" d="m144.1088,328.0009a.1092,.1092 0 0,0 -.0306,.2139c3.3275,1.1324 5.7768,1.8019 7.4028,2.2978 .813,.2479 1.4212,.4534 1.8227,.6458 .2007,.0962 .3499,.1909 .446,.2791 .0961,.0882 .1374,.1642 .1466,.2424 .009,.0782-.0129,.1701-.0856,.2852-.0727,.1151-.1956,.2488-.3645,.4013-.3379,.305-.8632,.6815-1.5661,1.1591-1.4059,.9553-3.518,2.318-6.2705,4.3715a.1092,.1092 0 0,0 .1181,.1833c2.8473-1.5776 5.0483-2.8694 6.6065-3.6972 .7791-.4139 1.3995-.7116 1.8512-.8698 .2259-.0791 .4103-.124 .5458-.1324 .1354-.008 .2119,.0174 .2546,.057 .0427,.0396 .0705,.1085 .0652,.2404-.005,.1319-.0477,.3177-.1303,.55-.1654,.4647-.4896,1.1204-.9714,1.98-.9638,1.7192-2.5544,4.2588-4.7655,7.7897a.1092,.1092 0 0,0 .1792,.1243c2.4015-3.1263 4.0166-5.5067 5.1178-7.0156 .5506-.7545 .9753-1.2918 1.2932-1.5889 .159-.1486 .2924-.2343 .387-.2628 .0946-.0285 .1428-.0168 .2077,.0448 .1298,.1232 .2628,.5234 .3544,1.1917 .0915,.6683 .1582,1.603 .2342,2.8132 .1519,2.4204 .3401,5.9468 .837,10.6924a.1093,.1093 0 0,0 .2179-.0163c-.3231-10.3273 .3034-16.661 .3034-16.661a.1092,.1092 0 0,0 -.0713-.1141c0,0-.4755-.1617-1.0468-.7231-.5713-.5615-1.2306-1.5173-1.5661-3.1024a.1092,.1092 0 0,0 -.1181-.0856c-3.5831,.4167-6.8788-.0605-11.3721-1.2894a.1092,.1092 0 0,0 -.0326-.004zm31.7782,0a.1092,.1092 0 0,0 -.0285,.004c-4.4933,1.229-7.789,1.7061-11.3721,1.2894a.1092,.1092 0 0,0 -.1181,.0856c-.3355,1.5851-.9948,2.5409-1.5661,3.1024-.5713,.5615-1.0468,.7231-1.0468,.7231a.1092,.1092 0 0,0 -.0713,.1141c0,0 .6265,6.3337 .3034,16.661a.1093,.1093 0 0,0 .2179,.0163c.4969-4.7457 .6851-8.272 .837-10.6924 .076-1.2102 .1427-2.1449 .2342-2.8132 .0915-.6683 .2246-1.0684 .3544-1.1917 .0649-.0616 .1132-.0733 .2077-.0448 .0946,.0285 .228,.1142 .387,.2628 .3179,.2971 .7425,.8344 1.2932,1.5889 1.1013,1.5089 2.7164,3.8893 5.1178,7.0156a.1092,.1092 0 0,0 .1792-.1243c-2.2111-3.5309-3.8018-6.0705-4.7655-7.7897-.4819-.8596-.806-1.5154-.9714-1.98-.0827-.2323-.125-.4181-.1303-.55-.005-.1319 .0225-.2008 .0652-.2404 .0427-.0396 .1191-.0655 .2546-.057 .1354,.008 .3199,.0533 .5458,.1324 .4517,.1582 1.0721,.4559 1.8512,.8698 1.5582,.8279 3.7593,2.1196 6.6065,3.6972a.1092,.1092 0 0,0 .1181-.1833c-2.7525-2.0535-4.8646-3.4162-6.2705-4.3715-.7029-.4776-1.2282-.854-1.5661-1.1591-.169-.1525-.2919-.2862-.3646-.4013-.0727-.1151-.0948-.207-.0856-.2852 .009-.0782 .0505-.1542 .1466-.2424 .0961-.0882 .2453-.1829 .446-.2791 .4015-.1924 1.0097-.3978 1.8227-.6458 1.626-.4958 4.0753-1.1653 7.4028-2.2978a.1092,.1092 0 0,0 -.0346-.2139zm-15.7975,3.3958c-.1701,0-.3347,.0154-.4786,.1141-.1439,.0986-.2494,.2703-.3238,.5419-.1488,.543-.1992,1.5184-.1833,3.353 .0318,3.6692 .3483,10.762 .8391,24.4853a.11,.11 0 0,0 .2199,0c.4544-13.7231 .79-20.8168 .8493-24.4853 .0297-1.8342-.007-2.8084-.1426-3.3509-.0678-.2713-.1648-.4442-.3055-.5439-.1406-.0997-.3044-.1141-.4745-.1141z"/>
</g>
</svg>
