<svg viewBox="0 0 512 512" xmlns="http://www.w3.org/2000/svg">

<g transform="matrix(18.68858,0,0,18.68858,-9080.33461,-32001.29189)">
<path d="m492.2315,1736.1494-4.5492-17.7657c-.2993-1.2116 1.0833-4.1542 3.3251-4.0486l14.4007.6782 6.4046,16.5724-16.7438-.5464c-1.6938.1825-2.9474,1.2384-3.3491,2.524" stroke="#fff"/>
<path d="m492.668,1737.1702c-1.3979-1.3588-.3193-4.8486 2.6073-5.1613l16.8142.5853c-1.8308,1.7027-2.2526,3.4852-1.6761,5.1879z" fill="#fff" stroke="#000"/>
<path d="m495.2612,1729.5563-3.9094-13.6551" fill="none" stroke="#fff"/>
<path d="m510.8807,1733.4325-2.1473,1.2572 2.9724.9406"/>
<path d="m494.6406,1716.7909c1.0567.9272 2.0291,2.107 3.3522,2.2348l-.8514.4789 2.3476,1.0671-.4853.9016c-1.8958-.1517-4.1908-1.3343-4.3632-4.6824z" fill="#fff"/>
<path d="m504.2807,1716.9486c-.5813.9787-.995,2.1732-2.107,2.4685l.5516.7408-1.3274.8599 .7996.7405c1.605-.395 3.1767-1.7723 2.0831-4.8097z" fill="#fff"/>
<path d="m497.7585,1727.3903 .7184-1.1664 2.4539,3.1606 1.0626-2.4833 2.2044,2.5208 .9517-2.7842 1.077,1.5426 .4302-6.5091-1.7889,3.1606-.973-2.1447-1.362,2.709-2.6791-1.9941-.4429,1.8812-4.1169-3.1981z" fill="#fff"/>
</g>
</svg>
