<svg viewBox="0 0 512 512" xmlns="http://www.w3.org/2000/svg">

<g transform="matrix(18.68858,0,0,18.68858,-2278.12851,-45609.51274)">
<path d="m135.5938,2442.0625c-6.762,0-12.25,5.488-12.25,12.25s5.488,12.25 12.25,12.25c5.4696,0 10.0855-3.5817 11.6562-8.5313-1.2864.5987-2.7064.9376-4.2188.9376-5.5472,0-10.0625-4.4841-10.0625-10.0313 0-2.6687 1.0521-5.0762 2.75-6.875h-.125z" fill="#fff"/>
<path d="m139.3921,2457.4807 .8921,3.2894-3.8393-.6681 1.0088,2.7592c-3.0957.3799-5.7887-.8251-6.9808-2.6363l4.351.095-1.262-2.592 3.8763-.4312"/>
<path d="m131.8502,2451.1555 1.9794,4.834c1.8777-1.4483 4.3032-2.4953 6.7794-2.0885-2.7607-3.1576-6.226-3.6647-8.7588-2.7455z" fill="#fff"/>
<path d="m134.057,2454.1101c0,.6164-.4997,1.116-1.116,1.116s-1.116-.4996-1.116-1.116 .4997-1.116 1.116-1.116 1.116.4996 1.116,1.116z" transform="matrix(2.3939,-1.38212,1.38212,2.3939,-3580.7385,-3237.893)"/>
<path d="m131.4192,2454.1101c0,.8405-.6814,1.5218-1.5218,1.5218s-1.5218-.6813-1.5218-1.5218 .6814-1.5218 1.5218-1.5218 1.5218.6813 1.5218,1.5218z" fill="none" stroke="#fff" stroke-width="1.0326" transform="matrix(.96845,0,0,.96845,3.54417,76.5937)"/>
<path d="m149.6977,2455.1687c0,7.1054-5.76,12.8654-12.8654,12.8654s-12.8654-5.76-12.8654-12.8654 5.76-12.8654 12.8654-12.8654 12.8654,5.76 12.8654,12.8654z" fill="none" stroke="#fff" stroke-width="1.0508" transform="matrix(.95167,0,0,.95167,5.37518,117.80121)"/>
</g>
</svg>
