<svg viewBox="0 0 512 512" xmlns="http://www.w3.org/2000/svg">

<g transform="matrix(18.68858,0,0,18.68858,-4994.6112,-27902.44627)">
<path d="m284.2427,1499.7002v6.0782c-2.1277-1.0762-4.2555-1.171-6.3832,0v-6.0782" stroke="#fff"/>
<path d="m281.0599,1497.5358v13.2252c13.9386-3.9617 11.8864,12.1083-.4352,4.804-3.1212-1.8503-7.7028-4.2493-10.8092.136" fill="none" stroke="#fff"/>
<path d="m273.9458,1499.7481h-4.6978l2.3489-4.0684z" fill="#fff" stroke="#fff" stroke-width="2.1527" transform="matrix(.40276,0,0,.53577,168.44332,696.63391)"/>
<path d="m273.9458,1499.7481h-4.6978l2.3489-4.0684z" fill="#fff" stroke="#fff" stroke-width="2.1527" transform="matrix(.40276,0,0,.53577,174.82653,696.63391)"/>
<path d="m273.9458,1499.7481h-4.6978l2.3489-4.0684z" fill="#fff" stroke="#fff" stroke-width="2.1527" transform="matrix(.40276,0,0,.53577,171.63493,694.10441)"/>
<path d="m270.2296,1511.2947c1.0224,2.2408 2.5561,3.7068 4.6539,4.3212-2.6699.7504-4.7289,2.1077-6.4511,3.7997 .0231-2.9931.6919-5.6653 1.7972-8.1209z" fill="#fff"/>
<path d="m274.93,1496.2278c-1.3309.1013-2.6067.9382-3.6878,2.2519-2.3784,2.8904-3.7395,7.9739-2.2519,12.0425-.0215-3.7469 2.6194-5.6484 3.6225-2.0886 .0738-2.6161 2.2175-4.2014 3.6552-2.2846v-3.4267c-1.7128-.5691-2.5156-3.2144-1.3381-6.4945z" fill="#fff" fill-rule="evenodd"/>
<path d="m287.1067,1496.2278c1.3309.1013 2.6067.9382 3.6878,2.2519 2.3784,2.8904 3.7395,7.9739 2.2519,12.0425 .0215-3.7469-2.6194-5.6484-3.6225-2.0886-.0738-2.6161-2.2175-4.2014-3.6552-2.2846v-3.4267c1.7128-.5691 2.5156-3.2144 1.3381-6.4945z" fill="#fff" fill-rule="evenodd"/>
</g>
</svg>
