<svg viewBox="0 0 512 512" xmlns="http://www.w3.org/2000/svg">

<g transform="matrix(18.68858,0,0,18.68858,-4994.6112,-27902.44627)">
<path d="m 284.243 1499.7 v 6.0782 c -2.1277 -1.0762 -4.2555 -1.171 -6.3832 0 v -6.0782" stroke="#fff"/>
<path d="m 281.06 1497.54 v 13.2252 c 13.9386 -3.9617 11.8864 12.1083 -0.4352 4.804 -3.1212 -1.8503 -7.7028 -4.2493 -10.8092 0.136" fill="none" stroke="#fff"/>
<path d="m 273.946 1499.75 h -4.6978 l 2.3489 -4.0684 z" fill="#fff" stroke="#fff" stroke-width="2.1527" transform="matrix(.40276,0,0,.53577,168.44332,696.63391)"/>
<path d="m 273.946 1499.75 h -4.6978 l 2.3489 -4.0684 z" fill="#fff" stroke="#fff" stroke-width="2.1527" transform="matrix(.40276,0,0,.53577,174.82653,696.63391)"/>
<path d="m 273.946 1499.75 h -4.6978 l 2.3489 -4.0684 z" fill="#fff" stroke="#fff" stroke-width="2.1527" transform="matrix(.40276,0,0,.53577,171.63493,694.10441)"/>
<path d="m 270.23 1511.29 c 1.0224 2.2408 2.5561 3.7068 4.6539 4.3212 -2.6699 0.7504 -4.7289 2.1077 -6.4511 3.7997 0.0231 -2.9931 0.6919 -5.6653 1.7972 -8.1209 z" fill="#fff"/>
<path d="m 274.93 1496.23 c -1.3309 0.1013 -2.6067 0.9382 -3.6878 2.2519 -2.3784 2.8904 -3.7395 7.9739 -2.2519 12.0425 -0.0215 -3.7469 2.6194 -5.6484 3.6225 -2.0886 0.0738 -2.6161 2.2175 -4.2014 3.6552 -2.2846 v -3.4267 c -1.7128 -0.5691 -2.5156 -3.2144 -1.3381 -6.4945 z" fill="#fff" fill-rule="evenodd"/>
<path d="m 287.107 1496.23 c 1.3309 0.1013 2.6067 0.9382 3.6878 2.2519 2.3784 2.8904 3.7395 7.9739 2.2519 12.0425 0.0215 -3.7469 -2.6194 -5.6484 -3.6225 -2.0886 -0.0738 -2.6161 -2.2175 -4.2014 -3.6552 -2.2846 v -3.4267 c 1.7128 -0.5691 2.5156 -3.2144 1.3381 -6.4945 z" fill="#fff" fill-rule="evenodd"/>
</g>
</svg>
