<svg viewBox="0 0 512 512" xmlns="http://www.w3.org/2000/svg">

<g transform="matrix(18.68858,0,0,18.68858,-11121.93974,-9081.75694)">
<path d="m269.5625,110.7684c0,2.33-1.8888,4.2188-4.2188,4.2188s-4.2188-1.8888-4.2188-4.2188 1.8888-4.2188 4.2188-4.2188 4.2188,1.8888 4.2188,4.2188z" fill="#fff" stroke="#000" stroke-width=".894" transform="matrix(-1.11852,0,0,1.11852,897.13831,384.24882)"/>
<path d="m621.6902,486.5957v2.7188l-21.5625,19.375-.0312.1875-.0312-.1562-.4062.3438 .2812-.0937 .1562-.0937 21.5938-14.7188v3.5l-21.2188,11.1562 21.2188-6.5625v2.7188l-21.6562,4.0938-.4062.1875 22.0625-1.1875v2.6562l-22.5-1.25-.0312.0312 15.2812,2.9062h-6.0938l-9.2188-2.875-1.0625.9688 .9062-1v-.0312h-.0625l-.0312-.0312h-.0312l-1.4688-.0625 1.7812-.0937 .0312-.0625h.0312l.8438-.9375-.0312-.3125-.7812,1.125 .7812-1.4375-1.1562-21.0625h2.4062l-1.0938,20.7188 .0625-.0937 3.875-20.625h2.5625l-6.3438,20.4062 10.7188-20.4062h3.5625l-14.4688,21.1875-.0312.4062 19.4062-21.5938h2.1562zm-25.6875,0 3.9062,20.6875-3.9062-12.5938v-8.0938zm3.75,22.5312-.1875.0312-.125.125 .0937-.0312 .2188-.125z" fill="#fff"/>
<path d="m596.6477,505.0356 5.0559,2.4946-1.5745,1.7349 4.8729,3.5624-2.9923-3.9501 1.7234-2.1422-5.4673-2.8917" fill-rule="evenodd"/>
</g>
</svg>
