<svg viewBox="0 0 512 512" xmlns="http://www.w3.org/2000/svg">

<g transform="matrix(18.68858,0,0,18.68858,-11121.93974,-9081.75694)">
<path d="m 269.562 110.768 c 0 2.33 -1.8888 4.2188 -4.2188 4.2188 s -4.2188 -1.8888 -4.2188 -4.2188 1.8888 -4.2188 4.2188 -4.2188 4.2188 1.8888 4.2188 4.2188 z" fill="#fff" stroke="#000" stroke-width=".894" transform="matrix(-1.11852,0,0,1.11852,897.13831,384.24882)"/>
<path d="m 621.69 486.596 v 2.7188 l -21.5625 19.375 -0.0312 0.1875 -0.0312 -0.1562 -0.4062 0.3438 0.2812 -0.0937 0.1562 -0.0937 21.5938 -14.7188 v 3.5 l -21.2188 11.1562 21.2188 -6.5625 v 2.7188 l -21.6562 4.0938 -0.4062 0.1875 22.0625 -1.1875 v 2.6562 l -22.5 -1.25 -0.0312 0.0312 15.2812 2.9062 h -6.0938 l -9.2188 -2.875 -1.0625 0.9688 0.9062 -1 v -0.0312 h -0.0625 l -0.0312 -0.0312 h -0.0312 l -1.4688 -0.0625 1.7812 -0.0937 0.0312 -0.0625 h 0.0312 l 0.8438 -0.9375 -0.0312 -0.3125 -0.7812 1.125 0.7812 -1.4375 -1.1562 -21.0625 h 2.4062 l -1.0938 20.7188 0.0625 -0.0937 3.875 -20.625 h 2.5625 l -6.3438 20.4062 10.7188 -20.4062 h 3.5625 l -14.4688 21.1875 -0.0312 0.4062 19.4062 -21.5938 h 2.1562 z m -25.6875 0 3.9062 20.6875 -3.9062 -12.5938 v -8.0938 z m 3.75 22.5312 -0.1875 0.0312 -0.125 0.125 0.0937 -0.0312 0.2188 -0.125 z" fill="#fff"/>
<path d="m 596.648 505.036 5.0559 2.4946 -1.5745 1.7349 4.8729 3.5624 -2.9923 -3.9501 1.7234 -2.1422 -5.4673 -2.8917" fill-rule="evenodd"/>
</g>
</svg>
