<svg viewBox="0 0 512 512" xmlns="http://www.w3.org/2000/svg">

<g transform="matrix(18.68858,0,0,18.68858,-1589.03849,-36084.47537)">
<path d="m 101.092 1933.52 c 1.2852 0.8527 2.1326 2.3127 2.1326 3.9707 0 2.6297 -2.1318 4.7615 -4.7615 4.7615 s -4.7615 -2.1318 -4.7615 -4.7615 c 0 -1.6259 0.8149 -3.0615 2.0586 -3.9206" fill="none" stroke="#fff" stroke-width=".4609" transform="matrix(2.21277,0,0,2.12753,-119.25886,-2182.292)"/>
<path d="m 103.225 1937.49 c 0 2.6297 -2.1318 4.7615 -4.7615 4.7615 s -4.7615 -2.1318 -4.7615 -4.7615 2.1318 -4.7616 4.7615 -4.7616 4.7615 2.1318 4.7615 4.7616 z" transform="matrix(1.59331,0,0,1.67155,-58.1667,-1292.7632)"/>
<path d="m 103.225 1937.49 c 0 2.6297 -2.1318 4.7615 -4.7615 4.7615 s -4.7615 -2.1318 -4.7615 -4.7615 2.1318 -4.7616 4.7615 -4.7616 4.7615 2.1318 4.7615 4.7616 z" fill="#fff" transform="matrix(1.80643,0,0,1.73685,-79.13569,-1425.3449)"/>
<path d="m 103.225 1937.49 c 0 2.6297 -2.1318 4.7615 -4.7615 4.7615 s -4.7615 -2.1318 -4.7615 -4.7615 2.1318 -4.7616 4.7615 -4.7616 4.7615 2.1318 4.7615 4.7616 z" transform="matrix(1.59331,0,0,1.67155,-58.1667,-1293.9393)"/>
<path d="m 103.225 1937.49 c 0 2.6297 -2.1318 4.7615 -4.7615 4.7615 s -4.7615 -2.1318 -4.7615 -4.7615 2.1318 -4.7616 4.7615 -4.7616 4.7615 2.1318 4.7615 4.7616 z" transform="matrix(1.00797,0,0,1.08136,-.47826,-159.08674)"/>
<g transform="matrix(.95687,0,0,.95687,-274.7987,433.24466)">
<path d="m 390.746 1566.8 c 1.6048 0.2086 2.8577 1.9547 2.8577 4.0623 -1e-05 1.1671 -0.3998 2.2093 -1.0155 2.952 3.3374 0.628 4.5724 5.4692 3.5898 10.2026 h -2.3145 l -0.614 8.2425 h -5.8807 l -0.5432 -8.2425 h -2.1964 c -0.8667 -4.6093 -0.0795 -9.6844 3.5662 -10.2498 -0.5893 -0.7393 -0.9683 -1.7665 -0.9683 -2.9048 1e-05 -2.248 1.4309 -4.0623 3.1883 -4.0623 0.1097 0 0.2236 -0.016 0.3306 0 z" fill-rule="evenodd" stroke="#fff" stroke-width="1.0451"/>
<path d="m 386.881 1585.07 -0.0659 -6.6895" fill="none" stroke="#fff" stroke-width="1.0451"/>
<path d="m 393.816 1584.97 0.0461 -6.5904" fill="none" stroke="#fff" stroke-width="1.0451"/>
<path d="m 390.378 1592.69 v -8.4672" fill="none" stroke="#fff" stroke-width="1.0451"/>
</g>
<path d="m 99.3194 1936.96 c 0 0.9533 -0.7728 1.7261 -1.7261 1.7261 s -1.7261 -0.7728 -1.7261 -1.7261 0.7728 -1.7261 1.7261 -1.7261 1.7261 0.7728 1.7261 1.7261 z" fill="#fff" stroke="#000" stroke-width=".875" transform="matrix(1.14286,0,0,1.14286,-14.71961,-277.56235)"/>
<path d="m 99.3194 1936.96 c 0 0.9533 -0.7728 1.7261 -1.7261 1.7261 s -1.7261 -0.7728 -1.7261 -1.7261 0.7728 -1.7261 1.7261 -1.7261 1.7261 0.7728 1.7261 1.7261 z" fill="#fff" stroke="#000" stroke-width=".875" transform="matrix(1.14286,0,0,1.14286,-10.77415,-277.56235)"/>
<path d="m 87.5588 1931.38 h 20.7094" fill="none" stroke="#000"/>
</g>
</svg>
