<svg viewBox="0 0 512 512" xmlns="http://www.w3.org/2000/svg">

<g transform="matrix(18.68858,0,0,18.68858,-1589.03849,-36084.47537)">
<path d="m101.0924,1933.5158c1.2852.8527 2.1326,2.3127 2.1326,3.9707 0,2.6297-2.1318,4.7615-4.7615,4.7615s-4.7615-2.1318-4.7615-4.7615c0-1.6259.8149-3.0615 2.0586-3.9206" fill="none" stroke="#fff" stroke-width=".4609" transform="matrix(2.21277,0,0,2.12753,-119.25886,-2182.292)"/>
<path d="m103.2249,1937.4865c0,2.6297-2.1318,4.7615-4.7615,4.7615s-4.7615-2.1318-4.7615-4.7615 2.1318-4.7616 4.7615-4.7616 4.7615,2.1318 4.7615,4.7616z" transform="matrix(1.59331,0,0,1.67155,-58.1667,-1292.7632)"/>
<path d="m103.2249,1937.4865c0,2.6297-2.1318,4.7615-4.7615,4.7615s-4.7615-2.1318-4.7615-4.7615 2.1318-4.7616 4.7615-4.7616 4.7615,2.1318 4.7615,4.7616z" fill="#fff" transform="matrix(1.80643,0,0,1.73685,-79.13569,-1425.3449)"/>
<path d="m103.2249,1937.4865c0,2.6297-2.1318,4.7615-4.7615,4.7615s-4.7615-2.1318-4.7615-4.7615 2.1318-4.7616 4.7615-4.7616 4.7615,2.1318 4.7615,4.7616z" transform="matrix(1.59331,0,0,1.67155,-58.1667,-1293.9393)"/>
<path d="m103.2249,1937.4865c0,2.6297-2.1318,4.7615-4.7615,4.7615s-4.7615-2.1318-4.7615-4.7615 2.1318-4.7616 4.7615-4.7616 4.7615,2.1318 4.7615,4.7616z" transform="matrix(1.00797,0,0,1.08136,-.47826,-159.08674)"/>
<g transform="matrix(.95687,0,0,.95687,-274.7987,433.24466)">
<path d="m390.7464,1566.8009c1.6048.2086 2.8577,1.9547 2.8577,4.0623-1e-05,1.1671-.3998,2.2093-1.0155,2.952 3.3374.628 4.5724,5.4692 3.5898,10.2026h-2.3145l-.614,8.2425h-5.8807l-.5432-8.2425h-2.1964c-.8667-4.6093-.0795-9.6844 3.5662-10.2498-.5893-.7393-.9683-1.7665-.9683-2.9048 1e-05-2.248 1.4309-4.0623 3.1883-4.0623 .1097,0 .2236-.016.3306,0z" fill-rule="evenodd" stroke="#fff" stroke-width="1.0451"/>
<path d="m386.8814,1585.0658-.0659-6.6895" fill="none" stroke="#fff" stroke-width="1.0451"/>
<path d="m393.816,1584.9667 .0461-6.5904" fill="none" stroke="#fff" stroke-width="1.0451"/>
<path d="m390.3784,1592.6905v-8.4672" fill="none" stroke="#fff" stroke-width="1.0451"/>
</g>
<path d="m99.3194,1936.9613c0,.9533-.7728,1.7261-1.7261,1.7261s-1.7261-.7728-1.7261-1.7261 .7728-1.7261 1.7261-1.7261 1.7261.7728 1.7261,1.7261z" fill="#fff" stroke="#000" stroke-width=".875" transform="matrix(1.14286,0,0,1.14286,-14.71961,-277.56235)"/>
<path d="m99.3194,1936.9613c0,.9533-.7728,1.7261-1.7261,1.7261s-1.7261-.7728-1.7261-1.7261 .7728-1.7261 1.7261-1.7261 1.7261.7728 1.7261,1.7261z" fill="#fff" stroke="#000" stroke-width=".875" transform="matrix(1.14286,0,0,1.14286,-10.77415,-277.56235)"/>
<path d="m87.5588,1931.3835h20.7094" fill="none" stroke="#000"/>
</g>
</svg>
