<svg viewBox="0 0 512 512" xmlns="http://www.w3.org/2000/svg">

<g transform="matrix(18.68858,0,0,18.68858,-1590.08899,-16573.56586)">
<path d="m 87.5549 887.856 c 7.3239 1.1036 15.1921 1.1173 22.5579 0 0 11.5606 -1.3887 19.6949 -11.2853 25.3612 -9.8229 -5.6241 -11.2725 -13.8323 -11.2725 -25.3612 z" fill="#fff" fill-rule="evenodd"/>
<path d="m 98.8679 887.735 v 25.9157" fill="none" stroke="#000"/>
<path d="m 333.489 668.425 c 0 1.5987 -1.296 2.8947 -2.8947 2.8947 s -2.8947 -1.296 -2.8947 -2.8947 1.296 -2.8947 2.8947 -2.8947 2.8947 1.296 2.8947 2.8947 z" fill="#fff" stroke="#000" stroke-width=".3628" transform="matrix(2.75364,0,0,2.75974,-811.41205,-946.40354)"/>
<path d="m 109.291 898.316 c -6.5165 -5.8063 -13.989 -6.0039 -20.7274 0 6.5878 5.8698 14.308 5.7197 20.7274 0 z" fill="#fff" fill-rule="evenodd" stroke="#000"/>
<path d="m 333.489 668.425 c 0 1.5987 -1.296 2.8947 -2.8947 2.8947 s -2.8947 -1.296 -2.8947 -2.8947 1.296 -2.8947 2.8947 -2.8947 2.8947 1.296 2.8947 2.8947 z" fill="none" stroke="#000" stroke-width="1.4767" transform="matrix(.67644,0,0,.67794,-124.70039,445.12287)"/>
<path d="m 333.489 668.425 c 0 1.5987 -1.296 2.8947 -2.8947 2.8947 s -2.8947 -1.296 -2.8947 -2.8947 1.296 -2.8947 2.8947 -2.8947 2.8947 1.296 2.8947 2.8947 z" fill="none" stroke="#000" stroke-width=".6685" transform="matrix(1.49434,0,0,1.49765,-395.0931,-102.79061)"/>
</g>
</svg>
