<svg viewBox="0 0 512 512" xmlns="http://www.w3.org/2000/svg">

<g transform="matrix(18.68858,0,0,18.68858,-7035.75087,-10234.02003)">
<path d="m30.5,233.5809c0,3.7107-3.0081,6.7188-6.7188,6.7188s-6.7188-3.0081-6.7188-6.7188 3.0081-6.7188 6.7188-6.7188 6.7188,3.0081 6.7188,6.7188z" fill="#fff" stroke="#000" stroke-width=".5142" transform="matrix(1.68427,.97241,-.97241,1.68427,577.32961,144.6654)"/>
<path d="m28.5625,233.8309c0,2.0538-1.6649,3.7188-3.7188,3.7188s-3.7188-1.6649-3.7188-3.7188 1.6649-3.7188 3.7188-3.7188 3.7188,1.6649 3.7188,3.7188z" fill="#fff" stroke="#000" stroke-width=".5179" transform="matrix(1.58304,.9138,-1.01992,1.76623,592.92715,127.57593)"/>
<path d="m387.2471,560.5128 12.7721,5.0421" fill="none" stroke="#000"/>
<path d="m395.1791,555.8593-.1311,14.3536" fill="none" stroke="#000"/>
<path d="m387.27,566.2347 13.35-4.5422" fill="none" stroke="#000"/>
<path d="m390.6743,556.9323 7.4637,11.6588" fill="none" stroke="#000"/>
<path d="m390.5248,569.8197 8.3253-12.1907" fill="none" stroke="#000"/>
<path d="m27.3125,233.6746c0,.7939-.6436,1.4375-1.4375,1.4375s-1.4375-.6436-1.4375-1.4375 .6436-1.4375 1.4375-1.4375 1.4375.6436 1.4375,1.4375z" stroke="#fff" stroke-width=".3817" transform="matrix(2.15046,1.23851,-1.3855,2.39385,663.07581,-27.61516)"/>
<path d="m33.4688,234.1747c0,1.0183-.8255,1.8438-1.8438,1.8438s-1.8438-.8255-1.8438-1.8438 .8255-1.8438 1.8438-1.8438 1.8438.8255 1.8438,1.8438z" fill="#fff" transform="matrix(.82328,0,1.690826e-8,1.14302,370.64827,294.54612)"/>
<path d="m380.4459,552.1847-.9688.2812 1.25,4.125 3.6562-.7188-2.9375-.4375-1-3.25z" fill-rule="evenodd"/>
<path d="m383.6334,549.6222-.9688.25 .5938,2.4375 2.875.5 .9375,1.9062 .125-2.7188-3.125-.5625-.4375-1.8125z" fill-rule="evenodd"/>
<path d="m391.8477,548.6614 .9327-.322 .7065,1.9737-1.6392-1.6517z" fill-rule="evenodd"/>
<path d="m388.0397,548.0284-.7812.5938 1.4375,2 2.5938.625-1.9688-1.5-1.2812-1.7188z" fill-rule="evenodd"/>
<path d="m379.7272,564.6222-2.2188,2.4375 .75.6875 1.5312-1.7188 2.1562.6562-2.2188-2.0625z" fill-rule="evenodd"/>
<path d="m380.2451,565.2923 .75.6562 1.2188-1.4062-1.9688.75z" fill-rule="evenodd"/>
<path d="m377.6022,558.2159-.4375.9062 3.4688,1.6875 2.625-1.1562-2.625.0312-3.0312-1.4688z" fill-rule="evenodd"/>
<path d="m378.6647,559.6534v3.0625l2.625-1h-1.625v-2.0625h-1z" fill-rule="evenodd"/>
<path d="m380.7891,569.6403 .4318.8872 1.8951-.8961-2.327.009z" fill-rule="evenodd"/>
</g>
</svg>
