<svg viewBox="0 0 512 512" xmlns="http://www.w3.org/2000/svg">

<g transform="matrix(18.68858,0,0,18.68858,-7035.75087,-10234.02003)">
<path d="m 30.5 233.581 c 0 3.7107 -3.0081 6.7188 -6.7188 6.7188 s -6.7188 -3.0081 -6.7188 -6.7188 3.0081 -6.7188 6.7188 -6.7188 6.7188 3.0081 6.7188 6.7188 z" fill="#fff" stroke="#000" stroke-width=".5142" transform="matrix(1.68427,.97241,-.97241,1.68427,577.32961,144.6654)"/>
<path d="m 28.5625 233.831 c 0 2.0538 -1.6649 3.7188 -3.7188 3.7188 s -3.7188 -1.6649 -3.7188 -3.7188 1.6649 -3.7188 3.7188 -3.7188 3.7188 1.6649 3.7188 3.7188 z" fill="#fff" stroke="#000" stroke-width=".5179" transform="matrix(1.58304,.9138,-1.01992,1.76623,592.92715,127.57593)"/>
<path d="m 387.247 560.513 12.7721 5.0421" fill="none" stroke="#000"/>
<path d="m 395.179 555.859 -0.1311 14.3536" fill="none" stroke="#000"/>
<path d="m 387.27 566.235 13.35 -4.5422" fill="none" stroke="#000"/>
<path d="m 390.674 556.932 7.4637 11.6588" fill="none" stroke="#000"/>
<path d="m 390.525 569.82 8.3253 -12.1907" fill="none" stroke="#000"/>
<path d="m 27.3125 233.675 c 0 0.7939 -0.6436 1.4375 -1.4375 1.4375 s -1.4375 -0.6436 -1.4375 -1.4375 0.6436 -1.4375 1.4375 -1.4375 1.4375 0.6436 1.4375 1.4375 z" stroke="#fff" stroke-width=".3817" transform="matrix(2.15046,1.23851,-1.3855,2.39385,663.07581,-27.61516)"/>
<path d="m 33.4688 234.175 c 0 1.0183 -0.8255 1.8438 -1.8438 1.8438 s -1.8438 -0.8255 -1.8438 -1.8438 0.8255 -1.8438 1.8438 -1.8438 1.8438 0.8255 1.8438 1.8438 z" fill="#fff" transform="matrix(.82328,0,1.690826e-8,1.14302,370.64827,294.54612)"/>
<path d="m 380.446 552.185 -0.9688 0.2812 1.25 4.125 3.6562 -0.7188 -2.9375 -0.4375 -1 -3.25 z" fill-rule="evenodd"/>
<path d="m 383.633 549.622 -0.9688 0.25 0.5938 2.4375 2.875 0.5 0.9375 1.9062 0.125 -2.7188 -3.125 -0.5625 -0.4375 -1.8125 z" fill-rule="evenodd"/>
<path d="m 391.848 548.661 0.9327 -0.322 0.7065 1.9737 -1.6392 -1.6517 z" fill-rule="evenodd"/>
<path d="m 388.04 548.028 -0.7812 0.5938 1.4375 2 2.5938 0.625 -1.9688 -1.5 -1.2812 -1.7188 z" fill-rule="evenodd"/>
<path d="m 379.727 564.622 -2.2188 2.4375 0.75 0.6875 1.5312 -1.7188 2.1562 0.6562 -2.2188 -2.0625 z" fill-rule="evenodd"/>
<path d="m 380.245 565.292 0.75 0.6562 1.2188 -1.4062 -1.9688 0.75 z" fill-rule="evenodd"/>
<path d="m 377.602 558.216 -0.4375 0.9062 3.4688 1.6875 2.625 -1.1562 -2.625 0.0312 -3.0312 -1.4688 z" fill-rule="evenodd"/>
<path d="m 378.665 559.653 v 3.0625 l 2.625 -1 h -1.625 v -2.0625 h -1 z" fill-rule="evenodd"/>
<path d="m 380.789 569.64 0.4318 0.8872 1.8951 -0.8961 -2.327 0.009 z" fill-rule="evenodd"/>
</g>
</svg>
