<svg viewBox="0 0 512 512" xmlns="http://www.w3.org/2000/svg">

<g transform="matrix(18.68858,0,0,18.68858,-11120.93367,-20444.63166)">
<g transform="translate(109.1893,35.2462)">
<path d="m 509.01 1074.52 c 0.5817 0.3366 1.1692 -0.6358 0.5669 -0.9843 s -1.5244 -0.9633 -1.7314 -1.7935 l -11.8207 -6.8403 -1.2509 2.1717 11.8205 6.8401 c 0.7179 -0.1965 1.8337 0.2696 2.4155 0.6063 z" fill="none" stroke="#fff"/>
<path d="m -677.678 959.662 h 6.3267 v 1.9419 h -6.3267 z" fill="#fff" stroke="#000" transform="matrix(.49914,-.86652,.86553,.50086,0,0)"/>
<path d="m 491.888 1060.57 c 2.1462 1.2419 4.0932 3.8613 3.2987 5.2406 s -4.0314 0.999 -6.1775 -0.2428 -2.3928 -2.8774 -1.5982 -4.2568 2.331 -1.983 4.4771 -0.741 z" fill="#fff"/>
</g>
<path d="m 621.502 1118.08 c 0 1.3172 -1.069 2.3861 -2.3861 2.3861 s -2.3861 -1.0689 -2.3861 -2.3861 c 0 -2.1811 1.3877 -1.664 2.3861 -5.39 1.0162 3.7924 2.3861 3.0355 2.3861 5.39 z" fill="#fff"/>
<path d="m 329.55 316.651 c 0 0.5907 -0.4789 1.0696 -1.0696 1.0696 s -1.0696 -0.4789 -1.0696 -1.0696 0.4789 -1.0696 1.0696 -1.0696 1.0696 0.4789 1.0696 1.0696 z" fill="#fff" transform="matrix(.83019,0,0,.83019,346.29592,847.62826)"/>
<path d="m 611.186 1106.27 h 4.7664 l 3.0442 3.0348 -0.3875 0.62 -3.3326 -1.0463 -4.0905 -2.6085 z" fill="#fff" fill-rule="evenodd"/>
</g>
</svg>
