<svg viewBox="0 0 512 512" xmlns="http://www.w3.org/2000/svg">

<g transform="matrix(18.68858,0,0,18.68858,-11120.93367,-20444.63166)">
<g transform="translate(109.1893,35.2462)">
<path d="m509.0105,1074.516c.5817.3366 1.1692-.6358.5669-.9843s-1.5244-.9633-1.7314-1.7935l-11.8207-6.8403-1.2509,2.1717 11.8205,6.8401c.7179-.1965 1.8337.2696 2.4155.6063z" fill="none" stroke="#fff"/>
<path d="m-677.6785,959.6618h6.3267v1.9419h-6.3267z" fill="#fff" stroke="#000" transform="matrix(.49914,-.86652,.86553,.50086,0,0)"/>
<path d="m491.8879,1060.5653c2.1462,1.2419 4.0932,3.8613 3.2987,5.2406s-4.0314.999-6.1775-.2428-2.3928-2.8774-1.5982-4.2568 2.331-1.983 4.4771-.741z" fill="#fff"/>
</g>
<path d="m621.5022,1118.0771c0,1.3172-1.069,2.3861-2.3861,2.3861s-2.3861-1.0689-2.3861-2.3861c0-2.1811 1.3877-1.664 2.3861-5.39 1.0162,3.7924 2.3861,3.0355 2.3861,5.39z" fill="#fff"/>
<path d="m329.5505,316.6506c0,.5907-.4789,1.0696-1.0696,1.0696s-1.0696-.4789-1.0696-1.0696 .4789-1.0696 1.0696-1.0696 1.0696.4789 1.0696,1.0696z" fill="#fff" transform="matrix(.83019,0,0,.83019,346.29592,847.62826)"/>
<path d="m611.1864,1106.2719h4.7664l3.0442,3.0348-.3875.62-3.3326-1.0463-4.0905-2.6085z" fill="#fff" fill-rule="evenodd"/>
</g>
</svg>
