<svg viewBox="0 0 512 512" xmlns="http://www.w3.org/2000/svg">

<g transform="matrix(18.68858,0,0,18.68858,-13164.3997,-7509.46989)">
<path d="m 714.329 402.577 c -8.8851 0 -13.615 11.7028 -4.1518 26.1562 h 8.9017 c -7.2577 -6.9338 -9.7049 -14.5113 -7.9345 -17.2572 2.3555 -3.6536 6.6825 1.1296 5.6891 7.4134 l 12 -8.875 c -7.5194 -1.2346 -6.5262 -7.4375 -14.5044 -7.4375 z" fill="#fff" fill-rule="evenodd" stroke="#000"/>
<path d="m 716.757 412.396 c -6.1186 -7.9465 -15.6978 2.8684 -6.8501 16.0867" fill="none" stroke="#000"/>
<path d="m 388.312 812.55 c 0 6.1097 -4.9528 11.0625 -11.0625 11.0625 s -11.0625 -4.9528 -11.0625 -11.0625 4.9528 -11.0625 11.0625 -11.0625 11.0625 4.9528 11.0625 11.0625 z" fill="#fff" stroke="#000" stroke-width="1.4765" transform="matrix(.67728,0,0,.67728,468.16284,-135.03211)"/>
<path d="m 726.075 414.675 c 1.0083 1.5925 2.4213 1.1876 3.7416 0.1592 0.3025 1.6865 -2.0051 2.5809 -3.7553 2.8986 -1.7293 0.3139 -2.2948 2.0288 -2.3429 3.8367 -1.3168 -1.1547 -0.9648 -3.04 -0.1449 -4.9877 0.8041 -1.9102 0.2123 -3.3146 -1.0599 -4.0939 1.4063 -0.9166 2.6155 0.6931 3.5615 2.1873 z" fill-rule="evenodd"/>
</g>
</svg>
