<svg viewBox="0 0 512 512" xmlns="http://www.w3.org/2000/svg">

<g transform="matrix(18.68858,0,0,18.68858,-13164.3997,-7509.46989)">
<path d="m714.3293,402.5775c-8.8851,0-13.615,11.7028-4.1518,26.1562h8.9017c-7.2577-6.9338-9.7049-14.5113-7.9345-17.2572 2.3555-3.6536 6.6825,1.1296 5.6891,7.4134l12-8.875c-7.5194-1.2346-6.5262-7.4375-14.5044-7.4375z" fill="#fff" fill-rule="evenodd" stroke="#000"/>
<path d="m716.757,412.396c-6.1186-7.9465-15.6978,2.8684-6.8501,16.0867" fill="none" stroke="#000"/>
<path d="m388.3125,812.5497c0,6.1097-4.9528,11.0625-11.0625,11.0625s-11.0625-4.9528-11.0625-11.0625 4.9528-11.0625 11.0625-11.0625 11.0625,4.9528 11.0625,11.0625z" fill="#fff" stroke="#000" stroke-width="1.4765" transform="matrix(.67728,0,0,.67728,468.16284,-135.03211)"/>
<path d="m726.0753,414.675c1.0083,1.5925 2.4213,1.1876 3.7416.1592 .3025,1.6865-2.0051,2.5809-3.7553,2.8986-1.7293.3139-2.2948,2.0288-2.3429,3.8367-1.3168-1.1547-.9648-3.04-.1449-4.9877 .8041-1.9102.2123-3.3146-1.0599-4.0939 1.4063-.9166 2.6155.6931 3.5615,2.1873z" fill-rule="evenodd"/>
</g>
</svg>
