<svg viewBox="0 0 512 512" xmlns="http://www.w3.org/2000/svg">

<g transform="matrix(18.68858,0,0,18.68858,-3388.58917,-11641.58825)">
<path d="m184.1593,623.6349c-4.096,7.8863-2.7503,14.9173 3.2271,15.8795-1.927,1.7093-2.9325,3.9322-2.8491,6.2653 12.4907,3.9155 11.4874-18.9317-.378-22.1448z" fill="#fff" fill-rule="evenodd" stroke="#000"/>
<path d="m208.2293,632.3331c-.5327,9.2778-5.0359,14.1185-10.2635,10.7052 .7129,2.7401.4439,4.9413-.746,6.7772-11.3055-2.3632-.7916-23.5326 11.0094-17.4824z" fill="#fff" fill-rule="evenodd" stroke="#000"/>
<path d="m201.8125,635.9872c0,2.9685-2.4065,5.375-5.375,5.375s-5.375-2.4065-5.375-5.375 2.4065-5.375 5.375-5.375 5.375,2.4065 5.375,5.375z" stroke="#fff" stroke-width=".9348" transform="matrix(1.03332,.27688,-.27688,1.03332,166.55906,-72.80913)"/>
<path d="m206.6961,635.0366c0,.8055-.653,1.4584-1.4584,1.4584s-1.4584-.653-1.4584-1.4584 .653-1.4584 1.4584-1.4584 1.4584.653 1.4584,1.4584z" stroke="#fff" stroke-width=".6346" transform="matrix(1.57576,0,0,1.57576,-119.09527,-364.43388)"/>
<path d="m206.6961,635.0366c0,.8055-.653,1.4584-1.4584,1.4584s-1.4584-.653-1.4584-1.4584 .653-1.4584 1.4584-1.4584 1.4584.653 1.4584,1.4584z" stroke="#fff" stroke-width=".6346" transform="matrix(1.57576,0,0,1.57576,-137.70102,-371.06301)"/>
<path d="m206.6961,635.0366c0,.8055-.653,1.4584-1.4584,1.4584s-1.4584-.653-1.4584-1.4584 .653-1.4584 1.4584-1.4584 1.4584.653 1.4584,1.4584z" stroke="#fff" stroke-width=".9851" transform="matrix(1.01515,0,0,1.01515,-4.76694,-4.69412)"/>
<path d="m206.6961,635.0366c0,.8055-.653,1.4584-1.4584,1.4584s-1.4584-.653-1.4584-1.4584 .653-1.4584 1.4584-1.4584 1.4584.653 1.4584,1.4584z" stroke="#fff" stroke-width="1.082" transform="matrix(.92424,0,0,.92424,11.68133,54.89264)"/>
<path d="m206.6961,635.0366c0,.8055-.653,1.4584-1.4584,1.4584s-1.4584-.653-1.4584-1.4584 .653-1.4584 1.4584-1.4584 1.4584.653 1.4584,1.4584z" stroke="#fff" stroke-width=".9851" transform="matrix(-1.01515,0,0,1.01515,392.74761,-11.4558)"/>
<path d="m206.6961,635.0366c0,.8055-.653,1.4584-1.4584,1.4584s-1.4584-.653-1.4584-1.4584 .653-1.4584 1.4584-1.4584 1.4584.653 1.4584,1.4584z" stroke="#fff" stroke-width="1.082" transform="matrix(-.92424,0,0,.92424,375.01771,49.05904)"/>
<path d="m206.6961,635.0366c0,.8055-.653,1.4584-1.4584,1.4584s-1.4584-.653-1.4584-1.4584 .653-1.4584 1.4584-1.4584 1.4584.653 1.4584,1.4584z" stroke="#fff" stroke-width="1.082" transform="matrix(.92424,0,0,.92424,6.22335,59.68774)"/>
<path d="m206.6961,635.0366c0,.8055-.653,1.4584-1.4584,1.4584s-1.4584-.653-1.4584-1.4584 .653-1.4584 1.4584-1.4584 1.4584.653 1.4584,1.4584z" stroke="#fff" stroke-width="1.082" transform="matrix(.92424,0,0,.92424,-2.52709,56.9035)"/>
<path d="m199.4483,638.9257c0,2.3676-1.9193,4.2868-4.2868,4.2868s-4.2868-1.9193-4.2868-4.2868 1.9193-4.2868 4.2868-4.2868 4.2868,1.9193 4.2868,4.2868z" fill="#fff" transform="matrix(1.06701,0,0,1.06701,-13.89542,-43.89736)"/>
</g>
</svg>
