<svg viewBox="0 0 512 512" xmlns="http://www.w3.org/2000/svg">

<g transform="matrix(18.68858,0,0,18.68858,4525.52426,-13009.44423)">
<path d="m 175.057 716.888 -7.4015 -3.2667 -6.0298 5.394 0.8197 -8.0487 -6.9933 -4.0678 7.9081 -1.7076 1.7076 -7.9081 4.0678 6.9933 8.0487 -0.8197 -5.394 6.0298 z" fill="#fff" transform="matrix(2.8089711e-8,-.76411,.76411,2.8089711e-8,-765.28299,832.69053)"/>
<path d="m -229.28 708.946 -12.3815 12.2421 v 1.7491 h 2.427 l 12.0603 -11.8852 c 2.3063 -2.3066 3.1687 -3.7079 2.1562 -4.5384 -1.0391 -0.8524 -2.5658 0.7361 -4.262 2.4323 z" fill="#fff" stroke="#000"/>
<path d="m -226.237 721.883 c 0.1503 -3.4342 0.0309 -3.4852 -2.8653 -4.5607 3.3347 0.7394 4.7579 -0.0718 5.7588 -3.7527 -0.2537 3.7021 -0.042 4.6188 2.1934 6.3224 -2.5989 -0.8026 -3.7621 -0.9745 -5.0869 1.991 z" fill="#fff" fill-rule="evenodd"/>
<path d="m -220.366 709.673 c 0.8869 2.5316 1.3606 3.0224 3.4258 3.6355 -2.0864 -0.2962 -2.865 0.091 -5.1819 2.0732 1.5108 -1.7647 2.2522 -2.9427 1.7561 -5.7088 z" fill="#fff" fill-rule="evenodd"/>
<path d="m -228.748 697.297 c -2.4087 2.6032 -2.6208 3.7921 -0.7531 6.6341 -1.8601 -2.2166 -3.4053 -2.2923 -7.0077 -0.3839 2.9498 -2.685 3.2812 -2.9474 2.393 -6.2391 1.0508 2.0114 2.3148 2.4051 5.3678 -0.0111 z" fill="#fff" fill-rule="evenodd"/>
<path d="m -237.787 704.59 c 1.8394 0.9616 2.425 1.0125 4.2743 0.4141 -1.7954 0.998 -2.1856 1.5986 -2.9762 3.442 0.1456 -1.5185 0.0372 -2.4106 -1.2981 -3.856 z" fill="#fff" fill-rule="evenodd"/>
<path d="m -240.717 699.11 c 2.1047 0.913 3.0021 0.8122 5.0971 0.3106 -1.955 0.7867 -2.4357 1.5113 -3.451 4.3864 0.2386 -2.4086 0.1607 -3.2169 -1.646 -4.697 z" fill="#fff" fill-rule="evenodd"/>
<path d="m -216.564 719.563 c -1.2232 -1.142 -1.4515 -1.5962 -0.9278 -2.9984 -0.8198 0.9629 -1.2278 0.9349 -2.3451 0.499 1.2215 0.987 0.9412 1.821 0.5799 3.1791 0.8589 -1.0231 1.2593 -1.3512 2.6931 -0.6797 z" fill="#fff" fill-rule="evenodd"/>
</g>
</svg>
