<svg xmlns="http://www.w3.org/2000/svg" viewBox="0 0 512 512">
<g transform="matrix(15 0 0 15 -1064 -6649.432)">
<use width="744.094" height="1052.362" transform="translate(108 440.36215)"/>
</g>
<g fill="#fff" transform="matrix(2.36819 0 0 2.36948 -371.74375 -558.28371)">
<path d="m250.426,242.367h5a10,10 0 0,1 10,10v44.9a10,10 0 0,1 -10,10h-5a10,10 0 0,1 -10-10v-44.9a10,10 0 0,1 10-10"/>
<path d="m64.8178,377.622h5a10,10 0 0,1 10,10v44.9a10,10 0 0,1 -10,10h-5a10,10 0 0,1 -10-10v-44.9a10,10 0 0,1 10-10" transform="matrix(.86378 -.50387 .50387 .86378 0 0)"/>
<path d="m-426.012,127.681h5.001a10.0009,9.9991 0 0,1 10.001,9.999v44.896a10.0009,9.9991 0 0,1 -10.001,9.999h-5.001a10.0009,9.9991 0 0,1 -10.001-9.999v-44.896a10.0009,9.9991 0 0,1 10.001-9.999" transform="matrix(-.45488 -.89055 .89071 -.45456 0 0)"/>
<path d="m-412.154-230.021h5a10,10 0 0,1 10,10v44.9a10,10 0 0,1 -10,10h-5a10,10 0 0,1 -10-10v-44.9a10,10 0 0,1 10-10" transform="matrix(-.92632 -.37674 .37674 -.92632 0 0)"/>
<path d="m-259.985-364.081h5a10,10 0 0,1 10,10v44.9a10,10 0 0,1 -10,10h-5a10,10 0 0,1 -10-10v-44.9a10,10 0 0,1 10-10" transform="matrix(-.99226 -.12416 .12416 -.99226 0 0)"/>
<path d="m42.8554-410.265h5a10,10 0 0,1 10,10v44.9a10,10 0 0,1 -10,10h-5a10,10 0 0,1 -10-10v-44.9a10,10 0 0,1 10-10" transform="rotate(141.00794)"/>
<path d="m273.076-440.037h5a10,10 0 0,1 10,10v44.9a10,10 0 0,1 -10,10h-5a10,10 0 0,1 -10-10v-44.9a10,10 0 0,1 10-10" transform="rotate(115.04997)"/>
<path d="m-514.621-32.908h5a10,10 0 0,1 10,10v44.9a10,10 0 0,1 -10,10h-5a10,10 0 0,1 -10-10v-44.9a10,10 0 0,1 10-10" transform="matrix(-.57286 -.81965 .81965 -.57286 0 0)"/>
<path d="m-465.724-57.6507h30a10,10 0 0,1 10,10v80a10,10 0 0,1 -10,10h-30a10,10 0 0,1 -10-10v-80a10,10 0 0,1 10-10" transform="matrix(-.57419 -.81872 .81872 -.57419 0 0)"/>
<path d="m237.3353,408.1918a24.3967,24.3967 0 1,1 -48.7935,0 24.3967,24.3967 0 1,1 48.7935,0z" transform="matrix(1.03838 0 0 1.03792 -32.04895 -4.05177)"/>
</g>
</svg>
