<svg viewBox="0 0 512 512" xmlns="http://www.w3.org/2000/svg">

<g transform="matrix(18.68858,0,0,18.68858,-4643.66669,-6622.74183)">
<path d="m 270.036 360.053 c -9.306 -7.6997 -6.5677 13.5514 -20.1617 16.8881 11.676 7.2328 35.081 -4.544 20.1617 -16.8881 z" fill="#fff" fill-rule="evenodd"/>
<path d="m 269.312 359.219 c 0.0004 0.8979 -0.0501 1.7622 -0.1562 2.625 -1.8305 0.1993 -3.6717 0.8771 -5.375 2.4375 1.8864 -0.4704 3.5419 -0.8312 5.0625 -0.6875 -0.2553 1.1178 -0.6084 2.2178 -1.125 3.2812 -1.9994 -0.1313 -4.0114 0.2101 -6.0312 1.1875 1.7592 -0.1174 3.4994 -0.028 5.2188 0.2812 -0.6205 0.9842 -1.3907 1.9323 -2.3125 2.875 -1.29 -0.0359 -2.6212 0.097 -3.9688 0.4375 1.0193 0.0951 2.0396 0.2309 3.0312 0.4375 -1.5074 1.3689 -3.3488 2.705 -5.6562 4 2.7401 -0.5752 5.0018 -1.611 6.9062 -2.9062 0.038 1.1083 0.0198 2.2502 -0.0937 3.4062 0.6326 -1.4547 1.0154 -2.8609 1.2188 -4.2188 0.8591 -0.6873 1.6257 -1.4379 2.3125 -2.2188 0.1686 1.6053 0.1994 3.2562 0.0312 4.9688 1.0487 -2.4114 1.4477 -4.6713 1.375 -6.8125 0.5125 -0.7454 1.0134 -1.4858 1.4062 -2.25 0.3328 1.9744 0.3678 4.0341 0.1562 6.1875 1.4581 -3.3527 1.6719 -6.4237 1.0938 -9.25 0.1462 -0.4347 0.293 -0.8626 0.4062 -1.2812 l -3.5 -2.5 z" fill-rule="evenodd"/>
<path d="m 270.591 355.957 c 0.5384 -0.2619 1.192 -0.2773 1.6875 0.1875 0.2828 2.6612 -0.5834 8.286 -4 12.2188 2.6057 -4.749 2.7967 -8.1878 2.3125 -12.4062 z" fill="#fff" fill-rule="evenodd"/>
</g>
</svg>
