<svg viewBox="0 0 512 512" xmlns="http://www.w3.org/2000/svg">

<g transform="matrix(18.68858,0,0,18.68858,-4643.66669,-6622.74183)">
<path d="m270.0364,360.0527c-9.306-7.6997-6.5677,13.5514-20.1617,16.8881 11.676,7.2328 35.081-4.544 20.1617-16.8881z" fill="#fff" fill-rule="evenodd"/>
<path d="m269.3125,359.2188c.0004.8979-.0501,1.7622-.1562,2.625-1.8305.1993-3.6717.8771-5.375,2.4375 1.8864-.4704 3.5419-.8312 5.0625-.6875-.2553,1.1178-.6084,2.2178-1.125,3.2812-1.9994-.1313-4.0114.2101-6.0312,1.1875 1.7592-.1174 3.4994-.028 5.2188.2812-.6205.9842-1.3907,1.9323-2.3125,2.875-1.29-.0359-2.6212.097-3.9688.4375 1.0193.0951 2.0396.2309 3.0312.4375-1.5074,1.3689-3.3488,2.705-5.6562,4 2.7401-.5752 5.0018-1.611 6.9062-2.9062 .038,1.1083.0198,2.2502-.0937,3.4062 .6326-1.4547 1.0154-2.8609 1.2188-4.2188 .8591-.6873 1.6257-1.4379 2.3125-2.2188 .1686,1.6053.1994,3.2562.0312,4.9688 1.0487-2.4114 1.4477-4.6713 1.375-6.8125 .5125-.7454 1.0134-1.4858 1.4062-2.25 .3328,1.9744.3678,4.0341.1562,6.1875 1.4581-3.3527 1.6719-6.4237 1.0938-9.25 .1462-.4347.293-.8626.4062-1.2812l-3.5-2.5z" fill-rule="evenodd"/>
<path d="m270.5906,355.9568c.5384-.2619 1.192-.2773 1.6875.1875 .2828,2.6612-.5834,8.286-4,12.2188 2.6057-4.749 2.7967-8.1878 2.3125-12.4062z" fill="#fff" fill-rule="evenodd"/>
</g>
</svg>
