<svg viewBox="0 0 512 512" xmlns="http://www.w3.org/2000/svg">

<g transform="matrix(20.94336,0,0,17.92067,-1015.4879,-17849.16331)">
<path d="m61.8525,1008.3627c-6.2597-.75-2.7428-7.6788-10.5331-11.8194" fill="none" stroke="#fff" stroke-width=".9647"/>
<path d="m63.296,1008.6874c-4.7705-2.5874-5.6058-7.1485-3.4244-10.7115-2.8421,3.0477-3.1179,7.3656.0349,12.0519" fill="#fff" fill-rule="evenodd"/>
<path d="m58.5578,1010.6314c-4.0982-.5905-6.145-2.1577-7.0539-4.3573 .2053,2.2755 1.9688,4.6686 6.5798,5.658" fill="#fff" fill-rule="evenodd"/>
<path d="m58.2146,1011.1388 .7439-1.7937c-3.555,1.2807-4.5218-5.8928-8.4226-4.5633 4.1591.538 1.8479,4.0792 7.6787,6.357z" fill="#fff" fill-rule="evenodd"/>
<path d="m58.9924,1009.423c-2.7907-9.8883-7.0401-9.1832-9.7877-11.4189" fill="none" stroke="#fff" stroke-width=".9647"/>
<path d="m58.7412,1009.0192c-5.462-5.099-3.9244-9.1081-9.2439-11.7724" fill="none" stroke="#fff" stroke-width=".9647"/>
<path d="m57.2769,1010.5647c-2.0588-5.136-4.6101-7.3924-7.5429-8.0292 2.7918-.2882 6.238,1.4027 8.9439,7.1028" fill="#fff" fill-rule="evenodd"/>
<path d="m49.2255,1000.7989c1.6947.657 3.3894.983 5.0841,3.4896" fill="none" stroke="#fff" stroke-width=".9647"/>
<path d="m64.4189,996.5034h-15.2253l-1e-06,16.204" fill="none" stroke="#000" stroke-width=".9647"/>
</g>
<path d="m30.5,233.5809c0,3.7107-3.0081,6.7188-6.7188,6.7188s-6.7188-3.0081-6.7188-6.7188 3.0081-6.7188 6.7188-6.7188 6.7188,3.0081 6.7188,6.7188z" fill="#fff" stroke="#000" stroke-width=".7352" transform="matrix(12.71048,22.01515,-22.01515,12.71048,5176.82582,-3160.21733)"/>
<path d="m28.5625,233.8309c0,2.0538-1.6649,3.7188-3.7188,3.7188s-3.7188-1.6649-3.7188-3.7188 1.6649-3.7188 3.7188-3.7188 3.7188,1.6649 3.7188,3.7188z" fill="#fff" stroke="#000" stroke-width=".852" transform="matrix(21.57597,.81445,-.91182,22.26408,54.26567,-4860.26531)"/>
<path d="m27.3125,233.6746c0,.7939-.6436,1.4375-1.4375,1.4375s-1.4375-.6436-1.4375-1.4375 .6436-1.4375 1.4375-1.4375 1.4375.6436 1.4375,1.4375z" stroke="#fff" stroke-width=".493" transform="matrix(37.32969,1.34801,-1.64777,38.43662,-194.84563,-8648.28143)"/>
<path d="m33.4688,234.1747c0,1.0183-.8255,1.8438-1.8438,1.8438s-1.8438-.8255-1.8438-1.8438 .8255-1.8438 1.8438-1.8438 1.8438.8255 1.8438,1.8438z" fill="#fff" transform="matrix(10.96328,-5.32288,8.02282,14.07568,-1827.74311,-2790.38808)"/>
</svg>
