<svg viewBox="0 0 512 512" xmlns="http://www.w3.org/2000/svg">

<g transform="matrix(18.68858,0,0,18.68858,-12483.21067,-18403.08943)">
<path d="m676.9893,1003.9266h8.3087v3.3441h-8.3087z" fill="#fff"/>
<path d="m686.6132,1005.4477c-.0446,1.7818-.377,3.551-1.2148,5.298 .072-1.7912-.2526-3.5373-1.0055-5.3334l2.2203.035z" fill="#fff" fill-rule="evenodd"/>
<path d="m676.1269,1005.4477c.0446,1.7818.377,3.551 1.2148,5.298-.072-1.7912.2526-3.5373 1.0055-5.3334l-2.2203.035z" fill="#fff" fill-rule="evenodd"/>
<path d="m681.4047,985.3197c-4.4583,1e-05-8.2693,3.8849-9.8687,9.3986-.5474.4578-1.0887.9725-1.5848,1.6204 3.007,3.028 4.9286,5.9221 5.9526,9.4052 3.4048-1.8049 7.7945-1.7975 11.0962-.044 1.0804-3.2489 3.0823-6.4776 6.0022-9.3613-.5306-.693-1.1039-1.2513-1.6928-1.7285-1.6265-5.4576-5.4465-9.2906-9.9048-9.2906z" fill="#fff" stroke="#000"/>
<path d="m678.0983,1000.7922c-1.4805.1623-2.9393.7365-4.0904,2.0511-1.1691-2.2996-1.764-3.6734-4.3467-6.7133 4.0801-1.0816 6.4683-3.0548 8.5432-5.74" fill="#fff" fill-rule="evenodd" stroke="#000"/>
<path d="m681.6052,997.5342c.9327,1.5926 1.5606,3.236 1.9943,4.9116-.785-.2511-1.766-.8118-1.9786-1.6858-.3456.8862-1.2345,1.4424-2.01,1.6858 .505-1.7877 1.0536-3.3295 1.9943-4.9116z"/>
<path d="m678.1875,1004.7868v2.7692" fill="none" stroke="#000"/>
<path d="m680.3114,1004.7587v2.7692" fill="none" stroke="#000"/>
<path d="m682.4928,1004.7868v2.7692" fill="none" stroke="#000"/>
<path d="m684.9785,1000.7922c1.4805.1623 2.9393.7365 4.0904,2.0511 1.1691-2.2996 1.764-3.6734 4.3467-6.7133-4.0801-1.0816-6.4683-3.0548-8.5432-5.74" fill="#fff" fill-rule="evenodd" stroke="#000"/>
<path d="m689.2535,999.1665c-.7869-2.1996-2.0575-3.538-3.4286-4.4388l-2.0829,1.183 .3149,2.6859c1.5521-.2757 3.8984-.1024 5.1966.5699z" fill-rule="evenodd"/>
<path d="m684.5657,1004.7868v2.7692" fill="none" stroke="#000"/>
<path d="m674.1057,999.1665c.7869-2.1996 2.0575-3.538 3.4286-4.4388l2.0829,1.183-.3149,2.6859c-1.5521-.2757-3.8984-.1024-5.1966.5699z" fill-rule="evenodd"/>
</g>
</svg>
