<svg viewBox="0 0 512 512" xmlns="http://www.w3.org/2000/svg">

<g transform="matrix(18.68858,0,0,18.68858,-12483.21067,-18403.08943)">
<path d="m 676.989 1003.93 h 8.3087 v 3.3441 h -8.3087 z" fill="#fff"/>
<path d="m 686.613 1005.45 c -0.0446 1.7818 -0.377 3.551 -1.2148 5.298 0.072 -1.7912 -0.2526 -3.5373 -1.0055 -5.3334 l 2.2203 0.035 z" fill="#fff" fill-rule="evenodd"/>
<path d="m 676.127 1005.45 c 0.0446 1.7818 0.377 3.551 1.2148 5.298 -0.072 -1.7912 0.2526 -3.5373 1.0055 -5.3334 l -2.2203 0.035 z" fill="#fff" fill-rule="evenodd"/>
<path d="m 681.405 985.32 c -4.4583 1e-05 -8.2693 3.8849 -9.8687 9.3986 -0.5474 0.4578 -1.0887 0.9725 -1.5848 1.6204 3.007 3.028 4.9286 5.9221 5.9526 9.4052 3.4048 -1.8049 7.7945 -1.7975 11.0962 -0.044 1.0804 -3.2489 3.0823 -6.4776 6.0022 -9.3613 -0.5306 -0.693 -1.1039 -1.2513 -1.6928 -1.7285 -1.6265 -5.4576 -5.4465 -9.2906 -9.9048 -9.2906 z" fill="#fff" stroke="#000"/>
<path d="m 678.098 1000.79 c -1.4805 0.1623 -2.9393 0.7365 -4.0904 2.0511 -1.1691 -2.2996 -1.764 -3.6734 -4.3467 -6.7133 4.0801 -1.0816 6.4683 -3.0548 8.5432 -5.74" fill="#fff" fill-rule="evenodd" stroke="#000"/>
<path d="m 681.605 997.534 c 0.9327 1.5926 1.5606 3.236 1.9943 4.9116 -0.785 -0.2511 -1.766 -0.8118 -1.9786 -1.6858 -0.3456 0.8862 -1.2345 1.4424 -2.01 1.6858 0.505 -1.7877 1.0536 -3.3295 1.9943 -4.9116 z"/>
<path d="m 678.188 1004.79 v 2.7692" fill="none" stroke="#000"/>
<path d="m 680.311 1004.76 v 2.7692" fill="none" stroke="#000"/>
<path d="m 682.493 1004.79 v 2.7692" fill="none" stroke="#000"/>
<path d="m 684.979 1000.79 c 1.4805 0.1623 2.9393 0.7365 4.0904 2.0511 1.1691 -2.2996 1.764 -3.6734 4.3467 -6.7133 -4.0801 -1.0816 -6.4683 -3.0548 -8.5432 -5.74" fill="#fff" fill-rule="evenodd" stroke="#000"/>
<path d="m 689.254 999.167 c -0.7869 -2.1996 -2.0575 -3.538 -3.4286 -4.4388 l -2.0829 1.183 0.3149 2.6859 c 1.5521 -0.2757 3.8984 -0.1024 5.1966 0.5699 z" fill-rule="evenodd"/>
<path d="m 684.566 1004.79 v 2.7692" fill="none" stroke="#000"/>
<path d="m 674.106 999.167 c 0.7869 -2.1996 2.0575 -3.538 3.4286 -4.4388 l 2.0829 1.183 -0.3149 2.6859 c -1.5521 -0.2757 -3.8984 -0.1024 -5.1966 0.5699 z" fill-rule="evenodd"/>
</g>
</svg>
