<svg viewBox="0 0 512 512" xmlns="http://www.w3.org/2000/svg">

<g transform="matrix(18.68858,0,0,18.68858,-2742.39162,-333.52799)">
<path d="m 147.944 19.3856 c 5.755 3.6443 11.0773 6.5029 17.2304 7.153 2.1781 0.2301 2.5584 1.8695 1.6948 3.751 -1.419 3.0914 0.8791 7.681 6.0113 10.4591 -0.3201 1.4975 -2.4783 2.7581 -3.8076 2.3154 -1.1067 -2.3098 -2.8307 -4.7482 -4.6984 -4.0867 -3.8202 1.353 -7.7542 1.6407 -10.4254 0.1845 3.5437 -0.4809 6.9172 -1.4231 9.8883 -2.9078 -5.3678 0.8028 -11.7231 0.8235 -14.1314 -1.8713 4.8723 0.1947 8.8215 -0.2996 13.2305 -1.4032 -5.8725 -0.5408 -12.3291 -1.6146 -14.1468 -5.2152 4.333 1.351 10.1436 1.8539 14.0745 1.8813 -6.124 -1.5428 -14.3602 -5.7675 -14.9202 -10.2601 z" fill="#fff" fill-rule="evenodd"/>
</g>
</svg>
