<svg viewBox="0 0 512 512" xmlns="http://www.w3.org/2000/svg">

<g transform="matrix(18.68858,0,0,18.68858,-2741.99965,-7250.96806)">
<path d="m 152.048 409.578 c -4.7472 -5.4877 4.1487 -14.5833 10.0414 -17.4039 15.2963 -7.3218 11.1752 1.8099 5.9256 4.4836 -4.5705 2.3278 -6.6347 5.3502 -8.5081 8.2866 -1.0651 1.6694 -3.8643 2.8895 -6.9321 2.7511" fill="#fff" fill-rule="evenodd" stroke="#fff"/>
<path d="m 152.81 404.906 c -1.5269 3.0386 -2.5062 6.0487 -3.0523 9.2249" fill="none" stroke="#fff"/>
<path d="m 150.941 414.073 c 1.6146 -10.4983 7.1505 -17.7468 15.9781 -21.2453" fill="none" stroke="#000"/>
<path d="m 170.739 397.363 -6.5817 -0.1989 4.5951 1.6342" fill-rule="evenodd"/>
<path d="m 173.4 394.504 -6.4089 1.5111 4.8616 0.3894" fill-rule="evenodd"/>
<path d="m 161.639 409.297 -4.5135 -4.7937 2.0936 4.4041" fill-rule="evenodd"/>
<path d="m 157.447 411.037 -1.5116 -6.4078 -0.3893 4.8607" fill-rule="evenodd"/>
<path d="m 164.168 390.122 -4.5562 4.7529 2.133 -4.3851" fill-rule="evenodd"/>
<path d="m 157.781 391.945 -1.5689 6.3939 -0.3458 -4.864" fill-rule="evenodd"/>
<path d="m 172.745 388.816 -6.3228 1.8383 4.0402 -2.7313" fill-rule="evenodd"/>
<path d="m 151.024 408.706 c -1.2873 -0.7272 -2.0389 -1.7847 -2.7163 -2.888 l 1.9544 0.6005 c -0.7002 -1.1438 -1.0333 -2.2875 -1.3913 -3.4312 l 3.3788 2.2589" fill="#fff" fill-rule="evenodd"/>
</g>
</svg>
