<svg viewBox="0 0 512 512" xmlns="http://www.w3.org/2000/svg">

<g transform="matrix(18.68858,0,0,18.68858,-909.83321,-29262.01141)">
<path d="m75.5734,1585.1144c.407,2.3-2.3197,3.4628-6.0115,3.1662l-3.0145-1.9485-.5604,1.3303c-6.3103-.9228-17.9902-4.6514-16.674-11.2506 .8594-4.3088 6.5797-.5028 13.6484,2.5519 6.9749,3.0141 11.61.4884 12.6121,6.1507z" fill="#fff" stroke="#000"/>
<path d="m68.3911,1574.757c-2.8558-.5341-4.2866-3.7115-6.2036-4.1898-3.4173-.8525-4.6428,5.3518-6.7708,7.2779-3.0157,2.7296 14.3324,7.9256 14.1559,5.5781-.1463-1.9449 1.6221-6.732.5387-8.9096-.9284-1.8663-2.8537-1.7075-4.069-1.0435" fill="#fff" stroke="#000"/>
<path d="m56.5025,1576.6046c-1.3078,2.1245 12.01,6.3532 13.1969,4.8216" fill="none" stroke="#000"/>
</g>
</svg>
