<svg viewBox="0 0 512 512" xmlns="http://www.w3.org/2000/svg">

<g transform="matrix(18.68858,0,0,18.68858,-4020.68104,-6000.48285)">
<path d="m 531.037 404.564 c 0 7.4688 -6.0546 13.5234 -13.5234 13.5234 s -13.5234 -6.0546 -13.5234 -13.5234 6.0546 -13.5234 13.5234 -13.5234 13.5234 6.0546 13.5234 13.5234 z" fill="none" stroke="#fff" stroke-width="1.0479" transform="matrix(.91335,0,0,-.91335,-243.74502,704.31322)"/>
<path d="m 217.62 339.869 c 7.4964 -1.0428 15.0449 -1.3022 22.6973 0 -3.233 9.0688 -19.234 9.7148 -22.6973 0 z" fill="#fff" fill-rule="evenodd"/>
<path d="m 217.594 330.094 c 2.2793 1.146 7.5416 -0.5858 11.5 1.0312 -0.7265 -0.6797 -1.5579 -1.0706 -2.4375 -1.3125 2.2881 0.2469 5.4462 -0.6991 8.6875 0.625 -0.7164 -0.6702 -1.5403 -1.0381 -2.4062 -1.2812 -1.6726 -1.4122 -3.8165 -1.5223 -5.875 -1.4688 -2.2524 -1.6154 -5.28 -1.1499 -7.7527 -1.1317 l -1.716 3.5379 z" fill="#fff" fill-rule="evenodd"/>
<path d="m 235.375 331.406 c 0.4407 0.4296 1.0244 0.6438 1.7188 0.7812 -2.5803 0.0571 -5.0504 0.2924 -6.6562 -0.625 0.473 0.7605 1.0767 1.2412 1.7812 1.5312 -1.0682 -0.0232 -2.0587 -0.172 -2.9375 -0.5938 1.4357 1.6291 3.6973 1.6384 6.125 1.4062 1.8494 0.6727 4.002 0.7748 6 0.625 l -0.1562 -1.1875 -0.3438 0.0312 -0.4375 -1.9688 c -1.2034 0.4251 -3.9922 0.272 -5.0938 0 z" fill="#fff" fill-rule="evenodd"/>
<path d="m 228.594 325.094 c 0.8374 1.5084 2.2497 1.5614 3.9612 1.4688 1.2547 1.5343 3.4246 0.9217 5.9138 0.9062 l -0.7532 -1 c -2.9347 -1.8659 -7.0466 -0.0469 -9.1218 -1.375 z" fill="#fff" fill-rule="evenodd"/>
<path d="m 217.156 338.362 c 5.7852 -1.5501 17.1559 -1.7083 23.5313 0" fill="none" stroke="#fff"/>
<path d="m 219.562 335.581 1.2812 4.7188" fill="none" stroke="#fff"/>
<path d="m 223.114 334.862 0.4911 4.5938" fill="none" stroke="#fff"/>
<path d="m 238.636 335.925 -1.2812 4.7188" fill="none" stroke="#fff"/>
<path d="m 235.054 335.206 -0.4911 4.5938" fill="none" stroke="#fff"/>
<path d="m 231.056 334.8 -0.1831 4.5938" fill="none" stroke="#fff"/>
<path d="m 227.029 334.643 0.1831 4.5938" fill="none" stroke="#fff"/>
</g>
</svg>
