<svg viewBox="0 0 512 512" xmlns="http://www.w3.org/2000/svg">

<g transform="matrix(18.68858,0,0,18.68858,-7037.36743,-6828.53278)">
<path d="m 379.791 367.288 c 0 10.7276 1.9939 18.6641 10.5484 23.6031 8.3528 -4.8225 10.5764 -12.8459 10.5764 -23.6031 -6.883 1.2301 -13.8317 1.3767 -21.1248 0 z" fill-rule="evenodd" stroke="#fff"/>
<path d="m 385.541 373.736 c -0.8595 5.0118 1.7597 5.3807 3.0309 3.452 1.2136 -1.8412 -1.3931 -5.2903 3.3747 -6.7125 -2.5506 3.1158 2.1137 11.3435 3.2351 5.5729 3.3087 6.7051 -2.1205 11.9971 -5.4005 11.8827 -3.1226 -0.1088 -8.6003 -9.2125 -4.2402 -14.1952 z" fill="#fff" fill-rule="evenodd"/>
<path d="m 75.125 745.972 c 0 1.303 -1.0563 2.3594 -2.3594 2.3594 s -2.3594 -1.0563 -2.3594 -2.3594 1.0563 -2.3594 2.3594 -2.3594 2.3594 1.0563 2.3594 2.3594 z" transform="matrix(1.36462,0,0,1.87247,290.96702,-1013.0212)"/>
<path d="m 393.375 380.768 c 0 1.9157 -1.2452 3.4688 -2.7812 3.4688 s -2.7812 -1.553 -2.7812 -3.4688 1.2452 -3.4688 2.7812 -3.4688 2.7812 1.553 2.7812 3.4688 z" fill="#fff" transform="matrix(.92061,0,0,.85426,29.95457,56.08347)"/>
</g>
</svg>
