<svg viewBox="0 0 512 512" xmlns="http://www.w3.org/2000/svg">

<g transform="matrix(18.68858,0,0,18.68858,-4314.23326,-25864.4133)">
<path d="m171.0657,1357.8026c0,.9775-1.6912,1.7698-3.7774,1.7698s-3.7774-.7923-3.7774-1.7698 1.6912-1.7698 3.7774-1.7698 3.7774.7924 3.7774,1.7698z" fill="#fff" transform="matrix(1.06595,.28562,-.28562,1.06594,453.99104,-103.76927)"/>
<g transform="matrix(1.05029,0,0,1.05027,-320.07286,-28.82243)">
<path d="m545.2804,1362.5603c-1.0937.3421-2.1972-.436-2.4851-1.657-.1547-.6571-.0772-1.366.2367-1.8933-2.0136.8301-2.6209,2.315-2.1301,4.5756-1.9361.2724-1.7282-2.1938-2.9604-2.9531-.089,2.0812-2.5014,3.509-3.7206,2.0493-1.1997-1.436.1998-3.4529 1.987-3.08-1.7643-1.4603-3.3484-1.3254-4.9701.2366 .2533-1.4518.8068-2.3928 1.8145-2.9188-3.8186.2783-6.3856,3.2723-6.6357,6.4696 1.7259,8.5161 15.9398,8.5734 18.8639-.8289z" fill="#fff"/>
<path d="m539.6121,1359.7282c.8885-3.7144-2.5376-5.4698-5.7623-2.1513 2.6327-.8007 4.7681-.5411 5.7623,2.1513z" fill="#fff"/>
</g>
<path d="m253.0554,1385.7864-4.8832,5.0809c-3.9878-2.5854-9.3603-2.1317-12.8555,1.3612-4.0176,4.016-4.0166,10.5091.002,14.526s10.5168,4.018 14.5346.0002c3.4958-3.4942 3.9509-8.8623 1.3621-12.8478l5.023-4.9429z" fill="none" stroke="#fff"/>
<path d="m1156.6069,801.9561h8.8241v3.4947h-8.8241z" fill="#fff" stroke="#000" transform="matrix(.70711,.7071,-.70711,.7071,0,0)"/>
</g>
</svg>
