<svg viewBox="0 0 512 512" xmlns="http://www.w3.org/2000/svg">

<g transform="matrix(18.68858,0,0,18.68858,-8397.65249,-21807.56924)">
<path d="m-190.9902,1243.4487h8.1175v5.535h-8.1175z" fill="#fff" transform="matrix(.86538,-.50112,.49888,.86667,0,0)"/>
<path d="m469.3386,1184.2899c0,3.0473-2.4703,5.5176-5.5176,5.5176s-5.5176-2.4703-5.5176-5.5176 2.4703-5.5176 5.5176-5.5176 5.5176,2.4703 5.5176,5.5176z" fill="#fff" transform="matrix(1.70099,-.98501,.98281,1.70739,-1488.0097,-382.85246)"/>
<path d="m458.7395,1171.4121c-3.4094-5.3615-9.7027-.1672-6.6173,4.0277 1.4999,2.0391.8637,4.7111-.6832,6.2104" fill="none" stroke="#fff"/>
<path d="m463.0752,1173.7008c5.0029,2.3275 5.9676,5.4354 3.9984,9.0548 1.815-.9734 2.5989-2.4067 1.8356-4.4915 1.7525,1.177 2.6774,3.519 2.6383,6.0462-.1445,9.339-13.246,8.9881-13.4415,0-.0531-2.4438.8855-4.0554 3.0339-5.2317-.8111,1.5182-.4943,3.2828.37,4.0207-.5683-3.7134 5.0721-5.7224 1.5653-9.3951z" fill-rule="evenodd"/>
<path d="m470.0987,1188.3622c0,1.9379-1.571,3.509-3.509,3.509s-3.509-1.5711-3.509-3.509 1.571-3.509 3.509-3.509 3.509,1.571 3.509,3.509z" fill="#fff" transform="matrix(1,0,0,1.18213,-1.80766,-216.65441)"/>
<path d="m470.0987,1188.3622c0,1.9379-1.571,3.509-3.509,3.509s-3.509-1.5711-3.509-3.509 1.571-3.509 3.509-3.509 3.509,1.571 3.509,3.509z" transform="matrix(.70537,0,0,.70537,134.72279,347.89949)"/>
</g>
</svg>
