<svg viewBox="0 0 512 512" xmlns="http://www.w3.org/2000/svg">

<g transform="matrix(18.68858,0,0,18.68858,-4314.59533,-32682.11125)">
<path d="m236.8812,1750.2544c-3.5438.1239-4.6652,2.5595-4.5447,4.7966 .3614,6.7097 5.494,3.948 7.0286,7.0123 1.5477,3.0906-2.8315,4.8257-4.5879,2.1412-.05,10.4305 13.5817,12.6986 18.6372,8.0489 4.0166-3.9097 4.6043-12.2746 1.3968-16.2594-.3183,3.3281-3.4001,1.9053-2.7621-1.1363 .4267-2.0341-1.8254-4.3096-5.8176-3.2794 3.0474,1.9126 2.4066,4.5061.4243,5.2035s-4.0932-.3525-3.4745-2.3187c.7499-2.3834-2.2193-2.8674-3.7726-2.514 2.4395,2.8186-.8903,6.6337-3.081,4.2372-1.5894-1.7387-1.3325-3.965.5536-5.9319z" stroke="#fff"/>
<g fill="#fff" transform="matrix(-.65656,.75427,-.75427,-.65656,1544.2834,2570.463)">
<path d="m252.8326,1506.6404c-.5673-.7385-1.1583-1.436-2.2358-1.2908l-2.9728,5.1489c.3708,1.0037 1.1643,1.3603 2.2358,1.2909z" fill="#fff"/>
<path d="m250.2627,1503.695c-.5547-.7603-1.1347-1.4767-2.2359-1.2909l-3.5284,6.2899c.3464,1.0458 1.143,1.3968 2.2358,1.2908z" fill="#fff"/>
<path d="m247.1216,1501.9802c-.5547-.7604-1.1347-1.4771-2.2358-1.2909l-3.5802,6.3693c.3465,1.0456 1.143,1.3971 2.2358,1.2909z" fill="#fff"/>
<path d="m243.4274,1501.3812c-.5547-.7606-1.1347-1.477-2.2357-1.2912l-3.1842,5.5154c.3465,1.0459 1.1431,1.3969 2.2359,1.2907z" fill="#fff"/>
<path d="m237.5806,1507.3581c-.7324.7182-1.4163,1.4602-1.1751,2.6169l5.6631,2.5429c1.0261-.5416 1.3362-1.4565 1.175-2.6171z" fill="#fff"/>
</g>
</g>
</svg>
