<svg viewBox="0 0 512 512" xmlns="http://www.w3.org/2000/svg">

<g transform="matrix(-18.68858,0,0,18.68858,10273.66226,-25182.73931)">
<path d="m 526.52 1362.54 c -0.178 -5.6665 7.2386 -7.1013 9.5334 -12.7585 2.1725 5.6564 9.3914 7.4322 9.5615 12.7585 0.1814 5.6784 -6.8868 6.7681 -9.5615 2.16 -2.6795 5.0308 -9.3665 3.1567 -9.5334 -2.16 z" stroke="#fff"/>
<path d="m 535.986 1367.09 3.212 6.3806 h -6.424 z" fill="#fff"/>
<path d="m 540.438 1357.39 c 0.6037 0.41 1.0949 1.0448 1.2828 1.8794 0.2862 1.2725 -0.0191 2.2983 -0.9844 2.5954 -0.8272 0.2587 -1.6617 -0.3297 -1.8794 -1.2531 -0.117 -0.497 -0.0584 -1.0331 0.179 -1.4319 -1.5228 0.6278 -1.9821 1.7508 -1.6109 3.4604 -1.4642 0.206 -1.307 -1.6591 -2.2389 -2.2333 -0.0673 1.5739 -1.8917 2.6537 -2.8138 1.5498 -0.9073 -1.086 0.1511 -2.6113 1.5027 -2.3293 -1.3343 -1.1044 -2.5323 -1.0024 -3.7588 0.1789 0.1916 -1.0979 0.6102 -1.8096 1.3722 -2.2074 -4.4625 0.3253 -6.3121 5.3191 -3.2814 8.4422 1.9096 1.91 5.0424 1.8781 7.0104 -0.09 0.4183 -0.4182 0.7416 -0.8725 0.9844 -1.3722 0.8757 2.344 3.1112 3.6771 5.3398 3.013 5.8773 -2.2331 4.0116 -9.9753 -1.1038 -10.2024 z" fill="#fff"/>
<path d="m 536.449 1359.72 c 0.6719 -2.8091 -1.9191 -4.1367 -4.3579 -1.627 1.9911 -0.6055 3.606 -0.4092 4.3579 1.627 z" fill="#fff"/>
</g>
</svg>
