<svg viewBox="0 0 512 512" xmlns="http://www.w3.org/2000/svg">

<g transform="matrix(18.68858,0,0,18.68858,-12483.27322,-20445.93052)">
<path d="m 688.188 1095.88 c -6.3449 -1.0808 -12.2056 1.7093 -17.1562 7.875 0.5304 -1.538 2.5442 -4.7505 3.7608 -5.7844 -2.2081 0.8067 -4.6694 3.4076 -5.6983 6.1282 v 16.5 h 25.5994 v -4.625 c -0.3785 0.7445 -0.5728 1.5719 -0.6931 2.4062 -0.4118 -2.3476 -0.5336 -4.5376 -0.375 -6.5312 -1.2439 1.138 -1.8197 3.5217 -1.9062 6.4375 -1.0786 -4.6022 -0.9687 -8.8996 0.6562 -12.8125 -3.7861 1.2811 -6.2838 7.5003 -6.7812 13.7812 -0.6602 -6.0692 0.7848 -11.118 3.6562 -14.9375 -1.8843 0.5328 -3.6176 2.3428 -5.0625 4.7813 1.1263 -3.6718 3.0294 -6.5913 5.4375 -8.8125 -6.078 -0.1774 -11.0849 5.0238 -13.9688 11.5625 0.9103 -3.8449 2.719 -7.0208 5.1562 -9.5313 -4.4736 0.7013 -6.9453 4.2848 -9.0038 10.267 1.8758 -9.2207 7.2344 -14.2943 16.3788 -16.7045 z" fill="#fff"/>
<path d="m 672.585 1103.55 c -1.4773 2.4839 -2.9069 6.7279 -3.5771 9.8359 l -0.0969 -5.7367 c 1.0429 -1.52 2.1719 -2.7312 3.674 -4.0992 z" fill-rule="evenodd"/>
<path d="m 690.197 1114.87 c 0.0951 2.2296 0.6631 4.2206 1.8888 5.9434 h -2.2917 c -0.3255 -1.7472 -0.2009 -3.6609 0.4029 -5.9434 z" fill-rule="evenodd"/>
<g transform="matrix(-1,0,0,1,1363.75,0)">
<path d="m 685.062 1110.94 c 1.0058 3.5668 1.1838 6.8416 0.1875 9.875 h 4.0476 c -0.2082 -3.0372 -1.3508 -6.3884 -4.2351 -9.875 z" fill-rule="evenodd"/>
<path d="m 679.293 1113.44 c 0.4138 2.2336 0.2759 4.634 -0.6257 7.374 h 2.8825 c -0.148 -2.9552 -0.7657 -5.1552 -2.2568 -7.374 z" fill-rule="evenodd"/>
<path d="m 687.855 1108.13 c 1.2224 3.8426 1.3854 7.9722 0.9628 12.686 h 4.4569 c -1.0618 -5.1138 -2.5833 -8.8688 -5.4197 -12.686 z" fill-rule="evenodd"/>
<path d="m 681.507 1116.26 c 0.0562 1.3782 -0.243 2.8594 -1.0436 4.5502 h 1.7787 c 0.1722 -1.8235 -0.0128 -3.1811 -0.7351 -4.5502 z" fill-rule="evenodd"/>
</g>
<path d="m 683.62 1105.42 c -3.5873 2.3507 -5.3333 8.4772 -4.3148 14.227 0.694 -5.2135 2.0367 -10.0163 4.3148 -14.227 z" fill-rule="evenodd"/>
<path d="m 694.228 1104.34 c -1.3035 -1.8674 -3.8596 -1.3197 -4.8735 1.7583 1.5597 -1.2589 3.151 -1.7362 4.8735 -1.7583 z" fill="#fff" fill-rule="evenodd"/>
<path d="m 672.072 1107.4 c 0.9731 -3.7293 2.931 -6.8943 6.0637 -7.5917 -1.6317 1.162 -4.2131 4.3764 -6.0637 7.5917 z" fill-rule="evenodd"/>
</g>
</svg>
