<svg viewBox="0 0 512 512" xmlns="http://www.w3.org/2000/svg">

<g transform="matrix(18.68858,0,0,18.68858,-840.70152,-330.98821)">
<path d="m69.8262,35.663c0,4.4328-4.8813,8.0303-10.8957,8.0303s-10.8957-3.5976-10.8957-8.0303h21.7915z" fill="#fff" stroke="#fff"/>
<path d="m67.0868,42.3485c0,3.6124-5.8568,6.5407-13.0815,6.5407s-13.0815-2.9284-13.0815-6.5407 5.8568-6.5407 13.0815-6.5407 13.0815,2.9284 13.0815,6.5407z" stroke="#fff" stroke-width="1.4642" transform="matrix(.83411,0,0,.55922,13.89984,11.63868)"/>
<path d="m65.476,27.0251c5.2875,16.7407-21.1346,11.8294-12.7535-1.8394-1.0956,6.5735 3.9236,6.1982 2.7753,2.0589-.9005-3.2464.4755-8.1381 4.5955-8.7053-2.077,4.7148-1.4253,10.1022 3.704,5.647-2.8881,7.0674.2479,8.3958 1.6787,2.8388z" fill="#fff" fill-rule="evenodd"/>
<path d="m50.5382,30.4478c.465,9.5779 16.7343,10.339 16.1419-.0884" fill="none" stroke="#000"/>
<path d="m56.626,37.5005c-3.9932-8.3916 8.3757-8.4332 4.4194,0h-4.4194z" fill-rule="evenodd"/>
</g>
</svg>
