<svg xmlns="http://www.w3.org/2000/svg" viewBox="0 0 512 512">
<g transform="matrix(15 0 0 15 -1604 -4904)">
<use width="744.094" height="1052.362" transform="translate(144 324)"/>
<g fill="#fff">
<path d="m127.9191,344c0,2.1644-1.7546,3.9191-3.9191,3.9191-2.1644,0-3.9191-1.7546-3.9191-3.9191 0-2.1644 1.7546-3.9191 3.9191-3.9191 2.1644,0 3.9191,1.7546 3.9191,3.9191z"/>
<path d="m123.8617,328c0,0 .2102,9.0879-2.4378,10.1847-2.648,1.0969-8.7398-5.9882-8.7398-5.9882 0,0 6.4236,6.7758 5.3268,9.4239-1.0968,2.6481-10.0109,2.43-10.0109,2.43 0,0 8.9138-.2181 10.0109,2.43 1.0971,2.6481-5.3268,8.8333-5.3268,8.8333 0,0 6.0917-6.4658 8.7398-5.369 2.6481,1.0968 2.4378,10.0554 2.4378,10.0554 0,0-.2129-8.9647 2.4378-10.0554 2.6507-1.0907 9.5077,5.369 9.5077,5.369 0-0-7.1417-6.1852-6.0449-8.8333 1.0968-2.6481 10.2376-2.4299 10.2376-2.4299 0,0-9.1401,.219-10.2376-2.43-1.0975-2.649 6.0449-9.4239 6.0449-9.4239-0,0-6.8595,7.0847-9.5077,5.9882-2.6482-1.0965-2.4378-10.1847-2.4378-10.1847zm2.0401,11.4117c2.5332,1.0494 3.7358,3.9569 2.6864,6.4901-1.0494,2.5332-3.9551,3.7366-6.4883,2.6871-2.5332-1.0494-3.7384-3.9559-2.6889-6.4891 1.0494-2.5332 3.9576-3.7376 6.4908-2.6882z"/>
<path d="m118.8152,331.488c0-0-.0129,.004 .0959,2.6718 .0343,.8407 1.0379,2.2815 1.8215,1.957 .7836-.3246 .4834-2.0604-.0939-2.6726-1.832-1.9425-1.8234-1.9561-1.8234-1.9561zm10.3659-.002c0,0-.0122-.005-1.8214,1.9576-.5703,.6187-.8798,2.3476-.0962,2.6722 .7836,.3245 1.7995-1.1154 1.8242-1.9565 .0782-2.669 .0935-2.6733 .0935-2.6733zm-17.6957,7.3325c0,0-.005,.0141 1.9584,1.8234 .6187,.5702 2.3488,.877 2.6733,.0935 .2536-.6122-.5723-1.365-1.3459-1.6768-.2166-.0873-.4277-.1392-.6117-.1446-2.6689-.0781-2.6741-.0954-2.6741-.0954zm2.4955,8.2134c-.2149,.0914-.401,.2038-.5349,.3301-1.9425,1.832-1.9589,1.8223-1.9589,1.8223 0,0 .007,.014 2.6745-.0947 .8407-.0343 2.2807-1.0399 1.9561-1.8234-.2536-.6121-1.3693-.5608-2.1369-.2342zm19.1538-7.9342c-.7448,.3324-1.4941,1.0498-1.2507,1.6375 .3246,.7836 2.0558,.4755 2.6745-.0947 1.963-1.8093 1.9562-1.8234 1.9562-1.8234 0,0-.003,.0176-2.6718,.0959-.2103,.006-.4599,.074-.7082,.1848zm-12.936,12.801c-.6429,.2614-1.2606,1.2853-1.2873,1.9422-.1086,2.6674-.0962,2.6722-.0962,2.6722 0,0-.008-.0139 1.8242-1.9565 .5773-.6122 .877-2.3488 .0935-2.6733-.1714-.071-.3541-.0577-.5341,.0154zm12.0552-4.9914c-.1703,.0763-.3027,.1943-.3712,.3596-.3245,.7836 1.1177,1.7891 1.9584,1.8234 2.6674,.1086 2.6733,.0935 2.6733,.0935 0,0-.015,.0105-1.9576-1.8214-.153-.1443-.3765-.2726-.6304-.3698-.5475-.2096-1.2375-.2802-1.6726-.0851zm-4.9895,4.9773c-.7836,.3246-.4744,2.0531 .0959,2.6718 1.8093,1.963 1.8215,1.957 1.8215,1.957 0,0-.0157-.004-.0939-2.6726-.0247-.8411-1.0399-2.2807-1.8234-1.9561z"/>
</g>
</g>
</svg>
