<svg viewBox="0 0 512 512" xmlns="http://www.w3.org/2000/svg">

<g transform="matrix(18.68858,0,0,18.68858,-1588.89397,-36765.181)">
<path d="m 38.1144 1982.93 c 0 4.2644 -4.9771 7.7214 -11.1167 7.7214 s -11.1167 -3.457 -11.1167 -7.7214 4.9771 -7.7215 11.1167 -7.7215 11.1167 3.457 11.1167 7.7215 z" fill="#fff" transform="matrix(1.13547,0,0,1.10993,68.01989,-216.52695)"/>
<path d="m 38.1144 1982.93 c 0 4.2644 -4.9771 7.7214 -11.1167 7.7214 s -11.1167 -3.457 -11.1167 -7.7214 4.9771 -7.7215 11.1167 -7.7215 11.1167 3.457 11.1167 7.7215 z" transform="matrix(.95046,0,0,.92908,73.0148,142.66387)"/>
<path d="m 87.6273 1980.44 c 0.993 -2.2327 1.419 -4.4667 1.2547 -6.7021 1.0258 1.3361 1.9292 2.7146 1.6832 4.4374" fill="#fff"/>
<path d="m 98.6571 1971.48 c -1.1792 0.5492 -1.3242 1.7222 -0.875 3.0626 1.0281 3.0681 -3.0347 -0.5422 -2.875 -3 l -1.2188 5.1874 9.6854 -0.3077 c -2.9972 -0.266 -5.7484 -3.0265 -4.7167 -4.9423 z" fill="#fff"/>
<path d="m 101.732 1968.15 c 0.2727 2.8368 -4.1032 3.8493 0.2042 7.0095 -1.1238 -3.6308 2.138 -4.3309 -0.2042 -7.0095 z" fill="#fff"/>
<path d="m 90.2436 1978.29 c 1.673 -2.0361 2.3737 -4.3989 2.2072 -7.8252 1.4612 1.2017 1.6188 3.9615 1.521 5.976" fill="#fff"/>
<path d="m 104.438 1970.59 c -1.4612 1.2017 -1.5977 3.9542 -1.5 5.9688 l 8.2477 6.7346 c -0.4276 -1.9043 -0.5567 -3.0843 -0.1201 -3.6461 0.6462 -0.8315 0.6247 -2.1069 -0.1276 -3.3385 -0.4044 2.5718 -2.092 1.6114 -3.375 -2.875 -1.4962 5.0824 -3.8669 -0.2345 -3.125 -2.8438 z" fill="#fff"/>
<path d="m 88.4374 1987.24 c 1.0619 0.5153 1.5816 0.033 2.1181 -0.4179 0.2394 0.6901 0.1982 1.4474 0.1478 2.207 1.0852 0.086 2.1191 0.017 2.2483 -1.5985 1.0928 1.6111 -0.8633 2.534 0.5107 3.4059 0.7791 0.4946 1.9303 -1.425 2.0871 -3.0037 0.2103 1.6955 -0.4326 3.509 1.7719 4.4448 l -6.6904 -1.6307 z" fill="#fff"/>
<path d="m 108.57 1987.83 c -1.1465 1.4071 -1.7745 -0.5711 -1.8719 -1.7874 -0.8625 1.1018 -0.0305 3.1527 -0.9311 4.0164 -0.1138 -0.5481 -0.6408 -1.2287 -1.3569 -1.6455 0.1234 1.2995 -0.2797 2.531 -2.004 3.3812 l 3.3406 -0.8975 z" fill="#fff"/>
<path d="m 103.079 1991.5 c -1.8532 0.5531 -2.6217 -1.4033 -2.9102 -2.8369 -0.2261 1.8793 -0.9198 3.2883 -2.9435 3.4631 l 3.4335 0.1427 z" fill="#fff"/>
</g>
</svg>
