<svg viewBox="0 0 512 512" xmlns="http://www.w3.org/2000/svg">

<g transform="matrix(18.68858,0,0,18.68858,-13164.0299,-17723.41432)">
<path d="m721.1604,951.0475-1.8894,3.9553-8.1278-5.4775z" fill="#fff"/>
<path d="m705.8386,955.4797 4.708,8.3775-3.2263,1.9137-1.4817-10.2911z" fill="#fff"/>
<g transform="matrix(-3.9170452e-8,.97562,.97562,3.9170452e-8,391.72695,772.13121)">
<path d="m194.8346,339.025c1.6277,2.5308.3908,4.3088-1.6028,4.8429-2.562.6865-6.1157-1.6243-3.0906-2.9014-4.8094-.1175-3.4504,6.1404-.1892,6.5281h17.8498v-16.6198c-.7278-1.0772-1.9088-1.6432-2.9644-1.6084s-1.9878.6647-2.2076,1.9868c2.0642-2.0819 3.8475.2323 3.8475,2.4599 1e-05,1.659-1.7456,3.6078-3.9421,3.0591-2.6457-.6609-3.8095-6.5256-5.3799-8.2039 1.5372,6.8296-8.5647-4.1718-11.5393-6.8075h-2.7122l-.3344,4.0243c4.1039,2.8998 8.6137,7.1705 3.6362,5.9928 3.0562,2.9465 4.8878,1.4305 8.6289,7.2472z" fill="#fff"/>
</g>
<path d="m704.9327,948.7899 .0971,19.2855c2.0979,1.4657 5.617-.4009 4.1952-2.7579-6.1389-10.1766 2.8801-18.4551 11.6109-12.3082 3.2078,2.2585 2.8471-3.0771 3.8137-4.1786l-19.7169-.0407z" fill="#fff" stroke="#000"/>
</g>
</svg>
