<svg viewBox="0 0 512 512" xmlns="http://www.w3.org/2000/svg">

<g transform="matrix(18.68858,0,0,18.68858,-1588.89397,-36765.181)">
<path d="m38.1144,1982.9346c0,4.2644-4.9771,7.7214-11.1167,7.7214s-11.1167-3.457-11.1167-7.7214 4.9771-7.7215 11.1167-7.7215 11.1167,3.457 11.1167,7.7215z" fill="#fff" transform="matrix(1.13547,0,0,1.10993,68.01989,-216.52695)"/>
<path d="m38.1144,1982.9346c0,4.2644-4.9771,7.7214-11.1167,7.7214s-11.1167-3.457-11.1167-7.7214 4.9771-7.7215 11.1167-7.7215 11.1167,3.457 11.1167,7.7215z" transform="matrix(.95046,0,0,.92908,73.0148,142.66387)"/>
<path d="m87.6273,1980.445c.993-2.2327 1.419-4.4667 1.2547-6.7021 1.0258,1.3361 1.9292,2.7146 1.6832,4.4374" fill="#fff"/>
<path d="m98.6571,1971.4754c-1.1792.5492-1.3242,1.7222-.875,3.0626 1.0281,3.0681-3.0347-.5422-2.875-3l-1.2188,5.1874 9.6854-.3077c-2.9972-.266-5.7484-3.0265-4.7167-4.9423z" fill="#fff"/>
<path d="m101.7322,1968.1529c.2727,2.8368-4.1032,3.8493.2042,7.0095-1.1238-3.6308 2.138-4.3309-.2042-7.0095z" fill="#fff"/>
<path d="m90.2436,1978.2855c1.673-2.0361 2.3737-4.3989 2.2072-7.8252 1.4612,1.2017 1.6188,3.9615 1.521,5.976" fill="#fff"/>
<path d="m104.4384,1970.5903c-1.4612,1.2017-1.5977,3.9542-1.5,5.9688l8.2477,6.7346c-.4276-1.9043-.5567-3.0843-.1201-3.6461 .6462-.8315.6247-2.1069-.1276-3.3385-.4044,2.5718-2.092,1.6114-3.375-2.875-1.4962,5.0824-3.8669-.2345-3.125-2.8438z" fill="#fff"/>
<path d="m88.4374,1987.2373c1.0619.5153 1.5816.033 2.1181-.4179 .2394.6901.1982,1.4474.1478,2.207 1.0852.086 2.1191.017 2.2483-1.5985 1.0928,1.6111-.8633,2.534.5107,3.4059 .7791.4946 1.9303-1.425 2.0871-3.0037 .2103,1.6955-.4326,3.509 1.7719,4.4448l-6.6904-1.6307z" fill="#fff"/>
<path d="m108.5695,1987.8311c-1.1465,1.4071-1.7745-.5711-1.8719-1.7874-.8625,1.1018-.0305,3.1527-.9311,4.0164-.1138-.5481-.6408-1.2287-1.3569-1.6455 .1234,1.2995-.2797,2.531-2.004,3.3812l3.3406-.8975z" fill="#fff"/>
<path d="m103.0785,1991.5046c-1.8532.5531-2.6217-1.4033-2.9102-2.8369-.2261,1.8793-.9198,3.2883-2.9435,3.4631l3.4335.1427z" fill="#fff"/>
</g>
</svg>
