<svg xmlns="http://www.w3.org/2000/svg" viewBox="0 0 512 512">
<g transform="matrix(15 0 0 15 -1604 -4904)">
<use width="744.094" height="1052.362" transform="translate(144 324)"/>
<g fill="#fff">
<path d="m 127.919 344 c 0 2.1644 -1.7546 3.9191 -3.9191 3.9191 -2.1644 0 -3.9191 -1.7546 -3.9191 -3.9191 0 -2.1644 1.7546 -3.9191 3.9191 -3.9191 2.1644 0 3.9191 1.7546 3.9191 3.9191 z"/>
<path d="m 123.862 328 c 0 0 0.2102 9.0879 -2.4378 10.1847 -2.648 1.0969 -8.7398 -5.9882 -8.7398 -5.9882 0 0 6.4236 6.7758 5.3268 9.4239 -1.0968 2.6481 -10.0109 2.43 -10.0109 2.43 0 0 8.9138 -0.2181 10.0109 2.43 1.0971 2.6481 -5.3268 8.8333 -5.3268 8.8333 0 0 6.0917 -6.4658 8.7398 -5.369 2.6481 1.0968 2.4378 10.0554 2.4378 10.0554 0 0 -0.2129 -8.9647 2.4378 -10.0554 2.6507 -1.0907 9.5077 5.369 9.5077 5.369 0 -0 -7.1417 -6.1852 -6.0449 -8.8333 1.0968 -2.6481 10.2376 -2.4299 10.2376 -2.4299 0 0 -9.1401 0.219 -10.2376 -2.43 -1.0975 -2.649 6.0449 -9.4239 6.0449 -9.4239 -0 0 -6.8595 7.0847 -9.5077 5.9882 -2.6482 -1.0965 -2.4378 -10.1847 -2.4378 -10.1847 z m 2.0401 11.4117 c 2.5332 1.0494 3.7358 3.9569 2.6864 6.4901 -1.0494 2.5332 -3.9551 3.7366 -6.4883 2.6871 -2.5332 -1.0494 -3.7384 -3.9559 -2.6889 -6.4891 1.0494 -2.5332 3.9576 -3.7376 6.4908 -2.6882 z"/>
<path d="m 118.815 331.488 c 0 -0 -0.0129 0.004 0.0959 2.6718 0.0343 0.8407 1.0379 2.2815 1.8215 1.957 0.7836 -0.3246 0.4834 -2.0604 -0.0939 -2.6726 -1.832 -1.9425 -1.8234 -1.9561 -1.8234 -1.9561 z m 10.3659 -0.002 c 0 0 -0.0122 -0.005 -1.8214 1.9576 -0.5703 0.6187 -0.8798 2.3476 -0.0962 2.6722 0.7836 0.3245 1.7995 -1.1154 1.8242 -1.9565 0.0782 -2.669 0.0935 -2.6733 0.0935 -2.6733 z m -17.6957 7.3325 c 0 0 -0.005 0.0141 1.9584 1.8234 0.6187 0.5702 2.3488 0.877 2.6733 0.0935 0.2536 -0.6122 -0.5723 -1.365 -1.3459 -1.6768 -0.2166 -0.0873 -0.4277 -0.1392 -0.6117 -0.1446 -2.6689 -0.0781 -2.6741 -0.0954 -2.6741 -0.0954 z m 2.4955 8.2134 c -0.2149 0.0914 -0.401 0.2038 -0.5349 0.3301 -1.9425 1.832 -1.9589 1.8223 -1.9589 1.8223 0 0 0.007 0.014 2.6745 -0.0947 0.8407 -0.0343 2.2807 -1.0399 1.9561 -1.8234 -0.2536 -0.6121 -1.3693 -0.5608 -2.1369 -0.2342 z m 19.1538 -7.9342 c -0.7448 0.3324 -1.4941 1.0498 -1.2507 1.6375 0.3246 0.7836 2.0558 0.4755 2.6745 -0.0947 1.963 -1.8093 1.9562 -1.8234 1.9562 -1.8234 0 0 -0.003 0.0176 -2.6718 0.0959 -0.2103 0.006 -0.4599 0.074 -0.7082 0.1848 z m -12.936 12.801 c -0.6429 0.2614 -1.2606 1.2853 -1.2873 1.9422 -0.1086 2.6674 -0.0962 2.6722 -0.0962 2.6722 0 0 -0.008 -0.0139 1.8242 -1.9565 0.5773 -0.6122 0.877 -2.3488 0.0935 -2.6733 -0.1714 -0.071 -0.3541 -0.0577 -0.5341 0.0154 z m 12.0552 -4.9914 c -0.1703 0.0763 -0.3027 0.1943 -0.3712 0.3596 -0.3245 0.7836 1.1177 1.7891 1.9584 1.8234 2.6674 0.1086 2.6733 0.0935 2.6733 0.0935 0 0 -0.015 0.0105 -1.9576 -1.8214 -0.153 -0.1443 -0.3765 -0.2726 -0.6304 -0.3698 -0.5475 -0.2096 -1.2375 -0.2802 -1.6726 -0.0851 z m -4.9895 4.9773 c -0.7836 0.3246 -0.4744 2.0531 0.0959 2.6718 1.8093 1.963 1.8215 1.957 1.8215 1.957 0 0 -0.0157 -0.004 -0.0939 -2.6726 -0.0247 -0.8411 -1.0399 -2.2807 -1.8234 -1.9561 z"/>
</g>
</g>
</svg>
