<svg viewBox="0 0 512 512" xmlns="http://www.w3.org/2000/svg">

<g transform="matrix(18.68858,0,0,18.68858,-11802.95273,-25864.05099)">
<path d="m 644.016 1396.3 -6.8268 1.1252 5.214 0.3189 -6.5268 2.7382 5.6266 -0.5064 -3.6012 3.301 6.4142 -1.8757 -0.074 5.6267 2.9633 -7.5396" fill="#fff"/>
<path d="m 632.452 1410.53 h 0.98 l 4.9114 -6.0108 -5.8914 2.5253 z" fill="#fff"/>
<path d="m 652 1387.94 -8.1875 8.2187 c -0.2755 1.4287 0.1223 2.5886 1.1312 3.1563 l -11.5062 11.5 h 2.8125 l 19.2188 -19.4063 z" fill="#fff" stroke="#000"/>
<path d="m 650.273 1386.54 8.0267 -1.8138 -1.8117 8.0352 c -3.8765 1.8062 -7.9245 -2.5458 -6.215 -6.2216 z" fill="#fff" stroke="#000"/>
<path d="m 632.461 1404.58 v -2.3603 l 5.4469 -0.9819 z" fill="#fff"/>
<path d="m 640.814 1410.53 2.0749 -0.0001 0.02 -5.2024 z" fill="#fff"/>
<path d="m 632.461 1398.79 v -1.729 l 4.5451 0.8961 z" fill="#fff"/>
<path d="m 646.88 1410.53 -1.3997 -0.0001 0.5742 -5.0963 z" fill="#fff"/>
</g>
</svg>
