<svg xmlns="http://www.w3.org/2000/svg" viewBox="0 0 512 512">
<g transform="matrix(15 0 0 15 -1064 -3284)">
<use width="744.094" height="1052.362" transform="translate(108 216)"/>
<path fill="#fff" d="m88,220c-3.5,16.8421-14,18.523 0,30.3125 14-11.7895 3.5-13.4704 0-30.3125zm-8.75,10.0938c-1.75,5.0526-5.25,8.4474-5.25,13.5 0,5.0526 7,8.4062 12.25,8.4062-10.5-8.4211-7-13.4852-7-21.9062zm17.5,0c0,8.4211 3.5,13.4852-7,21.9062 5.25,0 12.25-3.3536 12.25-8.4062 0-5.0526-3.5-8.4474-5.25-13.5z"/>
</g>
</svg>
