<svg viewBox="0 0 512 512" xmlns="http://www.w3.org/2000/svg">

<g transform="matrix(18.68858,0,0,18.68858,-2271.24426,-31323.86473)">
<path d="m 139.438 1700.96 c -3.5814 -3.0109 -5.3952 -0.7858 -7.2913 -4.5031 -1.1296 -2.2146 -0.7268 -4.3486 0.4139 -5.587" fill="none" stroke="#fff"/>
<path d="m 132.146 1696.45 c -7.8118 1.6659 -5.8554 -6.2341 -10.1462 -6.3619" fill="none" stroke="#fff"/>
<path d="m 136.869 1676.59 c 1.8944 1.8274 2.9482 7.8131 -2.9054 8.7269" fill="none" stroke="#fff"/>
<path d="m 138.383 1681.38 c 2.1405 0.1345 6.0178 1.3924 5.5409 6.0132 -0.0382 2.4047 0.5058 4.4087 2.4693 6.6957" fill="none" stroke="#fff"/>
<path d="m 121.888 1686.99 c 5.0711 3.0001 8.8619 -3.1926 5.5685 -6.9827" fill="none" stroke="#fff"/>
<path d="m 125.733 1678.98 c -2.5197 0.598 -2.478 6.092 0.8 5.322 3.4775 -0.817 2.1315 -6.0186 -0.8 -5.322 z" fill="#fff"/>
<path d="m 145.487 1693.88 c 0 3.0265 -2.7899 5.48 -6.2314 5.48 s -6.2314 -2.4535 -6.2314 -5.48 2.7899 -5.4801 6.2314 -5.4801 6.2314 2.4535 6.2314 5.4801 z" fill="#fff" transform="matrix(.70711,.70711,-.70711,.70711,1241.4171,400.48704)"/>
<path d="m 127.086 1691.49 c 3.7322 0.3825 3.6286 -4.4096 0.6393 -5.4395" fill="none" stroke="#fff"/>
<path d="m 132.558 1680.18 c 1.4314 2.4001 -2.4067 4.7688 -3.9052 2.3262" fill="none" stroke="#fff"/>
<path d="m 139.426 1691.72 c 3.9351 -1.0244 2.3184 -6.7791 -1.3027 -5.3994" fill="none" stroke="#fff"/>
<path d="m 136.901 1693.08 c 2.1405 1.3609 3.8746 0.4284 2.3221 -2.4829 -0.9132 -1.7118 -4.3322 1.2053 -2.3221 2.4829 z"/>
<path d="m 142.423 1695.6 c -2.9334 -0.162 -1.9163 -4.8964 0 -5.1412 2.8889 -0.3691 2.1706 5.2611 0 5.1412 z"/>
<path d="m 137.309 1699.03 c -2.8811 -0.5745 -2.838 -4.9963 1.25 -4.11 2.3959 0.5195 1.7019 4.6987 -1.25 4.11 z"/>
<path d="m 139.622 1697.72 c 0.0497 -1.9135 -3.8355 -2.3271 -3.7599 0.246 0.0679 2.312 3.6876 2.5399 3.7599 -0.246 z" fill="#fff"/>
<path d="m 135.119 1685.13 c -1.6691 -1.2263 -4.3907 1.3728 -2.2572 3.0178 2.4081 1.8568 4.3654 -1.4689 2.2572 -3.0178 z" fill="#fff"/>
<path d="m 137.388 1686.24 c 1.0578 -1.329 3.618 0.3916 2.2458 2.1232 -1.4559 1.837 -3.4767 -0.577 -2.2458 -2.1232 z" fill="#fff"/>
<path d="m 128.162 1688.96 c 1.6522 0.7188 0.5921 3.8143 -1.5588 2.8838 -2.2817 -0.9874 -0.3633 -3.7205 1.5588 -2.8838 z" fill="#fff"/>
<path d="m 131.29 1679.02 c -1.7512 0.4156 -1.7222 4.234 0.556 3.6988 2.4169 -0.5678 1.4814 -4.183 -0.556 -3.6988 z" fill="#fff"/>
<path d="m 127.016 1682.06 c 1.0511 -2.7858 -2.3886 -3.6787 -3.1816 -1.1979 -0.8244 2.5789 2.3754 3.3347 3.1816 1.1979 z"/>
<path d="m 143.255 1693.89 c 0.0435 -1.6749 -3.3574 -2.037 -3.2912 0.2154 0.0594 2.0238 3.2279 2.2233 3.2912 -0.2154 z" fill="#fff"/>
<path d="m 135.228 1692.57 c 1.0979 -2.065 -2.0641 -4.0964 -3.322 -1.6387 -1.0359 2.024 2.0358 4.0578 3.322 1.6387 z" fill="#fff"/>
<path d="m 124.455 1680.64 c -0.1821 -1.8418 2.0267 -1.8243 2.1036 -0.2072 0.0814 1.6813 -1.963 1.6202 -2.1036 0.2072 z" fill="#fff"/>
<path d="m 127.812 1678.17 c -1.2655 -1.0377 0.1265 -2.4078 1.1857 -1.4448 1.1021 1.0003 -0.2144 2.2403 -1.1857 1.4448 z" fill="#fff"/>
<path d="m 122.043 1702.87 v -26.2686 h 25.2563" fill="none" stroke="#000"/>
<path d="m 137.226 1691.26 c 1.2892 0.1276 1.2772 -1.4182 0.1452 -1.4721 -1.1767 -0.057 -1.134 1.3739 -0.1452 1.4721 z" fill="#fff"/>
<path d="m 141.615 1691 c 0.5341 1.1802 1.8668 0.3967 1.3475 -0.6104 -0.539 -1.0475 -1.7568 -0.2951 -1.3475 0.6104 z" fill="#fff"/>
<path d="m 135.316 1683.13 c -0.5341 1.1802 -1.8668 0.3967 -1.3475 -0.6104 0.539 -1.0475 1.7568 -0.2951 1.3475 0.6104 z" fill="#fff"/>
<path d="m 132.356 1692.23 c -0.9828 1.3701 0.7677 2.3624 1.565 1.1216 0.83 -1.2893 -0.8107 -2.1723 -1.565 -1.1216 z"/>
<path d="m 134.29 1685.23 c -1.7082 -1.2252 -2.9454 0.9573 -1.3983 1.9512 1.6076 1.0346 2.7083 -1.0107 1.3983 -1.9512 z"/>
<path d="m 131.417 1690.59 c -0.6107 -1.6204 1.3898 -2.1395 1.851 -0.6967 0.4807 1.4998 -1.3817 1.9396 -1.851 0.6967 z" fill="#fff"/>
</g>
</svg>
