<svg viewBox="0 0 512 512" xmlns="http://www.w3.org/2000/svg">

<g transform="matrix(18.68858,0,0,18.68858,-4314.23326,-25864.4133)">
<path d="m 171.066 1357.8 c 0 0.9775 -1.6912 1.7698 -3.7774 1.7698 s -3.7774 -0.7923 -3.7774 -1.7698 1.6912 -1.7698 3.7774 -1.7698 3.7774 0.7924 3.7774 1.7698 z" fill="#fff" transform="matrix(1.06595,.28562,-.28562,1.06594,453.99104,-103.76927)"/>
<g transform="matrix(1.05029,0,0,1.05027,-320.07286,-28.82243)">
<path d="m 545.28 1362.56 c -1.0937 0.3421 -2.1972 -0.436 -2.4851 -1.657 -0.1547 -0.6571 -0.0772 -1.366 0.2367 -1.8933 -2.0136 0.8301 -2.6209 2.315 -2.1301 4.5756 -1.9361 0.2724 -1.7282 -2.1938 -2.9604 -2.9531 -0.089 2.0812 -2.5014 3.509 -3.7206 2.0493 -1.1997 -1.436 0.1998 -3.4529 1.987 -3.08 -1.7643 -1.4603 -3.3484 -1.3254 -4.9701 0.2366 0.2533 -1.4518 0.8068 -2.3928 1.8145 -2.9188 -3.8186 0.2783 -6.3856 3.2723 -6.6357 6.4696 1.7259 8.5161 15.9398 8.5734 18.8639 -0.8289 z" fill="#fff"/>
<path d="m 539.612 1359.73 c 0.8885 -3.7144 -2.5376 -5.4698 -5.7623 -2.1513 2.6327 -0.8007 4.7681 -0.5411 5.7623 2.1513 z" fill="#fff"/>
</g>
<path d="m 253.055 1385.79 -4.8832 5.0809 c -3.9878 -2.5854 -9.3603 -2.1317 -12.8555 1.3612 -4.0176 4.016 -4.0166 10.5091 0.002 14.526 s 10.5168 4.018 14.5346 0.0002 c 3.4958 -3.4942 3.9509 -8.8623 1.3621 -12.8478 l 5.023 -4.9429 z" fill="none" stroke="#fff"/>
<path d="m 1156.61 801.956 h 8.8241 v 3.4947 h -8.8241 z" fill="#fff" stroke="#000" transform="matrix(.70711,.7071,-.70711,.7071,0,0)"/>
</g>
</svg>
