<svg viewBox="0 0 512 512" xmlns="http://www.w3.org/2000/svg">

<g transform="matrix(18.68858,0,0,18.68858,-11802.95273,-25864.05099)">
<path d="m644.0161,1396.2999-6.8268,1.1252 5.214.3189-6.5268,2.7382 5.6266-.5064-3.6012,3.301 6.4142-1.8757-.074,5.6267 2.9633-7.5396" fill="#fff"/>
<path d="m632.4516,1410.5283h.98l4.9114-6.0108-5.8914,2.5253z" fill="#fff"/>
<path d="m652,1387.9375-8.1875,8.2187c-.2755,1.4287.1223,2.5886 1.1312,3.1563l-11.5062,11.5h2.8125l19.2188-19.4063z" fill="#fff" stroke="#000"/>
<path d="m650.2728,1386.5409 8.0267-1.8138-1.8117,8.0352c-3.8765,1.8062-7.9245-2.5458-6.215-6.2216z" fill="#fff" stroke="#000"/>
<path d="m632.4606,1404.5822v-2.3603l5.4469-.9819z" fill="#fff"/>
<path d="m640.8139,1410.5335 2.0749-.0001 .02-5.2024z" fill="#fff"/>
<path d="m632.4606,1398.7921v-1.729l4.5451.8961z" fill="#fff"/>
<path d="m646.8795,1410.5335-1.3997-.0001 .5742-5.0963z" fill="#fff"/>
</g>
</svg>
