<svg viewBox="0 0 512 512" xmlns="http://www.w3.org/2000/svg">

<g transform="matrix(-18.68858,0,0,18.68858,10273.66226,-25182.73931)">
<path d="m526.5196,1362.5357c-.178-5.6665 7.2386-7.1013 9.5334-12.7585 2.1725,5.6564 9.3914,7.4322 9.5615,12.7585 .1814,5.6784-6.8868,6.7681-9.5615,2.16-2.6795,5.0308-9.3665,3.1567-9.5334-2.16z" stroke="#fff"/>
<path d="m535.9858,1367.0894 3.212,6.3806h-6.424z" fill="#fff"/>
<path d="m540.4377,1357.3914c.6037.41 1.0949,1.0448 1.2828,1.8794 .2862,1.2725-.0191,2.2983-.9844,2.5954-.8272.2587-1.6617-.3297-1.8794-1.2531-.117-.497-.0584-1.0331.179-1.4319-1.5228.6278-1.9821,1.7508-1.6109,3.4604-1.4642.206-1.307-1.6591-2.2389-2.2333-.0673,1.5739-1.8917,2.6537-2.8138,1.5498-.9073-1.086.1511-2.6113 1.5027-2.3293-1.3343-1.1044-2.5323-1.0024-3.7588.1789 .1916-1.0979.6102-1.8096 1.3722-2.2074-4.4625.3253-6.3121,5.3191-3.2814,8.4422 1.9096,1.91 5.0424,1.8781 7.0104-.09 .4183-.4182.7416-.8725.9844-1.3722 .8757,2.344 3.1112,3.6771 5.3398,3.013 5.8773-2.2331 4.0116-9.9753-1.1038-10.2024z" fill="#fff"/>
<path d="m536.4493,1359.7244c.6719-2.8091-1.9191-4.1367-4.3579-1.627 1.9911-.6055 3.606-.4092 4.3579,1.627z" fill="#fff"/>
</g>
</svg>
