<svg viewBox="0 0 512 512" xmlns="http://www.w3.org/2000/svg">

<g transform="matrix(18.68858,0,0,18.68858,-838.16174,-4108.68656)">
<path d="m 57.5261 230.648 c 2.4502 2.5604 3.5622 6.5737 3.5593 11.4117 3.8048 -1.2574 8.5398 -4.9421 10.0543 -10.4736 l -18.4922 -10.6762 -2.0246 5.1473 4.8984 3.6332" fill="#fff" fill-rule="evenodd"/>
<path d="m 53.3707 230.219 c -2.298 4.5551 -4.4092 9.1369 -7.8248 13.5324 v 3.0598 h 3.1867 c 2.3404 -5.039 5.3751 -9.7309 8.3611 -14.4472 l -3.7231 -2.145 z" fill="#fff" stroke="#000"/>
<path d="m 56.563 221.65 6.5248 3.767 -5.3022 7.7483 -5.4374 -3.1392 4.2147 -8.3762 z" fill="#fff" stroke="#000"/>
<path d="m 68.652 229.546 c -1.5712 4.1751 -4.817 7.4996 -8.3255 9.2115" fill="none" stroke="#000"/>
</g>
</svg>
