<svg viewBox="0 0 512 512" xmlns="http://www.w3.org/2000/svg">

<g transform="matrix(18.68858,0,0,18.68858,-4314.59533,-32682.11125)">
<path d="m 236.881 1750.25 c -3.5438 0.1239 -4.6652 2.5595 -4.5447 4.7966 0.3614 6.7097 5.494 3.948 7.0286 7.0123 1.5477 3.0906 -2.8315 4.8257 -4.5879 2.1412 -0.05 10.4305 13.5817 12.6986 18.6372 8.0489 4.0166 -3.9097 4.6043 -12.2746 1.3968 -16.2594 -0.3183 3.3281 -3.4001 1.9053 -2.7621 -1.1363 0.4267 -2.0341 -1.8254 -4.3096 -5.8176 -3.2794 3.0474 1.9126 2.4066 4.5061 0.4243 5.2035 s -4.0932 -0.3525 -3.4745 -2.3187 c 0.7499 -2.3834 -2.2193 -2.8674 -3.7726 -2.514 2.4395 2.8186 -0.8903 6.6337 -3.081 4.2372 -1.5894 -1.7387 -1.3325 -3.965 0.5536 -5.9319 z" stroke="#fff"/>
<g fill="#fff" transform="matrix(-.65656,.75427,-.75427,-.65656,1544.2834,2570.463)">
<path d="m 252.833 1506.64 c -0.5673 -0.7385 -1.1583 -1.436 -2.2358 -1.2908 l -2.9728 5.1489 c 0.3708 1.0037 1.1643 1.3603 2.2358 1.2909 z" fill="#fff"/>
<path d="m 250.263 1503.69 c -0.5547 -0.7603 -1.1347 -1.4767 -2.2359 -1.2909 l -3.5284 6.2899 c 0.3464 1.0458 1.143 1.3968 2.2358 1.2908 z" fill="#fff"/>
<path d="m 247.122 1501.98 c -0.5547 -0.7604 -1.1347 -1.4771 -2.2358 -1.2909 l -3.5802 6.3693 c 0.3465 1.0456 1.143 1.3971 2.2358 1.2909 z" fill="#fff"/>
<path d="m 243.427 1501.38 c -0.5547 -0.7606 -1.1347 -1.477 -2.2357 -1.2912 l -3.1842 5.5154 c 0.3465 1.0459 1.1431 1.3969 2.2359 1.2907 z" fill="#fff"/>
<path d="m 237.581 1507.36 c -0.7324 0.7182 -1.4163 1.4602 -1.1751 2.6169 l 5.6631 2.5429 c 1.0261 -0.5416 1.3362 -1.4565 1.175 -2.6171 z" fill="#fff"/>
</g>
</g>
</svg>
