<svg viewBox="0 0 512 512" xmlns="http://www.w3.org/2000/svg">

<g transform="matrix(18.68858,0,0,18.68858,2603.71036,-8598.28525)">
<g transform="matrix(.57019,.82151,-.82151,.57019,-83.63283,-291.98676)">
<path d="m620.6114,468.2394c-2.5006,2.5882-6.3521,3.5547-10.0325,4.1084-.9871-3.8648-.5049-7.4464 1.4583-10.7425 3.7521.8105 6.4845,3.4853 8.5742,6.6342z" fill="#fff"/>
<path d="m611.6063,470.6102c2.6987-.4497 5.6378-1.6333 8.3269-3.7263" fill="none" stroke="#000"/>
<path d="m615.0625,465.9246c0,.7076-.5736,1.2812-1.2812,1.2812s-1.2812-.5736-1.2812-1.2812 .5736-1.2812 1.2812-1.2812 1.2812.5736 1.2812,1.2812z" transform="matrix(1.32929,.18045,-.18045,1.32929,-118.01137,-264.10341)"/>
</g>
<path d="m-133.742,474.0413c-.73-2.137-1.1003-3.5292.1647-5.6931-2.3511.0517-3.2817-.8176-4.7329-2.6282 2.9412-1.742 6.3515-1.2918 7.6124,1.0049s-.1029,5.5744-3.0441,7.3164z" fill="#fff"/>
<path d="m-130.8157,466.973c4.9378-2.5132 10.6444,3.6486 12.3125,8.8125" fill="none" stroke="#fff"/>
<path d="m-114.6375,469.5568c-2.5501,2.7729-6.2739,5.3689-9.8463,6.0079 2.5096-2.8449 6.4069-5.0471 9.8463-6.0079z" fill="#fff" fill-rule="evenodd"/>
<path d="m-129.132,462.8636c1.5273,3.3087 1.7593,3.113.9071,6.6856-1.6101-3.2942-1.4091-3.1328-.9071-6.6856z" fill="#fff" fill-rule="evenodd"/>
<path d="m-123.0336,462.8775c-.5718,3.7235-1.058,5.2988-3.668,7.8204 .4981-3.7608 1.3477-5.1057 3.668-7.8204z" fill="#fff" fill-rule="evenodd"/>
<path d="m-117.5836,465.1723c-1.8851,3.2616-4.6289,6.4197-7.9765,7.8212 1.8299-3.3231 4.8287-6.1346 7.9765-7.8212z" fill="#fff" fill-rule="evenodd"/>
</g>
</svg>
