<svg viewBox="0 0 512 512" xmlns="http://www.w3.org/2000/svg">

<g transform="matrix(18.68858,0,0,18.68858,-12483.79842,-21126.9272)">
<path d="m674.7509,1155.0887c1.488-5.0151-1.677-7.3134-3.7365-11.0182-5.9272-10.6626 4.952-15.2143 12.1019-10.0032 2.9226,2.1301 6.9109,2.0645 8.3232-.1526" fill="none" stroke="#fff"/>
<path d="m691.2106,1138.6108c0,.9067-.735,1.6418-1.6417,1.6418s-1.6417-.7351-1.6417-1.6418 .735-1.6417 1.6417-1.6417 1.6417.735 1.6417,1.6417z" fill="#fff" transform="matrix(1.05814,0,0,1.05814,-37.01773,-71.63895)"/>
<path d="m691.2106,1138.6108c0,.9067-.735,1.6418-1.6417,1.6418s-1.6417-.7351-1.6417-1.6418 .735-1.6417 1.6417-1.6417 1.6417.735 1.6417,1.6417z" fill="#fff" transform="matrix(1.03488,0,0,1.03488,-38.69424,-23.31349)"/>
<path d="m681.7906,1154.0341c-2.3365-9.0101-11.9596-9.7912-10.232-20.1129" fill="none" stroke="#fff"/>
<path d="m692.8055,1140.5942c-9.2307,6.0557-12.0156-7.3176-20.545-7.186" fill="none" stroke="#fff"/>
<path d="m689.659,1151.3155c-6.0928-7.313-15.218-7.6062-17.6806-17.7266" fill="none" stroke="#fff"/>
<path d="m691.2106,1138.6108c0,.9067-.735,1.6418-1.6417,1.6418s-1.6417-.7351-1.6417-1.6418 .735-1.6417 1.6417-1.6417 1.6417.735 1.6417,1.6417z" fill="#fff" transform="matrix(.96512,0,0,.96512,24.47261,52.18942)"/>
<path d="m691.2106,1138.6108c0,.9067-.735,1.6418-1.6417,1.6418s-1.6417-.7351-1.6417-1.6418 .735-1.6417 1.6417-1.6417 1.6417.735 1.6417,1.6417z" fill="#fff" transform="matrix(1.01163,0,0,1.01163,-15.79118,2.59426)"/>
<path d="m691.2106,1138.6108c0,.9067-.735,1.6418-1.6417,1.6418s-1.6417-.7351-1.6417-1.6418 .735-1.6417 1.6417-1.6417 1.6417.735 1.6417,1.6417z" fill="#fff" transform="matrix(1.03488,0,0,1.03488,-20.98455,-37.6086)"/>
<path d="m674.9333,1151.9283c1.2239-1.7906 3.2023-1.9042 5.6694-.9719 1.2434-1.6163 4.5765-1.776 6.8573-1.8358-.1203-2.8969.7101-5.1919 2.1598-7.0373-2.2486-2.5857-.6762-4.5466.6749-7.0553" fill="none" stroke="#fff"/>
<path d="m673.6439,1148.1967h4.9291l4.8489-2.1763 2.4435-4.2762-.1527-6.6051" fill="none" stroke="#fff"/>
<path d="m671.819,1145.4347 3.8523-.1425 4.5434-1.5271 2.4053-4.0089-.0382-6.0325" fill="none" stroke="#fff"/>
<path d="m670.1876,1142.7315 3.3271.229 3.6838-1.2953 2.6726-4.2762-1.3745-5.1925" fill="none" stroke="#fff"/>
<path d="m669.4333,1139.6417 2.5188.5317 2.612-1.1044 2.3938-4.1454-.8284-2.8416" fill="none" stroke="#fff"/>
<path d="m687.698,1145.2923c-7.0091-1.7297-10.3722-7.8763-15.4247-11.6831" fill="none" stroke="#fff"/>
<path d="m688.4616,1138.8017c-4.5285.5281-8.7666-8.7813-15.4247-5.8034" fill="none" stroke="#fff"/>
<path d="m683.0407,1149.6826c-1.5824-4.5592-12.1151-5.6787-10.8438-14.4698" fill="none" stroke="#fff"/>
<path d="m677.3996,1150.41c-2.369-5.4194-9.8677-6.1893-6.5699-15.652" fill="none" stroke="#fff"/>
</g>
</svg>
