<svg viewBox="0 0 512 512" xmlns="http://www.w3.org/2000/svg">

<g transform="matrix(18.68858,0,0,18.68858,2603.71036,-8598.28525)">
<g transform="matrix(.57019,.82151,-.82151,.57019,-83.63283,-291.98676)">
<path d="m 620.611 468.239 c -2.5006 2.5882 -6.3521 3.5547 -10.0325 4.1084 -0.9871 -3.8648 -0.5049 -7.4464 1.4583 -10.7425 3.7521 0.8105 6.4845 3.4853 8.5742 6.6342 z" fill="#fff"/>
<path d="m 611.606 470.61 c 2.6987 -0.4497 5.6378 -1.6333 8.3269 -3.7263" fill="none" stroke="#000"/>
<path d="m 615.062 465.925 c 0 0.7076 -0.5736 1.2812 -1.2812 1.2812 s -1.2812 -0.5736 -1.2812 -1.2812 0.5736 -1.2812 1.2812 -1.2812 1.2812 0.5736 1.2812 1.2812 z" transform="matrix(1.32929,.18045,-.18045,1.32929,-118.01137,-264.10341)"/>
</g>
<path d="m -133.742 474.041 c -0.73 -2.137 -1.1003 -3.5292 0.1647 -5.6931 -2.3511 0.0517 -3.2817 -0.8176 -4.7329 -2.6282 2.9412 -1.742 6.3515 -1.2918 7.6124 1.0049 s -0.1029 5.5744 -3.0441 7.3164 z" fill="#fff"/>
<path d="m -130.816 466.973 c 4.9378 -2.5132 10.6444 3.6486 12.3125 8.8125" fill="none" stroke="#fff"/>
<path d="m -114.638 469.557 c -2.5501 2.7729 -6.2739 5.3689 -9.8463 6.0079 2.5096 -2.8449 6.4069 -5.0471 9.8463 -6.0079 z" fill="#fff" fill-rule="evenodd"/>
<path d="m -129.132 462.864 c 1.5273 3.3087 1.7593 3.113 0.9071 6.6856 -1.6101 -3.2942 -1.4091 -3.1328 -0.9071 -6.6856 z" fill="#fff" fill-rule="evenodd"/>
<path d="m -123.034 462.877 c -0.5718 3.7235 -1.058 5.2988 -3.668 7.8204 0.4981 -3.7608 1.3477 -5.1057 3.668 -7.8204 z" fill="#fff" fill-rule="evenodd"/>
<path d="m -117.584 465.172 c -1.8851 3.2616 -4.6289 6.4197 -7.9765 7.8212 1.8299 -3.3231 4.8287 -6.1346 7.9765 -7.8212 z" fill="#fff" fill-rule="evenodd"/>
</g>
</svg>
