<svg viewBox="0 0 512 512" xmlns="http://www.w3.org/2000/svg">

<g transform="matrix(18.68858,0,0,18.68858,713.79153,-13004.96853)">
<path d="m -33.0363 703.784 c 6.5767 -1.9087 15.9481 -1.0401 19.7294 -0.003 1.1198 19.35 -20.6797 23.4608 -19.7294 0.003 z" fill="#fff" fill-rule="evenodd" stroke="#000"/>
<path d="m -34.076 706.89 0.0012 -7.8812 c 1.1251 -1.0837 4.0582 -1.544 5.128 -0.8021 l -0.0012 8.6836 -5.128 -0.0003 z" fill="#fff" stroke="#000"/>
<path d="m -28.9477 709.004 0.0012 -11.6229 c 1.1251 -0.9718 4.0582 -1.1404 5.128 -0.2921 l -0.0012 11.935" fill="#fff" stroke="#000"/>
<path d="m -23.8198 709.074 0.0012 -11.5283 c 1.1252 -0.8279 4.0582 -0.6214 5.128 0.3638 l -0.0012 10.9276" fill="#fff" stroke="#000"/>
<path d="m -18.6522 708.8 0.0012 -10.3071 c 1.1252 -0.7959 4.0582 -0.506 5.128 0.5095 l -0.1194 9.51" fill="#fff" stroke="#000"/>
<path d="m -20.6693 706.527 c -4.6393 1.3962 -9.2127 1.7302 -13.4684 0.7187 -2.447 -7.4767 14.3857 -6.194 13.4684 -0.7187 z" fill="#fff" stroke="#000"/>
<path d="m -34.6617 708.423 c 6.6875 1.5112 14.3685 1.7728 21.7961 -0.5607" fill="none" stroke="#000"/>
<path d="m -24.0909 718.223 c 1.1657 -7.2365 -2.5088 -14.3217 -10.9833 -11.257 0.513 6.2172 4.6196 12.2831 10.9833 11.257 z" fill="#fff" fill-rule="evenodd" stroke="#000"/>
<path d="m -31.5142 721.402 0.0006 -5.2982 c 3.5661 1.7533 11.1163 1.1039 15.2504 -0.002 l -0.0007 5.2982 c -3.9304 1.7125 -12.1558 1.6675 -15.2504 0.002 z" fill="#fff" stroke="#000"/>
</g>
</svg>
