<svg viewBox="0 0 512 512" xmlns="http://www.w3.org/2000/svg">

<g transform="matrix(18.68858,0,0,18.68858,713.79153,-13004.96853)">
<path d="m-33.0363,703.7839c6.5767-1.9087 15.9481-1.0401 19.7294-.003 1.1198,19.35-20.6797,23.4608-19.7294.003z" fill="#fff" fill-rule="evenodd" stroke="#000"/>
<path d="m-34.076,706.8905 .0012-7.8812c1.1251-1.0837 4.0582-1.544 5.128-.8021l-.0012,8.6836-5.128-.0003z" fill="#fff" stroke="#000"/>
<path d="m-28.9477,709.0038 .0012-11.6229c1.1251-.9718 4.0582-1.1404 5.128-.2921l-.0012,11.935" fill="#fff" stroke="#000"/>
<path d="m-23.8198,709.0736 .0012-11.5283c1.1252-.8279 4.0582-.6214 5.128.3638l-.0012,10.9276" fill="#fff" stroke="#000"/>
<path d="m-18.6522,708.7998 .0012-10.3071c1.1252-.7959 4.0582-.506 5.128.5095l-.1194,9.51" fill="#fff" stroke="#000"/>
<path d="m-20.6693,706.5268c-4.6393,1.3962-9.2127,1.7302-13.4684.7187-2.447-7.4767 14.3857-6.194 13.4684-.7187z" fill="#fff" stroke="#000"/>
<path d="m-34.6617,708.4234c6.6875,1.5112 14.3685,1.7728 21.7961-.5607" fill="none" stroke="#000"/>
<path d="m-24.0909,718.2229c1.1657-7.2365-2.5088-14.3217-10.9833-11.257 .513,6.2172 4.6196,12.2831 10.9833,11.257z" fill="#fff" fill-rule="evenodd" stroke="#000"/>
<path d="m-31.5142,721.402 .0006-5.2982c3.5661,1.7533 11.1163,1.1039 15.2504-.002l-.0007,5.2982c-3.9304,1.7125-12.1558,1.6675-15.2504.002z" fill="#fff" stroke="#000"/>
</g>
</svg>
