<svg viewBox="0 0 512 512" xmlns="http://www.w3.org/2000/svg">

<g transform="matrix(18.68858,0,0,18.68858,-12483.77303,-27220.26218)">
<path d="m680.7517,1464.6574 3.6225,2.0916-2.9526,5.1141-.0113,9.3698c0,1.8181-1.1427,2.621-2.9969,2.115-3.4771-.9493-6.5618-2.5777-9.0564-5.2287-1.2887-1.3694-1.05-2.9383.3528-3.7481l8.1047-4.626 2.9372-5.0875z" fill="#fff" stroke="#000"/>
<path d="m686.2188,1458.5938c-1.3068-.4067-3.0779-.219-3.6562,1.0624-.8396-1.1162-2.5612-.748-2.9533.5271-.3921,1.275.7204,2.6473 2.3908,2.5979-.1647,1.8182 2.3706,2.9263 4.375,2.0938-.0253,1.0331.4448,2.2395 1.625,2.4062-.3421.9691.1662,2.25 1.5312,2.25 1.684,0 2.0346-1.9432 1.125-2.8437 .5069-.556.6867-1.3466.5938-2.0937 .9248.6476 1.8508-.349 1.8068-1.0746-.0811-1.336-1.0897-1.9246-1.8068-1.3002-.4708-1.4777-1.9928-1.7126-2.8125-.875 .0722-.3973.0107-.7012-.2812-1.0313 1.2096-.3051 1.012-2.0172.2504-2.5098-.9312-.6022-1.8973-.197-2.1879.7909z" fill="#fff"/>
<path d="m684.4424,1467.9059c-2.0979,0-3.5303-1.1843-4.3237-2.4964-.9006-1.4895.823-3.0636 1.6683-1.6683 .7061,1.1654 1.7173,1.7632 3.266,1.8857 1.6653.1318 1.0535,2.2753-.6107,2.279z" fill="#fff" stroke="#000"/>
<path d="m691.0918,1473.2874c-1.9024,0-1.8873-2.8808 0-2.8808s1.9024,2.8808 0,2.8808z" fill="#fff"/>
<path d="m693.482,1467.658c-1.2244,0-1.2146-1.8543 0-1.8543s1.2244,1.8543 0,1.8543z" fill="#fff"/>
<path d="m691.2036,1459.6494c-1.2244,0-1.2146-1.8543 0-1.8543s1.2244,1.8543 0,1.8543z" fill="#fff"/>
<path d="m677.4964,1462.3775c-1.2244,0-1.2146-1.8543 0-1.8543s1.2244,1.8543 0,1.8543z" fill="#fff"/>
<path d="m678.7542,1471.2854-7.3039,4.2303c-2.3482,1.3557 3.7715,4.7208 6.487,5.6483" fill="none" stroke="#000"/>
<path d="m680.571,1480.8774-8.9554-4.1201c1.8272,2.7382 7.107,6.9704 8.9554,4.1201z" fill="#fff"/>
<path d="m679.1953,1481.222c1.8941-1.0922-3.8196-4.5383-5.5672-5.1412" fill="none" stroke="#000"/>
<path d="m681.5728,1465.0941-1.5481,2.8779" fill="none" stroke="#fff"/>
<path d="m679.1039,1482.0553-2.1981-3.5766c1.3761.7169 3.5471,2.7053 2.1981,3.5766z" fill="#fff"/>
</g>
</svg>
