<svg viewBox="0 0 512 512" xmlns="http://www.w3.org/2000/svg">

<g transform="matrix(18.68858,0,0,18.68858,-12483.77303,-27220.26218)">
<path d="m 680.752 1464.66 3.6225 2.0916 -2.9526 5.1141 -0.0113 9.3698 c 0 1.8181 -1.1427 2.621 -2.9969 2.115 -3.4771 -0.9493 -6.5618 -2.5777 -9.0564 -5.2287 -1.2887 -1.3694 -1.05 -2.9383 0.3528 -3.7481 l 8.1047 -4.626 2.9372 -5.0875 z" fill="#fff" stroke="#000"/>
<path d="m 686.219 1458.59 c -1.3068 -0.4067 -3.0779 -0.219 -3.6562 1.0624 -0.8396 -1.1162 -2.5612 -0.748 -2.9533 0.5271 -0.3921 1.275 0.7204 2.6473 2.3908 2.5979 -0.1647 1.8182 2.3706 2.9263 4.375 2.0938 -0.0253 1.0331 0.4448 2.2395 1.625 2.4062 -0.3421 0.9691 0.1662 2.25 1.5312 2.25 1.684 0 2.0346 -1.9432 1.125 -2.8437 0.5069 -0.556 0.6867 -1.3466 0.5938 -2.0937 0.9248 0.6476 1.8508 -0.349 1.8068 -1.0746 -0.0811 -1.336 -1.0897 -1.9246 -1.8068 -1.3002 -0.4708 -1.4777 -1.9928 -1.7126 -2.8125 -0.875 0.0722 -0.3973 0.0107 -0.7012 -0.2812 -1.0313 1.2096 -0.3051 1.012 -2.0172 0.2504 -2.5098 -0.9312 -0.6022 -1.8973 -0.197 -2.1879 0.7909 z" fill="#fff"/>
<path d="m 684.442 1467.91 c -2.0979 0 -3.5303 -1.1843 -4.3237 -2.4964 -0.9006 -1.4895 0.823 -3.0636 1.6683 -1.6683 0.7061 1.1654 1.7173 1.7632 3.266 1.8857 1.6653 0.1318 1.0535 2.2753 -0.6107 2.279 z" fill="#fff" stroke="#000"/>
<path d="m 691.092 1473.29 c -1.9024 0 -1.8873 -2.8808 0 -2.8808 s 1.9024 2.8808 0 2.8808 z" fill="#fff"/>
<path d="m 693.482 1467.66 c -1.2244 0 -1.2146 -1.8543 0 -1.8543 s 1.2244 1.8543 0 1.8543 z" fill="#fff"/>
<path d="m 691.204 1459.65 c -1.2244 0 -1.2146 -1.8543 0 -1.8543 s 1.2244 1.8543 0 1.8543 z" fill="#fff"/>
<path d="m 677.496 1462.38 c -1.2244 0 -1.2146 -1.8543 0 -1.8543 s 1.2244 1.8543 0 1.8543 z" fill="#fff"/>
<path d="m 678.754 1471.29 -7.3039 4.2303 c -2.3482 1.3557 3.7715 4.7208 6.487 5.6483" fill="none" stroke="#000"/>
<path d="m 680.571 1480.88 -8.9554 -4.1201 c 1.8272 2.7382 7.107 6.9704 8.9554 4.1201 z" fill="#fff"/>
<path d="m 679.195 1481.22 c 1.8941 -1.0922 -3.8196 -4.5383 -5.5672 -5.1412" fill="none" stroke="#000"/>
<path d="m 681.573 1465.09 -1.5481 2.8779" fill="none" stroke="#fff"/>
<path d="m 679.104 1482.06 -2.1981 -3.5766 c 1.3761 0.7169 3.5471 2.7053 2.1981 3.5766 z" fill="#fff"/>
</g>
</svg>
