<svg xmlns="http://www.w3.org/2000/svg" viewBox="0 0 512 512">
<g transform="matrix(15 0 0 15 -3764 -1664)">
<use width="744.094" height="1052.362" transform="translate(288 108)"/>
<path fill="#fff" d="m281.8525,136c-1.5041,2.6059-8.8161-5.2921-11.4212-3.7877-2.6051,1.5045 .5768,11.7877-2.4313,11.7877-3.0081,0 .1738-10.2832-2.4313-11.7877-2.6051-1.5045-9.9171,6.3935-11.4212,3.7877-1.5041-2.6059 8.9899-4.991 8.9899-8 0-3.009-10.4939-5.3941-8.9899-8 1.5041-2.6059 8.8161,5.2921 11.4212,3.7876 2.6051-1.5045-.5768-11.7877 2.4313-11.7877 3.0081,0-.1738,10.2832 2.4313,11.7877 2.6051,1.5045 9.9171-6.3935 11.4212-3.7876 1.5041,2.6059-8.9898,4.991-8.9898,8 0,3.009 10.4939,5.3941 8.9898,8z"/>
</g>
</svg>
