<svg viewBox="0 0 512 512" xmlns="http://www.w3.org/2000/svg">

<g transform="matrix(18.68858,0,0,18.68858,-4315.25878,-29939.39394)">
<g transform="matrix(0,1,1,0,-761.50818,1830.6413)">
<path d="m-221.6846,993.5505c5.5684,3.7335-.4274,12.5279-4.6201,7.1927-.1757,4.1203 1.4764,4.4276 4.6081,4.8458 1.9869.2653 4.229,2.2613 3.0379,3.6245-1.2021,1.3758-2.5235.28-3.5145-1.5091 .2514,2.1309-.487,3.8369-1.8683,1.9189 2.1116,8.1843 15.9592,11.0136 19.121,6.6644 3.9034-5.3694-1.1065-18.9815-8.288-20.2438 4.6019,4.4722-.0976,8.7683-3.6553,1.124-.9993-2.1472-2.4063-3.9263-4.8207-3.6174z" fill="#fff"/>
<path d="m-864.8027-565.0737h2.7407v21.1874h-2.7407z" transform="matrix(.70711,-.70711,-.70711,-.70711,0,0)"/>
<path d="m-217.7291,1000.7148-7.8336-7.8336" fill="none" stroke="#fff"/>
<path d="m-220.1124,1003.5899-7.9941-7.9941" fill="none" stroke="#fff"/>
<path d="m-227.9876,1000.1677v-7.3391h9.1549" fill="none" stroke="#000"/>
</g>
<path d="m252.7457,1623.9483-3.5889-9.3113-1.2107.424-.6948,3.392-3.3915.6951-.4385,1.2254 9.3244,3.5748z" fill="#fff" stroke="#000"/>
</g>
</svg>
