<svg viewBox="0 0 512 512" xmlns="http://www.w3.org/2000/svg">

<g transform="matrix(18.68858,0,0,18.68858,-8400.17682,-32681.44968)">
<g transform="matrix(1.04116,-.27898,.27898,1.04116,385.90848,702.83528)">
<path d="m -189.442 954.64 c -0.9424 0.5172 -2.2411 2.5801 -1.7859 4.375 1.8539 7.3113 -2.6737 9.4738 -3.0848 3.9375 -3.4923 5.5169 -1.5407 14.3515 7.9674 16.8992 12.021 3.221 15.4501 -11.8645 8.6431 -15.7641 1.1528 2.2413 -0.9438 4.0056 -3.439 2.9697 -3.085 -1.2808 -2.5039 -4.4378 -1.5445 -5.5252 1.8136 -2.0557 0.4621 -5.0945 -3.2227 -5.842 3.9722 5.0347 -4.6376 7.1151 -3.5337 -1.0501 z" fill="#fff"/>
</g>
<path d="m 462.627 1761.94 -2.935 2.9351 c -1.1935 1.1914 -1.1516 3.1244 0.0431 4.3162 l 2.8918 2.935 c 1.1949 1.1897 3.1652 1.1915 4.3594 0 l 2.8919 -2.935 -0.9927 -0.9494 -2.8918 2.8917 c -0.6689 0.6675 -1.7037 0.6672 -2.3739 0 l -2.935 -2.935 c -0.6705 -0.6689 -0.6681 -1.707 0 -2.3739 l 2.935 -2.8918 -0.9927 -0.9929 z"/>
<path d="m 465.692 1765.09 -9.1935 9.1935 0.9927 0.9495 9.1935 -9.1504 -0.9927 -0.9926 z"/>
<path d="m 461.41 1762.2 3.068 -1.1296 -1.132 3.0615 z"/>
<path d="m 464.844 1764.48 4.0565 -1.4937 -1.4968 4.0479 z"/>
<path d="m 467.895 1768.29 3.0681 -1.1298 -1.132 3.0616 z"/>
</g>
</svg>
