<svg viewBox="0 0 512 512" xmlns="http://www.w3.org/2000/svg">

<g transform="matrix(18.68858,0,0,18.68858,-7036.11519,-37446.00015)">
<path d="m377.4871,2019.1436 3.3379-4.0727c-.1432-3.5141 2.642-5.6595 5.9433-5.2869-4.0224-1.4424-9.4336-.7103-9.2812,9.3596z" fill="#fff"/>
<path d="m377.5163,2020.3637c-.2309,5.3226 2.9946,8.0028 8.5172,9.501 5.697,1.5451 12.1071-1.7708 13.6037-7.3154 1.8962-7.0257-3.0015-10.6188-8.3137-13.4781 3.0959,4.0569 3.1078,6.883 2.8521,9.8156-1.3174-4.6571-6.0557-7.0557-10.1188-5.4589 2.8668-.1187 5.5707,1.707 6.358,4.5337 .9043,3.2478-.9988,6.6866-4.3428,7.3909-3.6555.7702-6.9106-1.6544-8.5555-4.9892z" fill="#fff"/>
<path d="m876.4616,1918.5428c0,1.32-1.07,2.3901-2.39,2.3901s-2.39-1.0701-2.39-2.3901 1.0701-2.39 2.39-2.39 2.39,1.0701 2.39,2.39z" fill="#fff" transform="matrix(.54005,-2.00083,1.77394,.48129,-3493.4841,2845.275)"/>
<path d="m381.6594,2024.2-.5765-.7577c2.2973-.4637 3.1043-3.0139 2.0488-4.8717 2.1904,1.623 1.3139,5.0199-1.4723,5.6294z"/>
<path d="m391.7026,2029.8098c7.7467-2.0549 12.6391-10.42 10.6765-18.2008-1.3501,5.1961-5.4154,8.9688-10.2939,10.2312" fill="#fff"/>
<path d="m399.7772,2019.3981c2.9622-5.1017 1.2281-11.6389-3.843-14.6671 2.0017,3.407 1.8495,7.4866-.038,10.6827" fill="#fff"/>
<path d="m385.2602,2020.7616c-.0479-2.889-3.8965-6.0095-6.7594-1.5553 .3742-4.3949 7.9208-5.0552 6.7594,1.5553z"/>
<path d="m876.4616,1918.5428c0,1.32-1.07,2.3901-2.39,2.3901s-2.39-1.0701-2.39-2.3901 1.0701-2.39 2.39-2.39 2.39,1.0701 2.39,2.39z" transform="matrix(.38946,-.43052,.27885,.31864,-494.6294,1785.6056)"/>
<path d="m376.9931,2020.0386c.08-3.1943 2.1319-5.1894 4.9522-5.7141" fill="none" stroke="#000"/>
<path d="m394.5253,2012.3054c4.2642,7.2019 1.9582,16.4026-11.1877,15.2508 12.1844,4.4446 18.7119-7.5842 11.1877-15.2508z"/>
<path d="m393.787,2025.2494c3.6425-3.0621 5.9121-8.8386 5.376-13.7318 2.5773,5.1458-1.1809,13.5032-5.9077,15.6903z"/>
<path d="m386.9075,2026.2514c3.1077-.4406 6.6589-4.7778 5.2514-8.1791 3.0614,2.4925.765,8.3337-5.2514,8.1791z"/>
<path d="m382.6813,2025.1614c-3.3445-1.1015-4.093-3.9938-2.3281-5.4501-.7889,1.4987-7e-05,4.0788 3.446,4.7112"/>
</g>
</svg>
