<svg viewBox="0 0 512 512" xmlns="http://www.w3.org/2000/svg">

<g transform="matrix(18.68858,0,0,18.68858,-1595.81617,-38782.5826)">
<path d="m92.5931,2082.4678c-2.4273.1869-4.8956,1.2194-6.6875,2.5626l.2042,16.8895 26.2333-.099v-14.2902c-1.3023-1.4117-2.896-2.58-4.6875-3.4063 1.0901.9898 1.9713,2.2189 2.5312,3.5937-2.8754-.8298-6.0818-.4312-8.0938.9376 4.4231-1.2117 7.9494,3.2161 7.4688,6.8124-.3663-1.6323-1.5226-2.9605-3.0312-3.6562 2.2853,2.3453.3776,5.9158-2.0312,6.5 2.1309-2.5303 1.4748-6.8773-1.293-7.9655 1.8115,2.3554.4013,5.1749-1.8008,6.6843 .1197-.9961.1225-2.2045-1.0625-2.5626 .888,1.6562-.837,3.3413-2.1875,2.9634-2.0639-.5776-2.3596-1.9338-1.3125-3.4321-2.4084.5838-2.5117,2.7326-1.0625,4.4063-3.5843-.9547-2.5928-4.74-.5648-5.8051-1.7106-.1014-3.3864.9769-4.154,2.9925 .1676-3.1595 2.1679-5.5509 5.1875-4.625-2.779-1.3525-4.8733-1.3884-7.0625.2813 .0721-1.7504.6382-3.3939 1.5625-4.8437-1.0305.8646-1.9363,1.8559-2.6875,2.9374 .394-3.4531 2.7866-6.1495 5.9375-6.875-.461-.029-.9359-.036-1.4062,0z" fill="#fff"/>
<path d="m87.075,2085.7713c1.6869-4.9171 6.5752-8.124 10.4188-5.2675-3.1584-3.9249-8.2279-3.2825-11.3902-1.1954l-.0723,6.5696z" fill="#fff"/>
<path d="m112.2221,2083.052c-3.1274-2.706-6.3414-2.9626-8.832-.9319 2.1782-3.4936 5.8757-3.5149 8.9836-2.929" fill="#fff"/>
<path d="m85.901,2075.7061h26.4314v26.4314h-26.4314z" fill="none" stroke="#000"/>
<path d="m96.6113,2089.268c-4.0614-.7797-8.2578,1.72-9.3994,4.7239 .1396-4.1146 4.6158-7.0967 7.6002-8.1432"/>
<path d="m105.3254,2087.3371c2.6731.2979 4.7984,2.6592 4.9289,4.7451 .7055-2.5831-1.5004-5.2977-3.1527-6.5227"/>
<path d="m98.7739,2090.5801c2.8491-.8091 4.7517,1.9362 3.4752,4.1702-.4108-1.9026-1.5397-3.3707-3.4752-4.1702z" fill="#fff"/>
<path d="m101.1706,2086.1317c.9769-3.6517 6.4004-2.49 6.8547,1.3128-2.397-2.4311-4.937-2.2965-6.8547-1.3128z" fill="#fff"/>
</g>
</svg>
