<svg viewBox="0 0 512 512" xmlns="http://www.w3.org/2000/svg">

<g transform="matrix(18.68858,0,0,18.68858,-7036.11519,-37446.00015)">
<path d="m 377.487 2019.14 3.3379 -4.0727 c -0.1432 -3.5141 2.642 -5.6595 5.9433 -5.2869 -4.0224 -1.4424 -9.4336 -0.7103 -9.2812 9.3596 z" fill="#fff"/>
<path d="m 377.516 2020.36 c -0.2309 5.3226 2.9946 8.0028 8.5172 9.501 5.697 1.5451 12.1071 -1.7708 13.6037 -7.3154 1.8962 -7.0257 -3.0015 -10.6188 -8.3137 -13.4781 3.0959 4.0569 3.1078 6.883 2.8521 9.8156 -1.3174 -4.6571 -6.0557 -7.0557 -10.1188 -5.4589 2.8668 -0.1187 5.5707 1.707 6.358 4.5337 0.9043 3.2478 -0.9988 6.6866 -4.3428 7.3909 -3.6555 0.7702 -6.9106 -1.6544 -8.5555 -4.9892 z" fill="#fff"/>
<path d="m 876.462 1918.54 c 0 1.32 -1.07 2.3901 -2.39 2.3901 s -2.39 -1.0701 -2.39 -2.3901 1.0701 -2.39 2.39 -2.39 2.39 1.0701 2.39 2.39 z" fill="#fff" transform="matrix(.54005,-2.00083,1.77394,.48129,-3493.4841,2845.275)"/>
<path d="m 381.659 2024.2 -0.5765 -0.7577 c 2.2973 -0.4637 3.1043 -3.0139 2.0488 -4.8717 2.1904 1.623 1.3139 5.0199 -1.4723 5.6294 z"/>
<path d="m 391.703 2029.81 c 7.7467 -2.0549 12.6391 -10.42 10.6765 -18.2008 -1.3501 5.1961 -5.4154 8.9688 -10.2939 10.2312" fill="#fff"/>
<path d="m 399.777 2019.4 c 2.9622 -5.1017 1.2281 -11.6389 -3.843 -14.6671 2.0017 3.407 1.8495 7.4866 -0.038 10.6827" fill="#fff"/>
<path d="m 385.26 2020.76 c -0.0479 -2.889 -3.8965 -6.0095 -6.7594 -1.5553 0.3742 -4.3949 7.9208 -5.0552 6.7594 1.5553 z"/>
<path d="m 876.462 1918.54 c 0 1.32 -1.07 2.3901 -2.39 2.3901 s -2.39 -1.0701 -2.39 -2.3901 1.0701 -2.39 2.39 -2.39 2.39 1.0701 2.39 2.39 z" transform="matrix(.38946,-.43052,.27885,.31864,-494.6294,1785.6056)"/>
<path d="m 376.993 2020.04 c 0.08 -3.1943 2.1319 -5.1894 4.9522 -5.7141" fill="none" stroke="#000"/>
<path d="m 394.525 2012.31 c 4.2642 7.2019 1.9582 16.4026 -11.1877 15.2508 12.1844 4.4446 18.7119 -7.5842 11.1877 -15.2508 z"/>
<path d="m 393.787 2025.25 c 3.6425 -3.0621 5.9121 -8.8386 5.376 -13.7318 2.5773 5.1458 -1.1809 13.5032 -5.9077 15.6903 z"/>
<path d="m 386.908 2026.25 c 3.1077 -0.4406 6.6589 -4.7778 5.2514 -8.1791 3.0614 2.4925 0.765 8.3337 -5.2514 8.1791 z"/>
<path d="m 382.681 2025.16 c -3.3445 -1.1015 -4.093 -3.9938 -2.3281 -5.4501 -0.7889 1.4987 -7e-05 4.0788 3.446 4.7112"/>
</g>
</svg>
