<svg viewBox="0 0 512 512" xmlns="http://www.w3.org/2000/svg">

<g transform="matrix(18.68858,0,0,18.68858,-4021.94978,-11023.30251)">
<path d="m230.5312,590.6562c1.9128,1.9471 1.935,5.0668-.1013,6.0347-2.2126,1.0517-5.3217-.301-3.8987-4.0034-3.9685,2.4168-4.7748,6.4209-3.4062,10.2812-1.6209-1.2581-4.8359-3.6125-2.5625-6.2812-3.0499.6072-3.8445,3.2034-2.25,4.8438 2.6341,2.7098.6966,6.3615-1.5,2.5-1.3078,6.5866 8.2256,8.0617 8.3125,12.375h7.125c-2.4493-6.6374 7.1976-7.1369 8.6875-11.1562 1.4354-3.8723.3956-5.8552-2.7812-8.4375 2.5811,4.1957-1.064,6.2384-2.0625,4.5938-2.0385-3.3575 3.7566-8.1638-5.5625-10.75z" fill="#fff" fill-rule="evenodd"/>
<g transform="matrix(1.12616,0,0,1.12616,-29.18931,-77.86805)">
<path d="m230.1945,600.375c-3.0628,2.0844-3.7128,5.5855-1.875,7.3438l2.125-4.9375 4.0625-1.0625c-3.0825,1.9646-5.0298,4.5458-3.4688,6.875l2.75-3.8438 5,.75c-5.9521,1.0346-7.4697,4.8439-8.25,8.375 .1869,1.0586.7159,2.2002 1.3438,3.3438h-5.125c-.0837-3.7188-2.8243-5.6971-5.7812-8.1562l1.4375-4.4375c1.0429,7.8621 4.1281,5.0904 3.5938-2.75l4.1875-1.5z" fill-rule="evenodd"/>
<path d="m222.4804,604.1734c.1908,1.2971.6936,5.0184 3.6828,6.3891-3.3116.2953-3.9415-4.3708-3.6828-6.3891z" fill="#fff" fill-rule="evenodd"/>
</g>
</g>
</svg>
