<svg viewBox="0 0 512 512" xmlns="http://www.w3.org/2000/svg">

<g transform="matrix(18.68858,0,0,18.68858,-8400.17682,-32681.44968)">
<g transform="matrix(1.04116,-.27898,.27898,1.04116,385.90848,702.83528)">
<path d="m-189.4423,954.6402c-.9424.5172-2.2411,2.5801-1.7859,4.375 1.8539,7.3113-2.6737,9.4738-3.0848,3.9375-3.4923,5.5169-1.5407,14.3515 7.9674,16.8992 12.021,3.221 15.4501-11.8645 8.6431-15.7641 1.1528,2.2413-.9438,4.0056-3.439,2.9697-3.085-1.2808-2.5039-4.4378-1.5445-5.5252 1.8136-2.0557.4621-5.0945-3.2227-5.842 3.9722,5.0347-4.6376,7.1151-3.5337-1.0501z" fill="#fff"/>
</g>
<path d="m462.6271,1761.9425-2.935,2.9351c-1.1935,1.1914-1.1516,3.1244.0431,4.3162l2.8918,2.935c1.1949,1.1897 3.1652,1.1915 4.3594,0l2.8919-2.935-.9927-.9494-2.8918,2.8917c-.6689.6675-1.7037.6672-2.3739,0l-2.935-2.935c-.6705-.6689-.6681-1.707 0-2.3739l2.935-2.8918-.9927-.9929z"/>
<path d="m465.6916,1765.0935-9.1935,9.1935 .9927.9495 9.1935-9.1504-.9927-.9926z"/>
<path d="m461.4096,1762.2007 3.068-1.1296-1.132,3.0615z"/>
<path d="m464.8438,1764.4752 4.0565-1.4937-1.4968,4.0479z"/>
<path d="m467.8951,1768.2945 3.0681-1.1298-1.132,3.0616z"/>
</g>
</svg>
