<svg xmlns="http://www.w3.org/2000/svg" viewBox="0 0 512 512">
<path fill="#fff" d="m245.051,15.5135c34.2878,48.8157-23.5358,320.542-90.3034,136.7191-47.9517,172.8789-115.7913,180.2869-115.8713,100.3194-71.5996,79.3115 43.8237,220.7666 87.3755,243.9345h52.1277c-45.9197-40.0158-76.7835-77.9995-82.1755-135.9672 47.3117,9.4239 71.8555,20.9599 81.2635-62.0476 60.7356,86.5915 100.9434-49.3757 137.1831-107.1193-1.648,40.3197-3.344,93.4554 22.8478,129.8872 8.736,12.1439 33.2318,16.1119 54.7357,15.8079-9.9199,16.0799-44.8477,69.3756-17.0079,89.1994 27.8398,19.8239 33.0718-.384 25.8558,16.1759-13.2639,20.8799-22.9918,39.3757-59.0716,54.0637h56.0636c59.4396-18.7199 111.8073-91.6634 94.6074-135.5351-22.0159,18.6559-43.7757,30.8958-61.2956,29.5358 49.1197-72.0795 37.8398-145.9031 14.7519-221.3426-20.2239,72.3835-33.4878,82.4955-54.5757,99.5194 29.1038-68.6556-85.4395-214.4467-146.5111-253.1504z"/>
</svg>
