<svg xmlns="http://www.w3.org/2000/svg" viewBox="0 0 512 512">
<g transform="matrix(15 0 0 15 15.99891 -9889.4324)">
<use width="744.094" height="1052.362" transform="translate(36 656.36217)"/>
</g>
<g fill="#fff" transform="matrix(2.25523 0 0 1.875 -309.67166 724.11839)">
<path color="#000" d="m210.9188-321.663c0,48 39.9072,56 39.9072,96 0,16-13.3024,40-33.256,40-19.9536,0-33.256-24-19.9536-64-19.9536,16-26.6048,32-26.6048,48 0,40 33.256,80 79.8145,80 46.5584,0 79.8145-24 79.8145-72 .2969-71-68.0186-94.7179-86.4657-127.9999-13.3024-24-6.6512-40 6.6512-56-26.6048,8-39.9072,30.4-39.9072,56z"/>
</g>
</svg>
