<svg viewBox="0 0 512 512" xmlns="http://www.w3.org/2000/svg">

<g transform="matrix(18.68858,0,0,18.68858,-2955.79947,-41513.91016)">
<path d="m178.9184,2230.8628c0,1.3873-.6651,2.512-1.4856,2.512s-1.4856-1.1247-1.4856-2.512 .6651-2.512 1.4856-2.512 1.4856,1.1247 1.4856,2.512z" fill="none" stroke="#fff" stroke-width=".863" transform="matrix(1.15914,0,0,1.15849,-23.30688,-352.79739)"/>
<path d="m172.8564,2223.0998 10.1724,5.8698" fill="none" stroke="#fff"/>
<path d="m1263.8215,1836.74h4.1615v14.7744h-4.1615z" fill="#fff" stroke="#000" transform="matrix(.86615,.49979,-.50021,.8659,0,0)"/>
<path d="m1260.7251,1845.8356h10.1819v16.281h-10.1819z" fill="#fff" stroke="#000" transform="matrix(.86615,.49979,-.50021,.8659,0,0)"/>
<path d="m175.9795,2225.9671c-2.9871-1.7236-6.5016-1.2332-7.8463,1.0947l-1.7961,3.1091 10.8208,6.244 1.7961-3.1091c1.3448-2.328.0125-5.6151-2.9745-7.3387z" fill="#fff" stroke="#000"/>
<path d="m163.6759,2247.2656c-2.9871-1.7236-4.3194-5.0106-2.9745-7.3387l1.7961-3.1091 10.8209,6.2439-1.7961,3.1092c-1.3449,2.328-4.8592,2.8183-7.8463,1.0947z" fill="#fff" stroke="#000"/>
<path d="m167.9394,2231.4736 1.6394-2.8679" fill="none" stroke="#000"/>
<path d="m175.3156,2235.7752 1.6394-2.8681" fill="none" stroke="#000"/>
<path d="m171.4103,2233.4975 1.6393-2.8678" fill="none" stroke="#000"/>
<path d="m162.5533,2240.6031 1.6394-2.8679" fill="none" stroke="#000"/>
<path d="m169.9296,2244.9047 1.6394-2.8681" fill="none" stroke="#000"/>
<path d="m166.0242,2242.627 1.6393-2.8678" fill="none" stroke="#000"/>
</g>
</svg>
