<svg viewBox="0 0 512 512" xmlns="http://www.w3.org/2000/svg">

<g transform="matrix(18.68858,0,0,18.68858,-2955.79947,-41513.91016)">
<path d="m 178.918 2230.86 c 0 1.3873 -0.6651 2.512 -1.4856 2.512 s -1.4856 -1.1247 -1.4856 -2.512 0.6651 -2.512 1.4856 -2.512 1.4856 1.1247 1.4856 2.512 z" fill="none" stroke="#fff" stroke-width=".863" transform="matrix(1.15914,0,0,1.15849,-23.30688,-352.79739)"/>
<path d="m 172.856 2223.1 10.1724 5.8698" fill="none" stroke="#fff"/>
<path d="m 1263.82 1836.74 h 4.1615 v 14.7744 h -4.1615 z" fill="#fff" stroke="#000" transform="matrix(.86615,.49979,-.50021,.8659,0,0)"/>
<path d="m 1260.73 1845.84 h 10.1819 v 16.281 h -10.1819 z" fill="#fff" stroke="#000" transform="matrix(.86615,.49979,-.50021,.8659,0,0)"/>
<path d="m 175.98 2225.97 c -2.9871 -1.7236 -6.5016 -1.2332 -7.8463 1.0947 l -1.7961 3.1091 10.8208 6.244 1.7961 -3.1091 c 1.3448 -2.328 0.0125 -5.6151 -2.9745 -7.3387 z" fill="#fff" stroke="#000"/>
<path d="m 163.676 2247.27 c -2.9871 -1.7236 -4.3194 -5.0106 -2.9745 -7.3387 l 1.7961 -3.1091 10.8209 6.2439 -1.7961 3.1092 c -1.3449 2.328 -4.8592 2.8183 -7.8463 1.0947 z" fill="#fff" stroke="#000"/>
<path d="m 167.939 2231.47 1.6394 -2.8679" fill="none" stroke="#000"/>
<path d="m 175.316 2235.78 1.6394 -2.8681" fill="none" stroke="#000"/>
<path d="m 171.41 2233.5 1.6393 -2.8678" fill="none" stroke="#000"/>
<path d="m 162.553 2240.6 1.6394 -2.8679" fill="none" stroke="#000"/>
<path d="m 169.93 2244.9 1.6394 -2.8681" fill="none" stroke="#000"/>
<path d="m 166.024 2242.63 1.6393 -2.8678" fill="none" stroke="#000"/>
</g>
</svg>
