<svg xmlns="http://www.w3.org/2000/svg" viewBox="0 0 512 512">
<g fill="#fff" transform="matrix(18.68858 0 0 18.68858 3887.8163 -7973.95457)">
<path d="m-191.4117,431.2507-15.4688,15.4688 0,4.6875 17.8125-17.8125-2.3438-2.3438z"/>
<g stroke="#000">
<path d="m-193.6602,431.2267c.1882-.641 .1576-1.1834-.2042-1.5451l-7.731-2.2422 1.8041,8.1691c.403,.403 .9333,.4726 1.5445,.3108 0,0 4.5058,4.5057 4.5058,4.5057-.1563,.6047-.0886,1.1451 .3108,1.5445l2.7581,2.7581 5.9269-5.9269-2.7581-2.7581c-.3597-.3598-.9086-.3888-1.5451-.2042 0,0-4.6118-4.6118-4.6118-4.6118z"/>
<path d="m177.268,438.866h3.807v13.106h-3.807z" transform="rotate(45)"/>
</g>
</g>
</svg>
