<svg xmlns="http://www.w3.org/2000/svg" viewBox="0 0 512 512">
<g fill="#fff" transform="matrix(18.68858 0 0 18.68858 3887.8163 -7973.95457)">
<path d="m -191.412 431.251 -15.4688 15.4688 0 4.6875 17.8125 -17.8125 -2.3438 -2.3438 z"/>
<g stroke="#000">
<path d="m -193.66 431.227 c 0.1882 -0.641 0.1576 -1.1834 -0.2042 -1.5451 l -7.731 -2.2422 1.8041 8.1691 c 0.403 0.403 0.9333 0.4726 1.5445 0.3108 0 0 4.5058 4.5057 4.5058 4.5057 -0.1563 0.6047 -0.0886 1.1451 0.3108 1.5445 l 2.7581 2.7581 5.9269 -5.9269 -2.7581 -2.7581 c -0.3597 -0.3598 -0.9086 -0.3888 -1.5451 -0.2042 0 0 -4.6118 -4.6118 -4.6118 -4.6118 z"/>
<path d="m 177.268 438.866 h 3.807 v 13.106 h -3.807 z" transform="rotate(45)"/>
</g>
</g>
</svg>
