<svg viewBox="0 0 512 512" xmlns="http://www.w3.org/2000/svg">

<g transform="matrix(18.68858,0,0,-18.68858,-12483.77284,30451.4288)">
<path d="m672.3909,1609.7066-2.6787,5.7068 12.0542,8.3273 9.6084-1.6305-1.1064-16.4799-9.6666-.9899z" fill="#fff"/>
<path d="m669.9564,1615.9554c-2.7859-2.7021.1204-7.1799 3.0339-6.1159" fill="#fff" stroke="#000"/>
<path d="m682.732,1626.1871c-.2785,2.8678-6.8372,4.8119-12.113-1.3882-4.759-5.5925-.5194-10.9747 3.7737-10.4459" fill="#fff" stroke="#000"/>
<path d="m692.5674,1620.5244c1.0483,8.379-11.5822,8.3131-12.2681,2.3051" fill="#fff" stroke="#000"/>
<path d="m687.7698,1618.6438c1.2665,2.6329 4.2006,2.8954 5.7916,1.5526 1.5356-1.2959 1.7878-3.8963.3795-5.3633" fill="#fff" stroke="#000"/>
<path d="m687.0046,1605.3437c-.9183-3.7711-6.2512-3.5338-6.81-.483" fill="#fff" stroke="#000"/>
<path d="m683.0556,1615.6323c-5.9552,5.0197-14.163-4.4301-7.5972-9.4512s13.5524,4.4315 7.5972,9.4512z" fill="#fff" stroke="#000"/>
<path d="m690.2156,1609.5907c3.2398-.6546 1.0017-4.8458-1.5912-4.6606-2.077.1479-3.6766,1.6773-3.6259,4.2274 .1226,6.171-4.5236,6.386-8.7949,7.0236-4.2508.6345-3.5639,5.7104-.594,7.2074 3.0563,1.5406 6.6056-1.3003 6.947-4.232" fill="#fff" stroke="#000"/>
<path d="m682.5196,1619.3916c-.3064,3.4035 5.4748,3.3127 5.3841.045s-5.0777-3.4495-5.3841-.045z" fill="#fff" stroke="#000"/>
<path d="m689.7509,1616.3111c-4.1921-1.5153-1.8572-8.2878 2.5104-6.4701s1.6817,7.9852-2.5104,6.4701z" fill="#fff" stroke="#000"/>
</g>
</svg>
