<svg viewBox="0 0 512 512" xmlns="http://www.w3.org/2000/svg">

<g transform="matrix(18.68858,0,0,-18.68858,-12483.77284,30451.4288)">
<path d="m 672.391 1609.71 -2.6787 5.7068 12.0542 8.3273 9.6084 -1.6305 -1.1064 -16.4799 -9.6666 -0.9899 z" fill="#fff"/>
<path d="m 669.956 1615.96 c -2.7859 -2.7021 0.1204 -7.1799 3.0339 -6.1159" fill="#fff" stroke="#000"/>
<path d="m 682.732 1626.19 c -0.2785 2.8678 -6.8372 4.8119 -12.113 -1.3882 -4.759 -5.5925 -0.5194 -10.9747 3.7737 -10.4459" fill="#fff" stroke="#000"/>
<path d="m 692.567 1620.52 c 1.0483 8.379 -11.5822 8.3131 -12.2681 2.3051" fill="#fff" stroke="#000"/>
<path d="m 687.77 1618.64 c 1.2665 2.6329 4.2006 2.8954 5.7916 1.5526 1.5356 -1.2959 1.7878 -3.8963 0.3795 -5.3633" fill="#fff" stroke="#000"/>
<path d="m 687.005 1605.34 c -0.9183 -3.7711 -6.2512 -3.5338 -6.81 -0.483" fill="#fff" stroke="#000"/>
<path d="m 683.056 1615.63 c -5.9552 5.0197 -14.163 -4.4301 -7.5972 -9.4512 s 13.5524 4.4315 7.5972 9.4512 z" fill="#fff" stroke="#000"/>
<path d="m 690.216 1609.59 c 3.2398 -0.6546 1.0017 -4.8458 -1.5912 -4.6606 -2.077 0.1479 -3.6766 1.6773 -3.6259 4.2274 0.1226 6.171 -4.5236 6.386 -8.7949 7.0236 -4.2508 0.6345 -3.5639 5.7104 -0.594 7.2074 3.0563 1.5406 6.6056 -1.3003 6.947 -4.232" fill="#fff" stroke="#000"/>
<path d="m 682.52 1619.39 c -0.3064 3.4035 5.4748 3.3127 5.3841 0.045 s -5.0777 -3.4495 -5.3841 -0.045 z" fill="#fff" stroke="#000"/>
<path d="m 689.751 1616.31 c -4.1921 -1.5153 -1.8572 -8.2878 2.5104 -6.4701 s 1.6817 7.9852 -2.5104 6.4701 z" fill="#fff" stroke="#000"/>
</g>
</svg>
