<svg viewBox="0 0 512 512" xmlns="http://www.w3.org/2000/svg">

<g transform="matrix(18.68858,0,0,18.68858,-835.62286,-4747.17689)">
<path d="m46.8921,263.0329c7.9067.4386 18.5465-.5113 23.7724-5.8155-.7525,9.6366-6.5661,20.7403-19.9488,22.2771 4.4121-6.0165 6.3556-15.2983 2.6618-23.6881 9.7135,3.1923 16.2291,13.2064 15.6864,22.9426-7.7902-8.969-16.5531-8.8512-22.1718-15.7161z" fill="none" stroke="#fff"/>
<path d="m55.3438,268.3934c-1.1933,6.6777 2.9766,9.1763 8.375,4.8438-3.1955,2.806-7.7737,5.3389-12.2188,6.0625 1.4953-3.2204 2.6797-6.8851 3.8438-10.9062z" fill="#fff" fill-rule="evenodd"/>
<path d="m59.4688,270.7996 9.5312,7.4062c-.1103-2.4181-.3214-5.0129-1.4328-7.2321 1.0572,3.8817-5.7333,1.0416-8.0985-.1742z" fill="#fff" fill-rule="evenodd"/>
<path d="m53.625,267.7371c-5.2568-3.1354 3.9762-4.1813 7.6875-5.3438-4.597.1915-9.109.5529-13.625.9062 1.1294,2.159 3.572,3.5549 5.9375,4.4375z" fill="#fff" fill-rule="evenodd"/>
<path d="m64.2532,261.5485c3.9334-1.5724 6.1299.0483 3.4498,5.2199 1.8642-2.9425 2.3118-6.0516 2.797-9.1562l-6.2468,3.9363z" fill="#fff" fill-rule="evenodd"/>
<path d="m55.5692,262.1654c-.5915-3.9658 1.0277-4.6913 4.2255-2.3844-1.7651-2.0838-3.753-3.202-6.3419-3.9083 .8215,2.0138 1.4127,4.0543 2.1164,6.2927z" fill="#fff" fill-rule="evenodd"/>
<path d="m63.9932,267.5178c0,1.6353-1.3257,2.961-2.961,2.961s-2.961-1.3257-2.961-2.961 1.3257-2.961 2.961-2.961 2.961,1.3257 2.961,2.961z" fill="#fff" stroke="#000" stroke-width=".8694" transform="matrix(-1.21955,-.44608,0,1.21813,135.87741,-31.38119)"/>
</g>
</svg>
