<svg viewBox="0 0 512 512" xmlns="http://www.w3.org/2000/svg">

<g transform="matrix(18.68858,0,0,18.68858,-2952.49175,-22486.99257)">
<path d="m175.1568,1204.5781v6.1342 7.2844l4.6312-7.1915-4.6312-6.2271z" fill="#fff" fill-rule="evenodd"/>
<path d="m172.1226,1205.4483-4.4187,5.4538v13.8173l4.4187,4.9699 4.4517-4.9699v-13.8173l-4.4517-5.4538z" fill="#fff"/>
<path d="m166.3461,1224.2466 6.4521,2.1099 4.2185-1.9592" fill="none" stroke="#000"/>
<path d="m166.7482,1210.6395 5.9573,1.9001 3.9093-1.7644" fill="none" stroke="#000"/>
<path d="m172.7474,1212.5396v13.7036" fill="none" stroke="#000"/>
<path d="m178.1115,1228.499v-11.7783l4.7056,8.0111-4.7056,3.7672z" fill="#fff" fill-rule="evenodd"/>
<path d="m164.4669,1210.1838v11.7783l-4.7056-6.3123 4.7056-5.466z" fill="#fff" fill-rule="evenodd"/>
<path d="m172.573,1205.037 4.5083,5.8197v13.5269" fill="none" stroke="#000"/>
<path d="m183.5662,1224.5979-6.0655.9919" fill="none" stroke="#000"/>
<path d="m159.264,1215.5951 5.9892,1.9456" fill="none" stroke="#000"/>
</g>
</svg>
