<svg viewBox="0 0 512 512" xmlns="http://www.w3.org/2000/svg">

<g transform="matrix(18.68858,0,0,18.68858,-2952.49175,-22486.99257)">
<path d="m 175.157 1204.58 v 6.1342 7.2844 l 4.6312 -7.1915 -4.6312 -6.2271 z" fill="#fff" fill-rule="evenodd"/>
<path d="m 172.123 1205.45 -4.4187 5.4538 v 13.8173 l 4.4187 4.9699 4.4517 -4.9699 v -13.8173 l -4.4517 -5.4538 z" fill="#fff"/>
<path d="m 166.346 1224.25 6.4521 2.1099 4.2185 -1.9592" fill="none" stroke="#000"/>
<path d="m 166.748 1210.64 5.9573 1.9001 3.9093 -1.7644" fill="none" stroke="#000"/>
<path d="m 172.747 1212.54 v 13.7036" fill="none" stroke="#000"/>
<path d="m 178.112 1228.5 v -11.7783 l 4.7056 8.0111 -4.7056 3.7672 z" fill="#fff" fill-rule="evenodd"/>
<path d="m 164.467 1210.18 v 11.7783 l -4.7056 -6.3123 4.7056 -5.466 z" fill="#fff" fill-rule="evenodd"/>
<path d="m 172.573 1205.04 4.5083 5.8197 v 13.5269" fill="none" stroke="#000"/>
<path d="m 183.566 1224.6 -6.0655 0.9919" fill="none" stroke="#000"/>
<path d="m 159.264 1215.6 5.9892 1.9456" fill="none" stroke="#000"/>
</g>
</svg>
