<svg viewBox="0 0 512 512" xmlns="http://www.w3.org/2000/svg">

<g transform="matrix(18.68858,0,0,18.68858,-12482.01125,-35398.08708)">
<path d="m 675.818 1908.73 c -3.1786 -3.576 -7.7531 -1.5672 -5.0969 3.0044 -2.7418 1.8512 -2.0615 7.052 2.2534 6.2772 0.3413 4.2278 7.9433 2.3015 6.4604 -1.0167 4.6072 -1.605 2.9812 -4.6379 0.407 -5.797 2.1446 -3.2788 -1.6594 -6.0535 -4.0238 -2.4679 z" fill="#fff"/>
<path d="m 670.292 1911.73 5.6334 1.7705 4.8991 -2.765" fill="none" stroke="#000"/>
<path d="m 676.046 1913.42 3.8897 4.0799" fill="none" stroke="#000"/>
<path d="m 675.659 1907.98 0.3467 5.8193" fill="none" stroke="#000"/>
<path d="m 675.788 1913.43 -3.0519 5.236" fill="none" stroke="#000"/>
<path d="m 681.37 1909.74 c 0 1.4667 -1.189 2.6557 -2.6557 2.6557 s -2.6557 -1.189 -2.6557 -2.6557 1.189 -2.6558 2.6557 -2.6558 2.6557 1.189 2.6557 2.6558 z" fill="#fff" stroke="#000" stroke-width="1.1" transform="matrix(.90909,0,0,.90909,58.85795,177.43284)"/>
<path d="m 691.36 1905.74 c 1.3883 -4.1818 -2.3189 -6.9048 -4.7413 -2.6816 -2.738 -1.3341 -6.5718 0.5412 -3.968 4.6876 -2.6204 3.5763 1.2862 6.1833 3.7842 4.6841 1.8829 3.2764 6.1325 0.2794 4.8096 -2.3451 3.6014 0.2003 4.063 -4.1111 0.1157 -4.3455 z" fill="#fff"/>
<path d="m 686.314 1902.47 1.2885 5.5494 4.4596 2.6336" fill="none" stroke="#000"/>
<path d="m 687.722 1908.08 -1.5008 5.3223" fill="none" stroke="#000"/>
<path d="m 691.948 1905.03 -4.5444 3.1949" fill="none" stroke="#000"/>
<path d="m 687.595 1907.88 -5.5797 -0.023" fill="none" stroke="#000"/>
<path d="m 681.37 1909.74 c 0 1.4667 -1.189 2.6557 -2.6557 2.6557 s -2.6557 -1.189 -2.6557 -2.6557 1.189 -2.6558 2.6557 -2.6558 2.6557 1.189 2.6557 2.6558 z" fill="#fff" stroke="#000" stroke-width="1.1946" transform="matrix(.41843,.725,-.72487,.41865,1787.8495,616.43112)"/>
<path d="m 674.979 1896.28 c -2.2366 -2.2662 -5.9042 -0.8592 -4.575 3.1746 -3.3355 1.1895 -0.1403 6.9047 2.2151 4.9912 2.2894 3.3692 4.3838 1.4019 4.7624 -0.9251 3.1071 1.0208 4.5609 -2.9507 1.1587 -4.0825 1.7417 -2.9954 -0.6386 -5.6438 -3.5613 -3.1582 z" fill="#fff"/>
<path d="m 674.923 1895.55 -0.2489 5.3063 3.2877 3.3537" fill="none" stroke="#000"/>
<path d="m 674.766 1900.94 -2.4498 4.399" fill="none" stroke="#000"/>
<path d="m 679.184 1899.25 -4.7295 1.7318" fill="none" stroke="#000"/>
<path d="m 674.701 1900.73 -5.2226 -1.4814" fill="none" stroke="#000"/>
<path d="m 681.37 1909.74 c 0 1.4667 -1.189 2.6557 -2.6557 2.6557 s -2.6557 -1.189 -2.6557 -2.6557 1.189 -2.6558 2.6557 -2.6558 2.6557 1.189 2.6557 2.6558 z" fill="#fff" stroke="#000" stroke-width="1.3175" transform="matrix(.19635,.73327,-.73306,.19655,1941.4553,1027.397)"/>
<path d="m 682.863 1897.55 c -1.8295 -0.038 -1.1398 2.5081 0.2332 1.7927 -0.7164 2.2114 2.18 2.5592 1.7937 0.2621 1.7275 1.0886 2.5086 -0.6485 0.7846 -1.4608 2.2597 -0.491 0.3983 -3.1596 -1.0598 -1.2803 -0.006 -1.8497 -2.8267 -1.5639 -1.7518 0.6863 z" fill="#fff"/>
<path d="m 684.433 1917.49 c -2.0146 -1.1899 -0.18 -3.0772 1.0983 -1.4359 0.4451 -2.6147 2.8503 -0.9274 1.6844 0.6699 2.0933 -0.064 2.0975 2.0099 -0.0509 1.6574 1.6928 1.5511 -1.3305 3.2257 -1.5579 0.5788 -1.0318 1.5763 -3.7183 -0.1675 -1.1739 -1.4702 z" fill="#fff"/>
<path d="m 687.212 1917.45 c 0 0.4872 -0.3949 0.8821 -0.882 0.8821 s -0.882 -0.3949 -0.882 -0.8821 0.3949 -0.882 0.882 -0.882 0.882 0.3949 0.882 0.882 z" transform="matrix(.68817,0,0,.68817,213.72291,598.02899)"/>
<path d="m 687.212 1917.45 c 0 0.4872 -0.3949 0.8821 -0.882 0.8821 s -0.882 -0.3949 -0.882 -0.8821 0.3949 -0.882 0.882 -0.882 0.882 0.3949 0.882 0.882 z" transform="matrix(.68817,0,0,.68817,211.79147,578.82186)"/>
<path d="m 692.981 1918.35 c -1.2719 -2.2151 -2.6175 -0.276 -0.8185 0.7429 -1.1535 1.5404 1.5736 2.7113 1.2719 0.3651 1.9655 0.3739 0.5132 -1.9347 -0.4533 -1.108 z" fill="#fff"/>
<path d="m 691.816 1899.73 c -2.6174 -1.0145 -0.3261 -3.0322 0.8779 -1.1311 1.3502 -1.6147 2.7175 1.3527 0.4312 1.4224 0.442 2.2401 -2.286 1.0332 -1.3093 -0.2908 z" fill="#fff"/>
<path d="m 692.208 1914.94 c -0.1773 2.0303 2.6302 0.2931 1.234 -0.7511 0.3604 -1.9949 -3.3402 0.3038 -1.234 0.7511 z" fill="#fff"/>
<path d="m 688.686 1896.18 c 0.3221 1.0779 1.2717 0.8954 1.6603 -0.018 0.4519 -1.0619 -2.0006 -1.1209 -1.6603 0.018 z" fill="#fff"/>
<path d="m 693.592 1902.44 c -1.1246 0.032 -1.1939 0.9966 -0.4123 1.6084 0.9088 0.7113 1.6006 -1.6423 0.4123 -1.6084 z" fill="#fff"/>
</g>
</svg>
