<svg viewBox="0 0 512 512" xmlns="http://www.w3.org/2000/svg">

<g transform="matrix(18.68858,0,0,18.68858,-11122.13243,-27221.58907)">
<path d="m 602.145 1465.16 c 1.8468 3.2658 2.507 6.722 2.8175 10.2343" fill="none" stroke="#fff"/>
<path d="m 617.838 1465 c -3.5459 1.6104 -5.7761 5.068 -6.1873 9.6983" fill="none" stroke="#fff"/>
<path d="m 609.033 1462.61 c -1.4111 4.3223 -1.6544 8.6645 -1.5062 13.0134" fill="none" stroke="#fff"/>
<path d="m 611.619 1473.68 c 2.8024 0.648 3.2207 -1.3582 3.405 -3.6252 z" fill="#fff"/>
<path d="m 602.721 1474.2 1.5617 9.2721 h 8.5283 l 1.5844 -9.2721 z" fill="#fff" stroke="#000"/>
<path d="m 604.642 1472.25 c -2.4766 1.3179 -3.3772 -0.4667 -4.123 -2.5563 z" fill="#fff"/>
<path d="m 603.333 1466.96 c -2.9321 2.7362 -4.8361 0.6051 -6.6391 -2.0042 z" fill="#fff"/>
<path d="m 612.78 1470.43 c -2.7365 -2.9325 -0.6055 -4.8363 2.0038 -6.6393 z" fill="#fff"/>
<path d="m 613.672 1467.7 c 2.1242 3.402 4.5147 1.8363 6.9316 -0.2172 z" fill="#fff"/>
<path d="m 607.365 1473.11 c 2.8878 -0.099 2.772 -2.1554 2.3612 -4.4033 z" fill="#fff"/>
<path d="m 609.848 1463.59 c -4.0081 -0.1385 -3.8475 -2.9918 -3.2773 -6.1118 z" fill="#fff"/>
<path d="m 608.01 1470.83 c -2.8037 -0.097 -2.6914 -2.0927 -2.2925 -4.2752 z" fill="#fff"/>
<path d="m 603.78 1470.54 c 3.3121 -1.0113 2.5405 -3.3554 1.3677 -5.8303 z" fill="#fff"/>
<path d="m 607.515 1467.97 c 3.5266 0.8155 4.0531 -1.7095 4.2849 -4.5626 z" fill="#fff"/>
<path d="m 601.031 1460.88 c -0.0276 0.1627 -0.0312 0.5 -0.0312 0.5 l -1.0625 -0.4688 -0.125 1.0626 -0.5 -0.25 c -0.3146 2.4466 0.0435 4.2945 3.1562 3.7812 1.5792 -2.5343 1.2264 -4.1336 -1.4375 -4.625 z" fill="#fff"/>
<path d="m 621.665 1463.72 c -1.1151 0.9667 -0.6921 1.749 -2.0479 2.4562 -0.8275 0.4316 -2.0706 0.3665 -2.5873 -1.2389 -0.3235 -1.4221 0.4534 -1.8899 1.1812 -2.0948 2.4897 -0.7008 2.1289 1.2113 3.4539 0.8775 z" fill="#fff"/>
<path d="m 609.438 1457.38 c -2.7259 1.1072 -3.7564 3.8352 -0.5625 6.125 3.6234 -0.8413 4.7259 -2.5958 2.8125 -5.375 -0.4032 0.2864 -0.75 0.6729 -1.0625 1.0938 l -0.2188 -0.9688 -0.625 0.7812 c -0.0172 -0.5602 -0.1155 -1.1122 -0.3438 -1.6562 z" fill="#fff"/>
<path d="m 608.018 1463.14 c 2.2589 1.6525 5.3556 -1.0425 5.2519 -3.2561 z" fill="#fff"/>
</g>
</svg>
