<svg viewBox="0 0 512 512" xmlns="http://www.w3.org/2000/svg">

<g transform="matrix(18.68858,0,0,18.68858,-11122.13243,-27221.58907)">
<path d="m602.1453,1465.1572c1.8468,3.2658 2.507,6.722 2.8175,10.2343" fill="none" stroke="#fff"/>
<path d="m617.8382,1465.0046c-3.5459,1.6104-5.7761,5.068-6.1873,9.6983" fill="none" stroke="#fff"/>
<path d="m609.0328,1462.6086c-1.4111,4.3223-1.6544,8.6645-1.5062,13.0134" fill="none" stroke="#fff"/>
<path d="m611.6185,1473.6762c2.8024.648 3.2207-1.3582 3.405-3.6252z" fill="#fff"/>
<path d="m602.7209,1474.2021 1.5617,9.2721h8.5283l1.5844-9.2721z" fill="#fff" stroke="#000"/>
<path d="m604.6417,1472.2522c-2.4766,1.3179-3.3772-.4667-4.123-2.5563z" fill="#fff"/>
<path d="m603.3331,1466.9574c-2.9321,2.7362-4.8361.6051-6.6391-2.0042z" fill="#fff"/>
<path d="m612.7799,1470.4298c-2.7365-2.9325-.6055-4.8363 2.0038-6.6393z" fill="#fff"/>
<path d="m613.672,1467.6992c2.1242,3.402 4.5147,1.8363 6.9316-.2172z" fill="#fff"/>
<path d="m607.3654,1473.1091c2.8878-.099 2.772-2.1554 2.3612-4.4033z" fill="#fff"/>
<path d="m609.8484,1463.5947c-4.0081-.1385-3.8475-2.9918-3.2773-6.1118z" fill="#fff"/>
<path d="m608.0098,1470.8291c-2.8037-.097-2.6914-2.0927-2.2925-4.2752z" fill="#fff"/>
<path d="m603.7798,1470.538c3.3121-1.0113 2.5405-3.3554 1.3677-5.8303z" fill="#fff"/>
<path d="m607.5152,1467.9685c3.5266.8155 4.0531-1.7095 4.2849-4.5626z" fill="#fff"/>
<path d="m601.0312,1460.875c-.0276.1627-.0312.5-.0312.5l-1.0625-.4688-.125,1.0626-.5-.25c-.3146,2.4466.0435,4.2945 3.1562,3.7812 1.5792-2.5343 1.2264-4.1336-1.4375-4.625z" fill="#fff"/>
<path d="m621.6649,1463.7189c-1.1151.9667-.6921,1.749-2.0479,2.4562-.8275.4316-2.0706.3665-2.5873-1.2389-.3235-1.4221.4534-1.8899 1.1812-2.0948 2.4897-.7008 2.1289,1.2113 3.4539.8775z" fill="#fff"/>
<path d="m609.4375,1457.375c-2.7259,1.1072-3.7564,3.8352-.5625,6.125 3.6234-.8413 4.7259-2.5958 2.8125-5.375-.4032.2864-.75.6729-1.0625,1.0938l-.2188-.9688-.625.7812c-.0172-.5602-.1155-1.1122-.3438-1.6562z" fill="#fff"/>
<path d="m608.0176,1463.1442c2.2589,1.6525 5.3556-1.0425 5.2519-3.2561z" fill="#fff"/>
</g>
</svg>
