<svg viewBox="0 0 512 512" xmlns="http://www.w3.org/2000/svg">

<g transform="matrix(18.68858,0,0,18.68858,-12482.01125,-35398.08708)">
<path d="m675.8176,1908.7273c-3.1786-3.576-7.7531-1.5672-5.0969,3.0044-2.7418,1.8512-2.0615,7.052 2.2534,6.2772 .3413,4.2278 7.9433,2.3015 6.4604-1.0167 4.6072-1.605 2.9812-4.6379.407-5.797 2.1446-3.2788-1.6594-6.0535-4.0238-2.4679z" fill="#fff"/>
<path d="m670.2915,1911.7317 5.6334,1.7705 4.8991-2.765" fill="none" stroke="#000"/>
<path d="m676.0457,1913.4217 3.8897,4.0799" fill="none" stroke="#000"/>
<path d="m675.6586,1907.978 .3467,5.8193" fill="none" stroke="#000"/>
<path d="m675.7877,1913.4326-3.0519,5.236" fill="none" stroke="#000"/>
<path d="m681.3704,1909.7354c0,1.4667-1.189,2.6557-2.6557,2.6557s-2.6557-1.189-2.6557-2.6557 1.189-2.6558 2.6557-2.6558 2.6557,1.189 2.6557,2.6558z" fill="#fff" stroke="#000" stroke-width="1.1" transform="matrix(.90909,0,0,.90909,58.85795,177.43284)"/>
<path d="m691.3603,1905.738c1.3883-4.1818-2.3189-6.9048-4.7413-2.6816-2.738-1.3341-6.5718.5412-3.968,4.6876-2.6204,3.5763 1.2862,6.1833 3.7842,4.6841 1.8829,3.2764 6.1325.2794 4.8096-2.3451 3.6014.2003 4.063-4.1111.1157-4.3455z" fill="#fff"/>
<path d="m686.3139,1902.473 1.2885,5.5494 4.4596,2.6336" fill="none" stroke="#000"/>
<path d="m687.7221,1908.0815-1.5008,5.3223" fill="none" stroke="#000"/>
<path d="m691.9485,1905.0275-4.5444,3.1949" fill="none" stroke="#000"/>
<path d="m687.5946,1907.8809-5.5797-.023" fill="none" stroke="#000"/>
<path d="m681.3704,1909.7354c0,1.4667-1.189,2.6557-2.6557,2.6557s-2.6557-1.189-2.6557-2.6557 1.189-2.6558 2.6557-2.6558 2.6557,1.189 2.6557,2.6558z" fill="#fff" stroke="#000" stroke-width="1.1946" transform="matrix(.41843,.725,-.72487,.41865,1787.8495,616.43112)"/>
<path d="m674.9785,1896.2766c-2.2366-2.2662-5.9042-.8592-4.575,3.1746-3.3355,1.1895-.1403,6.9047 2.2151,4.9912 2.2894,3.3692 4.3838,1.4019 4.7624-.9251 3.1071,1.0208 4.5609-2.9507 1.1587-4.0825 1.7417-2.9954-.6386-5.6438-3.5613-3.1582z" fill="#fff"/>
<path d="m674.9235,1895.5512-.2489,5.3063 3.2877,3.3537" fill="none" stroke="#000"/>
<path d="m674.7656,1900.9374-2.4498,4.399" fill="none" stroke="#000"/>
<path d="m679.1836,1899.2543-4.7295,1.7318" fill="none" stroke="#000"/>
<path d="m674.7011,1900.7316-5.2226-1.4814" fill="none" stroke="#000"/>
<path d="m681.3704,1909.7354c0,1.4667-1.189,2.6557-2.6557,2.6557s-2.6557-1.189-2.6557-2.6557 1.189-2.6558 2.6557-2.6558 2.6557,1.189 2.6557,2.6558z" fill="#fff" stroke="#000" stroke-width="1.3175" transform="matrix(.19635,.73327,-.73306,.19655,1941.4553,1027.397)"/>
<path d="m682.8632,1897.5524c-1.8295-.038-1.1398,2.5081.2332,1.7927-.7164,2.2114 2.18,2.5592 1.7937.2621 1.7275,1.0886 2.5086-.6485.7846-1.4608 2.2597-.491.3983-3.1596-1.0598-1.2803-.006-1.8497-2.8267-1.5639-1.7518.6863z" fill="#fff"/>
<path d="m684.4334,1917.4868c-2.0146-1.1899-.18-3.0772 1.0983-1.4359 .4451-2.6147 2.8503-.9274 1.6844.6699 2.0933-.064 2.0975,2.0099-.0509,1.6574 1.6928,1.5511-1.3305,3.2257-1.5579.5788-1.0318,1.5763-3.7183-.1675-1.1739-1.4702z" fill="#fff"/>
<path d="m687.2122,1917.4521c0,.4872-.3949.8821-.882.8821s-.882-.3949-.882-.8821 .3949-.882.882-.882 .882.3949.882.882z" transform="matrix(.68817,0,0,.68817,213.72291,598.02899)"/>
<path d="m687.2122,1917.4521c0,.4872-.3949.8821-.882.8821s-.882-.3949-.882-.8821 .3949-.882.882-.882 .882.3949.882.882z" transform="matrix(.68817,0,0,.68817,211.79147,578.82186)"/>
<path d="m692.9815,1918.3492c-1.2719-2.2151-2.6175-.276-.8185.7429-1.1535,1.5404 1.5736,2.7113 1.2719.3651 1.9655.3739.5132-1.9347-.4533-1.108z" fill="#fff"/>
<path d="m691.8164,1899.7348c-2.6174-1.0145-.3261-3.0322.8779-1.1311 1.3502-1.6147 2.7175,1.3527.4312,1.4224 .442,2.2401-2.286,1.0332-1.3093-.2908z" fill="#fff"/>
<path d="m692.2079,1914.9395c-.1773,2.0303 2.6302.2931 1.234-.7511 .3604-1.9949-3.3402.3038-1.234.7511z" fill="#fff"/>
<path d="m688.686,1896.1823c.3221,1.0779 1.2717.8954 1.6603-.018 .4519-1.0619-2.0006-1.1209-1.6603.018z" fill="#fff"/>
<path d="m693.5921,1902.4442c-1.1246.032-1.1939.9966-.4123,1.6084 .9088.7113 1.6006-1.6423.4123-1.6084z" fill="#fff"/>
</g>
</svg>
