<svg viewBox="0 0 512 512" xmlns="http://www.w3.org/2000/svg">

<g transform="matrix(18.68858,0,0,18.68858,-3387.65196,-12276.83659)">
<path d="m 196.903 680.14 c 7.2956 11.3977 18.1374 -7.142 2.886 -11.4276 -6.1825 -2.3878 -10.7715 -5.4737 -9.6513 -11.061 -3.7681 0.0443 -4.7866 3.0194 -5.6837 6.124 -3.5944 2.7388 -2.903 6.2663 -0.3303 10.1399 -2.8566 6.2181 8.1866 9.4679 12.7793 6.2246 z" fill="#fff" fill-rule="evenodd"/>
<g stroke="#000" stroke-width=".9155" transform="matrix(-1.05502,-.28269,-.28275,1.05521,586.3372,18.96428)">
<path d="m 196.353 670.914 c 7.3136 -0.9164 8.2938 -11.6856 2.3044 -12.4931 -0.288 11.3409 -20.2409 3.7064 -20.2409 15.1144 -8e-05 7.8365 11.6255 6.7058 9.8995 0.2652 -1.0589 -3.9511 -5.8224 -3.1517 -4.904 0.3854 0.486 1.8718 3.1602 1.8398 2.4621 -0.2643" fill="none" stroke="#000" stroke-width=".9155"/>
<path d="m 202.48 665.097 c 4.6026 3.5549 -1.5204 12.5583 -8.0559 9.803" fill="none" stroke="#000" stroke-width=".9155"/>
<path d="m 200.664 674.087 c 2.1209 5.1416 -8.0745 8.3755 -13.1243 2.7844" fill="none" stroke="#000" stroke-width=".9155"/>
</g>
</g>
</svg>
