<svg viewBox="0 0 512 512" xmlns="http://www.w3.org/2000/svg">

<g transform="matrix(18.68858,0,0,18.68858,-4642.41835,-12900.38011)">
<path d="m271.4153,693.7592c-.5544-.4768-1.1892-.8823-1.8821-1.226-5.5431-2.749-13.354.1504-17.4568,6.4751-.0506.0781-.0891.1634-.1381.2417 .0243-.0213.0449-.048.0691-.0691-2.1539,3.0492-1.8826,7.3033.8461,10.032 2.9191,2.9191 7.5851,3.0311 10.6537.3626-.2502.3519-.5306.7033-.8461,1.0187-3.05,3.05-8.0008,3.05-11.0508,0-.9531-.9531-1.611-2.0724-1.9684-3.2807 .1566,3.5104 1.871,6.5687 5.0247,8.1327 5.5431,2.749 13.3885-.1504 17.4913-6.4751 3.59-5.5341 3.1386-11.8745-.7425-15.2121z" fill="#fff"/>
<path d="m269.7142,697.9876c.0758.3473.0962.7257.0715,1.1253-.197,3.1967-3.6797,6.7774-7.7812,8.0032-.0506.0151-.1014.0231-.1517.0373l.0514-.0258c-2.0249.6805-3.9646-.0378-4.5185-1.7991-.5925-1.8841.6153-4.2747 2.7073-5.4727-.2341.0794-.4762.1742-.7107.2917-2.2674,1.1366-4.4533,3.6568-3.8342,5.6254 .1935.6152.5453,1.1028 1.0205,1.4495-1.6188-.5586-2.5862-1.8475-2.4906-3.6671 .197-3.7903 4.4522-7.1341 8.5537-8.36 3.5888-1.0726 6.5519.3612 7.0825,2.7921z"/>
<path d="m265.8722,702.5653c0,.8054-.9497,1.4584-2.1213,1.4584s-2.1213-.653-2.1213-1.4584 .9497-1.4584 2.1213-1.4584 2.1213.653 2.1213,1.4584z" fill="#fff" transform="matrix(.70711,-.58571,.70711,.58571,-423.30463,444.28503)"/>
</g>
</svg>
