<svg viewBox="0 0 512 512" xmlns="http://www.w3.org/2000/svg">

<g transform="matrix(18.68858,0,0,18.68858,-4642.41835,-12900.38011)">
<path d="m 271.415 693.759 c -0.5544 -0.4768 -1.1892 -0.8823 -1.8821 -1.226 -5.5431 -2.749 -13.354 0.1504 -17.4568 6.4751 -0.0506 0.0781 -0.0891 0.1634 -0.1381 0.2417 0.0243 -0.0213 0.0449 -0.048 0.0691 -0.0691 -2.1539 3.0492 -1.8826 7.3033 0.8461 10.032 2.9191 2.9191 7.5851 3.0311 10.6537 0.3626 -0.2502 0.3519 -0.5306 0.7033 -0.8461 1.0187 -3.05 3.05 -8.0008 3.05 -11.0508 0 -0.9531 -0.9531 -1.611 -2.0724 -1.9684 -3.2807 0.1566 3.5104 1.871 6.5687 5.0247 8.1327 5.5431 2.749 13.3885 -0.1504 17.4913 -6.4751 3.59 -5.5341 3.1386 -11.8745 -0.7425 -15.2121 z" fill="#fff"/>
<path d="m 269.714 697.988 c 0.0758 0.3473 0.0962 0.7257 0.0715 1.1253 -0.197 3.1967 -3.6797 6.7774 -7.7812 8.0032 -0.0506 0.0151 -0.1014 0.0231 -0.1517 0.0373 l 0.0514 -0.0258 c -2.0249 0.6805 -3.9646 -0.0378 -4.5185 -1.7991 -0.5925 -1.8841 0.6153 -4.2747 2.7073 -5.4727 -0.2341 0.0794 -0.4762 0.1742 -0.7107 0.2917 -2.2674 1.1366 -4.4533 3.6568 -3.8342 5.6254 0.1935 0.6152 0.5453 1.1028 1.0205 1.4495 -1.6188 -0.5586 -2.5862 -1.8475 -2.4906 -3.6671 0.197 -3.7903 4.4522 -7.1341 8.5537 -8.36 3.5888 -1.0726 6.5519 0.3612 7.0825 2.7921 z"/>
<path d="m 265.872 702.565 c 0 0.8054 -0.9497 1.4584 -2.1213 1.4584 s -2.1213 -0.653 -2.1213 -1.4584 0.9497 -1.4584 2.1213 -1.4584 2.1213 0.653 2.1213 1.4584 z" fill="#fff" transform="matrix(.70711,-.58571,.70711,.58571,-423.30463,444.28503)"/>
</g>
</svg>
