<svg viewBox="0 0 512 512" xmlns="http://www.w3.org/2000/svg">

<g transform="matrix(18.68858,0,0,18.68858,-5910.25384,-959.43295)">
<path d="m341.3775,63.3318c-4.2417-6.4123-13.7089-5.7932-14.9008,1.8806-1.2543-.8746-2.3196-2.3243-2.7082-3.7745-.7888-2.9437 1.7486-6.1206 4.3983-6.9864 2.2614-.7371 4.2588.2899 3.218,2.0926 2.1611-1.825.3023-5.4701-5.8761-3.8146-1.8868.5056-3.4799,1.5497-4.7287,2.934-3.1326,2.4387-7.2434,15.9592.4038,17.393 5.2697,5.2687 13.6856,6.6569 19.2536,1.0522 2.7043-2.722 3.3246-7.1723.94-10.777z" fill="#fff"/>
<path d="m229.3678,234.5048c0,2.1468-1.7423,3.8891-3.8891,3.8891s-3.8891-1.7423-3.8891-3.8891" fill="none" stroke="#000" stroke-width=".4133" transform="matrix(-1.20992,-2.09564,2.09564,-1.20992,115.22581,824.73466)"/>
<path d="m290.3125,299.7998-.009-.004c-.0117-.02.0149-.0397.0311-.0437 .0637-.0158.109.0554.1131.1096 .0108.1423-.1412.2297-.2666.2262-.2646-.008-.4151-.2882-.3915-.527 .0434-.4392.5113-.6776.9146-.6175 .6745.1007 1.0297.8251.9122,1.4525-.1833.9789-1.2436,1.4831-2.163,1.2837-1.3604-.2951-2.0497-1.7806-1.7399-3.0678 .4397-1.8268 2.4495-2.7409 4.1883-2.2885 .7846.2041 1.4923.6571 2.024,1.267" fill="none" stroke="#000" stroke-width=".4847" transform="matrix(.18122,-2.05988,2.05155,.1675,-334.15451,615.69739)"/>
<g stroke="#ff0" stroke-width="1.0016" transform="matrix(-.45298,-.26153,.26153,-.45298,466.81332,197.36742)">
<path d="m375.5283,102.4159c6.9913-10.9337 2.9802-24.1095-6.8426-35.0598-2.8266-3.1511-6.9978-3.0094-10.4561.4481-2.4148,2.4143-1.9075,6.1572-.3655,7.6988s3.926,1.6606 5.3214.2655c1.9697-1.9693.1682-5.5728-2.5306-4.0775" fill="none" stroke="#000" stroke-width="1.9118"/>
</g>
</g>
</svg>
