<svg viewBox="0 0 512 512" xmlns="http://www.w3.org/2000/svg">

<g transform="matrix(18.68858,0,0,18.68858,-9085.73967,-42186.01504)">
<path d="m486.7195,2273.1275c6.661,6.0638 15.5084,9.8558 25.8661,10.6579-.8022-10.3578-4.5636-19.2051-10.6274-25.8662l-15.0518.1612z" fill="#fff"/>
<path d="m486.6875,2257.875v8.2188c4.9235,9.3266 13.9842,15.6769 25.3125,17.1562-1.4858-11.3782-7.8871-20.4665-17.2812-25.375h-8.0312z" fill="#fff"/>
<path d="m486.6875,2257.875v13.1562c6.4127,6.2015 14.8751,10.3166 24.6562,11.5938-1.2835-9.8292-5.4349-18.3261-11.6875-24.75h-12.9688z"/>
<path d="m486.6875,2257.875v8.5312c5.0623,9.3968 14.2719,15.7825 25.75,17.2813-1.5054-11.5282-7.942-20.7645-17.4062-25.8125h-8.3438z" fill="#fff"/>
<path d="m486.6875,2257.875v6.8607c3.8728,6.3891 10.4481,10.7054 18.5326,11.7611-1.0638-8.1471-5.4388-14.7611-11.9096-18.6218h-6.623z"/>
<path d="m487.1936,2258.4608c1.4961,11.4575 9.7964,19.7579 21.254,21.254-1.4961-11.4575-9.7964-19.7577-21.254-21.254z" fill="#fff"/>
<path d="m494.5,2265.875c.8956,1.9423 2.1714,3.8322 3.6562,5.5625l-3.25,3.25 1.875,1.8437 1.2812-1.9687c3.7174,3.0908 7.8999,5.5952 12.3125,7.1875-1.5965-4.426-4.1149-8.6176-7.2188-12.3438l2-1.25-1.8438-1.8437-3.25,3.2187c-1.7307-1.485-3.6206-2.7608-5.5625-3.6562z"/>
<path d="m486.6764,2257.8691h26.4314v26.4314h-26.4314z" fill="none" stroke="#000"/>
</g>
</svg>
