<svg viewBox="0 0 512 512" xmlns="http://www.w3.org/2000/svg">

<g transform="matrix(18.68858,0,0,18.68858,-1463.02706,-9758.53465)">
<path d="m87.4843,525.4535c-1.5907,0-2.9508.9188-3.583,2.2713-2.0679.1348-3.7109,1.8331-3.7109,3.9348 0,2.1897 1.7772,3.9669 3.9669,3.9668 .2077,0 .4088-.0332.6078-.064-.0968.4928-.16,1.0146-.16,1.5355 0,1.6865.5352,3.2293 1.4396,4.5107-.3891.6135-.6078,1.3636-.6078,2.1434 0,2.1897 1.7772,3.9669 3.9669,3.9668 1.7862,0 3.2785-1.1907 3.7749-2.8152 1.913-.1712 3.622-1.0088 4.8946-2.3033 .0049-.005.0271.005.032,0 .6286.4185 1.3641.7038 2.1754.7038 2.1897,0 3.9669-1.7771 3.9669-3.9668s-1.7772-3.9668-3.9669-3.9668h-.128c-.1068-.4806-.2575-.9325-.4479-1.3756 1.6904-.4543 2.9432-1.9738 2.9432-3.8069 0-2.1897-1.7772-3.9668-3.9669-3.9668-1.9821,0-3.6089,1.4589-3.9029,3.359-.7303-.2241-1.4999-.3519-2.3033-.3519-.3473,0-.6882.0203-1.0237.064-.0682-2.1301-1.8203-3.8388-3.9669-3.8389z" fill="#fff"/>
<path d="m123.625,528.9247c0,2.1401-1.7349,3.875-3.875,3.875s-3.875-1.7349-3.875-3.875 1.7349-3.875 3.875-3.875 3.875,1.7349 3.875,3.875z" stroke="#fff" stroke-width=".8777" transform="matrix(1.13929,0,0,-1.13928,-51.82467,1130.6521)"/>
<path d="m123.625,528.9247c0,2.1401-1.7349,3.875-3.875,3.875s-3.875-1.7349-3.875-3.875 1.7349-3.875 3.875-3.875 3.875,1.7349 3.875,3.875z" stroke="#fff" stroke-width="1.2886" transform="matrix(.77604,0,0,-.77603,8.56587,944.79571)"/>
<path d="m123.625,528.9247c0,2.1401-1.7349,3.875-3.875,3.875s-3.875-1.7349-3.875-3.875 1.7349-3.875 3.875-3.875 3.875,1.7349 3.875,3.875z" stroke="#fff" stroke-width="1.0265" transform="matrix(.97417,0,0,-.97417,-32.81547,1057.7842)"/>
<path d="m122.5625,527.7372c0,1.2772-1.0353,2.3125-2.3125,2.3125s-2.3125-1.0353-2.3125-2.3125 1.0353-2.3125 2.3125-2.3125 2.3125,1.0353 2.3125,2.3125z" fill="#fff" transform="matrix(.9812,0,0,-.98119,-33.42265,1059.4183)"/>
<path d="m123.625,528.9247c0,2.1401-1.7349,3.875-3.875,3.875s-3.875-1.7349-3.875-3.875 1.7349-3.875 3.875-3.875 3.875,1.7349 3.875,3.875z" stroke="#fff" stroke-width=".7418" transform="matrix(1.34813,0,0,-1.34812,-70.84541,1252.8609)"/>
<path d="m123.625,528.9247c0,2.1401-1.7349,3.875-3.875,3.875s-3.875-1.7349-3.875-3.875 1.7349-3.875 3.875-3.875 3.875,1.7349 3.875,3.875z" stroke="#fff" stroke-width="1.3124" transform="matrix(.76197,0,0,-.76197,4.40127,936.14517)"/>
<path d="m122.5625,527.7372c0,1.2772-1.0353,2.3125-2.3125,2.3125s-2.3125-1.0353-2.3125-2.3125 1.0353-2.3125 2.3125-2.3125 2.3125,1.0353 2.3125,2.3125z" fill="#fff" transform="matrix(1.05987,0,0,-1.05986,-41.8953,1086.0863)"/>
<path d="m122.5625,527.7372c0,1.2772-1.0353,2.3125-2.3125,2.3125s-2.3125-1.0353-2.3125-2.3125 1.0353-2.3125 2.3125-2.3125 2.3125,1.0353 2.3125,2.3125z" fill="#fff" transform="matrix(1.41567,0,0,-1.41566,-78.70226,1285.3464)"/>
<path d="m122.5625,527.7372c0,1.2772-1.0353,2.3125-2.3125,2.3125s-2.3125-1.0353-2.3125-2.3125 1.0353-2.3125 2.3125-2.3125 2.3125,1.0353 2.3125,2.3125z" fill="#fff" transform="matrix(.65337,0,0,-.65336,17.64833,877.04551)"/>
<path d="m122.5625,527.7372c0,1.2772-1.0353,2.3125-2.3125,2.3125s-2.3125-1.0353-2.3125-2.3125 1.0353-2.3125 2.3125-2.3125 2.3125,1.0353 2.3125,2.3125z" fill="#fff" transform="matrix(.71349,0,0,-.71348,16.60904,909.84715)"/>
<path d="m99.0392,544.5932c0,1.135-.9201,2.055-2.055,2.055-1.135,0-2.055-.9201-2.055-2.055 0-1.135.9201-2.055 2.055-2.055 1.135,0 2.055.9201 2.055,2.055z" stroke="#fff" stroke-width="1.2782" transform="matrix(.78235,0,0,.78235,21.43806,100.05734)"/>
<path d="m99.0392,544.5932c0,1.135-.9201,2.055-2.055,2.055-1.135,0-2.055-.9201-2.055-2.055 0-1.135.9201-2.055 2.055-2.055 1.135,0 2.055.9201 2.055,2.055z" stroke="#fff" stroke-width=".97" transform="matrix(1.03093,0,0,1.03093,.75072,-33.87)"/>
<path d="m101.5625,527.6903c0,.3538-.2868.6406-.6406.6406s-.6406-.2868-.6406-.6406 .2868-.6406.6406-.6406 .6406.2868.6406.6406z" fill="#fff" transform="matrix(1.0051,0,0,1.0051,-3.80053,-4.74258)"/>
<path d="m101.5625,527.6903c0,.3538-.2868.6406-.6406.6406s-.6406-.2868-.6406-.6406 .2868-.6406.6406-.6406 .6406.2868.6406.6406z" fill="#fff" transform="matrix(1.54442,0,0,1.54442,-54.58642,-287.95496)"/>
<path d="m99.0392,544.5932c0,1.135-.9201,2.055-2.055,2.055-1.135,0-2.055-.9201-2.055-2.055 0-1.135.9201-2.055 2.055-2.055 1.135,0 2.055.9201 2.055,2.055z" stroke="#fff" stroke-width="1.2537" transform="matrix(.79764,0,0,.79764,7.04419,102.35943)"/>
<path d="m101.5625,527.6903c0,.3538-.2868.6406-.6406.6406s-.6406-.2868-.6406-.6406 .2868-.6406.6406-.6406 .6406.2868.6406.6406z" fill="#fff" transform="matrix(1.02474,0,0,1.02473,-18.59297,-4.37126)"/>
<path d="m123.625,528.9247c0,2.1401-1.7349,3.875-3.875,3.875s-3.875-1.7349-3.875-3.875 1.7349-3.875 3.875-3.875 3.875,1.7349 3.875,3.875z" stroke="#fff" stroke-width="1.2886" transform="matrix(.77604,0,0,-.77603,6.50908,952.38574)"/>
<path d="m122.5625,527.7372c0,1.2772-1.0353,2.3125-2.3125,2.3125s-2.3125-1.0353-2.3125-2.3125 1.0353-2.3125 2.3125-2.3125 2.3125,1.0353 2.3125,2.3125z" fill="#fff" transform="matrix(.70783,0,0,-.70783,15.16105,914.54903)"/>
<path d="m123.625,528.9247c0,2.1401-1.7349,3.875-3.875,3.875s-3.875-1.7349-3.875-3.875 1.7349-3.875 3.875-3.875 3.875,1.7349 3.875,3.875z" stroke="#fff" stroke-width="1.8551" transform="matrix(.53907,0,0,-.53906,37.07404,830.69925)"/>
<path d="m122.5625,527.7372c0,1.2772-1.0353,2.3125-2.3125,2.3125s-2.3125-1.0353-2.3125-2.3125 1.0353-2.3125 2.3125-2.3125 2.3125,1.0353 2.3125,2.3125z" fill="#fff" transform="matrix(.38871,0,0,-.38871,55.40166,750.02912)"/>
</g>
</svg>
