<svg viewBox="0 0 512 512" xmlns="http://www.w3.org/2000/svg">

<g transform="matrix(18.68858,0,0,18.68858,-1463.02706,-9758.53465)">
<path d="m 87.4843 525.453 c -1.5907 0 -2.9508 0.9188 -3.583 2.2713 -2.0679 0.1348 -3.7109 1.8331 -3.7109 3.9348 0 2.1897 1.7772 3.9669 3.9669 3.9668 0.2077 0 0.4088 -0.0332 0.6078 -0.064 -0.0968 0.4928 -0.16 1.0146 -0.16 1.5355 0 1.6865 0.5352 3.2293 1.4396 4.5107 -0.3891 0.6135 -0.6078 1.3636 -0.6078 2.1434 0 2.1897 1.7772 3.9669 3.9669 3.9668 1.7862 0 3.2785 -1.1907 3.7749 -2.8152 1.913 -0.1712 3.622 -1.0088 4.8946 -2.3033 0.0049 -0.005 0.0271 0.005 0.032 0 0.6286 0.4185 1.3641 0.7038 2.1754 0.7038 2.1897 0 3.9669 -1.7771 3.9669 -3.9668 s -1.7772 -3.9668 -3.9669 -3.9668 h -0.128 c -0.1068 -0.4806 -0.2575 -0.9325 -0.4479 -1.3756 1.6904 -0.4543 2.9432 -1.9738 2.9432 -3.8069 0 -2.1897 -1.7772 -3.9668 -3.9669 -3.9668 -1.9821 0 -3.6089 1.4589 -3.9029 3.359 -0.7303 -0.2241 -1.4999 -0.3519 -2.3033 -0.3519 -0.3473 0 -0.6882 0.0203 -1.0237 0.064 -0.0682 -2.1301 -1.8203 -3.8388 -3.9669 -3.8389 z" fill="#fff"/>
<path d="m 123.625 528.925 c 0 2.1401 -1.7349 3.875 -3.875 3.875 s -3.875 -1.7349 -3.875 -3.875 1.7349 -3.875 3.875 -3.875 3.875 1.7349 3.875 3.875 z" stroke="#fff" stroke-width=".8777" transform="matrix(1.13929,0,0,-1.13928,-51.82467,1130.6521)"/>
<path d="m 123.625 528.925 c 0 2.1401 -1.7349 3.875 -3.875 3.875 s -3.875 -1.7349 -3.875 -3.875 1.7349 -3.875 3.875 -3.875 3.875 1.7349 3.875 3.875 z" stroke="#fff" stroke-width="1.2886" transform="matrix(.77604,0,0,-.77603,8.56587,944.79571)"/>
<path d="m 123.625 528.925 c 0 2.1401 -1.7349 3.875 -3.875 3.875 s -3.875 -1.7349 -3.875 -3.875 1.7349 -3.875 3.875 -3.875 3.875 1.7349 3.875 3.875 z" stroke="#fff" stroke-width="1.0265" transform="matrix(.97417,0,0,-.97417,-32.81547,1057.7842)"/>
<path d="m 122.562 527.737 c 0 1.2772 -1.0353 2.3125 -2.3125 2.3125 s -2.3125 -1.0353 -2.3125 -2.3125 1.0353 -2.3125 2.3125 -2.3125 2.3125 1.0353 2.3125 2.3125 z" fill="#fff" transform="matrix(.9812,0,0,-.98119,-33.42265,1059.4183)"/>
<path d="m 123.625 528.925 c 0 2.1401 -1.7349 3.875 -3.875 3.875 s -3.875 -1.7349 -3.875 -3.875 1.7349 -3.875 3.875 -3.875 3.875 1.7349 3.875 3.875 z" stroke="#fff" stroke-width=".7418" transform="matrix(1.34813,0,0,-1.34812,-70.84541,1252.8609)"/>
<path d="m 123.625 528.925 c 0 2.1401 -1.7349 3.875 -3.875 3.875 s -3.875 -1.7349 -3.875 -3.875 1.7349 -3.875 3.875 -3.875 3.875 1.7349 3.875 3.875 z" stroke="#fff" stroke-width="1.3124" transform="matrix(.76197,0,0,-.76197,4.40127,936.14517)"/>
<path d="m 122.562 527.737 c 0 1.2772 -1.0353 2.3125 -2.3125 2.3125 s -2.3125 -1.0353 -2.3125 -2.3125 1.0353 -2.3125 2.3125 -2.3125 2.3125 1.0353 2.3125 2.3125 z" fill="#fff" transform="matrix(1.05987,0,0,-1.05986,-41.8953,1086.0863)"/>
<path d="m 122.562 527.737 c 0 1.2772 -1.0353 2.3125 -2.3125 2.3125 s -2.3125 -1.0353 -2.3125 -2.3125 1.0353 -2.3125 2.3125 -2.3125 2.3125 1.0353 2.3125 2.3125 z" fill="#fff" transform="matrix(1.41567,0,0,-1.41566,-78.70226,1285.3464)"/>
<path d="m 122.562 527.737 c 0 1.2772 -1.0353 2.3125 -2.3125 2.3125 s -2.3125 -1.0353 -2.3125 -2.3125 1.0353 -2.3125 2.3125 -2.3125 2.3125 1.0353 2.3125 2.3125 z" fill="#fff" transform="matrix(.65337,0,0,-.65336,17.64833,877.04551)"/>
<path d="m 122.562 527.737 c 0 1.2772 -1.0353 2.3125 -2.3125 2.3125 s -2.3125 -1.0353 -2.3125 -2.3125 1.0353 -2.3125 2.3125 -2.3125 2.3125 1.0353 2.3125 2.3125 z" fill="#fff" transform="matrix(.71349,0,0,-.71348,16.60904,909.84715)"/>
<path d="m 99.0392 544.593 c 0 1.135 -0.9201 2.055 -2.055 2.055 -1.135 0 -2.055 -0.9201 -2.055 -2.055 0 -1.135 0.9201 -2.055 2.055 -2.055 1.135 0 2.055 0.9201 2.055 2.055 z" stroke="#fff" stroke-width="1.2782" transform="matrix(.78235,0,0,.78235,21.43806,100.05734)"/>
<path d="m 99.0392 544.593 c 0 1.135 -0.9201 2.055 -2.055 2.055 -1.135 0 -2.055 -0.9201 -2.055 -2.055 0 -1.135 0.9201 -2.055 2.055 -2.055 1.135 0 2.055 0.9201 2.055 2.055 z" stroke="#fff" stroke-width=".97" transform="matrix(1.03093,0,0,1.03093,.75072,-33.87)"/>
<path d="m 101.562 527.69 c 0 0.3538 -0.2868 0.6406 -0.6406 0.6406 s -0.6406 -0.2868 -0.6406 -0.6406 0.2868 -0.6406 0.6406 -0.6406 0.6406 0.2868 0.6406 0.6406 z" fill="#fff" transform="matrix(1.0051,0,0,1.0051,-3.80053,-4.74258)"/>
<path d="m 101.562 527.69 c 0 0.3538 -0.2868 0.6406 -0.6406 0.6406 s -0.6406 -0.2868 -0.6406 -0.6406 0.2868 -0.6406 0.6406 -0.6406 0.6406 0.2868 0.6406 0.6406 z" fill="#fff" transform="matrix(1.54442,0,0,1.54442,-54.58642,-287.95496)"/>
<path d="m 99.0392 544.593 c 0 1.135 -0.9201 2.055 -2.055 2.055 -1.135 0 -2.055 -0.9201 -2.055 -2.055 0 -1.135 0.9201 -2.055 2.055 -2.055 1.135 0 2.055 0.9201 2.055 2.055 z" stroke="#fff" stroke-width="1.2537" transform="matrix(.79764,0,0,.79764,7.04419,102.35943)"/>
<path d="m 101.562 527.69 c 0 0.3538 -0.2868 0.6406 -0.6406 0.6406 s -0.6406 -0.2868 -0.6406 -0.6406 0.2868 -0.6406 0.6406 -0.6406 0.6406 0.2868 0.6406 0.6406 z" fill="#fff" transform="matrix(1.02474,0,0,1.02473,-18.59297,-4.37126)"/>
<path d="m 123.625 528.925 c 0 2.1401 -1.7349 3.875 -3.875 3.875 s -3.875 -1.7349 -3.875 -3.875 1.7349 -3.875 3.875 -3.875 3.875 1.7349 3.875 3.875 z" stroke="#fff" stroke-width="1.2886" transform="matrix(.77604,0,0,-.77603,6.50908,952.38574)"/>
<path d="m 122.562 527.737 c 0 1.2772 -1.0353 2.3125 -2.3125 2.3125 s -2.3125 -1.0353 -2.3125 -2.3125 1.0353 -2.3125 2.3125 -2.3125 2.3125 1.0353 2.3125 2.3125 z" fill="#fff" transform="matrix(.70783,0,0,-.70783,15.16105,914.54903)"/>
<path d="m 123.625 528.925 c 0 2.1401 -1.7349 3.875 -3.875 3.875 s -3.875 -1.7349 -3.875 -3.875 1.7349 -3.875 3.875 -3.875 3.875 1.7349 3.875 3.875 z" stroke="#fff" stroke-width="1.8551" transform="matrix(.53907,0,0,-.53906,37.07404,830.69925)"/>
<path d="m 122.562 527.737 c 0 1.2772 -1.0353 2.3125 -2.3125 2.3125 s -2.3125 -1.0353 -2.3125 -2.3125 1.0353 -2.3125 2.3125 -2.3125 2.3125 1.0353 2.3125 2.3125 z" fill="#fff" transform="matrix(.38871,0,0,-.38871,55.40166,750.02912)"/>
</g>
</svg>
