<svg viewBox="0 0 512 512" xmlns="http://www.w3.org/2000/svg">

<g transform="matrix(18.68858,0,0,18.68858,-13164.59295,-32682.11312)">
<path d="m730.8056,1752.8643c-2.3603,3.1711-4.086,4.7282-7.7663,5.8433 1.4984,3.6629 4.0221,7.2839 7.2375,9.9437-3.3245,2.6751-5.2744,4.2043-9.9204,6.4677-6.3709-1.621-10.2675-1.9654-15.0002-4.1341 3.936-1.2492 7.4594-3.6125 9.21-5.4745-3.1831-2.6678-5.9662-6.2083-7.6136-9.9013 3.5727-1.7246 7.4774-3.3362 8.7188-5.8531 5.6137.6637 9.906,1.9853 15.1342,3.1083z" fill="#fff"/>
<path d="m713.48,1764.7451 5.6322,1.6963-5.3764-.3856"/>
<path d="m730.569,1769.4984-8.9819-2.5549 9.0464,1.1622"/>
<path d="m706.8112,1754.8912 7.3041,2.2805-7.5621-.8592"/>
<path d="m724.711,1759.6778-8.1174-2.0669 7.9735.7661"/>
</g>
</svg>
