<svg viewBox="0 0 512 512" xmlns="http://www.w3.org/2000/svg">

<g transform="matrix(18.68858,0,0,18.68858,-4995.65132,-20444.53235)">
<path d="m 272.698 1104.93 c 4.7154 2.0202 7.2052 3.652 9.5757 8.0891 l 8.1718 -6.5836 c -5.51 -4.2043 -12.0391 -4.5479 -17.7475 -1.5055 z" fill="#fff" fill-rule="evenodd"/>
<path d="m 284.246 1097.72 c 8.9068 5.9964 3.3696 14.822 -6.9864 7.9517 4.6931 -1.2025 6.5872 -4.105 6.9864 -7.9517 z" fill="#fff" fill-rule="evenodd"/>
<path d="m 289.632 1105.88 c -2.9795 -1.7202 -6.7745 -1.0732 -7.7991 1.7168 -1.0376 2.8254 -0.3971 5.0453 1.8932 7.6916 1.8814 2.1739 4.3076 2.5749 5.3012 0.2059 -0.7583 0.5561 -2.0941 0.5259 -2.7464 0.065 -1.3398 -0.9469 -0.6188 -2.7931 0.1345 -4.1807 0.6337 -1.1674 2.2476 -1.8555 3.0988 -1.364 0.6717 0.3878 0.8143 1.3339 0.4503 2.2771 0.8806 -0.485 1.8079 -0.5176 2.3291 0.042 0.391 0.4194 0.4392 1.0668 0.2225 1.7255 2.5783 -2.6432 0.1402 -6.4329 -2.8842 -8.1791 z" fill="#fff"/>
<path d="m 282.839 1105.44 c 0 0.3026 -0.2454 0.548 -0.548 0.548 s -0.548 -0.2454 -0.548 -0.548 0.2454 -0.5481 0.548 -0.5481 0.548 0.2454 0.548 0.5481 z" transform="matrix(1.72176,.99406,-.99406,1.72176,901.17368,-1076.4902)"/>
<path d="m 268.139 1098.94 c 7.8403 1.2077 12.8571 8.1055 0.6826 10.5626 2.4682 -4.1687 1.7552 -7.5602 -0.6826 -10.5626 z" fill="#fff" fill-rule="evenodd"/>
<path d="m 290.503 1105.83 c -5.2322 -3.5849 -10.6313 -4.2244 -15.8463 -2.2735 -1.837 0.6871 -2.2487 1.7881 -0.5957 2.5343 2.8129 1.2697 5.0788 2.7838 6.9777 5.9116" fill="none" stroke="#000"/>
<path d="m 280.852 1108.72 -4.5492 2.357 c 1.9438 1.4316 4.6327 1.8304 6.4531 0.7601" fill="#fff" fill-rule="evenodd" stroke="#000"/>
<path d="m 292.075 1117.81 -0.1303 -2.7031 c -0.4441 1.3474 -1.5876 1.8399 -2.8009 2.2472 l 2.9312 0.4559 z" fill="#fff" fill-rule="evenodd"/>
<path d="m 291.31 1116.87 c 0.0589 2.2522 0.3597 3.4368 2.1519 3.15 0.7162 -1.6209 -0.178 -2.769 -2.1519 -3.15 z" fill="#fff" fill-rule="evenodd"/>
<path d="m 267.632 1100.45 c 1.7737 0.1516 3.668 0.7128 5.5747 2.1007 -1.7958 -0.5342 -3.299 -0.3745 -4.7387 0.2113" fill-rule="evenodd"/>
<path d="m 267.587 1108.16 c 1.3107 0.1018 2.7087 -0.1702 4.1117 -1.2298 -1.3252 0.2601 -2.4374 -0.1013 -3.5047 -0.8608" fill-rule="evenodd"/>
<path d="m 269.771 1103.74 2.0803 0.5927 -3.2882 1.2863" fill-rule="evenodd"/>
<path d="m 282.009 1097.55 c 1.4488 0.6309 2.8263 1.6322 3.8623 3.3156 -1.3048 -0.9512 -2.6555 -1.2497 -4.1333 -1.1801" fill-rule="evenodd"/>
<path d="m 280.841 1099.93 c 1.3972 0.173 2.8124 0.6288 4.078 1.6477 -1.3796 -0.1466 -2.6205 -0.089 -3.852 -0.043" fill-rule="evenodd"/>
<path d="m 279.513 1109.47 c 0.544 0.6394 1.2301 1.0608 2.0134 1.333 -1.1577 0.1441 -2.3154 0.05 -3.4731 -0.4965" fill-rule="evenodd"/>
</g>
</svg>
