<svg viewBox="0 0 512 512" xmlns="http://www.w3.org/2000/svg">

<g transform="matrix(18.68858,0,0,18.68858,-4995.65132,-20444.53235)">
<path d="m272.6976,1104.9337c4.7154,2.0202 7.2052,3.652 9.5757,8.0891l8.1718-6.5836c-5.51-4.2043-12.0391-4.5479-17.7475-1.5055z" fill="#fff" fill-rule="evenodd"/>
<path d="m284.2456,1097.7173c8.9068,5.9964 3.3696,14.822-6.9864,7.9517 4.6931-1.2025 6.5872-4.105 6.9864-7.9517z" fill="#fff" fill-rule="evenodd"/>
<path d="m289.6317,1105.8825c-2.9795-1.7202-6.7745-1.0732-7.7991,1.7168-1.0376,2.8254-.3971,5.0453 1.8932,7.6916 1.8814,2.1739 4.3076,2.5749 5.3012.2059-.7583.5561-2.0941.5259-2.7464.065-1.3398-.9469-.6188-2.7931.1345-4.1807 .6337-1.1674 2.2476-1.8555 3.0988-1.364 .6717.3878.8143,1.3339.4503,2.2771 .8806-.485 1.8079-.5176 2.3291.042 .391.4194.4392,1.0668.2225,1.7255 2.5783-2.6432.1402-6.4329-2.8842-8.1791z" fill="#fff"/>
<path d="m282.8389,1105.439c0,.3026-.2454.548-.548.548s-.548-.2454-.548-.548 .2454-.5481.548-.5481 .548.2454.548.5481z" transform="matrix(1.72176,.99406,-.99406,1.72176,901.17368,-1076.4902)"/>
<path d="m268.1388,1098.9412c7.8403,1.2077 12.8571,8.1055.6826,10.5626 2.4682-4.1687 1.7552-7.5602-.6826-10.5626z" fill="#fff" fill-rule="evenodd"/>
<path d="m290.5031,1105.8292c-5.2322-3.5849-10.6313-4.2244-15.8463-2.2735-1.837.6871-2.2487,1.7881-.5957,2.5343 2.8129,1.2697 5.0788,2.7838 6.9777,5.9116" fill="none" stroke="#000"/>
<path d="m280.8523,1108.7157-4.5492,2.357c1.9438,1.4316 4.6327,1.8304 6.4531.7601" fill="#fff" fill-rule="evenodd" stroke="#000"/>
<path d="m292.0746,1117.8084-.1303-2.7031c-.4441,1.3474-1.5876,1.8399-2.8009,2.2472l2.9312.4559z" fill="#fff" fill-rule="evenodd"/>
<path d="m291.3098,1116.8737c.0589,2.2522.3597,3.4368 2.1519,3.15 .7162-1.6209-.178-2.769-2.1519-3.15z" fill="#fff" fill-rule="evenodd"/>
<path d="m267.6319,1100.4544c1.7737.1516 3.668.7128 5.5747,2.1007-1.7958-.5342-3.299-.3745-4.7387.2113" fill-rule="evenodd"/>
<path d="m267.5865,1108.1572c1.3107.1018 2.7087-.1702 4.1117-1.2298-1.3252.2601-2.4374-.1013-3.5047-.8608" fill-rule="evenodd"/>
<path d="m269.7706,1103.7412 2.0803.5927-3.2882,1.2863" fill-rule="evenodd"/>
<path d="m282.0085,1097.5517c1.4488.6309 2.8263,1.6322 3.8623,3.3156-1.3048-.9512-2.6555-1.2497-4.1333-1.1801" fill-rule="evenodd"/>
<path d="m280.8409,1099.9301c1.3972.173 2.8124.6288 4.078,1.6477-1.3796-.1466-2.6205-.089-3.852-.043" fill-rule="evenodd"/>
<path d="m279.5132,1109.4714c.544.6394 1.2301,1.0608 2.0134,1.333-1.1577.1441-2.3154.05-3.4731-.4965" fill-rule="evenodd"/>
</g>
</svg>
