<svg viewBox="0 0 512 512" xmlns="http://www.w3.org/2000/svg">

<g transform="matrix(18.68858,0,0,18.68858,-2272.07588,-19763.17684)">
<path d="m 136.616 1058.11 c -3.5832 5.1617 -9.0882 9.3536 -13.439 13.6854 0.4548 1.8081 1.8001 4.2616 4.1413 5.4623 l 1.4164 -0.7477 c 1.88 6.6175 10.9958 9.9474 17.2383 6.5624 -4.2655 -2.7824 -7.3788 -7.1248 -8.6976 -11.8689 2.5273 -3.7785 7.2107 -7.0031 11.1782 -8.3522 v -4.7413 h -11.8376 z" fill="#fff" stroke="#000"/>
<path d="m 122.049 1058.09 v 4.2812 c 3.6537 1.8743 7.8752 3.3825 13.1388 4.4688 -3.0673 -3.6132 -5.6704 -6.3287 -8.25 -8.75 z" fill="#fff" fill-rule="evenodd" stroke="#000"/>
<path d="m 137.089 1064.53 c 3.7395 5.0328 6.5584 7.0372 11.3125 9.5606 v -5.8731 c -3.0126 -1.487 -6.4384 -2.6833 -11.3125 -3.6875 z" fill="#fff" fill-rule="evenodd" stroke="#000"/>
<path d="m 132.812 1071.85 c 1.5708 -0.5518 2.9031 -0.9204 4.585 -0.2293" fill="none" stroke="#000"/>
<path d="m 133.656 1074.95 c 1.3745 -0.9395 2.566 -1.6404 4.3694 -1.4082" fill="none" stroke="#000"/>
<path d="m 141.578 1079.96 3.7813 1.1455 -0.3281 3.2134 -3.5156 -0.445 c 1.4716 -0.249 1.3017 -2.6594 0.0625 -3.9139 z" fill-rule="evenodd"/>
<path d="m 125.379 1070 c 0.3218 2.3946 2.5961 5.3172 5.3606 5.8778 1.0175 4.5314 7.2182 7.6455 12.4054 6.143" fill="none" stroke="#000"/>
<path d="m 134.125 1068.89 c 1.2986 0.031 2.675 0.2835 3.8438 1.4375" fill="none" stroke="#000"/>
<path d="m 142.615 1067.44 c 1.8111 2.1307 3.1764 2.8285 5.4789 3.5698 v -2.982 c -1.459 -0.4128 -3.1183 -0.6313 -5.4789 -0.5878 z" fill-rule="evenodd"/>
<path d="m 129.81 1063.25 c -0.4854 -2.5239 -1.4494 -3.9007 -3.3861 -5.1757 l -3.1588 0.1757 c 1.8206 2.2175 3.5211 3.8829 6.5449 5 z" fill-rule="evenodd"/>
<path d="m 139.955 1067.25 4.9919 6.5027 -1.0599 -4.2497" fill="#fff"/>
</g>
</svg>
