<svg viewBox="0 0 512 512" xmlns="http://www.w3.org/2000/svg">

<g transform="matrix(18.68858,0,0,18.68858,-2272.07588,-19763.17684)">
<path d="m136.6164,1058.1069c-3.5832,5.1617-9.0882,9.3536-13.439,13.6854 .4548,1.8081 1.8001,4.2616 4.1413,5.4623l1.4164-.7477c1.88,6.6175 10.9958,9.9474 17.2383,6.5624-4.2655-2.7824-7.3788-7.1248-8.6976-11.8689 2.5273-3.7785 7.2107-7.0031 11.1782-8.3522v-4.7413h-11.8376z" fill="#fff" stroke="#000"/>
<path d="m122.0486,1058.0938v4.2812c3.6537,1.8743 7.8752,3.3825 13.1388,4.4688-3.0673-3.6132-5.6704-6.3287-8.25-8.75z" fill="#fff" fill-rule="evenodd" stroke="#000"/>
<path d="m137.0891,1064.5313c3.7395,5.0328 6.5584,7.0372 11.3125,9.5606v-5.8731c-3.0126-1.487-6.4384-2.6833-11.3125-3.6875z" fill="#fff" fill-rule="evenodd" stroke="#000"/>
<path d="m132.8116,1071.8484c1.5708-.5518 2.9031-.9204 4.585-.2293" fill="none" stroke="#000"/>
<path d="m133.6559,1074.9531c1.3745-.9395 2.566-1.6404 4.3694-1.4082" fill="none" stroke="#000"/>
<path d="m141.5777,1079.9601 3.7813,1.1455-.3281,3.2134-3.5156-.445c1.4716-.249 1.3017-2.6594.0625-3.9139z" fill-rule="evenodd"/>
<path d="m125.3789,1069.9957c.3218,2.3946 2.5961,5.3172 5.3606,5.8778 1.0175,4.5314 7.2182,7.6455 12.4054,6.143" fill="none" stroke="#000"/>
<path d="m134.125,1068.8935c1.2986.031 2.675.2835 3.8438,1.4375" fill="none" stroke="#000"/>
<path d="m142.6152,1067.4374c1.8111,2.1307 3.1764,2.8285 5.4789,3.5698v-2.982c-1.459-.4128-3.1183-.6313-5.4789-.5878z" fill-rule="evenodd"/>
<path d="m129.8098,1063.2503c-.4854-2.5239-1.4494-3.9007-3.3861-5.1757l-3.1588.1757c1.8206,2.2175 3.5211,3.8829 6.5449,5z" fill-rule="evenodd"/>
<path d="m139.9551,1067.2485 4.9919,6.5027-1.0599-4.2497" fill="#fff"/>
</g>
</svg>
