<svg viewBox="0 0 512 512" xmlns="http://www.w3.org/2000/svg">

<g fill="#fff" transform="matrix(15.49726,11.48103,-11.48103,15.49726,2821.36613,-15555.0366)">
<path d="m56.3476,730.4297c0,.9397-.7618,1.7015-1.7015,1.7015s-1.7015-.7618-1.7015-1.7015 .7618-1.7015 1.7015-1.7015 1.7015.7618 1.7015,1.7015z" fill="#fff" transform="matrix(.79886,-.21405,.26131,.97524,139.70665,29.11244)"/>
<path d="m56.3476,730.4297c0,.9397-.7618,1.7015-1.7015,1.7015s-1.7015-.7618-1.7015-1.7015 .7618-1.7015 1.7015-1.7015 1.7015.7618 1.7015,1.7015z" fill="#fff" transform="matrix(.93003,0,-1.5015736e-7,1.13536,327.00519,-101.00851)"/>
<path d="m56.3476,730.4297c0,.9397-.7618,1.7015-1.7015,1.7015s-1.7015-.7618-1.7015-1.7015 .7618-1.7015 1.7015-1.7015 1.7015.7618 1.7015,1.7015z" fill="#fff" transform="matrix(.98509,.16288,-.19884,1.20257,473.17912,-159.41099)"/>
<path d="m56.3476,730.4297c0,.9397-.7618,1.7015-1.7015,1.7015s-1.7015-.7618-1.7015-1.7015 .7618-1.7015 1.7015-1.7015 1.7015.7618 1.7015,1.7015z" fill="#fff" transform="matrix(1.31117,.59445,-.7257,1.60064,845.00073,-472.43824)"/>
<path d="m373.5344,735.252c-.8575,4.1589-.9118,9.2643 2.1463,15.1264 3.5722,6.8477 10.3024.1457 7.1293-2.5745-4.0534-3.4748-2.9336-6.9319.6672-8.5056 1.6007-.6995 2.6209-2.2581 2.3348-4.3392-.344-2.5026-3.6056-4.2211-6.9282-3.8766-2.5902.2685-4.8121,1.5636-5.3494,4.1694z" fill="#fff"/>
</g>
</svg>
