<svg viewBox="0 0 512 512" xmlns="http://www.w3.org/2000/svg">

<g transform="matrix(18.68858,0,0,18.68858,-3632.45002,-27221.58795)">
<path d="m218.2461,1471.903c0,5.6995-4.6204,10.3199-10.3199,10.3199s-10.3199-4.6204-10.3199-10.3199 4.6204-10.32 10.3199-10.32 10.3199,4.6204 10.3199,10.32z" fill="#fff" transform="matrix(1.213,0,0,1.213,-44.17576,-315.11203)"/>
<path d="m218.2461,1471.903c0,5.6995-4.6204,10.3199-10.3199,10.3199s-10.3199-4.6204-10.3199-10.3199 4.6204-10.32 10.3199-10.32 10.3199,4.6204 10.3199,10.32z" transform="matrix(1.11913,0,0,1.11913,-24.65925,-174.86873)"/>
<g transform="matrix(1.31142,0,0,1.31142,-59.2786,-452.18285)">
<path d="m199.8152,1471.8616 4.0217,3.097 4.0217-3.097-4.0217-11.7663z" fill="#fff"/>
<g transform="translate(32.5)">
<path d="m164.4165,1467.0224 6.0111,1.6718-6.0111,6.3515z" fill="#fff"/>
<path d="m178.2572,1467.0224-6.0111,1.6718 6.0111,6.3515z" fill="#fff"/>
</g>
<g transform="translate(32.4306)">
<path d="m167.1562,1468.331v-3.0313" fill="none" stroke="#fff" stroke-width=".7625"/>
<path d="m175.6562,1468.331v-3.0313" fill="none" stroke="#fff" stroke-width=".7625"/>
</g>
<path d="m202.4572,1469.1692c0-5.3311 2.7593-5.3241 2.7593,0z"/>
</g>
<path d="m205.6076,1482.9053-1.5817-6.9074h8.0241l-1.5817,6.9074z" fill="#fff"/>
</g>
</svg>
