<svg viewBox="0 0 512 512" xmlns="http://www.w3.org/2000/svg">

<g transform="matrix(18.68858,0,0,18.68858,-3632.45002,-27221.58795)">
<path d="m 218.246 1471.9 c 0 5.6995 -4.6204 10.3199 -10.3199 10.3199 s -10.3199 -4.6204 -10.3199 -10.3199 4.6204 -10.32 10.3199 -10.32 10.3199 4.6204 10.3199 10.32 z" fill="#fff" transform="matrix(1.213,0,0,1.213,-44.17576,-315.11203)"/>
<path d="m 218.246 1471.9 c 0 5.6995 -4.6204 10.3199 -10.3199 10.3199 s -10.3199 -4.6204 -10.3199 -10.3199 4.6204 -10.32 10.3199 -10.32 10.3199 4.6204 10.3199 10.32 z" transform="matrix(1.11913,0,0,1.11913,-24.65925,-174.86873)"/>
<g transform="matrix(1.31142,0,0,1.31142,-59.2786,-452.18285)">
<path d="m 199.815 1471.86 4.0217 3.097 4.0217 -3.097 -4.0217 -11.7663 z" fill="#fff"/>
<g transform="translate(32.5)">
<path d="m 164.417 1467.02 6.0111 1.6718 -6.0111 6.3515 z" fill="#fff"/>
<path d="m 178.257 1467.02 -6.0111 1.6718 6.0111 6.3515 z" fill="#fff"/>
</g>
<g transform="translate(32.4306)">
<path d="m 167.156 1468.33 v -3.0313" fill="none" stroke="#fff" stroke-width=".7625"/>
<path d="m 175.656 1468.33 v -3.0313" fill="none" stroke="#fff" stroke-width=".7625"/>
</g>
<path d="m 202.457 1469.17 c 0 -5.3311 2.7593 -5.3241 2.7593 0 z"/>
</g>
<path d="m 205.608 1482.91 -1.5817 -6.9074 h 8.0241 l -1.5817 6.9074 z" fill="#fff"/>
</g>
</svg>
