<svg viewBox="0 0 512 512" xmlns="http://www.w3.org/2000/svg">

<g transform="matrix(18.68858,0,0,18.68858,-8406.79477,-42866.8344)">
<path d="m 455.061 2296.08 -4.3084 6.2077 1.6369 10.4161 9.2349 3.2631 7.6741 -0.8648 6.1609 -2.4324 0.4757 -5.3237 -2.4356 -7.5931 -5.6165 -4.8633 z" fill="#fff"/>
<path d="m 452.708 2311.4 0.8348 5.4701 8.5183 2.8687 6.2054 -0.5376 6.4931 -3.0941 0.2865 -4.5072" fill="none" stroke="#fff"/>
<path d="m 462.066 2319.63 -0.4649 -4.3688" fill="none" stroke="#fff"/>
<g stroke="#000" stroke-width="1.0728" transform="matrix(.99756,-.06066,.06981,.86682,-161.79726,332.57962)">
<path d="m 464.575 2310.23 c 1.1974 3.0023 0.4386 3.7476 -1.3338 6.205" fill="none" stroke="#000" stroke-width="1.0728"/>
<path d="m 461.757 2308.32 c -2.2554 1.1913 -3.8538 0.989 -5.5357 0.1196" fill="none" stroke="#000" stroke-width="1.0728"/>
<path d="m 462.437 2304.31 c -1.5638 -0.7753 -2.6789 -2.0623 -2.7099 -4.0924" fill="none" stroke="#000" stroke-width="1.0728"/>
<path d="m 464.824 2303.79 c -0.149 -1.7496 0.4394 -2.9935 1.1461 -4.5299" fill="none" stroke="#000" stroke-width="1.0728"/>
<path d="m 466.627 2304.97 3.1686 -0.6217" fill="none" stroke="#000" stroke-width="1.0728"/>
<path d="m 466.232 2306.92 2.6455 1.9196" fill="none" stroke="#000" stroke-width="1.0728"/>
<path d="m 464.538 2310.17 0.4706 -2.7622 c 0.8282 0.013 1.5149 -0.883 1.4942 -1.8044 -0.0285 -1.2719 -1.2112 -2.1758 -2.4286 -2.1378 -1.6585 0.052 -2.8359 1.6052 -2.7783 3.2016 0.0775 2.1489 2.0837 3.6665 4.1471 3.5758 2.7469 -0.1207 4.6854 -2.703 4.5587 -5.3546 -0.1669 -3.4935 -3.4403 -5.9472 -6.804 -5.7627 -4.3893 0.2407 -7.4718 4.3815 -7.2258 8.6293 0.3184 5.4931 5.4827 9.3344 10.7847 8.9929 2.5808 -0.1661 5.0543 -1.2533 6.9744 -2.9833 -0.5965 -3.7148 -1.5496 -4.1416 -4.7632 -5.5644" fill="none" stroke="#000" stroke-width="1.0728"/>
<path d="m 170.121 2016.13 c 0 0.9233 -0.7485 1.6718 -1.6718 1.6718 s -1.6718 -0.7485 -1.6718 -1.6718 0.7485 -1.6718 1.6718 -1.6718 1.6718 0.7485 1.6718 1.6718 z" stroke="none" transform="matrix(.5622,.66762,-.66759,.56224,1716.1142,1060.8065)"/>
<path d="m 464.127 2306.96 -2.4796 0.9472" fill="none" stroke="#000" stroke-width="1.0728"/>
<path d="m 463.25 2303.72 1.084 2.1709" fill="none" stroke="#000" stroke-width="1.0728"/>
</g>
<path d="m 468.368 2319.09 1.1012 -4.9036" fill="none" stroke="#fff"/>
<path d="m 474.354 2298.93 -4.3037 5.1355 6.1564 1.8481"/>
<path d="m 473.031 2299.89 -0.0312 5.5313" fill="none" stroke="#fff"/>
</g>
</svg>
