<svg viewBox="0 0 512 512" xmlns="http://www.w3.org/2000/svg">

<g transform="matrix(18.68858,0,0,18.68858,-8406.79477,-42866.8344)">
<path d="m455.0607,2296.081-4.3084,6.2077 1.6369,10.4161 9.2349,3.2631 7.6741-.8648 6.1609-2.4324 .4757-5.3237-2.4356-7.5931-5.6165-4.8633z" fill="#fff"/>
<path d="m452.7081,2311.3974 .8348,5.4701 8.5183,2.8687 6.2054-.5376 6.4931-3.0941 .2865-4.5072" fill="none" stroke="#fff"/>
<path d="m462.066,2319.6292-.4649-4.3688" fill="none" stroke="#fff"/>
<g stroke="#000" stroke-width="1.0728" transform="matrix(.99756,-.06066,.06981,.86682,-161.79726,332.57962)">
<path d="m464.5753,2310.2251c1.1974,3.0023.4386,3.7476-1.3338,6.205" fill="none" stroke="#000" stroke-width="1.0728"/>
<path d="m461.7575,2308.3176c-2.2554,1.1913-3.8538.989-5.5357.1196" fill="none" stroke="#000" stroke-width="1.0728"/>
<path d="m462.4368,2304.31c-1.5638-.7753-2.6789-2.0623-2.7099-4.0924" fill="none" stroke="#000" stroke-width="1.0728"/>
<path d="m464.8243,2303.7887c-.149-1.7496.4394-2.9935 1.1461-4.5299" fill="none" stroke="#000" stroke-width="1.0728"/>
<path d="m466.627,2304.9666 3.1686-.6217" fill="none" stroke="#000" stroke-width="1.0728"/>
<path d="m466.2322,2306.9231 2.6455,1.9196" fill="none" stroke="#000" stroke-width="1.0728"/>
<path d="m464.5383,2310.1733 .4706-2.7622c.8282.013 1.5149-.883 1.4942-1.8044-.0285-1.2719-1.2112-2.1758-2.4286-2.1378-1.6585.052-2.8359,1.6052-2.7783,3.2016 .0775,2.1489 2.0837,3.6665 4.1471,3.5758 2.7469-.1207 4.6854-2.703 4.5587-5.3546-.1669-3.4935-3.4403-5.9472-6.804-5.7627-4.3893.2407-7.4718,4.3815-7.2258,8.6293 .3184,5.4931 5.4827,9.3344 10.7847,8.9929 2.5808-.1661 5.0543-1.2533 6.9744-2.9833-.5965-3.7148-1.5496-4.1416-4.7632-5.5644" fill="none" stroke="#000" stroke-width="1.0728"/>
<path d="m170.1207,2016.1255c0,.9233-.7485,1.6718-1.6718,1.6718s-1.6718-.7485-1.6718-1.6718 .7485-1.6718 1.6718-1.6718 1.6718.7485 1.6718,1.6718z" stroke="none" transform="matrix(.5622,.66762,-.66759,.56224,1716.1142,1060.8065)"/>
<path d="m464.1273,2306.9565-2.4796.9472" fill="none" stroke="#000" stroke-width="1.0728"/>
<path d="m463.2505,2303.7229 1.084,2.1709" fill="none" stroke="#000" stroke-width="1.0728"/>
</g>
<path d="m468.3684,2319.0944 1.1012-4.9036" fill="none" stroke="#fff"/>
<path d="m474.3542,2298.9347-4.3037,5.1355 6.1564,1.8481"/>
<path d="m473.0312,2299.8934-.0312,5.5313" fill="none" stroke="#fff"/>
</g>
</svg>
