<svg viewBox="0 0 512 512" xmlns="http://www.w3.org/2000/svg">

<g transform="matrix(18.68858,0,0,18.68858,-8404.95227,-38782.58391)">
<path d="m456.8696,2079.3989c1.1029.6477 2.0602,1.4843 2.7557,2.4967-2.2373-.7317-4.5683-.8147-7.0038-.2856 1.5193.1481 2.9886.4465 4.3496.9328-2.0101.2401-3.9864.8295-5.9164,1.8238 2.0989-.3491 4.2002-.4089 6.1893-.1924-2.65,1.3535-4.8298,3.356-6.5348,6.0072 1.5254-1.2549 3.1585-2.3141 4.8505-3.1053-1.3372,2.3171-2.0599,4.9213-2.1965,7.7713 .6065-1.6172 1.3764-3.1753 2.2721-4.5583-.4162,2.2162-.3459,4.5272.1671,6.8894 .2713-2.7892.9925-5.4497 2.1672-7.735 .0442,1.751.3508,3.5045.959,5.2776-.0687-3.518 1.0299-7.147 3.0453-9.5353l.4766-2.3283c-1.1295-2.1171-3.0026-3.2545-5.5809-3.4586z" fill="#fff"/>
<path d="m469.7895,2079.3989c-1.1029.6477-2.0602,1.4843-2.7557,2.4967 2.2373-.7317 4.5683-.8147 7.0038-.2856-1.5193.1481-2.9886.4465-4.3496.9328 2.0101.2401 3.9864.8295 5.9164,1.8238-2.0989-.3491-4.2002-.4089-6.1893-.1924 2.65,1.3535 4.8298,3.356 6.5348,6.0072-1.5254-1.2549-3.1585-2.3141-4.8505-3.1053 1.3372,2.3171 2.0599,4.9213 2.1965,7.7713-.6065-1.6172-1.3764-3.1753-2.2721-4.5583 .4162,2.2162.3459,4.5272-.1671,6.8894-.2713-2.7892-.9925-5.4497-2.1672-7.735-.0442,1.751-.3508,3.5045-.959,5.2776 .0687-3.518-1.0299-7.147-3.0453-9.5353l-.4766-2.3283c1.1295-2.1171 3.0026-3.2545 5.5809-3.4586z" fill="#fff"/>
<path d="m463.3162,2080.1618c-3.0348,2.567-3.0348,6.0437 0,8.6107 3.0348-2.567 3.0348-6.0437 0-8.6107z" fill="#fff"/>
<path d="m457.8517,2101.6158c5.4992-2.5909 5.4331-18.4304 2.4215-13.8588l1.7222-3.373 2.8298-.069 1.457,3.2904c-2.1766-3.2052-2.1668,11.4198 3.3324,14.0107z" fill="#fff"/>
<path d="m460.49,2077.5921c.6313,1.5356 1.042,3.1965 1.1382,4.8872l1.9657,3.0999c.0804-3.3108-.9731-5.9633-3.1039-7.9871z" fill="#fff"/>
<path d="m465.1944,2076.0907c-.678,1.6492-1.1191,3.4329-1.2224,5.2485l-2.111,3.3291c-.0864-3.5556 1.0451-6.4041 3.3334-8.5776z" fill="#fff"/>
<path d="m469.7139,2077.0463c-1.658,1.2792-3.1541,2.8344-4.3254,4.6205l-4.1022,2.1464c2.0002-3.6671 4.8238-5.9 8.4276-6.7669z" fill="#fff"/>
</g>
</svg>
