<svg viewBox="0 0 512 512" xmlns="http://www.w3.org/2000/svg">

<g transform="matrix(18.68858,0,0,18.68858,-5912.77064,-7882.46842)">
<path d="m326.1405,435.7883 5.9441,8.9051c2.3413-.4148 5.6388.9045 8.4853,3.5355l2.2539-2.2539c-2.631-2.8465-3.9503-6.144-3.5355-8.4853l-8.9051-5.9441-4.2426,4.2427z" fill="#fff"/>
<path d="m341.9479,447.3531-7.2042-7.2042" fill="none" stroke="#000"/>
<path d="m329.5,435.8153c0,.8198-.6646,1.4844-1.4844,1.4844s-1.4844-.6646-1.4844-1.4844 .6646-1.4844 1.4844-1.4844 1.4844.6646 1.4844,1.4844z" transform="matrix(.75177,-.75177,.75177,.75177,-239.97009,358.61711)"/>
<path d="m316.8472,422.3939 2e-05,7.3675c3.2746,2.8742 6.3444,5.3879 9.0487,7.3981 1.4113-.3782 5.4689-4.4584 5.8389-5.839-1.9832-2.6682-4.4501-5.7015-7.2757-8.9266l-7.6119-1e-05z" fill="#fff" stroke="#000"/>
<path d="m324.1049,435.4638c1.4491-.3883 5.6153-4.5777 5.9951-5.9952" fill="none" stroke="#000"/>
<path d="m321.9174,433.87c1.5775-.4227 6.1129-4.9833 6.5264-6.5265" fill="none" stroke="#000"/>
</g>
</svg>
