<svg viewBox="0 0 512 512" xmlns="http://www.w3.org/2000/svg">

<g transform="matrix(18.68858,0,0,18.68858,-8404.95227,-38782.58391)">
<path d="m 456.87 2079.4 c 1.1029 0.6477 2.0602 1.4843 2.7557 2.4967 -2.2373 -0.7317 -4.5683 -0.8147 -7.0038 -0.2856 1.5193 0.1481 2.9886 0.4465 4.3496 0.9328 -2.0101 0.2401 -3.9864 0.8295 -5.9164 1.8238 2.0989 -0.3491 4.2002 -0.4089 6.1893 -0.1924 -2.65 1.3535 -4.8298 3.356 -6.5348 6.0072 1.5254 -1.2549 3.1585 -2.3141 4.8505 -3.1053 -1.3372 2.3171 -2.0599 4.9213 -2.1965 7.7713 0.6065 -1.6172 1.3764 -3.1753 2.2721 -4.5583 -0.4162 2.2162 -0.3459 4.5272 0.1671 6.8894 0.2713 -2.7892 0.9925 -5.4497 2.1672 -7.735 0.0442 1.751 0.3508 3.5045 0.959 5.2776 -0.0687 -3.518 1.0299 -7.147 3.0453 -9.5353 l 0.4766 -2.3283 c -1.1295 -2.1171 -3.0026 -3.2545 -5.5809 -3.4586 z" fill="#fff"/>
<path d="m 469.789 2079.4 c -1.1029 0.6477 -2.0602 1.4843 -2.7557 2.4967 2.2373 -0.7317 4.5683 -0.8147 7.0038 -0.2856 -1.5193 0.1481 -2.9886 0.4465 -4.3496 0.9328 2.0101 0.2401 3.9864 0.8295 5.9164 1.8238 -2.0989 -0.3491 -4.2002 -0.4089 -6.1893 -0.1924 2.65 1.3535 4.8298 3.356 6.5348 6.0072 -1.5254 -1.2549 -3.1585 -2.3141 -4.8505 -3.1053 1.3372 2.3171 2.0599 4.9213 2.1965 7.7713 -0.6065 -1.6172 -1.3764 -3.1753 -2.2721 -4.5583 0.4162 2.2162 0.3459 4.5272 -0.1671 6.8894 -0.2713 -2.7892 -0.9925 -5.4497 -2.1672 -7.735 -0.0442 1.751 -0.3508 3.5045 -0.959 5.2776 0.0687 -3.518 -1.0299 -7.147 -3.0453 -9.5353 l -0.4766 -2.3283 c 1.1295 -2.1171 3.0026 -3.2545 5.5809 -3.4586 z" fill="#fff"/>
<path d="m 463.316 2080.16 c -3.0348 2.567 -3.0348 6.0437 0 8.6107 3.0348 -2.567 3.0348 -6.0437 0 -8.6107 z" fill="#fff"/>
<path d="m 457.852 2101.62 c 5.4992 -2.5909 5.4331 -18.4304 2.4215 -13.8588 l 1.7222 -3.373 2.8298 -0.069 1.457 3.2904 c -2.1766 -3.2052 -2.1668 11.4198 3.3324 14.0107 z" fill="#fff"/>
<path d="m 460.49 2077.59 c 0.6313 1.5356 1.042 3.1965 1.1382 4.8872 l 1.9657 3.0999 c 0.0804 -3.3108 -0.9731 -5.9633 -3.1039 -7.9871 z" fill="#fff"/>
<path d="m 465.194 2076.09 c -0.678 1.6492 -1.1191 3.4329 -1.2224 5.2485 l -2.111 3.3291 c -0.0864 -3.5556 1.0451 -6.4041 3.3334 -8.5776 z" fill="#fff"/>
<path d="m 469.714 2077.05 c -1.658 1.2792 -3.1541 2.8344 -4.3254 4.6205 l -4.1022 2.1464 c 2.0002 -3.6671 4.8238 -5.9 8.4276 -6.7669 z" fill="#fff"/>
</g>
</svg>
