<svg viewBox="0 0 512 512" xmlns="http://www.w3.org/2000/svg">

<g transform="matrix(18.68858,0,0,18.68858,-4021.01249,-13527.73594)">
<path d="m227.1501,733.0953c-1.0085-3.4051-2.7382-6.1072-4.4595-8.8176 .3079,5.1995-.057,9.9325-.5649,14.6961 2.7875,3.3657 4.3582,5.2851 4.4693,10.9619 1.2179.5691 2.733.5383 3.8307,0 .3715-5.9416 1.3165-7.2212 4.7485-11.4963-.8911-4.6538-1.7979-9.3075-1.466-13.9613-1.7973,2.4378-3.2683,5.6467-4.0043,8.6172" fill="#fff" fill-rule="evenodd"/>
<path d="m239.8613,730.77h6.3146v4.4412h-6.3146z" fill="#fff" transform="matrix(1,0,-.02014,.9998,0,0)"/>
<path d="m225.998,730.6042c1.5895-.3856 3.1703-.3407 4.7443.0411" fill="#fff" fill-rule="evenodd" stroke="#000"/>
<path d="m233.6801,724.3344c-1.7557,2.5058-3.1939,5.8041-3.915,8.8574m-2.4909,0c-.98-3.5-2.6643-6.2774-4.3404-9.0634" fill="none" stroke="#000"/>
<path d="m226.7534,738.6288c.9641,1.0014.7872,2.5502-.0491,3.7734 .1481-2.1653-.8106-3.4177-2.7773-3.8792 .879-1.0216 1.8568-.9013 2.8264.1058z"/>
<path d="m230.4216,738.6288c-1.0045,1.0014-.8899,2.5502-.1029,3.7734-.0609-2.1653.9483-3.4177 2.9337-3.8792-.8379-1.0216-1.8204-.9013-2.8307.1058z"/>
<path d="m232.2855,742.3313c1.036-1.9747 3.4492-2.7014 5.3327-3.9081l-2.2076-.1494 2.8363-2.8939-3.2809,1.2925 .7685-2.2254-1.9732,1.0301" fill="#fff" fill-rule="evenodd"/>
<path d="m224.6793,742.3313c-1.036-1.9747-3.4492-2.7014-5.3327-3.9081l2.2076-.1494-2.8363-2.8939 3.2809,1.2925-.7685-2.2254 1.9732,1.0301" fill="#fff" fill-rule="evenodd"/>
</g>
</svg>
