<svg viewBox="0 0 512 512" xmlns="http://www.w3.org/2000/svg">

<g transform="matrix(18.68858,0,0,18.68858,-4021.01249,-13527.73594)">
<path d="m 227.15 733.095 c -1.0085 -3.4051 -2.7382 -6.1072 -4.4595 -8.8176 0.3079 5.1995 -0.057 9.9325 -0.5649 14.6961 2.7875 3.3657 4.3582 5.2851 4.4693 10.9619 1.2179 0.5691 2.733 0.5383 3.8307 0 0.3715 -5.9416 1.3165 -7.2212 4.7485 -11.4963 -0.8911 -4.6538 -1.7979 -9.3075 -1.466 -13.9613 -1.7973 2.4378 -3.2683 5.6467 -4.0043 8.6172" fill="#fff" fill-rule="evenodd"/>
<path d="m 239.861 730.77 h 6.3146 v 4.4412 h -6.3146 z" fill="#fff" transform="matrix(1,0,-.02014,.9998,0,0)"/>
<path d="m 225.998 730.604 c 1.5895 -0.3856 3.1703 -0.3407 4.7443 0.0411" fill="#fff" fill-rule="evenodd" stroke="#000"/>
<path d="m 233.68 724.334 c -1.7557 2.5058 -3.1939 5.8041 -3.915 8.8574 m -2.4909 0 c -0.98 -3.5 -2.6643 -6.2774 -4.3404 -9.0634" fill="none" stroke="#000"/>
<path d="m 226.753 738.629 c 0.9641 1.0014 0.7872 2.5502 -0.0491 3.7734 0.1481 -2.1653 -0.8106 -3.4177 -2.7773 -3.8792 0.879 -1.0216 1.8568 -0.9013 2.8264 0.1058 z"/>
<path d="m 230.422 738.629 c -1.0045 1.0014 -0.8899 2.5502 -0.1029 3.7734 -0.0609 -2.1653 0.9483 -3.4177 2.9337 -3.8792 -0.8379 -1.0216 -1.8204 -0.9013 -2.8307 0.1058 z"/>
<path d="m 232.286 742.331 c 1.036 -1.9747 3.4492 -2.7014 5.3327 -3.9081 l -2.2076 -0.1494 2.8363 -2.8939 -3.2809 1.2925 0.7685 -2.2254 -1.9732 1.0301" fill="#fff" fill-rule="evenodd"/>
<path d="m 224.679 742.331 c -1.036 -1.9747 -3.4492 -2.7014 -5.3327 -3.9081 l 2.2076 -0.1494 -2.8363 -2.8939 3.2809 1.2925 -0.7685 -2.2254 1.9732 1.0301" fill="#fff" fill-rule="evenodd"/>
</g>
</svg>
