<svg xmlns="http://www.w3.org/2000/svg" viewBox="0 0 512 512">
<g fill="#fff">
<g fill-rule="evenodd">
<g transform="matrix(18.68858 0 0 18.68858 -4992.92232 -21124.44684)">
<path d="m 293.757 1131.44 v 3.693 c -4.5782 0.043 -5.6945 2.7647 -3.6615 4.4618 4.5268 3.7791 1.2992 6.1801 -5.6592 5.9319 5.8844 -3.0818 2.6663 -5.3762 -2.6653 -5.8789 -9.0548 -0.8539 -9.1226 -5.2549 -2.2118 -8.2078 h 14.1979 z"/>
<path d="m 282.904 1138.25 -1.5381 1.329 c 3.7337 0.4408 4.6535 2.4108 4.0447 4.627 3.1034 -2.5882 0.0179 -4.9422 -2.5066 -5.956 z"/>
</g>
<g stroke="#000" transform="matrix(18.68858 0 0 18.68858 -4992.92232 -21124.44684)">
<path d="m 278.87 1150.19 c 3.658 7.8717 -6.1805 10.8601 -3.695 -0.2927"/>
<path d="m 280.237 1148.96 c 7.6329 6.2874 2.917 13.6368 -2.6971 1.3396"/>
<path d="m 276.491 1151.27 c -0.5893 5.8018 -6.891 5.9776 -5.3862 1.9984 -4.5206 0.3368 -5.1943 -3.7955 4.9402 -4.9768"/>
<path d="m 280.342 1147.74 c 4.8532 -3.5649 7.6881 -0.4297 6.1005 1.192 3.5242 2.0218 1.8119 5.5023 -7.2033 1.61"/>
<path d="m 276.503 1149.8 c -9.711 0.2426 -11.4468 -8.5436 0.9796 -2.8235"/>
<path d="m 278.37 1146.05 c 3.1277 -6.7264 10.9852 -3.3161 1.9979 2.141"/>
<path d="m 276.817 1148.44 c -4.9526 -2.7741 -5.1869 -7.5222 -1.7091 -6.2366 1.9213 -2.0796 5.4996 -1.6113 4.0347 5.5963"/>
</g>
</g>
<g transform="matrix(18.68858 0 0 18.68858 -4992.92232 -21124.44684)">
<path stroke="#000" stroke-width="1.143" d="m283.2526,1148.7667c0,2.0352-1.6498,3.685-3.6849,3.685s-3.6849-1.6498-3.6849-3.685 1.6498-3.6849 3.6849-3.6849 3.6849,1.6498 3.6849,3.6849z" transform="matrix(.87522 0 0 .87522 32.87656 142.97556)"/>
</g>
</g>
<g fill-rule="evenodd" transform="matrix(18.68858 0 0 18.68858 -4992.92232 -21124.44684)">
<path d="m 275.341 1146.25 1.6528 1.4089 -0.271 -2.276"/>
<path d="m 278.686 1145.59 -0.475 1.9951 1.9169 -1.2319"/>
<path d="m 280.592 1148.12 -1.9653 0.5861 2.0253 1.0442"/>
<path d="m 278.484 1151.29 -0.9542 -2.1494 -0.6649 2.2151"/>
<path d="m 274.903 1149.87 1.7737 -1.2916 -2.2537 -0.2677"/>
</g>
<g fill="#fff" transform="matrix(18.68858 0 0 18.68858 -4992.92232 -21124.44684)">
<path d="m 295.852 1143.92 c 0 0.3292 -0.2669 0.5961 -0.5961 0.5961 s -0.5961 -0.2669 -0.5961 -0.5961 0.2669 -0.5961 0.5961 -0.5961 0.5961 0.2669 0.5961 0.5961 z" transform="translate(-19.0666 -10.9548)"/>
<path d="m 295.852 1143.92 c 0 0.3292 -0.2669 0.5961 -0.5961 0.5961 s -0.5961 -0.2669 -0.5961 -0.5961 0.2669 -0.5961 0.5961 -0.5961 0.5961 0.2669 0.5961 0.5961 z" transform="translate(-2.772 -7.0625)"/>
<path d="m 295.852 1143.92 c 0 0.3292 -0.2669 0.5961 -0.5961 0.5961 s -0.5961 -0.2669 -0.5961 -0.5961 0.2669 -0.5961 0.5961 -0.5961 0.5961 0.2669 0.5961 0.5961 z" transform="translate(-21.5097 -6.5644)"/>
<path d="m 295.852 1143.92 c 0 0.3292 -0.2669 0.5961 -0.5961 0.5961 s -0.5961 -0.2669 -0.5961 -0.5961 0.2669 -0.5961 0.5961 -0.5961 0.5961 0.2669 0.5961 0.5961 z" transform="matrix(1.41671 0 0 1.41671 -141.11677 -481.92409)"/>
<path d="m 295.852 1143.92 c 0 0.3292 -0.2669 0.5961 -0.5961 0.5961 s -0.5961 -0.2669 -0.5961 -0.5961 0.2669 -0.5961 0.5961 -0.5961 0.5961 0.2669 0.5961 0.5961 z" transform="translate(-4.5347 -6.2195)"/>
<path d="m 295.852 1143.92 c 0 0.3292 -0.2669 0.5961 -0.5961 0.5961 s -0.5961 -0.2669 -0.5961 -0.5961 0.2669 -0.5961 0.5961 -0.5961 0.5961 0.2669 0.5961 0.5961 z" transform="translate(-14.8806 -3.001)"/>
<path d="m 295.852 1143.92 c 0 0.3292 -0.2669 0.5961 -0.5961 0.5961 s -0.5961 -0.2669 -0.5961 -0.5961 0.2669 -0.5961 0.5961 -0.5961 0.5961 0.2669 0.5961 0.5961 z" transform="matrix(1.32055 0 0 1.32055 -96.98014 -372.86036)"/>
<path d="m 295.852 1143.92 c 0 0.3292 -0.2669 0.5961 -0.5961 0.5961 s -0.5961 -0.2669 -0.5961 -0.5961 0.2669 -0.5961 0.5961 -0.5961 0.5961 0.2669 0.5961 0.5961 z" transform="matrix(1.27199 0 0 1.27199 -102.15292 -320.76024)"/>
<path d="m 295.852 1143.92 c 0 0.3292 -0.2669 0.5961 -0.5961 0.5961 s -0.5961 -0.2669 -0.5961 -0.5961 0.2669 -0.5961 0.5961 -0.5961 0.5961 0.2669 0.5961 0.5961 z" transform="translate(-21.1429 -10.3258)"/>
<path d="m 295.852 1143.92 c 0 0.3292 -0.2669 0.5961 -0.5961 0.5961 s -0.5961 -0.2669 -0.5961 -0.5961 0.2669 -0.5961 0.5961 -0.5961 0.5961 0.2669 0.5961 0.5961 z" transform="translate(-4.173 -8.2721)"/>
</g>
<g fill-rule="evenodd" transform="matrix(18.68858 0 0 18.68858 -4992.92232 -21124.44684)">
<path d="m 293.951 1133.11 c -5.9356 -0.1928 -14.4441 1.5974 -6.6112 5.5871 -12.3447 -3.8387 -3.7903 -5.9363 6.6876 -6.3925"/>
<path d="m 282.149 1138.18 c -4.2907 -0.6844 -4.0531 -3.5905 -2.4771 -4.882 -4.6106 0.7791 -2.8646 6.0505 2.4771 4.882 z"/>
</g>
<g fill="#fff" transform="matrix(18.68858 0 0 18.68858 -4992.92232 -21124.44684)">
<path d="m 295.852 1143.92 c 0 0.3292 -0.2669 0.5961 -0.5961 0.5961 s -0.5961 -0.2669 -0.5961 -0.5961 0.2669 -0.5961 0.5961 -0.5961 0.5961 0.2669 0.5961 0.5961 z" transform="translate(-17.9543 -8.0559)"/>
<path d="m 295.852 1143.92 c 0 0.3292 -0.2669 0.5961 -0.5961 0.5961 s -0.5961 -0.2669 -0.5961 -0.5961 0.2669 -0.5961 0.5961 -0.5961 0.5961 0.2669 0.5961 0.5961 z" transform="translate(-12.658 -9.7313)"/>
</g>
<g transform="matrix(18.68858 0 0 18.68858 -4992.92232 -21124.44684)">
<path fill="none" stroke="#000" d="m283.7698,1136.834c4.3622,2.2134 6.5791,1.1307 8.4921,4.5164"/>
</g>
<g fill="#fff" transform="matrix(18.68858 0 0 18.68858 -4992.92232 -21124.44684)">
<path d="m 295.852 1143.92 c 0 0.3292 -0.2669 0.5961 -0.5961 0.5961 s -0.5961 -0.2669 -0.5961 -0.5961 0.2669 -0.5961 0.5961 -0.5961 0.5961 0.2669 0.5961 0.5961 z" transform="translate(-3.4389 -2.0987)"/>
<path d="m 295.852 1143.92 c 0 0.3292 -0.2669 0.5961 -0.5961 0.5961 s -0.5961 -0.2669 -0.5961 -0.5961 0.2669 -0.5961 0.5961 -0.5961 0.5961 0.2669 0.5961 0.5961 z" transform="translate(-10.8971 -7.3283)"/>
<path d="m 295.852 1143.92 c 0 0.3292 -0.2669 0.5961 -0.5961 0.5961 s -0.5961 -0.2669 -0.5961 -0.5961 0.2669 -0.5961 0.5961 -0.5961 0.5961 0.2669 0.5961 0.5961 z" transform="translate(-3.0248 1.8433)"/>
</g>
<g transform="matrix(18.68858 0 0 18.68858 -4992.92232 -21124.44684)">
<path fill-rule="evenodd" d="m285.2348,1145.6413c4.257-.4828 4.9664-2.533 3.8981-3.4442 4.0881.5496.7529,4.2686-3.8981,3.4442z"/>
</g>
</svg>
