<svg xmlns="http://www.w3.org/2000/svg" viewBox="0 0 512 512">
<g fill="#fff">
<g fill-rule="evenodd">
<g transform="matrix(18.68858 0 0 18.68858 -4992.92232 -21124.44684)">
<path d="m293.7571,1131.4362v3.693c-4.5782.043-5.6945,2.7647-3.6615,4.4618 4.5268,3.7791 1.2992,6.1801-5.6592,5.9319 5.8844-3.0818 2.6663-5.3762-2.6653-5.8789-9.0548-.8539-9.1226-5.2549-2.2118-8.2078h14.1979z"/>
<path d="m282.9042,1138.253-1.5381,1.329c3.7337.4408 4.6535,2.4108 4.0447,4.627 3.1034-2.5882.0179-4.9422-2.5066-5.956z"/>
</g>
<g stroke="#000" transform="matrix(18.68858 0 0 18.68858 -4992.92232 -21124.44684)">
<path d="m278.8701,1150.1882c3.658,7.8717-6.1805,10.8601-3.695-.2927"/>
<path d="m280.2367,1148.9581c7.6329,6.2874 2.917,13.6368-2.6971,1.3396"/>
<path d="m276.4909,1151.2695c-.5893,5.8018-6.891,5.9776-5.3862,1.9984-4.5206.3368-5.1943-3.7955 4.9402-4.9768"/>
<path d="m280.3418,1147.7412c4.8532-3.5649 7.6881-.4297 6.1005,1.192 3.5242,2.0218 1.8119,5.5023-7.2033,1.61"/>
<path d="m276.5026,1149.8016c-9.711.2426-11.4468-8.5436.9796-2.8235"/>
<path d="m278.3696,1146.0517c3.1277-6.7264 10.9852-3.3161 1.9979,2.141"/>
<path d="m276.8165,1148.4402c-4.9526-2.7741-5.1869-7.5222-1.7091-6.2366 1.9213-2.0796 5.4996-1.6113 4.0347,5.5963"/>
</g>
</g>
<g transform="matrix(18.68858 0 0 18.68858 -4992.92232 -21124.44684)">
<path stroke="#000" stroke-width="1.143" d="m283.2526,1148.7667c0,2.0352-1.6498,3.685-3.6849,3.685s-3.6849-1.6498-3.6849-3.685 1.6498-3.6849 3.6849-3.6849 3.6849,1.6498 3.6849,3.6849z" transform="matrix(.87522 0 0 .87522 32.87656 142.97556)"/>
</g>
</g>
<g fill-rule="evenodd" transform="matrix(18.68858 0 0 18.68858 -4992.92232 -21124.44684)">
<path d="m275.3409,1146.2469 1.6528,1.4089-.271-2.276"/>
<path d="m278.6863,1145.5879-.475,1.9951 1.9169-1.2319"/>
<path d="m280.5916,1148.1153-1.9653.5861 2.0253,1.0442"/>
<path d="m278.4838,1151.2861-.9542-2.1494-.6649,2.2151"/>
<path d="m274.9026,1149.8733 1.7737-1.2916-2.2537-.2677"/>
</g>
<g fill="#fff" transform="matrix(18.68858 0 0 18.68858 -4992.92232 -21124.44684)">
<path d="m295.8519,1143.9166c0,.3292-.2669.5961-.5961.5961s-.5961-.2669-.5961-.5961 .2669-.5961.5961-.5961 .5961.2669.5961.5961z" transform="translate(-19.0666 -10.9548)"/>
<path d="m295.8519,1143.9166c0,.3292-.2669.5961-.5961.5961s-.5961-.2669-.5961-.5961 .2669-.5961.5961-.5961 .5961.2669.5961.5961z" transform="translate(-2.772 -7.0625)"/>
<path d="m295.8519,1143.9166c0,.3292-.2669.5961-.5961.5961s-.5961-.2669-.5961-.5961 .2669-.5961.5961-.5961 .5961.2669.5961.5961z" transform="translate(-21.5097 -6.5644)"/>
<path d="m295.8519,1143.9166c0,.3292-.2669.5961-.5961.5961s-.5961-.2669-.5961-.5961 .2669-.5961.5961-.5961 .5961.2669.5961.5961z" transform="matrix(1.41671 0 0 1.41671 -141.11677 -481.92409)"/>
<path d="m295.8519,1143.9166c0,.3292-.2669.5961-.5961.5961s-.5961-.2669-.5961-.5961 .2669-.5961.5961-.5961 .5961.2669.5961.5961z" transform="translate(-4.5347 -6.2195)"/>
<path d="m295.8519,1143.9166c0,.3292-.2669.5961-.5961.5961s-.5961-.2669-.5961-.5961 .2669-.5961.5961-.5961 .5961.2669.5961.5961z" transform="translate(-14.8806 -3.001)"/>
<path d="m295.8519,1143.9166c0,.3292-.2669.5961-.5961.5961s-.5961-.2669-.5961-.5961 .2669-.5961.5961-.5961 .5961.2669.5961.5961z" transform="matrix(1.32055 0 0 1.32055 -96.98014 -372.86036)"/>
<path d="m295.8519,1143.9166c0,.3292-.2669.5961-.5961.5961s-.5961-.2669-.5961-.5961 .2669-.5961.5961-.5961 .5961.2669.5961.5961z" transform="matrix(1.27199 0 0 1.27199 -102.15292 -320.76024)"/>
<path d="m295.8519,1143.9166c0,.3292-.2669.5961-.5961.5961s-.5961-.2669-.5961-.5961 .2669-.5961.5961-.5961 .5961.2669.5961.5961z" transform="translate(-21.1429 -10.3258)"/>
<path d="m295.8519,1143.9166c0,.3292-.2669.5961-.5961.5961s-.5961-.2669-.5961-.5961 .2669-.5961.5961-.5961 .5961.2669.5961.5961z" transform="translate(-4.173 -8.2721)"/>
</g>
<g fill-rule="evenodd" transform="matrix(18.68858 0 0 18.68858 -4992.92232 -21124.44684)">
<path d="m293.9507,1133.1136c-5.9356-.1928-14.4441,1.5974-6.6112,5.5871-12.3447-3.8387-3.7903-5.9363 6.6876-6.3925"/>
<path d="m282.1487,1138.1808c-4.2907-.6844-4.0531-3.5905-2.4771-4.882-4.6106.7791-2.8646,6.0505 2.4771,4.882z"/>
</g>
<g fill="#fff" transform="matrix(18.68858 0 0 18.68858 -4992.92232 -21124.44684)">
<path d="m295.8519,1143.9166c0,.3292-.2669.5961-.5961.5961s-.5961-.2669-.5961-.5961 .2669-.5961.5961-.5961 .5961.2669.5961.5961z" transform="translate(-17.9543 -8.0559)"/>
<path d="m295.8519,1143.9166c0,.3292-.2669.5961-.5961.5961s-.5961-.2669-.5961-.5961 .2669-.5961.5961-.5961 .5961.2669.5961.5961z" transform="translate(-12.658 -9.7313)"/>
</g>
<g transform="matrix(18.68858 0 0 18.68858 -4992.92232 -21124.44684)">
<path fill="none" stroke="#000" d="m283.7698,1136.834c4.3622,2.2134 6.5791,1.1307 8.4921,4.5164"/>
</g>
<g fill="#fff" transform="matrix(18.68858 0 0 18.68858 -4992.92232 -21124.44684)">
<path d="m295.8519,1143.9166c0,.3292-.2669.5961-.5961.5961s-.5961-.2669-.5961-.5961 .2669-.5961.5961-.5961 .5961.2669.5961.5961z" transform="translate(-3.4389 -2.0987)"/>
<path d="m295.8519,1143.9166c0,.3292-.2669.5961-.5961.5961s-.5961-.2669-.5961-.5961 .2669-.5961.5961-.5961 .5961.2669.5961.5961z" transform="translate(-10.8971 -7.3283)"/>
<path d="m295.8519,1143.9166c0,.3292-.2669.5961-.5961.5961s-.5961-.2669-.5961-.5961 .2669-.5961.5961-.5961 .5961.2669.5961.5961z" transform="translate(-3.0248 1.8433)"/>
</g>
<g transform="matrix(18.68858 0 0 18.68858 -4992.92232 -21124.44684)">
<path fill-rule="evenodd" d="m285.2348,1145.6413c4.257-.4828 4.9664-2.533 3.8981-3.4442 4.0881.5496.7529,4.2686-3.8981,3.4442z"/>
</g>
</svg>
