<svg viewBox="0 0 512 512" xmlns="http://www.w3.org/2000/svg">

<g transform="matrix(18.68858,0,0,18.68858,-9080.75061,-7510.73884)">
<g transform="translate(-.1075,-.3761)">
<path d="m 491.516 414.226 h 15.8063" fill="none" stroke="#fff"/>
<path d="m 491.516 412.282 v 3.7996" fill="none" stroke="#fff"/>
<path d="m 507.322 412.282 v 3.7996" fill="none" stroke="#fff"/>
</g>
<g transform="matrix(1.41339,0,0,1.41339,14.8438,29.84426)">
<path d="m 342.935 263.591 c -2.3551 0 -4.2664 2.4433 -4.2664 5.4539 0 1.5631 0.5309 2.9718 1.356 3.9665 -4.4705 0.8417 -4.7956 3.8016 -4.7956 9.0898 h 15.4782 c 0 -5.2936 0.0946 -8.3912 -4.7625 -9.1559 0.7897 -0.99 1.2568 -2.3758 1.2568 -3.9004 0 -3.0105 -1.9113 -5.4539 -4.2664 -5.4539 z" fill="#fff" fill-rule="evenodd" stroke="#000" stroke-width=".7075"/>
</g>
<path d="m 281.34 772.834 c 0 4.0273 -2.5327 7.292 -5.6569 7.292 s -5.6569 -3.2647 -5.6569 -7.292 2.5327 -7.292 5.6569 -7.292 5.6569 3.2647 5.6569 7.292 z" fill="#fff" stroke="#000" stroke-width=".9424" transform="matrix(1.06173,0,0,1.06061,206.75686,-409.56002)"/>
<path d="m 506.446 407.252 -12.6943 -0.8606" fill="none" stroke="#000"/>
<path d="m 502.694 428.749 -10.9944 -12.7735" fill="none" stroke="#000"/>
<path d="m 505.305 428.846 v -4.4375" fill="none" stroke="#000"/>
<path d="m 493.892 428.846 v -4.4375" fill="none" stroke="#000"/>
<path d="m 1010.28 757.428 h 2.4603 v 2.4603 h -2.4603 z" transform="matrix(.98963,-.14364,-.66808,.74409,0,0)"/>
<path d="m 1002.46 872.573 h 2.4603 v 2.4603 h -2.4603 z" transform="matrix(.94587,-.32454,-.51862,.855,0,0)"/>
<path d="m 983.877 927.586 h 2.4603 v 2.4603 h -2.4603 z" transform="matrix(.90565,-.42402,-.42402,.90565,0,0)"/>
<path d="m 988.451 932.258 h 2.4603 v 2.4603 h -2.4603 z" transform="matrix(.90565,-.42402,-.42402,.90565,0,0)"/>
<path d="m 612.013 977.663 h 2.4603 v 2.4603 h -2.4603 z" transform="matrix(.4514,-.89232,.22476,.97441,0,0)"/>
<path d="m 456.814 926.648 h 2.4603 v 2.4603 h -2.4603 z" transform="matrix(.27261,-.96213,.40679,.91352,0,0)"/>
<path d="m 578.855 970.763 h 2.4603 v 2.4603 h -2.4603 z" transform="matrix(.40986,-.91215,.26937,.96304,0,0)"/>
</g>
</svg>
