<svg viewBox="0 0 512 512" xmlns="http://www.w3.org/2000/svg">

<g transform="matrix(18.68858,0,0,18.68858,-9080.75061,-7510.73884)">
<g transform="translate(-.1075,-.3761)">
<path d="m491.5158,414.2264h15.8063" fill="none" stroke="#fff"/>
<path d="m491.5158,412.2821v3.7996" fill="none" stroke="#fff"/>
<path d="m507.3221,412.2821v3.7996" fill="none" stroke="#fff"/>
</g>
<g transform="matrix(1.41339,0,0,1.41339,14.8438,29.84426)">
<path d="m342.9352,263.5912c-2.3551,0-4.2664,2.4433-4.2664,5.4539 0,1.5631.5309,2.9718 1.356,3.9665-4.4705.8417-4.7956,3.8016-4.7956,9.0898h15.4782c0-5.2936.0946-8.3912-4.7625-9.1559 .7897-.99 1.2568-2.3758 1.2568-3.9004 0-3.0105-1.9113-5.4539-4.2664-5.4539z" fill="#fff" fill-rule="evenodd" stroke="#000" stroke-width=".7075"/>
</g>
<path d="m281.3401,772.8341c0,4.0273-2.5327,7.292-5.6569,7.292s-5.6569-3.2647-5.6569-7.292 2.5327-7.292 5.6569-7.292 5.6569,3.2647 5.6569,7.292z" fill="#fff" stroke="#000" stroke-width=".9424" transform="matrix(1.06173,0,0,1.06061,206.75686,-409.56002)"/>
<path d="m506.4459,407.2524-12.6943-.8606" fill="none" stroke="#000"/>
<path d="m502.6939,428.7494-10.9944-12.7735" fill="none" stroke="#000"/>
<path d="m505.3052,428.846v-4.4375" fill="none" stroke="#000"/>
<path d="m493.8923,428.846v-4.4375" fill="none" stroke="#000"/>
<path d="m1010.2764,757.428h2.4603v2.4603h-2.4603z" transform="matrix(.98963,-.14364,-.66808,.74409,0,0)"/>
<path d="m1002.4585,872.5729h2.4603v2.4603h-2.4603z" transform="matrix(.94587,-.32454,-.51862,.855,0,0)"/>
<path d="m983.8768,927.5857h2.4603v2.4603h-2.4603z" transform="matrix(.90565,-.42402,-.42402,.90565,0,0)"/>
<path d="m988.4512,932.2578h2.4603v2.4603h-2.4603z" transform="matrix(.90565,-.42402,-.42402,.90565,0,0)"/>
<path d="m612.0127,977.6632h2.4603v2.4603h-2.4603z" transform="matrix(.4514,-.89232,.22476,.97441,0,0)"/>
<path d="m456.8139,926.6484h2.4603v2.4603h-2.4603z" transform="matrix(.27261,-.96213,.40679,.91352,0,0)"/>
<path d="m578.8549,970.7633h2.4603v2.4603h-2.4603z" transform="matrix(.40986,-.91215,.26937,.96304,0,0)"/>
</g>
</svg>
