<svg viewBox="0 0 512 512" xmlns="http://www.w3.org/2000/svg">

<g transform="matrix(18.68858,0,0,18.68858,1276.54597,-16217.6727)">
<path d="m -59.5839 887.339 0.5982 2.1865 2.6648 -0.7699 1.7947 2.0941 1.8218 -2.0634 2.6648 0.8315 0.5438 -2.3098 -5.0577 -5.8513 -5.0305 5.8821 z" fill="#fff" fill-rule="evenodd"/>
<g transform="matrix(.65105,0,0,.80395,-218.84592,126.34423)">
<path d="m 233.781 943.104 c 2.5291 3.0958 6.8333 2.1686 17.8137 -2.7026 l -0.5176 -1.9319 c -5.4383 2.7654 -11.2042 4.3084 -17.2961 4.6345 z" fill="#fff" fill-rule="evenodd"/>
<path d="m 232.778 937.826 c 1.6417 3.6449 6.0392 3.8633 17.9062 2 v -2 c -5.9688 1.2636 -11.9375 1.2617 -17.9062 -1e-05 z" fill="#fff" fill-rule="evenodd"/>
<path d="m 233.126 932.263 c 0.6424 3.9456 4.8335 5.2947 16.7785 6.5663 l 0.5176 -1.9319 c -6.0924 -0.3243 -11.8573 -1.8709 -17.2961 -4.6345 z" fill="#fff" fill-rule="evenodd"/>
<path d="m 234.851 926.975 c -0.4007 3.9774 3.2984 6.3653 14.5073 10.6852 l 1 -1.7321 c -5.8009 -1.8901 -10.9691 -4.876 -15.5073 -8.9531 z" fill="#fff" fill-rule="evenodd"/>
</g>
<path d="m -56.4887 889.311 1.9324 -9.2399 2.1305 9.3531" fill="none" stroke="#000"/>
<g transform="matrix(-.65105,0,0,.80395,109.7021,126.34423)">
<path d="m 233.781 943.104 c 2.5291 3.0958 6.8333 2.1686 17.8137 -2.7026 l -0.5176 -1.9319 c -5.4383 2.7654 -11.2042 4.3084 -17.2961 4.6345 z" fill="#fff" fill-rule="evenodd"/>
<path d="m 232.778 937.826 c 1.6417 3.6449 6.0392 3.8633 17.9062 2 v -2 c -5.9688 1.2636 -11.9375 1.2617 -17.9062 -1e-05 z" fill="#fff" fill-rule="evenodd"/>
<path d="m 233.126 932.263 c 0.6424 3.9456 4.8335 5.2947 16.7785 6.5663 l 0.5176 -1.9319 c -6.0924 -0.3243 -11.8573 -1.8709 -17.2961 -4.6345 z" fill="#fff" fill-rule="evenodd"/>
<path d="m 234.851 926.975 c -0.4007 3.9774 3.2984 6.3653 14.5073 10.6852 l 1 -1.7321 c -5.8009 -1.8901 -10.9691 -4.876 -15.5073 -8.9531 z" fill="#fff" fill-rule="evenodd"/>
</g>
<path d="m 247.298 935.753 c 0 1.4645 -1.1872 2.6517 -2.6517 2.6517 s -2.6517 -1.1872 -2.6517 -2.6517 1.1872 -2.6517 2.6517 -2.6517 2.6517 1.1872 2.6517 2.6517 z" stroke="#fff" transform="translate(-299.2396,-54.1963)"/>
<path d="m 502.017 930.261 c 0 0.9616 -0.7795 1.741 -1.741 1.741 s -1.741 -0.7795 -1.741 -1.741 0.7795 -1.741 1.741 -1.741 1.741 0.7795 1.741 1.741 z" fill="#fff" transform="matrix(1.217,0,0,1.217,-663.38539,-254.76766)"/>
<path d="m -52.9982 878.754 -1.5491 3.3747 -1.5491 -3.3746 3.0981 -6e-05 z" fill="#fff"/>
</g>
</svg>
