<svg viewBox="0 0 512 512" xmlns="http://www.w3.org/2000/svg">

<g transform="matrix(18.68858,0,0,18.68858,-1465.83803,-11642.52547)">
<path d="m 101.939 632.904 c 0.7451 0.0132 1.3439 0.2183 1.7812 0.6562 1.6685 1.6709 0.0802 4.6552 -3.5312 8.5179 1.1482 0.2545 2.65 0.7754 4.625 1.625 -1.6471 0.001 -2.8606 0.5876 -2.5 1.5938 -1.7301 -1.0591 -2.5927 -0.5597 -3.6562 0.2188 -1.2113 -1.2563 -1.9119 -2.6484 -1.25 -3.2812 -2.6039 -0.9933 -4.0625 -2.2968 -4.0625 -4.6117 2.9927 -2.9968 6.3585 -4.7583 8.5937 -4.7188 z" fill="#fff"/>
<path d="m 82.3438 632.904 c -0.7451 0.0132 -1.3439 0.2183 -1.7812 0.6562 -1.6685 1.6709 -0.0802 4.6552 3.5312 8.5179 -1.1481 0.2545 -2.65 0.7754 -4.625 1.625 1.6471 0.001 2.8606 0.5876 2.5 1.5938 1.7301 -1.0591 2.5927 -0.5597 3.6562 0.2188 1.2113 -1.2563 1.9119 -2.6484 1.25 -3.2812 2.6039 -0.9933 4.0625 -2.2968 4.0625 -4.6117 -2.9927 -2.9968 -6.3585 -4.7583 -8.5938 -4.7188 z" fill="#fff"/>
<path d="m 86.7179 635.617 h 10.9579 v 6.9827 c -3.5506 2.0499 -7.3242 2.098 -10.9579 0 v -6.9827 z" fill="#fff"/>
<path d="m 98.0938 638.159 c -2.0399 1.4471 -3.9434 3.2138 -4.5625 6.0938 h 3.875 c -0.3487 -2.4972 1.1952 -2.9739 3.25 -4.5625 -0.6359 -1.0208 -0.9696 -2.2911 -0.6875 -3.3438 0.5667 -2.1149 -0.2754 -4.0941 -1.7812 -5.5625 1.8349 -1.8349 -0.7743 -4.458 -2.8125 -3.2812 -1.9041 1.0994 -4.4552 1.0723 -6.3125 0 -2.0589 -1.1887 -4.5031 1.622 -2.7812 3.3438 -1.4723 1.4622 -2.3105 3.4083 -1.75 5.5 0.2776 1.0361 -0.0516 2.3229 -0.6875 3.3438 2.0548 1.5886 3.5987 2.0653 3.25 4.5625 h 3.875 c -0.6191 -2.88 -2.5226 -4.6466 -4.5625 -6.0938" fill="#fff" stroke="#000" stroke-width="1.0507"/>
<path d="m 88.8966 633.899 c 0 0.6163 -0.4996 1.1159 -1.1159 1.1159 s -1.1159 -0.4996 -1.1159 -1.1159 0.4996 -1.1159 1.1159 -1.1159 1.1159 0.4996 1.1159 1.1159 z" fill="#fff" stroke="#000" stroke-width=".6565" transform="matrix(1.59973,0,0,1.68946,-54.41629,-441.69411)"/>
<path d="m 88.8966 633.899 c 0 0.6163 -0.4996 1.1159 -1.1159 1.1159 s -1.1159 -0.4996 -1.1159 -1.1159 0.4996 -1.1159 1.1159 -1.1159 1.1159 0.4996 1.1159 1.1159 z" fill="#fff" stroke="#000" stroke-width=".6565" transform="matrix(1.59973,0,0,1.68946,-42.2187,-441.69411)"/>
<path d="m 93.5325 646.534 c 0.2267 -1.9039 0.7019 -3.123 1.049 -3.7161 0.6862 -0.5639 1.7413 -0.4013 2.2675 0.3749 -0.0841 0.8613 0.3665 2.3328 1.193 3.5842 -1.3158 -0.7618 -2.2546 -0.8204 -2.4234 0.1869 -0.7544 -0.9516 -1.3751 -1.0909 -2.0862 -0.4299 z" fill="#fff" fill-rule="evenodd"/>
<path d="m 90.9718 646.534 c -0.2267 -1.9039 -0.7019 -3.123 -1.049 -3.7161 -0.6862 -0.5639 -1.7413 -0.4013 -2.2675 0.3749 0.0841 0.8613 -0.3665 2.3328 -1.193 3.5842 1.3158 -0.7618 2.2546 -0.8204 2.4234 0.1869 0.7544 -0.9516 1.3752 -1.0909 2.0862 -0.4299 z" fill="#fff" fill-rule="evenodd"/>
<path d="m 84.5156 635.145 c 5.0666 -2.9693 10.4482 -2.9402 15.465 0" fill="none" stroke="#000"/>
</g>
</svg>
