<svg viewBox="0 0 512 512" xmlns="http://www.w3.org/2000/svg">

<g transform="matrix(18.68858,0,0,18.68858,-1465.83803,-11642.52547)">
<path d="m101.9395,632.9036c.7451.0132 1.3439.2183 1.7812.6562 1.6685,1.6709.0802,4.6552-3.5312,8.5179 1.1482.2545 2.65.7754 4.625,1.625-1.6471.001-2.8606.5876-2.5,1.5938-1.7301-1.0591-2.5927-.5597-3.6562.2188-1.2113-1.2563-1.9119-2.6484-1.25-3.2812-2.6039-.9933-4.0625-2.2968-4.0625-4.6117 2.9927-2.9968 6.3585-4.7583 8.5937-4.7188z" fill="#fff"/>
<path d="m82.3438,632.9036c-.7451.0132-1.3439.2183-1.7812.6562-1.6685,1.6709-.0802,4.6552 3.5312,8.5179-1.1481.2545-2.65.7754-4.625,1.625 1.6471.001 2.8606.5876 2.5,1.5938 1.7301-1.0591 2.5927-.5597 3.6562.2188 1.2113-1.2563 1.9119-2.6484 1.25-3.2812 2.6039-.9933 4.0625-2.2968 4.0625-4.6117-2.9927-2.9968-6.3585-4.7583-8.5938-4.7188z" fill="#fff"/>
<path d="m86.7179,635.6168h10.9579v6.9827c-3.5506,2.0499-7.3242,2.098-10.9579,0v-6.9827z" fill="#fff"/>
<path d="m98.0938,638.1586c-2.0399,1.4471-3.9434,3.2138-4.5625,6.0938h3.875c-.3487-2.4972 1.1952-2.9739 3.25-4.5625-.6359-1.0208-.9696-2.2911-.6875-3.3438 .5667-2.1149-.2754-4.0941-1.7812-5.5625 1.8349-1.8349-.7743-4.458-2.8125-3.2812-1.9041,1.0994-4.4552,1.0723-6.3125,0-2.0589-1.1887-4.5031,1.622-2.7812,3.3438-1.4723,1.4622-2.3105,3.4083-1.75,5.5 .2776,1.0361-.0516,2.3229-.6875,3.3438 2.0548,1.5886 3.5987,2.0653 3.25,4.5625h3.875c-.6191-2.88-2.5226-4.6466-4.5625-6.0938" fill="#fff" stroke="#000" stroke-width="1.0507"/>
<path d="m88.8966,633.8986c0,.6163-.4996,1.1159-1.1159,1.1159s-1.1159-.4996-1.1159-1.1159 .4996-1.1159 1.1159-1.1159 1.1159.4996 1.1159,1.1159z" fill="#fff" stroke="#000" stroke-width=".6565" transform="matrix(1.59973,0,0,1.68946,-54.41629,-441.69411)"/>
<path d="m88.8966,633.8986c0,.6163-.4996,1.1159-1.1159,1.1159s-1.1159-.4996-1.1159-1.1159 .4996-1.1159 1.1159-1.1159 1.1159.4996 1.1159,1.1159z" fill="#fff" stroke="#000" stroke-width=".6565" transform="matrix(1.59973,0,0,1.68946,-42.2187,-441.69411)"/>
<path d="m93.5325,646.5344c.2267-1.9039.7019-3.123 1.049-3.7161 .6862-.5639 1.7413-.4013 2.2675.3749-.0841.8613.3665,2.3328 1.193,3.5842-1.3158-.7618-2.2546-.8204-2.4234.1869-.7544-.9516-1.3751-1.0909-2.0862-.4299z" fill="#fff" fill-rule="evenodd"/>
<path d="m90.9718,646.5344c-.2267-1.9039-.7019-3.123-1.049-3.7161-.6862-.5639-1.7413-.4013-2.2675.3749 .0841.8613-.3665,2.3328-1.193,3.5842 1.3158-.7618 2.2546-.8204 2.4234.1869 .7544-.9516 1.3752-1.0909 2.0862-.4299z" fill="#fff" fill-rule="evenodd"/>
<path d="m84.5156,635.1454c5.0666-2.9693 10.4482-2.9402 15.465,0" fill="none" stroke="#000"/>
</g>
</svg>
