<svg viewBox="0 0 512 512" xmlns="http://www.w3.org/2000/svg">

<g transform="matrix(18.68858,0,0,18.68858,2601.35597,-14270.24193)">
<path d="m-131.3896,767.4919h-4.3762c.6799,5.0773-.0202,10.1546-1.5249,15.2319h4.3762c1.7644-5.0773 1.5101-10.1546 1.5249-15.2319z" fill="#fff" stroke="#000"/>
<path d="m-119.6606,767.4919h4.3762c-.6799,5.0773.0202,10.1546 1.5249,15.2319h-4.3762c-1.7644-5.0773-1.5101-10.1546-1.5249-15.2319z" fill="#fff" stroke="#000"/>
<path d="m-138.2715,782.9421c1.0169,1.9969 1.8288,4.973 1.8288,7.4602h21.0311c0-2.5527.9547-5.3251 2.6025-7.7616-7.8726,1.0262-16.9242,1.7085-25.4624.3014z" fill="#fff" fill-rule="evenodd" stroke="#000"/>
<path d="m-137.1783,769.8478c.8812-2.1449 1.1347-2.9681 1.1347-5.8084h21.1424c0,2.7457.3568,3.9852 1.3527,6.2359-7.306,3.1105-15.706,3.0844-23.6297-.4275z" fill="#fff" fill-rule="evenodd" stroke="#000"/>
<g transform="matrix(1.26061,0,0,1.45934,-163.57258,-379.05921)">
<path d="m20.2876,794.6015c.2632-1.6161.6532-2.5311 1.5785-3.2883 .8289.8296 1.368,1.7928 1.4442,3.4857 .143,3.177-3.4553,2.4592-3.0227-.1973z" fill="#fff" fill-rule="evenodd" stroke="#000" stroke-width=".7373"/>
<path d="m23.0684,796.767c.3361-1.704.8628-2.7882 1.788-3.5911 .8289.8796 1.6712,2.0754 1.7537,3.87 .1431,3.112-3.9743,1.9144-3.5417-.2789z" fill="#fff" fill-rule="evenodd" stroke="#000" stroke-width=".7373"/>
<path d="m26.5744,798.03c.3996-1.5481.9891-2.536 1.9508-3.2663 .789.8 1.5847,1.8875 1.5782,3.52-.0097,2.4389-4.0894,1.9169-3.5291-.2537z" fill="#fff" fill-rule="evenodd" stroke="#000" stroke-width=".7373"/>
<path d="m40.157,794.7988c-.2632-1.6161-.6532-2.5311-1.5785-3.2883-.8289.8296-1.368,1.7928-1.4442,3.4856-.143,3.177 3.4553,2.4592 3.0227-.1973z" fill="#fff" fill-rule="evenodd" stroke="#000" stroke-width=".7373"/>
<path d="m37.3032,796.767c-.3394-1.7034-.8628-2.7882-1.788-3.5911-.8289.8796-1.6721,2.0753-1.7537,3.87-.1431,3.1462 3.9743,1.892 3.5417-.2789z" fill="#fff" fill-rule="evenodd" stroke="#000" stroke-width=".7373"/>
<path d="m33.6911,797.9403c-.4412-1.5396-.9891-2.536-1.9508-3.2663-.789.8-1.5842,1.8875-1.5782,3.52 .0097,2.6503 4.0894,1.7016 3.5291-.2537z" fill="#fff" fill-rule="evenodd" stroke="#000" stroke-width=".7373"/>
<path d="m21.4733,786.9685c.2316,1.3751.2855,2.1536 1.0999,2.798 .7296-.7059 1.2041-1.5254 1.2712-2.9659 .1259-2.7033-2.7519-2.0925-2.3711.1679z" fill="#fff" fill-rule="evenodd" stroke="#000" stroke-width=".7373"/>
<path d="m23.9075,788.0563c.2317,1.494.7594,2.431 1.5738,3.1311 .7296-.7669 1.4765-1.8093 1.5436-3.3743 .1259-2.937-3.4982-2.2126-3.1174.2432z" fill="#fff" fill-rule="evenodd" stroke="#000" stroke-width=".7373"/>
<path d="m27.1633,788.4532c.3,1.3958.8706,2.2712 1.7171,2.9253 .6945-.7165 1.3937-1.6904 1.3892-3.1525-.0085-2.7439-3.5995-2.0671-3.1063.2272z" fill="#fff" fill-rule="evenodd" stroke="#000" stroke-width=".7373"/>
<path d="m39.2579,786.8007c-.2317,1.3751-.4838,2.1536-1.2983,2.798-.7296-.7058-1.2041-1.5254-1.2712-2.9659-.1259-2.7033 2.9502-2.0925 2.5695.1679z" fill="#fff" fill-rule="evenodd" stroke="#000" stroke-width=".7373"/>
<path d="m36.6496,787.8843c-.2317,1.494-.7594,2.431-1.5738,3.1311-.7296-.7669-1.4765-1.8093-1.5436-3.3743-.1259-2.937 3.4982-2.2126 3.1174.2432z" fill="#fff" fill-rule="evenodd" stroke="#000" stroke-width=".7373"/>
<path d="m33.4435,788.2122c-.3,1.3958-.8706,2.2712-1.7171,2.9253-.6945-.7165-1.3937-1.6904-1.3892-3.1525 .0085-2.7439 3.5995-2.0671 3.1063.2272z" fill="#fff" fill-rule="evenodd" stroke="#000" stroke-width=".7373"/>
</g>
</g>
</svg>
