<svg viewBox="0 0 512 512" xmlns="http://www.w3.org/2000/svg">

<g transform="matrix(18.68858,0,0,18.68858,2601.35597,-14270.24193)">
<path d="m -131.39 767.492 h -4.3762 c 0.6799 5.0773 -0.0202 10.1546 -1.5249 15.2319 h 4.3762 c 1.7644 -5.0773 1.5101 -10.1546 1.5249 -15.2319 z" fill="#fff" stroke="#000"/>
<path d="m -119.661 767.492 h 4.3762 c -0.6799 5.0773 0.0202 10.1546 1.5249 15.2319 h -4.3762 c -1.7644 -5.0773 -1.5101 -10.1546 -1.5249 -15.2319 z" fill="#fff" stroke="#000"/>
<path d="m -138.272 782.942 c 1.0169 1.9969 1.8288 4.973 1.8288 7.4602 h 21.0311 c 0 -2.5527 0.9547 -5.3251 2.6025 -7.7616 -7.8726 1.0262 -16.9242 1.7085 -25.4624 0.3014 z" fill="#fff" fill-rule="evenodd" stroke="#000"/>
<path d="m -137.178 769.848 c 0.8812 -2.1449 1.1347 -2.9681 1.1347 -5.8084 h 21.1424 c 0 2.7457 0.3568 3.9852 1.3527 6.2359 -7.306 3.1105 -15.706 3.0844 -23.6297 -0.4275 z" fill="#fff" fill-rule="evenodd" stroke="#000"/>
<g transform="matrix(1.26061,0,0,1.45934,-163.57258,-379.05921)">
<path d="m 20.2876 794.601 c 0.2632 -1.6161 0.6532 -2.5311 1.5785 -3.2883 0.8289 0.8296 1.368 1.7928 1.4442 3.4857 0.143 3.177 -3.4553 2.4592 -3.0227 -0.1973 z" fill="#fff" fill-rule="evenodd" stroke="#000" stroke-width=".7373"/>
<path d="m 23.0684 796.767 c 0.3361 -1.704 0.8628 -2.7882 1.788 -3.5911 0.8289 0.8796 1.6712 2.0754 1.7537 3.87 0.1431 3.112 -3.9743 1.9144 -3.5417 -0.2789 z" fill="#fff" fill-rule="evenodd" stroke="#000" stroke-width=".7373"/>
<path d="m 26.5744 798.03 c 0.3996 -1.5481 0.9891 -2.536 1.9508 -3.2663 0.789 0.8 1.5847 1.8875 1.5782 3.52 -0.0097 2.4389 -4.0894 1.9169 -3.5291 -0.2537 z" fill="#fff" fill-rule="evenodd" stroke="#000" stroke-width=".7373"/>
<path d="m 40.157 794.799 c -0.2632 -1.6161 -0.6532 -2.5311 -1.5785 -3.2883 -0.8289 0.8296 -1.368 1.7928 -1.4442 3.4856 -0.143 3.177 3.4553 2.4592 3.0227 -0.1973 z" fill="#fff" fill-rule="evenodd" stroke="#000" stroke-width=".7373"/>
<path d="m 37.3032 796.767 c -0.3394 -1.7034 -0.8628 -2.7882 -1.788 -3.5911 -0.8289 0.8796 -1.6721 2.0753 -1.7537 3.87 -0.1431 3.1462 3.9743 1.892 3.5417 -0.2789 z" fill="#fff" fill-rule="evenodd" stroke="#000" stroke-width=".7373"/>
<path d="m 33.6911 797.94 c -0.4412 -1.5396 -0.9891 -2.536 -1.9508 -3.2663 -0.789 0.8 -1.5842 1.8875 -1.5782 3.52 0.0097 2.6503 4.0894 1.7016 3.5291 -0.2537 z" fill="#fff" fill-rule="evenodd" stroke="#000" stroke-width=".7373"/>
<path d="m 21.4733 786.968 c 0.2316 1.3751 0.2855 2.1536 1.0999 2.798 0.7296 -0.7059 1.2041 -1.5254 1.2712 -2.9659 0.1259 -2.7033 -2.7519 -2.0925 -2.3711 0.1679 z" fill="#fff" fill-rule="evenodd" stroke="#000" stroke-width=".7373"/>
<path d="m 23.9075 788.056 c 0.2317 1.494 0.7594 2.431 1.5738 3.1311 0.7296 -0.7669 1.4765 -1.8093 1.5436 -3.3743 0.1259 -2.937 -3.4982 -2.2126 -3.1174 0.2432 z" fill="#fff" fill-rule="evenodd" stroke="#000" stroke-width=".7373"/>
<path d="m 27.1633 788.453 c 0.3 1.3958 0.8706 2.2712 1.7171 2.9253 0.6945 -0.7165 1.3937 -1.6904 1.3892 -3.1525 -0.0085 -2.7439 -3.5995 -2.0671 -3.1063 0.2272 z" fill="#fff" fill-rule="evenodd" stroke="#000" stroke-width=".7373"/>
<path d="m 39.2579 786.801 c -0.2317 1.3751 -0.4838 2.1536 -1.2983 2.798 -0.7296 -0.7058 -1.2041 -1.5254 -1.2712 -2.9659 -0.1259 -2.7033 2.9502 -2.0925 2.5695 0.1679 z" fill="#fff" fill-rule="evenodd" stroke="#000" stroke-width=".7373"/>
<path d="m 36.6496 787.884 c -0.2317 1.494 -0.7594 2.431 -1.5738 3.1311 -0.7296 -0.7669 -1.4765 -1.8093 -1.5436 -3.3743 -0.1259 -2.937 3.4982 -2.2126 3.1174 0.2432 z" fill="#fff" fill-rule="evenodd" stroke="#000" stroke-width=".7373"/>
<path d="m 33.4435 788.212 c -0.3 1.3958 -0.8706 2.2712 -1.7171 2.9253 -0.6945 -0.7165 -1.3937 -1.6904 -1.3892 -3.1525 0.0085 -2.7439 3.5995 -2.0671 3.1063 0.2272 z" fill="#fff" fill-rule="evenodd" stroke="#000" stroke-width=".7373"/>
</g>
</g>
</svg>
