<svg viewBox="0 0 512 512" xmlns="http://www.w3.org/2000/svg">

<g transform="matrix(18.68858,0,0,18.68858,-7037.9217,-31323.86473)">
<path d="m 383.625 1677.38 c -3.7755 0.1321 -5.3747 3.7465 -5.4062 5.5938 -0.1178 6.9162 8.2214 3.5483 8.375 6.9062 0.1672 3.6551 -5.3745 4.2242 -5.625 -0.2812 -1.7559 7.075 5.1666 10.1084 9.3125 6.9374 -0.7917 2.4474 -2.1701 3.6683 -3.5938 3.9688 4.531 2.5988 10.5566 2.8076 13.9062 -0.6562 3.4321 -3.5491 3.2788 -9.3486 1.0938 -13.5938 -1.5131 3.0356 -6.6309 0.7369 -4.9375 -2.5312 1.6994 -3.2797 -0.5021 -5.5028 -5.25 -5.5938 4.5013 0.6442 2.8345 6.3193 0.4375 7.125 -2.1169 0.7116 -3.1984 -0.358 -2.7812 -1.9688 0.6674 -2.5769 -1.3452 -3.7516 -3 -3.375 3.4859 3.0027 -1.9967 6.3415 -4.25 3.0626 -1.4213 -2.0682 -1.2583 -4.4659 1.7188 -5.5938 z" fill="#fff"/>
<path d="m 397.306 1697.7 -9.6706 2.5912 -7.0793 -7.0793 2.5912 -9.6706 9.6706 -2.5912 7.0793 7.0794 z" transform="matrix(.70801,-.18971,.18971,.70801,-202.5842,570.95016)"/>
<path d="m 387.219 1694.12 h 14.482" fill="none" stroke="#fff"/>
<path d="m 390.84 1687.85 7.2411 12.5417" fill="none" stroke="#fff"/>
<path d="m 398.081 1687.85 -7.2409 12.5419" fill="none" stroke="#fff"/>
<path d="m 396.009 1695.68 c 0 1.3236 -1.073 2.3966 -2.3966 2.3966 s -2.3966 -1.073 -2.3966 -2.3966 1.073 -2.3966 2.3966 -2.3966 2.3966 1.073 2.3966 2.3966 z" fill="#fff" stroke="#000" stroke-width=".8511" transform="matrix(1.17498,0,0,1.17498,-68.15955,-298.39276)"/>
<path d="m 391.726 1692.44 5.2939 3.0566" fill="none" stroke="#000"/>
<path d="m 394.373 1690.91 4e-05 6.113" fill="none" stroke="#000"/>
<path d="m 397.02 1692.44 -5.294 3.0567" fill="none" stroke="#000"/>
<path d="m 382.411 1697.98 -3.4671 3.4672" fill="none" stroke="#fff"/>
<path d="m 380.043 1697.35 1.269 4.7361" fill="none" stroke="#fff"/>
<path d="m 378.309 1699.08 4.7363 1.2691" fill="none" stroke="#fff"/>
<path d="m 400.122 1678.12 -1.2834 4.7901" fill="none" stroke="#fff"/>
<path d="m 397.727 1678.76 3.5064 3.5063" fill="none" stroke="#fff"/>
<path d="m 397.085 1681.15 4.79 -1.2837" fill="none" stroke="#fff"/>
<path d="m 386.521 1678.48 -2.6073 3.079" fill="none" stroke="#fff"/>
<path d="m 384.539 1678.12 1.3556 3.7977" fill="none" stroke="#fff"/>
<path d="m 383.236 1679.66 3.9631 0.7189" fill="none" stroke="#fff"/>
</g>
</svg>
