<svg viewBox="0 0 512 512" xmlns="http://www.w3.org/2000/svg">

<g transform="matrix(18.68858,0,0,18.68858,-7037.9217,-31323.86473)">
<path d="m383.625,1677.375c-3.7755.1321-5.3747,3.7465-5.4062,5.5938-.1178,6.9162 8.2214,3.5483 8.375,6.9062 .1672,3.6551-5.3745,4.2242-5.625-.2812-1.7559,7.075 5.1666,10.1084 9.3125,6.9374-.7917,2.4474-2.1701,3.6683-3.5938,3.9688 4.531,2.5988 10.5566,2.8076 13.9062-.6562 3.4321-3.5491 3.2788-9.3486 1.0938-13.5938-1.5131,3.0356-6.6309.7369-4.9375-2.5312 1.6994-3.2797-.5021-5.5028-5.25-5.5938 4.5013.6442 2.8345,6.3193.4375,7.125-2.1169.7116-3.1984-.358-2.7812-1.9688 .6674-2.5769-1.3452-3.7516-3-3.375 3.4859,3.0027-1.9967,6.3415-4.25,3.0626-1.4213-2.0682-1.2583-4.4659 1.7188-5.5938z" fill="#fff"/>
<path d="m397.3061,1697.697-9.6706,2.5912-7.0793-7.0793 2.5912-9.6706 9.6706-2.5912 7.0793,7.0794z" transform="matrix(.70801,-.18971,.18971,.70801,-202.5842,570.95016)"/>
<path d="m387.2192,1694.1233h14.482" fill="none" stroke="#fff"/>
<path d="m390.8396,1687.8524 7.2411,12.5417" fill="none" stroke="#fff"/>
<path d="m398.0806,1687.8523-7.2409,12.5419" fill="none" stroke="#fff"/>
<path d="m396.0091,1695.6771c0,1.3236-1.073,2.3966-2.3966,2.3966s-2.3966-1.073-2.3966-2.3966 1.073-2.3966 2.3966-2.3966 2.3966,1.073 2.3966,2.3966z" fill="#fff" stroke="#000" stroke-width=".8511" transform="matrix(1.17498,0,0,1.17498,-68.15955,-298.39276)"/>
<path d="m391.7263,1692.4371 5.2939,3.0566" fill="none" stroke="#000"/>
<path d="m394.3732,1690.9089 4e-05,6.113" fill="none" stroke="#000"/>
<path d="m397.0203,1692.437-5.294,3.0567" fill="none" stroke="#000"/>
<path d="m382.4111,1697.9849-3.4671,3.4672" fill="none" stroke="#fff"/>
<path d="m380.043,1697.3504 1.269,4.7361" fill="none" stroke="#fff"/>
<path d="m378.3094,1699.0838 4.7363,1.2691" fill="none" stroke="#fff"/>
<path d="m400.1217,1678.1172-1.2834,4.7901" fill="none" stroke="#fff"/>
<path d="m397.7268,1678.7591 3.5064,3.5063" fill="none" stroke="#fff"/>
<path d="m397.0849,1681.154 4.79-1.2837" fill="none" stroke="#fff"/>
<path d="m386.5209,1678.4829-2.6073,3.079" fill="none" stroke="#fff"/>
<path d="m384.5393,1678.1236 1.3556,3.7977" fill="none" stroke="#fff"/>
<path d="m383.2356,1679.6628 3.9631.7189" fill="none" stroke="#fff"/>
</g>
</svg>
