<svg viewBox="0 0 512 512" xmlns="http://www.w3.org/2000/svg">

<g transform="matrix(18.68858,0,0,18.68858,-11800.68592,-23141.90395)">
<path d="m 641.025 1252.43 -1.333 12.0085 -1.333 -12.009 2.6661 0.0005 z" fill="#fff"/>
<path d="m 633.346 1245.07 v 5.2531 l 11.9217 4.8947 11.9557 -4.8947 v -5.2531" stroke="#fff"/>
<path d="m -1297.56 1981.59 h 13.4938 v 13.4938 h -13.4938 z" fill="#fff" transform="matrix(.92511,-.37969,.92511,.37969,0,0)"/>
<path d="m 645.244 1255.48 v -5.9924" fill="none" stroke="#fff"/>
<path d="m 635.651 1245.19 -1.2998 15.7405 -1.2998 -15.741 2.5996 0.0005 z" fill="#fff"/>
<path d="m 639.36 1245.72 -1.5847 14.5723 -1.5847 -14.5728 3.1694 0.0005 z" fill="#fff"/>
<path d="m 657.716 1250.59 -1.2367 11.1043 -1.2367 -11.1047 2.4734 0.0004 z" fill="#fff"/>
<path d="m 653.912 1246.3 -1.0838 13.2825 -1.0838 -13.2829 2.1675 0.0004 z" fill="#fff"/>
<path d="m 647.503 1248.83 -1.4322 15.2695 -1.4323 -15.2699 2.8645 0.0004 z" fill="#fff"/>
<path d="m 650.688 1247.52 -1.1802 11.6537 -1.1802 -11.654 2.3604 0.0003 z" fill="#fff"/>
<path d="m 642.607 1247.87 -1.1802 12.2354 -1.1802 -12.2358 2.3604 0.0004 z" fill="#fff"/>
<path d="m 655.544 1245.97 -1.3434 12.0621 -1.3434 -12.0625 2.6868 0.0004 z" fill="#fff"/>
<path d="m 636.577 1251.13 v 13.352" fill="none" stroke="#fff"/>
<path d="m 649.427 1251.65 v 12.8526" fill="none" stroke="#fff"/>
<path d="m 653.002 1251.65 v 12.8526" fill="none" stroke="#fff"/>
</g>
</svg>
