<svg viewBox="0 0 512 512" xmlns="http://www.w3.org/2000/svg">

<path d="m206.375,703.7372c0,6.0751-4.9249,11-11,11s-11-4.9249-11-11 4.9249-11 11-11 11,4.9249 11,11z" fill="#fff" stroke="#000" stroke-width="1.1263" transform="matrix(19.23279,0,0,19.23279,-3502.57988,-13281.22645)"/>
<path d="m202.625,704.3309c0,4.0904-3.3159,7.4062-7.4062,7.4062s-7.4063-3.3159-7.4063-7.4062 3.3159-7.4062 7.4063-7.4062 7.4062,3.3159 7.4062,7.4062z" fill="none" stroke="#fff" stroke-width=".6045" transform="matrix(30.91558,0,0,30.91558,-5780.25057,-21521.10958)"/>
<g transform="matrix(18.68858,0,0,18.68858,3235.93935,-10485.58327)">
<path d="m862.6436,1296.2164h10.0361v10.0361h-10.0361z" transform="matrix(.94614,-.32375,-.75345,.65751,0,0)"/>
<path d="m-167.7688,575.5491 2.9184,2.2423 .4903,3.5309 1.2373-4.5283-4.646-1.2449z"/>
<path d="m-154.571,567.9294 .4827,3.6485 2.8127,2.1901-4.5403-1.1926 1.2449-4.646z"/>
<path d="m1569.3345,1417.3026h10.0361v10.0361h-10.0361z" transform="matrix(.75345,.65751,-.94614,-.32375,0,0)"/>
<path d="m-164.4368,567.9381-.4827,3.6485-2.8127,2.1901 4.5403-1.1926-1.2449-4.646z"/>
<path d="m-151.239,575.5579-2.9184,2.2423-.4903,3.5309-1.2373-4.5283 4.646-1.2449z"/>
<path d="m701.7752,116.1585h10.0361v10.0361h-10.0361z" transform="matrix(-.1927,.98126,-.1927,-.98126,0,0)"/>
<path d="m-156.161,567.0214-3.4011,1.4062-3.303-1.3408 3.303,3.3357 3.4011-3.4011z"/>
<path d="m-156.161,582.2609-3.4011-1.4062-3.303,1.3408 3.303-3.3357 3.4011,3.4011z"/>
<path d="m-522.1621,290.5064h1.625v1.625h-1.625z" fill="#fff" transform="matrix(.70711,-.70711,.70711,.70711,0,0)"/>
<path d="m-517.7427,294.9258h1.625v1.625h-1.625z" fill="#fff" transform="matrix(.70711,-.70711,.70711,.70711,0,0)"/>
<path d="m-8.3889,593.3304h1.625v1.625h-1.625z" fill="#fff" transform="rotate(15)"/>
<path d="m-3.9695,597.7498h1.625v1.625h-1.625z" fill="#fff" transform="rotate(15)"/>
<path d="m510.7509,299.8018h1.625v1.625h-1.625z" fill="#fff" transform="rotate(75)"/>
<path d="m515.1703,304.2212h1.625v1.625h-1.625z" fill="#fff" transform="rotate(75)"/>
</g>
</svg>
