<svg viewBox="0 0 512 512" xmlns="http://www.w3.org/2000/svg">

<g transform="matrix(18.68858,0,0,18.68858,-3641.9383,-45611.68315)">
<path d="m 195.344 2441.94 v 7.0313 l 6.5938 3.8124 -0.5312 4.5313 19.9375 3.1563 -12.7188 -15.6563 -3.6562 2.6875 -9.625 -5.5625 z" fill="#fff"/>
<path d="m 195.316 2448.8 1.7464 10.0443 1.7377 -10.0436 z" fill="#fff"/>
<path d="m 198.413 2450.57 1.2308 5.8833 1.2247 -5.8829 z" fill="#fff"/>
<path d="m 195.252 2441.28 v 14.2613" fill="none" stroke="#000"/>
<path d="m 201.414 2457.27 1.2308 6.6964 1.2247 -6.6959 z" fill="#fff"/>
<path d="m 215.678 2459.18 1.2308 6.6964 1.2247 -6.6959 z" fill="#fff"/>
<path d="m 202.644 2457.48 1.6396 9.6137 1.6314 -9.613 z" fill="#fff"/>
<path d="m 205.601 2457.03 1.3585 7.3912 1.3518 -7.3906 z" fill="#fff"/>
<path d="m 207.765 2457.9 1.2308 2.5029 1.2247 -2.5027 z" fill="#fff"/>
<path d="m 213.72 2458.98 1.4304 3.6739 1.4233 -3.6736 z" fill="#fff"/>
<path d="m 210.808 2458.5 1.2308 7.4199 1.2247 -7.4194 z" fill="#fff"/>
<path d="m 216.945 2459.46 1.8037 2.526 1.7947 -2.5258 z" fill="#fff"/>
<path d="m 195.25 2443.69 v 3.3437 l 8.5312 4.9376 -0.4375 3.8124 13.5938 2.1563 -8.6562 -10.6875 -3.0312 2.2188 -10 -5.7813 z" fill="#fff" stroke="#000"/>
<path d="m 207.371 2448.42 1.7352 6.8486 1.2002 -5.823 -1.7974 -1.7791 z"/>
<path d="m 209.851 2450.56 1.1595 4.3449 0.9411 -3.3001 -1.6833 -1.8888 z"/>
<path d="m 204.575 2448.93 0.7986 4.3449 0.7946 -4.3446 z"/>
<path d="m 205.742 2448.67 1.0394 3.4718 1.1464 -3.8326 z"/>
<path d="m 211.601 2452.03 1.211 3.9229 0.8252 -2.6864 z"/>
</g>
</svg>
