<svg viewBox="0 0 512 512" xmlns="http://www.w3.org/2000/svg">

<g transform="matrix(18.68858,0,0,18.68858,-3641.9383,-45611.68315)">
<path d="m195.3438,2441.9375v7.0313l6.5938,3.8124-.5312,4.5313 19.9375,3.1563-12.7188-15.6563-3.6562,2.6875-9.625-5.5625z" fill="#fff"/>
<path d="m195.3158,2448.8022 1.7464,10.0443 1.7377-10.0436z" fill="#fff"/>
<path d="m198.4127,2450.5718 1.2308,5.8833 1.2247-5.8829z" fill="#fff"/>
<path d="m195.2518,2441.2784v14.2613" fill="none" stroke="#000"/>
<path d="m201.4138,2457.2675 1.2308,6.6964 1.2247-6.6959z" fill="#fff"/>
<path d="m215.6781,2459.1806 1.2308,6.6964 1.2247-6.6959z" fill="#fff"/>
<path d="m202.6441,2457.4827 1.6396,9.6137 1.6314-9.613z" fill="#fff"/>
<path d="m205.601,2457.0283 1.3585,7.3912 1.3518-7.3906z" fill="#fff"/>
<path d="m207.7646,2457.8955 1.2308,2.5029 1.2247-2.5027z" fill="#fff"/>
<path d="m213.7205,2458.9777 1.4304,3.6739 1.4233-3.6736z" fill="#fff"/>
<path d="m210.8082,2458.5042 1.2308,7.4199 1.2247-7.4194z" fill="#fff"/>
<path d="m216.9454,2459.456 1.8037,2.526 1.7947-2.5258z" fill="#fff"/>
<path d="m195.25,2443.6875v3.3437l8.5312,4.9376-.4375,3.8124 13.5938,2.1563-8.6562-10.6875-3.0312,2.2188-10-5.7813z" fill="#fff" stroke="#000"/>
<path d="m207.3707,2448.4178 1.7352,6.8486 1.2002-5.823-1.7974-1.7791z"/>
<path d="m209.8506,2450.5571 1.1595,4.3449 .9411-3.3001-1.6833-1.8888z"/>
<path d="m204.5749,2448.9291 .7986,4.3449 .7946-4.3446z"/>
<path d="m205.7415,2448.6718 1.0394,3.4718 1.1464-3.8326z"/>
<path d="m211.6013,2452.0275 1.211,3.9229 .8252-2.6864z"/>
</g>
</svg>
