<svg viewBox="0 0 512 512" xmlns="http://www.w3.org/2000/svg">

<path d="m 206.375 703.737 c 0 6.0751 -4.9249 11 -11 11 s -11 -4.9249 -11 -11 4.9249 -11 11 -11 11 4.9249 11 11 z" fill="#fff" stroke="#000" stroke-width="1.1263" transform="matrix(19.23279,0,0,19.23279,-3502.57988,-13281.22645)"/>
<path d="m 202.625 704.331 c 0 4.0904 -3.3159 7.4062 -7.4062 7.4062 s -7.4063 -3.3159 -7.4063 -7.4062 3.3159 -7.4062 7.4063 -7.4062 7.4062 3.3159 7.4062 7.4062 z" fill="none" stroke="#fff" stroke-width=".6045" transform="matrix(30.91558,0,0,30.91558,-5780.25057,-21521.10958)"/>
<g transform="matrix(18.68858,0,0,18.68858,3235.93935,-10485.58327)">
<path d="m 862.644 1296.22 h 10.0361 v 10.0361 h -10.0361 z" transform="matrix(.94614,-.32375,-.75345,.65751,0,0)"/>
<path d="m -167.769 575.549 2.9184 2.2423 0.4903 3.5309 1.2373 -4.5283 -4.646 -1.2449 z"/>
<path d="m -154.571 567.929 0.4827 3.6485 2.8127 2.1901 -4.5403 -1.1926 1.2449 -4.646 z"/>
<path d="m 1569.33 1417.3 h 10.0361 v 10.0361 h -10.0361 z" transform="matrix(.75345,.65751,-.94614,-.32375,0,0)"/>
<path d="m -164.437 567.938 -0.4827 3.6485 -2.8127 2.1901 4.5403 -1.1926 -1.2449 -4.646 z"/>
<path d="m -151.239 575.558 -2.9184 2.2423 -0.4903 3.5309 -1.2373 -4.5283 4.646 -1.2449 z"/>
<path d="m 701.775 116.159 h 10.0361 v 10.0361 h -10.0361 z" transform="matrix(-.1927,.98126,-.1927,-.98126,0,0)"/>
<path d="m -156.161 567.021 -3.4011 1.4062 -3.303 -1.3408 3.303 3.3357 3.4011 -3.4011 z"/>
<path d="m -156.161 582.261 -3.4011 -1.4062 -3.303 1.3408 3.303 -3.3357 3.4011 3.4011 z"/>
<path d="m -522.162 290.506 h 1.625 v 1.625 h -1.625 z" fill="#fff" transform="matrix(.70711,-.70711,.70711,.70711,0,0)"/>
<path d="m -517.743 294.926 h 1.625 v 1.625 h -1.625 z" fill="#fff" transform="matrix(.70711,-.70711,.70711,.70711,0,0)"/>
<path d="m -8.3889 593.33 h 1.625 v 1.625 h -1.625 z" fill="#fff" transform="rotate(15)"/>
<path d="m -3.9695 597.75 h 1.625 v 1.625 h -1.625 z" fill="#fff" transform="rotate(15)"/>
<path d="m 510.751 299.802 h 1.625 v 1.625 h -1.625 z" fill="#fff" transform="rotate(75)"/>
<path d="m 515.17 304.221 h 1.625 v 1.625 h -1.625 z" fill="#fff" transform="rotate(75)"/>
</g>
</svg>
