<svg viewBox="0 0 512 512" xmlns="http://www.w3.org/2000/svg">

<g transform="matrix(18.68858,0,0,18.68858,-11800.68592,-23141.90395)">
<path d="m641.025,1252.4255-1.333,12.0085-1.333-12.009 2.6661.0005z" fill="#fff"/>
<path d="m633.3457,1245.0677v5.2531l11.9217,4.8947 11.9557-4.8947v-5.2531" stroke="#fff"/>
<path d="m-1297.5649,1981.585h13.4938v13.4938h-13.4938z" fill="#fff" transform="matrix(.92511,-.37969,.92511,.37969,0,0)"/>
<path d="m645.2439,1255.4798v-5.9924" fill="none" stroke="#fff"/>
<path d="m635.6514,1245.1918-1.2998,15.7405-1.2998-15.741 2.5996.0005z" fill="#fff"/>
<path d="m639.3604,1245.7237-1.5847,14.5723-1.5847-14.5728 3.1694.0005z" fill="#fff"/>
<path d="m657.7155,1250.588-1.2367,11.1043-1.2367-11.1047 2.4734.0004z" fill="#fff"/>
<path d="m653.9124,1246.3025-1.0838,13.2825-1.0838-13.2829 2.1675.0004z" fill="#fff"/>
<path d="m647.5031,1248.8337-1.4322,15.2695-1.4323-15.2699 2.8645.0004z" fill="#fff"/>
<path d="m650.6879,1247.5166-1.1802,11.6537-1.1802-11.654 2.3604.0003z" fill="#fff"/>
<path d="m642.6073,1247.8657-1.1802,12.2354-1.1802-12.2358 2.3604.0004z" fill="#fff"/>
<path d="m655.5436,1245.9655-1.3434,12.0621-1.3434-12.0625 2.6868.0004z" fill="#fff"/>
<path d="m636.5772,1251.1267v13.352" fill="none" stroke="#fff"/>
<path d="m649.4272,1251.6476v12.8526" fill="none" stroke="#fff"/>
<path d="m653.0021,1251.6476v12.8526" fill="none" stroke="#fff"/>
</g>
</svg>
