<svg viewBox="0 0 512 512" xmlns="http://www.w3.org/2000/svg">

<g transform="matrix(18.68858,0,0,18.68858,-2953.44674,-23822.72332)">
<path d="m 163.133 1301.74 c -3.2532 -4.1637 -1.8881 -9.6963 5.9042 -11.5885 5.5675 -1.3519 11.9759 -1.7054 11.9759 -7.5549 -1e-05 -6.4227 -9.2956 -6.6506 -7.6111 0.078" fill="none" stroke="#fff"/>
<path d="m 173.655 1286.15 c -3.4112 3.1517 -7.3451 -6.0471 -0.8811 -6.6845 7.7206 -0.761 5.0288 9.9617 0.8811 6.6845 z" fill="#fff" fill-rule="evenodd"/>
<path d="m 162.824 1301.51 h 7.657 c -4.9069 -3.6951 -2.9002 -9.6608 5.7803 -12.6491 l -7.4425 1.3195 -5.8158 3.1167 -1.5097 4.2165 1.3307 3.9964 z" fill="#fff" fill-rule="evenodd"/>
<path d="m 158.507 1301.61 h 16.0647" fill="none" stroke="#000"/>
<path d="m 173.136 1279.49 c -2.5589 -0.3618 -4.4565 -2.1182 -5.2749 -3.7692 2.202 -0.01 4.887 0.805 5.6678 3.2362" fill="#fff" fill-rule="evenodd"/>
<path d="m 179.412 1285.96 0.9204 0.4067 c 1.7648 -1.9537 3.2399 -0.482 2.9561 1.4327 0.9814 -1.3514 0.5169 -2.499 -0.5839 -3.0691 -1.3359 -0.6919 -2.4931 0.124 -3.2927 1.2297 z" fill="#fff" fill-rule="evenodd"/>
<path d="m 165.654 1291.91 -0.1547 -0.9944 c 2.3439 -1.199 1.3042 -3.0048 -0.6188 -3.2262 1.5594 -0.5983 2.7386 0.1093 3.0044 1.32 0.3226 1.4695 -0.9559 2.4144 -2.2309 2.9006 z" fill="#fff" fill-rule="evenodd"/>
<path d="m 167.436 1294.34 0.875 0.4687 c 1.8182 -3.1288 6.1237 -3.6432 6.5312 0.125 0.2337 2.1455 -1.7624 2.296 -3 0.9688 0.4447 1.6098 1.8302 1.9957 2.9623 1.4906 1.0409 -0.4646 1.2191 -1.7603 1.0955 -2.7466 -0.6062 -4.8359 -6.0407 -4.802 -8.464 -0.3065 z" fill="#fff" fill-rule="evenodd"/>
</g>
</svg>
