<svg viewBox="0 0 512 512" xmlns="http://www.w3.org/2000/svg">

<g transform="matrix(18.68858,0,0,18.68858,-2953.44674,-23822.72332)">
<path d="m163.1326,1301.745c-3.2532-4.1637-1.8881-9.6963 5.9042-11.5885 5.5675-1.3519 11.9759-1.7054 11.9759-7.5549-1e-05-6.4227-9.2956-6.6506-7.6111.078" fill="none" stroke="#fff"/>
<path d="m173.6552,1286.1506c-3.4112,3.1517-7.3451-6.0471-.8811-6.6845 7.7206-.761 5.0288,9.9617.8811,6.6845z" fill="#fff" fill-rule="evenodd"/>
<path d="m162.8238,1301.5149h7.657c-4.9069-3.6951-2.9002-9.6608 5.7803-12.6491l-7.4425,1.3195-5.8158,3.1167-1.5097,4.2165 1.3307,3.9964z" fill="#fff" fill-rule="evenodd"/>
<path d="m158.5074,1301.6088h16.0647" fill="none" stroke="#000"/>
<path d="m173.1355,1279.4866c-2.5589-.3618-4.4565-2.1182-5.2749-3.7692 2.202-.01 4.887.805 5.6678,3.2362" fill="#fff" fill-rule="evenodd"/>
<path d="m179.4119,1285.9561 .9204.4067c1.7648-1.9537 3.2399-.482 2.9561,1.4327 .9814-1.3514.5169-2.499-.5839-3.0691-1.3359-.6919-2.4931.124-3.2927,1.2297z" fill="#fff" fill-rule="evenodd"/>
<path d="m165.6538,1291.9053-.1547-.9944c2.3439-1.199 1.3042-3.0048-.6188-3.2262 1.5594-.5983 2.7386.1093 3.0044,1.32 .3226,1.4695-.9559,2.4144-2.2309,2.9006z" fill="#fff" fill-rule="evenodd"/>
<path d="m167.4356,1294.3438 .875.4687c1.8182-3.1288 6.1237-3.6432 6.5312.125 .2337,2.1455-1.7624,2.296-3,.9688 .4447,1.6098 1.8302,1.9957 2.9623,1.4906 1.0409-.4646 1.2191-1.7603 1.0955-2.7466-.6062-4.8359-6.0407-4.802-8.464-.3065z" fill="#fff" fill-rule="evenodd"/>
</g>
</svg>
