<svg viewBox="0 0 512 512" xmlns="http://www.w3.org/2000/svg">

<g transform="matrix(18.68858,0,0,18.68858,-6355.4334,-29938.34055)">
<g transform="matrix(1.1055,0,0,1.1055,20.01108,1392.55944)">
<path d="m 298.531 191.031 v 7.4062 h -7.375 v 6.8438 h 7.375 v 7.375 h 6.8438 v -7.375 h 7.4062 v -6.8438 h -7.4062 v -7.4062 h -6.8438 z" stroke="#fff" stroke-width=".9046"/>
</g>
<path d="m 359.875 1616.23 c 0 4.0546 -3.287 7.3416 -7.3417 7.3416 v -7.3416 z" fill="#fff" transform="matrix(-.85697,0,0,.85697,652.44802,234.09762)"/>
<path d="m 359.875 1616.23 c 0 4.0546 -3.287 7.3416 -7.3417 7.3416 v -7.3416 z" fill="#fff" transform="matrix(.85697,0,0,-.85697,55.2247,2997.29623)"/>
<path d="m 349.872 1619.66 7.9286 -7.9286" fill="none" stroke="#fff"/>
<path d="m 357.801 1619.66 -7.9286 -7.9286" fill="none" stroke="#fff"/>
<path d="m 348.662 1615.72 c 0 1.1796 -0.9562 2.1358 -2.1358 2.1358 s -2.1358 -0.9562 -2.1358 -2.1358 0.9562 -2.1357 2.1358 -2.1357 2.1358 0.9562 2.1358 2.1357 z" fill="#fff" transform="matrix(1.1125,0,0,1.1125,-39.817,-181.79317)"/>
<path d="m 348.662 1615.72 c 0 1.1796 -0.9562 2.1358 -2.1358 2.1358 s -2.1358 -0.9562 -2.1358 -2.1358 0.9562 -2.1357 2.1358 -2.1357 2.1358 0.9562 2.1358 2.1357 z" fill="#fff" transform="matrix(1.1125,0,0,1.1125,-23.53186,-181.79317)"/>
<path d="m 348.662 1615.72 c 0 1.1796 -0.9562 2.1358 -2.1358 2.1358 s -2.1358 -0.9562 -2.1358 -2.1358 0.9562 -2.1357 2.1358 -2.1357 2.1358 0.9562 2.1358 2.1357 z" fill="#fff" transform="matrix(0,1.1125,-1.1125,0,2151.3264,1222.04354)"/>
<path d="m 348.662 1615.72 c 0 1.1796 -0.9562 2.1358 -2.1358 2.1358 s -2.1358 -0.9562 -2.1358 -2.1358 0.9562 -2.1357 2.1358 -2.1357 2.1358 0.9562 2.1358 2.1357 z" fill="#fff" transform="matrix(0,1.1125,-1.1125,0,2151.3265,1238.32874)"/>
<path d="m 359.875 1616.23 c 0 4.0546 -3.287 7.3416 -7.3417 7.3416 v -7.3416 z" fill="#fff" transform="matrix(.85697,0,0,.85697,55.2247,234.09762)"/>
<path d="m 359.875 1616.23 c 0 4.0546 -3.287 7.3416 -7.3417 7.3416 v -7.3416 z" fill="#fff" transform="matrix(-.85697,0,0,-.85697,652.44802,2997.29623)"/>
</g>
</svg>
