<svg viewBox="0 0 512 512" xmlns="http://www.w3.org/2000/svg">

<g transform="matrix(18.68858,0,0,18.68858,-7037.36743,-2744.65196)">
<path d="m396.0668,148.3339c-1.313.5777-3.5351.9688-6.0938.9688-2.531,0-4.7749-.3702-6.0938-.9375-1.5681,1.9603-2.1224,4.8354-1.5938,7.9688 1,5.9275 6.694,10.625 7.6875,10.625 .931,0 6.6875-4.76 7.6875-10.625 .5372-3.1507-.0127-6.0385-1.5938-8z" fill="#fff"/>
<path d="m419.875,344.7684c0,2.7442-2.2246,4.9688-4.9688,4.9688s-4.9688-2.2246-4.9688-4.9688 2.2246-4.9688 4.9688-4.9688 4.9688,2.2246 4.9688,4.9688z" fill="#fff" stroke="#000" stroke-width="1.1447" transform="matrix(1.22213,0,0,.62445,-117.10463,-47.43088)"/>
<path d="m419.875,344.7684c0,2.7442-2.2246,4.9688-4.9688,4.9688s-4.9688-2.2246-4.9688-4.9688 2.2246-4.9688 4.9688-4.9688 4.9688,2.2246 4.9688,4.9688z" fill="#fff" stroke="#000" stroke-width="1.1447" transform="matrix(1.22213,0,0,.62445,-117.10463,-44.94241)"/>
<path d="m410.75,332.7372c0,1.6914-1.3711,3.0625-3.0625,3.0625s-3.0625-1.3711-3.0625-3.0625 1.3711-3.0625 3.0625-3.0625 3.0625,1.3711 3.0625,3.0625z" fill="#fff" stroke="#000" stroke-width="1.1708" transform="matrix(.68831,.18443,-.26498,.98893,201.071,-248.04753)"/>
<path d="m410.75,332.7372c0,1.6914-1.3711,3.0625-3.0625,3.0625s-3.0625-1.3711-3.0625-3.0625 1.3711-3.0625 3.0625-3.0625 3.0625,1.3711 3.0625,3.0625z" fill="#fff" stroke="#000" stroke-width="1.1708" transform="matrix(-.68831,.18443,.26498,.98893,578.83624,-248.04753)"/>
<path d="m419.875,344.7684c0,2.7442-2.2246,4.9688-4.9688,4.9688s-4.9688-2.2246-4.9688-4.9688 2.2246-4.9688 4.9688-4.9688 4.9688,2.2246 4.9688,4.9688z" fill="#fff" stroke="#000" stroke-width="2.9539" transform="matrix(.55624,0,0,.20603,159.17751,99.74504)"/>
<path d="m410.75,332.7372c0,1.6914-1.3711,3.0625-3.0625,3.0625s-3.0625-1.3711-3.0625-3.0625 1.3711-3.0625 3.0625-3.0625 3.0625,1.3711 3.0625,3.0625z" transform="matrix(-.46767,.12531,.18004,.67192,517.87139,-118.46566)"/>
<path d="m410.75,332.7372c0,1.6914-1.3711,3.0625-3.0625,3.0625s-3.0625-1.3711-3.0625-3.0625 1.3711-3.0625 3.0625-3.0625 3.0625,1.3711 3.0625,3.0625z" transform="matrix(.46767,.12531,-.18004,.67192,263.41059,-118.46566)"/>
</g>
</svg>
