<svg viewBox="0 0 512 512" xmlns="http://www.w3.org/2000/svg">

<g transform="matrix(18.68858,0,0,18.68858,-4313.41534,-18613.09429)">
<path d="m240.75,1009.9063-7.5312,13.0312h4.75l6.3125-10.9687-3.5312-2.0625z" fill="#fff" stroke="#000"/>
<path d="m712.3977,744.2028h6.2491v13.4968h-6.2491z" fill="#fff" stroke="#000" transform="matrix(.86631,.49951,-.50004,.866,0,0)"/>
<path d="m239.8795,999.9009 13.9537,8.0529-4.546,7.8706-13.9537-8.0528 4.546-7.8707z" fill="#fff" stroke="#000"/>
<g transform="matrix(.9236,.53302,-.53324,.92322,556.86921,-51.86719)">
<path d="m-253.8045,1001.9074h3.4719v10.8484h-3.4719z" fill="#fff" transform="scale(-1,1)"/>
<path d="m250.1042,1001.8355v10.9456" fill="none" stroke="#000" stroke-width=".9379"/>
<path d="m232.9315,1001.9074h3.4719v10.8484h-3.4719z" fill="#fff"/>
<path d="m236.6318,1001.8355v10.9456" fill="none" stroke="#000" stroke-width=".9379"/>
</g>
</g>
</svg>
