<svg viewBox="0 0 512 512" xmlns="http://www.w3.org/2000/svg">

<g transform="matrix(18.68858,0,0,18.68858,-4313.41534,-18613.09429)">
<path d="m 240.75 1009.91 -7.5312 13.0312 h 4.75 l 6.3125 -10.9687 -3.5312 -2.0625 z" fill="#fff" stroke="#000"/>
<path d="m 712.398 744.203 h 6.2491 v 13.4968 h -6.2491 z" fill="#fff" stroke="#000" transform="matrix(.86631,.49951,-.50004,.866,0,0)"/>
<path d="m 239.88 999.901 13.9537 8.0529 -4.546 7.8706 -13.9537 -8.0528 4.546 -7.8707 z" fill="#fff" stroke="#000"/>
<g transform="matrix(.9236,.53302,-.53324,.92322,556.86921,-51.86719)">
<path d="m -253.804 1001.91 h 3.4719 v 10.8484 h -3.4719 z" fill="#fff" transform="scale(-1,1)"/>
<path d="m 250.104 1001.84 v 10.9456" fill="none" stroke="#000" stroke-width=".9379"/>
<path d="m 232.931 1001.91 h 3.4719 v 10.8484 h -3.4719 z" fill="#fff"/>
<path d="m 236.632 1001.84 v 10.9456" fill="none" stroke="#000" stroke-width=".9379"/>
</g>
</g>
</svg>
