<svg viewBox="0 0 512 512" xmlns="http://www.w3.org/2000/svg">

<g transform="matrix(18.68858,0,0,18.68858,-11122.79457,-29939.39581)">
<path d="m695.1875,438.8622c0,6.4548-3.5398,11.6875-7.9062,11.6875s-7.9062-5.2327-7.9062-11.6875 3.5398-11.6875 7.9062-11.6875 7.9062,5.2327 7.9062,11.6875z" stroke="#fff" stroke-width=".9966" transform="matrix(1.02526,0,0,.98203,-95.79596,1184.5084)"/>
<path d="m596.1816,1615.5754h25.3257" fill="none" stroke="#fff"/>
<path d="m607.6258,1617.0625c.3592-.1893.7713-.3125 1.2188-.3125s.8595.1232 1.2188.3125l.125-3.0313c-.3841.2248-.8461.3438-1.3438.3438s-.9597-.119-1.3438-.3438z" fill="#fff"/>
<path d="m603.782,1610.8125c0,2.2022-3.9674,4.2813-6.4375,4.2813v.9687c2.4701,0 6.4375,2.079 6.4375,4.2813h1c0-1.573 1.887-3.3841 4.0625-3.3854 2.1895,0 4.0938,1.8074 4.0938,3.3854h1c0-2.2022 3.9362-4.2813 6.4062-4.2813v-.9687c-2.4701,0-6.4062-2.0791-6.4062-4.2813h-1c0,1.5779-1.9042,3.3867-4.0938,3.3853-2.1755,0-4.0625-1.8123-4.0625-3.3853z" fill="#fff"/>
<path d="m604.266,1602.988-2e-05,25.3258" fill="none" stroke="#fff"/>
<path d="m613.423,1602.988-2e-05,25.3258" fill="none" stroke="#fff"/>
<path d="m600.0587,1615.5722c2.682,2.8338 5.4984,2.7771 8.4413,0-3.0153-2.8022-5.8174-2.8068-8.4413,0z" stroke="#fff"/>
<path d="m609.189,1615.5722c2.682,2.8338 5.4984,2.7771 8.4413,0-3.0153-2.8022-5.8174-2.8068-8.4413,0z" stroke="#fff"/>
<path d="m607.4057,1615.3489c0,.5108-.4141.925-.925.925s-.925-.4142-.925-.925 .4141-.925.925-.925 .925.4141.925.925z" fill="#fff" transform="translate(-2.2014,.1869)"/>
<path d="m607.4057,1615.3489c0,.5108-.4141.925-.925.925s-.925-.4142-.925-.925 .4141-.925.925-.925 .925.4141.925.925z" fill="#fff" transform="translate(6.929,.1869)"/>
<path d="m610.96,1611.1029c0,.8109-.6574,1.4683-1.4683,1.4683s-1.4683-.6574-1.4683-1.4683 .6574-1.4683 1.4683-1.4683 1.4683.6574 1.4683,1.4683z" fill="#fff" stroke="#000" stroke-width=".3654" transform="matrix(2.44854,0,0,3.05853,-883.52174,-3318.1058)"/>
</g>
</svg>
