<svg viewBox="0 0 512 512" xmlns="http://www.w3.org/2000/svg">

<g transform="matrix(18.68858,0,0,18.68858,-11122.79457,-29939.39581)">
<path d="m 695.188 438.862 c 0 6.4548 -3.5398 11.6875 -7.9062 11.6875 s -7.9062 -5.2327 -7.9062 -11.6875 3.5398 -11.6875 7.9062 -11.6875 7.9062 5.2327 7.9062 11.6875 z" stroke="#fff" stroke-width=".9966" transform="matrix(1.02526,0,0,.98203,-95.79596,1184.5084)"/>
<path d="m 596.182 1615.58 h 25.3257" fill="none" stroke="#fff"/>
<path d="m 607.626 1617.06 c 0.3592 -0.1893 0.7713 -0.3125 1.2188 -0.3125 s 0.8595 0.1232 1.2188 0.3125 l 0.125 -3.0313 c -0.3841 0.2248 -0.8461 0.3438 -1.3438 0.3438 s -0.9597 -0.119 -1.3438 -0.3438 z" fill="#fff"/>
<path d="m 603.782 1610.81 c 0 2.2022 -3.9674 4.2813 -6.4375 4.2813 v 0.9687 c 2.4701 0 6.4375 2.079 6.4375 4.2813 h 1 c 0 -1.573 1.887 -3.3841 4.0625 -3.3854 2.1895 0 4.0938 1.8074 4.0938 3.3854 h 1 c 0 -2.2022 3.9362 -4.2813 6.4062 -4.2813 v -0.9687 c -2.4701 0 -6.4062 -2.0791 -6.4062 -4.2813 h -1 c 0 1.5779 -1.9042 3.3867 -4.0938 3.3853 -2.1755 0 -4.0625 -1.8123 -4.0625 -3.3853 z" fill="#fff"/>
<path d="m 604.266 1602.99 -2e-05 25.3258" fill="none" stroke="#fff"/>
<path d="m 613.423 1602.99 -2e-05 25.3258" fill="none" stroke="#fff"/>
<path d="m 600.059 1615.57 c 2.682 2.8338 5.4984 2.7771 8.4413 0 -3.0153 -2.8022 -5.8174 -2.8068 -8.4413 0 z" stroke="#fff"/>
<path d="m 609.189 1615.57 c 2.682 2.8338 5.4984 2.7771 8.4413 0 -3.0153 -2.8022 -5.8174 -2.8068 -8.4413 0 z" stroke="#fff"/>
<path d="m 607.406 1615.35 c 0 0.5108 -0.4141 0.925 -0.925 0.925 s -0.925 -0.4142 -0.925 -0.925 0.4141 -0.925 0.925 -0.925 0.925 0.4141 0.925 0.925 z" fill="#fff" transform="translate(-2.2014,.1869)"/>
<path d="m 607.406 1615.35 c 0 0.5108 -0.4141 0.925 -0.925 0.925 s -0.925 -0.4142 -0.925 -0.925 0.4141 -0.925 0.925 -0.925 0.925 0.4141 0.925 0.925 z" fill="#fff" transform="translate(6.929,.1869)"/>
<path d="m 610.96 1611.1 c 0 0.8109 -0.6574 1.4683 -1.4683 1.4683 s -1.4683 -0.6574 -1.4683 -1.4683 0.6574 -1.4683 1.4683 -1.4683 1.4683 0.6574 1.4683 1.4683 z" fill="#fff" stroke="#000" stroke-width=".3654" transform="matrix(2.44854,0,0,3.05853,-883.52174,-3318.1058)"/>
</g>
</svg>
