<svg viewBox="0 0 512 512" xmlns="http://www.w3.org/2000/svg">

<g transform="matrix(18.68858,0,0,18.68858,-2270.28553,-22486.96968)">
<path d="m140.0625,1212.4375v8.5938l-4.25-7.4063-2.5,1.4063 4.3438,7.5-7.5938-4.375-1.375,2.5 7.5312,4.375h-8.7188v2.875h8.5625l-3.25,1.875h15.0938v-1.3438l-.9375-.5312h.9375v-2.875h-1.1562l1.1562-.6563v-3.3125l-2.375,1.4063 2.375-4.1563v-4.3437l-.625-.3438-4.3438,7.5625v-8.75h-2.875z" fill="#fff" fill-rule="evenodd"/>
<path d="m141.5,1215.3125c-6.13,0-11.0938,4.995-11.0938,11.125 0,1.1726.1901,2.2895.5312,3.3438h16.9688v-12.4063c-1.8132-1.2877-4.0146-2.0625-6.4062-2.0625z" fill="#fff"/>
<path d="m146.4862,1224.083c0,1.5485-1.2553,2.8038-2.8038,2.8038s-2.8038-1.2553-2.8038-2.8038 1.2553-2.8038 2.8038-2.8038 2.8038,1.2553 2.8038,2.8038z" transform="matrix(1.31186,0,0,1.31185,-46.98711,-379.38757)"/>
<g transform="matrix(1.15812,-.12356,.12356,1.15812,-170.27069,-174.08816)">
<path d="m131.7219,1204.369-1.8759,3.2221-1.8137-3.2124-2.1681,1.2548 1.8135,3.2124-3.6895.01-.0206,2.5046 3.6896-.01-1.876,3.2222 2.1476,1.2499 1.8761-3.2225 1.8806,3.2519 2.1682-1.2549-1.8137-3.2123 3.6897-.01 .0206-2.5047-3.7566-.029 1.8759-3.222-2.1475-1.2499z" fill="#fff" fill-rule="evenodd"/>
<path d="m134.8654,1215.4095c0,2.003-1.6237,3.6267-3.6266,3.6267s-3.6266-1.6237-3.6266-3.6267 1.6237-3.6266 3.6266-3.6266 3.6266,1.6237 3.6266,3.6266z" fill="#fff" stroke="#fff" stroke-width=".8551" transform="matrix(.96883,.26323,-.26342,.96909,322.89545,-2.44654)"/>
</g>
<path d="m131.4263,1210.8218c0,.8557-.6937,1.5493-1.5493,1.5493s-1.5493-.6936-1.5493-1.5493 .6937-1.5494 1.5493-1.5494 1.5493.6937 1.5493,1.5494z" transform="matrix(1.51824,-.09265,.09262,1.51796,-179.6804,-614.64128)"/>
</g>
</svg>
