<svg viewBox="0 0 512 512" xmlns="http://www.w3.org/2000/svg">

<g transform="matrix(18.68858,0,0,18.68858,-2270.28553,-22486.96968)">
<path d="m 140.062 1212.44 v 8.5938 l -4.25 -7.4063 -2.5 1.4063 4.3438 7.5 -7.5938 -4.375 -1.375 2.5 7.5312 4.375 h -8.7188 v 2.875 h 8.5625 l -3.25 1.875 h 15.0938 v -1.3438 l -0.9375 -0.5312 h 0.9375 v -2.875 h -1.1562 l 1.1562 -0.6563 v -3.3125 l -2.375 1.4063 2.375 -4.1563 v -4.3437 l -0.625 -0.3438 -4.3438 7.5625 v -8.75 h -2.875 z" fill="#fff" fill-rule="evenodd"/>
<path d="m 141.5 1215.31 c -6.13 0 -11.0938 4.995 -11.0938 11.125 0 1.1726 0.1901 2.2895 0.5312 3.3438 h 16.9688 v -12.4063 c -1.8132 -1.2877 -4.0146 -2.0625 -6.4062 -2.0625 z" fill="#fff"/>
<path d="m 146.486 1224.08 c 0 1.5485 -1.2553 2.8038 -2.8038 2.8038 s -2.8038 -1.2553 -2.8038 -2.8038 1.2553 -2.8038 2.8038 -2.8038 2.8038 1.2553 2.8038 2.8038 z" transform="matrix(1.31186,0,0,1.31185,-46.98711,-379.38757)"/>
<g transform="matrix(1.15812,-.12356,.12356,1.15812,-170.27069,-174.08816)">
<path d="m 131.722 1204.37 -1.8759 3.2221 -1.8137 -3.2124 -2.1681 1.2548 1.8135 3.2124 -3.6895 0.01 -0.0206 2.5046 3.6896 -0.01 -1.876 3.2222 2.1476 1.2499 1.8761 -3.2225 1.8806 3.2519 2.1682 -1.2549 -1.8137 -3.2123 3.6897 -0.01 0.0206 -2.5047 -3.7566 -0.029 1.8759 -3.222 -2.1475 -1.2499 z" fill="#fff" fill-rule="evenodd"/>
<path d="m 134.865 1215.41 c 0 2.003 -1.6237 3.6267 -3.6266 3.6267 s -3.6266 -1.6237 -3.6266 -3.6267 1.6237 -3.6266 3.6266 -3.6266 3.6266 1.6237 3.6266 3.6266 z" fill="#fff" stroke="#fff" stroke-width=".8551" transform="matrix(.96883,.26323,-.26342,.96909,322.89545,-2.44654)"/>
</g>
<path d="m 131.426 1210.82 c 0 0.8557 -0.6937 1.5493 -1.5493 1.5493 s -1.5493 -0.6936 -1.5493 -1.5493 0.6937 -1.5494 1.5493 -1.5494 1.5493 0.6937 1.5493 1.5494 z" transform="matrix(1.51824,-.09265,.09262,1.51796,-179.6804,-614.64128)"/>
</g>
</svg>
