<svg viewBox="0 0 512 512" xmlns="http://www.w3.org/2000/svg">

<g transform="matrix(18.68858,0,0,18.68858,-5001.41022,-44231.86733)">
<g transform="matrix(.98665,.16285,-.16285,.98665,391.43782,-14.02858)">
<path d="m 268.532 2378.99 h 25.5085 v 3.1509 h -25.5085 z" fill="#fff"/>
<path d="m 1421.13 1919.41 h 25.5085 v 3.1509 h -25.5085 z" fill="#fff" transform="rotate(30)"/>
<path d="m 2189.52 945.106 h 25.5085 v 3.1509 h -25.5085 z" fill="#fff" transform="rotate(60)"/>
<path d="m 2367.81 -282.862 h 25.5085 v 3.1509 h -25.5085 z" fill="#fff" transform="matrix(0,1,-1,0,0,0)"/>
<path d="m 1908.23 -1435.46 h 25.5085 v 3.1509 h -25.5085 z" fill="#fff" transform="matrix(-.5,.86603,-.86603,-.5,0,0)"/>
<path d="m 933.927 -2203.85 h 25.5085 v 3.1509 h -25.5085 z" fill="#fff" transform="matrix(-.86603,.5,-.5,-.86603,0,0)"/>
</g>
<path d="m 290.163 2379.96 c 0 5.5463 -4.4962 10.0424 -10.0425 10.0424 s -10.0425 -4.4961 -10.0425 -10.0424 4.4962 -10.0425 10.0425 -10.0425 10.0425 4.4962 10.0425 10.0425 z" fill="#fff" transform="matrix(1.1266,.18595,-.18595,1.1266,408.51385,-352.80808)"/>
<path d="m 290.163 2379.96 c 0 5.5463 -4.4962 10.0424 -10.0425 10.0424 s -10.0425 -4.4961 -10.0425 -10.0424 4.4962 -10.0425 10.0425 -10.0425 10.0425 4.4962 10.0425 10.0425 z" stroke="#fff" stroke-width="1.1481" transform="matrix(.85939,.14185,-.14185,.85939,378.40525,295.45667)"/>
<path d="m 290.163 2379.96 c 0 5.5463 -4.4962 10.0424 -10.0425 10.0424 s -10.0425 -4.4961 -10.0425 -10.0424 4.4962 -10.0425 10.0425 -10.0425 10.0425 4.4962 10.0425 10.0425 z" fill="none" stroke="#000" stroke-width="1.033" transform="matrix(.95516,.15766,-.15766,.95516,389.19708,63.10212)"/>
<path d="m 282.569 2373.68 5.7903 4.7516 -3.1261 3.8094 -8.114 -6.6584 z" fill="#fff"/>
<path d="m 1726.12 1658.75 h 1.9219 v 11.2847 h -1.9219 z" fill="#fff" transform="rotate(39.373)"/>
</g>
</svg>
