<svg viewBox="0 0 512 512" xmlns="http://www.w3.org/2000/svg">

<g transform="matrix(18.68858,0,0,18.68858,-5001.41022,-44231.86733)">
<g transform="matrix(.98665,.16285,-.16285,.98665,391.43782,-14.02858)">
<path d="m268.5321,2378.99h25.5085v3.1509h-25.5085z" fill="#fff"/>
<path d="m1421.1296,1919.4116h25.5085v3.1509h-25.5085z" fill="#fff" transform="rotate(30)"/>
<path d="m2189.519,945.1062h25.5085v3.1509h-25.5085z" fill="#fff" transform="rotate(60)"/>
<path d="m2367.811-282.8617h25.5085v3.1509h-25.5085z" fill="#fff" transform="matrix(0,1,-1,0,0,0)"/>
<path d="m1908.2327-1435.4592h25.5085v3.1509h-25.5085z" fill="#fff" transform="matrix(-.5,.86603,-.86603,-.5,0,0)"/>
<path d="m933.9273-2203.8486h25.5085v3.1509h-25.5085z" fill="#fff" transform="matrix(-.86603,.5,-.5,-.86603,0,0)"/>
</g>
<path d="m290.163,2379.9612c0,5.5463-4.4962,10.0424-10.0425,10.0424s-10.0425-4.4961-10.0425-10.0424 4.4962-10.0425 10.0425-10.0425 10.0425,4.4962 10.0425,10.0425z" fill="#fff" transform="matrix(1.1266,.18595,-.18595,1.1266,408.51385,-352.80808)"/>
<path d="m290.163,2379.9612c0,5.5463-4.4962,10.0424-10.0425,10.0424s-10.0425-4.4961-10.0425-10.0424 4.4962-10.0425 10.0425-10.0425 10.0425,4.4962 10.0425,10.0425z" stroke="#fff" stroke-width="1.1481" transform="matrix(.85939,.14185,-.14185,.85939,378.40525,295.45667)"/>
<path d="m290.163,2379.9612c0,5.5463-4.4962,10.0424-10.0425,10.0424s-10.0425-4.4961-10.0425-10.0424 4.4962-10.0425 10.0425-10.0425 10.0425,4.4962 10.0425,10.0425z" fill="none" stroke="#000" stroke-width="1.033" transform="matrix(.95516,.15766,-.15766,.95516,389.19708,63.10212)"/>
<path d="m282.569,2373.6761 5.7903,4.7516-3.1261,3.8094-8.114-6.6584z" fill="#fff"/>
<path d="m1726.124,1658.7454h1.9219v11.2847h-1.9219z" fill="#fff" transform="rotate(39.373)"/>
</g>
</svg>
