<svg viewBox="0 0 512 512" xmlns="http://www.w3.org/2000/svg">

<g transform="matrix(18.68858,0,0,18.68858,-2952.49175,-21806.17134)">
<path d="m 170.241 1172.48 c -0.7676 -1.8165 0.5082 -2.6861 1.3949 -0.5897 1.7971 -0.7599 2.5562 0.5631 0.5897 1.3946 l -1.3947 0.5897 c -2.0896 0.8836 -2.7929 -0.4631 -0.5899 -1.3946 z" fill="#fff"/>
<path d="m 176.067 1176.41 c -1.842 -0.5416 -3.1009 -1.8238 -4.1357 -3.3314 l -1.1024 0.5607 c 1.0301 2.1243 2.5392 3.4342 4.6294 4.2871 l 0.6086 -1.5164 z" fill="#fff" fill-rule="evenodd"/>
<path d="m 171.265 1185.16 3.5435 1.6937 c -2.1372 4.9817 -8.7618 7.89 -12.8276 4.9507 -3.2522 -2.3511 -4.1485 -10.0648 0.6063 -10.814 -2.9403 1.3606 -1.5835 7.2641 0.8783 8.7378 3.2117 1.9227 6.1541 -1.4449 7.7995 -4.5682 z" fill="#fff" fill-rule="evenodd"/>
<path d="m 164.802 1182.77 c -1.6664 1.0543 -1.114 2.4967 0.8096 1.2796 1.0432 1.6491 2.4212 0.995 1.2795 -0.8095 l -0.8098 -1.2797 c -1.2131 -1.9171 -2.5583 -1.2116 -1.2794 0.8096 z" fill="#fff"/>
<path d="m 183.198 1181.35 c 1.8344 -0.7236 1.5619 -2.2437 -0.5557 -1.4087 -0.7156 -1.8154 -2.1919 -1.431 -1.4085 0.5556 l 0.5554 1.4085 c 0.8323 2.1106 2.2862 1.6695 1.4088 -0.5554 z" fill="#fff"/>
<path d="m 181.589 1180.69 c -2.0738 0.6225 -2.5675 -0.5817 -3.1998 -2.3228 l -1.0749 0.7335 c 0.6231 2.9084 2.1686 3.6484 4.7426 2.7637 l -0.4679 -1.1744 z" fill="#fff" fill-rule="evenodd"/>
<path d="m 179.756 1191.74 c -0.1241 1.9681 -1.6545 2.1763 -1.5113 -0.095 -1.9473 -0.123 -2.0358 -1.6456 0.0956 -1.5112 l 1.5112 0.095 c 2.2644 0.1429 2.2915 1.662 -0.0955 1.5112 z" fill="#fff"/>
<path d="m 175.878 1183.84 -1.4305 2.5141 c 2.3908 0.2128 3.9296 2.1725 4.1378 4.7494 l 1.0086 -0.1326 c 0.5064 -3.4696 -1.3921 -5.5276 -3.7159 -7.1309 z" fill="#fff" fill-rule="evenodd"/>
<path d="m 172.225 1181.96 -1.0542 2.5202 c -0.9059 -2.134 -2.5953 -2.3844 -4.955 -1.1308 l -0.639 -0.9021 c 2.3728 -2.0346 4.395 -2.6735 6.6482 -0.4873 z" fill="#fff" fill-rule="evenodd"/>
<g transform="matrix(.77018,.98863,-.98863,.77018,1212.4529,101.57668)">
<path d="m 169.089 1174.29 c -2.1985 -3.9503 -4.0861 -3.5429 -3.9364 1.0547 0.1175 3.607 5.6967 2.1083 3.9364 -1.0547 z" fill="#fff"/>
<path d="m 160.382 1174.03 c 0 0.5331 -0.4321 0.9652 -0.9652 0.9652 s -0.9652 -0.4321 -0.9652 -0.9652 0.4321 -0.9652 0.9652 -0.9652 0.9652 0.4322 0.9652 0.9652 z" fill="#fff" transform="matrix(.96593,-.25882,-.25882,-.96593,315.17747,2350.9763)"/>
<path d="m 160.382 1174.03 c 0 0.5331 -0.4321 0.9652 -0.9652 0.9652 s -0.9652 -0.4321 -0.9652 -0.9652 0.4321 -0.9652 0.9652 -0.9652 0.9652 0.4322 0.9652 0.9652 z" fill="#fff" transform="matrix(.96593,-.25882,-.25882,-.96593,319.01026,2349.9493)"/>
</g>
<path d="m 170.979 1186.29 3.0604 1.9602 c 3.1043 -3.0765 5.4129 -7.9438 4.81 -12.2761 -0.0801 -0.5751 0.3314 -0.8648 0.7309 -1.1653 l -2.5073 -1.2494 c -0.0134 0.369 -0.1376 0.6767 -0.5346 0.9859 -2.5441 1.9819 -5.9512 6.78 -5.5593 11.7447 z" fill="#fff" fill-rule="evenodd"/>
</g>
</svg>
