<svg viewBox="0 0 512 512" xmlns="http://www.w3.org/2000/svg">
<path d="m0,0h512v512h-512z"/>
<g transform="matrix(18.68858,0,0,18.68858,-2952.49175,-21806.17134)">
<path d="m170.2408,1172.4807c-.7676-1.8165.5082-2.6861 1.3949-.5897 1.7971-.7599 2.5562.5631.5897,1.3946l-1.3947.5897c-2.0896.8836-2.7929-.4631-.5899-1.3946z" fill="#fff"/>
<path d="m176.0668,1176.4069c-1.842-.5416-3.1009-1.8238-4.1357-3.3314l-1.1024.5607c1.0301,2.1243 2.5392,3.4342 4.6294,4.2871l.6086-1.5164z" fill="#fff" fill-rule="evenodd"/>
<path d="m171.2651,1185.1577 3.5435,1.6937c-2.1372,4.9817-8.7618,7.89-12.8276,4.9507-3.2522-2.3511-4.1485-10.0648.6063-10.814-2.9403,1.3606-1.5835,7.2641.8783,8.7378 3.2117,1.9227 6.1541-1.4449 7.7995-4.5682z" fill="#fff" fill-rule="evenodd"/>
<path d="m164.8018,1182.7671c-1.6664,1.0543-1.114,2.4967.8096,1.2796 1.0432,1.6491 2.4212.995 1.2795-.8095l-.8098-1.2797c-1.2131-1.9171-2.5583-1.2116-1.2794.8096z" fill="#fff"/>
<path d="m183.1985,1181.3469c1.8344-.7236 1.5619-2.2437-.5557-1.4087-.7156-1.8154-2.1919-1.431-1.4085.5556l.5554,1.4085c.8323,2.1106 2.2862,1.6695 1.4088-.5554z" fill="#fff"/>
<path d="m181.5892,1180.6932c-2.0738.6225-2.5675-.5817-3.1998-2.3228l-1.0749.7335c.6231,2.9084 2.1686,3.6484 4.7426,2.7637l-.4679-1.1744z" fill="#fff" fill-rule="evenodd"/>
<path d="m179.7562,1191.7397c-.1241,1.9681-1.6545,2.1763-1.5113-.095-1.9473-.123-2.0358-1.6456.0956-1.5112l1.5112.095c2.2644.1429 2.2915,1.662-.0955,1.5112z" fill="#fff"/>
<path d="m175.878,1183.8375-1.4305,2.5141c2.3908.2128 3.9296,2.1725 4.1378,4.7494l1.0086-.1326c.5064-3.4696-1.3921-5.5276-3.7159-7.1309z" fill="#fff" fill-rule="evenodd"/>
<path d="m172.2252,1181.959-1.0542,2.5202c-.9059-2.134-2.5953-2.3844-4.955-1.1308l-.639-.9021c2.3728-2.0346 4.395-2.6735 6.6482-.4873z" fill="#fff" fill-rule="evenodd"/>
<g transform="matrix(.77018,.98863,-.98863,.77018,1212.4529,101.57668)">
<path d="m169.0885,1174.2873c-2.1985-3.9503-4.0861-3.5429-3.9364,1.0547 .1175,3.607 5.6967,2.1083 3.9364-1.0547z" fill="#fff"/>
<path d="m160.382,1174.0294c0,.5331-.4321.9652-.9652.9652s-.9652-.4321-.9652-.9652 .4321-.9652.9652-.9652 .9652.4322.9652.9652z" fill="#fff" transform="matrix(.96593,-.25882,-.25882,-.96593,315.17747,2350.9763)"/>
<path d="m160.382,1174.0294c0,.5331-.4321.9652-.9652.9652s-.9652-.4321-.9652-.9652 .4321-.9652.9652-.9652 .9652.4322.9652.9652z" fill="#fff" transform="matrix(.96593,-.25882,-.25882,-.96593,319.01026,2349.9493)"/>
</g>
<path d="m170.9787,1186.2876 3.0604,1.9602c3.1043-3.0765 5.4129-7.9438 4.81-12.2761-.0801-.5751.3314-.8648.7309-1.1653l-2.5073-1.2494c-.0134.369-.1376.6767-.5346.9859-2.5441,1.9819-5.9512,6.78-5.5593,11.7447z" fill="#fff" fill-rule="evenodd"/>
</g>
</svg>
