<svg viewBox="0 0 512 512" xmlns="http://www.w3.org/2000/svg">

<g transform="matrix(18.68858,0,0,18.68858,-5913.81079,-14782.1045)">
<path d="m 325.295 806.78 c 1.9251 -8.0291 -8.099 -6.2926 -6.4801 -11.8199 0.612 -2.0895 4.0803 -2.3456 6.1936 -1.1916 3.7439 2.0444 9.2065 3.3015 12.5007 0.9221 2.5651 -1.8528 5.2383 0.9497 2.2094 3.7003 -5.196 4.7185 -9.9963 1.7354 -12.7 8.3891" fill="none" stroke="#fff"/>
<path d="m 23.4375 602.643 c 0 1.1563 -0.9374 2.0938 -2.0938 2.0938 s -2.0938 -0.9374 -2.0938 -2.0938 0.9374 -2.0938 2.0938 -2.0938 2.0938 0.9374 2.0938 2.0938 z" stroke="#fff" stroke-width="1.7179" transform="matrix(.58209,0,0,.58209,317.14134,452.14044)"/>
<path d="m 23.4375 602.643 c 0 1.1563 -0.9374 2.0938 -2.0938 2.0938 s -2.0938 -0.9374 -2.0938 -2.0938 0.9374 -2.0938 2.0938 -2.0938 2.0938 0.9374 2.0938 2.0938 z" stroke="#fff" stroke-width="1.7179" transform="matrix(.58209,0,0,.58209,321.51412,450.64044)"/>
<path d="m 23.4375 602.643 c 0 1.1563 -0.9374 2.0938 -2.0938 2.0938 s -2.0938 -0.9374 -2.0938 -2.0938 0.9374 -2.0938 2.0938 -2.0938 2.0938 0.9374 2.0938 2.0938 z" stroke="#fff" stroke-width="1.7179" transform="matrix(.58209,0,0,.58209,325.75654,448.98105)"/>
<path d="m 23.4375 602.643 c 0 1.1563 -0.9374 2.0938 -2.0938 2.0938 s -2.0938 -0.9374 -2.0938 -2.0938 0.9374 -2.0938 2.0938 -2.0938 2.0938 0.9374 2.0938 2.0938 z" stroke="#fff" stroke-width="1.7179" transform="matrix(.58209,0,0,.58209,328.74582,445.65783)"/>
<path d="m 23.4375 602.643 c 0 1.1563 -0.9374 2.0938 -2.0938 2.0938 s -2.0938 -0.9374 -2.0938 -2.0938 0.9374 -2.0938 2.0938 -2.0938 2.0938 0.9374 2.0938 2.0938 z" stroke="#fff" stroke-width="1.7179" transform="matrix(.58209,0,0,.58209,324.80702,443.89932)"/>
<path d="m 23.4375 602.643 c 0 1.1563 -0.9374 2.0938 -2.0938 2.0938 s -2.0938 -0.9374 -2.0938 -2.0938 0.9374 -2.0938 2.0938 -2.0938 2.0938 0.9374 2.0938 2.0938 z" stroke="#fff" stroke-width="1.7179" transform="matrix(.58209,0,0,.58209,320.77799,445.13416)"/>
<path d="m 23.4375 602.643 c 0 1.1563 -0.9374 2.0938 -2.0938 2.0938 s -2.0938 -0.9374 -2.0938 -2.0938 0.9374 -2.0938 2.0938 -2.0938 2.0938 0.9374 2.0938 2.0938 z" stroke="#fff" stroke-width="1.7179" transform="matrix(.58209,0,0,.58209,316.15835,444.47032)"/>
<path d="m 23.4375 602.643 c 0 1.1563 -0.9374 2.0938 -2.0938 2.0938 s -2.0938 -0.9374 -2.0938 -2.0938 0.9374 -2.0938 2.0938 -2.0938 2.0938 0.9374 2.0938 2.0938 z" stroke="#fff" stroke-width="1.7179" transform="matrix(.58209,0,0,.58209,311.78963,442.81407)"/>
<path d="m 23.4375 602.643 c 0 1.1563 -0.9374 2.0938 -2.0938 2.0938 s -2.0938 -0.9374 -2.0938 -2.0938 0.9374 -2.0938 2.0938 -2.0938 2.0938 0.9374 2.0938 2.0938 z" stroke="#fff" stroke-width="1.7179" transform="matrix(.58209,0,0,.58209,306.90927,443.14304)"/>
<path d="m 23.4375 602.643 c 0 1.1563 -0.9374 2.0938 -2.0938 2.0938 s -2.0938 -0.9374 -2.0938 -2.0938 0.9374 -2.0938 2.0938 -2.0938 2.0938 0.9374 2.0938 2.0938 z" stroke="#fff" stroke-width="1.7179" transform="matrix(.58209,0,0,.58209,306.79981,447.33812)"/>
<path d="m 23.4375 602.643 c 0 1.1563 -0.9374 2.0938 -2.0938 2.0938 s -2.0938 -0.9374 -2.0938 -2.0938 0.9374 -2.0938 2.0938 -2.0938 2.0938 0.9374 2.0938 2.0938 z" stroke="#fff" stroke-width="1.7179" transform="matrix(.58209,0,0,.58209,310.39579,449.34754)"/>
<path d="m 23.4375 602.643 c 0 1.1563 -0.9374 2.0938 -2.0938 2.0938 s -2.0938 -0.9374 -2.0938 -2.0938 0.9374 -2.0938 2.0938 -2.0938 2.0938 0.9374 2.0938 2.0938 z" stroke="#fff" stroke-width="1.7179" transform="matrix(.58209,0,0,.58209,312.99582,452.63324)"/>
<path d="m 23.4375 602.643 c 0 1.1563 -0.9374 2.0938 -2.0938 2.0938 s -2.0938 -0.9374 -2.0938 -2.0938 0.9374 -2.0938 2.0938 -2.0938 2.0938 0.9374 2.0938 2.0938 z" stroke="#fff" stroke-width="1.1971" transform="matrix(-.83538,0,0,.83538,344.29257,304.48696)"/>
<path d="m 331.53 817.286 -7.5424 -0.4552 1.0027 -8.4918 2.5294 -1.0027 7.3879 3.1799 -3.3776 6.7698 z" fill="#fff"/>
<path d="m 329.627 813.837 -3.6606 -0.2209 0.4733 -4.0086 1.2746 -0.5849 3.552 1.5288 -1.6393 3.2857 z" fill="#fff" stroke="#000"/>
<path d="m 329.433 813.617 2.1643 3.8881" fill="none" stroke="#000"/>
<path d="m 330.879 810.751 4.4211 -0.219" fill="none" stroke="#000"/>
<path d="m 323.757 817.005 2.5344 -3.7239" fill="none" stroke="#000"/>
</g>
</svg>
