<svg viewBox="0 0 512 512" xmlns="http://www.w3.org/2000/svg">

<g transform="matrix(18.68858,0,0,18.68858,-11121.46955,-27902.40974)">
<path d="m 405.904 1442.59 h 14.3977 v 14.3977 h -14.3977 z" fill="#fff" stroke="#fff" stroke-width="1.0253" transform="matrix(-.58804,.80883,.58804,.80883,0,0)"/>
<path d="m 614.377 1501.18 c -1.6513 0 -1.6382 -2.5009 0 -2.5009 s 1.6513 2.5009 0 2.5009 z" fill="#fff"/>
<path d="m 405.904 1445.05 h 11.9337 v 11.9337 h -11.9337 z" stroke="#fff" stroke-width="1.0253" transform="matrix(-.58804,.80883,.58804,.80883,0,0)"/>
<path d="m 616.682 1504.17 -10.2233 5.772" fill="none" stroke="#fff"/>
<path d="m 609.845 1498.76 3.8263 14.263" fill="none" stroke="#fff"/>
<path d="m 613.709 1500.49 -3.7959 14.1681" fill="none" stroke="#fff"/>
<path d="m 616.642 1509.34 -10.0218 -5.6499" fill="none" stroke="#fff"/>
<path d="m 615.024 1506.33 c 0 1.749 -1.4178 3.1668 -3.1668 3.1668 s -3.1668 -1.4178 -3.1668 -3.1668 1.4178 -3.1667 3.1668 -3.1667 3.1668 1.4178 3.1668 3.1667 z" stroke="#fff" stroke-width="1.1036" transform="matrix(-.79223,0,0,1.03645,1096.8212,-54.56575)"/>
<path d="m 602.008 1501.33 c -1.6513 0 -1.6382 -2.5009 0 -2.5009 s 1.6513 2.5009 0 2.5009 z" fill="#fff"/>
<path d="m 600.191 1499.76 c -1.6513 0 -1.6382 -2.5009 0 -2.5009 s 1.6513 2.5009 0 2.5009 z" fill="#fff"/>
<path d="m 598.643 1497.96 c -1.6513 0 -1.6382 -2.5009 0 -2.5009 s 1.6513 2.5009 0 2.5009 z" fill="#fff"/>
<path d="m 597.661 1495.75 c -1.6513 0 -1.6382 -2.5009 0 -2.5009 s 1.6513 2.5009 0 2.5009 z" fill="#fff"/>
<path d="m 615.908 1499.76 c 1.6513 0 1.6382 -2.5009 0 -2.5009 s -1.6513 2.5009 0 2.5009 z" fill="#fff"/>
<path d="m 617.455 1497.96 c 1.6513 0 1.6382 -2.5009 0 -2.5009 s -1.6513 2.5009 0 2.5009 z" fill="#fff"/>
<path d="m 618.438 1495.75 c 1.6513 0 1.6382 -2.5009 0 -2.5009 s -1.6513 2.5009 0 2.5009 z" fill="#fff"/>
<path d="m 603.777 1502.7 c 1.6513 0 1.6382 -2.5009 0 -2.5009 s -1.6513 2.5009 0 2.5009 z" fill="#fff"/>
<path d="m 595.744 1493.52 h 25.3956" fill="none" stroke="#000"/>
</g>
</svg>
