<svg viewBox="0 0 512 512" xmlns="http://www.w3.org/2000/svg">

<g transform="matrix(18.68858,0,0,18.68858,-7037.79479,-18613.73632)">
<path d="m 401.479 996.391 c -3.5107 3.1871 -7.1791 5.9112 -11.3625 8.273 -4.2407 -2.5311 -8.1331 -5.2363 -11.3625 -8.273" fill="none" stroke="#fff"/>
<path d="m 388.702 1006.73 v -2.3454 c 0 -1.485 2.7161 -1.3953 2.7161 0 v 2.3146" fill-rule="evenodd" stroke="#fff"/>
<path d="m 396.342 1015.11 -10.8748 2.9139 -7.9609 -7.9609 2.9139 -10.8748 10.8748 -2.9139 7.9609 7.9608 z" stroke="#fff" stroke-width="1.4113" transform="matrix(.68351,-.18364,.18314,.68535,-59.82549,395.01136)"/>
<path d="m 396.342 1015.11 -10.8748 2.9139 -7.9609 -7.9609 2.9139 -10.8748 10.8748 -2.9139 7.9609 7.9608 z" fill="none" stroke="#fff" stroke-width="2.2232" transform="matrix(.43256,-.11693,.1159,.43639,105.35578,619.84786)"/>
<path d="m 390.117 1009.22 -2e-05 -2.7019 m 4e-05 14.9942 -3e-05 -2.6189" fill="none" stroke="#fff"/>
<path d="m 394.276 1011.62 2.3434 -1.351 m -13.0047 7.4972 2.2715 -1.3095" fill="none" stroke="#fff"/>
<path d="m 394.276 1016.41 2.3434 1.3509 m -13.0048 -7.497 2.2715 1.3094" fill="none" stroke="#fff"/>
<path d="m 396.342 1015.11 -10.8748 2.9139 -7.9609 -7.9609 2.9139 -10.8748 10.8748 -2.9139 7.9609 7.9608 z" fill="#fff" stroke="#000" stroke-width="2.3615" transform="matrix(.3414,-.09237,.09148,.34473,165.36299,702.6199)"/>
<path d="m 386.929 1012.16 3.2323 -1.8361 -3.218 5.5527 -0.0143 -3.7166 z" fill-rule="evenodd"/>
<path d="m 385.467 1000.83 c 0 0.8642 -0.7006 1.5647 -1.5648 1.5647 s -1.5648 -0.7005 -1.5648 -1.5647 0.7006 -1.5648 1.5648 -1.5648 1.5648 0.7006 1.5648 1.5648 z" stroke="#fff" stroke-width="1.3488" transform="matrix(.74138,0,0,.74138,109.13381,260.42794)"/>
<path d="m 385.467 1000.83 c 0 0.8642 -0.7006 1.5647 -1.5648 1.5647 s -1.5648 -0.7005 -1.5648 -1.5647 0.7006 -1.5648 1.5648 -1.5648 1.5648 0.7006 1.5648 1.5648 z" stroke="#fff" stroke-width="1.3488" transform="matrix(.74138,0,0,.74138,112.42518,257.97291)"/>
<path d="m 401.105 996.601 c 0.4528 0.4528 0.4528 1.1878 -1e-05 1.6406 s -1.1878 0.4528 -1.6406 -3e-05 -0.4528 -1.1878 -2e-05 -1.6405" stroke="#fff"/>
<path d="m 385.467 1000.83 c 0 0.8642 -0.7006 1.5647 -1.5648 1.5647 s -1.5648 -0.7005 -1.5648 -1.5647 0.7006 -1.5648 1.5648 -1.5648 1.5648 0.7006 1.5648 1.5648 z" stroke="#fff" stroke-width="1.3488" transform="matrix(-.74138,0,0,.74138,671.03069,260.42794)"/>
<path d="m 385.467 1000.83 c 0 0.8642 -0.7006 1.5647 -1.5648 1.5647 s -1.5648 -0.7005 -1.5648 -1.5647 0.7006 -1.5648 1.5648 -1.5648 1.5648 0.7006 1.5648 1.5648 z" stroke="#fff" stroke-width="1.3488" transform="matrix(-.74138,0,0,.74138,667.73932,257.97291)"/>
<path d="m 380.56 996.601 c 0.4528 0.4528 0.4528 1.1878 -1e-05 1.6406 s -1.1878 0.4528 -1.6406 -3e-05 -0.4528 -1.1878 -2e-05 -1.6405" stroke="#fff"/>
<path d="m 377.106 996.506 h 25.4482" fill="none" stroke="#000"/>
</g>
</svg>
