<svg viewBox="0 0 512 512" xmlns="http://www.w3.org/2000/svg">

<g transform="matrix(18.68858,0,0,18.68858,-7037.79479,-18613.73632)">
<path d="m401.4792,996.3914c-3.5107,3.1871-7.1791,5.9112-11.3625,8.273-4.2407-2.5311-8.1331-5.2363-11.3625-8.273" fill="none" stroke="#fff"/>
<path d="m388.7015,1006.7254v-2.3454c0-1.485 2.7161-1.3953 2.7161,0v2.3146" fill-rule="evenodd" stroke="#fff"/>
<path d="m396.342,1015.1073-10.8748,2.9139-7.9609-7.9609 2.9139-10.8748 10.8748-2.9139 7.9609,7.9608z" stroke="#fff" stroke-width="1.4113" transform="matrix(.68351,-.18364,.18314,.68535,-59.82549,395.01136)"/>
<path d="m396.342,1015.1073-10.8748,2.9139-7.9609-7.9609 2.9139-10.8748 10.8748-2.9139 7.9609,7.9608z" fill="none" stroke="#fff" stroke-width="2.2232" transform="matrix(.43256,-.11693,.1159,.43639,105.35578,619.84786)"/>
<path d="m390.1167,1009.2197-2e-05-2.7019m4e-05,14.9942-3e-05-2.6189" fill="none" stroke="#fff"/>
<path d="m394.2757,1011.6173 2.3434-1.351m-13.0047,7.4972 2.2715-1.3095" fill="none" stroke="#fff"/>
<path d="m394.2757,1016.4125 2.3434,1.3509m-13.0048-7.497 2.2715,1.3094" fill="none" stroke="#fff"/>
<path d="m396.342,1015.1073-10.8748,2.9139-7.9609-7.9609 2.9139-10.8748 10.8748-2.9139 7.9609,7.9608z" fill="#fff" stroke="#000" stroke-width="2.3615" transform="matrix(.3414,-.09237,.09148,.34473,165.36299,702.6199)"/>
<path d="m386.9293,1012.158 3.2323-1.8361-3.218,5.5527-.0143-3.7166z" fill-rule="evenodd"/>
<path d="m385.4674,1000.8334c0,.8642-.7006,1.5647-1.5648,1.5647s-1.5648-.7005-1.5648-1.5647 .7006-1.5648 1.5648-1.5648 1.5648.7006 1.5648,1.5648z" stroke="#fff" stroke-width="1.3488" transform="matrix(.74138,0,0,.74138,109.13381,260.42794)"/>
<path d="m385.4674,1000.8334c0,.8642-.7006,1.5647-1.5648,1.5647s-1.5648-.7005-1.5648-1.5647 .7006-1.5648 1.5648-1.5648 1.5648.7006 1.5648,1.5648z" stroke="#fff" stroke-width="1.3488" transform="matrix(.74138,0,0,.74138,112.42518,257.97291)"/>
<path d="m401.1052,996.6008c.4528.4528.4528,1.1878-1e-05,1.6406s-1.1878.4528-1.6406-3e-05-.4528-1.1878-2e-05-1.6405" stroke="#fff"/>
<path d="m385.4674,1000.8334c0,.8642-.7006,1.5647-1.5648,1.5647s-1.5648-.7005-1.5648-1.5647 .7006-1.5648 1.5648-1.5648 1.5648.7006 1.5648,1.5648z" stroke="#fff" stroke-width="1.3488" transform="matrix(-.74138,0,0,.74138,671.03069,260.42794)"/>
<path d="m385.4674,1000.8334c0,.8642-.7006,1.5647-1.5648,1.5647s-1.5648-.7005-1.5648-1.5647 .7006-1.5648 1.5648-1.5648 1.5648.7006 1.5648,1.5648z" stroke="#fff" stroke-width="1.3488" transform="matrix(-.74138,0,0,.74138,667.73932,257.97291)"/>
<path d="m380.5597,996.6008c.4528.4528.4528,1.1878-1e-05,1.6406s-1.1878.4528-1.6406-3e-05-.4528-1.1878-2e-05-1.6405" stroke="#fff"/>
<path d="m377.1065,996.5059h25.4482" fill="none" stroke="#000"/>
</g>
</svg>
