<svg viewBox="0 0 512 512" xmlns="http://www.w3.org/2000/svg">

<g transform="matrix(18.68858,0,0,18.68858,-11121.46955,-27902.40974)">
<path d="m405.9036,1442.5861h14.3977v14.3977h-14.3977z" fill="#fff" stroke="#fff" stroke-width="1.0253" transform="matrix(-.58804,.80883,.58804,.80883,0,0)"/>
<path d="m614.3774,1501.1788c-1.6513,0-1.6382-2.5009 0-2.5009s1.6513,2.5009 0,2.5009z" fill="#fff"/>
<path d="m405.9036,1445.05h11.9337v11.9337h-11.9337z" stroke="#fff" stroke-width="1.0253" transform="matrix(-.58804,.80883,.58804,.80883,0,0)"/>
<path d="m616.6821,1504.1738-10.2233,5.772" fill="none" stroke="#fff"/>
<path d="m609.8453,1498.7583 3.8263,14.263" fill="none" stroke="#fff"/>
<path d="m613.7087,1500.4914-3.7959,14.1681" fill="none" stroke="#fff"/>
<path d="m616.6418,1509.3351-10.0218-5.6499" fill="none" stroke="#fff"/>
<path d="m615.0235,1506.3276c0,1.749-1.4178,3.1668-3.1668,3.1668s-3.1668-1.4178-3.1668-3.1668 1.4178-3.1667 3.1668-3.1667 3.1668,1.4178 3.1668,3.1667z" stroke="#fff" stroke-width="1.1036" transform="matrix(-.79223,0,0,1.03645,1096.8212,-54.56575)"/>
<path d="m602.0084,1501.3278c-1.6513,0-1.6382-2.5009 0-2.5009s1.6513,2.5009 0,2.5009z" fill="#fff"/>
<path d="m600.1907,1499.7557c-1.6513,0-1.6382-2.5009 0-2.5009s1.6513,2.5009 0,2.5009z" fill="#fff"/>
<path d="m598.6431,1497.9625c-1.6513,0-1.6382-2.5009 0-2.5009s1.6513,2.5009 0,2.5009z" fill="#fff"/>
<path d="m597.6606,1495.7517c-1.6513,0-1.6382-2.5009 0-2.5009s1.6513,2.5009 0,2.5009z" fill="#fff"/>
<path d="m615.9076,1499.7557c1.6513,0 1.6382-2.5009 0-2.5009s-1.6513,2.5009 0,2.5009z" fill="#fff"/>
<path d="m617.4551,1497.9625c1.6513,0 1.6382-2.5009 0-2.5009s-1.6513,2.5009 0,2.5009z" fill="#fff"/>
<path d="m618.4377,1495.7517c1.6513,0 1.6382-2.5009 0-2.5009s-1.6513,2.5009 0,2.5009z" fill="#fff"/>
<path d="m603.777,1502.7034c1.6513,0 1.6382-2.5009 0-2.5009s-1.6513,2.5009 0,2.5009z" fill="#fff"/>
<path d="m595.7439,1493.5193h25.3956" fill="none" stroke="#000"/>
</g>
</svg>
