<svg viewBox="0 0 512 512" xmlns="http://www.w3.org/2000/svg">

<g transform="matrix(18.68858,0,0,18.68858,-4994.2525,-19082.89166)">
<path d="m287.0312,1022.2813c-1.6782.04-3.5068.8243-5.1875,2.5312-4.7229,4.7966-8.246,9.16-13,9.3125 1.2654.9743 2.9369,1.6706 4.5625,1.9688-1.3043,1.5657-2.7227,2.5488-5,3.4687 2.0288.4882 3.9829.3482 5.875-.125-1.4603,1.8381-3.3233,3.5235-5.75,5.125 3.2306-.021 7.2895-.6486 9.7188-2.5625-.2591,1.6422-.866,3.4838-2.3125,5.375 3.7851-1.0022 6.2664-2.267 7.8438-4.4687 .1555,1.4721-.0504,2.4131-.5938,4.3125 4.174-3.5477 8.073-8.8177 9.7812-14.5 1.7684-5.8825-1.6487-10.5405-5.9375-10.4375z" fill="#fff" fill-rule="evenodd"/>
<path d="m289.3957,1029.9408c0,1.18-.9566,2.1367-2.1367,2.1367s-2.1367-.9567-2.1367-2.1367 .9566-2.1367 2.1367-2.1367 2.1367.9567 2.1367,2.1367z" transform="matrix(.70886,0,0,.70886,87.06726,299.55869)"/>
<path d="m289.3957,1029.9408c0,1.18-.9566,2.1367-2.1367,2.1367s-2.1367-.9567-2.1367-2.1367 .9566-2.1367 2.1367-2.1367 2.1367.9567 2.1367,2.1367z" transform="matrix(.70886,0,0,.70886,83.46194,297.6917)"/>
<path d="m287.7729,1027.1415c0,.3659-.2967.6626-.6626.6626s-.6626-.2967-.6626-.6626 .2967-.6627.6626-.6627 .6626.2967.6626.6627z" fill="#fff" transform="matrix(1.16327,0,0,1.16327,-46.0367,-167.56134)"/>
<path d="m287.7729,1027.1415c0,.3659-.2967.6626-.6626.6626s-.6626-.2967-.6626-.6626 .2967-.6627.6626-.6627 .6626.2967.6626.6627z" fill="#fff" transform="matrix(1.16327,0,0,1.16327,-42.38545,-165.83037)"/>
<path d="m1170.0258-207.1948h2.9615v3.0718h-2.9615z" transform="matrix(.10781,.99417,-.7654,.64355,0,0)"/>
<path d="m1172.4575-209.2773h2.9615v3.0718h-2.9615z" transform="matrix(.10781,.99417,-.7654,.64355,0,0)"/>
<path d="m1174.7469-211.4676h2.9615v3.0718h-2.9615z" transform="matrix(.10781,.99417,-.7654,.64355,0,0)"/>
<path d="m1176.8872-213.5876h2.9615v3.0718h-2.9615z" transform="matrix(.10781,.99417,-.7654,.64355,0,0)"/>
</g>
</svg>
