<svg viewBox="0 0 512 512" xmlns="http://www.w3.org/2000/svg">

<g transform="matrix(18.68858,0,0,18.68858,-4994.2525,-19082.89166)">
<path d="m 287.031 1022.28 c -1.6782 0.04 -3.5068 0.8243 -5.1875 2.5312 -4.7229 4.7966 -8.246 9.16 -13 9.3125 1.2654 0.9743 2.9369 1.6706 4.5625 1.9688 -1.3043 1.5657 -2.7227 2.5488 -5 3.4687 2.0288 0.4882 3.9829 0.3482 5.875 -0.125 -1.4603 1.8381 -3.3233 3.5235 -5.75 5.125 3.2306 -0.021 7.2895 -0.6486 9.7188 -2.5625 -0.2591 1.6422 -0.866 3.4838 -2.3125 5.375 3.7851 -1.0022 6.2664 -2.267 7.8438 -4.4687 0.1555 1.4721 -0.0504 2.4131 -0.5938 4.3125 4.174 -3.5477 8.073 -8.8177 9.7812 -14.5 1.7684 -5.8825 -1.6487 -10.5405 -5.9375 -10.4375 z" fill="#fff" fill-rule="evenodd"/>
<path d="m 289.396 1029.94 c 0 1.18 -0.9566 2.1367 -2.1367 2.1367 s -2.1367 -0.9567 -2.1367 -2.1367 0.9566 -2.1367 2.1367 -2.1367 2.1367 0.9567 2.1367 2.1367 z" transform="matrix(.70886,0,0,.70886,87.06726,299.55869)"/>
<path d="m 289.396 1029.94 c 0 1.18 -0.9566 2.1367 -2.1367 2.1367 s -2.1367 -0.9567 -2.1367 -2.1367 0.9566 -2.1367 2.1367 -2.1367 2.1367 0.9567 2.1367 2.1367 z" transform="matrix(.70886,0,0,.70886,83.46194,297.6917)"/>
<path d="m 287.773 1027.14 c 0 0.3659 -0.2967 0.6626 -0.6626 0.6626 s -0.6626 -0.2967 -0.6626 -0.6626 0.2967 -0.6627 0.6626 -0.6627 0.6626 0.2967 0.6626 0.6627 z" fill="#fff" transform="matrix(1.16327,0,0,1.16327,-46.0367,-167.56134)"/>
<path d="m 287.773 1027.14 c 0 0.3659 -0.2967 0.6626 -0.6626 0.6626 s -0.6626 -0.2967 -0.6626 -0.6626 0.2967 -0.6627 0.6626 -0.6627 0.6626 0.2967 0.6626 0.6627 z" fill="#fff" transform="matrix(1.16327,0,0,1.16327,-42.38545,-165.83037)"/>
<path d="m 1170.03 -207.195 h 2.9615 v 3.0718 h -2.9615 z" transform="matrix(.10781,.99417,-.7654,.64355,0,0)"/>
<path d="m 1172.46 -209.277 h 2.9615 v 3.0718 h -2.9615 z" transform="matrix(.10781,.99417,-.7654,.64355,0,0)"/>
<path d="m 1174.75 -211.468 h 2.9615 v 3.0718 h -2.9615 z" transform="matrix(.10781,.99417,-.7654,.64355,0,0)"/>
<path d="m 1176.89 -213.588 h 2.9615 v 3.0718 h -2.9615 z" transform="matrix(.10781,.99417,-.7654,.64355,0,0)"/>
</g>
</svg>
