<svg viewBox="0 0 512 512" xmlns="http://www.w3.org/2000/svg">

<g transform="matrix(18.68858,0,0,18.68858,-211.03163,-14161.2364)">
<g transform="translate(-505.3301,-42.9121)">
<path d="m 521.013 801.889 v 2.9679 h 14.6858 v 22.1772 h 4.7246 v -25.1451 h -19.4104 z" fill="#fff"/>
<path d="m 528.71 803.794 7.8739 7.8658 1.6423 -1.6406 -7.8739 -7.8658 -1.6424 1.6406 z" fill="#fff"/>
<path d="m 523.475 804.27 v 9.2409" fill="none" stroke="#fff"/>
<path d="m 525.405 817.467 c 0 1.477 -0.8873 2.6757 -1.9806 2.6757 s -1.9806 -1.1987 -1.9806 -2.6757 1.3034 -3.841 1.9806 -5.0128 c 0.6153 1.0647 1.9806 3.5358 1.9806 5.0128 z" stroke="#fff"/>
</g>
<path d="m 13.875 762.175 5.8125 -3.375 -5.8125 3.375 z" fill="#fff" fill-rule="evenodd"/>
<path d="m 16.2524 762.437 h 4.5962" fill="none" stroke="#000"/>
</g>
</svg>
