<svg viewBox="0 0 512 512" xmlns="http://www.w3.org/2000/svg">

<g transform="matrix(18.68858,0,0,18.68858,-211.03163,-14161.2364)">
<g transform="translate(-505.3301,-42.9121)">
<path d="m521.0129,801.8892v2.9679h14.6858v22.1772h4.7246v-25.1451h-19.4104z" fill="#fff"/>
<path d="m528.7095,803.7941 7.8739,7.8658 1.6423-1.6406-7.8739-7.8658-1.6424,1.6406z" fill="#fff"/>
<path d="m523.4754,804.2699v9.2409" fill="none" stroke="#fff"/>
<path d="m525.4054,817.4666c0,1.477-.8873,2.6757-1.9806,2.6757s-1.9806-1.1987-1.9806-2.6757 1.3034-3.841 1.9806-5.0128c.6153,1.0647 1.9806,3.5358 1.9806,5.0128z" stroke="#fff"/>
</g>
<path d="m13.875,762.1747 5.8125-3.375-5.8125,3.375z" fill="#fff" fill-rule="evenodd"/>
<path d="m16.2524,762.4373h4.5962" fill="none" stroke="#000"/>
</g>
</svg>
