<svg viewBox="0 0 512 512" xmlns="http://www.w3.org/2000/svg">

<g transform="matrix(18.68858,0,0,18.68858,-1597.3091,-43544.601)">
<g transform="translate(-36.3963,185.7597)">
<path d="m143.5585,2151.8391c-.0149-.013-.0299.01-.0435.01-1.3538-.098-2.5538-.01-3.3324.1963 .9818-.7805 2.7755-1.2878 5.4211-1.1762-1.7067-1.1881-3.3355-1.817-6.3107-.9028-1.1986.3683-2.0371,1.4912-1.9175,2.6917 .0867.8743.8123,1.8259 1.6518,2.4403 2.471,1.8078 3.6208,3.7224 3.9787,5.2539 .2166-1.7994-.0367-3.5199-1.1393-5.3149 1.7415,1.0527 3.0242,2.3428 3.5806,3.3514-.256-1.7541-.8989-3.3207-2.3724-4.743 1.9297.577 3.4671,1.502 4.2389,2.3254-.7262-1.7-1.8293-3.1183-3.7555-4.128z" fill="#fff"/>
<path d="m142.8386,2160.5478-.4322-2.773" fill="none" stroke="#fff"/>
<path d="m145.8574,2159.3001-1.6041-3.1689" fill="none" stroke="#fff"/>
<path d="m147.8844,2156.6677-2.1667-2.4556" fill="none" stroke="#fff"/>
<path d="m146.3548,2151.4225-2.6176-1.0121" fill="none" stroke="#fff"/>
<path d="m127.5794,2151.8391c.0149-.013.0299.01.0435.01 1.3538-.098 2.5538-.01 3.3324.1963-.9818-.7805-2.7755-1.2878-5.4211-1.1762 1.7067-1.1881 3.3355-1.817 6.3107-.9028 1.1986.3683 2.0371,1.4912 1.9175,2.6917-.0867.8743-.8123,1.8259-1.6518,2.4403-2.471,1.8078-3.6208,3.7224-3.9787,5.2539-.2166-1.7994.0367-3.5199 1.1393-5.3149-1.7415,1.0527-3.0242,2.3428-3.5806,3.3514 .256-1.7541.8989-3.3207 2.3724-4.743-1.9297.577-3.4671,1.502-4.2389,2.3254 .7262-1.7 1.8293-3.1183 3.7555-4.128z" fill="#fff"/>
<path d="m128.2993,2160.5478 .4322-2.773" fill="none" stroke="#fff"/>
<path d="m125.2806,2159.3001 1.6041-3.1689" fill="none" stroke="#fff"/>
<path d="m123.2535,2156.6677 2.1667-2.4556" fill="none" stroke="#fff"/>
<path d="m124.7832,2151.4225 2.6176-1.0121" fill="none" stroke="#fff"/>
</g>
<path d="m105.1116,2348.6603c-.2752,2.597-1.4776,5.1321-3.7406,5.6322-.5791.1283-1.6858-.1387-2.1581-1.053-.3407.9428-1.4952,1.2186-2.076,1.1026-2.2693-.4533-3.6724-2.9478-3.6898-5.5595s1.8103-5.1682 4.0797-4.1786c.5411.236 1.1325.6282 1.6341.9765 .4966-.3587 1.0979-.741 1.6242-1.0103 2.5197-1.2888 4.5675,1.8161 4.3266,4.0901z" fill="#fff"/>
<path d="m99.1894,2341.4213-1.5984.8607c1.193,1.274 1.2073,2.6691 1.0451,3.7503l.9837.092c.3502-1.5875.143-3.377-.4304-4.7032z" fill="#fff"/>
</g>
</svg>
