<svg viewBox="0 0 512 512" xmlns="http://www.w3.org/2000/svg">

<g transform="matrix(18.68858,0,0,18.68858,-2276.85083,-40153.2096)">
<g transform="translate(-400.5956,38.9111)">
<path d="m 548.896 2133.02 -1.3266 -8.4653 -11.3552 0.885 -11.3552 -0.885 -1.3266 8.4653 12.6818 0.8466 z" fill="#fff"/>
<path d="m 538.892 2121.75 c -0.807 0 -1.695 0.3954 -2.6741 1.5517 -1.0028 -1.1802 -1.733 -1.2834 -2.6411 -1.2855 -2.4515 -0.011 -4.0005 3.7521 -7.1086 0.8562 l -1.2078 7.9921 c 3.5533 3.7737 7.0537 -3.8762 10.9904 0.6575 4.9191 -4.7681 9.0771 2.9162 10.8996 -1.1251 l -1.2656 -7.9537 c -3.1081 2.8959 -4.5414 -0.6991 -6.9929 -0.6932 z" fill="#fff" stroke="#000"/>
<path d="m 536.241 2123.03 v 8.0106" fill="none" stroke="#000"/>
<path d="m 526.978 2131.89 9.2359 0.6397 9.7458 -0.9429" fill="none" stroke="#000"/>
</g>
<path d="m 133.365 2172.45 h 4.4717 v 1.195 h -4.4717 z" fill="#fff"/>
<path d="m 143.559 2151.84 c -0.0149 -0.013 -0.0299 0.01 -0.0435 0.01 -1.3538 -0.098 -2.5538 -0.01 -3.3324 0.1963 0.9818 -0.7805 2.7755 -1.2878 5.4211 -1.1762 -1.7067 -1.1881 -3.3355 -1.817 -6.3107 -0.9028 -1.1986 0.3683 -2.0371 1.4912 -1.9175 2.6917 0.0867 0.8743 0.8123 1.8259 1.6518 2.4403 2.471 1.8078 3.6208 3.7224 3.9787 5.2539 0.2166 -1.7994 -0.0367 -3.5199 -1.1393 -5.3149 1.7415 1.0527 3.0242 2.3428 3.5806 3.3514 -0.256 -1.7541 -0.8989 -3.3207 -2.3724 -4.743 1.9297 0.577 3.4671 1.502 4.2389 2.3254 -0.7262 -1.7 -1.8293 -3.1183 -3.7555 -4.128 z" fill="#fff"/>
<path d="m 142.839 2160.55 -0.4322 -2.773" fill="none" stroke="#fff"/>
<path d="m 145.857 2159.3 -1.6041 -3.1689" fill="none" stroke="#fff"/>
<path d="m 147.884 2156.67 -2.1667 -2.4556" fill="none" stroke="#fff"/>
<path d="m 146.355 2151.42 -2.6176 -1.0121" fill="none" stroke="#fff"/>
<path d="m 127.579 2151.84 c 0.0149 -0.013 0.0299 0.01 0.0435 0.01 1.3538 -0.098 2.5538 -0.01 3.3324 0.1963 -0.9818 -0.7805 -2.7755 -1.2878 -5.4211 -1.1762 1.7067 -1.1881 3.3355 -1.817 6.3107 -0.9028 1.1986 0.3683 2.0371 1.4912 1.9175 2.6917 -0.0867 0.8743 -0.8123 1.8259 -1.6518 2.4403 -2.471 1.8078 -3.6208 3.7224 -3.9787 5.2539 -0.2166 -1.7994 0.0367 -3.5199 1.1393 -5.3149 -1.7415 1.0527 -3.0242 2.3428 -3.5806 3.3514 0.256 -1.7541 0.8989 -3.3207 2.3724 -4.743 -1.9297 0.577 -3.4671 1.502 -4.2389 2.3254 0.7262 -1.7 1.8293 -3.1183 3.7555 -4.128 z" fill="#fff"/>
<path d="m 128.299 2160.55 0.4322 -2.773" fill="none" stroke="#fff"/>
<path d="m 125.281 2159.3 1.6041 -3.1689" fill="none" stroke="#fff"/>
<path d="m 123.254 2156.67 2.1667 -2.4556" fill="none" stroke="#fff"/>
<path d="m 124.783 2151.42 2.6176 -1.0121" fill="none" stroke="#fff"/>
</g>
</svg>
