<svg viewBox="0 0 512 512" xmlns="http://www.w3.org/2000/svg">

<g transform="matrix(18.68858,0,0,18.68858,-1597.3091,-43544.601)">
<g transform="translate(-36.3963,185.7597)">
<path d="m 143.559 2151.84 c -0.0149 -0.013 -0.0299 0.01 -0.0435 0.01 -1.3538 -0.098 -2.5538 -0.01 -3.3324 0.1963 0.9818 -0.7805 2.7755 -1.2878 5.4211 -1.1762 -1.7067 -1.1881 -3.3355 -1.817 -6.3107 -0.9028 -1.1986 0.3683 -2.0371 1.4912 -1.9175 2.6917 0.0867 0.8743 0.8123 1.8259 1.6518 2.4403 2.471 1.8078 3.6208 3.7224 3.9787 5.2539 0.2166 -1.7994 -0.0367 -3.5199 -1.1393 -5.3149 1.7415 1.0527 3.0242 2.3428 3.5806 3.3514 -0.256 -1.7541 -0.8989 -3.3207 -2.3724 -4.743 1.9297 0.577 3.4671 1.502 4.2389 2.3254 -0.7262 -1.7 -1.8293 -3.1183 -3.7555 -4.128 z" fill="#fff"/>
<path d="m 142.839 2160.55 -0.4322 -2.773" fill="none" stroke="#fff"/>
<path d="m 145.857 2159.3 -1.6041 -3.1689" fill="none" stroke="#fff"/>
<path d="m 147.884 2156.67 -2.1667 -2.4556" fill="none" stroke="#fff"/>
<path d="m 146.355 2151.42 -2.6176 -1.0121" fill="none" stroke="#fff"/>
<path d="m 127.579 2151.84 c 0.0149 -0.013 0.0299 0.01 0.0435 0.01 1.3538 -0.098 2.5538 -0.01 3.3324 0.1963 -0.9818 -0.7805 -2.7755 -1.2878 -5.4211 -1.1762 1.7067 -1.1881 3.3355 -1.817 6.3107 -0.9028 1.1986 0.3683 2.0371 1.4912 1.9175 2.6917 -0.0867 0.8743 -0.8123 1.8259 -1.6518 2.4403 -2.471 1.8078 -3.6208 3.7224 -3.9787 5.2539 -0.2166 -1.7994 0.0367 -3.5199 1.1393 -5.3149 -1.7415 1.0527 -3.0242 2.3428 -3.5806 3.3514 0.256 -1.7541 0.8989 -3.3207 2.3724 -4.743 -1.9297 0.577 -3.4671 1.502 -4.2389 2.3254 0.7262 -1.7 1.8293 -3.1183 3.7555 -4.128 z" fill="#fff"/>
<path d="m 128.299 2160.55 0.4322 -2.773" fill="none" stroke="#fff"/>
<path d="m 125.281 2159.3 1.6041 -3.1689" fill="none" stroke="#fff"/>
<path d="m 123.254 2156.67 2.1667 -2.4556" fill="none" stroke="#fff"/>
<path d="m 124.783 2151.42 2.6176 -1.0121" fill="none" stroke="#fff"/>
</g>
<path d="m 105.112 2348.66 c -0.2752 2.597 -1.4776 5.1321 -3.7406 5.6322 -0.5791 0.1283 -1.6858 -0.1387 -2.1581 -1.053 -0.3407 0.9428 -1.4952 1.2186 -2.076 1.1026 -2.2693 -0.4533 -3.6724 -2.9478 -3.6898 -5.5595 s 1.8103 -5.1682 4.0797 -4.1786 c 0.5411 0.236 1.1325 0.6282 1.6341 0.9765 0.4966 -0.3587 1.0979 -0.741 1.6242 -1.0103 2.5197 -1.2888 4.5675 1.8161 4.3266 4.0901 z" fill="#fff"/>
<path d="m 99.1894 2341.42 -1.5984 0.8607 c 1.193 1.274 1.2073 2.6691 1.0451 3.7503 l 0.9837 0.092 c 0.3502 -1.5875 0.143 -3.377 -0.4304 -4.7032 z" fill="#fff"/>
</g>
</svg>
