<svg viewBox="0 0 512 512" xmlns="http://www.w3.org/2000/svg">

<g transform="matrix(18.68858,0,0,18.68858,-2276.85083,-40153.2096)">
<g transform="translate(-400.5956,38.9111)">
<path d="m548.8958,2133.0192-1.3266-8.4653-11.3552.885-11.3552-.885-1.3266,8.4653 12.6818.8466z" fill="#fff"/>
<path d="m538.8919,2121.75c-.807,0-1.695.3954-2.6741,1.5517-1.0028-1.1802-1.733-1.2834-2.6411-1.2855-2.4515-.011-4.0005,3.7521-7.1086.8562l-1.2078,7.9921c3.5533,3.7737 7.0537-3.8762 10.9904.6575 4.9191-4.7681 9.0771,2.9162 10.8996-1.1251l-1.2656-7.9537c-3.1081,2.8959-4.5414-.6991-6.9929-.6932z" fill="#fff" stroke="#000"/>
<path d="m536.2409,2123.0322v8.0106" fill="none" stroke="#000"/>
<path d="m526.9781,2131.8917 9.2359.6397 9.7458-.9429" fill="none" stroke="#000"/>
</g>
<path d="m133.3648,2172.4478h4.4717v1.195h-4.4717z" fill="#fff"/>
<path d="m143.5585,2151.8391c-.0149-.013-.0299.01-.0435.01-1.3538-.098-2.5538-.01-3.3324.1963 .9818-.7805 2.7755-1.2878 5.4211-1.1762-1.7067-1.1881-3.3355-1.817-6.3107-.9028-1.1986.3683-2.0371,1.4912-1.9175,2.6917 .0867.8743.8123,1.8259 1.6518,2.4403 2.471,1.8078 3.6208,3.7224 3.9787,5.2539 .2166-1.7994-.0367-3.5199-1.1393-5.3149 1.7415,1.0527 3.0242,2.3428 3.5806,3.3514-.256-1.7541-.8989-3.3207-2.3724-4.743 1.9297.577 3.4671,1.502 4.2389,2.3254-.7262-1.7-1.8293-3.1183-3.7555-4.128z" fill="#fff"/>
<path d="m142.8386,2160.5478-.4322-2.773" fill="none" stroke="#fff"/>
<path d="m145.8574,2159.3001-1.6041-3.1689" fill="none" stroke="#fff"/>
<path d="m147.8844,2156.6677-2.1667-2.4556" fill="none" stroke="#fff"/>
<path d="m146.3548,2151.4225-2.6176-1.0121" fill="none" stroke="#fff"/>
<path d="m127.5794,2151.8391c.0149-.013.0299.01.0435.01 1.3538-.098 2.5538-.01 3.3324.1963-.9818-.7805-2.7755-1.2878-5.4211-1.1762 1.7067-1.1881 3.3355-1.817 6.3107-.9028 1.1986.3683 2.0371,1.4912 1.9175,2.6917-.0867.8743-.8123,1.8259-1.6518,2.4403-2.471,1.8078-3.6208,3.7224-3.9787,5.2539-.2166-1.7994.0367-3.5199 1.1393-5.3149-1.7415,1.0527-3.0242,2.3428-3.5806,3.3514 .256-1.7541.8989-3.3207 2.3724-4.743-1.9297.577-3.4671,1.502-4.2389,2.3254 .7262-1.7 1.8293-3.1183 3.7555-4.128z" fill="#fff"/>
<path d="m128.2993,2160.5478 .4322-2.773" fill="none" stroke="#fff"/>
<path d="m125.2806,2159.3001 1.6041-3.1689" fill="none" stroke="#fff"/>
<path d="m123.2535,2156.6677 2.1667-2.4556" fill="none" stroke="#fff"/>
<path d="m124.7832,2151.4225 2.6176-1.0121" fill="none" stroke="#fff"/>
</g>
</svg>
