<svg viewBox="0 0 512 512" xmlns="http://www.w3.org/2000/svg">

<g transform="matrix(18.68858,0,0,18.68858,-5680.95325,-41513.91203)">
<path d="m317.4956,2246.9246c-3.9638,0-7.1771-.9166-7.2057-1.986l-1.7589-18.1718h18.2799l-2.099,18.1718c-.0391,1.0694-3.2524,1.986-7.2162,1.986z" stroke="#fff"/>
<path d="m310.1938,2239.4082c1.2036,4.471 13.5868,4.273 14.7372,0l-.604,6.3839-7.105,1.2406-6.5209-1.2406z" fill="#fff"/>
<path d="m320.238,2233.6179c0,1.1188-2.9991,2.0258-6.6986,2.0258s-6.6986-.907-6.6986-2.0258 2.9991-2.0258 6.6986-2.0258 6.6986.907 6.6986,2.0258z" stroke="#fff" stroke-width=".7292" transform="matrix(1.37796,0,0,1.36464,-114.3376,-822.00262)"/>
<path d="m321.9639,2242.7534 .7664-14.6402 2.277-.3241-1.4147,14.9643z" fill="#fff"/>
<path d="m318.1959,2243.1714c0,.4641-2.2489.8404-5.0231.8404s-5.0231-.3763-5.0231-.8404 2.2489-.8404 5.0231-.8404 5.0231.3763 5.0231.8404z" fill="#fff" transform="matrix(1.63622,0,0,2.44281,-194.83322,-3244.9923)"/>
</g>
</svg>
