<svg viewBox="0 0 512 512" xmlns="http://www.w3.org/2000/svg">

<g transform="matrix(18.68858,0,0,18.68858,-5680.95325,-41513.91203)">
<path d="m 317.496 2246.92 c -3.9638 0 -7.1771 -0.9166 -7.2057 -1.986 l -1.7589 -18.1718 h 18.2799 l -2.099 18.1718 c -0.0391 1.0694 -3.2524 1.986 -7.2162 1.986 z" stroke="#fff"/>
<path d="m 310.194 2239.41 c 1.2036 4.471 13.5868 4.273 14.7372 0 l -0.604 6.3839 -7.105 1.2406 -6.5209 -1.2406 z" fill="#fff"/>
<path d="m 320.238 2233.62 c 0 1.1188 -2.9991 2.0258 -6.6986 2.0258 s -6.6986 -0.907 -6.6986 -2.0258 2.9991 -2.0258 6.6986 -2.0258 6.6986 0.907 6.6986 2.0258 z" stroke="#fff" stroke-width=".7292" transform="matrix(1.37796,0,0,1.36464,-114.3376,-822.00262)"/>
<path d="m 321.964 2242.75 0.7664 -14.6402 2.277 -0.3241 -1.4147 14.9643 z" fill="#fff"/>
<path d="m 318.196 2243.17 c 0 0.4641 -2.2489 0.8404 -5.0231 0.8404 s -5.0231 -0.3763 -5.0231 -0.8404 2.2489 -0.8404 5.0231 -0.8404 5.0231 0.3763 5.0231 0.8404 z" fill="#fff" transform="matrix(1.63622,0,0,2.44281,-194.83322,-3244.9923)"/>
</g>
</svg>
