<svg viewBox="0 0 512 512" xmlns="http://www.w3.org/2000/svg">

<g transform="matrix(18.68858,0,0,18.68858,-4019.05711,-4111.44312)">
<path d="m239.7851,232.0625c-2.0436,4.353-7.6968,6.8456-10.7812,12.0625-3.0463-5.1523-8.3177-7.9128-10.5312-12.0625h21.3125z" fill="#fff" stroke="#000"/>
<path d="m241.3962,228.4338c.231,7.692-8.2346,10.1443-12.3761,17.3176-4.1455-7.1804-12.1917-10.088-12.4126-17.3176-.2355-7.7074 8.9403-9.1868 12.4126-2.9315 3.4784-6.8284 12.1594-4.2843 12.3761,2.9315z" fill="none" stroke="#fff"/>
<path d="m226.8929,225.2682c0,.9031-1.4642,1.6352-3.2704,1.6352s-3.2704-.7321-3.2704-1.6352 1.4642-1.6352 3.2704-1.6352 3.2704.7321 3.2704,1.6352z" fill="#fff" stroke="#000" stroke-width=".7214" transform="matrix(-1.14908,-.57202,-.3079,1.35457,562.58103,48.31941)"/>
<path d="m226.8929,225.2682c0,.9031-1.4642,1.6352-3.2704,1.6352s-3.2704-.7321-3.2704-1.6352 1.4642-1.6352 3.2704-1.6352 3.2704.7321 3.2704,1.6352z" fill="#fff" stroke="#000" stroke-width=".8895" transform="matrix(-.93568,-.46205,-.25071,1.09416,490.36834,81.83296)"/>
<path d="m239.25,231.8621c0,1.1736-4.729,2.125-10.5625,2.125s-10.5625-.9514-10.5625-2.125 4.729-2.125 10.5625-2.125 10.5625.9514 10.5625,2.125z" fill="#fff" stroke="#000" stroke-width=".9932" transform="matrix(-1.00857,0,0,1.0051,459.7806,-1.33137)"/>
</g>
</svg>
