<svg viewBox="0 0 512 512" xmlns="http://www.w3.org/2000/svg">

<g transform="matrix(18.68858,0,0,18.68858,-7717.46989,-18614.88161)">
<path d="m433.268,1009.2872c0,3.6453-2.9552,6.6005-6.6005,6.6005s-6.6005-2.9552-6.6005-6.6005 2.9552-6.6005 6.6005-6.6005 6.6005,2.9551 6.6005,6.6005z" fill="#fff" transform="matrix(1.65284,0,0,1.65232,-279.0482,-660.38657)"/>
<g stroke="#000" transform="matrix(.99232,.12372,-.12372,.99232,127.47021,-45.042)">
<path d="m420.522,1014.2907 12.1613-14.041" fill="none" stroke="#000"/>
<path d="m418.9122,1012.4777 15.381-10.415" fill="none" stroke="#000"/>
<path d="m417.8264,1010.3098 17.5525-6.0792" fill="none" stroke="#000"/>
<path d="m417.3388,1007.9348 18.5278-1.3292" fill="none" stroke="#000"/>
<path d="m417.4824,1005.5145 18.2405,3.5114" fill="none" stroke="#000"/>
<path d="m418.2476,1003.2138 16.7102,8.1128" fill="none" stroke="#000"/>
<path d="m419.5822,1001.1896 14.041,12.1612" fill="none" stroke="#000"/>
<path d="m421.3951,999.5797 10.415,15.381" fill="none" stroke="#000"/>
<path d="m423.563,998.494 6.0793,17.5525" fill="none" stroke="#000"/>
<path d="m425.9381,998.0063 1.3292,18.5279" fill="none" stroke="#000"/>
<path d="m428.3584,998.15-3.5115,18.2406" fill="none" stroke="#000"/>
<path d="m430.6591,998.9152-8.1128,16.7102" fill="none" stroke="#000"/>
</g>
<path d="m433.268,1009.2872c0,3.6453-2.9552,6.6005-6.6005,6.6005s-6.6005-2.9552-6.6005-6.6005 2.9552-6.6005 6.6005-6.6005 6.6005,2.9551 6.6005,6.6005z" transform="matrix(1.28338,0,0,1.28298,-121.41253,-287.61449)"/>
<path d="m417.9185,1016.7727 16.4914-18.9895" fill="none" stroke="#fff"/>
<path d="m420.874,1006.1245c1.7467-3.1996 5.7565-4.3775 8.9561-2.6308 1.834,1.0011 3.0856,2.8115 3.3745,4.8809l-6.5371.9126z" transform="matrix(.84173,-1.45747,1.45792,.84147,-1404.4944,779.7692)"/>
<path d="m433.268,1009.2872c0,3.6453-2.9552,6.6005-6.6005,6.6005s-6.6005-2.9552-6.6005-6.6005 2.9552-6.6005 6.6005-6.6005 6.6005,2.9551 6.6005,6.6005z" fill="#fff" stroke="#000" stroke-width="1.2014" transform="matrix(.95281,0,0,.95251,19.62995,45.91838)"/>
<path d="m427.3587,1018.8336c-2.341.8268-3.9507,2.1422-5.2428,3.5962h10.5702c-1.2273-1.517-2.8527-2.6964-5.3274-3.5962z" fill="#fff"/>
<path d="m426.3834,1017.1669h1.98v2.7316h-1.98z" fill="#fff"/>
<path d="m427.6228,1011.629c-1.8428-.1822-3.6517-.4888-5.2811-1.4535-.6513-1.1143-1.0224-2.2287-1.0659-3.343 .8883-.4026 1.7765-.264 2.6648.048 .4934-.6137.4915-1.1195.4845-1.8411 .9429.6721 1.734,1.6848 2.0349,2.8101-.5921.4953-.9046,1.1304-1.0659,1.8411 .9074.4404 1.6078,1.1395 2.2287,1.938z" fill-rule="evenodd"/>
<path d="m427.0636,1008.3374c.5849.636 1.2711.9888 2.1747,1.0683 1.4634-1.3975 2.16-2.6603 2.7694-4.4137l-1.676-1.9652c-.336.3946-.9197,1.0284-1.3986.923-.4856-.6968-.8974-1.0896-1.5643-1.3353 .1714,1.5134.4723,3.0268 1.1446,4.5402-.7494.2612-1.1262.7086-1.4498,1.1827z" fill-rule="evenodd"/>
</g>
</svg>
