<svg viewBox="0 0 512 512" xmlns="http://www.w3.org/2000/svg">

<g transform="matrix(18.68858,0,0,18.68858,-7717.46989,-18614.88161)">
<path d="m 433.268 1009.29 c 0 3.6453 -2.9552 6.6005 -6.6005 6.6005 s -6.6005 -2.9552 -6.6005 -6.6005 2.9552 -6.6005 6.6005 -6.6005 6.6005 2.9551 6.6005 6.6005 z" fill="#fff" transform="matrix(1.65284,0,0,1.65232,-279.0482,-660.38657)"/>
<g stroke="#000" transform="matrix(.99232,.12372,-.12372,.99232,127.47021,-45.042)">
<path d="m 420.522 1014.29 12.1613 -14.041" fill="none" stroke="#000"/>
<path d="m 418.912 1012.48 15.381 -10.415" fill="none" stroke="#000"/>
<path d="m 417.826 1010.31 17.5525 -6.0792" fill="none" stroke="#000"/>
<path d="m 417.339 1007.93 18.5278 -1.3292" fill="none" stroke="#000"/>
<path d="m 417.482 1005.51 18.2405 3.5114" fill="none" stroke="#000"/>
<path d="m 418.248 1003.21 16.7102 8.1128" fill="none" stroke="#000"/>
<path d="m 419.582 1001.19 14.041 12.1612" fill="none" stroke="#000"/>
<path d="m 421.395 999.58 10.415 15.381" fill="none" stroke="#000"/>
<path d="m 423.563 998.494 6.0793 17.5525" fill="none" stroke="#000"/>
<path d="m 425.938 998.006 1.3292 18.5279" fill="none" stroke="#000"/>
<path d="m 428.358 998.15 -3.5115 18.2406" fill="none" stroke="#000"/>
<path d="m 430.659 998.915 -8.1128 16.7102" fill="none" stroke="#000"/>
</g>
<path d="m 433.268 1009.29 c 0 3.6453 -2.9552 6.6005 -6.6005 6.6005 s -6.6005 -2.9552 -6.6005 -6.6005 2.9552 -6.6005 6.6005 -6.6005 6.6005 2.9551 6.6005 6.6005 z" transform="matrix(1.28338,0,0,1.28298,-121.41253,-287.61449)"/>
<path d="m 417.918 1016.77 16.4914 -18.9895" fill="none" stroke="#fff"/>
<path d="m 420.874 1006.12 c 1.7467 -3.1996 5.7565 -4.3775 8.9561 -2.6308 1.834 1.0011 3.0856 2.8115 3.3745 4.8809 l -6.5371 0.9126 z" transform="matrix(.84173,-1.45747,1.45792,.84147,-1404.4944,779.7692)"/>
<path d="m 433.268 1009.29 c 0 3.6453 -2.9552 6.6005 -6.6005 6.6005 s -6.6005 -2.9552 -6.6005 -6.6005 2.9552 -6.6005 6.6005 -6.6005 6.6005 2.9551 6.6005 6.6005 z" fill="#fff" stroke="#000" stroke-width="1.2014" transform="matrix(.95281,0,0,.95251,19.62995,45.91838)"/>
<path d="m 427.359 1018.83 c -2.341 0.8268 -3.9507 2.1422 -5.2428 3.5962 h 10.5702 c -1.2273 -1.517 -2.8527 -2.6964 -5.3274 -3.5962 z" fill="#fff"/>
<path d="m 426.383 1017.17 h 1.98 v 2.7316 h -1.98 z" fill="#fff"/>
<path d="m 427.623 1011.63 c -1.8428 -0.1822 -3.6517 -0.4888 -5.2811 -1.4535 -0.6513 -1.1143 -1.0224 -2.2287 -1.0659 -3.343 0.8883 -0.4026 1.7765 -0.264 2.6648 0.048 0.4934 -0.6137 0.4915 -1.1195 0.4845 -1.8411 0.9429 0.6721 1.734 1.6848 2.0349 2.8101 -0.5921 0.4953 -0.9046 1.1304 -1.0659 1.8411 0.9074 0.4404 1.6078 1.1395 2.2287 1.938 z" fill-rule="evenodd"/>
<path d="m 427.064 1008.34 c 0.5849 0.636 1.2711 0.9888 2.1747 1.0683 1.4634 -1.3975 2.16 -2.6603 2.7694 -4.4137 l -1.676 -1.9652 c -0.336 0.3946 -0.9197 1.0284 -1.3986 0.923 -0.4856 -0.6968 -0.8974 -1.0896 -1.5643 -1.3353 0.1714 1.5134 0.4723 3.0268 1.1446 4.5402 -0.7494 0.2612 -1.1262 0.7086 -1.4498 1.1827 z" fill-rule="evenodd"/>
</g>
</svg>
