<svg viewBox="0 0 512 512" xmlns="http://www.w3.org/2000/svg">

<g transform="matrix(18.68858,0,0,18.68858,-10440.74949,-17932.91586)">
<path d="m583.6989,962.4278c-.3117.0124-.575.1002-.7145.2175-1.9872,1.6711 1.7106,4.681 1.2426,7.0827-.5618,2.8829-2.8536,1.7669-4.2869.1864-5.1047-5.6293-.2031.007-1.0251,3.9762-.5592,2.7002-4.2396,1.0369-5.9954.0932-2.4469-1.3151-5.0823-4.232-7.7971-3.7898-2.7459.4473-2.2016,3.0592-.4349,2.6405 2.4084-.5708 4.6266-.0603 4.846,3.1996 .1743,2.5899-1.4734,4.7542-4.4757,3.1617-.7153-.3794-1.4271-.7376-2.5473.1243-1.4211,1.0934-1.1336,2.7323-.1864,3.6035-.9164,1.025-2.2786.9044-2.8554,1.0009v2.1745h25.7212v-22.8012c-.3349-.6984-.9716-.8905-1.4911-.8698z" fill="#fff" fill-rule="evenodd"/>
<path d="m572.8731,977.1897c2.1161-1.5378 8.1817-1.5245 8.1172,1.9639-.056,3.0294-4.657-.054-6.015,1.8304-2.5983,3.6053-6.0873-.8981-2.1022-3.7942z" fill-rule="evenodd"/>
<path d="m581.5122,972.6177c2.7701-1.219 3.0554,2.3184 1.4226,2.9991-2.1353.8901-3.7278-1.9847-1.4226-2.9991z" fill-rule="evenodd"/>
<path d="m575.0408,963.7517c1.9652-1.5121 2.8194,1.6708 1.6543,2.5275-1.5237,1.1205-3.2897-1.2692-1.6543-2.5275z" fill="#fff" fill-rule="evenodd"/>
<path d="m561.4748,982.1602c1.6788,1.9876 5.3287,1.9195 8.4686,1.2126-2.3605,1.5844-6.8485,2.0877-9.1491.2033" fill-rule="evenodd"/>
<path d="m573.4827,960.9599c1.789.4416.8558,2.3445-.1872,2.065-1.3639-.3655-1.3015-2.4325.1872-2.065z" fill="#fff" fill-rule="evenodd"/>
<path d="m571.0009,980.135c.3915-3.7238 5.6498-2.8045 8.13-1.4001-1.6054-2.2757-5.3414-3.6678-8.2347-1.5665" fill="#fff" fill-rule="evenodd"/>
<path d="m576.5453,986.5616c3.9482-.7382 5.9211-3.8971 6.8634-7.0815 .905,1.8225-.1776,4.949-2.4057,7.1612" fill-rule="evenodd"/>
</g>
</svg>
