<svg viewBox="0 0 512 512" xmlns="http://www.w3.org/2000/svg">

<g transform="matrix(18.68858,0,0,18.68858,-12483.33814,-34037.10993)">
<path d="m2995.9695-3717.7549h12.9025v12.9025h-12.9025z" fill="#fff" transform="matrix(-.96192,.27333,-.96192,-.27333,0,0)"/>
<path d="m-2207.6777,287.0705h12.9025v12.9025h-12.9025z" fill="#fff" transform="matrix(-.27333,-.96192,.27333,-.96192,0,0)"/>
<path d="m-3685.9854,2825.3877h12.9025v12.9025h-12.9025z" fill="#fff" transform="matrix(.48691,-.87345,.87345,-.48691,0,0)"/>
<path d="m-2423.1877,560.0786h12.9025v12.9025h-12.9025z" fill="#fff" transform="matrix(-.48691,-.87345,-.87345,-.48691,0,0)"/>
<path d="m690.3719,1835.2504c0,4.3279-3.5085,7.8365-7.8365,7.8365s-7.8365-3.5086-7.8365-7.8365 3.5085-7.8365 7.8365-7.8365 7.8365,3.5085 7.8365,7.8365z" fill="#fff" transform="matrix(1.23544,0,0,1.23544,-161.24561,-432.16172)"/>
<path d="m684.9074,1841.3695 3.3893,7.0476" fill="none" stroke="#fff"/>
<path d="m688.7809,1833.6763 6.2944-2.3671" fill="none" stroke="#fff"/>
<path d="m676.8377,1840.1859-8.3874,7.9622" fill="none" stroke="#fff"/>
<path d="m677.8598,1829.48-4.0349-7.8007" fill="none" stroke="#fff"/>
<path d="m685.4454,1828.8345 5.0033-7.2628" fill="none" stroke="#fff"/>
<path d="m668.4652,1821.7767h26.4314v26.4314h-26.4314z" fill="none" stroke="#000"/>
<g transform="translate(.3043)">
<path d="m673.2765,1835.9118 4.1817,1.064" fill="none" stroke="#000"/>
<path d="m677.2963,1835.691-3.892-2.1403" fill="none" stroke="#000"/>
<path d="m674.8399,1831.6715 3.0956,3.072" fill="none" stroke="#000"/>
<path d="m677.1436,1830.4607 2.0255,4.1376" fill="none" stroke="#000"/>
<path d="m680.7496,1832.0834-.814,3.7911" fill="none" stroke="#000"/>
<path d="m676.1843,1836.9095c-.0109-1.7862 1.1712-3.4777 2.6658-3.5178 .5793.4952 1.0845.9271 1.848.9086-.23,4.0429-2.5732,3.8463-4.5152,2.6068z" fill-rule="evenodd"/>
<path d="m690.1067,1835.9118-4.1817,1.064" fill="none" stroke="#000"/>
<path d="m686.087,1835.691 3.892-2.1403" fill="none" stroke="#000"/>
<path d="m688.5434,1831.6715-3.0956,3.072" fill="none" stroke="#000"/>
<path d="m686.2397,1830.4607-2.0255,4.1376" fill="none" stroke="#000"/>
<path d="m682.6336,1832.0834 .871,3.8291" fill="none" stroke="#000"/>
<path d="m687.199,1836.9095c.0109-1.7862-1.1712-3.4777-2.6658-3.5178-.5793.4952-1.0845.9271-1.848.9086 .23,4.0429 2.5732,3.8463 4.5152,2.6068z" fill-rule="evenodd"/>
</g>
</g>
</svg>
