<svg viewBox="0 0 512 512" xmlns="http://www.w3.org/2000/svg">

<g transform="matrix(18.68858,0,0,18.68858,-12483.33814,-34037.10993)">
<path d="m 2995.97 -3717.75 h 12.9025 v 12.9025 h -12.9025 z" fill="#fff" transform="matrix(-.96192,.27333,-.96192,-.27333,0,0)"/>
<path d="m -2207.68 287.07 h 12.9025 v 12.9025 h -12.9025 z" fill="#fff" transform="matrix(-.27333,-.96192,.27333,-.96192,0,0)"/>
<path d="m -3685.99 2825.39 h 12.9025 v 12.9025 h -12.9025 z" fill="#fff" transform="matrix(.48691,-.87345,.87345,-.48691,0,0)"/>
<path d="m -2423.19 560.079 h 12.9025 v 12.9025 h -12.9025 z" fill="#fff" transform="matrix(-.48691,-.87345,-.87345,-.48691,0,0)"/>
<path d="m 690.372 1835.25 c 0 4.3279 -3.5085 7.8365 -7.8365 7.8365 s -7.8365 -3.5086 -7.8365 -7.8365 3.5085 -7.8365 7.8365 -7.8365 7.8365 3.5085 7.8365 7.8365 z" fill="#fff" transform="matrix(1.23544,0,0,1.23544,-161.24561,-432.16172)"/>
<path d="m 684.907 1841.37 3.3893 7.0476" fill="none" stroke="#fff"/>
<path d="m 688.781 1833.68 6.2944 -2.3671" fill="none" stroke="#fff"/>
<path d="m 676.838 1840.19 -8.3874 7.9622" fill="none" stroke="#fff"/>
<path d="m 677.86 1829.48 -4.0349 -7.8007" fill="none" stroke="#fff"/>
<path d="m 685.445 1828.83 5.0033 -7.2628" fill="none" stroke="#fff"/>
<path d="m 668.465 1821.78 h 26.4314 v 26.4314 h -26.4314 z" fill="none" stroke="#000"/>
<g transform="translate(.3043)">
<path d="m 673.277 1835.91 4.1817 1.064" fill="none" stroke="#000"/>
<path d="m 677.296 1835.69 -3.892 -2.1403" fill="none" stroke="#000"/>
<path d="m 674.84 1831.67 3.0956 3.072" fill="none" stroke="#000"/>
<path d="m 677.144 1830.46 2.0255 4.1376" fill="none" stroke="#000"/>
<path d="m 680.75 1832.08 -0.814 3.7911" fill="none" stroke="#000"/>
<path d="m 676.184 1836.91 c -0.0109 -1.7862 1.1712 -3.4777 2.6658 -3.5178 0.5793 0.4952 1.0845 0.9271 1.848 0.9086 -0.23 4.0429 -2.5732 3.8463 -4.5152 2.6068 z" fill-rule="evenodd"/>
<path d="m 690.107 1835.91 -4.1817 1.064" fill="none" stroke="#000"/>
<path d="m 686.087 1835.69 3.892 -2.1403" fill="none" stroke="#000"/>
<path d="m 688.543 1831.67 -3.0956 3.072" fill="none" stroke="#000"/>
<path d="m 686.24 1830.46 -2.0255 4.1376" fill="none" stroke="#000"/>
<path d="m 682.634 1832.08 0.871 3.8291" fill="none" stroke="#000"/>
<path d="m 687.199 1836.91 c 0.0109 -1.7862 -1.1712 -3.4777 -2.6658 -3.5178 -0.5793 0.4952 -1.0845 0.9271 -1.848 0.9086 0.23 4.0429 2.5732 3.8463 4.5152 2.6068 z" fill-rule="evenodd"/>
</g>
</g>
</svg>
