<svg viewBox="0 0 512 512" xmlns="http://www.w3.org/2000/svg">

<g transform="matrix(18.68858,0,0,18.68858,-7723.19623,-38782.58316)">
<path d="m438.2672,2091.2145c0,6.9073-2.589,10.8662-8.7529,10.8662s-15.914-4.3218-15.0109-11.1698c.9109-6.9074 6.3417-15.2205 12.5056-15.2205s11.2582,8.6167 11.2582,15.5241z" fill="#fff" stroke="#000"/>
<path d="m437.8673,2088.7455-3.384-4.2163-1.3913,3.933-3.8306-4.8119-2.6344,5.0441-3.447-4.2437-.8977,3.0339-1.2498-2.0791c-1.6646-.117-1.6164,1.2554-.9289,3.1837l1.1702,1.5111 2.2739-2.0971 .8241,4.823 3.5765-3.3795 1.3649,5.1681 2.7873-5.1372 2.318,4.584 1.2474-4.8621 2.2629,1.9326"/>
<path d="m425.4088,2081.9895c0,.545-.4418.9869-.9869.9869s-.9869-.4419-.9869-.9869c0-.545.4418-.9868.9869-.9868s.9869.4418.9869.9868z" fill="#fff" stroke="#000" stroke-width=".5104" transform="matrix(1.9602,0,0,1.95835,-398.41198,-1997.0718)"/>
<path d="m425.4088,2081.9895c0,.545-.4418.9869-.9869.9869s-.9869-.4419-.9869-.9869c0-.545.4418-.9868.9869-.9868s.9869.4418.9869.9868z" fill="#fff" stroke="#000" stroke-width=".5104" transform="matrix(1.9602,0,0,1.95835,-406.57327,-1997.078)"/>
<path d="m437.47,2085.1733c-4.4493-1.6155-9.5246-2.299-16.6452.2385-1.3528.4841-.7722,2.1879-.3099,3.0892 4.6519,7.719 16.3001,7.3555 18.0623,1.4953" fill="none" stroke="#000"/>
</g>
</svg>
