<svg viewBox="0 0 512 512" xmlns="http://www.w3.org/2000/svg">

<g transform="matrix(18.68858,0,0,18.68858,-4021.55399,-5361.76812)">
<g transform="matrix(.56918,-.60781,.64073,.61598,-54.08057,215.42007)">
<path d="m148.2715,291.0172c.6647-2.9317 4.1095-4.7123 5.2105-1.4293 2.4388-.8873 4.645-1.4076 4.91,1.2409 2.2451.2292 4.7076.2267 4.9055,2.6379 2.5598.6598 5.3244,1.1714 4.6846,4.1453 2.5946.9935 4.2593,2.2919 3.8007,4.2866 6.3122,5.7423-5.643,12.0672-7.513,10.9285-3.2407,1.2258-6.6619,1.184-7.0269-1.6487-2.9176-1.1385-3.5146-2.9223-3.7565-4.8048-2.0885-.0588-3.0377-2.3752-2.3865-4.3337-2.9708-.6935-2.8087-3.0567-2.2981-5.6056-1.8949-1.0209-1.9341-2.8895-.5303-5.4172z" fill="#fff" fill-rule="evenodd"/>
<path d="m153.5397,299.8514c7.1316-.2199 15.0694-9.1465 5.2329-9.0381" fill="none" stroke="#000" stroke-width="1.1624"/>
<path d="m162.3758,308.1186c5.4599.337 14.5849-8.1606 5.7458-10.4916" fill="none" stroke="#000" stroke-width="1.1624"/>
<path d="m158.2344,303.5241c5.9218-.3497 16.0317-8.8721 5.1392-9.9972" fill="none" stroke="#000" stroke-width="1.1624"/>
<path d="m151.4306,295.1341c6.215-.1091 10.7436-7.1487 2.7037-6.3119" fill="none" stroke="#000" stroke-width="1.1624"/>
<path d="m156.0894,293.5609c-2.2384,10.8345-9.5887,10.3675-7.2656,2.7422" fill="none" stroke="#000" stroke-width="1.1624"/>
<path d="m150.7352,302.0263c-.8245,9.854 10.5145,1.7534 10.1405-5.2405" fill="none" stroke="#000" stroke-width="1.1624"/>
<path d="m165.0746,300.6273c.4083,6.6701-9.6785,15.8891-11.5308,6.3787" fill="none" stroke="#000" stroke-width="1.1624"/>
<path d="m148.3052,290.8811c-4.0239,7.3977 4.317,8.0434 5.6937-2.4317-2.0364,2.1243-4.0995,2.635-5.6937,2.4317z" fill="none" stroke="#000" stroke-width="1.1624"/>
<path d="m157.0317,311.2069c1.5509,6.7809 11.4593.25 12.0567-5.7601" fill="none" stroke="#000" stroke-width="1.1624"/>
<path d="m164.0241,312.8055c6.9349.9625 12.7036-8.5286 7.851-11.0124" fill="none" stroke="#000" stroke-width="1.1624"/>
</g>
<path d="m220.1875,296.8621c0,1.2772-1.0353,2.3125-2.3125,2.3125s-2.3125-1.0353-2.3125-2.3125 1.0353-2.3125 2.3125-2.3125 2.3125,1.0353 2.3125,2.3125z" fill="#fff" stroke="#000" stroke-width=".7117" transform="matrix(1.37897,0,0,1.4318,-79.46818,-133.49543)"/>
<path d="m237.4035,288.9547c-.6568.0654-1.2255.3347-1.6966.7405 1.9004,1.3311 2.9543,3.2674 3.5499,5.464 1.1048-.6081 1.7867-1.8487 1.6498-3.2242-.181-1.8187-1.7516-3.1546-3.5032-2.9803z" fill="#fff" stroke="#000"/>
</g>
</svg>
