<svg viewBox="0 0 512 512" xmlns="http://www.w3.org/2000/svg">

<g transform="matrix(18.68858,0,0,18.68858,-8398.28948,-18613.7363)">
<g transform="matrix(1.12358,0,0,1.18899,-55.71208,-191.71207)">
<path d="m464.049,1020.5166c2.6084-.4319 5.5534-3.1394 5.5534-5.9643h-8.2273" fill="none" stroke="#fff" stroke-width=".8652"/>
</g>
<g transform="matrix(1.12358,0,0,1.18899,-56.45503,-192.12035)">
<path d="m468.3077,1004.3886c1.9653,1.0807 3.29,2.9058 3.29,6.4862h-4.8741" fill="none" stroke="#fff" stroke-width=".8652"/>
</g>
<g transform="matrix(-1.12358,0,0,1.18899,982.17358,-191.71207)">
<path d="m464.049,1020.5166c2.6084-.4319 5.5534-3.1394 5.5534-5.9643h-8.2273" fill="none" stroke="#fff" stroke-width=".8652"/>
</g>
<g transform="matrix(-1.12358,0,0,1.18899,982.91652,-192.12035)">
<path d="m468.3077,1004.3886c1.9653,1.0807 3.29,2.9058 3.29,6.4862h-4.8741" fill="none" stroke="#fff" stroke-width=".8652"/>
</g>
<path d="m465.4067,997.2518c1.2043,1.1942 1.2043,3.133 0,4.3274s-3.1591,1.1943-4.3634,0-1.2043-3.1332 0-4.3274" fill="none" stroke="#fff"/>
<g transform="matrix(1.10441,0,0,1.03543,-48.8628,-35.33231)">
<path d="m471.747,1019.5862c1.5426-2.2392 2.2372-5.2007 2.2372-7.9709h-9.127" fill="none" stroke="#fff" stroke-width=".9351"/>
</g>
<g transform="matrix(-1.10441,0,0,1.03543,975.25691,-35.33231)">
<path d="m471.747,1019.5862c1.5426-2.2392 2.2372-5.2007 2.2372-7.9709h-9.127" fill="none" stroke="#fff" stroke-width=".9351"/>
</g>
<g transform="matrix(.90406,0,0,.95669,589.27252,50.86424)">
<path d="m-139.4244,992.6342c-1.9017,0-3.461,1.5346-3.461,3.4308 0,.1026.022.2087.0309.3091-1.8163.6715-3.0284,1.8619-3.0284,3.2145 0,.5992.2268,1.1648.6489,1.6689-.9154,1.2627-1.4524,2.8119-1.4524,4.5127 0,4.1671 3.2471,7.5724 7.2619,7.5724s7.2619-3.4053 7.2619-7.5724c0-1.7008-.5369-3.25-1.4524-4.5127 .4222-.5041.6489-1.0697.6489-1.6689 0-1.3593-1.228-2.5448-3.0593-3.2145 .009-.1009.0309-.2059.0309-.3091 0-1.8962-1.5283-3.4308-3.4301-3.4308z" fill="#fff" stroke="#000" stroke-width="1.0753"/>
<path d="m-145.4436,1001.3291c1.7169,1.0094 3.9124,1.5566 6.0977,1.9458 2.0594-.2082 3.9792-1.0443 5.898-1.8849" fill="none" stroke="#000" stroke-width="1.0753"/>
<path d="m-143.3574,996.3936c1.8534,1.2722 5.7402,1.5055 7.8615,0" fill="none" stroke="#000" stroke-width="1.0753"/>
<path d="m-139.4267,1003.6023v9.6464" fill="none" stroke="#000" stroke-width="1.0753"/>
</g>
</g>
</svg>
