<svg viewBox="0 0 512 512" xmlns="http://www.w3.org/2000/svg">

<g transform="matrix(18.68858,0,0,18.68858,-8398.28948,-18613.7363)">
<g transform="matrix(1.12358,0,0,1.18899,-55.71208,-191.71207)">
<path d="m 464.049 1020.52 c 2.6084 -0.4319 5.5534 -3.1394 5.5534 -5.9643 h -8.2273" fill="none" stroke="#fff" stroke-width=".8652"/>
</g>
<g transform="matrix(1.12358,0,0,1.18899,-56.45503,-192.12035)">
<path d="m 468.308 1004.39 c 1.9653 1.0807 3.29 2.9058 3.29 6.4862 h -4.8741" fill="none" stroke="#fff" stroke-width=".8652"/>
</g>
<g transform="matrix(-1.12358,0,0,1.18899,982.17358,-191.71207)">
<path d="m 464.049 1020.52 c 2.6084 -0.4319 5.5534 -3.1394 5.5534 -5.9643 h -8.2273" fill="none" stroke="#fff" stroke-width=".8652"/>
</g>
<g transform="matrix(-1.12358,0,0,1.18899,982.91652,-192.12035)">
<path d="m 468.308 1004.39 c 1.9653 1.0807 3.29 2.9058 3.29 6.4862 h -4.8741" fill="none" stroke="#fff" stroke-width=".8652"/>
</g>
<path d="m 465.407 997.252 c 1.2043 1.1942 1.2043 3.133 0 4.3274 s -3.1591 1.1943 -4.3634 0 -1.2043 -3.1332 0 -4.3274" fill="none" stroke="#fff"/>
<g transform="matrix(1.10441,0,0,1.03543,-48.8628,-35.33231)">
<path d="m 471.747 1019.59 c 1.5426 -2.2392 2.2372 -5.2007 2.2372 -7.9709 h -9.127" fill="none" stroke="#fff" stroke-width=".9351"/>
</g>
<g transform="matrix(-1.10441,0,0,1.03543,975.25691,-35.33231)">
<path d="m 471.747 1019.59 c 1.5426 -2.2392 2.2372 -5.2007 2.2372 -7.9709 h -9.127" fill="none" stroke="#fff" stroke-width=".9351"/>
</g>
<g transform="matrix(.90406,0,0,.95669,589.27252,50.86424)">
<path d="m -139.424 992.634 c -1.9017 0 -3.461 1.5346 -3.461 3.4308 0 0.1026 0.022 0.2087 0.0309 0.3091 -1.8163 0.6715 -3.0284 1.8619 -3.0284 3.2145 0 0.5992 0.2268 1.1648 0.6489 1.6689 -0.9154 1.2627 -1.4524 2.8119 -1.4524 4.5127 0 4.1671 3.2471 7.5724 7.2619 7.5724 s 7.2619 -3.4053 7.2619 -7.5724 c 0 -1.7008 -0.5369 -3.25 -1.4524 -4.5127 0.4222 -0.5041 0.6489 -1.0697 0.6489 -1.6689 0 -1.3593 -1.228 -2.5448 -3.0593 -3.2145 0.009 -0.1009 0.0309 -0.2059 0.0309 -0.3091 0 -1.8962 -1.5283 -3.4308 -3.4301 -3.4308 z" fill="#fff" stroke="#000" stroke-width="1.0753"/>
<path d="m -145.444 1001.33 c 1.7169 1.0094 3.9124 1.5566 6.0977 1.9458 2.0594 -0.2082 3.9792 -1.0443 5.898 -1.8849" fill="none" stroke="#000" stroke-width="1.0753"/>
<path d="m -143.357 996.394 c 1.8534 1.2722 5.7402 1.5055 7.8615 0" fill="none" stroke="#000" stroke-width="1.0753"/>
<path d="m -139.427 1003.6 v 9.6464" fill="none" stroke="#000" stroke-width="1.0753"/>
</g>
</g>
</svg>
