<svg viewBox="0 0 512 512" xmlns="http://www.w3.org/2000/svg">

<g transform="matrix(18.68858,0,0,18.68858,-1590.65257,-29939.39394)">
<g fill="#fff" transform="translate(-.6456,-.8684)">
<path d="m 105.109 1620.5 c 0.4501 -0.3361 0.6185 -1.0022 0.3277 -1.3916 -0.5858 -0.7842 -5.5011 -5.5341 -5.5011 -5.5341 s 3.1046 6.023 3.7146 6.8396 c 0.3063 0.41 1.0186 0.4147 1.4588 0.086 z" fill="#fff" fill-rule="evenodd"/>
<path d="m 93.8385 1620.5 c -0.4501 -0.3361 -0.6185 -1.0022 -0.3277 -1.3916 0.5858 -0.7842 5.5011 -5.5341 5.5011 -5.5341 s -3.1046 6.023 -3.7146 6.8396 c -0.3063 0.41 -1.0186 0.4147 -1.4588 0.086 z" fill="#fff" fill-rule="evenodd"/>
</g>
<g fill="#fff" transform="translate(-.3625,-.8684)">
<path d="m 101.115 1621.99 c 0.5531 -0.098 1.0024 -0.6182 0.9172 -1.0966 -0.1717 -0.9637 -2.4337 -7.4139 -2.4337 -7.4139 s 0.0725 6.7757 0.2514 7.7791 c 0.0898 0.5038 0.7243 0.8276 1.2651 0.7314 z" fill="#fff" fill-rule="evenodd"/>
<path d="m 97.2661 1621.99 c -0.5531 -0.098 -1.0024 -0.6182 -0.9172 -1.0966 0.1717 -0.9637 2.4337 -7.4139 2.4337 -7.4139 s -0.0725 6.7757 -0.2514 7.7791 c -0.0898 0.5038 -0.7243 0.8276 -1.2651 0.7314 z" fill="#fff" fill-rule="evenodd"/>
</g>
<path d="m 104.582 1616.09 c 0 3.5656 -2.8905 6.4561 -6.4561 6.4561 s -6.4561 -2.8905 -6.4561 -6.4561 2.8905 -6.4561 6.4561 -6.4561 6.4561 2.8905 6.4561 6.4561 z" fill="#fff" transform="matrix(1.13473,0,0,1.13473,-12.51815,-223.3914)"/>
<path d="m 98.8173 1616.82 c -0.5617 0 -1.0953 -0.4327 -1.0953 -0.9186 0 -0.9787 0.9694 -0.9094 1.0953 -2.6666 0.1577 1.76 1.1173 1.6241 1.1173 2.6435 0 0.5116 -0.5679 0.9417 -1.1173 0.9417 z" fill-rule="evenodd"/>
<path d="m 97.5507 1613.96 c 0 0.8257 -0.6693 1.495 -1.495 1.495 s -1.495 -0.6693 -1.495 -1.495 0.6693 -1.4951 1.495 -1.4951 1.495 0.6694 1.495 1.4951 z" transform="matrix(1.14286,0,0,1.14286,-13.69942,-231.12928)"/>
<path d="m 97.5507 1613.96 c 0 0.8257 -0.6693 1.495 -1.495 1.495 s -1.495 -0.6693 -1.495 -1.495 0.6693 -1.4951 1.495 -1.4951 1.495 0.6694 1.495 1.4951 z" transform="matrix(1.14286,0,0,1.14286,-8.19984,-231.12928)"/>
<path d="m 98.7501 1620.97 c -0.1779 2.482 -0.7014 3.568 -1.2187 4.3437 -0.2597 0.3893 -0.5312 0.7763 -0.5312 1.2813 0 1.0099 0.8025 1.8437 1.8125 1.8437 s 1.8437 -0.8338 1.8437 -1.8437 c 0 -0.5604 -0.3521 -0.9537 -0.6562 -1.375 -0.5409 -0.7492 -1.0332 -1.8307 -1.25 -4.25 z" fill="#fff" fill-rule="evenodd"/>
<g transform="translate(-.0451)">
<path d="m 105.479 1618.01 c 1.9252 1.1222 2.5918 1.9714 3.0114 2.6932 0.2106 0.3621 0.4146 0.7333 0.8206 0.9326 0.8119 0.3983 1.7988 0.082 2.1971 -0.7301 s 0.0569 -1.8111 -0.755 -2.2095 c -0.4506 -0.2211 -0.9056 -0.093 -1.3643 -0.015 -0.8155 0.14 -1.8793 0.1091 -3.9098 -0.6716 z" fill="#fff" fill-rule="evenodd"/>
</g>
<g transform="matrix(-1,0,0,1,197.70165,0)">
<path d="m 105.479 1618.01 c 1.9252 1.1222 2.5918 1.9714 3.0114 2.6932 0.2106 0.3621 0.4146 0.7333 0.8206 0.9326 0.8119 0.3983 1.7988 0.082 2.1971 -0.7301 s 0.0569 -1.8111 -0.755 -2.2095 c -0.4506 -0.2211 -0.9056 -0.093 -1.3643 -0.015 -0.8155 0.14 -1.8793 0.1091 -3.9098 -0.6716 z" fill="#fff" fill-rule="evenodd"/>
</g>
<g transform="translate(-.1454)">
<path d="m 95.1599 1620.58 c -1.1174 2.2234 -1.2235 3.4242 -1.1761 4.3555 0.0239 0.4672 0.0591 0.9387 -0.1989 1.3726 -0.5169 0.8675 -1.6331 1.1732 -2.5007 0.6563 s -1.1572 -1.66 -0.6404 -2.5275 c 0.2868 -0.4815 0.7906 -0.6392 1.2675 -0.8454 0.8481 -0.3668 1.8246 -1.0441 3.249 -3.0114 z" fill="#fff" fill-rule="evenodd"/>
</g>
<g transform="matrix(-1,0,0,1,197.78967,0)">
<path d="m 95.1599 1620.58 c -1.1174 2.2234 -1.2235 3.4242 -1.1761 4.3555 0.0239 0.4672 0.0591 0.9387 -0.1989 1.3726 -0.5169 0.8675 -1.6331 1.1732 -2.5007 0.6563 s -1.1572 -1.66 -0.6404 -2.5275 c 0.2868 -0.4815 0.7906 -0.6392 1.2675 -0.8454 0.8481 -0.3668 1.8246 -1.0441 3.249 -3.0114 z" fill="#fff" fill-rule="evenodd"/>
</g>
</g>
</svg>
