<svg viewBox="0 0 512 512" xmlns="http://www.w3.org/2000/svg">

<g transform="matrix(18.68858,0,0,18.68858,-1590.65257,-29939.39394)">
<g fill="#fff" transform="translate(-.6456,-.8684)">
<path d="m105.1093,1620.4977c.4501-.3361.6185-1.0022.3277-1.3916-.5858-.7842-5.5011-5.5341-5.5011-5.5341s3.1046,6.023 3.7146,6.8396c.3063.41 1.0186.4147 1.4588.086z" fill="#fff" fill-rule="evenodd"/>
<path d="m93.8385,1620.4977c-.4501-.3361-.6185-1.0022-.3277-1.3916 .5858-.7842 5.5011-5.5341 5.5011-5.5341s-3.1046,6.023-3.7146,6.8396c-.3063.41-1.0186.4147-1.4588.086z" fill="#fff" fill-rule="evenodd"/>
</g>
<g fill="#fff" transform="translate(-.3625,-.8684)">
<path d="m101.1154,1621.9874c.5531-.098 1.0024-.6182.9172-1.0966-.1717-.9637-2.4337-7.4139-2.4337-7.4139s.0725,6.7757.2514,7.7791c.0898.5038.7243.8276 1.2651.7314z" fill="#fff" fill-rule="evenodd"/>
<path d="m97.2661,1621.9874c-.5531-.098-1.0024-.6182-.9172-1.0966 .1717-.9637 2.4337-7.4139 2.4337-7.4139s-.0725,6.7757-.2514,7.7791c-.0898.5038-.7243.8276-1.2651.7314z" fill="#fff" fill-rule="evenodd"/>
</g>
<path d="m104.5819,1616.0852c0,3.5656-2.8905,6.4561-6.4561,6.4561s-6.4561-2.8905-6.4561-6.4561 2.8905-6.4561 6.4561-6.4561 6.4561,2.8905 6.4561,6.4561z" fill="#fff" transform="matrix(1.13473,0,0,1.13473,-12.51815,-223.3914)"/>
<path d="m98.8173,1616.822c-.5617,0-1.0953-.4327-1.0953-.9186 0-.9787.9694-.9094 1.0953-2.6666 .1577,1.76 1.1173,1.6241 1.1173,2.6435 0,.5116-.5679.9417-1.1173.9417z" fill-rule="evenodd"/>
<path d="m97.5507,1613.9595c0,.8257-.6693,1.495-1.495,1.495s-1.495-.6693-1.495-1.495 .6693-1.4951 1.495-1.4951 1.495.6694 1.495,1.4951z" transform="matrix(1.14286,0,0,1.14286,-13.69942,-231.12928)"/>
<path d="m97.5507,1613.9595c0,.8257-.6693,1.495-1.495,1.495s-1.495-.6693-1.495-1.495 .6693-1.4951 1.495-1.4951 1.495.6694 1.495,1.4951z" transform="matrix(1.14286,0,0,1.14286,-8.19984,-231.12928)"/>
<path d="m98.7501,1620.9688c-.1779,2.482-.7014,3.568-1.2187,4.3437-.2597.3893-.5312.7763-.5312,1.2813 0,1.0099.8025,1.8437 1.8125,1.8437s1.8437-.8338 1.8437-1.8437c0-.5604-.3521-.9537-.6562-1.375-.5409-.7492-1.0332-1.8307-1.25-4.25z" fill="#fff" fill-rule="evenodd"/>
<g transform="translate(-.0451)">
<path d="m105.4787,1618.0149c1.9252,1.1222 2.5918,1.9714 3.0114,2.6932 .2106.3621.4146.7333.8206.9326 .8119.3983 1.7988.082 2.1971-.7301s.0569-1.8111-.755-2.2095c-.4506-.2211-.9056-.093-1.3643-.015-.8155.14-1.8793.1091-3.9098-.6716z" fill="#fff" fill-rule="evenodd"/>
</g>
<g transform="matrix(-1,0,0,1,197.70165,0)">
<path d="m105.4787,1618.0149c1.9252,1.1222 2.5918,1.9714 3.0114,2.6932 .2106.3621.4146.7333.8206.9326 .8119.3983 1.7988.082 2.1971-.7301s.0569-1.8111-.755-2.2095c-.4506-.2211-.9056-.093-1.3643-.015-.8155.14-1.8793.1091-3.9098-.6716z" fill="#fff" fill-rule="evenodd"/>
</g>
<g transform="translate(-.1454)">
<path d="m95.1599,1620.5757c-1.1174,2.2234-1.2235,3.4242-1.1761,4.3555 .0239.4672.0591.9387-.1989,1.3726-.5169.8675-1.6331,1.1732-2.5007.6563s-1.1572-1.66-.6404-2.5275c.2868-.4815.7906-.6392 1.2675-.8454 .8481-.3668 1.8246-1.0441 3.249-3.0114z" fill="#fff" fill-rule="evenodd"/>
</g>
<g transform="matrix(-1,0,0,1,197.78967,0)">
<path d="m95.1599,1620.5757c-1.1174,2.2234-1.2235,3.4242-1.1761,4.3555 .0239.4672.0591.9387-.1989,1.3726-.5169.8675-1.6331,1.1732-2.5007.6563s-1.1572-1.66-.6404-2.5275c.2868-.4815.7906-.6392 1.2675-.8454 .8481-.3668 1.8246-1.0441 3.249-3.0114z" fill="#fff" fill-rule="evenodd"/>
</g>
</g>
</svg>
