<svg viewBox="0 0 512 512" xmlns="http://www.w3.org/2000/svg">

<g transform="matrix(18.68858,0,0,18.68858,1347.26212,-13008.40514)">
<path d="m-67.6617,696.5625c7.6032,9.2817 7.048,15.1953-3.9688,4.5938v6.3125c10.0604.0715 13.3158,6.262 0,8v7.4062h1.9554c3.3249-5.3402 6.2145-7.4689 7.816-7.6054 1.6778-.1429 2.5512,1.9115.6661,7.6054h2.8125c-.243-3.1504.5105-5.5415 1.4527-5.6322 .896-.0862 2.1756,2.2418 3.3286,5.6322h3.375c-3.9909-5.0569-5.4572-8.9739-4-9.5 1.1343-.4095 4.0455,1.2532 8.9062,6v-6.6875c-11.5581-.3121-12.7337-5.5783 0-9.4325v-6.6925h-3.3125c-5.5769,11.865-11.5273,12.0699-7.2812,0h-3.0938c.6722,9.0313-1.9093,10.7537-5,0h-3.6562z" fill="#fff" stroke="#000"/>
<path d="m337.5,702.9872c0,.932-.7555,1.6875-1.6875,1.6875s-1.6875-.7555-1.6875-1.6875 .7555-1.6875 1.6875-1.6875 1.6875.7555 1.6875,1.6875z" fill="#fff" stroke="#000" transform="translate(-405.7242,8.6875)"/>
<path d="m337.5,702.9872c0,.932-.7555,1.6875-1.6875,1.6875s-1.6875-.7555-1.6875-1.6875 .7555-1.6875 1.6875-1.6875 1.6875.7555 1.6875,1.6875z" fill="#fff" stroke="#000" stroke-width=".72" transform="matrix(1.38889,0,0,1.38889,-515.28672,-264.9464)"/>
<path d="m339.3125,718.5497c0,.7939-.6436,1.4375-1.4375,1.4375s-1.4375-.6436-1.4375-1.4375 .6436-1.4375 1.4375-1.4375 1.4375.6436 1.4375,1.4375z" fill="#fff" stroke="#000" transform="translate(-405.0992,-9.9375)"/>
<path d="m352.8125,719.7684c0,.8802-.7136,1.5938-1.5938,1.5938s-1.5938-.7135-1.5938-1.5938 .7136-1.5938 1.5938-1.5938 1.5938.7136 1.5938,1.5938z" fill="#fff" stroke="#000" transform="translate(-401.7242)"/>
<path d="m352.8125,719.7684c0,.8802-.7136,1.5938-1.5938,1.5938s-1.5938-.7135-1.5938-1.5938 .7136-1.5938 1.5938-1.5938 1.5938.7136 1.5938,1.5938z" fill="#fff" stroke="#000" stroke-width=".8226" transform="matrix(1.21569,0,0,1.21569,-481.19604,-176.52542)"/>
<path d="m345.9078,710.1225c0,1.9526-.8805,3.5355-1.9666,3.5355s-1.9666-1.5829-1.9666-3.5355 .8805-3.5355 1.9666-3.5355 1.9666,1.5829 1.9666,3.5355z" transform="matrix(1.07013,-.28466,.28674,1.06236,-630.2647,54.10043)"/>
</g>
</svg>
