<svg viewBox="0 0 512 512" xmlns="http://www.w3.org/2000/svg">

<g transform="matrix(18.68858,0,0,18.68858,-5676.76592,-4787.11191)">
<path d="m305.141,261.3009c3.7855-1.9047 6.748-.8725 8.3978,2.0859-.4917-1.722-.831-3.2735.8218-2.3192 5.3308,3.0777 4.4264,9.3748 4.985,15.4182 .3462,3.745 3.9266,6.0924 6.7756,5.3778 2.7695-.6946 4.8113-4.1758 3.3577-7.2983-2.1127-4.5386-5.6844-8.0423-9.0744-11.9772-1.4351-1.6658 2.01-.9095 4.6929.3371-4.5441-5.213-15.7158-8.9184-19.9565-1.6242z" fill="#fff"/>
<path d="m683.75,509.2059c0,1.6741-.7136,3.0312-1.5938,3.0312s-1.5938-1.3571-1.5938-3.0312 .7136-3.0312 1.5938-3.0312 1.5938,1.3571 1.5938,3.0312z" fill="#fff" transform="matrix(.86201,.11098,.06155,.70635,-304.5583,-168.10317)"/>
<path d="m318.6409,264.4348c2.3375,3.0171 1.938,8.6038 1.8466,10.8811-.0673,1.6765.8685,3.6452 2.1464,4.4416 2.8321,1.765 4.9182.004 6.0245-1.9237-1.4481,1.7066-3.3736,1.6731-4.9633.2543-1.0001-.8926-1.7034-2.6431-1.6807-4.1295 .0621-4.0855-1.2348-7.244-3.3735-9.5238z"/>
</g>
</svg>
