<svg viewBox="0 0 512 512" xmlns="http://www.w3.org/2000/svg">

<g transform="matrix(18.68858,0,0,18.68858,-9078.50719,-31321.99027)">
<path d="m 494.079 1676.6 h 2.6629 c 0.9598 4.878 3.6771 6.024 5.0975 0 h 2.4592 c -3.0967 9.8503 -1.7344 11.7937 6.2957 0 h 1.7065 c -4.1755 4.8835 -4.049 6.3001 0.4699 3.7083 v 5.0595 c -13.34 1.6522 -13.4705 6.7015 0 7.2278 v 2.6629 c -7.9109 -3.6853 -14.4381 -4.7412 -6.3663 7.6207 l -2.5876 0.065 c -1.263 -7.5591 -2.9514 -6.2245 -3.3468 0.036 l -1.826 0.051 c 1.7838 -9.9558 -1.2269 -14.6889 -6.8474 0 h -3.2535 c 6.127 -9.2072 5.1129 -10.3516 -2.2037 -6.864 v -3.4957 c 8.8157 -1.4744 15.2505 -2.5861 0 -10.5754 v -3.9732 c 11.4018 9.8228 12.3296 7.241 7.7397 -1.5231 z" fill="#fff"/>
<path d="m 492.722 1685.31 c -2.639 -1.8499 -4.2574 0.1144 -1.6228 1.9611 2.6385 1.8496 4.2575 -0.1144 1.6228 -1.9611 z" fill="#fff"/>
<path d="m 494.614 1680.98 c -1.4461 -1.7252 -2.8931 -0.6925 -1.4494 1.0298 1.4458 1.7249 2.8932 0.6925 1.4494 -1.0298 z" fill="#fff"/>
<path d="m 506.601 1697.44 c -3.8775 -2.8484 -1.5958 -4.6172 2.275 -1.7736 3.877 2.8477 1.596 4.6173 -2.275 1.7736 z" fill="#fff"/>
<path d="m 486.34 1676.6 h 26.4314 v 26.4314 h -26.4314 z" fill="none" stroke="#000"/>
<path d="m 498.139 1686.22 c 0.2323 3.8211 1.1576 7.767 2.5817 10.8422 0.5208 -3.3488 0.2786 -7.3907 -0.5519 -11.1277 l -2.0297 0.2855 z"/>
<path d="m 496.83 1688.43 -0.3027 -2.1523 5.2187 -0.7338 0.3027 2.1522" fill="none" stroke="#000"/>
<path d="m 499.123 1686.04 -0.5057 -3.5961" fill="none" stroke="#000"/>
<path d="m 499.215 1682.43 c 0 0.415 -0.3364 0.7513 -0.7513 0.7513 s -0.7513 -0.3363 -0.7513 -0.7513 0.3364 -0.7513 0.7513 -0.7513 0.7513 0.3364 0.7513 0.7513 z" transform="matrix(1.22785,0,0,1.22785,-113.39356,-383.35736)"/>
<path d="m 500.855 1682.59 c -0.9568 -0.5218 0.0135 -2.1777 0.9686 -1.6568 s -0.0134 2.1778 -0.9686 1.6568 z"/>
<path d="m 509.333 1685.23 c -3.1779 1.5875 -5.0085 -0.8665 -1.8358 -2.4509 3.1779 -1.5872 5.0089 0.866 1.8358 2.4509 z" stroke="#fff"/>
<path d="m 493.661 1691.96 c -2.2499 1.9139 -0.1254 4.001 2.238 2.0147 s 0.0118 -3.9285 -2.238 -2.0147 z" stroke="#fff"/>
</g>
</svg>
