<svg viewBox="0 0 512 512" xmlns="http://www.w3.org/2000/svg">

<g transform="matrix(18.68858,0,0,18.68858,-2950.4625,-20443.62111)">
<path d="m172.531,1097.0313-1.3268,13.7294" fill="none" stroke="#fff"/>
<path d="m173.246,1103.4423-2.6444-.2556 1.5705-2.441 1.0739,2.6966z" fill="#fff"/>
<path d="m174.0944,1097.619-3.2226-.3113 1.3089,3.286 1.9138-2.9747z" fill="#fff"/>
<path d="m174.9722,1118.38-4.3918-13.0756" fill="none" stroke="#fff"/>
<path d="m171.703,1112.819 2.5185-.8459-.4376,2.8694-2.0809-2.0235z" fill="#fff"/>
<path d="m174.1765,1119.4345 2.081-.6991-1.7195-1.6719-.3615,2.371z" fill="#fff"/>
<path d="m168.0326,1118.38 4.3918-13.0756" fill="none" stroke="#fff"/>
<path d="m171.3017,1112.819-2.5185-.8459 .4376,2.8694 2.0809-2.0235z" fill="#fff"/>
<path d="m169.2943,1118.7955-2.5185-.846 2.081-2.0234 .4375,2.8694z" fill="#fff"/>
<path d="m180.6751,1114.0114-11.4976-7.6199" fill="none" stroke="#fff"/>
<path d="m174.6794,1111.6314 1.4677-2.2145 1.4173,2.533-2.8851-.3185z" fill="#fff"/>
<path d="m180.1418,1115.6524 1.7999-2.7159-3.5381-.3904 1.7383,3.1063z" fill="#fff"/>
<path d="m160.9049,1105.1053 13.3254,3.5625" fill="none" stroke="#fff"/>
<path d="m167.3463,1105.4522-.6862,2.5666-2.1501-1.9499 2.8363-.6167z" fill="#fff"/>
<path d="m161.2556,1103.8239-.6861,2.5667 2.8363-.6169-2.1502-1.9498z" fill="#fff"/>
<path d="m164.7386,1099.3208 8.4731,10.8842" fill="none" stroke="#fff"/>
<path d="m167.5681,1105.1178 2.0964-1.632-2.6336-1.2204 .5372,2.8524z" fill="#fff"/>
<path d="m163.6953,1100.1429 2.0965-1.6319 .5371,2.8524-2.6335-1.2205z" fill="#fff"/>
<path d="m161.9243,1113.2985 12.0839-6.6512" fill="none" stroke="#fff"/>
<path d="m166.8139,1109.0908 1.281,2.3275-2.9015.081 1.6204-2.4081z" fill="#fff"/>
<path d="m160.6883,1111.8057 1.8309,3.3263 2.3157-3.4416-4.1466.1153z" fill="#fff"/>
<path d="m179.4095,1100.3233-9.8692,9.6363" fill="none" stroke="#fff"/>
<path d="m175.8209,1105.6837-1.856-1.9009 2.7746-.8525-.9186,2.7534z" fill="#fff"/>
<path d="m180.3318,1101.2792-1.8561-1.9009-.9185,2.7535 2.7746-.8526z" fill="#fff"/>
<path d="m182.2939,1105.7945-13.5252,2.707" fill="none" stroke="#fff"/>
<path d="m175.8434,1105.7308 .5215,2.605 2.2698-1.809-2.7913-.796z" fill="#fff"/>
<path d="m182.0255,1104.4934 .5213,2.6051-2.7913-.796 2.2699-1.8091z" fill="#fff"/>
<path d="m165.6902,1106.8615c0,1.5081-1.2226,2.7307-2.7307,2.7307s-2.7307-1.2226-2.7307-2.7307 1.2226-2.7308 2.7307-2.7308 2.7307,1.2226 2.7307,2.7308z" fill="#fff" transform="matrix(-.06447,.66709,-.66709,-.06447,921.41694,1059.5759)"/>
<path d="m165.6902,1106.8615c0,1.5081-1.2226,2.7307-2.7307,2.7307s-2.7307-1.2226-2.7307-2.7307 1.2226-2.7308 2.7307-2.7308 2.7307,1.2226 2.7307,2.7308z" fill="#fff" transform="matrix(-.14469,-.43078,.43078,-.14469,-277.90324,1349.782)"/>
<path d="m165.6902,1106.8615c0,1.5081-1.2226,2.7307-2.7307,2.7307s-2.7307-1.2226-2.7307-2.7307 1.2226-2.7308 2.7307-2.7308 2.7307,1.2226 2.7307,2.7308z" fill="#fff" transform="matrix(.17511,-.52133,-.52133,-.17511,716.40428,1397.5637)"/>
<path d="m165.6902,1106.8615c0,1.5081-1.2226,2.7307-2.7307,2.7307s-2.7307-1.2226-2.7307-2.7307 1.2226-2.7308 2.7307-2.7308 2.7307,1.2226 2.7307,2.7308z" fill="#fff" transform="matrix(-.56219,-.37259,.37259,-.56219,-139.29672,1797.5754)"/>
<path d="m165.6902,1106.8615c0,1.5081-1.2226,2.7307-2.7307,2.7307s-2.7307-1.2226-2.7307-2.7307 1.2226-2.7308 2.7307-2.7308 2.7307,1.2226 2.7307,2.7308z" fill="#fff" transform="matrix(.5313,.14204,-.14204,.5313,231.12873,493.77527)"/>
<path d="m165.6902,1106.8615c0,1.5081-1.2226,2.7307-2.7307,2.7307s-2.7307-1.2226-2.7307-2.7307 1.2226-2.7308 2.7307-2.7308 2.7307,1.2226 2.7307,2.7308z" fill="#fff" transform="matrix(.33783,.43396,.43396,-.33783,-370.91582,1402.1896)"/>
<path d="m165.6902,1106.8615c0,1.5081-1.2226,2.7307-2.7307,2.7307s-2.7307-1.2226-2.7307-2.7307 1.2226-2.7308 2.7307-2.7308 2.7307,1.2226 2.7307,2.7308z" fill="#fff" transform="matrix(.68855,-.37899,.37899,.68855,-370.64359,413.39976)"/>
<path d="m165.6902,1106.8615c0,1.5081-1.2226,2.7307-2.7307,2.7307s-2.7307-1.2226-2.7307-2.7307 1.2226-2.7308 2.7307-2.7308 2.7307,1.2226 2.7307,2.7308z" fill="#fff" transform="matrix(-.39349,.38421,-.38421,-.39349,669.10481,1472.9541)"/>
<path d="m165.6902,1106.8615c0,1.5081-1.2226,2.7307-2.7307,2.7307s-2.7307-1.2226-2.7307-2.7307 1.2226-2.7308 2.7307-2.7308 2.7307,1.2226 2.7307,2.7308z" fill="#fff" transform="matrix(-.53926,.10793,.10793,.53926,151.13065,491.23398)"/>
<path d="m179.676,1110.3574c0,3.1427-2.5476,5.6903-5.6902,5.6903s-5.6902-2.5476-5.6902-5.6903 2.5476-5.6902 5.6902-5.6902 5.6902,2.5476 5.6902,5.6902z" fill="#fff" transform="matrix(1.01268,0,0,1.01268,-4.7178,-16.47285)"/>
<g transform="matrix(.35996,0,0,.45541,214.66275,673.60107)">
<path d="m-130.846,953.8224c6.518,6.6634 14.8361,6.9503 22.1924,0-6.5937-6.2806-15.4361-6.6942-22.1924,0z" fill="#fff" fill-rule="evenodd" stroke="#000" stroke-width="2.4698"/>
</g>
<path d="m173.7132,1108.2887c0,1.0715-.8687,1.9402-1.9402,1.9402s-1.9402-.8687-1.9402-1.9402 .8687-1.9402 1.9402-1.9402 1.9402.8687 1.9402,1.9402z" transform="matrix(.94752,0,0,.94752,8.74662,57.92203)"/>
</g>
</svg>
