<svg viewBox="0 0 512 512" xmlns="http://www.w3.org/2000/svg">

<g transform="matrix(18.68858,0,0,18.68858,-9078.50719,-31321.99027)">
<path d="m494.0793,1676.6002h2.6629c.9598,4.878 3.6771,6.024 5.0975,0h2.4592c-3.0967,9.8503-1.7344,11.7937 6.2957,0h1.7065c-4.1755,4.8835-4.049,6.3001.4699,3.7083v5.0595c-13.34,1.6522-13.4705,6.7015 0,7.2278v2.6629c-7.9109-3.6853-14.4381-4.7412-6.3663,7.6207l-2.5876.065c-1.263-7.5591-2.9514-6.2245-3.3468.036l-1.826.051c1.7838-9.9558-1.2269-14.6889-6.8474,0h-3.2535c6.127-9.2072 5.1129-10.3516-2.2037-6.864v-3.4957c8.8157-1.4744 15.2505-2.5861 0-10.5754v-3.9732c11.4018,9.8228 12.3296,7.241 7.7397-1.5231z" fill="#fff"/>
<path d="m492.7217,1685.312c-2.639-1.8499-4.2574.1144-1.6228,1.9611 2.6385,1.8496 4.2575-.1144 1.6228-1.9611z" fill="#fff"/>
<path d="m494.6139,1680.9763c-1.4461-1.7252-2.8931-.6925-1.4494,1.0298 1.4458,1.7249 2.8932.6925 1.4494-1.0298z" fill="#fff"/>
<path d="m506.6011,1697.4391c-3.8775-2.8484-1.5958-4.6172 2.275-1.7736 3.877,2.8477 1.596,4.6173-2.275,1.7736z" fill="#fff"/>
<path d="m486.3396,1676.6002h26.4314v26.4314h-26.4314z" fill="none" stroke="#000"/>
<path d="m498.1385,1686.2238c.2323,3.8211 1.1576,7.767 2.5817,10.8422 .5208-3.3488.2786-7.3907-.5519-11.1277l-2.0297.2855z"/>
<path d="m496.83,1688.4291-.3027-2.1523 5.2187-.7338 .3027,2.1522" fill="none" stroke="#000"/>
<path d="m499.1228,1686.0358-.5057-3.5961" fill="none" stroke="#000"/>
<path d="m499.2149,1682.4293c0,.415-.3364.7513-.7513.7513s-.7513-.3363-.7513-.7513 .3364-.7513.7513-.7513 .7513.3364.7513.7513z" transform="matrix(1.22785,0,0,1.22785,-113.39356,-383.35736)"/>
<path d="m500.8549,1682.5943c-.9568-.5218.0135-2.1777.9686-1.6568s-.0134,2.1778-.9686,1.6568z"/>
<path d="m509.3326,1685.232c-3.1779,1.5875-5.0085-.8665-1.8358-2.4509 3.1779-1.5872 5.0089.866 1.8358,2.4509z" stroke="#fff"/>
<path d="m493.6605,1691.9612c-2.2499,1.9139-.1254,4.001 2.238,2.0147s.0118-3.9285-2.238-2.0147z" stroke="#fff"/>
</g>
</svg>
