<svg xmlns="http://www.w3.org/2000/svg" viewBox="0 0 512 512">
<g transform="matrix(18.68858 0 0 18.68858 -12483.55948 -22487.69929)">
<path fill="#fff" d="m683.9464,1204.3818c-1.1476,2.57-2.3644,4.0258-4.1263,4.2758-1.5055,.2135-3.455-1.5557-5.6513-4.0665 1.2503,2.4813 1.7102,4.4719 .8671,4.9636-.9967,.5814-2.9934-.104-5.9503-1.3455v.568c2.0342,1.291 3.9082,2.5514 3.5582,3.0201-.3072,.4113-1.7079,.3401-3.5582,.09v1.4652c2.6761,1.3519 4.1263,2.7382 4.1263,4.0366-0,1.1168-2.2302,3.3967-4.1263,5.2028v.8672c1.7111-.5605 3.8097-.7783 4.5151,.4784 .7194,1.2816 .2364,3.0969-.6877,5.741h1.5848c1.679-2.2679 3.2753-4.0867 4.1263-4.0067 .6028,.057 .3212,1.9083-.0897,4.0067h.4784c1.495-4.1546 3.3372-6.7012 6.0699-6.6082 2.3978,.082 4.6731,2.4958 7.1762,4.2161-1.3084-1.6011-3.7188-3.8813-3.1994-4.3057 .5462-.4469 2.8877,.3706 5.3224,1.2558v-.7774c-1.5974-1.0898-3.0669-2.1371-2.6911-2.5117 .3378-.3369 1.3685-.3914 2.6911-.299v-1.5549c-2.8718-1.1449-4.5631-2.2133-5.0832-3.917-.427-1.3989 .8613-3.2599 3.2891-5.5018-2.5363,1.3901-4.4034,2.3344-5.143,1.0166-.6641-1.183 .0797-3.4007 1.2558-6.3091h-.8372c-.9379,1.4847-1.7368,2.6107-2.0333,2.3323-.2584-.2427-.2613-1.1158-.1495-2.3323h-1.7343z"/>
<path d="m684.3352,1206.0972c-1.2587,4.08-1.9567,6.2176-3.5726,6.4468-.7659,.1087-1.7677-.7906-2.8851-2.0679 .6361,1.2625 .8748,2.2725 .4459,2.5227-.6491,.3786-2.1011-.2854-4.3923-1.268 1.3016,.8563 3.4405,2.0633 3.181,2.4108-.332,.4445-3.1758-.1936-5.3814-.5413 3.669,1.0445 5.6587,2.2853 5.6587,3.3879 0,.7576-2.0085,2.5569-2.9561,3.4512 .8043-.4687 2.662-1.005 3.1571-.123 .5484,.977-.2705,2.533-1.1719,5.2645 1.2908-1.8993 3.0168-4.4461 3.7311-4.3789 .5036,.047-.1976,2.4958-.4305,4.0591 .886-3.293 1.9136-5.4486 3.7072-5.3875 1.2199,.041 2.3859,1.265 3.6594,2.1402-.6656-.8147-1.8906-1.9734-1.6264-2.1895 .3659-.2992 2.3225,.5159 3.8746,1.0579-1.0273-.7386-2.8227-1.8044-2.5353-2.0911 .4283-.4271 2.9786,.055 4.8313,.2952-3.6082-1.2636-5.6272-1.817-6.0583-3.2294-.2172-.7116 .4463-1.6571 1.6814-2.7977-1.2903,.7071-2.2448,1.1798-2.621,.5096-.476-.848 .4678-2.7092 1.4491-5.1838-.8691,1.3352-1.9957,3.4331-2.2721,3.1735-.369-.3464 .2302-3.1908 .5262-5.4613z"/>
</g>
</svg>
