<svg viewBox="0 0 512 512" xmlns="http://www.w3.org/2000/svg">

<g transform="matrix(18.68858,0,0,18.68858,-7042.78538,-44908.01778)">
<path d="m398.5481,2421.2815c-.132.4804-.8125,1.3163-.8125,2.3126 3e-05,1.1368.785,1.6874 1.5625,1.6874s1.5938-.7003 1.5938-1.6874c-1e-05-.933-.7155-1.8435-.875-2.3126-.7703-2.266.4432-5.4882 1.1394-7.5 2.3049-6.6605-3.8184-9.8363-10.0312-9.8363-5.6307,0-10.1349,3.4891-10.4219,7.2113-.1449,1.8799-.4373,7.2813.5156,7.2813v-.0003c1.0489,0 .928-3.5822 2.6562-1.75 1.1645,1.2346 1.816,4.233 1.2188,5.0937-.1461.2106-.7187.792-.7188,1.375 0,.5943.5181,1.25 1.2812,1.25 .7124,0 1.2812-.5596 1.2812-1.25 0-.679-.6603-1.1592-.7812-1.375-.4582-1.0162-.3628-2.7383 1-2.8124 1.5608-.085 2.288,4.4652 1.375,5.7812-.2426.3496-1.25,1.428-1.25,2.4688 0,1.0632.8155,2.2187 2.125,2.2187 1.3349,0 2.125-1.2887 2.125-2.2187 3e-05-.9075-1.0804-2.1108-1.2812-2.4688-.8688-1.5488-.8886-6.0081 1.1637-6.3819 1.5643-.285.0234,5.4677 1.6137,5.4677 1.9244,0-.6727-6.7784 2.2131-6.7784 2.261,0-.4405,4.6738 1.1971,4.8488 2.278.2435-.3707-4.866 1.3258-4.866 .9272,0 1.3267,2.2702.7849,4.2413z" fill="#fff"/>
<path d="m-109.1875,505.0497c0,1.1736-.9514,2.125-2.125,2.125s-2.125-.9514-2.125-2.125 .9514-2.125 2.125-2.125 2.125.9514 2.125,2.125z" fill="#fff" transform="matrix(-.55115,0,0,.55115,319.97791,2142.4361)"/>
<path d="m398.2906,2407.5787c1.6443-.1945 2.7989-1.3299 3.0759-3.3827 1.5056,2.1781.9848,4.8677-1.457,5.9791" fill="#fff"/>
<path d="m400.0473,2409.2527c-.153-2.4079-4.5384-.5058-5.4941,2.3458 2.3369.3012 5.6614.2866 5.4941-2.3458z"/>
<path d="m-109.1875,505.0497c0,1.1736-.9514,2.125-2.125,2.125s-2.125-.9514-2.125-2.125 .9514-2.125 2.125-2.125 2.125.9514 2.125,2.125z" fill="#fff" transform="matrix(-.43693,0,0,.43693,344.4002,2205.069)"/>
<path d="m386.0226,2409.2527c.153-2.4079 4.5384-.5058 5.4941,2.3458-2.3369.3012-5.6614.2866-5.4941-2.3458z"/>
<path d="m386.0028,2413.1954 2.642,2.6606 2.2384-1.3667 2.1139,1.896 2.411-2.26 1.9942,1.1697 2.1204-2.2377" fill="none" stroke="#000"/>
<path d="m383.1054,2407.5787c-1.6443-.1945-2.7989-1.3299-3.0759-3.3827-1.5056,2.1781-.9848,4.8677 1.457,5.9791" fill="#fff"/>
</g>
</svg>
