<svg viewBox="0 0 512 512" xmlns="http://www.w3.org/2000/svg">

<g transform="matrix(18.68858,0,0,18.68858,-2950.4625,-20443.62111)">
<path d="m 172.531 1097.03 -1.3268 13.7294" fill="none" stroke="#fff"/>
<path d="m 173.246 1103.44 -2.6444 -0.2556 1.5705 -2.441 1.0739 2.6966 z" fill="#fff"/>
<path d="m 174.094 1097.62 -3.2226 -0.3113 1.3089 3.286 1.9138 -2.9747 z" fill="#fff"/>
<path d="m 174.972 1118.38 -4.3918 -13.0756" fill="none" stroke="#fff"/>
<path d="m 171.703 1112.82 2.5185 -0.8459 -0.4376 2.8694 -2.0809 -2.0235 z" fill="#fff"/>
<path d="m 174.177 1119.43 2.081 -0.6991 -1.7195 -1.6719 -0.3615 2.371 z" fill="#fff"/>
<path d="m 168.033 1118.38 4.3918 -13.0756" fill="none" stroke="#fff"/>
<path d="m 171.302 1112.82 -2.5185 -0.8459 0.4376 2.8694 2.0809 -2.0235 z" fill="#fff"/>
<path d="m 169.294 1118.8 -2.5185 -0.846 2.081 -2.0234 0.4375 2.8694 z" fill="#fff"/>
<path d="m 180.675 1114.01 -11.4976 -7.6199" fill="none" stroke="#fff"/>
<path d="m 174.679 1111.63 1.4677 -2.2145 1.4173 2.533 -2.8851 -0.3185 z" fill="#fff"/>
<path d="m 180.142 1115.65 1.7999 -2.7159 -3.5381 -0.3904 1.7383 3.1063 z" fill="#fff"/>
<path d="m 160.905 1105.11 13.3254 3.5625" fill="none" stroke="#fff"/>
<path d="m 167.346 1105.45 -0.6862 2.5666 -2.1501 -1.9499 2.8363 -0.6167 z" fill="#fff"/>
<path d="m 161.256 1103.82 -0.6861 2.5667 2.8363 -0.6169 -2.1502 -1.9498 z" fill="#fff"/>
<path d="m 164.739 1099.32 8.4731 10.8842" fill="none" stroke="#fff"/>
<path d="m 167.568 1105.12 2.0964 -1.632 -2.6336 -1.2204 0.5372 2.8524 z" fill="#fff"/>
<path d="m 163.695 1100.14 2.0965 -1.6319 0.5371 2.8524 -2.6335 -1.2205 z" fill="#fff"/>
<path d="m 161.924 1113.3 12.0839 -6.6512" fill="none" stroke="#fff"/>
<path d="m 166.814 1109.09 1.281 2.3275 -2.9015 0.081 1.6204 -2.4081 z" fill="#fff"/>
<path d="m 160.688 1111.81 1.8309 3.3263 2.3157 -3.4416 -4.1466 0.1153 z" fill="#fff"/>
<path d="m 179.41 1100.32 -9.8692 9.6363" fill="none" stroke="#fff"/>
<path d="m 175.821 1105.68 -1.856 -1.9009 2.7746 -0.8525 -0.9186 2.7534 z" fill="#fff"/>
<path d="m 180.332 1101.28 -1.8561 -1.9009 -0.9185 2.7535 2.7746 -0.8526 z" fill="#fff"/>
<path d="m 182.294 1105.79 -13.5252 2.707" fill="none" stroke="#fff"/>
<path d="m 175.843 1105.73 0.5215 2.605 2.2698 -1.809 -2.7913 -0.796 z" fill="#fff"/>
<path d="m 182.025 1104.49 0.5213 2.6051 -2.7913 -0.796 2.2699 -1.8091 z" fill="#fff"/>
<path d="m 165.69 1106.86 c 0 1.5081 -1.2226 2.7307 -2.7307 2.7307 s -2.7307 -1.2226 -2.7307 -2.7307 1.2226 -2.7308 2.7307 -2.7308 2.7307 1.2226 2.7307 2.7308 z" fill="#fff" transform="matrix(-.06447,.66709,-.66709,-.06447,921.41694,1059.5759)"/>
<path d="m 165.69 1106.86 c 0 1.5081 -1.2226 2.7307 -2.7307 2.7307 s -2.7307 -1.2226 -2.7307 -2.7307 1.2226 -2.7308 2.7307 -2.7308 2.7307 1.2226 2.7307 2.7308 z" fill="#fff" transform="matrix(-.14469,-.43078,.43078,-.14469,-277.90324,1349.782)"/>
<path d="m 165.69 1106.86 c 0 1.5081 -1.2226 2.7307 -2.7307 2.7307 s -2.7307 -1.2226 -2.7307 -2.7307 1.2226 -2.7308 2.7307 -2.7308 2.7307 1.2226 2.7307 2.7308 z" fill="#fff" transform="matrix(.17511,-.52133,-.52133,-.17511,716.40428,1397.5637)"/>
<path d="m 165.69 1106.86 c 0 1.5081 -1.2226 2.7307 -2.7307 2.7307 s -2.7307 -1.2226 -2.7307 -2.7307 1.2226 -2.7308 2.7307 -2.7308 2.7307 1.2226 2.7307 2.7308 z" fill="#fff" transform="matrix(-.56219,-.37259,.37259,-.56219,-139.29672,1797.5754)"/>
<path d="m 165.69 1106.86 c 0 1.5081 -1.2226 2.7307 -2.7307 2.7307 s -2.7307 -1.2226 -2.7307 -2.7307 1.2226 -2.7308 2.7307 -2.7308 2.7307 1.2226 2.7307 2.7308 z" fill="#fff" transform="matrix(.5313,.14204,-.14204,.5313,231.12873,493.77527)"/>
<path d="m 165.69 1106.86 c 0 1.5081 -1.2226 2.7307 -2.7307 2.7307 s -2.7307 -1.2226 -2.7307 -2.7307 1.2226 -2.7308 2.7307 -2.7308 2.7307 1.2226 2.7307 2.7308 z" fill="#fff" transform="matrix(.33783,.43396,.43396,-.33783,-370.91582,1402.1896)"/>
<path d="m 165.69 1106.86 c 0 1.5081 -1.2226 2.7307 -2.7307 2.7307 s -2.7307 -1.2226 -2.7307 -2.7307 1.2226 -2.7308 2.7307 -2.7308 2.7307 1.2226 2.7307 2.7308 z" fill="#fff" transform="matrix(.68855,-.37899,.37899,.68855,-370.64359,413.39976)"/>
<path d="m 165.69 1106.86 c 0 1.5081 -1.2226 2.7307 -2.7307 2.7307 s -2.7307 -1.2226 -2.7307 -2.7307 1.2226 -2.7308 2.7307 -2.7308 2.7307 1.2226 2.7307 2.7308 z" fill="#fff" transform="matrix(-.39349,.38421,-.38421,-.39349,669.10481,1472.9541)"/>
<path d="m 165.69 1106.86 c 0 1.5081 -1.2226 2.7307 -2.7307 2.7307 s -2.7307 -1.2226 -2.7307 -2.7307 1.2226 -2.7308 2.7307 -2.7308 2.7307 1.2226 2.7307 2.7308 z" fill="#fff" transform="matrix(-.53926,.10793,.10793,.53926,151.13065,491.23398)"/>
<path d="m 179.676 1110.36 c 0 3.1427 -2.5476 5.6903 -5.6902 5.6903 s -5.6902 -2.5476 -5.6902 -5.6903 2.5476 -5.6902 5.6902 -5.6902 5.6902 2.5476 5.6902 5.6902 z" fill="#fff" transform="matrix(1.01268,0,0,1.01268,-4.7178,-16.47285)"/>
<g transform="matrix(.35996,0,0,.45541,214.66275,673.60107)">
<path d="m -130.846 953.822 c 6.518 6.6634 14.8361 6.9503 22.1924 0 -6.5937 -6.2806 -15.4361 -6.6942 -22.1924 0 z" fill="#fff" fill-rule="evenodd" stroke="#000" stroke-width="2.4698"/>
</g>
<path d="m 173.713 1108.29 c 0 1.0715 -0.8687 1.9402 -1.9402 1.9402 s -1.9402 -0.8687 -1.9402 -1.9402 0.8687 -1.9402 1.9402 -1.9402 1.9402 0.8687 1.9402 1.9402 z" transform="matrix(.94752,0,0,.94752,8.74662,57.92203)"/>
</g>
</svg>
