<svg viewBox="0 0 512 512" xmlns="http://www.w3.org/2000/svg">

<g transform="matrix(18.68858,0,0,18.68858,-5277.35892,-9759.41356)">
<path d="m 305.833 532.207 c -2.3992 2.6735 -6.5481 4.6974 -10.7807 3.2475" fill="#fff" fill-rule="evenodd" stroke="#000"/>
<path d="m 304.124 531.958 c -2.9501 3.0178 -5.3783 6.4154 -7.0383 10.3721 -6.7814 5.215 -9.9343 3.5829 -11.6047 -0.8467 -7.4489 -9.4918 10.9297 -20.42 18.6429 -9.5254 z" fill="#fff" fill-rule="evenodd"/>
<path d="m 301.285 535.624 c -1.9196 1.843 -3.5901 3.8924 -4.2878 6.7481 -1.7612 1.3294 -3.6495 2.3703 -5.8438 2.7165" fill="none" stroke="#000"/>
<path d="m 303.236 530.894 c -1.2648 0.6358 -2.5065 1.5137 -3.717 2.7166 0.8346 1.5216 1.3083 2.9844 2.6229 4.289 2.2654 -1.6608 4.47 -3.0978 7.033 -4.5121 -0.8265 -1.8952 -1.8815 -3.6871 -3.5198 -4.9932 -3.1591 1.4325 -5.7827 1.1156 -8.7996 -0.8299" fill="#fff" fill-rule="evenodd" stroke="#000"/>
<path d="m 293.003 527.447 c 4.0204 4.3865 6.2913 3.2401 8.3447 0.5164 -1.7011 -1.9706 -3.8939 -3.6562 -5.886 -5.0991 -1.641 1.1405 -3.1899 1.9909 -4.9381 2.7218 -0.3624 2.0114 -0.2564 3.9385 -0.1154 5.8593" fill="#fff" fill-rule="evenodd" stroke="#000"/>
<path d="m 286.466 532.43 c 2.0984 0.8213 4.3385 1.8298 6.1432 2.923 1.1366 -1.2039 1.7461 -2.2298 2.3831 -3.6262 -2.5578 -1.5764 -5.064 -3.2274 -8.0289 -4.2168 -1.4939 1.2228 -2.3297 2.7723 -3.1568 4.2526 0.6097 1.5265 0.3749 3.2756 -0.6967 4.6574" fill="#fff" fill-rule="evenodd" stroke="#000"/>
<path d="m 291.941 537.084 c 0.4506 1.3474 0.6 2.764 0.4228 4.2557 -2.9141 -0.0621 -5.7797 -0.1722 -8.4902 0.2281 -0.6421 -1.5233 -0.8937 -3.2232 -0.9609 -5.0064 2.9163 -0.09 5.8596 0.0395 9.0283 0.5226 z" fill="#fff" fill-rule="evenodd" stroke="#000"/>
<path d="m 287.717 544.172 c 5.2047 -1.8468 6.4291 -1.7368 7.3082 2.3455 -2.6893 0.6993 -4.4012 1.3748 -7.0007 2.5902 -1.3537 -1.4282 -2.1502 -3.1084 -2.9405 -4.7914 0.4038 -0.9728 0.6479 -1.9648 0.3268 -3.0252" fill="#fff" fill-rule="evenodd" stroke="#000"/>
</g>
</svg>
