<svg viewBox="0 0 512 512" xmlns="http://www.w3.org/2000/svg">

<g transform="matrix(18.68858,0,0,18.68858,-1590.21713,-34037.77337)">
<path d="m99.3485,1845.0399c0,1.2143-.9844,2.1987-2.1987,2.1987s-2.1987-.9844-2.1987-2.1987 .9844-2.1986 2.1987-2.1986 2.1987.9843 2.1987,2.1986z" fill="#fff" stroke="#000" stroke-width=".9435" transform="matrix(1.05988,0,0,1.05988,-3.81779,-111.76751)"/>
<path d="m99.3485,1845.0399c0,1.2143-.9844,2.1987-2.1987,2.1987s-2.1987-.9844-2.1987-2.1987 .9844-2.1986 2.1987-2.1986 2.1987.9843 2.1987,2.1986z" fill="#fff" stroke="#000" stroke-width=".9435" transform="matrix(1.05988,0,0,1.05988,-2.59904,-114.39251)"/>
<path d="m99.3485,1845.0399c0,1.2143-.9844,2.1987-2.1987,2.1987s-2.1987-.9844-2.1987-2.1987 .9844-2.1986 2.1987-2.1986 2.1987.9843 2.1987,2.1986z" fill="#fff" stroke="#000" stroke-width=".9435" transform="matrix(1.05988,0,0,1.05988,-1.22404,-117.29876)"/>
<path d="m99.3485,1845.0399c0,1.2143-.9844,2.1987-2.1987,2.1987s-2.1987-.9844-2.1987-2.1987 .9844-2.1986 2.1987-2.1986 2.1987.9843 2.1987,2.1986z" fill="#fff" stroke="#000" stroke-width=".9435" transform="matrix(1.05988,0,0,1.05988,-6.56779,-109.73626)"/>
<path d="m95.6562,1823.5496c3.4134,2.0124 4.1231,5.1982 3.125,9.125 .973-4.3028 2.6535-6.6515 5.375-6.125" fill="none" stroke="#fff"/>
<path d="m90,1822.7684c7.7482-2.237 9.7294,4.4462 3.2812,5.9374 .5801-1.6353 1.2123-2.2395 1.3125-3.1874-1.9479.8606-4.8021,1.735-6.9062.625 2.2783-.2695 3.9851-1.5968 5.5312-1.9375-.7868-.1082-3.0984-.2464-3.2188-1.4375z" fill="#fff"/>
<path d="m99.3485,1845.0399c0,1.2143-.9844,2.1987-2.1987,2.1987s-2.1987-.9844-2.1987-2.1987 .9844-2.1986 2.1987-2.1986 2.1987.9843 2.1987,2.1986z" fill="#fff" stroke="#000" stroke-width=".9435" transform="matrix(1.05988,0,0,1.05988,-9.44279,-113.48626)"/>
<path d="m99.3485,1845.0399c0,1.2143-.9844,2.1987-2.1987,2.1987s-2.1987-.9844-2.1987-2.1987 .9844-2.1986 2.1987-2.1986 2.1987.9843 2.1987,2.1986z" fill="#fff" stroke="#000" stroke-width=".9435" transform="matrix(1.05988,0,0,1.05988,.43221,-120.17376)"/>
<path d="m99.3485,1845.0399c0,1.2143-.9844,2.1987-2.1987,2.1987s-2.1987-.9844-2.1987-2.1987 .9844-2.1986 2.1987-2.1986 2.1987.9843 2.1987,2.1986z" fill="#fff" stroke="#000" stroke-width=".9435" transform="matrix(1.05988,0,0,1.05988,-9.63029,-123.29876)"/>
<path d="m99.3485,1845.0399c0,1.2143-.9844,2.1987-2.1987,2.1987s-2.1987-.9844-2.1987-2.1987 .9844-2.1986 2.1987-2.1986 2.1987.9843 2.1987,2.1986z" fill="#fff" stroke="#000" stroke-width=".9435" transform="matrix(1.05988,0,0,1.05988,-2.41154,-122.67376)"/>
<path d="m99.3485,1845.0399c0,1.2143-.9844,2.1987-2.1987,2.1987s-2.1987-.9844-2.1987-2.1987 .9844-2.1986 2.1987-2.1986 2.1987.9843 2.1987,2.1986z" fill="#fff" stroke="#000" stroke-width=".9435" transform="matrix(1.05988,0,0,1.05988,-6.50529,-124.29876)"/>
<path d="m99.3485,1845.0399c0,1.2143-.9844,2.1987-2.1987,2.1987s-2.1987-.9844-2.1987-2.1987 .9844-2.1986 2.1987-2.1986 2.1987.9843 2.1987,2.1986z" fill="#fff" stroke="#000" stroke-width=".9435" transform="matrix(1.05988,0,0,1.05988,-11.19279,-118.79876)"/>
<path d="m99.3485,1845.0399c0,1.2143-.9844,2.1987-2.1987,2.1987s-2.1987-.9844-2.1987-2.1987 .9844-2.1986 2.1987-2.1986 2.1987.9843 2.1987,2.1986z" fill="#fff" stroke="#000" stroke-width=".9435" transform="matrix(1.05988,0,0,1.05988,-7.06779,-113.41748)"/>
<path d="m99.3485,1845.0399c0,1.2143-.9844,2.1987-2.1987,2.1987s-2.1987-.9844-2.1987-2.1987 .9844-2.1986 2.1987-2.1986 2.1987.9843 2.1987,2.1986z" fill="#fff" stroke="#000" stroke-width=".9435" transform="matrix(1.05988,0,0,1.05988,-5.75529,-116.36126)"/>
<path d="m99.3485,1845.0399c0,1.2143-.9844,2.1987-2.1987,2.1987s-2.1987-.9844-2.1987-2.1987 .9844-2.1986 2.1987-2.1986 2.1987.9843 2.1987,2.1986z" fill="#fff" stroke="#000" stroke-width=".9435" transform="matrix(1.05988,0,0,1.05988,-3.47404,-119.39251)"/>
<path d="m99.3485,1845.0399c0,1.2143-.9844,2.1987-2.1987,2.1987s-2.1987-.9844-2.1987-2.1987 .9844-2.1986 2.1987-2.1986 2.1987.9843 2.1987,2.1986z" fill="#fff" stroke="#000" stroke-width=".9435" transform="matrix(1.05988,0,0,1.05988,-9.44279,-116.67376)"/>
<path d="m99.3485,1845.0399c0,1.2143-.9844,2.1987-2.1987,2.1987s-2.1987-.9844-2.1987-2.1987 .9844-2.1986 2.1987-2.1986 2.1987.9843 2.1987,2.1986z" fill="#fff" stroke="#000" stroke-width=".9435" transform="matrix(1.05988,0,0,1.05988,-7.44279,-120.54876)"/>
<path d="m103.8563,1826.0474c2.9172-.1528 4.3761,1.8211 5.922,3.6681l-2.3202-.8838c.9928,1.0734 1.0714,2.3186.685,3.4692-.275-1.1221-.6749-2.1544-1.6352-2.7842-.002,1.2329-.6348,1.9409-1.7899,2.2981 .6996-1.675 1.1806-3.991-1.2595-5.1265" fill="#fff"/>
<path d="m99.2601,1829.6493c1.1196-2.6333 1.3983-5.3366 1.1049-8.0876" fill="none" stroke="#fff"/>
<path d="m91.8576,1821.7827h12.9047" fill="none" stroke="#000"/>
</g>
</svg>
