<svg viewBox="0 0 512 512" xmlns="http://www.w3.org/2000/svg">

<g transform="matrix(18.68858,0,0,18.68858,5157.94768,-6070.26234)">
<path d="m -258.757 333.53 c 4.8064 4.1911 6.2268 7.309 5.8594 13.3908 3.4636 -4.6446 3.3594 -10.384 0.0127 -15.3721 -1.5155 -1.6284 -4.7591 -0.4635 -5.8721 1.9813 z" fill="#fff" fill-rule="evenodd" stroke="#000"/>
<path d="m -262.544 330.879 c 4.8064 4.1911 6.2268 7.309 5.8594 13.3908 3.4636 -4.6446 3.3594 -10.384 0.0127 -15.3721 -1.5155 -1.6284 -4.7591 -0.4635 -5.8721 1.9813 z" fill="#fff" fill-rule="evenodd" stroke="#000"/>
<path d="m -267.563 328.985 c 4.8064 4.1911 6.2268 7.3091 5.8594 13.3908 3.4636 -4.6446 3.3594 -10.384 0.0127 -15.3721 -1.5155 -1.6284 -4.7591 -0.4635 -5.8721 1.9813 z" fill="#fff" fill-rule="evenodd" stroke="#000"/>
<path d="m -269.887 337.129 c -0.3628 5.305 -0.0147 6.5343 2.8305 10.4562 -4.7806 -0.6963 -6.4931 -3.2479 -7.4609 -8.1622 -0.0666 -1.8536 2.5327 -3.0793 4.6304 -2.294 z" fill="#fff" fill-rule="evenodd" stroke="#000"/>
</g>
</svg>
