<svg viewBox="0 0 512 512" xmlns="http://www.w3.org/2000/svg">

<g transform="matrix(18.68858,0,0,18.68858,-13218.20334,-43518.75748)">
<path d="m710.3185,2342.0941-1.9477,5.5151 11.2244,4.0082 .938-2.6876-1.7264-3.8045-1.0225,2.8953-1.7657-3.891-1.0225,2.8954-1.7657-3.891-1.0679,3.024-1.8441-4.0639z" fill="#fff"/>
<path d="m197.8125,776.8309c0,1.001-.8115,1.8125-1.8125,1.8125s-1.8125-.8115-1.8125-1.8125 .8115-1.8125 1.8125-1.8125 1.8125.8115 1.8125,1.8125z" fill="#fff" stroke="#000" stroke-width=".7087" transform="matrix(1.25769,.60131,-.61148,1.29091,949.54092,1230.2525)"/>
<path d="m731.7106,2342.0941 1.9477,5.5151-11.2244,4.0082-.938-2.6876 1.7264-3.8045 1.0225,2.8953 1.7657-3.891 1.0225,2.8954 1.7657-3.891 1.0679,3.024 1.8441-4.0639z" fill="#fff"/>
<path d="m229.7188,839.8466c0,.4746-.3848.8594-.8594.8594s-.8594-.3847-.8594-.8594 .3847-.8594.8594-.8594 .8594.3848.8594.8594z" transform="matrix(1.09091,0,0,1.09091,471.34262,1434.7138)"/>
</g>
<g transform="matrix(18.68858,0,0,18.68858,-13175.01963,-43547.65563)">
<path d="m722.0664,2341.5502c0,1.8656-1.5055,3.378-3.3625,3.378s-3.3626-1.5124-3.3626-3.378 2.1919-3.9066 3.3626-8.2957c1.1713,4.3917 3.3625,6.43 3.3625,8.2957z" stroke="#fff"/>
<path d="m721.7328,2340.1502c.1994,1.0983-.5251,2.1494-1.6183,2.3479s-2.141-.5308-2.3404-1.6291 .7242-3.5432.9442-6.252c1.1589,2.4599 2.8151,4.435 3.0145,5.5332z" fill="#fff"/>
</g>
</svg>
