<svg viewBox="0 0 512 512" xmlns="http://www.w3.org/2000/svg">

<g transform="matrix(18.68858,0,0,18.68858,-13218.20334,-43518.75748)">
<path d="m 710.318 2342.09 -1.9477 5.5151 11.2244 4.0082 0.938 -2.6876 -1.7264 -3.8045 -1.0225 2.8953 -1.7657 -3.891 -1.0225 2.8954 -1.7657 -3.891 -1.0679 3.024 -1.8441 -4.0639 z" fill="#fff"/>
<path d="m 197.812 776.831 c 0 1.001 -0.8115 1.8125 -1.8125 1.8125 s -1.8125 -0.8115 -1.8125 -1.8125 0.8115 -1.8125 1.8125 -1.8125 1.8125 0.8115 1.8125 1.8125 z" fill="#fff" stroke="#000" stroke-width=".7087" transform="matrix(1.25769,.60131,-.61148,1.29091,949.54092,1230.2525)"/>
<path d="m 731.711 2342.09 1.9477 5.5151 -11.2244 4.0082 -0.938 -2.6876 1.7264 -3.8045 1.0225 2.8953 1.7657 -3.891 1.0225 2.8954 1.7657 -3.891 1.0679 3.024 1.8441 -4.0639 z" fill="#fff"/>
<path d="m 229.719 839.847 c 0 0.4746 -0.3848 0.8594 -0.8594 0.8594 s -0.8594 -0.3847 -0.8594 -0.8594 0.3847 -0.8594 0.8594 -0.8594 0.8594 0.3848 0.8594 0.8594 z" transform="matrix(1.09091,0,0,1.09091,471.34262,1434.7138)"/>
</g>
<g transform="matrix(18.68858,0,0,18.68858,-13175.01963,-43547.65563)">
<path d="m 722.066 2341.55 c 0 1.8656 -1.5055 3.378 -3.3625 3.378 s -3.3626 -1.5124 -3.3626 -3.378 2.1919 -3.9066 3.3626 -8.2957 c 1.1713 4.3917 3.3625 6.43 3.3625 8.2957 z" stroke="#fff"/>
<path d="m 721.733 2340.15 c 0.1994 1.0983 -0.5251 2.1494 -1.6183 2.3479 s -2.141 -0.5308 -2.3404 -1.6291 0.7242 -3.5432 0.9442 -6.252 c 1.1589 2.4599 2.8151 4.435 3.0145 5.5332 z" fill="#fff"/>
</g>
</svg>
