<svg xmlns="http://www.w3.org/2000/svg" viewBox="0 0 512 512">
<g transform="matrix(15 0 0 15 16 -3284)">
<use width="744.094" height="1052.362" transform="translate(36 216)"/>
<path fill="#fff" d="m16,220c-6.4,0-8,3.2125-8,4.8125v4.7812c0,.8864 .7073,1.5938 1.5938,1.5938h1.5938v9.625h-1.5938c-.8864,0-1.5938,.7073-1.5938,1.5938v4.7812c0,1.6 1.6,4.8125 8,4.8125 6.4,0 8-3.2125 8-4.8125v-4.7812c0-.8864-.7074-1.5938-1.5938-1.5938h-1.5938v-9.625h1.5938c.8864,0 1.5938-.7073 1.5938-1.5938v-4.7812c0-1.6-1.6-4.8125-8-4.8125zm-1.5938,11.1875 3.1875,0 0,9.625-3.1875,0 0-9.625z"/>
</g>
</svg>
