<svg viewBox="0 0 512 512" xmlns="http://www.w3.org/2000/svg">

<g transform="matrix(18.68858,0,0,18.68858,-910.06121,-35398.75239)">
<path d="m53.0024,1897.4059 1.7157,3.2252c3.8419-3.2127 10.7028-4.012 16.4328-2.6104-4.947-3.9553-13.7073-3.1943-18.1484-.6148z" fill="#fff"/>
<path d="m64.5793,1898.3797c-1.742,1.0713-2.7846,3.0416-3.8683,4.9593l3.8683,2.7048 3.8683-2.7048c-1.0147-1.8973-2.0043-3.8169-3.8683-4.9593z" fill="#fff"/>
<path d="m63.5243,1899.9946-5.04,5.9837 5.04,8.5601 4.883-3.8094z" fill="#fff"/>
<path d="m62.8354,1904.3496c-2.3029,3.4633-3.6812,9.833-5.1138,16.0323h10.2277c-1.3415-6.1336-2.6496-12.3395-5.1138-16.0323z" fill="#fff"/>
<path d="m57.0854,1903.5445-.1178,4.6329 4.9077,2.3163z" fill="#fff"/>
<path d="m70.2679,1918.3248c-5.4039-11.2226-13.7097-10.9912-17.0643-21.0002" fill="none" stroke="#fff"/>
</g>
</svg>
