<svg viewBox="0 0 512 512" xmlns="http://www.w3.org/2000/svg">

<g transform="matrix(18.68858,0,0,18.68858,-2099.19921,-11643.46301)">
<path d="m 139.205 632.327 -26.3257 12.3339 v 5.2375 h 26.3257 v -17.5714 z" fill="#fff" stroke="#000"/>
<path d="m 126.654 623.907 -3.4366 2.7047 4.0423 8.5535 4.2782 -10.3112 -4.8838 -0.947 z" fill="#fff" fill-rule="evenodd"/>
<path d="m 113.867 641.36 0.8832 -2.3895 8.3161 0.1779 -9.1993 2.2116 z" fill="#fff" fill-rule="evenodd"/>
<path d="m 128.886 635.513 7.7168 -7.2241 -1.3838 -2.1473 -3.2926 1.6224 -3.0404 7.749 z" fill="#fff" fill-rule="evenodd"/>
<path d="m 119.859 624.013 6.0053 11.9346 -8.4184 -11.445 2.4131 -0.4896 z" fill="#fff" fill-rule="evenodd"/>
<path d="m 113.925 630.99 -0.6074 3.138 10.4454 3.137 -5.4178 -4.3854 -0.7086 1.6534 -3.7116 -3.5429 z" fill="#fff" fill-rule="evenodd"/>
<path d="m 114.692 624.539 9.7127 11.6288 -11.1232 -9.6572 1.4105 -1.9717 z" fill="#fff" fill-rule="evenodd"/>
<path d="m 138.121 628.548 -3.4252 4.45 3.9723 -2.0536 -0.5471 -2.3964 z" fill="#fff" fill-rule="evenodd"/>
<path d="m 113.388 635.591 5.6203 2.0358 -5.5722 0.0972 -0.0481 -2.133 z" fill="#fff" fill-rule="evenodd"/>
<path d="m 118.938 641.425 2.7812 3.5 0.9688 -0.8438 3.2188 1.1875 0.625 0.8125 5.6562 -0.1562 -1.7782 -1.9004 2.4657 -2.6621 1.8125 0.0937 0.875 -3.4062 -1.6875 -3.9375 -14.9375 7.3125 z" fill-rule="evenodd"/>
<path d="m 132.156 640.987 6.875 0.8438" fill="none" stroke="#000"/>
<path d="m 122.531 643.956 -3.0938 5.9375" fill="none" stroke="#000"/>
<path d="m 126.125 644.518 1.0938 5.375" fill="none" stroke="#000"/>
</g>
</svg>
