<svg viewBox="0 0 512 512" xmlns="http://www.w3.org/2000/svg">

<g transform="matrix(18.68858,0,0,18.68858,-2099.19921,-11643.46301)">
<path d="m139.2049,632.3265-26.3257,12.3339v5.2375h26.3257v-17.5714z" fill="#fff" stroke="#000"/>
<path d="m126.654,623.9074-3.4366,2.7047 4.0423,8.5535 4.2782-10.3112-4.8838-.947z" fill="#fff" fill-rule="evenodd"/>
<path d="m113.8667,641.3603 .8832-2.3895 8.3161.1779-9.1993,2.2116z" fill="#fff" fill-rule="evenodd"/>
<path d="m128.8863,635.5132 7.7168-7.2241-1.3838-2.1473-3.2926,1.6224-3.0404,7.749z" fill="#fff" fill-rule="evenodd"/>
<path d="m119.8591,624.0125 6.0053,11.9346-8.4184-11.445 2.4131-.4896z" fill="#fff" fill-rule="evenodd"/>
<path d="m113.9248,630.99-.6074,3.138 10.4454,3.137-5.4178-4.3854-.7086,1.6534-3.7116-3.5429z" fill="#fff" fill-rule="evenodd"/>
<path d="m114.6917,624.5392 9.7127,11.6288-11.1232-9.6572 1.4105-1.9717z" fill="#fff" fill-rule="evenodd"/>
<path d="m138.1213,628.5481-3.4252,4.45 3.9723-2.0536-.5471-2.3964z" fill="#fff" fill-rule="evenodd"/>
<path d="m113.3881,635.591 5.6203,2.0358-5.5722.0972-.0481-2.133z" fill="#fff" fill-rule="evenodd"/>
<path d="m118.9375,641.4247 2.7812,3.5 .9688-.8438 3.2188,1.1875 .625.8125 5.6562-.1562-1.7782-1.9004 2.4657-2.6621 1.8125.0937 .875-3.4062-1.6875-3.9375-14.9375,7.3125z" fill-rule="evenodd"/>
<path d="m132.1563,640.9872 6.875.8438" fill="none" stroke="#000"/>
<path d="m122.5313,643.9559-3.0938,5.9375" fill="none" stroke="#000"/>
<path d="m126.125,644.5184 1.0938,5.375" fill="none" stroke="#000"/>
</g>
</svg>
