<svg viewBox="0 0 512 512" xmlns="http://www.w3.org/2000/svg">

<g transform="matrix(18.68858,0,0,18.68858,-11803.0006,-28580.80055)">
<g transform="translate(109.6142,254.5002)">
<path d="m 525.779 1276 v 5.9459 l 10.042 12.4486 10.042 -12.4486 v -5.9459 h -3.4472 v 2.8046 h -2.0983 v -2.8046 h -3.4847 v 2.8046 h -2.0608 v -2.8046 h -3.4847 v 2.8046 h -2.0608 v -2.8046 h -3.4472 z" fill="#fff"/>
<path d="m 529.052 1284.78 h 13.5392 v 15.322 h -13.5392 z" fill="#fff" stroke="#fff"/>
<path d="m 526.946 1296.09 h 17.7509 l 1.5357 4.9676 h -20.8222 l 1.5357 -4.9676 z" fill="#fff"/>
</g>
<path d="m 645.92 1534.58 c 1.3309 0.1729 2.3699 1.6209 2.3699 3.3689 0 0.9679 -0.3316 1.8323 -0.8422 2.4482 2.7678 0.5207 4.0968 4.5356 3.2818 8.4612 h -2.2242 l -0.5092 6.8357 h -4.877 l -0.4505 -6.8357 h -2.1263 c -0.7187 -3.8226 0.2388 -8.0315 3.2623 -8.5004 -0.4887 -0.6131 -0.803 -1.465 -0.803 -2.409 0 -1.8644 1.1867 -3.3689 2.6441 -3.3689 0.0911 0 0.1855 -0.014 0.2742 0 z" fill-rule="evenodd"/>
<path d="m 642.286 1550.61 -0.0626 -6.3862" fill="none" stroke="#fff"/>
<path d="m 648.895 1550.61 0.0627 -6.3862" fill="none" stroke="#fff"/>
<path d="m 645.56 1555.58 v -7.6114" fill="none" stroke="#fff"/>
</g>
</svg>
