<svg viewBox="0 0 512 512" xmlns="http://www.w3.org/2000/svg">

<g transform="matrix(18.68858,0,0,18.68858,-11803.0006,-28580.80055)">
<g transform="translate(109.6142,254.5002)">
<path d="m525.7794,1275.9955v5.9459l10.042,12.4486 10.042-12.4486v-5.9459h-3.4472v2.8046h-2.0983v-2.8046h-3.4847v2.8046h-2.0608v-2.8046h-3.4847v2.8046h-2.0608v-2.8046h-3.4472z" fill="#fff"/>
<path d="m529.0518,1284.7802h13.5392v15.322h-13.5392z" fill="#fff" stroke="#fff"/>
<path d="m526.946,1296.0926h17.7509l1.5357,4.9676h-20.8222l1.5357-4.9676z" fill="#fff"/>
</g>
<path d="m645.9196,1534.581c1.3309.1729 2.3699,1.6209 2.3699,3.3689 0,.9679-.3316,1.8323-.8422,2.4482 2.7678.5207 4.0968,4.5356 3.2818,8.4612h-2.2242l-.5092,6.8357h-4.877l-.4505-6.8357h-2.1263c-.7187-3.8226.2388-8.0315 3.2623-8.5004-.4887-.6131-.803-1.465-.803-2.409 0-1.8644 1.1867-3.3689 2.6441-3.3689 .0911,0 .1855-.014.2742,0z" fill-rule="evenodd"/>
<path d="m642.2856,1550.6097-.0626-6.3862" fill="none" stroke="#fff"/>
<path d="m648.8946,1550.6097 .0627-6.3862" fill="none" stroke="#fff"/>
<path d="m645.5601,1555.584v-7.6114" fill="none" stroke="#fff"/>
</g>
</svg>
