<svg viewBox="0 0 512 512" xmlns="http://www.w3.org/2000/svg">

<g transform="translate(0,-540.3622)">
<path d="m159.375,30.7188v94.1875l205.25-51.0625v-43.125h-205.25zm205.25,61.3125-205.25,51.0625v45.0625l205.25-51.6562v-44.4688z" fill="#fff" transform="translate(0,540.3622)"/>
<path d="m380.7814,571.1538h27.7822v448.4531h-27.7822z" fill="#fff"/>
<path d="m114.2397,571.1538h27.7822v448.4531h-27.7822z" fill="#fff"/>
<path d="m159.375,371.7188v45.2188h67.7188c3.8206-17.5787 18.5324-30.6875 36.0938-30.6875s32.2408,13.1104 36.0625,30.6875h65.375v-44.2188l-205.25-1zm0,62.875v43.875h205.25v-43.875h-65.25c-3.6677,17.8017-18.4786,31.125-36.1875,31.125s-32.5191-13.3243-36.1875-31.125h-67.625z" fill="#fff" transform="translate(0,540.3622)"/>
</g>
</svg>
