<svg viewBox="0 0 512 512" xmlns="http://www.w3.org/2000/svg">

<g transform="translate(0,-540.3622)">
<path d="m 159.375 30.7188 v 94.1875 l 205.25 -51.0625 v -43.125 h -205.25 z m 205.25 61.3125 -205.25 51.0625 v 45.0625 l 205.25 -51.6562 v -44.4688 z" fill="#fff" transform="translate(0,540.3622)"/>
<path d="m 380.781 571.154 h 27.7822 v 448.453 h -27.7822 z" fill="#fff"/>
<path d="m 114.24 571.154 h 27.7822 v 448.453 h -27.7822 z" fill="#fff"/>
<path d="m 159.375 371.719 v 45.2188 h 67.7188 c 3.8206 -17.5787 18.5324 -30.6875 36.0938 -30.6875 s 32.2408 13.1104 36.0625 30.6875 h 65.375 v -44.2188 l -205.25 -1 z m 0 62.875 v 43.875 h 205.25 v -43.875 h -65.25 c -3.6677 17.8017 -18.4786 31.125 -36.1875 31.125 s -32.5191 -13.3243 -36.1875 -31.125 h -67.625 z" fill="#fff" transform="translate(0,540.3622)"/>
</g>
</svg>
