<svg viewBox="0 0 512 512" xmlns="http://www.w3.org/2000/svg">

<g transform="matrix(18.68858,0,0,18.68858,-3632.5561,-25865.26924)">
<path d="m 215.033 1386.29 4.7811 -0.6408 -3.1535 6.1321 -2.9802 -0.2161 z" fill="#fff" stroke="#fff"/>
<path d="m 216.931 1390.58 2.0547 0.9768" fill="none" stroke="#fff"/>
<path d="m 217.841 1388.91 2.0547 0.9772" fill="none" stroke="#fff"/>
<path d="m 218.808 1387.19 2.0546 0.9768" fill="none" stroke="#fff"/>
<path d="m 197.321 1408.35 c 4.3555 3.6027 8.3918 -0.9452 8.3457 -3.4484 2.0669 -0.2008 4.7529 -1.423 5.645 -2.9262 -6.1251 -0.4997 -4.415 -5.5896 -7.3704 -6.1858 -2.455 -0.4955 -3.6703 1.6761 -3.4108 4.0196 -3.8564 0.038 -6.7761 5.5907 -3.2095 8.5408 z" fill="#fff" stroke="#fff"/>
<path d="m -853.644 1130.93 h 16.8985 v 1.9941 h -16.8985 z" stroke="#fff" transform="matrix(.70416,-.71004,.71024,.70396,0,0)"/>
<path d="m 207.477 1397.78 c 0 1.1223 -0.9098 2.032 -2.032 2.032 s -2.032 -0.9097 -2.032 -2.032 0.9098 -2.032 2.032 -2.032 2.032 0.9098 2.032 2.032 z" stroke="#fff" stroke-width=".7295" transform="matrix(.96521,-.97351,.9735,.96522,-1357.5919,255.33004)"/>
</g>
</svg>
