<svg viewBox="0 0 512 512" xmlns="http://www.w3.org/2000/svg">

<g transform="matrix(18.68858,0,0,18.68858,-3632.5561,-25865.26924)">
<path d="m215.0327,1386.285 4.7811-.6408-3.1535,6.1321-2.9802-.2161z" fill="#fff" stroke="#fff"/>
<path d="m216.9315,1390.5756 2.0547.9768" fill="none" stroke="#fff"/>
<path d="m217.8411,1388.9105 2.0547.9772" fill="none" stroke="#fff"/>
<path d="m218.8078,1387.1882 2.0546.9768" fill="none" stroke="#fff"/>
<path d="m197.3205,1408.3547c4.3555,3.6027 8.3918-.9452 8.3457-3.4484 2.0669-.2008 4.7529-1.423 5.645-2.9262-6.1251-.4997-4.415-5.5896-7.3704-6.1858-2.455-.4955-3.6703,1.6761-3.4108,4.0196-3.8564.038-6.7761,5.5907-3.2095,8.5408z" fill="#fff" stroke="#fff"/>
<path d="m-853.644,1130.9323h16.8985v1.9941h-16.8985z" stroke="#fff" transform="matrix(.70416,-.71004,.71024,.70396,0,0)"/>
<path d="m207.4767,1397.7783c0,1.1223-.9098,2.032-2.032,2.032s-2.032-.9097-2.032-2.032 .9098-2.032 2.032-2.032 2.032.9098 2.032,2.032z" stroke="#fff" stroke-width=".7295" transform="matrix(.96521,-.97351,.9735,.96522,-1357.5919,255.33004)"/>
</g>
</svg>
