<svg viewBox="0 0 512 512" xmlns="http://www.w3.org/2000/svg">

<g transform="matrix(18.68858,0,0,18.68858,5784.42812,-14890.5937)">
<path d="m -308.548 797.764 v 7.8438 l 8.6875 8.6875 6.9062 -6.9062 -9.625 -9.625 h -5.9688 z" fill="#fff"/>
<path d="m -308.576 797.733 v 4.0716 l 9.9597 9.9597 2.4429 -2.4429 -11.5883 -11.5883 h -0.8143 z"/>
<path d="m 31.2895 466.834 c 0 3.2462 -2.6316 5.8778 -5.8778 5.8778 s -5.8778 -2.6316 -5.8778 -5.8778 2.6316 -5.8778 5.8778 -5.8778 5.8778 2.6316 5.8778 5.8778 z" fill="#fff" stroke="#000" stroke-width="1.455" transform="matrix(.36378,.36378,-.64924,.64924,-2.69421,498.36112)"/>
<path d="m 31.2895 466.834 c 0 3.2462 -2.6316 5.8778 -5.8778 5.8778 s -5.8778 -2.6316 -5.8778 -5.8778 2.6316 -5.8778 5.8778 -5.8778 5.8778 2.6316 5.8778 5.8778 z" transform="matrix(.22785,.22785,-.40951,.40951,-111.15234,613.72809)"/>
<path d="m -309.042 803.245 8.4195 8.4195" fill="none" stroke="#000"/>
<path d="m -296.209 821.617 c 0.3768 -5.7286 2.1517 -4.1274 4.5133 1.0095 -1.3708 -5.6524 2.7264 -3.8694 8.119 0.4385 -4.4229 -5.1393 -5.6115 -8.7092 0.563 -7.2053 -6.0561 -2.1912 -7.0026 -4.3812 -1.7707 -4.5467 -10.886 -4.0064 -15.0018 -0.007 -11.4246 10.304 z" fill="#fff" fill-rule="evenodd"/>
</g>
</svg>
