<svg viewBox="0 0 512 512" xmlns="http://www.w3.org/2000/svg">

<g transform="matrix(18.68858,0,0,18.68858,-908.0256,-32683.91884)">
<path d="m62.6875,1751.3125-13.0312,13v4.75l15.4062-15.375-2.375-2.375z" fill="#fff"/>
<path d="m75.4434,1749.9406c-3.696,4.0789-11.1365,2.9427-14.1893-.1103l-3.9994,1.742 6.1258,6.1256c.8863.886.8863,2.326-8.9e-05,3.2124s-2.3259.8861-3.2121-.0002l-6.1257-6.1255-1.5026,3.7599c3.053,3.0528 4.2248,10.4574.3494,13.9502 13.1463.4083 23.1657-9.611 22.5541-22.5541z" fill="#fff" stroke="#000"/>
<path d="m71.6116,1750.9167c-.0972,9.6214-7.9952,17.5189-17.7762,17.7761" fill="none" stroke="#000"/>
<path d="m60.8719,1768.5973 5.8863-3.869 4.3676-7.088-.2315,11.5738z" fill="#fff"/>
</g>
</svg>
