<svg viewBox="0 0 512 512" xmlns="http://www.w3.org/2000/svg">

<g transform="matrix(18.68858,0,0,18.68858,-4021.60222,-327.38786)">
<path d="m 241.468 18.9169 -12.7729 3.4458 c 1.7063 0.5688 3.2103 1.3311 4.5081 2.3318 -0.496 2.2799 -2.4939 3.9899 -4.9226 3.9899 -2.8031 8e-06 -5.0781 -2.275 -5.0781 -5.0781 0 -1.3616 0.5256 -2.6114 1.3991 -3.5236 -1.9154 0.5802 -3.6944 1.6217 -5.2076 3.1349 s -2.5806 3.3182 -3.1608 5.2335 c 0.9147 -0.8885 2.1745 -1.425 3.5495 -1.425 1.4016 7e-06 2.6562 0.5836 3.5753 1.5027 s 1.5027 2.1738 1.5027 3.5754 c -1e-05 2.8031 -2.275 5.0781 -5.0781 5.0781 -1.3749 6e-06 -2.6348 -0.5364 -3.5495 -1.425 0.5802 1.9157 1.6215 3.746 3.1349 5.2594 s 3.3437 2.5548 5.2594 3.1349 c -0.8885 -0.9146 -1.425 -2.1745 -1.425 -3.5495 2e-05 -2.8031 2.275 -5.0781 5.0781 -5.0781 1.4016 1.1e-05 2.6562 0.5836 3.5754 1.5027 s 1.5027 2.1738 1.5027 3.5754 c 1e-05 1.375 -0.5364 2.6348 -1.425 3.5495 1.9154 -0.5802 3.7203 -1.6477 5.2335 -3.1608 s 2.5547 -3.2923 3.1349 -5.2076 c -0.9122 0.8734 -2.1619 1.3991 -3.5236 1.3991 -2.8031 9e-06 -5.0781 -2.275 -5.0781 -5.0781 1e-05 -2.417 1.6996 -4.3886 3.964 -4.8967 0.9854 1.2903 1.7728 2.7764 2.3577 4.4822 l 3.4458 -12.7729 z" fill="#fff"/>
</g>
</svg>
