<svg viewBox="0 0 512 512" xmlns="http://www.w3.org/2000/svg">

<g transform="matrix(18.68858,0,0,18.68858,-908.0256,-32683.91884)">
<path d="m 62.6875 1751.31 -13.0312 13 v 4.75 l 15.4062 -15.375 -2.375 -2.375 z" fill="#fff"/>
<path d="m 75.4434 1749.94 c -3.696 4.0789 -11.1365 2.9427 -14.1893 -0.1103 l -3.9994 1.742 6.1258 6.1256 c 0.8863 0.886 0.8863 2.326 -8.9e-05 3.2124 s -2.3259 0.8861 -3.2121 -0.0002 l -6.1257 -6.1255 -1.5026 3.7599 c 3.053 3.0528 4.2248 10.4574 0.3494 13.9502 13.1463 0.4083 23.1657 -9.611 22.5541 -22.5541 z" fill="#fff" stroke="#000"/>
<path d="m 71.6116 1750.92 c -0.0972 9.6214 -7.9952 17.5189 -17.7762 17.7761" fill="none" stroke="#000"/>
<path d="m 60.8719 1768.6 5.8863 -3.869 4.3676 -7.088 -0.2315 11.5738 z" fill="#fff"/>
</g>
</svg>
