<svg viewBox="0 0 512 512" xmlns="http://www.w3.org/2000/svg">

<g transform="matrix(18.68858,0,0,18.68858,-7037.87465,-32681.44968)">
<path d="m402.3311,1756.9739c.2253,7.1763-11.0178,12.2183-12.0734,16.1578-1.1534-4.3046-11.8698-8.6694-12.109-16.1578-.2297-7.1914 8.6357-8.7514 12.109-2.7356 3.5582-6.1628 11.8514-4.3354 12.0734,2.7356z" stroke="#fff"/>
<path d="m390.2394,1773.2589v-19.8502c7.8512-7.5725 14.092.6892 11.4734,7.04-2.2201,5.3844-10.9673,9.4861-11.4734,12.8102z" fill="#fff"/>
<path d="m392.6478,1764.3088c0,1.1085-.8986,2.007-2.007,2.007s-2.007-.8985-2.007-2.007 .8986-2.007 2.007-2.007 2.007.8986 2.007,2.007z" fill="#fff" transform="matrix(-1,0,0,1,780.63933,-.74928)"/>
<path d="m392.6478,1764.3088c0,1.1085-.8986,2.007-2.007,2.007s-2.007-.8985-2.007-2.007 .8986-2.007 2.007-2.007 2.007.8986 2.007,2.007z" fill="#fff" transform="matrix(-1,0,0,1,776.89294,-9.04484)"/>
<path d="m392.6478,1764.3088c0,1.1085-.8986,2.007-2.007,2.007s-2.007-.8985-2.007-2.007 .8986-2.007 2.007-2.007 2.007.8986 2.007,2.007z" fill="#fff" transform="matrix(-.58667,0,0,.58667,613.52813,722.07603)"/>
<path d="m392.6478,1764.3088c0,1.1085-.8986,2.007-2.007,2.007s-2.007-.8985-2.007-2.007 .8986-2.007 2.007-2.007 2.007.8986 2.007,2.007z" fill="#fff" transform="matrix(.76,0,0,-.76,90.97075,3108.6891)"/>
<path d="m392.6478,1764.3088c0,1.1085-.8986,2.007-2.007,2.007s-2.007-.8985-2.007-2.007 .8986-2.007 2.007-2.007 2.007.8986 2.007,2.007z" fill="#fff" transform="matrix(-.54667,0,0,.54667,601.26852,794.33698)"/>
<path d="m392.6478,1764.3088c0,1.1085-.8986,2.007-2.007,2.007s-2.007-.8985-2.007-2.007 .8986-2.007 2.007-2.007 2.007.8986 2.007,2.007z" fill="#fff" transform="matrix(.69333,0,0,-.69333,115.0065,2985.1813)"/>
</g>
</svg>
