<svg viewBox="0 0 512 512" xmlns="http://www.w3.org/2000/svg">

<g transform="matrix(18.68858,0,0,18.68858,-6355.9564,-34036.44835)">
<path d="m 341.273 1846.01 c 0.4316 1.0811 1.6837 1.946 2.9546 1.5405 2.7748 -0.8852 3.2612 -5.465 10.232 -16.4337 1.2324 -0.4904 3.3404 0.754 3.5443 1.7364 l -0.0002 0.0003 c 0.1297 0.6248 0.2437 1.1741 0.6685 1.4192 0.9204 0.5314 1.9022 -0.7173 2.8522 -2.3626 s 1.5226 -3.0891 0.6022 -3.6205 c -0.4865 -0.2808 -1.1233 -0.069 -1.8128 0.2761 -1.2986 0.6505 -1.8709 -0.099 -2.3679 -1.6977 -0.4387 -1.4116 -1.9471 -2.5342 -3.1115 -3.2019 -2.9105 -1.6671 -6.8977 -1.8483 -9.4854 -0.6816 4.5017 0.4248 8.3988 3.3062 6.3824 6.5574 -6.8594 11.0597 -11.4489 13.9869 -10.4586 16.4681 z" fill="#fff"/>
<path d="m 360.322 1844.66 -6.3348 -6.2853" fill="none" stroke="#fff"/>
<path d="m 355.717 1835.84 -0.9817 3.2735 -3.2994 0.9741 z" fill="#fff"/>
<path d="m 357.077 1847.57 2.3435 -8.6106" fill="none" stroke="#fff"/>
<path d="m 356.657 1837.63 2.4869 2.344 3.3444 -0.806 z" fill="#fff"/>
<path d="m 365.435 1844.89 -1.8447 -8.7312" fill="none" stroke="#fff"/>
<path d="m 366.425 1834.99 -2.6175 2.1972 -3.2925 -0.997 z" fill="#fff"/>
<path d="m 363.946 1832.33 c 0 1.9313 -0.8189 3.4969 -1.8292 3.4969 s -1.8291 -1.5656 -1.8291 -3.4969 0.8189 -3.4969 1.8291 -3.4969 1.8292 1.5656 1.8292 3.4969 z" fill="#fff" stroke="#000" transform="matrix(.86603,.5,-.5,.86603,963.34876,63.51437)"/>
<path d="m 350.968 1829.89 c -0.4873 1.2547 2.317 2.9023 3.5378 2.0542" fill="none" stroke="#000"/>
</g>
</svg>
