<svg viewBox="0 0 512 512" xmlns="http://www.w3.org/2000/svg">

<g transform="matrix(18.68858,0,0,18.68858,-2270.9155,-25185.30582)">
<g transform="matrix(.63952,1.10767,-1.10767,.63952,1554.4252,347.17792)">
<path d="m 133.499 1350.18 h 2.4388 v 18.9906 h -2.4388 z" fill="#fff" stroke="#000" stroke-width=".7818"/>
<path d="m 129.498 1352.12 h 10.4391 v 6.1909 h -10.4391 z" fill="#fff" stroke="#000" stroke-width=".7818"/>
<path d="m 128.119 1351.01 h 2.639 v 8.4113 h -2.639 z" fill="#fff" stroke="#000" stroke-width=".7818"/>
<path d="m 138.625 1351.01 h 2.639 v 8.4113 h -2.639 z" fill="#fff" stroke="#000" stroke-width=".7818"/>
<path d="m 133.118 1367.29 h 3.2002 v 2.519 h -3.2002 z" fill="#fff" stroke="#000" stroke-width=".7818"/>
</g>
<path d="m 132.242 1360.21 7.4946 -6.3717 c -2.0616 -3.7603 -4.4712 -5.1515 -5.7454 -5.5501 h -11.5046 v 3.4421 c 3.6672 1.0148 7.206 4.0641 9.7554 8.4797 z" fill="#fff" fill-rule="evenodd"/>
<path d="m 122.312 1348.97 v 0.8125 c 3.4915 1.1296 6.3372 3.4313 9.125 6.2187 -2.6554 -3.7117 -5.4836 -6.1224 -9.125 -7.0312 z" fill-rule="evenodd"/>
<path d="m 126.969 1348.08 c 4.7029 0.7524 8.9955 3.7608 11.8947 7.8211 -1.6688 -4.2633 -4.2553 -6.889 -8.1761 -7.9297" fill-rule="evenodd"/>
<path d="m 122.375 1348.26 v 1.115 c 4.6086 1.0701 8.2568 3.9137 11.7812 7.4375 -2.8535 -4.9022 -6.955 -7.8398 -11.7812 -8.5525 z" fill-rule="evenodd"/>
<path d="m 130.796 1350.45 5.9303 6.5064 c -0.691 -2.9446 -3.1374 -5.3532 -5.9303 -6.5064 z" fill-rule="evenodd"/>
</g>
</svg>
