<svg viewBox="0 0 512 512" xmlns="http://www.w3.org/2000/svg">

<g transform="matrix(18.68858,0,0,18.68858,-2270.9155,-25185.30582)">
<g transform="matrix(.63952,1.10767,-1.10767,.63952,1554.4252,347.17792)">
<path d="m133.4985,1350.1783h2.4388v18.9906h-2.4388z" fill="#fff" stroke="#000" stroke-width=".7818"/>
<path d="m129.4983,1352.1193h10.4391v6.1909h-10.4391z" fill="#fff" stroke="#000" stroke-width=".7818"/>
<path d="m128.1187,1351.009h2.639v8.4113h-2.639z" fill="#fff" stroke="#000" stroke-width=".7818"/>
<path d="m138.625,1351.009h2.639v8.4113h-2.639z" fill="#fff" stroke="#000" stroke-width=".7818"/>
<path d="m133.1178,1367.2877h3.2002v2.519h-3.2002z" fill="#fff" stroke="#000" stroke-width=".7818"/>
</g>
<path d="m132.2415,1360.2093 7.4946-6.3717c-2.0616-3.7603-4.4712-5.1515-5.7454-5.5501h-11.5046v3.4421c3.6672,1.0148 7.206,4.0641 9.7554,8.4797z" fill="#fff" fill-rule="evenodd"/>
<path d="m122.3125,1348.9688v.8125c3.4915,1.1296 6.3372,3.4313 9.125,6.2187-2.6554-3.7117-5.4836-6.1224-9.125-7.0312z" fill-rule="evenodd"/>
<path d="m126.9694,1348.0803c4.7029.7524 8.9955,3.7608 11.8947,7.8211-1.6688-4.2633-4.2553-6.889-8.1761-7.9297" fill-rule="evenodd"/>
<path d="m122.375,1348.26v1.115c4.6086,1.0701 8.2568,3.9137 11.7812,7.4375-2.8535-4.9022-6.955-7.8398-11.7812-8.5525z" fill-rule="evenodd"/>
<path d="m130.7957,1350.4537 5.9303,6.5064c-.691-2.9446-3.1374-5.3532-5.9303-6.5064z" fill-rule="evenodd"/>
</g>
</svg>
