<svg viewBox="0 0 512 512" xmlns="http://www.w3.org/2000/svg">

<g transform="matrix(18.68858,0,0,18.68858,-6355.9564,-34036.44835)">
<path d="m341.2727,1846.0102c.4316,1.0811 1.6837,1.946 2.9546,1.5405 2.7748-.8852 3.2612-5.465 10.232-16.4337 1.2324-.4904 3.3404.754 3.5443,1.7364l-.0002.0003c.1297.6248.2437,1.1741.6685,1.4192 .9204.5314 1.9022-.7173 2.8522-2.3626s1.5226-3.0891.6022-3.6205c-.4865-.2808-1.1233-.069-1.8128.2761-1.2986.6505-1.8709-.099-2.3679-1.6977-.4387-1.4116-1.9471-2.5342-3.1115-3.2019-2.9105-1.6671-6.8977-1.8483-9.4854-.6816 4.5017.4248 8.3988,3.3062 6.3824,6.5574-6.8594,11.0597-11.4489,13.9869-10.4586,16.4681z" fill="#fff"/>
<path d="m360.3219,1844.6595-6.3348-6.2853" fill="none" stroke="#fff"/>
<path d="m355.7166,1835.8427-.9817,3.2735-3.2994.9741z" fill="#fff"/>
<path d="m357.0774,1847.5673 2.3435-8.6106" fill="none" stroke="#fff"/>
<path d="m356.6574,1837.6291 2.4869,2.344 3.3444-.806z" fill="#fff"/>
<path d="m365.4347,1844.8913-1.8447-8.7312" fill="none" stroke="#fff"/>
<path d="m366.4253,1834.9936-2.6175,2.1972-3.2925-.997z" fill="#fff"/>
<path d="m363.9461,1832.3314c0,1.9313-.8189,3.4969-1.8292,3.4969s-1.8291-1.5656-1.8291-3.4969 .8189-3.4969 1.8291-3.4969 1.8292,1.5656 1.8292,3.4969z" fill="#fff" stroke="#000" transform="matrix(.86603,.5,-.5,.86603,963.34876,63.51437)"/>
<path d="m350.9682,1829.8865c-.4873,1.2547 2.317,2.9023 3.5378,2.0542" fill="none" stroke="#000"/>
</g>
</svg>
