<svg viewBox="0 0 512 512" xmlns="http://www.w3.org/2000/svg">

<g transform="matrix(18.68858,0,0,18.68858,-1589.98912,-32682.11312)">
<path d="m 92.0322 1763.62 0.8347 -3.1145 c 0.3675 -1.3711 2.5943 -0.7385 2.2355 0.599 l -0.8348 3.1145 c -0.3906 1.4576 -2.6208 0.8397 -2.2355 -0.599 z" stroke="#fff"/>
<g transform="matrix(-.23511,.87743,-.87743,-.23511,1770.2163,1576.019)">
<path d="m 683.812 1722.69 c -2.6416 0 -4.9373 1.5054 -6.0938 3.6875 h -2.7103 v 6.2812 h 2.6478 c 1.129 2.2648 3.4538 3.8126 6.1562 3.8126 3.8056 0 6.9062 -3.0695 6.9062 -6.875 s -3.1006 -6.9063 -6.9062 -6.9063 z" fill="#fff" stroke="#000" stroke-width="1.1009"/>
<path d="m 695.343 1729.64 c 0 3.8056 -3.085 6.8906 -6.8906 6.8906 s -6.8906 -3.085 -6.8906 -6.8906 3.085 -6.8907 6.8906 -6.8907 6.8906 3.0851 6.8906 6.8907 z" transform="matrix(.60618,0,0,.60618,266.49891,681.11817)"/>
<path d="m 690.729 1728.92 c 0 2.3603 -3.3771 2.3257 -3.3771 0" fill="none" stroke="#000" stroke-width="1.1009"/>
<path d="m 675.483 1732.65 h 4.6958 v -2.7935" fill="none" stroke="#000" stroke-width="1.1009"/>
</g>
<path d="m 100.882 1760.81 -2.28 -2.28 c -1.0036 -1.0038 0.6576 -2.6159 1.6365 -1.6365 l 2.2798 2.28 c 1.0672 1.0672 -0.5831 2.6897 -1.6364 1.6365 z" stroke="#fff"/>
<g transform="matrix(.64232,.64232,-.64232,.64232,777.51382,213.63077)">
<path d="m 683.812 1722.69 c -2.6416 0 -4.9373 1.5054 -6.0938 3.6875 h -2.7103 v 6.2812 h 2.6478 c 1.129 2.2648 3.4538 3.8126 6.1562 3.8126 3.8056 0 6.9062 -3.0695 6.9062 -6.875 s -3.1006 -6.9063 -6.9062 -6.9063 z" fill="#fff" stroke="#000" stroke-width="1.1009"/>
<path d="m 695.343 1729.64 c 0 3.8056 -3.085 6.8906 -6.8906 6.8906 s -6.8906 -3.085 -6.8906 -6.8906 3.085 -6.8907 6.8906 -6.8907 6.8906 3.0851 6.8906 6.8907 z" transform="matrix(.60618,0,0,.60618,266.49891,681.11817)"/>
<path d="m 690.729 1728.92 c 0 2.3603 -3.3771 2.3257 -3.3771 0" fill="none" stroke="#000" stroke-width="1.1009"/>
<path d="m 675.483 1732.65 h 4.6958 v -2.7935" fill="none" stroke="#000" stroke-width="1.1009"/>
</g>
<path d="m 90.7093 1758.83 -1.3017 -1.3017 c -1.0034 -1.0039 0.6578 -2.6161 1.6366 -1.6365 l 1.3015 1.3017 c 1.0671 1.0673 -0.5829 2.6895 -1.6364 1.6365 z" stroke="#fff"/>
<path d="m 98.1665 1754.68 -1.5943 -0.9203 c -1.2289 -0.7102 -0.042 -2.6973 1.1573 -2.0043 l 1.594 0.9205 c 1.3071 0.7547 0.1331 2.7488 -1.157 2.0041 z" stroke="#fff"/>
<path d="m 93.5258 1752.51 -1.5942 0.9204 c -1.2296 0.7093 -2.3569 -1.3122 -1.1572 -2.0044 l 1.5943 -0.9201 c 1.3071 -0.7548 2.447 1.259 1.1571 2.0041 z" stroke="#fff"/>
<path d="m 98.9404 1754.68 0.3762 2.107" fill="none" stroke="#fff"/>
<path d="m 96.3819 1752.2 -2.408 -0.6773" fill="none" stroke="#fff"/>
<path d="m 89.7976 1755.81 0.8654 -2.9723" fill="none" stroke="#fff"/>
<path d="m 92.0927 1758.59 1.3167 1.2418" fill="none" stroke="#fff"/>
<path d="m 93.5731 1763.13 -0.3588 1.339" fill="none" stroke="#000"/>
<path d="m 101.219 1759.33 0.9802 0.9804" fill="none" stroke="#000"/>
</g>
</svg>
