<svg viewBox="0 0 512 512" xmlns="http://www.w3.org/2000/svg">

<g transform="matrix(7.68333,17.03612,-17.03612,7.68333,6281.6343,-3479.0822)">
<path d="m365.7956,85.3447h2.8629v4.434h-2.8629z" fill="#fff" transform="rotate(68.264)"/>
<path d="m368.7981,85.9033h2.8629v4.434h-2.8629z" fill="#fff" transform="rotate(68.264)"/>
<path d="m50.8438,371.3125c1.0346-2.9308.6746-5.4729-.75-5.5-.3288-.006-.7179.1221-1.1562.4062 .0681,2.716-1.5379,5.1744-3.103,6.7189-.3996,3.3866-1.9238,6.0452-3.9764,8.2289l12.7355.0523c.8716-.2888 1.8437-.6326 3.0625-1.1875 1.0024-.3996.4257-2.2536-.25-2.5625" fill="#fff" stroke="#000"/>
<path d="m49.0327,372.0236 10.1359-4.0409c1.7425-.6947 2.7808,1.7085.9691,2.4308l-7.31,2.9143" fill="#fff" stroke="#000"/>
<path d="m57.0982,374.7067c.6756.5809 1.1586,2.3552.4016,2.6571l-3.1474,1.2548" fill="#fff" stroke="#000"/>
<path d="m56.764,372.0017c.5947.5886.8592,1.5558.5605,2.4618l-3.3518,1.3363" fill="#fff" stroke="#000"/>
</g>
<g transform="matrix(18.68858,0,0,18.68858,5785.6666,-12368.663)">
<path d="m-289.9534,666.9241c2.1878.7374 4.5686.9719 6.8438.75v2.0938c-2.4179.202-4.948-.1292-7.2188-1.0312-.3458-.1374-.6513-.3113-.9688-.4688l1.3438-1.3438z" fill="#fff"/>
<path d="m-288.8597,662.8527c.4775,1.9225.2091,4.0018-.9375,5.8438-2.4047,3.8632-7.7411,5.1992-11.9062,2.9688-.4782-.2561-.9082-.5519-1.3125-.875l1.5625-.9375c4.0864,1.8877 9.0932.5597 11.4062-3.1562 .7515-1.2072 1.1513-2.541 1.1875-3.8438z" fill="#fff"/>
<path d="m-296.068,665.232c-.3953,1.1672-1.3178,2.2108-2.6875,3-2.571,1.4812-6.3147,1.6955-10.0312.9062v2c3.033,1.1028 7.2867.4552 9.8125-1 2.0898-1.204 3.0651-2.9674 2.9062-4.9062z" fill="#fff"/>
<path d="m-309.2334,671.44c2.0998.5483 4.0555.9238 6.7554.3472 3.8127,2.4945 10.6059.7957 12.7216-2.336 2.3411.7995 4.5526.9748 7.1658.7892" fill="none" stroke="#000"/>
</g>
</svg>
