<svg viewBox="0 0 512 512" xmlns="http://www.w3.org/2000/svg">

<g transform="matrix(7.68333,17.03612,-17.03612,7.68333,6281.6343,-3479.0822)">
<path d="m 365.796 85.3447 h 2.8629 v 4.434 h -2.8629 z" fill="#fff" transform="rotate(68.264)"/>
<path d="m 368.798 85.9033 h 2.8629 v 4.434 h -2.8629 z" fill="#fff" transform="rotate(68.264)"/>
<path d="m 50.8438 371.312 c 1.0346 -2.9308 0.6746 -5.4729 -0.75 -5.5 -0.3288 -0.006 -0.7179 0.1221 -1.1562 0.4062 0.0681 2.716 -1.5379 5.1744 -3.103 6.7189 -0.3996 3.3866 -1.9238 6.0452 -3.9764 8.2289 l 12.7355 0.0523 c 0.8716 -0.2888 1.8437 -0.6326 3.0625 -1.1875 1.0024 -0.3996 0.4257 -2.2536 -0.25 -2.5625" fill="#fff" stroke="#000"/>
<path d="m 49.0327 372.024 10.1359 -4.0409 c 1.7425 -0.6947 2.7808 1.7085 0.9691 2.4308 l -7.31 2.9143" fill="#fff" stroke="#000"/>
<path d="m 57.0982 374.707 c 0.6756 0.5809 1.1586 2.3552 0.4016 2.6571 l -3.1474 1.2548" fill="#fff" stroke="#000"/>
<path d="m 56.764 372.002 c 0.5947 0.5886 0.8592 1.5558 0.5605 2.4618 l -3.3518 1.3363" fill="#fff" stroke="#000"/>
</g>
<g transform="matrix(18.68858,0,0,18.68858,5785.6666,-12368.663)">
<path d="m -289.953 666.924 c 2.1878 0.7374 4.5686 0.9719 6.8438 0.75 v 2.0938 c -2.4179 0.202 -4.948 -0.1292 -7.2188 -1.0312 -0.3458 -0.1374 -0.6513 -0.3113 -0.9688 -0.4688 l 1.3438 -1.3438 z" fill="#fff"/>
<path d="m -288.86 662.853 c 0.4775 1.9225 0.2091 4.0018 -0.9375 5.8438 -2.4047 3.8632 -7.7411 5.1992 -11.9062 2.9688 -0.4782 -0.2561 -0.9082 -0.5519 -1.3125 -0.875 l 1.5625 -0.9375 c 4.0864 1.8877 9.0932 0.5597 11.4062 -3.1562 0.7515 -1.2072 1.1513 -2.541 1.1875 -3.8438 z" fill="#fff"/>
<path d="m -296.068 665.232 c -0.3953 1.1672 -1.3178 2.2108 -2.6875 3 -2.571 1.4812 -6.3147 1.6955 -10.0312 0.9062 v 2 c 3.033 1.1028 7.2867 0.4552 9.8125 -1 2.0898 -1.204 3.0651 -2.9674 2.9062 -4.9062 z" fill="#fff"/>
<path d="m -309.233 671.44 c 2.0998 0.5483 4.0555 0.9238 6.7554 0.3472 3.8127 2.4945 10.6059 0.7957 12.7216 -2.336 2.3411 0.7995 4.5526 0.9748 7.1658 0.7892" fill="none" stroke="#000"/>
</g>
</svg>
