<svg viewBox="0 0 512 512" xmlns="http://www.w3.org/2000/svg">

<g transform="matrix(18.68858,0,0,18.68858,-1589.98912,-32682.11312)">
<path d="m92.0322,1763.6158 .8347-3.1145c.3675-1.3711 2.5943-.7385 2.2355.599l-.8348,3.1145c-.3906,1.4576-2.6208.8397-2.2355-.599z" stroke="#fff"/>
<g transform="matrix(-.23511,.87743,-.87743,-.23511,1770.2163,1576.019)">
<path d="m683.8125,1722.6875c-2.6416,0-4.9373,1.5054-6.0938,3.6875h-2.7103v6.2812h2.6478c1.129,2.2648 3.4538,3.8126 6.1562,3.8126 3.8056,0 6.9062-3.0695 6.9062-6.875s-3.1006-6.9063-6.9062-6.9063z" fill="#fff" stroke="#000" stroke-width="1.1009"/>
<path d="m695.3435,1729.641c0,3.8056-3.085,6.8906-6.8906,6.8906s-6.8906-3.085-6.8906-6.8906 3.085-6.8907 6.8906-6.8907 6.8906,3.0851 6.8906,6.8907z" transform="matrix(.60618,0,0,.60618,266.49891,681.11817)"/>
<path d="m690.7289,1728.9225c0,2.3603-3.3771,2.3257-3.3771,0" fill="none" stroke="#000" stroke-width="1.1009"/>
<path d="m675.483,1732.6473h4.6958v-2.7935" fill="none" stroke="#000" stroke-width="1.1009"/>
</g>
<path d="m100.8816,1760.8078-2.28-2.28c-1.0036-1.0038.6576-2.6159 1.6365-1.6365l2.2798,2.28c1.0672,1.0672-.5831,2.6897-1.6364,1.6365z" stroke="#fff"/>
<g transform="matrix(.64232,.64232,-.64232,.64232,777.51382,213.63077)">
<path d="m683.8125,1722.6875c-2.6416,0-4.9373,1.5054-6.0938,3.6875h-2.7103v6.2812h2.6478c1.129,2.2648 3.4538,3.8126 6.1562,3.8126 3.8056,0 6.9062-3.0695 6.9062-6.875s-3.1006-6.9063-6.9062-6.9063z" fill="#fff" stroke="#000" stroke-width="1.1009"/>
<path d="m695.3435,1729.641c0,3.8056-3.085,6.8906-6.8906,6.8906s-6.8906-3.085-6.8906-6.8906 3.085-6.8907 6.8906-6.8907 6.8906,3.0851 6.8906,6.8907z" transform="matrix(.60618,0,0,.60618,266.49891,681.11817)"/>
<path d="m690.7289,1728.9225c0,2.3603-3.3771,2.3257-3.3771,0" fill="none" stroke="#000" stroke-width="1.1009"/>
<path d="m675.483,1732.6473h4.6958v-2.7935" fill="none" stroke="#000" stroke-width="1.1009"/>
</g>
<path d="m90.7093,1758.8281-1.3017-1.3017c-1.0034-1.0039.6578-2.6161 1.6366-1.6365l1.3015,1.3017c1.0671,1.0673-.5829,2.6895-1.6364,1.6365z" stroke="#fff"/>
<path d="m98.1665,1754.6765-1.5943-.9203c-1.2289-.7102-.042-2.6973 1.1573-2.0043l1.594.9205c1.3071.7547.1331,2.7488-1.157,2.0041z" stroke="#fff"/>
<path d="m93.5258,1752.5131-1.5942.9204c-1.2296.7093-2.3569-1.3122-1.1572-2.0044l1.5943-.9201c1.3071-.7548 2.447,1.259 1.1571,2.0041z" stroke="#fff"/>
<path d="m98.9404,1754.6801 .3762,2.107" fill="none" stroke="#fff"/>
<path d="m96.3819,1752.1969-2.408-.6773" fill="none" stroke="#fff"/>
<path d="m89.7976,1755.8088 .8654-2.9723" fill="none" stroke="#fff"/>
<path d="m92.0927,1758.593 1.3167,1.2418" fill="none" stroke="#fff"/>
<path d="m93.5731,1763.134-.3588,1.339" fill="none" stroke="#000"/>
<path d="m101.2187,1759.3251 .9802.9804" fill="none" stroke="#000"/>
</g>
</svg>
