<svg viewBox="0 0 512 512" xmlns="http://www.w3.org/2000/svg">

<g transform="matrix(18.68858,0,0,18.68858,-1590.1522,-22488.39234)">
<path d="m88.5415,1226.5501c0-4.1339 4.5644-7.489 10.1884-7.489s10.1884,3.3551 10.1884,7.489" fill="none" stroke="#fff"/>
<path d="m89.7264,1211.6868c0,4.4688 4.0336,8.0957 9.0035,8.0957s9.0035-3.6269 9.0035-8.0957" fill="none" stroke="#fff"/>
<path d="m102.2597,1208.2508c1.9486,2.6343 1.9486,6.9099 4e-05,9.5438s-5.1112,2.6341-7.0598,0-1.9484-6.9095 3.6e-05-9.5438" fill="none" stroke="#fff"/>
<path d="m101.5572,1224.0343c0,1.1866-.9619,2.1485-2.1485,2.1485s-2.1485-.9619-2.1485-2.1485 .9619-2.1485 2.1485-2.1485 2.1485.9619 2.1485,2.1485z" fill="#fff" transform="matrix(.93529,0,0,.9363,5.75352,78.3667)"/>
<path d="m102.5177,1229.0777c2.091-2.2824 2.091-5.987 4e-05-8.2693s-5.4849-2.2823-7.5758,0-2.0909,5.9869 3.9e-05,8.2693" fill="none" stroke="#fff"/>
<path d="m102.1958,1220.7157c0,2.4514-1.2184,4.4387-2.7213,4.4387s-2.7213-1.9873-2.7213-4.4387 1.2184-4.4387 2.7213-4.4387 2.7213,1.9873 2.7213,4.4387z" fill="#fff" transform="matrix(1.14489,0,0,-.94632,-15.15713,2371.0127)"/>
<path d="m101.5572,1224.0343c0,1.1866-.9619,2.1485-2.1485,2.1485s-2.1485-.9619-2.1485-2.1485 .9619-2.1485 2.1485-2.1485 2.1485.9619 2.1485,2.1485z" transform="matrix(.44604,0,0,.88836,54.38937,138.14193)"/>
<path d="m98.7214,1221.8187c0,.3831-.3105.6936-.6935.6936s-.6935-.3105-.6935-.6936 .3105-.6935.6935-.6935 .6935.3105.6935.6935z" stroke="#fff" stroke-width=".5429" transform="matrix(-1.60673008e-07,-1.84179,1.84179,-1.60673008e-07,-2151.5962,1403.07941)"/>
<path d="m98.7214,1221.8187c0,.3831-.3105.6936-.6935.6936s-.6935-.3105-.6935-.6936 .3105-.6935.6935-.6935 .6935.3105.6935.6935z" stroke="#fff" stroke-width=".5429" transform="matrix(-1.60673008e-07,-1.84179,1.84179,-1.60673008e-07,-2151.5962,1400.49426)"/>
<path d="m98.7214,1221.8187c0,.3831-.3105.6936-.6935.6936s-.6935-.3105-.6935-.6936 .3105-.6935.6935-.6935 .6935.3105.6935.6935z" stroke="#fff" stroke-width=".5429" transform="matrix(-1.60673008e-07,-1.84179,1.84179,-1.60673008e-07,-2153.82137,1401.80204)"/>
<path d="m98.7214,1221.8187c0,.3831-.3105.6936-.6935.6936s-.6935-.3105-.6935-.6936 .3105-.6935.6935-.6935 .6935.3105.6935.6935z" stroke="#fff" stroke-width=".5429" transform="matrix(-1.60673008e-07,-1.84179,1.84179,-1.60673008e-07,-2149.39121,1401.80204)"/>
<path d="m98.7299,1212.2423v-8.1352" fill="none" stroke="#fff"/>
</g>
</svg>
