<svg xmlns="http://www.w3.org/2000/svg" viewBox="0 0 512 512">
<g fill="#fff" transform="matrix(18.68858 0 0 18.68858 -5683.07955 -45610.83146)">
<path fill-rule="evenodd" d="m315.3256,2454.059c1.4277,2.6204 1.5636,4.4626.7997,6.6877-.4041,1.177-2.0936,2.7154-3.4651,2.2632-1.6975-.5598-.4889-3.552 2.1631-1.4126l.6738-.8392c-2.1032-2.1743-4.8882-1.0471-5.2066.6546-.7775,4.1562 5.3322,4.5009 7.6876-.3181 1.1878-2.4301 1.6079-4.415 1.6038-7.0984"/>
<path d="m319.5413,2445.5278c-1.395,1.6282-1.0671,3.5341.1679,3.8522 2.1789.5393 1.5984,3.1274-1.3214,4.8572 2.0668,1.0242 2.5514,3.0333 2.8914,4.7667 .8542-1.5336.7817-3.393.0707-5.1114 2.3303.469 3.4444,1.2922 4.7058,2.7383-.029-1.8598-1.2338-3.7979-3.0748-4.8669 2.318-1.0751 4.6596-.3752 6.6688.3127-1.0547-1.7633-3.2008-2.9691-5.5304-3.1343 1.6391-1.842 3.9826-2.1993 6.0459-2.4235-1.7838-1.2038-4.3918-1.3468-6.6438-.365 1.402-1.9916 3.5647-3.1541 5.5466-4.1248-4.3642-.5879-7.6085,1.2601-9.5267,3.4988z"/>
<path d="m315.7953,2445.5278c1.395,1.6282 1.0671,3.5341-.1679,3.8522-2.1789.5393-1.5984,3.1274 1.3214,4.8572-2.0668,1.0242-2.5514,3.0333-2.8914,4.7667-.8542-1.5336-.7817-3.393-.0707-5.1114-2.3303.469-3.4444,1.2922-4.7058,2.7383 .029-1.8598 1.2338-3.7979 3.0748-4.8669-2.318-1.0751-4.6596-.3752-6.6688.3127 1.0547-1.7633 3.2008-2.9691 5.5304-3.1343-1.6391-1.842-3.9826-2.1993-6.0459-2.4235 1.7838-1.2038 4.3918-1.3468 6.6438-.365-1.402-1.9916-3.5647-3.1541-5.5466-4.1248 4.3642-.5879 7.6085,1.2601 9.5267,3.4988z"/>
<path stroke="#000" stroke-width=".79" d="m319.0143,2455.5188c0,.9657-.7828,1.7485-1.7485,1.7485s-1.7485-.7828-1.7485-1.7485 .7828-1.7485 1.7485-1.7485 1.7485.7828 1.7485,1.7485z" transform="matrix(1.15517 0 0 1.38681 -48.74641 -953.70426)"/>
</g>
<g fill="none">
<g transform="matrix(18.68858 0 0 18.68858 -5683.07955 -45610.83146)">
<path stroke="#fff" d="m317.6669,2463.0829c3.0743,2.8733 7.2629,4.2397 8.8823,2.6202 1.0962-1.0962 1.5123-3.2279-.5153-4.7259"/>
</g>
<g stroke="#000" transform="matrix(18.68858 0 0 18.68858 -5683.07955 -45610.83146)">
<path d="m314.0552,2462.3358c.9839-.5819 1.7266-1.5567 1.8163-2.5699"/>
<path d="m316.202,2464.0211c.8481-.6458 1.7523-1.7221 2.1955-2.6317"/>
</g>
</g>
<g transform="matrix(18.68858 0 0 18.68858 -5683.07955 -45610.83146)">
<path fill="#fff" d="m322.2764,2461.6493c1.8506-.4441 4.9547-.5973 5.1086,3.3229 1.8832-3.5677-1.6383-6.768-4.1855-6.1925l2.0432,1.53c-.996.049-2.071.4865-2.9663,1.3396z"/>
</g>
</svg>
