<svg viewBox="0 0 512 512" xmlns="http://www.w3.org/2000/svg">

<g transform="matrix(18.68858,0,0,18.68858,-10441.67447,-25181.35995)">
<path d="m561.8568,1365.342c6.1302-3.1846 11.0157-7.9268 14.4406-14.4407 7.0113,7.0112 9.4624,15.9276 5.4748,19.9153s-12.9042,1.5366-19.9154-5.4747z" fill="#fff"/>
<path d="m579.5277,1372.315c-1.843.44-4.2619.218-6.7574-.741l-.7466,2.0407c2.8397.7041 5.5939.2133 7.5045-1.2993z" fill="#fff"/>
<path d="m583.3989,1368.4439c.4401-1.8429.2177-4.2619-.741-6.7574l2.0405-.7464c.7038,2.8397.2131,5.5937-1.2991,7.5046z" fill="#fff"/>
<g transform="matrix(.70711,-.70711,-.70711,-.70711,1131.6838,2731.7096)">
<path d="m569.1383,1353.8707c-1.6249,1.7167-2.8938,4.4683-3.4142,7.7624l-2.6704-.4663c1.0106-3.507 3.2587-6.1763 6.0846-7.297z" fill="#fff"/>
<path d="m577.944,1353.8707c1.625,1.7166 2.8935,4.4684 3.4143,7.7625l2.67-.4665c-1.0108-3.5069-3.2587-6.1759-6.0843-7.2972z" fill="#fff"/>
</g>
<path d="m566.8234,1365.5262 9.6585-9.6583c6.2899,6.2899 9.2265,13.5508 6.5596,16.218s-9.9282-.2697-16.2181-6.5597z"/>
<path d="m579.6842,1368.7602-3.8855-7.4026-3.5171,3.5175 7.4026,3.8851z" fill="#fff"/>
<path d="m581.043,1370.0874-8.843-11.6025-2.7596,2.7596 11.6026,8.8429z" fill="#fff"/>
<path d="m581.79,1370.8343-3.1148-5.9341-2.8194,2.8197 5.9342,3.1144z" fill="#fff"/>
<path d="m559.5312,1348.5v1.6875l10.4375,10.4375 1.6875-1.7188-10.375-10.4062h-1.75z" fill="#fff"/>
</g>
</svg>
