<svg viewBox="0 0 512 512" xmlns="http://www.w3.org/2000/svg">

<g transform="matrix(18.68858,0,0,18.68858,-10441.97483,-27222.25102)">
<path d="m 569.479 1470.57 c 0 3.737 11.412 3.3104 1.8838 8.3964 l 13.8845 4.2181 -4.2179 -13.8846 c -5.0859 9.5283 -4.6595 -1.8838 -8.3965 -1.8838 -1.8127 0 -3.1538 1.3923 -3.1538 3.1539 z" fill="#fff"/>
<path d="m 570.465 1476.78 c 0 1.3581 -1.1009 2.4589 -2.4589 2.4589 s -2.4589 -1.1008 -2.4589 -2.4589 1.1009 -2.4589 2.4589 -2.4589 2.4589 1.1009 2.4589 2.4589 z" transform="matrix(.82583,.82583,-.82583,.82583,1321.68999,-219.54413)"/>
<path d="m 580.5 1472.64 2.5455 8.358 -8.358 -2.5457 c 1.7919 -0.5844 2.3213 -2.7174 0.2472 -5.5656 2.8483 2.0742 4.9813 1.5449 5.5653 -0.2467 z"/>
<path d="m 1446.98 634.064 h 13.9207 v 1.757 h -13.9207 z" fill="#fff" transform="rotate(45)"/>
<g stroke="#fff" transform="matrix(.70711,.70711,-.70711,.70711,1195.8466,25.92148)">
<path d="m 583.071 1462.18 -21.3122 -0.0002" fill="none" stroke="#fff"/>
<path d="m 570.465 1476.78 c 0 1.3581 -1.1009 2.4589 -2.4589 2.4589 s -2.4589 -1.1008 -2.4589 -2.4589 1.1009 -2.4589 2.4589 -2.4589 2.4589 1.1009 2.4589 2.4589 z" stroke="#fff" stroke-width="1.9164" transform="matrix(.36898,.36898,-.36898,.36898,914.09483,707.69782)"/>
<path d="m 570.465 1476.78 c 0 1.3581 -1.1009 2.4589 -2.4589 2.4589 s -2.4589 -1.1008 -2.4589 -2.4589 1.1009 -2.4589 2.4589 -2.4589 2.4589 1.1009 2.4589 2.4589 z" stroke="#fff" stroke-width="1.9164" transform="matrix(.36898,.36898,-.36898,.36898,909.55352,707.69782)"/>
<path d="m 570.465 1476.78 c 0 1.3581 -1.1009 2.4589 -2.4589 2.4589 s -2.4589 -1.1008 -2.4589 -2.4589 1.1009 -2.4589 2.4589 -2.4589 2.4589 1.1009 2.4589 2.4589 z" stroke="#fff" stroke-width="1.9164" transform="matrix(.36898,.36898,-.36898,.36898,905.08791,707.69782)"/>
<path d="m 570.465 1476.78 c 0 1.3581 -1.1009 2.4589 -2.4589 2.4589 s -2.4589 -1.1008 -2.4589 -2.4589 1.1009 -2.4589 2.4589 -2.4589 2.4589 1.1009 2.4589 2.4589 z" stroke="#fff" stroke-width="1.9164" transform="matrix(.36898,.36898,-.36898,.36898,900.58445,707.69782)"/>
</g>
<path d="m 563.632 1457.1 h -4.4278 v 5.6766" fill="none" stroke="#000"/>
</g>
</svg>
