<svg viewBox="0 0 512 512" xmlns="http://www.w3.org/2000/svg">

<g transform="matrix(18.68858,0,0,18.68858,-10441.97483,-27222.25102)">
<path d="m569.4785,1470.5682c0,3.737 11.412,3.3104 1.8838,8.3964l13.8845,4.2181-4.2179-13.8846c-5.0859,9.5283-4.6595-1.8838-8.3965-1.8838-1.8127,0-3.1538,1.3923-3.1538,3.1539z" fill="#fff"/>
<path d="m570.4652,1476.7834c0,1.3581-1.1009,2.4589-2.4589,2.4589s-2.4589-1.1008-2.4589-2.4589 1.1009-2.4589 2.4589-2.4589 2.4589,1.1009 2.4589,2.4589z" transform="matrix(.82583,.82583,-.82583,.82583,1321.68999,-219.54413)"/>
<path d="m580.5,1472.6363 2.5455,8.358-8.358-2.5457c1.7919-.5844 2.3213-2.7174.2472-5.5656 2.8483,2.0742 4.9813,1.5449 5.5653-.2467z"/>
<path d="m1446.9822,634.0645h13.9207v1.757h-13.9207z" fill="#fff" transform="rotate(45)"/>
<g stroke="#fff" transform="matrix(.70711,.70711,-.70711,.70711,1195.8466,25.92148)">
<path d="m583.0713,1462.1764-21.3122-.0002" fill="none" stroke="#fff"/>
<path d="m570.4652,1476.7834c0,1.3581-1.1009,2.4589-2.4589,2.4589s-2.4589-1.1008-2.4589-2.4589 1.1009-2.4589 2.4589-2.4589 2.4589,1.1009 2.4589,2.4589z" stroke="#fff" stroke-width="1.9164" transform="matrix(.36898,.36898,-.36898,.36898,914.09483,707.69782)"/>
<path d="m570.4652,1476.7834c0,1.3581-1.1009,2.4589-2.4589,2.4589s-2.4589-1.1008-2.4589-2.4589 1.1009-2.4589 2.4589-2.4589 2.4589,1.1009 2.4589,2.4589z" stroke="#fff" stroke-width="1.9164" transform="matrix(.36898,.36898,-.36898,.36898,909.55352,707.69782)"/>
<path d="m570.4652,1476.7834c0,1.3581-1.1009,2.4589-2.4589,2.4589s-2.4589-1.1008-2.4589-2.4589 1.1009-2.4589 2.4589-2.4589 2.4589,1.1009 2.4589,2.4589z" stroke="#fff" stroke-width="1.9164" transform="matrix(.36898,.36898,-.36898,.36898,905.08791,707.69782)"/>
<path d="m570.4652,1476.7834c0,1.3581-1.1009,2.4589-2.4589,2.4589s-2.4589-1.1008-2.4589-2.4589 1.1009-2.4589 2.4589-2.4589 2.4589,1.1009 2.4589,2.4589z" stroke="#fff" stroke-width="1.9164" transform="matrix(.36898,.36898,-.36898,.36898,900.58445,707.69782)"/>
</g>
<path d="m563.6324,1457.0963h-4.4278v5.6766" fill="none" stroke="#000"/>
</g>
</svg>
