<svg viewBox="0 0 512 512" xmlns="http://www.w3.org/2000/svg">

<g transform="matrix(18.68858,0,0,18.68858,-10441.67447,-25181.35995)">
<path d="m 561.857 1365.34 c 6.1302 -3.1846 11.0157 -7.9268 14.4406 -14.4407 7.0113 7.0112 9.4624 15.9276 5.4748 19.9153 s -12.9042 1.5366 -19.9154 -5.4747 z" fill="#fff"/>
<path d="m 579.528 1372.32 c -1.843 0.44 -4.2619 0.218 -6.7574 -0.741 l -0.7466 2.0407 c 2.8397 0.7041 5.5939 0.2133 7.5045 -1.2993 z" fill="#fff"/>
<path d="m 583.399 1368.44 c 0.4401 -1.8429 0.2177 -4.2619 -0.741 -6.7574 l 2.0405 -0.7464 c 0.7038 2.8397 0.2131 5.5937 -1.2991 7.5046 z" fill="#fff"/>
<g transform="matrix(.70711,-.70711,-.70711,-.70711,1131.6838,2731.7096)">
<path d="m 569.138 1353.87 c -1.6249 1.7167 -2.8938 4.4683 -3.4142 7.7624 l -2.6704 -0.4663 c 1.0106 -3.507 3.2587 -6.1763 6.0846 -7.297 z" fill="#fff"/>
<path d="m 577.944 1353.87 c 1.625 1.7166 2.8935 4.4684 3.4143 7.7625 l 2.67 -0.4665 c -1.0108 -3.5069 -3.2587 -6.1759 -6.0843 -7.2972 z" fill="#fff"/>
</g>
<path d="m 566.823 1365.53 9.6585 -9.6583 c 6.2899 6.2899 9.2265 13.5508 6.5596 16.218 s -9.9282 -0.2697 -16.2181 -6.5597 z"/>
<path d="m 579.684 1368.76 -3.8855 -7.4026 -3.5171 3.5175 7.4026 3.8851 z" fill="#fff"/>
<path d="m 581.043 1370.09 -8.843 -11.6025 -2.7596 2.7596 11.6026 8.8429 z" fill="#fff"/>
<path d="m 581.79 1370.83 -3.1148 -5.9341 -2.8194 2.8197 5.9342 3.1144 z" fill="#fff"/>
<path d="m 559.531 1348.5 v 1.6875 l 10.4375 10.4375 1.6875 -1.7188 -10.375 -10.4062 h -1.75 z" fill="#fff"/>
</g>
</svg>
