<svg viewBox="0 0 512 512" xmlns="http://www.w3.org/2000/svg">

<g transform="matrix(18.68858,0,0,18.68858,-908.03212,-21126.6527)">
<path d="m49.3145,1134.5743c2.3738,6.414 3.4247,13.0306 3.3307,19.8568 1.7373.3854 2.9642.2975 4.3396-.9329-1.6611-4.508-2.4123-8.5839-2.8429-13.2977-.4037-2.5342 2.583-2.772 2.7748-.398 1.4261-.065 2.9531.1011 4.664.6537 .316-2.9693-.1-5.8229-1.4306-8.517-3.9048.3408-7.6843,1.298-10.8355,2.6351z" fill="#fff" stroke="#000"/>
<path d="m61.2785,1135.2508c-1.9581,6.5522-5.0952,12.4703-9.2732,17.8671 1.1567,1.3531 2.1899,2.021 4.0285,1.8657 1.3821-4.6008 3.2317-8.3089 5.7207-12.3337 1.2006-2.2675 3.7304-.6607 2.4567,1.3512 1.1785.8064 2.2991,1.8576 3.3342,3.3284 2.0372-2.1821 3.4198-4.7121 3.9759-7.6649-3.3253-2.0768-6.9208-3.5862-10.2427-4.4138z" fill="#fff" stroke="#000"/>
<path d="m69.834,1143.2811c-5.4419,4.1378-11.4628,7.0683-18.0177,8.9641 .1376,1.775.5789,2.9238 2.156,3.8823 3.8269-2.9013 7.5057-4.806 11.8877-6.5894 2.3059-1.1236 3.4033,1.6659 1.1889,2.5402 .4773,1.346.7635,2.8559.7335,4.6542 2.9314-.5612 5.5389-1.7896 7.7276-3.8469-1.4633-3.6383-3.4794-6.9775-5.676-9.6045z" fill="#fff" stroke="#000"/>
</g>
</svg>
