<svg viewBox="0 0 512 512" xmlns="http://www.w3.org/2000/svg">

<g transform="matrix(18.68858,0,0,18.68858,-2270.37459,-37447.32859)">
<path d="m 134.715 2011.22 c -9.69 -2.2762 -10.1803 -0.5187 -12.1875 0.3437 0.399 3.3249 1.8129 6.8689 0.9375 12.4375 1.0244 -0.7618 3.179 -5.1679 3.179 -5.1679 l -0.4073 4.3914 2.7452 -4.9222 0.2632 2.4487 1.544 -2.4179 c -0.0585 1.3337 -0.2389 2.7511 -1.1372 4.001 -2.0511 2.8539 -2.8432 6.9481 -2.8432 6.9481 l 2.4995 -2.7012 -1.0932 3.5762 c 2.0205 -1.6429 2.9725 -3.5098 3.5795 -5.4687 l 0.348 5.4063 1.4237 -3.2188 1.8835 3.1875 c -0.007 -1.3063 -0.1861 -2.544 0.3088 -3.75 0.4556 1.5586 2.9885 2.7714 4.3014 2.2813 -2.1429 -2.1306 -3.7163 -8.6538 0.5301 -10.9376 0.1353 1.2005 -0.1973 2.401 -1.0085 3.6015 1.4276 -0.6103 2.4031 -1.488 2.9314 -2.7135 l -0.532 6.1437 c 1.2725 -2.0086 2.3489 -4.4 2.4187 -6.11 0.5591 1.5483 0.431 4.0327 0.2879 5.902 2.6787 -2.8591 2.7104 -5.7173 2.8792 -11.7924 -3.3703 -2.629 -7.8246 -3.0271 -12.8517 -1.4687 z" fill="#fff" fill-rule="evenodd"/>
<path d="m 135.508 2004.24 c -2.9129 0.3013 -5.0658 2.4903 -4.8188 4.8798 0.1519 1.4707 1.1658 2.6599 2.6131 3.3006 l 1.0638 1.2543 4.4157 -0.3501 0.5582 -1.5283 c 1.2857 -0.9229 2.035 -2.2944 1.8831 -3.765 -0.247 -2.3895 -2.8023 -4.0924 -5.715 -3.7913 z" fill="#fff" stroke="#000"/>
<path d="m 137.415 2011.79 -2.2208 0.1629 0.9416 -2.2431 z"/>
<path d="m 134.732 2009.44 c 0 0.9233 -0.7485 1.6717 -1.6718 1.6717 s -1.6718 -0.7484 -1.6718 -1.6717 0.7485 -1.6718 1.6718 -1.6718 1.6718 0.7485 1.6718 1.6718 z" transform="matrix(.768,0,0,.768,31.72943,465.8508)"/>
<path d="m 134.732 2009.44 c 0 0.9233 -0.7485 1.6717 -1.6718 1.6717 s -1.6718 -0.7484 -1.6718 -1.6717 0.7485 -1.6718 1.6718 -1.6718 1.6718 0.7485 1.6718 1.6718 z" transform="matrix(.768,0,0,.768,36.35692,465.34258)"/>
<path d="m 136.568 2013.65 0.1658 1.9671" fill="none" stroke="#000"/>
<path d="m 134.563 2013.84 0.1658 1.9671" fill="none" stroke="#000"/>
<path d="m 138.686 2013.42 0.1658 1.9671" fill="none" stroke="#000"/>
</g>
</svg>
