<svg viewBox="0 0 512 512" xmlns="http://www.w3.org/2000/svg">

<g transform="matrix(18.68858,0,0,18.68858,-2270.37459,-37447.32859)">
<path d="m134.715,2011.2188c-9.69-2.2762-10.1803-.5187-12.1875.3437 .399,3.3249 1.8129,6.8689.9375,12.4375 1.0244-.7618 3.179-5.1679 3.179-5.1679l-.4073,4.3914 2.7452-4.9222 .2632,2.4487 1.544-2.4179c-.0585,1.3337-.2389,2.7511-1.1372,4.001-2.0511,2.8539-2.8432,6.9481-2.8432,6.9481l2.4995-2.7012-1.0932,3.5762c2.0205-1.6429 2.9725-3.5098 3.5795-5.4687l.348,5.4063 1.4237-3.2188 1.8835,3.1875c-.007-1.3063-.1861-2.544.3088-3.75 .4556,1.5586 2.9885,2.7714 4.3014,2.2813-2.1429-2.1306-3.7163-8.6538.5301-10.9376 .1353,1.2005-.1973,2.401-1.0085,3.6015 1.4276-.6103 2.4031-1.488 2.9314-2.7135l-.532,6.1437c1.2725-2.0086 2.3489-4.4 2.4187-6.11 .5591,1.5483.431,4.0327.2879,5.902 2.6787-2.8591 2.7104-5.7173 2.8792-11.7924-3.3703-2.629-7.8246-3.0271-12.8517-1.4687z" fill="#fff" fill-rule="evenodd"/>
<path d="m135.508,2004.2388c-2.9129.3013-5.0658,2.4903-4.8188,4.8798 .1519,1.4707 1.1658,2.6599 2.6131,3.3006l1.0638,1.2543 4.4157-.3501 .5582-1.5283c1.2857-.9229 2.035-2.2944 1.8831-3.765-.247-2.3895-2.8023-4.0924-5.715-3.7913z" fill="#fff" stroke="#000"/>
<path d="m137.4149,2011.7928-2.2208.1629 .9416-2.2431z"/>
<path d="m134.7324,2009.4384c0,.9233-.7485,1.6717-1.6718,1.6717s-1.6718-.7484-1.6718-1.6717 .7485-1.6718 1.6718-1.6718 1.6718.7485 1.6718,1.6718z" transform="matrix(.768,0,0,.768,31.72943,465.8508)"/>
<path d="m134.7324,2009.4384c0,.9233-.7485,1.6717-1.6718,1.6717s-1.6718-.7484-1.6718-1.6717 .7485-1.6718 1.6718-1.6718 1.6718.7485 1.6718,1.6718z" transform="matrix(.768,0,0,.768,36.35692,465.34258)"/>
<path d="m136.5679,2013.6512 .1658,1.9671" fill="none" stroke="#000"/>
<path d="m134.563,2013.8403 .1658,1.9671" fill="none" stroke="#000"/>
<path d="m138.6863,2013.4242 .1658,1.9671" fill="none" stroke="#000"/>
</g>
</svg>
