<svg viewBox="0 0 512 512" xmlns="http://www.w3.org/2000/svg">

<g transform="matrix(18.68858,0,0,18.68858,-916.83801,-44232.45566)">
<path d="m 66.5555 2372.29 c -2.1434 -4.1396 -5.5804 -4.1586 -7.6768 -0.042 l -7.0939 12.32 c -2.5089 3.9281 -0.8071 6.9179 3.8009 6.678 h 14.185 c 4.608 0.2399 6.3098 -2.7499 3.8009 -6.678 z" fill="#fff" stroke="#fff"/>
<path d="m 59.9463 2372.86 1.5439 12.133 h 2.2386 l 1.5439 -12.133 c -1.8677 -4.0576 -3.6141 -2.7803 -5.3263 0 z"/>
<path d="m 61.4351 2386.18 h 2.3487 v 2.3487 h -2.3487 z"/>
<path d="m 66.098 2373.5 c -2.2747 -4.3911 -4.5268 -4.4416 -6.771 -0.037 l -6.2568 10.861 c -2.542 3.978 -1.8712 6.2004 3.3524 5.9287 h 12.5112 c 4.8139 0.2504 6.0729 -1.6714 3.3524 -5.9287 z" fill="none" stroke="#000"/>
</g>
</svg>
