<svg viewBox="0 0 512 512" xmlns="http://www.w3.org/2000/svg">

<g transform="matrix(18.68858,0,0,18.68858,-916.83801,-44232.45566)">
<path d="m66.5555,2372.2937c-2.1434-4.1396-5.5804-4.1586-7.6768-.042l-7.0939,12.32c-2.5089,3.9281-.8071,6.9179 3.8009,6.678h14.185c4.608.2399 6.3098-2.7499 3.8009-6.678z" fill="#fff" stroke="#fff"/>
<path d="m59.9463,2372.8621 1.5439,12.133h2.2386l1.5439-12.133c-1.8677-4.0576-3.6141-2.7803-5.3263,0z"/>
<path d="m61.4351,2386.1812h2.3487v2.3487h-2.3487z"/>
<path d="m66.098,2373.5021c-2.2747-4.3911-4.5268-4.4416-6.771-.037l-6.2568,10.861c-2.542,3.978-1.8712,6.2004 3.3524,5.9287h12.5112c4.8139.2504 6.0729-1.6714 3.3524-5.9287z" fill="none" stroke="#000"/>
</g>
</svg>
