<svg viewBox="0 0 512 512" xmlns="http://www.w3.org/2000/svg">

<g transform="matrix(18.68858,0,0,18.68858,-5276.47897,-4744.26834)">
<path d="m294.9575,258.5667 8.9608-2.2546" fill="none" stroke="#fff"/>
<path d="m303.3187,290.3027h-8.8873l4.4437-7.6966z" fill="#fff" transform="matrix(.11812,.44163,-.61431,.1649,445.40653,76.87491)"/>
<path d="m295.0373,254.6663c1.324.072 2.6752.9813 3.5548,2.4213 .8495,1.3907 1.1985,2.7753.7756,3.9064 4.8798-.8645 5.888,5.6773 6.9803,9.7498l-2.4237.6457-.5171,9.3301h-6.334l-.4847-7.3608-2.2621.6134c-1.0633-3.9642-2.6574-9.6047.5817-11.3963-.8734-.3892-1.696-1.0867-2.2621-2.0662-1.2011-2.0784-.8341-4.5089.8079-5.456 .1026-.0592.1835-.1489.2908-.1937 .4027-.168.8513-.2177 1.2927-.1937z" fill="#fff" fill-rule="evenodd" stroke="#000"/>
<path d="m288.5802,261.4533 6.1841-1.6601c1.9953-.5356 1.4381-2.548-.5395-2.0171l-6.1531,1.6518 .5085,2.0254z" fill="#fff" stroke="#000"/>
<path d="m283.1799,259.7736 2.4878,1.4363-1.4363,2.4878 3.8155-1.0224 1.4584-2.526-2.4797-1.4061-3.8457,1.0304z" fill="#fff"/>
</g>
</svg>
