<svg xmlns="http://www.w3.org/2000/svg" viewBox="0 0 512 512">
<g transform="matrix(15 0 0 15 -7004 -8809.4329)">
<use width="744.094" height="1052.362" transform="translate(504 584.36218)"/>
<g fill="#fff">
<path d="m468,614.3622 0-4c0-1 1-2 2-2h28c1,0 2,1 2,2v4c0,2-3,2-4,6h-24c-1-4-4-4-4-6z"/>
<path d="m484,588.3622c-2.04,0-3.9495,.6075-5.5312,1.6562l2.9375,2.9375c1.6324-.7803 3.5551-.7803 5.1875,0l2.9375-2.9375c-1.5817-1.0487-3.4913-1.6562-5.5312-1.6562zm-8.3438,4.4688c-1.0487,1.5817-1.6562,3.4913-1.6562,5.5312 0,2.04 .6075,3.9496 1.6562,5.5312l2.9375-2.9375c-.7803-1.6323-.7803-3.5551 0-5.1875l-2.9375-2.9375zm16.6875,0-2.9375,2.9375c.7803,1.6324 .7803,3.5552 0,5.1875l2.9375,2.9375c1.0487-1.5817 1.6562-3.4913 1.6562-5.5312 0-2.04-.6075-3.9496-1.6562-5.5312zm-10.9375,10.9375-2.9375,2.9375c1.5817,1.0487 3.4913,1.6562 5.5312,1.6562 2.04,0 3.9495-.6075 5.5312-1.6562l-2.9375-2.9375c-1.6324,.7803-3.5551,.7803-5.1875,0z"/>
<path d="m380,777.5a4,3.5 0 1,1 -8,0 4,3.5 0 1,1 8,0z" transform="matrix(.75 0 0 .85714 202 -68.06273)"/>
</g>
</g>
</svg>
