<svg viewBox="0 0 512 512" xmlns="http://www.w3.org/2000/svg">

<g transform="matrix(18.68858,0,0,18.68858,-5276.47897,-4744.26834)">
<path d="m 294.957 258.567 8.9608 -2.2546" fill="none" stroke="#fff"/>
<path d="m 303.319 290.303 h -8.8873 l 4.4437 -7.6966 z" fill="#fff" transform="matrix(.11812,.44163,-.61431,.1649,445.40653,76.87491)"/>
<path d="m 295.037 254.666 c 1.324 0.072 2.6752 0.9813 3.5548 2.4213 0.8495 1.3907 1.1985 2.7753 0.7756 3.9064 4.8798 -0.8645 5.888 5.6773 6.9803 9.7498 l -2.4237 0.6457 -0.5171 9.3301 h -6.334 l -0.4847 -7.3608 -2.2621 0.6134 c -1.0633 -3.9642 -2.6574 -9.6047 0.5817 -11.3963 -0.8734 -0.3892 -1.696 -1.0867 -2.2621 -2.0662 -1.2011 -2.0784 -0.8341 -4.5089 0.8079 -5.456 0.1026 -0.0592 0.1835 -0.1489 0.2908 -0.1937 0.4027 -0.168 0.8513 -0.2177 1.2927 -0.1937 z" fill="#fff" fill-rule="evenodd" stroke="#000"/>
<path d="m 288.58 261.453 6.1841 -1.6601 c 1.9953 -0.5356 1.4381 -2.548 -0.5395 -2.0171 l -6.1531 1.6518 0.5085 2.0254 z" fill="#fff" stroke="#000"/>
<path d="m 283.18 259.774 2.4878 1.4363 -1.4363 2.4878 3.8155 -1.0224 1.4584 -2.526 -2.4797 -1.4061 -3.8457 1.0304 z" fill="#fff"/>
</g>
</svg>
