<svg xmlns="http://www.w3.org/2000/svg" viewBox="0 0 512 512">
<g transform="matrix(15 0 0 15 -7004 -8809.4329)">
<use width="744.094" height="1052.362" transform="translate(504 584.36218)"/>
<g fill="#fff">
<path d="m 468 614.362 0 -4 c 0 -1 1 -2 2 -2 h 28 c 1 0 2 1 2 2 v 4 c 0 2 -3 2 -4 6 h -24 c -1 -4 -4 -4 -4 -6 z"/>
<path d="m 484 588.362 c -2.04 0 -3.9495 0.6075 -5.5312 1.6562 l 2.9375 2.9375 c 1.6324 -0.7803 3.5551 -0.7803 5.1875 0 l 2.9375 -2.9375 c -1.5817 -1.0487 -3.4913 -1.6562 -5.5312 -1.6562 z m -8.3438 4.4688 c -1.0487 1.5817 -1.6562 3.4913 -1.6562 5.5312 0 2.04 0.6075 3.9496 1.6562 5.5312 l 2.9375 -2.9375 c -0.7803 -1.6323 -0.7803 -3.5551 0 -5.1875 l -2.9375 -2.9375 z m 16.6875 0 -2.9375 2.9375 c 0.7803 1.6324 0.7803 3.5552 0 5.1875 l 2.9375 2.9375 c 1.0487 -1.5817 1.6562 -3.4913 1.6562 -5.5312 0 -2.04 -0.6075 -3.9496 -1.6562 -5.5312 z m -10.9375 10.9375 -2.9375 2.9375 c 1.5817 1.0487 3.4913 1.6562 5.5312 1.6562 2.04 0 3.9495 -0.6075 5.5312 -1.6562 l -2.9375 -2.9375 c -1.6324 0.7803 -3.5551 0.7803 -5.1875 0 z"/>
<path d="m 380 777.5 a 4 3.5 0 1 1 -8 0 4 3.5 0 1 1 8 0 z" transform="matrix(.75 0 0 .85714 202 -68.06273)"/>
</g>
</g>
</svg>
