<svg xmlns="http://www.w3.org/2000/svg" viewBox="0 0 512 512">
<g transform="matrix(15 0 0 15 -2144 -3824)">
<use width="744.094" height="1052.362" transform="translate(180 252)"/>
</g>
<g fill="#fff" transform="matrix(3.75 0 0 3.75 -1784 -2730.35818)">
<path d="m 1200 160 c -4.432 0 -8 3.568 -8 8 v 32 h -32 c -4.432 0 -8 3.568 -8 8 v 32 c 0 4.432 3.568 8 8 8 h 32 v 32 c 0 4.432 3.568 8 8 8 h 32 c 4.432 0 8 -3.568 8 -8 v -32 h 32 c 4.432 0 8 -3.568 8 -8 v -32 c 0 -4.432 -3.568 -8 -8 -8 h -32 v -32 c 0 -4.432 -3.568 -8 -8 -8 z m 0 36 32 0 -16 16 z m 0 20 32 0 -16 16 z m 0 20 32 0 -16 16 z" transform="translate(-672 572.36218)"/>
</g>
</svg>
