<svg viewBox="0 0 512 512" xmlns="http://www.w3.org/2000/svg">

<g transform="matrix(18.68858,0,0,18.68858,-7035.50423,-17041.44881)">
<path d="m 384.597 918.603 c 0.2793 -1.1801 2.4319 -1.7994 3.4406 -0.8461 l -0.1592 1.877 -2.0915 0.5549 -1.1899 -1.5858 z" fill="#fff" fill-rule="evenodd"/>
<path d="m 399.263 921.125 c 1.8136 3.1413 2.6199 13.9612 -2.5959 17.0826 -3.2512 1.9467 -11.9247 -3.3011 -13.645 -10.1251 -0.8867 -3.5173 1.4223 -8.2518 5.035 -9.3949 3.7929 -1.2001 9.3923 -0.7038 11.2059 2.4375 z" fill="#fff" stroke="#000"/>
<path d="m 388.908 927.873 c 1.2948 9.9725 20.0238 7.4567 9.6274 -7.0757" fill="#fff" fill-rule="evenodd" stroke="#000"/>
<path d="m 379.012 920.735 2.425 -4.3544 c 1.6188 1.1251 3.3474 2.8423 4.6667 4.6525 l -2.295 3.5237 c -1.234 -1.607 -3.2713 -2.8814 -4.7968 -3.8218 z" fill="#fff" fill-rule="evenodd"/>
<path d="m 318.632 929.979 c 0 0.9363 -1.2289 1.6953 -2.7447 1.6953 s -2.7447 -0.759 -2.7447 -1.6953 1.2289 -1.6953 2.7447 -1.6953 2.7447 0.759 2.7447 1.6953 z" stroke="#fff" stroke-width="1.4004" transform="matrix(.36645,-.62575,.61123,.34784,-303.97643,792.72173)"/>
<path d="m 394.083 926.499 c 0.4356 -2.1118 2.2019 -3.1297 4.6414 -3.879 l -1.4172 -5.4713 c -2.9915 1.0896 -7.0611 3.5233 -7.4858 8.1818" fill="#fff" fill-rule="evenodd"/>
<path d="m 318.632 929.979 c 0 0.9363 -1.2289 1.6953 -2.7447 1.6953 s -2.7447 -0.759 -2.7447 -1.6953 1.2289 -1.6953 2.7447 -1.6953 2.7447 0.759 2.7447 1.6953 z" stroke="#fff" stroke-width="1.4004" transform="matrix(.18335,.70159,-.67816,.18625,970.66976,524.75341)"/>
<path d="m 392.876 923.135 c -0.7242 -2.1841 0.365 -4.0673 2.2198 -6.0615 l -4.2292 -4.3003 c -2.1833 2.6031 -4.6458 7.0238 -2.5527 11.5557" fill="#fff" fill-rule="evenodd" stroke="#000"/>
<path d="m 318.632 929.979 c 0 0.9363 -1.2289 1.6953 -2.7447 1.6953 s -2.7447 -0.759 -2.7447 -1.6953 1.2289 -1.6953 2.7447 -1.6953 2.7447 0.759 2.7447 1.6953 z" stroke="#fff" stroke-width="1.4004" transform="matrix(.50958,.51592,-.49418,.50038,691.35352,286.91357)"/>
<path d="m 386.057 920.132 c -1.3069 -1.6303 -2.8845 -3.209 -4.5892 -4.3954" fill="none" stroke="#000"/>
<path d="m 396.124 923.008 c 1.2177 -0.3523 2.5659 -0.6209 3.8602 -0.7022" fill="none" stroke="#000"/>
</g>
</svg>
