<svg viewBox="0 0 512 512" xmlns="http://www.w3.org/2000/svg">

<g transform="matrix(18.68858,0,0,18.68858,-2952.5193,-34036.44648)">
<g transform="translate(-437.1837,617.941)">
<path d="m 616.422 1207.91 c -1.2929 3.2404 -4.8149 3.4309 -8.7026 1.6614 -3.913 -1.781 -3.358 -1.7682 -6.8956 -4.0379 -3.223 -2.0678 -6.0424 1.7757 -3.2001 4.0004 3.371 2.6387 5.9736 3.625 5.5587 6.4632 -0.6072 4.1543 -6.6361 3.9724 -6.0485 10.9451 0.3991 4.7362 7.6943 4.2537 5.6738 -0.912 -0.5756 -1.4718 1.7336 -4.0377 3.5808 -3.7177 1.618 0.2803 0.7867 5.3396 3.303 6.9611 4.3875 2.8277 9.0249 -1.3793 4.1246 -4.7154 -2.0871 -1.4208 -1.9555 -6.2679 -0.6141 -8.0717 0.9529 -1.2814 5.8597 -0.895 8.0585 -5.925 1.9799 -4.5295 -3.1828 -6.8012 -4.8385 -2.6515 z" fill="#fff" fill-rule="evenodd" stroke="#000"/>
<path d="m 617.087 1210.68 c 0 2.5471 -2.0648 4.6119 -4.6119 4.6119 s -4.6119 -2.0648 -4.6119 -4.6119 2.0648 -4.6119 4.6119 -4.6119 4.6119 2.0649 4.6119 4.6119 z" fill="#fff" transform="matrix(.49154,.49154,-.61766,.61766,1057.3711,159.21178)"/>
</g>
<path d="m 174.47 1832.74 c -0.5758 1.9682 -4.0758 2.3389 -4.7121 3.3149 0.0691 -1.2711 -2.4529 -3.4073 -1.8531 -5.4615 0.5759 -1.9729 3.1214 -1.6095 3.5303 0.3322 1.5131 -1.3574 3.6024 -0.1255 3.0349 1.8144 z"/>
</g>
</svg>
