<svg viewBox="0 0 512 512" xmlns="http://www.w3.org/2000/svg">

<g transform="matrix(18.68858,0,0,18.68858,-3631.70203,-25182.73987)">
<path d="m200.5826,1360.9835h16.0811l-2.8968,10.2414-2.9384,2.2439-10.1508-2.7248-1.9233-3.0986z" fill="#fff"/>
<path d="m208.9578,1350.2828-1.0693,3.9906-1.4667-.3929c-2.033-.5448-4.117.6297-4.6617,2.6626l-2.6688,9.9599c-.5447,2.033.6637,4.1262 2.6967,4.6708l7.6746,2.0564c2.033.5448 4.092-.6728 4.6368-2.7059l2.6687-9.9597c.5447-2.033-.6387-4.083-2.6717-4.6279l-1.5008-.402 1.0693-3.9908-4.7071-1.2611z" fill="none" stroke="#fff"/>
<path d="m203.2676,1360.9102c-.9205,3.0461 2.8932,4.9005 3.3153,8.3002 2.0009-2.7508 6.1745-2.6657 7.0414-5.5285 .9242-3.0519-2.751-4.6688-4.8718-2.5589-.7217-3.1161-4.6211-3.0708-5.4849-.2128z" fill="#fff" stroke="#000"/>
<path d="m207.5044,1348.1794 8.5219,2.2835-.874,3.262-8.522-2.2834z" fill="#fff" stroke="#000"/>
<path d="m212.1374,1355.6247c-1.1589,1.3778 3.0183,5.7677 4.3809,3.5528l-.5343-2.2439z" fill="#fff"/>
</g>
</svg>
