<svg viewBox="0 0 512 512" xmlns="http://www.w3.org/2000/svg">

<g transform="matrix(18.68858,0,0,18.68858,-9758.25719,-23823.51632)">
<path d="m 525.779 1276 v 5.9459 l 10.042 12.4486 10.042 -12.4486 v -5.9459 h -3.4472 v 2.8046 h -2.0983 v -2.8046 h -3.4847 v 2.8046 h -2.0608 v -2.8046 h -3.4847 v 2.8046 h -2.0608 v -2.8046 h -3.4472 z" fill="#fff"/>
<path d="m 529.052 1284.78 h 13.5392 v 15.322 h -13.5392 z" fill="#fff" stroke="#fff"/>
<path d="m 526.946 1296.09 h 17.7509 l 1.5357 4.9676 h -20.8222 l 1.5357 -4.9676 z" fill="#fff"/>
<path d="m 529.619 1287.01 c -0.1156 3.6814 4.7026 4.6136 6.1935 8.2887 1.4114 -3.6748 6.1012 -4.8283 6.2118 -8.2887 0.1178 -3.6889 -4.4741 -4.3971 -6.2118 -1.4032 -1.7408 -3.2682 -6.0851 -2.0507 -6.1935 1.4032 z"/>
<path d="m 580.205 1287.43 c 0 1.7456 -1.4151 3.1607 -3.1607 3.1607 s -3.1607 -1.4151 -3.1607 -3.1607 1.4151 -3.1607 3.1607 -3.1607 3.1607 1.4151 3.1607 3.1607 z" fill="#fff" stroke="#000" stroke-width="1.2614" transform="matrix(.79275,0,0,.79275,81.49687,266.19318)"/>
<path d="m 570.402 1289.88 c 0 1.7087 -1.3851 3.0938 -3.0938 3.0938 s -3.0938 -1.3851 -3.0938 -3.0938 1.3851 -3.0937 3.0938 -3.0937 3.0938 1.3851 3.0938 3.0937 z" transform="matrix(.38337,.66402,-.49692,.28689,961.90385,540.41452)"/>
</g>
</svg>
