<svg viewBox="0 0 512 512" xmlns="http://www.w3.org/2000/svg">

<g transform="matrix(18.68858,0,0,18.68858,-9758.25719,-23823.51632)">
<path d="m525.7794,1275.9955v5.9459l10.042,12.4486 10.042-12.4486v-5.9459h-3.4472v2.8046h-2.0983v-2.8046h-3.4847v2.8046h-2.0608v-2.8046h-3.4847v2.8046h-2.0608v-2.8046h-3.4472z" fill="#fff"/>
<path d="m529.0518,1284.7802h13.5392v15.322h-13.5392z" fill="#fff" stroke="#fff"/>
<path d="m526.946,1296.0926h17.7509l1.5357,4.9676h-20.8222l1.5357-4.9676z" fill="#fff"/>
<path d="m529.6187,1287.0129c-.1156,3.6814 4.7026,4.6136 6.1935,8.2887 1.4114-3.6748 6.1012-4.8283 6.2118-8.2887 .1178-3.6889-4.4741-4.3971-6.2118-1.4032-1.7408-3.2682-6.0851-2.0507-6.1935,1.4032z"/>
<path d="m580.2054,1287.4336c0,1.7456-1.4151,3.1607-3.1607,3.1607s-3.1607-1.4151-3.1607-3.1607 1.4151-3.1607 3.1607-3.1607 3.1607,1.4151 3.1607,3.1607z" fill="#fff" stroke="#000" stroke-width="1.2614" transform="matrix(.79275,0,0,.79275,81.49687,266.19318)"/>
<path d="m570.4018,1289.8845c0,1.7087-1.3851,3.0938-3.0938,3.0938s-3.0938-1.3851-3.0938-3.0938 1.3851-3.0937 3.0938-3.0937 3.0938,1.3851 3.0938,3.0937z" transform="matrix(.38337,.66402,-.49692,.28689,961.90385,540.41452)"/>
</g>
</svg>
