<svg viewBox="0 0 512 512" xmlns="http://www.w3.org/2000/svg">

<g transform="matrix(18.68858,0,0,18.68858,-3631.70203,-25182.73987)">
<path d="m 200.583 1360.98 h 16.0811 l -2.8968 10.2414 -2.9384 2.2439 -10.1508 -2.7248 -1.9233 -3.0986 z" fill="#f00"/>
<path d="m 208.958 1350.28 -1.0693 3.9906 -1.4667 -0.3929 c -2.033 -0.5448 -4.117 0.6297 -4.6617 2.6626 l -2.6688 9.9599 c -0.5447 2.033 0.6637 4.1262 2.6967 4.6708 l 7.6746 2.0564 c 2.033 0.5448 4.092 -0.6728 4.6368 -2.7059 l 2.6687 -9.9597 c 0.5447 -2.033 -0.6387 -4.083 -2.6717 -4.6279 l -1.5008 -0.402 1.0693 -3.9908 -4.7071 -1.2611 z" fill="none" stroke="#f00"/>
<path d="m 203.268 1360.91 c -0.9205 3.0461 2.8932 4.9005 3.3153 8.3002 2.0009 -2.7508 6.1745 -2.6657 7.0414 -5.5285 0.9242 -3.0519 -2.751 -4.6688 -4.8718 -2.5589 -0.7217 -3.1161 -4.6211 -3.0708 -5.4849 -0.2128 z" fill="#f00" stroke="#000"/>
<path d="m 207.504 1348.18 8.5219 2.2835 -0.874 3.262 -8.522 -2.2834 z" fill="#f00" stroke="#000"/>
<path d="m 212.137 1355.62 c -1.1589 1.3778 3.0183 5.7677 4.3809 3.5528 l -0.5343 -2.2439 z" fill="#f00"/>
</g>
</svg>
