<svg viewBox="0 0 512 512" xmlns="http://www.w3.org/2000/svg">

<g transform="matrix(18.68858,0,0,18.68858,-2270.80849,-31999.3053)">
<path d="m 132.125 1714.88 c 2.8943 -0.5964 3.6949 0.5017 4.2188 2.3125 0.9005 3.1129 -3.5417 3.7746 -3.2188 -0.5625 -1.3575 0.8544 -1.8236 2.8287 0 4.5625 1.2133 1.1534 0.7152 2.8125 -0.7188 2.8125 -2.3937 0.01 -5.7656 -4.0293 -3.1875 -7.4688 -1.8949 0.7274 -3.1821 1.372 -3.625 3.1876 -0.3799 -1.5769 0.3464 -2.9724 1.6875 -3.6563 -5.4567 0.395 -3.9677 6.0428 -0.0312 7.1875 3.515 1.022 0.2625 5.8227 -2.625 1.5938 -0.3121 6.0072 3.4313 7.0615 7.2812 9.6874 1.7003 1.1597 2.4802 1.8569 2.4802 2.9558 0 1.8988 2.8172 1.9245 2.8172 -0.1682 0 -1.1332 0.9732 -1.8536 2.8588 -3.0376 3.0877 -1.9386 5.4688 -4.8785 5.4688 -6.9687 0 -3.6981 -2.2959 -4.8558 -5.734 -6.3489 2.844 3.1789 -2.1509 4.4948 -3.088 2.2628 -0.8128 -1.936 0.3466 -3.2035 1.801 -3.2864 3.6923 -0.2106 4.9615 -4.3492 2.3022 -6.2525 0.5884 1.1234 0.2991 2.3498 -0.6875 3.2187 -0.7435 -3.8584 -5.2183 -4.9764 -8 -2.0312 z" fill="#fff"/>
<path d="m 141.443 1728.82 c 0.1062 3.3857 -5.1983 5.7647 -5.6963 7.6232 -0.5442 -2.0309 -5.6003 -4.0902 -5.7131 -7.6232 -0.1083 -3.3931 4.0744 -4.1289 5.7131 -1.2907 1.6788 -2.9077 5.5916 -2.0456 5.6963 1.2907 z"/>
<path d="m 139.349 1730.71 c 0.0673 2.1432 -3.2903 3.649 -3.6056 4.8253 -0.3444 -1.2854 -3.5448 -2.5889 -3.6162 -4.8253 -0.0685 -2.1475 2.5789 -2.6134 3.6162 -0.8168 1.0626 -1.8405 3.5393 -1.2948 3.6056 0.8168 z" fill="#fff"/>
<path d="m 141.443 1728.82 c 0.1062 3.3857 -5.1983 5.7647 -5.6963 7.6232 -0.5442 -2.0309 -5.6003 -4.0902 -5.7131 -7.6232 -0.1083 -3.3931 4.0744 -4.129 5.7131 -1.2907 1.6788 -2.9077 5.5916 -2.0456 5.6963 1.2907 z" fill="none" stroke="#000"/>
<path d="m 145.968 1724.33 c 4.544 -5.8725 -0.7566 -5.9947 0.1072 -8.5408 -3.7019 3.5036 0.9727 3.4566 -0.1072 8.5408 z" fill="#fff"/>
</g>
</svg>
