<svg viewBox="0 0 512 512" xmlns="http://www.w3.org/2000/svg">

<g transform="matrix(18.68858,0,0,18.68858,-7036.65665,-23141.04802)">
<path d="m397.3729,1259.0031c5.3886-5.3885-1.2826-12.7617-.1606-15.9701 .6613-1.8913 1.9087-2.0443 2.9991-1.4147 1.0671.616 1.627,1.6408.9618,2.9425 1.768-.6752 1.9933-2.7526.5093-4.1307-.2119-.197-.4826-.3754-.7639-.5376-2.0211-1.1669-5.0988-.9286-6.2527,2.5181-1.181,3.5274 5.4116,8.9611.1695,14.2031-5.1722,5.1721-10.6757-1.3505-14.2031-.1695-3.4465,1.1538-3.685,4.2316-2.5182,6.2528 1.2983,2.2487 3.8967,2.275 4.6683.2545-1.3018.6652-2.3264.105-2.9425-.9619-.6295-1.0904-.4767-2.3377 1.4146-2.999 3.2084-1.1219 10.59,5.5407 16.1182.012z" fill="#fff" fill-rule="evenodd"/>
<path d="m401.1562,1255.8438-6.7188-1.4375-13.6562-13-1.0938,1.0937 12.9688,13.7188 1.4375,6.6875" fill="#fff" stroke="#000"/>
<path d="m-139.9086-1262.875h7.4634v7.4634h-7.4634z" stroke="#fff" stroke-width="1.0474" transform="matrix(-.97765,-.21025,-.21025,-.97765,0,0)"/>
<path d="m395.0042,1262.4934 1.9859-3.7416 3.7415-1.9859" fill="none" stroke="#fff"/>
<path d="m397.1228,1241.3447-16.7327.7534-.7763,16.635" fill="none" stroke="#fff"/>
<path d="m379.7502,1239.1875 .2547,2.4451-2.4111-.1528 2.9884,3.6167 2.4451-.4415 .4415-2.445-3.7186-3.0225z" fill="#fff"/>
<path d="m378.1558,1257.2886c.9741-.82 2.0691-1.2575 3.1351-1.6123" fill="none" stroke="#000"/>
<path d="m394.0173,1242.7097c.3641-1.2202 1.0393-2.1869 1.7356-3.0686" fill="none" stroke="#000"/>
</g>
</svg>
