<svg viewBox="0 0 512 512" xmlns="http://www.w3.org/2000/svg">

<g transform="matrix(18.68858,0,0,18.68858,3884.00698,-14891.86266)">
<path d="m -203.266 800.217 c -2.1462 1.6093 -3.4611 3.7721 -3.4611 6.1637 0 4.9546 5.6347 8.9709 12.6004 8.9709 s 12.6545 -4.0164 12.6545 -8.9709 c 0 -2.3915 -1.369 -4.5544 -3.5151 -6.1637 0.7607 1.0261 1.2438 2.1776 1.2438 3.4175 2e-05 4.0733 -4.6565 7.3842 -10.3832 7.3842 s -10.3832 -3.311 -10.3832 -7.3842 c 0 -1.2399 0.4831 -2.3914 1.2438 -3.4175 z" fill="#fff"/>
<path d="m -202.521 814.067 -2.5844 -1.1932 2.4983 -7.2037 2.5414 0.7955" fill="#fff" fill-rule="evenodd" stroke="#000"/>
<path d="m -185.593 814.067 2.5844 -1.1932 -2.4983 -7.2037 -2.5414 0.7955" fill="#fff" fill-rule="evenodd" stroke="#000"/>
<path d="m -184.911 821.274 c -5.475 3.1783 -12.1106 3.2241 -17.9725 0 0 -12.7913 0.8942 -13.7613 8.9863 -21.0021 7.7107 7.7066 8.9862 8.8918 8.9862 21.0021 z" fill="#fff" stroke="#000"/>
<path d="m -188.218 813.599 -0.5103 -1.3327 c -3.435 0.9199 -7.0083 0.95 -10.5556 0 l -0.5466 1.3327 c 4.0827 1.0934 7.6642 1.0574 11.6125 0 z" fill-rule="evenodd" stroke="#000"/>
<path d="m -194.284 813.047 -0.8754 10.2979 h 2.4762 l -0.9004 -10.2979 h -0.7003 z" stroke="#000"/>
<path d="m -197.078 797.318 h 6.5199 l -1.1398 11.6658 c -0.4703 1.7541 -3.9325 1.6581 -4.377 0 l -1.0031 -11.6658 z" fill="#fff" stroke="#000"/>
</g>
</svg>
