<svg viewBox="0 0 512 512" xmlns="http://www.w3.org/2000/svg">

<g transform="matrix(18.68858,0,0,18.68858,-7036.65665,-23141.04802)">
<path d="m 397.373 1259 c 5.3886 -5.3885 -1.2826 -12.7617 -0.1606 -15.9701 0.6613 -1.8913 1.9087 -2.0443 2.9991 -1.4147 1.0671 0.616 1.627 1.6408 0.9618 2.9425 1.768 -0.6752 1.9933 -2.7526 0.5093 -4.1307 -0.2119 -0.197 -0.4826 -0.3754 -0.7639 -0.5376 -2.0211 -1.1669 -5.0988 -0.9286 -6.2527 2.5181 -1.181 3.5274 5.4116 8.9611 0.1695 14.2031 -5.1722 5.1721 -10.6757 -1.3505 -14.2031 -0.1695 -3.4465 1.1538 -3.685 4.2316 -2.5182 6.2528 1.2983 2.2487 3.8967 2.275 4.6683 0.2545 -1.3018 0.6652 -2.3264 0.105 -2.9425 -0.9619 -0.6295 -1.0904 -0.4767 -2.3377 1.4146 -2.999 3.2084 -1.1219 10.59 5.5407 16.1182 0.012 z" fill="#fff" fill-rule="evenodd"/>
<path d="m 401.156 1255.84 -6.7188 -1.4375 -13.6562 -13 -1.0938 1.0937 12.9688 13.7188 1.4375 6.6875" fill="#fff" stroke="#000"/>
<path d="m -139.909 -1262.88 h 7.4634 v 7.4634 h -7.4634 z" stroke="#fff" stroke-width="1.0474" transform="matrix(-.97765,-.21025,-.21025,-.97765,0,0)"/>
<path d="m 395.004 1262.49 1.9859 -3.7416 3.7415 -1.9859" fill="none" stroke="#fff"/>
<path d="m 397.123 1241.34 -16.7327 0.7534 -0.7763 16.635" fill="none" stroke="#fff"/>
<path d="m 379.75 1239.19 0.2547 2.4451 -2.4111 -0.1528 2.9884 3.6167 2.4451 -0.4415 0.4415 -2.445 -3.7186 -3.0225 z" fill="#fff"/>
<path d="m 378.156 1257.29 c 0.9741 -0.82 2.0691 -1.2575 3.1351 -1.6123" fill="none" stroke="#000"/>
<path d="m 394.017 1242.71 c 0.3641 -1.2202 1.0393 -2.1869 1.7356 -3.0686" fill="none" stroke="#000"/>
</g>
</svg>
