<svg viewBox="0 0 512 512" xmlns="http://www.w3.org/2000/svg">

<g transform="matrix(18.68858,0,0,18.68858,3884.00698,-14891.86266)">
<path d="m-203.2656,800.2167c-2.1462,1.6093-3.4611,3.7721-3.4611,6.1637 0,4.9546 5.6347,8.9709 12.6004,8.9709s12.6545-4.0164 12.6545-8.9709c0-2.3915-1.369-4.5544-3.5151-6.1637 .7607,1.0261 1.2438,2.1776 1.2438,3.4175 2e-05,4.0733-4.6565,7.3842-10.3832,7.3842s-10.3832-3.311-10.3832-7.3842c0-1.2399.4831-2.3914 1.2438-3.4175z" fill="#fff"/>
<path d="m-202.5207,814.0672-2.5844-1.1932 2.4983-7.2037 2.5414.7955" fill="#fff" fill-rule="evenodd" stroke="#000"/>
<path d="m-185.5925,814.0672 2.5844-1.1932-2.4983-7.2037-2.5414.7955" fill="#fff" fill-rule="evenodd" stroke="#000"/>
<path d="m-184.9112,821.2737c-5.475,3.1783-12.1106,3.2241-17.9725,0 0-12.7913.8942-13.7613 8.9863-21.0021 7.7107,7.7066 8.9862,8.8918 8.9862,21.0021z" fill="#fff" stroke="#000"/>
<path d="m-188.2178,813.5994-.5103-1.3327c-3.435.9199-7.0083.95-10.5556,0l-.5466,1.3327c4.0827,1.0934 7.6642,1.0574 11.6125,0z" fill-rule="evenodd" stroke="#000"/>
<path d="m-194.2842,813.0467-.8754,10.2979h2.4762l-.9004-10.2979h-.7003z" stroke="#000"/>
<path d="m-197.0778,797.3176h6.5199l-1.1398,11.6658c-.4703,1.7541-3.9325,1.6581-4.377,0l-1.0031-11.6658z" fill="#fff" stroke="#000"/>
</g>
</svg>
