<svg viewBox="0 0 512 512" xmlns="http://www.w3.org/2000/svg">

<g transform="matrix(18.68858,0,0,18.68858,-5277.01116,-955.09776)">
<path d="m 283.295 67.0703 v 3.0312 c 2.4602 2.9396 4.8361 5.7277 5.6875 6.4688 2.5497 2.2193 4.3862 -0.1436 2.4062 -2.4375 -0.8799 -1.0194 -4.5374 -4.1156 -8.0938 -7.0625 z" fill="#fff"/>
<path d="m 283.295 58.1953 v 2.9062 c 2.2849 2.9394 4.6776 5.9144 5.7812 6.875 2.8759 2.5032 4.9832 -0.1314 2.75 -2.7188 -1.1456 -1.3273 -5.1248 -4.4552 -8.5312 -7.0625 z" fill="#fff"/>
<path d="m 285.076 52.2891 c 1.3303 1.7063 14.9826 19.1872 18.25 22.0312 4.115 3.5817 7.1017 -0.2041 3.9062 -3.9062 -2.7929 -3.2356 -19.7705 -16.4859 -21.875 -18.125 h -0.2812 z" fill="#fff"/>
<path d="m 295.17 52.2891 c 2.4255 3.2848 7.0929 9.5385 8.8438 11.0625 2.8758 2.5032 4.9832 -0.1627 2.75 -2.75 -1.4216 -1.647 -6.9065 -5.7896 -10.3125 -8.3125 h -1.2812 z" fill="#fff"/>
<path d="m 302.201 52.2891 c 0.7718 0.8603 1.4516 1.588 1.7812 1.875 2.1961 1.9115 3.8074 0.0933 2.4688 -1.875 h -4.25 z" fill="#fff"/>
</g>
</svg>
