<svg xmlns="http://www.w3.org/2000/svg" viewBox="0 0 512 512">
<g transform="matrix(15 0 0 15 -4304 -2204)">
<use width="744.094" height="1052.362" transform="translate(324 144)"/>
<path fill="#fff" d="m304,148c-8.8366,0-16,7.1634-16,16 0,8.8366 7.1634,16 16,16 8.8366,0 16-7.1634 16-16 0-8.8366-7.1634-16-16-16zm0,4c6.6274,0 12,5.3726 12,12 0,6.6274-5.3726,12-12,12-6.6274,0-12-5.3726-12-12 0-6.6274 5.3726-12 12-12z"/>
</g>
<g fill="#fff">
<g transform="matrix(30 0 0 30 -16304 -21954.866)">
<use width="800" height="600" transform="translate(248 -715.63781)"/>
</g>
<g transform="matrix(15 0 0 15 -8864 -13489.433)">
<path d="m608,454c-4.4183,0-8,2.6863-8,6 0,2 4,2 4,0 0-1.1046 1.7908-2 4-2 2.2092,0 4,.8954 4,2 0,1.1046-2,1-4,2-.125,.0625-.2319,.1418-.3125,.2188-1.6523,1.0469-1.6875,2.8429-1.6875,3.7812v1c0,1.108 .892,2 2,2 1.108,0 2-.892 2-2v-1c0-3 6-2.6863 6-6 0-3.3137-3.5817-6-8-6z" transform="translate(0 452.36218)"/>
<path d="m608,470a2,2 0 0,1 2,2 2,2 0 0,1 -2,2 2,2 0 0,1 -2-2 2,2 0 0,1 2-2" transform="translate(0 452.36218)"/>
</g>
</g>
</svg>
