<svg viewBox="0 0 512 512" xmlns="http://www.w3.org/2000/svg">

<g transform="matrix(18.68858,0,0,18.68858,-4314.13179,-19762.31258)">
<path d="m 231.719 1058.38 v 5.045 l 1.0956 0.762 0.3413 -1.7154 2.7008 1.7779 -1.1693 -4.8085 1.58 0.7497 -0.5438 -1.8107 h -4.0046 z m 6.4062 0 1.0625 2.25 -2.25 2.5 h 2.1995 l 0.25 2.125 1.125 -1.375 0.5568 3.3145 2.0727 -3.036 1.35 1.7487 1.2946 -4.8776 1.8068 1.1294 0.0322 -2.7165 2.5492 1.3075 -0.1621 3.6112 1.522 -2.2362 0.6844 1.1836 3.2191 -3.4388 0.0625 2.3648 1.8125 -2.2812 v -1.5734 h -19.1875 z" fill="#fff"/>
<path d="m 249.031 1075.5 -3.5 4.5625 -0.6562 -2.25 -1.5625 5.1875 -2.6875 -3.625 -0.7812 4.5938 h 13.7812 l -0.3438 -1.8438 -2.8438 1.0625 -0.5 -2.8437 -0.9062 0.7187 v -5.5625 z m -16.0938 0.8125 -1.2188 1.0625 v 6.5938 h 6.9603 l -0.8665 -4.0938 -0.7424 0.8946 -1.3201 -2.8946 -1.7812 2.9063 -1.0312 -4.4688 z" fill="#fff"/>
<path d="m 256.047 1074.86 -0.1446 1.8804 -4.3031 -0.217 4.1946 3.5437 -2.1335 0.5063 3.6522 1.4464 v -5.641 l -1.2656 -1.5188 z" fill="#fff"/>
<g transform="translate(443.8902,33.5392)">
<path d="m -187.145 1034.6 c 0.0731 8.4268 -4.6737 4.9225 -10.4448 5.5535 1.5636 -5.2925 5.3415 -6.3258 10.4448 -5.5535 z" fill-rule="evenodd" stroke="#fff"/>
<path d="m 181.781 1033.71 c 0 1.2427 -1.0074 2.25 -2.25 2.25 s -2.25 -1.0073 -2.25 -2.25 1.0074 -2.25 2.25 -2.25 2.25 1.0074 2.25 2.25 z" fill="#fff" transform="translate(-371.3051,4.3973)"/>
</g>
<g transform="matrix(-1,0,0,1,45.76516,33.53925)">
<path d="m -186.924 1034.6 c 0.0731 8.4268 -4.6737 4.9225 -10.4448 5.5535 1.5636 -5.2925 5.3415 -6.3258 10.4448 -5.5535 z" fill-rule="evenodd" stroke="#fff"/>
<path d="m 181.781 1033.71 c 0 1.2427 -1.0074 2.25 -2.25 2.25 s -2.25 -1.0073 -2.25 -2.25 1.0074 -2.25 2.25 -2.25 2.25 1.0074 2.25 2.25 z" fill="#fff" transform="translate(-371.0842,4.3973)"/>
</g>
<path d="m 237.312 1069.36 v 6.7187" fill="none" stroke="#000"/>
<path d="m 252.188 1069.36 v 6.7187" fill="none" stroke="#000"/>
</g>
</svg>
