<svg viewBox="0 0 512 512" xmlns="http://www.w3.org/2000/svg">

<g transform="matrix(18.68858,0,0,18.68858,-4314.13179,-19762.31258)">
<path d="m231.7188,1058.375v5.045l1.0956.762 .3413-1.7154 2.7008,1.7779-1.1693-4.8085 1.58.7497-.5438-1.8107h-4.0046zm6.4062,0 1.0625,2.25-2.25,2.5h2.1995l.25,2.125 1.125-1.375 .5568,3.3145 2.0727-3.036 1.35,1.7487 1.2946-4.8776 1.8068,1.1294 .0322-2.7165 2.5492,1.3075-.1621,3.6112 1.522-2.2362 .6844,1.1836 3.2191-3.4388 .0625,2.3648 1.8125-2.2812v-1.5734h-19.1875z" fill="#fff"/>
<path d="m249.0312,1075.5-3.5,4.5625-.6562-2.25-1.5625,5.1875-2.6875-3.625-.7812,4.5938h13.7812l-.3438-1.8438-2.8438,1.0625-.5-2.8437-.9062.7187v-5.5625zm-16.0938.8125-1.2188,1.0625v6.5938h6.9603l-.8665-4.0938-.7424.8946-1.3201-2.8946-1.7812,2.9063-1.0312-4.4688z" fill="#fff"/>
<path d="m256.0469,1074.8554-.1446,1.8804-4.3031-.217 4.1946,3.5437-2.1335.5063 3.6522,1.4464v-5.641l-1.2656-1.5188z" fill="#fff"/>
<g transform="translate(443.8902,33.5392)">
<path d="m-187.1454,1034.5978c.0731,8.4268-4.6737,4.9225-10.4448,5.5535 1.5636-5.2925 5.3415-6.3258 10.4448-5.5535z" fill-rule="evenodd" stroke="#fff"/>
<path d="m181.7812,1033.7059c0,1.2427-1.0074,2.25-2.25,2.25s-2.25-1.0073-2.25-2.25 1.0074-2.25 2.25-2.25 2.25,1.0074 2.25,2.25z" fill="#fff" transform="translate(-371.3051,4.3973)"/>
</g>
<g transform="matrix(-1,0,0,1,45.76516,33.53925)">
<path d="m-186.9245,1034.5978c.0731,8.4268-4.6737,4.9225-10.4448,5.5535 1.5636-5.2925 5.3415-6.3258 10.4448-5.5535z" fill-rule="evenodd" stroke="#fff"/>
<path d="m181.7812,1033.7059c0,1.2427-1.0074,2.25-2.25,2.25s-2.25-1.0073-2.25-2.25 1.0074-2.25 2.25-2.25 2.25,1.0074 2.25,2.25z" fill="#fff" transform="translate(-371.0842,4.3973)"/>
</g>
<path d="m237.3125,1069.3622v6.7187" fill="none" stroke="#000"/>
<path d="m252.1875,1069.3622v6.7187" fill="none" stroke="#000"/>
</g>
</svg>
