<svg viewBox="0 0 512 512" xmlns="http://www.w3.org/2000/svg">

<g transform="matrix(18.68858,0,0,18.68858,-7724.10095,-44230.57933)">
<path d="m437.9448,2391.9038-18.664-1.6789m-2.1669-2.2951-1.4356-18.001" fill="none" stroke="#fff"/>
<path d="m439.8515,2393.2643c-6.5692.3778-3.0626-10.4317-9.7371-13.8738l3.4685-3.4685c5.2865,2.5866 1.9907,13.7465 6.2687,17.3423z" fill="#fff"/>
<path d="m414.3438,2367.8125c-.3745,6.5114 10.3398,3.0358 13.7517,9.6514l3.4379-3.4379c-2.5639-5.24-13.6257-1.9731-17.1896-6.2135z" fill="#fff"/>
<path d="m417.6891,2393.7964 22.6276-26.5611-26.6034,22.5851" fill="#fff" stroke="#000"/>
<path d="m433.322,2370.8175 6.3461-3.008-3.0082,6.346-.6343-2.7036z" fill="#fff"/>
<path d="m418.6854,2388.7921 17.7188-17.7186" fill="none" stroke="#fff"/>
<path d="m413.3689,2390.3953 6.7243-3.048-2.9777,6.7951z"/>
</g>
</svg>
