<svg viewBox="0 0 512 512" xmlns="http://www.w3.org/2000/svg">

<g transform="matrix(18.68858,0,0,18.68858,-7724.10095,-44230.57933)">
<path d="m 437.945 2391.9 -18.664 -1.6789 m -2.1669 -2.2951 -1.4356 -18.001" fill="none" stroke="#fff"/>
<path d="m 439.851 2393.26 c -6.5692 0.3778 -3.0626 -10.4317 -9.7371 -13.8738 l 3.4685 -3.4685 c 5.2865 2.5866 1.9907 13.7465 6.2687 17.3423 z" fill="#fff"/>
<path d="m 414.344 2367.81 c -0.3745 6.5114 10.3398 3.0358 13.7517 9.6514 l 3.4379 -3.4379 c -2.5639 -5.24 -13.6257 -1.9731 -17.1896 -6.2135 z" fill="#fff"/>
<path d="m 417.689 2393.8 22.6276 -26.5611 -26.6034 22.5851" fill="#fff" stroke="#000"/>
<path d="m 433.322 2370.82 6.3461 -3.008 -3.0082 6.346 -0.6343 -2.7036 z" fill="#fff"/>
<path d="m 418.685 2388.79 17.7188 -17.7186" fill="none" stroke="#fff"/>
<path d="m 413.369 2390.4 6.7243 -3.048 -2.9777 6.7951 z"/>
</g>
</svg>
