<svg xmlns="http://www.w3.org/2000/svg" viewBox="0 0 512 512">
<g transform="matrix(15 0 0 15 -5924 -12049.433)">
<use width="744.094" height="1052.362" transform="translate(432 800.36218)"/>
<g fill="#fff">
<path d="m408,552c0,0-4,1.338-4,3h-1c-2.216,0-4,1.338-4,3 0,.7664 .3739,1.4708 1,2-2.216,0-4,2.061-4,4 0,1.939 1.784,3 4,3h2.0312c.3124-5.3836 3.1439-9.8449 6.9688-11.4062v-3.5938h-1zm7,0 0,3.5938c3.8248,1.5613 6.6563,6.0227 6.9688,11.4062h2.0312c2.216,0 4-1.061 4-3 0-1.939-1.784-4-4-4 .6261-.5292 1-1.2336 1-2 0-1.662-1.784-3-4-3h-1c0-1.662-4-3-4-3h-1zm-15,17c-2.216,0-4,1.061-4,3 0,1.939 1.784,4 4,4-.6261,.5292-1,1.2336-1,2 0,1.662 1.784,3 4,3h1c0,1.662 4,3 4,3h1v-3.5938c-3.8248-1.5613-6.6563-6.0227-6.9688-11.4062h-2.0312zm21.9688,0c-.3124,5.3836-3.1439,9.8449-6.9688,11.4062v3.5938h1c0,0 4-1.338 4-3h1c2.216,0 4-1.338 4-3 0-.7664-.3739-1.4708-1-2 2.216,0 4-2.061 4-4 0-1.939-1.784-3-4-3h-2.0312z" transform="translate(0 252.36218)"/>
<path d="m414,568.5a1.5,1.5 0 1,1 -3,0 1.5,1.5 0 1,1 3,0z" transform="matrix(2 0 0 2.00001 -412.99819 -316.6416)"/>
<path d="m414,568.5a1.5,1.5 0 1,1 -3,0 1.5,1.5 0 1,1 3,0z" transform="matrix(1.33333 0 0 1.33333 -137.99999 55.3622)"/>
<path d="m414,568.5a1.5,1.5 0 1,1 -3,0 1.5,1.5 0 1,1 3,0z" transform="matrix(1.33333 0 0 1.33333 -144.99999 62.3622)"/>
<path d="m414,568.5a1.5,1.5 0 1,1 -3,0 1.5,1.5 0 1,1 3,0z" transform="matrix(1.33333 0 0 1.33333 -130.99999 62.3622)"/>
<path d="m414,568.5a1.5,1.5 0 1,1 -3,0 1.5,1.5 0 1,1 3,0z" transform="matrix(1.33333 0 0 1.33333 -137.99999 69.3622)"/>
</g>
</g>
</svg>
