<svg xmlns="http://www.w3.org/2000/svg" viewBox="0 0 512 512">
<g transform="matrix(15 0 0 15 -5924 -12049.433)">
<use width="744.094" height="1052.362" transform="translate(432 800.36218)"/>
<g fill="#fff">
<path d="m 408 552 c 0 0 -4 1.338 -4 3 h -1 c -2.216 0 -4 1.338 -4 3 0 0.7664 0.3739 1.4708 1 2 -2.216 0 -4 2.061 -4 4 0 1.939 1.784 3 4 3 h 2.0312 c 0.3124 -5.3836 3.1439 -9.8449 6.9688 -11.4062 v -3.5938 h -1 z m 7 0 0 3.5938 c 3.8248 1.5613 6.6563 6.0227 6.9688 11.4062 h 2.0312 c 2.216 0 4 -1.061 4 -3 0 -1.939 -1.784 -4 -4 -4 0.6261 -0.5292 1 -1.2336 1 -2 0 -1.662 -1.784 -3 -4 -3 h -1 c 0 -1.662 -4 -3 -4 -3 h -1 z m -15 17 c -2.216 0 -4 1.061 -4 3 0 1.939 1.784 4 4 4 -0.6261 0.5292 -1 1.2336 -1 2 0 1.662 1.784 3 4 3 h 1 c 0 1.662 4 3 4 3 h 1 v -3.5938 c -3.8248 -1.5613 -6.6563 -6.0227 -6.9688 -11.4062 h -2.0312 z m 21.9688 0 c -0.3124 5.3836 -3.1439 9.8449 -6.9688 11.4062 v 3.5938 h 1 c 0 0 4 -1.338 4 -3 h 1 c 2.216 0 4 -1.338 4 -3 0 -0.7664 -0.3739 -1.4708 -1 -2 2.216 0 4 -2.061 4 -4 0 -1.939 -1.784 -3 -4 -3 h -2.0312 z" transform="translate(0 252.36218)"/>
<path d="m 414 568.5 a 1.5 1.5 0 1 1 -3 0 1.5 1.5 0 1 1 3 0 z" transform="matrix(2 0 0 2.00001 -412.99819 -316.6416)"/>
<path d="m 414 568.5 a 1.5 1.5 0 1 1 -3 0 1.5 1.5 0 1 1 3 0 z" transform="matrix(1.33333 0 0 1.33333 -137.99999 55.3622)"/>
<path d="m 414 568.5 a 1.5 1.5 0 1 1 -3 0 1.5 1.5 0 1 1 3 0 z" transform="matrix(1.33333 0 0 1.33333 -144.99999 62.3622)"/>
<path d="m 414 568.5 a 1.5 1.5 0 1 1 -3 0 1.5 1.5 0 1 1 3 0 z" transform="matrix(1.33333 0 0 1.33333 -130.99999 62.3622)"/>
<path d="m 414 568.5 a 1.5 1.5 0 1 1 -3 0 1.5 1.5 0 1 1 3 0 z" transform="matrix(1.33333 0 0 1.33333 -137.99999 69.3622)"/>
</g>
</g>
</svg>
