<svg viewBox="0 0 512 512" xmlns="http://www.w3.org/2000/svg">

<path d="m 500.06 83.5775 a 205.783 117.992 0 1 1 -411.567 0 205.783 117.992 0 1 1 411.567 0 z" fill="none" stroke="#fff" stroke-width="18.1705" transform="matrix(1.09338,0,0,1.24179,-65.7577,228.34295)"/>
<path d="m 340.224 436.442 61.4609 -400.33 c 17.2784 -8.9768 44.1782 -4.8159 55.0375 9.0907 l -67.1363 369.897 c -13.3893 10.1789 -31.074 16.0623 -49.3621 21.3424 z" fill="#fff"/>
<path d="m 140.783 383.817 h 230.433 v 23.8379 h -230.433 z" fill="#fff"/>
<path d="m 140.783 270.506 h 230.433 v 33.7704 h -230.433 z" fill="#fff"/>
<path d="m 108.999 102.782 h 294.001 v 48.6691 h -294.001 z" fill="#fff"/>
<path d="m 171.731 436.424 -61.4609 -400.33 c -17.2784 -8.9768 -44.1782 -4.8159 -55.0375 9.0907 l 67.1363 369.897 c 13.3893 10.1789 31.074 16.0623 49.3621 21.3424 z" fill="#fff"/>
</svg>
