<svg viewBox="0 0 512 512" xmlns="http://www.w3.org/2000/svg">

<path d="m500.0604,83.5775a205.7833,117.9918 0 1,1 -411.5665,0 205.7833,117.9918 0 1,1 411.5665,0z" fill="none" stroke="#fff" stroke-width="18.1705" transform="matrix(1.09338,0,0,1.24179,-65.7577,228.34295)"/>
<path d="m340.2238,436.4419 61.4609-400.3305c17.2784-8.9768 44.1782-4.8159 55.0375,9.0907l-67.1363,369.8973c-13.3893,10.1789-31.074,16.0623-49.3621,21.3424z" fill="#fff"/>
<path d="m140.7833,383.817h230.4334v23.8379h-230.4334z" fill="#fff"/>
<path d="m140.7833,270.5058h230.4334v33.7704h-230.4334z" fill="#fff"/>
<path d="m108.9994,102.7821h294.0012v48.6691h-294.0012z" fill="#fff"/>
<path d="m171.7314,436.424-61.4609-400.3305c-17.2784-8.9768-44.1782-4.8159-55.0375,9.0907l67.1363,369.8973c13.3893,10.1789 31.074,16.0623 49.3621,21.3424z" fill="#fff"/>
</svg>
