<svg viewBox="0 0 512 512" xmlns="http://www.w3.org/2000/svg">

<g transform="matrix(18.68858,0,0,18.68858,-7041.65568,-41513.91203)">
<path d="m390.5662,2236.978 5.7779,10.7245h-11.5557z" fill="#fff"/>
<path d="m390.5662,2242.5258 5.7779-10.7243h-11.5557z" fill="#fff"/>
<g transform="translate(-.134)">
<path d="m393.4933,2239.7518-10.7986,5.7384-6e-05-11.4765z" fill="#fff"/>
<path d="m387.9071,2239.7521 10.7986,5.7381-6e-05-11.4765z" fill="#fff"/>
</g>
<path d="m394.4632,2231.0112c0,2.2153-1.7958,4.0111-4.0111,4.0111s-4.0111-1.7958-4.0111-4.0111 1.7958-4.011 4.0111-4.011 4.0111,1.7958 4.0111,4.011z" fill="#fff" transform="matrix(1.6027,0,0,1.59171,-235.21216,-1322.1345)"/>
<path d="m393.7457,2228.6527c0,1.744-3.1795,7.5061-3.1795,7.5061s-3.1795-5.7621-3.1795-7.5061 1.4235-3.1577 3.1795-3.1577 3.1795,1.4138 3.1795,3.1577z"/>
<path d="m392.5184,2229.5122c0,.9398-.7619,1.7017-1.7017,1.7017s-1.7017-.7619-1.7017-1.7017 .7619-1.7017 1.7017-1.7017 1.7017.7619 1.7017,1.7017z" fill="#fff" stroke="#000" stroke-width=".6478" transform="matrix(1.54904,0,0,1.53856,-214.82443,-1201.6214)"/>
<path d="m384.3383,2248.0608 6.8376-14.3245" fill="none" stroke="#000"/>
<path d="m395.8948,2233.6981-6.6596,11.4875h3.1106" fill="none" stroke="#000"/>
</g>
</svg>
