<svg viewBox="0 0 512 512" xmlns="http://www.w3.org/2000/svg">

<g transform="matrix(18.68858,0,0,18.68858,-7041.65568,-41513.91203)">
<path d="m 390.566 2236.98 5.7779 10.7245 h -11.5557 z" fill="#fff"/>
<path d="m 390.566 2242.53 5.7779 -10.7243 h -11.5557 z" fill="#fff"/>
<g transform="translate(-.134)">
<path d="m 393.493 2239.75 -10.7986 5.7384 -6e-05 -11.4765 z" fill="#fff"/>
<path d="m 387.907 2239.75 10.7986 5.7381 -6e-05 -11.4765 z" fill="#fff"/>
</g>
<path d="m 394.463 2231.01 c 0 2.2153 -1.7958 4.0111 -4.0111 4.0111 s -4.0111 -1.7958 -4.0111 -4.0111 1.7958 -4.011 4.0111 -4.011 4.0111 1.7958 4.0111 4.011 z" fill="#fff" transform="matrix(1.6027,0,0,1.59171,-235.21216,-1322.1345)"/>
<path d="m 393.746 2228.65 c 0 1.744 -3.1795 7.5061 -3.1795 7.5061 s -3.1795 -5.7621 -3.1795 -7.5061 1.4235 -3.1577 3.1795 -3.1577 3.1795 1.4138 3.1795 3.1577 z"/>
<path d="m 392.518 2229.51 c 0 0.9398 -0.7619 1.7017 -1.7017 1.7017 s -1.7017 -0.7619 -1.7017 -1.7017 0.7619 -1.7017 1.7017 -1.7017 1.7017 0.7619 1.7017 1.7017 z" fill="#fff" stroke="#000" stroke-width=".6478" transform="matrix(1.54904,0,0,1.53856,-214.82443,-1201.6214)"/>
<path d="m 384.338 2248.06 6.8376 -14.3245" fill="none" stroke="#000"/>
<path d="m 395.895 2233.7 -6.6596 11.4875 h 3.1106" fill="none" stroke="#000"/>
</g>
</svg>
