<svg viewBox="0 0 512 512" xmlns="http://www.w3.org/2000/svg">

<g transform="matrix(18.68858,0,0,18.68858,-8405.16887,-41513.91016)">
<g transform="matrix(-1,0,0,1,927.13058,3.92567)">
<path d="m 465.339 2232.14 c 2.0263 1.0158 10.764 -1.4899 9.1457 -9.2462 -2.2634 3.5678 -5.49 6.9404 -9.1457 9.2462 z" fill="#fff"/>
<path d="m 464.794 2231.71 c 1.2469 1.8928 9.0404 4.794 11.5172 -2.7323 -3.7441 1.9581 -7.1982 2.5633 -11.5172 2.7323 z" fill="#fff"/>
<path d="m 464.612 2230.34 c -0.5701 2.1547 2.8535 9.2198 9.2397 5.2526 -3.3794 -0.8858 -6.7335 -2.7035 -9.2397 -5.2526 z" fill="#fff"/>
</g>
<g transform="translate(-.2793,3.9257)">
<path d="m 465.339 2232.14 c 2.0263 1.0158 10.764 -1.4899 9.1457 -9.2462 -2.2634 3.5678 -5.49 6.9404 -9.1457 9.2462 z" fill="#fff"/>
<path d="m 464.794 2231.71 c 1.2469 1.8928 9.0404 4.794 11.5172 -2.7323 -3.7441 1.9581 -7.1982 2.5633 -11.5172 2.7323 z" fill="#fff"/>
<path d="m 464.612 2230.34 c -0.5701 2.1547 2.8535 9.2198 9.2397 5.2526 -3.3794 -0.8858 -6.7335 -2.7035 -9.2397 -5.2526 z" fill="#fff"/>
</g>
<path d="m 458.043 2230.04 c 0 3.848 1.6555 7.0826 3.911 8.0844 -0.4515 2.1041 -1.0305 3.186 -1.9765 3.8095 -2.6281 1.732 0.4433 2.8529 3.4484 2.8529 s 5.8164 -1.1659 3.4064 -2.8946 c -0.9139 -0.6555 -1.4902 -1.6833 -1.9345 -3.7678 2.2555 -1.0018 3.911 -4.2364 3.911 -8.0844 z" fill="#fff" stroke="#000"/>
<path d="m 469.31 2230.26 c 0 1.1814 -2.8903 2.1391 -6.4556 2.1391 s -6.4556 -0.9577 -6.4556 -2.1391 2.8903 -2.1392 6.4556 -2.1392 6.4556 0.9577 6.4556 2.1392 z" stroke="#fff" stroke-width="1.3688" transform="matrix(.678,0,0,.78726,149.60944,474.61056)"/>
</g>
</svg>
