<svg viewBox="0 0 512 512" xmlns="http://www.w3.org/2000/svg">

<g transform="matrix(18.68858,0,0,18.68858,-11127.51376,-41515.78462)">
<path d="m608.553,2237.0664c0,0 2.4388-9.1516 3.697-12.7204 1.4213-4.0312 5.5677-2.6463 4.2625,1.1168-1.3474,3.8847-5.7888,12.3123-5.7888,12.3123" fill="#fff" stroke="#000"/>
<path d="m602.5,2232.5c-1.1327,0-2.0312.8925-2.0312,1.9375 0,1.0333.885,1.8563 2,1.875-1.0423,1.7274-1.6562,4.5134-1.6562,6.3437 0,4.37 3.5378,5.6563 7.9062,5.6563s7.9062-1.2863 7.9062-5.6563c0-1.8272-.6172-4.6155-1.6562-6.3437 1.1151-.018 2-.8417 2-1.875 0-1.045-.8985-1.9375-2.0312-1.9375h-12.4375z" fill="#fff" stroke="#000"/>
<path d="m606.0864,2235.9979c.0852,2.7571-.2733,5.5144 1.2155,8.2715-.0008-2.739.4466-5.478 1.1926-8.2171"/>
<path d="m608.2604,2236.0755c-.6161-1.1634-.8617-2.3259-.2187-3.4859h-3.8152c-1.2374,1.1193-1.3014,2.2606.2187,3.4859z"/>
<path d="m603.8068,2236.0966c.1061,3.4318-.3402,6.8637 1.5129,10.2955-.001-3.4093.5559-6.8184 1.4844-10.2277"/>
<path d="m603.663,2236.2951h6.0214" fill="none" stroke="#fff"/>
<path d="m605.3629,2247.7027c-.3728-2.0415-.5815-4.0831-.4483-6.1246" fill="none" stroke="#000"/>
<path d="m607.421,2247.9718c-.47-2.4945-.7212-4.9891-.5164-7.4835" fill="none" stroke="#000"/>
</g>
</svg>
