<svg viewBox="0 0 512 512" xmlns="http://www.w3.org/2000/svg">

<g transform="matrix(18.68858,0,0,18.68858,-11127.51376,-41515.78462)">
<path d="m 608.553 2237.07 c 0 0 2.4388 -9.1516 3.697 -12.7204 1.4213 -4.0312 5.5677 -2.6463 4.2625 1.1168 -1.3474 3.8847 -5.7888 12.3123 -5.7888 12.3123" fill="#fff" stroke="#000"/>
<path d="m 602.5 2232.5 c -1.1327 0 -2.0312 0.8925 -2.0312 1.9375 0 1.0333 0.885 1.8563 2 1.875 -1.0423 1.7274 -1.6562 4.5134 -1.6562 6.3437 0 4.37 3.5378 5.6563 7.9062 5.6563 s 7.9062 -1.2863 7.9062 -5.6563 c 0 -1.8272 -0.6172 -4.6155 -1.6562 -6.3437 1.1151 -0.018 2 -0.8417 2 -1.875 0 -1.045 -0.8985 -1.9375 -2.0312 -1.9375 h -12.4375 z" fill="#fff" stroke="#000"/>
<path d="m 606.086 2236 c 0.0852 2.7571 -0.2733 5.5144 1.2155 8.2715 -0.0008 -2.739 0.4466 -5.478 1.1926 -8.2171"/>
<path d="m 608.26 2236.08 c -0.6161 -1.1634 -0.8617 -2.3259 -0.2187 -3.4859 h -3.8152 c -1.2374 1.1193 -1.3014 2.2606 0.2187 3.4859 z"/>
<path d="m 603.807 2236.1 c 0.1061 3.4318 -0.3402 6.8637 1.5129 10.2955 -0.001 -3.4093 0.5559 -6.8184 1.4844 -10.2277"/>
<path d="m 603.663 2236.3 h 6.0214" fill="none" stroke="#fff"/>
<path d="m 605.363 2247.7 c -0.3728 -2.0415 -0.5815 -4.0831 -0.4483 -6.1246" fill="none" stroke="#000"/>
<path d="m 607.421 2247.97 c -0.47 -2.4945 -0.7212 -4.9891 -0.5164 -7.4835" fill="none" stroke="#000"/>
</g>
</svg>
