<svg viewBox="0 0 512 512" xmlns="http://www.w3.org/2000/svg">

<path d="m 302.254 608.616 -11.6162 3.1126 -8.5037 -8.5037 3.1126 -11.6162 11.6162 -3.1126 8.5037 8.5037 z" fill="none" stroke="#fff" stroke-width="3.2165" transform="matrix(1.51066,5.58661,-5.63787,1.49693,3144.19381,-2293.88197)"/>
<path d="m 302.254 608.616 -11.6162 3.1126 -8.5037 -8.5037 3.1126 -11.6162 11.6162 -3.1126 8.5037 8.5037 z" fill="#fff" stroke="#fff" stroke-width="3.2165" transform="matrix(1.51066,5.58661,-5.63787,1.49693,3251.93311,-2356.94547)"/>
<path d="m 302.254 608.616 -11.6162 3.1126 -8.5037 -8.5037 3.1126 -11.6162 11.6162 -3.1126 8.5037 8.5037 z" fill="none" stroke="#fff" stroke-width="3.2165" transform="matrix(1.51066,5.58661,-5.63787,1.49693,3037.29624,-2351.9003)"/>
<path d="m 302.254 608.616 -11.6162 3.1126 -8.5037 -8.5037 3.1126 -11.6162 11.6162 -3.1126 8.5037 8.5037 z" fill="#fff" stroke="#fff" stroke-width="3.2165" transform="matrix(1.51066,5.58661,-5.63787,1.49693,3145.03554,-2414.9638)"/>
<path d="m 302.254 608.616 -11.6162 3.1126 -8.5037 -8.5037 3.1126 -11.6162 11.6162 -3.1126 8.5037 8.5037 z" fill="#fff" stroke="#fff" stroke-width="3.2165" transform="matrix(1.51066,5.58661,-5.63787,1.49693,3248.56636,-2115.62223)"/>
<path d="m 302.254 608.616 -11.6162 3.1126 -8.5037 -8.5037 3.1126 -11.6162 11.6162 -3.1126 8.5037 8.5037 z" fill="none" stroke="#fff" stroke-width="3.2165" transform="matrix(1.51066,5.58661,-5.63787,1.49693,3356.30567,-2178.68573)"/>
<path d="m 302.254 608.616 -11.6162 3.1126 -8.5037 -8.5037 3.1126 -11.6162 11.6162 -3.1126 8.5037 8.5037 z" fill="none" stroke="#fff" stroke-width="3.2165" transform="matrix(1.51066,5.58661,-5.63787,1.49693,3141.66861,-2173.64057)"/>
<path d="m 302.254 608.616 -11.6162 3.1126 -8.5037 -8.5037 3.1126 -11.6162 11.6162 -3.1126 8.5037 8.5037 z" stroke="#fff" stroke-width="3.2165" transform="matrix(1.51066,5.58661,-5.63787,1.49693,3249.4081,-2236.70425)"/>
<path d="m 302.254 608.616 -11.6162 3.1126 -8.5037 -8.5037 3.1126 -11.6162 11.6162 -3.1126 8.5037 8.5037 z" fill="#fff" stroke="#fff" stroke-width="3.2165" transform="matrix(1.51066,5.58661,-5.63787,1.49693,3034.74599,-2231.33484)"/>
<path d="m 302.254 608.616 -11.6162 3.1126 -8.5037 -8.5037 3.1126 -11.6162 11.6162 -3.1126 8.5037 8.5037 z" fill="none" stroke="#fff" stroke-width="3.2165" transform="matrix(1.51066,5.58661,-5.63787,1.49693,3355.95601,-2420.55674)"/>
</svg>
