<svg viewBox="0 0 512 512" xmlns="http://www.w3.org/2000/svg">

<g transform="matrix(18.68858,0,0,18.68858,713.02206,-7972.04839)">
<path d="m -24.3805 428.288 c -6.2829 2.9518 -11.5058 11.5491 -12.8351 17.9629 3.8388 0 6.6459 1.2225 8.6724 3.3728 l 4.1627 -4.5476 4.128 4.6437 c 1.9977 -2.1274 4.7976 -3.4689 8.7071 -3.4689 -1.5767 -6.3336 -6.4213 -14.8412 -12.8351 -17.9629 z" fill="#fff"/>
<path d="m -27.8147 435.897 c -2.7124 0.3066 -4.8453 5.5742 -6.2441 9.054 3.9186 1.8905 6.413 3.791 8.0133 6.6604 h 3.4343 c 1.6663 -2.8529 4.1596 -4.6275 7.9092 -6.6604 -2.1329 -4.6665 -5.8082 -13.1653 -9.6784 -6.7298 -1.2363 -1.8034 -2.3729 -2.4442 -3.4343 -2.3242 z"/>
<path d="m 715.857 438.262 c 0 0.5248 -0.4254 0.9502 -0.9502 0.9502 s -0.9502 -0.4254 -0.9502 -0.9502 0.4254 -0.9502 0.9502 -0.9502 0.9502 0.4254 0.9502 0.9502 z" fill="#fff" transform="matrix(2.11662,.41034,0,1.28256,-1541.23476,-412.86521)"/>
<path d="m 715.857 438.262 c 0 0.5248 -0.4254 0.9502 -0.9502 0.9502 s -0.9502 -0.4254 -0.9502 -0.9502 0.4254 -0.9502 0.9502 -0.9502 0.9502 0.4254 0.9502 0.9502 z" fill="#fff" transform="matrix(-2.11662,.41034,0,1.28256,1492.30696,-412.86521)"/>
</g>
</svg>
