<svg viewBox="0 0 512 512" xmlns="http://www.w3.org/2000/svg">

<g transform="matrix(18.68858,0,0,18.68858,-5001.75793,-42867.77257)">
<path d="m281.2253,2302.2105c-5.1118,0-9.25,7.0881-9.25,11.25 0,3.3521 3.1257,6.2091 6.8431,7.1874 2.6436-1.1766 4.4302-.6296 5.0013-.062 3.6219-1.0225 6.6868-3.8284 6.6868-7.125 0-4.1619-4.1695-11.25-9.2812-11.25z" fill="#fff" stroke="#000"/>
<path d="m278.9067,2320.9083c.3963-3.587 1.1103-11.3863 2.4304-14.6995 1.3383,3.3787 2.0137,11.1528 2.4304,14.7509" fill="none" stroke="#000"/>
<path d="m270.7085,2302.5569 3.1898.3684-2.2144,3.4203c2.1177.4058 3.6291.1409 5.7468-.7104l.0527,3.2625c1.503-.7803 2.6435-1.9221 3.5852-3.2625l3.4534,2.0259 .7381-2.2101c2.0674,1.4358 4.5291,1.9544 6.9331,1.9733l-3.5852-3.9729 2.9789.052c-2.4154-2.0963-5.3137-5.9218-4.9032-9.1391h-11.9154c.2048,3.4896-1.6982,6.1441-4.0597,8.1923z" fill="#fff" stroke="#000"/>
<path d="m275.6189,2318.9227c-.1234-1.6039.2167-3.208.7097-4.8118-.926,1.3124-1.6309,2.6728-1.9497,4.1172"/>
<path d="m286.3231,2319.3468c.019-2.0755-.4297-4.1513-1.0328-6.2267 1.021,1.6982 1.8221,3.4586 2.2388,5.3279"/>
<path d="m289.2359,2316.2855c-.1341-1.2384-.713-2.9053-1.38-4.0715 .9976.8933 1.8555,2.3315 2.3479,3.3966"/>
</g>
</svg>
