<svg viewBox="0 0 512 512" xmlns="http://www.w3.org/2000/svg">

<g transform="matrix(18.68858,0,0,18.68858,-5001.75793,-42867.77257)">
<path d="m 281.225 2302.21 c -5.1118 0 -9.25 7.0881 -9.25 11.25 0 3.3521 3.1257 6.2091 6.8431 7.1874 2.6436 -1.1766 4.4302 -0.6296 5.0013 -0.062 3.6219 -1.0225 6.6868 -3.8284 6.6868 -7.125 0 -4.1619 -4.1695 -11.25 -9.2812 -11.25 z" fill="#fff" stroke="#000"/>
<path d="m 278.907 2320.91 c 0.3963 -3.587 1.1103 -11.3863 2.4304 -14.6995 1.3383 3.3787 2.0137 11.1528 2.4304 14.7509" fill="none" stroke="#000"/>
<path d="m 270.709 2302.56 3.1898 0.3684 -2.2144 3.4203 c 2.1177 0.4058 3.6291 0.1409 5.7468 -0.7104 l 0.0527 3.2625 c 1.503 -0.7803 2.6435 -1.9221 3.5852 -3.2625 l 3.4534 2.0259 0.7381 -2.2101 c 2.0674 1.4358 4.5291 1.9544 6.9331 1.9733 l -3.5852 -3.9729 2.9789 0.052 c -2.4154 -2.0963 -5.3137 -5.9218 -4.9032 -9.1391 h -11.9154 c 0.2048 3.4896 -1.6982 6.1441 -4.0597 8.1923 z" fill="#fff" stroke="#000"/>
<path d="m 275.619 2318.92 c -0.1234 -1.6039 0.2167 -3.208 0.7097 -4.8118 -0.926 1.3124 -1.6309 2.6728 -1.9497 4.1172"/>
<path d="m 286.323 2319.35 c 0.019 -2.0755 -0.4297 -4.1513 -1.0328 -6.2267 1.021 1.6982 1.8221 3.4586 2.2388 5.3279"/>
<path d="m 289.236 2316.29 c -0.1341 -1.2384 -0.713 -2.9053 -1.38 -4.0715 0.9976 0.8933 1.8555 2.3315 2.3479 3.3966"/>
</g>
</svg>
