<svg viewBox="0 0 512 512" xmlns="http://www.w3.org/2000/svg">

<g transform="matrix(18.68858,0,0,18.68858,-4021.9498,-8505.4396)">
<path d="m 221.477 470.359 h 1.3864 l 2.9916 11.1861 -4.378 -1.1381 v -10.048 z" fill="#fff"/>
<path d="m 238.771 456.493 c 1.8894 3.2721 0.7669 7.4609 -2.5057 9.3501 s -7.462 0.7668 -9.3514 -2.5053 c -0.0827 -0.1433 -0.143 -0.2943 -0.2142 -0.4409 2.3461 1.4362 5.3757 1.5744 7.9241 0.1033 2.5335 -1.4625 3.9435 -4.15 3.89 -6.8829 0.0842 0.1259 0.1804 0.2426 0.2573 0.3757 z" fill="#fff"/>
<path d="m 218.66 456.493 c -1.8894 3.2721 -0.7669 7.4609 2.5057 9.3501 s 7.462 0.7668 9.3514 -2.5053 c 0.0827 -0.1433 0.143 -0.2943 0.2142 -0.4409 -2.3461 1.4362 -5.3757 1.5744 -7.9241 0.1033 -2.5335 -1.4625 -3.9435 -4.15 -3.89 -6.8829 -0.0842 0.1259 -0.1804 0.2426 -0.2573 0.3757 z" fill="#fff"/>
<path d="m 228.687 460.062 c -3.5878 1e-05 -6.597 3.3914 -7.4154 7.9553 h 14.8309 c -0.8185 -4.5639 -3.8277 -7.9553 -7.4154 -7.9553 z" fill="#fff" stroke="#000"/>
<path d="m 227.688 473.175 c 0 0.7939 -0.6436 1.4375 -1.4375 1.4375 s -1.4375 -0.6436 -1.4375 -1.4375 0.6436 -1.4375 1.4375 -1.4375 1.4375 0.6436 1.4375 1.4375 z" fill="#fff" stroke="#000" stroke-width=".9463" transform="matrix(1.0967,0,0,1.01828,-16.51334,-9.68428)"/>
<path d="m 235.644 470.359 h -1.3864 l -2.9916 11.1861 4.378 -1.1381 v -10.048 z" fill="#fff"/>
<path d="m 227.688 473.175 c 0 0.7939 -0.6436 1.4375 -1.4375 1.4375 s -1.4375 -0.6436 -1.4375 -1.4375 0.6436 -1.4375 1.4375 -1.4375 1.4375 0.6436 1.4375 1.4375 z" fill="#fff" stroke="#000" stroke-width=".9463" transform="matrix(1.0967,0,0,1.01828,-22.65013,-9.68428)"/>
<path d="m 227.484 469.438 -1.125 7.3125 h 4.375 l -1.125 -7.3125 h -2.125 z" fill="#fff" stroke="#000"/>
<path d="m 219.874 467.286 c 3.8772 -2.2385 13.8633 -2.2463 17.7539 0 v 4.1368 c -4.1762 -1.119 -13.1587 -1.2313 -17.7539 0 v -4.1368 z" fill="#fff" stroke="#000"/>
</g>
</svg>
