<svg viewBox="0 0 512 512" xmlns="http://www.w3.org/2000/svg">

<g transform="matrix(18.68858,0,0,18.68858,-4021.9498,-8505.4396)">
<path d="m221.4767,470.3587h1.3864l2.9916,11.1861-4.378-1.1381v-10.048z" fill="#fff"/>
<path d="m238.7709,456.4926c1.8894,3.2721.7669,7.4609-2.5057,9.3501s-7.462.7668-9.3514-2.5053c-.0827-.1433-.143-.2943-.2142-.4409 2.3461,1.4362 5.3757,1.5744 7.9241.1033 2.5335-1.4625 3.9435-4.15 3.89-6.8829 .0842.1259.1804.2426.2573.3757z" fill="#fff"/>
<path d="m218.6603,456.4926c-1.8894,3.2721-.7669,7.4609 2.5057,9.3501s7.462.7668 9.3514-2.5053c.0827-.1433.143-.2943.2142-.4409-2.3461,1.4362-5.3757,1.5744-7.9241.1033-2.5335-1.4625-3.9435-4.15-3.89-6.8829-.0842.1259-.1804.2426-.2573.3757z" fill="#fff"/>
<path d="m228.687,460.0617c-3.5878,1e-05-6.597,3.3914-7.4154,7.9553h14.8309c-.8185-4.5639-3.8277-7.9553-7.4154-7.9553z" fill="#fff" stroke="#000"/>
<path d="m227.6875,473.1747c0,.7939-.6436,1.4375-1.4375,1.4375s-1.4375-.6436-1.4375-1.4375 .6436-1.4375 1.4375-1.4375 1.4375.6436 1.4375,1.4375z" fill="#fff" stroke="#000" stroke-width=".9463" transform="matrix(1.0967,0,0,1.01828,-16.51334,-9.68428)"/>
<path d="m235.6437,470.3587h-1.3864l-2.9916,11.1861 4.378-1.1381v-10.048z" fill="#fff"/>
<path d="m227.6875,473.1747c0,.7939-.6436,1.4375-1.4375,1.4375s-1.4375-.6436-1.4375-1.4375 .6436-1.4375 1.4375-1.4375 1.4375.6436 1.4375,1.4375z" fill="#fff" stroke="#000" stroke-width=".9463" transform="matrix(1.0967,0,0,1.01828,-22.65013,-9.68428)"/>
<path d="m227.4844,469.4375-1.125,7.3125h4.375l-1.125-7.3125h-2.125z" fill="#fff" stroke="#000"/>
<path d="m219.8737,467.2864c3.8772-2.2385 13.8633-2.2463 17.7539,0v4.1368c-4.1762-1.119-13.1587-1.2313-17.7539,0v-4.1368z" fill="#fff" stroke="#000"/>
</g>
</svg>
