<svg viewBox="0 0 512 512" xmlns="http://www.w3.org/2000/svg">

<g transform="matrix(18.68858,0,0,18.68858,-7722.25937,-38101.76623)">
<path d="m 434.72 2049.93 c 0 -2.1347 -3.4612 -3.8654 -7.7307 -3.8654 s -7.7307 1.7307 -7.7307 3.8654" stroke="#fff"/>
<path d="m 429.487 2050.86 c -1.2809 2.4244 -1.7239 7.6484 -0.9653 12.9643" fill="none" stroke="#fff"/>
<path d="m 424.455 2050.86 c 1.2809 2.4244 1.7239 7.6484 0.9653 12.9643" fill="none" stroke="#fff"/>
<path d="m 430.5 2050.63 1.1875 10.9525 -4.75 3.0626 -4.7188 -3.0626 1.1875 -10.9525" fill="none" stroke="#fff"/>
<path d="m 422.765 2050.69 c 0 0.9467 -1.3474 1.7142 -3.0094 1.7142 s -3.0094 -0.7675 -3.0094 -1.7142 1.3474 -1.7142 3.0094 -1.7142 3.0094 0.7675 3.0094 1.7142 z" stroke="#fff" transform="matrix(-.86603,.5,.5,.86603,-229.83068,64.91588)"/>
<path d="m 422.765 2050.69 c 0 0.9467 -1.3474 1.7142 -3.0094 1.7142 s -3.0094 -0.7675 -3.0094 -1.7142 1.3474 -1.7142 3.0094 -1.7142 3.0094 0.7675 3.0094 1.7142 z" stroke="#fff" transform="matrix(.86603,.5,-.5,.86603,1083.7994,64.91588)"/>
<g transform="matrix(-.99382,0,0,.99382,851.19057,12.61001)">
<path d="m 424.538 2046.21 c -5.2861 0.7965 -7.9797 4.8896 -7.7 9.8248 -4.8017 -6.8857 -1.3167 -15.5434 6.5705 -14.9946 z" stroke="#fff"/>
<path d="m 429.212 2046.21 c 5.2861 0.7965 7.9797 4.8896 7.7 9.8248 4.8017 -6.8857 1.3167 -15.5434 -6.5705 -14.9946 z" stroke="#fff"/>
</g>
<g transform="matrix(-1,0,0,1,853.90462,0)">
<path d="m 434.719 2049.94 c 0 -1.4415 -1.5978 -2.6792 -3.9375 -3.3437 1.2552 -2.3624 1.8365 -4.5109 0.9688 -6.4063 h -9.4688 c -0.9546 1.8202 -0.5326 4.25 0.9375 6.375 -2.3598 0.6618 -3.9688 1.926 -3.9688 3.375" stroke="#fff" transform="translate(-.0641)"/>
<path d="m 424.417 2050.86 c 1.2809 2.4244 1.7239 7.6484 0.9653 12.9643" fill="none" stroke="#fff"/>
<path d="m 429.449 2050.86 c -1.2809 2.4244 -1.7239 7.6484 -0.9653 12.9643" fill="none" stroke="#fff"/>
<path d="m 422.765 2050.69 c 0 0.9467 -1.3474 1.7142 -3.0094 1.7142 s -3.0094 -0.7675 -3.0094 -1.7142 1.3474 -1.7142 3.0094 -1.7142 3.0094 0.7675 3.0094 1.7142 z" stroke="#fff" transform="matrix(.86603,.5,-.5,.86603,1083.7353,64.91588)"/>
<path d="m 422.765 2050.69 c 0 0.9467 -1.3474 1.7142 -3.0094 1.7142 s -3.0094 -0.7675 -3.0094 -1.7142 1.3474 -1.7142 3.0094 -1.7142 3.0094 0.7675 3.0094 1.7142 z" stroke="#fff" transform="matrix(-.86603,.5,.5,.86603,-229.89474,64.91588)"/>
</g>
<path d="m 430.745 2061.01 -3.8047 2.4531 -3.7797 -2.4531" fill="none" stroke="#000"/>
<path d="m 415.49 2045.81 0.419 2.6284 1.6761 -2.7046 -0.419 2.6285 2.0571 -1.7142 -1.1063 3.4746 -1.4841 4.9822 c 0 0 -1.7142 -3.6189 -1.7142 -3.8094 s 0.5714 -5.4855 0.5714 -5.4855 z" fill="#fff"/>
<path d="m 438.422 2045.81 0.094 1.4441 -2.2082 -1.8358 1.3904 3.0582 -3.238 -2.2475 1.7904 2.4761 -1.9809 -0.7237 1.5253 2.1413 1.4841 4.9822 c 0 0 1.7142 -3.6189 1.7142 -3.8094 s -0.5714 -5.4855 -0.5714 -5.4855 z" fill="#fff"/>
<path d="m 424.464 2051.86 c 0 0.6992 -0.5668 1.2661 -1.266 1.2661 s -1.266 -0.5669 -1.266 -1.2661 0.5668 -1.266 1.266 -1.266 1.266 0.5668 1.266 1.266 z" fill="#fff" transform="matrix(.84043,0,0,.84043,66.18715,327.21396)"/>
<path d="m 424.464 2051.86 c 0 0.6992 -0.5668 1.2661 -1.266 1.2661 s -1.266 -0.5669 -1.266 -1.2661 0.5668 -1.266 1.266 -1.266 1.266 0.5668 1.266 1.266 z" fill="#fff" transform="matrix(.84043,0,0,.84043,76.36912,327.21396)"/>
</g>
</svg>
