<svg viewBox="0 0 512 512" xmlns="http://www.w3.org/2000/svg">

<g transform="matrix(18.68858,0,0,18.68858,3883.21259,-10481.99649)">
<path d="m-196.3867,562.2518c-6.8236,1.0694-10.691,8.6667-8.8983,15.3573s8.7044,10.681 15.3949,8.8882c4.2362-1.1351 6.9997-2.7895 8.0146-5.0574-5.1109,3.0939-11.1531,1.0126-11.985-2.0922-1.0379-3.8734 2.4555-5.8872 5.2781-8.2689-.4202-1.8595-2.0052-9.7359-7.8042-8.8271z" fill="#fff"/>
<path d="m561.7963,568.4802c0,4.1249-3.3439,7.4688-7.4688,7.4688s-7.4688-3.3439-7.4688-7.4688 3.3439-7.4688 7.4688-7.4688 7.4688,3.3439 7.4688,7.4688z" transform="matrix(1.12354,-.30105,.30105,1.12354,-987.33148,98.96635)"/>
<path d="m561.7963,568.4802c0,4.1249-3.3439,7.4688-7.4688,7.4688s-7.4688-3.3439-7.4688-7.4688 3.3439-7.4688 7.4688-7.4688 7.4688,3.3439 7.4688,7.4688z" stroke="#fff" transform="matrix(.96593,-.25882,.25882,.96593,-877.17706,164.40792)"/>
<path d="m-197.2631,563.0672c-.9341.3549-1.7655.9104-2.46,1.565 .3527-.1726.7195-.3222 1.1147-.4281 3.5346-.9471 7.197,1.1419 8.1441,4.6765 .5771,2.1539.004,4.3518-1.3174,5.95 2.1834-1.561 3.2994-4.3487 2.5641-7.0928-.9147-3.4139-4.3264-5.4672-7.7436-4.7515-.1004.0334-.2038.0436-.3019.0809zm-3.2119,2.3812c-.4199.5368-.756,1.1309-1.0165,1.7606 2.2915-.8623 4.9898-.3947 6.8237,1.4392 1.5217,1.5217 2.0949,3.637 1.762,5.6101 1.0716-2.3582.666-5.2261-1.2727-7.1647-1.7009-1.7009-4.1367-2.261-6.2966-1.6451zm-1.4356,4.7846-.1428.0706c.016.4803.0779.9527.1909,1.437 1.0853-.4361 2.3195-.5576 3.5285-.2337 1.8054.4837 3.1358,1.8332 3.7423,3.4619-.2181-2.2392-1.7538-4.2503-4.054-4.8666-1.111-.2977-2.2539-.2182-3.2649.1307zm1.2369,4.1332c.2353.3307.4837.6422.7661.9271l.1811-.0485c1.5676-.4201 3.1659-.0185 4.3291.9429-1.1362-1.5892-3.1582-2.389-5.1555-1.8538l-.1207.0323z" fill="#fff"/>
</g>
</svg>
