<svg viewBox="0 0 512 512" xmlns="http://www.w3.org/2000/svg">

<path d="m251.1875,28.5385c-202.9687,2.9544-190.2813,230.1991-126.7812,409.4688-14.6781,9.4115-17.2915,6.3852-15.75,17.0625 1.1045,7.6503 12.4825,23.2333 17.5625,25.8438s9.3729,2.8517 17.0312,2.3438 60.3374-8.7703 49.2188-22.625c-48-67.4011-126.5704-365.4591 63.5312-374.0625 190.1017,8.6034 111.5313,306.6614 63.5312,374.0625-11.1186,13.8547 41.5604,22.117 49.2188,22.625s11.9512.2667 17.0312-2.3438 16.458-18.1934 17.5625-25.8438c1.5415-10.6773-1.0719-7.651-15.75-17.0625 63.5-179.2697 76.1874-406.5144-126.7812-409.4688-1.5982-.0233-3.1875-.005-4.8125,0-1.625-.0047-3.2143-.0233-4.8125,0zm-45.625,22.1562c6.9036,0 12.5,5.5964 12.5,12.5s-5.5964,12.5-12.5,12.5-12.5-5.5964-12.5-12.5 5.5964-12.5 12.5-12.5zm100.875,0c6.9036,0 12.5,5.5964 12.5,12.5s-5.5964,12.5-12.5,12.5-12.5-5.5964-12.5-12.5 5.5964-12.5 12.5-12.5zm-170.8438,58.625c6.9036,0 12.5,5.5964 12.5,12.5s-5.5964,12.5-12.5,12.5-12.5-5.5964-12.5-12.5 5.5964-12.5 12.5-12.5zm240.8125,0c6.9036,0 12.5,5.5964 12.5,12.5s-5.5964,12.5-12.5,12.5-12.5-5.5964-12.5-12.5 5.5964-12.5 12.5-12.5zm-266.8438,96c6.9036,0 12.5,5.5964 12.5,12.5s-5.5964,12.5-12.5,12.5-12.5-5.5964-12.5-12.5 5.5964-12.5 12.5-12.5zm292.875,0c6.9036,0 12.5,5.5964 12.5,12.5s-5.5964,12.5-12.5,12.5-12.5-5.5964-12.5-12.5 5.5964-12.5 12.5-12.5zm-284.2188,102.5c6.9036,0 12.5,5.5964 12.5,12.5s-5.5964,12.5-12.5,12.5-12.5-5.5964-12.5-12.5 5.5964-12.5 12.5-12.5zm275.5625,0c6.9036,0 12.5,5.5964 12.5,12.5s-5.5964,12.5-12.5,12.5-12.5-5.5964-12.5-12.5 5.5964-12.5 12.5-12.5zm-254.9375,84.0625c6.9036,0 12.5,5.5964 12.5,12.5s-5.5964,12.5-12.5,12.5-12.5-5.5964-12.5-12.5 5.5964-12.5 12.5-12.5zm234.3125,0c6.9036,0 12.5,5.5964 12.5,12.5s-5.5964,12.5-12.5,12.5-12.5-5.5964-12.5-12.5 5.5964-12.5 12.5-12.5z" fill="#fff"/>
</svg>
