<svg viewBox="0 0 512 512" xmlns="http://www.w3.org/2000/svg">

<g transform="matrix(18.68858,0,0,18.68858,-839.37203,-10388.05418)">
<path d="m47.8038,582.6881h6.011l8.0658-20.3033 4.7039-2.8932c-13.2326-8.9964-26.0424,2.7866-18.7808,23.1966z" fill="#fff" fill-rule="evenodd" stroke="#000"/>
<path d="m61.5791,572.6993c-2.1223,3.9517 2.4924,3.4345 3.8612,10.021h-13.4769c-1.987-9.0375-1.2388-19.5735 9.9498-20.4874 2.7051,3.3965 5.6967,6.6315 9.4672,9.39-.9889,1.8432-1.6589,3.6869-1.8563,5.5301-2.2073-.0898-4.0288-.3065-5.6432-.5938-.5897-3.2975-2.4899-4.7603-5.4204-4.0455" fill="#fff" fill-rule="evenodd" stroke="#000"/>
<path d="m328.875,836.1747c0,.4487-.3638.8125-.8125.8125s-.8125-.3638-.8125-.8125 .3638-.8125.8125-.8125 .8125.3638.8125.8125z" transform="matrix(-1.65724,0,0,1.6573,603.59309,-819.19149)"/>
<path d="m59.3355,556.4303-1.063,6.5849" fill="none" stroke="#000"/>
<path d="m52.7103,557.2744 3.1864,6.7573" fill="none" stroke="#000"/>
<path d="m47.3882,561.7181 5.8497,5.0631" fill="none" stroke="#000"/>
<path d="m46.3445,567.7368 5.1265,1.812" fill="none" stroke="#000"/>
<path d="m45.6927,572.3683 5.2319,1.012" fill="none" stroke="#000"/>
<path d="m46.3231,576.3508 4.552.0884" fill="none" stroke="#000"/>
<path d="m47.0614,580.1045 4.1984-.4419" fill="none" stroke="#000"/>
</g>
</svg>
