<svg viewBox="0 0 512 512" xmlns="http://www.w3.org/2000/svg">

<path d="m 251.188 28.5385 c -202.969 2.9544 -190.281 230.199 -126.781 409.469 -14.6781 9.4115 -17.2915 6.3852 -15.75 17.0625 1.1045 7.6503 12.4825 23.2333 17.5625 25.8438 s 9.3729 2.8517 17.0312 2.3438 60.3374 -8.7703 49.2188 -22.625 c -48 -67.4011 -126.57 -365.459 63.5312 -374.062 190.102 8.6034 111.531 306.661 63.5312 374.062 -11.1186 13.8547 41.5604 22.117 49.2188 22.625 s 11.9512 0.2667 17.0312 -2.3438 16.458 -18.1934 17.5625 -25.8438 c 1.5415 -10.6773 -1.0719 -7.651 -15.75 -17.0625 63.5 -179.27 76.1874 -406.514 -126.781 -409.469 -1.5982 -0.0233 -3.1875 -0.005 -4.8125 0 -1.625 -0.0047 -3.2143 -0.0233 -4.8125 0 z m -45.625 22.1562 c 6.9036 0 12.5 5.5964 12.5 12.5 s -5.5964 12.5 -12.5 12.5 -12.5 -5.5964 -12.5 -12.5 5.5964 -12.5 12.5 -12.5 z m 100.875 0 c 6.9036 0 12.5 5.5964 12.5 12.5 s -5.5964 12.5 -12.5 12.5 -12.5 -5.5964 -12.5 -12.5 5.5964 -12.5 12.5 -12.5 z m -170.844 58.625 c 6.9036 0 12.5 5.5964 12.5 12.5 s -5.5964 12.5 -12.5 12.5 -12.5 -5.5964 -12.5 -12.5 5.5964 -12.5 12.5 -12.5 z m 240.812 0 c 6.9036 0 12.5 5.5964 12.5 12.5 s -5.5964 12.5 -12.5 12.5 -12.5 -5.5964 -12.5 -12.5 5.5964 -12.5 12.5 -12.5 z m -266.844 96 c 6.9036 0 12.5 5.5964 12.5 12.5 s -5.5964 12.5 -12.5 12.5 -12.5 -5.5964 -12.5 -12.5 5.5964 -12.5 12.5 -12.5 z m 292.875 0 c 6.9036 0 12.5 5.5964 12.5 12.5 s -5.5964 12.5 -12.5 12.5 -12.5 -5.5964 -12.5 -12.5 5.5964 -12.5 12.5 -12.5 z m -284.219 102.5 c 6.9036 0 12.5 5.5964 12.5 12.5 s -5.5964 12.5 -12.5 12.5 -12.5 -5.5964 -12.5 -12.5 5.5964 -12.5 12.5 -12.5 z m 275.562 0 c 6.9036 0 12.5 5.5964 12.5 12.5 s -5.5964 12.5 -12.5 12.5 -12.5 -5.5964 -12.5 -12.5 5.5964 -12.5 12.5 -12.5 z m -254.938 84.0625 c 6.9036 0 12.5 5.5964 12.5 12.5 s -5.5964 12.5 -12.5 12.5 -12.5 -5.5964 -12.5 -12.5 5.5964 -12.5 12.5 -12.5 z m 234.312 0 c 6.9036 0 12.5 5.5964 12.5 12.5 s -5.5964 12.5 -12.5 12.5 -12.5 -5.5964 -12.5 -12.5 5.5964 -12.5 12.5 -12.5 z" fill="#fff"/>
</svg>
