<svg viewBox="0 0 512 512" xmlns="http://www.w3.org/2000/svg">

<g transform="matrix(18.68858,0,0,18.68858,-839.37203,-10388.05418)">
<path d="m 47.8038 582.688 h 6.011 l 8.0658 -20.3033 4.7039 -2.8932 c -13.2326 -8.9964 -26.0424 2.7866 -18.7808 23.1966 z" fill="#fff" fill-rule="evenodd" stroke="#000"/>
<path d="m 61.5791 572.699 c -2.1223 3.9517 2.4924 3.4345 3.8612 10.021 h -13.4769 c -1.987 -9.0375 -1.2388 -19.5735 9.9498 -20.4874 2.7051 3.3965 5.6967 6.6315 9.4672 9.39 -0.9889 1.8432 -1.6589 3.6869 -1.8563 5.5301 -2.2073 -0.0898 -4.0288 -0.3065 -5.6432 -0.5938 -0.5897 -3.2975 -2.4899 -4.7603 -5.4204 -4.0455" fill="#fff" fill-rule="evenodd" stroke="#000"/>
<path d="m 328.875 836.175 c 0 0.4487 -0.3638 0.8125 -0.8125 0.8125 s -0.8125 -0.3638 -0.8125 -0.8125 0.3638 -0.8125 0.8125 -0.8125 0.8125 0.3638 0.8125 0.8125 z" transform="matrix(-1.65724,0,0,1.6573,603.59309,-819.19149)"/>
<path d="m 59.3355 556.43 -1.063 6.5849" fill="none" stroke="#000"/>
<path d="m 52.7103 557.274 3.1864 6.7573" fill="none" stroke="#000"/>
<path d="m 47.3882 561.718 5.8497 5.0631" fill="none" stroke="#000"/>
<path d="m 46.3445 567.737 5.1265 1.812" fill="none" stroke="#000"/>
<path d="m 45.6927 572.368 5.2319 1.012" fill="none" stroke="#000"/>
<path d="m 46.3231 576.351 4.552 0.0884" fill="none" stroke="#000"/>
<path d="m 47.0614 580.105 4.1984 -0.4419" fill="none" stroke="#000"/>
</g>
</svg>
