<svg xmlns="http://www.w3.org/2000/svg" viewBox="0 0 512 512">
<g transform="matrix(15 0 0 15 -524 -4526.9327)">
<use width="744.094" height="1052.362" transform="translate(72 296.36217)"/>
<g fill="#fff">
<path d="m 50 325.362 c -3 -10 3 -10 0 -20 h 4 c 3 10 -3 10 0 20 z"/>
<path d="m 36 330.362 0 2 32 0 0 -2 c 0 -2 0 -2 -2 -2 0 0 -1 -2 -2 -2 -2 0 -2 3 -4 3 -2 0 -2 -3 -4 -3 -2 0 -2 3 -4 3 -2 0 -2 -3 -4 -3 -2 0 -2 3 -4 3 -2 0 -2 -3 -4 -3 -1 0 -2 2 -2 2 -2 0 -2 0 -2 2 z"/>
<path d="m 42 325.362 c -3 -10 3 -10 0 -20 h 4 c 3 10 -3 10 0 20 z"/>
<path d="m 58 325.362 c -3 -10 3 -10 0 -20 h 4 c 3 10 -3 10 0 20 z"/>
</g>
</g>
</svg>
