<svg viewBox="0 0 512 512" xmlns="http://www.w3.org/2000/svg">

<g transform="matrix(18.68858,0,0,18.68858,-910.13271,-23142.75802)">
<g transform="matrix(1.27233,0,0,.99783,-15.71044,4.76419)">
<path d="m59.3458,1236.9951c4.6884.7733 5.6924,5.4354 3.9984,9.0548 1.815-.9734 2.5989-2.4067 1.8356-4.4915 1.7525,1.177 2.6774,3.519 2.6383,6.0462-.1445,9.339-13.246,8.9881-13.4415,0-.0531-2.4438.8855-4.0554 3.0339-5.2317-.8111,1.5182-.4943,3.2828.37,4.0207-.5683-3.7134 5.0721-5.7224 1.5653-9.3951z" fill="#fff" fill-rule="evenodd"/>
</g>
<path d="m56.0506,1255.5081c-1.047-1.8799-1.4235-3.9994-.936-5.7182 1.9125,2.6396 7.3732-1.0702 7.8713-4.2425-.0023,3.4071 3.4234,6.3334 6.0304,2.8031 .6868,2.8427.1347,5.8367-1.0791,7.5009" fill-rule="evenodd"/>
<path d="m68.4413,1258.7187c-2.9463,1.8788-9.1041,1.6818-12.2843.1997-2.111-.9838 1.984-5.1469 4.8307-7.2855 .9898-.7436 1.5632-.455 2.2663.087 2.9897,2.3056 6.948,5.8759 5.1873,6.9986z" fill="#fff" fill-rule="evenodd"/>
<path d="m65.6434,1262.6284c0,1.0877-2.3432,1.0779-2.3432,0s2.3432-1.0573 2.3432,0z" fill="#fff" fill-rule="evenodd"/>
<path d="m64.1875,1263.1415c0,1.2466-2.6858,1.2354-2.6858,0s2.6858-1.212 2.6858,0z" fill="#fff" fill-rule="evenodd"/>
<path d="m59.0858,1259.8526c0,1.4154-3.0491,1.4026-3.0491,0s3.0491-1.3759 3.0491,0z" fill="#fff" fill-rule="evenodd"/>
<path d="m60.4321,1263.8248c0,1.0678-2.3004,1.0582-2.3004,0s2.3004-1.0381 2.3004,0z" fill="#fff" fill-rule="evenodd"/>
<path d="m56.7943,1258.5489c0,1.5879-3.4207,1.5736-3.4207,0s3.4207-1.5436 3.4207,0z" fill="#fff" fill-rule="evenodd"/>
<path d="m72.192,1260.9733c0,1.0677-2.3004,1.0581-2.3004,0s2.3004-1.0381 2.3004,0z" fill="#fff" fill-rule="evenodd"/>
<path d="m60.7189,1259.8457c0,.9485-2.0434.94-2.0434,0s2.0434-.9221 2.0434,0z" fill="#fff" fill-rule="evenodd"/>
<path d="m63.1169,1261.1304c0,.9485-2.0434.94-2.0434,0s2.0434-.9221 2.0434,0z" fill="#fff" fill-rule="evenodd"/>
<path d="m65.0439,1259.5459c0,.9486-2.0434.94-2.0434,0s2.0434-.9221 2.0434,0z" fill="#fff" fill-rule="evenodd"/>
<path d="m68.9018,1259.3746c0,.9486-2.0434.94-2.0434,0s2.0434-.9221 2.0434,0z" fill="#fff" fill-rule="evenodd"/>
<path d="m70.3149,1258.6038c0,.9486-2.0434.94-2.0434,0s2.0434-.9221 2.0434,0z" fill="#fff" fill-rule="evenodd"/>
<path d="m73.2658,1257.8972c0,.9486-2.0434.94-2.0434,0s2.0434-.9221 2.0434,0z" fill="#fff" fill-rule="evenodd"/>
<path d="m74.7217,1259.5245c0,.9485-2.0434.94-2.0434,0s2.0434-.9221 2.0434,0z" fill="#fff" fill-rule="evenodd"/>
<path d="m72.5099,1263.8132c0,.9485-2.0434.94-2.0434,0s2.0434-.9221 2.0434,0z" fill="#fff" fill-rule="evenodd"/>
<path d="m53.982,1262.0537c0-1.1174 2.4074-1.1074 2.4074,0s-2.4074,1.0864-2.4074,0z" fill="#fff" fill-rule="evenodd"/>
<path d="m55.438,1262.4597c0-.9486 2.0434-.94 2.0434,0s-2.0434.9221-2.0434,0z" fill="#fff" fill-rule="evenodd"/>
<path d="m65.7411,1261.0546c0-.9485 2.0434-.94 2.0434,0s-2.0434.9221-2.0434,0z" fill="#fff" fill-rule="evenodd"/>
<path d="m67.1542,1261.2259c0-.9485 2.0434-.94 2.0434,0s-2.0434.9221-2.0434,0z" fill="#fff" fill-rule="evenodd"/>
<path d="m54.3812,1259.5459c0,.9486-2.0434.94-2.0434,0s2.0434-.9221 2.0434,0z" fill="#fff" fill-rule="evenodd"/>
<path d="m51.6834,1258.4325c0,.9486-2.0434.94-2.0434,0s2.0434-.922 2.0434,0z" fill="#fff" fill-rule="evenodd"/>
</g>
</svg>
