<svg viewBox="0 0 512 512" xmlns="http://www.w3.org/2000/svg">

<g transform="matrix(18.68858,0,0,18.68858,-910.13271,-23142.75802)">
<g transform="matrix(1.27233,0,0,.99783,-15.71044,4.76419)">
<path d="m 59.3458 1237 c 4.6884 0.7733 5.6924 5.4354 3.9984 9.0548 1.815 -0.9734 2.5989 -2.4067 1.8356 -4.4915 1.7525 1.177 2.6774 3.519 2.6383 6.0462 -0.1445 9.339 -13.246 8.9881 -13.4415 0 -0.0531 -2.4438 0.8855 -4.0554 3.0339 -5.2317 -0.8111 1.5182 -0.4943 3.2828 0.37 4.0207 -0.5683 -3.7134 5.0721 -5.7224 1.5653 -9.3951 z" fill="#fff" fill-rule="evenodd"/>
</g>
<path d="m 56.0506 1255.51 c -1.047 -1.8799 -1.4235 -3.9994 -0.936 -5.7182 1.9125 2.6396 7.3732 -1.0702 7.8713 -4.2425 -0.0023 3.4071 3.4234 6.3334 6.0304 2.8031 0.6868 2.8427 0.1347 5.8367 -1.0791 7.5009" fill-rule="evenodd"/>
<path d="m 68.4413 1258.72 c -2.9463 1.8788 -9.1041 1.6818 -12.2843 0.1997 -2.111 -0.9838 1.984 -5.1469 4.8307 -7.2855 0.9898 -0.7436 1.5632 -0.455 2.2663 0.087 2.9897 2.3056 6.948 5.8759 5.1873 6.9986 z" fill="#fff" fill-rule="evenodd"/>
<path d="m 65.6434 1262.63 c 0 1.0877 -2.3432 1.0779 -2.3432 0 s 2.3432 -1.0573 2.3432 0 z" fill="#fff" fill-rule="evenodd"/>
<path d="m 64.1875 1263.14 c 0 1.2466 -2.6858 1.2354 -2.6858 0 s 2.6858 -1.212 2.6858 0 z" fill="#fff" fill-rule="evenodd"/>
<path d="m 59.0858 1259.85 c 0 1.4154 -3.0491 1.4026 -3.0491 0 s 3.0491 -1.3759 3.0491 0 z" fill="#fff" fill-rule="evenodd"/>
<path d="m 60.4321 1263.82 c 0 1.0678 -2.3004 1.0582 -2.3004 0 s 2.3004 -1.0381 2.3004 0 z" fill="#fff" fill-rule="evenodd"/>
<path d="m 56.7943 1258.55 c 0 1.5879 -3.4207 1.5736 -3.4207 0 s 3.4207 -1.5436 3.4207 0 z" fill="#fff" fill-rule="evenodd"/>
<path d="m 72.192 1260.97 c 0 1.0677 -2.3004 1.0581 -2.3004 0 s 2.3004 -1.0381 2.3004 0 z" fill="#fff" fill-rule="evenodd"/>
<path d="m 60.7189 1259.85 c 0 0.9485 -2.0434 0.94 -2.0434 0 s 2.0434 -0.9221 2.0434 0 z" fill="#fff" fill-rule="evenodd"/>
<path d="m 63.1169 1261.13 c 0 0.9485 -2.0434 0.94 -2.0434 0 s 2.0434 -0.9221 2.0434 0 z" fill="#fff" fill-rule="evenodd"/>
<path d="m 65.0439 1259.55 c 0 0.9486 -2.0434 0.94 -2.0434 0 s 2.0434 -0.9221 2.0434 0 z" fill="#fff" fill-rule="evenodd"/>
<path d="m 68.9018 1259.37 c 0 0.9486 -2.0434 0.94 -2.0434 0 s 2.0434 -0.9221 2.0434 0 z" fill="#fff" fill-rule="evenodd"/>
<path d="m 70.3149 1258.6 c 0 0.9486 -2.0434 0.94 -2.0434 0 s 2.0434 -0.9221 2.0434 0 z" fill="#fff" fill-rule="evenodd"/>
<path d="m 73.2658 1257.9 c 0 0.9486 -2.0434 0.94 -2.0434 0 s 2.0434 -0.9221 2.0434 0 z" fill="#fff" fill-rule="evenodd"/>
<path d="m 74.7217 1259.52 c 0 0.9485 -2.0434 0.94 -2.0434 0 s 2.0434 -0.9221 2.0434 0 z" fill="#fff" fill-rule="evenodd"/>
<path d="m 72.5099 1263.81 c 0 0.9485 -2.0434 0.94 -2.0434 0 s 2.0434 -0.9221 2.0434 0 z" fill="#fff" fill-rule="evenodd"/>
<path d="m 53.982 1262.05 c 0 -1.1174 2.4074 -1.1074 2.4074 0 s -2.4074 1.0864 -2.4074 0 z" fill="#fff" fill-rule="evenodd"/>
<path d="m 55.438 1262.46 c 0 -0.9486 2.0434 -0.94 2.0434 0 s -2.0434 0.9221 -2.0434 0 z" fill="#fff" fill-rule="evenodd"/>
<path d="m 65.7411 1261.05 c 0 -0.9485 2.0434 -0.94 2.0434 0 s -2.0434 0.9221 -2.0434 0 z" fill="#fff" fill-rule="evenodd"/>
<path d="m 67.1542 1261.23 c 0 -0.9485 2.0434 -0.94 2.0434 0 s -2.0434 0.9221 -2.0434 0 z" fill="#fff" fill-rule="evenodd"/>
<path d="m 54.3812 1259.55 c 0 0.9486 -2.0434 0.94 -2.0434 0 s 2.0434 -0.9221 2.0434 0 z" fill="#fff" fill-rule="evenodd"/>
<path d="m 51.6834 1258.43 c 0 0.9486 -2.0434 0.94 -2.0434 0 s 2.0434 -0.922 2.0434 0 z" fill="#fff" fill-rule="evenodd"/>
</g>
</svg>
