<svg xmlns="http://www.w3.org/2000/svg" viewBox="0 0 512 512">
<g transform="matrix(15 0 0 15 -524 -4526.9327)">
<use width="744.094" height="1052.362" transform="translate(72 296.36217)"/>
<g fill="#fff">
<path d="m50,325.3622c-3-10 3-10 0-20h4c3,10-3,10 0,20z"/>
<path d="m36,330.3622 0,2 32,0 0-2c0-2 0-2-2-2 0,0-1-2-2-2-2,0-2,3-4,3-2,0-2-3-4-3-2,0-2,3-4,3-2,0-2-3-4-3-2,0-2,3-4,3-2,0-2-3-4-3-1,0-2,2-2,2-2,0-2,0-2,2z"/>
<path d="m42,325.3622c-3-10 3-10 0-20h4c3,10-3,10 0,20z"/>
<path d="m58,325.3622c-3-10 3-10 0-20h4c3,10-3,10 0,20z"/>
</g>
</g>
</svg>
