<svg viewBox="0 0 512 512" xmlns="http://www.w3.org/2000/svg">

<g transform="matrix(18.68858,0,0,18.68858,-13162.17091,-36085.02508)">
<path d="m709.7353,1941.6955 1.9253-9.9105 3.6807,9.7972" fill="#fff"/>
<path d="m708.276,1931.8769-3.859,25.4321h12.0718l-1.1214-6.7621 12.8634-.1648 2.4407-8.3125h-10.7855l-1.0884-2.0122h-7.5861z" fill="#fff"/>
<path d="m711.4341,1939.5434h7.696" fill="none" stroke="#000"/>
<path d="m709.333,1933.2636 3.0233,8.4659" fill="none" stroke="#000"/>
<path d="m729.2715,1948.0947h-10.0795" fill="none" stroke="#000"/>
<path d="m715.4121,1941.4123h3.0012l1.1463,2.0811-1.3955-.024z"/>
<path d="m722.7403,1948.589c0,.3352-.2718.607-.607.607s-.607-.2718-.607-.607 .2718-.607.607-.607 .607.2718.607.607z" transform="matrix(1.05546,0,0,-1.05555,-40.02474,4001.9583)"/>
<path d="m722.7403,1948.589c0,.3352-.2718.607-.607.607s-.607-.2718-.607-.607 .2718-.607.607-.607 .607.2718.607.607z" transform="matrix(1.05546,0,0,-1.05555,-37.71644,4001.9583)"/>
<path d="m722.7403,1948.589c0,.3352-.2718.607-.607.607s-.607-.2718-.607-.607 .2718-.607.607-.607 .607.2718.607.607z" transform="matrix(1.05546,0,0,-1.05555,-35.46663,4001.9583)"/>
<path d="m722.7403,1948.589c0,.3352-.2718.607-.607.607s-.607-.2718-.607-.607 .2718-.607.607-.607 .607.2718.607.607z" transform="matrix(1.05546,0,0,-1.05555,-38.86909,4000.3965)"/>
<path d="m722.7403,1948.589c0,.3352-.2718.607-.607.607s-.607-.2718-.607-.607 .2718-.607.607-.607 .607.2718.607.607z" transform="matrix(1.05546,0,0,-1.05555,-36.48238,4000.3965)"/>
<path d="m726.4968,1941.1575 3.8789,5.5498" fill="none" stroke="#000"/>
<path d="m716.985,1951.0411h-6.2829l-1.3795-3.8304" fill="none" stroke="#000"/>
<path d="m704.8604,1949.9376v7.9404" fill="none" stroke="#000"/>
</g>
</svg>
