<svg viewBox="0 0 512 512" xmlns="http://www.w3.org/2000/svg">

<g transform="matrix(18.68858,0,0,18.68858,-13162.17091,-36085.02508)">
<path d="m 709.735 1941.7 1.9253 -9.9105 3.6807 9.7972" fill="#fff"/>
<path d="m 708.276 1931.88 -3.859 25.4321 h 12.0718 l -1.1214 -6.7621 12.8634 -0.1648 2.4407 -8.3125 h -10.7855 l -1.0884 -2.0122 h -7.5861 z" fill="#fff"/>
<path d="m 711.434 1939.54 h 7.696" fill="none" stroke="#000"/>
<path d="m 709.333 1933.26 3.0233 8.4659" fill="none" stroke="#000"/>
<path d="m 729.271 1948.09 h -10.0795" fill="none" stroke="#000"/>
<path d="m 715.412 1941.41 h 3.0012 l 1.1463 2.0811 -1.3955 -0.024 z"/>
<path d="m 722.74 1948.59 c 0 0.3352 -0.2718 0.607 -0.607 0.607 s -0.607 -0.2718 -0.607 -0.607 0.2718 -0.607 0.607 -0.607 0.607 0.2718 0.607 0.607 z" transform="matrix(1.05546,0,0,-1.05555,-40.02474,4001.9583)"/>
<path d="m 722.74 1948.59 c 0 0.3352 -0.2718 0.607 -0.607 0.607 s -0.607 -0.2718 -0.607 -0.607 0.2718 -0.607 0.607 -0.607 0.607 0.2718 0.607 0.607 z" transform="matrix(1.05546,0,0,-1.05555,-37.71644,4001.9583)"/>
<path d="m 722.74 1948.59 c 0 0.3352 -0.2718 0.607 -0.607 0.607 s -0.607 -0.2718 -0.607 -0.607 0.2718 -0.607 0.607 -0.607 0.607 0.2718 0.607 0.607 z" transform="matrix(1.05546,0,0,-1.05555,-35.46663,4001.9583)"/>
<path d="m 722.74 1948.59 c 0 0.3352 -0.2718 0.607 -0.607 0.607 s -0.607 -0.2718 -0.607 -0.607 0.2718 -0.607 0.607 -0.607 0.607 0.2718 0.607 0.607 z" transform="matrix(1.05546,0,0,-1.05555,-38.86909,4000.3965)"/>
<path d="m 722.74 1948.59 c 0 0.3352 -0.2718 0.607 -0.607 0.607 s -0.607 -0.2718 -0.607 -0.607 0.2718 -0.607 0.607 -0.607 0.607 0.2718 0.607 0.607 z" transform="matrix(1.05546,0,0,-1.05555,-36.48238,4000.3965)"/>
<path d="m 726.497 1941.16 3.8789 5.5498" fill="none" stroke="#000"/>
<path d="m 716.985 1951.04 h -6.2829 l -1.3795 -3.8304" fill="none" stroke="#000"/>
<path d="m 704.86 1949.94 v 7.9404" fill="none" stroke="#000"/>
</g>
</svg>
