<svg viewBox="0 0 512 512" xmlns="http://www.w3.org/2000/svg">

<g transform="matrix(18.68858,0,0,18.68858,-13164.20567,-37447.55754)">
<path d="m 710.573 2018.28 6.6321 -12.3425 6.6321 12.3427" fill="none" stroke="#fff"/>
<path d="m 723.508 2016.86 c -5.6713 5.2049 -14.299 2.8331 -17.3172 -2.6203 0.1515 6.6938 5.4346 12.3273 12.0134 12.3273 3.781 0.0001 7.0842 -1.2449 9.1438 -3.7113 z" fill="#fff"/>
<path d="m 721.087 2016.66 8.0297 8.3567" fill="none" stroke="#000"/>
<path d="m 705.48 2012.53 1.3367 -0.1759 0.4639 2.4949 -1.6033 0.176 z" fill="#fff"/>
<path d="m 707.635 2015.23 -2.2536 0.2472" fill="#fff" stroke="#000"/>
<path d="m 706.395 2020.32 1.2577 2.1464 4.872 -4.4592 -2.333 -1.2562 z" fill="#fff" stroke="#000"/>
<path d="m 725.37 2019.63 c -0.1785 1.7349 -3.2252 3.9618 -5.5379 4.5554 1.8474 0.2274 4.8406 -0.9686 6.6759 -2.7391 z"/>
<path d="m 723.902 2017.64 c -0.2062 0.8607 -2.3425 2.0959 -3.9087 2.7467 1.6281 0.1491 3.6297 -0.4835 4.5731 -1.4828 z"/>
<path d="m 726.44 2020.5 c 0.0236 0.8847 -1.7202 2.6307 -3.0647 3.6647 1.6112 -0.2774 3.3809 -1.4064 4.0335 -2.6158 z"/>
<path d="m 721.956 2016.89 6.1342 6.3899 2.9366 -1.72 -7.1955 -7.4955 -1.8752 2.8256 z" fill="#fff"/>
<path d="m 721.345 2017.03 2.857 -4.5332" fill="none" stroke="#000"/>
<path d="m 719.745 2006.92 c 0 1.0099 -0.8186 1.8285 -1.8285 1.8285 s -1.8285 -0.8186 -1.8285 -1.8285 0.8186 -1.8285 1.8285 -1.8285 1.8285 0.8187 1.8285 1.8285 z" fill="#fff" stroke="#000" stroke-width="1.2152" transform="matrix(.82292,0,0,.82292,126.40728,355.25835)"/>
</g>
</svg>
