<svg viewBox="0 0 512 512" xmlns="http://www.w3.org/2000/svg">

<g transform="matrix(18.68858,0,0,18.68858,-13164.20567,-37447.55754)">
<path d="m710.5732,2018.2815 6.6321-12.3425 6.6321,12.3427" fill="none" stroke="#fff"/>
<path d="m723.5082,2016.8633c-5.6713,5.2049-14.299,2.8331-17.3172-2.6203 .1515,6.6938 5.4346,12.3273 12.0134,12.3273 3.781.0001 7.0842-1.2449 9.1438-3.7113z" fill="#fff"/>
<path d="m721.0868,2016.6553 8.0297,8.3567" fill="none" stroke="#000"/>
<path d="m705.4801,2012.5266 1.3367-.1759 .4639,2.4949-1.6033.176z" fill="#fff"/>
<path d="m707.635,2015.2341-2.2536.2472" fill="#fff" stroke="#000"/>
<path d="m706.3954,2020.3161 1.2577,2.1464 4.872-4.4592-2.333-1.2562z" fill="#fff" stroke="#000"/>
<path d="m725.3705,2019.635c-.1785,1.7349-3.2252,3.9618-5.5379,4.5554 1.8474.2274 4.8406-.9686 6.6759-2.7391z"/>
<path d="m723.9016,2017.6428c-.2062.8607-2.3425,2.0959-3.9087,2.7467 1.6281.1491 3.6297-.4835 4.5731-1.4828z"/>
<path d="m726.4403,2020.4999c.0236.8847-1.7202,2.6307-3.0647,3.6647 1.6112-.2774 3.3809-1.4064 4.0335-2.6158z"/>
<path d="m721.9556,2016.8944 6.1342,6.3899 2.9366-1.72-7.1955-7.4955-1.8752,2.8256z" fill="#fff"/>
<path d="m721.345,2017.0317 2.857-4.5332" fill="none" stroke="#000"/>
<path d="m719.7451,2006.9177c0,1.0099-.8186,1.8285-1.8285,1.8285s-1.8285-.8186-1.8285-1.8285 .8186-1.8285 1.8285-1.8285 1.8285.8187 1.8285,1.8285z" fill="#fff" stroke="#000" stroke-width="1.2152" transform="matrix(.82292,0,0,.82292,126.40728,355.25835)"/>
</g>
</svg>
