<svg viewBox="0 0 512 512" xmlns="http://www.w3.org/2000/svg">

<g transform="matrix(18.68858,0,0,18.68858,-7717.47601,-24502.68674)">
<path d="m427.8851,1330.795c3.947.8253 4.6692,3.6832 3.6912,5.5519l5.102,1.028c.1599-.4146.2981-.8408.4073-1.2609-.1904.1225-.5547.255-1.0592.176-2.21-.3462-1.7725-2.8907-.0271-3.1247 .5841-.078 1.1312.1717 1.4743.6014l.9783-2.08c-3.6439.3252-6.9358-1.6487-10.5669-.8917z" fill="#fff" fill-rule="evenodd"/>
<path d="m413.9375,1323.5084v13.9916h.99c1.2587-4.9745 5.0601-6.9785 9.0413-4.5625 2.3391,1.4195 5.2285,3.4839 8.3125,2.0625l-.2188-2c-2.918.4055-5.1513-.6751-6.8438-2.5937-1.5216-1.7249-3.1614-2.1995-4.75-1.875 2.847-5.8193 9.2281-4.7921 10.875-2.375l1.2812-1.5625c-3.1618-4.8353-10.3226-3.5551-14.8666.4323 1.8984-7.5859 11.6096-9.2605 16.1976-8.0127l.3877-2.2634c-9.2332-2.0322-16.5449,1.0387-20.4062,8.7584z" fill="#fff" fill-rule="evenodd"/>
<path d="m429.3841,1319.1507c2.7379,2.9603 1.67,5.7075-.2102,6.6636l3.5616,3.7949c.3707-.2451.7303-.5122 1.0628-.7914-.2262-.011-.7568-.2689-.9344-.4322-1.8477-1.6983.3792-3.4151 1.7585-2.6003 .5075.2998.8222.7957.8528,1.3446l1.8587-1.2761c-3.1578-1.8472-4.5521-5.2153-7.9497-6.7031z" fill="#fff" fill-rule="evenodd"/>
<path d="m429.5118,1312.396c3.947.8256 4.6691,3.6831 3.6912,5.5521l5.102,1.0279c.1599-.4146.2981-.8406.4073-1.2608-.1904.1224-.4011.2848-.6401.2522-2.4778-.3377-2.344-2.9288-.4463-3.201 .5834-.084 1.1312.172 1.4744.6015 .0535-.5449.0962-1.9085.1165-2.4571-3.644.3252-6.0739-1.2713-9.705-.5148z" fill="#fff" fill-rule="evenodd"/>
<path d="m413.9398,1325.1544 8.2074-7.5919 8.9121-2.9432-1.4674-1.3545-1.5426,1.3169-2.2575-1.2416-1.2793,1.9565-2.3704-1.204-.9406,2.5585-2.7843-.4515-.0376,2.4456h-2.8595l.301,3.0853-1.8813-.3386v3.7625z" fill="#fff" fill-rule="evenodd"/>
<path d="m429.7189,1322.3583-.9616-1.4784-1.4096.9893-1.4298-1.3545-1.4298,1.8436-1.505-1.2416-.8654,1.8436-2.0318-.7148-.903,2.7089 5.1923-1.3921 5.3436-1.204z" fill="#fff" fill-rule="evenodd"/>
<path d="m421.3277,1328.9455 2.2951-.903 .1505,2.3327 2.1823-.5643 .1881,2.7842 1.5803-.8653 .7149,1.4297 1.3545-.6396 1.3921,1.3169-1.3169.7525-7.4498-3.1982-1.0911-2.4456z" fill="#fff" fill-rule="evenodd"/>
</g>
</svg>
