<svg viewBox="0 0 512 512" xmlns="http://www.w3.org/2000/svg">

<g transform="matrix(18.68858,0,0,18.68858,-9760.0584,-37447.99111)">
<path d="m524.0696,2005.0827c-.5438-.5438-1.2297.02-.625.625l19.8992,21.8647 2.7812-1.7188z" fill="#fff"/>
<g transform="matrix(.69215,.39961,-.39961,.69215,225.49037,1683.1664)">
<path d="m548.3056,165.8209 16.375,2.9375c-.4991,2.8178-1.1878,5.5882-2.6219,8.1723l-7.9116-2.7665c.8534-1.9605.9764-5.1711-5.8415-8.3434z" fill="#fff" fill-rule="evenodd"/>
<path d="m172.75,364.2059c0,1.4325-1.1613,2.5938-2.5938,2.5938s-2.5938-1.1613-2.5938-2.5938 1.1613-2.5938 2.5938-2.5938 2.5938,1.1613 2.5938,2.5938z" transform="matrix(.86554,0,0,.86554,414.6272,-142.57036)"/>
</g>
<path d="m527.1154,2004.9645c-.7429-.199-1.0549.6322-.2288.8537l16.8517,6.5479 1.5493-2.8791z" fill="#fff"/>
<g transform="matrix(.79923,0,0,.79923,97.29472,1873.1427)">
<path d="m548.3056,165.8209 16.375,2.9375c-.4991,2.8178-1.1878,5.5882-2.6219,8.1723l-7.9116-2.7665c.8534-1.9605.9764-5.1711-5.8415-8.3434z" fill="#fff" fill-rule="evenodd"/>
<path d="m172.75,364.2059c0,1.4325-1.1613,2.5938-2.5938,2.5938s-2.5938-1.1613-2.5938-2.5938 1.1613-2.5938 2.5938-2.5938 2.5938,1.1613 2.5938,2.5938z" transform="matrix(.86554,0,0,.86554,414.6272,-142.57036)"/>
</g>
<path d="m523.986,2008.3953c-.2227-.7361-1.0935-.5628-.8459.2559l3.7661,18.8446 3.2632-.2025z" fill="#fff"/>
<g transform="matrix(.42156,.67901,-.67901,.42156,409.26387,1573.8366)">
<path d="m548.3056,165.8209 16.375,2.9375c-.4991,2.8178-1.1878,5.5882-2.6219,8.1723l-7.9116-2.7665c.8534-1.9605.9764-5.1711-5.8415-8.3434z" fill="#fff" fill-rule="evenodd"/>
<path d="m172.75,364.2059c0,1.4325-1.1613,2.5938-2.5938,2.5938s-2.5938-1.1613-2.5938-2.5938 1.1613-2.5938 2.5938-2.5938 2.5938,1.1613 2.5938,2.5938z" transform="matrix(.86554,0,0,.86554,414.6272,-142.57036)"/>
</g>
<path d="m528.8568,2022.4219 .8381,2.5523-1.2952-.1143z"/>
<path d="m542.749,2022.0538 2.0019,1.7913-1.2666.5332z"/>
<path d="m541.9159,2007.9231 2.6294.5504-.8303,1.095z"/>
</g>
</svg>
