<svg viewBox="0 0 512 512" xmlns="http://www.w3.org/2000/svg">

<g transform="matrix(18.68858,0,0,18.68858,-9760.0584,-37447.99111)">
<path d="m 524.07 2005.08 c -0.5438 -0.5438 -1.2297 0.02 -0.625 0.625 l 19.8992 21.8647 2.7812 -1.7188 z" fill="#fff"/>
<g transform="matrix(.69215,.39961,-.39961,.69215,225.49037,1683.1664)">
<path d="m 548.306 165.821 16.375 2.9375 c -0.4991 2.8178 -1.1878 5.5882 -2.6219 8.1723 l -7.9116 -2.7665 c 0.8534 -1.9605 0.9764 -5.1711 -5.8415 -8.3434 z" fill="#fff" fill-rule="evenodd"/>
<path d="m 172.75 364.206 c 0 1.4325 -1.1613 2.5938 -2.5938 2.5938 s -2.5938 -1.1613 -2.5938 -2.5938 1.1613 -2.5938 2.5938 -2.5938 2.5938 1.1613 2.5938 2.5938 z" transform="matrix(.86554,0,0,.86554,414.6272,-142.57036)"/>
</g>
<path d="m 527.115 2004.96 c -0.7429 -0.199 -1.0549 0.6322 -0.2288 0.8537 l 16.8517 6.5479 1.5493 -2.8791 z" fill="#fff"/>
<g transform="matrix(.79923,0,0,.79923,97.29472,1873.1427)">
<path d="m 548.306 165.821 16.375 2.9375 c -0.4991 2.8178 -1.1878 5.5882 -2.6219 8.1723 l -7.9116 -2.7665 c 0.8534 -1.9605 0.9764 -5.1711 -5.8415 -8.3434 z" fill="#fff" fill-rule="evenodd"/>
<path d="m 172.75 364.206 c 0 1.4325 -1.1613 2.5938 -2.5938 2.5938 s -2.5938 -1.1613 -2.5938 -2.5938 1.1613 -2.5938 2.5938 -2.5938 2.5938 1.1613 2.5938 2.5938 z" transform="matrix(.86554,0,0,.86554,414.6272,-142.57036)"/>
</g>
<path d="m 523.986 2008.4 c -0.2227 -0.7361 -1.0935 -0.5628 -0.8459 0.2559 l 3.7661 18.8446 3.2632 -0.2025 z" fill="#fff"/>
<g transform="matrix(.42156,.67901,-.67901,.42156,409.26387,1573.8366)">
<path d="m 548.306 165.821 16.375 2.9375 c -0.4991 2.8178 -1.1878 5.5882 -2.6219 8.1723 l -7.9116 -2.7665 c 0.8534 -1.9605 0.9764 -5.1711 -5.8415 -8.3434 z" fill="#fff" fill-rule="evenodd"/>
<path d="m 172.75 364.206 c 0 1.4325 -1.1613 2.5938 -2.5938 2.5938 s -2.5938 -1.1613 -2.5938 -2.5938 1.1613 -2.5938 2.5938 -2.5938 2.5938 1.1613 2.5938 2.5938 z" transform="matrix(.86554,0,0,.86554,414.6272,-142.57036)"/>
</g>
<path d="m 528.857 2022.42 0.8381 2.5523 -1.2952 -0.1143 z"/>
<path d="m 542.749 2022.05 2.0019 1.7913 -1.2666 0.5332 z"/>
<path d="m 541.916 2007.92 2.6294 0.5504 -0.8303 1.095 z"/>
</g>
</svg>
