<svg viewBox="0 0 512 512" xmlns="http://www.w3.org/2000/svg">

<g transform="matrix(18.68858,0,0,18.68858,-7717.47601,-24502.68674)">
<path d="m 427.885 1330.8 c 3.947 0.8253 4.6692 3.6832 3.6912 5.5519 l 5.102 1.028 c 0.1599 -0.4146 0.2981 -0.8408 0.4073 -1.2609 -0.1904 0.1225 -0.5547 0.255 -1.0592 0.176 -2.21 -0.3462 -1.7725 -2.8907 -0.0271 -3.1247 0.5841 -0.078 1.1312 0.1717 1.4743 0.6014 l 0.9783 -2.08 c -3.6439 0.3252 -6.9358 -1.6487 -10.5669 -0.8917 z" fill="#fff" fill-rule="evenodd"/>
<path d="m 413.938 1323.51 v 13.9916 h 0.99 c 1.2587 -4.9745 5.0601 -6.9785 9.0413 -4.5625 2.3391 1.4195 5.2285 3.4839 8.3125 2.0625 l -0.2188 -2 c -2.918 0.4055 -5.1513 -0.6751 -6.8438 -2.5937 -1.5216 -1.7249 -3.1614 -2.1995 -4.75 -1.875 2.847 -5.8193 9.2281 -4.7921 10.875 -2.375 l 1.2812 -1.5625 c -3.1618 -4.8353 -10.3226 -3.5551 -14.8666 0.4323 1.8984 -7.5859 11.6096 -9.2605 16.1976 -8.0127 l 0.3877 -2.2634 c -9.2332 -2.0322 -16.5449 1.0387 -20.4062 8.7584 z" fill="#fff" fill-rule="evenodd"/>
<path d="m 429.384 1319.15 c 2.7379 2.9603 1.67 5.7075 -0.2102 6.6636 l 3.5616 3.7949 c 0.3707 -0.2451 0.7303 -0.5122 1.0628 -0.7914 -0.2262 -0.011 -0.7568 -0.2689 -0.9344 -0.4322 -1.8477 -1.6983 0.3792 -3.4151 1.7585 -2.6003 0.5075 0.2998 0.8222 0.7957 0.8528 1.3446 l 1.8587 -1.2761 c -3.1578 -1.8472 -4.5521 -5.2153 -7.9497 -6.7031 z" fill="#fff" fill-rule="evenodd"/>
<path d="m 429.512 1312.4 c 3.947 0.8256 4.6691 3.6831 3.6912 5.5521 l 5.102 1.0279 c 0.1599 -0.4146 0.2981 -0.8406 0.4073 -1.2608 -0.1904 0.1224 -0.4011 0.2848 -0.6401 0.2522 -2.4778 -0.3377 -2.344 -2.9288 -0.4463 -3.201 0.5834 -0.084 1.1312 0.172 1.4744 0.6015 0.0535 -0.5449 0.0962 -1.9085 0.1165 -2.4571 -3.644 0.3252 -6.0739 -1.2713 -9.705 -0.5148 z" fill="#fff" fill-rule="evenodd"/>
<path d="m 413.94 1325.15 8.2074 -7.5919 8.9121 -2.9432 -1.4674 -1.3545 -1.5426 1.3169 -2.2575 -1.2416 -1.2793 1.9565 -2.3704 -1.204 -0.9406 2.5585 -2.7843 -0.4515 -0.0376 2.4456 h -2.8595 l 0.301 3.0853 -1.8813 -0.3386 v 3.7625 z" fill="#fff" fill-rule="evenodd"/>
<path d="m 429.719 1322.36 -0.9616 -1.4784 -1.4096 0.9893 -1.4298 -1.3545 -1.4298 1.8436 -1.505 -1.2416 -0.8654 1.8436 -2.0318 -0.7148 -0.903 2.7089 5.1923 -1.3921 5.3436 -1.204 z" fill="#fff" fill-rule="evenodd"/>
<path d="m 421.328 1328.95 2.2951 -0.903 0.1505 2.3327 2.1823 -0.5643 0.1881 2.7842 1.5803 -0.8653 0.7149 1.4297 1.3545 -0.6396 1.3921 1.3169 -1.3169 0.7525 -7.4498 -3.1982 -1.0911 -2.4456 z" fill="#fff" fill-rule="evenodd"/>
</g>
</svg>
