<svg viewBox="0 0 512 512" xmlns="http://www.w3.org/2000/svg">

<g transform="matrix(18.68858,0,0,18.68858,-212.90628,-10387.11676)">
<path d="m20.6734,565.1677c6.8628-6.8628 14.3899-10.4618 16.8193-8.0325s-1.1696,9.9565-8.0324,16.8193-14.4121,10.484-16.8415,8.0546 1.1918-9.9787 8.0546-16.8415z" fill="#fff" stroke="#000"/>
<path d="m23.525,568.0193c-5.3638,5.3638-8.6432,10.7944-7.3224,12.1152s6.7515-1.9586 12.1152-7.3224 8.6432-10.7945 7.3224-12.1152-6.7515,1.9586-12.1152,7.3224z"/>
<path d="m12.089,556.5568v2.479l17.9804,21.6205 5.0207-.8472 .8786-5.1776-21.6832-18.0746h-2.1966z" fill="#fff"/>
<path d="m27.4375,559.5625c-2.1934,1.452-4.4957,3.3394-6.75,5.5938-2.7474,2.7474-4.9719,5.6238-6.5,8.2188" fill="none" stroke="#000"/>
<path d="m18.875,574.1705c1.3582-1.8336 3.0761-3.8243 5.0751-5.8227 1.4367-1.4363 2.8797-2.7265 4.2577-3.8478" fill="none" stroke="#000"/>
<path d="m24.4531,574.6903 2.4062,2.8906" fill="none" stroke="#000"/>
<path d="m30.0078,569.0184 2.8359,2.3594" fill="none" stroke="#000"/>
<path d="m34.5064,569.6075c-.1317-.1111-.2853-.1982-.4209-.3006 3.0683,5.2529-4.2751,12.1495-9.4102,9.4102 .2644.3501.5201.7005.8418,1.0222 3.1532,3.1532 7.8538,3.5707 10.4925.932s2.2212-7.3393-.932-10.4925c-.1971-.1971-.363-.3956-.5712-.5712z" fill="#fff"/>
</g>
</svg>
