<svg viewBox="0 0 512 512" xmlns="http://www.w3.org/2000/svg">

<g transform="matrix(18.68858,0,0,18.68858,-212.90628,-10387.11676)">
<path d="m 20.6734 565.168 c 6.8628 -6.8628 14.3899 -10.4618 16.8193 -8.0325 s -1.1696 9.9565 -8.0324 16.8193 -14.4121 10.484 -16.8415 8.0546 1.1918 -9.9787 8.0546 -16.8415 z" fill="#fff" stroke="#000"/>
<path d="m 23.525 568.019 c -5.3638 5.3638 -8.6432 10.7944 -7.3224 12.1152 s 6.7515 -1.9586 12.1152 -7.3224 8.6432 -10.7945 7.3224 -12.1152 -6.7515 1.9586 -12.1152 7.3224 z"/>
<path d="m 12.089 556.557 v 2.479 l 17.9804 21.6205 5.0207 -0.8472 0.8786 -5.1776 -21.6832 -18.0746 h -2.1966 z" fill="#fff"/>
<path d="m 27.4375 559.562 c -2.1934 1.452 -4.4957 3.3394 -6.75 5.5938 -2.7474 2.7474 -4.9719 5.6238 -6.5 8.2188" fill="none" stroke="#000"/>
<path d="m 18.875 574.17 c 1.3582 -1.8336 3.0761 -3.8243 5.0751 -5.8227 1.4367 -1.4363 2.8797 -2.7265 4.2577 -3.8478" fill="none" stroke="#000"/>
<path d="m 24.4531 574.69 2.4062 2.8906" fill="none" stroke="#000"/>
<path d="m 30.0078 569.018 2.8359 2.3594" fill="none" stroke="#000"/>
<path d="m 34.5064 569.607 c -0.1317 -0.1111 -0.2853 -0.1982 -0.4209 -0.3006 3.0683 5.2529 -4.2751 12.1495 -9.4102 9.4102 0.2644 0.3501 0.5201 0.7005 0.8418 1.0222 3.1532 3.1532 7.8538 3.5707 10.4925 0.932 s 2.2212 -7.3393 -0.932 -10.4925 c -0.1971 -0.1971 -0.363 -0.3956 -0.5712 -0.5712 z" fill="#fff"/>
</g>
</svg>
