<svg viewBox="0 0 512 512" xmlns="http://www.w3.org/2000/svg">

<g transform="matrix(18.68858,0,0,18.68858,-5682.22872,-46287.83377)">
<path d="m 306.761 2481.66 c -1.1228 0.4093 -1.155 0.6326 -1.1955 1.7802 l -0.3963 12.5231 c -0.0646 1.4723 -0.0351 1.7756 1.244 2.3307 l 9.9394 4.3567 c 1.0349 0.4436 1.7084 0.4097 2.419 0.1723 l 9.7357 -3.0261 c 1.1746 -0.3903 1.3391 -0.5138 1.3838 -1.9702 l 0.4115 -13.3869 c 0.0354 -0.9295 -0.3041 -1.3211 -1.0058 -1.5849 l -10.7448 -4.2194 c -1.3887 -0.5719 -2.1446 -0.4939 -3.3765 -0.026 z" fill="#fff"/>
<path d="m 310.12 2483.85 c -1.8497 -0.8094 -2.391 -1.4705 0.955 -2.6816 5.774 -2.09 5.802 -2.0864 10.4759 -0.2703 5.1125 1.9864 7.0479 2.879 3.7292 4.1705 -3.9598 1.5411 -6.8587 2.4144 -9.2187 1.3816 z"/>
<path d="m 306.507 2485.61 c 0.0679 -2.0179 0.1714 -2.1939 4.1312 -0.4297 7.5407 3.3596 7.5195 3.5243 7.0084 10.7362 -0.4164 5.8757 -0.4706 5.8781 -6.8741 3.1723 -3.9141 -1.6539 -4.6455 -2.1856 -4.5589 -4.7602 z"/>
<path d="m 318.421 2499.91 c -0.1349 2.0144 0.4579 1.7786 4.2259 0.6437 5.9568 -1.7944 6.2206 -2.0649 6.4409 -9.2956 0.1873 -6.1463 0.1019 -6.5185 -5.0061 -4.6213 -4.6673 1.7336 -4.9004 1.918 -5.0725 4.4882 z"/>
<path d="m 312.253 2489.41 c -0.2647 3.1894 -3.846 0.7083 -5.1259 3.565 -1.7058 3.8075 3.1603 5.2553 6.1751 6.5069 2.6159 1.0859 3.6724 -0.2604 3.7766 -3.5367 0.2238 -7.0374 -4.5028 -10.4285 -4.8259 -6.5352 z" fill="#fff" stroke="#000"/>
<path d="m 321.588 2499.58 c 4.6504 0.2469 7.3038 -3.0751 6.8099 -9.939 -0.233 -3.2384 -3.7214 -3.0391 -3.4503 0.1484 0.1265 1.488 -1.1418 4.3408 -2.939 4.5856 -3.5328 0.4813 -3.6875 5.0315 -0.4206 5.205 z" fill="#fff" stroke="#000"/>
<path d="m 323.056 2488.14 c -4 0.2245 -3.809 2.6829 -2.5929 4.2259 2.8247 3.5843 6.7839 -4.4611 2.5929 -4.2259 z" fill="#fff" stroke="#000"/>
<path d="m 319.581 2486.2 c 7.7685 -1.5203 6.9905 -3.892 0.6753 -4.7299 -5.8091 -0.7707 -6.1071 5.7929 -0.6753 4.7299 z" fill="#fff" stroke="#000"/>
</g>
</svg>
