<svg viewBox="0 0 512 512" xmlns="http://www.w3.org/2000/svg">

<g transform="matrix(18.68858,0,0,18.68858,-839.37201,-11020.49066)">
<path d="m46.1915,598.436 4.1854,1.6676-.6615,2.1765-3.5239-3.8441z" fill="#fff"/>
<path d="m49.8125,590.0938-3.7188.0312v3.0312l3.9688,1.7812-.25,1.5625 2.4062,2.5-1.4062,3.4688 9.0312,2.9688v.0312l-2.2188.6562 1.75,4-2.1562-2-1.75-.2188-2.9375-2.0312 2.0938,3.3125 2.3438-.0312 2.8125,2.5625 1.7812-.375 9.9688,5.0625-2.2812-4.6562-1.5625-6.8438-2.0625-2-.5-2.5938-1.8438-1.75 .6562,3.9688 3,3.375-.5938,2.0938-.7576-2.2027-1.9001-.8163-1.3931.9962 2.8946,1.7415-4.5-1.1562 .9688-2.0625-3.3598-2.5496-1.2531-7.7317-2.5745-.8125 .5312,3.5 1.4991.2112-2.4053,1.899-1.125-5.8915-2.5938-.5938-.5625-2.4375z" fill="#fff"/>
<path d="m61.3535,595.2078 1.2428,4.4526-3.0465-2.9206-.0066-1.809 1.8103.277z" fill="#fff"/>
<path d="m46.0938,594.4076v2.2161l3.3676-.7553-3.3676-1.4608z" fill="#fff"/>
<path d="m56.9428,590.4962 .0505,2.2888-2.2068-2.5161 2.1562.2273z" fill="#fff"/>
<path d="m59.6736,593.0008-.8015-2.0604-.8015,2.0604 .3595,1.7953 1.2434-1.7953z" fill="#fff"/>
<path d="m62.5537,600.9792 .2751,2.8606-3.0187-2.1757-.5091-3.6423 3.2526,2.9573z" fill="#fff"/>
<path d="m53.1421,590.4962 2.0614,2.0226-3.6903-1.0154-.5274-1.2345 2.1562.2273z" fill="#fff"/>
<path d="m45.0938,590.2997h14.6563" fill="none" stroke="#000"/>
<path d="m48.7327,596.9865 1.9615,2.1033-3.9938-1.4274 2.0323-.6758z" fill="#fff"/>
<path d="m64.6355,591.0484-1.1893,2.39-.7662-1.9695 1.9555-.4204z" fill="#fff"/>
<path d="m65.6822,595.6847-1.6539.3259 .3997-1.9368 1.2542,1.611z" fill="#fff"/>
<path d="m48.2347,602.7079-1.5893-1.3702-.6244,2.1259 2.2137-.7558z" fill="#fff"/>
<path d="m52.2992,607.3733-.9391,1.3999-1.0869-1.6522 2.026.2523z" fill="#fff"/>
<path d="m48.6997,603.2713 4.5301.9088-3.7302,1.3476-1.7147-.7451 .9148-1.5113z" fill="#fff"/>
<path d="m48.4063,607.3705-1.9912-.0973 1.0506-1.5182 .9406,1.6155z" fill="#fff"/>
<path d="m52.9888,605.095 2.8063-.0663 1.2153,1.8782-1.286.1329-2.7357-1.9448z" fill="#fff" fill-rule="evenodd"/>
</g>
</svg>
