<svg viewBox="0 0 512 512" xmlns="http://www.w3.org/2000/svg">

<g transform="matrix(18.68858,0,0,18.68858,-909.39963,-36085.68853)">
<g transform="translate(10.3468,-1.6657)">
<path d="m56.119,1942.1721 1.1754,1.1754-1.1754,4.9314-1.1754-4.9314z" fill="#fff"/>
<path d="m56.119,1956.0047 1.1754-1.1754-1.1754-4.9314-1.1754,4.9314z" fill="#fff"/>
<path d="m62.1087,1945.6302-.4302,1.6057-4.8585,1.4477 3.683-3.4836z" fill="#fff"/>
<path d="m50.1293,1952.5466 1.6056.4302 3.683-3.4836-4.8585,1.4477z" fill="#fff"/>
<path d="m50.1293,1945.6302 .4302,1.6057 4.8585,1.4477-3.683-3.4836z" fill="#fff"/>
<path d="m62.1087,1952.5466-1.6056.4302-3.683-3.4836 4.8585,1.4477z" fill="#fff"/>
</g>
<g transform="translate(2.7315,.8346)">
<path d="m61.5536,1939.6358 2.1807-2.1807 2.1807,2.1807" fill="none" stroke="#fff"/>
<path d="m61.5536,1953.5404 2.1807,2.1807 2.1807-2.1807" fill="none" stroke="#fff"/>
<path d="m68.6649,1941.2234 2.9789.7982-.7982,2.9789" fill="none" stroke="#fff"/>
<path d="m56.6231,1948.1757-.7982,2.9789 2.9789.7982" fill="none" stroke="#fff"/>
<path d="m70.8456,1948.1757 .7982,2.9789-2.9789.7982" fill="none" stroke="#fff"/>
<path d="m58.8039,1941.2234-2.9789.7982 .7982,2.9789" fill="none" stroke="#fff"/>
</g>
<g transform="translate(2.7694,.7874)">
<path d="m63.6964,1955.1901v-17.1096" fill="none" stroke="#fff"/>
<path d="m56.2878,1950.9127 14.8174-8.5548" fill="none" stroke="#fff"/>
<path d="m56.2878,1942.3579 14.8174,8.5548" fill="none" stroke="#fff"/>
</g>
<path d="m56.821,1949.7183-2.9418.7882-2.1536-2.1535 .7883-2.9419 2.9418-.7882 2.1536,2.1535z" stroke="#fff" stroke-width="1.2192" transform="matrix(-.79226,.21229,-.21229,-.79226,523.21689,3478.7973)"/>
<path d="m62.6663,1937.2819 1.5798-.2034-4.3875-3.9197 2.6147,7.4192z" fill="#fff"/>
<path d="m60.9085,1940.2719-1.7918-4.9729-4.3118-2.5202 1.0138,3.1645 3.113,1.3716 .0104,3.4009z" fill="#fff"/>
<path d="m53.6636,1947.187 4.0737,1.3264-.612,2.1087-1.7539-.3901z" fill="#fff"/>
<path d="m50.9322,1935.7983 2.9239,2.5413 .2186-2.4014z" fill="#fff"/>
<path d="m67.4157,1933.6722-1.2068-.1625-.4497,1.2497 3.2274,3.2899z" fill="#fff"/>
<path d="m55.0321,1946.3158 2.1697.7073-.7878-4.3078-.7819-.7815-.9793.8449-2.6526-1.0556z" fill="#fff"/>
<path d="m48.9967,1931.2018 .3629,2.9587 4.3449.5379-1.7983-3.1737z" fill="#fff"/>
<path d="m55.0193,1931.3299h3.0313l.9121,2.3607z" fill="#fff"/>
<path d="m55.5784,1937.6424 2.3199.8151-.7524,2.8842-2.508-1.8183z" fill="#fff"/>
<path d="m50.7435,1943.2518-.4109,1.4713 1.8779.9965 .072-1.4914z" fill="#fff"/>
<path d="m63.4991,1932.7602-1.0995-.8868-1.0667.3913 3.2274,3.2899z" fill="#fff"/>
<path d="m49.3429,1940.0637 1.4551.7979 3.3518.015-4.8945-4.6184z" fill="#fff"/>
<path d="m60.3206,1931.3655h-11.1921v12.3675" fill="none" stroke="#000"/>
<path d="m71.5927,1938.3909-.9934,2.4763-1.6926,1.6064 1.4974-2.9238-.5327-3.5955z" fill="#fff"/>
<path d="m53.1469,1952.5556-.8617-2.499 4.4315,2.0644z" fill="#fff"/>
<path d="m56.4804,1953.6402-1.5591,1.5333 5.1289-1.0987z" fill="#fff"/>
</g>
</svg>
