<svg viewBox="0 0 512 512" xmlns="http://www.w3.org/2000/svg">

<g transform="matrix(18.68858,0,0,18.68858,-909.39963,-36085.68853)">
<g transform="translate(10.3468,-1.6657)">
<path d="m 56.119 1942.17 1.1754 1.1754 -1.1754 4.9314 -1.1754 -4.9314 z" fill="#fff"/>
<path d="m 56.119 1956 1.1754 -1.1754 -1.1754 -4.9314 -1.1754 4.9314 z" fill="#fff"/>
<path d="m 62.1087 1945.63 -0.4302 1.6057 -4.8585 1.4477 3.683 -3.4836 z" fill="#fff"/>
<path d="m 50.1293 1952.55 1.6056 0.4302 3.683 -3.4836 -4.8585 1.4477 z" fill="#fff"/>
<path d="m 50.1293 1945.63 0.4302 1.6057 4.8585 1.4477 -3.683 -3.4836 z" fill="#fff"/>
<path d="m 62.1087 1952.55 -1.6056 0.4302 -3.683 -3.4836 4.8585 1.4477 z" fill="#fff"/>
</g>
<g transform="translate(2.7315,.8346)">
<path d="m 61.5536 1939.64 2.1807 -2.1807 2.1807 2.1807" fill="none" stroke="#fff"/>
<path d="m 61.5536 1953.54 2.1807 2.1807 2.1807 -2.1807" fill="none" stroke="#fff"/>
<path d="m 68.6649 1941.22 2.9789 0.7982 -0.7982 2.9789" fill="none" stroke="#fff"/>
<path d="m 56.6231 1948.18 -0.7982 2.9789 2.9789 0.7982" fill="none" stroke="#fff"/>
<path d="m 70.8456 1948.18 0.7982 2.9789 -2.9789 0.7982" fill="none" stroke="#fff"/>
<path d="m 58.8039 1941.22 -2.9789 0.7982 0.7982 2.9789" fill="none" stroke="#fff"/>
</g>
<g transform="translate(2.7694,.7874)">
<path d="m 63.6964 1955.19 v -17.1096" fill="none" stroke="#fff"/>
<path d="m 56.2878 1950.91 14.8174 -8.5548" fill="none" stroke="#fff"/>
<path d="m 56.2878 1942.36 14.8174 8.5548" fill="none" stroke="#fff"/>
</g>
<path d="m 56.821 1949.72 -2.9418 0.7882 -2.1536 -2.1535 0.7883 -2.9419 2.9418 -0.7882 2.1536 2.1535 z" stroke="#fff" stroke-width="1.2192" transform="matrix(-.79226,.21229,-.21229,-.79226,523.21689,3478.7973)"/>
<path d="m 62.6663 1937.28 1.5798 -0.2034 -4.3875 -3.9197 2.6147 7.4192 z" fill="#fff"/>
<path d="m 60.9085 1940.27 -1.7918 -4.9729 -4.3118 -2.5202 1.0138 3.1645 3.113 1.3716 0.0104 3.4009 z" fill="#fff"/>
<path d="m 53.6636 1947.19 4.0737 1.3264 -0.612 2.1087 -1.7539 -0.3901 z" fill="#fff"/>
<path d="m 50.9322 1935.8 2.9239 2.5413 0.2186 -2.4014 z" fill="#fff"/>
<path d="m 67.4157 1933.67 -1.2068 -0.1625 -0.4497 1.2497 3.2274 3.2899 z" fill="#fff"/>
<path d="m 55.0321 1946.32 2.1697 0.7073 -0.7878 -4.3078 -0.7819 -0.7815 -0.9793 0.8449 -2.6526 -1.0556 z" fill="#fff"/>
<path d="m 48.9967 1931.2 0.3629 2.9587 4.3449 0.5379 -1.7983 -3.1737 z" fill="#fff"/>
<path d="m 55.0193 1931.33 h 3.0313 l 0.9121 2.3607 z" fill="#fff"/>
<path d="m 55.5784 1937.64 2.3199 0.8151 -0.7524 2.8842 -2.508 -1.8183 z" fill="#fff"/>
<path d="m 50.7435 1943.25 -0.4109 1.4713 1.8779 0.9965 0.072 -1.4914 z" fill="#fff"/>
<path d="m 63.4991 1932.76 -1.0995 -0.8868 -1.0667 0.3913 3.2274 3.2899 z" fill="#fff"/>
<path d="m 49.3429 1940.06 1.4551 0.7979 3.3518 0.015 -4.8945 -4.6184 z" fill="#fff"/>
<path d="m 60.3206 1931.37 h -11.1921 v 12.3675" fill="none" stroke="#000"/>
<path d="m 71.5927 1938.39 -0.9934 2.4763 -1.6926 1.6064 1.4974 -2.9238 -0.5327 -3.5955 z" fill="#fff"/>
<path d="m 53.1469 1952.56 -0.8617 -2.499 4.4315 2.0644 z" fill="#fff"/>
<path d="m 56.4804 1953.64 -1.5591 1.5333 5.1289 -1.0987 z" fill="#fff"/>
</g>
</svg>
