<svg viewBox="0 0 512 512" xmlns="http://www.w3.org/2000/svg">

<g transform="matrix(18.68858,0,0,18.68858,-229.21243,-22489.09317)">
<path d="m-588.0888,1055.4789h8.1175v5.535h-8.1175z" fill="#fff" transform="matrix(.86538,-.50112,.49888,.86667,0,0)"/>
<path d="m469.3386,1184.2899c0,3.0473-2.4703,5.5176-5.5176,5.5176s-5.5176-2.4703-5.5176-5.5176 2.4703-5.5176 5.5176-5.5176 5.5176,2.4703 5.5176,5.5176z" fill="#fff" transform="matrix(1.70099,-.98501,.98281,1.70739,-1925.4234,-346.76554)"/>
<path d="m21.3258,1207.499c-3.4094-5.3615-9.7027-.1672-6.6173,4.0277 1.4999,2.0391.8637,4.7111-.6832,6.2104" fill="none" stroke="#fff"/>
<path d="m29.9668,1225.0249h-12.1151l-6.0575-10.4919 6.0575-10.492h12.1151l6.0575,10.492z" transform="matrix(.57266,-.33063,.33063,.57266,-387.69602,531.11932)"/>
<g transform="matrix(.9451,-.54566,.54566,.9451,-663.14971,81.54502)">
<path d="m20.0697,1214.8289 14.0576,8.1162" fill="none" stroke="#fff" stroke-width=".9163"/>
<path d="m27.0985,1210.7708 2.9e-05,16.2324" fill="none" stroke="#fff" stroke-width=".9163"/>
<path d="m34.1274,1214.8288-14.0577,8.1164" fill="none" stroke="#fff" stroke-width=".9163"/>
</g>
<path d="m28.4926,1219.6509c0,.9281-.7524,1.6805-1.6805,1.6805s-1.6805-.7524-1.6805-1.6805 .7524-1.6805 1.6805-1.6805 1.6805.7523 1.6805,1.6805z" transform="matrix(2.05131,-1.18432,1.18432,2.05131,-1471.90482,-1251.3894)"/>
</g>
</svg>
