<svg viewBox="0 0 512 512" xmlns="http://www.w3.org/2000/svg">

<g transform="matrix(18.68858,0,0,18.68858,-839.37201,-11020.49066)">
<path d="m 46.1915 598.436 4.1854 1.6676 -0.6615 2.1765 -3.5239 -3.8441 z" fill="#fff"/>
<path d="m 49.8125 590.094 -3.7188 0.0312 v 3.0312 l 3.9688 1.7812 -0.25 1.5625 2.4062 2.5 -1.4062 3.4688 9.0312 2.9688 v 0.0312 l -2.2188 0.6562 1.75 4 -2.1562 -2 -1.75 -0.2188 -2.9375 -2.0312 2.0938 3.3125 2.3438 -0.0312 2.8125 2.5625 1.7812 -0.375 9.9688 5.0625 -2.2812 -4.6562 -1.5625 -6.8438 -2.0625 -2 -0.5 -2.5938 -1.8438 -1.75 0.6562 3.9688 3 3.375 -0.5938 2.0938 -0.7576 -2.2027 -1.9001 -0.8163 -1.3931 0.9962 2.8946 1.7415 -4.5 -1.1562 0.9688 -2.0625 -3.3598 -2.5496 -1.2531 -7.7317 -2.5745 -0.8125 0.5312 3.5 1.4991 0.2112 -2.4053 1.899 -1.125 -5.8915 -2.5938 -0.5938 -0.5625 -2.4375 z" fill="#fff"/>
<path d="m 61.3535 595.208 1.2428 4.4526 -3.0465 -2.9206 -0.0066 -1.809 1.8103 0.277 z" fill="#fff"/>
<path d="m 46.0938 594.408 v 2.2161 l 3.3676 -0.7553 -3.3676 -1.4608 z" fill="#fff"/>
<path d="m 56.9428 590.496 0.0505 2.2888 -2.2068 -2.5161 2.1562 0.2273 z" fill="#fff"/>
<path d="m 59.6736 593.001 -0.8015 -2.0604 -0.8015 2.0604 0.3595 1.7953 1.2434 -1.7953 z" fill="#fff"/>
<path d="m 62.5537 600.979 0.2751 2.8606 -3.0187 -2.1757 -0.5091 -3.6423 3.2526 2.9573 z" fill="#fff"/>
<path d="m 53.1421 590.496 2.0614 2.0226 -3.6903 -1.0154 -0.5274 -1.2345 2.1562 0.2273 z" fill="#fff"/>
<path d="m 45.0938 590.3 h 14.6563" fill="none" stroke="#000"/>
<path d="m 48.7327 596.986 1.9615 2.1033 -3.9938 -1.4274 2.0323 -0.6758 z" fill="#fff"/>
<path d="m 64.6355 591.048 -1.1893 2.39 -0.7662 -1.9695 1.9555 -0.4204 z" fill="#fff"/>
<path d="m 65.6822 595.685 -1.6539 0.3259 0.3997 -1.9368 1.2542 1.611 z" fill="#fff"/>
<path d="m 48.2347 602.708 -1.5893 -1.3702 -0.6244 2.1259 2.2137 -0.7558 z" fill="#fff"/>
<path d="m 52.2992 607.373 -0.9391 1.3999 -1.0869 -1.6522 2.026 0.2523 z" fill="#fff"/>
<path d="m 48.6997 603.271 4.5301 0.9088 -3.7302 1.3476 -1.7147 -0.7451 0.9148 -1.5113 z" fill="#fff"/>
<path d="m 48.4063 607.37 -1.9912 -0.0973 1.0506 -1.5182 0.9406 1.6155 z" fill="#fff"/>
<path d="m 52.9888 605.095 2.8063 -0.0663 1.2153 1.8782 -1.286 0.1329 -2.7357 -1.9448 z" fill="#fff" fill-rule="evenodd"/>
</g>
</svg>
