<svg viewBox="0 0 512 512" xmlns="http://www.w3.org/2000/svg">

<g transform="matrix(18.68858,0,0,18.68858,-11123.21056,-7509.46989)">
<path d="m598.2844,405.2374c0,10.1334 2.03,17.6303 10.7397,22.2957 8.5044-4.5554 10.7683-12.1343 10.7683-22.2957-7.0947-2.233-14.3387-2.2361-21.5081,0z" fill-rule="evenodd" stroke="#fff"/>
<path d="m280.4955,810.3641-8.4361,4.8706-8.4361-4.8706v-9.7412l8.4361-4.8706 8.4361,4.8706z" fill="#fff" stroke="#000" stroke-width="1.153" transform="matrix(.86637,0,0,.8683,373.48329,-285.39659)"/>
<g transform="matrix(1.12305,0,0,1.12305,299.13483,-493.57795)">
<path d="m269.3193,808.1452h13.5234" fill="none" stroke="#000" stroke-width=".8904"/>
<path d="m272.7002,802.2894 6.7617,11.7116" fill="none" stroke="#000" stroke-width=".8904"/>
<path d="m279.4619,802.2894-6.7617,11.7116" fill="none" stroke="#000" stroke-width=".8904"/>
</g>
<path d="m279.6608,809.0732c0,1.5377-1.2465,2.7842-2.7842,2.7842s-2.7842-1.2466-2.7842-2.7842 1.2466-2.7842 2.7842-2.7842 2.7842,1.2465 2.7842,2.7842z" stroke="#fff" stroke-width=".8904" transform="matrix(1.12305,0,0,1.12305,298.24144,-494.62022)"/>
</g>
</svg>
