<svg viewBox="0 0 512 512" xmlns="http://www.w3.org/2000/svg">

<g transform="matrix(18.68858,0,0,18.68858,-4643.99789,-10387.11671)">
<path d="m 250.151 572.201 2.9375 -7.5625 3 -1.125 1.8125 1.625 3.1875 -3.0625 3.125 5.3125 1.3125 -5.0625 3 1.125 0.9375 3 3.5 -2.625" fill="none" stroke="#fff"/>
<path d="m 261.213 562.213 -3.25 2.6875 -0.9688 3.125 -1.6562 0.5 0.9062 1.9688 -0.6562 2.0938 -1.375 -3.0625 2 -5.75 -3 1.0625 -3.125 7.25 c 0.9797 3.961 3.0137 9.545 12.5 9.8125 6.7305 0.1898 9.997 -3.4702 11.1875 -7.6875 l -1.625 -4.9375 0.6562 -1.0625 -0.125 -1.3438 0.9688 -1.75 c 0 0 -0.7784 -1.2876 -1.0938 -2.0938 l -3.7188 3 2.1875 8.8125 -0.9062 3.25 -1.9688 -1.3125 0.8125 -3.3125 -2.4375 -1.6875 1.6875 -8.5625 -2.625 -0.625 -1.25 3.25 -5.0415 9.0096 1.9165 -12.6346 z" fill="#fff" fill-rule="evenodd"/>
<path d="m 250.77 574.705 8.0844 0.7197 -1.0697 2.2792 8.3397 2.5191 -10.3762 0.2399 -4.9782 -5.7579 z" fill-rule="evenodd"/>
<path d="m 261.229 581.894 c 3.4079 -0.0005 6.306 -1.0205 8.9584 -2.5319 l -2.9688 -1.7812 -3.2949 2.3727 -2.6947 1.9405 z" fill-rule="evenodd"/>
<path d="m 531.037 404.564 c 0 7.4688 -6.0546 13.5234 -13.5234 13.5234 s -13.5234 -6.0546 -13.5234 -13.5234 6.0546 -13.5234 13.5234 -13.5234 13.5234 6.0546 13.5234 13.5234 z" fill="none" stroke="#fff" stroke-width="1.0479" transform="matrix(.91335,0,0,-.91335,-210.45746,939.08376)"/>
<path d="m 267.688 573.175 0.8125 -3.9375" fill="none" stroke="#fff"/>
</g>
</svg>
