<svg viewBox="0 0 512 512" xmlns="http://www.w3.org/2000/svg">

<g transform="matrix(18.68858,0,0,18.68858,-4643.99789,-10387.11671)">
<path d="m250.1509,572.2006 2.9375-7.5625 3-1.125 1.8125,1.625 3.1875-3.0625 3.125,5.3125 1.3125-5.0625 3,1.125 .9375,3 3.5-2.625" fill="none" stroke="#fff"/>
<path d="m261.2134,562.2134-3.25,2.6875-.9688,3.125-1.6562.5 .9062,1.9688-.6562,2.0938-1.375-3.0625 2-5.75-3,1.0625-3.125,7.25c.9797,3.961 3.0137,9.545 12.5,9.8125 6.7305.1898 9.997-3.4702 11.1875-7.6875l-1.625-4.9375 .6562-1.0625-.125-1.3438 .9688-1.75c0,0-.7784-1.2876-1.0938-2.0938l-3.7188,3 2.1875,8.8125-.9062,3.25-1.9688-1.3125 .8125-3.3125-2.4375-1.6875 1.6875-8.5625-2.625-.625-1.25,3.25-5.0415,9.0096 1.9165-12.6346z" fill="#fff" fill-rule="evenodd"/>
<path d="m250.7704,574.7052 8.0844.7197-1.0697,2.2792 8.3397,2.5191-10.3762.2399-4.9782-5.7579z" fill-rule="evenodd"/>
<path d="m261.2291,581.894c3.4079-.0005 6.306-1.0205 8.9584-2.5319l-2.9688-1.7812-3.2949,2.3727-2.6947,1.9405z" fill-rule="evenodd"/>
<path d="m531.0372,404.564c0,7.4688-6.0546,13.5234-13.5234,13.5234s-13.5234-6.0546-13.5234-13.5234 6.0546-13.5234 13.5234-13.5234 13.5234,6.0546 13.5234,13.5234z" fill="none" stroke="#fff" stroke-width="1.0479" transform="matrix(.91335,0,0,-.91335,-210.45746,939.08376)"/>
<path d="m267.6875,573.1747 .8125-3.9375" fill="none" stroke="#fff"/>
</g>
</svg>
