<svg viewBox="0 0 512 512" xmlns="http://www.w3.org/2000/svg">

<g transform="matrix(18.68858,0,0,18.68858,-9763.02351,-33370.16131)">
<path d="m 525.38 1797 -2.1452 -6.0284 c -0.5633 -2.1374 2.5323 -2.8371 3.0957 -0.8418 l 1.222 3.15 4.5396 -1.5327 2.0335 3.0263 z" fill="#fff"/>
<path d="m 546.339 1797 2.1452 -6.0284 c 0.5633 -2.1374 -2.5323 -2.8371 -3.0957 -0.8418 l -1.222 3.15 -4.5396 -1.5327 -2.0335 3.0263 z" fill="#fff"/>
<path d="m 541.4 1811.7 h -10.9288 c 3.9475 -5.7167 4.4167 -11.4373 0 -17.1605 h 10.9288 c -4.3647 5.7202 -3.4024 11.4404 0 17.1605 z" fill="#fff"/>
<path d="m 29.3565 1146.4 c 0 1.4124 -1.145 2.5574 -2.5574 2.5574 s -2.5574 -1.145 -2.5574 -2.5574 1.145 -2.5573 2.5574 -2.5573 2.5574 1.1449 2.5574 2.5573 z" fill="#fff" stroke="#000" stroke-width=".6683" transform="matrix(-1.30509,0,0,1.71558,570.82443,-176.22853)"/>
<path d="m 536.221 1791.17 1.6508 0.0003" fill="none" stroke="#000"/>
<path d="m 533.811 1791.17 1.6508 0.0003" fill="none" stroke="#000"/>
<path d="m 540.752 1811.69 h 6.2476 c -6.2188 -2.8838 -6.114 -6.5869 -5.8426 -10.3114 -1.075 3.4371 -1.3337 6.8743 -0.4049 10.3114 z" fill="#fff"/>
<path d="m 531.679 1811.69 h -5.4119 c 5.8119 -4.1573 1.8497 -7.183 5.2736 -10.6181 -1.4291 2.3762 1.8567 6.1795 0.1383 10.6181 z" fill="#fff"/>
<path d="m 544.264 1811.69 h 3.9013 c -4.1896 -2.3848 -1.3334 -4.1205 -3.8016 -6.091 1.0302 1.3631 -1.3384 3.5448 -0.0996 6.091 z" fill="#fff"/>
<path d="m 527.68 1811.69 h -3.7181 c 3.701 -1.5912 3.6386 -3.6344 3.4771 -5.6894 0.6398 1.8964 0.7937 3.7929 0.241 5.6894 z" fill="#fff"/>
<path d="m 543.562 1805.77 c -0.4976 -1.2377 -0.3341 -2.4338 0.4567 -3.5999 -2.0156 0.3608 -2.4377 2.8206 -0.4567 3.5999 z" fill="#fff"/>
</g>
</svg>
