<svg viewBox="0 0 512 512" xmlns="http://www.w3.org/2000/svg">

<g transform="matrix(18.68858,0,0,18.68858,-9763.02351,-33370.16131)">
<path d="m525.3803,1796.9986-2.1452-6.0284c-.5633-2.1374 2.5323-2.8371 3.0957-.8418l1.222,3.15 4.5396-1.5327 2.0335,3.0263z" fill="#fff"/>
<path d="m546.3386,1796.9986 2.1452-6.0284c.5633-2.1374-2.5323-2.8371-3.0957-.8418l-1.222,3.15-4.5396-1.5327-2.0335,3.0263z" fill="#fff"/>
<path d="m541.4002,1811.6962h-10.9288c3.9475-5.7167 4.4167-11.4373 0-17.1605h10.9288c-4.3647,5.7202-3.4024,11.4404 0,17.1605z" fill="#fff"/>
<path d="m29.3565,1146.3989c0,1.4124-1.145,2.5574-2.5574,2.5574s-2.5574-1.145-2.5574-2.5574 1.145-2.5573 2.5574-2.5573 2.5574,1.1449 2.5574,2.5573z" fill="#fff" stroke="#000" stroke-width=".6683" transform="matrix(-1.30509,0,0,1.71558,570.82443,-176.22853)"/>
<path d="m536.221,1791.1741 1.6508.0003" fill="none" stroke="#000"/>
<path d="m533.8113,1791.1741 1.6508.0003" fill="none" stroke="#000"/>
<path d="m540.7521,1811.6901h6.2476c-6.2188-2.8838-6.114-6.5869-5.8426-10.3114-1.075,3.4371-1.3337,6.8743-.4049,10.3114z" fill="#fff"/>
<path d="m531.6791,1811.6901h-5.4119c5.8119-4.1573 1.8497-7.183 5.2736-10.6181-1.4291,2.3762 1.8567,6.1795.1383,10.6181z" fill="#fff"/>
<path d="m544.2636,1811.6901h3.9013c-4.1896-2.3848-1.3334-4.1205-3.8016-6.091 1.0302,1.3631-1.3384,3.5448-.0996,6.091z" fill="#fff"/>
<path d="m527.6801,1811.6901h-3.7181c3.701-1.5912 3.6386-3.6344 3.4771-5.6894 .6398,1.8964.7937,3.7929.241,5.6894z" fill="#fff"/>
<path d="m543.5616,1805.767c-.4976-1.2377-.3341-2.4338.4567-3.5999-2.0156.3608-2.4377,2.8206-.4567,3.5999z" fill="#fff"/>
</g>
</svg>
