<svg viewBox="0 0 512 512" xmlns="http://www.w3.org/2000/svg">

<g transform="matrix(18.68858,0,0,18.68858,-2739.48278,-13530.25286)">
<path d="m 147.892 725.421 8.9418 5.0388 0.5312 4.4343 -4.4343 -0.5313 -5.0388 -8.9418 z" fill="#fff"/>
<path d="m 162.331 739.654 -13.9113 -3.9644 7.2894 -2.6576 2.6576 -7.2893 3.9644 13.9114 z" fill="#fff" stroke="#000"/>
<path d="m 167.366 744.689 -15.7904 -4.4837 8.2798 -3.0267 3.0267 -8.2798 4.4838 15.7903 z" fill="#fff" stroke="#000"/>
<path d="m 173.329 750.652 -18.9667 -5.3997 9.9403 -3.6268 3.6268 -9.9403 5.3996 18.9667 z" fill="#fff" stroke="#000"/>
<path d="m 170.393 747.882 -5.6202 -6.6339 -1.0137 1.0137 6.6339 5.6202 z"/>
<path d="m 165.893 743.195 -5.6202 -6.6339 -1.0137 1.0137 6.6339 5.6202 z"/>
<path d="m 161.83 739.132 -5.6202 -6.6339 -1.0137 1.0137 6.6339 5.6202 z"/>
</g>
</svg>
