<svg viewBox="0 0 512 512" xmlns="http://www.w3.org/2000/svg">

<g transform="matrix(18.68858,0,0,18.68858,-2739.48278,-13530.25286)">
<path d="m147.8918,725.4207 8.9418,5.0388 .5312,4.4343-4.4343-.5313-5.0388-8.9418z" fill="#fff"/>
<path d="m162.3307,739.6539-13.9113-3.9644 7.2894-2.6576 2.6576-7.2893 3.9644,13.9114z" fill="#fff" stroke="#000"/>
<path d="m167.3664,744.6895-15.7904-4.4837 8.2798-3.0267 3.0267-8.2798 4.4838,15.7903z" fill="#fff" stroke="#000"/>
<path d="m173.3286,750.6518-18.9667-5.3997 9.9403-3.6268 3.6268-9.9403 5.3996,18.9667z" fill="#fff" stroke="#000"/>
<path d="m170.3925,747.8823-5.6202-6.6339-1.0137,1.0137 6.6339,5.6202z"/>
<path d="m165.8925,743.1948-5.6202-6.6339-1.0137,1.0137 6.6339,5.6202z"/>
<path d="m161.83,739.1323-5.6202-6.6339-1.0137,1.0137 6.6339,5.6202z"/>
</g>
</svg>
