<svg viewBox="0 0 512 512" xmlns="http://www.w3.org/2000/svg">

<g transform="matrix(18.68858,0,0,18.68858,-2271.03649,-34036.44648)">
<path d="m 126.445 1832.66 c 0 4.4769 3.9239 9.9894 8.8473 14.9128 5.2432 -5.2433 8.8813 -10.4896 8.8813 -14.9128 0.1792 -13.5722 -17.8715 -13.6932 -17.7287 0 z" fill="#fff"/>
<g transform="matrix(1.0889,0,0,1.0889,-11.16785,-163.70893)">
<path d="m 139.377 1833.63 c -1.1383 5.638 4.4747 5.7461 5.6348 0 0.438 -2.1688 -0.8508 -9.7402 -0.8508 -9.7402 s -4.3461 7.5717 -4.7839 9.7402 z" fill="#fff"/>
<path d="m 129.66 1833.63 c 1.1383 5.638 -4.4747 5.7461 -5.6348 0 -0.438 -2.1688 0.8508 -9.7402 0.8508 -9.7402 s 4.3461 7.5717 4.7839 9.7402 z" fill="#fff"/>
</g>
<path d="m 129.898 1833.1 1.1582 3.5558 1.2522 -4.1055 1.6648 4.5259 1.4249 -4.5259 1.4496 4.5943 1.6182 -4.411 1.3631 4.5332 1.6558 -4.1668 c 1.0963 2.3156 -0.6428 6.2758 -2.2248 8.2466 l -1.2071 -3.3552 -1.1813 6.3485 -1.2736 -5.4932 -1.4334 5.0655 -1.3142 -5.3099 -1.2077 3.1109 c -2.1924 -2.9454 -2.8402 -5.9941 -1.7448 -8.6132 z"/>
<path d="m 128.729 1828.68 c 1.3615 2.0127 2.8581 2.9949 4.6037 2.0792 -1.1144 -1.769 -2.6258 -2.521 -4.6037 -2.0792 z"/>
<path d="m 141.833 1828.68 c -1.3615 2.0127 -2.8581 2.9949 -4.6037 2.0792 1.1144 -1.769 2.6258 -2.521 4.6037 -2.0792 z"/>
</g>
</svg>
