<svg viewBox="0 0 512 512" xmlns="http://www.w3.org/2000/svg">

<g transform="matrix(18.68858,0,0,18.68858,-2270.06143,-25863.55737)">
<g transform="matrix(-1.14387,-.30638,-.30661,1.14383,720.43613,-156.55568)">
<path d="m 135.094 1388.13 c -0.6277 0.3965 -1.0313 1.0777 -1.0313 1.8749 -2e-05 1.2359 0.9828 2.2499 2.2188 2.2499 s 2.2501 -1.0141 2.2501 -2.2499 c 0 -0.7725 -0.4047 -1.4415 -1 -1.8436 0.1438 0.2744 0.2188 0.5875 0.2188 0.9373 -2e-05 0.9765 -0.6675 1.7813 -1.4688 1.7813 s -1.4376 -0.8048 -1.4376 -1.7812 c 6e-05 -0.3661 0.0936 -0.6865 0.25 -0.9687 z" fill="#fff"/>
<path d="m 136.119 1394.16 c 0 0.9036 -0.7325 1.6361 -1.6362 1.6361 s -1.6362 -0.7325 -1.6362 -1.6361 0.7325 -1.6362 1.6362 -1.6362 1.6362 0.7325 1.6362 1.6362 z" fill="#fff" transform="matrix(1.0038,-1.3642872e-5,-1.3626984e-5,1.0037,.9374,-7.47573)"/>
</g>
<path d="m 137.57 1396.76 c 0 1.115 -0.9039 2.0188 -2.0188 2.0188 s -2.0188 -0.9038 -2.0188 -2.0188 c 0 -1.1149 0.9039 -2.0188 2.0188 -2.0188 s 2.0188 0.9039 2.0188 2.0188 z" fill="#fff" transform="matrix(-1.4879,-.39859,-.39869,1.4876,893.55818,-625.0623)"/>
<path d="m 134.045 1400.61 c -0.2048 4.1364 -3.6952 2.7833 -5.9683 4.6382 -3.1389 2.5614 1.629 6.7663 3.9326 2.9927" fill="none" stroke="#fff"/>
<path d="m 133.228 1410.28 c -1.0605 -1.2854 -2.3196 -1.9749 -3.7982 -2.0091 1.6135 -0.9579 2.7214 -2.2055 3.5507 -3.6129 0.5091 1.9602 0.5399 3.8237 0.2475 5.622 z" fill="#fff"/>
<path d="m 135.718 1405.04 c 3.1841 -0.9856 1.7163 -2.5784 0.6586 -4.1177" fill="none" stroke="#fff"/>
<path d="m 130.478 1401.43 c -1.5585 -2.4765 0.9861 -4.3479 3.4084 -2.0711" fill="none" stroke="#fff"/>
<path d="m 131.659 1402.29 -1.4691 -2.2302 -2.9571 2.8295 z" fill="#fff"/>
<path d="m 133.997 1405.03 2.3523 -0.7736 0.5847 3.6753 z" fill="#fff"/>
<path d="m 131.562 1385.12 c -4.2069 0.1177 -8.4234 2.9954 -8.875 7.7188 1.9413 -3.0789 5.9512 -2.1196 5.2185 1.7317 1.8905 -2.6828 5.9627 -0.242 4.8046 2.1361 2.5519 -2.2394 4.3657 0.4677 5.0375 3.4046 1.6381 -2.2414 4.5458 -0.248 3.4705 2.8526 2.7002 -2.8427 4.8838 -0.413 4.2188 2.3124 3.1568 -5.4856 3.6167 -13.3812 -1.6562 -16.7187 0.4403 7.8879 -5.3589 8.32 -8.4062 5.1563 -2.0135 -2.0904 -1.6773 -5.2738 1.5625 -6.9376 -1.5586 -1.172 -3.4628 -1.7097 -5.375 -1.6562 z" fill="#fff" fill-rule="evenodd"/>
</g>
</svg>
