<svg viewBox="0 0 512 512" xmlns="http://www.w3.org/2000/svg">

<g transform="matrix(18.68858,0,0,18.68858,-2270.06143,-25863.55737)">
<g transform="matrix(-1.14387,-.30638,-.30661,1.14383,720.43613,-156.55568)">
<path d="m135.0938,1388.1338c-.6277.3965-1.0313,1.0777-1.0313,1.8749-2e-05,1.2359.9828,2.2499 2.2188,2.2499s2.2501-1.0141 2.2501-2.2499c0-.7725-.4047-1.4415-1-1.8436 .1438.2744.2188.5875.2188.9373-2e-05,.9765-.6675,1.7813-1.4688,1.7813s-1.4376-.8048-1.4376-1.7812c6e-05-.3661.0936-.6865.25-.9687z" fill="#fff"/>
<path d="m136.1186,1394.163c0,.9036-.7325,1.6361-1.6362,1.6361s-1.6362-.7325-1.6362-1.6361 .7325-1.6362 1.6362-1.6362 1.6362.7325 1.6362,1.6362z" fill="#fff" transform="matrix(1.0038,-1.3642872e-5,-1.3626984e-5,1.0037,.9374,-7.47573)"/>
</g>
<path d="m137.5701,1396.7623c0,1.115-.9039,2.0188-2.0188,2.0188s-2.0188-.9038-2.0188-2.0188c0-1.1149.9039-2.0188 2.0188-2.0188s2.0188.9039 2.0188,2.0188z" fill="#fff" transform="matrix(-1.4879,-.39859,-.39869,1.4876,893.55818,-625.0623)"/>
<path d="m134.0446,1400.607c-.2048,4.1364-3.6952,2.7833-5.9683,4.6382-3.1389,2.5614 1.629,6.7663 3.9326,2.9927" fill="none" stroke="#fff"/>
<path d="m133.2283,1410.2822c-1.0605-1.2854-2.3196-1.9749-3.7982-2.0091 1.6135-.9579 2.7214-2.2055 3.5507-3.6129 .5091,1.9602.5399,3.8237.2475,5.622z" fill="#fff"/>
<path d="m135.7184,1405.0429c3.1841-.9856 1.7163-2.5784.6586-4.1177" fill="none" stroke="#fff"/>
<path d="m130.4784,1401.4326c-1.5585-2.4765.9861-4.3479 3.4084-2.0711" fill="none" stroke="#fff"/>
<path d="m131.6593,1402.2923-1.4691-2.2302-2.9571,2.8295z" fill="#fff"/>
<path d="m133.9966,1405.0254 2.3523-.7736 .5847,3.6753z" fill="#fff"/>
<path d="m131.5625,1385.125c-4.2069.1177-8.4234,2.9954-8.875,7.7188 1.9413-3.0789 5.9512-2.1196 5.2185,1.7317 1.8905-2.6828 5.9627-.242 4.8046,2.1361 2.5519-2.2394 4.3657.4677 5.0375,3.4046 1.6381-2.2414 4.5458-.248 3.4705,2.8526 2.7002-2.8427 4.8838-.413 4.2188,2.3124 3.1568-5.4856 3.6167-13.3812-1.6562-16.7187 .4403,7.8879-5.3589,8.32-8.4062,5.1563-2.0135-2.0904-1.6773-5.2738 1.5625-6.9376-1.5586-1.172-3.4628-1.7097-5.375-1.6562z" fill="#fff" fill-rule="evenodd"/>
</g>
</svg>
