<svg viewBox="0 0 512 512" xmlns="http://www.w3.org/2000/svg">

<g transform="matrix(18.68858,0,0,18.68858,-3633.69444,-18614.88146)">
<path d="m 104.312 377.456 c 0 1.5706 -5.0928 2.8438 -11.375 2.8438 s -11.375 -1.2732 -11.375 -2.8438 5.0928 -2.8438 11.375 -2.8438 11.375 1.2732 11.375 2.8438 z" fill="#fff" stroke="#000" stroke-width=".7718" transform="matrix(1.15857,0,0,1.44912,100.40588,471.79698)"/>
<path d="m 104.312 377.456 c 0 1.5706 -5.0928 2.8438 -11.375 2.8438 s -11.375 -1.2732 -11.375 -2.8438 5.0928 -2.8438 11.375 -2.8438 11.375 1.2732 11.375 2.8438 z" transform="matrix(.85807,0,0,1.09246,128.334,605.40372)"/>
<path d="m 104.312 377.456 c 0 1.5706 -5.0928 2.8438 -11.375 2.8438 s -11.375 -1.2732 -11.375 -2.8438 5.0928 -2.8438 11.375 -2.8438 11.375 1.2732 11.375 2.8438 z" fill="#fff" stroke="#000" stroke-width="1.2771" transform="matrix(.70013,0,0,.87571,143.01222,687.30739)"/>
<path d="m 104.312 377.456 c 0 1.5706 -5.0928 2.8438 -11.375 2.8438 s -11.375 -1.2732 -11.375 -2.8438 5.0928 -2.8438 11.375 -2.8438 11.375 1.2732 11.375 2.8438 z" transform="matrix(.48128,0,0,.61274,163.35192,785.95104)"/>
<path d="m 210.89 1005.7 c -2.1766 3.5009 -2.6298 7.3852 -2.9162 12.6015 -0.2333 -5.2169 -0.77 -9.1495 -2.9162 -12.6015" fill-rule="evenodd"/>
<path d="m 199.656 996.656 c 2.6411 3.4747 4.1111 7.2937 5.2188 11.9375 h -4 l 7.0625 8.8437 7 -8.8437 h -3.7188 c 1.1077 -4.644 2.5776 -8.4628 5.2188 -11.9375 h -16.7812 z" fill="#fff"/>
<path d="m 214.204 1008.93 -6.2269 7.617 -6.2269 -7.617 h 12.4538 z" stroke="#fff"/>
<path d="m 212.369 996.35 c -3.2515 5.2298 -3.381 10.8956 -4.3563 18.8247 -0.8048 -7.8845 -1.1503 -13.6679 -4.3563 -18.8247" fill-rule="evenodd"/>
</g>
</svg>
