<svg viewBox="0 0 512 512" xmlns="http://www.w3.org/2000/svg">

<g transform="matrix(18.68858,0,0,18.68858,-4021.86613,-12276.32817)">
<path d="m215.6875,657.4872h26.375v26.375h-26.375z" fill="#fff" stroke="#000"/>
<path d="m215.9741,657.7812v.1825l11.7131,11.7131-11.7131-7.8797v5.5371l11.4089,3.0728-11.4089-.791v4.594l11.348-3.012-11.348,5.5371v6.7541h.1825l11.6218-11.5914-7.758,11.5914h5.5067l3.0424-11.3481-.791,11.3481h4.594l-3.0119-11.4089 5.5675,11.4089h6.7541v-.1521l-11.7131-11.7131 11.7131,7.8797v-5.5371l-11.3785-3.0728 11.3785.791v-4.594l-11.4393,3.0424 11.4393-5.6284v-6.7236h-.1825l-11.7131,11.7131 7.8797-11.7131h-5.5371l-3.0424,11.2264 .7606-11.2264h-4.594l3.0728,11.5002-5.6284-11.5002h-6.7236z"/>
<path d="m224.9063,667.2059c0,1.0355-.8395,1.875-1.875,1.875s-1.875-.8395-1.875-1.875 .8395-1.875 1.875-1.875 1.875.8395 1.875,1.875z" fill="#fff" transform="matrix(1.4,0,0,1.4,-86.775,-272.03862)"/>
<path d="m224.9063,667.2059c0,1.0355-.8395,1.875-1.875,1.875s-1.875-.8395-1.875-1.875 .8395-1.875 1.875-1.875 1.875.8395 1.875,1.875z" fill="#fff" transform="matrix(.95,0,0,.95,26.93282,27.82905)"/>
<path d="m224.9063,667.2059c0,1.0355-.8395,1.875-1.875,1.875s-1.875-.8395-1.875-1.875 .8395-1.875 1.875-1.875 1.875.8395 1.875,1.875z" fill="#fff" transform="matrix(.95,0,0,.95,22.74532,46.82905)"/>
<path d="m224.9063,667.2059c0,1.0355-.8395,1.875-1.875,1.875s-1.875-.8395-1.875-1.875 .8395-1.875 1.875-1.875 1.875.8395 1.875,1.875z" fill="#fff" transform="matrix(1.51667,0,0,1.51667,-116.76407,-332.75431)"/>
<path d="m224.9063,667.2059c0,1.0355-.8395,1.875-1.875,1.875s-1.875-.8395-1.875-1.875 .8395-1.875 1.875-1.875 1.875.8395 1.875,1.875z" fill="#fff" transform="matrix(1.05,0,0,1.05,-8.87031,-22.39154)"/>
<path d="m224.9063,667.2059c0,1.0355-.8395,1.875-1.875,1.875s-1.875-.8395-1.875-1.875 .8395-1.875 1.875-1.875 1.875.8395 1.875,1.875z" fill="#fff" transform="matrix(.95,0,0,.95,8.05783,33.89159)"/>
<path d="m232.5,671.8934c0,1.6914-1.3711,3.0625-3.0625,3.0625s-3.0625-1.3711-3.0625-3.0625 1.3711-3.0625 3.0625-3.0625 3.0625,1.3711 3.0625,3.0625z" fill="#fff" stroke="#000" stroke-width=".6426" transform="matrix(1.55612,0,0,1.55612,-127.68956,-374.67065)"/>
<path d="m224.9063,667.2059c0,1.0355-.8395,1.875-1.875,1.875s-1.875-.8395-1.875-1.875 .8395-1.875 1.875-1.875 1.875.8395 1.875,1.875z" fill="#fff" transform="matrix(.89428,0,0,.89428,32.71441,69.98598)"/>
<path d="m224.9063,667.2059c0,1.0355-.8395,1.875-1.875,1.875s-1.875-.8395-1.875-1.875 .8395-1.875 1.875-1.875 1.875.8395 1.875,1.875z" fill="#fff" transform="matrix(.8,0,0,.8,60.95002,136.78498)"/>
</g>
</svg>
