<svg viewBox="0 0 512 512" xmlns="http://www.w3.org/2000/svg">

<g transform="matrix(18.68858,0,0,18.68858,-4021.86613,-12276.32817)">
<path d="m 215.688 657.487 h 26.375 v 26.375 h -26.375 z" fill="#fff" stroke="#000"/>
<path d="m 215.974 657.781 v 0.1825 l 11.7131 11.7131 -11.7131 -7.8797 v 5.5371 l 11.4089 3.0728 -11.4089 -0.791 v 4.594 l 11.348 -3.012 -11.348 5.5371 v 6.7541 h 0.1825 l 11.6218 -11.5914 -7.758 11.5914 h 5.5067 l 3.0424 -11.3481 -0.791 11.3481 h 4.594 l -3.0119 -11.4089 5.5675 11.4089 h 6.7541 v -0.1521 l -11.7131 -11.7131 11.7131 7.8797 v -5.5371 l -11.3785 -3.0728 11.3785 0.791 v -4.594 l -11.4393 3.0424 11.4393 -5.6284 v -6.7236 h -0.1825 l -11.7131 11.7131 7.8797 -11.7131 h -5.5371 l -3.0424 11.2264 0.7606 -11.2264 h -4.594 l 3.0728 11.5002 -5.6284 -11.5002 h -6.7236 z"/>
<path d="m 224.906 667.206 c 0 1.0355 -0.8395 1.875 -1.875 1.875 s -1.875 -0.8395 -1.875 -1.875 0.8395 -1.875 1.875 -1.875 1.875 0.8395 1.875 1.875 z" fill="#fff" transform="matrix(1.4,0,0,1.4,-86.775,-272.03862)"/>
<path d="m 224.906 667.206 c 0 1.0355 -0.8395 1.875 -1.875 1.875 s -1.875 -0.8395 -1.875 -1.875 0.8395 -1.875 1.875 -1.875 1.875 0.8395 1.875 1.875 z" fill="#fff" transform="matrix(.95,0,0,.95,26.93282,27.82905)"/>
<path d="m 224.906 667.206 c 0 1.0355 -0.8395 1.875 -1.875 1.875 s -1.875 -0.8395 -1.875 -1.875 0.8395 -1.875 1.875 -1.875 1.875 0.8395 1.875 1.875 z" fill="#fff" transform="matrix(.95,0,0,.95,22.74532,46.82905)"/>
<path d="m 224.906 667.206 c 0 1.0355 -0.8395 1.875 -1.875 1.875 s -1.875 -0.8395 -1.875 -1.875 0.8395 -1.875 1.875 -1.875 1.875 0.8395 1.875 1.875 z" fill="#fff" transform="matrix(1.51667,0,0,1.51667,-116.76407,-332.75431)"/>
<path d="m 224.906 667.206 c 0 1.0355 -0.8395 1.875 -1.875 1.875 s -1.875 -0.8395 -1.875 -1.875 0.8395 -1.875 1.875 -1.875 1.875 0.8395 1.875 1.875 z" fill="#fff" transform="matrix(1.05,0,0,1.05,-8.87031,-22.39154)"/>
<path d="m 224.906 667.206 c 0 1.0355 -0.8395 1.875 -1.875 1.875 s -1.875 -0.8395 -1.875 -1.875 0.8395 -1.875 1.875 -1.875 1.875 0.8395 1.875 1.875 z" fill="#fff" transform="matrix(.95,0,0,.95,8.05783,33.89159)"/>
<path d="m 232.5 671.893 c 0 1.6914 -1.3711 3.0625 -3.0625 3.0625 s -3.0625 -1.3711 -3.0625 -3.0625 1.3711 -3.0625 3.0625 -3.0625 3.0625 1.3711 3.0625 3.0625 z" fill="#fff" stroke="#000" stroke-width=".6426" transform="matrix(1.55612,0,0,1.55612,-127.68956,-374.67065)"/>
<path d="m 224.906 667.206 c 0 1.0355 -0.8395 1.875 -1.875 1.875 s -1.875 -0.8395 -1.875 -1.875 0.8395 -1.875 1.875 -1.875 1.875 0.8395 1.875 1.875 z" fill="#fff" transform="matrix(.89428,0,0,.89428,32.71441,69.98598)"/>
<path d="m 224.906 667.206 c 0 1.0355 -0.8395 1.875 -1.875 1.875 s -1.875 -0.8395 -1.875 -1.875 0.8395 -1.875 1.875 -1.875 1.875 0.8395 1.875 1.875 z" fill="#fff" transform="matrix(.8,0,0,.8,60.95002,136.78498)"/>
</g>
</svg>
