<svg viewBox="0 0 512 512" xmlns="http://www.w3.org/2000/svg">

<g transform="matrix(18.68858,0,0,18.68858,-228.51348,-21126.0528)">
<path d="m15.3926,1144.125-2.4688,6.9375c-.6483,2.4598 2.9142,3.265 3.5625.9688l1.4062-3.625 2.9375.8125 1.5,8.0937h3.1267v-10.625l-10.0642-2.5625z" fill="#fff" stroke="#000"/>
<path d="m36.5489,1144.125 2.4688,6.9375c.6483,2.4598-2.9142,3.265-3.5625.9688l-1.4062-3.625-2.9375.8125-1.5,8.0937h-3.1267v-10.625l10.0642-2.5625z" fill="#fff" stroke="#000"/>
<path d="m23.5758,1148.2903h4.7951v8.5246h-4.7951z" fill="#fff"/>
<g transform="matrix(1,0,0,1.094,18.11472,-106.46927)">
<path d="m16.836,1131.481v12.627" fill="none" stroke="#fff" stroke-width=".9561"/>
<path d="m17.9016,1133.8518c0,.6915-.5606,1.2521-1.252,1.2521s-1.252-.5606-1.252-1.2521 .5606-1.252 1.252-1.252 1.252.5605 1.252,1.252z" stroke="#fff" stroke-width="1.1825" transform="matrix(.80851,0,0,.80851,3.37469,216.8808)"/>
<path d="m17.9016,1133.8518c0,.6915-.5606,1.2521-1.252,1.2521s-1.252-.5606-1.252-1.2521 .5606-1.252 1.252-1.252 1.252.5605 1.252,1.252z" stroke="#fff" stroke-width="1.1825" transform="matrix(.80851,0,0,.80851,3.37469,220.79678)"/>
<path d="m17.9016,1133.8518c0,.6915-.5606,1.2521-1.252,1.2521s-1.252-.5606-1.252-1.2521 .5606-1.252 1.252-1.252 1.252.5605 1.252,1.252z" stroke="#fff" stroke-width="1.1825" transform="matrix(.80851,0,0,.80851,3.37469,224.76604)"/>
</g>
<g transform="matrix(1,0,0,1.094,.22604,-106.46927)">
<path d="m16.836,1131.481v12.627" fill="none" stroke="#fff" stroke-width=".9561"/>
<path d="m17.9016,1133.8518c0,.6915-.5606,1.2521-1.252,1.2521s-1.252-.5606-1.252-1.2521 .5606-1.252 1.252-1.252 1.252.5605 1.252,1.252z" stroke="#fff" stroke-width="1.1825" transform="matrix(.80851,0,0,.80851,3.37469,216.8808)"/>
<path d="m17.9016,1133.8518c0,.6915-.5606,1.2521-1.252,1.2521s-1.252-.5606-1.252-1.2521 .5606-1.252 1.252-1.252 1.252.5605 1.252,1.252z" stroke="#fff" stroke-width="1.1825" transform="matrix(.80851,0,0,.80851,3.37469,220.79678)"/>
<path d="m17.9016,1133.8518c0,.6915-.5606,1.2521-1.252,1.2521s-1.252-.5606-1.252-1.2521 .5606-1.252 1.252-1.252 1.252.5605 1.252,1.252z" stroke="#fff" stroke-width="1.1825" transform="matrix(.80851,0,0,.80851,3.37469,224.76604)"/>
</g>
<path d="m29.3565,1146.3989c0,1.4124-1.145,2.5574-2.5574,2.5574s-2.5574-1.145-2.5574-2.5574 1.145-2.5573 2.5574-2.5573 2.5574,1.1449 2.5574,2.5573z" fill="#fff" stroke="#000" stroke-width=".7273" transform="matrix(1.375,0,0,1.375,-10.84886,-429.26025)"/>
<path d="m24.7888,1148.4768v1.5717" fill="none" stroke="#000"/>
<path d="m27.2396,1148.4768v1.5717" fill="none" stroke="#000"/>
</g>
</svg>
