<svg viewBox="0 0 512 512" xmlns="http://www.w3.org/2000/svg">

<g transform="matrix(18.68858,0,0,18.68858,-7717.86922,-17933.66596)">
<path d="m 434.959 982.689 c -2.4304 3.2891 -7.0722 3.986 -10.3613 1.5556 s -3.986 -7.0723 -1.5556 -10.3613 c -1.1223 5.6522 3.111 8.8102 7.0521 8.005 3.0027 -0.6135 5.5111 -4.8079 5.2995 -7.3486 1.4513 2.4809 1.3807 5.6924 -0.4346 8.1492 z" fill="#fff"/>
<path d="m 418.858 971.376 c 3.8989 0.842 5.5282 -5.7077 8.8245 -3.5804 1.7991 1.1611 1.3408 3.084 -0.2325 3.7868 0.7051 -1.3361 -0.2346 -2.4272 -1.2351 -2.2543 -2.8079 0.4852 -4.3336 5.0196 -7.3569 2.048 z" fill="#fff" fill-rule="evenodd"/>
<path d="m 430.942 973.666 c 0.3397 -0.6821 0.4157 -1.5064 0.3228 -2.3712 -0.252 -2.3445 -2.1806 -4.3794 -4.5935 -5.1183 0.4082 -0.0581 0.7889 -0.1207 1.2421 -0.0882 2.7723 0.1989 5.2347 2.1268 5.4676 4.2942 0.1654 1.539 -0.8578 2.7583 -2.4389 3.2835 z" fill="#fff"/>
<path d="m 425.328 972.591 c 0.4796 0.2476 1.0291 0.3459 1.5901 0.3454 1.5207 -0.001 2.6867 -1.0296 2.9558 -2.4314 0.075 0.2488 0.1505 0.4815 0.1699 0.7515 0.1187 1.6521 -0.9286 3.0077 -2.3345 3.0091 -0.9983 0.001 -1.8931 -0.6915 -2.3813 -1.6746 z" fill="#fff"/>
<path d="m 422.402 968.748 c -2.8295 0.5238 -7.2073 -0.7428 -7.1027 -4.3619 -1.8593 3.7226 3.0514 7.6665 7.1027 4.3619 z" fill="#fff" fill-rule="evenodd"/>
<path d="m 429.812 965.264 c -4.6401 -2.3403 -8.6655 4.7566 -12.1605 1.122 -1.9076 -1.9838 -0.7508 -4.0744 1.4366 -4.3497 -1.2891 1.3182 -0.4393 2.9214 0.869 3.0668 3.6716 0.4083 6.9578 -4.3667 9.8548 0.1608 z" fill="#fff" fill-rule="evenodd"/>
<path d="m 430.801 964.154 c -0.379 -0.5299 -0.9497 -0.9784 -1.607 -1.3499 -1.7817 -1.0071 -3.9054 -0.9005 -5.2548 0.1206 0.0958 -0.2627 0.179 -0.5118 0.3556 -0.7558 1.0799 -1.4925 3.3064 -1.9579 4.9535 -1.0269 1.1695 0.6611 1.7064 1.847 1.5528 3.0119 z" fill="#fff"/>
<path d="m 434.298 972.058 c -1.5558 3.5841 -6.2181 4.2052 -9.592 2.4991 0.8987 3.3375 4.5116 4.0066 7.075 2.5681 -0.3624 1.2345 -1.2646 2.5739 -2.9278 3.6225 3.8599 -0.7064 6.0433 -5.0207 5.4449 -8.6898 z" fill="#fff"/>
<path d="m 423.062 973.594 c 0.3302 2.8586 2.8265 6.6715 6.2553 5.5086 -3.0125 2.8706 -8.2246 -0.6655 -6.2553 -5.5086 z" fill="#fff" fill-rule="evenodd"/>
</g>
</svg>
