<svg viewBox="0 0 512 512" xmlns="http://www.w3.org/2000/svg">

<g transform="matrix(18.68858,0,0,18.68858,-7717.86922,-17933.66596)">
<path d="m434.9592,982.6893c-2.4304,3.2891-7.0722,3.986-10.3613,1.5556s-3.986-7.0723-1.5556-10.3613c-1.1223,5.6522 3.111,8.8102 7.0521,8.005 3.0027-.6135 5.5111-4.8079 5.2995-7.3486 1.4513,2.4809 1.3807,5.6924-.4346,8.1492z" fill="#fff"/>
<path d="m418.8584,971.3765c3.8989.842 5.5282-5.7077 8.8245-3.5804 1.7991,1.1611 1.3408,3.084-.2325,3.7868 .7051-1.3361-.2346-2.4272-1.2351-2.2543-2.8079.4852-4.3336,5.0196-7.3569,2.048z" fill="#fff" fill-rule="evenodd"/>
<path d="m430.9423,973.6659c.3397-.6821.4157-1.5064.3228-2.3712-.252-2.3445-2.1806-4.3794-4.5935-5.1183 .4082-.0581.7889-.1207 1.2421-.0882 2.7723.1989 5.2347,2.1268 5.4676,4.2942 .1654,1.539-.8578,2.7583-2.4389,3.2835z" fill="#fff"/>
<path d="m425.3282,972.5915c.4796.2476 1.0291.3459 1.5901.3454 1.5207-.001 2.6867-1.0296 2.9558-2.4314 .075.2488.1505.4815.1699.7515 .1187,1.6521-.9286,3.0077-2.3345,3.0091-.9983.001-1.8931-.6915-2.3813-1.6746z" fill="#fff"/>
<path d="m422.4025,968.7477c-2.8295.5238-7.2073-.7428-7.1027-4.3619-1.8593,3.7226 3.0514,7.6665 7.1027,4.3619z" fill="#fff" fill-rule="evenodd"/>
<path d="m429.8125,965.2641c-4.6401-2.3403-8.6655,4.7566-12.1605,1.122-1.9076-1.9838-.7508-4.0744 1.4366-4.3497-1.2891,1.3182-.4393,2.9214.869,3.0668 3.6716.4083 6.9578-4.3667 9.8548.1608z" fill="#fff" fill-rule="evenodd"/>
<path d="m430.8008,964.1535c-.379-.5299-.9497-.9784-1.607-1.3499-1.7817-1.0071-3.9054-.9005-5.2548.1206 .0958-.2627.179-.5118.3556-.7558 1.0799-1.4925 3.3064-1.9579 4.9535-1.0269 1.1695.6611 1.7064,1.847 1.5528,3.0119z" fill="#fff"/>
<path d="m434.2983,972.0578c-1.5558,3.5841-6.2181,4.2052-9.592,2.4991 .8987,3.3375 4.5116,4.0066 7.075,2.5681-.3624,1.2345-1.2646,2.5739-2.9278,3.6225 3.8599-.7064 6.0433-5.0207 5.4449-8.6898z" fill="#fff"/>
<path d="m423.0622,973.5942c.3302,2.8586 2.8265,6.6715 6.2553,5.5086-3.0125,2.8706-8.2246-.6655-6.2553-5.5086z" fill="#fff" fill-rule="evenodd"/>
</g>
</svg>
