<svg viewBox="0 0 512 512" xmlns="http://www.w3.org/2000/svg">

<g transform="matrix(18.68858,0,0,18.68858,-13169.72142,-42865.8981)">
<path d="m 705.719 2310.31 c -0.006 0.049 -0.0253 0.087 -0.0312 0.1368 0.1987 8.3521 5.0236 13.3952 5.5312 0.3284 -2.3429 -0.1157 -4.3308 -0.2667 -5.5 -0.4652 z m 25.5312 0 c -1.1499 0.2612 -3.1456 0.4417 -5.5312 0.5472 0.5263 12.9576 5.3643 7.9231 5.5625 -0.4104 -0.006 -0.05 -0.0252 -0.088 -0.0312 -0.1368 z m -18.9688 0.5198 c 0.0819 9.9047 5.6086 15.0133 5.75 0.1369 -2.0066 -0.017 -3.9332 -0.061 -5.75 -0.1369 z m 12.25 0.055 c -1.6917 0.056 -3.4818 0.086 -5.3438 0.082 0.132 14.848 5.2524 9.7853 5.3438 -0.082 z" fill="#fff"/>
<path d="m 705.719 2304.97 c -0.006 -0.05 -0.0253 -0.09 -0.0312 -0.1406 0.1987 -8.5803 5.0236 -13.7612 5.5312 -0.3373 -2.3429 0.1188 -4.3308 0.2739 -5.5 0.4779 z m 25.5312 0 c -1.1499 -0.2684 -3.1456 -0.4538 -5.5312 -0.5622 0.5263 -13.3116 5.3643 -8.1396 5.5625 0.4216 -0.006 0.051 -0.0252 0.09 -0.0312 0.1406 z m -18.9688 -0.5341 c 0.0819 -10.1753 5.6086 -15.4235 5.75 -0.1406 -2.0066 0.017 -3.9332 0.063 -5.75 0.1406 z m 12.25 -0.057 c -1.6917 -0.058 -3.4818 -0.088 -5.3438 -0.085 0.132 -15.2537 5.2524 -10.0527 5.3438 0.085 z" fill="#fff"/>
</g>
</svg>
