<svg viewBox="0 0 512 512" xmlns="http://www.w3.org/2000/svg">

<g transform="matrix(18.68858,0,0,18.68858,-13169.72142,-42865.8981)">
<path d="m705.7188,2310.3108c-.006.049-.0253.087-.0312.1368 .1987,8.3521 5.0236,13.3952 5.5312.3284-2.3429-.1157-4.3308-.2667-5.5-.4652zm25.5312,0c-1.1499.2612-3.1456.4417-5.5312.5472 .5263,12.9576 5.3643,7.9231 5.5625-.4104-.006-.05-.0252-.088-.0312-.1368zm-18.9688.5198c.0819,9.9047 5.6086,15.0133 5.75.1369-2.0066-.017-3.9332-.061-5.75-.1369zm12.25.055c-1.6917.056-3.4818.086-5.3438.082 .132,14.848 5.2524,9.7853 5.3438-.082z" fill="#fff"/>
<path d="m705.7188,2304.9659c-.006-.05-.0253-.09-.0312-.1406 .1987-8.5803 5.0236-13.7612 5.5312-.3373-2.3429.1188-4.3308.2739-5.5.4779zm25.5312,0c-1.1499-.2684-3.1456-.4538-5.5312-.5622 .5263-13.3116 5.3643-8.1396 5.5625.4216-.006.051-.0252.09-.0312.1406zm-18.9688-.5341c.0819-10.1753 5.6086-15.4235 5.75-.1406-2.0066.017-3.9332.063-5.75.1406zm12.25-.057c-1.6917-.058-3.4818-.088-5.3438-.085 .132-15.2537 5.2524-10.0527 5.3438.085z" fill="#fff"/>
</g>
</svg>
