<svg viewBox="0 0 512 512" xmlns="http://www.w3.org/2000/svg">

<g transform="matrix(18.68858,0,0,18.68858,-9078.47261,-19083.59155)">
<path d="m 494.507 1027.58 -0.4668 1.7372 c -2.1394 -0.2462 -3.0436 0.5401 -3.6232 2.2607 -0.8352 2.4794 -2.5095 2.9504 -3.4683 1.4244 1.5049 0.3559 1.5706 -0.8673 1.9805 -2.2647 0.8041 -2.7414 2.9273 -3.2142 5.5777 -3.1576 z" fill="#fff" fill-rule="evenodd"/>
<path d="m 489.123 1035.73 c -1.055 1.0548 -1.055 2.7675 8e-05 3.8224 1.055 1.0551 2.7676 1.0552 3.8226 0 1.0551 -1.055 1.0551 -2.7676 2e-05 -3.8226 s -2.7676 -1.055 -3.8227 0.0002 z" fill="#fff" stroke="#000"/>
<path d="m 494.723 1037.62 c -4.0407 0.1863 -6.9956 6.1174 -3.2229 8.9968 1.6958 1.2944 4.1486 1.1676 5.3487 0.2894 1.0656 -0.7798 1.3469 -2.4398 0.3654 -3.691 0.2365 0.8596 -0.2472 2.2369 -0.9903 2.6402 -0.8673 0.4708 -2.0479 0.3994 -3.0292 -0.6765 -2.1506 -2.3579 0.1991 -3.9421 3.0391 -4.9108 l -1.5107 -2.6481 z" fill="#fff" fill-rule="evenodd"/>
<path d="m 499.538 1039.56 c -2.2828 6.3845 -9.2776 2.7306 -6.2819 -3.3027" fill="#fff" fill-rule="evenodd" stroke="#000"/>
<path d="m 506.501 1030.42 0.9958 1.322 c 2.2396 -1.3386 3.4804 -0.3642 4.6871 1.7635 -0.2978 -3.6951 -2.7698 -5.2039 -5.6829 -3.0855 z" fill="#fff" fill-rule="evenodd"/>
<path d="m 502.976 1029.1 -2.3379 -0.7257 c 0.6075 -1.3058 0.6285 -3.0102 -0.1107 -3.9152 -1.0199 -1.2485 -2.942 -1.6285 -4.5472 -1.6694 4.8446 -1.9568 9.5336 2.5427 6.9958 6.3103 z" fill="#fff" fill-rule="evenodd"/>
<path d="m 505.869 1035.35 c 4.4822 -6.9337 -4.4076 -9.0078 -5.2682 -5.7149" fill="#fff" fill-rule="evenodd" stroke="#000"/>
<path d="m 501.013 1033.43 c 1.6496 -1.649 1.6498 -4.3252 0.0006 -5.9738 s -5.172 -2.4939 -6.8215 -0.8448 -0.3288 4.6952 1.3205 6.3438 3.8507 2.1239 5.5004 0.4748 z" fill="#fff" stroke="#000"/>
<path d="m 507.454 1034.62 -0.9796 2.4609 c 2.4497 0.9338 3.0665 1.6667 2.5099 3.5095 -0.8881 2.9408 1.0489 4.4737 2.9198 3.4849 -1.7394 -0.5217 -1.5038 -1.451 -1.1002 -3.1127 0.7919 -3.2599 -0.6215 -4.8441 -3.3499 -6.3426 z" fill="#fff" fill-rule="evenodd"/>
<path d="m 505.519 1032.39 c -0.5269 0.912 -0.214 2.0798 0.6984 2.6062 s 2.0805 0.2136 2.6073 -0.6986 0.214 -2.0799 -0.6984 -2.6064 -2.0804 -0.2134 -2.6073 0.6988 z" fill="#fff" stroke="#000"/>
<path d="m 502.178 1039.63 1.2472 1.0399 c -1.402 2.1189 -0.2887 4.7668 1.9223 5.9384 -4.3163 -0.2089 -5.5727 -4.4648 -3.1695 -6.9783 z" fill="#fff" fill-rule="evenodd"/>
<path d="m 504.378 1041.65 c 2.3529 -0.6304 3.4365 -4.2243 2.8062 -6.5764 s -3.0512 -3.749 -5.4039 -3.1184 -4.0708 3.0819 -3.4407 5.4338 3.6855 4.8916 6.0384 4.261 z" fill="#fff" stroke="#000"/>
<path d="m 497.878 1039.04 c -0.0001 1.1219 0.9107 2.0324 2.0332 2.0323 s 2.0336 -0.9108 2.0337 -2.0329 -0.9107 -2.0327 -2.0332 -2.0325 -2.0335 0.9108 -2.0336 2.0331 z" fill="#fff" stroke="#000"/>
<path d="m 493.476 1029.16 c 0.4275 1.5182 1.4984 2.6529 3.6989 2.5353 5.1136 -0.2717 5.2502 6.2038 0.4749 6.7619 -4.15 0.4819 -6.993 -1.9053 -7.3979 -4.7275 -0.2616 -1.8237 0.8988 -3.6236 3.224 -4.5697 z" fill="#fff" fill-rule="evenodd" stroke="#000"/>
<path d="m 486.35 1021.66 h 26.4148 v 26.4148 h -26.4148 z" fill="none" stroke="#000"/>
<path d="m 492.545 1037.43 c -1.1006 0.7353 -1.8726 1.8648 -2.6195 3.0246" fill="none" stroke="#000"/>
</g>
</svg>
