<svg viewBox="0 0 512 512" xmlns="http://www.w3.org/2000/svg">

<g transform="matrix(18.68858,0,0,18.68858,-9078.47261,-19083.59155)">
<path d="m494.5065,1027.5799-.4668,1.7372c-2.1394-.2462-3.0436.5401-3.6232,2.2607-.8352,2.4794-2.5095,2.9504-3.4683,1.4244 1.5049.3559 1.5706-.8673 1.9805-2.2647 .8041-2.7414 2.9273-3.2142 5.5777-3.1576z" fill="#fff" fill-rule="evenodd"/>
<path d="m489.123,1035.7334c-1.055,1.0548-1.055,2.7675 8e-05,3.8224 1.055,1.0551 2.7676,1.0552 3.8226,0 1.0551-1.055 1.0551-2.7676 2e-05-3.8226s-2.7676-1.055-3.8227.0002z" fill="#fff" stroke="#000"/>
<path d="m494.7232,1037.6152c-4.0407.1863-6.9956,6.1174-3.2229,8.9968 1.6958,1.2944 4.1486,1.1676 5.3487.2894 1.0656-.7798 1.3469-2.4398.3654-3.691 .2365.8596-.2472,2.2369-.9903,2.6402-.8673.4708-2.0479.3994-3.0292-.6765-2.1506-2.3579.1991-3.9421 3.0391-4.9108l-1.5107-2.6481z" fill="#fff" fill-rule="evenodd"/>
<path d="m499.5377,1039.5587c-2.2828,6.3845-9.2776,2.7306-6.2819-3.3027" fill="#fff" fill-rule="evenodd" stroke="#000"/>
<path d="m506.5006,1030.4151 .9958,1.322c2.2396-1.3386 3.4804-.3642 4.6871,1.7635-.2978-3.6951-2.7698-5.2039-5.6829-3.0855z" fill="#fff" fill-rule="evenodd"/>
<path d="m502.9755,1029.1027-2.3379-.7257c.6075-1.3058.6285-3.0102-.1107-3.9152-1.0199-1.2485-2.942-1.6285-4.5472-1.6694 4.8446-1.9568 9.5336,2.5427 6.9958,6.3103z" fill="#fff" fill-rule="evenodd"/>
<path d="m505.8687,1035.3501c4.4822-6.9337-4.4076-9.0078-5.2682-5.7149" fill="#fff" fill-rule="evenodd" stroke="#000"/>
<path d="m501.0129,1033.4294c1.6496-1.649 1.6498-4.3252.0006-5.9738s-5.172-2.4939-6.8215-.8448-.3288,4.6952 1.3205,6.3438 3.8507,2.1239 5.5004.4748z" fill="#fff" stroke="#000"/>
<path d="m507.4539,1034.623-.9796,2.4609c2.4497.9338 3.0665,1.6667 2.5099,3.5095-.8881,2.9408 1.0489,4.4737 2.9198,3.4849-1.7394-.5217-1.5038-1.451-1.1002-3.1127 .7919-3.2599-.6215-4.8441-3.3499-6.3426z" fill="#fff" fill-rule="evenodd"/>
<path d="m505.5192,1032.3898c-.5269.912-.214,2.0798.6984,2.6062s2.0805.2136 2.6073-.6986 .214-2.0799-.6984-2.6064-2.0804-.2134-2.6073.6988z" fill="#fff" stroke="#000"/>
<path d="m502.1775,1039.6305 1.2472,1.0399c-1.402,2.1189-.2887,4.7668 1.9223,5.9384-4.3163-.2089-5.5727-4.4648-3.1695-6.9783z" fill="#fff" fill-rule="evenodd"/>
<path d="m504.3781,1041.6455c2.3529-.6304 3.4365-4.2243 2.8062-6.5764s-3.0512-3.749-5.4039-3.1184-4.0708,3.0819-3.4407,5.4338 3.6855,4.8916 6.0384,4.261z" fill="#fff" stroke="#000"/>
<path d="m497.8783,1039.0354c-.0001,1.1219.9107,2.0324 2.0332,2.0323s2.0336-.9108 2.0337-2.0329-.9107-2.0327-2.0332-2.0325-2.0335.9108-2.0336,2.0331z" fill="#fff" stroke="#000"/>
<path d="m493.4762,1029.1618c.4275,1.5182 1.4984,2.6529 3.6989,2.5353 5.1136-.2717 5.2502,6.2038.4749,6.7619-4.15.4819-6.993-1.9053-7.3979-4.7275-.2616-1.8237.8988-3.6236 3.224-4.5697z" fill="#fff" fill-rule="evenodd" stroke="#000"/>
<path d="m486.3504,1021.6637h26.4148v26.4148h-26.4148z" fill="none" stroke="#000"/>
<path d="m492.5447,1037.4284c-1.1006.7353-1.8726,1.8648-2.6195,3.0246" fill="none" stroke="#000"/>
</g>
</svg>
