<svg viewBox="0 0 512 512" xmlns="http://www.w3.org/2000/svg">

<g transform="matrix(18.68858,0,0,18.68858,-9761.20289,-31323.86286)">
<path d="m 535.812 1677.16 c 2.0026 0.3163 3.967 1.2543 5.4688 2.6563 -2.9837 -1.3979 -6.9278 -1.4585 -10 -0.1875 0.5549 -0.5207 1.1652 -0.9378 1.8125 -1.25 -8.1758 2.0047 -11.1295 8.2688 -7.75 16.125 -0.8801 -1.4329 -1.5573 -2.9741 -1.9062 -4.5312 -0.2993 4.2381 2.0008 7.6718 6.2942 11.2624 l 6.4558 0.05 c 4.1198 0.032 7.7588 -2.0687 9.9375 -5.2187 -0.552 0.6235 -1.2163 1.1785 -1.9688 1.6563 2.4903 -2.9572 3.7887 -7.3824 3.2812 -11.25 0.4509 0.8714 0.7261 1.7941 0.8438 2.75 -0.008 -8.1521 -6.4396 -12.413 -12.4688 -12.0626 z" fill="#fff"/>
<path d="m 528.875 1685.6 c 0.1739 -0.992 0.4389 -1.9556 0.7949 -2.8556 -4.3658 5.0283 -2.7619 12.3429 2.5236 13.3446 l -0.3079 5.8152 c 3.9036 0.1454 9.4374 -1.5923 11.4481 -4.9996 -1.6456 1.2033 -4.4338 2.0681 -6.7123 1.9429 4.3753 -0.9215 8.2726 -3.8181 8.2726 -8.8614 0 -3.5047 -2.1185 -6.491 -5.152 -7.7721 3.6024 1.1508 5.9031 3.9449 6.4768 7.2422 -0.6327 -10.7652 -13.2659 -11.0793 -17.3438 -3.8562 z"/>
<path d="m 533.781 1696.63 c 3.4012 1.9636 0.3641 7.3507 -3.0919 5.3553 -1.4789 -0.8537 -4.8707 -4.4105 -4.0169 -5.8894 s 5.63 -0.3197 7.1089 0.5341 z" fill="#fff"/>
</g>
</svg>
