<svg viewBox="0 0 512 512" xmlns="http://www.w3.org/2000/svg">

<g transform="matrix(18.68858,0,0,18.68858,-7036.54963,-29262.67485)">
<path d="m390.7464,1566.8009c1.6048.2086 2.8577,1.9547 2.8577,4.0623-1e-05,1.1671-.3998,2.2093-1.0155,2.952 3.3374.628 4.5724,5.4692 3.5898,10.2026h-2.3145l-.614,8.2425h-5.8807l-.5432-8.2425h-2.1964c-.8667-4.6093-.0795-9.6844 3.5662-10.2498-.5893-.7393-.9683-1.7665-.9683-2.9048 1e-05-2.248 1.4309-4.0623 3.1883-4.0623 .1097,0 .2236-.016.3306,0z" fill="#fff" fill-rule="evenodd"/>
<path d="m386.4103,1586.0768-.0756-7.7005" fill="none" stroke="#000"/>
<path d="m394.3466,1586.0768 .0756-7.7005" fill="none" stroke="#000"/>
<path d="m390.3784,1592.6905v-9.8259" fill="none" stroke="#000"/>
<path d="m387.697,1577.0366h5.3051" fill="none" stroke="#000"/>
<path d="m388.9831,1581.6538 1.3664-2.7496 1.3664,2.7496" fill="none" stroke="#000"/>
<path d="m390.3496,1579.2847v-3.2117" fill="none" stroke="#000"/>
<path d="m461.3429,1541.2161c0,.8664-.465,1.5689-1.0386,1.5689s-1.0386-.7025-1.0386-1.5689 .465-1.5689 1.0386-1.5689 1.0386.7024 1.0386,1.5689z" transform="matrix(1.07088,0,0,.81468,-102.57889,319.84055)"/>
</g>
</svg>
