<svg viewBox="0 0 512 512" xmlns="http://www.w3.org/2000/svg">

<g transform="matrix(18.68858,0,0,18.68858,-7036.54963,-29262.67485)">
<path d="m 390.746 1566.8 c 1.6048 0.2086 2.8577 1.9547 2.8577 4.0623 -1e-05 1.1671 -0.3998 2.2093 -1.0155 2.952 3.3374 0.628 4.5724 5.4692 3.5898 10.2026 h -2.3145 l -0.614 8.2425 h -5.8807 l -0.5432 -8.2425 h -2.1964 c -0.8667 -4.6093 -0.0795 -9.6844 3.5662 -10.2498 -0.5893 -0.7393 -0.9683 -1.7665 -0.9683 -2.9048 1e-05 -2.248 1.4309 -4.0623 3.1883 -4.0623 0.1097 0 0.2236 -0.016 0.3306 0 z" fill="#fff" fill-rule="evenodd"/>
<path d="m 386.41 1586.08 -0.0756 -7.7005" fill="none" stroke="#000"/>
<path d="m 394.347 1586.08 0.0756 -7.7005" fill="none" stroke="#000"/>
<path d="m 390.378 1592.69 v -9.8259" fill="none" stroke="#000"/>
<path d="m 387.697 1577.04 h 5.3051" fill="none" stroke="#000"/>
<path d="m 388.983 1581.65 1.3664 -2.7496 1.3664 2.7496" fill="none" stroke="#000"/>
<path d="m 390.35 1579.28 v -3.2117" fill="none" stroke="#000"/>
<path d="m 461.343 1541.22 c 0 0.8664 -0.465 1.5689 -1.0386 1.5689 s -1.0386 -0.7025 -1.0386 -1.5689 0.465 -1.5689 1.0386 -1.5689 1.0386 0.7024 1.0386 1.5689 z" transform="matrix(1.07088,0,0,.81468,-102.57889,319.84055)"/>
</g>
</svg>
