<svg viewBox="0 0 512 512" xmlns="http://www.w3.org/2000/svg">

<g transform="matrix(18.68858,0,0,18.68858,5785.34947,-6703.59589)">
<path d="m-295.8562,361.9053c-2.8817,0-5.5316.9159-7.6029,2.4961 .3897.1065.7451.2662 1.0409.4992 1.3895,1.0948.9615,3.2361-.9956,4.7782-1.285,1.0125-2.9045,1.5064-4.254,1.4263-.1267.6527-.181,1.3102-.181,1.9969 0,4.9534 3.4177,9.1755 8.1912,10.6617-1.4471-1.1257-1.4181-3.7856-.362-5.1111-5.3842-4.3015-1.916-8.9909 4.1635-9.9009 6.5668.358 9.0664,5.757 4.1635,9.9009 1.3441,1.3141.7819,3.9506-.362,5.1111 4.7735-1.4862 8.2365-5.7083 8.2365-10.6617 0-.6866-.0996-1.3442-.2263-1.9969-1.3496.0801-2.969-.4138-4.254-1.4263-1.9571-1.5421-2.3851-3.6833-.9956-4.7782 .2957-.233.6511-.3927 1.0409-.4992-2.0711-1.5795-4.7219-2.496-7.6029-2.4961z" fill="#fff"/>
<path d="m450,369.3309c0,2.5371-1.4341,4.5938-3.2031,4.5938s-3.2031-2.0567-3.2031-4.5938 1.4341-4.5938 3.2031-4.5938 3.2031,2.0567 3.2031,4.5938z" fill="#fff" transform="matrix(1.01748,0,0,.76,-750.25148,91.13993)"/>
<path d="m450,369.3309c0,2.5371-1.4341,4.5938-3.2031,4.5938s-3.2031-2.0567-3.2031-4.5938 1.4341-4.5938 3.2031-4.5938 3.2031,2.0567 3.2031,4.5938z" transform="matrix(.48077,0,0,.6266,-510.45155,141.30344)"/>
<path d="m-287.8221,363.6428c0,3.2598-3.5892,5.9054-8.0115,5.9054s-8.0115-2.6456-8.0115-5.9054c0-2.5906 16.023-1.8496 16.023,0z" stroke="#000" stroke-width="1.072"/>
<path d="m412.6562,375.3153c0,1.0614-.7625,1.9219-1.7031,1.9219s-1.7031-.8605-1.7031-1.9219 .7625-1.9219 1.7031-1.9219 1.7031.8605 1.7031,1.9219z" fill="#fff" transform="matrix(-.56483,-.49232,-.77209,.42191,229.29664,410.36719)"/>
<path d="m412.6562,375.3153c0,1.0614-.7625,1.9219-1.7031,1.9219s-1.7031-.8605-1.7031-1.9219 .7625-1.9219 1.7031-1.9219 1.7031.8605 1.7031,1.9219z" fill="#fff" transform="matrix(-.50978,-.49579,-.63903,.60535,159.21882,339.61568)"/>
<path d="m412.6562,375.3153c0,1.0614-.7625,1.9219-1.7031,1.9219s-1.7031-.8605-1.7031-1.9219 .7625-1.9219 1.7031-1.9219 1.7031.8605 1.7031,1.9219z" fill="#fff" transform="matrix(.56483,-.49232,.77209,.42191,-820.96385,410.36719)"/>
<path d="m412.6562,375.3153c0,1.0614-.7625,1.9219-1.7031,1.9219s-1.7031-.8605-1.7031-1.9219 .7625-1.9219 1.7031-1.9219 1.7031.8605 1.7031,1.9219z" fill="#fff" transform="matrix(.50978,-.49579,.63903,.60535,-750.88604,339.61568)"/>
</g>
</svg>
