<svg viewBox="0 0 512 512" xmlns="http://www.w3.org/2000/svg">

<g transform="matrix(18.68858,0,0,18.68858,-2953.62005,-27901.74443)">
<path d="m 172.336 1494.01 c 1.9048 0.2086 3.3919 1.9547 3.3919 4.0623 -2e-05 1.1671 -0.4745 2.2093 -1.2054 2.952 3.9613 0.628 5.4271 5.4692 4.2608 10.2026 h -2.7471 l -0.7288 8.2425 h -6.9799 l -0.6447 -8.2425 h -2.607 c -1.0287 -4.6093 -0.0944 -9.6844 4.2328 -10.2498 -0.6995 -0.7393 -1.1493 -1.7665 -1.1493 -2.9048 1e-05 -2.248 1.6983 -4.0623 3.7843 -4.0623 0.1303 0 0.2654 -0.016 0.3924 0 z" fill="#fff" fill-rule="evenodd"/>
<path d="m 167.29 1513.28 -0.0756 -7.7005" fill="none" stroke="#000"/>
<path d="m 176.471 1513.28 0.0756 -7.7005" fill="none" stroke="#000"/>
<path d="m 171.799 1519.9 v -9.8259" fill="none" stroke="#000"/>
<path d="m 171.329 1494.94 -0.3125 2.2187 -1.6812 -0.1914 1.65 1.3164 -1.3694 1.7602 1.3445 -0.1969 -0.0342 2.7855 -1.9943 -0.5182 1.4597 1.7007 -2.9274 -0.018 2.6652 1.2831 -1.1901 1.87 1.7558 -0.5349 -1.916 4.8312 3.3231 -3.629 2.8713 5.4555 -1.196 -5.6109 1.2186 0.2767 -0.9891 -2.2719 2.0976 -1.8445 -3.0486 0.4849 1.601 -1.9198 -2.2655 0.6584 -0.8142 -1.4904 0.5826 -1.0726 1.4121 0.8449 -1.118 -2.0632 1.8438 -0.094 -1.1562 -0.6563 1.5569 -1.0344 -2.3663 0.4891 0.9961 -2.4 -1.343 1.4453 z"/>
</g>
</svg>
