<svg viewBox="0 0 512 512" xmlns="http://www.w3.org/2000/svg">

<g transform="matrix(18.68858,0,0,18.68858,-2953.62005,-27901.74443)">
<path d="m172.3363,1494.008c1.9048.2086 3.3919,1.9547 3.3919,4.0623-2e-05,1.1671-.4745,2.2093-1.2054,2.952 3.9613.628 5.4271,5.4692 4.2608,10.2026h-2.7471l-.7288,8.2425h-6.9799l-.6447-8.2425h-2.607c-1.0287-4.6093-.0944-9.6844 4.2328-10.2498-.6995-.7393-1.1493-1.7665-1.1493-2.9048 1e-05-2.248 1.6983-4.0623 3.7843-4.0623 .1303,0 .2654-.016.3924,0z" fill="#fff" fill-rule="evenodd"/>
<path d="m167.2899,1513.2839-.0756-7.7005" fill="none" stroke="#000"/>
<path d="m176.4712,1513.2839 .0756-7.7005" fill="none" stroke="#000"/>
<path d="m171.7994,1519.8976v-9.8259" fill="none" stroke="#000"/>
<path d="m171.3287,1494.9375-.3125,2.2187-1.6812-.1914 1.65,1.3164-1.3694,1.7602 1.3445-.1969-.0342,2.7855-1.9943-.5182 1.4597,1.7007-2.9274-.018 2.6652,1.2831-1.1901,1.87 1.7558-.5349-1.916,4.8312 3.3231-3.629 2.8713,5.4555-1.196-5.6109 1.2186.2767-.9891-2.2719 2.0976-1.8445-3.0486.4849 1.601-1.9198-2.2655.6584-.8142-1.4904 .5826-1.0726 1.4121.8449-1.118-2.0632 1.8438-.094-1.1562-.6563 1.5569-1.0344-2.3663.4891 .9961-2.4-1.343,1.4453z"/>
</g>
</svg>
