<svg viewBox="0 0 512 512" xmlns="http://www.w3.org/2000/svg">

<path d="m82.3779,882.7449c0,6.2484-5.0653,11.3137-11.3137,11.3137s-11.3137-5.0653-11.3137-11.3137 5.0653-11.3137 11.3137-11.3137 11.3137,5.0653 11.3137,11.3137z" fill="#fff" stroke="#000" stroke-width=".9547" transform="matrix(18.74109,10.82013,-10.82013,18.74109,8475.28952,-17053.30205)"/>
<path d="m82.3779,882.7449c0,6.2484-5.0653,11.3137-11.3137,11.3137s-11.3137-5.0653-11.3137-11.3137 5.0653-11.3137 11.3137-11.3137 11.3137,5.0653 11.3137,11.3137z" transform="matrix(14.47786,8.35884,-8.35884,14.47786,6605.4429,-13114.95555)"/>
<path d="m660.5928,566.1652h22.3091v2.6924h-22.3091z" fill="#fff" transform="matrix(13.21488,13.21488,-13.21488,13.21488,-1087.8944,-16151.2512)"/>
<path d="m660.5928,571.299h22.3091v2.6924h-22.3091z" fill="#fff" transform="matrix(13.21488,13.21488,-13.21488,13.21488,-1087.8944,-16151.2512)"/>
</svg>
