<svg viewBox="0 0 512 512" xmlns="http://www.w3.org/2000/svg">

<g transform="matrix(18.68858,0,0,18.68858,-9760.05695,-35398.75239)">
<path d="m531.4737,1900.4291c.9347-1.2037-1.1078-4.4354-3.2178-5.7743h5.1318c-.6462,1.1511-.318,4.133 1.1982,4.4983" fill="#fff" stroke="#000"/>
<path d="m537.62,1900.4194c2.0778-1.3938 2.5656-4.4832 1.1458-5.7796h8.1592c-2.8165.4566-6.7209,4.5737-6.3977,7.7226z" fill="#fff" stroke="#000"/>
<path d="m522.7468,1911.9383c3.041.4233 6.082-.562 9.123-1.9267v1.9794c-3.1031,1.0179-6.1358,3.084-9.123,5.8283z" fill="#fff" stroke="#000"/>
<path d="m549.1498,1904.0728c-2.1424,1.7509-4.7207,2.0048-6.4272,1.2827v3.5704c1.8903-1.066 4.3227-1.2741 6.4272.1661z" fill="#fff" stroke="#000"/>
<path d="m529.4321,1906.3841c-3.5396,2.881-.4744,10.9553 5.7691,9.3194 12.112-3.1734 9.8425-13.6939-.0408-15.9193-6.6286-1.4925-7.8745,6.7232-3.1923,9.96" fill="#fff" stroke="#000"/>
<path d="m541.5906,1907.4008c-1.5243-3.2549 2.8713-6.8682 7.5836-8.2418v-4.5041h-3.0036c-1.3977,3.7859-6.3307,9.8518-9.0877,8.1156" fill="#fff" stroke="#000"/>
<path d="m533.7812,1913.8934c3.0917,2.3684 3.9432,4.3333 4.0859,7.1797h8.5c-3.8051-3.3068-6.5018-6.3943-5.6172-10.6484" fill="#fff" stroke="#000"/>
<path d="m536.1244,1913.7815c3.5387,5.1272 4.5116,4.9948 2.9133-1.5858"/>
<path d="m535.5938,1912.3993c2.5662,3.4593 3.6927,2.9049 2.8135-1.5117" fill="#fff" stroke="#000"/>
<path d="m533.0404,1902.9134c-2.3016,1.2699-7.7217-2.1924-10.282-5.7768l-4e-05,6.809c2.2013-.821 8.6551.2814 9.3536,2.7512" fill="#fff" stroke="#000"/>
</g>
</svg>
