<svg viewBox="0 0 512 512" xmlns="http://www.w3.org/2000/svg">

<g transform="matrix(18.68858,0,0,18.68858,-9760.05695,-35398.75239)">
<path d="m 531.474 1900.43 c 0.9347 -1.2037 -1.1078 -4.4354 -3.2178 -5.7743 h 5.1318 c -0.6462 1.1511 -0.318 4.133 1.1982 4.4983" fill="#fff" stroke="#000"/>
<path d="m 537.62 1900.42 c 2.0778 -1.3938 2.5656 -4.4832 1.1458 -5.7796 h 8.1592 c -2.8165 0.4566 -6.7209 4.5737 -6.3977 7.7226 z" fill="#fff" stroke="#000"/>
<path d="m 522.747 1911.94 c 3.041 0.4233 6.082 -0.562 9.123 -1.9267 v 1.9794 c -3.1031 1.0179 -6.1358 3.084 -9.123 5.8283 z" fill="#fff" stroke="#000"/>
<path d="m 549.15 1904.07 c -2.1424 1.7509 -4.7207 2.0048 -6.4272 1.2827 v 3.5704 c 1.8903 -1.066 4.3227 -1.2741 6.4272 0.1661 z" fill="#fff" stroke="#000"/>
<path d="m 529.432 1906.38 c -3.5396 2.881 -0.4744 10.9553 5.7691 9.3194 12.112 -3.1734 9.8425 -13.6939 -0.0408 -15.9193 -6.6286 -1.4925 -7.8745 6.7232 -3.1923 9.96" fill="#fff" stroke="#000"/>
<path d="m 541.591 1907.4 c -1.5243 -3.2549 2.8713 -6.8682 7.5836 -8.2418 v -4.5041 h -3.0036 c -1.3977 3.7859 -6.3307 9.8518 -9.0877 8.1156" fill="#fff" stroke="#000"/>
<path d="m 533.781 1913.89 c 3.0917 2.3684 3.9432 4.3333 4.0859 7.1797 h 8.5 c -3.8051 -3.3068 -6.5018 -6.3943 -5.6172 -10.6484" fill="#fff" stroke="#000"/>
<path d="m 536.124 1913.78 c 3.5387 5.1272 4.5116 4.9948 2.9133 -1.5858"/>
<path d="m 535.594 1912.4 c 2.5662 3.4593 3.6927 2.9049 2.8135 -1.5117" fill="#fff" stroke="#000"/>
<path d="m 533.04 1902.91 c -2.3016 1.2699 -7.7217 -2.1924 -10.282 -5.7768 l -4e-05 6.809 c 2.2013 -0.821 8.6551 0.2814 9.3536 2.7512" fill="#fff" stroke="#000"/>
</g>
</svg>
