<svg viewBox="0 0 512 512" xmlns="http://www.w3.org/2000/svg">

<path d="m 441.314 228.547 c 0 150.88 -83.0203 273.335 -185.314 273.335 s -185.314 -122.453 -185.314 -273.335 c 0 -116.108 83.0203 -218.43 185.314 -218.43 s 185.314 98.6477 185.314 218.43 z" fill="#fff" stroke="#000" stroke-width="18"/>
<path d="m 110.306 162.352 h 74.2049 l 14.3416 -52.1766 25.8538 94.0671 19.5184 -71.0166 8.1127 29.5149 h 150.269" fill="none" stroke="#fff" stroke-width="18.6886"/>
<path d="m 103.678 374.733 h 304.644" fill="none" stroke="#000" stroke-linecap="round" stroke-width="18"/>
<path d="m 154.523 450.154 h 202.955" fill="none" stroke="#000" stroke-linecap="round" stroke-width="18"/>
<path d="m 91.1006 223.892 h 327.997" fill="none" stroke="#000" stroke-linecap="round" stroke-width="18"/>
<path d="m 92.5842 148.471 h 326.832" fill="none" stroke="#000" stroke-linecap="round" stroke-width="18"/>
<path d="m 107.465 299.312 h 327.997" fill="none" stroke="#000" stroke-linecap="round" stroke-width="18"/>
<path d="m 129.495 73.0504 h 180.511" fill="none" stroke="#000" stroke-linecap="round" stroke-width="18"/>
<path d="m 218.601 212 h 74.7984" fill="#fff" stroke="#000" stroke-width="18"/>
<path d="m 223.67 252.137 c 11.1078 -58.1859 -52.9894 -67.0156 -108.51 -67.0727 -14.3995 -0.0148 -31.6632 3.8756 -43.9669 11.9728 -7.7351 5.0905 -13.5099 11.8437 -15.3801 20.3345 -9.3771 42.5714 12.0808 103.769 77.9588 104.999 37.5699 0.7015 78.7448 -11.8071 89.8985 -70.2332 z" stroke="#000" stroke-linejoin="round" stroke-width="18"/>
<path d="m 288.33 252.137 c -11.1078 -58.1859 52.9894 -67.0156 108.51 -67.0727 14.3995 -0.0148 31.6632 3.8756 43.9669 11.9728 7.7351 5.0905 13.5099 11.8437 15.3801 20.3345 9.3771 42.5714 -12.0808 103.769 -77.9588 104.999 -37.5699 0.7015 -78.7448 -11.8071 -89.8985 -70.2332 z" stroke="#000" stroke-linejoin="round" stroke-width="18"/>
<path d="m 99.3247 195.651 c 11.628 -2.8603 40.6475 -1.6188 62.8229 1.7382 -21.7383 16.7562 -43.2737 91.6221 -35.3196 115.504 -8.104 0.1669 -18.6543 -3.7449 -19.309 -4.5083 -9.0553 -35.5169 -20.2475 -75.8974 -8.1943 -112.734 z" fill="#fff"/>
<path d="m 331.078 201.421 c 13.3839 -4.6162 40.6475 -7.413 63.0863 -7.3043 -21.7383 16.7562 -43.976 94.0802 -36.0219 117.962 -8.104 0.1669 -18.4787 -4.2717 -19.1334 -5.035 -9.0553 -35.5169 -19.9841 -68.7863 -7.9309 -105.623 z" fill="#fff"/>
<path d="m 208.789 411.567 h 94.4211" fill="none" stroke="#000" stroke-linecap="round" stroke-width="18"/>
<path d="m 257.053 11.9396 119.396 132.741" fill="none" stroke="#000" stroke-linecap="round" stroke-width="18"/>
</svg>
