<svg viewBox="0 0 512 512" xmlns="http://www.w3.org/2000/svg">

<path d="m441.3141,228.5474c0,150.8804-83.0203,273.3354-185.3141,273.3354s-185.3141-122.4532-185.3141-273.3354c0-116.1084 83.0203-218.4303 185.3141-218.4303s185.3141,98.6477 185.3141,218.4303z" fill="#fff" stroke="#000" stroke-width="18"/>
<path d="m110.3057,162.3525h74.2049l14.3416-52.1766 25.8538,94.0671 19.5184-71.0166 8.1127,29.5149h150.2693" fill="none" stroke="#fff" stroke-width="18.6886"/>
<path d="m103.6777,374.733h304.6445" fill="none" stroke="#000" stroke-linecap="round" stroke-width="18"/>
<path d="m154.5226,450.1538h202.9549" fill="none" stroke="#000" stroke-linecap="round" stroke-width="18"/>
<path d="m91.1006,223.8917h327.9974" fill="none" stroke="#000" stroke-linecap="round" stroke-width="18"/>
<path d="m92.5842,148.4712h326.8316" fill="none" stroke="#000" stroke-linecap="round" stroke-width="18"/>
<path d="m107.4649,299.3125h327.9974" fill="none" stroke="#000" stroke-linecap="round" stroke-width="18"/>
<path d="m129.495,73.0504h180.5109" fill="none" stroke="#000" stroke-linecap="round" stroke-width="18"/>
<path d="m218.6008,212h74.7984" fill="#fff" stroke="#000" stroke-width="18"/>
<path d="m223.6703,252.1372c11.1078-58.1859-52.9894-67.0156-108.5103-67.0727-14.3995-.0148-31.6632,3.8756-43.9669,11.9728-7.7351,5.0905-13.5099,11.8437-15.3801,20.3345-9.3771,42.5714 12.0808,103.7685 77.9588,104.9986 37.5699.7015 78.7448-11.8071 89.8985-70.2332z" stroke="#000" stroke-linejoin="round" stroke-width="18"/>
<path d="m288.3297,252.1372c-11.1078-58.1859 52.9894-67.0156 108.5103-67.0727 14.3995-.0148 31.6632,3.8756 43.9669,11.9728 7.7351,5.0905 13.5099,11.8437 15.3801,20.3345 9.3771,42.5714-12.0808,103.7685-77.9588,104.9986-37.5699.7015-78.7448-11.8071-89.8985-70.2332z" stroke="#000" stroke-linejoin="round" stroke-width="18"/>
<path d="m99.3247,195.6507c11.628-2.8603 40.6475-1.6188 62.8229,1.7382-21.7383,16.7562-43.2737,91.6221-35.3196,115.5037-8.104.1669-18.6543-3.7449-19.309-4.5083-9.0553-35.5169-20.2475-75.8974-8.1943-112.7336z" fill="#fff"/>
<path d="m331.0781,201.4213c13.3839-4.6162 40.6475-7.413 63.0863-7.3043-21.7383,16.7562-43.976,94.0802-36.0219,117.9618-8.104.1669-18.4787-4.2717-19.1334-5.035-9.0553-35.5169-19.9841-68.7863-7.9309-105.6225z" fill="#fff"/>
<path d="m208.7894,411.5665h94.4211" fill="none" stroke="#000" stroke-linecap="round" stroke-width="18"/>
<path d="m257.0535,11.9396 119.3964,132.7407" fill="none" stroke="#000" stroke-linecap="round" stroke-width="18"/>
</svg>
