<svg viewBox="0 0 512 512" xmlns="http://www.w3.org/2000/svg">

<g transform="matrix(18.68858,0,0,18.68858,-11126.09,-25183.594)">
<path d="m 609.311 1348.69 c 1.5798 0.2053 2.8132 1.9242 2.8132 3.999 -1e-05 1.149 -0.3936 2.1749 -0.9997 2.9061 3.2855 0.6182 4.5013 5.3841 3.5339 10.0438 h -2.2785 l -0.6045 8.1142 h -5.7892 l -0.5347 -8.1142 h -2.1622 c -0.8532 -4.5376 -0.0783 -9.5337 3.5107 -10.0903 -0.5801 -0.7278 -0.9532 -1.739 -0.9532 -2.8596 1e-05 -2.213 1.4086 -3.999 3.1387 -3.999 0.108 0 0.2202 -0.016 0.3255 0 z" fill-rule="evenodd" stroke="#fff" stroke-dasharray="1, 1"/>
<path d="m 597.734 1356.33 h 3.6946" fill="none" stroke="#000"/>
<path d="m 597.734 1358.28 h 3.6946" fill="none" stroke="#000"/>
<path d="m 616.696 1354.96 c 1.2401 0.2258 1.9399 0.6057 1.6921 2.0186 0.4226 -1.0251 0.7635 -1.5447 2.4578 -0.9653"/>
<path d="m 609.04 1372.78 v -5.8937" fill="none" stroke="#fff" stroke-dasharray="1, 1"/>
</g>
</svg>
