<svg viewBox="0 0 512 512" xmlns="http://www.w3.org/2000/svg">

<g transform="matrix(18.68858,0,0,18.68858,-11126.09,-25183.594)">
<path d="m609.3107,1348.6868c1.5798.2053 2.8132,1.9242 2.8132,3.999-1e-05,1.149-.3936,2.1749-.9997,2.9061 3.2855.6182 4.5013,5.3841 3.5339,10.0438h-2.2785l-.6045,8.1142h-5.7892l-.5347-8.1142h-2.1622c-.8532-4.5376-.0783-9.5337 3.5107-10.0903-.5801-.7278-.9532-1.739-.9532-2.8596 1e-05-2.213 1.4086-3.999 3.1387-3.999 .108,0 .2202-.016.3255,0z" fill-rule="evenodd" stroke="#fff" stroke-dasharray="1, 1"/>
<path d="m597.7341,1356.3305h3.6946" fill="none" stroke="#000"/>
<path d="m597.7341,1358.282h3.6946" fill="none" stroke="#000"/>
<path d="m616.6957,1354.9597c1.2401.2258 1.9399.6057 1.6921,2.0186 .4226-1.0251.7635-1.5447 2.4578-.9653"/>
<path d="m609.0399,1372.7822v-5.8937" fill="none" stroke="#fff" stroke-dasharray="1, 1"/>
</g>
</svg>
