<svg viewBox="0 0 512 512" xmlns="http://www.w3.org/2000/svg">

<g transform="matrix(18.68858,0,0,18.68858,-8400.00538,-24503.54081)">
<path d="m 695.188 438.862 c 0 6.4548 -3.5398 11.6875 -7.9062 11.6875 s -7.9062 -5.2327 -7.9062 -11.6875 3.5398 -11.6875 7.9062 -11.6875 7.9062 5.2327 7.9062 11.6875 z" fill="#fff" stroke="#000" stroke-width=".884" transform="matrix(1.13179,0,0,1.13067,-314.67386,828.63387)"/>
<path d="m 467.093 1325.42 1.4768 -12.895" fill="none" stroke="#000"/>
<path d="m 463.185 1333.91 v 4.3645" fill="none" stroke="#000"/>
<path d="m 465.278 1325.15 v 5.2145 h -4.1697 v -5.2145" fill="#fff" stroke="#000"/>
<path d="m 456.837 1324.36 h 4.7354 c 1.08 0 1.0539 2.0752 0 2.0752 h -4.7354 c -1.1484 0 -1.1333 -2.0752 0 -2.0752 z"/>
<path d="m 464.852 1324.36 h 4.7354 c 1.08 0 1.0539 2.0752 0 2.0752 h -4.7354 c -1.1484 0 -1.1333 -2.0752 0 -2.0752 z"/>
<path d="m 460.845 1332.04 h 4.7354 c 1.08 0 1.0539 2.0752 0 2.0752 h -4.7354 c -1.1484 0 -1.1333 -2.0752 0 -2.0752 z"/>
<path d="m 459.311 1325.42 -1.4768 -12.895" fill="none" stroke="#000"/>
</g>
</svg>
