<svg viewBox="0 0 512 512" xmlns="http://www.w3.org/2000/svg">

<g transform="matrix(18.68858,0,0,18.68858,-8400.00538,-24503.54081)">
<path d="m695.1875,438.8622c0,6.4548-3.5398,11.6875-7.9062,11.6875s-7.9062-5.2327-7.9062-11.6875 3.5398-11.6875 7.9062-11.6875 7.9062,5.2327 7.9062,11.6875z" fill="#fff" stroke="#000" stroke-width=".884" transform="matrix(1.13179,0,0,1.13067,-314.67386,828.63387)"/>
<path d="m467.0929,1325.4222 1.4768-12.895" fill="none" stroke="#000"/>
<path d="m463.1846,1333.912v4.3645" fill="none" stroke="#000"/>
<path d="m465.2784,1325.1533v5.2145h-4.1697v-5.2145" fill="#fff" stroke="#000"/>
<path d="m456.8375,1324.3619h4.7354c1.08,0 1.0539,2.0752 0,2.0752h-4.7354c-1.1484,0-1.1333-2.0752 0-2.0752z"/>
<path d="m464.8517,1324.3619h4.7354c1.08,0 1.0539,2.0752 0,2.0752h-4.7354c-1.1484,0-1.1333-2.0752 0-2.0752z"/>
<path d="m460.8446,1332.0375h4.7354c1.08,0 1.0539,2.0752 0,2.0752h-4.7354c-1.1484,0-1.1333-2.0752 0-2.0752z"/>
<path d="m459.3111,1325.4222-1.4768-12.895" fill="none" stroke="#000"/>
</g>
</svg>
