<svg viewBox="0 0 512 512" xmlns="http://www.w3.org/2000/svg">

<g transform="matrix(18.68858,0,0,18.68858,-2952.65496,-30617.68109)">
<path d="m 157.473 1637.91 h 28.4297 v 28.4297 h -28.4297 z" stroke="#888"/>
<path d="m 166.387 1645.35 -1.7368 8.6082 8.2306 4.4552 6.5316 -6.2297 -4.0776 -8.1174 z" fill="#fff"/>
<g stroke="#fff" stroke-width=".3772" transform="matrix(-2.29611,1.3258,-1.32562,-2.29628,2671.9564,5266.7471)">
<path d="m 132.39 1653.72 c 2.0532 2.051 5.3531 2.0919 7.4571 0.1311" fill="none" stroke="#fff" stroke-width=".3772"/>
<path d="m 135.298 1655.2 c 2.6909 -1.3629 3.7572 -4.651 2.3884 -7.3384" fill="none" stroke="#fff" stroke-width=".3772"/>
<path d="m 131.443 1648.46 c 2.9499 -0.4108 5.67 1.6523 6.0776 4.5996" fill="none" stroke="#fff" stroke-width=".3772"/>
<path d="m 134.502 1657.54 c -2.0771 -1.6219 -2.8142 -4.5638 -1.5833 -6.9884" fill="none" stroke="#fff" stroke-width=".3772"/>
<path d="m 136.077 1650.06 c -3.0983 -0.4321 -5.954 1.7292 -6.3806 4.8182" fill="none" stroke="#fff" stroke-width=".3772"/>
</g>
<g stroke="#000" stroke-width=".6862" transform="matrix(-1.4572,0,0,-1.45739,368.26348,4059.2583)">
<path d="m 132.446 1653.72 c 2.0699 2.0672 5.4234 2.0649 7.49 0" fill="none" stroke="#000" stroke-width=".6862"/>
<path d="m 135.368 1655.14 c 2.6079 -1.3253 3.6555 -4.4187 2.333 -7.0236" fill="none" stroke="#000" stroke-width=".6862"/>
<path d="m 131.41 1648.41 c 2.9373 -0.4072 5.6472 1.6485 6.0548 4.583" fill="none" stroke="#000" stroke-width=".6862"/>
<path d="m 135.274 1657.77 c -2.6079 -1.3254 -3.6447 -4.5159 -2.3222 -7.1208" fill="none" stroke="#000" stroke-width=".6862"/>
<path d="m 135.91 1650.14 c -2.8977 -0.4015 -5.5709 1.6254 -5.9731 4.5187" fill="none" stroke="#000" stroke-width=".6862"/>
<path d="m 137.165 1652.69 c 0 1.0948 -0.8874 1.9822 -1.9822 1.9822 s -1.9822 -0.8874 -1.9822 -1.9822 0.8874 -1.9821 1.9822 -1.9821 1.9822 0.8874 1.9822 1.9821 z" fill="#fff" stroke="#000" stroke-width=".5773" transform="matrix(1.18867,0,0,1.18867,-25.83367,-312.05643)"/>
</g>
</g>
</svg>
