<svg viewBox="0 0 512 512" xmlns="http://www.w3.org/2000/svg">

<g transform="matrix(18.68858,0,0,18.68858,6411.71405,-7329.66332)">
<path d="m -337.697 394.286 c 2.444 -1.4954 6.5908 -0.2608 6.1014 3.6561 -9.9641 6.9698 0.0687 12.3034 9.3668 17.2615 -1.1232 2.9531 -4.4757 3.2446 -7.791 2.8498 -2.3162 -4.4322 -7.4549 -10.1054 -12.0109 -13.8367 3.7812 -3.463 4.7791 -6.0107 4.3336 -9.9307 z" fill="#fff" fill-rule="evenodd"/>
<path d="m -331.217 410.601 c 1.0445 1.044 4.1316 -0.6245 2.3562 -2.399 -1.8048 -1.804 -3.3859 1.3698 -2.3562 2.399 z" fill="#fff" fill-rule="evenodd" stroke="#000"/>
<path d="m -333.373 408.977 c 1.2318 0.8145 3.9238 -1.4365 1.83 -2.821 -2.1286 -1.4074 -3.0444 2.0181 -1.83 2.821 z" fill="#fff" fill-rule="evenodd" stroke="#000"/>
<path d="m -322.664 409.785 c -1.9208 0.9432 -5.6072 3.0742 -3.5133 4.4587 2.1286 1.4075 3.9936 -2.1983 3.5133 -4.4587 z" fill="#fff" fill-rule="evenodd" stroke="#000"/>
<path d="m -321.7 413.38 c -1.5495 0.6887 -4.0899 0.8559 -2.2175 2.5278 1.9034 1.6996 3.3035 -1.5581 2.2175 -2.5278 z" fill="#fff" fill-rule="evenodd" stroke="#000"/>
<path d="m -328.84 412.543 c 1.0242 1.0638 4.1428 -0.5451 2.4018 -2.3534 -1.7699 -1.8383 -3.4116 1.3046 -2.4018 2.3534 z" fill="#fff" fill-rule="evenodd" stroke="#000"/>
<path d="m -324.942 398.017 c -1.2731 -0.6759 -4.4025 2.3154 -2.2384 3.4643 2.1999 1.168 3.4935 -2.798 2.2384 -3.4643 z" fill="#fff" fill-rule="evenodd" stroke="#000"/>
<path d="m -322.513 399.096 c -1.4459 -0.3598 -4.0687 3.0841 -1.6109 3.6957 2.4985 0.6218 3.0363 -3.341 1.6109 -3.6957 z" fill="#fff" fill-rule="evenodd" stroke="#000"/>
<path d="m -322.709 408.282 c 0.9823 -4.7428 0.041 -9.1204 2.8847 -7.8368 2.1068 0.951 0.1965 4.7835 -2.8847 7.8368 z" fill="#fff" fill-rule="evenodd" stroke="#000"/>
<path d="m -318.715 406.01 c -0.0533 -2.0949 -0.9452 -5.6489 1.2944 -4.4661 2.2768 1.2023 0.005 5.1521 -1.2944 4.4661 z" fill="#fff" fill-rule="evenodd" stroke="#000"/>
<path d="m -327.464 396.791 c -1.1351 -0.8646 -4.5236 1.7727 -2.5941 3.2423 1.9615 1.494 3.7132 -2.39 2.5941 -3.2423 z" fill="#fff" fill-rule="evenodd" stroke="#000"/>
</g>
</svg>
