<svg viewBox="0 0 512 512" xmlns="http://www.w3.org/2000/svg">

<g transform="matrix(18.68858,0,0,18.68858,-3629.36547,-36084.36351)">
<path d="m211.7083,1942.3394-6.5737.5981c-.3277,1.0333-.1565,1.8354.2812,2.4375-.9361,2.5588 4.2254,3.8344 4.5938,1 1.42-.5115 2.3224-2.1009 1.6987-4.0356z" fill="#fff" stroke="#000"/>
<path d="m201.4603,1940.8261c1.3775,5.4139-.4292,6.6222-2.2872,8.517-1.4585,1.4873-2.3722,4.8557-1.9873,8.5789" fill="none" stroke="#fff"/>
<path d="m208.9991,1957.6878c3.4696-3.739 1.3916-6.7601 3.6274-9.2417 1.9138-2.1242 1.6359-4.3646-1.0119-7.943" fill="none" stroke="#fff"/>
<path d="m207.0892,1942.5278c-2.9404,2.0137-4.9264,5.1842-3.0956,7.5553 1.3386,1.7336-.5964,5.3166-4.6982,7.6608" fill="none" stroke="#fff"/>
<path d="m217.1941,1957.7439c-2.9265-2.0137-4.0971-5.8666-1.7445-8.2377 1.7201-1.7336 1.8305-7.5554-2.3359-9.3305" fill="none" stroke="#fff"/>
<path d="m217.3577,1938.2514c.4124,2.9152-4.858,4.4599-9.607,4.7106s-10.0957-.3194-9.4147-3.7065c2.2182-11.0329 17.7978-9.6548 19.0217-1.0041z" fill="#fff" stroke="#000"/>
<path d="m209.3491,1943.9968c.5151,4.8686-1.2801,10.2348-6.3208,13.7431" fill="none" stroke="#fff"/>
<path d="m207.201,1946.4059c-1.2023,5.9791-8.3805,5.32-12.3196,9.3022" fill="none" stroke="#fff"/>
<path d="m219.2373,1957.7698h-24.3936v-10.2372" fill="none" stroke="#000"/>
<path d="m207.7375,1939.5654c0,1.3038-1.0569,2.3607-2.3607,2.3607s-2.3607-1.0569-2.3607-2.3607 1.0569-2.3606 2.3607-2.3606 2.3607,1.0569 2.3607,2.3606z" transform="translate(1.0812,-4.0972)"/>
<path d="m207.7375,1939.5654c0,1.3038-1.0569,2.3607-2.3607,2.3607s-2.3607-1.0569-2.3607-2.3607 1.0569-2.3606 2.3607-2.3606 2.3607,1.0569 2.3607,2.3606z" transform="matrix(.76136,0,0,.76136,47.98105,460.65114)"/>
<path d="m207.7375,1939.5654c0,1.3038-1.0569,2.3607-2.3607,2.3607s-2.3607-1.0569-2.3607-2.3607 1.0569-2.3606 2.3607-2.3606 2.3607,1.0569 2.3607,2.3606z" transform="matrix(.44318,0,0,.44318,120.54074,1077.5726)"/>
<path d="m204.9854,1942.8605c-.0667-5.5434 6.3879-6.0513 6.5436-.3886"/>
<path d="m200.2711,1942.0591c.6155.018 1.3902-.9242 1.6139-2.0063 .0768,1.051.5655,2.266 1.3985,2.5753"/>
<path d="m215.3284,1940.8482c-1.1462-.2355-1.3045-.8799-1.7807-1.5239 .1526.8563.3509,1.4325-.41,2.3765"/>
</g>
</svg>
