<svg viewBox="0 0 512 512" xmlns="http://www.w3.org/2000/svg">

<g transform="matrix(18.68858,0,0,18.68858,-3629.36547,-36084.36351)">
<path d="m 211.708 1942.34 -6.5737 0.5981 c -0.3277 1.0333 -0.1565 1.8354 0.2812 2.4375 -0.9361 2.5588 4.2254 3.8344 4.5938 1 1.42 -0.5115 2.3224 -2.1009 1.6987 -4.0356 z" fill="#fff" stroke="#000"/>
<path d="m 201.46 1940.83 c 1.3775 5.4139 -0.4292 6.6222 -2.2872 8.517 -1.4585 1.4873 -2.3722 4.8557 -1.9873 8.5789" fill="none" stroke="#fff"/>
<path d="m 208.999 1957.69 c 3.4696 -3.739 1.3916 -6.7601 3.6274 -9.2417 1.9138 -2.1242 1.6359 -4.3646 -1.0119 -7.943" fill="none" stroke="#fff"/>
<path d="m 207.089 1942.53 c -2.9404 2.0137 -4.9264 5.1842 -3.0956 7.5553 1.3386 1.7336 -0.5964 5.3166 -4.6982 7.6608" fill="none" stroke="#fff"/>
<path d="m 217.194 1957.74 c -2.9265 -2.0137 -4.0971 -5.8666 -1.7445 -8.2377 1.7201 -1.7336 1.8305 -7.5554 -2.3359 -9.3305" fill="none" stroke="#fff"/>
<path d="m 217.358 1938.25 c 0.4124 2.9152 -4.858 4.4599 -9.607 4.7106 s -10.0957 -0.3194 -9.4147 -3.7065 c 2.2182 -11.0329 17.7978 -9.6548 19.0217 -1.0041 z" fill="#fff" stroke="#000"/>
<path d="m 209.349 1944 c 0.5151 4.8686 -1.2801 10.2348 -6.3208 13.7431" fill="none" stroke="#fff"/>
<path d="m 207.201 1946.41 c -1.2023 5.9791 -8.3805 5.32 -12.3196 9.3022" fill="none" stroke="#fff"/>
<path d="m 219.237 1957.77 h -24.3936 v -10.2372" fill="none" stroke="#000"/>
<path d="m 207.738 1939.57 c 0 1.3038 -1.0569 2.3607 -2.3607 2.3607 s -2.3607 -1.0569 -2.3607 -2.3607 1.0569 -2.3606 2.3607 -2.3606 2.3607 1.0569 2.3607 2.3606 z" transform="translate(1.0812,-4.0972)"/>
<path d="m 207.738 1939.57 c 0 1.3038 -1.0569 2.3607 -2.3607 2.3607 s -2.3607 -1.0569 -2.3607 -2.3607 1.0569 -2.3606 2.3607 -2.3606 2.3607 1.0569 2.3607 2.3606 z" transform="matrix(.76136,0,0,.76136,47.98105,460.65114)"/>
<path d="m 207.738 1939.57 c 0 1.3038 -1.0569 2.3607 -2.3607 2.3607 s -2.3607 -1.0569 -2.3607 -2.3607 1.0569 -2.3606 2.3607 -2.3606 2.3607 1.0569 2.3607 2.3606 z" transform="matrix(.44318,0,0,.44318,120.54074,1077.5726)"/>
<path d="m 204.985 1942.86 c -0.0667 -5.5434 6.3879 -6.0513 6.5436 -0.3886"/>
<path d="m 200.271 1942.06 c 0.6155 0.018 1.3902 -0.9242 1.6139 -2.0063 0.0768 1.051 0.5655 2.266 1.3985 2.5753"/>
<path d="m 215.328 1940.85 c -1.1462 -0.2355 -1.3045 -0.8799 -1.7807 -1.5239 0.1526 0.8563 0.3509 1.4325 -0.41 2.3765"/>
</g>
</svg>
