<svg xmlns="http://www.w3.org/2000/svg" viewBox="0 0 512 512">
<g transform="matrix(15 0 0 15 -1604 -3284)">
<use width="744.094" height="1052.362" transform="translate(144 216)"/>
<path fill="#fff" d="m124,220c-5.1429,0-12,11.7911-12,16.8438 0,1.6842 6.8752,1.6815 12,1.6875 5.1249,.006 12-.003 12-1.6875 0-5.0526-6.8571-16.8438-12-16.8438zm-6,20.2188c-1.9848,0-3.9541,.3263-4.2188,1-.5293,1.3474 3.1602,10.7812 4.2188,10.7812 1.0586,0 4.748-9.4339 4.2188-10.7812-.2646-.6737-2.2339-1-4.2188-1zm12,0c-1.9848,0-3.9541,.3263-4.2188,1-.5293,1.3474 3.1602,10.7812 4.2188,10.7812 1.0586,0 4.748-9.4339 4.2188-10.7812-.2646-.6737-2.2339-1-4.2188-1z"/>
</g>
</svg>
