<svg viewBox="0 0 512 512" xmlns="http://www.w3.org/2000/svg">

<g transform="matrix(18.68858,0,0,18.68858,-11809.95529,-43547.65376)">
<g transform="matrix(.89198,.51508,-.51499,.89215,1278.3219,-82.46376)">
<path d="m632.3864,2344.2625 9.1171-4.9608v8.5808l-9.1171,1.162z" fill="#fff" stroke="#000" stroke-width=".9708"/>
<path d="m658.8438,2344.2625-9.1171-4.9608v8.5808l9.1171,1.162z" fill="#fff" stroke="#000" stroke-width=".9708"/>
</g>
<path d="m632.5651,2357.1562h14.7482" fill="none" stroke="#000"/>
<path d="m637.3471,2347.0784-4.8792,8.4454" fill="none" stroke="#fff"/>
<path d="m639.1794,2348.151-5.3261,9.1634" fill="none" stroke="#fff"/>
<path d="m641.0118,2349.2235-4.7004,8.1582" fill="none" stroke="#fff"/>
<path d="m643.2017,2350.4749-3.9071,6.8837" fill="none" stroke="#fff"/>
<path d="m645.0341,2351.5475-3.2703,5.8606" fill="none" stroke="#fff"/>
<path d="m646.8664,2352.6201-2.5999,4.7836" fill="none" stroke="#fff"/>
<g transform="matrix(.89198,.51508,-.51499,.89215,1278.4798,-82.37258)">
<path d="m642.1764,2334.1622c-4.2421,3.4497-4.2103,7.5942 0,11.0496 4.1636-3.4409 4.1975-7.6149 0-11.0496z" fill="#fff" stroke="#000" stroke-width=".9708"/>
<path d="m642.1789,2347.8981c-2.0659,1.7987-3.1239,3.7658-3.1736,5.7461h6.3081c-.0493-1.9837-1.0908-3.9557-3.1345-5.7461z" fill="#fff" stroke="#000" stroke-width=".9708"/>
<path d="m638.8807,2339.5542h6.5572v10.0024h-6.5572z" fill="#fff" stroke="#000" stroke-width=".9708"/>
<path d="m648.7338,2334.1622c-4.2421,3.4497-4.2103,7.5942 0,11.0496 4.1636-3.4409 4.1975-7.6149 0-11.0496z" fill="#fff" stroke="#000" stroke-width=".9708"/>
<path d="m648.7362,2347.8981c-2.0659,1.7987-3.1239,3.7658-3.1736,5.7461h6.3081c-.0493-1.9837-1.0908-3.9557-3.1345-5.7461z" fill="#fff" stroke="#000" stroke-width=".9708"/>
<path d="m645.4381,2339.5542h6.5572v10.0024h-6.5572z" fill="#fff" stroke="#000" stroke-width=".9708"/>
</g>
<path d="m632.4087,2351.0782v6.0781h15.7315" fill="none" stroke="#000"/>
<path d="m645.8398,2343.4031c-2.4545-1.4175.2491-9.4796 4.1663-7.2175s-1.7117,8.6348-4.1663,7.2175z" fill="#fff" stroke="#000"/>
</g>
</svg>
