<svg viewBox="0 0 512 512" xmlns="http://www.w3.org/2000/svg">

<g transform="matrix(18.68858,0,0,18.68858,-11809.95529,-43547.65376)">
<g transform="matrix(.89198,.51508,-.51499,.89215,1278.3219,-82.46376)">
<path d="m 632.386 2344.26 9.1171 -4.9608 v 8.5808 l -9.1171 1.162 z" fill="#fff" stroke="#000" stroke-width=".9708"/>
<path d="m 658.844 2344.26 -9.1171 -4.9608 v 8.5808 l 9.1171 1.162 z" fill="#fff" stroke="#000" stroke-width=".9708"/>
</g>
<path d="m 632.565 2357.16 h 14.7482" fill="none" stroke="#000"/>
<path d="m 637.347 2347.08 -4.8792 8.4454" fill="none" stroke="#fff"/>
<path d="m 639.179 2348.15 -5.3261 9.1634" fill="none" stroke="#fff"/>
<path d="m 641.012 2349.22 -4.7004 8.1582" fill="none" stroke="#fff"/>
<path d="m 643.202 2350.47 -3.9071 6.8837" fill="none" stroke="#fff"/>
<path d="m 645.034 2351.55 -3.2703 5.8606" fill="none" stroke="#fff"/>
<path d="m 646.866 2352.62 -2.5999 4.7836" fill="none" stroke="#fff"/>
<g transform="matrix(.89198,.51508,-.51499,.89215,1278.4798,-82.37258)">
<path d="m 642.176 2334.16 c -4.2421 3.4497 -4.2103 7.5942 0 11.0496 4.1636 -3.4409 4.1975 -7.6149 0 -11.0496 z" fill="#fff" stroke="#000" stroke-width=".9708"/>
<path d="m 642.179 2347.9 c -2.0659 1.7987 -3.1239 3.7658 -3.1736 5.7461 h 6.3081 c -0.0493 -1.9837 -1.0908 -3.9557 -3.1345 -5.7461 z" fill="#fff" stroke="#000" stroke-width=".9708"/>
<path d="m 638.881 2339.55 h 6.5572 v 10.0024 h -6.5572 z" fill="#fff" stroke="#000" stroke-width=".9708"/>
<path d="m 648.734 2334.16 c -4.2421 3.4497 -4.2103 7.5942 0 11.0496 4.1636 -3.4409 4.1975 -7.6149 0 -11.0496 z" fill="#fff" stroke="#000" stroke-width=".9708"/>
<path d="m 648.736 2347.9 c -2.0659 1.7987 -3.1239 3.7658 -3.1736 5.7461 h 6.3081 c -0.0493 -1.9837 -1.0908 -3.9557 -3.1345 -5.7461 z" fill="#fff" stroke="#000" stroke-width=".9708"/>
<path d="m 645.438 2339.55 h 6.5572 v 10.0024 h -6.5572 z" fill="#fff" stroke="#000" stroke-width=".9708"/>
</g>
<path d="m 632.409 2351.08 v 6.0781 h 15.7315" fill="none" stroke="#000"/>
<path d="m 645.84 2343.4 c -2.4545 -1.4175 0.2491 -9.4796 4.1663 -7.2175 s -1.7117 8.6348 -4.1663 7.2175 z" fill="#fff" stroke="#000"/>
</g>
</svg>
