<svg viewBox="0 0 512 512" xmlns="http://www.w3.org/2000/svg">

<g transform="matrix(18.68858,0,0,18.68858,-2953.4866,-4788.151)">
<path d="m 170.924 262.264 c 0 7.1902 -1.8811 15.8182 -4.6856 16.9689 -0.6285 0.2578 -1.127 0.6115 -1.2551 1.1526 -0.2397 1.0129 3.1487 2.049 7.0563 2.0491 s 7.0842 -0.9233 7.0842 -2.0491 c 0 -0.4809 -0.6576 -0.7326 -1.5619 -1.2487 -2.5614 -1.4618 -4.8529 -9.7634 -4.853 -16.8728 h -1.785 z" fill="#fff"/>
<path d="m 552.383 504.664 c 0 1.2692 -1.8105 2.2981 -4.0438 2.2981 s -4.0438 -1.0289 -4.0438 -2.2981 1.8104 -2.2981 4.0438 -2.2981 4.0438 1.0289 4.0438 2.2981 z" transform="matrix(1.03219,0,0,.84238,-393.86876,-155.19391)"/>
<path d="m 180.454 260.113 c 0 5.7826 -3.7639 10.4757 -8.4014 10.4757 s -8.4014 -4.6931 -8.4014 -10.4757" fill="#fff" stroke="#fff"/>
<path d="m 555.697 499.139 c 0 1.3668 -4.2145 2.4749 -9.4134 2.4749 s -9.4134 -1.108 -9.4134 -2.4749 4.2145 -2.4749 9.4134 -2.4749 9.4134 1.108 9.4134 2.4749 z" stroke="#fff" stroke-width="1.0458" transform="matrix(.8925,0,0,1.02454,-315.50583,-251.27347)"/>
<path d="m 555.697 499.139 c 0 1.3668 -4.2145 2.4749 -9.4134 2.4749 s -9.4134 -1.108 -9.4134 -2.4749 4.2145 -2.4749 9.4134 -2.4749 9.4134 1.108 9.4134 2.4749 z" fill="#fff" transform="matrix(.65977,0,0,.75738,-188.36974,-118.58496)"/>
<path d="m 546.25 503.143 c 0 1.2944 -0.9094 2.3438 -2.0312 2.3438 s -2.0312 -1.0493 -2.0312 -2.3438 0.9094 -2.3438 2.0312 -2.3438 2.0312 1.0493 2.0312 2.3438 z" fill="#fff" stroke="#000" stroke-width="1.1425" transform="matrix(.785,0,0,.97597,-255.14856,-224.57035)"/>
<path d="m 546.25 503.143 c 0 1.2944 -0.9094 2.3438 -2.0312 2.3438 s -2.0312 -1.0493 -2.0312 -2.3438 0.9094 -2.3438 2.0312 -2.3438 2.0312 1.0493 2.0312 2.3438 z" fill="#fff" stroke="#000" stroke-width="1.1425" transform="matrix(-.78132,-.0976,.09843,.99285,539.9643,-181.53012)"/>
<path d="m 546.25 503.143 c 0 1.2944 -0.9094 2.3438 -2.0312 2.3438 s -2.0312 -1.0493 -2.0312 -2.3438 0.9094 -2.3438 2.0312 -2.3438 2.0312 1.0493 2.0312 2.3438 z" fill="#fff" stroke="#000" stroke-width="1.1425" transform="matrix(.78132,-.0976,-.09843,.99285,-196.03554,-181.53012)"/>
<path d="m 177.366 278.531 c 0 1.0219 -2.413 1.8513 -5.3862 1.8513 s -5.3862 -0.8294 -5.3862 -1.8513" fill="none" stroke="#000"/>
<path d="m 175.242 272.272 c 0 0.5981 -1.4612 1.0835 -3.2617 1.0835 s -3.2617 -0.4854 -3.2617 -1.0835" fill="none" stroke="#000"/>
<path d="m 165.638 264.431 c 0 0.5311 -0.4306 0.9617 -0.9617 0.9617 s -0.9617 -0.4306 -0.9617 -0.9617 0.4306 -0.9617 0.9617 -0.9617 0.9617 0.4306 0.9617 0.9617 z" transform="translate(-.1509,1.5463)"/>
<path d="m 165.638 264.431 c 0 0.5311 -0.4306 0.9617 -0.9617 0.9617 s -0.9617 -0.4306 -0.9617 -0.9617 0.4306 -0.9617 0.9617 -0.9617 0.9617 0.4306 0.9617 0.9617 z" transform="translate(7.3164,2.9794)"/>
<path d="m 165.638 264.431 c 0 0.5311 -0.4306 0.9617 -0.9617 0.9617 s -0.9617 -0.4306 -0.9617 -0.9617 0.4306 -0.9617 0.9617 -0.9617 0.9617 0.4306 0.9617 0.9617 z" transform="translate(14.6329,1.5463)"/>
</g>
</svg>
