<svg viewBox="0 0 512 512" xmlns="http://www.w3.org/2000/svg">

<g transform="matrix(18.68858,0,0,18.68858,-2953.4866,-4788.151)">
<path d="m170.9239,262.2636c0,7.1902-1.8811,15.8182-4.6856,16.9689-.6285.2578-1.127.6115-1.2551,1.1526-.2397,1.0129 3.1487,2.049 7.0563,2.0491s7.0842-.9233 7.0842-2.0491c0-.4809-.6576-.7326-1.5619-1.2487-2.5614-1.4618-4.8529-9.7634-4.853-16.8728h-1.785z" fill="#fff"/>
<path d="m552.383,504.6638c0,1.2692-1.8105,2.2981-4.0438,2.2981s-4.0438-1.0289-4.0438-2.2981 1.8104-2.2981 4.0438-2.2981 4.0438,1.0289 4.0438,2.2981z" transform="matrix(1.03219,0,0,.84238,-393.86876,-155.19391)"/>
<path d="m180.4538,260.1135c0,5.7826-3.7639,10.4757-8.4014,10.4757s-8.4014-4.6931-8.4014-10.4757" fill="#fff" stroke="#fff"/>
<path d="m555.6975,499.1395c0,1.3668-4.2145,2.4749-9.4134,2.4749s-9.4134-1.108-9.4134-2.4749 4.2145-2.4749 9.4134-2.4749 9.4134,1.108 9.4134,2.4749z" stroke="#fff" stroke-width="1.0458" transform="matrix(.8925,0,0,1.02454,-315.50583,-251.27347)"/>
<path d="m555.6975,499.1395c0,1.3668-4.2145,2.4749-9.4134,2.4749s-9.4134-1.108-9.4134-2.4749 4.2145-2.4749 9.4134-2.4749 9.4134,1.108 9.4134,2.4749z" fill="#fff" transform="matrix(.65977,0,0,.75738,-188.36974,-118.58496)"/>
<path d="m546.25,503.1434c0,1.2944-.9094,2.3438-2.0312,2.3438s-2.0312-1.0493-2.0312-2.3438 .9094-2.3438 2.0312-2.3438 2.0312,1.0493 2.0312,2.3438z" fill="#fff" stroke="#000" stroke-width="1.1425" transform="matrix(.785,0,0,.97597,-255.14856,-224.57035)"/>
<path d="m546.25,503.1434c0,1.2944-.9094,2.3438-2.0312,2.3438s-2.0312-1.0493-2.0312-2.3438 .9094-2.3438 2.0312-2.3438 2.0312,1.0493 2.0312,2.3438z" fill="#fff" stroke="#000" stroke-width="1.1425" transform="matrix(-.78132,-.0976,.09843,.99285,539.9643,-181.53012)"/>
<path d="m546.25,503.1434c0,1.2944-.9094,2.3438-2.0312,2.3438s-2.0312-1.0493-2.0312-2.3438 .9094-2.3438 2.0312-2.3438 2.0312,1.0493 2.0312,2.3438z" fill="#fff" stroke="#000" stroke-width="1.1425" transform="matrix(.78132,-.0976,-.09843,.99285,-196.03554,-181.53012)"/>
<path d="m177.3662,278.5305c0,1.0219-2.413,1.8513-5.3862,1.8513s-5.3862-.8294-5.3862-1.8513" fill="none" stroke="#000"/>
<path d="m175.2416,272.2719c0,.5981-1.4612,1.0835-3.2617,1.0835s-3.2617-.4854-3.2617-1.0835" fill="none" stroke="#000"/>
<path d="m165.638,264.4313c0,.5311-.4306.9617-.9617.9617s-.9617-.4306-.9617-.9617 .4306-.9617.9617-.9617 .9617.4306.9617.9617z" transform="translate(-.1509,1.5463)"/>
<path d="m165.638,264.4313c0,.5311-.4306.9617-.9617.9617s-.9617-.4306-.9617-.9617 .4306-.9617.9617-.9617 .9617.4306.9617.9617z" transform="translate(7.3164,2.9794)"/>
<path d="m165.638,264.4313c0,.5311-.4306.9617-.9617.9617s-.9617-.4306-.9617-.9617 .4306-.9617.9617-.9617 .9617.4306.9617.9617z" transform="translate(14.6329,1.5463)"/>
</g>
</svg>
