<svg viewBox="0 0 512 512" xmlns="http://www.w3.org/2000/svg">

<g transform="matrix(18.68858,0,0,18.68858,-4313.27031,-31998.64185)">
<path d="m200.2652,1725.3429h17.4372v15.7406h-17.4372z" fill="#fff" transform="matrix(-.96593,.25882,.25882,.96593,0,0)"/>
<path d="m254.1157,1722.2944c.8831,2.6122-1.2554,2.651-2.0562,1.9825-.8971-.7487-3.4-.3413-2.6342,2.5156s3.1572,2.3959 3.4779,1.5447c.4611-1.2247 2.3546-1.9763 2.9472-.2544"/>
<path d="m251.0044,1735.246c-1.9058.6638-1.3645-1.6887-1.1308-1.8918 .8817-.7667.1245-4.2149-2.7327-3.4494s-2.2869,3.9187-1.4362,4.2391c1.2239.462 2.699,1.8822-.0542,2.62"/>
<path d="m240.9806,1722.105c1.8303-.4906.9839-3.205.63-3.2738-1.3353-.2599-2.5791-4.1773.7471-5.0687s4.4308,2.8559 2.7734,4.2435c-1.1679.9778.0286,3.0126 2.0992,2.4578" fill="#fff"/>
<path d="m239.0344,1732.7377c-.867-1.3102-2.5688-.1245-2.6274.1776-.2216,1.1385-3.5614,2.199-4.3213-.6372s2.2334-3.9101 2.9312-3.3379c1.0045.8229 2.8837.5379 2.7823-.815" fill="#fff"/>
</g>
</svg>
