<svg viewBox="0 0 512 512" xmlns="http://www.w3.org/2000/svg">

<g transform="matrix(18.68858,0,0,18.68858,-7718.03244,-28581.19205)">
<path d="m414.848,1544.6627 3.1594-12.5209 13.9122-1.9043 5.8636,11.4412-2.4573,12.1112-13.7494,2.5159z" fill="#fff"/>
<g fill="#fff" stroke="#000" stroke-width=".9126" transform="matrix(-.14571,-1.015,1.015,-.14571,-750.19621,2380.4313)">
<path d="m633.3457,1245.0755v13.871l11.9217,4.8947 11.9557-4.8947v-13.871" fill="none" stroke="#000" stroke-width=".9752"/>
<path d="m645.2439,1255.1123 .0176-5.5434 11.078-4.5206-11.0604-4.5394-11.0604,4.5394 5.1588,2.1184 3.9048-1.6627c-2.0478-1.1617 1.3921-2.9505 3.8705-1.607l3.1711-1.316" fill="none" stroke="#000" stroke-width=".9752"/>
</g>
<path d="m428.3219,1548.9696 1.6147-6.4882-3.3057-5.568c2.621-.3764 1.0631-3.1466-1.6379-2.7589l-1.5935-2.6842" fill="none" stroke="#000"/>
<path d="m437.1808,1547.7137-2.5111.3688c.4346-2.6778-2.7563-2.9466-3.4144.5017l-8.4993,1.2485" fill="none" stroke="#000"/>
<path d="m436.541,1538.0865-2.5191.3706c1.4867,2.7541-1.3297,3.2462-3.0769.4527l-2.7119.399" fill="none" stroke="#000"/>
</g>
</svg>
