<svg viewBox="0 0 512 512" xmlns="http://www.w3.org/2000/svg">

<g transform="matrix(18.68858,0,0,18.68858,-4313.27031,-31998.64185)">
<path d="m 200.265 1725.34 h 17.4372 v 15.7406 h -17.4372 z" fill="#fff" transform="matrix(-.96593,.25882,.25882,.96593,0,0)"/>
<path d="m 254.116 1722.29 c 0.8831 2.6122 -1.2554 2.651 -2.0562 1.9825 -0.8971 -0.7487 -3.4 -0.3413 -2.6342 2.5156 s 3.1572 2.3959 3.4779 1.5447 c 0.4611 -1.2247 2.3546 -1.9763 2.9472 -0.2544"/>
<path d="m 251.004 1735.25 c -1.9058 0.6638 -1.3645 -1.6887 -1.1308 -1.8918 0.8817 -0.7667 0.1245 -4.2149 -2.7327 -3.4494 s -2.2869 3.9187 -1.4362 4.2391 c 1.2239 0.462 2.699 1.8822 -0.0542 2.62"/>
<path d="m 240.981 1722.11 c 1.8303 -0.4906 0.9839 -3.205 0.63 -3.2738 -1.3353 -0.2599 -2.5791 -4.1773 0.7471 -5.0687 s 4.4308 2.8559 2.7734 4.2435 c -1.1679 0.9778 0.0286 3.0126 2.0992 2.4578" fill="#fff"/>
<path d="m 239.034 1732.74 c -0.867 -1.3102 -2.5688 -0.1245 -2.6274 0.1776 -0.2216 1.1385 -3.5614 2.199 -4.3213 -0.6372 s 2.2334 -3.9101 2.9312 -3.3379 c 1.0045 0.8229 2.8837 0.5379 2.7823 -0.815" fill="#fff"/>
</g>
</svg>
