<svg viewBox="0 0 512 512" xmlns="http://www.w3.org/2000/svg">

<g transform="matrix(18.68858,0,0,18.68858,-9084.83627,-38101.76623)">
<path d="m512.0074,2062.2083c0,1.0562-1.809,1.9124-4.0405,1.9124s-4.0405-.8562-4.0405-1.9124 1.809-1.9125 4.0405-1.9125 4.0405.8562 4.0405,1.9125z" fill="#fff" stroke="#000" stroke-width=".7853" transform="matrix(1.14,0,0,1.42248,-70.65745,-871.395)"/>
<path d="m508.434,2058.9685c-9.0742,1.916-12.0652-4.8454-7.0639-6.6472 9.5082-3.4255 4.0971-11.5614-14.3005-7.8296v1.023c14.3413-2.0145 18.2761,2.0416 12.1068,4.2458-6.359,2.272-11.3933,13.7911 9.3075,14.5129z" fill="#fff"/>
<path d="m508.8878,2042.8577c1.2152.1561 2.164,1.4635 2.164,3.0413-1e-05,.8739-.3027,1.6542-.769,2.2104 2.5274.4702 2.7185,4.6819 2.7184,7.6388h-1.7527l-.465,6.1711h-4.4533l-.4113-6.1711h-1.6633c0-2.9651-.0603-7.2509 2.7006-7.6741-.4462-.5534-.7333-1.3227-.7333-2.1751 4e-05-1.6829 1.0836-3.0413 2.4144-3.0413 .0831,0 .1694-.012.2504,0z" fill="#fff" fill-rule="evenodd" stroke="#000"/>
</g>
</svg>
