<svg viewBox="0 0 512 512" xmlns="http://www.w3.org/2000/svg">

<g transform="matrix(18.68858,0,0,18.68858,-9084.83627,-38101.76623)">
<path d="m 512.007 2062.21 c 0 1.0562 -1.809 1.9124 -4.0405 1.9124 s -4.0405 -0.8562 -4.0405 -1.9124 1.809 -1.9125 4.0405 -1.9125 4.0405 0.8562 4.0405 1.9125 z" fill="#fff" stroke="#000" stroke-width=".7853" transform="matrix(1.14,0,0,1.42248,-70.65745,-871.395)"/>
<path d="m 508.434 2058.97 c -9.0742 1.916 -12.0652 -4.8454 -7.0639 -6.6472 9.5082 -3.4255 4.0971 -11.5614 -14.3005 -7.8296 v 1.023 c 14.3413 -2.0145 18.2761 2.0416 12.1068 4.2458 -6.359 2.272 -11.3933 13.7911 9.3075 14.5129 z" fill="#fff"/>
<path d="m 508.888 2042.86 c 1.2152 0.1561 2.164 1.4635 2.164 3.0413 -1e-05 0.8739 -0.3027 1.6542 -0.769 2.2104 2.5274 0.4702 2.7185 4.6819 2.7184 7.6388 h -1.7527 l -0.465 6.1711 h -4.4533 l -0.4113 -6.1711 h -1.6633 c 0 -2.9651 -0.0603 -7.2509 2.7006 -7.6741 -0.4462 -0.5534 -0.7333 -1.3227 -0.7333 -2.1751 4e-05 -1.6829 1.0836 -3.0413 2.4144 -3.0413 0.0831 0 0.1694 -0.012 0.2504 0 z" fill="#fff" fill-rule="evenodd" stroke="#000"/>
</g>
</svg>
