<svg viewBox="0 0 512 512" xmlns="http://www.w3.org/2000/svg">

<g transform="matrix(18.68858,0,0,18.68858,-10390.31843,-42138.20591)">
<path d="m 575.035 2277.36 5.0552 -2.3574 c 1.6561 -0.9464 -0.0671 -3.0936 -1.639 -2.2311 l -2.7112 1.1751 -2.2267 -3.4479 -3.1983 0.6475 z" fill="#fff"/>
<path d="m 574.311 2272.9 -4.6692 -2.5468 -4.3835 2.5468 c 2.5171 2.6684 2.8164 5.3385 0 8.0099 h 9.0527 c -2.7832 -2.67 -2.1696 -5.34 0 -8.0099 z" fill="#fff"/>
<path d="m 29.3565 1146.4 c 0 1.4124 -1.145 2.5574 -2.5574 2.5574 s -2.5574 -1.145 -2.5574 -2.5574 1.145 -2.5573 2.5574 -2.5573 2.5574 1.1449 2.5574 2.5573 z" fill="#fff" transform="matrix(.97195,-.26043,.34192,1.27608,151.78339,810.85647)"/>
<path d="m 29.3565 1146.4 c 0 1.4124 -1.145 2.5574 -2.5574 2.5574 s -2.5574 -1.145 -2.5574 -2.5574 1.145 -2.5573 2.5574 -2.5573 2.5574 1.1449 2.5574 2.5573 z" fill="#fff" transform="matrix(-1.51789,0,0,.83069,610.49104,1318.8455)"/>
<path d="m 564.568 2277.36 -5.0552 -2.3574 c -1.6561 -0.9464 0.0671 -3.0936 1.639 -2.2311 l 2.7112 1.1751 2.2267 -3.4479 3.1983 0.6475 z" fill="#fff"/>
</g>
<path d="m 566.154 2270.36 c 0 1.2803 -1.0379 2.3181 -2.3181 2.3181 s -2.3181 -1.0378 -2.3181 -2.3181 1.0379 -2.3181 2.3181 -2.3181 2.3181 1.0379 2.3181 2.3181 z" fill="#fff" stroke="#000" transform="matrix(18.68858,0,0,18.68858,-10449.63037,-42172.29575)"/>
<path d="m 566.154 2270.36 c 0 1.2803 -1.0379 2.3181 -2.3181 2.3181 s -2.3181 -1.0378 -2.3181 -2.3181 1.0379 -2.3181 2.3181 -2.3181 2.3181 1.0379 2.3181 2.3181 z" fill="#fff" stroke="#000" transform="matrix(18.68858,0,0,18.68858,-10407.53622,-42313.52535)"/>
<path d="m 566.154 2270.36 c 0 1.2803 -1.0379 2.3181 -2.3181 2.3181 s -2.3181 -1.0378 -2.3181 -2.3181 1.0379 -2.3181 2.3181 -2.3181 2.3181 1.0379 2.3181 2.3181 z" fill="#fff" stroke="#000" transform="matrix(18.68858,0,0,18.68858,-10255.3794,-42374.70242)"/>
<path d="m 566.154 2270.36 c 0 1.2803 -1.0379 2.3181 -2.3181 2.3181 s -2.3181 -1.0378 -2.3181 -2.3181 1.0379 -2.3181 2.3181 -2.3181 2.3181 1.0379 2.3181 2.3181 z" fill="#fff" stroke="#000" transform="matrix(18.68858,0,0,18.68858,-10123.25301,-42290.87853)"/>
<path d="m 566.154 2270.36 c 0 1.2803 -1.0379 2.3181 -2.3181 2.3181 s -2.3181 -1.0378 -2.3181 -2.3181 1.0379 -2.3181 2.3181 -2.3181 2.3181 1.0379 2.3181 2.3181 z" fill="#fff" stroke="#000" transform="matrix(18.68858,0,0,18.68858,-10103.3964,-42121.16006)"/>
</svg>
