<svg viewBox="0 0 512 512" xmlns="http://www.w3.org/2000/svg">

<g transform="matrix(18.68858,0,0,18.68858,-7042.9661,-38782.931)">
<g transform="matrix(1,0,0,1,-218.56863,-218.59274)">
<g transform="translate(145.9977,837.3821)">
<path d="m467.4894,1471.046c0,2.0988-1.7014,3.8001-3.8001,3.8001s-3.8001-1.7013-3.8001-3.8001 1.7014-3.8001 3.8001-3.8001 3.8001,1.7014 3.8001,3.8001z" fill="#fff" transform="matrix(1.03486,.27729,-.27729,1.03486,391.09342,-180.56991)"/>
<path d="m467.4894,1471.046c0,2.0988-1.7014,3.8001-3.8001,3.8001s-3.8001-1.7013-3.8001-3.8001 1.7014-3.8001 3.8001-3.8001 3.8001,1.7014 3.8001,3.8001z" fill="#fff" transform="matrix(.54787,.1468,-.1468,.54787,418.08819,594.48729)"/>
<path d="m467.4894,1471.046c0,2.0988-1.7014,3.8001-3.8001,3.8001s-3.8001-1.7013-3.8001-3.8001 1.7014-3.8001 3.8001-3.8001 3.8001,1.7014 3.8001,3.8001z" fill="#fff" transform="matrix(.3551,.09515,-.09515,.3551,427.13343,900.84128)"/>
<path d="m467.4894,1471.046c0,2.0988-1.7014,3.8001-3.8001,3.8001s-3.8001-1.7013-3.8001-3.8001 1.7014-3.8001 3.8001-3.8001 3.8001,1.7014 3.8001,3.8001z" fill="#fff" transform="matrix(-.54787,-.1468,-.1468,.54787,939.97122,734.32545)"/>
<path d="m467.4894,1471.046c0,2.0988-1.7014,3.8001-3.8001,3.8001s-3.8001-1.7013-3.8001-3.8001 1.7014-3.8001 3.8001-3.8001 3.8001,1.7014 3.8001,3.8001z" fill="#fff" transform="matrix(-.3551,-.09515,-.09515,.3551,778.96085,995.11317)"/>
<path d="m467.4894,1471.046c0,2.0988-1.7014,3.8001-3.8001,3.8001s-3.8001-1.7013-3.8001-3.8001 1.7014-3.8001 3.8001-3.8001 3.8001,1.7014 3.8001,3.8001z" fill="#fff" transform="matrix(.1468,.54787,-.54787,.1468,1199.0984,993.45255)"/>
<path d="m467.4894,1471.046c0,2.0988-1.7014,3.8001-3.8001,3.8001s-3.8001-1.7013-3.8001-3.8001 1.7014-3.8001 3.8001-3.8001 3.8001,1.7014 3.8001,3.8001z" fill="#fff" transform="matrix(.09515,.3551,-.3551,.09515,938.31064,1154.4629)"/>
<path d="m467.4894,1471.046c0,2.0988-1.7014,3.8001-3.8001,3.8001s-3.8001-1.7013-3.8001-3.8001 1.7014-3.8001 3.8001-3.8001 3.8001,1.7014 3.8001,3.8001z" fill="#fff" transform="matrix(-.1468,-.54787,-.54787,.1468,1338.9364,1515.3356)"/>
<path d="m467.4894,1471.046c0,2.0988-1.7014,3.8001-3.8001,3.8001s-3.8001-1.7013-3.8001-3.8001 1.7014-3.8001 3.8001-3.8001 3.8001,1.7014 3.8001,3.8001z" fill="#fff" transform="matrix(-.09515,-.3551,-.3551,.09515,1032.5825,1506.2904)"/>
<path d="m467.4894,1471.046c0,2.0988-1.7014,3.8001-3.8001,3.8001s-3.8001-1.7013-3.8001-3.8001 1.7014-3.8001 3.8001-3.8001 3.8001,1.7014 3.8001,3.8001z" fill="#fff" transform="matrix(-.40107,.40107,-.40107,-.40107,1244.0894,1869.31)"/>
<path d="m467.4894,1471.046c0,2.0988-1.7014,3.8001-3.8001,3.8001s-3.8001-1.7013-3.8001-3.8001 1.7014-3.8001 3.8001-3.8001 3.8001,1.7014 3.8001,3.8001z" fill="#fff" transform="matrix(-.25995,.25995,-.25995,-.25995,974.25646,1723.9662)"/>
<path d="m467.4894,1471.046c0,2.0988-1.7014,3.8001-3.8001,3.8001s-3.8001-1.7013-3.8001-3.8001 1.7014-3.8001 3.8001-3.8001 3.8001,1.7014 3.8001,3.8001z" fill="#fff" transform="matrix(.40107,-.40107,-.40107,-.40107,862.04434,2251.3546)"/>
<path d="m467.4894,1471.046c0,2.0988-1.7014,3.8001-3.8001,3.8001s-3.8001-1.7013-3.8001-3.8001 1.7014-3.8001 3.8001-3.8001 3.8001,1.7014 3.8001,3.8001z" fill="#fff" transform="matrix(.25995,-.25995,-.25995,-.25995,716.70083,1981.5218)"/>
<path d="m467.4894,1471.046c0,2.0988-1.7014,3.8001-3.8001,3.8001s-3.8001-1.7013-3.8001-3.8001 1.7014-3.8001 3.8001-3.8001 3.8001,1.7014 3.8001,3.8001z" fill="#fff" transform="matrix(.26036,-.26036,-.26036,-.26036,722.92592,1983.0611)"/>
<path d="m467.4894,1471.046c0,2.0988-1.7014,3.8001-3.8001,3.8001s-3.8001-1.7013-3.8001-3.8001 1.7014-3.8001 3.8001-3.8001 3.8001,1.7014 3.8001,3.8001z" fill="#fff" transform="matrix(.26036,-.26036,-.26036,-.26036,727.65951,1965.3952)"/>
<path d="m467.4894,1471.046c0,2.0988-1.7014,3.8001-3.8001,3.8001s-3.8001-1.7013-3.8001-3.8001 1.7014-3.8001 3.8001-3.8001 3.8001,1.7014 3.8001,3.8001z" fill="#fff" transform="matrix(.35566,.0953,.0953,-.35566,149.08563,1951.8685)"/>
<path d="m467.4894,1471.046c0,2.0988-1.7014,3.8001-3.8001,3.8001s-3.8001-1.7013-3.8001-3.8001 1.7014-3.8001 3.8001-3.8001 3.8001,1.7014 3.8001,3.8001z" fill="#fff" transform="matrix(.35566,.0953,.0953,-.35566,166.75169,1947.1349)"/>
<path d="m467.4894,1471.046c0,2.0988-1.7014,3.8001-3.8001,3.8001s-3.8001-1.7013-3.8001-3.8001 1.7014-3.8001 3.8001-3.8001 3.8001,1.7014 3.8001,3.8001z" fill="#fff" transform="matrix(.0953,.35566,.35566,-.0953,-110.82088,1439.3119)"/>
<path d="m467.4894,1471.046c0,2.0988-1.7014,3.8001-3.8001,3.8001s-3.8001-1.7013-3.8001-3.8001 1.7014-3.8001 3.8001-3.8001 3.8001,1.7014 3.8001,3.8001z" fill="#fff" transform="matrix(.0953,.35566,.35566,-.0953,-97.88838,1452.2444)"/>
<path d="m466.8162,1468.0709c0,1.164-.9436,2.1075-2.1075,2.1075s-2.1075-.9435-2.1075-2.1075 .9436-2.1075 2.1075-2.1075 2.1075.9436 2.1075,2.1075z" transform="matrix(1.2375,0,0,1.2375,-110.97423,-347.90286)"/>
<path d="m466.8162,1468.0709c0,1.164-.9436,2.1075-2.1075,2.1075s-2.1075-.9435-2.1075-2.1075 .9436-2.1075 2.1075-2.1075 2.1075.9436 2.1075,2.1075z" transform="matrix(.5,0,0,.5,236.56939,730.29459)"/>
<path d="m466.8162,1468.0709c0,1.164-.9436,2.1075-2.1075,2.1075s-2.1075-.9435-2.1075-2.1075 .9436-2.1075 2.1075-2.1075 2.1075.9436 2.1075,2.1075z" transform="matrix(.5,0,0,.5,229.50919,728.23976)"/>
<path d="m466.8162,1468.0709c0,1.164-.9436,2.1075-2.1075,2.1075s-2.1075-.9435-2.1075-2.1075 .9436-2.1075 2.1075-2.1075 2.1075.9436 2.1075,2.1075z" transform="matrix(.5,0,0,.5,224.45114,733.40319)"/>
<path d="m466.8162,1468.0709c0,1.164-.9436,2.1075-2.1075,2.1075s-2.1075-.9435-2.1075-2.1075 .9436-2.1075 2.1075-2.1075 2.1075.9436 2.1075,2.1075z" transform="matrix(.5,0,0,.5,226.4006,740.35801)"/>
<path d="m466.8162,1468.0709c0,1.164-.9436,2.1075-2.1075,2.1075s-2.1075-.9435-2.1075-2.1075 .9436-2.1075 2.1075-2.1075 2.1075.9436 2.1075,2.1075z" transform="matrix(.5,0,0,.5,233.36821,742.16219)"/>
<path d="m466.8162,1468.0709c0,1.164-.9436,2.1075-2.1075,2.1075s-2.1075-.9435-2.1075-2.1075 .9436-2.1075 2.1075-2.1075 2.1075.9436 2.1075,2.1075z" transform="matrix(.5,0,0,.5,238.3081,737.09135)"/>
<path d="m466.8162,1468.0709c0,1.164-.9436,2.1075-2.1075,2.1075s-2.1075-.9435-2.1075-2.1075 .9436-2.1075 2.1075-2.1075 2.1075.9436 2.1075,2.1075z" transform="matrix(.35625,0,0,.35625,295.6393,955.76631)"/>
<path d="m466.8162,1468.0709c0,1.164-.9436,2.1075-2.1075,2.1075s-2.1075-.9435-2.1075-2.1075 .9436-2.1075 2.1075-2.1075 2.1075.9436 2.1075,2.1075z" transform="matrix(.35625,0,0,.35625,301.1452,958.0319)"/>
<path d="m466.8162,1468.0709c0,1.164-.9436,2.1075-2.1075,2.1075s-2.1075-.9435-2.1075-2.1075 .9436-2.1075 2.1075-2.1075 2.1075.9436 2.1075,2.1075z" transform="matrix(.35625,0,0,.35625,289.81727,954.81792)"/>
<path d="m466.8162,1468.0709c0,1.164-.9436,2.1075-2.1075,2.1075s-2.1075-.9435-2.1075-2.1075 .9436-2.1075 2.1075-2.1075 2.1075.9436 2.1075,2.1075z" transform="matrix(.35625,0,0,.35625,289.13233,949.23299)"/>
<path d="m466.8162,1468.0709c0,1.164-.9436,2.1075-2.1075,2.1075s-2.1075-.9435-2.1075-2.1075 .9436-2.1075 2.1075-2.1075 2.1075.9436 2.1075,2.1075z" transform="matrix(.35625,0,0,.35625,304.22746,953.21094)"/>
<path d="m466.8162,1468.0709c0,1.164-.9436,2.1075-2.1075,2.1075s-2.1075-.9435-2.1075-2.1075 .9436-2.1075 2.1075-2.1075 2.1075.9436 2.1075,2.1075z" transform="matrix(.35625,0,0,.35625,309.12745,949.60181)"/>
<path d="m466.8162,1468.0709c0,1.164-.9436,2.1075-2.1075,2.1075s-2.1075-.9435-2.1075-2.1075 .9436-2.1075 2.1075-2.1075 2.1075.9436 2.1075,2.1075z" transform="matrix(.35625,0,0,.35625,306.73014,944.43838)"/>
<path d="m466.8162,1468.0709c0,1.164-.9436,2.1075-2.1075,2.1075s-2.1075-.9435-2.1075-2.1075 .9436-2.1075 2.1075-2.1075 2.1075.9436 2.1075,2.1075z" transform="matrix(.35625,0,0,.35625,286.78771,943.77978)"/>
<path d="m466.8162,1468.0709c0,1.164-.9436,2.1075-2.1075,2.1075s-2.1075-.9435-2.1075-2.1075 .9436-2.1075 2.1075-2.1075 2.1075.9436 2.1075,2.1075z" transform="matrix(.35625,0,0,.35625,291.47695,940.40774)"/>
<path d="m466.8162,1468.0709c0,1.164-.9436,2.1075-2.1075,2.1075s-2.1075-.9435-2.1075-2.1075 .9436-2.1075 2.1075-2.1075 2.1075.9436 2.1075,2.1075z" transform="matrix(.35625,0,0,.35625,300.40758,938.14215)"/>
<path d="m466.8162,1468.0709c0,1.164-.9436,2.1075-2.1075,2.1075s-2.1075-.9435-2.1075-2.1075 .9436-2.1075 2.1075-2.1075 2.1075.9436 2.1075,2.1075z" transform="matrix(.35625,0,0,.35625,306.25595,938.51097)"/>
<path d="m466.8162,1468.0709c0,1.164-.9436,2.1075-2.1075,2.1075s-2.1075-.9435-2.1075-2.1075 .9436-2.1075 2.1075-2.1075 2.1075.9436 2.1075,2.1075z" transform="matrix(.35625,0,0,.35625,294.95436,935.48141)"/>
<path d="m466.8162,1468.0709c0,1.164-.9436,2.1075-2.1075,2.1075s-2.1075-.9435-2.1075-2.1075 .9436-2.1075 2.1075-2.1075 2.1075.9436 2.1075,2.1075z" fill="#fff" transform="matrix(1.2375,0,0,1.2375,-112.30462,-346.3221)"/>
<path d="m466.8162,1468.0709c0,1.164-.9436,2.1075-2.1075,2.1075s-2.1075-.9435-2.1075-2.1075 .9436-2.1075 2.1075-2.1075 2.1075.9436 2.1075,2.1075z" fill="#fff" transform="matrix(.5,0,0,.5,235.87126,731.13767)"/>
<path d="m466.8162,1468.0709c0,1.164-.9436,2.1075-2.1075,2.1075s-2.1075-.9435-2.1075-2.1075 .9436-2.1075 2.1075-2.1075 2.1075.9436 2.1075,2.1075z" fill="#fff" transform="matrix(.5,0,0,.5,228.81106,729.08284)"/>
<path d="m466.8162,1468.0709c0,1.164-.9436,2.1075-2.1075,2.1075s-2.1075-.9435-2.1075-2.1075 .9436-2.1075 2.1075-2.1075 2.1075.9436 2.1075,2.1075z" fill="#fff" transform="matrix(.5,0,0,.5,223.75301,734.24627)"/>
<path d="m466.8162,1468.0709c0,1.164-.9436,2.1075-2.1075,2.1075s-2.1075-.9435-2.1075-2.1075 .9436-2.1075 2.1075-2.1075 2.1075.9436 2.1075,2.1075z" fill="#fff" transform="matrix(.5,0,0,.5,225.70247,741.20109)"/>
<path d="m466.8162,1468.0709c0,1.164-.9436,2.1075-2.1075,2.1075s-2.1075-.9435-2.1075-2.1075 .9436-2.1075 2.1075-2.1075 2.1075.9436 2.1075,2.1075z" fill="#fff" transform="matrix(.5,0,0,.5,232.67008,743.00527)"/>
<path d="m466.8162,1468.0709c0,1.164-.9436,2.1075-2.1075,2.1075s-2.1075-.9435-2.1075-2.1075 .9436-2.1075 2.1075-2.1075 2.1075.9436 2.1075,2.1075z" fill="#fff" transform="matrix(.5,0,0,.5,237.60997,737.93443)"/>
<path d="m466.8162,1468.0709c0,1.164-.9436,2.1075-2.1075,2.1075s-2.1075-.9435-2.1075-2.1075 .9436-2.1075 2.1075-2.1075 2.1075.9436 2.1075,2.1075z" fill="#fff" transform="matrix(.35625,0,0,.35625,294.94117,956.60939)"/>
<path d="m466.8162,1468.0709c0,1.164-.9436,2.1075-2.1075,2.1075s-2.1075-.9435-2.1075-2.1075 .9436-2.1075 2.1075-2.1075 2.1075.9436 2.1075,2.1075z" fill="#fff" transform="matrix(.35625,0,0,.35625,300.44707,958.87498)"/>
<path d="m466.8162,1468.0709c0,1.164-.9436,2.1075-2.1075,2.1075s-2.1075-.9435-2.1075-2.1075 .9436-2.1075 2.1075-2.1075 2.1075.9436 2.1075,2.1075z" fill="#fff" transform="matrix(.35625,0,0,.35625,289.11914,955.661)"/>
<path d="m466.8162,1468.0709c0,1.164-.9436,2.1075-2.1075,2.1075s-2.1075-.9435-2.1075-2.1075 .9436-2.1075 2.1075-2.1075 2.1075.9436 2.1075,2.1075z" fill="#fff" transform="matrix(.35625,0,0,.35625,288.4342,950.07607)"/>
<path d="m466.8162,1468.0709c0,1.164-.9436,2.1075-2.1075,2.1075s-2.1075-.9435-2.1075-2.1075 .9436-2.1075 2.1075-2.1075 2.1075.9436 2.1075,2.1075z" fill="#fff" transform="matrix(.35625,0,0,.35625,303.52933,954.05402)"/>
<path d="m466.8162,1468.0709c0,1.164-.9436,2.1075-2.1075,2.1075s-2.1075-.9435-2.1075-2.1075 .9436-2.1075 2.1075-2.1075 2.1075.9436 2.1075,2.1075z" fill="#fff" transform="matrix(.35625,0,0,.35625,308.42932,950.44489)"/>
<path d="m466.8162,1468.0709c0,1.164-.9436,2.1075-2.1075,2.1075s-2.1075-.9435-2.1075-2.1075 .9436-2.1075 2.1075-2.1075 2.1075.9436 2.1075,2.1075z" fill="#fff" transform="matrix(.35625,0,0,.35625,306.03201,945.28146)"/>
<path d="m466.8162,1468.0709c0,1.164-.9436,2.1075-2.1075,2.1075s-2.1075-.9435-2.1075-2.1075 .9436-2.1075 2.1075-2.1075 2.1075.9436 2.1075,2.1075z" fill="#fff" transform="matrix(.35625,0,0,.35625,286.08958,944.62286)"/>
<path d="m466.8162,1468.0709c0,1.164-.9436,2.1075-2.1075,2.1075s-2.1075-.9435-2.1075-2.1075 .9436-2.1075 2.1075-2.1075 2.1075.9436 2.1075,2.1075z" fill="#fff" transform="matrix(.35625,0,0,.35625,290.77882,941.25082)"/>
<path d="m466.8162,1468.0709c0,1.164-.9436,2.1075-2.1075,2.1075s-2.1075-.9435-2.1075-2.1075 .9436-2.1075 2.1075-2.1075 2.1075.9436 2.1075,2.1075z" fill="#fff" transform="matrix(.35625,0,0,.35625,299.70945,938.98523)"/>
<path d="m466.8162,1468.0709c0,1.164-.9436,2.1075-2.1075,2.1075s-2.1075-.9435-2.1075-2.1075 .9436-2.1075 2.1075-2.1075 2.1075.9436 2.1075,2.1075z" fill="#fff" transform="matrix(.35625,0,0,.35625,305.55782,939.35405)"/>
<path d="m466.8162,1468.0709c0,1.164-.9436,2.1075-2.1075,2.1075s-2.1075-.9435-2.1075-2.1075 .9436-2.1075 2.1075-2.1075 2.1075.9436 2.1075,2.1075z" fill="#fff" transform="matrix(.35625,0,0,.35625,294.25623,936.32449)"/>
</g>
</g>
</g>
</svg>
