<svg viewBox="0 0 512 512" xmlns="http://www.w3.org/2000/svg">

<g transform="matrix(18.68858,0,0,18.68858,-9764.71802,-38781.6463)">
<path d="m 546.084 2080.33 c -2.072 -1.0914 -3.9744 -1.5597 -7.1717 -0.125 -1.287 0.5776 -2.0815 1.9379 -1.7813 3.2614 0.2188 0.9639 1.1808 1.9087 2.2036 2.4779 3.0097 1.6754 4.5286 3.6737 5.1407 5.334 -0.008 -2.0389 -0.5107 -3.9277 -1.9908 -5.7785 2.0901 0.9337 3.7087 2.1818 4.4701 3.2305 -0.5291 -1.9228 -1.4761 -3.5712 -3.3185 -4.9546 2.2345 0.3765 4.0759 1.195 5.0521 2.0071 -1.0579 -1.8165 -2.5084 -3.2175 -4.8429 -4.0744 -1.5127 0.081 -2.8334 0.3514 -3.6687 0.6866 0.99 -1.0101 2.9262 -1.8246 5.9073 -2.065 z" fill="#fff"/>
<path d="m 540.79 2090.82 c -3.0089 -0.9859 -5.04 -0.1822 -5.8778 2.2329 -0.1964 -1.2069 -1.1884 -1.8567 -2.4245 -1.8251 1.9741 1.8955 1.4087 3.8481 0.4674 5.6641 -0.9062 1.7482 0.934 4.7008 3.6546 4.7008 2.5409 0 4.7966 -1.8525 3.2021 -4.7724 -1.6135 -2.9548 -1.6883 -6.0919 0.9783 -6.0003 z" fill="#fff"/>
<path d="m 535.773 2091.61 c 1.7676 -1.9801 0.2274 -4.3666 -2.0655 -4.2327 2.5604 -1.3801 5.5594 0.8046 4.3342 3.691" fill="#fff"/>
<path d="m 539.38 2099.02 c 0 2.9908 -1.2497 3.3011 -2.7912 3.3011 s -2.7912 -0.364 -2.7912 -3.3011 c 0 -1.5416 1.2497 -2.7912 2.7912 -2.7912 s 2.7912 1.2496 2.7912 2.7912 z"/>
<path d="m 538.601 2098.62 c 0 1.5564 -1.2617 2.8181 -2.8181 2.8181 s -2.8181 -1.2617 -2.8181 -2.8181 1.2617 -2.818 2.8181 -2.818 2.8181 1.2616 2.8181 2.818 z" fill="#fff" stroke="#000" stroke-width="1.2883" transform="matrix(.77619,0,0,.77619,120.71854,471.01956)"/>
<path d="m 544.248 2079.66 c 1.8458 -1.2562 3.4266 0.4853 3.346 2.0112 -0.6872 -0.7735 -2.1925 -1.4141 -3.7683 -1.0174 z" fill="#fff"/>
<path d="m 544.253 2089.19 c 1.5307 1.2674 0.0401 2.9867 -1.4896 3.2624 0.6643 -0.7512 1.0718 -2.1594 0.4364 -3.3934 z" fill="#fff"/>
<path d="m 546.197 2086.75 c 1.9576 0.4855 1.5554 2.6952 0.3845 3.6108 0.1869 -0.9712 -0.1809 -2.4273 -1.354 -3.2717 z" fill="#fff"/>
<path d="m 547.571 2084.32 c 2.4624 0.09 1.8234 2.8358 0.6007 3.6809 0.2438 -0.9586 0.177 -2.568 -1.2664 -3.319 z" fill="#fff"/>
<path d="m 526.725 2080.33 c 2.072 -1.0914 3.9744 -1.5597 7.1717 -0.125 1.287 0.5776 2.0815 1.9379 1.7813 3.2614 -0.2188 0.9639 -1.1808 1.9087 -2.2036 2.4779 -3.0097 1.6754 -4.5286 3.6737 -5.1407 5.334 0.008 -2.0389 0.5107 -3.9277 1.9908 -5.7785 -2.0901 0.9337 -3.7087 2.1818 -4.4701 3.2305 0.5291 -1.9228 1.4761 -3.5712 3.3185 -4.9546 -2.2345 0.3765 -4.0759 1.195 -5.0521 2.0071 1.0579 -1.8165 2.5084 -3.2175 4.8429 -4.0744 1.5127 0.081 2.8334 0.3514 3.6687 0.6866 -0.99 -1.0101 -2.9262 -1.8246 -5.9073 -2.065 z" fill="#fff"/>
<path d="m 528.561 2079.66 c -1.8458 -1.2562 -3.4266 0.4853 -3.346 2.0112 0.6872 -0.7735 2.1925 -1.4141 3.7683 -1.0174 z" fill="#fff"/>
<path d="m 528.555 2089.19 c -1.5307 1.2674 -0.0401 2.9867 1.4896 3.2624 -0.6643 -0.7512 -1.0718 -2.1594 -0.4364 -3.3934 z" fill="#fff"/>
<path d="m 526.611 2086.75 c -1.9576 0.4855 -1.5554 2.6952 -0.3845 3.6108 -0.1869 -0.9712 0.1809 -2.4273 1.354 -3.2717 z" fill="#fff"/>
<path d="m 525.237 2084.32 c -2.4624 0.09 -1.8234 2.8358 -0.6007 3.6809 -0.2438 -0.9586 -0.177 -2.568 1.2664 -3.319 z" fill="#fff"/>
</g>
</svg>
