<svg viewBox="0 0 512 512" xmlns="http://www.w3.org/2000/svg">

<g transform="matrix(18.68858,0,0,18.68858,-9764.71802,-38781.6463)">
<path d="m546.0836,2080.3297c-2.072-1.0914-3.9744-1.5597-7.1717-.125-1.287.5776-2.0815,1.9379-1.7813,3.2614 .2188.9639 1.1808,1.9087 2.2036,2.4779 3.0097,1.6754 4.5286,3.6737 5.1407,5.334-.008-2.0389-.5107-3.9277-1.9908-5.7785 2.0901.9337 3.7087,2.1818 4.4701,3.2305-.5291-1.9228-1.4761-3.5712-3.3185-4.9546 2.2345.3765 4.0759,1.195 5.0521,2.0071-1.0579-1.8165-2.5084-3.2175-4.8429-4.0744-1.5127.081-2.8334.3514-3.6687.6866 .99-1.0101 2.9262-1.8246 5.9073-2.065z" fill="#fff"/>
<path d="m540.7899,2090.8225c-3.0089-.9859-5.04-.1822-5.8778,2.2329-.1964-1.2069-1.1884-1.8567-2.4245-1.8251 1.9741,1.8955 1.4087,3.8481.4674,5.6641-.9062,1.7482.934,4.7008 3.6546,4.7008 2.5409,0 4.7966-1.8525 3.2021-4.7724-1.6135-2.9548-1.6883-6.0919.9783-6.0003z" fill="#fff"/>
<path d="m535.7732,2091.6106c1.7676-1.9801.2274-4.3666-2.0655-4.2327 2.5604-1.3801 5.5594.8046 4.3342,3.691" fill="#fff"/>
<path d="m539.3796,2099.0222c0,2.9908-1.2497,3.3011-2.7912,3.3011s-2.7912-.364-2.7912-3.3011c0-1.5416 1.2497-2.7912 2.7912-2.7912s2.7912,1.2496 2.7912,2.7912z"/>
<path d="m538.6013,2098.6196c0,1.5564-1.2617,2.8181-2.8181,2.8181s-2.8181-1.2617-2.8181-2.8181 1.2617-2.818 2.8181-2.818 2.8181,1.2616 2.8181,2.818z" fill="#fff" stroke="#000" stroke-width="1.2883" transform="matrix(.77619,0,0,.77619,120.71854,471.01956)"/>
<path d="m544.2476,2079.66c1.8458-1.2562 3.4266.4853 3.346,2.0112-.6872-.7735-2.1925-1.4141-3.7683-1.0174z" fill="#fff"/>
<path d="m544.2531,2089.1907c1.5307,1.2674.0401,2.9867-1.4896,3.2624 .6643-.7512 1.0718-2.1594.4364-3.3934z" fill="#fff"/>
<path d="m546.1975,2086.7535c1.9576.4855 1.5554,2.6952.3845,3.6108 .1869-.9712-.1809-2.4273-1.354-3.2717z" fill="#fff"/>
<path d="m547.5709,2084.3248c2.4624.09 1.8234,2.8358.6007,3.6809 .2438-.9586.177-2.568-1.2664-3.319z" fill="#fff"/>
<path d="m526.7246,2080.3297c2.072-1.0914 3.9744-1.5597 7.1717-.125 1.287.5776 2.0815,1.9379 1.7813,3.2614-.2188.9639-1.1808,1.9087-2.2036,2.4779-3.0097,1.6754-4.5286,3.6737-5.1407,5.334 .008-2.0389.5107-3.9277 1.9908-5.7785-2.0901.9337-3.7087,2.1818-4.4701,3.2305 .5291-1.9228 1.4761-3.5712 3.3185-4.9546-2.2345.3765-4.0759,1.195-5.0521,2.0071 1.0579-1.8165 2.5084-3.2175 4.8429-4.0744 1.5127.081 2.8334.3514 3.6687.6866-.99-1.0101-2.9262-1.8246-5.9073-2.065z" fill="#fff"/>
<path d="m528.5606,2079.66c-1.8458-1.2562-3.4266.4853-3.346,2.0112 .6872-.7735 2.1925-1.4141 3.7683-1.0174z" fill="#fff"/>
<path d="m528.5551,2089.1907c-1.5307,1.2674-.0401,2.9867 1.4896,3.2624-.6643-.7512-1.0718-2.1594-.4364-3.3934z" fill="#fff"/>
<path d="m526.6106,2086.7535c-1.9576.4855-1.5554,2.6952-.3845,3.6108-.1869-.9712.1809-2.4273 1.354-3.2717z" fill="#fff"/>
<path d="m525.2372,2084.3248c-2.4624.09-1.8234,2.8358-.6007,3.6809-.2438-.9586-.177-2.568 1.2664-3.319z" fill="#fff"/>
</g>
</svg>
