<svg viewBox="0 0 512 512" xmlns="http://www.w3.org/2000/svg">

<g transform="matrix(18.68858,0,0,18.68858,-6356.73203,-1380.65963)">
<path d="m 353.913 75.0612 -1.2351 3.3194 -1.6597 -3.0878 -0.6176 3.165 -2.3544 -2.972 0.3474 4.2772 c 1.4588 1.4588 9.5587 1.4802 11.0389 0 l 0.3088 -4.2772 -2.3544 2.972 -0.6176 -3.165 -1.6597 3.0492 -1.1965 -3.2808 z" fill="#fff"/>
<path d="m 353.939 81.4534 c -2.3496 0 -4.2565 2.4373 -4.2565 5.4405 0 1.5978 0.5598 3.0271 1.4188 4.0227 -4.553 1.0374 -4.8504 4.6774 -4.8504 9.9908 h 15.4421 c 0 -5.2937 0.0648 -9.1348 -4.8174 -10.0897 0.8055 -0.9901 1.3198 -2.3837 1.3198 -3.9238 0 -3.0032 -1.9069 -5.4405 -4.2565 -5.4405 z" fill="#fff" fill-rule="evenodd" stroke="#000"/>
</g>
</svg>
