<svg viewBox="0 0 512 512" xmlns="http://www.w3.org/2000/svg">

<g transform="matrix(16.69329,5.71516,-5.71516,16.69329,-10034.75251,-4646.9871)">
<path d="m 640.741 67.866 c 0 -3.4657 -2.6311 -3.1443 -4.7288 -3.9819 7.4849 0 12.669 0.6387 17.5893 2.3961 -4.35 1.8418 -8.5259 1.5858 -12.8605 1.5858 z" fill="#fff" fill-rule="evenodd"/>
<path d="m 630.899 63.3462 h 8.4895 v 2.6959 c -2.8298 -0.4849 -5.6597 -0.4577 -8.4895 0 v -2.6959 z" fill="#fff" stroke="#000" stroke-width="1.0592"/>
</g>
<g transform="matrix(17.93948,13.76265,-13.76265,17.93948,-10317.82455,-9733.22692)">
<path d="m 640.741 67.866 c 0 -3.4657 -2.6311 -3.1443 -4.7288 -3.9819 7.4849 0 12.669 0.6387 17.5893 2.3961 -4.35 1.8418 -8.5259 1.5858 -12.8605 1.5858 z" fill="#fff" fill-rule="evenodd"/>
<path d="m 630.899 63.3462 h 8.4895 v 2.6959 c -2.8298 -0.4849 -5.6597 -0.4577 -8.4895 0 v -2.6959 z" fill="#fff" stroke="#000" stroke-width=".8265"/>
</g>
<g transform="matrix(9.53534,16.40028,-16.40028,9.53534,-4918.11263,-10861.95846)">
<path d="m 640.741 67.866 c 0 -3.4657 -2.6311 -3.1443 -4.7288 -3.9819 7.4849 0 12.669 0.6387 17.5893 2.3961 -4.35 1.8418 -8.5259 1.5858 -12.8605 1.5858 z" fill="#fff" fill-rule="evenodd"/>
<path d="m 630.899 63.3462 h 8.4895 v 2.6959 c -2.8298 -0.4849 -5.6597 -0.4577 -8.4895 0 v -2.6959 z" fill="#fff" stroke="#000" stroke-width=".9851"/>
</g>
</svg>
