<svg viewBox="0 0 512 512" xmlns="http://www.w3.org/2000/svg">

<g transform="matrix(18.68858,0,0,18.68858,-908.50819,-33370.52379)">
<path d="m52.8235,1792.079h18.8458c-.543,6.2237-.4544,12.4473 0,18.671-6.2819,1.6589-12.5638,1.7148-18.8458,0 .5857-6.2237.5558-12.4473 0-18.671z" fill="#fff"/>
<path d="m52.3919,1786.2006c6.5209.8923 13.0419,1.0896 19.5628,0l1.0967,8.1475c-8.2092,4.2195-15.0006,4.2005-21.61,0z" fill="#fff" stroke="#000"/>
<path d="m60.4267,1786.0817h3.6393v20.8743c0,3.3168-3.6393,3.3801-3.6393,0z" fill="#fff" stroke="#000"/>
<path d="m1799.3267-66.0463h6.6625v7.5998h-6.6625z" fill="#fff" stroke="#000" transform="matrix(0,1,-1,0,0,0)"/>
<path d="m1801.2988-63.951h2.6117v3.4092h-2.6117z" fill="#fff" stroke="#000" transform="matrix(0,1,-1,0,0,0)"/>
</g>
</svg>
