<svg viewBox="0 0 512 512" xmlns="http://www.w3.org/2000/svg">

<g transform="matrix(18.68858,0,0,18.68858,-908.50819,-33370.52379)">
<path d="m 52.8235 1792.08 h 18.8458 c -0.543 6.2237 -0.4544 12.4473 0 18.671 -6.2819 1.6589 -12.5638 1.7148 -18.8458 0 0.5857 -6.2237 0.5558 -12.4473 0 -18.671 z" fill="#fff"/>
<path d="m 52.3919 1786.2 c 6.5209 0.8923 13.0419 1.0896 19.5628 0 l 1.0967 8.1475 c -8.2092 4.2195 -15.0006 4.2005 -21.61 0 z" fill="#fff" stroke="#000"/>
<path d="m 60.4267 1786.08 h 3.6393 v 20.8743 c 0 3.3168 -3.6393 3.3801 -3.6393 0 z" fill="#fff" stroke="#000"/>
<path d="m 1799.33 -66.0463 h 6.6625 v 7.5998 h -6.6625 z" fill="#fff" stroke="#000" transform="matrix(0,1,-1,0,0,0)"/>
<path d="m 1801.3 -63.951 h 2.6117 v 3.4092 h -2.6117 z" fill="#fff" stroke="#000" transform="matrix(0,1,-1,0,0,0)"/>
</g>
</svg>
