<svg viewBox="0 0 512 512" xmlns="http://www.w3.org/2000/svg">

<g transform="matrix(18.68858,0,0,18.68858,-908.63202,-21807.57298)">
<path d="m 62.6422 1170.16 c 0 0.6713 -0.8631 1.2156 -1.9279 1.2156 s -1.9279 -0.5443 -1.9279 -1.2156 0.8631 -1.2157 1.9279 -1.2157 1.9279 0.5443 1.9279 1.2157 z" fill="#fff" stroke="#000" stroke-width=".8668" transform="matrix(.67208,-.67208,.99012,.99012,-1148.3707,51.39269)"/>
<path d="m 57.661 1174.54 -1.1848 1.1849 c -2.3136 -1.0703 -4.1699 -2.5979 -5.0759 -5.0759 l 1.1848 -1.1849 c 2.2155 0.9813 3.9073 2.7598 5.0759 5.0759 z" fill="#fff" stroke="#000"/>
<path d="m 56.5243 1177.82 c 3.0667 4.2045 7.5377 7.6416 12.1907 9.0696 -1.8564 -5.0724 -4.9559 -9.2742 -9.0469 -12.2134 l -3.1438 3.1438 z" fill="#fff"/>
<path d="m 59.606 1171.41 2.0426 2.0426 c -2.46 1.7725 -4.6111 3.8539 -6.3486 6.3486 l -2.0426 -2.0426 6.3486 -6.3486 z" fill="#fff" stroke="#000"/>
<path d="m 70.6878 1188.92 c -3.7085 -0.6892 -7.2206 -2.3158 -10.2916 -4.5502 1.6231 0.2287 3.4509 0.1424 5.4724 -0.269 0.3748 -2.1814 0.4035 -4.0776 0.168 -5.7264 2.1905 2.9914 3.7794 6.5347 4.6512 10.5456 z" fill="#fff"/>
<path d="m 75.0766 1193.33 c -4.6869 -0.8711 -9.1255 -2.9268 -13.0067 -5.7506 2.0513 0.289 4.3612 0.1799 6.9162 -0.3399 0.4737 -2.757 0.5099 -5.1535 0.2122 -7.2373 2.7684 3.7807 4.7766 8.2588 5.8783 13.3278 z" fill="#fff"/>
</g>
</svg>
