<svg viewBox="0 0 512 512" xmlns="http://www.w3.org/2000/svg">

<g transform="matrix(18.68858,0,0,18.68858,-5911.89069,-5366.63543)">
<g transform="matrix(.89998,-.89997,.89998,.89997,-243.74569,323.01911)">
<path d="m 336.094 304.062 c -0.8738 0 -1.4336 0.5353 -1.7188 1.25 l -15.9688 -0.375 c -1.6766 0.968 -1.6547 2.2947 0 3.25 l 15.9688 -0.4375 c 0.2966 0.7458 0.8795 1.3125 1.7188 1.3125 h 6.8438 v -5 h -6.8438 z" fill="#fff" stroke="#000" stroke-width=".7857"/>
<path d="m 338.351 305.759 h 4.4194" fill="none" stroke="#000" stroke-width=".7857"/>
<path d="m 338.351 307.438 h 4.4194" fill="none" stroke="#000" stroke-width=".7857"/>
</g>
<path d="m 341.375 310.809 -22.95 -22.9471 c -3.5136 3.7503 3.3438 12.5556 9.4171 13.3088 l 10.4989 12.6721 c 2.4366 0.6528 3.6956 -0.5651 3.034 -3.0337 z" fill="#fff" stroke="#000"/>
</g>
</svg>
