<svg viewBox="0 0 512 512" xmlns="http://www.w3.org/2000/svg">

<g transform="matrix(18.68858,0,0,18.68858,-5911.89069,-5366.63543)">
<g transform="matrix(.89998,-.89997,.89998,.89997,-243.74569,323.01911)">
<path d="m336.0938,304.0625c-.8738,0-1.4336.5353-1.7188,1.25l-15.9688-.375c-1.6766.968-1.6547,2.2947 0,3.25l15.9688-.4375c.2966.7458.8795,1.3125 1.7188,1.3125h6.8438v-5h-6.8438z" fill="#fff" stroke="#000" stroke-width=".7857"/>
<path d="m338.3506,305.7587h4.4194" fill="none" stroke="#000" stroke-width=".7857"/>
<path d="m338.3506,307.4381h4.4194" fill="none" stroke="#000" stroke-width=".7857"/>
</g>
<path d="m341.375,310.8087-22.95-22.9471c-3.5136,3.7503 3.3438,12.5556 9.4171,13.3088l10.4989,12.6721c2.4366.6528 3.6956-.5651 3.034-3.0337z" fill="#fff" stroke="#000"/>
</g>
</svg>
