<svg viewBox="0 0 512 512" xmlns="http://www.w3.org/2000/svg">

<g transform="matrix(18.68858,0,0,18.68858,-6362.46035,-42186.9532)">
<g transform="matrix(1.04392,0,0,1.04434,-15.65562,-100.69936)">
<path d="m348.2693,2268.6623-4.9348-.8608-1.1387,3.8616c4.5343,2.0366 8.152.4282 6.0735-3.0008z" fill="#fff"/>
<path d="m341.6272,2271.8032c5.2134,2.3416 9.373.4923 6.9831-3.4503" fill="none" stroke="#000" stroke-width=".9577"/>
<path d="m349.0645,2267.4896-3.7133-3.108-2.8143,2.6795c2.8115,3.8978 6.6135,4.3029 6.5277.4285z" fill="#fff"/>
<path d="m341.7551,2266.8209c3.3463,4.6393 7.8716,5.1214 7.7694.51" fill="none" stroke="#000" stroke-width=".9577"/>
<path d="m360.2693,2268.6623 4.9348-.8608 1.1387,3.8616c-4.5343,2.0366-8.152.4282-6.0735-3.0008z" fill="#fff"/>
<path d="m366.9114,2271.8032c-5.2134,2.3416-9.373.4923-6.9831-3.4503" fill="none" stroke="#000" stroke-width=".9577"/>
<path d="m359.4742,2267.4896 3.7133-3.108 2.8143,2.6795c-2.8115,3.8978-6.6135,4.3029-6.5277.4285z" fill="#fff"/>
<path d="m366.7836,2266.8209c-3.3463,4.6393-7.8716,5.1214-7.7694.51" fill="none" stroke="#000" stroke-width=".9577"/>
</g>
<path d="m354.1573,2263.1315c-4.0122,0-7.2422,4.834-7.2422,9.595 0,2.7465 1.3731,5.8483 3.4191,8.5633 1.2402.3913 6.9034.326 7.9616,0 2.046-2.715 3.1364-5.8168 3.1364-8.5633 0-4.761-3.2626-9.595-7.2748-9.595z" fill="#fff" stroke="#000"/>
<path d="m355.6904,2260.873c0,.8599-1.4184,1.557-3.1681,1.557s-3.1681-.6971-3.1681-1.557 1.4184-1.5569 3.1681-1.5569 3.1681.6971 3.1681,1.5569z" fill="#fff" transform="matrix(1.55971,0,0,1.42765,-195.66036,-963.42609)"/>
<path d="m358.9258,2264.7686c-3.3051,1.1589-6.379.9116-9.5044,0 0-.8182 2.1276-1.4816 4.7522-1.4816s4.7522.6634 4.7522,1.4816z"/>
<path d="m349.017,2266.7449c3.1571,2.5866 7.5164,2.2913 10.3132,0" fill="none" stroke="#000"/>
<g transform="matrix(1.04392,0,0,1.04434,-15.84407,-98.93974)">
<path d="m357.122,2265.368c1.6967-1.642 1.7819-4.2666 1.9815-6.1454 1.3606,1.1597 2.8578,1.6882 4.4926,1.8117-.5827,5.6941-4.2611,8.3785-6.4741,4.3337z" fill="#fff" stroke="#000" stroke-width=".9577"/>
<path d="m351.7778,2265.368c-1.6967-1.642-1.7819-4.2666-1.9815-6.1454-1.1529,1.0217-2.995,1.6775-4.4926,1.8117 .5827,5.6941 4.2611,8.3785 6.4741,4.3337z" fill="#fff" stroke="#000" stroke-width=".9577"/>
</g>
<path d="m347.4443,2274.457 6.7293-1.6441 6.7293,1.6441" fill="none" stroke="#000"/>
<path d="m347.5856,2276.8704c4.0334-1.0812 9.6028-.9579 13.176,0" fill="none" stroke="#000"/>
<path d="m347.5856,2279.143c4.0334-.5164 9.6028-.4575 13.176,0" fill="none" stroke="#000"/>
</g>
</svg>
