<svg viewBox="0 0 512 512" xmlns="http://www.w3.org/2000/svg">

<g transform="matrix(18.68858,0,0,18.68858,-6362.46035,-42186.9532)">
<g transform="matrix(1.04392,0,0,1.04434,-15.65562,-100.69936)">
<path d="m 348.269 2268.66 -4.9348 -0.8608 -1.1387 3.8616 c 4.5343 2.0366 8.152 0.4282 6.0735 -3.0008 z" fill="#fff"/>
<path d="m 341.627 2271.8 c 5.2134 2.3416 9.373 0.4923 6.9831 -3.4503" fill="none" stroke="#000" stroke-width=".9577"/>
<path d="m 349.065 2267.49 -3.7133 -3.108 -2.8143 2.6795 c 2.8115 3.8978 6.6135 4.3029 6.5277 0.4285 z" fill="#fff"/>
<path d="m 341.755 2266.82 c 3.3463 4.6393 7.8716 5.1214 7.7694 0.51" fill="none" stroke="#000" stroke-width=".9577"/>
<path d="m 360.269 2268.66 4.9348 -0.8608 1.1387 3.8616 c -4.5343 2.0366 -8.152 0.4282 -6.0735 -3.0008 z" fill="#fff"/>
<path d="m 366.911 2271.8 c -5.2134 2.3416 -9.373 0.4923 -6.9831 -3.4503" fill="none" stroke="#000" stroke-width=".9577"/>
<path d="m 359.474 2267.49 3.7133 -3.108 2.8143 2.6795 c -2.8115 3.8978 -6.6135 4.3029 -6.5277 0.4285 z" fill="#fff"/>
<path d="m 366.784 2266.82 c -3.3463 4.6393 -7.8716 5.1214 -7.7694 0.51" fill="none" stroke="#000" stroke-width=".9577"/>
</g>
<path d="m 354.157 2263.13 c -4.0122 0 -7.2422 4.834 -7.2422 9.595 0 2.7465 1.3731 5.8483 3.4191 8.5633 1.2402 0.3913 6.9034 0.326 7.9616 0 2.046 -2.715 3.1364 -5.8168 3.1364 -8.5633 0 -4.761 -3.2626 -9.595 -7.2748 -9.595 z" fill="#fff" stroke="#000"/>
<path d="m 355.69 2260.87 c 0 0.8599 -1.4184 1.557 -3.1681 1.557 s -3.1681 -0.6971 -3.1681 -1.557 1.4184 -1.5569 3.1681 -1.5569 3.1681 0.6971 3.1681 1.5569 z" fill="#fff" transform="matrix(1.55971,0,0,1.42765,-195.66036,-963.42609)"/>
<path d="m 358.926 2264.77 c -3.3051 1.1589 -6.379 0.9116 -9.5044 0 0 -0.8182 2.1276 -1.4816 4.7522 -1.4816 s 4.7522 0.6634 4.7522 1.4816 z"/>
<path d="m 349.017 2266.74 c 3.1571 2.5866 7.5164 2.2913 10.3132 0" fill="none" stroke="#000"/>
<g transform="matrix(1.04392,0,0,1.04434,-15.84407,-98.93974)">
<path d="m 357.122 2265.37 c 1.6967 -1.642 1.7819 -4.2666 1.9815 -6.1454 1.3606 1.1597 2.8578 1.6882 4.4926 1.8117 -0.5827 5.6941 -4.2611 8.3785 -6.4741 4.3337 z" fill="#fff" stroke="#000" stroke-width=".9577"/>
<path d="m 351.778 2265.37 c -1.6967 -1.642 -1.7819 -4.2666 -1.9815 -6.1454 -1.1529 1.0217 -2.995 1.6775 -4.4926 1.8117 0.5827 5.6941 4.2611 8.3785 6.4741 4.3337 z" fill="#fff" stroke="#000" stroke-width=".9577"/>
</g>
<path d="m 347.444 2274.46 6.7293 -1.6441 6.7293 1.6441" fill="none" stroke="#000"/>
<path d="m 347.586 2276.87 c 4.0334 -1.0812 9.6028 -0.9579 13.176 0" fill="none" stroke="#000"/>
<path d="m 347.586 2279.14 c 4.0334 -0.5164 9.6028 -0.4575 13.176 0" fill="none" stroke="#000"/>
</g>
</svg>
