<svg viewBox="0 0 512 512" xmlns="http://www.w3.org/2000/svg">

<g transform="matrix(18.68858,0,0,18.68858,-9761.94013,-29263.39706)">
<path d="m544.7248,1580.5883c0,4.8656-3.9444,8.81-8.81,8.81s-8.81-3.9444-8.81-8.81 3.9444-8.81 8.81-8.81 8.81,3.9443 8.81,8.81z" fill="none" stroke="#fff" stroke-width="1.1504" transform="matrix(.86928,0,0,.86928,70.21412,205.61965)"/>
<path d="m544.7248,1580.5883c0,4.8656-3.9444,8.81-8.81,8.81s-8.81-3.9444-8.81-8.81 3.9444-8.81 8.81-8.81 8.81,3.9443 8.81,8.81z" fill="none" stroke="#fff" stroke-width=".825" transform="matrix(1.21212,0,0,1.21212,-113.51871,-336.34416)"/>
<g transform="matrix(.70711,-.70711,.70711,.70711,-804.53314,735.14854)">
<path d="m357.8844,1543.0059c0,1.2448-1.0091,2.2539-2.2539,2.2539s-2.2539-1.0091-2.2539-2.2539 1.0091-2.2539 2.2539-2.2539 2.2539,1.0091 2.2539,2.2539z" fill="#fff" stroke="#000" stroke-width=".7563" transform="matrix(1.32221,0,0,-1.32221,-126.53178,3592.215)"/>
<path d="m344.0457,1549.266 6.9082-4.299-4.2989,6.9082c-2.0845,1.1673-3.7523-.5681-2.6093-2.6092z" fill="#fff" stroke="#000"/>
</g>
<g transform="matrix(.70711,.70711,.70711,-.70711,-804.53314,2423.7118)">
<path d="m357.8844,1543.0059c0,1.2448-1.0091,2.2539-2.2539,2.2539s-2.2539-1.0091-2.2539-2.2539 1.0091-2.2539 2.2539-2.2539 2.2539,1.0091 2.2539,2.2539z" fill="#fff" stroke="#000" stroke-width=".7563" transform="matrix(1.32221,0,0,-1.32221,-126.53178,3592.215)"/>
<path d="m344.0457,1549.266 6.9082-4.299-4.2989,6.9082c-2.0845,1.1673-3.7523-.5681-2.6093-2.6092z" fill="#fff" stroke="#000"/>
</g>
<g transform="matrix(.70711,.70711,-.70711,.70711,1380.2239,238.95477)">
<path d="m357.8844,1543.0059c0,1.2448-1.0091,2.2539-2.2539,2.2539s-2.2539-1.0091-2.2539-2.2539 1.0091-2.2539 2.2539-2.2539 2.2539,1.0091 2.2539,2.2539z" fill="#fff" stroke="#000" stroke-width=".7563" transform="matrix(1.32221,0,0,-1.32221,-126.53178,3592.215)"/>
<path d="m344.0457,1549.266 6.9082-4.299-4.2989,6.9082c-2.0845,1.1673-3.7523-.5681-2.6093-2.6092z" fill="#fff" stroke="#000"/>
</g>
<g transform="matrix(-.70711,.70711,.70711,.70711,-308.33934,238.95481)">
<path d="m357.8844,1543.0059c0,1.2448-1.0091,2.2539-2.2539,2.2539s-2.2539-1.0091-2.2539-2.2539 1.0091-2.2539 2.2539-2.2539 2.2539,1.0091 2.2539,2.2539z" fill="#fff" stroke="#000" stroke-width=".7563" transform="matrix(1.32221,0,0,-1.32221,-126.53178,3592.215)"/>
<path d="m344.0457,1549.266 6.9082-4.299-4.2989,6.9082c-2.0845,1.1673-3.7523-.5681-2.6093-2.6092z" fill="#fff" stroke="#000"/>
</g>
<path d="m529.2099,1588.9367 4.2989-6.9081-6.9082,4.2989c-1.1674,2.0845.5681,3.7523 2.6093,2.6092z" fill="#fff" stroke="#000"/>
<path d="m545.4334,1572.7132-6.9082,4.299 4.2988-6.9082c2.0846-1.1674 3.7524.5681 2.6094,2.6092z" fill="#fff" stroke="#000"/>
<path d="m542.8193,1588.9367-4.2989-6.9081 6.9082,4.2989c1.1674,2.0845-.5681,3.7523-2.6093,2.6092z" fill="#fff" stroke="#000"/>
<path d="m526.5958,1572.7132 6.9082,4.299-4.2988-6.9082c-2.0846-1.1674-3.7524.5681-2.6094,2.6092z" fill="#fff" stroke="#000"/>
</g>
</svg>
