<svg viewBox="0 0 512 512" xmlns="http://www.w3.org/2000/svg">

<g transform="matrix(18.68858,0,0,18.68858,-9761.94013,-29263.39706)">
<path d="m 544.725 1580.59 c 0 4.8656 -3.9444 8.81 -8.81 8.81 s -8.81 -3.9444 -8.81 -8.81 3.9444 -8.81 8.81 -8.81 8.81 3.9443 8.81 8.81 z" fill="none" stroke="#fff" stroke-width="1.1504" transform="matrix(.86928,0,0,.86928,70.21412,205.61965)"/>
<path d="m 544.725 1580.59 c 0 4.8656 -3.9444 8.81 -8.81 8.81 s -8.81 -3.9444 -8.81 -8.81 3.9444 -8.81 8.81 -8.81 8.81 3.9443 8.81 8.81 z" fill="none" stroke="#fff" stroke-width=".825" transform="matrix(1.21212,0,0,1.21212,-113.51871,-336.34416)"/>
<g transform="matrix(.70711,-.70711,.70711,.70711,-804.53314,735.14854)">
<path d="m 357.884 1543.01 c 0 1.2448 -1.0091 2.2539 -2.2539 2.2539 s -2.2539 -1.0091 -2.2539 -2.2539 1.0091 -2.2539 2.2539 -2.2539 2.2539 1.0091 2.2539 2.2539 z" fill="#fff" stroke="#000" stroke-width=".7563" transform="matrix(1.32221,0,0,-1.32221,-126.53178,3592.215)"/>
<path d="m 344.046 1549.27 6.9082 -4.299 -4.2989 6.9082 c -2.0845 1.1673 -3.7523 -0.5681 -2.6093 -2.6092 z" fill="#fff" stroke="#000"/>
</g>
<g transform="matrix(.70711,.70711,.70711,-.70711,-804.53314,2423.7118)">
<path d="m 357.884 1543.01 c 0 1.2448 -1.0091 2.2539 -2.2539 2.2539 s -2.2539 -1.0091 -2.2539 -2.2539 1.0091 -2.2539 2.2539 -2.2539 2.2539 1.0091 2.2539 2.2539 z" fill="#fff" stroke="#000" stroke-width=".7563" transform="matrix(1.32221,0,0,-1.32221,-126.53178,3592.215)"/>
<path d="m 344.046 1549.27 6.9082 -4.299 -4.2989 6.9082 c -2.0845 1.1673 -3.7523 -0.5681 -2.6093 -2.6092 z" fill="#fff" stroke="#000"/>
</g>
<g transform="matrix(.70711,.70711,-.70711,.70711,1380.2239,238.95477)">
<path d="m 357.884 1543.01 c 0 1.2448 -1.0091 2.2539 -2.2539 2.2539 s -2.2539 -1.0091 -2.2539 -2.2539 1.0091 -2.2539 2.2539 -2.2539 2.2539 1.0091 2.2539 2.2539 z" fill="#fff" stroke="#000" stroke-width=".7563" transform="matrix(1.32221,0,0,-1.32221,-126.53178,3592.215)"/>
<path d="m 344.046 1549.27 6.9082 -4.299 -4.2989 6.9082 c -2.0845 1.1673 -3.7523 -0.5681 -2.6093 -2.6092 z" fill="#fff" stroke="#000"/>
</g>
<g transform="matrix(-.70711,.70711,.70711,.70711,-308.33934,238.95481)">
<path d="m 357.884 1543.01 c 0 1.2448 -1.0091 2.2539 -2.2539 2.2539 s -2.2539 -1.0091 -2.2539 -2.2539 1.0091 -2.2539 2.2539 -2.2539 2.2539 1.0091 2.2539 2.2539 z" fill="#fff" stroke="#000" stroke-width=".7563" transform="matrix(1.32221,0,0,-1.32221,-126.53178,3592.215)"/>
<path d="m 344.046 1549.27 6.9082 -4.299 -4.2989 6.9082 c -2.0845 1.1673 -3.7523 -0.5681 -2.6093 -2.6092 z" fill="#fff" stroke="#000"/>
</g>
<path d="m 529.21 1588.94 4.2989 -6.9081 -6.9082 4.2989 c -1.1674 2.0845 0.5681 3.7523 2.6093 2.6092 z" fill="#fff" stroke="#000"/>
<path d="m 545.433 1572.71 -6.9082 4.299 4.2988 -6.9082 c 2.0846 -1.1674 3.7524 0.5681 2.6094 2.6092 z" fill="#fff" stroke="#000"/>
<path d="m 542.819 1588.94 -4.2989 -6.9081 6.9082 4.2989 c 1.1674 2.0845 -0.5681 3.7523 -2.6093 2.6092 z" fill="#fff" stroke="#000"/>
<path d="m 526.596 1572.71 6.9082 4.299 -4.2988 -6.9082 c -2.0846 -1.1674 -3.7524 0.5681 -2.6094 2.6092 z" fill="#fff" stroke="#000"/>
</g>
</svg>
