<svg viewBox="0 0 512 512" xmlns="http://www.w3.org/2000/svg">

<g transform="matrix(18.68858,0,0,18.68858,-9081.30499,-40151.38808)">
<g transform="translate(72.9145,5.3077)">
<path d="m 438.577 2164.86 c 0 2.5886 -5.2097 4.6871 -11.6362 4.6871 s -11.6362 -2.0985 -11.6362 -4.6871 5.2097 -4.6872 11.6362 -4.6872 11.6362 2.0985 11.6362 4.6872 z" fill="#fff"/>
<path d="m 438.577 2164.86 c 0 2.5886 -5.2097 4.6871 -11.6362 4.6871 s -11.6362 -2.0985 -11.6362 -4.6871 5.2097 -6.8929 11.6362 -6.8929 11.6362 4.3042 11.6362 6.8929 z" fill="#fff" stroke="#000" stroke-width="1.4547" transform="matrix(.79688,0,0,.59302,86.72236,878.42974)"/>
<path d="m 438.577 2164.86 c 0 2.5886 -5.2097 4.6871 -11.6362 4.6871 s -11.6362 -2.0985 -11.6362 -4.6871 5.2097 -4.6872 11.6362 -4.6872 11.6362 2.0985 11.6362 4.6872 z" stroke="#fff" stroke-width="2.1911" transform="matrix(.4564,0,0,.4564,232.08703,1173.2419)"/>
<path d="m 438.577 2164.86 c 0 2.5886 -5.2097 4.6871 -11.6362 4.6871 s -11.6362 -2.0985 -11.6362 -4.6871 5.2097 -4.6872 11.6362 -4.6872 11.6362 2.0985 11.6362 4.6872 z" fill="#fff" transform="matrix(.36628,0,0,.36628,270.56136,1369.2708)"/>
</g>
<path d="m 497.897 2149.82 1.1354 8.9233 h 1.6464 l 1.1354 -8.9233 z" fill="#fff"/>
<path d="m 498.938 2159.67 h 1.8338 v 1.8338 h -1.8338 z" fill="#fff"/>
</g>
</svg>
