<svg viewBox="0 0 512 512" xmlns="http://www.w3.org/2000/svg">

<g transform="matrix(18.68858,0,0,18.68858,-234.39274,-40834.03083)">
<g stroke="#fff" stroke-width=".9394" transform="matrix(1.05628,0,0,1.0727,-423.52617,-117.72074)">
<path d="m418.3438,2157.275 3.3125,11.6104h8.3438l3.3125-11.6104z" stroke="#fff" stroke-width=".9394"/>
</g>
<g stroke="#000" stroke-width=".7868" transform="matrix(1.27091,0,0,1.27091,-506.6999,-551.27988)">
<path d="m419.3434,2155.8503-7.4688,5.3062h14.9688z" fill="#fff" stroke="#000" stroke-width=".7868"/>
</g>
<path d="m28.0179,2189.031c0,1.3579-1.1008,2.4587-2.4587,2.4587s-2.4587-1.1008-2.4587-2.4587 1.1008-2.4587 2.4587-2.4587 2.4587,1.1008 2.4587,2.4587z" fill="none" stroke="#fff" stroke-width="1.0808" transform="matrix(.92527,0,0,.92527,2.61967,163.3237)"/>
<path d="m19.3502,2210.8197h13.8372" fill="none" stroke="#fff"/>
<path d="m26.8438,2197.7812c1.5523,2.5539-4.1098,3.7728-3.2188,7.1563 .5993,1.3377 1.5599,2.2159 2.6875,2.25 2.6135,0 3.9361-2.8655 3.25-5.3437-.2593,1.288-1.3332,1.8653-1.8652,1.198-1.2903-1.6185 1.949-3.0376-.8535-5.2606z" fill="#fff"/>
</g>
</svg>
