<svg viewBox="0 0 512 512" xmlns="http://www.w3.org/2000/svg">

<g transform="matrix(18.68858,0,0,18.68858,5787.33673,-14265.89935)">
<path d="m-301.9739,774.0497h12.1319v13.5625h-12.1319z" fill="#fff" stroke="#000"/>
<path d="m-303.6696,787.3622h15.5234v3.0625h-15.5234z" fill="#fff" stroke="#000"/>
<path d="m-286.372,774.9647-19.0719-1e-05c3.8595-1.8287 7.3727-4.0297 9.5359-7.6808 1.9375,3.545 5.4732,5.822 9.5359,7.6808z" fill="#fff"/>
<path d="m-289.0105,775.4559h-13.7948" fill="none" stroke="#000"/>
<path d="m110.4375,781.8622c0,2.2091-1.7909,4-4,4s-4-1.7909-4-4 1.7909-4 4-4 4,1.7909 4,4z" fill="#fff" stroke="#000" stroke-width=".9731" transform="matrix(.88995,.51381,-.51381,.88995,11.09786,31.02152)"/>
<path d="m109.1596,768.8566c0,1.9526-1.5829,3.5355-3.5355,3.5355s-3.5355-1.5829-3.5355-3.5355 1.5829-3.5355 3.5355-3.5355 3.5355,1.5829 3.5355,3.5355z" fill="none" stroke="#fff" transform="translate(-401.532,-.221)"/>
<path d="m-295.9376,777.6296-2e-05,7.8887" fill="none" stroke="#000"/>
<path d="m-291.8963,780.4117-7.8887-1e-05" fill="none" stroke="#000"/>
<path d="m-291.7293,782.9066-7.8887-1e-05" fill="none" stroke="#000"/>
</g>
</svg>
