<svg viewBox="0 0 512 512" xmlns="http://www.w3.org/2000/svg">

<g transform="matrix(18.68858,0,0,18.68858,5787.33673,-14265.89935)">
<path d="m -301.974 774.05 h 12.1319 v 13.5625 h -12.1319 z" fill="#fff" stroke="#000"/>
<path d="m -303.67 787.362 h 15.5234 v 3.0625 h -15.5234 z" fill="#fff" stroke="#000"/>
<path d="m -286.372 774.965 -19.0719 -1e-05 c 3.8595 -1.8287 7.3727 -4.0297 9.5359 -7.6808 1.9375 3.545 5.4732 5.822 9.5359 7.6808 z" fill="#fff"/>
<path d="m -289.01 775.456 h -13.7948" fill="none" stroke="#000"/>
<path d="m 110.438 781.862 c 0 2.2091 -1.7909 4 -4 4 s -4 -1.7909 -4 -4 1.7909 -4 4 -4 4 1.7909 4 4 z" fill="#fff" stroke="#000" stroke-width=".9731" transform="matrix(.88995,.51381,-.51381,.88995,11.09786,31.02152)"/>
<path d="m 109.16 768.857 c 0 1.9526 -1.5829 3.5355 -3.5355 3.5355 s -3.5355 -1.5829 -3.5355 -3.5355 1.5829 -3.5355 3.5355 -3.5355 3.5355 1.5829 3.5355 3.5355 z" fill="none" stroke="#fff" transform="translate(-401.532,-.221)"/>
<path d="m -295.938 777.63 -2e-05 7.8887" fill="none" stroke="#000"/>
<path d="m -291.896 780.412 -7.8887 -1e-05" fill="none" stroke="#000"/>
<path d="m -291.729 782.907 -7.8887 -1e-05" fill="none" stroke="#000"/>
</g>
</svg>
