<svg viewBox="0 0 512 512" xmlns="http://www.w3.org/2000/svg">

<g transform="matrix(18.68858,0,0,18.68858,-234.39274,-40834.03083)">
<g stroke="#fff" stroke-width=".9394" transform="matrix(1.05628,0,0,1.0727,-423.52617,-117.72074)">
<path d="m 418.344 2157.28 3.3125 11.6104 h 8.3438 l 3.3125 -11.6104 z" stroke="#fff" stroke-width=".9394"/>
</g>
<g stroke="#000" stroke-width=".7868" transform="matrix(1.27091,0,0,1.27091,-506.6999,-551.27988)">
<path d="m 419.343 2155.85 -7.4688 5.3062 h 14.9688 z" fill="#fff" stroke="#000" stroke-width=".7868"/>
</g>
<path d="m 28.0179 2189.03 c 0 1.3579 -1.1008 2.4587 -2.4587 2.4587 s -2.4587 -1.1008 -2.4587 -2.4587 1.1008 -2.4587 2.4587 -2.4587 2.4587 1.1008 2.4587 2.4587 z" fill="none" stroke="#fff" stroke-width="1.0808" transform="matrix(.92527,0,0,.92527,2.61967,163.3237)"/>
<path d="m 19.3502 2210.82 h 13.8372" fill="none" stroke="#fff"/>
<path d="m 26.8438 2197.78 c 1.5523 2.5539 -4.1098 3.7728 -3.2188 7.1563 0.5993 1.3377 1.5599 2.2159 2.6875 2.25 2.6135 0 3.9361 -2.8655 3.25 -5.3437 -0.2593 1.288 -1.3332 1.8653 -1.8652 1.198 -1.2903 -1.6185 1.949 -3.0376 -0.8535 -5.2606 z" fill="#fff"/>
</g>
</svg>
