<svg viewBox="0 0 512 512" xmlns="http://www.w3.org/2000/svg">

<g transform="matrix(18.68858,0,0,18.68858,-7723.60549,-46956.40202)">
<path d="m 423.156 2517.41 c 2.1433 -4.1396 5.5804 -4.1586 7.6768 -0.042 l 7.0939 12.32 c 2.5089 3.9281 0.8071 6.9179 -3.8009 6.678 h -14.185 c -4.608 0.2399 -6.3098 -2.7499 -3.8009 -6.678 z" fill="#fff" stroke="#fff"/>
<path d="m 426.992 2521.29 v 11.2348" fill="none" stroke="#000"/>
<path d="m 431.857 2529.71 -9.7296 -5.6173" fill="none" stroke="#000"/>
<path d="m 422.127 2529.71 9.7296 -5.6173" fill="none" stroke="#000"/>
<path d="m 429.801 2522.04 -5.6174 9.7296" fill="none" stroke="#000"/>
<path d="m 429.801 2531.77 -5.6174 -9.7296" fill="none" stroke="#000"/>
<path d="m 421.375 2526.9 h 11.2348" fill="none" stroke="#000"/>
<path d="m 418.344 2527.84 h 6.875 c 0.3354 0.6275 0.9887 1.0624 1.75 1.0624 1.1004 0 2 -0.8996 2 -2 s -0.8996 -2 -2 -2 c -0.7727 0 -1.4508 0.4508 -1.7812 1.0938 h -5.875" fill="#fff" stroke="#000"/>
<path d="m 423.602 2518.62 c 2.2747 -4.3911 4.5267 -4.4416 6.771 -0.037 l 6.2568 10.861 c 2.542 3.978 1.8712 6.2004 -3.3524 5.9287 h -12.5112 c -4.8139 0.2504 -6.0729 -1.6714 -3.3524 -5.9287 z" fill="none" stroke="#000"/>
</g>
</svg>
