<svg xmlns="http://www.w3.org/2000/svg" viewBox="0 0 512 512">
<g transform="matrix(15 0 0 15 15.99995 -8269.4346)">
<use width="744.094" height="1052.362" transform="translate(36 548.36217)"/>
</g>
<g fill="#fff" transform="matrix(6 0 0 6 -3056.00042 -3562.17354)">
<path d="m552,606.3622c-16.5685,0-30,13.4315-30,30 0,16.5685 13.4315,30 30,30 16.5685,0 30-13.4315 30-30 0-16.5685-13.4315-30-30-30zm0,15c8.2843,0 15,6.7157 15,15 0,8.2843-6.7157,15-15,15-8.2843,0-15-6.7157-15-15 0-8.2843 6.7157-15 15-15z"/>
<path d="m645.862-557h28.5a2,2 0 0,1 2,2v6a2,2 0 0,1 -2,2h-28.5a2,2 0 0,1 -2-2v-6a2,2 0 0,1 2-2" transform="rotate(90)"/>
<path d="m598.362-557h28.5a2,2 0 0,1 2,2v6a2,2 0 0,1 -2,2h-28.5a2,2 0 0,1 -2-2v-6a2,2 0 0,1 2-2" transform="rotate(90)"/>
</g>
</svg>
