<svg xmlns="http://www.w3.org/2000/svg" viewBox="0 0 512 512">
<g transform="matrix(18.68858 0 0 18.68858 -2271.81274 -20447.96323)">
<path fill="none" stroke="#fff" d="m138.3195,1110.5773-3.6066-16.107"/>
</g>
<g fill="#fff" fill-rule="evenodd" transform="matrix(18.68858 0 0 18.68858 -2271.81274 -20447.96323)">
<path d="m129.0014,1095.3194-.6375,3.5305-2.5988-2.4027 .7316,3.4814-3.1343-.4902 2.2399,2.1888-2.2889,2.3223 2.7832-.4729 1.3358,4.0149 1.5573-3.3028 2.1046,1.7888-.2705-2.4213 3.1368.8991-2.2978-2.228 5.38-2.4849-5.5899.1901 1.7652-4.7112-3.0283,3.1675-1.1886-3.0694z"/>
<path d="m131.3903,1113.8772 4.5521-.018-2.4642,3.8922 4.1337-2.2208 1.7724,4.9154 1.2221-4.4842 3.0073,2.8995-.7077-4.4169 2.8573-.1376-2.4589-2.0291 4.3555-2.8675-4.6446.2444-.7601-4.7888-2.1314,4.2942-3.255-4.7337-.1931,5.4294-5.003-.8966 3.5606,2.8491-3.8428,2.0692z"/>
<path d="m132.2538,1117.1222-3.4228-.07 .9839,1.9139-2.2976-.8247-.4686,2.2369-.8914-2.3057-2.1697.9746 1.1768-2.2731-2.6403-.3431 2.5666-1.4448-1.4816-2.6596 2.3133,1.4112 1.299-3.1079 .905,3.3589 3.1405.028-2.0098,1.4303 2.997,1.6746z"/>
<path d="m146.3132,1096.26-1.093,1.8139 2.3316,1.0154-2.066.5604 .7709,1.9553-2.1089-.9867-1.327,1.9479-.5442-2.4482-2.0441.6983 1.2897-2.1111-1.621-1.8993 2.4716.4973 .2119-2.1347 1.5693,1.7282 2.159-.6367z"/>
</g>
<g fill="none">
<g stroke="#fff" transform="matrix(18.68858 0 0 18.68858 -2271.81274 -20447.96323)">
<path d="m140.9012,1111.5266-14.0276,3.6889 1.1338-13.4141 15.7554-3.4857"/>
<path d="m124.722,1094.3585 3.9745,7.2845-6.7602-2.4432"/>
<path d="m126.8992,1116.128-4.8483-6.0077"/>
</g>
<g transform="matrix(18.68858 0 0 18.68858 -2271.81274 -20447.96323)">
<path stroke="#000" d="m138.0993,1094.5263h-16.0603v26.6063"/>
</g>
</g>
</svg>
