<svg viewBox="0 0 512 512" xmlns="http://www.w3.org/2000/svg">

<g transform="matrix(18.68858,0,0,18.68858,-11119.71053,-37447.32953)">
<path d="m 595.562 2017.09 c 10.1538 -1.4318 15.0154 2.6843 9.7128 4.4845 -9.6749 3.2847 0.9665 8.1081 14.1934 7.3592 v -0.5937 c -11.3637 -0.715 -17.0747 -2.7214 -11.7387 -4.8518 6.4856 -2.5893 10.9403 -9.8231 -12.2234 -10.3626 z" fill="#fff" stroke="#fff"/>
<path d="m 617.194 2028.32 -3.0169 -3.1515 1.9529 0.9023 -1.1249 -2.9092 2.2855 2.3022 -1.3762 -3.8509 2.0876 2.101 0.6298 -2.3323 0.2414 3.6904 1.0683 -2.045 -0.3367 2.9765 1.7105 -0.9562 -1.2502 2.8799 z" fill="#fff"/>
<path d="m 618.46 2025.84 -5.926 -21.6569" fill="none" stroke="#fff"/>
<path d="m 595.463 2004.22 h 26.4314 v 26.4314 h -26.4314 z" fill="none" stroke="#000"/>
<path d="m 620.319 2027.16 c 0 0.4165 -0.796 0.7542 -1.7778 0.7542 s -1.7778 -0.3377 -1.7778 -0.7542 0.796 -0.7543 1.7778 -0.7543 1.7778 0.3377 1.7778 0.7543 z" fill="#fff" transform="matrix(1.56818,0,0,1.56818,-351.32248,-1150.424)"/>
</g>
</svg>
