<svg viewBox="0 0 512 512" xmlns="http://www.w3.org/2000/svg">

<g transform="matrix(18.68858,0,0,18.68858,-11119.71053,-37447.32953)">
<path d="m595.5625,2017.0938c10.1538-1.4318 15.0154,2.6843 9.7128,4.4845-9.6749,3.2847.9665,8.1081 14.1934,7.3592v-.5937c-11.3637-.715-17.0747-2.7214-11.7387-4.8518 6.4856-2.5893 10.9403-9.8231-12.2234-10.3626z" fill="#fff" stroke="#fff"/>
<path d="m617.1941,2028.3223-3.0169-3.1515 1.9529.9023-1.1249-2.9092 2.2855,2.3022-1.3762-3.8509 2.0876,2.101 .6298-2.3323 .2414,3.6904 1.0683-2.045-.3367,2.9765 1.7105-.9562-1.2502,2.8799z" fill="#fff"/>
<path d="m618.4601,2025.8442-5.926-21.6569" fill="none" stroke="#fff"/>
<path d="m595.4631,2004.2203h26.4314v26.4314h-26.4314z" fill="none" stroke="#000"/>
<path d="m620.3187,2027.1641c0,.4165-.796.7542-1.7778.7542s-1.7778-.3377-1.7778-.7542 .796-.7543 1.7778-.7543 1.7778.3377 1.7778.7543z" fill="#fff" transform="matrix(1.56818,0,0,1.56818,-351.32248,-1150.424)"/>
</g>
</svg>
