<svg viewBox="0 0 512 512" xmlns="http://www.w3.org/2000/svg">

<g transform="matrix(18.68858,0,0,18.68858,-7723.60549,-46956.40202)">
<path d="m423.1555,2517.4077c2.1433-4.1396 5.5804-4.1586 7.6768-.042l7.0939,12.32c2.5089,3.9281.8071,6.9179-3.8009,6.678h-14.185c-4.608.2399-6.3098-2.7499-3.8009-6.678z" fill="#fff" stroke="#fff"/>
<path d="m426.9923,2521.2862v11.2348" fill="none" stroke="#000"/>
<path d="m431.8571,2529.7122-9.7296-5.6173" fill="none" stroke="#000"/>
<path d="m422.1275,2529.7122 9.7296-5.6173" fill="none" stroke="#000"/>
<path d="m429.801,2522.0388-5.6174,9.7296" fill="none" stroke="#000"/>
<path d="m429.801,2531.7684-5.6174-9.7296" fill="none" stroke="#000"/>
<path d="m421.3749,2526.9036h11.2348" fill="none" stroke="#000"/>
<path d="m418.3438,2527.8438h6.875c.3354.6275.9887,1.0624 1.75,1.0624 1.1004,0 2-.8996 2-2s-.8996-2-2-2c-.7727,0-1.4508.4508-1.7812,1.0938h-5.875" fill="#fff" stroke="#000"/>
<path d="m423.602,2518.6161c2.2747-4.3911 4.5267-4.4416 6.771-.037l6.2568,10.861c2.542,3.978 1.8712,6.2004-3.3524,5.9287h-12.5112c-4.8139.2504-6.0729-1.6714-3.3524-5.9287z" fill="none" stroke="#000"/>
</g>
</svg>
