<svg viewBox="0 0 512 512" xmlns="http://www.w3.org/2000/svg">

<g transform="matrix(18.68858,0,0,18.68858,-7723.41321,-40834.02896)">
<path d="m 439.755 2211.51 -4e-05 -1.5495 -13.1092 -13.1092 -1.6291 1.6354 13.0235 13.0235 h 1.715 z" fill="#fff"/>
<path d="m 432.639 2204.31 c -4.0278 -5.1355 -1.3894 -6.5764 -4.2343 -9.5041 -1.2898 -1.3269 -3.5957 -1.1813 -5.1154 0.339 s -1.6941 3.8552 -0.3859 5.1643 c 2.9005 2.9014 4.5632 0.045 9.7356 4.0008 z" fill="#fff" fill-rule="evenodd"/>
<path d="m 428.309 2196.86 c 0 0.7145 -0.5793 1.2938 -1.2938 1.2938 s -1.2938 -0.5793 -1.2938 -1.2938 0.5793 -1.2938 1.2938 -1.2938 1.2938 0.5792 1.2938 1.2938 z" fill="#fff" transform="matrix(.68017,.68042,-.68017,.68042,1627.4891,415.72932)"/>
<path d="m 428.309 2196.86 c 0 0.7145 -0.5793 1.2938 -1.2938 1.2938 s -1.2938 -0.5793 -1.2938 -1.2938 0.5793 -1.2938 1.2938 -1.2938 1.2938 0.5792 1.2938 1.2938 z" stroke="#fff" stroke-width=".3828" transform="matrix(1.84694,1.84758,-1.84694,1.84758,3694.2702,-2650.4128)"/>
<path d="m 413.812 2185.47 v 5.4062 l 7.2812 7.2812 5.25 -5.25 -7.4375 -7.4374 h -5.0938 z" fill="#fff" stroke="#000"/>
<path d="m 428.309 2196.86 c 0 0.7145 -0.5793 1.2938 -1.2938 1.2938 s -1.2938 -0.5793 -1.2938 -1.2938 0.5793 -1.2938 1.2938 -1.2938 1.2938 0.5792 1.2938 1.2938 z" fill="#fff" transform="matrix(.51747,.51765,-.51747,.51765,1346.2007,839.44923)"/>
<path d="m 428.309 2196.86 c 0 0.7145 -0.5793 1.2938 -1.2938 1.2938 s -1.2938 -0.5793 -1.2938 -1.2938 0.5793 -1.2938 1.2938 -1.2938 1.2938 0.5792 1.2938 1.2938 z" fill="#fff" transform="matrix(.40288,.40303,-.40288,.40303,1138.4807,1146.1529)"/>
<path d="m 428.309 2196.86 c 0 0.7145 -0.5793 1.2938 -1.2938 1.2938 s -1.2938 -0.5793 -1.2938 -1.2938 0.5793 -1.2938 1.2938 -1.2938 1.2938 0.5792 1.2938 1.2938 z" fill="#fff" transform="matrix(.72742,.72769,-.72742,.72769,1718.4583,285.03634)"/>
<path d="m 428.309 2196.86 c 0 0.7145 -0.5793 1.2938 -1.2938 1.2938 s -1.2938 -0.5793 -1.2938 -1.2938 0.5793 -1.2938 1.2938 -1.2938 1.2938 0.5792 1.2938 1.2938 z" fill="#fff" transform="matrix(.40288,.40303,-.40288,.40303,1145.4087,1142.2423)"/>
<path d="m -1258.01 1845.46 h 10.3506 v 3.7736 h -10.3506 z" fill="#fff" stroke="#000" transform="matrix(.70711,-.70711,.70711,.70711,0,0)"/>
<path d="m 413.636 2188.02 4.1932 4.1931" fill="none" stroke="#000"/>
<path d="m 415.923 2185.31 4.1932 4.1931" fill="none" stroke="#000"/>
<path d="m 428.309 2196.86 c 0 0.7145 -0.5793 1.2938 -1.2938 1.2938 s -1.2938 -0.5793 -1.2938 -1.2938 0.5793 -1.2938 1.2938 -1.2938 1.2938 0.5792 1.2938 1.2938 z" fill="#fff" transform="matrix(.51747,.51765,-.51747,.51765,1347.0393,846.04392)"/>
</g>
</svg>
