<svg viewBox="0 0 512 512" xmlns="http://www.w3.org/2000/svg">

<g transform="matrix(18.68858,0,0,18.68858,-7723.41321,-40834.02896)">
<path d="m439.7547,2211.5105-4e-05-1.5495-13.1092-13.1092-1.6291,1.6354 13.0235,13.0235h1.715z" fill="#fff"/>
<path d="m432.6389,2204.3135c-4.0278-5.1355-1.3894-6.5764-4.2343-9.5041-1.2898-1.3269-3.5957-1.1813-5.1154.339s-1.6941,3.8552-.3859,5.1643c2.9005,2.9014 4.5632.045 9.7356,4.0008z" fill="#fff" fill-rule="evenodd"/>
<path d="m428.3088,2196.855c0,.7145-.5793,1.2938-1.2938,1.2938s-1.2938-.5793-1.2938-1.2938 .5793-1.2938 1.2938-1.2938 1.2938.5792 1.2938,1.2938z" fill="#fff" transform="matrix(.68017,.68042,-.68017,.68042,1627.4891,415.72932)"/>
<path d="m428.3088,2196.855c0,.7145-.5793,1.2938-1.2938,1.2938s-1.2938-.5793-1.2938-1.2938 .5793-1.2938 1.2938-1.2938 1.2938.5792 1.2938,1.2938z" stroke="#fff" stroke-width=".3828" transform="matrix(1.84694,1.84758,-1.84694,1.84758,3694.2702,-2650.4128)"/>
<path d="m413.8125,2185.4688v5.4062l7.2812,7.2812 5.25-5.25-7.4375-7.4374h-5.0938z" fill="#fff" stroke="#000"/>
<path d="m428.3088,2196.855c0,.7145-.5793,1.2938-1.2938,1.2938s-1.2938-.5793-1.2938-1.2938 .5793-1.2938 1.2938-1.2938 1.2938.5792 1.2938,1.2938z" fill="#fff" transform="matrix(.51747,.51765,-.51747,.51765,1346.2007,839.44923)"/>
<path d="m428.3088,2196.855c0,.7145-.5793,1.2938-1.2938,1.2938s-1.2938-.5793-1.2938-1.2938 .5793-1.2938 1.2938-1.2938 1.2938.5792 1.2938,1.2938z" fill="#fff" transform="matrix(.40288,.40303,-.40288,.40303,1138.4807,1146.1529)"/>
<path d="m428.3088,2196.855c0,.7145-.5793,1.2938-1.2938,1.2938s-1.2938-.5793-1.2938-1.2938 .5793-1.2938 1.2938-1.2938 1.2938.5792 1.2938,1.2938z" fill="#fff" transform="matrix(.72742,.72769,-.72742,.72769,1718.4583,285.03634)"/>
<path d="m428.3088,2196.855c0,.7145-.5793,1.2938-1.2938,1.2938s-1.2938-.5793-1.2938-1.2938 .5793-1.2938 1.2938-1.2938 1.2938.5792 1.2938,1.2938z" fill="#fff" transform="matrix(.40288,.40303,-.40288,.40303,1145.4087,1142.2423)"/>
<path d="m-1258.0134,1845.4644h10.3506v3.7736h-10.3506z" fill="#fff" stroke="#000" transform="matrix(.70711,-.70711,.70711,.70711,0,0)"/>
<path d="m413.6356,2188.0207 4.1932,4.1931" fill="none" stroke="#000"/>
<path d="m415.9227,2185.3142 4.1932,4.1931" fill="none" stroke="#000"/>
<path d="m428.3088,2196.855c0,.7145-.5793,1.2938-1.2938,1.2938s-1.2938-.5793-1.2938-1.2938 .5793-1.2938 1.2938-1.2938 1.2938.5792 1.2938,1.2938z" fill="#fff" transform="matrix(.51747,.51765,-.51747,.51765,1347.0393,846.04392)"/>
</g>
</svg>
