<svg viewBox="0 0 512 512" xmlns="http://www.w3.org/2000/svg">

<g transform="matrix(18.68858,0,0,18.68858,-1590.1522,-21806.87216)">
<g transform="matrix(-1.10282,-.11557,-.11557,1.10282,342.5553,-110.5624)">
<path d="m104.0312,1172.7813c.1512.6799.4013,1.3101.625,1.9062 .3931,1.0115.625,2.1356.625,3.3125 0,4.4664-3.1298,8.0938-6.9688,8.0938-.0173,1.6621.6173,3.8808 2,4.9687 4.7629-.9389 8.375-5.1517 8.375-10.1875 0-2.5492-.9395-4.8792-2.4688-6.6875-.7484-.6799-1.375-1.0469-2.1875-1.4062z" fill="#fff"/>
<path d="m104.5636,1179.6708c0,1.7797 4.6312,1.8329 4.6312,0" fill="none" stroke="#000" stroke-width=".9018"/>
<path d="m103.9228,1181.7289c-.5302,2.0115 4.5179,3.4511 5.064,1.3792" fill="none" stroke="#000" stroke-width=".9018"/>
<path d="m102.7181,1183.5125c-1.1331,1.9946 3.8079,4.9736 4.975,2.9192" fill="none" stroke="#000" stroke-width=".9018"/>
<path d="m100.8436,1184.9978c-1.7088,1.7336 2.5349,6.1432 4.2949,4.3577" fill="none" stroke="#000" stroke-width=".9018"/>
<path d="m98.8645,1185.4865c-2.2079,1.2917.9029,6.9078 3.177,5.5774" fill="none" stroke="#000" stroke-width=".9018"/>
<path d="m104.6721,1177.4726c.3805,1.3368 4.0253.4602 3.6335-.9166" fill="none" stroke="#000" stroke-width=".9018"/>
<path d="m104.3357,1175.5311c.5522.8902 3.1115-.4516 2.5428-1.3683" fill="none" stroke="#000" stroke-width=".9018"/>
<path d="m96.9165,1189.4636c6.1298.062 12.9245-6.9903 8.542-14.935" fill="none" stroke="#fff" stroke-width=".9018"/>
</g>
<path d="m93.2643,1174.0416 1.6654,8.9702h8.0304l1.5995-8.69-3.1,3.3968-2.4075-3.5945-2.4075,3.5945-3.3804-3.677z" fill="#fff"/>
<g transform="matrix(1.10282,-.11557,.11557,1.10282,-144.9005,-110.5624)">
<path d="m104.0312,1172.7813c.1512.6799.4013,1.3101.625,1.9062 .3931,1.0115.625,2.1356.625,3.3125 0,4.4664-3.1298,8.0938-6.9688,8.0938-.0173,1.6621.6173,3.8808 2,4.9687 4.7629-.9389 8.375-5.1517 8.375-10.1875 0-2.5492-.9395-4.8792-2.4688-6.6875-.7484-.6799-1.375-1.0469-2.1875-1.4062z" fill="#fff"/>
<path d="m104.5636,1179.6708c0,1.7797 4.6312,1.8329 4.6312,0" fill="none" stroke="#000" stroke-width=".9018"/>
<path d="m103.9228,1181.7289c-.5302,2.0115 4.5179,3.4511 5.064,1.3792" fill="none" stroke="#000" stroke-width=".9018"/>
<path d="m102.7181,1183.5125c-1.1331,1.9946 3.8079,4.9736 4.975,2.9192" fill="none" stroke="#000" stroke-width=".9018"/>
<path d="m100.8436,1184.9978c-1.7088,1.7336 2.5349,6.1432 4.2949,4.3577" fill="none" stroke="#000" stroke-width=".9018"/>
<path d="m98.8645,1185.4865c-2.2079,1.2917.9029,6.9078 3.177,5.5774" fill="none" stroke="#000" stroke-width=".9018"/>
<path d="m104.6721,1177.4726c.3805,1.3368 4.0253.4602 3.6335-.9166" fill="none" stroke="#000" stroke-width=".9018"/>
<path d="m104.3357,1175.5311c.5522.8902 3.1115-.4516 2.5428-1.3683" fill="none" stroke="#000" stroke-width=".9018"/>
<path d="m96.9165,1189.4636c6.1298.062 12.9245-6.9903 8.542-14.935" fill="none" stroke="#fff" stroke-width=".9018"/>
</g>
<path d="m93.087,1181.4829h11.3141" fill="none" stroke="#000"/>
</g>
</svg>
