<svg xmlns="http://www.w3.org/2000/svg" viewBox="0 0 512 512">
<g transform="matrix(15 0 0 15 -524 -5059.5665)">
<use width="744.094" height="1052.362" transform="translate(72 332.36217)"/>
<g fill="#fff">
<path d="m36,366.3622 0,2 32,0 0-2c0-2 0-2-2-2 0,0-1-2-2-2-2,0-2,3-4,3-2,0-2-3-4-3-2,0-2,3-4,3-2,0-2-3-4-3-2,0-2,3-4,3-2,0-2-3-4-3-1,0-2,2-2,2-2,0-2,0-2,2z"/>
<path d="m48.0357,142.0089a2.9911,2.9911 0 1,1 -5.9821,0 2.9911,2.9911 0 1,1 5.9821,0z" transform="translate(-4.05357 204.34431)"/>
<path d="m48.0357,142.0089a2.9911,2.9911 0 1,1 -5.9821,0 2.9911,2.9911 0 1,1 5.9821,0z" transform="translate(6.96429 201.36216)"/>
<path d="m48.0357,142.0089a2.9911,2.9911 0 1,1 -5.9821,0 2.9911,2.9911 0 1,1 5.9821,0z" transform="translate(17.96429 204.34431)"/>
<path d="m48.0357,142.0089a2.9911,2.9911 0 1,1 -5.9821,0 2.9911,2.9911 0 1,1 5.9821,0z" transform="matrix(.66567 0 0 .66567 22.02397 258.83972)"/>
<path d="m48.0357,142.0089a2.9911,2.9911 0 1,1 -5.9821,0 2.9911,2.9911 0 1,1 5.9821,0z" transform="matrix(.33433 0 0 .33433 28.94033 313.88464)"/>
<path d="m48.0357,142.0089a2.9911,2.9911 0 1,1 -5.9821,0 2.9911,2.9911 0 1,1 5.9821,0z" transform="matrix(.66567 0 0 .66567 13.02397 260.83972)"/>
<path d="m48.0357,142.0089a2.9911,2.9911 0 1,1 -5.9821,0 2.9911,2.9911 0 1,1 5.9821,0z" transform="matrix(.66567 0 0 .66567 31.02397 260.83972)"/>
<path d="m48.0357,142.0089a2.9911,2.9911 0 1,1 -5.9821,0 2.9911,2.9911 0 1,1 5.9821,0z" transform="matrix(.33433 0 0 .33433 36.94032 312.88464)"/>
<path d="m48.0357,142.0089a2.9911,2.9911 0 1,1 -5.9821,0 2.9911,2.9911 0 1,1 5.9821,0z" transform="matrix(.33433 0 0 .33433 44.94032 313.88464)"/>
</g>
</g>
</svg>
