<svg viewBox="0 0 512 512" xmlns="http://www.w3.org/2000/svg">

<path d="m539.7031,1546.6336-7.1743-1.8917-5.2673,5.2254-1.9488-7.159-7.159-1.9488 5.2255-5.2673-1.8918-7.1743 7.1743,1.8917 5.2673-5.2254 1.9488,7.159 7.159,1.9488-5.2255,5.2673z" fill="#fff" transform="matrix(8.18765,14.18146,-14.18146,8.18765,17714.36277,-19855.8125)"/>
<path d="m528.2971,1546.4309c0,1.2082-.9794,2.1876-2.1876,2.1876s-2.1876-.9794-2.1876-2.1876 .9794-2.1876 2.1876-2.1876 2.1876.9794 2.1876,2.1876z" fill="#fff" transform="matrix(10.68314,10.68314,-10.68314,10.68314,11006.43337,-22031.14788)"/>
<path d="m528.2971,1546.4309c0,1.2082-.9794,2.1876-2.1876,2.1876s-2.1876-.9794-2.1876-2.1876 .9794-2.1876 2.1876-2.1876 2.1876.9794 2.1876,2.1876z" fill="#fff" transform="matrix(10.68314,10.68314,-10.68314,10.68314,11302.46048,-21735.11966)"/>
<path d="m528.2971,1546.4309c0,1.2082-.9794,2.1876-2.1876,2.1876s-2.1876-.9794-2.1876-2.1876 .9794-2.1876 2.1876-2.1876 2.1876.9794 2.1876,2.1876z" fill="#fff" transform="matrix(-3.9104,14.59354,-14.59354,-3.9104,24933.43791,-1574.7424)"/>
<path d="m528.2971,1546.4309c0,1.2082-.9794,2.1876-2.1876,2.1876s-2.1876-.9794-2.1876-2.1876 .9794-2.1876 2.1876-2.1876 2.1876.9794 2.1876,2.1876z" fill="#fff" transform="matrix(-3.9104,14.59354,-14.59354,-3.9104,24825.07965,-1170.36265)"/>
<path d="m528.2971,1546.4309c0,1.2082-.9794,2.1876-2.1876,2.1876s-2.1876-.9794-2.1876-2.1876 .9794-2.1876 2.1876-2.1876 2.1876.9794 2.1876,2.1876z" fill="#fff" transform="matrix(-14.59354,3.9104,-3.9104,-14.59354,14181.17085,20714.59808)"/>
<path d="m528.2971,1546.4309c0,1.2082-.9794,2.1876-2.1876,2.1876s-2.1876-.9794-2.1876-2.1876 .9794-2.1876 2.1876-2.1876 2.1876.9794 2.1876,2.1876z" fill="#fff" transform="matrix(-14.59354,3.9104,-3.9104,-14.59354,13776.78735,20822.95072)"/>
<path d="m539.1689,1543.2268c0,1.855-1.5038,3.3588-3.3588,3.3588s-3.3588-1.5038-3.3588-3.3588 1.5038-3.3588 3.3588-3.3588 3.3588,1.5038 3.3588,3.3588z" transform="matrix(29.92303,8.01777,-8.01777,29.92303,-3405.52879,-50219.01929)"/>
<path d="m539.1689,1543.2268c0,1.855-1.5038,3.3588-3.3588,3.3588s-3.3588-1.5038-3.3588-3.3588 1.5038-3.3588 3.3588-3.3588 3.3588,1.5038 3.3588,3.3588z" fill="#fff" transform="matrix(27.15974,7.27733,-7.27733,27.15974,-3047.43486,-45574.3977)"/>
</svg>
