<svg viewBox="0 0 512 512" xmlns="http://www.w3.org/2000/svg">

<g transform="matrix(18.68858,0,0,18.68858,-10447.41185,-38781.64724)">
<g transform="matrix(.94741,0,0,.94741,62.31342,110.90175)">
<path d="m 531.939 2088.52 c -1.0979 -0.8626 -2.6835 -2.8723 -3.6549 -5.2271 l -1.3883 0.5382 c 1.7967 2.8773 3.5968 4.316 5.0435 4.6873 z"/>
</g>
<path d="m 565.964 2076.29 -4.9072 3.1352 c 1.0245 7.7629 4.923 15.4286 11.7568 22.1505 6.7564 -6.6709 10.6892 -14.2881 11.7568 -22.0141 l -5.0435 -3.2375 c -4.3456 0.4265 -9.2228 0.4156 -13.5629 -0.034 z" fill="#fff"/>
<path d="m 561.032 2084.88 11.9386 -7.6955" fill="none" stroke="#000"/>
<path d="m 563.333 2089.79 14.6263 -9.5018" fill="none" stroke="#000"/>
<path d="m 565.328 2095.14 12.4852 -8.1855" fill="none" stroke="#000"/>
<path d="m 569.176 2098.54 8.2167 -5.3074" fill="none" stroke="#000"/>
<path d="m 584.553 2084.88 -13.7569 -8.9223" fill="none" stroke="#000"/>
<path d="m 582.252 2089.79 -9.5676 -6.2472" fill="none" stroke="#000"/>
<path d="m 580.506 2095.35 -7.6586 -5.0755" fill="none" stroke="#000"/>
<path d="m 576.409 2098.54 -3.3414 -2.1583" fill="none" stroke="#000"/>
</g>
</svg>
