<svg viewBox="0 0 512 512" xmlns="http://www.w3.org/2000/svg">

<g transform="matrix(18.68858,0,0,18.68858,-10447.41185,-38781.64724)">
<g transform="matrix(.94741,0,0,.94741,62.31342,110.90175)">
<path d="m531.9392,2088.5191c-1.0979-.8626-2.6835-2.8723-3.6549-5.2271l-1.3883.5382c1.7967,2.8773 3.5968,4.316 5.0435,4.6873z"/>
</g>
<path d="m565.9639,2076.2859-4.9072,3.1352c1.0245,7.7629 4.923,15.4286 11.7568,22.1505 6.7564-6.6709 10.6892-14.2881 11.7568-22.0141l-5.0435-3.2375c-4.3456.4265-9.2228.4156-13.5629-.034z" fill="#fff"/>
<path d="m561.0318,2084.8769 11.9386-7.6955" fill="none" stroke="#000"/>
<path d="m563.3332,2089.7948 14.6263-9.5018" fill="none" stroke="#000"/>
<path d="m565.3279,2095.1442 12.4852-8.1855" fill="none" stroke="#000"/>
<path d="m569.1758,2098.5391 8.2167-5.3074" fill="none" stroke="#000"/>
<path d="m584.5535,2084.8768-13.7569-8.9223" fill="none" stroke="#000"/>
<path d="m582.2521,2089.7948-9.5676-6.2472" fill="none" stroke="#000"/>
<path d="m580.5057,2095.3458-7.6586-5.0755" fill="none" stroke="#000"/>
<path d="m576.4095,2098.5391-3.3414-2.1583" fill="none" stroke="#000"/>
</g>
</svg>
