<svg viewBox="0 0 512 512" xmlns="http://www.w3.org/2000/svg">

<g transform="matrix(18.68858,0,0,18.68858,-9761.91798,-17929.904)">
<path d="m 525.219 960.688 c -2.0114 0.8257 -2.1636 1.999 -1.5 3.3438 8.6451 1.4717 16.5822 8.7189 22.0938 20.7812 h 0.4062 c -2.5466 -13.1949 -12.607 -20.4691 -21 -24.125 z" fill="#fff" fill-rule="evenodd"/>
<path d="m 528.656 964.548 c -1.4166 2.7371 -2.1682 5.7401 -2.8729 8.762" fill="none" stroke="#fff"/>
<path d="m 530.537 965.705 c -1.4758 3.8325 -2.1199 7.8035 -2.7447 11.7778" fill="none" stroke="#fff"/>
<path d="m 532.745 967.511 c -1.3974 4.2684 -2.2804 8.5369 -3.1067 12.8053" fill="none" stroke="#fff"/>
<path d="m 535.356 969.552 c -1.5643 3.9778 -2.4396 8.0704 -3.1413 12.192" fill="none" stroke="#fff"/>
<path d="m 537.755 971.489 c -1.2915 3.905 -2.0993 7.8101 -2.8173 11.7151" fill="none" stroke="#fff"/>
<path d="m 542.062 976.743 c -0.7026 2.5984 -1.2963 5.224 -1.4243 7.9661" fill="none" stroke="#fff"/>
<path d="m 540.131 974.453 c -1.2805 3.0082 -1.7392 6.1808 -2.3268 9.3276" fill="none" stroke="#fff"/>
<path d="m 527.691 964.295 c 2.5587 -1.1001 5.1174 -2.3196 7.6761 -2.5838" fill="none" stroke="#fff"/>
<path d="m 530.192 965.771 c 3.2223 -1.5421 6.4445 -2.3779 9.6668 -2.7615" fill="none" stroke="#fff"/>
<path d="m 532.808 967.229 c 3.2522 -1.2546 6.5086 -2.4925 10.0442 -2.6132" fill="none" stroke="#fff"/>
<path d="m 535.024 968.895 c 3.436 -1.0425 6.8642 -2.1124 10.5825 -2.167" fill="none" stroke="#fff"/>
<path d="m 537.665 970.82 c 3.1469 -1.016 6.2938 -1.682 9.4406 -1.6853" fill="none" stroke="#fff"/>
<path d="m 538.684 972.476 c 2.9636 -0.7284 5.9272 -0.8461 8.8907 -0.5039" fill="none" stroke="#fff"/>
<path d="m 542.44 976.737 c 2.0402 0.383 4.078 0.7805 5.9653 2.1003" fill="none" stroke="#fff"/>
<path d="m 541.038 974.285 c 2.6394 -0.1386 5.0463 0.1995 7.5695 1.1833" fill="none" stroke="#fff"/>
<path d="m 547.906 982.656 c -0.7552 -1.5251 -2.2493 -2.6495 -3.8739 -3.1602 -0.6745 1.8087 -0.8282 3.7215 -0.7811 5.6745" fill="none" stroke="#fff"/>
<path d="m 545.858 985.383 c -0.2397 -1.5636 -0.7244 -3.1272 -1.4767 -4.6909" fill="none" stroke="#fff"/>
<path d="m 532.129 962.35 c 14.0085 3.0953 17.3982 12.9172 13.371 21.2264 -9.8954 -0.1633 -18.119 -5.3547 -18.6114 -14.816" fill="none" stroke="#fff"/>
</g>
</svg>
