<svg viewBox="0 0 512 512" xmlns="http://www.w3.org/2000/svg">

<g transform="matrix(18.68858,0,0,18.68858,-1466.77524,-10388.05416)">
<g transform="matrix(1.03209,0,0,1.03212,-1.70714,-17.08967)">
<path d="m 102.912 558.651 c -1.9394 2.3289 -3.3631 -1.3464 -7.5992 -1.0588 3.1135 3.7881 3.1119 5.6878 1.4466 7.0815 4.7618 1.417 7.9715 -2.1929 6.1526 -6.0228 z" fill="#fff" fill-rule="evenodd"/>
</g>
<path d="m 97.7598 579.64 c -2.9291 5.6855 -7.0369 1.0646 -4.0375 -1.6672 0.3904 1.7709 1.7323 2.4201 4.0375 1.6672 z" fill="#fff" fill-rule="evenodd"/>
<g transform="matrix(1.19966,0,0,1.19969,-47.3758,-120.4022)">
<path d="m 114.214 572.953 c 3.1862 1.5129 1.8318 -1.5866 6.6366 -2.305 -1.7886 3.5643 -0.1371 4.5034 1.3284 5.5844 -3.8747 2.008 -6.5012 0.8425 -7.965 -3.2794 z" fill="#fff" fill-rule="evenodd"/>
</g>
<path d="m 89.2122 568.599 c -1.1969 -0.2355 -2.4083 -0.6625 -3.7101 -2.2834 -0.8808 1.9173 0.2196 5.2826 3.7101 2.2834 z" fill="#fff" fill-rule="evenodd"/>
<path d="m 84.0805 570.859 c -1.4327 -0.6574 -2.7957 -1.6061 -3.7245 -4.3721 -1.3619 2.655 -0.3907 7.9862 3.7245 4.3721 z" fill="#fff" fill-rule="evenodd"/>
<g transform="matrix(1.2059,0,-.0911,1.03212,33.74995,-18.62602)">
<path d="m 82.2988 559.278 c -4.2251 2.1914 -1.1665 7.4914 2.4033 8.4968 -0.9041 -3.2492 1.3183 -5.0603 -2.4033 -8.4968 z" fill="#fff" fill-rule="evenodd"/>
</g>
<g transform="matrix(.78717,-.80487,.51576,1.00999,-265.36011,59.84907)">
<path d="m 82.9113 576.479 c -0.8356 6.024 6.9773 5.5631 8.1489 1.0377 -2.1834 1.6283 -5.8548 -4.7019 -8.1489 -1.0377 z" fill="#fff" fill-rule="evenodd"/>
</g>
<g transform="matrix(1.19815,-.11448,.11539,1.20784,-82.25742,-111.14911)">
<path d="m 82.6239 576.312 c -0.8356 6.024 6.9773 5.5631 8.1489 1.0377 -2.1834 1.6283 -5.8548 -4.7019 -8.1489 -1.0377 z" fill="#fff" fill-rule="evenodd"/>
</g>
<path d="m 95.0206 576.019 c 2.2392 -0.0145 4.3733 -0.7646 6.4965 -1.591" fill="none" stroke="#fff"/>
<path d="m 80.9792 573.914 c 0.8277 1.7082 3.6366 3.8752 6.3552 3.549" fill="none" stroke="#fff"/>
<path d="m 103.746 568.083 c 0.4671 -2.3801 -1.0749 -4.6451 -2.7321 -6.6147" fill="none" stroke="#fff"/>
<path d="m 94.2203 567.961 c -0.3574 1.8642 -2.5098 4.6844 -5.2201 5.0729" fill="none" stroke="#fff"/>
<path d="m 81.8228 564.239 c -0.6297 -2.1781 -0.7513 -4.7651 0.927 -7.0964" fill="none" stroke="#fff"/>
<path d="m 102.625 565.925 c -0.2011 -1.0144 -0.7973 -2.2537 -1.7812 -2.875" fill="none" stroke="#000"/>
<path d="m 96.911 574.832 c 1.5657 -0.2011 3.4785 -0.7973 4.4375 -1.7812" fill="none" stroke="#000"/>
<path d="m 91.4531 570.675 c 1.0167 -0.8646 1.4048 -1.6042 1.875 -2.625" fill="none" stroke="#000"/>
<path d="m 87.2761 577.182 c -1.5278 -0.3972 -3.35 -1.23 -4.1771 -2.3272" fill="none" stroke="#000"/>
<path d="m 83.2165 558.25 c -0.7995 1.3612 -1.499 3.2386 -1.3081 4.5993" fill="none" stroke="#000"/>
</g>
</svg>
