<svg viewBox="0 0 512 512" xmlns="http://www.w3.org/2000/svg">

<g transform="matrix(18.68858,0,0,18.68858,-11808.52466,-44229.69596)">
<path d="m 648.497 2393.45 v -10.0646" fill="#ff0" stroke="#fff"/>
<path d="m 641.882 2393.32 -0.0728 -16.5248" fill="#ff0" stroke="#fff"/>
<path d="m 645.418 2393.23 v -12.8416" fill="#ff0" stroke="#fff"/>
<path d="m 641.969 2377.28 0.3125 16.6563 c 0.2396 -3.2797 2.3542 -2.7517 2.6562 -0.094 l 0.9375 -3.125 c -0.1155 -5.4907 1.8546 -5.452 2.125 -2.4376 l 0.3125 -0.9062 0.6359 2.2812 c 0.1031 -1.6433 1.3393 -4.0725 1.8328 -0.125 l 0.625 -9.8437 z" fill="#fff"/>
<path d="m 146.062 2381.35 c 0 1.3548 -0.5456 2.4531 -1.2188 2.4531 s -1.2188 -1.0983 -1.2188 -2.4531 0.5456 -2.4531 1.2188 -2.4531 1.2188 1.0983 1.2188 2.4531 z" stroke="#fff" stroke-width=".8025" transform="matrix(-1.35069,0,0,1.14948,839.72606,-350.91909)"/>
<path d="m 639.241 2373.26 c 0.0483 1.5259 0.6609 3.0064 2.0195 3.9483 l -1.075 2.6985 c 0.1575 2.1158 11.6484 2.3457 11.6262 -0.1458 l -1.0914 -2.4867 c 1.5329 -1.0802 2.161 -2.5343 2.072 -4.2254 -0.1591 -3.0224 -3.1704 -5.0533 -7.0972 -5.0533 s -6.5428 2.4628 -6.454 5.2644 z" fill="#fff"/>
<path d="m 650.718 2372.43 c -0.9615 1.3106 -1.892 1.6896 -3.3745 1.8581 1.822 3.1349 5.9277 0.5369 3.3745 -1.8581 z"/>
<path d="m 646.195 2374.87 -1.1437 2.9775 c 0.6044 0.2709 1.7515 0.2734 2.3768 -0.1044 z"/>
<path d="m 634.765 2393.69 h 20.0015" fill="none" stroke="#000"/>
<path d="m 652.274 2379.75 c -3.386 3.4416 -8.8762 3.4416 -12.2623 0" fill="none" stroke="#000"/>
<path d="m 642.053 2381.02 0.7382 -2.6279" fill="none" stroke="#000"/>
<path d="m 650.173 2381.02 -0.7382 -2.6279" fill="none" stroke="#000"/>
<path d="m 645.006 2379.19 -0.2362 2.7497" fill="none" stroke="#000"/>
<path d="m 647.368 2379.19 0.2362 2.7202" fill="none" stroke="#000"/>
<path d="m 146.062 2381.35 c 0 1.3548 -0.5456 2.4531 -1.2188 2.4531 s -1.2188 -1.0983 -1.2188 -2.4531 0.5456 -2.4531 1.2188 -2.4531 1.2188 1.0983 1.2188 2.4531 z" stroke="#fff" stroke-width="1.2447" transform="matrix(-1.0521,0,0,.61349,800.86986,923.68029)"/>
<path d="m 641.727 2372.43 c 0.9615 1.3106 1.892 1.6896 3.3745 1.8581 -1.822 3.1349 -5.9277 0.5369 -3.3745 -1.8581 z"/>
<path d="m 651.342 2377.7 -2.8603 -0.4176 c 1.4359 -0.1348 3.2416 -0.8145 4.0922 -2.1922"/>
<path d="m 640.778 2377.7 2.8603 -0.4176 c -1.4359 -0.1348 -3.2416 -0.8145 -4.0922 -2.1922"/>
</g>
</svg>
