<svg viewBox="0 0 512 512" xmlns="http://www.w3.org/2000/svg">

<g transform="matrix(18.68858,0,0,18.68858,-11808.52466,-44229.69596)">
<path d="m648.4969,2393.4536v-10.0646" fill="#ff0" stroke="#fff"/>
<path d="m641.8824,2393.3234-.0728-16.5248" fill="#ff0" stroke="#fff"/>
<path d="m645.4179,2393.2254v-12.8416" fill="#ff0" stroke="#fff"/>
<path d="m641.9688,2377.2812 .3125,16.6563c.2396-3.2797 2.3542-2.7517 2.6562-.094l.9375-3.125c-.1155-5.4907 1.8546-5.452 2.125-2.4376l.3125-.9062 .6359,2.2812c.1031-1.6433 1.3393-4.0725 1.8328-.125l.625-9.8437z" fill="#fff"/>
<path d="m146.0625,2381.3467c0,1.3548-.5456,2.4531-1.2188,2.4531s-1.2188-1.0983-1.2188-2.4531 .5456-2.4531 1.2188-2.4531 1.2188,1.0983 1.2188,2.4531z" stroke="#fff" stroke-width=".8025" transform="matrix(-1.35069,0,0,1.14948,839.72606,-350.91909)"/>
<path d="m639.2414,2373.2646c.0483,1.5259.6609,3.0064 2.0195,3.9483l-1.075,2.6985c.1575,2.1158 11.6484,2.3457 11.6262-.1458l-1.0914-2.4867c1.5329-1.0802 2.161-2.5343 2.072-4.2254-.1591-3.0224-3.1704-5.0533-7.0972-5.0533s-6.5428,2.4628-6.454,5.2644z" fill="#fff"/>
<path d="m650.7183,2372.4291c-.9615,1.3106-1.892,1.6896-3.3745,1.8581 1.822,3.1349 5.9277.5369 3.3745-1.8581z"/>
<path d="m646.1948,2374.8724-1.1437,2.9775c.6044.2709 1.7515.2734 2.3768-.1044z"/>
<path d="m634.7649,2393.6926h20.0015" fill="none" stroke="#000"/>
<path d="m652.2743,2379.7452c-3.386,3.4416-8.8762,3.4416-12.2623,0" fill="none" stroke="#000"/>
<path d="m642.053,2381.0234 .7382-2.6279" fill="none" stroke="#000"/>
<path d="m650.1727,2381.0234-.7382-2.6279" fill="none" stroke="#000"/>
<path d="m645.0056,2379.1928-.2362,2.7497" fill="none" stroke="#000"/>
<path d="m647.3678,2379.1928 .2362,2.7202" fill="none" stroke="#000"/>
<path d="m146.0625,2381.3467c0,1.3548-.5456,2.4531-1.2188,2.4531s-1.2188-1.0983-1.2188-2.4531 .5456-2.4531 1.2188-2.4531 1.2188,1.0983 1.2188,2.4531z" stroke="#fff" stroke-width="1.2447" transform="matrix(-1.0521,0,0,.61349,800.86986,923.68029)"/>
<path d="m641.7272,2372.4291c.9615,1.3106 1.892,1.6896 3.3745,1.8581-1.822,3.1349-5.9277.5369-3.3745-1.8581z"/>
<path d="m651.3423,2377.6998-2.8603-.4176c1.4359-.1348 3.2416-.8145 4.0922-2.1922"/>
<path d="m640.7778,2377.6998 2.8603-.4176c-1.4359-.1348-3.2416-.8145-4.0922-2.1922"/>
</g>
</svg>
