<svg viewBox="0 0 512 512" xmlns="http://www.w3.org/2000/svg">

<g transform="matrix(18.68858,0,0,18.68858,-4994.75312,-32001.29376)">
<path d="m 276.477 1714.41 c -1.6356 7.1571 -2.2713 12.9347 -1.6328 21.3898 0.1611 2.133 1.1495 2.9196 2.7194 2.9196 h 13.8044 c 1.9853 0 1.205 -2.1527 0.1658 -3.5829 -1.487 -2.0465 -4.7496 -1.8582 -6.7431 -4.3391 -1.7974 -4.761 -0.2813 -8.5566 2.1669 -13.1983 0.7317 -1.3872 -1.721 -3.438 -3.7725 -3.9424 -2.3266 -0.572 -6.3702 -0.7256 -6.7081 0.7533 z" fill="#fff"/>
<path d="m 286.125 1732.02 c -2.0851 -0.8271 -4.1702 0.022 -6.2553 1.6889 1.3511 -2.0095 3.3784 -3.6934 5.6297 -2.7523"/>
<path d="m 284.523 1729.55 c -1.8 -1.3386 -4.0337 -1.0585 -6.4793 0.017 1.8251 -1.5911 4.2192 -2.6931 6.1502 -1.2014"/>
<path d="m 274.664 1735.55 c 1.4147 1.3561 3.6586 1.8031 5.8165 2.3444 -1.8649 0.075 -3.7396 0 -5.6491 -0.6329"/>
<path d="m 283.586 1721.89 c 2.2256 0.6248 3.5194 2.0489 3.6921 3.0651 3.5408 -8.6445 2.4818 -12.1376 -7.6917 -12.1376 -8.3063 0 -7.6458 2.3168 -7.3881 9.6316 1.6372 -1.3827 7.093 -1.1218 10.9739 -0.032" fill="#fff" stroke="#000"/>
<path d="m 282.501 1722.27 c 1.1339 -2.6859 1.6813 -5.2083 2.2342 -7.732 0.0335 2.6605 0.0577 5.3209 -0.782 7.9814"/>
</g>
</svg>
