<svg viewBox="0 0 512 512" xmlns="http://www.w3.org/2000/svg">

<g transform="matrix(18.68858,0,0,18.68858,-4994.75312,-32001.29376)">
<path d="m276.4774,1714.4106c-1.6356,7.1571-2.2713,12.9347-1.6328,21.3898 .1611,2.133 1.1495,2.9196 2.7194,2.9196h13.8044c1.9853,0 1.205-2.1527.1658-3.5829-1.487-2.0465-4.7496-1.8582-6.7431-4.3391-1.7974-4.761-.2813-8.5566 2.1669-13.1983 .7317-1.3872-1.721-3.438-3.7725-3.9424-2.3266-.572-6.3702-.7256-6.7081.7533z" fill="#fff"/>
<path d="m286.1245,1732.0169c-2.0851-.8271-4.1702.022-6.2553,1.6889 1.3511-2.0095 3.3784-3.6934 5.6297-2.7523"/>
<path d="m284.5234,1729.549c-1.8-1.3386-4.0337-1.0585-6.4793.017 1.8251-1.5911 4.2192-2.6931 6.1502-1.2014"/>
<path d="m274.6642,1735.5494c1.4147,1.3561 3.6586,1.8031 5.8165,2.3444-1.8649.075-3.7396,0-5.6491-.6329"/>
<path d="m283.5864,1721.8914c2.2256.6248 3.5194,2.0489 3.6921,3.0651 3.5408-8.6445 2.4818-12.1376-7.6917-12.1376-8.3063,0-7.6458,2.3168-7.3881,9.6316 1.6372-1.3827 7.093-1.1218 10.9739-.032" fill="#fff" stroke="#000"/>
<path d="m282.5007,1722.2661c1.1339-2.6859 1.6813-5.2083 2.2342-7.732 .0335,2.6605.0577,5.3209-.782,7.9814"/>
</g>
</svg>
