<svg viewBox="0 0 512 512" xmlns="http://www.w3.org/2000/svg">

<g transform="matrix(18.68858,0,0,18.68858,-12483.77359,-32681.44968)">
<path d="m686.6585,1762.73-4.7595-1.5208c5.3215,4.2336 5.0814,13.4674-2.2393,14.6331h-11.305v-5.1914c3.3539,2.183 4.8913,3.0681 8.2452-1.2531 1.1864-5.2482-5.7614-6.8303-3.8566-13.3043 .5697-7.1449 14.3981-7.0644 18.5178-3.4252z" fill="#fff"/>
<path d="m686.9477,1762.2056c0,3.0306-2.4568,5.4874-5.4874,5.4874s-5.4874-2.4568-5.4874-5.4874 2.4568-5.4874 5.4874-5.4874 5.4874,2.4568 5.4874,5.4874z" stroke="#fff" stroke-width="1.1611" transform="matrix(-.60162,-.45842,-.49231,.8577,1967.1358,559.30894)"/>
<path d="m693.5569,1759.515c-1.0264.2674-2.0636.055-3.1057-.3619 .4283,1.0485 1.2189,1.7515 2.1737,2.2982z" fill="#fff"/>
<path d="m688.6597,1753.6383c.3553.897.4525,1.9218.3473,3.0468l-2.0258-1.8565z" fill="#fff"/>
<path d="m693.3952,1755.6769c-.6222.9501-1.3285,1.8163-2.5191,2.1981 .9628.2036 1.9222.3657 2.8286-.1083z" fill="#fff"/>
<path d="m685.2948,1760.4121 3.0404-1.1977c-.416,1.1872-1.0975,2.1001-1.8971,2.8909z" fill="#fff"/>
<path d="m688.175,1763.3495c.5726-1.153 1.0641-2.2969 1.216-3.4017l1.1472,3.3129z" fill="#fff"/>
<path d="m692.892,1753.7012c-.5594,1.1871-1.2104,2.3495-2.6298,3.3062 .4789-1.2273.5047-2.5478-.1746-4.0135z" fill="#fff"/>
<path d="m692.2311,1753.5781c-6.375-5.8604-19.7531-4.139-19.9838,4.2123-.1451,5.2521 5.6877,6.8821 4.3607,11.2337-1.217,3.9909-6.4143,3.9122-8.1932,1.7733" fill="none" stroke="#fff"/>
<path d="m685.5853,1764.7223 .1892-2.0815c-1.1919-2.4628-5.1607-2.9411-7.9473-1.6461 3.1777,0 6.3089.4475 7.758,3.7276z"/>
<path d="m668.4797,1768.7715v6.8877h17.7489" fill="none" stroke="#000"/>
<path d="m685.9837,1756.6521 2.291,1.2227-2.5883.6594z" fill="#fff"/>
<path d="m693.0977,1753.615-2.131-2.6035c-2.792-1.1817-7.3556,2.7701-5.9286,6.4027 .5967-3.7557 4.4766-7.4407 8.0596-3.7992z"/>
</g>
</svg>
