<svg viewBox="0 0 512 512" xmlns="http://www.w3.org/2000/svg">

<g transform="matrix(18.68858,0,0,18.68858,-12483.77359,-32681.44968)">
<path d="m 686.659 1762.73 -4.7595 -1.5208 c 5.3215 4.2336 5.0814 13.4674 -2.2393 14.6331 h -11.305 v -5.1914 c 3.3539 2.183 4.8913 3.0681 8.2452 -1.2531 1.1864 -5.2482 -5.7614 -6.8303 -3.8566 -13.3043 0.5697 -7.1449 14.3981 -7.0644 18.5178 -3.4252 z" fill="#fff"/>
<path d="m 686.948 1762.21 c 0 3.0306 -2.4568 5.4874 -5.4874 5.4874 s -5.4874 -2.4568 -5.4874 -5.4874 2.4568 -5.4874 5.4874 -5.4874 5.4874 2.4568 5.4874 5.4874 z" stroke="#fff" stroke-width="1.1611" transform="matrix(-.60162,-.45842,-.49231,.8577,1967.1358,559.30894)"/>
<path d="m 693.557 1759.52 c -1.0264 0.2674 -2.0636 0.055 -3.1057 -0.3619 0.4283 1.0485 1.2189 1.7515 2.1737 2.2982 z" fill="#fff"/>
<path d="m 688.66 1753.64 c 0.3553 0.897 0.4525 1.9218 0.3473 3.0468 l -2.0258 -1.8565 z" fill="#fff"/>
<path d="m 693.395 1755.68 c -0.6222 0.9501 -1.3285 1.8163 -2.5191 2.1981 0.9628 0.2036 1.9222 0.3657 2.8286 -0.1083 z" fill="#fff"/>
<path d="m 685.295 1760.41 3.0404 -1.1977 c -0.416 1.1872 -1.0975 2.1001 -1.8971 2.8909 z" fill="#fff"/>
<path d="m 688.175 1763.35 c 0.5726 -1.153 1.0641 -2.2969 1.216 -3.4017 l 1.1472 3.3129 z" fill="#fff"/>
<path d="m 692.892 1753.7 c -0.5594 1.1871 -1.2104 2.3495 -2.6298 3.3062 0.4789 -1.2273 0.5047 -2.5478 -0.1746 -4.0135 z" fill="#fff"/>
<path d="m 692.231 1753.58 c -6.375 -5.8604 -19.7531 -4.139 -19.9838 4.2123 -0.1451 5.2521 5.6877 6.8821 4.3607 11.2337 -1.217 3.9909 -6.4143 3.9122 -8.1932 1.7733" fill="none" stroke="#fff"/>
<path d="m 685.585 1764.72 0.1892 -2.0815 c -1.1919 -2.4628 -5.1607 -2.9411 -7.9473 -1.6461 3.1777 0 6.3089 0.4475 7.758 3.7276 z"/>
<path d="m 668.48 1768.77 v 6.8877 h 17.7489" fill="none" stroke="#000"/>
<path d="m 685.984 1756.65 2.291 1.2227 -2.5883 0.6594 z" fill="#fff"/>
<path d="m 693.098 1753.62 -2.131 -2.6035 c -2.792 -1.1817 -7.3556 2.7701 -5.9286 6.4027 0.5967 -3.7557 4.4766 -7.4407 8.0596 -3.7992 z"/>
</g>
</svg>
