<svg viewBox="0 0 512 512" xmlns="http://www.w3.org/2000/svg">

<g transform="matrix(4.8395344,0,0,4.8395344,-430.38035,-775.98013)">
<path d="m 123.813 223.552 c 2.575 0 4.663 -2.087 4.663 -4.663 s -2.088 -4.662 -4.663 -4.662 -4.663 2.086 -4.663 4.662 2.088 4.663 4.663 4.663 z m -22.516 -4.633 c 0 -12.267 9.882 -22.225 22.119 -22.348 -0.241 -1.828 -0.354 -3.722 -0.298 -5.709 1.112 -38.922 61.6 -30.859 52.456 6.491 -3.386 13.832 -9.293 26.978 -14.749 38.98 -5.1 11.222 2.822 10.395 3.562 6.777 l 17.274 0.376 c -0.629 28.784 -53.437 22.818 -36.566 -14.302 5.533 -12.174 10.118 -24.084 13.696 -35.941 4.094 -13.563 -27.018 -18.643 -15.804 10.28 1.608 4.149 3.005 9.246 2.981 14.265 l 0.028 1.13 c 0 12.343 -10.006 22.349 -22.35 22.349 s -22.349 -10.005 -22.349 -22.348 z" fill="#fff"/>
</g>
</svg>
