<svg viewBox="0 0 512 512" xmlns="http://www.w3.org/2000/svg">

<g transform="matrix(18.68858,0,0,18.68858,-11128.19776,-43547.65376)">
<path d="m 601.451 2339.23 -1.9452 -4.1278 3.6475 1.1908 1.2015 -3.8117 3.0014 3.204 3.494 -4.5068 1.114 5.9247 5.1145 -3.3421 -1.266 4.9119 5.1651 -1.4685 -1.8736 4.3917 2.6838 0.6721 -2.2425 2.2824 2.3944 2.6802 -3.2915 0.5063 1.9749 4.2537 -3.8485 -1.1141 0.9621 4.7702 -4.5068 -2.8966 -1.4439 3.314 -2.6071 -3.1115 -3.6669 3.7668 -0.222 -4.8469 -5.7829 1.8782 2.0885 -4.8332 -5.1058 -0.5309 4.5365 -4.5995 -4.0004 -2.937 z" fill="#fff"/>
<g transform="matrix(1.11985,0,0,1.11985,-72.9167,-280.14408)">
<path d="m 601.839 2345.77 2.0768 -7.3762 c 6.0586 -0.092 10.3829 2.3015 14.0362 5.6574 l -5.2278 6.0156 c -2.4191 -1.7974 -6.3229 -4.0754 -10.8852 -4.2968 z" stroke="#fff" stroke-width=".893"/>
<path d="m 604.202 2338.65 3.8671 6.1946 9.3813 -0.7161" fill="none" stroke="#fff" stroke-width=".893"/>
<path d="m 602.161 2345.23 4.4485 -2.1275 m 4.157 1.6494 1.8859 4.8465" fill="none" stroke="#fff" stroke-width=".893"/>
</g>
</g>
</svg>
