<svg viewBox="0 0 512 512" xmlns="http://www.w3.org/2000/svg">

<g transform="matrix(18.68858,0,0,18.68858,-11128.19776,-43547.65376)">
<path d="m601.4506,2339.2333-1.9452-4.1278 3.6475,1.1908 1.2015-3.8117 3.0014,3.204 3.494-4.5068 1.114,5.9247 5.1145-3.3421-1.266,4.9119 5.1651-1.4685-1.8736,4.3917 2.6838.6721-2.2425,2.2824 2.3944,2.6802-3.2915.5063 1.9749,4.2537-3.8485-1.1141 .9621,4.7702-4.5068-2.8966-1.4439,3.314-2.6071-3.1115-3.6669,3.7668-.222-4.8469-5.7829,1.8782 2.0885-4.8332-5.1058-.5309 4.5365-4.5995-4.0004-2.937z" fill="#fff"/>
<g transform="matrix(1.11985,0,0,1.11985,-72.9167,-280.14408)">
<path d="m601.8388,2345.7713 2.0768-7.3762c6.0586-.092 10.3829,2.3015 14.0362,5.6574l-5.2278,6.0156c-2.4191-1.7974-6.3229-4.0754-10.8852-4.2968z" stroke="#fff" stroke-width=".893"/>
<path d="m604.202,2338.6457 3.8671,6.1946 9.3813-.7161" fill="none" stroke="#fff" stroke-width=".893"/>
<path d="m602.161,2345.2342 4.4485-2.1275m4.157,1.6494 1.8859,4.8465" fill="none" stroke="#fff" stroke-width=".893"/>
</g>
</g>
</svg>
