<svg xmlns="http://www.w3.org/2000/svg" viewBox="0 0 512 512">
<g transform="matrix(15 0 0 15 14.53975 -4364)">
<use width="744.094" height="1052.362" transform="translate(36 288)"/>
<g fill="#fff">
<path d="m 22.0973 308 a 6 6.4 0 0 1 -12 0 6 6.4 0 1 1 12 0 z"/>
<path d="m 16.0973 292 c 1.5 4.8 3 4.8 3 8 0 0 -1.5 1.6 -3 1.6 -1.5 0 -3 -1.6 -3 -1.6 0 -3.2 1.5 -3.2 3 -8 z"/>
<path d="m 16.0973 324 c -1.5 -4.8 -3 -4.8 -3 -8 0 0 1.5 -1.6 3 -1.6 1.5 0 3 1.6 3 1.6 0 3.2 -1.5 3.2 -3 8 z"/>
</g>
</g>
</svg>
