<svg xmlns="http://www.w3.org/2000/svg" viewBox="0 0 512 512">
<g transform="matrix(15 0 0 15 -524 -4364)">
<use width="744.094" height="1052.362" transform="translate(72 288)"/>
<g fill="#fff">
<path d="m 52 301.6 c -3.3137 0 -6 2.8654 -6 6.4 0 3.5346 2.6863 6.4 6 6.4 3.3137 0 6 -2.8654 6 -6.4 0 -3.5346 -2.6863 -6.4 -6 -6.4 z m -1.5 1.6 3 0 0 3.2 3 0 0 3.2 -3 0 0 3.2 -3 0 0 -3.2 -3 0 0 -3.2 3 0 0 -3.2 z"/>
<path d="m 52 292 c 1.5 4.8 3 4.8 3 8 0 0 -1.5 1.6 -3 1.6 -1.5 0 -3 -1.6 -3 -1.6 0 -3.2 1.5 -3.2 3 -8 z"/>
<path d="m 52 324 c -1.5 -4.8 -3 -4.8 -3 -8 0 0 1.5 -1.6 3 -1.6 1.5 0 3 1.6 3 1.6 0 3.2 -1.5 3.2 -3 8 z"/>
</g>
</g>
</svg>
