<svg viewBox="0 0 512 512" xmlns="http://www.w3.org/2000/svg">

<g transform="matrix(18.68858,0,0,18.68858,-920.26538,-47619.95622)">
<path d="m 68.6578 2557.49 c -5.8503 -2.5951 -11.5239 -1.4798 -15.7205 2.2344" fill="none" stroke="#fff"/>
<path d="m 71.446 2552.5 c -8.081 -3.8614 -15.8668 -2.653 -21.183 2.601" fill="none" stroke="#fff"/>
<path d="m 70.1287 2555.02 c -6.4566 -3.5136 -13.3577 -2.3116 -18.4424 2.1199" fill="none" stroke="#fff"/>
<g transform="translate(-398.8814,292.0774)">
<path d="m 1538.23 1727.44 h 2.8436 v 13.4846 h -2.8436 z" fill="#fff" stroke="#000" transform="rotate(30)"/>
<path d="m 468.575 2281.21 h -13.5388 c 0 -3.7386 3.0308 -6.7694 6.7694 -6.7694 s 6.7694 3.0308 6.7694 6.7694 z" fill="#fff" stroke="#000"/>
<path d="m 465.686 2281.45 c 0 0.7931 -0.6429 1.436 -1.436 1.436 s -1.436 -0.6429 -1.436 -1.436 0.6429 -1.436 1.436 -1.436 1.436 0.6429 1.436 1.436 z" fill="#fff" stroke="#000" transform="translate(-2.5274,-1.7232)"/>
<path d="m 1537.45 1721.27 h 4.4028 v 7.5817 h -4.4028 z" fill="#fff" stroke="#000" transform="rotate(30)"/>
<path d="m 453.011 2281.04 h 17.232 v 1.8381 h -17.232 z" fill="#fff" stroke="#000"/>
</g>
<path d="m 55.5676 2550 4.3668 13.387" fill="none" stroke="#000"/>
<path d="m 51.3635 2552.04 6.4299 12.0277" fill="none" stroke="#000"/>
<path d="m 62.3389 2548.72 -0.0456 13.5314" fill="none" stroke="#000"/>
<path d="m 49.548 2554.31 6.4711 10.5904" fill="none" stroke="#000"/>
</g>
</svg>