<svg xmlns="http://www.w3.org/2000/svg" viewBox="0 0 512 512">
<g transform="matrix(15 0 0 15 -1064.0001 -4364.0003)">
<use width="744.094" height="1052.362" transform="translate(108 288)"/>
<g fill="#fff">
<path d="m95.3901,312.6667a7.3901,7.4667 0 0,1 -14.7802,0 7.3901,7.4667 0 1,1 14.7802,0z"/>
<path d="m88,294c1.8475,5.6 3.695,5.6 3.695,9.3333 0,0-1.8475,1.8667-3.695,1.8667-1.8475,0-3.695-1.8667-3.695-1.8667 0-3.7333 1.8475-3.7333 3.695-9.3333z"/>
<path d="m104,322c-5.7238-1.1834-6.6475,.4332-9.8475-1.4335 0,0-.6762-2.5499 .2475-4.1665 .9238-1.6166 3.4475-2.2998 3.4475-2.2998 3.2,1.8667 2.2762,3.4832 6.1525,7.8998z"/>
<path d="m72,322c3.8762-4.4166 2.9525-6.0332 6.1525-7.8998 0,0 2.5238,.6832 3.4475,2.2998 .9238,1.6166 .2475,4.1665 .2475,4.1665-3.2,1.8667-4.1238,.2501-9.8475,1.4335z"/>
</g>
</g>
</svg>
