<svg xmlns="http://www.w3.org/2000/svg" viewBox="0 0 512 512">
<g transform="matrix(15.00002 0 0 15.00002 -2684.0034 -4364.0059)">
<use width="744.094" height="1052.362" transform="translate(216 288)"/>
<g fill="#fff">
<path d="m 196 298.949 c -4.9987 0 -9.051 4.0522 -9.051 9.051 0 4.9987 4.0522 9.051 9.051 9.051 4.9987 0 9.051 -4.0523 9.051 -9.051 0 -4.9987 -4.0522 -9.051 -9.051 -9.051 z m -2.2627 2.2627 4.5255 0 0 4.5255 4.5255 0 0 4.5255 -4.5255 0 0 4.5255 -4.5255 0 0 -4.5255 -4.5255 0 0 -4.5255 4.5255 0 0 -4.5255 z"/>
<path d="m 180 292 c 6.4 3.2 8 1.6 11.2 4.8 0 0 0 3.2 -1.6 4.8 -1.6 1.6 -4.8 1.6 -4.8 1.6 -3.2 -3.2 -1.6 -4.8 -4.8 -11.2 z"/>
<path d="m 212 324 c -6.4 -3.2 -8 -1.6 -11.2 -4.8 0 0 0 -3.2 1.6 -4.8 1.6 -1.6 4.8 -1.6 4.8 -1.6 3.2 3.2 1.6 4.8 4.8 11.2 z"/>
<path d="m 212 292 c -3.2 6.4 -1.6 8 -4.8 11.2 0 0 -3.2 0 -4.8 -1.6 -1.6 -1.6 -1.6 -4.8 -1.6 -4.8 3.2 -3.2 4.8 -1.6 11.2 -4.8 z"/>
<path d="m 180 324 c 3.2 -6.4 1.6 -8 4.8 -11.2 0 0 3.2 0 4.8 1.6 1.6 1.6 1.6 4.8 1.6 4.8 -3.2 3.2 -4.8 1.6 -11.2 4.8 z"/>
</g>
</g>
</svg>
