<svg xmlns="http://www.w3.org/2000/svg" viewBox="0 0 512 512">
<g transform="matrix(15.00001 0 0 15.00001 -2144.002 -4364.0043)">
<use width="744.094" height="1052.362" transform="translate(180 288)"/>
<g fill="#fff">
<path d="m169.0509,308a9.051,9.051 0 0,1 -18.1019,0 9.051,9.051 0 1,1 18.1019,0z"/>
<path d="m144,292c6.4,3.2 8,1.6 11.2,4.8 0,0 0,3.2-1.6,4.8-1.6,1.6-4.8,1.6-4.8,1.6-3.2-3.2-1.6-4.8-4.8-11.2z"/>
<path d="m176,324c-6.4-3.2-8-1.6-11.2-4.8 0,0 0-3.2 1.6-4.8 1.6-1.6 4.8-1.6 4.8-1.6 3.2,3.2 1.6,4.8 4.8,11.2z"/>
<path d="m176,292c-3.2,6.4-1.6,8-4.8,11.2 0,0-3.2,0-4.8-1.6-1.6-1.6-1.6-4.8-1.6-4.8 3.2-3.2 4.8-1.6 11.2-4.8z"/>
<path d="m144,324c3.2-6.4 1.6-8 4.8-11.2 0,0 3.2,0 4.8,1.6 1.6,1.6 1.6,4.8 1.6,4.8-3.2,3.2-4.8,1.6-11.2,4.8z"/>
</g>
</g>
</svg>
