<svg xmlns="http://www.w3.org/2000/svg" viewBox="0 0 512 512">
<g transform="matrix(15 0 0 15 -1604 -4364)">
<use width="744.094" height="1052.362" transform="translate(144 288)"/>
<g fill="#fff">
<path d="m 124 305.2 c -4.0814 0 -7.3901 3.3429 -7.3901 7.4667 0 4.1237 3.3087 7.4667 7.3901 7.4667 4.0814 0 7.3901 -3.343 7.3901 -7.4667 0 -4.1237 -3.3087 -7.4667 -7.3901 -7.4667 z m -1.8475 1.8667 3.695 0 0 3.7333 3.695 0 0 3.7333 -3.695 0 0 3.7333 -3.695 0 0 -3.7333 -3.695 0 0 -3.7333 3.695 0 0 -3.7333 z"/>
<path d="m 124 294 c 1.8475 5.6 3.695 5.6 3.695 9.3333 0 0 -1.8475 1.8667 -3.695 1.8667 -1.8475 0 -3.695 -1.8667 -3.695 -1.8667 0 -3.7333 1.8475 -3.7333 3.695 -9.3333 z"/>
<path d="m 140 322 c -5.7238 -1.1834 -6.6475 0.4332 -9.8475 -1.4335 0 0 -0.6762 -2.5499 0.2475 -4.1665 0.9238 -1.6166 3.4475 -2.2998 3.4475 -2.2998 3.2 1.8667 2.2762 3.4832 6.1525 7.8998 z"/>
<path d="m 108 322 c 3.8762 -4.4166 2.9525 -6.0332 6.1525 -7.8998 0 0 2.5238 0.6832 3.4475 2.2998 0.9238 1.6166 0.2475 4.1665 0.2475 4.1665 -3.2 1.8667 -4.1238 0.2501 -9.8475 1.4335 z"/>
</g>
</g>
</svg>
