<svg viewBox="0 0 512 512" xmlns="http://www.w3.org/2000/svg">

<g transform="matrix(18.68858,0,0,18.68858,-920.26538,-47619.95622)">
<path d="m68.6578,2557.4944c-5.8503-2.5951-11.5239-1.4798-15.7205,2.2344" fill="none" stroke="#fff"/>
<path d="m71.446,2552.4989c-8.081-3.8614-15.8668-2.653-21.183,2.601" fill="none" stroke="#fff"/>
<path d="m70.1287,2555.0222c-6.4566-3.5136-13.3577-2.3116-18.4424,2.1199" fill="none" stroke="#fff"/>
<g transform="translate(-398.8814,292.0774)">
<path d="m1538.2335,1727.4445h2.8436v13.4846h-2.8436z" fill="#fff" stroke="#000" transform="rotate(30)"/>
<path d="m468.5752,2281.2087h-13.5388c0-3.7386 3.0308-6.7694 6.7694-6.7694s6.7694,3.0308 6.7694,6.7694z" fill="#fff" stroke="#000"/>
<path d="m465.6862,2281.4468c0,.7931-.6429,1.436-1.436,1.436s-1.436-.6429-1.436-1.436 .6429-1.436 1.436-1.436 1.436.6429 1.436,1.436z" fill="#fff" stroke="#000" transform="translate(-2.5274,-1.7232)"/>
<path d="m1537.454,1721.2709h4.4028v7.5817h-4.4028z" fill="#fff" stroke="#000" transform="rotate(30)"/>
<path d="m453.0111,2281.0447h17.232v1.8381h-17.232z" fill="#fff" stroke="#000"/>
</g>
<path d="m55.5676,2549.997 4.3668,13.387" fill="none" stroke="#000"/>
<path d="m51.3635,2552.0394 6.4299,12.0277" fill="none" stroke="#000"/>
<path d="m62.3389,2548.7202-.0456,13.5314" fill="none" stroke="#000"/>
<path d="m49.548,2554.3088 6.4711,10.5904" fill="none" stroke="#000"/>
</g>
</svg>