<svg viewBox="0 0 512 512" xmlns="http://www.w3.org/2000/svg">

<g transform="matrix(5.09935,0,0,5.09935,-1829.0354,-790.77935)">
<path d="m365.407,229.796h86.919v16.268h-86.919v-16.268zm50.681-13.11v-10.009c4.836-2.627 8.026-7.562 8.026-13.228 0-8.3-6.844-15.028-15.283-15.028s-15.282,6.728-15.282,15.028c0,5.598 3.112,10.481 7.729,13.067v10.17l-.06,6.191h-35.812v-16.267h12.987c-1.959-4.016-3.051-8.487-3.051-13.197 0-17.46 15.008-31.615 33.522-31.615s33.522,14.155 33.522,31.615c0,4.71-1.092,9.181-3.051,13.197h12.988v16.267h-36.233l-.002-6.191z" fill="#fff"/>
</g>
</svg>
