<svg viewBox="0 0 512 512" xmlns="http://www.w3.org/2000/svg">

<g transform="matrix(5.09935,0,0,5.09935,-1829.0354,-790.77935)">
<path d="m 365.407 229.796 h 86.919 v 16.268 h -86.919 v -16.268 z m 50.681 -13.11 v -10.009 c 4.836 -2.627 8.026 -7.562 8.026 -13.228 0 -8.3 -6.844 -15.028 -15.283 -15.028 s -15.282 6.728 -15.282 15.028 c 0 5.598 3.112 10.481 7.729 13.067 v 10.17 l -0.06 6.191 h -35.812 v -16.267 h 12.987 c -1.959 -4.016 -3.051 -8.487 -3.051 -13.197 0 -17.46 15.008 -31.615 33.522 -31.615 s 33.522 14.155 33.522 31.615 c 0 4.71 -1.092 9.181 -3.051 13.197 h 12.988 v 16.267 h -36.233 l -0.002 -6.191 z" fill="#fff"/>
</g>
</svg>
