<svg viewBox="0 0 512 512" xmlns="http://www.w3.org/2000/svg">

<g transform="matrix(18.68858,0,0,18.68858,-12483.38631,-37444.7449)">
<path d="m 692.472 2013.42 c 0.2184 6.9605 -10.6866 11.8512 -11.7105 15.6718 -1.1187 -4.1754 -11.513 -8.4086 -11.7449 -15.6718 -0.2226 -6.9755 8.3761 -8.4884 11.7449 -2.6534 3.4512 -5.9775 11.4952 -4.2054 11.7105 2.6534 z" fill="#fff"/>
<path d="m 692.767 2025.08 c -0.2799 2.3201 -1.3129 2.0167 -1.3336 3.4784 -0.009 0.6625 0.6116 1.2096 1.3812 1.2096 s 1.4051 -0.5469 1.4051 -1.2096 c 0 -1.4691 -1.1438 -1.1673 -1.4527 -3.4784 z" fill="#fff" fill-rule="evenodd"/>
<path d="m 685.855 2019.81 c 0 1.696 -1.3748 3.0708 -3.0707 3.0708 s -3.0707 -1.3748 -3.0707 -3.0708 1.3748 -3.0707 3.0707 -3.0707 3.0707 1.3748 3.0707 3.0707 z" fill="#fff" stroke="#000" stroke-width="1.053" transform="matrix(.85088,0,0,1.05986,103.74986,-120.3225)"/>
<path d="m 685.456 2019.05 h 2.5725 v 2.6284 h -2.5725 c -1.9166 0 -1.585 -2.6284 0 -2.6284 z" fill="#fff" stroke="#000"/>
<path d="m 688.489 2019.55 v 1.6296 h 2.3759 c 0.767 -0.015 1.1203 0.2982 1.1203 1.0185 v 1.8333 h 1.6296 v -1.8333 c 0 -1.5492 -0.8217 -2.6481 -2.7499 -2.6481 z" fill="#fff"/>
<path d="m 686.976 2018.12 h 3.6876 v 4.3649 h -3.6876 z" fill="#fff" stroke="#000"/>
<path d="m 688.819 2018.12 v -2.3237" fill="none" stroke="#000"/>
<path d="m 686.896 2016.1 h 3.8475" fill="none" stroke="#000"/>
<path d="m 676.642 2006.88 c 3.0984 1.0911 5.0379 3.8035 4.6327 6.7037" fill="none" stroke="#000"/>
</g>
</svg>
