<svg viewBox="0 0 512 512" xmlns="http://www.w3.org/2000/svg">

<g transform="matrix(18.68858,0,0,18.68858,-909.33284,-22487.69339)">
<path d="m75.6101,1211.708c.2462,7.8946-10.0152,9.8928-13.1903,17.7736-3.0058-7.88-12.9938-10.3537-13.2291-17.7736-.251-7.9102 9.5284-9.4286 13.2291-3.0087 3.7073-7.0083 12.9593-4.3974 13.1903,3.0087z" fill="#fff" stroke="#000"/>
<path d="m54.1541,1221.0618c5.7797-.098 18.1483-10.4304 17.7543-15.5218" fill="none" stroke="#000"/>
<path d="m59.3647,1218.5049 .6103.9106c1.0946,1.6338-.4551,2.9431-1.675,1.1225l-.6103-.9109c-1.2083-1.8037.3917-3.0377 1.675-1.1222z" stroke="#fff"/>
<path d="m70.6701,1207.8791 .9138.6055c1.6392,1.0865.713,2.8916-1.1138,1.6808l-.9139-.6058c-1.8096-1.1995-.8079-2.9542 1.1139-1.6805z" stroke="#fff"/>
<path d="m64.0553,1215.5487 .7178.8285c1.2875,1.4865-.089,2.9768-1.5239,1.3203l-.7178-.8288c-1.4213-1.6411.0145-3.0627 1.5239-1.32z" stroke="#fff"/>
<path d="m67.8666,1211.9752 .8123.736c1.4571,1.3207.27,2.966-1.3539,1.4943l-.8124-.7364c-1.6086-1.4581-.3544-3.0422 1.3539-1.4939z" stroke="#fff"/>
<path d="m106.0863,1220.7133c0,1.4089-1.1421,2.551-2.5511,2.551s-2.5511-1.1421-2.5511-2.551 1.1421-2.5511 2.5511-2.5511 2.5511,1.1421 2.5511,2.5511z" fill="#fff" stroke="#000" stroke-width=".8841" transform="matrix(-.98287,.56359,.56746,.97617,-536.24427,-36.65569)"/>
<path d="m52.3832,1212.7301-.6923,3.3605 4.7345,1.4187 .6195-3.7844-4.6617-.9948z" fill="#fff" fill-rule="evenodd"/>
<path d="m54.7637,1212.601c-.5363-.084-1.1449.273-1.3087,1.1531-.5159,3.6942-1.944,6.4358-4.2376,8.0404v2.5243c3.6529-1.834 5.7972-5.6423 6.4499-10.3154 .1013-.8127-.3673-1.3186-.9036-1.4024z" fill="#fff" fill-rule="evenodd" stroke="#000"/>
<path d="m107.4279,1222.2491c0,.7988-1.295,1.4463-2.8925,1.4463s-2.8925-.6475-2.8925-1.4463 1.295-1.4462 2.8925-1.4462 2.8925.6475 2.8925,1.4462z" fill="#fff" stroke="#000" stroke-width=".9117" transform="matrix(.79349,-.60858,.7322,.95467,-909.51543,118.14532)"/>
<path d="m69.3337,1221.3751c-.9082-.027-1.7073.9746-.788,2.0178 1.6511,1.7372 4.2509,3.2403 7.0917,3.7203v-2.3645c-2.1507-.4944-4.2287-1.709-5.4212-2.9637-.272-.2663-.5798-.4009-.8825-.4099z" fill="#fff" fill-rule="evenodd" stroke="#000"/>
</g>
</svg>
