<svg viewBox="0 0 512 512" xmlns="http://www.w3.org/2000/svg">

<g transform="matrix(18.68858,0,0,18.68858,-909.33284,-22487.69339)">
<path d="m 75.6101 1211.71 c 0.2462 7.8946 -10.0152 9.8928 -13.1903 17.7736 -3.0058 -7.88 -12.9938 -10.3537 -13.2291 -17.7736 -0.251 -7.9102 9.5284 -9.4286 13.2291 -3.0087 3.7073 -7.0083 12.9593 -4.3974 13.1903 3.0087 z" fill="#fff" stroke="#000"/>
<path d="m 54.1541 1221.06 c 5.7797 -0.098 18.1483 -10.4304 17.7543 -15.5218" fill="none" stroke="#000"/>
<path d="m 59.3647 1218.5 0.6103 0.9106 c 1.0946 1.6338 -0.4551 2.9431 -1.675 1.1225 l -0.6103 -0.9109 c -1.2083 -1.8037 0.3917 -3.0377 1.675 -1.1222 z" stroke="#fff"/>
<path d="m 70.6701 1207.88 0.9138 0.6055 c 1.6392 1.0865 0.713 2.8916 -1.1138 1.6808 l -0.9139 -0.6058 c -1.8096 -1.1995 -0.8079 -2.9542 1.1139 -1.6805 z" stroke="#fff"/>
<path d="m 64.0553 1215.55 0.7178 0.8285 c 1.2875 1.4865 -0.089 2.9768 -1.5239 1.3203 l -0.7178 -0.8288 c -1.4213 -1.6411 0.0145 -3.0627 1.5239 -1.32 z" stroke="#fff"/>
<path d="m 67.8666 1211.98 0.8123 0.736 c 1.4571 1.3207 0.27 2.966 -1.3539 1.4943 l -0.8124 -0.7364 c -1.6086 -1.4581 -0.3544 -3.0422 1.3539 -1.4939 z" stroke="#fff"/>
<path d="m 106.086 1220.71 c 0 1.4089 -1.1421 2.551 -2.5511 2.551 s -2.5511 -1.1421 -2.5511 -2.551 1.1421 -2.5511 2.5511 -2.5511 2.5511 1.1421 2.5511 2.5511 z" fill="#fff" stroke="#000" stroke-width=".8841" transform="matrix(-.98287,.56359,.56746,.97617,-536.24427,-36.65569)"/>
<path d="m 52.3832 1212.73 -0.6923 3.3605 4.7345 1.4187 0.6195 -3.7844 -4.6617 -0.9948 z" fill="#fff" fill-rule="evenodd"/>
<path d="m 54.7637 1212.6 c -0.5363 -0.084 -1.1449 0.273 -1.3087 1.1531 -0.5159 3.6942 -1.944 6.4358 -4.2376 8.0404 v 2.5243 c 3.6529 -1.834 5.7972 -5.6423 6.4499 -10.3154 0.1013 -0.8127 -0.3673 -1.3186 -0.9036 -1.4024 z" fill="#fff" fill-rule="evenodd" stroke="#000"/>
<path d="m 107.428 1222.25 c 0 0.7988 -1.295 1.4463 -2.8925 1.4463 s -2.8925 -0.6475 -2.8925 -1.4463 1.295 -1.4462 2.8925 -1.4462 2.8925 0.6475 2.8925 1.4462 z" fill="#fff" stroke="#000" stroke-width=".9117" transform="matrix(.79349,-.60858,.7322,.95467,-909.51543,118.14532)"/>
<path d="m 69.3337 1221.38 c -0.9082 -0.027 -1.7073 0.9746 -0.788 2.0178 1.6511 1.7372 4.2509 3.2403 7.0917 3.7203 v -2.3645 c -2.1507 -0.4944 -4.2287 -1.709 -5.4212 -2.9637 -0.272 -0.2663 -0.5798 -0.4009 -0.8825 -0.4099 z" fill="#fff" fill-rule="evenodd" stroke="#000"/>
</g>
</svg>
