<svg viewBox="0 0 512 512" xmlns="http://www.w3.org/2000/svg">

<g transform="matrix(18.68858,0,0,18.68858,-12483.38631,-37444.7449)">
<path d="m692.4724,2013.4208c.2184,6.9605-10.6866,11.8512-11.7105,15.6718-1.1187-4.1754-11.513-8.4086-11.7449-15.6718-.2226-6.9755 8.3761-8.4884 11.7449-2.6534 3.4512-5.9775 11.4952-4.2054 11.7105,2.6534z" fill="#fff"/>
<path d="m692.767,2025.0817c-.2799,2.3201-1.3129,2.0167-1.3336,3.4784-.009.6625.6116,1.2096 1.3812,1.2096s1.4051-.5469 1.4051-1.2096c0-1.4691-1.1438-1.1673-1.4527-3.4784z" fill="#fff" fill-rule="evenodd"/>
<path d="m685.855,2019.8104c0,1.696-1.3748,3.0708-3.0707,3.0708s-3.0707-1.3748-3.0707-3.0708 1.3748-3.0707 3.0707-3.0707 3.0707,1.3748 3.0707,3.0707z" fill="#fff" stroke="#000" stroke-width="1.053" transform="matrix(.85088,0,0,1.05986,103.74986,-120.3225)"/>
<path d="m685.4556,2019.0508h2.5725v2.6284h-2.5725c-1.9166,0-1.585-2.6284 0-2.6284z" fill="#fff" stroke="#000"/>
<path d="m688.4892,2019.549v1.6296h2.3759c.767-.015 1.1203.2982 1.1203,1.0185v1.8333h1.6296v-1.8333c0-1.5492-.8217-2.6481-2.7499-2.6481z" fill="#fff"/>
<path d="m686.9756,2018.1193h3.6876v4.3649h-3.6876z" fill="#fff" stroke="#000"/>
<path d="m688.8195,2018.1173v-2.3237" fill="none" stroke="#000"/>
<path d="m686.8957,2016.0984h3.8475" fill="none" stroke="#000"/>
<path d="m676.642,2006.8817c3.0984,1.0911 5.0379,3.8035 4.6327,6.7037" fill="none" stroke="#000"/>
</g>
</svg>
