<svg viewBox="0 0 512 512" xmlns="http://www.w3.org/2000/svg">

<g transform="matrix(1.00003,0,0,1.00003,-148.55857,-1193.83046)">
<path d="m 356.592 1477.51 c 0 21.6189 -42.3726 39.1451 -94.6422 39.1451 s -94.6422 -17.5262 -94.6422 -39.1451 z" fill="#fff"/>
<path d="m 640.024 1477.51 c 0 21.6189 -42.3728 39.1451 -94.6422 39.1451 s -94.6423 -17.5262 -94.6423 -39.1451 z" fill="#fff"/>
<path d="m 391.657 1292.76 h 31.8538 v 272.299 h -31.8538 z" fill="#fff"/>
<path d="m 1148.12 571.713 h 82.6891 v 82.6891 h -82.6891 z" fill="#fff" transform="rotate(45)"/>
<path d="m 407.292 1646.44 c -55.3563 0 -102.398 17.6084 -121.476 42.0493 h 243.536 c -19.042 -24.4783 -66.6509 -42.0493 -122.06 -42.0493 z" fill="#fff"/>
<path d="m 423.226 1526.55 c 0 67.9872 35.6924 133.917 62.3703 133.917 h -156.503 c 28.6909 0 62.3703 -64.9222 62.3703 -133.917 z" fill="#fff"/>
<g transform="matrix(6.30428,1.68923,-1.68923,6.30428,1993.64,-7377.5666)">
<path d="m 127.047 1367.33 c 6.8476 -3.8745 5.1915 -9.1103 8.205 -12.294 2.8277 -2.9875 6.3409 -4.2452 11.3171 -2.5897 -8.3158 3.1469 -9.9487 17.4521 -19.5221 14.8837 z" fill="#fff" fill-rule="evenodd"/>
</g>
<path d="m 492.499 1416.71 c -17.1957 9.576 -21.5046 23.6878 -14.4513 36.8128 -25.7697 -14.878 -18.8175 -38.7751 14.4513 -36.8128 z" fill="#fff"/>
<path d="m 1061.91 696.58 h 44.0394 v 44.0394 h -44.0394 z" fill="#fff" transform="rotate(45)"/>
<path d="m 1272 486.484 h 44.0394 v 44.0394 h -44.0394 z" fill="#fff" transform="rotate(45)"/>
<path d="m 259.024 1275.28 h 285.908" fill="none" stroke="#fff" stroke-width="18.6886"/>
<path d="m 323.367 1371.21 c 1.239 39.4329 -50.374 49.4182 -66.3441 88.7876 -15.1187 -39.3637 -65.3558 -51.7206 -66.5398 -88.7876 -1.2615 -39.517 47.9259 -47.1008 66.5398 -15.0312 18.6469 -35.0112 65.1826 -21.9684 66.3441 15.0312 z" fill="#fff"/>
</g>
</svg>
