<svg viewBox="0 0 512 512" xmlns="http://www.w3.org/2000/svg">

<g transform="matrix(1.00003,0,0,1.00003,-148.55857,-1193.83046)">
<path d="m356.5924,1477.5059c0,21.6189-42.3726,39.1451-94.6422,39.1451s-94.6422-17.5262-94.6422-39.1451z" fill="#fff"/>
<path d="m640.0236,1477.5059c0,21.6189-42.3728,39.1451-94.6422,39.1451s-94.6423-17.5262-94.6423-39.1451z" fill="#fff"/>
<path d="m391.6568,1292.7632h31.8538v272.2986h-31.8538z" fill="#fff"/>
<path d="m1148.1239,571.7129h82.6891v82.6891h-82.6891z" fill="#fff" transform="rotate(45)"/>
<path d="m407.2917,1646.4413c-55.3563,0-102.3983,17.6084-121.4758,42.0493h243.5356c-19.042-24.4783-66.6509-42.0493-122.0598-42.0493z" fill="#fff"/>
<path d="m423.226,1526.5466c0,67.9872 35.6924,133.9167 62.3703,133.9167h-156.5032c28.6909,0 62.3703-64.9222 62.3703-133.9167z" fill="#fff"/>
<g transform="matrix(6.30428,1.68923,-1.68923,6.30428,1993.64,-7377.5666)">
<path d="m127.0467,1367.3295c6.8476-3.8745 5.1915-9.1103 8.205-12.294 2.8277-2.9875 6.3409-4.2452 11.3171-2.5897-8.3158,3.1469-9.9487,17.4521-19.5221,14.8837z" fill="#fff" fill-rule="evenodd"/>
</g>
<path d="m492.4988,1416.7138c-17.1957,9.576-21.5046,23.6878-14.4513,36.8128-25.7697-14.878-18.8175-38.7751 14.4513-36.8128z" fill="#fff"/>
<path d="m1061.906,696.5798h44.0394v44.0394h-44.0394z" fill="#fff" transform="rotate(45)"/>
<path d="m1272.002,486.4839h44.0394v44.0394h-44.0394z" fill="#fff" transform="rotate(45)"/>
<path d="m259.0244,1275.2786h285.9082" fill="none" stroke="#fff" stroke-width="18.6886"/>
<path d="m323.3666,1371.2108c1.239,39.4329-50.374,49.4182-66.3441,88.7876-15.1187-39.3637-65.3558-51.7206-66.5398-88.7876-1.2615-39.517 47.9259-47.1008 66.5398-15.0312 18.6469-35.0112 65.1826-21.9684 66.3441,15.0312z" fill="#fff"/>
</g>
</svg>
