<svg viewBox="0 0 512 512" xmlns="http://www.w3.org/2000/svg">

<g transform="matrix(18.68858,0,0,18.68858,-11120.32462,-31998.76341)">
<g transform="translate(-35.6774)">
<path d="m 1718.34 -650.306 h 15.5452 v 11.5682 h -15.5452 z" fill="#fff" transform="matrix(0,1,-1,0,0,0)"/>
<path d="m 653.702 1733.43 -9.18 5.3804 -9.1794 -5.3804 z" fill="#fff"/>
<path d="m 653.702 1718.93 -9.1798 -5.3801 -9.1796 5.3801 z" fill="#fff"/>
</g>
<path d="m 609.066 1717.29 c 1.0583 0.1374 1.8845 1.2889 1.8845 2.6789 0 0.7697 -0.2636 1.457 -0.6697 1.9467 2.2009 0.4141 3.2576 3.6066 2.6096 6.7282 h -1.7686 l -0.4049 5.4355 h -3.8781 l -0.3582 -5.4355 h -1.6908 c -0.5715 -3.0396 0.1899 -6.3865 2.5941 -6.7593 -0.3886 -0.4875 -0.6386 -1.1649 -0.6386 -1.9156 0 -1.4826 0.9436 -2.6789 2.1025 -2.6789 0.0725 0 0.1475 -0.012 0.218 0 z" fill-rule="evenodd"/>
<path d="m 606.098 1720 h 5.4932" fill="none" stroke="#fff"/>
<path d="m 608.845 1718.51 5e-05 5.4932" fill="none" stroke="#000"/>
</g>
</svg>
