<svg viewBox="0 0 512 512" xmlns="http://www.w3.org/2000/svg">

<g transform="matrix(18.68858,0,0,18.68858,-11120.32462,-31998.76341)">
<g transform="translate(-35.6774)">
<path d="m1718.3373-650.3057h15.5452v11.5682h-15.5452z" fill="#fff" transform="matrix(0,1,-1,0,0,0)"/>
<path d="m653.7015,1733.433-9.18,5.3804-9.1794-5.3804z" fill="#fff"/>
<path d="m653.7017,1718.9316-9.1798-5.3801-9.1796,5.3801z" fill="#fff"/>
</g>
<path d="m609.0664,1717.2855c1.0583.1374 1.8845,1.2889 1.8845,2.6789 0,.7697-.2636,1.457-.6697,1.9467 2.2009.4141 3.2576,3.6066 2.6096,6.7282h-1.7686l-.4049,5.4355h-3.8781l-.3582-5.4355h-1.6908c-.5715-3.0396.1899-6.3865 2.5941-6.7593-.3886-.4875-.6386-1.1649-.6386-1.9156 0-1.4826.9436-2.6789 2.1025-2.6789 .0725,0 .1475-.012.218,0z" fill-rule="evenodd"/>
<path d="m606.0979,1719.9971h5.4932" fill="none" stroke="#fff"/>
<path d="m608.8445,1718.5109 5e-05,5.4932" fill="none" stroke="#000"/>
</g>
</svg>
