<svg viewBox="0 0 512 512" xmlns="http://www.w3.org/2000/svg">

<g transform="matrix(18.68858,0,0,18.68858,-10441.31176,-28581.19391)">
<path d="m 561.001 1554.14 1.392 -21.1427 21.4122 -1.0428" fill="none" stroke="#fff"/>
<path d="m 560.052 1552.45 c -2.2799 2.2798 0.703 5.2079 2.9554 2.9554 1.9473 -1.9475 3.4083 -1.9304 6.0178 -2.3233 s 6.0283 -1.2254 9.6131 -4.8102 c 3.61 -3.611 4.2741 -6.9885 4.3702 -9.3582 s -0.2499 -3.2597 1.6339 -5.1432 c 2.5069 -2.5072 -0.4632 -5.4479 -2.9555 -2.9555 -2.6947 2.6946 -2.6358 5.6379 -2.7196 7.7069 s -0.2316 3.7408 -3.2845 6.7945 c -3.0229 3.0229 -5.092 3.4386 -7.4948 3.8005 s -5.3968 0.5931 -8.136 3.3331 z" fill="#fff" fill-rule="evenodd" stroke="#000"/>
<path d="m 559.768 1530.27 10.0261 8.9021 0.113 -2.4814 6.6245 6.6296 0.1153 -3.7154 8.3777 16.256 -8.5927 -8.434 -0.1312 3.6971 -5.6353 -8.1004 -0.1818 4.1882 z" fill="#fff"/>
<path d="m 559.987 1529.82 7.0854 6.265" fill="none" stroke="#000"/>
<path d="m 577.178 1539.6 8.3777 16.256" fill="none" stroke="#000"/>
<path d="m 584.942 1556.38 -8.082 -7.8347 -0.1046 3.9807 -4.7653 -6.7045" fill="none" stroke="#000"/>
<path d="m 564.483 1538.74 -5.2486 -8.465" fill="none" stroke="#000"/>
<path d="m 560.563 1552.18 c 1.4642 -0.095 2.8645 2.108 2.3973 3.5286" fill="none" stroke="#000"/>
<path d="m 562.044 1550.84 c 1.4642 -0.095 2.8645 2.108 2.3973 3.5286" fill="none" stroke="#000"/>
<path d="m 580.088 1533.04 c 1.3385 -0.6011 3.4209 0.973 3.48 2.4673" fill="none" stroke="#000"/>
<path d="m 581.005 1531.26 c 1.3385 -0.6011 3.4209 0.973 3.48 2.4673" fill="none" stroke="#000"/>
</g>
</svg>
