<svg viewBox="0 0 512 512" xmlns="http://www.w3.org/2000/svg">

<g transform="matrix(18.68858,0,0,18.68858,-10441.12038,-7510.73884)">
<path d="m561.5275,403.6533c0,1.068.0193,2.1116.0625,3.125 1.509.2622 2.6562,1.5723 2.6562,3.1562 0,1.3528-.8156,2.4965-2,2.9688 1.1671,6.3477 3.9944,11.2959 10.0312,14.7812 5.9128-3.4137 8.7839-8.4079 10-14.8125-1.152-.4872-1.9688-1.608-1.9688-2.9375 0-1.5824 1.1495-2.8923 2.6562-3.1562 .047-1.0172.0625-2.0541.0625-3.125-7.1667,1.2662-14.2587,1.4191-21.5,0z" fill-rule="evenodd" stroke="#fff"/>
<path d="m574.4488,404.6383-5.2702,7.003h2.7663l-4.9162,8.5592 10.194-10.4489h-3.0146l4.1628-5.0533" fill="#fff" fill-rule="evenodd"/>
<path d="m570.755,415.0606h3.3992l-5.1118,7.8739 9.7962-9.8795h-6.1854" fill="#fff" fill-rule="evenodd"/>
</g>
</svg>
