<svg xmlns="http://www.w3.org/2000/svg" viewBox="0 0 512 512">
<g transform="matrix(18.68858 0 0 18.68858 -5000.5067 -39463.74924)">
<path fill="#fff" fill-rule="evenodd" d="m290.018,2137.9861-13.5612-10.3734 5.0146-.1333-4.533-3.8872 6.4516-1.9209 5.8652,8.5516-3.829.039z"/>
</g>
<g stroke="#fff" transform="matrix(18.68858 0 0 18.68858 -5000.5067 -39463.74924)">
<path d="m 290.191 2119.18 c -5.6862 5.8686 -12.7418 5.8693 -18.4268 0 5.6862 -5.8687 12.7419 -5.8692 18.4268 0 z"/>
<path stroke-width=".895" d="m284.7475,2117.7507c0,2.1159-1.7153,3.8312-3.8312,3.8312s-3.8312-1.7153-3.8312-3.8312 1.7153-3.8311 3.8312-3.8311 3.8312,1.7152 3.8312,3.8311z" transform="matrix(1.1177 0 0 -1.1177 -33.00371 4486.2009)"/>
</g>
<g transform="matrix(18.68858 0 0 18.68858 -5000.5067 -39463.74924)">
<path fill="#fff" d="m283.3432,2118.1235c0,1.3276-1.0762,2.4038-2.4038,2.4038s-2.4038-1.0762-2.4038-2.4038 1.0762-2.4038 2.4038-2.4038 2.4038,1.0763 2.4038,2.4038z" transform="matrix(1.1282 0 0 -1.1282 -35.97868 4508.853)"/>
</g>
<g fill="none">
<g transform="matrix(18.68858 0 0 18.68858 -5000.5067 -39463.74924)">
<path stroke="#000" d="m271.7641,2120.6803c5.6862,5.1493 12.7419,5.1497 18.4268,0"/>
</g>
<g stroke="#fff" transform="matrix(18.68858 0 0 18.68858 -5000.5067 -39463.74924)">
<path d="m 272.467 2118.38 -1.6576 -1.542"/>
<path d="m 289.506 2118.38 1.6576 -1.542"/>
<path d="m 287.343 2116.6 1.202 -1.9184"/>
<path d="m 274.822 2116.49 -1.202 -1.9184"/>
<path d="m 277.637 2115.22 -0.6646 -2.1642"/>
<path d="m 284.413 2115.26 0.6646 -2.1642"/>
<path d="m 281.046 2114.77 -0.005 -2.2624"/>
</g>
</g>
</svg>
