<svg viewBox="0 0 512 512" xmlns="http://www.w3.org/2000/svg">

<g transform="matrix(18.68858,0,0,18.68858,-839.37201,-7250.03054)">
<path d="m 58.1303 388.438 c -4.6008 0 -8.3598 3.7054 -8.3598 8.2917 0 5.1249 3.7201 5.2179 3.7201 11.7083 h 9.2375 c 0 -6.5767 3.7201 -6.6863 3.7201 -11.7083 0 -4.5863 -3.7171 -8.2917 -8.318 -8.2917 z" fill="#fff" stroke="#000"/>
<path d="m 55.625 412.331 h 5.0625 v 1.1875 h -5.0625 z" fill="#fff" stroke="#fff"/>
<path d="m 53.5 406.081 h 9.2188 v 6.338 h -9.2188 v -6.338 z" fill="#fff" stroke="#000"/>
<path d="m 53.6959 409.388 8.9933 -2.5484" fill="none" stroke="#000"/>
<path d="m 53.6959 412.004 8.9933 -2.5484" fill="none" stroke="#000"/>
<path d="m 55.625 404.425 -1.9225 -7.1748 2.485 2.1875 2 -2.1875 1.9688 2.0938 2.5 -2.0938 -1.9193 7.1629" fill="none" stroke="#000"/>
</g>
</svg>
