<svg viewBox="0 0 512 512" xmlns="http://www.w3.org/2000/svg">

<g transform="matrix(18.68858,0,0,18.68858,-5674.16012,-25182.73987)">
<path d="m 309.561 1353.13 1.945 0.7307 2.3871 -5.2743 1.3208 7.1322 4.4906 -6.7623 0.5547 6.1547 3.1434 -4.8868 1.7434 3.0642 -1.7608 -0.4861 -3.9978 7.5125 -0.4227 -7.3963 -4.7547 8.5586 -0.9147 -8.5305 -1.578 2.7104 z" fill="#fff"/>
<path d="m 312.493 1358.25 c 0 1.4589 -1.1827 2.6415 -2.6415 2.6415 s -2.6415 -1.1826 -2.6415 -2.6415 1.1827 -2.6415 2.6415 -2.6415 2.6415 1.1826 2.6415 2.6415 z" fill="#fff" stroke="#000" transform="translate(-2.9585,-3.2227)"/>
<path d="m 307.034 1355.43 5.1769 19.3201" fill="none" stroke="#fff"/>
<path d="m 310.609 1360.89 -3.9411 1.0559" fill="none" stroke="#fff"/>
<path d="m 311.224 1363.18 -3.9411 1.0559" fill="none" stroke="#fff"/>
<path d="m 311.867 1365.58 -3.941 1.0558" fill="none" stroke="#fff"/>
<path d="m 312.496 1367.93 -3.941 1.0559" fill="none" stroke="#fff"/>
<path d="m 313.138 1370.33 -3.9411 1.056" fill="none" stroke="#fff"/>
<path d="m 312.493 1358.25 c 0 1.4589 -1.1827 2.6415 -2.6415 2.6415 s -2.6415 -1.1826 -2.6415 -2.6415 1.1827 -2.6415 2.6415 -2.6415 2.6415 1.1826 2.6415 2.6415 z" fill="#fff" stroke="#000" transform="matrix(-1,0,0,1,637.67703,-3.22267)"/>
<path d="m 327.684 1355.43 -5.1769 19.3201" fill="none" stroke="#fff"/>
<path d="m 324.11 1360.89 3.9411 1.0559" fill="none" stroke="#fff"/>
<path d="m 323.495 1363.18 3.9411 1.0559" fill="none" stroke="#fff"/>
<path d="m 322.852 1365.58 3.941 1.0558" fill="none" stroke="#fff"/>
<path d="m 322.223 1367.93 3.941 1.0559" fill="none" stroke="#fff"/>
<path d="m 321.58 1370.33 3.9411 1.056" fill="none" stroke="#fff"/>
<path d="m 308.531 1374.42 h 16.9586" fill="none" stroke="#000"/>
</g>
</svg>
