<svg viewBox="0 0 512 512" xmlns="http://www.w3.org/2000/svg">

<g transform="matrix(18.68858,0,0,18.68858,5785.34947,-12370.078)">
<path d="m -289.953 666.924 c 2.1878 0.7374 4.5686 0.9719 6.8438 0.75 v 2.0938 c -2.4179 0.202 -4.948 -0.1292 -7.2188 -1.0312 -0.3458 -0.1374 -0.6513 -0.3113 -0.9688 -0.4688 l 1.3438 -1.3438 z" fill="#fff"/>
<path d="m -288.86 662.853 c 0.4775 1.9225 0.2091 4.0018 -0.9375 5.8438 -2.4047 3.8632 -7.7411 5.1992 -11.9062 2.9688 -0.4782 -0.2561 -0.9082 -0.5519 -1.3125 -0.875 l 1.5625 -0.9375 c 4.0864 1.8877 9.0932 0.5597 11.4062 -3.1562 0.7515 -1.2072 1.1513 -2.541 1.1875 -3.8438 z" fill="#fff"/>
<path d="m -296.068 665.125 c -0.3953 1.1672 -1.3178 2.2108 -2.6875 3 -2.571 1.4812 -6.3147 1.6955 -10.0312 0.9062 v 2 c 3.6424 0.7255 7.2867 0.4552 9.8125 -1 2.0898 -1.204 3.0651 -2.9674 2.9062 -4.9062 z" fill="#fff"/>
<path d="m -293.015 671.08 5.2056 7.145 -3.106 0.7997 5.8505 9.4192 -16.0341 -9.1271 4.9787 -1.0917 -5.6524 -6.5768" fill="#fff" fill-rule="evenodd"/>
<path d="m -309.233 671.44 c 2.0998 0.5483 4.0555 0.9238 6.7554 0.3472 3.8127 2.4945 10.6059 0.7957 12.7216 -2.336 2.3411 0.7995 4.5526 0.9748 7.1658 0.7892" fill="none" stroke="#000"/>
</g>
</svg>
