<svg viewBox="0 0 512 512" xmlns="http://www.w3.org/2000/svg">

<g transform="matrix(18.68858,0,0,18.68858,-7717.9594,-34035.24131)">
<path d="m 437.892 1834.84 -4.8798 2.5398 3.8717 -7.6426 -6.8611 4.4321 5.5287 -9.2424 -9.7836 5.2773 1.6282 -5.3277 -8.5993 2.0923 -2.3472 5.6906 5.0376 -2.5036 -5.2929 8.9261 10.179 -5.3319 -5.4055 9.9203 7.5041 -4.2301 -2.5107 5.469 5.6989 -2.8364 -2.4436 4.9375 7.0633 -1.179 2.7597 -5.5537 -3.8792 2.1157 z" fill="#fff"/>
<path d="m 422.498 1826.6 -8.3217 -4.7083 -0.5814 0.4433 5.4093 7.5164 z" fill="#fff"/>
<path d="m 437.346 1841.61 -4.3444 4.3441 6.4516 2.1783 0.1854 -0.4707 z" fill="#fff"/>
<path d="m 413.776 1821.91 6.2949 6.6904 4.6275 -1.322 -3.0049 7.1512 8.4136 -4.3868 -4.6875 9.074 6.4305 -4.0262 -2.2837 6.3099 4.928 -2.524 -2.1034 5.769 3.2453 -0.4808 4.345 4.1516" fill="none" stroke="#000"/>
</g>
</svg>
