<svg viewBox="0 0 512 512" xmlns="http://www.w3.org/2000/svg">

<g transform="matrix(18.68858,0,0,18.68858,-10441.12038,-7510.73884)">
<path d="m 561.528 403.653 c 0 1.068 0.0193 2.1116 0.0625 3.125 1.509 0.2622 2.6562 1.5723 2.6562 3.1562 0 1.3528 -0.8156 2.4965 -2 2.9688 1.1671 6.3477 3.9944 11.2959 10.0312 14.7812 5.9128 -3.4137 8.7839 -8.4079 10 -14.8125 -1.152 -0.4872 -1.9688 -1.608 -1.9688 -2.9375 0 -1.5824 1.1495 -2.8923 2.6562 -3.1562 0.047 -1.0172 0.0625 -2.0541 0.0625 -3.125 -7.1667 1.2662 -14.2587 1.4191 -21.5 0 z" fill-rule="evenodd" stroke="#fff"/>
<path d="m 574.449 404.638 -5.2702 7.003 h 2.7663 l -4.9162 8.5592 10.194 -10.4489 h -3.0146 l 4.1628 -5.0533" fill="#fff" fill-rule="evenodd"/>
<path d="m 570.755 415.061 h 3.3992 l -5.1118 7.8739 9.7962 -9.8795 h -6.1854" fill="#fff" fill-rule="evenodd"/>
</g>
</svg>
