<svg viewBox="0 0 512 512" xmlns="http://www.w3.org/2000/svg">

<g transform="matrix(18.68858,0,0,18.68858,-11121.46962,-28579.86703)">
<path d="m 622.093 1545.61 -2.9665 -1.905 -4.8342 1.7229" fill="none" stroke="#fff"/>
<path d="m 607.789 1540.02 6.6254 -0.2653 1.7552 -2.6332 5.9084 -0.5141" fill="none" stroke="#fff"/>
<path d="m 614.411 1556.27 -2.241 -8.4302 -6.0051 -1.9779 0.4961 -4.9771 -8.0842 -4.2674 1.8581 -3.7896 0.9796 3.0167 7.0521 3.8089 0.0243 3.3288 6.1396 2.0044 7.5965 7.42 -0.2313 3.6107 z" fill="#fff" fill-rule="evenodd"/>
<path d="m 606.938 1544.69 -1.8244 5.472 7.3309 6.1067" fill="none" stroke="#fff"/>
<g transform="translate(-109.3276,569.7738)">
<path d="m 721.16 962.319 -1.9695 4.4358 -8.0477 -5.958 z" fill="#fff"/>
<path d="m 705.838 966.751 5.2419 7.7901 -3.2797 2.1272 z" fill="#fff"/>
<path d="m 704.94 960.08 0.0971 19.2855 c 2.0979 1.4657 5.617 -0.4009 4.1952 -2.7579 -6.1389 -10.1766 2.8801 -18.4551 11.6109 -12.3082 3.2078 2.2585 2.8471 -3.0771 3.8137 -4.1786 l -19.7169 -0.0407 z" fill="#fff" stroke="#000"/>
</g>
<path d="m 608.301 1552.73 -1.5674 3.513" fill="none" stroke="#fff"/>
<path d="m 622.03 1534.51 v 21.7151 h -20.7589" fill="none" stroke="#000"/>
</g>
</svg>
