<svg viewBox="0 0 512 512" xmlns="http://www.w3.org/2000/svg">

<g transform="matrix(18.68858,0,0,18.68858,-10441.31176,-28581.19391)">
<path d="m561.0008,1554.1428 1.392-21.1427 21.4122-1.0428" fill="none" stroke="#fff"/>
<path d="m560.0518,1552.4507c-2.2799,2.2798.703,5.2079 2.9554,2.9554 1.9473-1.9475 3.4083-1.9304 6.0178-2.3233s6.0283-1.2254 9.6131-4.8102c3.61-3.611 4.2741-6.9885 4.3702-9.3582s-.2499-3.2597 1.6339-5.1432c2.5069-2.5072-.4632-5.4479-2.9555-2.9555-2.6947,2.6946-2.6358,5.6379-2.7196,7.7069s-.2316,3.7408-3.2845,6.7945c-3.0229,3.0229-5.092,3.4386-7.4948,3.8005s-5.3968.5931-8.136,3.3331z" fill="#fff" fill-rule="evenodd" stroke="#000"/>
<path d="m559.7684,1530.2699 10.0261,8.9021 .113-2.4814 6.6245,6.6296 .1153-3.7154 8.3777,16.256-8.5927-8.434-.1312,3.6971-5.6353-8.1004-.1818,4.1882z" fill="#fff"/>
<path d="m559.9872,1529.8168 7.0854,6.265" fill="none" stroke="#000"/>
<path d="m577.1776,1539.6048 8.3777,16.256" fill="none" stroke="#000"/>
<path d="m584.9417,1556.382-8.082-7.8347-.1046,3.9807-4.7653-6.7045" fill="none" stroke="#000"/>
<path d="m564.4831,1538.7417-5.2486-8.465" fill="none" stroke="#000"/>
<path d="m560.5627,1552.1845c1.4642-.095 2.8645,2.108 2.3973,3.5286" fill="none" stroke="#000"/>
<path d="m562.0442,1550.8377c1.4642-.095 2.8645,2.108 2.3973,3.5286" fill="none" stroke="#000"/>
<path d="m580.0883,1533.0374c1.3385-.6011 3.4209.973 3.48,2.4673" fill="none" stroke="#000"/>
<path d="m581.0052,1531.2575c1.3385-.6011 3.4209.973 3.48,2.4673" fill="none" stroke="#000"/>
</g>
</svg>
