<svg viewBox="0 0 512 512" xmlns="http://www.w3.org/2000/svg">

<g transform="matrix(18.68858,0,0,18.68858,-1590.11233,-6151.17886)">
<path d="m86.1908,329.9283h25.3321v25.596h-25.3321z" fill="#fff"/>
<path d="m90.0897,335.8286c5.2433,4.3571 4.84,5.8197.6178,11.6676 2.2954,1.618 4.3861,6.0136 3.6454,8.5067h-8.9575l.3404-26.4279c3.9364.3812 6.7423,3.9269 4.354,6.2536z" fill-rule="evenodd"/>
<path d="m94.3192,329.398c-3.76,7.5381 4.6098,14.8903 14.1897,12.2386-.5084,4.2766-.0533,8.45 3.403,8.621v-20.8597h-17.5926z" fill-rule="evenodd"/>
<path d="m98.312,355.9587c-2.4272-1.309-3.1728-2.9716-3.4926-4.5457 3.6116-.4099 6.6138.8215 7.6791,4.5899l-4.1864-.0442z" fill-rule="evenodd"/>
<path d="m96.1423,341.5462c-5.5799,6.7888-1.9176,10.2623 4.5312,8.6701 .9416,2.0014 2.0413,3.9677 4.0312,5.7361h3.8125c-.5543-.7833-1.2874-1.5219-2.3125-2.1875 2.0206-3.5101 2.2647-6.704.315-10.4432-2.8197-.4438-4.5756-.0381-7.2774.8144-.7233-1.3114-1.8831-1.9246-3.1001-2.5899z" fill-rule="evenodd"/>
<path d="m110.5173,355.8771c-3.3859-.9332-3.0535-4.3087-1.5546-5.945 1.6113.8572 2.4453,1.7754 3.2109,3.3898v2.6177l-1.6562-.0625z" fill-rule="evenodd"/>
<path d="m94.2521,337.5621c2.1698,1.5563 5.7952,1.8461 8.8516.603 .1374,2.8011.5074,5.5633 1.495,8.2227 2.687.2246 4.7698.7876 7.1548,1.9244" fill="none" stroke="#fff"/>
<path d="m112.0204,350.1787v-6.6208" fill="none" stroke="#000"/>
<path d="m98.5118,342.4366c1.3937,1.9314 1.6997,3.3924-.0523,5.5324 1.2341,2.2603 1.5724,5.9554 1.1736,7.7627" fill="none" stroke="#fff"/>
<path d="m93.26,355.9108h18.2127" fill="none" stroke="#000"/>
</g>
</svg>
