<svg viewBox="0 0 512 512" xmlns="http://www.w3.org/2000/svg">

<g transform="matrix(18.68858,0,0,18.68858,5785.34947,-12370.078)">
<path d="m-289.9534,666.9241c2.1878.7374 4.5686.9719 6.8438.75v2.0938c-2.4179.202-4.948-.1292-7.2188-1.0312-.3458-.1374-.6513-.3113-.9688-.4688l1.3438-1.3438z" fill="#fff"/>
<path d="m-288.8597,662.8527c.4775,1.9225.2091,4.0018-.9375,5.8438-2.4047,3.8632-7.7411,5.1992-11.9062,2.9688-.4782-.2561-.9082-.5519-1.3125-.875l1.5625-.9375c4.0864,1.8877 9.0932.5597 11.4062-3.1562 .7515-1.2072 1.1513-2.541 1.1875-3.8438z" fill="#fff"/>
<path d="m-296.068,665.125c-.3953,1.1672-1.3178,2.2108-2.6875,3-2.571,1.4812-6.3147,1.6955-10.0312.9062v2c3.6424.7255 7.2867.4552 9.8125-1 2.0898-1.204 3.0651-2.9674 2.9062-4.9062z" fill="#fff"/>
<path d="m-293.0154,671.08 5.2056,7.145-3.106.7997 5.8505,9.4192-16.0341-9.1271 4.9787-1.0917-5.6524-6.5768" fill="#fff" fill-rule="evenodd"/>
<path d="m-309.2334,671.44c2.0998.5483 4.0555.9238 6.7554.3472 3.8127,2.4945 10.6059.7957 12.7216-2.336 2.3411.7995 4.5526.9748 7.1658.7892" fill="none" stroke="#000"/>
</g>
</svg>
