<svg viewBox="0 0 512 512" xmlns="http://www.w3.org/2000/svg">

<g transform="matrix(18.68858,0,0,18.68858,-1590.11233,-6151.17886)">
<path d="m 86.1908 329.928 h 25.3321 v 25.596 h -25.3321 z" fill="#fff"/>
<path d="m 90.0897 335.829 c 5.2433 4.3571 4.84 5.8197 0.6178 11.6676 2.2954 1.618 4.3861 6.0136 3.6454 8.5067 h -8.9575 l 0.3404 -26.4279 c 3.9364 0.3812 6.7423 3.9269 4.354 6.2536 z" fill-rule="evenodd"/>
<path d="m 94.3192 329.398 c -3.76 7.5381 4.6098 14.8903 14.1897 12.2386 -0.5084 4.2766 -0.0533 8.45 3.403 8.621 v -20.8597 h -17.5926 z" fill-rule="evenodd"/>
<path d="m 98.312 355.959 c -2.4272 -1.309 -3.1728 -2.9716 -3.4926 -4.5457 3.6116 -0.4099 6.6138 0.8215 7.6791 4.5899 l -4.1864 -0.0442 z" fill-rule="evenodd"/>
<path d="m 96.1423 341.546 c -5.5799 6.7888 -1.9176 10.2623 4.5312 8.6701 0.9416 2.0014 2.0413 3.9677 4.0312 5.7361 h 3.8125 c -0.5543 -0.7833 -1.2874 -1.5219 -2.3125 -2.1875 2.0206 -3.5101 2.2647 -6.704 0.315 -10.4432 -2.8197 -0.4438 -4.5756 -0.0381 -7.2774 0.8144 -0.7233 -1.3114 -1.8831 -1.9246 -3.1001 -2.5899 z" fill-rule="evenodd"/>
<path d="m 110.517 355.877 c -3.3859 -0.9332 -3.0535 -4.3087 -1.5546 -5.945 1.6113 0.8572 2.4453 1.7754 3.2109 3.3898 v 2.6177 l -1.6562 -0.0625 z" fill-rule="evenodd"/>
<path d="m 94.2521 337.562 c 2.1698 1.5563 5.7952 1.8461 8.8516 0.603 0.1374 2.8011 0.5074 5.5633 1.495 8.2227 2.687 0.2246 4.7698 0.7876 7.1548 1.9244" fill="none" stroke="#fff"/>
<path d="m 112.02 350.179 v -6.6208" fill="none" stroke="#000"/>
<path d="m 98.5118 342.437 c 1.3937 1.9314 1.6997 3.3924 -0.0523 5.5324 1.2341 2.2603 1.5724 5.9554 1.1736 7.7627" fill="none" stroke="#fff"/>
<path d="m 93.26 355.911 h 18.2127" fill="none" stroke="#000"/>
</g>
</svg>
