<svg viewBox="0 0 512 512" xmlns="http://www.w3.org/2000/svg">

<g transform="matrix(18.68858,0,0,18.68858,712.88948,-13637.14691)">
<path d="m -34.6082 739.957 c -3.7232 3.7232 -3.7232 9.7666 -2e-05 13.4898 s 9.7666 3.7232 13.4898 0 3.7231 -9.7666 0 -13.4898 -9.7666 -3.7232 -13.4898 1e-05 z m 3.3157 1.8421 c 2.2996 -2.2996 6.0323 -2.2996 8.3319 0 s 2.2996 6.0323 0 8.3319 -6.0323 2.2996 -8.3319 -1e-05 -2.2996 -6.0323 0 -8.3319 z" fill="#fff" stroke="#000"/>
<path d="m -30.1352 737.553 c 0.3844 -1.6952 1.2362 -3.3055 2.5552 -4.6246 3.7232 -3.7232 9.7666 -3.7232 13.4898 0 s 3.7232 9.7666 0 13.4898 -9.7666 3.7232 -13.4898 2e-05 c -1.5321 -1.5321 -2.4337 -3.4571 -2.7049 -5.4517 m 2.8311 -0.88 c -0.0882 1.614 0.4838 3.2575 1.7159 4.4896 2.2996 2.2996 6.0323 2.2996 8.3319 -1e-05 s 2.2996 -6.0323 0 -8.3319 -6.0323 -2.2996 -8.3319 -1e-05 c -0.3086 0.3086 -0.5757 0.643 -0.8015 0.9962" fill="#fff" stroke="#000"/>
<path d="m -21.1185 739.957 c -3.7232 -3.7232 -9.7666 -3.7232 -13.4898 1e-05 s -3.7232 9.7666 -2e-05 13.4898 m 3.3158 -3.3158 c -2.2996 -2.2996 -2.2996 -6.0323 0 -8.3319 s 6.0323 -2.2996 8.3319 0" fill="none" stroke="#000"/>
<path d="m -21.1185 739.957 c -3.7232 -3.7232 -9.7666 -3.7232 -13.4898 0 s -3.7232 9.7666 0 13.4898 m 3.3158 -3.3158 c -2.2996 -2.2996 -2.2996 -6.0323 0 -8.3319 s 6.0323 -2.2996 8.3319 0" fill="none" stroke="#000"/>
</g>
</svg>
