<svg viewBox="0 0 512 512" xmlns="http://www.w3.org/2000/svg">

<g transform="matrix(18.68858,0,0,18.68858,-4313.37733,-25182.73987)">
<path d="m 248.438 1355.26 c 0.7394 -3.2823 -0.7752 -5.126 -3.7085 -6.8365 l 0.2298 2.3133 c -2.0317 -1.3579 -4.9419 -2.7577 -7.5501 -2.6358 -0.8694 0.04 -1.7669 0.1765 -2.7088 0.4515 l 3.1925 3.3538 c -1.7439 0.01 -4.6606 0.2541 -6.2726 1.4518 l 1.7256 2.8049 -1.9671 1.0216 v 3.622 l 2.1262 1.2009 -2.1262 1.8304 v 2.4715 c 1.5265 -0.124 3.5867 0.099 5.4284 -0.5171 -1.3019 1.5267 -1.7165 3.714 -3.2677 5.6239 2.0741 -0.079 4.1425 -0.348 6.3528 -1.5479 l -0.516 4.0954 c 3.5227 -1.3124 7.002 -4.6184 6.7032 -7.441" fill="#fff" stroke="#000"/>
<g transform="matrix(-.96851,-.06972,.06972,.888,386.87777,168.53064)">
<path d="m 237.515 1358.01 -5.9725 2.9533 c 1.9854 3.0486 3.8426 6.22 5.3253 9.3092 l 6.2877 -1.9918 c 2.7523 -1.0779 3.7973 -4.5189 1.7271 -9.7238 6.7694 0.1082 3.0137 -10.3518 -2.1183 -4.362 -3.3483 1.0804 -4.8812 1.9546 -5.2494 3.8151 z" fill="#fff" stroke="#000" stroke-width="1.0814"/>
</g>
<path d="m 238.337 1365.38 c 0 1.2379 -1.0035 2.2414 -2.2414 2.2414 s -2.2414 -1.0035 -2.2414 -2.2414 1.0035 -2.2414 2.2414 -2.2414 2.2414 1.0035 2.2414 2.2414 z" transform="matrix(-.97342,0,0,.97342,482.68815,35.21431)"/>
<path d="m 240.961 1358.65 c 0 0.5106 -0.4139 0.9246 -0.9245 0.9246 s -0.9245 -0.414 -0.9245 -0.9246 0.4139 -0.9245 0.9245 -0.9245 0.9245 0.4139 0.9245 0.9245 z" stroke="#fff" stroke-width=".7163" transform="matrix(-1.39599,0,0,1.39599,584.25392,-538.31252)"/>
</g>
</svg>
