<svg viewBox="0 0 512 512" xmlns="http://www.w3.org/2000/svg">

<g transform="matrix(18.68858,0,0,18.68858,-4313.37733,-25182.73987)">
<path d="m248.4375,1355.2589c.7394-3.2823-.7752-5.126-3.7085-6.8365l.2298,2.3133c-2.0317-1.3579-4.9419-2.7577-7.5501-2.6358-.8694.04-1.7669.1765-2.7088.4515l3.1925,3.3538c-1.7439.01-4.6606.2541-6.2726,1.4518l1.7256,2.8049-1.9671,1.0216v3.622l2.1262,1.2009-2.1262,1.8304v2.4715c1.5265-.124 3.5867.099 5.4284-.5171-1.3019,1.5267-1.7165,3.714-3.2677,5.6239 2.0741-.079 4.1425-.348 6.3528-1.5479l-.516,4.0954c3.5227-1.3124 7.002-4.6184 6.7032-7.441" fill="#fff" stroke="#000"/>
<g transform="matrix(-.96851,-.06972,.06972,.888,386.87777,168.53064)">
<path d="m237.5147,1358.01-5.9725,2.9533c1.9854,3.0486 3.8426,6.22 5.3253,9.3092l6.2877-1.9918c2.7523-1.0779 3.7973-4.5189 1.7271-9.7238 6.7694.1082 3.0137-10.3518-2.1183-4.362-3.3483,1.0804-4.8812,1.9546-5.2494,3.8151z" fill="#fff" stroke="#000" stroke-width="1.0814"/>
</g>
<path d="m238.3371,1365.3757c0,1.2379-1.0035,2.2414-2.2414,2.2414s-2.2414-1.0035-2.2414-2.2414 1.0035-2.2414 2.2414-2.2414 2.2414,1.0035 2.2414,2.2414z" transform="matrix(-.97342,0,0,.97342,482.68815,35.21431)"/>
<path d="m240.9606,1358.6478c0,.5106-.4139.9246-.9245.9246s-.9245-.414-.9245-.9246 .4139-.9245.9245-.9245 .9245.4139.9245.9245z" stroke="#fff" stroke-width=".7163" transform="matrix(-1.39599,0,0,1.39599,584.25392,-538.31252)"/>
</g>
</svg>
