<svg viewBox="0 0 512 512" xmlns="http://www.w3.org/2000/svg">

<g transform="matrix(18.68858,0,0,18.68858,-13165.17511,-18401.944)">
<path d="m 705.393 995.297 c 2.6827 -0.5644 5.7116 -2.537 7.9848 -4.6233 2.9698 1.7201 5.9395 2.1201 8.9093 0 1.6493 1.8697 5.2541 4.1677 8.489 4.6233 0 0 -2.4194 4.0379 -5.9675 8.4912 -1.3557 1.7015 -4.1918 1.6631 -6.8297 1.6631 -2.8554 0 -5.4969 0.1663 -6.9545 -1.6631 -3.4923 -4.3831 -5.6314 -8.4912 -5.6314 -8.4912 z" fill="#fff" fill-rule="evenodd"/>
<path d="m 731.162 995.016 c -3.0566 1.4372 -6.0107 1.6238 -8.5771 0.7513 -3.0383 1.7221 -7.0419 1.6763 -9.8919 0 -2.552 0.5341 -5.3522 0.2575 -7.4815 -0.5948 l -0.3095 0.3157 c 6.7294 7.4258 19.5692 6.5331 26.4835 0.3263 l -0.2235 -0.7986 z" fill-rule="evenodd"/>
</g>
</svg>
