<svg viewBox="0 0 512 512" xmlns="http://www.w3.org/2000/svg">

<g transform="matrix(18.68858,0,0,18.68858,-11120.72062,-23821.86757)">
<path d="m611.7882,1300.8973h-5.9045c0-2.6211 5.9045-2.6294 5.9045,0z" fill="#fff"/>
<path d="m607.7088,1280.4926c.6924.39 1.3847.261 2.0771,0v7.3804h-2.0771v-7.3804z" fill="#fff"/>
<path d="m609.5951,1299.444h-1.5182v-13.0509h1.5182v13.0509z" fill="#fff"/>
<path d="m610.5862,1287.4102h-3.5004c0,2.391 3.5004,2.3986 3.5004,0z" fill="#fff"/>
<path d="m610.221,1277.8801c.4917,3.007-3.3522,2.6888-3.0071,0s2.5153-3.007 3.0071,0z" fill="#fff" fill-rule="evenodd"/>
<path d="m609.762,1278.7532c.3272,2.1008-2.2313,1.833-2.0015-.0001 .2301-1.8357 1.6701-2.1267 2.0015.0001z" fill-rule="evenodd"/>
<path d="m608.7981,1279.1684 .4816,1.7641h-.9633l.4816-1.7641z" fill="#fff"/>
<path d="m601.5134,1280.9301c.6924.2961 1.3847.3591 2.0771,0v6.9429h-2.0771v-6.9429z" fill="#fff"/>
<path d="m604.3507,1287.4102h-3.5004c0,2.391 3.5004,2.3986 3.5004,0z" fill="#fff"/>
<path d="m601.0173,1278.1926c-.4961,2.8537 3.382,2.4899 3.0338,0s-2.5316-2.8889-3.0338,0z" fill="#fff" fill-rule="evenodd"/>
<path d="m601.5203,1279.0657c-.3272,2.1008 2.2313,1.833 2.0015-.0001-.2301-1.8357-1.6701-2.1267-2.0015.0001z" fill-rule="evenodd"/>
<path d="m602.5253,1279.5509 .4816,1.7641h-.9633l.4816-1.7641z" fill="#fff"/>
<path d="m615.7888,1287.5421v3.0364c0,1.8829-1.5168,3.4634-3.416,3.4634h-7.0799c-1.8991,0-3.4634-1.5642-3.4634-3.4634v-3.0364h1.5182v3.0364c2e-05,1.0637.8815,1.9452 1.9452,1.9452h7.0799c1.0637,0 1.8978-.8654 1.8978-1.9452v-3.0364h1.5182z" fill="#fff"/>
<path d="m613.9657,1281.4926c.6924.2548 1.3847.4867 2.0771,0v6.3804h-2.0771v-6.3804z" fill="#fff"/>
<path d="m616.7948,1287.4102h-3.5004c0,2.391 3.5004,2.3986 3.5004,0z" fill="#fff"/>
<path d="m613.5931,1278.7863c-.4869,3.1676 3.2792,2.7187 2.9411,0s-2.4542-3.1676-2.9411,0z" fill="#fff" fill-rule="evenodd"/>
<path d="m614.0027,1279.6594c-.3272,2.1008 2.2313,1.833 2.0015-.0001-.2301-1.8357-1.6701-2.1267-2.0015.0001z" fill-rule="evenodd"/>
<path d="m615.0115,1280.1728 .4816,1.7641h-.9633l.4816-1.7641z" fill="#fff"/>
<path d="m600.9232,1286.908h15.8022" fill="none" stroke="#000"/>
</g>
</svg>
