<svg viewBox="0 0 512 512" xmlns="http://www.w3.org/2000/svg">

<g transform="matrix(18.68858,0,0,18.68858,-11120.72062,-23821.86757)">
<path d="m 611.788 1300.9 h -5.9045 c 0 -2.6211 5.9045 -2.6294 5.9045 0 z" fill="#fff"/>
<path d="m 607.709 1280.49 c 0.6924 0.39 1.3847 0.261 2.0771 0 v 7.3804 h -2.0771 v -7.3804 z" fill="#fff"/>
<path d="m 609.595 1299.44 h -1.5182 v -13.0509 h 1.5182 v 13.0509 z" fill="#fff"/>
<path d="m 610.586 1287.41 h -3.5004 c 0 2.391 3.5004 2.3986 3.5004 0 z" fill="#fff"/>
<path d="m 610.221 1277.88 c 0.4917 3.007 -3.3522 2.6888 -3.0071 0 s 2.5153 -3.007 3.0071 0 z" fill="#fff" fill-rule="evenodd"/>
<path d="m 609.762 1278.75 c 0.3272 2.1008 -2.2313 1.833 -2.0015 -0.0001 0.2301 -1.8357 1.6701 -2.1267 2.0015 0.0001 z" fill-rule="evenodd"/>
<path d="m 608.798 1279.17 0.4816 1.7641 h -0.9633 l 0.4816 -1.7641 z" fill="#fff"/>
<path d="m 601.513 1280.93 c 0.6924 0.2961 1.3847 0.3591 2.0771 0 v 6.9429 h -2.0771 v -6.9429 z" fill="#fff"/>
<path d="m 604.351 1287.41 h -3.5004 c 0 2.391 3.5004 2.3986 3.5004 0 z" fill="#fff"/>
<path d="m 601.017 1278.19 c -0.4961 2.8537 3.382 2.4899 3.0338 0 s -2.5316 -2.8889 -3.0338 0 z" fill="#fff" fill-rule="evenodd"/>
<path d="m 601.52 1279.07 c -0.3272 2.1008 2.2313 1.833 2.0015 -0.0001 -0.2301 -1.8357 -1.6701 -2.1267 -2.0015 0.0001 z" fill-rule="evenodd"/>
<path d="m 602.525 1279.55 0.4816 1.7641 h -0.9633 l 0.4816 -1.7641 z" fill="#fff"/>
<path d="m 615.789 1287.54 v 3.0364 c 0 1.8829 -1.5168 3.4634 -3.416 3.4634 h -7.0799 c -1.8991 0 -3.4634 -1.5642 -3.4634 -3.4634 v -3.0364 h 1.5182 v 3.0364 c 2e-05 1.0637 0.8815 1.9452 1.9452 1.9452 h 7.0799 c 1.0637 0 1.8978 -0.8654 1.8978 -1.9452 v -3.0364 h 1.5182 z" fill="#fff"/>
<path d="m 613.966 1281.49 c 0.6924 0.2548 1.3847 0.4867 2.0771 0 v 6.3804 h -2.0771 v -6.3804 z" fill="#fff"/>
<path d="m 616.795 1287.41 h -3.5004 c 0 2.391 3.5004 2.3986 3.5004 0 z" fill="#fff"/>
<path d="m 613.593 1278.79 c -0.4869 3.1676 3.2792 2.7187 2.9411 0 s -2.4542 -3.1676 -2.9411 0 z" fill="#fff" fill-rule="evenodd"/>
<path d="m 614.003 1279.66 c -0.3272 2.1008 2.2313 1.833 2.0015 -0.0001 -0.2301 -1.8357 -1.6701 -2.1267 -2.0015 0.0001 z" fill-rule="evenodd"/>
<path d="m 615.011 1280.17 0.4816 1.7641 h -0.9633 l 0.4816 -1.7641 z" fill="#fff"/>
<path d="m 600.923 1286.91 h 15.8022" fill="none" stroke="#000"/>
</g>
</svg>
