<svg viewBox="0 0 512 512" xmlns="http://www.w3.org/2000/svg">

<g transform="matrix(18.68858,0,0,18.68858,-229.35278,-16571.5219)">
<path d="m 695.188 438.862 c 0 6.4548 -3.5398 11.6875 -7.9062 11.6875 s -7.9062 -5.2327 -7.9062 -11.6875 3.5398 -11.6875 7.9062 -11.6875 7.9062 5.2327 7.9062 11.6875 z" fill="#fff" stroke="#000" stroke-width=".8689" transform="matrix(1.17592,0,0,1.12634,-782.40454,406.11561)"/>
<path d="m 32.1899 907.191 0.1292 -2.747 -1.5222 1.2252 0.0191 -3.531 -2.125 2.6518 -1.0678 -3.727 -1.5752 3.5266 -1.7119 -3.9906 -0.982 4.3075 -1.9502 -3.2591 -0.6568 3.8523 -1.2977 -0.5787 0.0509 2.4728 1.6483 3.2052 0.6928 -3.1659 1.6886 2.3668 0.6367 -3.1792 1.6197 3.3087 0.6981 -3.546 1.1462 3.3366 1.0477 -2.8499 0.6843 2.5424 1.3528 -2.2034 0.053 2.6271 1.4216 -2.6453 z" fill-rule="evenodd"/>
<path d="m 16.5084 900.659 c -0.2472 -2.1907 0.2345 -4.1088 1.1272 -5.8732 2.4844 1.0598 5.1631 2.6178 6.8795 4.3782 -3.3573 0.055 -5.3895 0.3573 -8.0067 1.495 z" fill-rule="evenodd"/>
<path d="m 35.1338 900.788 c 0.2583 -2.2894 -0.2451 -4.2937 -1.1779 -6.1375 -2.5963 1.1075 -5.3955 2.7356 -7.1892 4.5752 3.5084 0.0575 5.632 0.3733 8.3671 1.5623 z" fill-rule="evenodd"/>
<path d="m 21.4784 803.207 c 0 0.5675 -0.46 1.0275 -1.0275 1.0275 s -1.0275 -0.46 -1.0275 -1.0275 0.46 -1.0275 1.0275 -1.0275 1.0275 0.46 1.0275 1.0275 z" fill="#fff" transform="matrix(1.6071,0,0,1.6071,-12.88583,-391.69348)"/>
<path d="m 21.4784 803.207 c 0 0.5675 -0.46 1.0275 -1.0275 1.0275 s -1.0275 -0.46 -1.0275 -1.0275 0.46 -1.0275 1.0275 -1.0275 1.0275 0.46 1.0275 1.0275 z" fill="#fff" transform="matrix(1.67944,0,0,1.67944,-3.18518,-449.70392)"/>
<path d="m 16.3103 893.744 c 1.59 0.6207 3.1705 1.3043 4.7231 2.1742" fill="none" stroke="#fff"/>
<path d="m 34.9084 893.744 c -1.59 0.6207 -3.1705 1.3043 -4.7231 2.1742" fill="none" stroke="#fff"/>
</g>
</svg>
