<svg viewBox="0 0 512 512" xmlns="http://www.w3.org/2000/svg">

<g transform="matrix(18.68858,0,0,18.68858,-9080.01251,-21122.27279)">
<path d="m 502.577 1133.18 -1.8627 3.3146 -8.1545 -4.8368 10.0172 1.5222 z" fill="#fff"/>
<path d="m 487.255 1137.61 4.708 8.3775 -3.2263 1.9136 -1.4817 -10.2911 z" fill="#fff"/>
<path d="m 490.013 1132.77 c 4.2972 0.1954 8.4374 5.2767 8.5994 8.0626 0.1619 2.784 1.1601 4.8581 4.3469 5.0564 2.5375 0.158 4.4289 2.0187 4.4036 5.2866 s 2.2733 4.6704 4.9577 5.5029 c -3.4332 0.7336 -6.1527 -0.5796 -6.7691 -3.5047 -0.5666 -2.6878 -1.9049 -4.4569 -5.4546 -4.0643 -2.6717 0.2952 -6.2047 -2.1118 -6.4552 -5.168 -0.2367 -2.8875 -3.1493 -4.8348 -6.6139 -4.3603 l 2.9851 -6.8112 z" fill="#fff"/>
<path d="m 486.342 1130.94 0.1504 18.4312 c 1.1485 -0.1079 3.6702 -0.5957 4.7598 -0.9391 -7.5423 -11.0223 2.7115 -20.2975 11.974 -12.5137 0.7053 -1.1746 1.5153 -3.763 2.8327 -4.9376 l -19.7169 -0.041 z" fill="#fff" stroke="#000"/>
</g>
</svg>
