<svg viewBox="0 0 512 512" xmlns="http://www.w3.org/2000/svg">

<g transform="matrix(18.68858,0,0,18.68858,-229.35278,-16571.5219)">
<path d="m695.1875,438.8622c0,6.4548-3.5398,11.6875-7.9062,11.6875s-7.9062-5.2327-7.9062-11.6875 3.5398-11.6875 7.9062-11.6875 7.9062,5.2327 7.9062,11.6875z" fill="#fff" stroke="#000" stroke-width=".8689" transform="matrix(1.17592,0,0,1.12634,-782.40454,406.11561)"/>
<path d="m32.1899,907.1914 .1292-2.747-1.5222,1.2252 .0191-3.531-2.125,2.6518-1.0678-3.727-1.5752,3.5266-1.7119-3.9906-.982,4.3075-1.9502-3.2591-.6568,3.8523-1.2977-.5787 .0509,2.4728 1.6483,3.2052 .6928-3.1659 1.6886,2.3668 .6367-3.1792 1.6197,3.3087 .6981-3.546 1.1462,3.3366 1.0477-2.8499 .6843,2.5424 1.3528-2.2034 .053,2.6271 1.4216-2.6453z" fill-rule="evenodd"/>
<path d="m16.5084,900.6592c-.2472-2.1907.2345-4.1088 1.1272-5.8732 2.4844,1.0598 5.1631,2.6178 6.8795,4.3782-3.3573.055-5.3895.3573-8.0067,1.495z" fill-rule="evenodd"/>
<path d="m35.1338,900.7877c.2583-2.2894-.2451-4.2937-1.1779-6.1375-2.5963,1.1075-5.3955,2.7356-7.1892,4.5752 3.5084.0575 5.632.3733 8.3671,1.5623z" fill-rule="evenodd"/>
<path d="m21.4784,803.2065c0,.5675-.46,1.0275-1.0275,1.0275s-1.0275-.46-1.0275-1.0275 .46-1.0275 1.0275-1.0275 1.0275.46 1.0275,1.0275z" fill="#fff" transform="matrix(1.6071,0,0,1.6071,-12.88583,-391.69348)"/>
<path d="m21.4784,803.2065c0,.5675-.46,1.0275-1.0275,1.0275s-1.0275-.46-1.0275-1.0275 .46-1.0275 1.0275-1.0275 1.0275.46 1.0275,1.0275z" fill="#fff" transform="matrix(1.67944,0,0,1.67944,-3.18518,-449.70392)"/>
<path d="m16.3103,893.7438c1.59.6207 3.1705,1.3043 4.7231,2.1742" fill="none" stroke="#fff"/>
<path d="m34.9084,893.7438c-1.59.6207-3.1705,1.3043-4.7231,2.1742" fill="none" stroke="#fff"/>
</g>
</svg>
