<svg viewBox="0 0 512 512" xmlns="http://www.w3.org/2000/svg">

<g transform="matrix(18.68858,0,0,18.68858,-2097.61961,-2849.15019)">
<path d="m 113.607 177.335 c -2.5686 -19.4395 7.4283 -24.1589 13.3089 -24.1066 4.6829 0.0416 8.8442 4.8945 8.9784 12.8916 h -8.6004 c -0.1295 -3.7447 -1.6904 -5.6744 -3.9589 -5.6744 -3.381 0 -9.728 5.6166 -9.728 16.8894 z" fill="#fff"/>
<path d="m 133.103 163.959 -5.3531 9.2718 -5.3531 -9.2718 z" stroke="#fff" stroke-width=".8313" transform="matrix(1.14891,0,0,1.25962,-14.6819,-40.08269)"/>
<path d="m 121.092 157.298 c 6.089 -1.1795 9.1924 2.2825 9.1924 10.1205 h 4.0659 c 0 -10.2067 -5.9611 -14.4477 -13.2583 -10.1205 z" fill-rule="evenodd"/>
</g>
</svg>
