<svg viewBox="0 0 512 512" xmlns="http://www.w3.org/2000/svg">

<g transform="matrix(18.68858,0,0,18.68858,-2097.61961,-2849.15019)">
<path d="m113.6066,177.3346c-2.5686-19.4395 7.4283-24.1589 13.3089-24.1066 4.6829.0416 8.8442,4.8945 8.9784,12.8916h-8.6004c-.1295-3.7447-1.6904-5.6744-3.9589-5.6744-3.381,0-9.728,5.6166-9.728,16.8894z" fill="#fff"/>
<path d="m133.1031,163.959-5.3531,9.2718-5.3531-9.2718z" stroke="#fff" stroke-width=".8313" transform="matrix(1.14891,0,0,1.25962,-14.6819,-40.08269)"/>
<path d="m121.092,157.2975c6.089-1.1795 9.1924,2.2825 9.1924,10.1205h4.0659c0-10.2067-5.9611-14.4477-13.2583-10.1205z" fill-rule="evenodd"/>
</g>
</svg>
