<svg viewBox="0 0 512 512" xmlns="http://www.w3.org/2000/svg">

<g transform="matrix(18.68858,0,0,18.68858,-5912.7706,-14162.98549)">
<path d="m321.8832,758.9449v4.9703l2.4738,2.767v15.7739l11.8264-.1537v-15.6201l2.4738-2.767v-4.9703h-2.8861v2.3532h-1.7577v-2.3532h-2.8861v2.3532h-1.736v-2.3532h-2.8861v2.3532h-1.736v-2.3532h-2.8861z" fill="#fff"/>
<path d="m322.973,776.4762h14.5943l1.2626,7.539h-17.1195l1.2626-7.539z" fill="#fff"/>
<path d="m333.6875,767.4247c0,1.5188-1.2312,2.75-2.75,2.75s-2.75-1.2312-2.75-2.75 1.2312-2.75 2.75-2.75 2.75,1.2312 2.75,2.75z" transform="matrix(1.06286,0,0,1.06286,-21.23919,-46.46159)"/>
<path d="m329.6581,769.0498-2.0164,10.2352h5.7174l-2.0164-10.2352h-1.6846z"/>
</g>
</svg>
