<svg viewBox="0 0 512 512" xmlns="http://www.w3.org/2000/svg">

<g transform="matrix(18.68858,0,0,18.68858,-5912.7706,-14162.98549)">
<path d="m 321.883 758.945 v 4.9703 l 2.4738 2.767 v 15.7739 l 11.8264 -0.1537 v -15.6201 l 2.4738 -2.767 v -4.9703 h -2.8861 v 2.3532 h -1.7577 v -2.3532 h -2.8861 v 2.3532 h -1.736 v -2.3532 h -2.8861 v 2.3532 h -1.736 v -2.3532 h -2.8861 z" fill="#fff"/>
<path d="m 322.973 776.476 h 14.5943 l 1.2626 7.539 h -17.1195 l 1.2626 -7.539 z" fill="#fff"/>
<path d="m 333.688 767.425 c 0 1.5188 -1.2312 2.75 -2.75 2.75 s -2.75 -1.2312 -2.75 -2.75 1.2312 -2.75 2.75 -2.75 2.75 1.2312 2.75 2.75 z" transform="matrix(1.06286,0,0,1.06286,-21.23919,-46.46159)"/>
<path d="m 329.658 769.05 -2.0164 10.2352 h 5.7174 l -2.0164 -10.2352 h -1.6846 z"/>
</g>
</svg>
