<svg viewBox="0 0 512 512" xmlns="http://www.w3.org/2000/svg">

<g transform="matrix(18.68858,0,0,18.68858,-7718.69589,-33370.52379)">
<path d="m 437.822 1791.78 -16.5689 -5.5465 c -0.8905 -0.069 -1.7186 0.1022 -2.5979 0.5455 -2.8596 1.443 -5.1776 5.2221 -5.1802 8.4542 l -0.002 11.2277 16.2416 5.6505 10.1486 -4.2888 v -11.2093 c -0.1464 -2.277 -0.3396 -3.7328 -2.0413 -4.8333 z" fill="#fff"/>
<path d="m 437.822 1791.78 -16.5689 -5.5465 c -0.8905 -0.069 -1.7186 0.1022 -2.5979 0.5455 -2.8596 1.443 -5.1776 5.2221 -5.1802 8.4542 l -0.002 11.2277 16.2416 5.6505 10.1486 -4.2888 v -11.2093 l -10.1486 4.2866" fill="none" stroke="#000"/>
<path d="m 429.714 1800.9 -16.1827 -5.5055" stroke="#000"/>
<path d="m 429.556 1811.94 v -11.3208" fill="none" stroke="#000"/>
<path d="m 429.52 1800.64 c 0 -3.2184 2.3181 -6.9972 5.1776 -8.4403 s 5.1776 -0.2915 5.1776 4.2135" fill="none" stroke="#000"/>
<path d="m 434.057 1790.5 c -0.811 -0.1976 -1.7789 -0.015 -2.8183 0.5088 -2.8594 1.443 -5.1776 5.2218 -5.1776 8.4401 v 11.4304" fill="none" stroke="#000"/>
<path d="m 424.694 1787.38 c -0.811 -0.1976 -1.7789 -0.015 -2.8183 0.5088 -2.8594 1.443 -5.1776 5.2217 -5.1776 8.4401 v 11.4303" fill="none" stroke="#000"/>
<path d="m 423.506 1798.79 v 6.3912 l -4.4072 -1.4864 v -6.3912" fill="none" stroke="#000"/>
<path d="m 421.265 1802.8 v -2.2985" fill="none" stroke="#000"/>
<path d="m 422.444 1800 c 0 0.5193 -0.421 0.9403 -0.9403 0.9403 s -0.9403 -0.421 -0.9403 -0.9403 0.421 -0.9403 0.9403 -0.9403 0.9403 0.421 0.9403 0.9403 z" transform="translate(-.2295,.4749)"/>
</g>
</svg>
