<svg viewBox="0 0 512 512" xmlns="http://www.w3.org/2000/svg">

<g transform="matrix(18.68858,0,0,18.68858,-7718.69589,-33370.52379)">
<path d="m437.8215,1791.7845-16.5689-5.5465c-.8905-.069-1.7186.1022-2.5979.5455-2.8596,1.443-5.1776,5.2221-5.1802,8.4542l-.002,11.2277 16.2416,5.6505 10.1486-4.2888v-11.2093c-.1464-2.277-.3396-3.7328-2.0413-4.8333z" fill="#fff"/>
<path d="m437.8215,1791.7845-16.5689-5.5465c-.8905-.069-1.7186.1022-2.5979.5455-2.8596,1.443-5.1776,5.2221-5.1802,8.4542l-.002,11.2277 16.2416,5.6505 10.1486-4.2888v-11.2093l-10.1486,4.2866" fill="none" stroke="#000"/>
<path d="m429.7136,1800.9044-16.1827-5.5055" stroke="#000"/>
<path d="m429.5557,1811.9423v-11.3208" fill="none" stroke="#000"/>
<path d="m429.5196,1800.6356c0-3.2184 2.3181-6.9972 5.1776-8.4403s5.1776-.2915 5.1776,4.2135" fill="none" stroke="#000"/>
<path d="m434.0567,1790.5035c-.811-.1976-1.7789-.015-2.8183.5088-2.8594,1.443-5.1776,5.2218-5.1776,8.4401v11.4304" fill="none" stroke="#000"/>
<path d="m424.6943,1787.3827c-.811-.1976-1.7789-.015-2.8183.5088-2.8594,1.443-5.1776,5.2217-5.1776,8.4401v11.4303" fill="none" stroke="#000"/>
<path d="m423.5063,1798.7938v6.3912l-4.4072-1.4864v-6.3912" fill="none" stroke="#000"/>
<path d="m421.2647,1802.8003v-2.2985" fill="none" stroke="#000"/>
<path d="m422.4441,1799.9978c0,.5193-.421.9403-.9403.9403s-.9403-.421-.9403-.9403 .421-.9403.9403-.9403 .9403.421.9403.9403z" transform="translate(-.2295,.4749)"/>
</g>
</svg>
