<svg viewBox="0 0 512 512" xmlns="http://www.w3.org/2000/svg">

<g transform="matrix(0,-18.68858,18.68858,0,-39462.32468,1426.99111)">
<path d="m 72.8507 2135.29 c -2.8076 0.032 -5.6152 -1.2496 -8.4229 -4.4543 -0.8238 2.8632 -3.4945 5.0669 -7.1462 6.9202 0.8857 -3.1996 2.3303 -7.0239 2.3926 -9.9944 -3.7005 0.2567 -6.3865 -3.273 -9.5489 -4.0507 3.1441 -1.5417 6.2883 -2.2296 9.4324 -1.3471 2.0422 -3.2663 -0.137 -6.6086 1.7138 -9.799 0.7568 2.6553 4.6191 5.1824 4.196 8.5544 3.283 0.3038 6.5616 -2.2701 9.849 -1.3981 -3.1705 2.284 -4.0243 5.4931 -6.8391 6.6342 0.8027 2.9783 2.3576 5.9565 4.3732 8.9348 z" fill="#fff"/>
<path d="m 61.9392 2124.89 c -2.3359 -0.8609 -4.4115 -0.548 -7.1677 -1.0077 2.5731 1.4308 5.2978 1.3237 7.0558 2.3707"/>
<path d="m 64.1132 2123.52 c -0.0955 -2.3309 -1.9384 -5.016 -1.9871 -7.089 -0.8171 1.9138 1.2452 5.2401 0.4024 7.138"/>
<path d="m 63.5908 2128.11 c -0.9228 2.4803 -1.97 4.452 -3.6421 6.134 0.9767 -2.1653 2.0497 -4.8246 2.4621 -6.915"/>
<path d="m 66.1042 2125.21 c 1.7161 -0.5757 3.7693 -3.0961 5.3095 -3.5791 -1.7592 -0.2434 -3.9575 2.0555 -5.8405 2.3538"/>
<path d="m 64.8528 2128.31 c 1.4575 2.0505 2.9042 3.6032 4.8534 4.7363 -1.4295 -1.7479 -3.0691 -3.9258 -3.962 -5.7437"/>
<path d="m 59.7815 2127.06 c -2.6544 1.2246 -4.1181 3.2081 -6.7883 5.1149 3.3244 -0.9492 5.4978 -3.3003 7.8272 -3.8904" fill="#fff"/>
<path d="m 60.4754 2121.92 c -2.0393 -1.6866 -3.9322 -2.8705 -6.2211 -3.4913 1.9286 1.3869 4.1874 3.1534 5.5899 4.7574" fill="#fff"/>
<path d="m 66.0208 2122.06 c 1.3422 -1.318 1.8012 -4.5432 3.027 -5.6957 -1.8979 0.601 -2.6396 3.6945 -4.3211 4.8407" fill="#fff"/>
<path d="m 68.6876 2126.05 c 2.0503 1.4574 3.6032 2.9043 4.7362 4.8534 -1.7479 -1.4295 -3.9258 -3.0691 -5.7436 -3.962" fill="#fff"/>
<path d="m 65.2307 2130.99 c -0.237 2.5043 -0.7136 4.5726 -1.8351 6.5284 0.3641 -2.2284 0.695 -4.9344 0.5594 -6.9551" fill="#fff"/>
<path d="m 64.9044 2126.11 c 0 1.1844 -0.8667 2.1445 -1.9357 2.1445 s -1.9357 -0.9601 -1.9357 -2.1445 0.8667 -2.1445 1.9357 -2.1445 1.9357 0.9602 1.9357 2.1445 z" stroke="#fff" stroke-width=".923" transform="matrix(.98298,-.14592,.23363,1.15936,-494.43728,-330.04733)"/>
</g>
</svg>
