<svg viewBox="0 0 512 512" xmlns="http://www.w3.org/2000/svg">

<g transform="matrix(18.68858,0,0,18.68858,1981.39905,-13635.04194)">
<path d="m -98.531 745.651 c 0.3344 -5.9208 1.5495 -10.9305 6.1576 -14.5661 4.82 3.9443 5.7822 9.0729 6.2697 14.5661" fill="#fff" fill-rule="evenodd" stroke="#000"/>
<path d="m -101.965 732.702 c -7.4138 27.4291 26.8181 26.2252 19.5155 0 -4.9528 2.6524 -7.8019 8.663 -10.3416 13.1801 -1.936 -4.7274 -4.9498 -10.4354 -9.174 -13.1801 z" fill="#fff" fill-rule="evenodd" stroke="#000"/>
<path d="m 315.875 748.55 c 0 3.6244 -2.9381 6.5625 -6.5625 6.5625 s -6.5625 -2.9381 -6.5625 -6.5625 2.9381 -6.5625 6.5625 -6.5625 6.5625 2.9381 6.5625 6.5625 z" fill="#fff" stroke="#000" stroke-width=".8736" transform="matrix(1.14464,0,0,1.14464,-446.6283,-109.60518)"/>
<path d="m -104.929 737.778 c -4.7926 25.2478 28.45 24.7938 25.5122 0 -5.9471 4.4512 -9.8635 8.6703 -13.5193 13.9543 -3.055 -5.8689 -6.7293 -9.8475 -11.9929 -13.9543 z" fill="#fff" fill-rule="evenodd" stroke="#000"/>
<path d="m -89.7084 756.563 h -6.2579 c -4.3402 -4.3402 -2.6474 -11.0552 3.3909 -14.6488 5.9237 3.9667 7.0244 10.4914 2.867 14.6488 z" fill="#fff" fill-rule="evenodd" stroke="#000"/>
</g>
</svg>
