<svg viewBox="0 0 512 512" xmlns="http://www.w3.org/2000/svg">

<g transform="matrix(18.68858,0,0,18.68858,-5001.41184,-44909.10404)">
<path d="m 294.075 2411.79 c 0.2359 7.5175 -11.5415 12.7993 -12.6473 16.9255 -1.2082 -4.5093 -12.434 -9.0813 -12.6845 -16.9255 -0.2404 -7.5335 10.1716 -9.7528 12.4143 -3.451 3.7272 -6.4556 12.6849 -3.9564 12.9174 3.451 z" fill="#fff"/>
<g transform="matrix(.86992,.16593,-.16593,.86992,576.66866,2105.9513)">
<path d="m 288.031 2408.47 c -2.0875 0.7912 -4.1546 2.051 -5.8125 3.0312 -0.9434 -0.5022 -3.0707 0.1674 -4.5 0.9375 -1.7681 0.1446 -3.1502 0.2429 -4.8654 1.2551 1.4873 1.2392 2.6143 1.6889 3.6779 1.7449 l -6.5625 2.1875 9.1875 8.7812 c 0.2167 -2.4696 2.4347 -5.7195 3.5 -6.6562 1.8485 -0.8476 3.7099 -1.9029 5.5312 -3.1875 0.1814 -0.7076 0.0944 -1.4938 0 -2.3437 l -0.5625 0.9062 c -4.1075 2.253 -2.7224 -3.1623 0.0312 -3.7812 l 0.5625 0.75 c 0.098 -1.2417 0.0845 -2.5588 -0.1875 -3.625 z" fill-rule="evenodd" transform="matrix(1.10918,-.21156,.21156,1.10918,-1085.1746,-2213.8763)"/>
<path d="m -264.613 403.448 c 0.6983 -0.5309 1.4985 -0.8977 2.4528 -1.0165 0.6313 1.8353 -1.2125 1.9633 -2.4528 1.0165 z" fill="#fff" fill-rule="evenodd"/>
</g>
</g>
</svg>
