<svg viewBox="0 0 512 512" xmlns="http://www.w3.org/2000/svg">

<g transform="matrix(18.68858,0,0,18.68858,-7723.19642,-39463.4029)">
<path d="m417.5563,2130.3089c.457,2.4294 4.6112,3.29 5.2585,4.536 .0682-1.5328 3.3472-3.7957 2.8717-6.3311-.4567-2.4349-3.553-2.3012-4.2741-.021-1.6537-1.8079-4.3063-.5779-3.8561,1.8159z" fill="#fff"/>
<path d="m425.1711,2128.5516c-.9278-5.0677-2.6082-9.9641-4.6357-14.5189l11.0603,5.1165 4.015,12.3992" fill="none" stroke="#fff"/>
<path d="m421.7115,2117.0318 10.7169,5.0779" fill="none" stroke="#fff"/>
<path d="m427.9519,2133.1736c.457,2.4294 4.6112,3.2901 5.2585,4.536 .0682-1.5328 3.3472-3.7957 2.8717-6.331-.4567-2.4349-3.553-2.3012-4.2741-.021-1.6537-1.8078-4.3063-.5779-3.8561,1.8159z" fill="#fff"/>
</g>
</svg>
