<svg viewBox="0 0 512 512" xmlns="http://www.w3.org/2000/svg">

<g transform="matrix(18.68858,0,0,18.68858,-7723.19642,-39463.4029)">
<path d="m 417.556 2130.31 c 0.457 2.4294 4.6112 3.29 5.2585 4.536 0.0682 -1.5328 3.3472 -3.7957 2.8717 -6.3311 -0.4567 -2.4349 -3.553 -2.3012 -4.2741 -0.021 -1.6537 -1.8079 -4.3063 -0.5779 -3.8561 1.8159 z" fill="#fff"/>
<path d="m 425.171 2128.55 c -0.9278 -5.0677 -2.6082 -9.9641 -4.6357 -14.5189 l 11.0603 5.1165 4.015 12.3992" fill="none" stroke="#fff"/>
<path d="m 421.712 2117.03 10.7169 5.0779" fill="none" stroke="#fff"/>
<path d="m 427.952 2133.17 c 0.457 2.4294 4.6112 3.2901 5.2585 4.536 0.0682 -1.5328 3.3472 -3.7957 2.8717 -6.331 -0.4567 -2.4349 -3.553 -2.3012 -4.2741 -0.021 -1.6537 -1.8078 -4.3063 -0.5779 -3.8561 1.8159 z" fill="#fff"/>
</g>
</svg>
