<svg viewBox="0 0 512 512" xmlns="http://www.w3.org/2000/svg">

<g transform="matrix(18.68858,0,0,18.68858,-911.82167,-32000.63032)">
<path d="m 72.8702 1722.69 c -5.2838 -5.218 -1.6365 -7.4979 1.4988 -4.8412 0.2939 -2.9445 -2.4366 -4.2301 -4.3425 -4.1588 -3.1765 0.1188 -5.1468 3.1864 0.0625 10.7187 4.257 6.1554 -1.528 9.75 -7.685 9.75 s -11.9421 -3.5946 -7.685 -9.75 c 5.2093 -7.5323 3.239 -10.5999 0.0625 -10.7187 -1.9059 -0.071 -4.6364 1.2143 -4.3425 4.1588 3.1353 -2.6567 6.7825 -0.3768 1.4988 4.8412 -6.5377 6.4563 -0.7809 16.5313 10.4663 16.5313 s 17.004 -10.075 10.4663 -16.5313 z" fill="#fff" stroke="#000"/>
<path d="m 58.9449 1717.27 v 17.5059" fill="none" stroke="#fff"/>
<path d="m 65.9784 1717.27 v 17.5059" fill="none" stroke="#fff"/>
<path d="m 61.3017 1717.27 v 17.5059" fill="none" stroke="#fff"/>
<path d="m 63.6345 1717.27 v 17.5059" fill="none" stroke="#fff"/>
<path d="m 56.5878 1714.8 c 4.0133 2.717 8.0266 2.3247 12.04 0 v 1.8436 c -4.0133 1.6212 -8.0266 2.0048 -12.04 0 z" fill="#fff"/>
<path d="m 54.4808 1718.77 c 0 1.0182 -0.8254 1.8436 -1.8436 1.8436 s -1.8436 -0.8254 -1.8436 -1.8436 0.8254 -1.8436 1.8436 -1.8436 1.8436 0.8254 1.8436 1.8436 z" fill="#fff" transform="matrix(.89796,1.2820274e-8,-1.2820274e-8,.89796,25.02457,173.93846)"/>
<path d="m 54.4808 1718.77 c 0 1.0182 -0.8254 1.8436 -1.8436 1.8436 s -1.8436 -0.8254 -1.8436 -1.8436 0.8254 -1.8436 1.8436 -1.8436 1.8436 0.8254 1.8436 1.8436 z" transform="matrix(-1.19379,0,0,1.19379,115.7336,-333.936)"/>
<path d="m 54.4808 1718.77 c 0 1.0182 -0.8254 1.8436 -1.8436 1.8436 s -1.8436 -0.8254 -1.8436 -1.8436 0.8254 -1.8436 1.8436 -1.8436 1.8436 0.8254 1.8436 1.8436 z" fill="#fff" transform="matrix(-.89796,1.2820274e-8,1.2820274e-8,.89796,99.84274,173.93846)"/>
<path d="m 70.2048 1717.96 c -0.6091 -2.273 2.2425 -3.0425 2.8529 -0.7644" fill="none" stroke="#000"/>
<path d="m 69.1522 1716.85 c 0.821 -3.0371 4.6687 -2.0224 3.8458 1.0215" fill="none" stroke="#fff"/>
<path d="m 54.6397 1717.96 c 0.6091 -2.273 -2.2425 -3.0425 -2.8529 -0.7644" fill="none" stroke="#000"/>
<path d="m 55.6923 1716.85 c -0.821 -3.0371 -4.6687 -2.0224 -3.8458 1.0215" fill="none" stroke="#fff"/>
</g>
</svg>
