<svg viewBox="0 0 512 512" xmlns="http://www.w3.org/2000/svg">

<g transform="matrix(18.68858,0,0,18.68858,-5913.16151,-3480.98388)">
<path d="m 325.788 205.404 c 1.6451 -1.3176 4.1824 -0.4076 4.8487 1.3001 l -4.1838 5.9207 -0.6649 -7.2208 z" fill="#fff"/>
<path d="m 337.058 198.931 c -1.9634 0.7663 -2.4442 3.4191 -1.2988 4.8501 l 7.2183 -0.6639 -5.9195 -4.1862 z" fill="#fff"/>
<path d="m 326.663 194.258 c 1.4717 1.5093 4.1009 0.9169 4.9707 -0.6965 l -3.4286 -6.3892 -1.5421 7.0856 z" fill="#fff"/>
<path d="m 323.613 198.45 c 1.881 0.9508 2.105 3.6374 0.8276 4.9519 l -7.1218 -1.3525 6.2942 -3.5994 z" fill="#fff"/>
<path d="m 336.812 202.55 c 0 3.7624 -3.0501 6.8125 -6.8125 6.8125 s -6.8125 -3.0501 -6.8125 -6.8125 3.0501 -6.8125 6.8125 -6.8125 6.8125 3.0501 6.8125 6.8125 z" fill="#fff" stroke="#000" stroke-width=".8076" transform="matrix(1.23807,0,0,-1.23826,-78.30299,450.59897)"/>
<path d="m 335.268 202.318 c -2.6565 -1.0792 -5.618 1.0864 -5.8289 3.5671 l 7.7477 6.0901 -1.9188 -9.6572 z" fill="#fff" stroke="#000"/>
<path d="m 332.882 193.783 c -0.4863 2.6909 2.1184 5.0235 4.4771 4.7287 l 4.167 -8.431 -8.6442 3.7023 z" fill="#fff" stroke="#000"/>
<path d="m 326.919 194.095 c 1.0982 2.5041 -0.8932 5.3783 -3.2559 5.6399 l -6.012 -7.2314 9.2678 1.5915 z" fill="#fff" stroke="#000"/>
</g>
</svg>
