<svg viewBox="0 0 512 512" xmlns="http://www.w3.org/2000/svg">

<g transform="matrix(18.68858,0,0,18.68858,-5913.16151,-3480.98388)">
<path d="m325.7878,205.4037c1.6451-1.3176 4.1824-.4076 4.8487,1.3001l-4.1838,5.9207-.6649-7.2208z" fill="#fff"/>
<path d="m337.0579,198.9309c-1.9634.7663-2.4442,3.4191-1.2988,4.8501l7.2183-.6639-5.9195-4.1862z" fill="#fff"/>
<path d="m326.6628,194.2578c1.4717,1.5093 4.1009.9169 4.9707-.6965l-3.4286-6.3892-1.5421,7.0856z" fill="#fff"/>
<path d="m323.6132,198.45c1.881.9508 2.105,3.6374.8276,4.9519l-7.1218-1.3525 6.2942-3.5994z" fill="#fff"/>
<path d="m336.8125,202.5496c0,3.7624-3.0501,6.8125-6.8125,6.8125s-6.8125-3.0501-6.8125-6.8125 3.0501-6.8125 6.8125-6.8125 6.8125,3.0501 6.8125,6.8125z" fill="#fff" stroke="#000" stroke-width=".8076" transform="matrix(1.23807,0,0,-1.23826,-78.30299,450.59897)"/>
<path d="m335.268,202.3183c-2.6565-1.0792-5.618,1.0864-5.8289,3.5671l7.7477,6.0901-1.9188-9.6572z" fill="#fff" stroke="#000"/>
<path d="m332.8822,193.7826c-.4863,2.6909 2.1184,5.0235 4.4771,4.7287l4.167-8.431-8.6442,3.7023z" fill="#fff" stroke="#000"/>
<path d="m326.9187,194.0949c1.0982,2.5041-.8932,5.3783-3.2559,5.6399l-6.012-7.2314 9.2678,1.5915z" fill="#fff" stroke="#000"/>
</g>
</svg>
