<svg viewBox="0 0 512 512" xmlns="http://www.w3.org/2000/svg">

<g transform="matrix(18.68858,0,0,18.68858,-7716.27572,-36085.02508)">
<path d="m433.7751,1933.5862-12.1066,13.4681c-.1073.077-.214.154-.3202.232-2.808,2.0617-5.2452,4.5851-7.3845,7.4795 .1175,1.4334 1.3818,2.4674 2.4674,2.7329 2.047-3.1863 4.1665-5.8092 6.7122-7.7807l1.345,1.9084c8.3213-5.3393 16.1199-12.8739 14.394-19.7433z" fill="#fff"/>
<path d="m424.8215,1952.8187-5.1778-6.8091" fill="none" stroke="#000"/>
<path d="m417.391,1957.1361-2.5949-5.1801" fill="none" stroke="#000"/>
<path d="m419.4604,1956.0664-2.5455-6.4751" fill="none" stroke="#000"/>
<path d="m420.8789,1953.3638c-.0208-.2252-1.9802-5.5743-1.9802-5.5743" fill="none" stroke="#000"/>
<path d="m433.4604,1931.99c1.3688,4.3654.148,10.4597-9.6372,17.8771" fill="none" stroke="#000"/>
<path d="m420.4576,1945.3903 4.3097,5.7067-1.2965,2.1705" fill="none" stroke="#fff"/>
<path d="m437.4167,1943.2039c-.171,2.3856-.6741,3.4293-1.1714,4.175-.2496.3742-.5106.7462-.5106,1.2314 0,.9708.7713,1.772 1.7421,1.772s1.7721-.8012 1.7721-1.772c0-.5385-.3384-.9167-.6308-1.3215-.5199-.7202-.9931-1.7597-1.2014-4.0849z" fill="#fff" fill-rule="evenodd"/>
<path d="m432.8659,1947.6531c-.224,3.1244-.8829,4.4913-1.5342,5.4678-.3269.4903-.6687.9774-.6687,1.6129 0,1.2714 1.0102,2.3208 2.2816,2.3208s2.3209-1.0494 2.3209-2.3208c0-.7053-.4432-1.2006-.8261-1.7308-.6809-.9431-1.3006-2.3045-1.5735-5.3499z" fill="#fff" fill-rule="evenodd"/>
</g>
</svg>
