<svg viewBox="0 0 512 512" xmlns="http://www.w3.org/2000/svg">

<g transform="matrix(18.68858,0,0,18.68858,-7716.27572,-36085.02508)">
<path d="m 433.775 1933.59 -12.1066 13.4681 c -0.1073 0.077 -0.214 0.154 -0.3202 0.232 -2.808 2.0617 -5.2452 4.5851 -7.3845 7.4795 0.1175 1.4334 1.3818 2.4674 2.4674 2.7329 2.047 -3.1863 4.1665 -5.8092 6.7122 -7.7807 l 1.345 1.9084 c 8.3213 -5.3393 16.1199 -12.8739 14.394 -19.7433 z" fill="#fff"/>
<path d="m 424.822 1952.82 -5.1778 -6.8091" fill="none" stroke="#000"/>
<path d="m 417.391 1957.14 -2.5949 -5.1801" fill="none" stroke="#000"/>
<path d="m 419.46 1956.07 -2.5455 -6.4751" fill="none" stroke="#000"/>
<path d="m 420.879 1953.36 c -0.0208 -0.2252 -1.9802 -5.5743 -1.9802 -5.5743" fill="none" stroke="#000"/>
<path d="m 433.46 1931.99 c 1.3688 4.3654 0.148 10.4597 -9.6372 17.8771" fill="none" stroke="#000"/>
<path d="m 420.458 1945.39 4.3097 5.7067 -1.2965 2.1705" fill="none" stroke="#fff"/>
<path d="m 437.417 1943.2 c -0.171 2.3856 -0.6741 3.4293 -1.1714 4.175 -0.2496 0.3742 -0.5106 0.7462 -0.5106 1.2314 0 0.9708 0.7713 1.772 1.7421 1.772 s 1.7721 -0.8012 1.7721 -1.772 c 0 -0.5385 -0.3384 -0.9167 -0.6308 -1.3215 -0.5199 -0.7202 -0.9931 -1.7597 -1.2014 -4.0849 z" fill="#fff" fill-rule="evenodd"/>
<path d="m 432.866 1947.65 c -0.224 3.1244 -0.8829 4.4913 -1.5342 5.4678 -0.3269 0.4903 -0.6687 0.9774 -0.6687 1.6129 0 1.2714 1.0102 2.3208 2.2816 2.3208 s 2.3209 -1.0494 2.3209 -2.3208 c 0 -0.7053 -0.4432 -1.2006 -0.8261 -1.7308 -0.6809 -0.9431 -1.3006 -2.3045 -1.5735 -5.3499 z" fill="#fff" fill-rule="evenodd"/>
</g>
</svg>
