<svg viewBox="0 0 512 512" xmlns="http://www.w3.org/2000/svg">

<g transform="matrix(18.68858,0,0,18.68858,-3633.77541,-26545.53155)">
<path d="m695.1875,438.8622c0,6.4548-3.5398,11.6875-7.9062,11.6875s-7.9062-5.2327-7.9062-11.6875 3.5398-11.6875 7.9062-11.6875 7.9062,5.2327 7.9062,11.6875z" fill="#fff" stroke="#000" stroke-width=".8455" transform="matrix(1.2386,0,0,1.12947,-643.51765,938.42849)"/>
<path d="m695.1875,438.8622c0,6.4548-3.5398,11.6875-7.9062,11.6875s-7.9062-5.2327-7.9062-11.6875 3.5398-11.6875 7.9062-11.6875 7.9062,5.2327 7.9062,11.6875z" transform="matrix(.95558,0,0,1.12526,-449.07672,940.15189)"/>
<path d="m206.0938,1434.9559c0,1.5188-1.2312,2.75-2.75,2.75s-2.75-1.2312-2.75-2.75 1.2312-2.75 2.75-2.75 2.75,1.2312 2.75,2.75z" fill="#fff" transform="matrix(1.25713,0,0,1.25713,-52.54737,-369.90734)"/>
<path d="m206.0938,1434.9559c0,1.5188-1.2312,2.75-2.75,2.75s-2.75-1.2312-2.75-2.75 1.2312-2.75 2.75-2.75 2.75,1.2312 2.75,2.75z" fill="#fff" transform="matrix(1.25713,0,0,1.25713,-43.00143,-369.90734)"/>
<path d="m201.8861,1439.7685c2.9326,5.0793 8.7839,5.045 11.6966,0-3.2857,1.897-7.8218,1.8503-11.6966,0z" fill="#fff"/>
<path d="m205.5312,1434.7684c.9639-1.6696 3.5167-1.5949 4.4375,0" fill="none" stroke="#fff"/>
</g>
</svg>
