<svg viewBox="0 0 512 512" xmlns="http://www.w3.org/2000/svg">

<g transform="matrix(18.68858,0,0,18.68858,-3633.77541,-26545.53155)">
<path d="m 695.188 438.862 c 0 6.4548 -3.5398 11.6875 -7.9062 11.6875 s -7.9062 -5.2327 -7.9062 -11.6875 3.5398 -11.6875 7.9062 -11.6875 7.9062 5.2327 7.9062 11.6875 z" fill="#fff" stroke="#000" stroke-width=".8455" transform="matrix(1.2386,0,0,1.12947,-643.51765,938.42849)"/>
<path d="m 695.188 438.862 c 0 6.4548 -3.5398 11.6875 -7.9062 11.6875 s -7.9062 -5.2327 -7.9062 -11.6875 3.5398 -11.6875 7.9062 -11.6875 7.9062 5.2327 7.9062 11.6875 z" transform="matrix(.95558,0,0,1.12526,-449.07672,940.15189)"/>
<path d="m 206.094 1434.96 c 0 1.5188 -1.2312 2.75 -2.75 2.75 s -2.75 -1.2312 -2.75 -2.75 1.2312 -2.75 2.75 -2.75 2.75 1.2312 2.75 2.75 z" fill="#fff" transform="matrix(1.25713,0,0,1.25713,-52.54737,-369.90734)"/>
<path d="m 206.094 1434.96 c 0 1.5188 -1.2312 2.75 -2.75 2.75 s -2.75 -1.2312 -2.75 -2.75 1.2312 -2.75 2.75 -2.75 2.75 1.2312 2.75 2.75 z" fill="#fff" transform="matrix(1.25713,0,0,1.25713,-43.00143,-369.90734)"/>
<path d="m 201.886 1439.77 c 2.9326 5.0793 8.7839 5.045 11.6966 0 -3.2857 1.897 -7.8218 1.8503 -11.6966 0 z" fill="#fff"/>
<path d="m 205.531 1434.77 c 0.9639 -1.6696 3.5167 -1.5949 4.4375 0" fill="none" stroke="#fff"/>
</g>
</svg>
