<svg viewBox="0 0 512 512" xmlns="http://www.w3.org/2000/svg">

<g transform="matrix(18.68858,0,0,18.68858,-2097.98882,-1593.00185)">
<path d="m132.6388,88.4189c-1.1037-.5086-2.4372-.4977-3.3274.3883-.9209-2.7939-5.0056-3.5404-6.1153-.2831-1.6735-1.7329-5.228.5699-4.7066,2.8396-2.8399-1.3875-5.1026,3.4384-3.2134,5.2533-2.4248.5562-2.167,4.3459-.2046,5.0419-1.7245,2.3023-.4124,4.1741 1.6832,4.1472 1.0437,4.956 6.9253.9365 2.5845-1.5389 .3403-.894.1712-2.0348-.5487-2.9871 1.1869-.8992 1.1805-2.0607.5726-3.2418 1.1716-.5565 1.7077-1.2979 1.7447-2.7094 .1636-.1724.3664-.2227.5226.1574 1.1461,2.789 2.1338,2.4426 1.8158-.395-.0843-.7525 1.7029-.5656 1.6074.2785-.3712,3.2795.6362,4.0991 1.6188.3212 .2885-1.1094 1.7529-.1795 1.4865.4252-1.3437,3.051-.6893,3.4471 1.3562.9635 .812-.9859 1.634.3153 1.1511.8811-2.023,2.3705-1.8856,3.0354.6908,1.5535 1.202-.6913 3.8237-.0059 5.1268-1.4424 2.2581-2.8861.8433-6.4282-2.0096-5.7069 .62-1.747-.4161-3.2924-1.8352-3.9463z" fill="#fff"/>
<path d="m135.678,100.2772c-4.6794-.5572-6.2157,3.9361-3.4692,7.3564-3.3347-7.9563 9.2525-4.8019 2.6285.5955 4.2627-1.4716 3.8711-5.5555.8407-7.9519z" fill="#fff"/>
<path d="m134.8287,103.581c-5.9548-1.3265-1.6339-8.8339 1.7963-8.0698 3.3873.7546 3.8984,9.3384-1.7963,8.0698z" fill="#fff" fill-rule="evenodd" stroke="#000"/>
<path d="m120.3032,106.0398c1.0948,1.8609 3.6729,3.7764 6.197,1.7569-1.9372,3.7739-5.7477,2.0437-7.7854-.54" fill="#fff" fill-rule="evenodd"/>
<path d="m117.4805,108.1426c1.3825,1.0587 4.4201-.5824 3.7924-2.5375" fill="none" stroke="#000"/>
</g>
</svg>
