<svg viewBox="0 0 512 512" xmlns="http://www.w3.org/2000/svg">

<g transform="matrix(18.68858,0,0,18.68858,-2097.98882,-1593.00185)">
<path d="m 132.639 88.4189 c -1.1037 -0.5086 -2.4372 -0.4977 -3.3274 0.3883 -0.9209 -2.7939 -5.0056 -3.5404 -6.1153 -0.2831 -1.6735 -1.7329 -5.228 0.5699 -4.7066 2.8396 -2.8399 -1.3875 -5.1026 3.4384 -3.2134 5.2533 -2.4248 0.5562 -2.167 4.3459 -0.2046 5.0419 -1.7245 2.3023 -0.4124 4.1741 1.6832 4.1472 1.0437 4.956 6.9253 0.9365 2.5845 -1.5389 0.3403 -0.894 0.1712 -2.0348 -0.5487 -2.9871 1.1869 -0.8992 1.1805 -2.0607 0.5726 -3.2418 1.1716 -0.5565 1.7077 -1.2979 1.7447 -2.7094 0.1636 -0.1724 0.3664 -0.2227 0.5226 0.1574 1.1461 2.789 2.1338 2.4426 1.8158 -0.395 -0.0843 -0.7525 1.7029 -0.5656 1.6074 0.2785 -0.3712 3.2795 0.6362 4.0991 1.6188 0.3212 0.2885 -1.1094 1.7529 -0.1795 1.4865 0.4252 -1.3437 3.051 -0.6893 3.4471 1.3562 0.9635 0.812 -0.9859 1.634 0.3153 1.1511 0.8811 -2.023 2.3705 -1.8856 3.0354 0.6908 1.5535 1.202 -0.6913 3.8237 -0.0059 5.1268 -1.4424 2.2581 -2.8861 0.8433 -6.4282 -2.0096 -5.7069 0.62 -1.747 -0.4161 -3.2924 -1.8352 -3.9463 z" fill="#fff"/>
<path d="m 135.678 100.277 c -4.6794 -0.5572 -6.2157 3.9361 -3.4692 7.3564 -3.3347 -7.9563 9.2525 -4.8019 2.6285 0.5955 4.2627 -1.4716 3.8711 -5.5555 0.8407 -7.9519 z" fill="#fff"/>
<path d="m 134.829 103.581 c -5.9548 -1.3265 -1.6339 -8.8339 1.7963 -8.0698 3.3873 0.7546 3.8984 9.3384 -1.7963 8.0698 z" fill="#fff" fill-rule="evenodd" stroke="#000"/>
<path d="m 120.303 106.04 c 1.0948 1.8609 3.6729 3.7764 6.197 1.7569 -1.9372 3.7739 -5.7477 2.0437 -7.7854 -0.54" fill="#fff" fill-rule="evenodd"/>
<path d="m 117.481 108.143 c 1.3825 1.0587 4.4201 -0.5824 3.7924 -2.5375" fill="none" stroke="#000"/>
</g>
</svg>
