<svg viewBox="0 0 512 512" xmlns="http://www.w3.org/2000/svg">

<g transform="matrix(18.68858,0,0,18.68858,-2271.03649,-35400.73899)">
<path d="m 123.859 1894.98 -1.3677 2.7355 c 7.2127 3.5225 18.0897 3.5219 25.3024 0 l -1.3677 -2.7355 c -6.0155 2.9377 -16.5516 2.9377 -22.567 0 z" fill="#fff"/>
<path d="m 139.545 1900.55 c -3.0286 0.5356 -4.3268 1.2758 -4.5615 3.6578 1.7395 -1.9518 3.5201 -1.9992 5.1444 -1.3433" fill="#fff"/>
<path d="m 142.947 1899.02 h -3.4883 l 2.3902 21.4912 h 5.9885 z" fill="#fff"/>
<path d="m 127.489 1899.02 h 3.4883 l -2.3902 21.4912 h -5.9885 z" fill="#fff"/>
<path d="m 131.162 1900.73 -0.6062 6.2395 c 0.3774 -2.6523 1.6956 -5.446 3.8794 -5.9406" fill="#fff"/>
<path d="m 132.708 1910.56 c -1.5387 0.2067 -2.2732 -0.5886 -2.4863 -2.1423 l -0.7261 5.555 c 0.2353 2.2167 1.8482 3.4177 4.2234 3.3076 -0.9826 1.2673 -1.6504 1.2916 -3.375 0.75 2.0906 2.608 5.5425 0.994 6.375 -1.6874 0.7435 1.1938 -0.1602 3.4231 -2.375 3.625 4.4366 0.7052 5.639 -3.3666 3.0569 -6.6558 1.367 0.1559 3.1197 0.7975 3.7503 3.0837 l -0.6825 -5.8071 c -1.1907 -2.2964 -4.3947 -1.4161 -3.8747 -2.9646 0.2435 -0.725 1.8516 -0.8851 2.25 0.5938 0.6657 -2.1967 -1.9934 -2.6595 -2.8125 -1.5938 1.1391 -2.0427 3.8304 -1.3021 4.3438 0.8536 l -0.5 -3.4702 c -1.8589 -1.0791 -4.2394 0.065 -5.1875 2.6166 -0.6855 -1.1331 -1.1377 -3.5611 0.0625 -4.781 -1.8659 0.91 -3.8908 5.8416 -2.0422 8.7169 z" fill="#fff"/>
<path d="m 128.876 1920.73 4.486 -0.045 c -2.2387 -0.6036 -3.7376 -1.2739 -4.5745 -3.5502" fill="#fff"/>
<path d="m 141.591 1920.49 -0.4888 -2.9342 c -0.4737 -0.9506 -0.851 -1.5582 -1.4275 -2.0574 0.4915 2.2989 -0.3979 4.3672 -2.3976 4.9753" fill="#fff"/>
<path d="m 128.576 1921.01 2.256 -20.4291 c 2.8804 0.3645 5.8974 0.3469 8.7732 -0.031 l 2.256 20.4604 h -13.2852 z" fill="none" stroke="#000"/>
<path d="m 129.543 1913.9 c 0.6169 1.0045 2.8826 1.021 3.654 -0.2833 -1.6751 0 -3.0058 -0.9116 -3.259 -3.5398"/>
</g>
</svg>
