<svg viewBox="0 0 512 512" xmlns="http://www.w3.org/2000/svg">

<g transform="matrix(18.68858,0,0,18.68858,-2951.19428,-35400.07554)">
<path d="m160.7616,1921.0488 3.6695-26.3744 14.2703-.04 3.6695,26.4148h-21.6094z" fill="#fff" stroke="#000"/>
<path d="m172.1762,1896.9098c-6.0534.7364-6.7788,6.1871-3.5073,9.3195 .4414.4228.0393,1.1361-.4575,1.2507-1.9245.4443-2.7926-.7012-2.8465-2.582-1.6694,2.6502.8755,4.1848 2.694,5.3658-1.1623.753-2.3246.5017-3.4869.1805 .7799,1.2701 2.7842,1.6197 4.0968,1.9578 .9017.2323 1.1646,1.0565.4574,1.5733-1.2892.9421-3.3443.4725-4.8797-1.0892 .9963,2.6706 4.1792,3.4466 6.0997,2.2997-1.1429,1.8032-3.3149,2.6178-6.4555,1.412 3.1733,3.1421 8.445,1.1729 9.7087-2.0575 1.1286,1.1156.2979,3.8517-3.064,4.464 5.2818,1.6334 6.9269-3.5555 5.5547-7.1269 1.7463.8399 2.4304,2.2877 1.1691,4.3572 3.8115-1.8107 1.0156-5.0071-.7116-7.8671-.4559-.755 1.09-1.3626 2.0986-.7807-1.8074-2.7665-6.0393-1.6812-5.2501-3.5468 .3696-.8735 2.801-1.0449 3.4057.7368 1.0104-2.6464-3.0265-3.2205-4.2698-1.9364-.0844-2.134 1.8912-3.6328 4.0779-2.5536-2.0344-2.7281-6.7734-.5612-6.3653,3.1588-1.9141-2.1343-1.749-4.5515 1.9316-6.5359z"/>
<path d="m177.4036,1920.9224c2.2759-1.6793 2.6835-3.3805 2.479-5.1469-.6345,1.8179-3.0146,4.0473-7.0366,4.8002"/>
<path d="m161.3035,1919.6965c2.9702.7252 5.0303.1542 6.8554-.8695-1.7936.3687-4.3904.1327-6.79-1.1203"/>
<path d="m161.5393,1913.6515c.839,1.036 1.9897,1.675 3.2964,2.153-1.6666-1.3448-2.9081-4.0958-1.7193-7.2368"/>
<path d="m164.8531,1895.0898c-.9137,3.4951-.661,6.3183 1.293,9.0616-.9317-3.9012.2062-7.0159 3.6952-9.2593"/>
<path d="m179.3685,1898.5792c-1.3487-.5306-2.7165-.6207-4.1166-.5185 1.3823.3036 2.9532,1.1124 4.1902,2.4075"/>
<path d="m178.4124,1894.6349c-3.029.5506-5.466,2.2122-6.4017,3.8231 1.368-1.0678 3.8906-1.9159 6.8943-1.7065"/>
<path d="m179.5074,1901.8447c-1.3086-1.0135-2.6009-.938-3.9311-.4959 1.3842.035 3.5602,1.5638 4.2012,3.7597"/>
<path d="m159.5438,1921.0488 3.6695-26.3744" fill="none" stroke="#fff"/>
<path d="m179.9745,1894.6344 3.6695,26.4148" fill="none" stroke="#fff"/>
<path d="m159.3197,1894.6277h22.7015" fill="none" stroke="#000"/>
<path d="m158.6584,1921.0573h25.995" fill="none" stroke="#000"/>
</g>
</svg>
