<svg viewBox="0 0 512 512" xmlns="http://www.w3.org/2000/svg">

<g transform="matrix(18.68858,0,0,18.68858,-13164.81908,-35399.41584)">
<path d="m 711.082 1906.73 c -8.3098 -3.2149 -5.2105 8.4557 -0.1839 5.7651 0.9419 -0.5042 1.9209 -1.194 2.4266 -0.4655" fill="none" stroke="#fff"/>
<path d="m 709.154 1906.21 c 6.4421 13.569 17.7313 4.7251 21.5183 -7.2618 z" fill="#fff"/>
<path d="m 719.097 1900.54 c 2.6999 5.7235 8.3212 2.154 10.3263 -2.7698 z"/>
<path d="m 718.426 1908.44 c -0.3214 2.9399 -2.0008 5.6847 -4.593 7.5057 1.485 1.4835 12.0269 -1.3299 12.2871 -3.2958 -3.1304 -0.2891 -5.9455 -1.8338 -7.6941 -4.2099 z" fill="#fff"/>
<path d="m 715.518 1900.88 c -2.5653 0.6881 -4.2454 2.9579 -4.3 5.4437 l 10.743 -2.8816 c -1.2889 -2.1254 -3.8776 -3.2502 -6.4429 -2.5621 z" fill="#fff"/>
<path d="m 715.707 1903.03 c 0 0.6964 -0.5645 1.2608 -1.2608 1.2608 s -1.2608 -0.5644 -1.2608 -1.2608 0.5645 -1.2608 1.2608 -1.2608 1.2608 0.5645 1.2608 1.2608 z" fill="#fff" transform="matrix(1.03349,-.27721,.27897,1.04221,-553.91421,114.93562)"/>
<path d="m 715.707 1903.03 c 0 0.6964 -0.5645 1.2608 -1.2608 1.2608 s -1.2608 -0.5644 -1.2608 -1.2608 0.5645 -1.2608 1.2608 -1.2608 1.2608 0.5645 1.2608 1.2608 z" fill="#fff" transform="matrix(.82965,-.22254,.22394,.83664,-306.04384,479.11903)"/>
</g>
</svg>
