<svg viewBox="0 0 512 512" xmlns="http://www.w3.org/2000/svg">

<g transform="matrix(18.68858,0,0,18.68858,-2271.03649,-35400.73899)">
<path d="m123.8588,1894.9846-1.3677,2.7355c7.2127,3.5225 18.0897,3.5219 25.3024,0l-1.3677-2.7355c-6.0155,2.9377-16.5516,2.9377-22.567,0z" fill="#fff"/>
<path d="m139.5449,1900.5481c-3.0286.5356-4.3268,1.2758-4.5615,3.6578 1.7395-1.9518 3.5201-1.9992 5.1444-1.3433" fill="#fff"/>
<path d="m142.9473,1899.0172h-3.4883l2.3902,21.4912h5.9885z" fill="#fff"/>
<path d="m127.4888,1899.0172h3.4883l-2.3902,21.4912h-5.9885z" fill="#fff"/>
<path d="m131.1622,1900.7324-.6062,6.2395c.3774-2.6523 1.6956-5.446 3.8794-5.9406" fill="#fff"/>
<path d="m132.7078,1910.5606c-1.5387.2067-2.2732-.5886-2.4863-2.1423l-.7261,5.555c.2353,2.2167 1.8482,3.4177 4.2234,3.3076-.9826,1.2673-1.6504,1.2916-3.375.75 2.0906,2.608 5.5425.994 6.375-1.6874 .7435,1.1938-.1602,3.4231-2.375,3.625 4.4366.7052 5.639-3.3666 3.0569-6.6558 1.367.1559 3.1197.7975 3.7503,3.0837l-.6825-5.8071c-1.1907-2.2964-4.3947-1.4161-3.8747-2.9646 .2435-.725 1.8516-.8851 2.25.5938 .6657-2.1967-1.9934-2.6595-2.8125-1.5938 1.1391-2.0427 3.8304-1.3021 4.3438.8536l-.5-3.4702c-1.8589-1.0791-4.2394.065-5.1875,2.6166-.6855-1.1331-1.1377-3.5611.0625-4.781-1.8659.91-3.8908,5.8416-2.0422,8.7169z" fill="#fff"/>
<path d="m128.8763,1920.7254 4.486-.045c-2.2387-.6036-3.7376-1.2739-4.5745-3.5502" fill="#fff"/>
<path d="m141.5907,1920.4927-.4888-2.9342c-.4737-.9506-.851-1.5582-1.4275-2.0574 .4915,2.2989-.3979,4.3672-2.3976,4.9753" fill="#fff"/>
<path d="m128.5762,1921.0101 2.256-20.4291c2.8804.3645 5.8974.3469 8.7732-.031l2.256,20.4604h-13.2852z" fill="none" stroke="#000"/>
<path d="m129.5433,1913.9004c.6169,1.0045 2.8826,1.021 3.654-.2833-1.6751,0-3.0058-.9116-3.259-3.5398"/>
</g>
</svg>
