<svg viewBox="0 0 512 512" xmlns="http://www.w3.org/2000/svg">

<g transform="matrix(18.68858,0,0,18.68858,-13164.59295,-28581.19205)">
<path d="m 707.037 1529.96 c -0.1255 2.1568 -0.1691 4.0637 -0.1551 5.8008 0.438 -0.3805 1.0162 -0.6205 1.6441 -0.6205 1.3992 0 2.5437 1.1446 2.5437 2.5439 s -1.1445 2.5126 -2.5437 2.5126 c -0.5648 0 -1.1028 -0.188 -1.52 -0.4963 1.1903 14.7513 8.4968 10.7435 11.2915 16.0065 2.7946 -5.2629 10.0701 -1.2554 11.2605 -16.0065 -0.4173 0.3083 -0.9241 0.4963 -1.489 0.4963 -1.3992 0 -2.5437 -1.1135 -2.5437 -2.5126 s 1.1445 -2.5439 2.5437 -2.5439 c 0.6437 0 1.2019 0.2538 1.6441 0.6516 0.0148 -1.745 -0.0289 -3.6624 -0.1551 -5.8319 -3.2367 0.7733 -7.2708 1.1437 -11.2605 1.1788 -3.9897 -0.035 -8.0237 -0.4055 -11.2605 -1.1788 z" fill="#fff" stroke="#000"/>
<g stroke="#000" stroke-width=".8707" transform="matrix(1.1485,0,0,-1.1485,-106.04982,3310.14958)">
<path d="m 720.966 1538.85 3.2706 -0.016 -4.986 3.7747" fill="none" stroke="#000" stroke-width=".8707"/>
<path d="m 714.065 1540.84 -2.8008 -1.9922 6.2541 0.01" fill="none" stroke="#000" stroke-width=".8707"/>
<path d="m 716.519 1544.47 -2.7039 1.9688 2.0561 -6.1172" fill="none" stroke="#000" stroke-width=".8707"/>
<path d="m 720.856 1543.42 0.8997 3.0915 -5.008 -3.7447" fill="none" stroke="#000" stroke-width=".8707"/>
<path d="m 716.787 1537.36 1.0383 -3.2051 1.8897 5.9308" fill="none" stroke="#000" stroke-width=".8707"/>
</g>
</g>
</svg>
