<svg viewBox="0 0 512 512" xmlns="http://www.w3.org/2000/svg">

<g transform="matrix(18.68858,0,0,18.68858,-11122.35913,-34035.78491)">
<g transform="matrix(1.44199,0,0,1.44199,-270.28472,-810.4147)">
<path d="m 610.644 1825.74 0.608 8.2863 1.7734 -6.8631 c 0.7815 -0.4672 2.3169 -0.1682 2.7095 0.7434 l -2.1936 8.037 c 2.2909 -1.8747 4.6312 -2.9713 5.0071 0.026 -2.4891 1.3138 -3.5785 3.0092 -4.3722 4.1716 -0.3379 0.4948 -0.5254 1.2633 -1.1665 1.4351 l -4.1892 1.1224 c -1.2114 0.3246 -2.3543 -0.7138 -2.8401 -1.688 -0.3423 -0.6864 -1.0575 -1.8612 -1.4495 -2.5913 -1.218 -2.2684 -3.9252 -5.3566 -3.9252 -5.3566 0.0311 -1.0115 1.034 -1.7515 1.9175 -1.6762 l 3.4013 4.3123 -2.8763 -7.5356 c 0.2969 -0.9929 1.6976 -1.6718 2.4886 -1.2995 l 3.024 7.7818 -0.8991 -8.5348 c 0.9992 -0.8145 1.9164 -0.6596 2.9824 -0.3708 z" fill="#fff" stroke="#000" stroke-width=".6935"/>
<path d="m 604.151 1836.13 c 3.1134 0.844 6.8377 -0.3659 9.1299 -3.4052 -3.3023 0.6297 -6.8284 0.8227 -9.1299 3.4052 z" fill="#fff" fill-rule="evenodd"/>
<path d="m 614.106 1836.51 -0.3869 -3.3858 -1.9401 5.3639 z" fill="#fff"/>
</g>
<path d="m 1238.48 742.337 h 4.8011 v 4.8011 h -4.8011 z" transform="matrix(.47033,.88249,.03393,.99942,0,0)"/>
<path d="m 4275.96 -3387.59 h 4.8011 v 4.8011 h -4.8011 z" transform="matrix(-.52909,.84856,-.84856,.52909,0,0)"/>
<path d="m 4127.53 -3039.88 h 4.8011 v 4.8011 h -4.8011 z" transform="matrix(.88249,.47033,.99942,.03393,0,0)"/>
<path d="m 616.799 1835.26 c -1.2698 0.7818 -2.3346 1.6661 -3.1741 2.663" fill="none" stroke="#000"/>
</g>
</svg>
