<svg viewBox="0 0 512 512" xmlns="http://www.w3.org/2000/svg">

<g transform="matrix(18.68858,0,0,18.68858,-8398.4201,-36767.17133)">
<g transform="matrix(-1,0,0,1,999.02638,291.22615)">
<path d="m535.8125,1677.156c2.0026.3163 3.967,1.2543 5.4688,2.6563-2.9837-1.3979-6.9278-1.4585-10-.1875 .5549-.5207 1.1652-.9378 1.8125-1.25-8.1758,2.0047-11.1295,8.2688-7.75,16.125-.8801-1.4329-1.5573-2.9741-1.9062-4.5312-.2993,4.2381 2.0008,7.6718 6.2942,11.2624l6.4558.05c4.1198.032 9.1905-1.0137 11.4069-4.955l-2.2325.9782c2.4903-2.9572 2.5831-6.968 2.0756-10.8356l1.1452,2.75c-.008-8.1521-6.741-12.413-12.7702-12.0626z" fill="#fff"/>
<path d="m527.984,1685.2693c.1829-1.043.4614-2.0561.8357-3.0023-4.59,5.2866-2.9038,12.977 2.6532,14.0301l-.3237,6.114c10.0136-.7635 14.8004-6.5734 15.0695-13.0875 .3597-11.332-13.9474-11.6485-18.2347-4.0543z"/>
<path d="m533.2205,1696.8232c3.1328,1.8087.3354,6.7707-2.848,4.9328-1.3622-.7864-4.4864-4.0625-3.7-5.4248s5.1858-.2944 6.548.492z" fill="#fff"/>
</g>
<path d="m461.5904,1976.9349-1.0617,5.3812c-.1583.2038-.3019.3666-.4834.5318l-1.3745-2.627-1.2149.6384 1.6785,3.261c.2397.6139.5362,1.1066.8113,1.5263 1.5016,2.2903 3.4538,1.8862 5.0995.5112l4.6703-2.5925-.6802-1.2038-3.5388,1.9766c-.0811-.1688-.1746-.3506-.2704-.5088l3.6288-3.476-.9386-1.0003-3.5566,3.4118c-.1261-.124-.2268-.2422-.362-.3499l2.4123-4.1783-1.2165-.7024-2.454,4.1895c-.2028-.07-.4132-.1177-.6205-.1468l.8377-4.3822-1.3662-.2598z" fill="#fff"/>
</g>
</svg>
