<svg viewBox="0 0 512 512" xmlns="http://www.w3.org/2000/svg">

<g transform="matrix(18.68858,0,0,18.68858,-13164.59295,-28581.19205)">
<path d="m707.0365,1529.9633c-.1255,2.1568-.1691,4.0637-.1551,5.8008 .438-.3805 1.0162-.6205 1.6441-.6205 1.3992,0 2.5437,1.1446 2.5437,2.5439s-1.1445,2.5126-2.5437,2.5126c-.5648,0-1.1028-.188-1.52-.4963 1.1903,14.7513 8.4968,10.7435 11.2915,16.0065 2.7946-5.2629 10.0701-1.2554 11.2605-16.0065-.4173.3083-.9241.4963-1.489.4963-1.3992,0-2.5437-1.1135-2.5437-2.5126s1.1445-2.5439 2.5437-2.5439c.6437,0 1.2019.2538 1.6441.6516 .0148-1.745-.0289-3.6624-.1551-5.8319-3.2367.7733-7.2708,1.1437-11.2605,1.1788-3.9897-.035-8.0237-.4055-11.2605-1.1788z" fill="#fff" stroke="#000"/>
<g stroke="#000" stroke-width=".8707" transform="matrix(1.1485,0,0,-1.1485,-106.04982,3310.14958)">
<path d="m720.9657,1538.8472 3.2706-.016-4.986,3.7747" fill="none" stroke="#000" stroke-width=".8707"/>
<path d="m714.0648,1540.8414-2.8008-1.9922 6.2541.01" fill="none" stroke="#000" stroke-width=".8707"/>
<path d="m716.5195,1544.4712-2.7039,1.9688 2.0561-6.1172" fill="none" stroke="#000" stroke-width=".8707"/>
<path d="m720.8557,1543.4232 .8997,3.0915-5.008-3.7447" fill="none" stroke="#000" stroke-width=".8707"/>
<path d="m716.7871,1537.3598 1.0383-3.2051 1.8897,5.9308" fill="none" stroke="#000" stroke-width=".8707"/>
</g>
</g>
</svg>
