<svg viewBox="0 0 512 512" xmlns="http://www.w3.org/2000/svg">

<g transform="matrix(18.68858,0,0,18.68858,-11122.35913,-34035.78491)">
<g transform="matrix(1.44199,0,0,1.44199,-270.28472,-810.4147)">
<path d="m610.6444,1825.7401 .608,8.2863 1.7734-6.8631c.7815-.4672 2.3169-.1682 2.7095.7434l-2.1936,8.037c2.2909-1.8747 4.6312-2.9713 5.0071.026-2.4891,1.3138-3.5785,3.0092-4.3722,4.1716-.3379.4948-.5254,1.2633-1.1665,1.4351l-4.1892,1.1224c-1.2114.3246-2.3543-.7138-2.8401-1.688-.3423-.6864-1.0575-1.8612-1.4495-2.5913-1.218-2.2684-3.9252-5.3566-3.9252-5.3566 .0311-1.0115 1.034-1.7515 1.9175-1.6762l3.4013,4.3123-2.8763-7.5356c.2969-.9929 1.6976-1.6718 2.4886-1.2995l3.024,7.7818-.8991-8.5348c.9992-.8145 1.9164-.6596 2.9824-.3708z" fill="#fff" stroke="#000" stroke-width=".6935"/>
<path d="m604.1509,1836.1333c3.1134.844 6.8377-.3659 9.1299-3.4052-3.3023.6297-6.8284.8227-9.1299,3.4052z" fill="#fff" fill-rule="evenodd"/>
<path d="m614.1058,1836.5057-.3869-3.3858-1.9401,5.3639z" fill="#fff"/>
</g>
<path d="m1238.479,742.3374h4.8011v4.8011h-4.8011z" transform="matrix(.47033,.88249,.03393,.99942,0,0)"/>
<path d="m4275.9585-3387.5896h4.8011v4.8011h-4.8011z" transform="matrix(-.52909,.84856,-.84856,.52909,0,0)"/>
<path d="m4127.5264-3039.8804h4.8011v4.8011h-4.8011z" transform="matrix(.88249,.47033,.99942,.03393,0,0)"/>
<path d="m616.7986,1835.2634c-1.2698.7818-2.3346,1.6661-3.1741,2.663" fill="none" stroke="#000"/>
</g>
</svg>
