<svg viewBox="0 0 512 512" xmlns="http://www.w3.org/2000/svg">

<g transform="matrix(18.68858,0,0,18.68858,-8398.4201,-36767.17133)">
<g transform="matrix(-1,0,0,1,999.02638,291.22615)">
<path d="m 535.812 1677.16 c 2.0026 0.3163 3.967 1.2543 5.4688 2.6563 -2.9837 -1.3979 -6.9278 -1.4585 -10 -0.1875 0.5549 -0.5207 1.1652 -0.9378 1.8125 -1.25 -8.1758 2.0047 -11.1295 8.2688 -7.75 16.125 -0.8801 -1.4329 -1.5573 -2.9741 -1.9062 -4.5312 -0.2993 4.2381 2.0008 7.6718 6.2942 11.2624 l 6.4558 0.05 c 4.1198 0.032 9.1905 -1.0137 11.4069 -4.955 l -2.2325 0.9782 c 2.4903 -2.9572 2.5831 -6.968 2.0756 -10.8356 l 1.1452 2.75 c -0.008 -8.1521 -6.741 -12.413 -12.7702 -12.0626 z" fill="#fff"/>
<path d="m 527.984 1685.27 c 0.1829 -1.043 0.4614 -2.0561 0.8357 -3.0023 -4.59 5.2866 -2.9038 12.977 2.6532 14.0301 l -0.3237 6.114 c 10.0136 -0.7635 14.8004 -6.5734 15.0695 -13.0875 0.3597 -11.332 -13.9474 -11.6485 -18.2347 -4.0543 z"/>
<path d="m 533.221 1696.82 c 3.1328 1.8087 0.3354 6.7707 -2.848 4.9328 -1.3622 -0.7864 -4.4864 -4.0625 -3.7 -5.4248 s 5.1858 -0.2944 6.548 0.492 z" fill="#fff"/>
</g>
<path d="m 461.59 1976.93 -1.0617 5.3812 c -0.1583 0.2038 -0.3019 0.3666 -0.4834 0.5318 l -1.3745 -2.627 -1.2149 0.6384 1.6785 3.261 c 0.2397 0.6139 0.5362 1.1066 0.8113 1.5263 1.5016 2.2903 3.4538 1.8862 5.0995 0.5112 l 4.6703 -2.5925 -0.6802 -1.2038 -3.5388 1.9766 c -0.0811 -0.1688 -0.1746 -0.3506 -0.2704 -0.5088 l 3.6288 -3.476 -0.9386 -1.0003 -3.5566 3.4118 c -0.1261 -0.124 -0.2268 -0.2422 -0.362 -0.3499 l 2.4123 -4.1783 -1.2165 -0.7024 -2.454 4.1895 c -0.2028 -0.07 -0.4132 -0.1177 -0.6205 -0.1468 l 0.8377 -4.3822 -1.3662 -0.2598 z" fill="#fff"/>
</g>
</svg>
