<svg viewBox="0 0 512 512" xmlns="http://www.w3.org/2000/svg">

<g transform="matrix(18.68858,0,0,18.68858,-2951.19428,-35400.07554)">
<path d="m 160.762 1921.05 3.6695 -26.3744 14.2703 -0.04 3.6695 26.4148 h -21.6094 z" fill="#fff" stroke="#000"/>
<path d="m 172.176 1896.91 c -6.0534 0.7364 -6.7788 6.1871 -3.5073 9.3195 0.4414 0.4228 0.0393 1.1361 -0.4575 1.2507 -1.9245 0.4443 -2.7926 -0.7012 -2.8465 -2.582 -1.6694 2.6502 0.8755 4.1848 2.694 5.3658 -1.1623 0.753 -2.3246 0.5017 -3.4869 0.1805 0.7799 1.2701 2.7842 1.6197 4.0968 1.9578 0.9017 0.2323 1.1646 1.0565 0.4574 1.5733 -1.2892 0.9421 -3.3443 0.4725 -4.8797 -1.0892 0.9963 2.6706 4.1792 3.4466 6.0997 2.2997 -1.1429 1.8032 -3.3149 2.6178 -6.4555 1.412 3.1733 3.1421 8.445 1.1729 9.7087 -2.0575 1.1286 1.1156 0.2979 3.8517 -3.064 4.464 5.2818 1.6334 6.9269 -3.5555 5.5547 -7.1269 1.7463 0.8399 2.4304 2.2877 1.1691 4.3572 3.8115 -1.8107 1.0156 -5.0071 -0.7116 -7.8671 -0.4559 -0.755 1.09 -1.3626 2.0986 -0.7807 -1.8074 -2.7665 -6.0393 -1.6812 -5.2501 -3.5468 0.3696 -0.8735 2.801 -1.0449 3.4057 0.7368 1.0104 -2.6464 -3.0265 -3.2205 -4.2698 -1.9364 -0.0844 -2.134 1.8912 -3.6328 4.0779 -2.5536 -2.0344 -2.7281 -6.7734 -0.5612 -6.3653 3.1588 -1.9141 -2.1343 -1.749 -4.5515 1.9316 -6.5359 z"/>
<path d="m 177.404 1920.92 c 2.2759 -1.6793 2.6835 -3.3805 2.479 -5.1469 -0.6345 1.8179 -3.0146 4.0473 -7.0366 4.8002"/>
<path d="m 161.304 1919.7 c 2.9702 0.7252 5.0303 0.1542 6.8554 -0.8695 -1.7936 0.3687 -4.3904 0.1327 -6.79 -1.1203"/>
<path d="m 161.539 1913.65 c 0.839 1.036 1.9897 1.675 3.2964 2.153 -1.6666 -1.3448 -2.9081 -4.0958 -1.7193 -7.2368"/>
<path d="m 164.853 1895.09 c -0.9137 3.4951 -0.661 6.3183 1.293 9.0616 -0.9317 -3.9012 0.2062 -7.0159 3.6952 -9.2593"/>
<path d="m 179.369 1898.58 c -1.3487 -0.5306 -2.7165 -0.6207 -4.1166 -0.5185 1.3823 0.3036 2.9532 1.1124 4.1902 2.4075"/>
<path d="m 178.412 1894.63 c -3.029 0.5506 -5.466 2.2122 -6.4017 3.8231 1.368 -1.0678 3.8906 -1.9159 6.8943 -1.7065"/>
<path d="m 179.507 1901.84 c -1.3086 -1.0135 -2.6009 -0.938 -3.9311 -0.4959 1.3842 0.035 3.5602 1.5638 4.2012 3.7597"/>
<path d="m 159.544 1921.05 3.6695 -26.3744" fill="none" stroke="#fff"/>
<path d="m 179.975 1894.63 3.6695 26.4148" fill="none" stroke="#fff"/>
<path d="m 159.32 1894.63 h 22.7015" fill="none" stroke="#000"/>
<path d="m 158.658 1921.06 h 25.995" fill="none" stroke="#000"/>
</g>
</svg>
