<svg viewBox="0 0 512 512" xmlns="http://www.w3.org/2000/svg">

<g transform="matrix(18.68858,0,0,18.68858,-1466.77524,-7250.96814)">
<path d="m 93.4869 400.277 -13.3634 13.3634" fill="none" stroke="#fff"/>
<path d="m 347.305 222.923 h 3.6151 v 11.2009 h -3.6151 z" fill="#fff" stroke="#000" transform="rotate(45)"/>
<path d="m 104.312 402.862 c 0 5.73 -4.645 10.375 -10.375 10.375 s -10.375 -4.645 -10.375 -10.375 4.645 -10.375 10.375 -10.375 10.375 4.6451 10.375 10.375 z" stroke="#fff" stroke-width="1.3211" transform="matrix(.53524,.53524,-.53524,.53524,261.69363,131.51244)"/>
<path d="m 104.312 402.862 c 0 5.73 -4.645 10.375 -10.375 10.375 s -10.375 -4.645 -10.375 -10.375 4.645 -10.375 10.375 -10.375 10.375 4.6451 10.375 10.375 z" fill="#fff" stroke="#000" stroke-width="1.5165" transform="matrix(.46628,.46628,-.46628,.46628,240.39007,165.76639)"/>
<path d="m 100.188 396.653 c 0 2.2211 -1.8006 4.0217 -4.0217 4.0217 s -4.0217 -1.8006 -4.0217 -4.0217 1.8006 -4.0217 4.0217 -4.0217 4.0217 1.8006 4.0217 4.0217 z" transform="matrix(1.3898,0,0,1.3898,-36.58035,-152.53629)"/>
<path d="m 100.188 396.653 c 0 2.2211 -1.8006 4.0217 -4.0217 4.0217 s -4.0217 -1.8006 -4.0217 -4.0217 1.8006 -4.0217 4.0217 -4.0217 4.0217 1.8006 4.0217 4.0217 z" fill="#fff" transform="matrix(.59227,.59227,-.71984,.71984,324.215,53.99211)"/>
</g>
</svg>
