<svg viewBox="0 0 512 512" xmlns="http://www.w3.org/2000/svg">

<g transform="matrix(18.68858,0,0,18.68858,-2276.85083,-40832.15637)">
<path d="m 125.094 2188.19 c -3.0865 3.0517 -2.5684 7.0878 0.1562 9.8125 1.2671 1.267 7.3125 4.875 7.3125 4.875 l 1.6875 -1.6875 c -0.9071 -0.6988 -4.8679 -3.7742 -5.7188 -4.625 -2.0436 -2.0436 -2.2794 -4.0644 -0.7188 -5.625 s 3.5572 -1.3177 5.625 0.75 c 0.8508 0.8508 3.9261 4.7804 4.625 5.6875 l 1.6875 -1.6875 c 0 0 -3.6079 -6.0454 -4.875 -7.3125 -3.1844 -2.7481 -7.0705 -2.8676 -9.7812 -0.1875 z" fill="#fff"/>
<path d="m 128.602 2202.53 10.6433 -10.6433" fill="none" stroke="#000"/>
<path d="m 141.282 2195.23 c -1.7103 3.9566 -4.8263 7.2586 -8.9538 9.0548 5.1726 -0.5809 8.9295 -4.6426 8.9538 -9.0548 z" fill="#fff"/>
<path d="m 144.409 2195.23 c -2.3076 5.3383 -6.5117 9.7934 -12.0806 12.2168 6.9789 -0.7838 12.0477 -6.2639 12.0806 -12.2168 z" fill="#fff"/>
<path d="m 148.29 2195.23 c -3.049 7.0535 -8.6039 12.94 -15.962 16.1421 9.2212 -1.0357 15.9186 -8.2765 15.962 -16.1421 z" fill="#fff"/>
</g>
</svg>
