<svg viewBox="0 0 512 512" xmlns="http://www.w3.org/2000/svg">

<g transform="matrix(18.68858,0,0,18.68858,-9085.05193,-40833.0908)">
<path d="m 493.717 2199.04 -1.7159 4.1846 1.9468 -0.7685 0.8109 4.3734 1.504 -2.9586 3.232 3.3845 -0.8409 -4.6082 3.4569 0.4182 -1.2406 -3.795 2.6145 0.01 0.1617 -1.4377 2.8008 0.9132 -1.6664 -3.7319 2.2856 -1.2067 -3.5016 -1.0728 -0.0909 -2.6199 -3.5185 2.0917 -0.208 2.1347 -3.507 4.6506 z" fill="#fff"/>
<path d="m 488.771 2187.43 c -3.0531 3.0191 -2.5406 7.0117 0.1546 9.707 1.2532 1.2534 7.2332 4.8229 7.2332 4.8229 l 2.8013 -2.8017 c 0 0 -4.8152 -3.7337 -5.6568 -4.5752 -2.3765 -2.3766 0.5858 -5.182 2.9125 -2.8815 0.8466 0.8367 4.5749 5.6262 4.5749 5.6262 l 2.4778 -2.4778 c 0 0 -3.5687 -5.9805 -4.8221 -7.2341 -3.1499 -2.7185 -6.9939 -2.837 -9.6751 -0.1856 z" fill="#fff" stroke="#000"/>
<path d="m 493.725 2200.14 7.8526 -7.8526" fill="none" stroke="#000"/>
<path d="m 502.057 2197.93 3.7197 2.6415 -0.7547 2.372 5.1753 0.1617 -0.5391 2.2103 2.6955 1.5634 v 4.3666 h -4.6362 l -2.4259 -2.2641 0.6469 -2.8033 -4.151 -0.593 -0.2156 -2.5338 -3.6658 -1.8868" fill="#fff"/>
</g>
</svg>
