<svg viewBox="0 0 512 512" xmlns="http://www.w3.org/2000/svg">

<g transform="matrix(18.68858,0,0,18.68858,-9085.05193,-40833.0908)">
<path d="m493.7171,2199.0399-1.7159,4.1846 1.9468-.7685 .8109,4.3734 1.504-2.9586 3.232,3.3845-.8409-4.6082 3.4569.4182-1.2406-3.795 2.6145.01 .1617-1.4377 2.8008.9132-1.6664-3.7319 2.2856-1.2067-3.5016-1.0728-.0909-2.6199-3.5185,2.0917-.208,2.1347-3.507,4.6506z" fill="#fff"/>
<path d="m488.7713,2187.4336c-3.0531,3.0191-2.5406,7.0117.1546,9.707 1.2532,1.2534 7.2332,4.8229 7.2332,4.8229l2.8013-2.8017c0,0-4.8152-3.7337-5.6568-4.5752-2.3765-2.3766.5858-5.182 2.9125-2.8815 .8466.8367 4.5749,5.6262 4.5749,5.6262l2.4778-2.4778c0,0-3.5687-5.9805-4.8221-7.2341-3.1499-2.7185-6.9939-2.837-9.6751-.1856z" fill="#fff" stroke="#000"/>
<path d="m493.7248,2200.1427 7.8526-7.8526" fill="none" stroke="#000"/>
<path d="m502.0566,2197.9333 3.7197,2.6415-.7547,2.372 5.1753.1617-.5391,2.2103 2.6955,1.5634v4.3666h-4.6362l-2.4259-2.2641 .6469-2.8033-4.151-.593-.2156-2.5338-3.6658-1.8868" fill="#fff"/>
</g>
</svg>
