<svg viewBox="0 0 512 512" xmlns="http://www.w3.org/2000/svg">

<g transform="matrix(18.68858,0,0,18.68858,-2276.85083,-40832.15637)">
<path d="m125.0938,2188.1875c-3.0865,3.0517-2.5684,7.0878.1562,9.8125 1.2671,1.267 7.3125,4.875 7.3125,4.875l1.6875-1.6875c-.9071-.6988-4.8679-3.7742-5.7188-4.625-2.0436-2.0436-2.2794-4.0644-.7188-5.625s3.5572-1.3177 5.625.75c.8508.8508 3.9261,4.7804 4.625,5.6875l1.6875-1.6875c0,0-3.6079-6.0454-4.875-7.3125-3.1844-2.7481-7.0705-2.8676-9.7812-.1875z" fill="#fff"/>
<path d="m128.6019,2202.5348 10.6433-10.6433" fill="none" stroke="#000"/>
<path d="m141.2819,2195.2306c-1.7103,3.9566-4.8263,7.2586-8.9538,9.0548 5.1726-.5809 8.9295-4.6426 8.9538-9.0548z" fill="#fff"/>
<path d="m144.4086,2195.2306c-2.3076,5.3383-6.5117,9.7934-12.0806,12.2168 6.9789-.7838 12.0477-6.2639 12.0806-12.2168z" fill="#fff"/>
<path d="m148.2901,2195.2306c-3.049,7.0535-8.6039,12.94-15.962,16.1421 9.2212-1.0357 15.9186-8.2765 15.962-16.1421z" fill="#fff"/>
</g>
</svg>
