<svg viewBox="0 0 512 512" xmlns="http://www.w3.org/2000/svg">

<g transform="matrix(18.68858,0,0,18.68858,4525.52426,-7973.2569)">
<path d="m-241.023,436.5978c3.0038-5.9764 5.4511-8.245 8.7973-5.9398l-4.772,8.2632-4.0253-2.3233z" fill="#fff" stroke="#000"/>
<path d="m-235.6388,434.6551 4.2042-7.2798c1.4361-.4479 3.9731.4744 4.4343,1.615l-4.2042,7.2798-4.4343-1.615z" fill="#fff" stroke="#000"/>
<path d="m-230.7827,435.5398 4.2042-7.2797c1.379-.349 3.7671.8312 4.174,2.0657l-4.2042,7.2798-4.174-2.0657z" fill="#fff" stroke="#000"/>
<path d="m-226.8415,438.0087 4.2041-7.2796c1.3056-.2218 3.5023,1.2899 3.8394,2.6453l-4.2042,7.2796-3.8393-2.6454z" fill="#fff" stroke="#000"/>
<path d="m-223.2689,441.1879 4.2041-7.2796c1.2892-.1935 3.4435,1.3918 3.765,2.7742l-4.2041,7.2796-3.765-2.7741z" fill="#fff" stroke="#000"/>
<path d="m-233.4757,447.4997-.4966-12.7722-5.4272-1.8466c-1.3796,5.8934.014,12.2658 5.9239,14.6189z" fill="#fff" fill-rule="evenodd" stroke="#000"/>
<path d="m-234.2519,432.2382c6.14,1.5941 13.301,6.6163 15.8864,9.1694-7.6617,15.3527-27.0329,8.3699-15.8864-9.1694z" fill="#fff" fill-rule="evenodd" stroke="#000"/>
<path d="m-241.678,453.5503h13.7998c.6084-1.1962 1.1383-2.5744 1.4797-4.1818-3.818-1.074-10.1926-4.1073-12.2879-7.109-1.3238,1.6474-2.2952,3.206-2.9916,4.6643v6.6265z" fill="#fff" stroke="#000"/>
<path d="m-230.0307,437.356c0,1.1472-.93,2.0771-2.0771,2.0771s-2.0771-.93-2.0771-2.0771 .93-2.0771 2.0771-2.0771 2.0771.93 2.0771,2.0771z" fill="#fff" stroke="#000" stroke-width=".8809" transform="matrix(1.13473,0,0,1.13578,31.11222,-62.91831)"/>
<path d="m-230.0307,437.356c0,1.1472-.93,2.0771-2.0771,2.0771s-2.0771-.93-2.0771-2.0771 .93-2.0771 2.0771-2.0771 2.0771.93 2.0771,2.0771z" fill="#fff" stroke="#000" stroke-width=".8809" transform="matrix(1.13473,0,0,1.13578,35.54887,-61.16051)"/>
<path d="m-230.0307,437.356c0,1.1472-.93,2.0771-2.0771,2.0771s-2.0771-.93-2.0771-2.0771 .93-2.0771 2.0771-2.0771 2.0771.93 2.0771,2.0771z" fill="#fff" stroke="#000" stroke-width=".8896" transform="matrix(1.1236,0,0,1.12464,36.96433,-53.81571)"/>
<path d="m-230.0307,437.356c0,1.1472-.93,2.0771-2.0771,2.0771s-2.0771-.93-2.0771-2.0771 .93-2.0771 2.0771-2.0771 2.0771.93 2.0771,2.0771z" fill="#fff" stroke="#000" stroke-width=".9558" transform="matrix(1.04573,0,0,1.0467,22.42476,-16.83461)"/>
<path d="m-240.3721,444.2061c.3192,3.0446 7.0869,6.741 14.2747,7.734" fill="none" stroke="#000"/>
<path d="m-241.5596,446.7686c.2836,2.6859 6.2957,5.9467 12.681,6.8227" fill="none" stroke="#000"/>
<path d="m-241.7159,450.4384c.1326,1.1701 2.9445,2.6623 5.931,3.1235" fill="none" stroke="#000"/>
</g>
</svg>
