<svg viewBox="0 0 512 512" xmlns="http://www.w3.org/2000/svg">

<g transform="matrix(18.68858,0,0,18.68858,-5000.13389,-41512.97386)">
<path d="m285.6305,2223.6286c5.15,1.4135 8.6113,4.2166 7.642,14.4073-1.4942.4405-2.9845.4235-4.4787-.1566 .889-3.3155-.1875-6.7619-2.255-7.2976 .1305,4.3933.0844,10.6782 1.3781,15.1277-3.724,1.7157-9.814,1.9519-13.4361-.094 1.3636-4.7228 1.5228-10.5068 1.4094-14.8144-2.0142.3144-3.05,3.794-2.161,7.1096-1.4116.5428-2.8646.7921-4.4787.1253-.9694-10.1907 2.4838-12.9854 7.6733-14.4073 .6854,1.2221 1.9725,1.9204 3.3825,2.1298l1.0022,2.4743 .9083-2.4743c1.4076-.2306 2.7144-.9445 3.4138-2.1298z" stroke="#fff"/>
<path d="m286.4951,2223.8694c-3.3405-1.3171-7.5315-1.1643-10.9109.1531" fill="none" stroke="#fff"/>
<path d="m287.2531,2241.3327c-2.2487,1.2339-9.6182,1.3281-12.0826,0" fill="none" stroke="#fff"/>
<path d="m287.1451,2239.1901c-2.2035,1.187-9.4247,1.2777-11.8395,0" fill="none" stroke="#fff"/>
<path d="m-986.7683,1566.6119h1.6741v1.6741h-1.6741z" fill="#fff" transform="matrix(.4762,-.87934,.4762,.87934,0,0)"/>
<path d="m-1572.5294,971.6971h1.6741v1.6741h-1.6741z" fill="#fff" transform="matrix(-.4762,-.87934,-.4762,.87934,0,0)"/>
<path d="m-1569.5005,976.7227h1.6741v1.6741h-1.6741z" fill="#fff" transform="matrix(-.4762,-.87934,-.4762,.87934,0,0)"/>
<path d="m-1569.04,973.3127h1.6741v1.6741h-1.6741z" fill="#fff" transform="matrix(-.4762,-.87934,-.4762,.87934,0,0)"/>
<path d="m-1565.3236,977.3671h1.6741v1.6741h-1.6741z" fill="#fff" transform="matrix(-.4762,-.87934,-.4762,.87934,0,0)"/>
<path d="m-1568.5739,969.3865h1.6741v1.6741h-1.6741z" fill="#fff" transform="matrix(-.4762,-.87934,-.4762,.87934,0,0)"/>
<path d="m-1566.8727,966.6643h1.6741v1.6741h-1.6741z" fill="#fff" transform="matrix(-.4762,-.87934,-.4762,.87934,0,0)"/>
<path d="m-1573.2065,960.5762h1.6741v1.6741h-1.6741z" fill="#fff" transform="matrix(-.4762,-.87934,-.4762,.87934,0,0)"/>
<path d="m-1575.7466,963.6267h1.6741v1.6741h-1.6741z" fill="#fff" transform="matrix(-.4762,-.87934,-.4762,.87934,0,0)"/>
<path d="m-1579.8087,964.172h1.6741v1.6741h-1.6741z" fill="#fff" transform="matrix(-.4762,-.87934,-.4762,.87934,0,0)"/>
<path d="m-1555.7098,978.7613h1.6741v1.6741h-1.6741z" fill="#fff" transform="matrix(-.4762,-.87934,-.4762,.87934,0,0)"/>
<path d="m-1555.1592,982.8796h1.6741v1.6741h-1.6741z" fill="#fff" transform="matrix(-.4762,-.87934,-.4762,.87934,0,0)"/>
<path d="m-1565.4246,972.8735h1.6741v1.6741h-1.6741z" fill="#fff" transform="matrix(-.4762,-.87934,-.4762,.87934,0,0)"/>
<path d="m-983.4243,1567.8058h1.6741v1.6741h-1.6741z" fill="#fff" transform="matrix(.4762,-.87934,.4762,.87934,0,0)"/>
<path d="m-1561.0775,977.9947h1.6741v1.6741h-1.6741z" fill="#fff" transform="matrix(-.4762,-.87934,-.4762,.87934,0,0)"/>
<path d="m-1563.8357,968.7204h1.6741v1.6741h-1.6741z" fill="#fff" transform="matrix(-.4762,-.87934,-.4762,.87934,0,0)"/>
</g>
</svg>
