<svg viewBox="0 0 512 512" xmlns="http://www.w3.org/2000/svg">

<g transform="matrix(18.68858,0,0,18.68858,-5000.13389,-41512.97386)">
<path d="m 285.63 2223.63 c 5.15 1.4135 8.6113 4.2166 7.642 14.4073 -1.4942 0.4405 -2.9845 0.4235 -4.4787 -0.1566 0.889 -3.3155 -0.1875 -6.7619 -2.255 -7.2976 0.1305 4.3933 0.0844 10.6782 1.3781 15.1277 -3.724 1.7157 -9.814 1.9519 -13.4361 -0.094 1.3636 -4.7228 1.5228 -10.5068 1.4094 -14.8144 -2.0142 0.3144 -3.05 3.794 -2.161 7.1096 -1.4116 0.5428 -2.8646 0.7921 -4.4787 0.1253 -0.9694 -10.1907 2.4838 -12.9854 7.6733 -14.4073 0.6854 1.2221 1.9725 1.9204 3.3825 2.1298 l 1.0022 2.4743 0.9083 -2.4743 c 1.4076 -0.2306 2.7144 -0.9445 3.4138 -2.1298 z" stroke="#fff"/>
<path d="m 286.495 2223.87 c -3.3405 -1.3171 -7.5315 -1.1643 -10.9109 0.1531" fill="none" stroke="#fff"/>
<path d="m 287.253 2241.33 c -2.2487 1.2339 -9.6182 1.3281 -12.0826 0" fill="none" stroke="#fff"/>
<path d="m 287.145 2239.19 c -2.2035 1.187 -9.4247 1.2777 -11.8395 0" fill="none" stroke="#fff"/>
<path d="m -986.768 1566.61 h 1.6741 v 1.6741 h -1.6741 z" fill="#fff" transform="matrix(.4762,-.87934,.4762,.87934,0,0)"/>
<path d="m -1572.53 971.697 h 1.6741 v 1.6741 h -1.6741 z" fill="#fff" transform="matrix(-.4762,-.87934,-.4762,.87934,0,0)"/>
<path d="m -1569.5 976.723 h 1.6741 v 1.6741 h -1.6741 z" fill="#fff" transform="matrix(-.4762,-.87934,-.4762,.87934,0,0)"/>
<path d="m -1569.04 973.313 h 1.6741 v 1.6741 h -1.6741 z" fill="#fff" transform="matrix(-.4762,-.87934,-.4762,.87934,0,0)"/>
<path d="m -1565.32 977.367 h 1.6741 v 1.6741 h -1.6741 z" fill="#fff" transform="matrix(-.4762,-.87934,-.4762,.87934,0,0)"/>
<path d="m -1568.57 969.386 h 1.6741 v 1.6741 h -1.6741 z" fill="#fff" transform="matrix(-.4762,-.87934,-.4762,.87934,0,0)"/>
<path d="m -1566.87 966.664 h 1.6741 v 1.6741 h -1.6741 z" fill="#fff" transform="matrix(-.4762,-.87934,-.4762,.87934,0,0)"/>
<path d="m -1573.21 960.576 h 1.6741 v 1.6741 h -1.6741 z" fill="#fff" transform="matrix(-.4762,-.87934,-.4762,.87934,0,0)"/>
<path d="m -1575.75 963.627 h 1.6741 v 1.6741 h -1.6741 z" fill="#fff" transform="matrix(-.4762,-.87934,-.4762,.87934,0,0)"/>
<path d="m -1579.81 964.172 h 1.6741 v 1.6741 h -1.6741 z" fill="#fff" transform="matrix(-.4762,-.87934,-.4762,.87934,0,0)"/>
<path d="m -1555.71 978.761 h 1.6741 v 1.6741 h -1.6741 z" fill="#fff" transform="matrix(-.4762,-.87934,-.4762,.87934,0,0)"/>
<path d="m -1555.16 982.88 h 1.6741 v 1.6741 h -1.6741 z" fill="#fff" transform="matrix(-.4762,-.87934,-.4762,.87934,0,0)"/>
<path d="m -1565.42 972.874 h 1.6741 v 1.6741 h -1.6741 z" fill="#fff" transform="matrix(-.4762,-.87934,-.4762,.87934,0,0)"/>
<path d="m -983.424 1567.81 h 1.6741 v 1.6741 h -1.6741 z" fill="#fff" transform="matrix(.4762,-.87934,.4762,.87934,0,0)"/>
<path d="m -1561.08 977.995 h 1.6741 v 1.6741 h -1.6741 z" fill="#fff" transform="matrix(-.4762,-.87934,-.4762,.87934,0,0)"/>
<path d="m -1563.84 968.72 h 1.6741 v 1.6741 h -1.6741 z" fill="#fff" transform="matrix(-.4762,-.87934,-.4762,.87934,0,0)"/>
</g>
</svg>
