<svg viewBox="0 0 512 512" xmlns="http://www.w3.org/2000/svg">

<g transform="matrix(18.68858,0,0,18.68858,4525.52426,-7973.2569)">
<path d="m -241.023 436.598 c 3.0038 -5.9764 5.4511 -8.245 8.7973 -5.9398 l -4.772 8.2632 -4.0253 -2.3233 z" fill="#fff" stroke="#000"/>
<path d="m -235.639 434.655 4.2042 -7.2798 c 1.4361 -0.4479 3.9731 0.4744 4.4343 1.615 l -4.2042 7.2798 -4.4343 -1.615 z" fill="#fff" stroke="#000"/>
<path d="m -230.783 435.54 4.2042 -7.2797 c 1.379 -0.349 3.7671 0.8312 4.174 2.0657 l -4.2042 7.2798 -4.174 -2.0657 z" fill="#fff" stroke="#000"/>
<path d="m -226.841 438.009 4.2041 -7.2796 c 1.3056 -0.2218 3.5023 1.2899 3.8394 2.6453 l -4.2042 7.2796 -3.8393 -2.6454 z" fill="#fff" stroke="#000"/>
<path d="m -223.269 441.188 4.2041 -7.2796 c 1.2892 -0.1935 3.4435 1.3918 3.765 2.7742 l -4.2041 7.2796 -3.765 -2.7741 z" fill="#fff" stroke="#000"/>
<path d="m -233.476 447.5 -0.4966 -12.7722 -5.4272 -1.8466 c -1.3796 5.8934 0.014 12.2658 5.9239 14.6189 z" fill="#fff" fill-rule="evenodd" stroke="#000"/>
<path d="m -234.252 432.238 c 6.14 1.5941 13.301 6.6163 15.8864 9.1694 -7.6617 15.3527 -27.0329 8.3699 -15.8864 -9.1694 z" fill="#fff" fill-rule="evenodd" stroke="#000"/>
<path d="m -241.678 453.55 h 13.7998 c 0.6084 -1.1962 1.1383 -2.5744 1.4797 -4.1818 -3.818 -1.074 -10.1926 -4.1073 -12.2879 -7.109 -1.3238 1.6474 -2.2952 3.206 -2.9916 4.6643 v 6.6265 z" fill="#fff" stroke="#000"/>
<path d="m -230.031 437.356 c 0 1.1472 -0.93 2.0771 -2.0771 2.0771 s -2.0771 -0.93 -2.0771 -2.0771 0.93 -2.0771 2.0771 -2.0771 2.0771 0.93 2.0771 2.0771 z" fill="#fff" stroke="#000" stroke-width=".8809" transform="matrix(1.13473,0,0,1.13578,31.11222,-62.91831)"/>
<path d="m -230.031 437.356 c 0 1.1472 -0.93 2.0771 -2.0771 2.0771 s -2.0771 -0.93 -2.0771 -2.0771 0.93 -2.0771 2.0771 -2.0771 2.0771 0.93 2.0771 2.0771 z" fill="#fff" stroke="#000" stroke-width=".8809" transform="matrix(1.13473,0,0,1.13578,35.54887,-61.16051)"/>
<path d="m -230.031 437.356 c 0 1.1472 -0.93 2.0771 -2.0771 2.0771 s -2.0771 -0.93 -2.0771 -2.0771 0.93 -2.0771 2.0771 -2.0771 2.0771 0.93 2.0771 2.0771 z" fill="#fff" stroke="#000" stroke-width=".8896" transform="matrix(1.1236,0,0,1.12464,36.96433,-53.81571)"/>
<path d="m -230.031 437.356 c 0 1.1472 -0.93 2.0771 -2.0771 2.0771 s -2.0771 -0.93 -2.0771 -2.0771 0.93 -2.0771 2.0771 -2.0771 2.0771 0.93 2.0771 2.0771 z" fill="#fff" stroke="#000" stroke-width=".9558" transform="matrix(1.04573,0,0,1.0467,22.42476,-16.83461)"/>
<path d="m -240.372 444.206 c 0.3192 3.0446 7.0869 6.741 14.2747 7.734" fill="none" stroke="#000"/>
<path d="m -241.56 446.769 c 0.2836 2.6859 6.2957 5.9467 12.681 6.8227" fill="none" stroke="#000"/>
<path d="m -241.716 450.438 c 0.1326 1.1701 2.9445 2.6623 5.931 3.1235" fill="none" stroke="#000"/>
</g>
</svg>
