<svg viewBox="0 0 512 512" xmlns="http://www.w3.org/2000/svg">

<g transform="matrix(18.68858,0,0,18.68858,-2099.19921,-12276.83667)">
<path d="m124.4388,676.3465v3.7588c0,1.591 3.094,2.8823 6.9062,2.8823s6.9062-1.2913 6.9062-2.8823v-3.9212" fill="#fff" stroke="#fff"/>
<path d="m128.5625,665.1434c0,1.2254-2.3925,2.2188-5.3438,2.2188s-5.3438-.9934-5.3438-2.2188 2.3925-2.2188 5.3438-2.2188 5.3438.9934 5.3438,2.2188z" stroke="#fff" stroke-width=".7718" transform="matrix(1.2924,0,0,1.29907,-27.90254,-187.84573)"/>
<path d="m127.75,663.5497c7.0147,0 7.1162,6.8381-1.8696,6.8381-7.3284,0-8.5414,8.5369-1.7554,8.5369" fill="none" stroke="#fff"/>
<path d="m113.8763,661.409v3.7588c0,1.591 3.094,2.8823 6.9062,2.8823s6.9062-1.2913 6.9062-2.8823v-3.9212" fill="#fff" stroke="#fff"/>
<path d="m128.5625,665.1434c0,1.2254-2.3925,2.2188-5.3438,2.2188s-5.3438-.9934-5.3438-2.2188 2.3925-2.2188 5.3438-2.2188 5.3438.9934 5.3438,2.2188z" stroke="#fff" stroke-width=".7718" transform="matrix(1.2924,0,0,1.29907,-38.46504,-202.78323)"/>
<path d="m121.0625,674.6747c0,1.1391-.9234,2.0625-2.0625,2.0625s-2.0625-.9234-2.0625-2.0625 .9234-2.0625 2.0625-2.0625 2.0625.9234 2.0625,2.0625z" stroke="#fff" stroke-width="1.2389" transform="matrix(.56423,-.32576,.5,.86603,-284.07429,131.27941)"/>
<path d="m121.0625,674.6747c0,1.1391-.9234,2.0625-2.0625,2.0625s-2.0625-.9234-2.0625-2.0625 .9234-2.0625 2.0625-2.0625 2.0625.9234 2.0625,2.0625z" stroke="#fff" stroke-width="1.2389" transform="matrix(.51189,-.40303,.61861,.7857,-346.62009,183.23288)"/>
<path d="m121.0625,674.6747c0,1.1391-.9234,2.0625-2.0625,2.0625s-2.0625-.9234-2.0625-2.0625 .9234-2.0625 2.0625-2.0625 2.0625.9234 2.0625,2.0625z" stroke="#fff" stroke-width="1.2389" transform="matrix(-.24447,-.60391,.92693,-.37523,-473.62967,996.44773)"/>
<path d="m121.0625,674.6747c0,1.1391-.9234,2.0625-2.0625,2.0625s-2.0625-.9234-2.0625-2.0625 .9234-2.0625 2.0625-2.0625 2.0625.9234 2.0625,2.0625z" stroke="#fff" stroke-width="1.2389" transform="matrix(-.19054,-.62303,.95628,-.29246,-493.47157,941.19092)"/>
<path d="m126.1296,677.8359c1.2666-.6085 3.134-.9935 5.2155-.9935 2.1154,0 4.0096.3976 5.2768,1.0234" fill="none" stroke="#fff"/>
<path d="m115.327,663.0203c1.2639-.6786 3.2383-1.1154 5.4556-1.1154 2.1754,0 4.117.4205 5.3831,1.0772" fill="none" stroke="#fff"/>
</g>
</svg>
