<svg viewBox="0 0 512 512" xmlns="http://www.w3.org/2000/svg">

<g transform="matrix(18.68858,0,0,18.68858,-4020.6994,-15418.70745)">
<g transform="translate(34.1266,60.0923)">
<path d="m184.247,773.3248-1.9477,5.5151 11.2244,4.0082 .938-2.6876-1.7264-3.8045-1.0225,2.8953-1.7657-3.891-1.0225,2.8953-1.7657-3.891-1.0679,3.024-1.8441-4.0639z" fill="#fff"/>
<path d="m197.8125,776.8309c0,1.001-.8115,1.8125-1.8125,1.8125s-1.8125-.8115-1.8125-1.8125 .8115-1.8125 1.8125-1.8125 1.8125.8115 1.8125,1.8125z" fill="#fff" stroke="#000" stroke-width=".7087" transform="matrix(1.25769,.60131,-.61148,1.29091,423.46939,-338.51683)"/>
<path d="m205.6391,773.3248 1.9477,5.5151-11.2244,4.0082-.938-2.6876 1.7264-3.8045 1.0225,2.8953 1.7657-3.891 1.0225,2.8953 1.7657-3.891 1.0679,3.024 1.8441-4.0639z" fill="#fff"/>
</g>
<path d="m220.4678,843.0651c-2.6836.7292-4.4171,1.8093-4.4171,3.0074 0,2.1948 5.6999,3.9785 12.7188,3.9785s12.7188-1.7838 12.7188-3.9785c0-1.1939-1.7187-2.2784-4.3858-3.0074 .922.475 1.4724,1.03 1.4724,1.629 0,1.7191-4.4043,3.1327-9.8053,3.1327s-9.774-1.4136-9.774-3.1327c0-.6023.541-1.1523 1.4724-1.629z" fill="#fff"/>
<path d="m229.0142,839.2813v-2.8311" fill="none" stroke="#fff"/>
<path d="m225.8319,835.0594 6.4529-1e-05" fill="none" stroke="#fff"/>
<path d="m229.7188,839.8466c0,.4746-.3848.8594-.8594.8594s-.8594-.3847-.8594-.8594 .3847-.8594.8594-.8594 .8594.3848.8594.8594z" transform="matrix(1.09091,0,0,1.09091,-20.60227,-73.9632)"/>
<path d="m225.8319,835.0594 6.4529-1e-05" fill="none" stroke="#fff"/>
</g>
</svg>
