<svg viewBox="0 0 512 512" xmlns="http://www.w3.org/2000/svg">

<g transform="matrix(18.68858,0,0,18.68858,-4020.6994,-15418.70745)">
<g transform="translate(34.1266,60.0923)">
<path d="m 184.247 773.325 -1.9477 5.5151 11.2244 4.0082 0.938 -2.6876 -1.7264 -3.8045 -1.0225 2.8953 -1.7657 -3.891 -1.0225 2.8953 -1.7657 -3.891 -1.0679 3.024 -1.8441 -4.0639 z" fill="#fff"/>
<path d="m 197.812 776.831 c 0 1.001 -0.8115 1.8125 -1.8125 1.8125 s -1.8125 -0.8115 -1.8125 -1.8125 0.8115 -1.8125 1.8125 -1.8125 1.8125 0.8115 1.8125 1.8125 z" fill="#fff" stroke="#000" stroke-width=".7087" transform="matrix(1.25769,.60131,-.61148,1.29091,423.46939,-338.51683)"/>
<path d="m 205.639 773.325 1.9477 5.5151 -11.2244 4.0082 -0.938 -2.6876 1.7264 -3.8045 1.0225 2.8953 1.7657 -3.891 1.0225 2.8953 1.7657 -3.891 1.0679 3.024 1.8441 -4.0639 z" fill="#fff"/>
</g>
<path d="m 220.468 843.065 c -2.6836 0.7292 -4.4171 1.8093 -4.4171 3.0074 0 2.1948 5.6999 3.9785 12.7188 3.9785 s 12.7188 -1.7838 12.7188 -3.9785 c 0 -1.1939 -1.7187 -2.2784 -4.3858 -3.0074 0.922 0.475 1.4724 1.03 1.4724 1.629 0 1.7191 -4.4043 3.1327 -9.8053 3.1327 s -9.774 -1.4136 -9.774 -3.1327 c 0 -0.6023 0.541 -1.1523 1.4724 -1.629 z" fill="#fff"/>
<path d="m 229.014 839.281 v -2.8311" fill="none" stroke="#fff"/>
<path d="m 225.832 835.059 6.4529 -1e-05" fill="none" stroke="#fff"/>
<path d="m 229.719 839.847 c 0 0.4746 -0.3848 0.8594 -0.8594 0.8594 s -0.8594 -0.3847 -0.8594 -0.8594 0.3847 -0.8594 0.8594 -0.8594 0.8594 0.3848 0.8594 0.8594 z" transform="matrix(1.09091,0,0,1.09091,-20.60227,-73.9632)"/>
<path d="m 225.832 835.059 6.4529 -1e-05" fill="none" stroke="#fff"/>
</g>
</svg>
