<svg viewBox="0 0 512 512" xmlns="http://www.w3.org/2000/svg">

<g transform="matrix(18.68858,0,0,18.68858,-9077.8662,-27902.71022)">
<path d="m495.1129,1494.404c-1.9939,5.2814-1.0082,9.1684 1.5953,12.4029-2.9892-1.7627-5.4588-2.1272-9.4475-1.5789 1.9319,5.5391 6.152,7.9034 10.6773,7.9055-.6072,1.4437-.7453,3.0173-.2351,4.7586 2.7327-1.7213 3.9721-3.6269 4.0207-6.2824 2.8015.8226 4.4351.534 7.6815-.3818-1.003-1.197-2.1631-1.9149-3.4498-2.2787 2.7763-3.5929 4.3649-8.9247 2.8318-12.4708-4.4018,1.997-6.5891,4.8057-7.4233,8.1555-.628-4.0446-2.5575-7.435-6.2509-10.2299z" fill="#fff"/>
<path d="m503.3,1511.2762c2.3876,2.6966 4.9602,3.3386 7.4434,3.1346-1.3159,1.1833-2.3053,2.2216-1.9939,4.0002-2.1652-.6491-5.586-2.7605-7.3518-5.6235z" stroke="#fff"/>
<path d="m499.99,1509.2973c-3.1119,1.0307-5.9242-.1842-9.0365-1.8441 2.0222,3.3655 5.6593,4.2031 9.835,3.2168"/>
<path d="m503.7542,1512.5315c-3.8632-4.4983-6.1775-9.3398-7.8323-14.4057 .0937,5.7596 2.5953,10.2052 6.5511,15.2821"/>
<path d="m500.9057,1509.4836c3.59-2.5295 4.8403-5.721 5.9312-9.3858 1.416,3.3458-1.0941,7.7661-4.6454,10.7427"/>
<path d="m502.3233,1509.7646c1.2988.041 3.5317.6184 4.8744,1.1038-1.5688.3338-3.7139.4688-5.2451.373"/>
<path d="m501.0609,1510.712c.0237,1.671-1.455,4.0845-2.6603,5.4627 .663-1.9018 1.3157-4.4919 1.3229-6.5262"/>
</g>
</svg>
