<svg viewBox="0 0 512 512" xmlns="http://www.w3.org/2000/svg">

<g transform="matrix(18.68858,0,0,18.68858,-2958.39381,-38780.70795)">
<path d="m166.4062,2085.89 1.125,5.2188 .7098-2.2731 .7932,3.57 .392,5.6882 .4989,2.7141 .4205-2.7377 .1746-4.397 .5761-3.2989 1.2566,4.8911 1.0218-1.1839 .4534,3.4689 .5444,2.1927 .4749-1.8515 .4022-7.3788 1.254,2.8819 .8403-7.8172z" fill="#fff"/>
<path d="m171.2643,2085.1152c4.1226-2.3799 6.6094-5.2367 8.2362-7.3986 .1829-.2427.3469-.3602.565-.4484 1.5319-.6065 3.633,2.2246 1.4119,3.872 2.9022-1.5018 4.5176,2.6564 1.7177,2.9747-2.5716.293-6.2893,1.1057-10.4742,3.5235" fill="#fff"/>
<path d="m171.732,2087.589c-4.594-1.2315-8.3357-1.0578-10.8552-.6816l.0002.0001c-2.7439.4095-2.2626-3.9571.875-3.2659-2.5319-1.0007-1.2546-4.2284.3563-4.0409 .2324.022.4125.1102.6514.2797 2.098,1.6406 5.1894,3.7238 9.7155,4.9363" fill="#fff"/>
<path d="m172.1322,2083.9711-1.1111,1.697 1.6187.4931-1.1554,2.0967" fill="none" stroke="#000"/>
<path d="m162.2518,2087.3877c2.5604-.325 5.619-.4103 8.1353.3405 1.3398.3998 1.6424.5598 2.9227-.3017 1.4361-.9662 4.9645-1.8423 6.5639-2.1112" fill="none" stroke="#000"/>
</g>
</svg>
