<svg viewBox="0 0 512 512" xmlns="http://www.w3.org/2000/svg">

<g transform="matrix(18.68858,0,0,18.68858,-2958.39381,-38780.70795)">
<path d="m 166.406 2085.89 1.125 5.2188 0.7098 -2.2731 0.7932 3.57 0.392 5.6882 0.4989 2.7141 0.4205 -2.7377 0.1746 -4.397 0.5761 -3.2989 1.2566 4.8911 1.0218 -1.1839 0.4534 3.4689 0.5444 2.1927 0.4749 -1.8515 0.4022 -7.3788 1.254 2.8819 0.8403 -7.8172 z" fill="#fff"/>
<path d="m 171.264 2085.12 c 4.1226 -2.3799 6.6094 -5.2367 8.2362 -7.3986 0.1829 -0.2427 0.3469 -0.3602 0.565 -0.4484 1.5319 -0.6065 3.633 2.2246 1.4119 3.872 2.9022 -1.5018 4.5176 2.6564 1.7177 2.9747 -2.5716 0.293 -6.2893 1.1057 -10.4742 3.5235" fill="#fff"/>
<path d="m 171.732 2087.59 c -4.594 -1.2315 -8.3357 -1.0578 -10.8552 -0.6816 l 0.0002 0.0001 c -2.7439 0.4095 -2.2626 -3.9571 0.875 -3.2659 -2.5319 -1.0007 -1.2546 -4.2284 0.3563 -4.0409 0.2324 0.022 0.4125 0.1102 0.6514 0.2797 2.098 1.6406 5.1894 3.7238 9.7155 4.9363" fill="#fff"/>
<path d="m 172.132 2083.97 -1.1111 1.697 1.6187 0.4931 -1.1554 2.0967" fill="none" stroke="#000"/>
<path d="m 162.252 2087.39 c 2.5604 -0.325 5.619 -0.4103 8.1353 0.3405 1.3398 0.3998 1.6424 0.5598 2.9227 -0.3017 1.4361 -0.9662 4.9645 -1.8423 6.5639 -2.1112" fill="none" stroke="#000"/>
</g>
</svg>
