<svg viewBox="0 0 512 512" xmlns="http://www.w3.org/2000/svg">

<g transform="matrix(18.68858,0,0,18.68858,-1467.71251,-12900.97002)">
<path d="m92.125,714.0642-6.8318,2.0464v.7074h13.6637v-.7074l-6.8318-2.0464z" fill="#fff"/>
<path d="m93.9556,702.6518h-12.9112l6.4556-11.1814z" fill="none" stroke="#fff" stroke-width=".8543" transform="matrix(1.4451,0,0,-.94822,-34.32168,1361.3942)"/>
<path d="m92.125,715.901v-12.0523" fill="none" stroke="#fff"/>
<path d="m93.9556,702.6518h-12.9112l6.4556-11.1814z" fill="#fff" transform="matrix(1.07216,0,0,-.7035,-1.68889,1192.1836)"/>
<path d="m94.4375,699.9091c0,.8198-.6646,1.4844-1.4844,1.4844s-1.4844-.6646-1.4844-1.4844 .6646-1.4844 1.4844-1.4844 1.4844.6646 1.4844,1.4844z" stroke="#fff" stroke-width=".7057" transform="matrix(1.41672,0,0,1.41755,-36.7183,-292.92141)"/>
<path d="m96.2497,697.1836 3.1799-5.7099" fill="none" stroke="#fff"/>
<path d="m94.1563,698.9091c0,.233-.1889.4219-.4219.4219s-.4219-.1889-.4219-.4219 .1889-.4219.4219-.4219 .4219.1889.4219.4219z" fill="#fff" transform="matrix(1.63366,0,0,1.63461,-59.16706,-443.72608)"/>
</g>
</svg>
