<svg viewBox="0 0 512 512" xmlns="http://www.w3.org/2000/svg">

<g transform="matrix(18.68858,0,0,18.68858,-1467.71251,-12900.97002)">
<path d="m 92.125 714.064 -6.8318 2.0464 v 0.7074 h 13.6637 v -0.7074 l -6.8318 -2.0464 z" fill="#fff"/>
<path d="m 93.9556 702.652 h -12.9112 l 6.4556 -11.1814 z" fill="none" stroke="#fff" stroke-width=".8543" transform="matrix(1.4451,0,0,-.94822,-34.32168,1361.3942)"/>
<path d="m 92.125 715.901 v -12.0523" fill="none" stroke="#fff"/>
<path d="m 93.9556 702.652 h -12.9112 l 6.4556 -11.1814 z" fill="#fff" transform="matrix(1.07216,0,0,-.7035,-1.68889,1192.1836)"/>
<path d="m 94.4375 699.909 c 0 0.8198 -0.6646 1.4844 -1.4844 1.4844 s -1.4844 -0.6646 -1.4844 -1.4844 0.6646 -1.4844 1.4844 -1.4844 1.4844 0.6646 1.4844 1.4844 z" stroke="#fff" stroke-width=".7057" transform="matrix(1.41672,0,0,1.41755,-36.7183,-292.92141)"/>
<path d="m 96.2497 697.184 3.1799 -5.7099" fill="none" stroke="#fff"/>
<path d="m 94.1563 698.909 c 0 0.233 -0.1889 0.4219 -0.4219 0.4219 s -0.4219 -0.1889 -0.4219 -0.4219 0.1889 -0.4219 0.4219 -0.4219 0.4219 0.1889 0.4219 0.4219 z" fill="#fff" transform="matrix(1.63366,0,0,1.63461,-59.16706,-443.72608)"/>
</g>
</svg>
