<svg viewBox="0 0 512 512" xmlns="http://www.w3.org/2000/svg">

<g transform="matrix(18.68858,0,0,18.68858,-840.33949,-3482.99297)">
<path d="m 67.7352 213.281 -1.9375 -3.5938 -7.125 -3.7812 -7.1562 3.7812 -1.9375 3.5938" fill="none" stroke="#fff"/>
<path d="m 71.7613 209.942 -4.0443 -3.2538 -9.0401 -1.9701 -9.0798 1.9701 -4.0443 3.2538" fill="none" stroke="#fff"/>
<path d="m 71.9139 188.145 -4.0914 9.6502 -9.1454 5.4732 -9.1855 -5.4732 -4.0914 -9.6502" fill="none" stroke="#fff"/>
<path d="m 71.7613 199.415 -4.0443 3.2096 -9.0401 1.263 -9.0798 -1.263 -4.0443 -3.2096" fill="none" stroke="#fff"/>
<path d="m 52.9978 195.364 c 0 3.08 2.5354 5.5798 5.6593 5.5798 s 5.6593 -2.4997 5.6593 -5.5798 -2.5354 -8.4784 -5.6593 -8.4784 -5.6593 5.3984 -5.6593 8.4784 z" fill="#fff" stroke="#000"/>
<path d="m 61.75 209.05 c 0 1.4152 -1.1473 2.5625 -2.5625 2.5625 s -2.5625 -1.1473 -2.5625 -2.5625 1.1473 -2.5625 2.5625 -2.5625 2.5625 1.1473 2.5625 2.5625 z" fill="#fff" transform="matrix(1.18718,0,0,1.18083,-11.6094,-36.49745)"/>
<path d="m 58.657 209.222 c -1.2283 0 -2.2188 1.3759 -2.2188 3.0654 0 0.434 0.0377 0.8591 0.1562 1.2332 h 4.125 c 0.1186 -0.3741 0.1562 -0.7993 0.1562 -1.2332 0 -1.6896 -0.9905 -3.0654 -2.2188 -3.0654 z"/>
<path d="m 63.0651 201.006 c 0 2.1235 -1.7214 3.8449 -3.8449 3.8449 s -3.8449 -1.7214 -3.8449 -3.8449 1.7214 -3.8449 3.8449 -3.8449 3.8449 1.7214 3.8449 3.8449 z" fill="#fff" stroke="#000" stroke-width=".8307" transform="matrix(1.02639,0,0,1.41187,-2.12608,-79.86764)"/>
<path d="m 58.0938 205.175 c 0 0.2761 -0.2239 0.5 -0.5 0.5 s -0.5 -0.2239 -0.5 -0.5 0.2239 -0.5 0.5 -0.5 0.5 0.2238 0.5 0.5 z" transform="matrix(1.94698,0,0,1.93656,-55.68467,-190.65781)"/>
<path d="m 58.0938 205.175 c 0 0.2761 -0.2239 0.5 -0.5 0.5 s -0.5 -0.2239 -0.5 -0.5 0.2239 -0.5 0.5 -0.5 0.5 0.2238 0.5 0.5 z" transform="matrix(1.94698,0,0,1.93656,-51.26919,-190.65781)"/>
<path d="m 58.0938 205.175 c 0 0.2761 -0.2239 0.5 -0.5 0.5 s -0.5 -0.2239 -0.5 -0.5 0.2239 -0.5 0.5 -0.5 0.5 0.2238 0.5 0.5 z" transform="matrix(1.94698,0,0,1.93656,-52.08623,-192.94018)"/>
<path d="m 58.0938 205.175 c 0 0.2761 -0.2239 0.5 -0.5 0.5 s -0.5 -0.2239 -0.5 -0.5 0.2239 -0.5 0.5 -0.5 0.5 0.2238 0.5 0.5 z" transform="matrix(1.94698,0,0,1.93656,-54.86763,-192.94018)"/>
<path d="m 45.4422 186.856 h 26.4297 v 26.4297 h -26.4297 z" fill="none" stroke="#000"/>
</g>
</svg>
