<svg viewBox="0 0 512 512" xmlns="http://www.w3.org/2000/svg">

<g transform="matrix(18.68858,0,0,18.68858,-840.33949,-3482.99297)">
<path d="m67.7352,213.2812-1.9375-3.5938-7.125-3.7812-7.1562,3.7812-1.9375,3.5938" fill="none" stroke="#fff"/>
<path d="m71.7613,209.9418-4.0443-3.2538-9.0401-1.9701-9.0798,1.9701-4.0443,3.2538" fill="none" stroke="#fff"/>
<path d="m71.9139,188.1451-4.0914,9.6502-9.1454,5.4732-9.1855-5.4732-4.0914-9.6502" fill="none" stroke="#fff"/>
<path d="m71.7613,199.4146-4.0443,3.2096-9.0401,1.263-9.0798-1.263-4.0443-3.2096" fill="none" stroke="#fff"/>
<path d="m52.9978,195.364c0,3.08 2.5354,5.5798 5.6593,5.5798s5.6593-2.4997 5.6593-5.5798-2.5354-8.4784-5.6593-8.4784-5.6593,5.3984-5.6593,8.4784z" fill="#fff" stroke="#000"/>
<path d="m61.75,209.0496c0,1.4152-1.1473,2.5625-2.5625,2.5625s-2.5625-1.1473-2.5625-2.5625 1.1473-2.5625 2.5625-2.5625 2.5625,1.1473 2.5625,2.5625z" fill="#fff" transform="matrix(1.18718,0,0,1.18083,-11.6094,-36.49745)"/>
<path d="m58.657,209.2219c-1.2283,0-2.2188,1.3759-2.2188,3.0654 0,.434.0377.8591.1562,1.2332h4.125c.1186-.3741.1562-.7993.1562-1.2332 0-1.6896-.9905-3.0654-2.2188-3.0654z"/>
<path d="m63.0651,201.0056c0,2.1235-1.7214,3.8449-3.8449,3.8449s-3.8449-1.7214-3.8449-3.8449 1.7214-3.8449 3.8449-3.8449 3.8449,1.7214 3.8449,3.8449z" fill="#fff" stroke="#000" stroke-width=".8307" transform="matrix(1.02639,0,0,1.41187,-2.12608,-79.86764)"/>
<path d="m58.0938,205.1746c0,.2761-.2239.5-.5.5s-.5-.2239-.5-.5 .2239-.5.5-.5 .5.2238.5.5z" transform="matrix(1.94698,0,0,1.93656,-55.68467,-190.65781)"/>
<path d="m58.0938,205.1746c0,.2761-.2239.5-.5.5s-.5-.2239-.5-.5 .2239-.5.5-.5 .5.2238.5.5z" transform="matrix(1.94698,0,0,1.93656,-51.26919,-190.65781)"/>
<path d="m58.0938,205.1746c0,.2761-.2239.5-.5.5s-.5-.2239-.5-.5 .2239-.5.5-.5 .5.2238.5.5z" transform="matrix(1.94698,0,0,1.93656,-52.08623,-192.94018)"/>
<path d="m58.0938,205.1746c0,.2761-.2239.5-.5.5s-.5-.2239-.5-.5 .2239-.5.5-.5 .5.2238.5.5z" transform="matrix(1.94698,0,0,1.93656,-54.86763,-192.94018)"/>
<path d="m45.4422,186.8563h26.4297v26.4297h-26.4297z" fill="none" stroke="#000"/>
</g>
</svg>
