<svg xmlns="http://www.w3.org/2000/svg" viewBox="0 0 512 512">
<g transform="matrix(15.05075 0 0 15.05075 -3235.7738 -1785.921)">
<use width="744.094" height="1052.362" transform="translate(252 116)"/>
<g fill="#fff">
<path d="m236,136c0,2.2091-1.7909,4-4,4-2.2091,0-4-1.7909-4-4 0-2.2091 1.7909-4 4-4 2.2091,0 4,1.7909 4,4z" transform="matrix(1 0 0 -1 0 270.33812)"/>
<path d="m232,150.3381c-2.5789,0-4.9988-.6349-7.1562-1.7188l4.4688-8.9062c.8056,.4021 1.7259,.625 2.6875,.625 .9616,0 1.8819-.2229 2.6875-.625l4.4688,8.9062c-2.1574,1.0838-4.5773,1.7188-7.1562,1.7188z"/>
<path d="m245.8564,126.3381c1.2895,2.2334 1.9495,4.6466 2.0896,7.0569l-9.9474,.5831c-.0546-.8988-.3217-1.8072-.8025-2.6399-.4808-.8328-1.1339-1.5183-1.885-2.0149l5.4787-8.3232c2.0173,1.3265 3.7771,3.1047 5.0666,5.3381z"/>
<path d="m218.1436,126.3381c1.2895-2.2334 3.0493-4.0116 5.0666-5.3381l5.4787,8.3232c-.7511,.4966-1.4042,1.1822-1.885,2.0149-.4808,.8328-.7479,1.7412-.8025,2.6399l-9.9474-.5831c.1401-2.4103 .8002-4.8234 2.0896-7.0569z"/>
</g>
</g>
</svg>
