<svg xmlns="http://www.w3.org/2000/svg" viewBox="0 0 512 512">
<g transform="matrix(15.05075 0 0 15.05075 -3235.7738 -1785.921)">
<use width="744.094" height="1052.362" transform="translate(252 116)"/>
<g fill="#fff">
<path d="m 236 136 c 0 2.2091 -1.7909 4 -4 4 -2.2091 0 -4 -1.7909 -4 -4 0 -2.2091 1.7909 -4 4 -4 2.2091 0 4 1.7909 4 4 z" transform="matrix(1 0 0 -1 0 270.33812)"/>
<path d="m 232 150.338 c -2.5789 0 -4.9988 -0.6349 -7.1562 -1.7188 l 4.4688 -8.9062 c 0.8056 0.4021 1.7259 0.625 2.6875 0.625 0.9616 0 1.8819 -0.2229 2.6875 -0.625 l 4.4688 8.9062 c -2.1574 1.0838 -4.5773 1.7188 -7.1562 1.7188 z"/>
<path d="m 245.856 126.338 c 1.2895 2.2334 1.9495 4.6466 2.0896 7.0569 l -9.9474 0.5831 c -0.0546 -0.8988 -0.3217 -1.8072 -0.8025 -2.6399 -0.4808 -0.8328 -1.1339 -1.5183 -1.885 -2.0149 l 5.4787 -8.3232 c 2.0173 1.3265 3.7771 3.1047 5.0666 5.3381 z"/>
<path d="m 218.144 126.338 c 1.2895 -2.2334 3.0493 -4.0116 5.0666 -5.3381 l 5.4787 8.3232 c -0.7511 0.4966 -1.4042 1.1822 -1.885 2.0149 -0.4808 0.8328 -0.7479 1.7412 -0.8025 2.6399 l -9.9474 -0.5831 c 0.1401 -2.4103 0.8002 -4.8234 2.0896 -7.0569 z"/>
</g>
</g>
</svg>
