<svg viewBox="0 0 512 512" xmlns="http://www.w3.org/2000/svg">

<g transform="matrix(18.68858,0,0,18.68858,-11122.28735,-6148.75251)">
<path d="m 613.297 343.57 -17.2098 10.5179 v 1.2812 h 3.2098 l 15.1875 -9.4554 -1.1875 -2.3438 z" fill="#fff"/>
<path d="m 282.148 679.805 c 0 2.5802 -2.0917 4.6719 -4.6719 4.6719 s -4.672 -2.0917 -4.672 -4.6719 2.0917 -4.672 4.672 -4.672 4.6719 2.0917 4.6719 4.672 z" transform="matrix(.99755,-.24961,.29395,1.18107,136.27743,-391.6356)"/>
<path d="m 612.079 329.994 c 4.2371 5.1669 -2.4062 7.7701 -2.4062 12.4062 1e-05 1.6254 0.7427 2.8355 1.9688 3.5938 -0.5284 -0.7325 -0.7383 -1.6701 -0.5 -2.7812 0.5448 -2.5403 2.7888 -3.8689 3.7812 -6 0.5133 0.9462 1.2979 1.6228 2.0625 1.625 1.04 0.003 1.6129 -1.2079 1.3438 -2.7188 2.2154 3.188 1.5158 8.1278 -0.625 10.375 5.5539 -2.5358 5.4745 -15.2999 -5.625 -16.5 z" fill="#fff" fill-rule="evenodd"/>
<path d="m 285.968 679.521 c 0 1.9875 -1.6112 3.5987 -3.5987 3.5987 s -3.5987 -1.6112 -3.5987 -3.5987 1.6112 -3.5987 3.5987 -3.5987 3.5987 1.6112 3.5987 3.5987 z" fill="#fff" stroke="#000" stroke-width="1.3183" transform="matrix(.75754,0,0,.75957,400.41441,-172.13651)"/>
<path d="m 610.372 339.801 c 0.9113 -2.5771 1.4548 -5.5903 -2.4632 -5.5981 3.3245 -1.0137 5.8656 0.8188 3.5828 5.2996" fill="#fff"/>
<path d="m 613.761 330.218 c 4.1224 1.1211 5.3944 4.4991 6.0107 6.8544 0.7782 -2.0929 0.1245 -4.3945 -1.1142 -6.4578 z"/>
</g>
</svg>
