<svg viewBox="0 0 512 512" xmlns="http://www.w3.org/2000/svg">

<g transform="matrix(18.68858,0,0,18.68858,-11122.28735,-6148.75251)">
<path d="m613.2974,343.5702-17.2098,10.5179v1.2812h3.2098l15.1875-9.4554-1.1875-2.3438z" fill="#fff"/>
<path d="m282.1482,679.8053c0,2.5802-2.0917,4.6719-4.6719,4.6719s-4.672-2.0917-4.672-4.6719 2.0917-4.672 4.672-4.672 4.6719,2.0917 4.6719,4.672z" transform="matrix(.99755,-.24961,.29395,1.18107,136.27743,-391.6356)"/>
<path d="m612.0787,329.9943c4.2371,5.1669-2.4062,7.7701-2.4062,12.4062 1e-05,1.6254.7427,2.8355 1.9688,3.5938-.5284-.7325-.7383-1.6701-.5-2.7812 .5448-2.5403 2.7888-3.8689 3.7812-6 .5133.9462 1.2979,1.6228 2.0625,1.625 1.04.003 1.6129-1.2079 1.3438-2.7188 2.2154,3.188 1.5158,8.1278-.625,10.375 5.5539-2.5358 5.4745-15.2999-5.625-16.5z" fill="#fff" fill-rule="evenodd"/>
<path d="m285.9679,679.5212c0,1.9875-1.6112,3.5987-3.5987,3.5987s-3.5987-1.6112-3.5987-3.5987 1.6112-3.5987 3.5987-3.5987 3.5987,1.6112 3.5987,3.5987z" fill="#fff" stroke="#000" stroke-width="1.3183" transform="matrix(.75754,0,0,.75957,400.41441,-172.13651)"/>
<path d="m610.3719,339.8006c.9113-2.5771 1.4548-5.5903-2.4632-5.5981 3.3245-1.0137 5.8656.8188 3.5828,5.2996" fill="#fff"/>
<path d="m613.7615,330.2184c4.1224,1.1211 5.3944,4.4991 6.0107,6.8544 .7782-2.0929.1245-4.3945-1.1142-6.4578z"/>
</g>
</svg>
