<svg viewBox="0 0 512 512" xmlns="http://www.w3.org/2000/svg">

<g transform="matrix(18.68858,0,0,18.68858,-5674.4736,-35398.75052)">
<path d="m321.1026,1907.7335c0,6.1585-2.2539,11.1509-5.0341,11.1509s-5.0341-4.9924-5.0341-11.1509 2.2539-11.1509 5.0341-11.1509 5.0341,4.9924 5.0341,11.1509z" fill="none" stroke="#fff" stroke-width=".9277" transform="matrix(1.07796,0,0,1.07796,-23.32554,-148.6039)"/>
<path d="m321.1026,1907.7335c0,6.1585-2.2539,11.1509-5.0341,11.1509s-5.0341-4.9924-5.0341-11.1509 2.2539-11.1509 5.0341-11.1509 5.0341,4.9924 5.0341,11.1509z" fill="none" stroke="#fff" stroke-width=".9277" transform="matrix(.53898,.93354,-.93354,.53898,1927.9746,584.563)"/>
<path d="m321.1026,1907.7335c0,6.1585-2.2539,11.1509-5.0341,11.1509s-5.0341-4.9924-5.0341-11.1509 2.2539-11.1509 5.0341-11.1509 5.0341,4.9924 5.0341,11.1509z" fill="none" stroke="#fff" stroke-width=".9277" transform="matrix(-.53898,.93354,.93354,.53898,-1293.2079,584.563)"/>
<path d="m313.4432,1905.6097v4.544l4.0064,2.4726 4.0064-2.4726v-4.648" fill="#fff" stroke="#000"/>
<path d="m-1629.932,1998.4865h4.4828v4.4828h-4.4828z" fill="#fff" stroke="#000" stroke-width="1.0577" transform="matrix(.85099,-.52519,.85099,.52519,0,0)"/>
<path d="m317.45,1912.0163v-3.9896" fill="none" stroke="#000"/>
</g>
</svg>
