<svg viewBox="0 0 512 512" xmlns="http://www.w3.org/2000/svg">

<g transform="matrix(18.68858,0,0,18.68858,-5674.4736,-35398.75052)">
<path d="m 321.103 1907.73 c 0 6.1585 -2.2539 11.1509 -5.0341 11.1509 s -5.0341 -4.9924 -5.0341 -11.1509 2.2539 -11.1509 5.0341 -11.1509 5.0341 4.9924 5.0341 11.1509 z" fill="none" stroke="#fff" stroke-width=".9277" transform="matrix(1.07796,0,0,1.07796,-23.32554,-148.6039)"/>
<path d="m 321.103 1907.73 c 0 6.1585 -2.2539 11.1509 -5.0341 11.1509 s -5.0341 -4.9924 -5.0341 -11.1509 2.2539 -11.1509 5.0341 -11.1509 5.0341 4.9924 5.0341 11.1509 z" fill="none" stroke="#fff" stroke-width=".9277" transform="matrix(.53898,.93354,-.93354,.53898,1927.9746,584.563)"/>
<path d="m 321.103 1907.73 c 0 6.1585 -2.2539 11.1509 -5.0341 11.1509 s -5.0341 -4.9924 -5.0341 -11.1509 2.2539 -11.1509 5.0341 -11.1509 5.0341 4.9924 5.0341 11.1509 z" fill="none" stroke="#fff" stroke-width=".9277" transform="matrix(-.53898,.93354,.93354,.53898,-1293.2079,584.563)"/>
<path d="m 313.443 1905.61 v 4.544 l 4.0064 2.4726 4.0064 -2.4726 v -4.648" fill="#fff" stroke="#000"/>
<path d="m -1629.93 1998.49 h 4.4828 v 4.4828 h -4.4828 z" fill="#fff" stroke="#000" stroke-width="1.0577" transform="matrix(.85099,-.52519,.85099,.52519,0,0)"/>
<path d="m 317.45 1912.02 v -3.9896" fill="none" stroke="#000"/>
</g>
</svg>
