<svg viewBox="0 0 512 512" xmlns="http://www.w3.org/2000/svg">

<g transform="matrix(18.68858,0,0,18.68858,-7037.9217,-33369.81385)">
<path d="m 392.647 1800.61 -3.5378 -0.0001 0.0002 -3.7553 h 5.2793 v 7.7828 l -10.9488 -0.0001 v -6.0411 h 2.998" fill="none" stroke="#fff"/>
<path d="m 383.234 1801.75 h -4.0243 l 8e-05 9.1675 7.8317 -0.0001 1e-05 -3.3035 h -4.566" fill="none" stroke="#fff"/>
<path d="m 392.747 1807.79 h 8.8804 l 9e-05 -7.5651 -7.0755 -0.0001" fill="none" stroke="#fff"/>
<path d="m 394.661 1802.95 h 4.2997 l -5e-05 2.3117" fill="none" stroke="#fff"/>
<path d="m 400.255 1800.12 4e-05 -10.0445 -7.2736 -0.0001 -8e-05 3.2328 h 4.3488 l 0.0001 2.9949" fill="none" stroke="#fff"/>
<path d="m 390.75 1794.39 -4.0796 -0.0002 -5e-05 7.5816" fill="none" stroke="#fff"/>
<path d="m 380.827 1801.58 -0.0001 -6.2679" fill="none" stroke="#fff"/>
<path d="m 384.399 1795.16 -5.1954 0.0001 -9e-05 -5.8953 h 8.9284" fill="none" stroke="#fff"/>
<path d="m 396.638 1789.88 0.0001 -2.7324 -8.1973 -0.0001 -7e-05 4.7723 h -5.8881" fill="none" stroke="#fff"/>
<path d="m 386.965 1810.23 h 9.564 v -2.4716" fill="none" stroke="#fff"/>
<path d="m 390.081 1804.96 v 3.6536" fill="none" stroke="#fff"/>
</g>
</svg>
