<svg viewBox="0 0 512 512" xmlns="http://www.w3.org/2000/svg">

<g transform="matrix(18.68858,0,0,18.68858,-7037.9217,-33369.81385)">
<path d="m392.6474,1800.6084-3.5378-.0001 .0002-3.7553h5.2793v7.7828l-10.9488-.0001v-6.0411h2.998" fill="none" stroke="#fff"/>
<path d="m383.2339,1801.7513h-4.0243l8e-05,9.1675 7.8317-.0001 1e-05-3.3035h-4.566" fill="none" stroke="#fff"/>
<path d="m392.7473,1807.7926h8.8804l9e-05-7.5651-7.0755-.0001" fill="none" stroke="#fff"/>
<path d="m394.6612,1802.9487h4.2997l-5e-05,2.3117" fill="none" stroke="#fff"/>
<path d="m400.2553,1800.1205 4e-05-10.0445-7.2736-.0001-8e-05,3.2328h4.3488l.0001,2.9949" fill="none" stroke="#fff"/>
<path d="m390.7496,1794.3865-4.0796-.0002-5e-05,7.5816" fill="none" stroke="#fff"/>
<path d="m380.8272,1801.583-.0001-6.2679" fill="none" stroke="#fff"/>
<path d="m384.3995,1795.1629-5.1954.0001-9e-05-5.8953h8.9284" fill="none" stroke="#fff"/>
<path d="m396.6376,1789.8835 .0001-2.7324-8.1973-.0001-7e-05,4.7723h-5.8881" fill="none" stroke="#fff"/>
<path d="m386.9649,1810.2267h9.564v-2.4716" fill="none" stroke="#fff"/>
<path d="m390.0813,1804.9612v3.6536" fill="none" stroke="#fff"/>
</g>
</svg>
