<svg viewBox="0 0 512 512" xmlns="http://www.w3.org/2000/svg">

<g transform="matrix(18.68858,0,0,18.68858,-228.51158,-20445.93144)">
<path d="m 26.2062 1107.73 4.0735 12.2443 5.9681 -0.2841 0.4263 -1.5157 1.492 -0.4264 0.3079 -5.9682 -12.2677 -4.0499 z" fill="#fff"/>
<path d="m 27.2791 1111.55 c 1.4502 -0.5176 4.7643 -0.5592 6.7704 0.4787 s 2.8652 3.1437 1.918 4.7012 -3.3165 1.9844 -5.3497 0.536 c -1.0647 -0.7585 -2.2018 -1.5272 -2.8226 -2.3112"/>
<path d="m 26.6962 1105.01 c 0 0.605 -0.4904 1.0955 -1.0954 1.0955 s -1.0954 -0.4905 -1.0954 -1.0955 0.4904 -1.0954 1.0954 -1.0954 1.0954 0.4904 1.0954 1.0954 z" fill="#fff" transform="matrix(1.93209,-1.93213,1.87282,1.87286,-2091.6183,-911.52612)"/>
<path d="m 14.811 1098.95 c -1.5952 -1.5952 1.2777 -4.6898 2.9837 -2.9838 l 1.9678 1.9679 c 1.4473 1.4473 -1.4909 4.4767 -2.9837 2.9837 l -1.9678 -1.9678 z" stroke="#fff"/>
<path d="m 12.75 1094.53 v 1.0312 l 3.0625 3.0313 c 0.8999 0.8999 2.4974 -0.7526 1.625 -1.625 l -2.4375 -2.4375 h -2.25 z" fill="#fff" stroke="#000"/>
<path d="m 20.2462 1104.38 c -1.5952 -1.5952 1.2777 -4.6898 2.9837 -2.9838 l 1.9678 1.968 c 1.4473 1.4473 -1.4909 4.4766 -2.9837 2.9837 l -1.9678 -1.9679 z" stroke="#fff"/>
<path d="m 17.2212 1100.01 c -0.9617 -0.9617 0.6123 -2.6693 1.6408 -1.6409 l 4.0764 4.0765 c 0.8724 0.8724 -0.7409 2.5409 -1.6408 1.6408 l -4.0764 -4.0764 z" fill="#fff" stroke="#000"/>
<path d="m 22.6564 1105.45 c -0.9617 -0.9616 0.6123 -2.6693 1.6408 -1.6409 l 4.0764 4.0766 c 0.8724 0.8724 -0.7409 2.5408 -1.6408 1.6409 l -4.0764 -4.0766 z" fill="#fff" stroke="#000"/>
<path d="m 28.5551 1115.08 3.6895 1.6671 -2.5212 1.1484" fill="#fff" fill-rule="evenodd"/>
</g>
</svg>
