<svg viewBox="0 0 512 512" xmlns="http://www.w3.org/2000/svg">

<g transform="matrix(18.68858,0,0,18.68858,-2740.1252,-8505.43951)">
<path d="m155.8438,464.0808c-2.8854,3.8175-5.7708,6.7906-8.6562,9.0397v8.0453c3.6677-4.0812 7.9648-11.3583 11.9062-15.1481l-3.25-1.9369z" fill="#fff" stroke="#000"/>
<path d="m150.7257,470.2184 12.5318-14.4496 10.1723,6.1926c-3.4005,6.9406-10.5879,14.5912-15.8461,18.2711l-6.858-10.0141z" fill="#fff" stroke="#000"/>
<path d="m154.7538,476.0799c5.1108-3.7201 10.2739-9.8958 14.3241-16.5162" fill="none" stroke="#000"/>
<path d="m163.7394,461.5524c0,.8909-.7222,1.6131-1.6131,1.6131s-1.6131-.7222-1.6131-1.6131 .7222-1.6131 1.6131-1.6131 1.6131.7222 1.6131,1.6131z" stroke="#fff" stroke-width=".7263" transform="matrix(1.14354,-.53473,0,1.31205,-22.25465,-59.0188)"/>
</g>
</svg>
