<svg viewBox="0 0 512 512" xmlns="http://www.w3.org/2000/svg">

<g transform="matrix(18.68858,0,0,18.68858,-228.51158,-20445.93144)">
<path d="m26.2062,1107.7296 4.0735,12.2443 5.9681-.2841 .4263-1.5157 1.492-.4264 .3079-5.9682-12.2677-4.0499z" fill="#fff"/>
<path d="m27.2791,1111.5485c1.4502-.5176 4.7643-.5592 6.7704.4787s2.8652,3.1437 1.918,4.7012-3.3165,1.9844-5.3497.536c-1.0647-.7585-2.2018-1.5272-2.8226-2.3112"/>
<path d="m26.6962,1105.0107c0,.605-.4904,1.0955-1.0954,1.0955s-1.0954-.4905-1.0954-1.0955 .4904-1.0954 1.0954-1.0954 1.0954.4904 1.0954,1.0954z" fill="#fff" transform="matrix(1.93209,-1.93213,1.87282,1.87286,-2091.6183,-911.52612)"/>
<path d="m14.811,1098.9458c-1.5952-1.5952 1.2777-4.6898 2.9837-2.9838l1.9678,1.9679c1.4473,1.4473-1.4909,4.4767-2.9837,2.9837l-1.9678-1.9678z" stroke="#fff"/>
<path d="m12.75,1094.5313v1.0312l3.0625,3.0313c.8999.8999 2.4974-.7526 1.625-1.625l-2.4375-2.4375h-2.25z" fill="#fff" stroke="#000"/>
<path d="m20.2462,1104.3811c-1.5952-1.5952 1.2777-4.6898 2.9837-2.9838l1.9678,1.968c1.4473,1.4473-1.4909,4.4766-2.9837,2.9837l-1.9678-1.9679z" stroke="#fff"/>
<path d="m17.2212,1100.0132c-.9617-.9617.6123-2.6693 1.6408-1.6409l4.0764,4.0765c.8724.8724-.7409,2.5409-1.6408,1.6408l-4.0764-4.0764z" fill="#fff" stroke="#000"/>
<path d="m22.6564,1105.4485c-.9617-.9616.6123-2.6693 1.6408-1.6409l4.0764,4.0766c.8724.8724-.7409,2.5408-1.6408,1.6409l-4.0764-4.0766z" fill="#fff" stroke="#000"/>
<path d="m28.5551,1115.0811 3.6895,1.6671-2.5212,1.1484" fill="#fff" fill-rule="evenodd"/>
</g>
</svg>
