<svg viewBox="0 0 512 512" xmlns="http://www.w3.org/2000/svg">

<g transform="matrix(18.68858,0,0,18.68858,-5911.50192,-5999.62856)">
<path d="m331.285,336.367-1.1578-1.5655c-3.2333,2.6451-4.7263,3.5191-11.4068,3.8622-2.6288.135-1.3669,3.8288 1.6108,2.793-2.6415,1.5999.2064,4.652 1.443,2.5021 2.3142-4.0235 5.6999-5.9809 9.5107-7.5917z" fill="#fff"/>
<path d="m338.6348,338.3197c-3.7809,1.2851-7.0381,2.6802-8.6519,4.9432-1.2419,1.7413-5.2518-.5153-7.1442-3.7966s-1.7641-7.4368.2878-8.092c2.3573-.7528 4.1724-1.0257 8.7312-4.9058 .7492.926 6.3122,10.7656 6.7771,11.8511z" fill="#fff" stroke="#000"/>
<path d="m335.1686,334.5162c0,3.4903-1.5236,6.3198-3.403,6.3198s-3.403-2.8295-3.403-6.3198 1.5236-6.3198 3.403-6.3198 3.403,2.8295 3.403,6.3198z" stroke="#fff" stroke-width="1.2041" transform="matrix(.65509,-.37863,.45544,.7897,-34.57186,193.92104)"/>
<path d="m333.2866,328.6559c-.9271.136-.8002,1.9282.27,3.9897s2.7027,3.6158 3.6297,3.4797c.3207-.0471.4953-.3053.5699-.6899-.0893.117-.2063.1874-.36.21-.8196.1203-2.2636-1.2371-3.2098-3.0598s-1.0296-3.4195-.21-3.5397c.1946-.0285.4109.0234.66.15-.4955-.3881-.9905-.5927-1.3499-.54z" fill="#fff"/>
<path d="m339.2444,326.493c-.0825.0658-.1661.1544-.2393.2542-1.2254,1.6705-2.5832,3.0678-4.023,4.3344-.4688.7862.5732,2.3762 1.3704,2.3762 1.827-.6917 3.7241-1.2044 5.711-1.4076 2.281-.2332.9472-3.647-1.4039-2.4342 1.9216-1.4375-.1783-4.1102-1.4152-3.1231z" fill="#fff"/>
<path d="m338.2043,327.1211c-1.1949,2.183-1.6998,2.8281-3.4886,3.8609-.5652.9507.6911,2.8736 1.6523,2.8736 1.984-.8365 2.62-1.0701 4.9713-1.1169 2.764-.055 2.4236-3.9684-.2784-3.3415 1.6672-2.172-1.6709-4.4424-2.8566-2.2761z" fill="#fff" stroke="#000"/>
</g>
</svg>
