<svg viewBox="0 0 512 512" xmlns="http://www.w3.org/2000/svg">

<g transform="matrix(18.68858,0,0,18.68858,-5911.50192,-5999.62856)">
<path d="m 331.285 336.367 -1.1578 -1.5655 c -3.2333 2.6451 -4.7263 3.5191 -11.4068 3.8622 -2.6288 0.135 -1.3669 3.8288 1.6108 2.793 -2.6415 1.5999 0.2064 4.652 1.443 2.5021 2.3142 -4.0235 5.6999 -5.9809 9.5107 -7.5917 z" fill="#fff"/>
<path d="m 338.635 338.32 c -3.7809 1.2851 -7.0381 2.6802 -8.6519 4.9432 -1.2419 1.7413 -5.2518 -0.5153 -7.1442 -3.7966 s -1.7641 -7.4368 0.2878 -8.092 c 2.3573 -0.7528 4.1724 -1.0257 8.7312 -4.9058 0.7492 0.926 6.3122 10.7656 6.7771 11.8511 z" fill="#fff" stroke="#000"/>
<path d="m 335.169 334.516 c 0 3.4903 -1.5236 6.3198 -3.403 6.3198 s -3.403 -2.8295 -3.403 -6.3198 1.5236 -6.3198 3.403 -6.3198 3.403 2.8295 3.403 6.3198 z" stroke="#fff" stroke-width="1.2041" transform="matrix(.65509,-.37863,.45544,.7897,-34.57186,193.92104)"/>
<path d="m 333.287 328.656 c -0.9271 0.136 -0.8002 1.9282 0.27 3.9897 s 2.7027 3.6158 3.6297 3.4797 c 0.3207 -0.0471 0.4953 -0.3053 0.5699 -0.6899 -0.0893 0.117 -0.2063 0.1874 -0.36 0.21 -0.8196 0.1203 -2.2636 -1.2371 -3.2098 -3.0598 s -1.0296 -3.4195 -0.21 -3.5397 c 0.1946 -0.0285 0.4109 0.0234 0.66 0.15 -0.4955 -0.3881 -0.9905 -0.5927 -1.3499 -0.54 z" fill="#fff"/>
<path d="m 339.244 326.493 c -0.0825 0.0658 -0.1661 0.1544 -0.2393 0.2542 -1.2254 1.6705 -2.5832 3.0678 -4.023 4.3344 -0.4688 0.7862 0.5732 2.3762 1.3704 2.3762 1.827 -0.6917 3.7241 -1.2044 5.711 -1.4076 2.281 -0.2332 0.9472 -3.647 -1.4039 -2.4342 1.9216 -1.4375 -0.1783 -4.1102 -1.4152 -3.1231 z" fill="#fff"/>
<path d="m 338.204 327.121 c -1.1949 2.183 -1.6998 2.8281 -3.4886 3.8609 -0.5652 0.9507 0.6911 2.8736 1.6523 2.8736 1.984 -0.8365 2.62 -1.0701 4.9713 -1.1169 2.764 -0.055 2.4236 -3.9684 -0.2784 -3.3415 1.6672 -2.172 -1.6709 -4.4424 -2.8566 -2.2761 z" fill="#fff" stroke="#000"/>
</g>
</svg>
