<svg viewBox="0 0 512 512" xmlns="http://www.w3.org/2000/svg">

<g transform="matrix(18.68858,0,0,18.68858,-5681.88955,-40834.02896)">
<path d="m 313.809 2203.92 h 4.595 l 1.7272 7.9517 h -7.6909 z" fill="#fff" stroke="#000"/>
<path d="m 327.551 2189.65 -2.879 -0.457 -2.4515 1.8827" fill="none" stroke="#fff"/>
<path d="m 327.784 2193.04 -2.3956 -0.8105 -3.0855 0.2133" fill="none" stroke="#fff"/>
<path d="m 322.579 2193.79 3.9496 2.1827" fill="none" stroke="#fff"/>
<path d="m 291.433 2194.89 c 0 0.9378 -0.7603 1.6981 -1.6981 1.6981 s -1.6981 -0.7603 -1.6981 -1.6981 0.7603 -1.6982 1.6981 -1.6982 1.6981 0.7603 1.6981 1.6982 z" fill="#fff" stroke="#000" stroke-width=".8699" transform="matrix(1.13338,-.20378,.19993,1.13015,-445.78391,-228.83594)"/>
<path d="m 309.724 2194.07 10.3753 -1.7484 0.1667 1.2877 -9.3963 3.8469 z" fill="#fff"/>
<path d="m 317.723 2203.7 -6.3697 -8.0337 -2.4031 0.8468 5.5683 8.7712 z" fill="#fff"/>
<path d="m 291.433 2194.89 c 0 0.9378 -0.7603 1.6981 -1.6981 1.6981 s -1.6981 -0.7603 -1.6981 -1.6981 0.7603 -1.6982 1.6981 -1.6982 1.6981 0.7603 1.6981 1.6982 z" fill="#fff" stroke="#000" stroke-width=".7377" transform="matrix(1.3569,.05209,-.05555,1.35226,39.34351,-787.34855)"/>
<path d="m 324.83 2186.48 c 0 0.5062 -0.4103 0.9165 -0.9165 0.9165 s -0.9164 -0.4103 -0.9164 -0.9165 0.4103 -0.9164 0.9164 -0.9164 0.9165 0.4103 0.9165 0.9164 z" fill="#fff" transform="matrix(.97511,-.22172,.22172,.97511,-479.22107,127.74519)"/>
<path d="m 324.83 2186.48 c 0 0.5062 -0.4103 0.9165 -0.9165 0.9165 s -0.9164 -0.4103 -0.9164 -0.9165 0.4103 -0.9164 0.9164 -0.9164 0.9165 0.4103 0.9165 0.9164 z" fill="#fff" transform="matrix(.96593,-.25882,.25882,.96593,-551.19971,161.38786)"/>
<path d="m 324.83 2186.48 c 0 0.5062 -0.4103 0.9165 -0.9165 0.9165 s -0.9164 -0.4103 -0.9164 -0.9165 0.4103 -0.9164 0.9164 -0.9164 0.9165 0.4103 0.9165 0.9164 z" fill="#fff" transform="matrix(.96593,-.25882,.25882,.96593,-552.62282,167.74095)"/>
<path d="m 324.83 2186.48 c 0 0.5062 -0.4103 0.9165 -0.9165 0.9165 s -0.9164 -0.4103 -0.9164 -0.9165 0.4103 -0.9164 0.9164 -0.9164 0.9165 0.4103 0.9165 0.9164 z" fill="#fff" transform="matrix(.96593,-.25882,.25882,.96593,-551.05481,164.94884)"/>
<path d="m 291.433 2194.89 c 0 0.9378 -0.7603 1.6981 -1.6981 1.6981 s -1.6981 -0.7603 -1.6981 -1.6981 0.7603 -1.6982 1.6981 -1.6982 1.6981 0.7603 1.6981 1.6982 z" fill="#fff" stroke="#000" stroke-width=".5919" transform="matrix(1.69091,.06492,-.06923,1.68534,-21.72853,-1513.5441)"/>
<path d="m 308.63 2195.83 4.151 -0.2696" fill="none" stroke="#000"/>
<path d="m 314.097 2205.91 4.4843 -3.0689" fill="none" stroke="#000"/>
<path d="m 320.481 2192.31 -0.7879 -2.299 1.5966 -1.9736" fill="none" stroke="#fff"/>
<path d="m 311.265 2209.58 h 10.0636 v 2.3253 h -10.0636 z" fill="#fff" stroke="#000"/>
</g>
</svg>
