<svg viewBox="0 0 512 512" xmlns="http://www.w3.org/2000/svg">

<g transform="matrix(18.68858,0,0,18.68858,-4020.07513,-9758.47632)">
<path d="m 222.627 523.188 v 9.2644 l 6.147 8.0437 6.2243 -8.0437 v -9.2644 h -12.3714 z" fill="#fff"/>
<path d="m 233.375 538.987 c 0 3.2447 -2.6303 5.875 -5.875 5.875 s -5.875 -2.6303 -5.875 -5.875 2.6303 -5.875 5.875 -5.875 5.875 2.6303 5.875 5.875 z" fill="#fff" stroke="#000" transform="matrix(1.08511,0,0,1.08511,-17.8617,-42.0802)"/>
<path d="m 225.125 522.75 v 13.0061" fill="none" stroke="#000"/>
<path d="m 232.656 522.737 v 12.6875" fill="none" stroke="#000"/>
<path d="m 227.603 540.966 1.4127 -4.3243 m 3.6827 11.3428 -3.6827 -2.6674 -3.6827 2.6674 1.3969 -4.3294 -3.6729 -2.6808 m 11.9175 0 -3.6729 2.6808" fill="none" stroke="#000"/>
<path d="m 223.915 534.478 h 9.7813 v 1.9688 h -9.7813 z" fill="#fff" stroke="#000"/>
</g>
</svg>
