<svg viewBox="0 0 512 512" xmlns="http://www.w3.org/2000/svg">

<g transform="matrix(18.68858,0,0,18.68858,-4320.5906,-44229.69753)">
<path d="m238.5036,2367.475h12.598v14.4743l-6.1823,4.932-6.4156-4.932z" fill="#fff" stroke="#000"/>
<path d="m241.8273,2384.2967v-13.6587" fill="none" stroke="#000"/>
<path d="m247.8851,2384.2967v-13.6587" fill="none" stroke="#000"/>
<path d="m236.949,2368.1195c5.4-1.2175 10.6698-1.0019 15.8681,0v3.967c-4.7587-1.274-10.5787-1.743-15.8681,0z" fill="#fff" stroke="#000"/>
<path d="m249.8686,2387.291c0,2.0577-2.0641,3.7258-4.6103,3.7258s-4.6103-1.6681-4.6103-3.7258 2.0641-3.7258 4.6103-3.7258 4.6103,1.6681 4.6103,3.7258z" fill="#fff" stroke="#000" stroke-width=".8693" transform="matrix(1.15061,0,0,1.15003,-37.31366,-359.00044)"/>
<path d="m241.9223,2384.8661 2.3542,2.5894-2.786-.37z"/>
<path d="m247.7924,2384.8661-2.3542,2.5894 2.786-.37z"/>
<path d="m242.2605,2388.5818h5.0158v2.2233h-5.0158z" fill="#fff"/>
<path d="m244.8134,2388.1673 .8054,1.5768h-1.6107z"/>
<path d="m244.7466,2389.9334v3.2696" fill="none" stroke="#fff"/>
<path d="m246.7589,2389.6004 .9758,3.3689" fill="none" stroke="#fff"/>
<path d="m242.7626,2389.6004-.9758,3.3689" fill="none" stroke="#fff"/>
</g>
</svg>
