<svg viewBox="0 0 512 512" xmlns="http://www.w3.org/2000/svg">

<g transform="matrix(18.68858,0,0,18.68858,-4020.07513,-9758.47632)">
<path d="m222.6268,523.1875v9.2644l6.147,8.0437 6.2243-8.0437v-9.2644h-12.3714z" fill="#fff"/>
<path d="m233.375,538.9872c0,3.2447-2.6303,5.875-5.875,5.875s-5.875-2.6303-5.875-5.875 2.6303-5.875 5.875-5.875 5.875,2.6303 5.875,5.875z" fill="#fff" stroke="#000" transform="matrix(1.08511,0,0,1.08511,-17.8617,-42.0802)"/>
<path d="m225.125,522.7497v13.0061" fill="none" stroke="#000"/>
<path d="m232.6563,522.7372v12.6875" fill="none" stroke="#000"/>
<path d="m227.6029,540.9662 1.4127-4.3243m3.6827,11.3428-3.6827-2.6674-3.6827,2.6674 1.3969-4.3294-3.6729-2.6808m11.9175,0-3.6729,2.6808" fill="none" stroke="#000"/>
<path d="m223.9154,534.4783h9.7813v1.9688h-9.7813z" fill="#fff" stroke="#000"/>
</g>
</svg>
