<svg viewBox="0 0 512 512" xmlns="http://www.w3.org/2000/svg">

<g transform="matrix(18.68858,0,0,18.68858,-4320.5906,-44229.69753)">
<path d="m 238.504 2367.47 h 12.598 v 14.4743 l -6.1823 4.932 -6.4156 -4.932 z" fill="#fff" stroke="#000"/>
<path d="m 241.827 2384.3 v -13.6587" fill="none" stroke="#000"/>
<path d="m 247.885 2384.3 v -13.6587" fill="none" stroke="#000"/>
<path d="m 236.949 2368.12 c 5.4 -1.2175 10.6698 -1.0019 15.8681 0 v 3.967 c -4.7587 -1.274 -10.5787 -1.743 -15.8681 0 z" fill="#fff" stroke="#000"/>
<path d="m 249.869 2387.29 c 0 2.0577 -2.0641 3.7258 -4.6103 3.7258 s -4.6103 -1.6681 -4.6103 -3.7258 2.0641 -3.7258 4.6103 -3.7258 4.6103 1.6681 4.6103 3.7258 z" fill="#fff" stroke="#000" stroke-width=".8693" transform="matrix(1.15061,0,0,1.15003,-37.31366,-359.00044)"/>
<path d="m 241.922 2384.87 2.3542 2.5894 -2.786 -0.37 z"/>
<path d="m 247.792 2384.87 -2.3542 2.5894 2.786 -0.37 z"/>
<path d="m 242.261 2388.58 h 5.0158 v 2.2233 h -5.0158 z" fill="#fff"/>
<path d="m 244.813 2388.17 0.8054 1.5768 h -1.6107 z"/>
<path d="m 244.747 2389.93 v 3.2696" fill="none" stroke="#fff"/>
<path d="m 246.759 2389.6 0.9758 3.3689" fill="none" stroke="#fff"/>
<path d="m 242.763 2389.6 -0.9758 3.3689" fill="none" stroke="#fff"/>
</g>
</svg>
