<svg viewBox="0 0 512 512" xmlns="http://www.w3.org/2000/svg">

<g transform="matrix(18.68858,0,0,18.68858,-9764.98029,-42187.3015)">
<path d="m 541.827 2272.54 5.0552 -2.3574 c 1.6561 -0.9464 -0.0671 -3.0936 -1.639 -2.2311 l -2.7112 1.1751 -2.2267 -3.4479 -3.1983 0.6475 z" fill="#fff"/>
<path d="m 541.102 2268.07 -4.6692 -2.5468 -4.3835 2.5468 c 2.5171 2.6684 2.8164 5.3385 0 8.0099 h 9.0527 c -2.7832 -2.67 -2.1696 -5.34 0 -8.0099 z" fill="#fff"/>
<path d="m 541.313 2279.07 1.8503 4.479 -5.031 -1.5698 z" fill="#fff"/>
<path d="m 531.658 2279.02 -1.8502 4.4791 5.031 -1.5697 z" fill="#fff"/>
<path d="m 527.571 2276.76 c -0.4473 1.6697 2.8663 4.0087 7.4015 5.2238 h 3.3059 c 4.5352 -1.2151 7.8488 -3.5541 7.4015 -5.2238 s -4.4865 -2.0383 -9.0545 -0.8232 c -4.5679 -1.2151 -8.607 -0.8465 -9.0545 0.8232 z" fill="#fff"/>
<path d="m 29.3565 1146.4 c 0 1.4124 -1.145 2.5574 -2.5574 2.5574 s -2.5574 -1.145 -2.5574 -2.5574 1.145 -2.5573 2.5574 -2.5573 2.5574 1.1449 2.5574 2.5573 z" fill="#fff" transform="matrix(-1.51789,0,0,.83069,577.28211,1314.0205)"/>
<path d="m 531.359 2272.54 -5.0552 -2.3574 c -1.6561 -0.9464 0.0671 -3.0936 1.639 -2.2311 l 2.7112 1.1751 2.2267 -3.4479 3.1983 0.6475 z" fill="#fff"/>
<path d="m 29.3565 1146.4 c 0 1.4124 -1.145 2.5574 -2.5574 2.5574 s -2.5574 -1.145 -2.5574 -2.5574 1.145 -2.5573 2.5574 -2.5573 2.5574 1.1449 2.5574 2.5573 z" fill="#fff" stroke="#000" stroke-width=".7662" transform="matrix(-1.14165,0,0,1.49198,567.19912,551.33242)"/>
<path d="m 533.694 2262.16 c 1.9013 -1.1524 3.8683 -1.1078 5.6962 0" fill="none" stroke="#000"/>
<path d="m 536.512 2259.65 v 3.5722" fill="none" stroke="#fff"/>
<path d="m 532.491 2277 12.6232 4.192" fill="none" stroke="#000"/>
<path d="m 529.072 2279.97 c 3.2731 1.7747 5.5711 2.3169 9.1376 2.528" fill="none" stroke="#000"/>
<path d="m 540.493 2277 -4.1451 1.3765" fill="none" stroke="#000"/>
</g>
</svg>
