<svg viewBox="0 0 512 512" xmlns="http://www.w3.org/2000/svg">

<g transform="matrix(18.68858,0,0,18.68858,-9764.98029,-42187.3015)">
<path d="m541.8265,2272.5387 5.0552-2.3574c1.6561-.9464-.0671-3.0936-1.639-2.2311l-2.7112,1.1751-2.2267-3.4479-3.1983.6475z" fill="#fff"/>
<path d="m541.1024,2268.0703-4.6692-2.5468-4.3835,2.5468c2.5171,2.6684 2.8164,5.3385 0,8.0099h9.0527c-2.7832-2.67-2.1696-5.34 0-8.0099z" fill="#fff"/>
<path d="m541.3127,2279.074 1.8503,4.479-5.031-1.5698z" fill="#fff"/>
<path d="m531.6577,2279.0235-1.8502,4.4791 5.031-1.5697z" fill="#fff"/>
<path d="m527.5713,2276.7636c-.4473,1.6697 2.8663,4.0087 7.4015,5.2238h3.3059c4.5352-1.2151 7.8488-3.5541 7.4015-5.2238s-4.4865-2.0383-9.0545-.8232c-4.5679-1.2151-8.607-.8465-9.0545.8232z" fill="#fff"/>
<path d="m29.3565,1146.3989c0,1.4124-1.145,2.5574-2.5574,2.5574s-2.5574-1.145-2.5574-2.5574 1.145-2.5573 2.5574-2.5573 2.5574,1.1449 2.5574,2.5573z" fill="#fff" transform="matrix(-1.51789,0,0,.83069,577.28211,1314.0205)"/>
<path d="m531.3593,2272.5387-5.0552-2.3574c-1.6561-.9464.0671-3.0936 1.639-2.2311l2.7112,1.1751 2.2267-3.4479 3.1983.6475z" fill="#fff"/>
<path d="m29.3565,1146.3989c0,1.4124-1.145,2.5574-2.5574,2.5574s-2.5574-1.145-2.5574-2.5574 1.145-2.5573 2.5574-2.5573 2.5574,1.1449 2.5574,2.5573z" fill="#fff" stroke="#000" stroke-width=".7662" transform="matrix(-1.14165,0,0,1.49198,567.19912,551.33242)"/>
<path d="m533.6945,2262.1638c1.9013-1.1524 3.8683-1.1078 5.6962,0" fill="none" stroke="#000"/>
<path d="m536.5121,2259.6474v3.5722" fill="none" stroke="#fff"/>
<path d="m532.4914,2277.0023 12.6232,4.192" fill="none" stroke="#000"/>
<path d="m529.0716,2279.9706c3.2731,1.7747 5.5711,2.3169 9.1376,2.528" fill="none" stroke="#000"/>
<path d="m540.4927,2277.0023-4.1451,1.3765" fill="none" stroke="#000"/>
</g>
</svg>
