<svg viewBox="0 0 512 512" xmlns="http://www.w3.org/2000/svg">

<path d="m337.1875,633.1747c0,3.8315-3.106,6.9375-6.9375,6.9375s-6.9375-3.106-6.9375-6.9375 3.106-6.9375 6.9375-6.9375 6.9375,3.106 6.9375,6.9375z" fill="#fff" transform="matrix(35.77769,0,0,35.77769,-11560.77381,-22396.03793)"/>
<g stroke="#000">
<path d="m338.875,604.4247c0,4.1076-3.3299,7.4375-7.4375,7.4375s-7.4375-3.3299-7.4375-7.4375 3.3299-7.4375 7.4375-7.4375 7.4375,3.3299 7.4375,7.4375z" fill="none" stroke="#000" stroke-width=".5654" transform="matrix(-28.62648,16.52751,-16.52751,-28.62648,19733.80396,12082.70684)"/>
<path d="m338.875,604.4247c0,4.1076-3.3299,7.4375-7.4375,7.4375s-7.4375-3.3299-7.4375-7.4375 3.3299-7.4375 7.4375-7.4375 7.4375,3.3299 7.4375,7.4375z" fill="none" stroke="#000" stroke-width=".6888" transform="matrix(-19.28521,11.13432,-16.52751,-28.62648,16637.75603,13870.21342)"/>
<path d="m338.875,604.4247c0,4.1076-3.3299,7.4375-7.4375,7.4375s-7.4375-3.3299-7.4375-7.4375 3.3299-7.4375 7.4375-7.4375 7.4375,3.3299 7.4375,7.4375z" fill="none" stroke="#000" stroke-width="1.0605" transform="matrix(-8.13595,4.69729,-16.52751,-28.62648,12942.47214,16003.68675)"/>
<path d="m338.875,604.4247c0,4.1076-3.3299,7.4375-7.4375,7.4375s-7.4375-3.3299-7.4375-7.4375 3.3299-7.4375 7.4375-7.4375 7.4375,3.3299 7.4375,7.4375z" fill="none" stroke="#000" stroke-width=".6888" transform="matrix(11.13432,19.28521,-28.62649,16.52751,13868.49802,-16123.48769)"/>
<path d="m338.875,604.4247c0,4.1076-3.3299,7.4375-7.4375,7.4375-9.9476-2.3539-8.5286-14.6158 0-14.875 4.1076,0 7.4375,3.3299 7.4375,7.4375z" fill="none" stroke="#000" stroke-width="1.0605" transform="matrix(4.69729,8.13595,-28.62649,16.52751,16001.9716,-12428.20338)"/>
</g>
</svg>
