<svg viewBox="0 0 512 512" xmlns="http://www.w3.org/2000/svg">

<g transform="matrix(18.68858,0,0,18.68858,-9079.67177,-25863.38652)">
<path d="m487.5481,1401.5857 1.9817-5.2951 13.5516-7.224 6.5396,3.5554 1.7989,4.7604-15.8839,8.4552z" fill="none" stroke="#fff"/>
<path d="m509.4812,1393.0115-13.3301,7.0562-6.7045-3.549" fill="none" stroke="#fff"/>
<path d="m495.6623,1405.9207 .4143-5.9777" fill="none" stroke="#fff"/>
<path d="m489.4159,1402.6345 3.9255-3.9255 2.4304,1.4032-3.8689,3.8689z" fill="#fff"/>
<path d="m488.1428,1401.8123 3.8592-3.8592" fill="none" stroke="#fff"/>
<path d="m500.8262,1402.7696 4.0658-7.0421 4.1262-2.0833-4.0073,6.9408z" fill="#fff"/>
<path d="m497.5682,1404.6608 4.7655-7.8297" fill="none" stroke="#fff"/>
<path d="m496.0648,1399.8767 13.5355-7.1164-6.5918-3.5082-13.5801,7.1532z" fill="#fff"/>
</g>
</svg>
