<svg viewBox="0 0 512 512" xmlns="http://www.w3.org/2000/svg">

<g transform="matrix(18.68858,0,0,18.68858,-9079.67177,-25863.38652)">
<path d="m 487.548 1401.59 1.9817 -5.2951 13.5516 -7.224 6.5396 3.5554 1.7989 4.7604 -15.8839 8.4552 z" fill="none" stroke="#fff"/>
<path d="m 509.481 1393.01 -13.3301 7.0562 -6.7045 -3.549" fill="none" stroke="#fff"/>
<path d="m 495.662 1405.92 0.4143 -5.9777" fill="none" stroke="#fff"/>
<path d="m 489.416 1402.63 3.9255 -3.9255 2.4304 1.4032 -3.8689 3.8689 z" fill="#fff"/>
<path d="m 488.143 1401.81 3.8592 -3.8592" fill="none" stroke="#fff"/>
<path d="m 500.826 1402.77 4.0658 -7.0421 4.1262 -2.0833 -4.0073 6.9408 z" fill="#fff"/>
<path d="m 497.568 1404.66 4.7655 -7.8297" fill="none" stroke="#fff"/>
<path d="m 496.065 1399.88 13.5355 -7.1164 -6.5918 -3.5082 -13.5801 7.1532 z" fill="#fff"/>
</g>
</svg>
