<svg viewBox="0 0 512 512" xmlns="http://www.w3.org/2000/svg">

<g transform="matrix(18.68858,0,0,18.68858,-2952.29316,-33369.86034)">
<path d="m 175.204 1804.48 c 3.1043 0.9919 7.7862 -1.3062 9.0657 -4.1139 -0.1666 4.3656 -4.0142 7.598 -8.0159 8.1188" fill="#fff"/>
<path d="m 166.267 1800.58 c -0.7391 -4.2228 -0.6225 -11.3069 1.2725 -13.2455 l 1.3756 13.6328" fill="#fff"/>
<path d="m 174.164 1802.63 c 0.1081 -4.7216 1.7764 -11.9398 4.1041 -13.461 l -1.4407 15.0264" fill="#fff"/>
<path d="m 170.048 1800.06 c -0.3669 -5.1338 0.7144 -11.8636 3.0472 -13.3245 -0.6315 5.1074 -0.2977 9.2641 -0.0135 14.5367" fill="#fff"/>
<path d="m 162.899 1801.54 c -1.1496 -3.4878 -1.9565 -8.8936 -0.3889 -11.2525 l 2.8549 11.3853" fill="#fff"/>
<path d="m 175.648 1812.4 h -10.7645 c -2.0695 -3.1857 -4.1449 -11.0753 -1.1502 -11.3699 l 8.7035 -0.8563 c 7.1105 -0.6996 6.0719 8.2692 3.2112 12.2262 z" fill="#fff" stroke="#000"/>
<path d="m 164.278 1795.78 c -0.6693 -2.3633 -1.2704 -4.9208 -1.4804 -6.7226 -1.7165 1.9837 -1.7827 4.5548 -1.4671 7.322" fill="#fff"/>
<path d="m 161.15 1796.47 3.406 -0.8631" fill="none" stroke="#000"/>
<path d="m 168.49 1793.67 c -0.3578 -2.43 -0.6227 -5.0438 -0.5978 -6.8576 -1.9588 1.7448 -2.3573 4.2857 -2.4025 7.0704" fill="#fff"/>
<path d="m 165.234 1794.12 3.7779 -0.4282" fill="none" stroke="#000"/>
<path d="m 173.234 1793.46 c -0.1844 -2.4531 -0.2546 -5.078 -0.0804 -6.8752 -2.2338 1.5049 -2.8661 3.9805 -3.141 6.739" fill="#fff"/>
<path d="m 169.762 1793.14 3.992 0.2041" fill="none" stroke="#000"/>
<path d="m 178.173 1795.4 c 0.0486 -2.3483 0.2066 -5.2594 0.4525 -7.2861 -1.6408 1.7755 -3.2102 4.0338 -3.7246 6.5265" fill="#fff"/>
<path d="m 174.787 1794.65 3.7466 0.8325" fill="none" stroke="#000"/>
<path d="m 180.602 1803.24 c 1.84 -1.2422 3.0537 -2.1252 3.6393 -3.6125 0.6673 2.4054 0.0819 4.4629 -1.8197 6.1547" fill="#fff"/>
<path d="m 180.469 1803.19 2.0873 2.9971" fill="none" stroke="#000"/>
<path d="m 165.871 1803.16 1.5704 9.5525" fill="none" stroke="#000"/>
<path d="m 169.51 1802.78 0.5757 9.7223" fill="none" stroke="#000"/>
<path d="m 173.24 1802.71 -0.5249 9.6844" fill="none" stroke="#000"/>
</g>
</svg>
