<svg viewBox="0 0 512 512" xmlns="http://www.w3.org/2000/svg">

<g transform="matrix(18.68858,0,0,18.68858,-2952.29354,-26546.19388)">
<path d="m 141.847 1435.71 c 0 4.7655 -3.8632 8.6287 -8.6287 8.6287 s -8.6287 -3.8632 -8.6287 -8.6287 3.8632 -8.6286 8.6287 -8.6286 8.6287 3.8632 8.6287 8.6286 z" fill="#fff" stroke="#000" stroke-width=".7465" transform="matrix(1.17262,0,2.5275578e-8,1.53033,13.43214,-763.00891)"/>
<path d="m 141.847 1435.71 c 0 4.7655 -3.8632 8.6287 -8.6287 8.6287 s -8.6287 -3.8632 -8.6287 -8.6287 3.8632 -8.6286 8.6287 -8.6286 8.6287 3.8632 8.6287 8.6286 z" fill="#fff" stroke="#000" stroke-width=".7465" transform="matrix(1.17262,0,2.5275578e-8,1.53033,16.71617,-763.00883)"/>
<path d="m 164.716 1422.27 h 4.0787 l 13.8979 12.5348 0.153 3.7084 -1.9389 3.4916 -16.816 -15.1666 -3.1603 -0.0001"/>
<path d="m 159.398 1429 h 4.4202 l 16.0023 14.433 -1.4094 1.4303 -15.414 -13.9024 -3.911 -0.0001"/>
<path d="m 159.502 1432.57 3.8547 -0.0001 14.1993 12.8067 -1.2506 1.2693 -13.6772 -12.3359 -3.0014 0.0001"/>
<path d="m 168.775 1422.27 -1.2301 -0.0001 c -1.4251 1.1328 -2.7396 2.7157 -3.6207 4.5698 l 0.1591 0.0003 0.6637 0.599 c 0.9781 -2.0569 2.5991 -3.9216 4.2837 -4.9591 z m -4.7257 6.9332 -0.2445 -0.2206 h -0.7265 c -0.1998 0.6491 -0.3651 1.2932 -0.4891 1.9856 h 0.4119 l 0.5241 0.4727 c 0.1269 -0.7911 0.3424 -1.5767 0.5241 -2.2377 z m -0.6639 3.4037 -0.0344 -0.032 h -0.9669 c -0.0583 0.6359 -0.0575 1.1648 -0.0716 1.7341 l 0.3031 -0.0003 0.7108 0.6246 c -0.0887 -0.7203 -0.006 -1.6367 0.0587 -2.3263 z" fill="#fff"/>
<path d="m 181.789 1431.22 c 0.1793 0.9495 0.2739 1.9442 0.2738 2.9684 -6e-05 6.682 -4.0432 12.0986 -9.0306 12.0986" fill="none" stroke="#fff"/>
</g>
</svg>
