<svg viewBox="0 0 512 512" xmlns="http://www.w3.org/2000/svg">

<g transform="matrix(18.68858,0,0,18.68858,-2952.29316,-33369.86034)">
<path d="m175.2043,1804.4833c3.1043.9919 7.7862-1.3062 9.0657-4.1139-.1666,4.3656-4.0142,7.598-8.0159,8.1188" fill="#fff"/>
<path d="m166.2665,1800.5781c-.7391-4.2228-.6225-11.3069 1.2725-13.2455l1.3756,13.6328" fill="#fff"/>
<path d="m174.1644,1802.6323c.1081-4.7216 1.7764-11.9398 4.1041-13.461l-1.4407,15.0264" fill="#fff"/>
<path d="m170.048,1800.0568c-.3669-5.1338.7144-11.8636 3.0472-13.3245-.6315,5.1074-.2977,9.2641-.0135,14.5367" fill="#fff"/>
<path d="m162.8988,1801.5435c-1.1496-3.4878-1.9565-8.8936-.3889-11.2525l2.8549,11.3853" fill="#fff"/>
<path d="m175.6477,1812.3963h-10.7645c-2.0695-3.1857-4.1449-11.0753-1.1502-11.3699l8.7035-.8563c7.1105-.6996 6.0719,8.2692 3.2112,12.2262z" fill="#fff" stroke="#000"/>
<path d="m164.2778,1795.7788c-.6693-2.3633-1.2704-4.9208-1.4804-6.7226-1.7165,1.9837-1.7827,4.5548-1.4671,7.322" fill="#fff"/>
<path d="m161.1497,1796.4748 3.406-.8631" fill="none" stroke="#000"/>
<path d="m168.4905,1793.6729c-.3578-2.43-.6227-5.0438-.5978-6.8576-1.9588,1.7448-2.3573,4.2857-2.4025,7.0704" fill="#fff"/>
<path d="m165.2342,1794.1202 3.7779-.4282" fill="none" stroke="#000"/>
<path d="m173.2337,1793.4576c-.1844-2.4531-.2546-5.078-.0804-6.8752-2.2338,1.5049-2.8661,3.9805-3.141,6.739" fill="#fff"/>
<path d="m169.7625,1793.1362 3.992.2041" fill="none" stroke="#000"/>
<path d="m178.1729,1795.3988c.0486-2.3483.2066-5.2594.4525-7.2861-1.6408,1.7755-3.2102,4.0338-3.7246,6.5265" fill="#fff"/>
<path d="m174.7866,1794.65 3.7466.8325" fill="none" stroke="#000"/>
<path d="m180.6024,1803.2444c1.84-1.2422 3.0537-2.1252 3.6393-3.6125 .6673,2.4054.0819,4.4629-1.8197,6.1547" fill="#fff"/>
<path d="m180.4686,1803.1909 2.0873,2.9971" fill="none" stroke="#000"/>
<path d="m165.8707,1803.1649 1.5704,9.5525" fill="none" stroke="#000"/>
<path d="m169.5101,1802.7811 .5757,9.7223" fill="none" stroke="#000"/>
<path d="m173.2397,1802.7119-.5249,9.6844" fill="none" stroke="#000"/>
</g>
</svg>
