<svg viewBox="0 0 512 512" xmlns="http://www.w3.org/2000/svg">

<g transform="matrix(18.68858,0,0,18.68858,-2952.29354,-26546.19388)">
<path d="m141.8469,1435.7065c0,4.7655-3.8632,8.6287-8.6287,8.6287s-8.6287-3.8632-8.6287-8.6287 3.8632-8.6286 8.6287-8.6286 8.6287,3.8632 8.6287,8.6286z" fill="#fff" stroke="#000" stroke-width=".7465" transform="matrix(1.17262,0,2.5275578e-8,1.53033,13.43214,-763.00891)"/>
<path d="m141.8469,1435.7065c0,4.7655-3.8632,8.6287-8.6287,8.6287s-8.6287-3.8632-8.6287-8.6287 3.8632-8.6286 8.6287-8.6286 8.6287,3.8632 8.6287,8.6286z" fill="#fff" stroke="#000" stroke-width=".7465" transform="matrix(1.17262,0,2.5275578e-8,1.53033,16.71617,-763.00883)"/>
<path d="m164.7162,1422.2706h4.0787l13.8979,12.5348 .153,3.7084-1.9389,3.4916-16.816-15.1666-3.1603-.0001"/>
<path d="m159.398,1428.9997h4.4202l16.0023,14.433-1.4094,1.4303-15.414-13.9024-3.911-.0001"/>
<path d="m159.502,1432.567 3.8547-.0001 14.1993,12.8067-1.2506,1.2693-13.6772-12.3359-3.0014.0001"/>
<path d="m168.7752,1422.272-1.2301-.0001c-1.4251,1.1328-2.7396,2.7157-3.6207,4.5698l.1591.0003 .6637.599c.9781-2.0569 2.5991-3.9216 4.2837-4.9591zm-4.7257,6.9332-.2445-.2206h-.7265c-.1998.6491-.3651,1.2932-.4891,1.9856h.4119l.5241.4727c.1269-.7911.3424-1.5767.5241-2.2377zm-.6639,3.4037-.0344-.032h-.9669c-.0583.6359-.0575,1.1648-.0716,1.7341l.3031-.0003 .7108.6246c-.0887-.7203-.006-1.6367.0587-2.3263z" fill="#fff"/>
<path d="m181.7893,1431.2189c.1793.9495.2739,1.9442.2738,2.9684-6e-05,6.682-4.0432,12.0986-9.0306,12.0986" fill="none" stroke="#fff"/>
</g>
</svg>
