<svg viewBox="0 0 512 512" xmlns="http://www.w3.org/2000/svg">

<g transform="matrix(18.68858,0,0,18.68858,-9078.57746,-37447.33327)">
<path d="m486.8812,2018.0028-2e-05,12.2156 25.2664-.0001 5e-05-13.2517-3.4996.1728 2.6859,2.9103-3.745-1.6999 3.1693,5.9705-5.283-4.5989 2.4997,8.7394-5.457-8.3923-.021,8.6093-2.8867-8.1347-2.6934,8.162-.4377-7.8134-4.1625,7.7867 2.2291-8.0486-6.6127,7.3718 5.1021-8.1223-5.3099,1.8914 5.1416-3.4298z" fill="#fff"/>
<path d="m509.1365,2018.4428 3.554,2.7259" fill="none" stroke="#000"/>
<path d="m508.8701,2021.9116 3.928,4.7352" fill="none" stroke="#000"/>
<path d="m506.6102,2025.4631 2.2599,5.0042" fill="none" stroke="#000"/>
<path d="m501.875,2025.1402 .6993,5.3271" fill="none" stroke="#000"/>
<path d="m497.4087,2025.1402-.6995,5.3271" fill="none" stroke="#000"/>
<path d="m494.1372,2024.2179-2.4322,6.2494" fill="none" stroke="#000"/>
<path d="m491.7816,2022.8045-5.1886,6.3766" fill="none" stroke="#000"/>
<path d="m491.853,2019.7643-5.4213,2.6854" fill="none" stroke="#000"/>
<path d="m495.1542,2015.9379-5.7243-11.8807" fill="none" stroke="#fff"/>
<path d="m505.7009,2011.4373-3.4108-7.4584" fill="none" stroke="#fff"/>
<path d="m503.2701,2011.4375-3.411-7.4586" fill="none" stroke="#fff"/>
<path d="m500.6825,2011.4375-3.4111-7.4587" fill="none" stroke="#fff"/>
<path d="m498.2123,2011.4374-3.4111-7.4587" fill="none" stroke="#fff"/>
<path d="m495.5463,2011.4374-3.411-7.4586" fill="none" stroke="#fff"/>
<path d="m500.4007,2016.4412c0,2.3984-1.9443,4.3427-4.3427,4.3427s-4.3427-1.9443-4.3427-4.3427 1.9443-4.3427 4.3427-4.3427 4.3427,1.9443 4.3427,4.3427z" fill="#fff" stroke="#fff" stroke-width=".7586" transform="matrix(0,1.31834,1.31812,1.2124637e-8,-2157.623,1359.3793)"/>
<path d="m487.2052,2004.2272h20.2562" fill="none" stroke="#000"/>
</g>
</svg>
