<svg viewBox="0 0 512 512" xmlns="http://www.w3.org/2000/svg">

<g transform="matrix(18.68858,0,0,18.68858,-9078.57746,-37447.33327)">
<path d="m 486.881 2018 -2e-05 12.2156 25.2664 -0.0001 5e-05 -13.2517 -3.4996 0.1728 2.6859 2.9103 -3.745 -1.6999 3.1693 5.9705 -5.283 -4.5989 2.4997 8.7394 -5.457 -8.3923 -0.021 8.6093 -2.8867 -8.1347 -2.6934 8.162 -0.4377 -7.8134 -4.1625 7.7867 2.2291 -8.0486 -6.6127 7.3718 5.1021 -8.1223 -5.3099 1.8914 5.1416 -3.4298 z" fill="#fff"/>
<path d="m 509.137 2018.44 3.554 2.7259" fill="none" stroke="#000"/>
<path d="m 508.87 2021.91 3.928 4.7352" fill="none" stroke="#000"/>
<path d="m 506.61 2025.46 2.2599 5.0042" fill="none" stroke="#000"/>
<path d="m 501.875 2025.14 0.6993 5.3271" fill="none" stroke="#000"/>
<path d="m 497.409 2025.14 -0.6995 5.3271" fill="none" stroke="#000"/>
<path d="m 494.137 2024.22 -2.4322 6.2494" fill="none" stroke="#000"/>
<path d="m 491.782 2022.8 -5.1886 6.3766" fill="none" stroke="#000"/>
<path d="m 491.853 2019.76 -5.4213 2.6854" fill="none" stroke="#000"/>
<path d="m 495.154 2015.94 -5.7243 -11.8807" fill="none" stroke="#fff"/>
<path d="m 505.701 2011.44 -3.4108 -7.4584" fill="none" stroke="#fff"/>
<path d="m 503.27 2011.44 -3.411 -7.4586" fill="none" stroke="#fff"/>
<path d="m 500.683 2011.44 -3.4111 -7.4587" fill="none" stroke="#fff"/>
<path d="m 498.212 2011.44 -3.4111 -7.4587" fill="none" stroke="#fff"/>
<path d="m 495.546 2011.44 -3.411 -7.4586" fill="none" stroke="#fff"/>
<path d="m 500.401 2016.44 c 0 2.3984 -1.9443 4.3427 -4.3427 4.3427 s -4.3427 -1.9443 -4.3427 -4.3427 1.9443 -4.3427 4.3427 -4.3427 4.3427 1.9443 4.3427 4.3427 z" fill="#fff" stroke="#fff" stroke-width=".7586" transform="matrix(0,1.31834,1.31812,1.2124637e-8,-2157.623,1359.3793)"/>
<path d="m 487.205 2004.23 h 20.2562" fill="none" stroke="#000"/>
</g>
</svg>
