<svg viewBox="0 0 512 512" xmlns="http://www.w3.org/2000/svg">

<g transform="matrix(-18.68858,0,0,18.68858,7550.4892,-26544.86998)">
<path d="m 377.705 1429.76 21.2119 -5.6837" fill="none" stroke="#fff"/>
<path d="m 381.421 1443.62 21.2119 -5.6837" fill="none" stroke="#fff"/>
<path d="m -3.9034 1492.06 h 18.9789 v 2.2856 h -18.9789 z" fill="#fff" transform="matrix(.96594,-.25875,.25894,.96589,0,0)"/>
<path d="m 380.193 1439.04 21.2119 -5.6839" fill="none" stroke="#fff"/>
<path d="m 378.949 1434.4 21.2119 -5.6838" fill="none" stroke="#fff"/>
<path d="m -3.9028 1487.3 h 18.9789 v 2.2856 h -18.9789 z" fill="#fff" transform="matrix(.96594,-.25875,.25894,.96589,0,0)"/>
<path d="m -3.9022 1482.43 h 18.9789 v 2.2856 h -18.9789 z" fill="#fff" transform="matrix(.96594,-.25875,.25894,.96589,0,0)"/>
<path d="m -3.9016 1477.61 h 18.9789 v 2.2856 h -18.9789 z" fill="#fff" transform="matrix(.96594,-.25875,.25894,.96589,0,0)"/>
<path d="m -1.4285 1476.72 h 14.1173 v 18.5557 h -14.1173 z" stroke="#fff" transform="matrix(.96595,-.25873,.25891,.9659,0,0)"/>
<path d="m 383.452 1427.61 3.8631 14.4174 9.8645 -2.6432" fill="none" stroke="#fff"/>
</g>
</svg>
