<svg viewBox="0 0 512 512" xmlns="http://www.w3.org/2000/svg">

<g transform="matrix(-18.68858,0,0,18.68858,7550.4892,-26544.86998)">
<path d="m377.7053,1429.7611 21.2119-5.6837" fill="none" stroke="#fff"/>
<path d="m381.4214,1443.6245 21.2119-5.6837" fill="none" stroke="#fff"/>
<path d="m-3.9034,1492.0637h18.9789v2.2856h-18.9789z" fill="#fff" transform="matrix(.96594,-.25875,.25894,.96589,0,0)"/>
<path d="m380.1933,1439.0431 21.2119-5.6839" fill="none" stroke="#fff"/>
<path d="m378.9493,1434.4022 21.2119-5.6838" fill="none" stroke="#fff"/>
<path d="m-3.9028,1487.2979h18.9789v2.2856h-18.9789z" fill="#fff" transform="matrix(.96594,-.25875,.25894,.96589,0,0)"/>
<path d="m-3.9022,1482.4272h18.9789v2.2856h-18.9789z" fill="#fff" transform="matrix(.96594,-.25875,.25894,.96589,0,0)"/>
<path d="m-3.9016,1477.609h18.9789v2.2856h-18.9789z" fill="#fff" transform="matrix(.96594,-.25875,.25894,.96589,0,0)"/>
<path d="m-1.4285,1476.7152h14.1173v18.5557h-14.1173z" stroke="#fff" transform="matrix(.96595,-.25873,.25891,.9659,0,0)"/>
<path d="m383.4517,1427.6139 3.8631,14.4174 9.8645-2.6432" fill="none" stroke="#fff"/>
</g>
</svg>
