<svg viewBox="0 0 512 512" xmlns="http://www.w3.org/2000/svg">

<g transform="matrix(18.68858,0,0,18.68858,-12483.27322,-21806.17134)">
<g transform="matrix(1.53389,0,0,1.53389,-366.24037,-634.96996)">
<path d="m 681.509 1179.94 c -2.5318 0.4806 -2.7232 4.7857 -2.7232 7.8079 h 1.7557 5.3389 1.6662 c 0 -3.0307 0.0603 -7.4115 -2.7053 -7.8441 -0.983 -0.1953 -2.4221 -0.1421 -3.3323 0.036 z" fill="#fff" fill-rule="evenodd" stroke="#000" stroke-width=".6519"/>
<path d="m 675.469 1179.67 c 0 1.2599 -0.7205 2.2812 -1.6094 2.2812 s -1.6094 -1.0213 -1.6094 -2.2812 0.7205 -2.2813 1.6094 -2.2813 1.6094 1.0214 1.6094 2.2813 z" fill="#fff" stroke="#000" stroke-width=".4731" transform="matrix(1.47048,0,0,1.29115,-307.76969,-345.12944)"/>
</g>
<path d="m 672.938 1183.06 c -0.5964 0.011 -1.2011 0.067 -1.6562 0.1563 -2.5318 0.4806 -2.7188 4.7903 -2.7188 7.8125 h 1.75 l 0.2188 2.7812 h 4.9375 l 0.1875 -2.7812 h 1.6875 c 1e-05 -3.0308 0.0468 -7.4112 -2.7188 -7.8438 -0.4915 -0.098 -1.0911 -0.1362 -1.6875 -0.125 z" fill="#fff" fill-rule="evenodd" stroke="#000"/>
<path d="m 675.469 1179.67 c 0 1.2599 -0.7205 2.2812 -1.6094 2.2812 s -1.6094 -1.0213 -1.6094 -2.2812 0.7205 -2.2813 1.6094 -2.2813 1.6094 1.0214 1.6094 2.2813 z" fill="#fff" stroke="#000" stroke-width=".7257" transform="matrix(1.47048,0,0,1.29115,-318.12087,-341.85907)"/>
<path d="m 690.5 1183.06 c -0.5964 0.011 -1.2011 0.067 -1.6562 0.1563 -2.5318 0.4806 -2.7188 4.7903 -2.7188 7.8125 h 1.75 l 0.2188 2.7812 h 4.9375 l 0.1875 -2.7812 h 1.6562 c -2e-05 -3.0308 0.0781 -7.4112 -2.6875 -7.8438 -0.4915 -0.098 -1.0911 -0.1362 -1.6875 -0.125 z" fill="#fff" fill-rule="evenodd" stroke="#000"/>
<path d="m 675.469 1179.67 c 0 1.2599 -0.7205 2.2812 -1.6094 2.2812 s -1.6094 -1.0213 -1.6094 -2.2812 0.7205 -2.2813 1.6094 -2.2813 1.6094 1.0214 1.6094 2.2813 z" fill="#fff" stroke="#000" stroke-width=".7257" transform="matrix(1.47048,0,0,1.29115,-300.34507,-341.85907)"/>
<path d="m 681.688 1183.06 c -0.5964 0.011 -1.1699 0.067 -1.625 0.1563 -2.5317 0.4806 -2.7188 4.7903 -2.7188 7.8125 h 1.75 l 0.2188 2.7812 h 4.9375 l 0.1875 -2.7812 h 1.6562 c 3e-05 -3.0308 0.0468 -7.4112 -2.7188 -7.8438 -0.4915 -0.098 -1.0911 -0.1362 -1.6875 -0.125 z" fill="#fff" fill-rule="evenodd" stroke="#000"/>
<path d="m 675.469 1179.67 c 0 1.2599 -0.7205 2.2812 -1.6094 2.2812 s -1.6094 -1.0213 -1.6094 -2.2812 0.7205 -2.2813 1.6094 -2.2813 1.6094 1.0214 1.6094 2.2813 z" fill="#fff" stroke="#000" stroke-width=".7257" transform="matrix(1.47048,0,0,1.29115,-309.2271,-341.85907)"/>
<path d="m 680.375 1170.73 v 2.4465" fill="none" stroke="#000"/>
<path d="m 682.719 1170.73 v 2.4465" fill="none" stroke="#000"/>
<path d="m 679.176 1181.37 h 4.9497 m 4.1985 0 h 4.2868 m -21.9203 0 h 4.2426" fill="none" stroke="#000"/>
<path d="m 670.812 1193.49 v -5.6875" fill="none" stroke="#000"/>
<path d="m 675.125 1193.49 v -5.6875" fill="none" stroke="#000"/>
<path d="m 679.607 1193.49 v -5.6875" fill="none" stroke="#000"/>
<path d="m 683.92 1193.49 v -5.6875" fill="none" stroke="#000"/>
<path d="m 688.357 1193.49 v -5.6875" fill="none" stroke="#000"/>
<path d="m 692.67 1193.49 v -5.6875" fill="none" stroke="#000"/>
<path d="m 672.733 1180.2 v 2.6976" fill="none" stroke="#fff"/>
<path d="m 681.622 1180.2 v 2.6976" fill="none" stroke="#fff"/>
<path d="m 690.512 1180.2 v 2.6976" fill="none" stroke="#fff"/>
</g>
</svg>
