<svg viewBox="0 0 512 512" xmlns="http://www.w3.org/2000/svg">
<path d="m0,0h512v512h-512z"/>
<g transform="matrix(18.68858,0,0,18.68858,-6355.89148,-22489.09317)">
<path d="m342.3281,1230.1111h24.6604v-25.1906l-4.2346,4.6325 1.6086,6.7193-2.9483.4697-1.0379,4.3144 3.933,2.0941-2.2066,2.993 1.5862,2.3556-4.7501-1.478 .8821-2.3467-4.1026-1.8111 .7023-4.5236-5.9606,3.1094-.226,4.1873-6.0032-1.4801-1.9026,5.9548z" fill="#fff" fill-rule="evenodd"/>
<path d="m367.0499,1203.9572v26.2722h-25.437" fill="none" stroke="#000"/>
<path d="m359.6041,1215.344 1.4678-4.5348h-1.9665l.4987,4.5323z" fill="#fff" fill-rule="evenodd"/>
<path d="m355.9216,1217.1379-4.9596-.3947 1.0788-1.9227 3.8807,2.3174z" fill="#fff" fill-rule="evenodd"/>
<path d="m344.8435,1204.4394c5.72,3.4431 9.9922,8.045 13.363,13.3683 .3308-7.0363-7.0606-14.5883-13.363-13.3683z" fill="#fff" fill-rule="evenodd"/>
<path d="m350.5861,1209.5025c.7656.6392 1.4599,1.3258 2.0686,2.0694l-9.7094,9.7133c-1.2457-.2787-1.7936-1.1286-2.0686-2.0695l9.7094-9.7132z" fill="#fff" stroke="#000"/>
<path d="m354.1562,1208.7684c0,.7594-.7415,1.375-1.6562,1.375s-1.6562-.6156-1.6562-1.375 .7415-1.375 1.6562-1.375 1.6562.6156 1.6562,1.375z" fill="#fff" stroke="#000" stroke-width=".9604" transform="matrix(.73623,.73627,-.73623,.73627,984.79238,58.07061)"/>
</g>
</svg>
