<svg viewBox="0 0 512 512" xmlns="http://www.w3.org/2000/svg">

<g transform="matrix(18.68858,0,0,18.68858,-6355.89148,-22489.09317)">
<path d="m 342.328 1230.11 h 24.6604 v -25.1906 l -4.2346 4.6325 1.6086 6.7193 -2.9483 0.4697 -1.0379 4.3144 3.933 2.0941 -2.2066 2.993 1.5862 2.3556 -4.7501 -1.478 0.8821 -2.3467 -4.1026 -1.8111 0.7023 -4.5236 -5.9606 3.1094 -0.226 4.1873 -6.0032 -1.4801 -1.9026 5.9548 z" fill="#fff" fill-rule="evenodd"/>
<path d="m 367.05 1203.96 v 26.2722 h -25.437" fill="none" stroke="#000"/>
<path d="m 359.604 1215.34 1.4678 -4.5348 h -1.9665 l 0.4987 4.5323 z" fill="#fff" fill-rule="evenodd"/>
<path d="m 355.922 1217.14 -4.9596 -0.3947 1.0788 -1.9227 3.8807 2.3174 z" fill="#fff" fill-rule="evenodd"/>
<path d="m 344.844 1204.44 c 5.72 3.4431 9.9922 8.045 13.363 13.3683 0.3308 -7.0363 -7.0606 -14.5883 -13.363 -13.3683 z" fill="#fff" fill-rule="evenodd"/>
<path d="m 350.586 1209.5 c 0.7656 0.6392 1.4599 1.3258 2.0686 2.0694 l -9.7094 9.7133 c -1.2457 -0.2787 -1.7936 -1.1286 -2.0686 -2.0695 l 9.7094 -9.7132 z" fill="#fff" stroke="#000"/>
<path d="m 354.156 1208.77 c 0 0.7594 -0.7415 1.375 -1.6562 1.375 s -1.6562 -0.6156 -1.6562 -1.375 0.7415 -1.375 1.6562 -1.375 1.6562 0.6156 1.6562 1.375 z" fill="#fff" stroke="#000" stroke-width=".9604" transform="matrix(.73623,.73627,-.73623,.73627,984.79238,58.07061)"/>
</g>
</svg>
