<svg viewBox="0 0 512 512" xmlns="http://www.w3.org/2000/svg">

<g transform="matrix(18.68858,0,0,18.68858,-12483.27322,-21806.17134)">
<g transform="matrix(1.53389,0,0,1.53389,-366.24037,-634.96996)">
<path d="m681.5094,1179.939c-2.5318.4806-2.7232,4.7857-2.7232,7.8079h1.7557 5.3389 1.6662c0-3.0307.0603-7.4115-2.7053-7.8441-.983-.1953-2.4221-.1421-3.3323.036z" fill="#fff" fill-rule="evenodd" stroke="#000" stroke-width=".6519"/>
<path d="m675.4687,1179.6747c0,1.2599-.7205,2.2812-1.6094,2.2812s-1.6094-1.0213-1.6094-2.2812 .7205-2.2813 1.6094-2.2813 1.6094,1.0214 1.6094,2.2813z" fill="#fff" stroke="#000" stroke-width=".4731" transform="matrix(1.47048,0,0,1.29115,-307.76969,-345.12944)"/>
</g>
<path d="m672.9375,1183.0625c-.5964.011-1.2011.067-1.6562.1563-2.5318.4806-2.7188,4.7903-2.7188,7.8125h1.75l.2188,2.7812h4.9375l.1875-2.7812h1.6875c1e-05-3.0308.0468-7.4112-2.7188-7.8438-.4915-.098-1.0911-.1362-1.6875-.125z" fill="#fff" fill-rule="evenodd" stroke="#000"/>
<path d="m675.4687,1179.6747c0,1.2599-.7205,2.2812-1.6094,2.2812s-1.6094-1.0213-1.6094-2.2812 .7205-2.2813 1.6094-2.2813 1.6094,1.0214 1.6094,2.2813z" fill="#fff" stroke="#000" stroke-width=".7257" transform="matrix(1.47048,0,0,1.29115,-318.12087,-341.85907)"/>
<path d="m690.5,1183.0625c-.5964.011-1.2011.067-1.6562.1563-2.5318.4806-2.7188,4.7903-2.7188,7.8125h1.75l.2188,2.7812h4.9375l.1875-2.7812h1.6562c-2e-05-3.0308.0781-7.4112-2.6875-7.8438-.4915-.098-1.0911-.1362-1.6875-.125z" fill="#fff" fill-rule="evenodd" stroke="#000"/>
<path d="m675.4687,1179.6747c0,1.2599-.7205,2.2812-1.6094,2.2812s-1.6094-1.0213-1.6094-2.2812 .7205-2.2813 1.6094-2.2813 1.6094,1.0214 1.6094,2.2813z" fill="#fff" stroke="#000" stroke-width=".7257" transform="matrix(1.47048,0,0,1.29115,-300.34507,-341.85907)"/>
<path d="m681.6875,1183.0625c-.5964.011-1.1699.067-1.625.1563-2.5317.4806-2.7188,4.7903-2.7188,7.8125h1.75l.2188,2.7812h4.9375l.1875-2.7812h1.6562c3e-05-3.0308.0468-7.4112-2.7188-7.8438-.4915-.098-1.0911-.1362-1.6875-.125z" fill="#fff" fill-rule="evenodd" stroke="#000"/>
<path d="m675.4687,1179.6747c0,1.2599-.7205,2.2812-1.6094,2.2812s-1.6094-1.0213-1.6094-2.2812 .7205-2.2813 1.6094-2.2813 1.6094,1.0214 1.6094,2.2813z" fill="#fff" stroke="#000" stroke-width=".7257" transform="matrix(1.47048,0,0,1.29115,-309.2271,-341.85907)"/>
<path d="m680.3749,1170.7326v2.4465" fill="none" stroke="#000"/>
<path d="m682.7187,1170.7326v2.4465" fill="none" stroke="#000"/>
<path d="m679.176,1181.365h4.9497m4.1985,0h4.2868m-21.9203,0h4.2426" fill="none" stroke="#000"/>
<path d="m670.8124,1193.4872v-5.6875" fill="none" stroke="#000"/>
<path d="m675.1249,1193.4872v-5.6875" fill="none" stroke="#000"/>
<path d="m679.6071,1193.4872v-5.6875" fill="none" stroke="#000"/>
<path d="m683.9196,1193.4872v-5.6875" fill="none" stroke="#000"/>
<path d="m688.3575,1193.4872v-5.6875" fill="none" stroke="#000"/>
<path d="m692.67,1193.4872v-5.6875" fill="none" stroke="#000"/>
<path d="m672.7332,1180.2033v2.6976" fill="none" stroke="#fff"/>
<path d="m681.6224,1180.2033v2.6976" fill="none" stroke="#fff"/>
<path d="m690.5117,1180.2033v2.6976" fill="none" stroke="#fff"/>
</g>
</svg>
