<svg viewBox="0 0 512 512" xmlns="http://www.w3.org/2000/svg">

<g transform="matrix(18.68858,0,0,18.68858,-11801.76607,-15890.35085)">
<path d="m636.4836,860.7541c3.6068.6358 6.4106,4.8129 6.5,8.8025h2.1875 .25 2.1875c.0894-3.9896 2.8932-8.1668 6.5-8.8025h-8.6875-.25-8.6875z" fill="#fff"/>
<g transform="matrix(1,0,0,-1.2784,349.25409,1369.662)">
<path d="m291.2124,391.184c-10.3605,2.1886-12.5234,11.217 4.9164,10.0573v-6.1426c-6.8498,4.918-9.683,2.0276-7.2552-1.5277 1.9888,1.8795 4.5226-.7356 2.3388-2.387z" fill="#fff"/>
<path d="m300.8716,391.184c10.3605,2.1886 12.5234,11.217-4.9164,10.0573v-6.1426c6.8498,4.918 9.683,2.0276 7.2552-1.5277-1.9888,1.8795-4.5226-.7356-2.3388-2.387z" fill="#fff"/>
</g>
<path d="m648.6104,857.7855c0,2.115-1.4848,4.6387-3.3143,4.6387s-3.3143-2.5238-3.3143-4.6387 1.4848-3.0242 3.3143-3.0242 3.3143.9092 3.3143,3.0242z" fill="#fff" stroke="#000"/>
<path d="m645.3188,868.5143c-2.7664,0-5.5329,4.2347-5.5329,4.2347l1.4097,2.0746-2.2104,1.2589h4.3953c-2.1678-2.1683-.6295-4.6074 1.9383-4.6074 2.603,0 3.9647,2.5807 1.9383,4.6074h4.35l-2.165-1.2589 1.4097-2.0746c0,0-2.7665-4.2347-5.5329-4.2347z" fill="#fff"/>
<path d="m637.3819,851.2826c-.2015.4823-.1562.8514-.1562,1.5 0,1.4445 1.2882,2.5905 2.8125,2.8125 3.3048.4812 7.0077.4812 10.3125,0 1.5243-.2219 2.7541-1.2692 2.8125-2.8125 .0197-.5203-.0866-1.0029-.1562-1.5-.1575,1.4828-1.4022,2.444-2.9062,2.6562-3.2016.4518-6.6109.4518-9.8125,0-1.504-.2122-2.7487-1.1734-2.9062-2.6562z" fill="#fff"/>
</g>
</svg>
