<svg viewBox="0 0 512 512" xmlns="http://www.w3.org/2000/svg">

<g transform="matrix(18.68858,0,0,18.68858,-11801.76607,-15890.35085)">
<path d="m 636.484 860.754 c 3.6068 0.6358 6.4106 4.8129 6.5 8.8025 h 2.1875 0.25 2.1875 c 0.0894 -3.9896 2.8932 -8.1668 6.5 -8.8025 h -8.6875 -0.25 -8.6875 z" fill="#fff"/>
<g transform="matrix(1,0,0,-1.2784,349.25409,1369.662)">
<path d="m 291.212 391.184 c -10.3605 2.1886 -12.5234 11.217 4.9164 10.0573 v -6.1426 c -6.8498 4.918 -9.683 2.0276 -7.2552 -1.5277 1.9888 1.8795 4.5226 -0.7356 2.3388 -2.387 z" fill="#fff"/>
<path d="m 300.872 391.184 c 10.3605 2.1886 12.5234 11.217 -4.9164 10.0573 v -6.1426 c 6.8498 4.918 9.683 2.0276 7.2552 -1.5277 -1.9888 1.8795 -4.5226 -0.7356 -2.3388 -2.387 z" fill="#fff"/>
</g>
<path d="m 648.61 857.785 c 0 2.115 -1.4848 4.6387 -3.3143 4.6387 s -3.3143 -2.5238 -3.3143 -4.6387 1.4848 -3.0242 3.3143 -3.0242 3.3143 0.9092 3.3143 3.0242 z" fill="#fff" stroke="#000"/>
<path d="m 645.319 868.514 c -2.7664 0 -5.5329 4.2347 -5.5329 4.2347 l 1.4097 2.0746 -2.2104 1.2589 h 4.3953 c -2.1678 -2.1683 -0.6295 -4.6074 1.9383 -4.6074 2.603 0 3.9647 2.5807 1.9383 4.6074 h 4.35 l -2.165 -1.2589 1.4097 -2.0746 c 0 0 -2.7665 -4.2347 -5.5329 -4.2347 z" fill="#fff"/>
<path d="m 637.382 851.283 c -0.2015 0.4823 -0.1562 0.8514 -0.1562 1.5 0 1.4445 1.2882 2.5905 2.8125 2.8125 3.3048 0.4812 7.0077 0.4812 10.3125 0 1.5243 -0.2219 2.7541 -1.2692 2.8125 -2.8125 0.0197 -0.5203 -0.0866 -1.0029 -0.1562 -1.5 -0.1575 1.4828 -1.4022 2.444 -2.9062 2.6562 -3.2016 0.4518 -6.6109 0.4518 -9.8125 0 -1.504 -0.2122 -2.7487 -1.1734 -2.9062 -2.6562 z" fill="#fff"/>
</g>
</svg>
