<svg viewBox="0 0 512 512" xmlns="http://www.w3.org/2000/svg">

<g transform="matrix(18.68858,0,0,18.68858,-6361.55583,-39462.46462)">
<path d="m 361.807 2137.87 -13.3516 -23.1513" fill="none" stroke="#fff"/>
<path d="m 2019.34 753.418 h 6.7493 v 2.419 h -6.7493 z" fill="#fff" transform="matrix(.49958,.86627,-.86579,.50042,0,0)"/>
<path d="m 2010.83 752.629 h 11.1531 v 3.9973 h -11.1531 z" stroke="#fff" transform="matrix(.49958,.86627,-.86579,.50042,0,0)"/>
<path d="m 361.246 2125.77 c 0 1.3626 -1.1046 2.4672 -2.4672 2.4672 s -2.4672 -1.1046 -2.4672 -2.4672 1.1046 -2.4671 2.4672 -2.4671 2.4672 1.1046 2.4672 2.4671 z" stroke="#fff" stroke-width="1.5262" transform="matrix(.3786,.65648,-.65576,.37902,1612.86573,1076.43426)"/>
<path d="m 349.433 2113.47 -2.8699 1.6587" fill="none" stroke="#fff"/>
<path d="m 752.471 -2005.7 h 4.1746 v 1.4978 h -4.1746 z" fill="#fff" transform="matrix(-.86579,.50042,-.49958,-.86627,0,0)"/>
<path d="m 357.195 2123.19 1.5046 -6.9775 0.4788 5.2106 2.8284 -4.0536 0.2286 3.3742 4.5031 -1.5105 -3.9936 3.7917 2.6058 2.0651 -4.5554 0.4058 4.5044 2.8805 -5.3274 -0.6855 z" fill="#fff"/>
<path d="m 354.123 2131.58 -1.4613 4.7882 -1.4083 -3.7766 -3.4176 4.183 0.2405 -4.4293 -5.8682 1.3492 5.1901 -4.3463 -4.3439 -2.3511 5.4558 -0.2553 -2.3771 -2.1792 4.6143 1.1195 z" fill="#fff"/>
<path d="m 350.288 2124.05 4.4106 7.6495" fill="none" stroke="#000"/>
<path d="m 355.866 2121.46 4.4106 7.6492" fill="none" stroke="#000"/>
<path d="m 361.246 2125.77 c 0 1.3626 -1.1046 2.4672 -2.4672 2.4672 s -2.4672 -1.1046 -2.4672 -2.4672 1.1046 -2.4671 2.4672 -2.4671 2.4672 1.1046 2.4672 2.4671 z" stroke="#fff" stroke-width="1.5262" transform="matrix(.3786,.65648,-.65576,.37902,1605.92464,1080.04664)"/>
<path d="m 358.834 2137.53 4.2393 0.6936" fill="none" stroke="#000"/>
</g>
</svg>
