<svg viewBox="0 0 512 512" xmlns="http://www.w3.org/2000/svg">

<g transform="matrix(18.68858,0,0,18.68858,-6361.55583,-39462.46462)">
<path d="m361.8071,2137.8738-13.3516-23.1513" fill="none" stroke="#fff"/>
<path d="m2019.3394,753.4182h6.7493v2.419h-6.7493z" fill="#fff" transform="matrix(.49958,.86627,-.86579,.50042,0,0)"/>
<path d="m2010.8293,752.629h11.1531v3.9973h-11.1531z" stroke="#fff" transform="matrix(.49958,.86627,-.86579,.50042,0,0)"/>
<path d="m361.2461,2125.769c0,1.3626-1.1046,2.4672-2.4672,2.4672s-2.4672-1.1046-2.4672-2.4672 1.1046-2.4671 2.4672-2.4671 2.4672,1.1046 2.4672,2.4671z" stroke="#fff" stroke-width="1.5262" transform="matrix(.3786,.65648,-.65576,.37902,1612.86573,1076.43426)"/>
<path d="m349.4326,2113.4673-2.8699,1.6587" fill="none" stroke="#fff"/>
<path d="m752.4711-2005.6956h4.1746v1.4978h-4.1746z" fill="#fff" transform="matrix(-.86579,.50042,-.49958,-.86627,0,0)"/>
<path d="m357.1954,2123.1942 1.5046-6.9775 .4788,5.2106 2.8284-4.0536 .2286,3.3742 4.5031-1.5105-3.9936,3.7917 2.6058,2.0651-4.5554.4058 4.5044,2.8805-5.3274-.6855z" fill="#fff"/>
<path d="m354.1225,2131.5754-1.4613,4.7882-1.4083-3.7766-3.4176,4.183 .2405-4.4293-5.8682,1.3492 5.1901-4.3463-4.3439-2.3511 5.4558-.2553-2.3771-2.1792 4.6143,1.1195z" fill="#fff"/>
<path d="m350.2876,2124.0512 4.4106,7.6495" fill="none" stroke="#000"/>
<path d="m355.8657,2121.456 4.4106,7.6492" fill="none" stroke="#000"/>
<path d="m361.2461,2125.769c0,1.3626-1.1046,2.4672-2.4672,2.4672s-2.4672-1.1046-2.4672-2.4672 1.1046-2.4671 2.4672-2.4671 2.4672,1.1046 2.4672,2.4671z" stroke="#fff" stroke-width="1.5262" transform="matrix(.3786,.65648,-.65576,.37902,1605.92464,1080.04664)"/>
<path d="m358.8337,2137.5344 4.2393.6936" fill="none" stroke="#000"/>
</g>
</svg>
