<svg viewBox="0 0 512 512" xmlns="http://www.w3.org/2000/svg">

<g transform="matrix(18.68858,0,0,18.68858,-5276.47897,-2847.142)">
<path d="m 301.812 157.612 v 9.125" fill="none" stroke="#000"/>
<path d="m 288.013 158.664 8.0785 -2.5993 8.0816 2.5993 c 0 9.2236 -1.4317 15.6642 -8.0846 17.6352 -6.4578 -1.9132 -8.0754 -8.4369 -8.0754 -17.6352 z" fill="none" stroke="#000"/>
<path d="m 296.125 152.938 c -2.9565 0 -5.6787 1.3019 -7.8991 3.5032 h 15.7982 c -2.2203 -2.2013 -4.9426 -3.5032 -7.8991 -3.5032 z m -7.8991 22.9231 c 2.2186 2.1955 4.9469 3.5032 7.8991 3.5032 s 5.6805 -1.3077 7.8991 -3.5032 h -15.7982 z" fill="#fff" stroke="#000"/>
<path d="m 287.983 155.8 h 16.2843 v 20.6875 h -16.2843 z" fill="#fff" stroke="#fff"/>
<path d="m 289.428 157.357 h 13.3996 v 17.6142 h -13.3996 z" fill="#fff" stroke="#000"/>
<path d="m 289.428 157.357 h 13.3996 v 17.6142 h -13.3996 z" fill="#fff" stroke="#000"/>
<path d="m 297.312 157.344 -7.875 6.75 v 3.375 l 11.8125 -10.125 h -3.9375 z m 5.5 1.6875 -13.375 11.4688 v 4.4688 h 1.6562 l 11.7188 -10.0312 v -5.9062 z"/>
<path d="m 294.236 175.064 8.6402 -7.2706" fill="none" stroke="#000"/>
</g>
</svg>
