<svg viewBox="0 0 512 512" xmlns="http://www.w3.org/2000/svg">

<g transform="matrix(18.68858,0,0,18.68858,-5276.47897,-2847.142)">
<path d="m301.8125,157.6121v9.125" fill="none" stroke="#000"/>
<path d="m288.013,158.6643 8.0785-2.5993 8.0816,2.5993c0,9.2236-1.4317,15.6642-8.0846,17.6352-6.4578-1.9132-8.0754-8.4369-8.0754-17.6352z" fill="none" stroke="#000"/>
<path d="m296.125,152.9375c-2.9565,0-5.6787,1.3019-7.8991,3.5032h15.7982c-2.2203-2.2013-4.9426-3.5032-7.8991-3.5032zm-7.8991,22.9231c2.2186,2.1955 4.9469,3.5032 7.8991,3.5032s5.6805-1.3077 7.8991-3.5032h-15.7982z" fill="#fff" stroke="#000"/>
<path d="m287.9829,155.7996h16.2843v20.6875h-16.2843z" fill="#fff" stroke="#fff"/>
<path d="m289.4277,157.3565h13.3996v17.6142h-13.3996z" fill="#fff" stroke="#000"/>
<path d="m289.4277,157.3565h13.3996v17.6142h-13.3996z" fill="#fff" stroke="#000"/>
<path d="m297.3125,157.3438-7.875,6.75v3.375l11.8125-10.125h-3.9375zm5.5,1.6875-13.375,11.4688v4.4688h1.6562l11.7188-10.0312v-5.9062z"/>
<path d="m294.2364,175.0643 8.6402-7.2706" fill="none" stroke="#000"/>
</g>
</svg>
