<svg viewBox="0 0 512 512" xmlns="http://www.w3.org/2000/svg">

<g transform="matrix(18.68858,0,0,18.68858,-4314.16363,-36086.35197)">
<path d="m250.1219,1943.4551c-4.1351-5.9292-12.0191-10.8389-16.9538-12.1252" fill="none" stroke="#fff"/>
<path d="m257.0799,1955.5556c-3.2536-1.554-5.4333-4.6773-5.8383-8.1712l1.6809-.9705c2.8391,2.0921 4.4509,5.5267 4.1574,9.1417z" fill="#fff"/>
<path d="m250.9079,1946.4098c-1.2419-1.0155-1.8543-2.5807-1.5798-4.2889 1.628.6148 2.6709,1.9269 2.9245,3.5126-.3422-.4168-.8011-.737-1.4231-.9122-.1564.6228-.1124,1.1837.0783,1.6885z" fill="#fff"/>
<path d="m254.4921,1949.6476 1.187-3.2755-1.2218-2.1162-1.6976,2.3913z" fill="#fff"/>
<path d="m253.2416,1950.3695-3.4302-.6097-1.2218-2.1163 2.9197-.2744z" fill="#fff"/>
<path d="m256.1912,1940.6006c-3.5947.2809-7.0441-1.3339-9.1417-4.1573l.9704-1.6809c3.5048.3923 6.618,2.561 8.1713,5.8382z" fill="#fff"/>
<path d="m246.2733,1935.7661c-1.5833-.2586-2.8962-1.3078-3.5127-2.9245 1.7173-.2814 3.2765.3333 4.289,1.5799-.5048-.1899-1.0624-.2375-1.6885-.078 .1762.6173.4945,1.0811.9121,1.423z" fill="#fff"/>
<path d="m250.9961,1936.7781-.6097-3.4303-2.1162-1.2217-.2745,2.9196z" fill="#fff"/>
<path d="m250.2741,1938.0285-3.2755,1.187-2.1162-1.2219 2.3913-1.6974z" fill="#fff"/>
<path d="m246.732,1949.1307c-3.5449-.6591-6.4588-3.112-7.7543-6.3816l1.3724-1.3725c3.2839,1.2859 5.7297,4.1868 6.3819,7.7541z" fill="#fff"/>
<path d="m238.4033,1941.8939c-1.4625-.6598-2.4591-2.0128-2.6361-3.734 1.7316.1727 3.0785,1.1698 3.7339,2.6362-.4384-.3142-.9647-.5043-1.6106-.513 .0104.6418.1979,1.1722.5128,1.6103z" fill="#fff"/>
<path d="m242.7033,1944.0939 .2989-3.4713-1.7279-1.728-1.0208,2.7495z" fill="#fff"/>
<path d="m241.6822,1945.115-3.471.2985-1.728-1.7282 2.7492-1.0205z" fill="#fff"/>
<path d="m247.9649,1957.217c-3.5947.2809-7.0442-1.3343-9.1418-4.1572l.9705-1.6809c3.5048.3921 6.6181,2.561 8.1713,5.8381z" fill="#fff"/>
<path d="m238.047,1952.3823c-1.5835-.2588-2.8962-1.3077-3.5127-2.9244 1.7172-.2816 3.2763.3331 4.289,1.5799-.5048-.1901-1.0624-.2375-1.6885-.078 .1762.6171.4945,1.0809.9121,1.4226z" fill="#fff"/>
<path d="m242.7699,1953.3945-.6098-3.4305-2.1162-1.2219-.2744,2.9201z" fill="#fff"/>
<path d="m242.0479,1954.645-3.2755,1.1867-2.1164-1.2222 2.3914-1.6972z" fill="#fff"/>
<path d="m244.8863,1934.142c-1.6644-1.1375-3.4732-2.1548-5.7407-2.7898" fill="none" stroke="#fff"/>
<path d="m236.7113,1939.0326c-2.5273-2.1366-4.087-4.7254-5.3921-7.2156" fill="none" stroke="#fff"/>
<path d="m236.0828,1950.2961c-2.4148-1.4077-4.1288-3.2861-4.818-6.1078" fill="none" stroke="#fff"/>
<path d="m231.2729,1931.3608h26.4314v26.4314h-26.4314z" fill="none" stroke="#000"/>
<path d="m249.1154,1938.9799-2.1681.7857-2.9963-1.7301 2.542-1.8043" fill="none" stroke="#000"/>
</g>
</svg>
