<svg viewBox="0 0 512 512" xmlns="http://www.w3.org/2000/svg">

<g transform="matrix(18.68858,0,0,18.68858,-3633.11253,-32682.11125)">
<path d="m200.1385,1749.2589-4.6626,3.5561v3.2717h10.0724v-6.8278z" fill="#fff" stroke="#000"/>
<path d="m200.6159,1751.2446c0,.478-.3874.8654-.8654.8654s-.8654-.3874-.8654-.8654 .3874-.8653.8654-.8653 .8654.3874.8654.8653z" stroke="#fff" stroke-width=".7188" transform="matrix(1.3913,0,0,1.3913,-74.59118,-685.04389)"/>
<path d="m201.2931,1771.5849 3.401,3.401h-6.802z" fill="#fff"/>
<path d="m200.3902,1758.13h1.806v8.3527h-1.806z" fill="#fff"/>
<path d="m202.4972,1769.3422c0,2.3273-1.0949,4.214-2.4456,4.214s-2.4456-1.8867-2.4456-4.214 1.0949-4.214 2.4456-4.214 2.4456,1.8866 2.4456,4.214z" fill="#fff" stroke="#000" transform="matrix(1,0,0,-1,1.24154,3538.5715)"/>
<path d="m199.111,1757.0012h4.3645v3.913h-4.3645z" fill="#fff" stroke="#000"/>
<path d="m214.8084,1771.5849 3.401,3.401h-6.802z" fill="#fff"/>
<path d="m213.9054,1758.13h1.806v8.3527h-1.806z" fill="#fff"/>
<path d="m202.4972,1769.3422c0,2.3273-1.0949,4.214-2.4456,4.214s-2.4456-1.8867-2.4456-4.214 1.0949-4.214 2.4456-4.214 2.4456,1.8866 2.4456,4.214z" fill="#fff" stroke="#000" transform="matrix(1,0,0,-1,14.75679,3538.5715)"/>
<path d="m212.6262,1757.0012h4.3645v3.913h-4.3645z" fill="#fff" stroke="#000"/>
<path d="m216.0486,1749.2589 4.6626,3.5561v3.2717h-10.0724v-6.8278z" fill="#fff" stroke="#000"/>
<path d="m212.7321,1761.6466c0,2.9387-2.3346,5.321-5.2145,5.321s-5.2146-2.3823-5.2146-5.321 2.3346-5.321 5.2146-5.321 5.2145,2.3823 5.2145,5.321z" fill="#fff" stroke="#000" transform="translate(.5526,-2.7137)"/>
<path d="m200.6159,1751.2446c0,.478-.3874.8654-.8654.8654s-.8654-.3874-.8654-.8654 .3874-.8653.8654-.8653 .8654.3874.8654.8653z" stroke="#fff" stroke-width=".7188" transform="matrix(-1.3913,0,0,1.3913,490.75161,-685.04389)"/>
<path d="m211.7726,1759.0425c-2.4683.9711-4.9366.8734-7.4048,0 0-2.0866 1.6576-3.778 3.7024-3.778s3.7024,1.6914 3.7024,3.778z"/>
<path d="m205.9802,1759.8335c0-1.472.9443-2.6654 2.1092-2.6654s2.1092,1.1934 2.1092,2.6654" fill="none" stroke="#fff"/>
<path d="m206.2654,1755.2265-.2808,4.4144" fill="none" stroke="#fff"/>
<path d="m200.6159,1751.2446c0,.478-.3874.8654-.8654.8654s-.8654-.3874-.8654-.8654 .3874-.8653.8654-.8653 .8654.3874.8654.8653z" stroke="#fff" stroke-width=".7188" transform="matrix(-1.3913,0,0,1.3913,491.49081,-682.6359)"/>
<path d="m210.0242,1755.2265 .2808,4.4144" fill="none" stroke="#fff"/>
<path d="m200.6159,1751.2446c0,.478-.3874.8654-.8654.8654s-.8654-.3874-.8654-.8654 .3874-.8653.8654-.8653 .8654.3874.8654.8653z" stroke="#fff" stroke-width=".7188" transform="matrix(1.3913,0,0,1.3913,-75.34367,-682.6359)"/>
<path d="m200.6159,1751.2446c0,.478-.3874.8654-.8654.8654s-.8654-.3874-.8654-.8654 .3874-.8653.8654-.8653 .8654.3874.8654.8653z" stroke="#fff" stroke-width=".7188" transform="matrix(1.3913,0,0,1.3913,-77.03451,-685.04389)"/>
<path d="m200.6159,1751.2446c0,.478-.3874.8654-.8654.8654s-.8654-.3874-.8654-.8654 .3874-.8653.8654-.8653 .8654.3874.8654.8653z" stroke="#fff" stroke-width=".7188" transform="matrix(1.3913,0,0,1.3913,-77.78701,-682.6359)"/>
<path d="m200.6159,1751.2446c0,.478-.3874.8654-.8654.8654s-.8654-.3874-.8654-.8654 .3874-.8653.8654-.8653 .8654.3874.8654.8653z" stroke="#fff" stroke-width=".7188" transform="matrix(1.3913,0,0,1.3913,-80.23263,-682.6359)"/>
<path d="m200.6159,1751.2446c0,.478-.3874.8654-.8654.8654s-.8654-.3874-.8654-.8654 .3874-.8653.8654-.8653 .8654.3874.8654.8653z" stroke="#fff" stroke-width=".7188" transform="matrix(-1.3913,0,0,1.3913,493.22155,-685.04389)"/>
<path d="m200.6159,1751.2446c0,.478-.3874.8654-.8654.8654s-.8654-.3874-.8654-.8654 .3874-.8653.8654-.8653 .8654.3874.8654.8653z" stroke="#fff" stroke-width=".7188" transform="matrix(-1.3913,0,0,1.3913,493.97405,-682.6359)"/>
<path d="m200.6159,1751.2446c0,.478-.3874.8654-.8654.8654s-.8654-.3874-.8654-.8654 .3874-.8653.8654-.8653 .8654.3874.8654.8653z" stroke="#fff" stroke-width=".7188" transform="matrix(-1.3913,0,0,1.3913,496.41967,-682.6359)"/>
<path d="m206.0759,1751.5833h4.0548v3.138h-4.0548z" fill="#fff"/>
</g>
</svg>
