<svg viewBox="0 0 512 512" xmlns="http://www.w3.org/2000/svg">

<g transform="matrix(18.68858,0,0,18.68858,-4314.16363,-36086.35197)">
<path d="m 250.122 1943.46 c -4.1351 -5.9292 -12.0191 -10.8389 -16.9538 -12.1252" fill="none" stroke="#fff"/>
<path d="m 257.08 1955.56 c -3.2536 -1.554 -5.4333 -4.6773 -5.8383 -8.1712 l 1.6809 -0.9705 c 2.8391 2.0921 4.4509 5.5267 4.1574 9.1417 z" fill="#fff"/>
<path d="m 250.908 1946.41 c -1.2419 -1.0155 -1.8543 -2.5807 -1.5798 -4.2889 1.628 0.6148 2.6709 1.9269 2.9245 3.5126 -0.3422 -0.4168 -0.8011 -0.737 -1.4231 -0.9122 -0.1564 0.6228 -0.1124 1.1837 0.0783 1.6885 z" fill="#fff"/>
<path d="m 254.492 1949.65 1.187 -3.2755 -1.2218 -2.1162 -1.6976 2.3913 z" fill="#fff"/>
<path d="m 253.242 1950.37 -3.4302 -0.6097 -1.2218 -2.1163 2.9197 -0.2744 z" fill="#fff"/>
<path d="m 256.191 1940.6 c -3.5947 0.2809 -7.0441 -1.3339 -9.1417 -4.1573 l 0.9704 -1.6809 c 3.5048 0.3923 6.618 2.561 8.1713 5.8382 z" fill="#fff"/>
<path d="m 246.273 1935.77 c -1.5833 -0.2586 -2.8962 -1.3078 -3.5127 -2.9245 1.7173 -0.2814 3.2765 0.3333 4.289 1.5799 -0.5048 -0.1899 -1.0624 -0.2375 -1.6885 -0.078 0.1762 0.6173 0.4945 1.0811 0.9121 1.423 z" fill="#fff"/>
<path d="m 250.996 1936.78 -0.6097 -3.4303 -2.1162 -1.2217 -0.2745 2.9196 z" fill="#fff"/>
<path d="m 250.274 1938.03 -3.2755 1.187 -2.1162 -1.2219 2.3913 -1.6974 z" fill="#fff"/>
<path d="m 246.732 1949.13 c -3.5449 -0.6591 -6.4588 -3.112 -7.7543 -6.3816 l 1.3724 -1.3725 c 3.2839 1.2859 5.7297 4.1868 6.3819 7.7541 z" fill="#fff"/>
<path d="m 238.403 1941.89 c -1.4625 -0.6598 -2.4591 -2.0128 -2.6361 -3.734 1.7316 0.1727 3.0785 1.1698 3.7339 2.6362 -0.4384 -0.3142 -0.9647 -0.5043 -1.6106 -0.513 0.0104 0.6418 0.1979 1.1722 0.5128 1.6103 z" fill="#fff"/>
<path d="m 242.703 1944.09 0.2989 -3.4713 -1.7279 -1.728 -1.0208 2.7495 z" fill="#fff"/>
<path d="m 241.682 1945.12 -3.471 0.2985 -1.728 -1.7282 2.7492 -1.0205 z" fill="#fff"/>
<path d="m 247.965 1957.22 c -3.5947 0.2809 -7.0442 -1.3343 -9.1418 -4.1572 l 0.9705 -1.6809 c 3.5048 0.3921 6.6181 2.561 8.1713 5.8381 z" fill="#fff"/>
<path d="m 238.047 1952.38 c -1.5835 -0.2588 -2.8962 -1.3077 -3.5127 -2.9244 1.7172 -0.2816 3.2763 0.3331 4.289 1.5799 -0.5048 -0.1901 -1.0624 -0.2375 -1.6885 -0.078 0.1762 0.6171 0.4945 1.0809 0.9121 1.4226 z" fill="#fff"/>
<path d="m 242.77 1953.39 -0.6098 -3.4305 -2.1162 -1.2219 -0.2744 2.9201 z" fill="#fff"/>
<path d="m 242.048 1954.64 -3.2755 1.1867 -2.1164 -1.2222 2.3914 -1.6972 z" fill="#fff"/>
<path d="m 244.886 1934.14 c -1.6644 -1.1375 -3.4732 -2.1548 -5.7407 -2.7898" fill="none" stroke="#fff"/>
<path d="m 236.711 1939.03 c -2.5273 -2.1366 -4.087 -4.7254 -5.3921 -7.2156" fill="none" stroke="#fff"/>
<path d="m 236.083 1950.3 c -2.4148 -1.4077 -4.1288 -3.2861 -4.818 -6.1078" fill="none" stroke="#fff"/>
<path d="m 231.273 1931.36 h 26.4314 v 26.4314 h -26.4314 z" fill="none" stroke="#000"/>
<path d="m 249.115 1938.98 -2.1681 0.7857 -2.9963 -1.7301 2.542 -1.8043" fill="none" stroke="#000"/>
</g>
</svg>
