<svg viewBox="0 0 512 512" xmlns="http://www.w3.org/2000/svg">

<g transform="matrix(18.68858,0,0,18.68858,-7718.03263,-27221.58851)">
<path d="m 413.406 1457.16 v 21.8126 l 2.6562 2.625 c 1.4319 1.4315 3.5638 1.8424 5.0625 0.3437 l 17.3438 -17.3437 c 1.4987 -1.4988 1.0568 -3.6306 -0.375 -5.0626 l -2.4062 -2.375 h -22.2812 z" fill="#fff" stroke="#000"/>
<path d="m 422.409 1470.19 c 0 3.0658 -1.2844 5.5512 -2.8687 5.5512 s -2.8687 -2.4854 -2.8687 -5.5512 1.2844 -5.5511 2.8687 -5.5511 2.8687 2.4853 2.8687 5.5511 z" stroke="#000" stroke-width="1.296" transform="matrix(.58685,.58686,-.50726,.50727,933.31423,471.65878)"/>
<path d="m 430.359 1464.25 c 2.9177 2.9177 6.2529 4.7565 9.328 5.3715 l -6e-05 0.0001 c -0.6268 -3.0608 -2.4717 -6.4262 -5.3725 -9.3277" fill="#fff" stroke="#000"/>
<path d="m 422.409 1470.19 c 0 3.0658 -1.2844 5.5512 -2.8687 5.5512 s -2.8687 -2.4854 -2.8687 -5.5512 1.2844 -5.5511 2.8687 -5.5511 2.8687 2.4853 2.8687 5.5511 z" stroke="#000" stroke-width="1.296" transform="matrix(.58685,.58686,-.50726,.50727,926.49251,478.48061)"/>
<path d="m 422.409 1470.19 c 0 3.0658 -1.2844 5.5512 -2.8687 5.5512 s -2.8687 -2.4854 -2.8687 -5.5512 1.2844 -5.5511 2.8687 -5.5511 2.8687 2.4853 2.8687 5.5511 z" stroke="#000" stroke-width="1.296" transform="matrix(.58685,.58686,-.50726,.50727,919.67084,485.30248)"/>
<path d="m 423.539 1471.07 c 2.9177 2.9176 6.2529 4.7565 9.3281 5.3714 l -8e-05 0.0001 c -0.6268 -3.0609 -2.4716 -6.4262 -5.3725 -9.3277" fill="#fff" stroke="#000"/>
<path d="m 424.12 1473.29 c -0.9298 -0.9298 -0.4228 -2.9442 1.1324 -4.4996 s 3.5696 -2.0621 4.4993 -1.132" fill="none" stroke="#000"/>
<path d="m 416.738 1477.87 c 2.9177 2.9176 6.2529 4.7564 9.3281 5.3714 l -7e-05 0.0001 c -0.6269 -3.0608 -2.4717 -6.4262 -5.3725 -9.3277" fill="#fff" stroke="#000"/>
<path d="m 417.298 1480.11 c -0.9298 -0.9298 -0.4227 -2.9445 1.1323 -4.4996 1.5551 -1.555 3.5696 -2.062 4.4993 -1.1323" fill="none" stroke="#000"/>
<path d="m 430.941 1466.47 c -0.9297 -0.93 -0.4228 -2.9444 1.1324 -4.4996 s 3.5696 -2.0621 4.4993 -1.1323" fill="none" stroke="#000"/>
<path d="m 437.498 1458.94 c -1.4318 -1.4318 -3.5447 -1.8714 -5.0435 -0.3727 l -17.3684 17.3685 c -1.4987 1.4987 -1.0592 3.6117 0.3727 5.0435" fill="none" stroke="#000"/>
<path d="m 421.767 1472.15 -5.8228 -5.8229" fill="none" stroke="#fff"/>
<path d="m 428.093 1464.8 -5.5887 -5.5888" fill="none" stroke="#fff"/>
</g>
</svg>
