<svg viewBox="0 0 512 512" xmlns="http://www.w3.org/2000/svg">

<g transform="matrix(18.68858,0,0,18.68858,-7718.03263,-27221.58851)">
<path d="m413.4062,1457.1562v21.8126l2.6562,2.625c1.4319,1.4315 3.5638,1.8424 5.0625.3437l17.3438-17.3437c1.4987-1.4988 1.0568-3.6306-.375-5.0626l-2.4062-2.375h-22.2812z" fill="#fff" stroke="#000"/>
<path d="m422.4095,1470.1892c0,3.0658-1.2844,5.5512-2.8687,5.5512s-2.8687-2.4854-2.8687-5.5512 1.2844-5.5511 2.8687-5.5511 2.8687,2.4853 2.8687,5.5511z" stroke="#000" stroke-width="1.296" transform="matrix(.58685,.58686,-.50726,.50727,933.31423,471.65878)"/>
<path d="m430.3593,1464.2503c2.9177,2.9177 6.2529,4.7565 9.328,5.3715l-6e-05,.0001c-.6268-3.0608-2.4717-6.4262-5.3725-9.3277" fill="#fff" stroke="#000"/>
<path d="m422.4095,1470.1892c0,3.0658-1.2844,5.5512-2.8687,5.5512s-2.8687-2.4854-2.8687-5.5512 1.2844-5.5511 2.8687-5.5511 2.8687,2.4853 2.8687,5.5511z" stroke="#000" stroke-width="1.296" transform="matrix(.58685,.58686,-.50726,.50727,926.49251,478.48061)"/>
<path d="m422.4095,1470.1892c0,3.0658-1.2844,5.5512-2.8687,5.5512s-2.8687-2.4854-2.8687-5.5512 1.2844-5.5511 2.8687-5.5511 2.8687,2.4853 2.8687,5.5511z" stroke="#000" stroke-width="1.296" transform="matrix(.58685,.58686,-.50726,.50727,919.67084,485.30248)"/>
<path d="m423.5393,1471.0703c2.9177,2.9176 6.2529,4.7565 9.3281,5.3714l-8e-05,.0001c-.6268-3.0609-2.4716-6.4262-5.3725-9.3277" fill="#fff" stroke="#000"/>
<path d="m424.1196,1473.2872c-.9298-.9298-.4228-2.9442 1.1324-4.4996s3.5696-2.0621 4.4993-1.132" fill="none" stroke="#000"/>
<path d="m416.7383,1477.8714c2.9177,2.9176 6.2529,4.7564 9.3281,5.3714l-7e-05,.0001c-.6269-3.0608-2.4717-6.4262-5.3725-9.3277" fill="#fff" stroke="#000"/>
<path d="m417.298,1480.1091c-.9298-.9298-.4227-2.9445 1.1323-4.4996 1.5551-1.555 3.5696-2.062 4.4993-1.1323" fill="none" stroke="#000"/>
<path d="m430.9414,1466.4655c-.9297-.93-.4228-2.9444 1.1324-4.4996s3.5696-2.0621 4.4993-1.1323" fill="none" stroke="#000"/>
<path d="m437.4983,1458.9386c-1.4318-1.4318-3.5447-1.8714-5.0435-.3727l-17.3684,17.3685c-1.4987,1.4987-1.0592,3.6117.3727,5.0435" fill="none" stroke="#000"/>
<path d="m421.7668,1472.1524-5.8228-5.8229" fill="none" stroke="#fff"/>
<path d="m428.0931,1464.7965-5.5887-5.5888" fill="none" stroke="#fff"/>
</g>
</svg>
