<svg viewBox="0 0 512 512" xmlns="http://www.w3.org/2000/svg">

<g transform="matrix(18.68858,0,0,18.68858,-3633.11253,-32682.11125)">
<path d="m 200.138 1749.26 -4.6626 3.5561 v 3.2717 h 10.0724 v -6.8278 z" fill="#fff" stroke="#000"/>
<path d="m 200.616 1751.24 c 0 0.478 -0.3874 0.8654 -0.8654 0.8654 s -0.8654 -0.3874 -0.8654 -0.8654 0.3874 -0.8653 0.8654 -0.8653 0.8654 0.3874 0.8654 0.8653 z" stroke="#fff" stroke-width=".7188" transform="matrix(1.3913,0,0,1.3913,-74.59118,-685.04389)"/>
<path d="m 201.293 1771.58 3.401 3.401 h -6.802 z" fill="#fff"/>
<path d="m 200.39 1758.13 h 1.806 v 8.3527 h -1.806 z" fill="#fff"/>
<path d="m 202.497 1769.34 c 0 2.3273 -1.0949 4.214 -2.4456 4.214 s -2.4456 -1.8867 -2.4456 -4.214 1.0949 -4.214 2.4456 -4.214 2.4456 1.8866 2.4456 4.214 z" fill="#fff" stroke="#000" transform="matrix(1,0,0,-1,1.24154,3538.5715)"/>
<path d="m 199.111 1757 h 4.3645 v 3.913 h -4.3645 z" fill="#fff" stroke="#000"/>
<path d="m 214.808 1771.58 3.401 3.401 h -6.802 z" fill="#fff"/>
<path d="m 213.905 1758.13 h 1.806 v 8.3527 h -1.806 z" fill="#fff"/>
<path d="m 202.497 1769.34 c 0 2.3273 -1.0949 4.214 -2.4456 4.214 s -2.4456 -1.8867 -2.4456 -4.214 1.0949 -4.214 2.4456 -4.214 2.4456 1.8866 2.4456 4.214 z" fill="#fff" stroke="#000" transform="matrix(1,0,0,-1,14.75679,3538.5715)"/>
<path d="m 212.626 1757 h 4.3645 v 3.913 h -4.3645 z" fill="#fff" stroke="#000"/>
<path d="m 216.049 1749.26 4.6626 3.5561 v 3.2717 h -10.0724 v -6.8278 z" fill="#fff" stroke="#000"/>
<path d="m 212.732 1761.65 c 0 2.9387 -2.3346 5.321 -5.2145 5.321 s -5.2146 -2.3823 -5.2146 -5.321 2.3346 -5.321 5.2146 -5.321 5.2145 2.3823 5.2145 5.321 z" fill="#fff" stroke="#000" transform="translate(.5526,-2.7137)"/>
<path d="m 200.616 1751.24 c 0 0.478 -0.3874 0.8654 -0.8654 0.8654 s -0.8654 -0.3874 -0.8654 -0.8654 0.3874 -0.8653 0.8654 -0.8653 0.8654 0.3874 0.8654 0.8653 z" stroke="#fff" stroke-width=".7188" transform="matrix(-1.3913,0,0,1.3913,490.75161,-685.04389)"/>
<path d="m 211.773 1759.04 c -2.4683 0.9711 -4.9366 0.8734 -7.4048 0 0 -2.0866 1.6576 -3.778 3.7024 -3.778 s 3.7024 1.6914 3.7024 3.778 z"/>
<path d="m 205.98 1759.83 c 0 -1.472 0.9443 -2.6654 2.1092 -2.6654 s 2.1092 1.1934 2.1092 2.6654" fill="none" stroke="#fff"/>
<path d="m 206.265 1755.23 -0.2808 4.4144" fill="none" stroke="#fff"/>
<path d="m 200.616 1751.24 c 0 0.478 -0.3874 0.8654 -0.8654 0.8654 s -0.8654 -0.3874 -0.8654 -0.8654 0.3874 -0.8653 0.8654 -0.8653 0.8654 0.3874 0.8654 0.8653 z" stroke="#fff" stroke-width=".7188" transform="matrix(-1.3913,0,0,1.3913,491.49081,-682.6359)"/>
<path d="m 210.024 1755.23 0.2808 4.4144" fill="none" stroke="#fff"/>
<path d="m 200.616 1751.24 c 0 0.478 -0.3874 0.8654 -0.8654 0.8654 s -0.8654 -0.3874 -0.8654 -0.8654 0.3874 -0.8653 0.8654 -0.8653 0.8654 0.3874 0.8654 0.8653 z" stroke="#fff" stroke-width=".7188" transform="matrix(1.3913,0,0,1.3913,-75.34367,-682.6359)"/>
<path d="m 200.616 1751.24 c 0 0.478 -0.3874 0.8654 -0.8654 0.8654 s -0.8654 -0.3874 -0.8654 -0.8654 0.3874 -0.8653 0.8654 -0.8653 0.8654 0.3874 0.8654 0.8653 z" stroke="#fff" stroke-width=".7188" transform="matrix(1.3913,0,0,1.3913,-77.03451,-685.04389)"/>
<path d="m 200.616 1751.24 c 0 0.478 -0.3874 0.8654 -0.8654 0.8654 s -0.8654 -0.3874 -0.8654 -0.8654 0.3874 -0.8653 0.8654 -0.8653 0.8654 0.3874 0.8654 0.8653 z" stroke="#fff" stroke-width=".7188" transform="matrix(1.3913,0,0,1.3913,-77.78701,-682.6359)"/>
<path d="m 200.616 1751.24 c 0 0.478 -0.3874 0.8654 -0.8654 0.8654 s -0.8654 -0.3874 -0.8654 -0.8654 0.3874 -0.8653 0.8654 -0.8653 0.8654 0.3874 0.8654 0.8653 z" stroke="#fff" stroke-width=".7188" transform="matrix(1.3913,0,0,1.3913,-80.23263,-682.6359)"/>
<path d="m 200.616 1751.24 c 0 0.478 -0.3874 0.8654 -0.8654 0.8654 s -0.8654 -0.3874 -0.8654 -0.8654 0.3874 -0.8653 0.8654 -0.8653 0.8654 0.3874 0.8654 0.8653 z" stroke="#fff" stroke-width=".7188" transform="matrix(-1.3913,0,0,1.3913,493.22155,-685.04389)"/>
<path d="m 200.616 1751.24 c 0 0.478 -0.3874 0.8654 -0.8654 0.8654 s -0.8654 -0.3874 -0.8654 -0.8654 0.3874 -0.8653 0.8654 -0.8653 0.8654 0.3874 0.8654 0.8653 z" stroke="#fff" stroke-width=".7188" transform="matrix(-1.3913,0,0,1.3913,493.97405,-682.6359)"/>
<path d="m 200.616 1751.24 c 0 0.478 -0.3874 0.8654 -0.8654 0.8654 s -0.8654 -0.3874 -0.8654 -0.8654 0.3874 -0.8653 0.8654 -0.8653 0.8654 0.3874 0.8654 0.8653 z" stroke="#fff" stroke-width=".7188" transform="matrix(-1.3913,0,0,1.3913,496.41967,-682.6359)"/>
<path d="m 206.076 1751.58 h 4.0548 v 3.138 h -4.0548 z" fill="#fff"/>
</g>
</svg>
