<svg viewBox="0 0 512 512" xmlns="http://www.w3.org/2000/svg">

<g transform="matrix(18.68858,0,0,18.68858,-5001.41026,-45609.51296)">
<path d="m287.0931,2454.7367c0-3.7128-2.5746-6.7225-5.7505-6.7225s-5.7505,3.0097-5.7505,6.7225 2.5746,4.9593 5.7505,4.9593 5.7505-1.2465 5.7505-4.9593z" fill="#fff" stroke="#000"/>
<path d="m276.4071,2446.2778c-2.249-.7639-4.0709-.1419-5.6913.6838 .8274-1.9707 3.3044-3.474 5.806-3.0555 1.5279.2559 1.2146,2.8233-.1147,2.3717z" fill="#fff"/>
<path d="m277.0491,2445.4255c-.9725,1.969-1.2488,4.2805.0462,6.1434" fill="none" stroke="#fff"/>
<path d="m273.2881,2449.5531c-2.3296.4629-3.5964,1.9124-4.587,3.4378-.2688-2.1204 1.1246-4.6606 3.5004-5.5491 1.4511-.5426 2.4635,1.8377 1.0866,2.1113z" fill="#fff"/>
<path d="m273.4179,2448.4939c.1423,2.1915 1.0587,4.3315 3.1117,5.2972" fill="none" stroke="#fff"/>
<path d="m272.521,2453.7011c-1.7861,1.5659-2.1585,3.4547-2.2536,5.2706-1.2946-1.7006-1.3564-4.5985.2569-6.5558 .9852-1.1952 3.0522.3598 1.9967,1.2852z" fill="#fff"/>
<path d="m272.1037,2452.7188c1.219,1.8269 3.0824,3.2221 5.3434,3.0318" fill="none" stroke="#fff"/>
<path d="m273.8516,2457.8224c-.7639,2.2489-.1421,4.0708.6836,5.6911-1.9715-.8255-3.4739-3.3043-3.0554-5.8058 .2555-1.5279 2.823-1.2146 2.3718.1147z" fill="#fff"/>
<path d="m286.2286,2446.2778c2.249-.7639 4.0709-.1419 5.6913.6838-.8274-1.9707-3.3044-3.474-5.806-3.0555-1.5279.2559-1.2146,2.8233.1147,2.3717z" fill="#fff"/>
<path d="m285.5866,2445.4255c.9725,1.969 1.2488,4.2805-.0462,6.1434" fill="none" stroke="#fff"/>
<path d="m289.3476,2449.5531c2.3296.4629 3.5964,1.9124 4.587,3.4378 .2688-2.1204-1.1246-4.6606-3.5004-5.5491-1.4511-.5426-2.4635,1.8377-1.0866,2.1113z" fill="#fff"/>
<path d="m289.2178,2448.4939c-.1423,2.1915-1.0587,4.3315-3.1117,5.2972" fill="none" stroke="#fff"/>
<path d="m290.1147,2453.7011c1.7861,1.5659 2.1585,3.4547 2.2536,5.2706 1.2946-1.7006 1.3564-4.5985-.2569-6.5558-.9852-1.1952-3.0522.3598-1.9967,1.2852z" fill="#fff"/>
<path d="m290.5319,2452.7188c-1.219,1.8269-3.0824,3.2221-5.3434,3.0318" fill="none" stroke="#fff"/>
<path d="m288.7841,2457.8224c.7639,2.2489.1421,4.0708-.6836,5.6911 1.9715-.8255 3.4739-3.3043 3.0554-5.8058-.2555-1.5279-2.823-1.2146-2.3718.1147z" fill="#fff"/>
<path d="m289.6366,2457.1803c-1.9691.9726-4.2804,1.2491-6.1434-.046" fill="none" stroke="#fff"/>
<path d="m272.9991,2457.1803c1.9691.9726 4.2804,1.2491 6.1434-.046" fill="none" stroke="#fff"/>
<path d="m284.9483,2452.1121c0,1.6816-1.3632,3.0448-3.0448,3.0448s-3.0448-1.3632-3.0448-3.0448 1.3632-3.0449 3.0448-3.0449 3.0448,1.3632 3.0448,3.0449z" fill="#fff" transform="matrix(1.06754,0,0,.89109,-19.61322,275.74238)"/>
<path d="m279.4815,2463.01c-.7643.8186-.2651,2.4881.7816,2.9764-1.3085.3611-3.0205-.3876-2.9165-2.2663 .0847-1.5305 2.0041-2.1802 2.1349-.7101z" fill="#fff"/>
<path d="m283.3089,2463.01c.7643.8186.2651,2.4881-.7816,2.9764 1.3085.3611 3.0205-.3876 2.9165-2.2663-.0847-1.5305-2.0041-2.1802-2.1349-.7101z" fill="#fff"/>
</g>
</svg>
