<svg xmlns="http://www.w3.org/2000/svg" viewBox="0 0 512 512">
<g fill="#fff" transform="matrix(15 0 0 15 16 16)">
<path stroke="#000" d="m22.717,16.627c0-4.337-3.007-7.852-6.717-7.852-3.71,0-6.717,3.516-6.717,7.852 0,4.336 3.007,5.793 6.717,5.793 3.71,0 6.717-1.456 6.717-5.793z"/>
<path d="m 21.957 6.214 c 2.404 -1.384 4.827 -0.102 6.87 0.477 -1.394 -2.071 -4.572 -3.234 -7.344 -2.188 -1.693 0.64 -0.947 2.53 0.474 1.711 z"/>
</g>
<path fill="none" stroke="#fff" stroke-width="15" d="m331.57,102.265c17.04,34.5 21.885,75-.81,107.64"/>
<path fill="#fff" d="m399.295,165.52c40.815,8.115 63.015,48.51 80.37,75.225 4.71-37.155-19.71-81.66-61.335-97.23-25.41-9.495-43.155,17.205-19.035,22.005z"/>
<path fill="none" stroke="#fff" stroke-width="15" d="m395.185,156.025c-2.49,38.4-18.555,75.885-54.525,92.805"/>
<path fill="#fff" d="m415.36,244.915c31.29,27.435 37.815,60.525 39.48,92.34 11.22-33.45 14.4-72.81-13.86-107.115-17.265-20.94-44.115-1.44-25.62,14.775z"/>
<path fill="none" stroke="#fff" stroke-width="15" d="m418.21,230.05c-21.36,32.01-54,56.46-93.615,53.115"/>
<path fill="#fff" d="m392.455,321.115c9.99,39.405-.465,74.34-13.8,98.31 25.8-14.46 45.465-57.885 39.99-101.73-3.345-26.775-32.085-19.875-26.19,3.42z"/>
<path fill="none" stroke="#fff" stroke-width="15" d="m402.52,308.215c-34.5,17.04-75,21.885-107.64-.81"/>
<path fill="#fff" d="m173.755,83.56c-41.58-15.69-89.25,1.755-110.16,32.82 30.66-8.7 66.99-27.915 103.05-7.155 21.315,12.27 32.505-16.08 7.11-25.665z"/>
<path fill="none" stroke="#fff" stroke-width="15" d="m181.24,209.905c-22.695-32.64-17.85-73.14-.81-107.64"/>
<path fill="#fff" d="m93.655,143.53c-41.625,15.57-66.045,60.075-61.335,97.23 17.355-26.73 39.555-67.125 80.37-75.225 24.135-4.815 6.39-31.515-19.035-22.005z"/>
<path fill="none" stroke="#fff" stroke-width="15" d="m171.325,248.83c-35.97-16.92-52.02-54.42-54.525-92.805"/>
<path fill="#fff" d="m96.64,244.915c18.495-16.215-8.355-35.715-25.62-14.76-28.26,34.29-25.08,73.665-13.86,107.115 1.665-31.83 8.19-64.92 39.48-92.355z"/>
<path fill="none" stroke="#fff" stroke-width="15" d="m187.405,283.165c-39.615,3.33-72.255-21.105-93.615-53.115"/>
<path fill="#fff" d="m93.355,317.695c-5.475,43.83 14.19,87.255 39.99,101.73-13.335-23.955-23.805-58.905-13.8-98.31 5.895-23.295-22.845-30.195-26.19-3.42z"/>
<path fill="none" stroke="#fff" stroke-width="15" d="m217.105,307.42c-32.64,22.695-73.14,17.85-107.64,.81"/>
<g fill="#fff" transform="matrix(15 0 0 15 16 16)">
<path d="m 13.856 22.29 c -0.893 0.956 -0.31 2.906 0.913 3.476 -1.528 0.422 -3.528 -0.453 -3.407 -2.647 0.1 -1.787 2.342 -2.546 2.494 -0.829 z"/>
<path d="m 18.327 22.29 c 0.893 0.956 0.31 2.906 -0.913 3.476 1.528 0.422 3.528 -0.453 3.407 -2.647 -0.099 -1.787 -2.341 -2.546 -2.494 -0.829 z"/>
</g>
<path d="m 210.58 244.42 c -19.455 0 -35.22 15.78 -35.22 35.22 0 19.455 15.78 35.22 35.22 35.22 19.455 0 35.22 -15.78 35.22 -35.22 0 -19.455 -15.765 -35.22 -35.22 -35.22 z m -6.165 44.19 c -9.72 0 -17.61 -7.89 -17.61 -17.61 0 -9.72 7.89 -17.61 17.61 -17.61 9.72 0 17.61 7.89 17.61 17.61 0 9.72 -7.89 17.61 -17.61 17.61 z m 21.66 17.82 c -4.86 0 -8.805 -3.945 -8.805 -8.805 0 -4.86 3.945 -8.805 8.805 -8.805 4.86 0 8.805 3.945 8.805 8.805 0 4.86 -3.945 8.805 -8.805 8.805 z"/>
<path d="m 301.42 244.42 c -19.455 0 -35.22 15.78 -35.22 35.22 0 19.455 15.78 35.22 35.22 35.22 19.455 0 35.22 -15.78 35.22 -35.22 0 -19.455 -15.78 -35.22 -35.22 -35.22 z m -6.165 44.19 c -9.72 0 -17.61 -7.89 -17.61 -17.61 0 -9.72 7.89 -17.61 17.61 -17.61 9.72 0 17.61 7.89 17.61 17.61 0 9.72 -7.89 17.61 -17.61 17.61 z m 21.66 17.82 c -4.86 0 -8.805 -3.945 -8.805 -8.805 0 -4.86 3.945 -8.805 8.805 -8.805 4.86 0 8.805 3.945 8.805 8.805 0 4.86 -3.945 8.805 -8.805 8.805 z"/>
</svg>
