<svg viewBox="0 0 512 512" xmlns="http://www.w3.org/2000/svg">

<g transform="matrix(18.68858,0,0,18.68858,-5001.41026,-45609.51296)">
<path d="m 287.093 2454.74 c 0 -3.7128 -2.5746 -6.7225 -5.7505 -6.7225 s -5.7505 3.0097 -5.7505 6.7225 2.5746 4.9593 5.7505 4.9593 5.7505 -1.2465 5.7505 -4.9593 z" fill="#fff" stroke="#000"/>
<path d="m 276.407 2446.28 c -2.249 -0.7639 -4.0709 -0.1419 -5.6913 0.6838 0.8274 -1.9707 3.3044 -3.474 5.806 -3.0555 1.5279 0.2559 1.2146 2.8233 -0.1147 2.3717 z" fill="#fff"/>
<path d="m 277.049 2445.43 c -0.9725 1.969 -1.2488 4.2805 0.0462 6.1434" fill="none" stroke="#fff"/>
<path d="m 273.288 2449.55 c -2.3296 0.4629 -3.5964 1.9124 -4.587 3.4378 -0.2688 -2.1204 1.1246 -4.6606 3.5004 -5.5491 1.4511 -0.5426 2.4635 1.8377 1.0866 2.1113 z" fill="#fff"/>
<path d="m 273.418 2448.49 c 0.1423 2.1915 1.0587 4.3315 3.1117 5.2972" fill="none" stroke="#fff"/>
<path d="m 272.521 2453.7 c -1.7861 1.5659 -2.1585 3.4547 -2.2536 5.2706 -1.2946 -1.7006 -1.3564 -4.5985 0.2569 -6.5558 0.9852 -1.1952 3.0522 0.3598 1.9967 1.2852 z" fill="#fff"/>
<path d="m 272.104 2452.72 c 1.219 1.8269 3.0824 3.2221 5.3434 3.0318" fill="none" stroke="#fff"/>
<path d="m 273.852 2457.82 c -0.7639 2.2489 -0.1421 4.0708 0.6836 5.6911 -1.9715 -0.8255 -3.4739 -3.3043 -3.0554 -5.8058 0.2555 -1.5279 2.823 -1.2146 2.3718 0.1147 z" fill="#fff"/>
<path d="m 286.229 2446.28 c 2.249 -0.7639 4.0709 -0.1419 5.6913 0.6838 -0.8274 -1.9707 -3.3044 -3.474 -5.806 -3.0555 -1.5279 0.2559 -1.2146 2.8233 0.1147 2.3717 z" fill="#fff"/>
<path d="m 285.587 2445.43 c 0.9725 1.969 1.2488 4.2805 -0.0462 6.1434" fill="none" stroke="#fff"/>
<path d="m 289.348 2449.55 c 2.3296 0.4629 3.5964 1.9124 4.587 3.4378 0.2688 -2.1204 -1.1246 -4.6606 -3.5004 -5.5491 -1.4511 -0.5426 -2.4635 1.8377 -1.0866 2.1113 z" fill="#fff"/>
<path d="m 289.218 2448.49 c -0.1423 2.1915 -1.0587 4.3315 -3.1117 5.2972" fill="none" stroke="#fff"/>
<path d="m 290.115 2453.7 c 1.7861 1.5659 2.1585 3.4547 2.2536 5.2706 1.2946 -1.7006 1.3564 -4.5985 -0.2569 -6.5558 -0.9852 -1.1952 -3.0522 0.3598 -1.9967 1.2852 z" fill="#fff"/>
<path d="m 290.532 2452.72 c -1.219 1.8269 -3.0824 3.2221 -5.3434 3.0318" fill="none" stroke="#fff"/>
<path d="m 288.784 2457.82 c 0.7639 2.2489 0.1421 4.0708 -0.6836 5.6911 1.9715 -0.8255 3.4739 -3.3043 3.0554 -5.8058 -0.2555 -1.5279 -2.823 -1.2146 -2.3718 0.1147 z" fill="#fff"/>
<path d="m 289.637 2457.18 c -1.9691 0.9726 -4.2804 1.2491 -6.1434 -0.046" fill="none" stroke="#fff"/>
<path d="m 272.999 2457.18 c 1.9691 0.9726 4.2804 1.2491 6.1434 -0.046" fill="none" stroke="#fff"/>
<path d="m 284.948 2452.11 c 0 1.6816 -1.3632 3.0448 -3.0448 3.0448 s -3.0448 -1.3632 -3.0448 -3.0448 1.3632 -3.0449 3.0448 -3.0449 3.0448 1.3632 3.0448 3.0449 z" fill="#fff" transform="matrix(1.06754,0,0,.89109,-19.61322,275.74238)"/>
<path d="m 279.481 2463.01 c -0.7643 0.8186 -0.2651 2.4881 0.7816 2.9764 -1.3085 0.3611 -3.0205 -0.3876 -2.9165 -2.2663 0.0847 -1.5305 2.0041 -2.1802 2.1349 -0.7101 z" fill="#fff"/>
<path d="m 283.309 2463.01 c 0.7643 0.8186 0.2651 2.4881 -0.7816 2.9764 1.3085 0.3611 3.0205 -0.3876 2.9165 -2.2663 -0.0847 -1.5305 -2.0041 -2.1802 -2.1349 -0.7101 z" fill="#fff"/>
</g>
</svg>
