<svg viewBox="0 0 512 512" xmlns="http://www.w3.org/2000/svg">

<g transform="matrix(18.68858,0,0,18.68858,-9078.94916,-23824.82966)">
<path d="m 499.229 1289.37 -3.1305 0.8389 -2.2917 -2.2917 0.8388 -3.1306 3.1305 -0.8388 2.2917 2.2917 z" transform="matrix(-.31501,1.17564,-1.17564,-.31501,2169.2906,1109.6511)"/>
<path d="m 504.964 1292.16 -7.4559 0.001 -3.7288 6.4565 -3.7288 -6.4565 -7.4559 -0.001 3.7271 -6.4575 -3.7271 -6.4575 7.4559 -0.001 3.7288 -6.4565 3.7288 6.4565 7.4559 0.001 -3.7271 6.4575 z" fill="#fff" transform="matrix(.84717,.48911,-.48911,.84717,710.07416,-42.29816)"/>
<path d="m 504.199 1299 -7.6527 -4.4161 -0.7995 0.464 -0.003 -8.8093" fill="none" stroke="#000"/>
<path d="m 492.705 1297.72 0.0268 -8.8356 -0.831 -0.4602 7.6275 -4.4076" fill="none" stroke="#000"/>
<path d="m 488.05 1287.19 7.6508 -4.4193 -0.002 -0.9244 7.6309 4.4017" fill="none" stroke="#000"/>
<path d="m 494.856 1277.85 7.6528 4.4161 0.7992 -0.464 0.003 8.8093" fill="none" stroke="#000"/>
<path d="m 506.355 1279.08 0.002 8.8355 0.7161 0.4603 -7.6274 4.4077" fill="none" stroke="#000"/>
<path d="m 510.959 1289.71 -7.6509 4.4194 0.002 0.9242 -7.6308 -4.4016" fill="none" stroke="#000"/>
<path d="m 502.799 1286.41 -6.7377 4.1542" fill="none" stroke="#000"/>
<path d="m 496.061 1286.41 6.7377 4.1542" fill="none" stroke="#000"/>
</g>
</svg>
