<svg viewBox="0 0 512 512" xmlns="http://www.w3.org/2000/svg">

<g transform="matrix(18.68858,0,0,18.68858,-9078.94916,-23824.82966)">
<path d="m499.2292,1289.3726-3.1305.8389-2.2917-2.2917 .8388-3.1306 3.1305-.8388 2.2917,2.2917z" transform="matrix(-.31501,1.17564,-1.17564,-.31501,2169.2906,1109.6511)"/>
<path d="m504.9636,1292.1626-7.4559.001-3.7288,6.4565-3.7288-6.4565-7.4559-.001 3.7271-6.4575-3.7271-6.4575 7.4559-.001 3.7288-6.4565 3.7288,6.4565 7.4559.001-3.7271,6.4575z" fill="#fff" transform="matrix(.84717,.48911,-.48911,.84717,710.07416,-42.29816)"/>
<path d="m504.1993,1299.0029-7.6527-4.4161-.7995.464-.003-8.8093" fill="none" stroke="#000"/>
<path d="m492.7046,1297.7187 .0268-8.8356-.831-.4602 7.6275-4.4076" fill="none" stroke="#000"/>
<path d="m488.0499,1287.1902 7.6508-4.4193-.002-.9244 7.6309,4.4017" fill="none" stroke="#000"/>
<path d="m494.8555,1277.846 7.6528,4.4161 .7992-.464 .003,8.8093" fill="none" stroke="#000"/>
<path d="m506.3551,1279.0799 .002,8.8355 .7161.4603-7.6274,4.4077" fill="none" stroke="#000"/>
<path d="m510.959,1289.7084-7.6509,4.4194 .002.9242-7.6308-4.4016" fill="none" stroke="#000"/>
<path d="m502.799,1286.4145-6.7377,4.1542" fill="none" stroke="#000"/>
<path d="m496.0614,1286.4145 6.7377,4.1542" fill="none" stroke="#000"/>
</g>
</svg>
