<svg viewBox="0 0 512 512" xmlns="http://www.w3.org/2000/svg">

<g transform="matrix(18.68858,0,0,18.68858,-2272.13538,-28566.59253)">
<path d="m 138.657 1546.58 -9.8726 2.6454 -7.2273 -7.2273 2.6454 -9.8726 9.8726 -2.6454 7.2273 7.2273 z" fill="none" stroke="#fff" stroke-width="2.3704" transform="matrix(.40814,-.10901,.10936,.40685,-94.68772,922.33697)"/>
<path d="m 138.657 1546.58 -9.8726 2.6454 -7.2273 -7.2273 2.6454 -9.8726 9.8726 -2.6454 7.2273 7.2273 z" fill="none" stroke="#fff" stroke-width="2.3704" transform="matrix(.40814,-.10901,.10936,.40685,-83.48468,928.8732)"/>
<path d="m 138.657 1546.58 -9.8726 2.6454 -7.2273 -7.2273 2.6454 -9.8726 9.8726 -2.6454 7.2273 7.2273 z" fill="none" stroke="#fff" stroke-width="2.3704" transform="matrix(.40814,-.10901,.10936,.40685,-83.48468,937.52855)"/>
<path d="m 131.295 1545.34 3.7401 2.1525" fill="none" stroke="#fff"/>
<path d="m 131.295 1553.63 3.7401 -2.1525" fill="none" stroke="#fff"/>
<path d="m 142.063 1538.84 3.7401 -2.1525" fill="none" stroke="#fff"/>
<path d="m 127.251 1542.58 0.006 -4.3152" fill="none" stroke="#fff"/>
<path d="m 128.724 1545.57 c 0 1.089 -0.8828 1.9718 -1.9718 1.9718 s -1.9718 -0.8828 -1.9718 -1.9718 0.8828 -1.9718 1.9718 -1.9718 1.9718 0.8828 1.9718 1.9718 z" fill="#fff" transform="matrix(.69284,0,0,.69284,43.01613,474.21767)"/>
<path d="m 128.724 1545.57 c 0 1.089 -0.8828 1.9718 -1.9718 1.9718 s -1.9718 -0.8828 -1.9718 -1.9718 0.8828 -1.9718 1.9718 -1.9718 1.9718 0.8828 1.9718 1.9718 z" fill="#fff" transform="matrix(.69284,0,0,.69284,58.49893,465.51087)"/>
<path d="m 128.724 1545.57 c 0 1.089 -0.8828 1.9718 -1.9718 1.9718 s -1.9718 -0.8828 -1.9718 -1.9718 0.8828 -1.9718 1.9718 -1.9718 1.9718 0.8828 1.9718 1.9718 z" fill="#fff" transform="matrix(.69284,0,0,.69284,43.16185,482.81518)"/>
<path d="m 131.218 1535.49 4.4126 2.5997" fill="none" stroke="#fff"/>
<path d="m 130.061 1537.07 4.6608 2.7648" fill="none" stroke="#fff"/>
<path d="m 129.924 1535.82 5.7898 3.5157" fill="none" stroke="#000"/>
<path d="m 141.163 1550.04 c 0 1.3366 -1.0836 2.4202 -2.4202 2.4202 s -2.4202 -1.0836 -2.4202 -2.4202 1.0836 -2.4203 2.4202 -2.4203 2.4202 1.0836 2.4202 2.4203 z" fill="#fff" stroke="#000" stroke-width=".9388" transform="matrix(1.06522,0,0,1.06522,-9.3115,-101.61546)"/>
<path d="m 138.486 1532.07 0.006 4.3152" fill="none" stroke="#fff"/>
<path d="m 128.724 1545.57 c 0 1.089 -0.8828 1.9718 -1.9718 1.9718 s -1.9718 -0.8828 -1.9718 -1.9718 0.8828 -1.9718 1.9718 -1.9718 1.9718 0.8828 1.9718 1.9718 z" stroke="#fff" stroke-width="1.4433" transform="matrix(.69284,0,0,-.69284,50.60805,2602.3335)"/>
<path d="m 128.724 1545.57 c 0 1.089 -0.8828 1.9718 -1.9718 1.9718 s -1.9718 -0.8828 -1.9718 -1.9718 0.8828 -1.9718 1.9718 -1.9718 1.9718 0.8828 1.9718 1.9718 z" stroke="#fff" stroke-width="1.4433" transform="matrix(.69284,0,0,-.69284,39.38016,2613.5339)"/>
<path d="m 125.67 1537.93 0.01 -4.5949 3.9764 -2.3027" fill="none" stroke="#fff"/>
<path d="m 136.835 1544.48 0.01 -4.5949 3.9764 -2.3027" fill="none" stroke="#fff"/>
<path d="m 141.163 1550.04 c 0 1.3366 -1.0836 2.4202 -2.4202 2.4202 s -2.4202 -1.0836 -2.4202 -2.4202 1.0836 -2.4203 2.4202 -2.4203 2.4202 1.0836 2.4202 2.4203 z" fill="#fff" stroke="#000" stroke-width="1.5082" transform="matrix(.66304,0,0,.66304,36.3064,507.22099)"/>
<path d="m 130.04 1549.35 4.3153 0.01" fill="none" stroke="#fff"/>
<path d="m 128.724 1545.57 c 0 1.089 -0.8828 1.9718 -1.9718 1.9718 s -1.9718 -0.8828 -1.9718 -1.9718 0.8828 -1.9718 1.9718 -1.9718 1.9718 0.8828 1.9718 1.9718 z" fill="#fff" transform="matrix(.60001,.34642,-.34642,.60001,589.1195,577.93075)"/>
</g>
</svg>
