<svg viewBox="0 0 512 512" xmlns="http://www.w3.org/2000/svg">

<g transform="matrix(18.68858,0,0,18.68858,-5001.75793,-42186.01504)">
<path d="m 273.26 2282.11 c -2.108 -1.2197 -3.8933 -2.6887 -4.1866 -5.3106 1.3367 1.2031 3.5645 -0.3743 2.1034 -2.47 -0.6677 -0.9577 -2.0154 -1.1347 -2.0898 -2.9342 0.8086 0.7355 1.8761 0.7533 1.8148 -0.3997 -0.0758 -1.4252 -2.6744 -1.9886 -1.6223 -3.9359 1.7139 1.8449 2.0002 -2.6723 -0.0499 -3.7869 3.7384 0.9108 3.1771 3.0519 2.2539 5.0422 -0.8875 1.9134 2.8124 2.387 1.6202 -3.8239 1.0934 1.9065 3.5587 1.5455 2.6614 -0.4799 -0.6753 -1.5242 -0.6603 -3.9604 0.5294 -5.4535 0.2874 1.7086 1.1689 1.9141 2.3265 1.0757 -1.8135 3.225 2.7231 3.2495 2.2275 1.2872 -0.4237 -1.6777 0.7577 -2.5882 1.4719 -2.7428 -0.0318 3.1148 3.6596 5.3829 3.5617 1.9399 1.8496 1.4704 1.1467 3.7213 -1.1248 3.8111 l -5.0614 1.9994 z" fill="#fff"/>
<path d="m 280.406 2267.72 c -1.7094 4.7912 -1.467 10.0173 -0.4555 15.4149 -4.587 3.3898 -4.8814 -2.1713 -7.5646 -0.032 0.7642 -17.1134 8.8231 -23.1815 12.7472 -18.511" fill="#fff" stroke="#000"/>
<path d="m 285.719 2264.56 c -0.1939 0.011 -0.3936 0.041 -0.5938 0.1563 l -4.2812 2.4687 c -1.5878 0.9166 -0.3068 3.3462 1.2188 2.9375 l 2.9062 5.0312 c 1.6631 2.984 -2.1177 3.4028 0.0937 7.25 l 1.0938 1.875 h 8.375 v -9.7812 c -1.7444 -1.1263 -3.4308 0.2256 -4.8125 -2.0625 l -2.9062 -5 c 1.2552 -0.8534 0.2313 -2.9491 -1.0938 -2.875 z" fill="#fff" stroke="#000"/>
<path d="m 287.535 2263.13 c 1.1919 -1.944 1.1127 -3.8026 -0.7906 -4.3449 2.7049 -1.7418 3.9156 2.664 0.7906 4.3449 z" fill="#fff"/>
<path d="m 274.091 2258.71 c -1.1775 0.8457 -2.0825 2.4735 -1.4877 4.1581 -2.3225 -1.446 -0.9988 -5.1217 1.4877 -4.1581 z" fill="#fff"/>
<path d="m 288.541 2266.49 -4.9894 2.8806" fill="none" stroke="#000"/>
<path d="m 275.433 2283.47 c 0.2658 -4.1204 0.6959 -8.2079 1.6788 -12.1849" fill="none" stroke="#000"/>
<path d="m 276.786 2279.11 0.4062 -8.8273" fill="none" stroke="#fff"/>
</g>
</svg>
