<svg viewBox="0 0 512 512" xmlns="http://www.w3.org/2000/svg">

<g transform="matrix(18.68858,0,0,18.68858,-2270.9718,-19084.29116)">
<path d="m132.0972,1034.7167c0,1.9191-1.5557,3.4748-3.4748,3.4748s-3.4748-1.5557-3.4748-3.4748 1.5557-3.4748 3.4748-3.4748 3.4748,1.5557 3.4748,3.4748z" fill="#fff" transform="matrix(-1.19561,0,0,1.19916,297.62485,-207.62693)"/>
<path d="m132.0972,1034.7167c0,1.9191-1.5557,3.4748-3.4748,3.4748s-3.4748-1.5557-3.4748-3.4748 1.5557-3.4748 3.4748-3.4748 3.4748,1.5557 3.4748,3.4748z" fill="#fff" transform="matrix(1.19561,0,0,1.19916,-27.09397,-207.62693)"/>
<path d="m141.0272,1040.7649c0,3.1899-2.5813,4.3998-5.7618,4.3998s-5.7618-1.2099-5.7618-4.3998 2.5813-5.7787 5.7618-5.7787 5.7618,2.5889 5.7618,5.7787z" fill="#fff"/>
<path d="m128.5957,1039.5496c0,1.7277 2.988,3.1299 6.6697,3.1299s6.6697-1.4022 6.6697-3.1299" fill="none" stroke="#000"/>
<g transform="translate(7.5495605e-6,-.6515)">
<path d="m142.0379,1035.6742c1.0231,1.0267 2.6837,1.0267 3.7068,0s1.0231-2.6937 0-3.7206-2.6837-1.027-3.7068-.0003" fill="#fff" stroke="#000" stroke-width=".875"/>
<path d="m128.4929,1035.6742c-1.0231,1.0267-2.6837,1.0267-3.7068,0s-1.0231-2.6937 0-3.7206 2.6837-1.027 3.7068-.0003" fill="#fff" stroke="#000" stroke-width=".875"/>
</g>
<path d="m142.8769,1032.1518c0-4.2137-3.4099-7.6336-7.6114-7.6336s-7.6114,3.4199-7.6114,7.6336 3.4099,6.0845 7.6114,6.0845 7.6114-1.8705 7.6114-6.0845z" fill="#fff"/>
<path d="m135.4635,1032.3278c0,.9595-.7779,1.7374-1.7374,1.7374s-1.7374-.7779-1.7374-1.7374 .7779-1.7374 1.7374-1.7374 1.7374.7778 1.7374,1.7374z" transform="matrix(1.16056,0,0,1.16396,-23.2492,-168.59179)"/>
<path d="m135.4635,1032.3278c0,.9595-.7779,1.7374-1.7374,1.7374s-1.7374-.7779-1.7374-1.7374 .7779-1.7374 1.7374-1.7374 1.7374.7778 1.7374,1.7374z" transform="matrix(1.11382,0,0,1.11709,-10.28303,-120.11998)"/>
<g transform="matrix(1.07412,0,0,1.07445,-10.01008,-76.66489)">
<path d="m133.8354,1036.8865 .4872-1.7677" fill="none" stroke="#000" stroke-width=".9309"/>
<path d="m136.6655,1036.8865-.4872-1.7677" fill="none" stroke="#000" stroke-width=".9309"/>
</g>
<path d="m131.9307,1027.2669-3.1492-3.646 2.566.9042 .8456-2.3334 1.3413,3.5585 2.4876-.9995 4.1899-.6922-1.0527,1.515 3.3854,1.11-2.8927.6212" fill="#fff" fill-rule="evenodd"/>
</g>
</svg>
