<svg viewBox="0 0 512 512" xmlns="http://www.w3.org/2000/svg">

<g transform="matrix(18.68858,0,0,18.68858,-2270.9718,-19084.29116)">
<path d="m 132.097 1034.72 c 0 1.9191 -1.5557 3.4748 -3.4748 3.4748 s -3.4748 -1.5557 -3.4748 -3.4748 1.5557 -3.4748 3.4748 -3.4748 3.4748 1.5557 3.4748 3.4748 z" fill="#fff" transform="matrix(-1.19561,0,0,1.19916,297.62485,-207.62693)"/>
<path d="m 132.097 1034.72 c 0 1.9191 -1.5557 3.4748 -3.4748 3.4748 s -3.4748 -1.5557 -3.4748 -3.4748 1.5557 -3.4748 3.4748 -3.4748 3.4748 1.5557 3.4748 3.4748 z" fill="#fff" transform="matrix(1.19561,0,0,1.19916,-27.09397,-207.62693)"/>
<path d="m 141.027 1040.76 c 0 3.1899 -2.5813 4.3998 -5.7618 4.3998 s -5.7618 -1.2099 -5.7618 -4.3998 2.5813 -5.7787 5.7618 -5.7787 5.7618 2.5889 5.7618 5.7787 z" fill="#fff"/>
<path d="m 128.596 1039.55 c 0 1.7277 2.988 3.1299 6.6697 3.1299 s 6.6697 -1.4022 6.6697 -3.1299" fill="none" stroke="#000"/>
<g transform="translate(7.5495605e-6,-.6515)">
<path d="m 142.038 1035.67 c 1.0231 1.0267 2.6837 1.0267 3.7068 0 s 1.0231 -2.6937 0 -3.7206 -2.6837 -1.027 -3.7068 -0.0003" fill="#fff" stroke="#000" stroke-width=".875"/>
<path d="m 128.493 1035.67 c -1.0231 1.0267 -2.6837 1.0267 -3.7068 0 s -1.0231 -2.6937 0 -3.7206 2.6837 -1.027 3.7068 -0.0003" fill="#fff" stroke="#000" stroke-width=".875"/>
</g>
<path d="m 142.877 1032.15 c 0 -4.2137 -3.4099 -7.6336 -7.6114 -7.6336 s -7.6114 3.4199 -7.6114 7.6336 3.4099 6.0845 7.6114 6.0845 7.6114 -1.8705 7.6114 -6.0845 z" fill="#fff"/>
<path d="m 135.464 1032.33 c 0 0.9595 -0.7779 1.7374 -1.7374 1.7374 s -1.7374 -0.7779 -1.7374 -1.7374 0.7779 -1.7374 1.7374 -1.7374 1.7374 0.7778 1.7374 1.7374 z" transform="matrix(1.16056,0,0,1.16396,-23.2492,-168.59179)"/>
<path d="m 135.464 1032.33 c 0 0.9595 -0.7779 1.7374 -1.7374 1.7374 s -1.7374 -0.7779 -1.7374 -1.7374 0.7779 -1.7374 1.7374 -1.7374 1.7374 0.7778 1.7374 1.7374 z" transform="matrix(1.11382,0,0,1.11709,-10.28303,-120.11998)"/>
<g transform="matrix(1.07412,0,0,1.07445,-10.01008,-76.66489)">
<path d="m 133.835 1036.89 0.4872 -1.7677" fill="none" stroke="#000" stroke-width=".9309"/>
<path d="m 136.666 1036.89 -0.4872 -1.7677" fill="none" stroke="#000" stroke-width=".9309"/>
</g>
<path d="m 131.931 1027.27 -3.1492 -3.646 2.566 0.9042 0.8456 -2.3334 1.3413 3.5585 2.4876 -0.9995 4.1899 -0.6922 -1.0527 1.515 3.3854 1.11 -2.8927 0.6212" fill="#fff" fill-rule="evenodd"/>
</g>
</svg>
