<svg viewBox="0 0 512 512" xmlns="http://www.w3.org/2000/svg">

<path d="m167.7611,302.6522c0,4.9792-4.0364,9.0156-9.0156,9.0156s-9.0156-4.0364-9.0156-9.0156 4.0364-9.0156 9.0156-9.0156 9.0156,4.0364 9.0156,9.0156z" fill="#fff" stroke="#fff" stroke-width=".7357" transform="matrix(-25.40152,0,0,25.40152,4285.49318,-7430.92048)"/>
<path d="m167.7611,302.6522c0,4.9792-4.0364,9.0156-9.0156,9.0156s-9.0156-4.0364-9.0156-9.0156 4.0364-9.0156 9.0156-9.0156 9.0156,4.0364 9.0156,9.0156z" transform="matrix(-21.69595,0,0,21.69595,3673.31324,-6309.41954)"/>
<path d="m167.7611,302.6522c0,4.9792-4.0364,9.0156-9.0156,9.0156s-9.0156-4.0364-9.0156-9.0156 4.0364-9.0156 9.0156-9.0156 9.0156,4.0364 9.0156,9.0156z" fill="#fff" transform="matrix(-16.90176,0,0,16.90176,3003.75019,-4858.46229)"/>
</svg>
