<svg viewBox="0 0 512 512" xmlns="http://www.w3.org/2000/svg">

<g transform="matrix(18.68858,0,0,18.68858,-11123.32873,-1384.05108)">
<path d="m614.2089,92.2227c.0813,1.4709.6532,2.621 1.53,4.018-2.2315,5.8811-10.4915,6.4266-13.5025.0392 .8464-1.3722 1.4283-2.7093 1.6279-4.0022 2.7061,4.4043 7.7684,4.3143 10.3446-.0549z" fill="#fff" stroke="#000"/>
<path d="m618.5329,85.6368c-3.6048,1.8329-4.8263,4.1303-4.7423,6.8412-1.4975,1.2373-8.2023,1.1776-9.5159.0678 .3893-2.5125-.8011-4.8425-4.6007-6.9089 0-6.3684 2.5924-11.1505 9.4295-11.1505 6.8953,0 9.4294,5.1215 9.4294,11.1505z" fill="#fff" stroke="#000"/>
<path d="m608.9587,85.7579c-.7537,1.5657-1.229,3.1314-1.6244,4.6971 1.0829-.4049 2.1658-.3573 3.2487,0-.2925-1.5657-.8817-3.1314-1.6244-4.6971z" fill-rule="evenodd"/>
<path d="m604.4417,81.3112c-1.5511.415-2.4727,2.0089-2.057,3.5578 .1793.668.574,1.1896 1.0942,1.5671 .3856-1.2401 1.8686-2.439 3.8774-2.9764 .212-.0567.4295-.0928.6384-.1313-.4304-1.5273-2.0138-2.429-3.553-2.0172z"/>
<path d="m613.4688,81.3112c1.5511.415 2.4727,2.0089 2.057,3.5578-.1793.668-.574,1.1896-1.0942,1.5671-.3856-1.2401-1.8686-2.439-3.8774-2.9764-.212-.0567-.4295-.0928-.6385-.1313 .4304-1.5273 2.0138-2.429 3.553-2.0172z"/>
<path d="m612.4093,94.187 .8137,1.5329" fill="none" stroke="#000"/>
<path d="m610.8575,95.0007 .511,1.6464" fill="none" stroke="#000"/>
<path d="m609.0597,97.1392v-1.4761" fill="none" stroke="#000"/>
<path d="m605.5966,94.187-.8137,1.5329" fill="none" stroke="#000"/>
<path d="m607.1484,95.0007-.511,1.6464" fill="none" stroke="#000"/>
<path d="m611.0211,91.4931 .2693,1.7822" fill="none" stroke="#000"/>
<path d="m609.0329,93.3883v-1.5979" fill="none" stroke="#000"/>
<path d="m607.0415,91.4931-.2693,1.7822" fill="none" stroke="#000"/>
<path d="m612.9893,90.7856 .2693,1.7822" fill="none" stroke="#000"/>
<path d="m605.1491,90.7856-.2693,1.7822" fill="none" stroke="#000"/>
</g>
</svg>
