<svg viewBox="0 0 512 512" xmlns="http://www.w3.org/2000/svg">

<g transform="matrix(18.68858,0,0,18.68858,-11123.32873,-1384.05108)">
<path d="m 614.209 92.2227 c 0.0813 1.4709 0.6532 2.621 1.53 4.018 -2.2315 5.8811 -10.4915 6.4266 -13.5025 0.0392 0.8464 -1.3722 1.4283 -2.7093 1.6279 -4.0022 2.7061 4.4043 7.7684 4.3143 10.3446 -0.0549 z" fill="#fff" stroke="#000"/>
<path d="m 618.533 85.6368 c -3.6048 1.8329 -4.8263 4.1303 -4.7423 6.8412 -1.4975 1.2373 -8.2023 1.1776 -9.5159 0.0678 0.3893 -2.5125 -0.8011 -4.8425 -4.6007 -6.9089 0 -6.3684 2.5924 -11.1505 9.4295 -11.1505 6.8953 0 9.4294 5.1215 9.4294 11.1505 z" fill="#fff" stroke="#000"/>
<path d="m 608.959 85.7579 c -0.7537 1.5657 -1.229 3.1314 -1.6244 4.6971 1.0829 -0.4049 2.1658 -0.3573 3.2487 0 -0.2925 -1.5657 -0.8817 -3.1314 -1.6244 -4.6971 z" fill-rule="evenodd"/>
<path d="m 604.442 81.3112 c -1.5511 0.415 -2.4727 2.0089 -2.057 3.5578 0.1793 0.668 0.574 1.1896 1.0942 1.5671 0.3856 -1.2401 1.8686 -2.439 3.8774 -2.9764 0.212 -0.0567 0.4295 -0.0928 0.6384 -0.1313 -0.4304 -1.5273 -2.0138 -2.429 -3.553 -2.0172 z"/>
<path d="m 613.469 81.3112 c 1.5511 0.415 2.4727 2.0089 2.057 3.5578 -0.1793 0.668 -0.574 1.1896 -1.0942 1.5671 -0.3856 -1.2401 -1.8686 -2.439 -3.8774 -2.9764 -0.212 -0.0567 -0.4295 -0.0928 -0.6385 -0.1313 0.4304 -1.5273 2.0138 -2.429 3.553 -2.0172 z"/>
<path d="m 612.409 94.187 0.8137 1.5329" fill="none" stroke="#000"/>
<path d="m 610.857 95.0007 0.511 1.6464" fill="none" stroke="#000"/>
<path d="m 609.06 97.1392 v -1.4761" fill="none" stroke="#000"/>
<path d="m 605.597 94.187 -0.8137 1.5329" fill="none" stroke="#000"/>
<path d="m 607.148 95.0007 -0.511 1.6464" fill="none" stroke="#000"/>
<path d="m 611.021 91.4931 0.2693 1.7822" fill="none" stroke="#000"/>
<path d="m 609.033 93.3883 v -1.5979" fill="none" stroke="#000"/>
<path d="m 607.042 91.4931 -0.2693 1.7822" fill="none" stroke="#000"/>
<path d="m 612.989 90.7856 0.2693 1.7822" fill="none" stroke="#000"/>
<path d="m 605.149 90.7856 -0.2693 1.7822" fill="none" stroke="#000"/>
</g>
</svg>
