<svg viewBox="0 0 512 512" xmlns="http://www.w3.org/2000/svg">

<g transform="matrix(18.68858,0,0,18.68858,-6355.82958,-17249.80503)">
<path d="m 531.037 404.564 c 0 7.4688 -6.0546 13.5234 -13.5234 13.5234 s -13.5234 -6.0546 -13.5234 -13.5234 6.0546 -13.5234 13.5234 -13.5234 13.5234 6.0546 13.5234 13.5234 z" fill="none" stroke="#fff" stroke-width="1.0479" transform="matrix(.91335,0,0,-.91335,-118.86991,1306.3343)"/>
<path d="m 343.924 943.824 c 3.205 -3.8439 6.6791 -7.6028 10.0739 -11.0193 3.3936 2.8887 6.7871 6.143 10.1807 10.0977" fill="none" stroke="#fff"/>
<path d="m 354.013 932.885 -7.2844 8.0109 3.8007 -2.2899 -1.5697 4.1065 3.2938 -3.9252 0.334 1.7212 1.0442 -1.9674 2.5615 3.7191 -1.1358 -4.9099 2.8446 3.2611 -0.412 -2.9195 3.9549 2.6314 -7.4318 -7.4383 z" fill="#fff" fill-rule="evenodd"/>
<path d="m 341.518 936.49 4.6993 -5.1062 4.4229 4.8225" fill="none" stroke="#fff"/>
<path d="m 355.918 935.059 4.7523 -5.3187 5.2317 5.3736" fill="none" stroke="#fff"/>
<path d="m 342.72 935.88 3.623 -4.1901 2.6454 3.4229 -1.4952 -1.0623 0.0761 2.6097 -1.4608 -1.7494 -2.2382 2.7397 0.9201 -2.8918 -2.0703 1.1213 z" fill="#fff" fill-rule="evenodd"/>
<path d="m 357.374 934.126 3.623 -4.1901 2.6454 3.4229 -1.2383 -0.3202 0.3806 1.8497 -1.4553 -1.4336 -0.5332 0.4527 -0.576 -0.8932 -1.1537 1.7122 0.2066 -1.8928 -1.899 1.2925 z" fill="#fff" fill-rule="evenodd"/>
</g>
</svg>
