<svg viewBox="0 0 512 512" xmlns="http://www.w3.org/2000/svg">

<g transform="matrix(18.68858,0,0,18.68858,-4314.13174,-19084.99098)">
<path d="m531.0372,404.564c0,7.4688-6.0546,13.5234-13.5234,13.5234s-13.5234-6.0546-13.5234-13.5234 6.0546-13.5234 13.5234-13.5234 13.5234,6.0546 13.5234,13.5234z" fill="none" stroke="#fff" stroke-width="1.0949" transform="matrix(.91335,0,0,-.91335,-228.24706,1404.3457)"/>
<path d="m256.3663,1038.2156-3.2197-.6217-1.1811-4.1246-3.3064-1.0219-3.6772-7.0677-4.8753,3.171-2.6308,9.1854-4.5725,1.9185" fill="none" stroke="#fff"/>
<path d="m244.8125,1025.625-3.1562,6.2813 .9212,7.6441 3.2542-1.6292 1.4346,8.8425 5.8276-2.9239 3.0938-5.4023-2.8125-.75-1.3864-4.2183-3.4024-.9081-3.7738-6.9361z" fill="#fff" fill-rule="evenodd"/>
<path d="m239.3584,1041.2747 7.9895-5.4894v3.3697l-7.9895,2.1197z" fill-rule="evenodd"/>
</g>
</svg>
