<svg viewBox="0 0 512 512" xmlns="http://www.w3.org/2000/svg">

<g transform="matrix(18.68858,0,0,18.68858,-4314.13174,-19084.99098)">
<path d="m 531.037 404.564 c 0 7.4688 -6.0546 13.5234 -13.5234 13.5234 s -13.5234 -6.0546 -13.5234 -13.5234 6.0546 -13.5234 13.5234 -13.5234 13.5234 6.0546 13.5234 13.5234 z" fill="none" stroke="#fff" stroke-width="1.0949" transform="matrix(.91335,0,0,-.91335,-228.24706,1404.3457)"/>
<path d="m 256.366 1038.22 -3.2197 -0.6217 -1.1811 -4.1246 -3.3064 -1.0219 -3.6772 -7.0677 -4.8753 3.171 -2.6308 9.1854 -4.5725 1.9185" fill="none" stroke="#fff"/>
<path d="m 244.812 1025.62 -3.1562 6.2813 0.9212 7.6441 3.2542 -1.6292 1.4346 8.8425 5.8276 -2.9239 3.0938 -5.4023 -2.8125 -0.75 -1.3864 -4.2183 -3.4024 -0.9081 -3.7738 -6.9361 z" fill="#fff" fill-rule="evenodd"/>
<path d="m 239.358 1041.27 7.9895 -5.4894 v 3.3697 l -7.9895 2.1197 z" fill-rule="evenodd"/>
</g>
</svg>
