<svg viewBox="0 0 512 512" xmlns="http://www.w3.org/2000/svg">

<g transform="matrix(18.68858,0,0,18.68858,-910.49665,-29940.05739)">
<path d="m 74.2448 1626.41 c -1.5763 -5.8813 -7.0045 -9.5147 -9.3746 -5.4109 s 3.4317 6.8231 9.3746 5.4109 z" fill="#fff"/>
<path d="m 68.2332 1622.95 c -2.0756 -7.7442 -9.2234 -12.529 -12.3444 -7.1249 s 4.5187 8.9843 12.3444 7.1249 z" fill="#fff"/>
<path d="m 62.1451 1616.46 c 0 1.689 -1.3692 3.0582 -3.0582 3.0582 s -3.0582 -1.3692 -3.0582 -3.0582 1.3692 -3.0581 3.0582 -3.0581 3.0582 1.3692 3.0582 3.0581 z" fill="#fff" transform="matrix(.41546,-.71937,.71959,.41533,-1123.37363,997.09491)"/>
<path d="m 62.1451 1616.46 c 0 1.689 -1.3692 3.0582 -3.0582 3.0582 s -3.0582 -1.3692 -3.0582 -3.0582 1.3692 -3.0581 3.0582 -3.0581 3.0582 1.3692 3.0582 3.0581 z" fill="#fff" transform="matrix(.41546,-.71937,.71959,.41533,-1118.81165,989.19575)"/>
<path d="m 59.9135 1617.01 c -13.5787 -2.597 -5.5665 -9.4435 -9.6841 -13.7073" fill="none" stroke="#fff"/>
</g>
</svg>
