<svg viewBox="0 0 512 512" xmlns="http://www.w3.org/2000/svg">

<g transform="matrix(18.68858,0,0,18.68858,711.8504,-11111.18161)">
<path d="m-19.0864,609.696c1.4092-1.0053-6.6262-.431-5.5287.6465 1.0974,0 1.432,1.5893.9491,3.0099-.1.2941-.5032,1.0747-.5033,1.4343 0,.4874.3933.8807.8807.8807s.8807-.3933.8807-.8807c-1e-05-.3618-.4456-1.1331-.5284-1.4343-.3135-1.4191-.2453-2.1265.6872-2.2298 1.0679-.1183 1.5479,4.1414.9233,5.979-.166.4883-.8555,1.8187-.8555,2.4156 0,.8091.6504,1.4595 1.4594,1.4594s1.4594-.6503 1.4595-1.4594c1e-05-.6006-.7433-1.9158-.8807-2.4156-.6014-2.188-.364-7.1284 1.0569-7.4057z" fill="#fff"/>
<path d="m-32.0571,608.9778c1.4264.3542 1.9091,4.4789 1.2712,6.3553-.1321.3885-.6907,1.4324-.6907,1.9074 0,.6438.5211,1.1752 1.1649,1.1752s1.1649-.5314 1.1649-1.1752c0-.4778-.5917-1.5096-.701-1.9074-.4785-1.741-.5601-5.6542 1.0622-5.406-1.0905-1.7575-3.0873-1.7813-3.2716-.9493z" fill="#fff"/>
<path d="m-13.6537,607.0841c-2.1453.7352-3.5023,1.3065-5.4762,2.613 3.2907-.8818 2.282.8619 3.4079.8619 .9447,0 .2008-2.1868 2.0683-3.4748z" fill="#fff" fill-rule="evenodd"/>
<path d="m726.2871,604.5647c0,.5736-.465,1.0386-1.0386,1.0386s-1.0386-.465-1.0386-1.0386 .465-1.0386 1.0386-1.0386 1.0386.465 1.0386,1.0386z" fill="#fff" transform="matrix(1.12036,0,0,1.12036,-828.26374,-63.32655)"/>
<path d="m-37.3492,602.3788c-.0442.2433-.0625.4934-.0625.7432 0,3.9968 5.7897,7.2255 12.9375,7.2256s12.9375-3.2288 12.9375-7.2256c0-.2498-.0183-.4999-.0625-.7432-.6997,2.9262-6.2009,5.1611-12.875,5.1611s-12.1753-2.2349-12.875-5.1611z" fill="#fff"/>
<path d="m-14.1505,596.2347c-3.074-.3212-5.2797.9977-6.8355,3.5443 4.4882,1.5586 6.5647.1267 6.8355-3.5443z" fill="#fff" fill-rule="evenodd"/>
<path d="m-34.236,596.2347c3.074-.3212 5.2797.9977 6.8355,3.5443-4.4882,1.5586-6.5647.1267-6.8355-3.5443z" fill="#fff" fill-rule="evenodd"/>
</g>
</svg>
