<svg viewBox="0 0 512 512" xmlns="http://www.w3.org/2000/svg">

<g transform="matrix(18.68858,0,0,18.68858,711.8504,-11111.18161)">
<path d="m -19.0864 609.696 c 1.4092 -1.0053 -6.6262 -0.431 -5.5287 0.6465 1.0974 0 1.432 1.5893 0.9491 3.0099 -0.1 0.2941 -0.5032 1.0747 -0.5033 1.4343 0 0.4874 0.3933 0.8807 0.8807 0.8807 s 0.8807 -0.3933 0.8807 -0.8807 c -1e-05 -0.3618 -0.4456 -1.1331 -0.5284 -1.4343 -0.3135 -1.4191 -0.2453 -2.1265 0.6872 -2.2298 1.0679 -0.1183 1.5479 4.1414 0.9233 5.979 -0.166 0.4883 -0.8555 1.8187 -0.8555 2.4156 0 0.8091 0.6504 1.4595 1.4594 1.4594 s 1.4594 -0.6503 1.4595 -1.4594 c 1e-05 -0.6006 -0.7433 -1.9158 -0.8807 -2.4156 -0.6014 -2.188 -0.364 -7.1284 1.0569 -7.4057 z" fill="#fff"/>
<path d="m -32.0571 608.978 c 1.4264 0.3542 1.9091 4.4789 1.2712 6.3553 -0.1321 0.3885 -0.6907 1.4324 -0.6907 1.9074 0 0.6438 0.5211 1.1752 1.1649 1.1752 s 1.1649 -0.5314 1.1649 -1.1752 c 0 -0.4778 -0.5917 -1.5096 -0.701 -1.9074 -0.4785 -1.741 -0.5601 -5.6542 1.0622 -5.406 -1.0905 -1.7575 -3.0873 -1.7813 -3.2716 -0.9493 z" fill="#fff"/>
<path d="m -13.6537 607.084 c -2.1453 0.7352 -3.5023 1.3065 -5.4762 2.613 3.2907 -0.8818 2.282 0.8619 3.4079 0.8619 0.9447 0 0.2008 -2.1868 2.0683 -3.4748 z" fill="#fff" fill-rule="evenodd"/>
<path d="m 726.287 604.565 c 0 0.5736 -0.465 1.0386 -1.0386 1.0386 s -1.0386 -0.465 -1.0386 -1.0386 0.465 -1.0386 1.0386 -1.0386 1.0386 0.465 1.0386 1.0386 z" fill="#fff" transform="matrix(1.12036,0,0,1.12036,-828.26374,-63.32655)"/>
<path d="m -37.3492 602.379 c -0.0442 0.2433 -0.0625 0.4934 -0.0625 0.7432 0 3.9968 5.7897 7.2255 12.9375 7.2256 s 12.9375 -3.2288 12.9375 -7.2256 c 0 -0.2498 -0.0183 -0.4999 -0.0625 -0.7432 -0.6997 2.9262 -6.2009 5.1611 -12.875 5.1611 s -12.1753 -2.2349 -12.875 -5.1611 z" fill="#fff"/>
<path d="m -14.1505 596.235 c -3.074 -0.3212 -5.2797 0.9977 -6.8355 3.5443 4.4882 1.5586 6.5647 0.1267 6.8355 -3.5443 z" fill="#fff" fill-rule="evenodd"/>
<path d="m -34.236 596.235 c 3.074 -0.3212 5.2797 0.9977 6.8355 3.5443 -4.4882 1.5586 -6.5647 0.1267 -6.8355 -3.5443 z" fill="#fff" fill-rule="evenodd"/>
</g>
</svg>
