<svg xmlns="http://www.w3.org/2000/svg" viewBox="0 0 512 512">
<path fill="#fff" d="m546.5618,2344.1875c0,6.1306-4.9698,11.1004-11.1004,11.1004s-11.1004-4.9698-11.1004-11.1004 4.9698-11.1004 11.1004-11.1004 11.1004,4.9698 11.1004,11.1004z" transform="matrix(18.56696 10.71964 -10.71964 18.56696 15445.07166 -49008.34406)"/>
<path d="m 546.562 2344.19 c 0 6.1306 -4.9698 11.1004 -11.1004 11.1004 s -11.1004 -4.9698 -11.1004 -11.1004 4.9698 -11.1004 11.1004 -11.1004 11.1004 4.9698 11.1004 11.1004 z" transform="matrix(16.31725 9.42077 -11.24551 19.4778 17882.44595 -50448.00912)"/>
<path fill="#fff" d="m546.5618,2344.1875c0,6.1306-4.9698,11.1004-11.1004,11.1004s-11.1004-4.9698-11.1004-11.1004 4.9698-11.1004 11.1004-11.1004 11.1004,4.9698 11.1004,11.1004z" transform="matrix(14.39815 8.31278 -8.31278 14.39815 12035.17156 -37947.09323)"/>
<path d="m 546.562 2344.19 c 0 6.1306 -4.9698 11.1004 -11.1004 11.1004 s -11.1004 -4.9698 -11.1004 -11.1004 4.9698 -11.1004 11.1004 -11.1004 11.1004 4.9698 11.1004 11.1004 z" transform="matrix(12.65356 7.30554 -8.72058 15.10448 13925.28435 -39063.51215)"/>
<g transform="matrix(11.50248 6.64096 -6.64096 11.50248 9655.05348 -30266.77444)">
<path fill="#fff" d="m546.8586,2344.8228c0,5.9488-4.8225,10.7713-10.7713,10.7713s-10.7713-4.8225-10.7713-10.7713 4.8225-10.7714 10.7713-10.7714 10.7713,4.8225 10.7713,10.7714z" transform="matrix(.91522 0 0 .91522 45.60091 197.87212)"/>
<path d="m 546.102 2341.49 -3.7262 1.0817 v 2.8848 l 3.7262 1.0819 v -5.0484 z"/>
<path d="m 526.637 2341.49 3.7262 1.0817 v 2.8848 l -3.7262 1.0819 v -5.0484 z"/>
<path d="m 545.037 2349.11 -3.3999 -1.8696 -2.0399 2.0399 1.8699 3.3997 3.5697 -3.5697 z"/>
<path d="m 531.272 2335.35 1.87 3.3996 -2.0399 2.0399 -3.3999 -1.8696 3.5697 -3.5698 z"/>
<path d="m 538.894 2353.75 -1.0821 -3.7261 -2.8848 -0.0001 -1.0818 3.7263 h 5.0484 z"/>
<path d="m 538.894 2334.28 -1.0816 3.7262 h -2.8848 l -1.0821 -3.7262 h 5.0484 z"/>
<path d="m 531.272 2352.68 1.8695 -3.3998 -2.0398 -2.0399 -3.3998 1.8698 3.5697 3.5697 z"/>
<path d="m 545.037 2338.92 -3.3996 1.87 -2.0398 -2.0399 1.8696 -3.4 3.5697 3.5698 z"/>
<path fill="none" stroke="#fff" stroke-width="1.529" d="m546.8586,2344.8228c0,5.9488-4.8225,10.7713-10.7713,10.7713s-10.7713-4.8225-10.7713-10.7713 4.8225-10.7714 10.7713-10.7714 10.7713,4.8225 10.7713,10.7714z" transform="matrix(.92042 0 0 .92042 42.8972 185.70672)"/>
<path fill="#fff" d="m546.8586,2344.8228c0,5.9488-4.8225,10.7713-10.7713,10.7713s-10.7713-4.8225-10.7713-10.7713 4.8225-10.7714 10.7713-10.7714 10.7713,4.8225 10.7713,10.7714z" transform="matrix(.64742 0 0 .64742 189.16892 825.86045)"/>
</g>
</svg>
