<svg viewBox="0 0 512 512" xmlns="http://www.w3.org/2000/svg">

<g transform="matrix(18.68858,0,0,18.68858,-9766.55904,-42866.8344)">
<path d="m 529.354 2294.31 h 13.8086 c 2.1581 8.8038 1.9508 17.6075 0 26.4113 h -13.8086 c -1.9055 -8.8038 -1.7968 -17.6075 0 -26.4113 z" fill="#fff" stroke="#000"/>
<path d="m 535.906 2295.54 c -0.5697 2.3997 -1.2188 7.96 -1.2188 7.96 l -0.9062 -4.2812 c -2.7101 5.9074 -3.2394 12.4407 -0.5938 15.2812 0.6801 -1.6132 1.1448 -3.3943 1.4062 -5.2188 0.0991 4.461 0.5826 8.3428 1.3125 9.8126 l 0.9375 -3.0313 c 0.1226 2.0048 0.381 3.6523 0.7384 4.4674 l 1.1791 -0.019 c 2.143 -3.1764 1.358 -14.4254 -0.605 -17.073 -0.3254 0.848 -0.5753 1.864 -0.7812 2.9375 -0.1228 -3.9908 -0.5811 -7.5887 -1.4688 -10.835 z"/>
<path d="m 537.56 2294.61 c 0.009 2.9369 0.9493 6.8336 2.6066 9.0868 0.8497 -2.9406 0.7897 -7.1588 0.5261 -9.1864 z"/>
<path d="m 531.187 2296.02 c -3.4082 3.4746 -3.6224 7.2587 -1.4183 11.1435 1.9674 -3.7167 2.5233 -7.4272 1.4183 -11.1435 z"/>
<path d="m 542.561 2300.88 c -2.0072 4.0106 -2.3071 9.2135 -0.7622 13.2245 3.4473 -3.3314 3.4568 -8.6629 0.7622 -13.2245 z"/>
<path d="m 530.518 2319.07 c -2.4761 -2.7154 -3.0228 -6.5537 -1.1588 -9.987 1.6075 3.0367 2.0616 6.9507 1.1588 9.987 z"/>
<path d="m 534.094 2320.33 c 0.0788 -1.8618 -0.8139 -4.2532 -1.8868 -5.0529 -0.3729 2.1145 -0.1529 3.9548 0.3569 5.0529 z"/>
<path d="m 543.394 2312.95 c 0.887 -3.96 0.643 -7.9972 -0.1157 -11.9572" fill="none" stroke="#fff"/>
<path d="m 530.191 2319.7 c -1.1935 -3.96 -1.6091 -8.4601 -1.1569 -12.4201" fill="none" stroke="#fff"/>
<path d="m 530.339 2295.25 c -1.2388 3.7017 -1.7059 7.9084 -1.299 11.6101" fill="none" stroke="#fff"/>
</g>
</svg>
