<svg viewBox="0 0 512 512" xmlns="http://www.w3.org/2000/svg">

<g transform="matrix(18.68858,0,0,18.68858,-9766.55904,-42866.8344)">
<path d="m529.3542,2294.3125h13.8086c2.1581,8.8038 1.9508,17.6075 0,26.4113h-13.8086c-1.9055-8.8038-1.7968-17.6075 0-26.4113z" fill="#fff" stroke="#000"/>
<path d="m535.9062,2295.54c-.5697,2.3997-1.2188,7.96-1.2188,7.96l-.9062-4.2812c-2.7101,5.9074-3.2394,12.4407-.5938,15.2812 .6801-1.6132 1.1448-3.3943 1.4062-5.2188 .0991,4.461.5826,8.3428 1.3125,9.8126l.9375-3.0313c.1226,2.0048.381,3.6523.7384,4.4674l1.1791-.019c2.143-3.1764 1.358-14.4254-.605-17.073-.3254.848-.5753,1.864-.7812,2.9375-.1228-3.9908-.5811-7.5887-1.4688-10.835z"/>
<path d="m537.5601,2294.6086c.009,2.9369.9493,6.8336 2.6066,9.0868 .8497-2.9406.7897-7.1588.5261-9.1864z"/>
<path d="m531.1867,2296.0213c-3.4082,3.4746-3.6224,7.2587-1.4183,11.1435 1.9674-3.7167 2.5233-7.4272 1.4183-11.1435z"/>
<path d="m542.5605,2300.8844c-2.0072,4.0106-2.3071,9.2135-.7622,13.2245 3.4473-3.3314 3.4568-8.6629.7622-13.2245z"/>
<path d="m530.5179,2319.0739c-2.4761-2.7154-3.0228-6.5537-1.1588-9.987 1.6075,3.0367 2.0616,6.9507 1.1588,9.987z"/>
<path d="m534.0944,2320.3319c.0788-1.8618-.8139-4.2532-1.8868-5.0529-.3729,2.1145-.1529,3.9548.3569,5.0529z"/>
<path d="m543.3943,2312.9536c.887-3.96.643-7.9972-.1157-11.9572" fill="none" stroke="#fff"/>
<path d="m530.1907,2319.7036c-1.1935-3.96-1.6091-8.4601-1.1569-12.4201" fill="none" stroke="#fff"/>
<path d="m530.3389,2295.2492c-1.2388,3.7017-1.7059,7.9084-1.299,11.6101" fill="none" stroke="#fff"/>
</g>
</svg>
