<svg viewBox="0 0 512 512" xmlns="http://www.w3.org/2000/svg">

<g transform="matrix(18.64808,0,0,18.64806,-11777.56929,-15844.24062)">
<path d="m636.4836,862.8036c3.6068.4877 6.4106,3.6923 6.5,6.7531h2.1875 .25 2.1875c.0894-3.0608 2.8932-6.2653 6.5-6.7531h-8.6875-.25-8.6875z" fill="#fff"/>
<g transform="matrix(1,0,0,-1.2784,349.25409,1369.662)">
<path d="m291.2124,405.9881c-10.3605-2.1886-12.5234-11.217 4.9164-10.0573v6.1426c-6.8498-4.918-9.683-2.0276-7.2552,1.5277 1.9888-1.8795 4.5226.7356 2.3388,2.387z" fill="#fff"/>
<path d="m300.8716,405.9881c10.3605-2.1886 12.5234-11.217-4.9164-10.0573v6.1426c6.8498-4.918 9.683-2.0276 7.2552,1.5277-1.9888-1.8795-4.5226.7356-2.3388,2.387z" fill="#fff"/>
</g>
<path d="m645.3188,868.5143c-2.7664,0-5.5329,4.2347-5.5329,4.2347l1.4097,2.0746-2.2104,1.2589h4.3953c-2.1678-2.1683-.6295-4.6074 1.9383-4.6074 2.603,0 3.9647,2.5807 1.9383,4.6074h4.35l-2.165-1.2589 1.4097-2.0746c0,0-2.7665-4.2347-5.5329-4.2347z" fill="#fff"/>
</g>
<path d="m684.9375,1283.5497c0,2.0365-1.3711,3.6875-3.0625,3.6875s-3.0625-1.651-3.0625-3.6875 1.3711-3.6875 3.0625-3.6875 3.0625,1.6509 3.0625,3.6875z" fill="#fff" stroke="#000" stroke-width=".945" transform="matrix(19.78979,0,0,19.76262,-13237.46848,-25248.33914)"/>
</svg>
