<svg viewBox="0 0 512 512" xmlns="http://www.w3.org/2000/svg">

<g fill="#fff" transform="matrix(18.68858,0,0,18.68858,-7124.36493,-8972.68364)">
<path d="m 401.768 498.884 c 0 -5.9664 -3.1077 -12.399 -6.937 -12.399 s -6.937 6.4326 -6.937 12.399 h 13.8739 z" fill="#fff"/>
<path d="m 390.001 482.276 c -10.3605 2.1886 -12.5234 11.217 4.9164 10.0573 v -6.1426 c -6.8498 4.918 -9.683 2.0276 -7.2552 -1.5277 1.9888 1.8795 4.5226 -0.7356 2.3388 -2.387 z" fill="#fff"/>
<path d="m 399.66 482.276 c 10.3605 2.1886 12.5234 11.217 -4.9164 10.0573 v -6.1426 c 6.8498 4.918 9.683 2.0276 7.2552 -1.5277 -1.9888 1.8795 -4.5226 -0.7356 -2.3388 -2.387 z" fill="#fff"/>
<path d="m 297.648 398.951 c 0 1.1594 -0.737 2.0992 -1.6462 2.0992 s -1.6462 -0.9399 -1.6462 -2.0992 0.737 -2.0992 1.6462 -2.0992 1.6462 0.9398 1.6462 2.0992 z" fill="#fff" stroke="#000" stroke-width=".5594" transform="matrix(1.86343,0,0,1.7148,-156.74768,-197.45796)"/>
<path d="m 394.734 494.972 c -5.0099 0 -10.0199 6.9965 -10.0199 6.9965 l 2.5528 2.5533 -2.1061 1.4043 h 6.063 c -3.9259 -3.9266 -1.14 -5.5922 3.5101 -5.5922 4.7139 0 7.1799 1.9218 3.5102 5.5922 h 6.1268 l -2.1699 -1.4043 2.5528 -2.5533 c 3e-05 0 -5.01 -6.9965 -10.0199 -6.9965 z" fill="#fff"/>
</g>
</svg>
