<svg viewBox="0 0 512 512" xmlns="http://www.w3.org/2000/svg">

<g transform="matrix(18.64808,0,0,18.64806,-11777.56929,-15844.24062)">
<path d="m 636.484 862.804 c 3.6068 0.4877 6.4106 3.6923 6.5 6.7531 h 2.1875 0.25 2.1875 c 0.0894 -3.0608 2.8932 -6.2653 6.5 -6.7531 h -8.6875 -0.25 -8.6875 z" fill="#fff"/>
<g transform="matrix(1,0,0,-1.2784,349.25409,1369.662)">
<path d="m 291.212 405.988 c -10.3605 -2.1886 -12.5234 -11.217 4.9164 -10.0573 v 6.1426 c -6.8498 -4.918 -9.683 -2.0276 -7.2552 1.5277 1.9888 -1.8795 4.5226 0.7356 2.3388 2.387 z" fill="#fff"/>
<path d="m 300.872 405.988 c 10.3605 -2.1886 12.5234 -11.217 -4.9164 -10.0573 v 6.1426 c 6.8498 -4.918 9.683 -2.0276 7.2552 1.5277 -1.9888 -1.8795 -4.5226 0.7356 -2.3388 2.387 z" fill="#fff"/>
</g>
<path d="m 645.319 868.514 c -2.7664 0 -5.5329 4.2347 -5.5329 4.2347 l 1.4097 2.0746 -2.2104 1.2589 h 4.3953 c -2.1678 -2.1683 -0.6295 -4.6074 1.9383 -4.6074 2.603 0 3.9647 2.5807 1.9383 4.6074 h 4.35 l -2.165 -1.2589 1.4097 -2.0746 c 0 0 -2.7665 -4.2347 -5.5329 -4.2347 z" fill="#fff"/>
</g>
<path d="m 684.938 1283.55 c 0 2.0365 -1.3711 3.6875 -3.0625 3.6875 s -3.0625 -1.651 -3.0625 -3.6875 1.3711 -3.6875 3.0625 -3.6875 3.0625 1.6509 3.0625 3.6875 z" fill="#fff" stroke="#000" stroke-width=".945" transform="matrix(19.78979,0,0,19.76262,-13237.46848,-25248.33914)"/>
</svg>
