<svg viewBox="0 0 512 512" xmlns="http://www.w3.org/2000/svg">

<g fill="#fff" transform="matrix(18.68858,0,0,18.68858,-7124.36493,-8972.68364)">
<path d="m401.7677,498.8841c0-5.9664-3.1077-12.399-6.937-12.399s-6.937,6.4326-6.937,12.399h13.8739z" fill="#fff"/>
<path d="m390.0011,482.2765c-10.3605,2.1886-12.5234,11.217 4.9164,10.0573v-6.1426c-6.8498,4.918-9.683,2.0276-7.2552-1.5277 1.9888,1.8795 4.5226-.7356 2.3388-2.387z" fill="#fff"/>
<path d="m399.6603,482.2765c10.3605,2.1886 12.5234,11.217-4.9164,10.0573v-6.1426c6.8498,4.918 9.683,2.0276 7.2552-1.5277-1.9888,1.8795-4.5226-.7356-2.3388-2.387z" fill="#fff"/>
<path d="m297.6478,398.9513c0,1.1594-.737,2.0992-1.6462,2.0992s-1.6462-.9399-1.6462-2.0992 .737-2.0992 1.6462-2.0992 1.6462.9398 1.6462,2.0992z" fill="#fff" stroke="#000" stroke-width=".5594" transform="matrix(1.86343,0,0,1.7148,-156.74768,-197.45796)"/>
<path d="m394.7336,494.9721c-5.0099,0-10.0199,6.9965-10.0199,6.9965l2.5528,2.5533-2.1061,1.4043h6.063c-3.9259-3.9266-1.14-5.5922 3.5101-5.5922 4.7139,0 7.1799,1.9218 3.5102,5.5922h6.1268l-2.1699-1.4043 2.5528-2.5533c3e-05,0-5.01-6.9965-10.0199-6.9965z" fill="#fff"/>
</g>
</svg>
