<svg viewBox="0 0 512 512" xmlns="http://www.w3.org/2000/svg">

<g transform="matrix(18.68858,0,0,18.68858,-10441.65257,-16356.53595)">
<g transform="translate(377.3823,117.676)">
<path d="m 182.438 767.55 c 8.3958 -4.3001 16.2917 -3.9894 24.6875 0.375 2.4639 4.2858 -25.7988 4.5644 -24.6875 -0.375 z" fill="#fff" fill-rule="evenodd"/>
<path d="m 192.38 767.947 c -2.6662 3.6234 -3.9092 9.8579 -2.2259 14.5477 1.2118 3.3764 8.9943 2.1436 8.2141 -0.5 -1.2565 -4.2573 -1.7783 -9.4799 -1.4553 -13.7898" fill="#fff" fill-rule="evenodd" stroke="#000"/>
<path d="m 182.062 768.361 c 8.3867 -7.627 22.7357 -2.6643 25.875 0.7507 1.3431 -5.7675 -4.294 -11.131 -13.75 -10.8102 -4.7776 0.1621 -14.0353 1.5688 -12.125 10.0595 z" fill="#fff" fill-rule="evenodd" stroke="#000"/>
</g>
<path d="m 574.165 885.879 c 0.7153 1.2847 4.8068 1.6176 6.4415 0.3598" fill="#fff" fill-rule="evenodd" stroke="#000"/>
<path d="m 562.797 885.538 c 0.7153 1.2847 4.8068 1.6176 6.4415 0.3598" fill="#fff" fill-rule="evenodd" stroke="#000"/>
<path d="m 568.052 884.287 c 0.8947 1.806 6.0125 2.274 8.0572 0.5058" fill="#fff" fill-rule="evenodd" stroke="#000"/>
</g>
</svg>
