<svg viewBox="0 0 512 512" xmlns="http://www.w3.org/2000/svg">

<g transform="matrix(18.68858,0,0,18.68858,-10439.48301,-18613.97863)">
<path d="m 575.195 1021.65 c -1.447 1.1793 -4.4745 1.4728 -6.4099 0 -2.697 -2.0526 -0.3862 -12.7333 1.639 -14.102 4.51 -3.0479 7.6494 11.7559 4.7709 14.102 z" fill="#fff" fill-rule="evenodd" stroke="#000"/>
<path d="m 581.987 1011.81 c -4.2386 1.1793 -13.1066 1.4728 -18.7757 0 -7.8999 -2.0526 -1.1314 -12.7333 4.801 -14.102 13.2106 -3.0479 22.4062 11.7559 13.9747 14.102 z" fill="#fff" fill-rule="evenodd" stroke="#000"/>
<path d="m 562.264 1009.06 c 0.2047 0.9891 0.7419 2.058 1.4712 2.8614" fill="none" stroke="#000"/>
<path d="m 567.005 1009.87 c -0.0151 0.775 -0.0137 1.5557 0.6613 2.5701" fill="none" stroke="#000"/>
<path d="m 571.607 1010.1 c -0.0851 0.903 -0.1431 1.8058 -0.0657 2.7359" fill="none" stroke="#000"/>
<path d="m 576.043 1010.07 c -0.1008 0.8122 -0.2004 1.6223 -0.3698 2.5391" fill="none" stroke="#000"/>
<path d="m 580.272 1009.67 c -0.1456 0.8648 -0.4142 1.7296 -0.7631 2.5944" fill="none" stroke="#000"/>
<path d="m 583.21 1009.13 c -0.2257 0.8648 -0.642 1.7296 -1.1827 2.5944" fill="none" stroke="#000"/>
</g>
</svg>
