<svg viewBox="0 0 512 512" xmlns="http://www.w3.org/2000/svg">

<g transform="matrix(18.68858,0,0,18.68858,-11803.10858,-3427.55136)">
<path d="m645.4649,202.8856c-5.1444,0-9.3195.8324-9.3195,1.8763s4.175,1.9001 9.3195,1.9001 9.3195-.8561 9.3194-1.9001-4.175-1.8763-9.3194-1.8763z" stroke="#fff"/>
<path d="m639.1323,190.0435 12.2552-.1409c-2.2311,0-4.7901,1.9289-4.7901,4.7915v8.0797c0,2.8127 2.1121,5.6057 4.4745,6.9993h-11.4663c2.346-1.3331 4.6422-4.1086 4.6422-6.9523v-7.9388c0-3.1134-2.8762-4.8384-5.1156-4.8384z" fill="#fff"/>
<path d="m642.6989,189.3863c0,3.1663-.225,5.2273-2.9915,6.1271-3.2351,1.0521-.5969,5.4288 2.2917,3.2687 .4425.9294 2.5946,1.2846 3.6505.2964 1.07,1.274 3.049.645 3.3934-.1944 2.4191,1.5277 4.6688-2.0868 2.164-3.3132-2.8332-1.3871-3.4675-3.2456-3.4675-6.3406" fill="#fff" fill-rule="evenodd" stroke="#000"/>
<path d="m643.426,185.0392c-2.1014-1.6486-4.7589-1.3259-6.0153.6844-3.2642-.6929-6.3969,2.5322-4.5641,5.638-1.9773,1.9776 1.1033,6.5002 3.4952,4.8627 1.2577,1.3461 3.9966,1.2618 5.1499-.5738 1.3126.823 3.0921.128 3.8204-1.0307 .8501,1.5056 3.8368,2.2945 5.3654,1.0348 1.7115,2.0213 5.3019.9956 4.994-1.2483 3.56-.1085 3.4269-5.4881.1087-5.9393 .459-2.3071-4.1177-5.2541-6.342-3.2627-1.3222-1.837-4.3881-1.7979-6.0122-.1651z" fill="#fff" stroke="#000"/>
</g>
</svg>
