<svg viewBox="0 0 512 512" xmlns="http://www.w3.org/2000/svg">

<g transform="matrix(18.68858,0,0,18.68858,-10439.48301,-18613.97863)">
<path d="m575.1951,1021.6538c-1.447,1.1793-4.4745,1.4728-6.4099,0-2.697-2.0526-.3862-12.7333 1.639-14.102 4.51-3.0479 7.6494,11.7559 4.7709,14.102z" fill="#fff" fill-rule="evenodd" stroke="#000"/>
<path d="m581.9872,1011.8102c-4.2386,1.1793-13.1066,1.4728-18.7757,0-7.8999-2.0526-1.1314-12.7333 4.801-14.102 13.2106-3.0479 22.4062,11.7559 13.9747,14.102z" fill="#fff" fill-rule="evenodd" stroke="#000"/>
<path d="m562.2641,1009.0583c.2047.9891.7419,2.058 1.4712,2.8614" fill="none" stroke="#000"/>
<path d="m567.0046,1009.8716c-.0151.775-.0137,1.5557.6613,2.5701" fill="none" stroke="#000"/>
<path d="m571.6069,1010.0996c-.0851.903-.1431,1.8058-.0657,2.7359" fill="none" stroke="#000"/>
<path d="m576.0428,1010.0674c-.1008.8122-.2004,1.6223-.3698,2.5391" fill="none" stroke="#000"/>
<path d="m580.2724,1009.6688c-.1456.8648-.4142,1.7296-.7631,2.5944" fill="none" stroke="#000"/>
<path d="m583.2102,1009.1346c-.2257.8648-.642,1.7296-1.1827,2.5944" fill="none" stroke="#000"/>
</g>
</svg>
