<svg viewBox="0 0 512 512" xmlns="http://www.w3.org/2000/svg">

<g transform="matrix(18.68858,0,0,18.68858,-10441.65257,-16356.53595)">
<g transform="translate(377.3823,117.676)">
<path d="m182.4375,767.5497c8.3958-4.3001 16.2917-3.9894 24.6875.375 2.4639,4.2858-25.7988,4.5644-24.6875-.375z" fill="#fff" fill-rule="evenodd"/>
<path d="m192.3803,767.9473c-2.6662,3.6234-3.9092,9.8579-2.2259,14.5477 1.2118,3.3764 8.9943,2.1436 8.2141-.5-1.2565-4.2573-1.7783-9.4799-1.4553-13.7898" fill="#fff" fill-rule="evenodd" stroke="#000"/>
<path d="m182.0625,768.3614c8.3867-7.627 22.7357-2.6643 25.875.7507 1.3431-5.7675-4.294-11.131-13.75-10.8102-4.7776.1621-14.0353,1.5688-12.125,10.0595z" fill="#fff" fill-rule="evenodd" stroke="#000"/>
</g>
<path d="m574.1647,885.8788c.7153,1.2847 4.8068,1.6176 6.4415.3598" fill="#fff" fill-rule="evenodd" stroke="#000"/>
<path d="m562.7973,885.5378c.7153,1.2847 4.8068,1.6176 6.4415.3598" fill="#fff" fill-rule="evenodd" stroke="#000"/>
<path d="m568.052,884.2874c.8947,1.806 6.0125,2.274 8.0572.5058" fill="#fff" fill-rule="evenodd" stroke="#000"/>
</g>
</svg>
