<svg viewBox="0 0 512 512" xmlns="http://www.w3.org/2000/svg">

<g transform="matrix(18.68858,0,0,18.68858,1354.62715,-4768.01466)">
<path d="m -58.664 263.591 c -2.3551 0 -4.2664 2.4433 -4.2664 5.4539 0 1.5631 0.5309 2.9718 1.356 3.9665 -4.4705 0.8417 -4.7956 3.8016 -4.7956 9.0898 h 15.4782 c 0 -5.2936 0.0945 -8.3912 -4.7625 -9.1559 0.7897 -0.99 1.2568 -2.3758 1.2568 -3.9004 0 -3.0105 -1.9113 -5.4539 -4.2664 -5.4539 z" fill="#fff" fill-rule="evenodd" stroke="#000"/>
<g transform="translate(-402.3568)">
<path d="m 355.685 271.825 1e-05 -5.6316 -0.9857 2.1805 h -5.1164 l -0.9583 0.5888 0.9583 0.6817 5.1164 1e-05 0.9857 2.1805 z" fill="#fff" fill-rule="evenodd"/>
<path d="m 331.767 271.825 -1e-05 -5.6316 0.9857 2.1805 h 5.1164 l 0.9583 0.5888 -0.9583 0.6817 -5.1164 1e-05 -0.9857 2.1805 z" fill="#fff" fill-rule="evenodd"/>
</g>
<g transform="translate(-402.5668,.4419)">
<path d="m 332.757 261.507 3.9821 -3.9821 -0.8449 2.2388 3.6178 3.6178 0.2613 1.094 -1.1597 -0.1956 -3.6178 -3.6178 -2.2388 0.8449 z" fill="#fff" fill-rule="evenodd"/>
<path d="m 354.862 261.507 -3.9821 -3.9821 0.8449 2.2388 -3.6178 3.6178 -0.2613 1.094 1.1597 -0.1956 3.6178 -3.6178 2.2388 0.8449 z" fill="#fff" fill-rule="evenodd"/>
</g>
<path d="m -55.8151 256.24 -5.6316 -2e-05 2.1805 0.9857 -1e-05 5.1164 0.5888 0.9583 0.6817 -0.9583 v -5.1164 l 2.1805 -0.9857 z" fill="#fff" fill-rule="evenodd"/>
</g>
</svg>
