<svg viewBox="0 0 512 512" xmlns="http://www.w3.org/2000/svg">

<g transform="matrix(18.68858,0,0,18.68858,-6360.1929,-40155.72608)">
<path d="m 343.314 2174.91 h 10.2518 c 2.9563 -0.9215 5.2488 -1.2924 9.3372 -0.197 2.969 0.7956 5.1273 -1.3861 3.5919 -5.7434 -2.1599 -6.1298 -1.8977 -14.2914 0.2839 -19.9114 l -10.6942 0.03 c 1.0499 3.5428 1.5874 13.9539 -2.0133 17.8632 0 0 -2.0321 1.1083 -4.1963 2.4726 -1.8078 1.1397 -3.6496 2.0591 -5.0267 2.4158 -3.4524 -0.785 -4.8812 3.0689 -1.5345 3.0689 z" fill="#fff"/>
<path d="m 350.174 2160.42 -2.7809 1.6123 4.3349 7.4599 c 0.5438 1.0786 3.2775 -0.58 2.7809 -1.5848 l -4.3349 -7.4874 z" fill="#fff" stroke="#000"/>
<path d="m 349.893 2156.11 c 0 1.2093 -1.6995 2.1896 -3.7961 2.1896 s -3.7961 -0.9803 -3.7961 -2.1896 1.6995 -2.1896 3.7961 -2.1896 3.7961 0.9803 3.7961 2.1896 z" fill="#fff" stroke="#000" stroke-width=".9747" transform="matrix(.89074,-.51167,.51427,.88624,-1069.3504,425.92223)"/>
<path d="m 351.171 2169.44 0.2624 2.844 0.9787 -2.4827"/>
<path d="m 352.781 2169.46 1.4466 3.9067 0.8435 -5.126"/>
<path d="m 352.688 2169.72 v 5.7584" fill="none" stroke="#000"/>
<path d="m 351.55 2149.06 h 15.955" fill="none" stroke="#000"/>
</g>
</svg>
