<svg viewBox="0 0 512 512" xmlns="http://www.w3.org/2000/svg">

<g transform="matrix(18.68858,0,0,18.68858,-7036.77763,-34035.12146)">
<path d="m 382.524 1826.93 16.6404 16.6404 1.1591 2.852 -2.8574 -1.1534 -16.6404 -16.6404 z" fill="#fff"/>
<path d="m 383.573 1823.83 -5.8511 5.851 0.6606 0.6608 3.5587 -2.1981 2.2924 -3.6533 z" fill="#fff"/>
<path d="m 399.574 1828.63 -16.6404 16.6402 -2.8519 1.159 1.1534 -2.8574 16.6403 -16.6402 z" fill="#fff"/>
<path d="m 402.677 1829.68 -5.851 -5.8511 -0.6606 0.6606 2.1978 3.5588 3.6533 2.2923 z" fill="#fff"/>
<path d="m 389.707 1839.19 4.0627 -4.0629" fill="none" stroke="#000"/>
<path d="m 387.05 1837.07 4.0628 -4.0628" fill="none" stroke="#000"/>
<path d="m 380.099 1830.29 4.0627 -4.0628" fill="none" stroke="#000"/>
<path d="m 400.366 1830.29 -4.0627 -4.0628" fill="none" stroke="#000"/>
<path d="m 393.191 1831.55 1.8668 0.4898 -1.1783 -1.1783 z"/>
<path d="m 394.408 1830.29 1.8668 0.4898 -1.1782 -1.1784 z"/>
<path d="m 395.625 1829.04 1.8669 0.4898 -1.1783 -1.1783 z"/>
<path d="m 385.358 1833.2 0.4899 -1.8669 -1.1784 1.1783 z"/>
<path d="m 384.103 1831.98 0.4899 -1.8669 -1.1784 1.1783 z"/>
<path d="m 382.849 1830.76 0.4899 -1.8669 -1.1784 1.1783 z"/>
</g>
</svg>
