<svg viewBox="0 0 512 512" xmlns="http://www.w3.org/2000/svg">

<g transform="matrix(18.68858,0,0,18.68858,-7036.77763,-34035.12146)">
<path d="m382.5239,1826.9323 16.6404,16.6404 1.1591,2.852-2.8574-1.1534-16.6404-16.6404z" fill="#fff"/>
<path d="m383.5734,1823.8292-5.8511,5.851 .6606.6608 3.5587-2.1981 2.2924-3.6533z" fill="#fff"/>
<path d="m399.5741,1828.6301-16.6404,16.6402-2.8519,1.159 1.1534-2.8574 16.6403-16.6402z" fill="#fff"/>
<path d="m402.6773,1829.6795-5.851-5.8511-.6606.6606 2.1978,3.5588 3.6533,2.2923z" fill="#fff"/>
<path d="m389.7073,1839.1865 4.0627-4.0629" fill="none" stroke="#000"/>
<path d="m387.05,1837.0668 4.0628-4.0628" fill="none" stroke="#000"/>
<path d="m380.0988,1830.2894 4.0627-4.0628" fill="none" stroke="#000"/>
<path d="m400.3665,1830.2894-4.0627-4.0628" fill="none" stroke="#000"/>
<path d="m393.1909,1831.5486 1.8668.4898-1.1783-1.1783z"/>
<path d="m394.408,1830.2942 1.8668.4898-1.1782-1.1784z"/>
<path d="m395.6249,1829.0397 1.8669.4898-1.1783-1.1783z"/>
<path d="m385.3575,1833.1983 .4899-1.8669-1.1784,1.1783z"/>
<path d="m384.103,1831.9813 .4899-1.8669-1.1784,1.1783z"/>
<path d="m382.8485,1830.7643 .4899-1.8669-1.1784,1.1783z"/>
</g>
</svg>
