<svg viewBox="0 0 512 512" xmlns="http://www.w3.org/2000/svg">

<g transform="matrix(18.68858,0,0,18.68858,-6360.1929,-40155.72608)">
<path d="m343.3144,2174.9139h10.2518c2.9563-.9215 5.2488-1.2924 9.3372-.197 2.969.7956 5.1273-1.3861 3.5919-5.7434-2.1599-6.1298-1.8977-14.2914.2839-19.9114l-10.6942.03c1.0499,3.5428 1.5874,13.9539-2.0133,17.8632 0,0-2.0321,1.1083-4.1963,2.4726-1.8078,1.1397-3.6496,2.0591-5.0267,2.4158-3.4524-.785-4.8812,3.0689-1.5345,3.0689z" fill="#fff"/>
<path d="m350.1743,2160.4211-2.7809,1.6123 4.3349,7.4599c.5438,1.0786 3.2775-.58 2.7809-1.5848l-4.3349-7.4874z" fill="#fff" stroke="#000"/>
<path d="m349.8927,2156.1101c0,1.2093-1.6995,2.1896-3.7961,2.1896s-3.7961-.9803-3.7961-2.1896 1.6995-2.1896 3.7961-2.1896 3.7961.9803 3.7961,2.1896z" fill="#fff" stroke="#000" stroke-width=".9747" transform="matrix(.89074,-.51167,.51427,.88624,-1069.3504,425.92223)"/>
<path d="m351.1713,2169.4443 .2624,2.844 .9787-2.4827"/>
<path d="m352.7809,2169.4624 1.4466,3.9067 .8435-5.126"/>
<path d="m352.6881,2169.725v5.7584" fill="none" stroke="#000"/>
<path d="m351.5499,2149.0574h15.955" fill="none" stroke="#000"/>
</g>
</svg>
