<svg viewBox="0 0 512 512" xmlns="http://www.w3.org/2000/svg">

<g transform="matrix(18.68858,0,0,18.68858,1354.62715,-4768.01466)">
<path d="m-58.664,263.5912c-2.3551,0-4.2664,2.4433-4.2664,5.4539 0,1.5631.5309,2.9718 1.356,3.9665-4.4705.8417-4.7956,3.8016-4.7956,9.0898h15.4782c0-5.2936.0945-8.3912-4.7625-9.1559 .7897-.99 1.2568-2.3758 1.2568-3.9004 0-3.0105-1.9113-5.4539-4.2664-5.4539z" fill="#fff" fill-rule="evenodd" stroke="#000"/>
<g transform="translate(-402.3568)">
<path d="m355.6846,271.8253 1e-05-5.6316-.9857,2.1805h-5.1164l-.9583.5888 .9583.6817 5.1164,1e-05 .9857,2.1805z" fill="#fff" fill-rule="evenodd"/>
<path d="m331.7673,271.8253-1e-05-5.6316 .9857,2.1805h5.1164l.9583.5888-.9583.6817-5.1164,1e-05-.9857,2.1805z" fill="#fff" fill-rule="evenodd"/>
</g>
<g transform="translate(-402.5668,.4419)">
<path d="m332.7569,261.5075 3.9821-3.9821-.8449,2.2388 3.6178,3.6178 .2613,1.094-1.1597-.1956-3.6178-3.6178-2.2388.8449z" fill="#fff" fill-rule="evenodd"/>
<path d="m354.8624,261.5075-3.9821-3.9821 .8449,2.2388-3.6178,3.6178-.2613,1.094 1.1597-.1956 3.6178-3.6178 2.2388.8449z" fill="#fff" fill-rule="evenodd"/>
</g>
<path d="m-55.8151,256.24-5.6316-2e-05 2.1805.9857-1e-05,5.1164 .5888.9583 .6817-.9583v-5.1164l2.1805-.9857z" fill="#fff" fill-rule="evenodd"/>
</g>
</svg>
