<svg viewBox="0 0 512 512" xmlns="http://www.w3.org/2000/svg">

<g transform="matrix(18.68858,0,0,18.68858,-2952.6553,-29939.03178)">
<path d="m171.0536,1604.3859-1.9501,4.8188" fill="none" stroke="#fff"/>
<path d="m173.4622,1608.6386-1.1864,3.3127" fill="none" stroke="#fff"/>
<path d="m175.3674,1611.5433-1.2342,3.4073" fill="none" stroke="#fff"/>
<path d="m176.9942,1614.3858-1.1268,3.1952" fill="none" stroke="#fff"/>
<path d="m178.5129,1616.7338-1.31,3.5565" fill="none" stroke="#fff"/>
<path d="m179.7883,1619.1068-1.1757,3.2918" fill="none" stroke="#fff"/>
<path d="m180.9444,1621.3782-1.0312,3.0065" fill="none" stroke="#fff"/>
<path d="m159.1139,1603.0138h7.7955l17.5666,25.3621-25.3621-17.5666z" fill="#fff"/>
<path d="m167.6378,1606.4285c-1.0268-1.1003-2.7518-1.1599-3.8522-.1329s-1.1601,2.7517-.1332,3.8523 17.9455,15.2356 17.9455,15.2356-12.9329-17.8542-13.9601-18.955z"/>
<path d="m159.1004,1612.2719 8.3062-1.9633" fill="none" stroke="#000"/>
<path d="m161.2147,1615.8964 8.3062-1.9633" fill="none" stroke="#000"/>
<path d="m163.8198,1618.275 8.3062-1.9633" fill="none" stroke="#000"/>
<path d="m166.0851,1620.4648 8.3062-1.9633" fill="none" stroke="#000"/>
<path d="m168.5015,1622.2771 8.3062-1.9633" fill="none" stroke="#000"/>
<path d="m170.3137,1624.0516 8.3062-1.9633" fill="none" stroke="#000"/>
<path d="m171.7107,1625.6373 8.3062-1.9633" fill="none" stroke="#000"/>
<path d="m183.0344,1624.5315-12.7169-21.411" fill="none" stroke="#000"/>
<path d="m167.4443,1608.1c0,.7402-.6001,1.3403-1.3403,1.3403s-1.3403-.6001-1.3403-1.3403 .6001-1.3403 1.3403-1.3403 1.3403.6 1.3403,1.3403z" fill="#fff" transform="matrix(.97183,0,0,.97183,4.33271,45.18533)"/>
<path d="m168.7904,1609.9065c-.3966-.4154-1.0373-.4492-1.4306-.077s-.3907,1.0135.006,1.4289 6.8743,5.776 6.8743,5.776-5.0529-6.7141-5.4496-7.1298z" fill="#fff"/>
</g>
</svg>
