<svg viewBox="0 0 512 512" xmlns="http://www.w3.org/2000/svg">

<g transform="matrix(18.68858,0,0,18.68858,-2952.6553,-29939.03178)">
<path d="m 171.054 1604.39 -1.9501 4.8188" fill="none" stroke="#fff"/>
<path d="m 173.462 1608.64 -1.1864 3.3127" fill="none" stroke="#fff"/>
<path d="m 175.367 1611.54 -1.2342 3.4073" fill="none" stroke="#fff"/>
<path d="m 176.994 1614.39 -1.1268 3.1952" fill="none" stroke="#fff"/>
<path d="m 178.513 1616.73 -1.31 3.5565" fill="none" stroke="#fff"/>
<path d="m 179.788 1619.11 -1.1757 3.2918" fill="none" stroke="#fff"/>
<path d="m 180.944 1621.38 -1.0312 3.0065" fill="none" stroke="#fff"/>
<path d="m 159.114 1603.01 h 7.7955 l 17.5666 25.3621 -25.3621 -17.5666 z" fill="#fff"/>
<path d="m 167.638 1606.43 c -1.0268 -1.1003 -2.7518 -1.1599 -3.8522 -0.1329 s -1.1601 2.7517 -0.1332 3.8523 17.9455 15.2356 17.9455 15.2356 -12.9329 -17.8542 -13.9601 -18.955 z"/>
<path d="m 159.1 1612.27 8.3062 -1.9633" fill="none" stroke="#000"/>
<path d="m 161.215 1615.9 8.3062 -1.9633" fill="none" stroke="#000"/>
<path d="m 163.82 1618.28 8.3062 -1.9633" fill="none" stroke="#000"/>
<path d="m 166.085 1620.46 8.3062 -1.9633" fill="none" stroke="#000"/>
<path d="m 168.501 1622.28 8.3062 -1.9633" fill="none" stroke="#000"/>
<path d="m 170.314 1624.05 8.3062 -1.9633" fill="none" stroke="#000"/>
<path d="m 171.711 1625.64 8.3062 -1.9633" fill="none" stroke="#000"/>
<path d="m 183.034 1624.53 -12.7169 -21.411" fill="none" stroke="#000"/>
<path d="m 167.444 1608.1 c 0 0.7402 -0.6001 1.3403 -1.3403 1.3403 s -1.3403 -0.6001 -1.3403 -1.3403 0.6001 -1.3403 1.3403 -1.3403 1.3403 0.6 1.3403 1.3403 z" fill="#fff" transform="matrix(.97183,0,0,.97183,4.33271,45.18533)"/>
<path d="m 168.79 1609.91 c -0.3966 -0.4154 -1.0373 -0.4492 -1.4306 -0.077 s -0.3907 1.0135 0.006 1.4289 6.8743 5.776 6.8743 5.776 -5.0529 -6.7141 -5.4496 -7.1298 z" fill="#fff"/>
</g>
</svg>
