<svg viewBox="0 0 512 512" xmlns="http://www.w3.org/2000/svg">

<g transform="matrix(18.68858,0,0,18.68858,-3631.19058,-2955.30028)">
<path d="m195.9142,163.6149c-3.456,8.194 10.4575,19.4541 15.8503,20.3108 1.966.3123 5.8532-4.9925 7.0067-6.6683-1.749,1.9973-5.7831,5.5837-6.5252,5.087-.7977-.534 2.4635-4.7578 3.8699-7.3513-1.8843,2.2684-6.5687,6.1738-7.3104,5.7553-.6541-.369 2.0006-4.4044 3.133-6.4992-1.5741,1.7784-5.2908,4.99-5.9065,4.6535-.5995-.3276 1.5453-3.9489 2.6248-5.8877-1.336,1.4134-4.3887,4.175-4.8897,3.7756-.4479-.3569 1.499-3.3826 2.2501-4.8495-1.1693,1.3421-3.8509,3.5227-4.3648,3.0058-.4554-.4582 1.3464-3.3192 1.976-4.7615-1.0179,1.0689-3.6096,3.0266-4.0432,2.4116-.4049-.5744 1.0774-3.1413 1.719-4.4869-.9373,1.0936-3.3065,2.7172-3.7102,1.9418-.2974-.5713.778-2.5292 1.2141-3.4994-.681.613-2.1138,1.3502-2.3828.6903 .1341-1.8343 1.0714-4.0277 2.6885-4.6446 .3023.1725.3633,1.7672.2073,2.7151 .3312-1.0149 1.682-3.2795 2.3319-2.7298 .4238.3584.1232,2.8679.09,3.8237 .3553-1.4107 1.9422-4.7299 2.6635-4.2345 .4648.3191.1616,4.1429-.2641,5.4246 .6705-1.1414 2.1794-5.4954 2.8292-5.1594 .6025.3116.3452,4.2911.0731,6.0208 .5381-1.8392 2.2001-6.0503 2.8991-5.7617 .4956.2046.3352,4.1252-.1924,6.2021 .5858-1.5645 2.5616-6.0387 3.1751-5.8758s.1478,4.6316-.157,6.6325c.6481-1.8988 2.4144-6.5107 3.1601-6.3043 .6816.1886.2346,5.3118-.1142,7.5195 .825-1.9796 2.7121-7.2694 3.5268-6.8786 .8305.3984-.2786,6.7724-.4344,8.0194 .9247-1.8397 2.4964-7.9253 1.6032-9.4528-6.2749-1.3694-22.7155-3.4048-24.5968,1.0555z" fill="#fff" fill-rule="evenodd"/>
</g>
</svg>
