<svg viewBox="0 0 512 512" xmlns="http://www.w3.org/2000/svg">

<g transform="matrix(18.68858,0,0,18.68858,-4021.9498,-10388.05413)">
<path d="m 531.037 404.564 c 0 7.4688 -6.0546 13.5234 -13.5234 13.5234 s -13.5234 -6.0546 -13.5234 -13.5234 6.0546 -13.5234 13.5234 -13.5234 13.5234 6.0546 13.5234 13.5234 z" fill="none" stroke="#fff" stroke-width="1.0479" transform="matrix(.91335,0,0,-.91335,-243.88067,939.02539)"/>
<path d="m 235.75 566.362 c 0 2.4162 -1.9588 4.375 -4.375 4.375 s -4.375 -1.9587 -4.375 -4.375 1.9587 -4.375 4.375 -4.375 4.375 1.9588 4.375 4.375 z" fill="#fff" transform="matrix(.86245,-.23109,.23109,.86245,-104.58929,129.59406)"/>
<path d="m 235.75 566.362 c 0 2.4162 -1.9588 4.375 -4.375 4.375 s -4.375 -1.9587 -4.375 -4.375 1.9587 -4.375 4.375 -4.375 4.375 1.9588 4.375 4.375 z" transform="matrix(.65336,-.17507,.17507,.65336,-23.10796,234.68449)"/>
<path d="m 200.66 573.46 -5.4442 -2.6357 -4.3633 4.189 0.8243 -5.9922 -5.3323 -2.8553 5.9537 -1.0677 1.0677 -5.9537 2.8553 5.3323 5.9922 -0.8243 -4.189 4.3633 z" fill="#fff" transform="matrix(-.1868,.1868,-.1868,-.1868,378.60853,636.13063)"/>
<path d="m 220.175 571.485 c 0 0.537 -0.4353 0.9723 -0.9723 0.9723 s -0.9723 -0.4353 -0.9723 -0.9723 0.4353 -0.9723 0.9723 -0.9723 0.9723 0.4353 0.9723 0.9723 z" fill="#fff" transform="matrix(.9375,0,0,.9375,28.61086,25.86502)"/>
<path d="m 220.175 571.485 c 0 0.537 -0.4353 0.9723 -0.9723 0.9723 s -0.9723 -0.4353 -0.9723 -0.9723 0.4353 -0.9723 0.9723 -0.9723 0.9723 0.4353 0.9723 0.9723 z" fill="#fff" transform="matrix(.64205,0,0,.64205,80.05436,195.889)"/>
<path d="m 220.175 571.485 c 0 0.537 -0.4353 0.9723 -0.9723 0.9723 s -0.9723 -0.4353 -0.9723 -0.9723 0.4353 -0.9723 0.9723 -0.9723 0.9723 0.4353 0.9723 0.9723 z" fill="#fff" transform="matrix(.64205,0,0,.64205,89.05436,192.8265)"/>
<path d="m 220.175 571.485 c 0 0.537 -0.4353 0.9723 -0.9723 0.9723 s -0.9723 -0.4353 -0.9723 -0.9723 0.4353 -0.9723 0.9723 -0.9723 0.9723 0.4353 0.9723 0.9723 z" fill="#fff" transform="matrix(1.00568,0,0,1.00568,-1.94857,-9.55776)"/>
<path d="m 220.175 571.485 c 0 0.537 -0.4353 0.9723 -0.9723 0.9723 s -0.9723 -0.4353 -0.9723 -0.9723 0.4353 -0.9723 0.9723 -0.9723 0.9723 0.4353 0.9723 0.9723 z" fill="#fff" transform="matrix(.64205,0,0,.64205,91.57416,202.88012)"/>
<path d="m 220.175 571.485 c 0 0.537 -0.4353 0.9723 -0.9723 0.9723 s -0.9723 -0.4353 -0.9723 -0.9723 0.4353 -0.9723 0.9723 -0.9723 0.9723 0.4353 0.9723 0.9723 z" fill="#fff" transform="matrix(.64205,0,0,.64205,90.94916,198.69262)"/>
<path d="m 219.969 568.531 c -1.0745 1.6443 -2.0197 3.4178 -2.625 5.5312 l 0.75 1.8125 c 3.087 5.6281 15.4082 8.5373 20.0312 1.5625 l 1.8741 -3.0651 -2.5385 -2.0804 c -2.6547 0.748 -5.9051 0.4843 -7.4338 -3.2563 l -2.2456 8.1831 c -0.4729 -2.4362 -1.2486 -4.3486 -2.5625 -6.1647 -1.0547 0.7413 -1.7308 1.7459 -2.125 2.7273 l -3.125 -5.25 z" fill="#fff"/>
<path d="m 220.175 571.485 c 0 0.537 -0.4353 0.9723 -0.9723 0.9723 s -0.9723 -0.4353 -0.9723 -0.9723 0.4353 -0.9723 0.9723 -0.9723 0.9723 0.4353 0.9723 0.9723 z" fill="#fff" transform="matrix(1.21023,0,0,1.21023,-38.58734,-133.21635)"/>
<path d="m 220.175 571.485 c 0 0.537 -0.4353 0.9723 -0.9723 0.9723 s -0.9723 -0.4353 -0.9723 -0.9723 0.4353 -0.9723 0.9723 -0.9723 0.9723 0.4353 0.9723 0.9723 z" fill="#fff" transform="matrix(.64205,0,0,.64205,98.38666,202.69262)"/>
</g>
</svg>
