<svg viewBox="0 0 512 512" xmlns="http://www.w3.org/2000/svg">

<g transform="matrix(18.68858,0,0,18.68858,-4313.3692,-17250.95139)">
<path d="m695.1875,438.8622c0,6.4548-3.5398,11.6875-7.9062,11.6875s-7.9062-5.2327-7.9062-11.6875 3.5398-11.6875 7.9062-11.6875 7.9062,5.2327 7.9062,11.6875z" fill="#fff" stroke="#000" stroke-width=".8689" transform="matrix(1.17592,0,0,1.12634,-563.7424,442.55695)"/>
<path d="m236.0509,933.4374c-.2436,1.1078-.3529,2.3045-.3529,3.5216 0,.8126.0651,1.6087.1765,2.3763 2.1225.9149 5.1817,1.5174 8.5884,1.5174 3.3947,0 6.4456-.5796 8.559-1.4888 .1139-.7763.1765-1.5826.1765-2.405 0-1.217-.1093-2.4137-.3529-3.5216-2.1065.993-5.0665,1.6033-8.3825,1.6033s-6.3036-.6103-8.4119-1.6033z"/>
<path d="m243.2134,937.0657c-1.6176-1.3147-3.4603-1.3825-5.4667-.5442 .7791,2.7516 4.6599,2.274 5.4667.5442z" fill="#fff" fill-rule="evenodd"/>
<path d="m245.6828,937.0657c1.6176-1.3147 3.4603-1.3825 5.4667-.5442-.7791,2.7516-4.6599,2.274-5.4667.5442z" fill="#fff" fill-rule="evenodd"/>
<path d="m695.1875,438.8622c0,6.4548-3.5398,11.6875-7.9062,11.6875s-7.9062-5.2327-7.9062-11.6875 3.5398-11.6875 7.9062-11.6875 7.9062,5.2327 7.9062,11.6875z" fill="none" stroke="#fff" stroke-width=".9545" transform="matrix(1.05415,0,0,1.04116,-480.04715,479.94065)"/>
</g>
</svg>
