<svg viewBox="0 0 512 512" xmlns="http://www.w3.org/2000/svg">

<g transform="matrix(18.68858,0,0,18.68858,-7037.44295,-36083.69819)">
<path d="m 382.758 1948.08 -1.0223 7.7396 8.0657 -5.8531" fill="#fff"/>
<path d="m 504.839 1646.29 c 0 2.6393 -3.4543 4.7788 -7.7154 4.7788 s -7.7154 -2.1395 -7.7154 -4.7788 3.4543 -4.7787 7.7154 -4.7787 7.7154 2.1395 7.7154 4.7787 z" fill="#fff" stroke="#fff" stroke-width=".585" transform="matrix(1.56405,0,0,1.86839,-387.36434,-1132.6464)"/>
<path d="m 385.699 1944.37 c 0 0.8296 -0.6726 1.5022 -1.5022 1.5022 s -1.5022 -0.6726 -1.5022 -1.5022 0.6726 -1.5022 1.5022 -1.5022 1.5022 0.6725 1.5022 1.5022 z" transform="matrix(.81854,0,0,.81854,70.48531,355.16094)"/>
<path d="m 385.699 1944.37 c 0 0.8296 -0.6726 1.5022 -1.5022 1.5022 s -1.5022 -0.6726 -1.5022 -1.5022 0.6726 -1.5022 1.5022 -1.5022 1.5022 0.6725 1.5022 1.5022 z" transform="matrix(.81854,0,0,.81854,75.6658,355.16094)"/>
<path d="m 385.699 1944.37 c 0 0.8296 -0.6726 1.5022 -1.5022 1.5022 s -1.5022 -0.6726 -1.5022 -1.5022 0.6726 -1.5022 1.5022 -1.5022 1.5022 0.6725 1.5022 1.5022 z" transform="matrix(.81854,0,0,.81854,81.00869,355.16094)"/>
</g>
</svg>
