<svg viewBox="0 0 512 512" xmlns="http://www.w3.org/2000/svg">

<g transform="matrix(18.68858,0,0,18.68858,-7037.44295,-36083.69819)">
<path d="m382.7579,1948.0849-1.0223,7.7396 8.0657-5.8531" fill="#fff"/>
<path d="m504.8395,1646.2894c0,2.6393-3.4543,4.7788-7.7154,4.7788s-7.7154-2.1395-7.7154-4.7788 3.4543-4.7787 7.7154-4.7787 7.7154,2.1395 7.7154,4.7787z" fill="#fff" stroke="#fff" stroke-width=".585" transform="matrix(1.56405,0,0,1.86839,-387.36434,-1132.6464)"/>
<path d="m385.6985,1944.3672c0,.8296-.6726,1.5022-1.5022,1.5022s-1.5022-.6726-1.5022-1.5022 .6726-1.5022 1.5022-1.5022 1.5022.6725 1.5022,1.5022z" transform="matrix(.81854,0,0,.81854,70.48531,355.16094)"/>
<path d="m385.6985,1944.3672c0,.8296-.6726,1.5022-1.5022,1.5022s-1.5022-.6726-1.5022-1.5022 .6726-1.5022 1.5022-1.5022 1.5022.6725 1.5022,1.5022z" transform="matrix(.81854,0,0,.81854,75.6658,355.16094)"/>
<path d="m385.6985,1944.3672c0,.8296-.6726,1.5022-1.5022,1.5022s-1.5022-.6726-1.5022-1.5022 .6726-1.5022 1.5022-1.5022 1.5022.6725 1.5022,1.5022z" transform="matrix(.81854,0,0,.81854,81.00869,355.16094)"/>
</g>
</svg>
