<svg xmlns="http://www.w3.org/2000/svg" viewBox="0 0 512 512">
<g transform="matrix(15 0 0 15 15.99995 -7729.4323)">
<use width="744.094" height="1052.362" transform="translate(36 512.36217)"/>
</g>
<g fill="#fff" transform="matrix(6.6246 0 0 6.73103 -167.9743 -5060.09305)">
<path d="m 64 756.362 c 4 0 12 4 12 8 0 4 -4 12 -12 20 -8 -8 -12 -16 -12 -20 0 -4 8 -8 12 -8 z"/>
<path d="m 92 66 a 30 34 0 1 1 -60 0 30 34 0 1 1 60 0 z" transform="matrix(.26667 0 0 .23529 47.46667 780.83276)"/>
<path d="m 98.641 816.362 c -2 3.4641 -9.4641 8.3923 -12.9282 6.3923 -3.4641 -2 -8.3923 -9.4641 -11.3205 -20.3923 10.9282 -2.9282 19.8564 -2.3923 23.3205 -0.3923 3.4641 2 2.9282 10.9282 0.9282 14.3923 z"/>
<path d="m 29.359 816.362 c -2 -3.4641 -2.5359 -12.3923 0.9282 -14.3923 3.4641 -2 12.3923 -2.5359 23.3205 0.3923 -2.9282 10.9282 -7.8564 18.3923 -11.3205 20.3923 -3.4641 2 -10.9282 -2.9282 -12.9282 -6.3923 z"/>
</g>
</svg>
