<svg viewBox="0 0 512 512" xmlns="http://www.w3.org/2000/svg">

<g transform="matrix(18.68858,0,0,18.68858,1348.11862,-6706.62137)">
<path d="m -53.6888 359.705 c 1.1922 -0.0804 2.3521 0.6125 3.1875 1.8125 3.0867 -0.1162 4.6504 2.7882 2.1562 4.7188 4.2285 1.9034 1.7045 4.3202 -1.4375 5.0938 1.4558 1.6866 -1.2691 2.7561 -2.7188 1.4688 -4.3255 1.6607 -9.1427 1.2891 -11.625 -1.7812 -2.2686 0.8055 -4.044 0.3157 -4.4688 -2.1875 -2.9872 0.2468 -2.4877 -3.1373 0.0312 -3.9375 -0.5721 -2.6274 1.821 -3.6962 4.0938 -3.1562 1.544 -1.7304 3.5706 -1.6672 5.5938 -1.0312 1.0783 -0.5369 1.9893 -0.2833 3.0625 0.0312 0.692 -0.649 1.4097 -0.983 2.125 -1.0312 z" fill="#fff"/>
<path d="m -62.2857 383.126 c -0.8098 -0.3328 -1.9607 -0.2289 -3.9703 -0.1356 7.6716 -5.3681 10.0401 -12.5106 0.3373 -15.115 1.8387 -0.7452 4.0246 -0.0593 2.4338 -4.1047 1.8277 3.2493 2.3999 3.3454 2.9367 0.8658 0.3627 2.5883 0.0273 6.4275 2.1957 2.4427 -0.5892 4.8173 1.9337 1.9188 3.2015 -4.086 -0.8561 7.5215 1.5229 6.6774 5.0152 5.6213 -8.6989 7.7796 -4.8109 10.1358 -1.4139 14.3329 -1.5397 -0.4567 -3.2439 -0.588 -3.7027 -0.4483" fill-rule="evenodd" stroke="#fff" stroke-width=".9054"/>
<path d="m -52.8623 363.203 c -2.3083 1.7711 -2.6295 1.993 -2.8726 3.5797 -0.0892 -1.4614 -0.1696 -2.1275 -1.9041 -3.1941 1.3443 0.6963 2.5512 1.0967 4.7767 -0.3856 z" fill-rule="evenodd"/>
<path d="m -57.2616 371.824 c 0.0569 5.1938 -4.1278 10.554 -6.372 12.7822 2.5428 -0.4276 4.4269 -0.8621 5.2458 0.24 0.8567 -1.3462 2.4269 -0.9158 5.0215 -0.1347 -1.7421 -1.8864 -3.4214 -4.3186 -3.552 -6.1091" fill-rule="evenodd" stroke="#fff" stroke-width=".9054"/>
</g>
</svg>
