<svg viewBox="0 0 512 512" xmlns="http://www.w3.org/2000/svg">

<g transform="matrix(18.68858,0,0,18.68858,-3632.54903,-17931.77059)">
<path d="m 208.753 975.831 c -2.2183 0.7117 -4.1848 3.1518 -3.7096 5.4234 0.3114 1.4884 2.1225 2.6753 3.5327 2.2122 1.7263 -0.5668 0.9082 -3.1153 -0.9734 -2.6416 1.4229 -1.945 3.0857 -1.1413 3.6393 0.5446 1.5679 4.775 -6.3311 7.6139 -8.7134 0.3584 -1.0759 -3.2767 1.5241 -6.8808 5.1264 -8.5213" fill="#fff" fill-rule="evenodd"/>
<path d="m 209.492 970.572 c 1.8664 2.4606 4.9118 1.2903 5.8397 -0.5593 0.6819 -1.3592 0.7285 -3.3363 -0.5224 -4.1353 -1.5313 -0.9781 -2.987 1.268 -1.4295 2.4253 -2.4064 0.1289 -2.8363 -1.6672 -1.8811 -3.1626 2.7054 -4.2355 9.5041 0.0847 6.1005 6.5205 -1.6123 3.0487 -6.6903 3.4831 -10.1516 1.4224" fill="#fff" fill-rule="evenodd"/>
<path d="m 209.385 972.928 c 0.884 2.1554 2.281 3.6054 4.3172 4.7189 1.3342 0.7296 3.4521 0.6139 4.6266 -0.2936 1.4379 -1.1109 -0.1987 -3.6212 -1.814 -2.5462 0.6916 -2.3085 2.4015 -1.9995 3.6122 -0.7023 3.6948 3.9592 -3.1066 8.3456 -7.6999 5.9144 -3.0482 -1.6134 -3.6531 -2.3279 -5.5719 -5.79" fill="#fff" fill-rule="evenodd"/>
<path d="m 206.726 975.61 c -2.3335 -0.729 -4.0287 -0.9292 -6.3435 -0.1838 -1.6761 0.5397 -3.4101 2.5956 -2.8075 4.5481 0.7458 2.4166 3.1264 1.4806 2.2427 -0.1038 2.6934 0.8053 1.7979 3.1869 -0.047 3.4993 -5.3621 0.9079 -6.4248 -7.4751 -1.1669 -10.0569 3.4353 -1.6868 5.121 -1.661 9.211 -0.8691" fill="#fff" fill-rule="evenodd"/>
<path d="m 211.118 972.561 c -3.1425 -3.2977 -0.7026 -9.7077 -6.657 -11.6388 -7.7856 -2.525 -10.427 9.3971 -0.9464 11.0004 2.343 3.1961 4.7743 2.8832 7.6034 0.6384 z" fill="#fff" fill-rule="evenodd"/>
<path d="m 208.375 967.643 c 0 0.7766 -0.6296 1.4062 -1.4062 1.4062 s -1.4062 -0.6296 -1.4062 -1.4062 0.6296 -1.4062 1.4062 -1.4062 1.4062 0.6296 1.4062 1.4062 z" stroke="#fff" transform="translate(1.75,1.1875)"/>
<path d="m 208.375 967.643 c 0 0.7766 -0.6296 1.4062 -1.4062 1.4062 s -1.4062 -0.6296 -1.4062 -1.4062 0.6296 -1.4062 1.4062 -1.4062 1.4062 0.6296 1.4062 1.4062 z" stroke="#fff" transform="translate(-1.75,1.75)"/>
</g>
</svg>
