<svg viewBox="0 0 512 512" xmlns="http://www.w3.org/2000/svg">

<g transform="matrix(18.68858,0,0,18.68858,1350.37982,-2860.42284)">
<path d="m -58.3956 156.969 c -5.5392 0 -10.0515 4.8177 -10.0515 10.7844 3e-05 2.2834 0.6566 4.4317 1.7799 6.1775 -1.3078 -0.7081 -2.5924 -1.5656 -3.874 -2.6176 v 5.0891 h 9.3535 c -2.5684 -1.7795 -4.3626 -4.4001 -4.3626 -7.3926 1e-05 -3.99 3.2041 -7.2245 7.1547 -7.2245 s 7.1547 3.2345 7.1547 7.2245 c -1e-05 2.9925 -1.7942 5.6131 -4.3626 7.3926 h 9.3535 v -5.0891 c -1.2853 1.063 -2.5842 1.937 -3.9089 2.6525 1.1395 -1.7535 1.8149 -3.911 1.8149 -6.2124 -3e-05 -5.9667 -4.5123 -10.7844 -10.0515 -10.7844 z" fill="#fff"/>
</g>
</svg>
