<svg viewBox="0 0 512 512" xmlns="http://www.w3.org/2000/svg">

<g transform="matrix(18.68858,0,0,18.68858,-5674.69017,-230.9801)">
<path d="m317.3368,12.6186v26.8257" fill="none" stroke="#000"/>
<g transform="translate(476.8057,-39.0361)">
<path d="m-147.4677,65.9522c-1.4955-1.4355-5.0827-.1066-8.0221,2.9557s-4.1202,6.701-2.6246,8.1365 5.0994.1226 8.0388-2.9397 4.1035-6.717 2.608-8.1525zm-1.2551,1.3076c1.1444,1.0985.2633,3.8939-1.9859,6.2372s-5.0279,3.3607-6.1723,2.2623-.2251-3.9004 2.0242-6.2438 4.9896-3.3542 6.134-2.2557z" fill="#fff"/>
<path d="m-149.7342,68.3206c-.8578-.8233-2.9153-.0612-4.6012,1.6953s-2.3632,3.8434-1.5054,4.6668 2.9248.0703 4.6107-1.6861 2.3536-3.8526 1.4958-4.6759zm-.7199.75c.6564.63.151,2.2334-1.139,3.5774s-2.8838,1.9276-3.5402,1.2976-.1291-2.2371 1.161-3.5812 2.8618-1.9238 3.5182-1.2938z" fill="#fff"/>
<path d="m-167.4051,52.5411c5.6148,5.7512 10.1315,12.6005 14.7856,19.3125-6.8341-4.6842-13.4454-9.6655-18.797-16.3263 9.7754,8.5805 10.5647,7.0527 4.0115-2.9862z" fill="#fff" fill-rule="evenodd"/>
<path d="m618.125,68.7528c0,.3711-.7275.6719-1.625.6719s-1.625-.3008-1.625-.6719 .7275-.6719 1.625-.6719 1.625.3008 1.625.6719z" fill="#fff" transform="matrix(.70711,-.70711,.70711,.70711,-637.22826,458.99194)"/>
</g>
</g>
</svg>
