<svg viewBox="0 0 512 512" xmlns="http://www.w3.org/2000/svg">

<g transform="matrix(18.68858,0,0,18.68858,-5674.69017,-230.9801)">
<path d="m 317.337 12.6186 v 26.8257" fill="none" stroke="#000"/>
<g transform="translate(476.8057,-39.0361)">
<path d="m -147.468 65.9522 c -1.4955 -1.4355 -5.0827 -0.1066 -8.0221 2.9557 s -4.1202 6.701 -2.6246 8.1365 5.0994 0.1226 8.0388 -2.9397 4.1035 -6.717 2.608 -8.1525 z m -1.2551 1.3076 c 1.1444 1.0985 0.2633 3.8939 -1.9859 6.2372 s -5.0279 3.3607 -6.1723 2.2623 -0.2251 -3.9004 2.0242 -6.2438 4.9896 -3.3542 6.134 -2.2557 z" fill="#fff"/>
<path d="m -149.734 68.3206 c -0.8578 -0.8233 -2.9153 -0.0612 -4.6012 1.6953 s -2.3632 3.8434 -1.5054 4.6668 2.9248 0.0703 4.6107 -1.6861 2.3536 -3.8526 1.4958 -4.6759 z m -0.7199 0.75 c 0.6564 0.63 0.151 2.2334 -1.139 3.5774 s -2.8838 1.9276 -3.5402 1.2976 -0.1291 -2.2371 1.161 -3.5812 2.8618 -1.9238 3.5182 -1.2938 z" fill="#fff"/>
<path d="m -167.405 52.5411 c 5.6148 5.7512 10.1315 12.6005 14.7856 19.3125 -6.8341 -4.6842 -13.4454 -9.6655 -18.797 -16.3263 9.7754 8.5805 10.5647 7.0527 4.0115 -2.9862 z" fill="#fff" fill-rule="evenodd"/>
<path d="m 618.125 68.7528 c 0 0.3711 -0.7275 0.6719 -1.625 0.6719 s -1.625 -0.3008 -1.625 -0.6719 0.7275 -0.6719 1.625 -0.6719 1.625 0.3008 1.625 0.6719 z" fill="#fff" transform="matrix(.70711,-.70711,.70711,.70711,-637.22826,458.99194)"/>
</g>
</g>
</svg>
