<svg viewBox="0 0 512 512" xmlns="http://www.w3.org/2000/svg">

<g transform="matrix(18.68858,0,0,18.68858,-1465.19681,-14158.05999)">
<path d="m 695.188 438.862 c 0 6.4548 -3.5398 11.6875 -7.9062 11.6875 s -7.9062 -5.2327 -7.9062 -11.6875 3.5398 -11.6875 7.9062 -11.6875 7.9062 5.2327 7.9062 11.6875 z" fill="#fff" stroke="#000" stroke-width=".8689" transform="matrix(1.17592,0,0,1.12634,-716.09114,277.15231)"/>
<path d="m 84.2058 770.73 c 2.5765 -1.1527 5.0105 -0.5956 7.3409 1.2041 -1.9834 3.3259 -6.8919 1.3411 -7.3409 -1.2041 z" fill-rule="evenodd"/>
<path d="m 443.906 605.347 c 0 0.6127 -0.4967 1.1094 -1.1094 1.1094 s -1.1094 -0.4967 -1.1094 -1.1094 0.4967 -1.1094 1.1094 -1.1094 1.1094 0.4967 1.1094 1.1094 z" fill="#fff" transform="matrix(-1.39132,0,0,1.39132,704.12665,-70.87451)"/>
<path d="m 96.5868 779.518 c 0.629 -4.8333 1.0011 -9.6667 -0.3438 -14.5 -1.0637 4.8333 -0.4843 9.6667 0.3438 14.5 z" fill-rule="evenodd"/>
<path d="m 99.8389 770.73 c -2.3953 0.6764 -4.8823 0.9677 -7.3409 1.2041 2.218 1.4543 6.6448 0.5383 7.3409 -1.2041 z" fill-rule="evenodd"/>
</g>
</svg>
