<svg viewBox="0 0 512 512" xmlns="http://www.w3.org/2000/svg">

<g transform="matrix(18.68858,0,0,18.68858,-1465.19681,-14158.05999)">
<path d="m695.1875,438.8622c0,6.4548-3.5398,11.6875-7.9062,11.6875s-7.9062-5.2327-7.9062-11.6875 3.5398-11.6875 7.9062-11.6875 7.9062,5.2327 7.9062,11.6875z" fill="#fff" stroke="#000" stroke-width=".8689" transform="matrix(1.17592,0,0,1.12634,-716.09114,277.15231)"/>
<path d="m84.2058,770.7302c2.5765-1.1527 5.0105-.5956 7.3409,1.2041-1.9834,3.3259-6.8919,1.3411-7.3409-1.2041z" fill-rule="evenodd"/>
<path d="m443.9062,605.3466c0,.6127-.4967,1.1094-1.1094,1.1094s-1.1094-.4967-1.1094-1.1094 .4967-1.1094 1.1094-1.1094 1.1094.4967 1.1094,1.1094z" fill="#fff" transform="matrix(-1.39132,0,0,1.39132,704.12665,-70.87451)"/>
<path d="m96.5868,779.5184c.629-4.8333 1.0011-9.6667-.3438-14.5-1.0637,4.8333-.4843,9.6667.3438,14.5z" fill-rule="evenodd"/>
<path d="m99.8389,770.7302c-2.3953.6764-4.8823.9677-7.3409,1.2041 2.218,1.4543 6.6448.5383 7.3409-1.2041z" fill-rule="evenodd"/>
</g>
</svg>
