<svg viewBox="0 0 512 512" xmlns="http://www.w3.org/2000/svg">

<g transform="matrix(18.68858,0,0,18.68858,-229.1682,-6148.75251)">
<path d="m 39.1215 338.449 c -6.748 -3.08 -10.4968 -2.1528 -13.1869 0 v 14.1451 c 2.9516 -1.8931 6.0497 -3.6189 13.1869 0 v -14.1451 z" fill="#fff" stroke="#000"/>
<path d="m 39.1215 335.071 c -6.748 -3.08 -10.4968 -2.1528 -13.1869 0 v 14.1451 c 2.9516 -1.8931 6.0497 -3.6189 13.1869 0 v -14.1451 z" fill="#fff" stroke="#000"/>
<path d="m 12.7648 338.449 c 6.748 -3.08 10.4968 -2.1528 13.1869 0 v 14.1451 c -2.9516 -1.8931 -6.0497 -3.6189 -13.1869 0 v -14.1451 z" fill="#fff" stroke="#000"/>
<path d="m 12.7648 335.071 c 6.748 -3.08 10.4968 -2.1528 13.1869 0 v 14.1451 c -2.9516 -1.8931 -6.0497 -3.6189 -13.1869 0 v -14.1451 z" fill="#fff" stroke="#000"/>
<path d="m 22.9005 351.902 h 6.2698 c -2.2401 -3.106 -4.3509 -3.5374 -6.2698 0 z" fill="#fff"/>
</g>
</svg>
