<svg viewBox="0 0 512 512" xmlns="http://www.w3.org/2000/svg">

<g transform="matrix(18.68858,0,0,18.68858,-229.1682,-6148.75251)">
<path d="m39.1215,338.4486c-6.748-3.08-10.4968-2.1528-13.1869,0v14.1451c2.9516-1.8931 6.0497-3.6189 13.1869,0v-14.1451z" fill="#fff" stroke="#000"/>
<path d="m39.1215,335.0714c-6.748-3.08-10.4968-2.1528-13.1869,0v14.1451c2.9516-1.8931 6.0497-3.6189 13.1869,0v-14.1451z" fill="#fff" stroke="#000"/>
<path d="m12.7648,338.4486c6.748-3.08 10.4968-2.1528 13.1869,0v14.1451c-2.9516-1.8931-6.0497-3.6189-13.1869,0v-14.1451z" fill="#fff" stroke="#000"/>
<path d="m12.7648,335.0714c6.748-3.08 10.4968-2.1528 13.1869,0v14.1451c-2.9516-1.8931-6.0497-3.6189-13.1869,0v-14.1451z" fill="#fff" stroke="#000"/>
<path d="m22.9005,351.9017h6.2698c-2.2401-3.106-4.3509-3.5374-6.2698,0z" fill="#fff"/>
</g>
</svg>
