<svg viewBox="0 0 512 512" xmlns="http://www.w3.org/2000/svg">

<g transform="matrix(18.68858,0,0,18.68858,-7717.86828,-20447.06468)">
<path d="m 414.352 1095.34 c 3.3594 2.1837 7.4447 3.0855 10.4416 2.011 0.9374 2.8278 3.6351 4.3045 5.4528 4.4473 -2.2774 1.6204 1.6566 3.7897 1.7966 -0.029 1.0251 2.6635 2.686 4.598 5.1878 5.8431 -5.3527 -0.1389 -0.982 4.3082 1.9756 5.2906 -0.5712 2.3598 -0.5554 5.0992 0.0507 7.4969 -2.5782 -2.036 -4.6536 -2.8847 -7.5735 -2.8017 2.5404 -1.9636 -0.7713 -4.6099 -2.4442 -3.0274 -0.6745 -2.6533 -3.7801 -3.8282 -5.8381 -2.0601 -0.1898 -3.6067 -2.5598 -5.1339 -6.3197 -5.2119 0.2235 -3.694 0.5761 -5.9983 -2.7297 -11.9588 z" fill="#fff" fill-rule="evenodd"/>
<path d="m 417.152 1098.72 c 3.396 0.4386 6.4194 1.2212 9.297 3.6328 l -1.4063 1.0938 c 2.5596 0.6347 6.0732 2.23 8.0079 4.2188 l -2.5 0.2344 c 4.0916 2.6238 6.0336 4.9356 7.6173 10.5469 -2.0514 -3.3771 -5.6628 -6.2103 -9.2323 -6.8736 1.2631 -0.8538 -1.2364 -3.0064 -4.9833 -2.5277 l 2.9655 -1.6925 c -2.2718 -1.9742 -4.6167 -2.3396 -6.9923 -2.0313 1.5471 -1.7331 0.4245 -4.18 -2.7735 -6.6016 z" fill-rule="evenodd"/>
<path d="m 433.107 1100.1 c 0 0.5137 -0.4164 0.9301 -0.9302 0.9301 s -0.9302 -0.4164 -0.9302 -0.9301 0.4164 -0.9302 0.9302 -0.9302 0.9302 0.4165 0.9302 0.9302 z" fill="#fff" transform="translate(-.2658,-.1898)"/>
</g>
</svg>
