<svg viewBox="0 0 512 512" xmlns="http://www.w3.org/2000/svg">

<path fill="#fff" line-height="normal" color="#000" d="m88.1562,27.25c0,0-4.0113,66.8196 .2188,148.875-35.4608,25.5057-59.0858,71.4724-58.9375,126.4688l72.5938-.1875c6.3407,35.158 15.386,69.2037 28.9375,99.4688 10.4518,23.3425 23.6848,44.8763 42.9062,62 19.2214,17.1237 45.8335,28.8125 74.0625,28.8125 28.229,0 54.8098-11.6888 74.0312-28.8125 19.2214-17.1237 32.4544-38.6575 42.9062-62 7.6277-17.0352 13.8114-35.2661 18.9062-54.2188 28.3451-5.5467 55.5953-23.2036 72.7812-49.6562 17.9247-27.5897 26.0841-62.6559 26-104.5625l-76.125,.125c5.8273-89.8221 1.25-166.3125 1.25-166.3125l-84.8438,4.9688c0,0 5.7729,102.6732-5.3125,203.0938-.4194,3.7991-.8704,7.5918-1.3438,11.375-9.3313-6.5434-18.6752-14.9702-27.1562-25.4375-31.4566-38.8239-73.617-62.6685-116.4688-66.7188-2.5815-68.1315 .4375-122.3125 .4375-122.3125l-84.8438-4.9688zm91,215.375c14.277,4.8339 29.8567,14.9007 43.8125,32.125 21.4725,26.5014 47.3243,47.9772 75.5938,61.0938-3.4133,11.5579-7.157,22.1403-11.25,31.2812-7.1979,16.0753-15.3172,27.4113-21.9062,33.2812-6.589,5.8699-10.2354,7.2812-17.4688,7.2812-7.2334,0-10.911-1.4113-17.5-7.2812-6.589-5.8699-14.7084-17.206-21.9062-33.2812-13.6963-30.5885-23.665-76.8364-29.375-124.5z"/>
</svg>
