<svg viewBox="0 0 512 512" xmlns="http://www.w3.org/2000/svg">

<g transform="matrix(18.68858,0,0,18.68858,-5913.2643,-4111.44499)">
<g transform="matrix(.91195,0,0,.91195,245.7155,52.25766)">
<path d="m88.0877,209.7613h-7.0009l-1.552,2.8012h15.0891l-5.1915-6.0582c1.4241-1.5671 3.9579-2.5645 5.6913-2.6442 .8093,2.6461 2.1269,6.6595 4.209,8.7023h3.5713c-2.7516-2.9737-4.8367-7.0598-4.8536-11.6694l.6072-2.2245c-5.453-3.4194-19.4624,4.4087-10.5698,11.0927z" fill="#fff"/>
<path d="m100.3208,202.3535c0,1.7696-.9794,3.2041-2.1876,3.2041s-2.1876-1.4345-2.1876-3.2041 .9794-3.2041 2.1876-3.2041 2.1876,1.4345 2.1876,3.2041z" fill="#fff" transform="matrix(.90638,.90638,-.90638,.90638,195.83238,-72.73435)"/>
<path d="m84.6775,204.74c.3703-5.3264 9.5703-8.9449 13.8233-6.8613" fill="none" stroke="#000" stroke-width="1.0966"/>
</g>
<path d="m317.4375,220.875v5.7188l8.2188,4.375-3.7812-10.0938h-4.4375zm5.875,0 6.375,7.75 .2812-7.75h-6.6562zm8.8438,0 2.1875,7.125 3.25-7.125h-5.4375zm7.5,0-.7812,8.3438 4-3.7188v-4.625h-3.2188zm-22.2188,8.0625v5.2188l5.3438.5312-5.3438-5.75zm0,8.3438v3.1875l4.1562-1.2812-4.1562-1.9062z" fill="#fff"/>
</g>
</svg>
