<svg viewBox="0 0 512 512" xmlns="http://www.w3.org/2000/svg">

<g transform="matrix(18.68858,0,0,18.68858,-5913.2643,-4111.44499)">
<g transform="matrix(.91195,0,0,.91195,245.7155,52.25766)">
<path d="m 88.0877 209.761 h -7.0009 l -1.552 2.8012 h 15.0891 l -5.1915 -6.0582 c 1.4241 -1.5671 3.9579 -2.5645 5.6913 -2.6442 0.8093 2.6461 2.1269 6.6595 4.209 8.7023 h 3.5713 c -2.7516 -2.9737 -4.8367 -7.0598 -4.8536 -11.6694 l 0.6072 -2.2245 c -5.453 -3.4194 -19.4624 4.4087 -10.5698 11.0927 z" fill="#fff"/>
<path d="m 100.321 202.353 c 0 1.7696 -0.9794 3.2041 -2.1876 3.2041 s -2.1876 -1.4345 -2.1876 -3.2041 0.9794 -3.2041 2.1876 -3.2041 2.1876 1.4345 2.1876 3.2041 z" fill="#fff" transform="matrix(.90638,.90638,-.90638,.90638,195.83238,-72.73435)"/>
<path d="m 84.6775 204.74 c 0.3703 -5.3264 9.5703 -8.9449 13.8233 -6.8613" fill="none" stroke="#000" stroke-width="1.0966"/>
</g>
<path d="m 317.438 220.875 v 5.7188 l 8.2188 4.375 -3.7812 -10.0938 h -4.4375 z m 5.875 0 6.375 7.75 0.2812 -7.75 h -6.6562 z m 8.8438 0 2.1875 7.125 3.25 -7.125 h -5.4375 z m 7.5 0 -0.7812 8.3438 4 -3.7188 v -4.625 h -3.2188 z m -22.2188 8.0625 v 5.2188 l 5.3438 0.5312 -5.3438 -5.75 z m 0 8.3438 v 3.1875 l 4.1562 -1.2812 -4.1562 -1.9062 z" fill="#fff"/>
</g>
</svg>
