<svg viewBox="0 0 512 512" xmlns="http://www.w3.org/2000/svg">

<path d="m 367.165 70.1466 c 0 5.6382 -4.5707 10.2089 -10.2088 10.2089 s -10.2088 -4.5707 -10.2088 -10.2089 4.5707 -10.2089 10.2088 -10.2089 10.2088 4.5707 10.2088 10.2089 z" stroke="#fff" stroke-width="1.2217" transform="matrix(15.29754,0,0,15.29754,-5204.61054,-815.55748)"/>
<path d="m 367.165 70.1466 c 0 5.6382 -4.5707 10.2089 -10.2088 10.2089 s -10.2088 -4.5707 -10.2088 -10.2089 4.5707 -10.2089 10.2088 -10.2089 10.2088 4.5707 10.2088 10.2089 z" fill="none" stroke="#fff" stroke-width=".8459" transform="matrix(22.09345,0,0,22.09345,-7630.43139,-1293.91505)"/>
<path d="m 196.188 103.8 c 0 0.932 -0.7555 1.6875 -1.6875 1.6875 s -1.6875 -0.7555 -1.6875 -1.6875 0.7555 -1.6875 1.6875 -1.6875 1.6875 0.7555 1.6875 1.6875 z" fill="#fff" transform="matrix(28.3231,0,0,28.3231,-5133.86024,-2587.6591)"/>
<path d="m 196.188 103.8 c 0 0.932 -0.7555 1.6875 -1.6875 1.6875 s -1.6875 -0.7555 -1.6875 -1.6875 0.7555 -1.6875 1.6875 -1.6875 1.6875 0.7555 1.6875 1.6875 z" fill="#fff" transform="matrix(26.51966,0,0,26.51966,-5029.71309,-2685.78872)"/>
<g transform="matrix(9.47081,0,0,9.47081,-876.11899,-722.99145)">
<path d="m 119.438 90.123 c -0.7879 3.3775 -2.2961 6.5579 -4.5281 8.7899 s -5.146 3.4738 -8.5235 4.2618 c 3.3776 0.7879 6.5578 2.2961 8.7899 4.5281 s 3.4739 5.146 4.2618 8.5235 c 0.7879 -3.3775 2.0297 -6.2915 4.2618 -8.5235 s 5.4123 -3.7402 8.7899 -4.5281 c -3.4037 -0.7843 -6.2784 -2.0166 -8.5236 -4.2618 s -3.7438 -5.3862 -4.5281 -8.7899 z" fill="#fff"/>
</g>
<path d="m 192.068 103.027 c 0 1.4401 -1.1674 2.6075 -2.6075 2.6075 s -2.6075 -1.1674 -2.6075 -2.6075 1.1674 -2.6075 2.6075 -2.6075 2.6075 1.1674 2.6075 2.6075 z" transform="matrix(14.23341,0,0,14.23341,-2441.51127,-1212.20447)"/>
</svg>
