<svg viewBox="0 0 512 512" xmlns="http://www.w3.org/2000/svg">

<g transform="matrix(18.68858,0,0,18.68858,-2741.12079,-5365.36648)">
<path d="m 171.208 302.166 c 0 4.8571 -3.9375 8.7946 -8.7947 8.7946 s -8.7946 -3.9375 -8.7946 -8.7946 3.9375 -8.7947 8.7946 -8.7947 8.7947 3.9375 8.7947 8.7947 z" fill="#fff" stroke="#000" stroke-width=".8723" transform="matrix(.67871,-1.20996,1.23196,.73055,-322.36454,277.08643)"/>
<path d="m 164.452 292.937 c 3.71 2.2144 5.2408 8.1778 3.1713 11.8878 s -6.8607 5.0168 -10.5707 2.8024 -4.5796 -6.8028 -2.5101 -10.5128 c 1.8446 -3.3067 6.0462 -4.511 9.0841 -2.6978"/>
<path d="m 171.056 293.888 c 0.4439 -0.5664 0.5314 -1.2372 0.4152 -1.9909 -2.0026 -0.5912 -2.6721 -5.1092 -7.4278 -3.3398 -3.7114 -0.5698 -11.8562 0.4915 -14.8977 8.4179 4.1453 -2.4882 8.7196 -4.4832 13.1531 -5.0676 0.8775 1.7298 2.2268 6.0204 5.0454 5.862 -2.5044 -4.8106 -0.0956 -6.8123 3.7118 -3.8816 z" fill="#fff" fill-rule="evenodd"/>
<path d="m 166.316 292.991 c 9.5346 7.3945 1.2316 21.5598 -8.2087 18.4006 -14.4086 -4.8219 -8.2469 -23.5463 5.7349 -21.2662" fill="none" stroke="#000" stroke-dasharray="0.99999994, 0.99999994"/>
<path d="m 170.903 294.404 c -4.6797 -4.0925 -6.9029 -0.7239 -3.364 3.3851" fill="none" stroke="#000"/>
<path d="m 163.852 296.098 c -0.9223 -1.2909 -1.3633 -2.8623 -1.5411 -3.9817 0.7945 -0.3947 1.4432 -1.0419 1.9879 -1.8694" fill="none" stroke="#000"/>
<path d="m 168.688 290.729 c 0 0.5393 -0.724 0.9766 -1.6172 0.9766 s -1.6172 -0.4372 -1.6172 -0.9766 0.724 -0.9766 1.6172 -0.9766 1.6172 0.4372 1.6172 0.9766 z" transform="matrix(.78394,.32833,-.2587,.72499,110.90495,24.27738)"/>
</g>
</svg>
