<svg viewBox="0 0 512 512" xmlns="http://www.w3.org/2000/svg">

<g transform="matrix(18.68858,0,0,18.68858,-2741.12079,-5365.36648)">
<path d="m171.2082,302.166c0,4.8571-3.9375,8.7946-8.7947,8.7946s-8.7946-3.9375-8.7946-8.7946 3.9375-8.7947 8.7946-8.7947 8.7947,3.9375 8.7947,8.7947z" fill="#fff" stroke="#000" stroke-width=".8723" transform="matrix(.67871,-1.20996,1.23196,.73055,-322.36454,277.08643)"/>
<path d="m164.4517,292.9366c3.71,2.2144 5.2408,8.1778 3.1713,11.8878s-6.8607,5.0168-10.5707,2.8024-4.5796-6.8028-2.5101-10.5128c1.8446-3.3067 6.0462-4.511 9.0841-2.6978"/>
<path d="m171.0557,293.8877c.4439-.5664.5314-1.2372.4152-1.9909-2.0026-.5912-2.6721-5.1092-7.4278-3.3398-3.7114-.5698-11.8562.4915-14.8977,8.4179 4.1453-2.4882 8.7196-4.4832 13.1531-5.0676 .8775,1.7298 2.2268,6.0204 5.0454,5.862-2.5044-4.8106-.0956-6.8123 3.7118-3.8816z" fill="#fff" fill-rule="evenodd"/>
<path d="m166.3165,292.9914c9.5346,7.3945 1.2316,21.5598-8.2087,18.4006-14.4086-4.8219-8.2469-23.5463 5.7349-21.2662" fill="none" stroke="#000" stroke-dasharray="0.99999994, 0.99999994"/>
<path d="m170.9029,294.4042c-4.6797-4.0925-6.9029-.7239-3.364,3.3851" fill="none" stroke="#000"/>
<path d="m163.852,296.0981c-.9223-1.2909-1.3633-2.8623-1.5411-3.9817 .7945-.3947 1.4432-1.0419 1.9879-1.8694" fill="none" stroke="#000"/>
<path d="m168.6875,290.7293c0,.5393-.724.9766-1.6172.9766s-1.6172-.4372-1.6172-.9766 .724-.9766 1.6172-.9766 1.6172.4372 1.6172.9766z" transform="matrix(.78394,.32833,-.2587,.72499,110.90495,24.27738)"/>
</g>
</svg>
