<svg xmlns="http://www.w3.org/2000/svg" viewBox="0 0 512 512">
<g transform="matrix(15 0 0 15 -3764 -2744)">
<use width="744.094" height="1052.362" transform="translate(288 180)"/>
</g>
<g fill="#fff">
<g transform="matrix(30 0 0 30 -14864.00855 -21955.82)">
<use width="800" height="600" transform="translate(200 -715.63781)"/>
</g>
<g transform="matrix(30 0 0 30 -15434.00855 -27295.8197)">
<path d="m 405.062 163.156 a 4.5 4.1539 0 0 0 -1.0625 2.6875 4.5 4.1539 0 0 0 8.7812 1.3438 9 4.6154 0 0 1 -7.7188 -4.0312 z m 17.875 0 a 9 4.6154 0 0 1 -7.7188 4.0312 4.5 4.1539 0 0 0 8.7812 -1.3438 4.5 4.1539 0 0 0 -1.0625 -2.6875 z" transform="matrix(.5 0 0 .5 316 834.36219)"/>
</g>
</g>
<g transform="matrix(15 0 0 15 -3764 -2744)">
<path fill="#fff" d="m268,184c-8.8366,0-16,7.1634-16,16 0,8.8366 7.1634,16 16,16 8.8366,0 16-7.1634 16-16 0-8.8366-7.1634-16-16-16zm0,4c6.6274,0 12,5.3726 12,12 0,6.6274-5.3726,12-12,12-6.6274,0-12-5.3726-12-12 0-6.6274 5.3726-12 12-12z"/>
</g>
</svg>
