<svg viewBox="0 0 512 512" xmlns="http://www.w3.org/2000/svg">

<g transform="matrix(18.68858,0,0,18.68858,-12483.77359,-31999.96687)">
<path d="m 497.462 1636.4 h 12.5338 v 12.5338 h -12.5338 z" fill="#fff" transform="matrix(-.59421,.80431,.59421,.80431,0,0)"/>
<path d="m 489.061 1644.8 h 12.5338 v 12.5338 h -12.5338 z" fill="#fff" transform="matrix(-.59421,.80431,.59421,.80431,0,0)"/>
<path d="m 689.412 1726.9 -2.4827 -3.3602 -7.4477 10.0812" fill="none" stroke="#000"/>
<path d="m 674.007 1725.95 2.4827 3.3601 7.4477 -10.0814" fill="none" stroke="#000"/>
<path d="m 683.608 1716.54 c 0 1.0641 -0.8626 1.9267 -1.9267 1.9267 s -1.9267 -0.8626 -1.9267 -1.9267 0.8626 -1.9267 1.9267 -1.9267 1.9267 0.8626 1.9267 1.9267 z" fill="#fff" stroke="#000" stroke-width=".6329" transform="matrix(1.27499,0,0,1.95822,-187.39925,-1644.6469)"/>
</g>
</svg>
