<svg viewBox="0 0 512 512" xmlns="http://www.w3.org/2000/svg">

<g transform="matrix(18.68858,0,0,18.68858,-3631.91321,-21806.87029)">
<path d="m209.2978,1192.4174c-1.537.4118-3.1187-.5014-3.5305-2.0384s.4995-3.1256 2.0384-3.5305c5.2003-1.3682 3.5771-.9546 8.6761-2.3248 1.5367-.4129 3.1187.5013 3.5305,2.0384s-.4993,3.1265-2.0384,3.5305c-5.1069,1.3405-3.4822.933-8.6761,2.3248z" fill="none" stroke="#fff"/>
<path d="m214.248,1191.1018 4.0323-1.0772c3.1809-.8523 1.7834-6.2687-1.4477-5.403l-4.0323,1.0772c-1.9519.523-.5596,5.9408 1.4477,5.403z" fill="#fff"/>
<path d="m202.2354,1175.2745c.9343-.9344 2.4509-.9343 3.3852,0s.9385,2.4551 0,3.3852c-3.1717,3.143-2.1761,2.1717-5.274,5.2741-.9336.9349-2.4509.9343-3.3852,0s-.9391-2.4557 1e-05-3.3853c3.1159-3.0843 2.1168-2.1167 5.274-5.274z" fill="none" stroke="#fff"/>
<path d="m199.6431,1177.8508-2.8738,2.8738c-1.9336,1.9336 1.3202,5.2486 3.2844,3.2844l2.8738-2.8738c-1.1244,1.1244-4.2299-2.3518-3.2844-3.2844z" fill="#fff"/>
<path d="m214.1993,1170.7618c-.3962-1.4787-1.9178-2.3572-3.3965-1.961s-2.3639,1.9197-1.961,3.3965c1.3615,4.9908.9253,3.4395 2.2365,8.3468 .3951,1.4789 1.9178,2.3571 3.3965,1.9609s2.3647-1.9199 1.9609-3.3965c-1.3396-4.8996-.8976-3.35-2.2365-8.3467z" fill="none" stroke="#fff"/>
<path d="m215.3079,1174.8484 1.2187,4.5481c.82,3.0601-4.365,4.5012-5.1979,1.3928l-1.2187-4.5482c.4768,1.7795 5.6063.091 5.1979-1.3927z" fill="#fff"/>
</g>
</svg>
