<svg viewBox="0 0 512 512" xmlns="http://www.w3.org/2000/svg">

<g transform="matrix(18.68858,0,0,18.68858,-12483.77359,-31999.96687)">
<path d="m497.4619,1636.3956h12.5338v12.5338h-12.5338z" fill="#fff" transform="matrix(-.59421,.80431,.59421,.80431,0,0)"/>
<path d="m489.0608,1644.7968h12.5338v12.5338h-12.5338z" fill="#fff" transform="matrix(-.59421,.80431,.59421,.80431,0,0)"/>
<path d="m689.412,1726.8968-2.4827-3.3602-7.4477,10.0812" fill="none" stroke="#000"/>
<path d="m674.0073,1725.952 2.4827,3.3601 7.4477-10.0814" fill="none" stroke="#000"/>
<path d="m683.6079,1716.5425c0,1.0641-.8626,1.9267-1.9267,1.9267s-1.9267-.8626-1.9267-1.9267 .8626-1.9267 1.9267-1.9267 1.9267.8626 1.9267,1.9267z" fill="#fff" stroke="#000" stroke-width=".6329" transform="matrix(1.27499,0,0,1.95822,-187.39925,-1644.6469)"/>
</g>
</svg>
