<svg viewBox="0 0 512 512" xmlns="http://www.w3.org/2000/svg">

<g transform="matrix(18.68858,0,0,18.68858,-6360.83632,-40833.0908)">
<path d="m -89.3715 2216.41 h 25.1204 v 3.0927 h -25.1204 z" fill="#fff" transform="matrix(.46586,-.22485,.22485,.46586,-108.97676,1147.9461)"/>
<path d="m 1029.9 1957.67 h 25.1204 v 3.0927 h -25.1204 z" fill="#fff" transform="matrix(.51587,.03821,-.03821,.51587,-108.97676,1147.9461)"/>
<path d="m 1869.84 1173.95 h 25.1204 v 3.0927 h -25.1204 z" fill="#fff" transform="matrix(.42765,.29102,-.29102,.42765,-108.97676,1147.9461)"/>
<path d="m 2205.4 75.265 h 25.1204 v 3.0927 h -25.1204 z" fill="#fff" transform="matrix(.22485,.46586,-.46586,.22485,-108.97676,1147.9461)"/>
<path d="m 1946.65 -1044 h 25.1204 v 3.0927 h -25.1204 z" fill="#fff" transform="matrix(-.03821,.51587,-.51587,-.03821,-108.97676,1147.9461)"/>
<path d="m -1188.06 -1883.95 h 25.1204 v 3.0927 h -25.1204 z" fill="#fff" transform="matrix(.29102,-.42765,-.42765,-.29102,-108.97676,1147.9461)"/>
<path d="m 506.432 2162.18 c 0 5.1472 -4.1726 9.3198 -9.3198 9.3198 s -9.3198 -4.1726 -9.3198 -9.3198 4.1726 -9.3198 9.3198 -9.3198 9.3198 4.1726 9.3198 9.3198 z" fill="#fff" transform="matrix(.5258,-.25378,.25378,.5258,-456.14634,1187.76282)"/>
<path d="m 357.742 2199.71 c 0 2.233 -1.8102 4.0432 -4.0432 4.0432 s -4.0432 -1.8102 -4.0432 -4.0432 1.8102 -4.0432 4.0432 -4.0432 4.0432 1.8102 4.0432 4.0432 z" transform="matrix(1.01738,-.19342,.19342,1.01738,-431.42447,28.92818)"/>
<path d="m -1171.93 1895.27 h 8.805 v 1.9358 h -8.805 z" fill="#fff" transform="matrix(.7574,-.65295,.65295,.7574,0,0)"/>
<path d="m 357.364 2199.95 c 0 1.5631 -1.2671 2.8303 -2.8302 2.8303 s -2.8302 -1.2672 -2.8302 -2.8303 1.2671 -2.8302 2.8302 -2.8302 2.8302 1.2671 2.8302 2.8302 z" stroke="#fff" stroke-width="2.1214" transform="matrix(.35703,-.30779,.30779,.35703,-449.7264,1522.0447)"/>
<path d="m 355.562 2186.03 c 1.6278 1.01 2.9779 2.4095 4.0312 4 -3.914 -3.5315 -11.025 -4.383 -16 -0.4374 4.7808 -2.124 10.3619 0.016 14.3469 2.7211 1.2765 0.8666 2.652 2.5976 3.1883 6.1226 -0.5881 7.2959 -7.5711 8.6005 -12.2828 5.2195 4.1539 7.7313 16.4282 5.003 17.8414 -3.5632 -1.5177 2.4461 -3.8604 4.2726 -6.4688 5.3124 4.9051 -2.7516 7.5119 -9.4951 3.8125 -14.6562 0.633 2.7023 0.2987 5.5197 -0.7188 8.0312 1.3454 -5.3589 -1.5932 -11.7343 -7.75 -12.75 z" fill="#fff"/>
<path d="m 352.478 2211.25 c -10.4146 -8.5354 -5.9947 -20.1282 1.1242 -20.1282 2.4659 0 4.0852 0.4542 5.9695 1.9094 -4.9625 -6.7609 -16.8056 -4.41 -18.2188 4.1563 1.5177 -2.4462 3.8604 -4.2727 6.4688 -5.3125 -4.9051 2.7517 -7.5119 9.4951 -3.8125 14.6562 -0.633 -2.7023 -0.2987 -5.5197 0.7188 -8.0312 -0.9642 5.359 2.2031 10.9719 7.75 12.75 z" fill="#fff"/>
<path d="m 360.491 2199.09 c 0 3.7961 -3.0773 6.8734 -6.8734 6.8734 s -6.8734 -3.0773 -6.8734 -6.8734 3.0773 -6.8734 6.8734 -6.8734 6.8734 3.0773 6.8734 6.8734 z" fill="none" stroke="#000" stroke-width=".9884" transform="matrix(1.01176,0,0,1.01176,-3.86371,-26.46467)"/>
<path d="m 354.949 2207.88 c 3.1211 0.9378 8.0424 0.6533 10.7128 -1.6771 -2.4306 0.4229 -4.489 0.3442 -6.1689 -1.0147" fill="#fff"/>
<path d="m 351.108 2206.31 c 2.234 2.3728 6.6382 4.587 10.1161 3.904 -2.3164 -0.8491 -4.0597 -1.9464 -4.8351 -3.9631" fill="#fff"/>
</g>
</svg>
