<svg viewBox="0 0 512 512" xmlns="http://www.w3.org/2000/svg">

<g transform="matrix(18.68858,0,0,18.68858,-3631.91321,-21806.87029)">
<path d="m 209.298 1192.42 c -1.537 0.4118 -3.1187 -0.5014 -3.5305 -2.0384 s 0.4995 -3.1256 2.0384 -3.5305 c 5.2003 -1.3682 3.5771 -0.9546 8.6761 -2.3248 1.5367 -0.4129 3.1187 0.5013 3.5305 2.0384 s -0.4993 3.1265 -2.0384 3.5305 c -5.1069 1.3405 -3.4822 0.933 -8.6761 2.3248 z" fill="none" stroke="#fff"/>
<path d="m 214.248 1191.1 4.0323 -1.0772 c 3.1809 -0.8523 1.7834 -6.2687 -1.4477 -5.403 l -4.0323 1.0772 c -1.9519 0.523 -0.5596 5.9408 1.4477 5.403 z" fill="#fff"/>
<path d="m 202.235 1175.27 c 0.9343 -0.9344 2.4509 -0.9343 3.3852 0 s 0.9385 2.4551 0 3.3852 c -3.1717 3.143 -2.1761 2.1717 -5.274 5.2741 -0.9336 0.9349 -2.4509 0.9343 -3.3852 0 s -0.9391 -2.4557 1e-05 -3.3853 c 3.1159 -3.0843 2.1168 -2.1167 5.274 -5.274 z" fill="none" stroke="#fff"/>
<path d="m 199.643 1177.85 -2.8738 2.8738 c -1.9336 1.9336 1.3202 5.2486 3.2844 3.2844 l 2.8738 -2.8738 c -1.1244 1.1244 -4.2299 -2.3518 -3.2844 -3.2844 z" fill="#fff"/>
<path d="m 214.199 1170.76 c -0.3962 -1.4787 -1.9178 -2.3572 -3.3965 -1.961 s -2.3639 1.9197 -1.961 3.3965 c 1.3615 4.9908 0.9253 3.4395 2.2365 8.3468 0.3951 1.4789 1.9178 2.3571 3.3965 1.9609 s 2.3647 -1.9199 1.9609 -3.3965 c -1.3396 -4.8996 -0.8976 -3.35 -2.2365 -8.3467 z" fill="none" stroke="#fff"/>
<path d="m 215.308 1174.85 1.2187 4.5481 c 0.82 3.0601 -4.365 4.5012 -5.1979 1.3928 l -1.2187 -4.5482 c 0.4768 1.7795 5.6063 0.091 5.1979 -1.3927 z" fill="#fff"/>
</g>
</svg>
