<svg xmlns="http://www.w3.org/2000/svg" viewBox="0 0 512 512">
<g transform="matrix(15.39601 0 0 15.39601 -3315.8735 -1283.6006)">
<use width="744.094" height="1052.362" transform="translate(252 80)"/>
</g>
<g fill="#fff" transform="matrix(6.79949 0 0 6.90873 -179.16745 -5200.44029)">
<path d="m 64 783.104 c 4.5286 0 11.3214 -2.2285 11.3214 -6.6855 0 -4.457 -2.2643 -11.1424 -11.3214 -20.0564 -9.0572 8.9139 -11.3214 15.5994 -11.3214 20.0564 0 4.457 6.7929 6.6855 11.3214 6.6855 z"/>
<path d="m 75.7656 803.16 c -2.2643 3.8599 -3.6998 10.7639 0.2221 12.9924 3.9219 2.2285 10.9368 3.6413 23.3091 0.3786 -3.3151 -12.1767 -8.0658 -17.4493 -11.9877 -19.6778 -3.9219 -2.2285 -9.2792 2.447 -11.5435 6.3069 z"/>
<path d="m 52.2344 803.16 c -2.2643 -3.8599 -7.6217 -8.5354 -11.5435 -6.3069 -3.9219 2.2285 -8.6725 7.5012 -11.9877 19.6778 12.3723 3.2627 19.3872 1.8499 23.3091 -0.3786 3.9219 -2.2285 2.4864 -9.1325 0.2221 -12.9924 z"/>
<path d="m 64 809.846 c -2.2643 0 -4.5286 2.2285 -4.5286 4.457 0 2.2285 0 4.457 4.5286 8.9139 4.5286 -4.457 4.5286 -6.6855 4.5286 -8.9139 0 -2.2285 -2.2643 -4.457 -4.5286 -4.457 z"/>
<path d="m 75.7656 789.789 c 1.1321 1.9299 4.2252 2.7456 6.1861 1.6314 1.9609 -1.1143 3.9219 -2.2285 5.5794 -8.3168 -6.1862 -1.6314 -8.1471 -0.5171 -10.108 0.5971 -1.9609 1.1142 -2.7897 4.1584 -1.6576 6.0883 z"/>
<path d="m 52.2344 789.789 c 1.1321 -1.9299 0.3034 -4.9741 -1.6576 -6.0883 -1.9609 -1.1142 -3.9219 -2.2285 -10.108 -0.5971 1.6576 6.0883 3.6185 7.2026 5.5794 8.3168 1.9609 1.1142 5.054 0.2986 6.1862 -1.6314 z"/>
</g>
<g transform="matrix(15.39601 0 0 15.39601 -3315.8735 -1283.6006)">
<path fill="#fff" d="m236,103c0,2.2091-1.7909,4-4,4-2.2091,0-4-1.7909-4-4 0-2.2091 1.7909-4 4-4 2.2091,0 4,1.7909 4,4z"/>
</g>
</svg>
