<svg viewBox="0 0 512 512" xmlns="http://www.w3.org/2000/svg">

<g transform="matrix(18.68858,0,0,18.68858,-4021.01251,-7886.21754)">
<path d="m 238.422 435.935 c 0 5.0256 -4.2769 9.1043 -9.5467 9.1043 s -9.5467 -4.0787 -9.5467 -9.1043 4.2769 -6.4489 9.5467 -6.4489 9.5467 1.4233 9.5467 6.4489 z" fill="none" stroke="#fff"/>
<path d="m 223.155 448.741 5.886 -13.4864 5.886 13.4864" stroke="#fff"/>
<path d="m 226.146 448.741 2.8947 -11.7187 2.8947 11.7187" stroke="#fff"/>
<path d="m 228.97 445.046 v 3.7786" fill="none" stroke="#fff"/>
<path d="m 221.756 431.234 c 0 19.1247 14.2964 19.5542 14.2964 0" fill-rule="evenodd" stroke="#fff"/>
<g transform="translate(0,2.4749)">
<path d="m 229.368 432.318 c 0 1.977 -1.6027 3.5797 -3.5797 3.5797 s -3.5797 -1.6027 -3.5797 -3.5797 1.6027 -3.5797 3.5797 -3.5797 3.5797 1.6027 3.5797 3.5797 z" fill="#fff" transform="matrix(1.17972,0,0,1.31507,-41.85474,-141.78123)"/>
<path d="m 229.368 432.318 c 0 1.977 -1.6027 3.5797 -3.5797 3.5797 s -3.5797 -1.6027 -3.5797 -3.5797 1.6027 -3.5797 3.5797 -3.5797 3.5797 1.6027 3.5797 3.5797 z" fill="#fff" transform="matrix(1.17972,0,0,1.31507,-32.99957,-141.78123)"/>
<path d="m 227.625 431.768 c 0 1.3289 -1.0773 2.4062 -2.4062 2.4062 s -2.4062 -1.0773 -2.4062 -2.4062 1.0773 -2.4062 2.4062 -2.4062 2.4062 1.0773 2.4062 2.4062 z" stroke="#000" stroke-width="1.7307" transform="matrix(.5779,0,0,.57768,94.05324,177.69927)"/>
<path d="m 227.625 431.768 c 0 1.3289 -1.0773 2.4062 -2.4062 2.4062 s -2.4062 -1.0773 -2.4062 -2.4062 1.0773 -2.4062 2.4062 -2.4062 2.4062 1.0773 2.4062 2.4062 z" stroke="#000" stroke-width="1.7307" transform="matrix(.5779,0,0,.57768,103.65477,177.69927)"/>
<path d="m 239.082 420.913 c -5.3579 1.4467 -8.8316 5.301 -10.1388 10.2174 -1.2689 -4.7724 -4.5654 -8.7124 -10.1388 -10.2174" stroke="#fff"/>
<path d="m 222.374 422.554 c 3.45 -1.9911 9.1543 -2.0129 12.6422 0" fill="none" stroke="#fff"/>
</g>
<path d="m 220.761 448.816 h 16.4688" fill="none" stroke="#000"/>
<path d="m 230.188 437.059 c -0.1877 0.7007 -0.7655 1.2405 -1.3125 1.2405 -0.5342 1e-05 -1.1028 -0.5382 -1.2812 -1.2044 -0.0435 0.1818 -0.0937 0.3762 -0.0937 0.5777 0 1.0287 0.6201 1.8413 1.375 1.8413 s 1.375 -0.8126 1.375 -1.8413 c 0 -0.2133 -0.014 -0.4228 -0.0625 -0.6138 z" fill="#fff"/>
<path d="m 223.917 435.377 c 0.0565 1.1458 0.7757 2.0349 1.6308 2.0349 0.3202 0 0.6295 -0.1199 0.8806 -0.3392 -0.1529 0.8497 -0.732 1.4696 -1.4025 1.4696 -0.7879 0 -1.4351 -0.8481 -1.4351 -1.9218 0 -0.466 0.1254 -0.9084 0.3262 -1.2435 z" fill="#fff"/>
<path d="m 233.865 435.509 c 0.2008 0.3351 0.2935 0.7775 0.2935 1.2435 0 1.0737 -0.6146 1.9218 -1.4025 1.9218 -0.6705 0 -1.2496 -0.6199 -1.4025 -1.4696 0.2512 0.2192 0.5604 0.3392 0.8806 0.3392 0.8551 -2e-05 1.5743 -0.8891 1.6308 -2.0349 z" fill="#fff"/>
<path d="m 225.875 440.701 c 0.1989 0.8524 0.8089 1.4803 1.5 1.4803 0.441 0 0.8429 -0.2462 1.125 -0.6499 -0.0395 0.9806 -0.6143 1.7691 -1.3438 1.7691 -0.7549 0 -1.375 -0.8487 -1.375 -1.8774 0 -0.2572 0.0245 -0.4991 0.0937 -0.7221 z" fill="#fff"/>
<path d="m 232.062 440.629 c 0.0865 0.2444 0.1562 0.505 0.1562 0.7943 0 1.0287 -0.6201 1.8774 -1.375 1.8774 -0.7294 0 -1.3355 -0.7885 -1.375 -1.7691 0.2821 0.4037 0.684 0.6499 1.125 0.6499 0.7085 0 1.285 -0.6668 1.4688 -1.5525 z" fill="#fff"/>
</g>
</svg>
