<svg viewBox="0 0 512 512" xmlns="http://www.w3.org/2000/svg">

<g transform="matrix(18.68858,0,0,18.68858,-4645.63473,-4111.44312)">
<g transform="translate(.0576)">
<path d="m253.7838,238.731v-9.9723c0-4.6009 3.739-8.335 8.346-8.335s8.346,3.8384 8.346,8.335v9.9723" fill="#fff" stroke="#000"/>
<path d="m256.9377,237.9969v-9.068c0-2.8712 2.3261-5.2015 5.1921-5.2015s5.1921,2.3954 5.1921,5.2015v9.068" stroke="#000"/>
</g>
<path d="m252.8643,233.125c-.9249,1.3482-1.4489,2.9378-1.4489,4.6085 0,5.0461 4.8175,9.1415 10.7721,9.1415s10.7721-4.0954 10.7721-9.1415c0-1.6707-.524-3.2603-1.4489-4.6085h-18.6464z" fill="#fff" stroke="#000"/>
<path d="m262.1719,234.9062c-1.1954,0-2.1562.9609-2.1562,2.1562 0,.8965.5353,1.6711 1.3125,2l-1.7188,5.25h5.1562l-1.75-5.25c.7772-.3289 1.3438-1.1035 1.3438-2 0-1.1954-.9921-2.1562-2.1875-2.1562z"/>
</g>
</svg>
