<svg viewBox="0 0 512 512" xmlns="http://www.w3.org/2000/svg">

<g transform="matrix(18.68858,0,0,18.68858,-5277.0116,-6622.67498)">
<path d="m295.4307,354.9098c.6487-.095 1.3381.0212 1.7894.3916l1.3271,8.3211 1.7528-7.9404c.9359-.5761 2.7731.0467 3.3203,1.0534l-2.3851,10.8569c-.6166,2.2459-1.6446,7.3423.8852,13.5852h-11.7338c1.6744-5.2529 2.3855-9.4733.9697-10.9381l-6.8308-7.37c-.0294-1.1455 1.2222-2.5959 2.3208-2.5649l5.2357,5.5403-3.7954-7.8481c.3007-1.1408 1.986-2.0112 2.99-1.6387l4.015,8.1369-1.436-8.7274c.2979-.4522.9264-.7625 1.575-.8576z" fill="#fff" stroke="#000"/>
<path d="m300.3517,367.1846c3.1256-1.7856 6.6189-4.8936 8.1887-.9522-5.3442,2.4459-9.4837,7.3573-12.4214,5.5802" fill="#fff" stroke="#000"/>
<path d="m301.1533,365.6505-.1779.7899 1.3083.8519c-2.9218,2.7513-9.0945-.2139-1.1305-1.6417z" fill="#fff"/>
</g>
</svg>
