<svg viewBox="0 0 512 512" xmlns="http://www.w3.org/2000/svg">

<g transform="matrix(18.68858,0,0,18.68858,-5277.0116,-6622.67498)">
<path d="m 295.431 354.91 c 0.6487 -0.095 1.3381 0.0212 1.7894 0.3916 l 1.3271 8.3211 1.7528 -7.9404 c 0.9359 -0.5761 2.7731 0.0467 3.3203 1.0534 l -2.3851 10.8569 c -0.6166 2.2459 -1.6446 7.3423 0.8852 13.5852 h -11.7338 c 1.6744 -5.2529 2.3855 -9.4733 0.9697 -10.9381 l -6.8308 -7.37 c -0.0294 -1.1455 1.2222 -2.5959 2.3208 -2.5649 l 5.2357 5.5403 -3.7954 -7.8481 c 0.3007 -1.1408 1.986 -2.0112 2.99 -1.6387 l 4.015 8.1369 -1.436 -8.7274 c 0.2979 -0.4522 0.9264 -0.7625 1.575 -0.8576 z" fill="#fff" stroke="#000"/>
<path d="m 300.352 367.185 c 3.1256 -1.7856 6.6189 -4.8936 8.1887 -0.9522 -5.3442 2.4459 -9.4837 7.3573 -12.4214 5.5802" fill="#fff" stroke="#000"/>
<path d="m 301.153 365.651 -0.1779 0.7899 1.3083 0.8519 c -2.9218 2.7513 -9.0945 -0.2139 -1.1305 -1.6417 z" fill="#fff"/>
</g>
</svg>
