<svg viewBox="0 0 512 512" xmlns="http://www.w3.org/2000/svg">

<g transform="matrix(18.68858,0,0,18.68858,-2741.06245,-11023.30248)">
<path d="m 155.344 597.875 0.0937 1 c 0.9645 -0.0766 1.9093 0.3163 2.6562 0.9375 s 1.2651 1.4574 1.3438 2.25 l 1 -0.0937 c -0.1115 -1.1237 -0.7681 -2.1728 -1.6875 -2.9375 s -2.1358 -1.2571 -3.4062 -1.1562 z" fill="#fff" fill-rule="evenodd"/>
<path d="m 40.125 609.518 c 0 4.0213 -3.2599 7.2812 -7.2812 7.2812 s -7.2812 -3.2599 -7.2812 -7.2812 3.2599 -7.2812 7.2812 -7.2812 7.2812 3.2599 7.2812 7.2812 z" fill="#fff" stroke="#000" stroke-width=".8198" transform="matrix(1.05636,.60989,-.60989,1.05636,501.72619,-56.16747)"/>
<path d="m 170.452 600.92 c -0.8636 1.4937 -2.928 2.6088 -5.1925 3.1904 3.0887 4.2808 2.8353 9.2698 1.5594 12.2732" fill="none" stroke="#000"/>
<path d="m 167.542 610.301 c -5.4005 -0.251 -11.6652 -4.9976 -9.8285 -8.1899" fill="none" stroke="#000"/>
<path d="m 154.922 600.215 -2.8147 -0.1277 2.0834 -1.1813 -2.4443 -1.7928 3.0736 0.07 -0.507 -2.1724 2.5735 1.3721 -3.4971 -5.7149 -0.483 5.4547 -5.2361 -0.3947 3.8447 2.5239 -2.6954 3.307 6.1024 -1.3439 z" fill="#fff" fill-rule="evenodd"/>
<path d="m 167.562 603.237 c -1.9213 -0.8075 -3.3403 -2.6837 -2.8125 -4.625" fill="none" stroke="#000"/>
<path d="m 159.786 615.772 c -0.609 -2.5962 -0.0345 -5.8638 1.864 -7.4324" fill="none" stroke="#000"/>
</g>
</svg>
