<svg xmlns="http://www.w3.org/2000/svg" viewBox="0 0 512 512">

<path fill="#fff" d="m36.5412,236.3484-2.6235,119.7426 105.8757-61.0893z"/>
<path fill="#fff" stroke="#000" stroke-linejoin="round" stroke-width="18" d="m273.6694,193.0757 150.136-23.8505c37.9874-6.8701 60.0635,50.8001 14.3715,58.709c-6.9885,1.2096-129.0374,25.991-129.0374,25.991l140.6569,3.6693c24.5756,1.5741 56.292,39.0898 5.8097,52.8992c-3.6482,.998-141.2685,13.4541-141.2685,13.4541l125.9797,16.5119c22.3047,6.2239 33.1962,48.7594-6.1155,51.3704c-1.8306,.1216-143.1031-11.6195-141.88-11.9253s108.6464,45.0974 108.6464,45.0974c-3.6493,31.7074-23.7369,35.7315-50.8266,36.7238l-202.7575-62.5574c-21.3821-9.1541-29.1045-27.4147-41.5855-42.5029h-71.8573"/>
<path fill="#fff" stroke="#000" stroke-linejoin="round" stroke-width="18" d="m36.1714,235.8241 65.7297-.5808 32.8649-44.5405c108.3182-29.867 99.704-68.0914 140.4356-103.0456c5.1795-4.7614 31.238-.8648 32.8431,24.1818l-37.0191,81.7207c-8.704,12.9951-15.0114,17.2021-27.5029,26.5485c-3.1599,118.3643-42.9928,107.8825-61.0625,112.4017"/>
</svg>
