<svg viewBox="0 0 512 512" xmlns="http://www.w3.org/2000/svg">

<g transform="matrix(18.68858,0,0,18.68858,2096.88597,-18226.26544)">
<path d="m -92.3771 976.588 c -1.5869 0.2061 -2.8259 1.9309 -2.8259 4.0126 3e-05 1.1529 0.3954 2.1825 1.0042 2.9162 -3.3003 0.6204 -3.5499 6.1772 -3.5499 10.0782 h 2.2887 l 0.6072 8.1419 h 5.8153 l 0.5372 -8.1419 h 2.172 c 0 -3.9119 0.0786 -9.5664 -3.5265 -10.1248 0.5827 -0.7302 0.9575 -1.745 0.9575 -2.8695 -3e-05 -2.2205 -1.415 -4.0126 -3.1529 -4.0126 -0.1086 0 -0.2212 -0.0137 -0.327 0 z" fill="#fff" fill-rule="evenodd"/>
<path d="m -88.2845 1002.1 -5.4895 -0.9977 c -0.6355 -5.5847 -1.0081 -11.0032 -0.2422 -16.5047 0 0 5.1262 -3.2839 8.0728 -1.5831 0 0 3.4658 13.2072 -2.3411 19.0855 z" fill-rule="evenodd"/>
<path d="m 649.414 929.596 c 0 2.0398 -1.2379 3.6933 -2.7649 3.6933 s -2.7649 -1.6535 -2.7649 -3.6933 1.2379 -3.6933 2.7649 -3.6933 2.7649 1.6535 2.7649 3.6933 z" transform="matrix(.9854,0,0,.9854,-728.45998,64.78596)"/>
<path d="m -95.4757 994.326 0.0902 -8.591 c -1.1852 2.1566 -1.3012 4.4759 -1.2847 7.2496 l 1.1946 1.3415 z" fill-rule="evenodd"/>
<path d="m -88.5043 993.626 -0.0902 -7.8775 c 1.1852 2.1566 1.3012 5.0895 1.2847 7.8632 l -1.1946 0.0143 z" fill="#fff" fill-rule="evenodd"/>
</g>
<g transform="matrix(-18.68858,0,0,18.68858,8215.5009,-25279.01129)">
<path d="m 438.221 1360.26 c 0 2.4734 -1.5205 4.4785 -3.3962 4.4785 s -3.3962 -2.0051 -3.3962 -4.4785 1.5205 -4.4785 3.3962 -4.4785 3.3962 2.0051 3.3962 4.4785 z" fill="#fff" transform="matrix(1.21388,0,0,1.21388,-93.4368,-291.27908)"/>
<path d="m 431.172 1364.44 h 6.3424 v 2.3092 h -6.3424 z" fill="#fff" stroke="#000"/>
<path d="m 431.172 1353.24 h 6.3424 v 2.3092 h -6.3424 z" fill="#fff" stroke="#000"/>
</g>
</svg>
