<svg viewBox="0 0 512 512" xmlns="http://www.w3.org/2000/svg">

<g transform="matrix(18.68858,0,0,18.68858,2096.88597,-18226.26544)">
<path d="m-92.3771,976.5883c-1.5869.2061-2.8259,1.9309-2.8259,4.0126 3e-05,1.1529.3954,2.1825 1.0042,2.9162-3.3003.6204-3.5499,6.1772-3.5499,10.0782h2.2887l.6072,8.1419h5.8153l.5372-8.1419h2.172c0-3.9119.0786-9.5664-3.5265-10.1248 .5827-.7302.9575-1.745.9575-2.8695-3e-05-2.2205-1.415-4.0126-3.1529-4.0126-.1086,0-.2212-.0137-.327,0z" fill="#fff" fill-rule="evenodd"/>
<path d="m-88.2845,1002.1027-5.4895-.9977c-.6355-5.5847-1.0081-11.0032-.2422-16.5047 0,0 5.1262-3.2839 8.0728-1.5831 0,0 3.4658,13.2072-2.3411,19.0855z" fill-rule="evenodd"/>
<path d="m649.4137,929.5956c0,2.0398-1.2379,3.6933-2.7649,3.6933s-2.7649-1.6535-2.7649-3.6933 1.2379-3.6933 2.7649-3.6933 2.7649,1.6535 2.7649,3.6933z" transform="matrix(.9854,0,0,.9854,-728.45998,64.78596)"/>
<path d="m-95.4757,994.3256 .0902-8.591c-1.1852,2.1566-1.3012,4.4759-1.2847,7.2496l1.1946,1.3415z" fill-rule="evenodd"/>
<path d="m-88.5043,993.6264-.0902-7.8775c1.1852,2.1566 1.3012,5.0895 1.2847,7.8632l-1.1946.0143z" fill="#fff" fill-rule="evenodd"/>
</g>
<g transform="matrix(-18.68858,0,0,18.68858,8215.5009,-25279.01129)">
<path d="m438.2211,1360.2589c0,2.4734-1.5205,4.4785-3.3962,4.4785s-3.3962-2.0051-3.3962-4.4785 1.5205-4.4785 3.3962-4.4785 3.3962,2.0051 3.3962,4.4785z" fill="#fff" transform="matrix(1.21388,0,0,1.21388,-93.4368,-291.27908)"/>
<path d="m431.1723,1364.4436h6.3424v2.3092h-6.3424z" fill="#fff" stroke="#000"/>
<path d="m431.1723,1353.2365h6.3424v2.3092h-6.3424z" fill="#fff" stroke="#000"/>
</g>
</svg>
