<svg viewBox="0 0 512 512" xmlns="http://www.w3.org/2000/svg">

<g transform="matrix(18.68858,0,0,18.68858,-2741.06245,-11023.30248)">
<path d="m155.3438,597.875 .0937,1c.9645-.0766 1.9093.3163 2.6562.9375s1.2651,1.4574 1.3438,2.25l1-.0937c-.1115-1.1237-.7681-2.1728-1.6875-2.9375s-2.1358-1.2571-3.4062-1.1562z" fill="#fff" fill-rule="evenodd"/>
<path d="m40.125,609.5184c0,4.0213-3.2599,7.2812-7.2812,7.2812s-7.2812-3.2599-7.2812-7.2812 3.2599-7.2812 7.2812-7.2812 7.2812,3.2599 7.2812,7.2812z" fill="#fff" stroke="#000" stroke-width=".8198" transform="matrix(1.05636,.60989,-.60989,1.05636,501.72619,-56.16747)"/>
<path d="m170.452,600.92c-.8636,1.4937-2.928,2.6088-5.1925,3.1904 3.0887,4.2808 2.8353,9.2698 1.5594,12.2732" fill="none" stroke="#000"/>
<path d="m167.5421,610.3009c-5.4005-.251-11.6652-4.9976-9.8285-8.1899" fill="none" stroke="#000"/>
<path d="m154.9222,600.2154-2.8147-.1277 2.0834-1.1813-2.4443-1.7928 3.0736.07-.507-2.1724 2.5735,1.3721-3.4971-5.7149-.483,5.4547-5.2361-.3947 3.8447,2.5239-2.6954,3.307 6.1024-1.3439z" fill="#fff" fill-rule="evenodd"/>
<path d="m167.5625,603.2372c-1.9213-.8075-3.3403-2.6837-2.8125-4.625" fill="none" stroke="#000"/>
<path d="m159.7857,615.7716c-.609-2.5962-.0345-5.8638 1.864-7.4324" fill="none" stroke="#000"/>
</g>
</svg>
