<svg viewBox="0 0 512 512" xmlns="http://www.w3.org/2000/svg">

<g transform="matrix(18.68858,0,0,18.68858,-4999.91635,-38783.52114)">
<path d="m 289.034 2089.86 c 0 4.6653 -3.782 8.4473 -8.4473 8.4473 s -8.4473 -3.782 -8.4473 -8.4473 3.782 -8.4473 8.4473 -8.4473 8.4473 3.782 8.4473 8.4473 z" fill="#fff" transform="matrix(.94595,0,0,.94595,15.81373,107.86642)"/>
<path d="m 267.844 2087.31 c 7.3912 5.6601 19.3746 5.6601 26.7659 0.0004" fill="none" stroke="#fff"/>
<path d="m 289.034 2089.86 c 0 4.6653 -3.782 8.4473 -8.4473 8.4473 s -8.4473 -3.782 -8.4473 -8.4473 3.782 -8.4473 8.4473 -8.4473 8.4473 3.782 8.4473 8.4473 z" transform="matrix(.49428,0,0,.49428,142.5459,1052.016)"/>
<path d="m 287.817 2082.86 c 0 1.7863 -1.4481 3.2343 -3.2343 3.2343 s -3.2343 -1.448 -3.2343 -3.2343 1.4481 -3.2343 3.2343 -3.2343 3.2343 1.448 3.2343 3.2343 z" fill="#fff" transform="matrix(.72893,0,0,.72893,75.82557,564.36289)"/>
<path d="m 276.031 2102.19 v -2.8104 c 0 -3.5328 -0.0704 -8.6209 3.2188 -9.125 -0.5317 -0.6594 -0.875 -1.5781 -0.875 -2.5938 8e-05 -2.0048 1.2893 -3.625 2.875 -3.625 0.099 0 0.1847 -0.014 0.2812 0 1.4479 0.1861 2.5938 1.7453 2.5938 3.625 0 1.0413 -0.3507 1.9622 -0.9062 2.625 3.0112 0.5602 3.2188 5.5708 3.2188 9.0938 v 2.8866" fill="#fff" fill-rule="evenodd" stroke="#000"/>
<path d="m 267.844 2081.36 c 7.3807 -6.1675 19.3471 -6.1675 26.7278 -0.0005" fill="none" stroke="#fff"/>
<path d="m 278.209 2102.04 v -5.7109" fill="none" stroke="#000"/>
<path d="m 268.05 2075.71 h 26.4314 v 26.4314 h -26.4314 z" fill="none" stroke="#000"/>
<path d="m 284.221 2102.04 v -5.7109" fill="none" stroke="#000"/>
<path d="m 319.213 2083.09 c 0 1.0178 -0.5421 1.843 -1.2108 1.843 s -1.2108 -0.8252 -1.2108 -1.843 0.5421 -1.8431 1.2108 -1.8431 1.2108 0.8252 1.2108 1.8431 z" fill="#fff" stroke="#000" stroke-width=".4442" transform="matrix(2.41998,0,0,2.09421,-488.32372,-2274.5508)"/>
<path d="m 280.892 2087.86 c 0 0.725 -0.2385 1.3127 -0.5327 1.3127 s -0.5327 -0.5877 -0.5327 -1.3127 0.2385 -1.3128 0.5327 -1.3128 0.5327 0.5878 0.5327 1.3128 z" transform="matrix(1.02532,0,0,.95294,-7.19836,98.3283)"/>
<path d="m 280.892 2087.86 c 0 0.725 -0.2385 1.3127 -0.5327 1.3127 s -0.5327 -0.5877 -0.5327 -1.3127 0.2385 -1.3128 0.5327 -1.3128 0.5327 0.5878 0.5327 1.3128 z" transform="matrix(1.02532,0,0,.95294,-5.20863,98.3283)"/>
</g>
</svg>
