<svg viewBox="0 0 512 512" xmlns="http://www.w3.org/2000/svg">

<g transform="matrix(18.68858,0,0,18.68858,-9760.4924,-30619.54986)">
<path d="m548.6643,1649.4986-12.6793,13.8928-12.6791-13.8928" stroke="#fff"/>
<path d="m544.8708,1647.7619-8.8857,14.6479-8.8857-14.6479" stroke="#fff"/>
<path d="m539.3033,1648.2526-3.3182,12.6467-3.3182-12.6467" stroke="#fff"/>
<g transform="translate(218.5217,616.5189)">
<path d="m317.4884,1022.3763c-6.8939,0-12.5497,5.0107-13.1335,11.4015h26.2168c-.5841-6.3905-6.1898-11.4016-13.0834-11.4015z" fill="#fff" stroke="#000"/>
<path d="m317.6335,1022.3763c-4.7214,0-8.5949,5.0107-8.9947,11.4015h17.955c-.4-6.3905-4.2392-11.4016-8.9603-11.4015z" fill="none" stroke="#000"/>
<path d="m317.5468,1022.3763c-1.9052,0-3.4682,5.0107-3.6295,11.4015h7.2452c-.1614-6.3905-1.7106-11.4016-3.6157-11.4015z" fill="none" stroke="#000"/>
</g>
<path d="m539.3709,1662.1088c0,1.6264-1.3185,2.9449-2.9449,2.9449s-2.9449-1.3185-2.9449-2.9449 1.3185-2.9449 2.9449-2.9449 2.9449,1.3184 2.9449,2.9449z" stroke="#fff" stroke-width="1.0263" transform="matrix(.97436,0,0,.97436,13.31362,41.93858)"/>
<path d="m536.0216,1658.757v5.286" fill="none" stroke="#fff"/>
<path d="m538.6646,1661.4h-5.286" fill="none" stroke="#fff"/>
</g>
</svg>
