<svg viewBox="0 0 512 512" xmlns="http://www.w3.org/2000/svg">

<g transform="matrix(18.68858,0,0,18.68858,-9760.4924,-30619.54986)">
<path d="m 548.664 1649.5 -12.6793 13.8928 -12.6791 -13.8928" stroke="#fff"/>
<path d="m 544.871 1647.76 -8.8857 14.6479 -8.8857 -14.6479" stroke="#fff"/>
<path d="m 539.303 1648.25 -3.3182 12.6467 -3.3182 -12.6467" stroke="#fff"/>
<g transform="translate(218.5217,616.5189)">
<path d="m 317.488 1022.38 c -6.8939 0 -12.5497 5.0107 -13.1335 11.4015 h 26.2168 c -0.5841 -6.3905 -6.1898 -11.4016 -13.0834 -11.4015 z" fill="#fff" stroke="#000"/>
<path d="m 317.634 1022.38 c -4.7214 0 -8.5949 5.0107 -8.9947 11.4015 h 17.955 c -0.4 -6.3905 -4.2392 -11.4016 -8.9603 -11.4015 z" fill="none" stroke="#000"/>
<path d="m 317.547 1022.38 c -1.9052 0 -3.4682 5.0107 -3.6295 11.4015 h 7.2452 c -0.1614 -6.3905 -1.7106 -11.4016 -3.6157 -11.4015 z" fill="none" stroke="#000"/>
</g>
<path d="m 539.371 1662.11 c 0 1.6264 -1.3185 2.9449 -2.9449 2.9449 s -2.9449 -1.3185 -2.9449 -2.9449 1.3185 -2.9449 2.9449 -2.9449 2.9449 1.3184 2.9449 2.9449 z" stroke="#fff" stroke-width="1.0263" transform="matrix(.97436,0,0,.97436,13.31362,41.93858)"/>
<path d="m 536.022 1658.76 v 5.286" fill="none" stroke="#fff"/>
<path d="m 538.665 1661.4 h -5.286" fill="none" stroke="#fff"/>
</g>
</svg>
