<svg viewBox="0 0 512 512" xmlns="http://www.w3.org/2000/svg">

<g transform="matrix(18.68858,0,0,18.68858,-13169.03555,-40832.1545)">
<path d="m 715.505 2202.9 c 4.705 -0.5568 4.0073 7.5917 -0.7384 7.8253 -3.6619 0.1802 -7.9664 -2.6651 -7.9825 -8.8512 -0.01 -3.7225 4.3668 -4.1011 4.5708 -1.0105 0.1003 1.5201 1.4394 2.3571 4.1501 2.0364 z" fill="none" stroke="#fff" stroke-dasharray="1, 1"/>
<path d="m 717.811 2206.41 c -0.054 1.4328 -1.281 3.4001 -3.2247 3.4958 -3.0908 0.1521 -6.9395 -2.4216 -6.9537 -7.8594 0 -1.5175 0.8415 -2.4129 1.6551 -2.3401 1.8778 0.1682 0.9234 2.6462 2.2806 3.333 0.7823 0.3959 2.3436 0.6294 3.3554 0.6649 2.7998 0.098 2.9546 0.9247 2.8873 2.7058 z" stroke="#fff"/>
<path d="m 896.304 2005.64 c 0 0.8019 -0.6501 1.4519 -1.452 1.4519 s -1.452 -0.65 -1.452 -1.4519 0.6501 -1.452 1.452 -1.452 1.452 0.6501 1.452 1.452 z" fill="#fff" transform="matrix(0,.89908,-.89908,0,2517.4228,1402.3168)"/>
<path d="m 896.304 2005.64 c 0 0.8019 -0.6501 1.4519 -1.452 1.4519 s -1.452 -0.65 -1.452 -1.4519 0.6501 -1.452 1.452 -1.452 1.452 0.6501 1.452 1.452 z" fill="#fff" transform="matrix(0,.52873,-.52873,0,1771.224,1732.2457)"/>
<path d="m 715.423 2194.75 c -4.7774 -4.7387 3.4335 -10.455 9.4365 -7.3721 4.6321 2.3788 7.9061 8.9353 3.5329 16.5556 -2.6312 4.5857 -5.7761 2.3598 -6.3397 -2.0029 -0.1735 -1.343 -4.3841 -4.9533 -6.6297 -7.1806 z" fill="none" stroke="#fff" stroke-dasharray="0.99999996, 0.99999996"/>
<path d="m 896.304 2005.64 c 0 0.8019 -0.6501 1.4519 -1.452 1.4519 s -1.452 -0.65 -1.452 -1.4519 0.6501 -1.452 1.452 -1.452 1.452 0.6501 1.452 1.452 z" fill="#fff" transform="matrix(.63847,-1.10587,1.10587,.63847,-2070.9144,1900.8161)"/>
<path d="m 716.74 2194.8 c -5.4759 -4.5251 2.5654 -9.2471 7.9006 -6.5044 4.1169 2.1162 7.0807 8.0571 3.1939 14.8363 -2.3385 4.0796 -4.3233 2.4776 -4.9862 -1.6197 -0.1924 -1.1892 -3.8152 -4.8172 -6.1083 -6.7122 z" fill="none" stroke="#fff"/>
<path d="m 896.304 2005.64 c 0 0.8019 -0.6501 1.4519 -1.452 1.4519 s -1.452 -0.65 -1.452 -1.4519 0.6501 -1.452 1.452 -1.452 1.452 0.6501 1.452 1.452 z" fill="#fff" transform="matrix(.93452,-1.61863,1.61863,.93452,-3357.3699,1771.0053)"/>
<path d="m 896.304 2005.64 c 0 0.8019 -0.6501 1.4519 -1.452 1.4519 s -1.452 -0.65 -1.452 -1.4519 0.6501 -1.452 1.452 -1.452 1.452 0.6501 1.452 1.452 z" fill="#fff" transform="matrix(0,.52873,-.52873,0,1783.6216,1718.5442)"/>
<path d="m 707.202 2193.47 c -1.0006 -1.1849 -0.925 -3.6361 1.447 -4.7427 1.1825 -0.5517 2.8531 0.8871 2.4656 2.1189 -0.5482 1.7429 -1.9116 4.9933 -3.9126 2.6238 z" fill="none" stroke="#fff" stroke-dasharray="1, 1"/>
<path d="m 707.688 2193.1 c -0.7017 -0.7089 -0.2935 -2.6177 1.1622 -3.4632 0.8759 -0.5087 1.7597 0.6766 1.4778 1.4708 -0.3817 1.0754 -1.5815 3.0618 -2.64 1.9924 z" fill="none" stroke="#fff"/>
</g>
</svg>
