<svg viewBox="0 0 512 512" xmlns="http://www.w3.org/2000/svg">

<g transform="matrix(18.68858,0,0,18.68858,-13169.03555,-40832.1545)">
<path d="m715.5047,2202.8992c4.705-.5568 4.0073,7.5917-.7384,7.8253-3.6619.1802-7.9664-2.6651-7.9825-8.8512-.01-3.7225 4.3668-4.1011 4.5708-1.0105 .1003,1.5201 1.4394,2.3571 4.1501,2.0364z" fill="none" stroke="#fff" stroke-dasharray="1, 1"/>
<path d="m717.8109,2206.4116c-.054,1.4328-1.281,3.4001-3.2247,3.4958-3.0908.1521-6.9395-2.4216-6.9537-7.8594 0-1.5175.8415-2.4129 1.6551-2.3401 1.8778.1682.9234,2.6462 2.2806,3.333 .7823.3959 2.3436.6294 3.3554.6649 2.7998.098 2.9546.9247 2.8873,2.7058z" stroke="#fff"/>
<path d="m896.3039,2005.6392c0,.8019-.6501,1.4519-1.452,1.4519s-1.452-.65-1.452-1.4519 .6501-1.452 1.452-1.452 1.452.6501 1.452,1.452z" fill="#fff" transform="matrix(0,.89908,-.89908,0,2517.4228,1402.3168)"/>
<path d="m896.3039,2005.6392c0,.8019-.6501,1.4519-1.452,1.4519s-1.452-.65-1.452-1.4519 .6501-1.452 1.452-1.452 1.452.6501 1.452,1.452z" fill="#fff" transform="matrix(0,.52873,-.52873,0,1771.224,1732.2457)"/>
<path d="m715.4235,2194.75c-4.7774-4.7387 3.4335-10.455 9.4365-7.3721 4.6321,2.3788 7.9061,8.9353 3.5329,16.5556-2.6312,4.5857-5.7761,2.3598-6.3397-2.0029-.1735-1.343-4.3841-4.9533-6.6297-7.1806z" fill="none" stroke="#fff" stroke-dasharray="0.99999996, 0.99999996"/>
<path d="m896.3039,2005.6392c0,.8019-.6501,1.4519-1.452,1.4519s-1.452-.65-1.452-1.4519 .6501-1.452 1.452-1.452 1.452.6501 1.452,1.452z" fill="#fff" transform="matrix(.63847,-1.10587,1.10587,.63847,-2070.9144,1900.8161)"/>
<path d="m716.7398,2194.8008c-5.4759-4.5251 2.5654-9.2471 7.9006-6.5044 4.1169,2.1162 7.0807,8.0571 3.1939,14.8363-2.3385,4.0796-4.3233,2.4776-4.9862-1.6197-.1924-1.1892-3.8152-4.8172-6.1083-6.7122z" fill="none" stroke="#fff"/>
<path d="m896.3039,2005.6392c0,.8019-.6501,1.4519-1.452,1.4519s-1.452-.65-1.452-1.4519 .6501-1.452 1.452-1.452 1.452.6501 1.452,1.452z" fill="#fff" transform="matrix(.93452,-1.61863,1.61863,.93452,-3357.3699,1771.0053)"/>
<path d="m896.3039,2005.6392c0,.8019-.6501,1.4519-1.452,1.4519s-1.452-.65-1.452-1.4519 .6501-1.452 1.452-1.452 1.452.6501 1.452,1.452z" fill="#fff" transform="matrix(0,.52873,-.52873,0,1783.6216,1718.5442)"/>
<path d="m707.2023,2193.4692c-1.0006-1.1849-.925-3.6361 1.447-4.7427 1.1825-.5517 2.8531.8871 2.4656,2.1189-.5482,1.7429-1.9116,4.9933-3.9126,2.6238z" fill="none" stroke="#fff" stroke-dasharray="1, 1"/>
<path d="m707.6885,2193.0996c-.7017-.7089-.2935-2.6177 1.1622-3.4632 .8759-.5087 1.7597.6766 1.4778,1.4708-.3817,1.0754-1.5815,3.0618-2.64,1.9924z" fill="none" stroke="#fff"/>
</g>
</svg>
