<svg viewBox="0 0 512 512" xmlns="http://www.w3.org/2000/svg">

<g transform="matrix(18.68858,0,0,18.68858,-7716.22914,-8871.79874)">
<path d="m413.499,481.6544v19.9758h13.1699c1.0618-2.1419 1.7347-4.3142 2.0715-6.4209-6.9782-3.9221-5.8396-8.5659-3.4631-13.6165-2.872-2.8616-7.1295-3.445-11.7782.0616z" fill="#fff" fill-rule="evenodd" stroke="#000"/>
<path d="m433.4977,495.0379c-7.1577,5.2925-16.292-1.6869-13.8343-8.6253 2.6424-.3126 4.2771,2.2626 7.2751,2.266-.4223,2.7278 1.6687,6.4125 6.5592,6.3593z" fill="#fff" fill-rule="evenodd" stroke="#000"/>
<path d="m430.7105,495.6102c-1.6888-2.1212-1.6827-5.9316.6712-6.3867" fill="none" stroke="#fff"/>
<path d="m431.7961,500.7158c13.5222-8.3288 8.1208-22.9431-3.0543-25.2186-11.6288-2.3678-15.2357,11.6443-7.0864,12.8633 8.0211,1.1998 14.8882,3.4182 10.1407,12.3552z" fill="#fff" fill-rule="evenodd" stroke="#000"/>
<path d="m74.423,870.6799c0,1.196-.9695,2.1655-2.1655,2.1655s-2.1655-.9695-2.1655-2.1655 .9695-2.1655 2.1655-2.1655 2.1655.9695 2.1655,2.1655z" transform="matrix(1.04745,0,0,1.04721,349.49222,-427.9541)"/>
<path d="m435.3837,478.8973c-7.7043-1.149-3.6844,7.1142-10.5434,9.9547" fill="none" stroke="#000"/>
</g>
</svg>
