<svg viewBox="0 0 512 512" xmlns="http://www.w3.org/2000/svg">

<g transform="matrix(18.68858,0,0,18.68858,-7716.22914,-8871.79874)">
<path d="m 413.499 481.654 v 19.9758 h 13.1699 c 1.0618 -2.1419 1.7347 -4.3142 2.0715 -6.4209 -6.9782 -3.9221 -5.8396 -8.5659 -3.4631 -13.6165 -2.872 -2.8616 -7.1295 -3.445 -11.7782 0.0616 z" fill="#fff" fill-rule="evenodd" stroke="#000"/>
<path d="m 433.498 495.038 c -7.1577 5.2925 -16.292 -1.6869 -13.8343 -8.6253 2.6424 -0.3126 4.2771 2.2626 7.2751 2.266 -0.4223 2.7278 1.6687 6.4125 6.5592 6.3593 z" fill="#fff" fill-rule="evenodd" stroke="#000"/>
<path d="m 430.711 495.61 c -1.6888 -2.1212 -1.6827 -5.9316 0.6712 -6.3867" fill="none" stroke="#fff"/>
<path d="m 431.796 500.716 c 13.5222 -8.3288 8.1208 -22.9431 -3.0543 -25.2186 -11.6288 -2.3678 -15.2357 11.6443 -7.0864 12.8633 8.0211 1.1998 14.8882 3.4182 10.1407 12.3552 z" fill="#fff" fill-rule="evenodd" stroke="#000"/>
<path d="m 74.423 870.68 c 0 1.196 -0.9695 2.1655 -2.1655 2.1655 s -2.1655 -0.9695 -2.1655 -2.1655 0.9695 -2.1655 2.1655 -2.1655 2.1655 0.9695 2.1655 2.1655 z" transform="matrix(1.04745,0,0,1.04721,349.49222,-427.9541)"/>
<path d="m 435.384 478.897 c -7.7043 -1.149 -3.6844 7.1142 -10.5434 9.9547" fill="none" stroke="#000"/>
</g>
</svg>
