<svg viewBox="0 0 512 512" xmlns="http://www.w3.org/2000/svg">

<g transform="matrix(18.68858,0,0,18.68858,-3637.5994,-44909.104)">
<path d="m221.088,2411.7895c.2359,7.5175-11.5415,12.7993-12.6473,16.9255-1.2082-4.5093-12.434-9.0813-12.6845-16.9255-.2404-7.5335 10.1716-9.7528 12.4143-3.451 3.7272-6.4556 12.6849-3.9564 12.9174,3.451z" fill="#fff"/>
<path d="m879.3433,1974.9484c0,1.6445-1.9156,2.9776-4.2787,2.9776s-4.2787-1.3331-4.2787-2.9776 1.9156-2.9777 4.2787-2.9777 4.2787,1.3332 4.2787,2.9777z" transform="matrix(0,.75179,-.69321,0,1577.51024,1760.98228)"/>
<path d="m879.3433,1974.9484c0,1.6445-1.9156,2.9776-4.2787,2.9776s-4.2787-1.3331-4.2787-2.9776 1.9156-2.9777 4.2787-2.9777 4.2787,1.3332 4.2787,2.9777z" transform="matrix(.06005,.448,-.448,.06005,1038.83495,1902.44928)"/>
<path d="m879.3433,1974.9484c0,1.6445-1.9156,2.9776-4.2787,2.9776s-4.2787-1.3331-4.2787-2.9776 1.9156-2.9777 4.2787-2.9777 4.2787,1.3332 4.2787,2.9777z" transform="matrix(-.06005,.448,.448,.06005,-621.91424,1902.44928)"/>
<path d="m879.3433,1974.9484c0,1.6445-1.9156,2.9776-4.2787,2.9776s-4.2787-1.3331-4.2787-2.9776 1.9156-2.9777 4.2787-2.9777 4.2787,1.3332 4.2787,2.9777z" transform="matrix(-.12161,.45983,-.45983,-.12161,1227.84966,2253.90661)"/>
<path d="m879.3433,1974.9484c0,1.6445-1.9156,2.9776-4.2787,2.9776s-4.2787-1.3331-4.2787-2.9776 1.9156-2.9777 4.2787-2.9777 4.2787,1.3332 4.2787,2.9777z" transform="matrix(.16629,.44562,.44562,-.16629,-821.94925,2354.52354)"/>
<path d="m879.3433,1974.9484c0,1.6445-1.9156,2.9776-4.2787,2.9776s-4.2787-1.3331-4.2787-2.9776 1.9156-2.9777 4.2787-2.9777 4.2787,1.3332 4.2787,2.9777z" transform="matrix(.77353,-.22478,.18579,.75199,-836.89458,1131.94513)"/>
<path d="m879.3433,1974.9484c0,1.6445-1.9156,2.9776-4.2787,2.9776s-4.2787-1.3331-4.2787-2.9776 1.9156-2.9777 4.2787-2.9777 4.2787,1.3332 4.2787,2.9777z" transform="matrix(-.77353,-.22478,-.18579,.75199,1253.82516,1131.94513)"/>
<path d="m205.8602,2407.7699c-.5397,1.2175-1.0231,2.8503.2182,2.7518 1.2722-.1008.6048-1.5583-.2182-2.7518z"/>
<path d="m215.3018,2410.8164c.1953,1.3174.2255,3.0199-.9445,2.5939-1.1992-.4368-.167-1.6633.9445-2.5939z"/>
<path d="m201.1746,2411.1152c-.0647,1.3301.0729,3.0273 1.1953,2.4882 1.1504-.5527.003-1.6716-1.1953-2.4882z"/>
<path d="m211.0606,2407.7699c.5397,1.2175 1.0231,2.8503-.2182,2.7518-1.2722-.1008-.6048-1.5583.2182-2.7518z"/>
</g>
</svg>
