<svg viewBox="0 0 512 512" xmlns="http://www.w3.org/2000/svg">

<g transform="matrix(18.68858,0,0,18.68858,-3635.64359,-23137.50075)">
<path d="m 200.088 1247.4 c -1.4718 -2.0588 -5.9202 0.5472 -4.9705 2.8652" fill="none" stroke="#000"/>
<path d="m 201.001 1244.81 c 0.6304 -2.6184 5.9105 -2.9629 6.4346 0" fill="none" stroke="#000"/>
<path d="m 215.361 1245.61 c 0.2451 -3.4917 -6.1718 -4.4509 -7.0483 -1.1397" fill="none" stroke="#000"/>
<path d="m 220.925 1251.83 c 1.3523 -2.7267 -3.1234 -5.5455 -5.2797 -3.209" fill="none" stroke="#000"/>
<path d="m 211.618 1242.94 c -1.2405 0.01 -2.4407 0.5618 -2.7631 1.796 -0.638 2.4425 -0.3517 4.2727 -0.3109 5.5261 0.0534 1.6398 -1.7501 1.2457 -1.6578 0 0.1299 -1.754 0.505 -3.0464 -0.0345 -5.5606 -0.5619 -2.618 -5.4023 -1.9191 -5.388 0.7253 0.0151 2.8173 0.7657 4.1824 1.4852 5.5261 0.7249 1.3539 -0.7404 2.1708 -1.3815 0.6216 -0.4941 -1.194 -0.8031 -2.2444 -1.7615 -3.6264 -1.4318 -2.0648 -4.9781 -0.059 -4.1101 2.2449 0.6775 1.7983 2.1286 3.3503 3.0048 4.1101 2.0967 1.818 3.0273 3.8843 3.5575 6.4932 0.3712 1.8267 0.1797 2.818 -0.3799 3.87 h 11.7776 c -0.7455 -1.2479 -1.4895 -2.2048 -0.8635 -3.8355 0.7757 -2.0205 2.776 -4.0344 4.2482 -5.2498 0.2147 -0.1773 0.4425 -0.3393 0.6562 -0.518 0.8912 -0.7453 1.8336 -1.8637 2.694 -3.4885 1.2261 -2.3145 -2.7457 -4.5438 -4.3864 -2.5212 -0.8382 1.0333 -1.1181 1.9537 -1.7615 2.7976 -0.7693 1.009 -1.6504 0.3635 -1.1743 -0.5181 0.7515 -1.3917 1.5566 -3.0975 1.6924 -5.837 0.0822 -1.6592 -1.5481 -2.5636 -3.143 -2.5558 z" fill="#fff" fill-rule="evenodd"/>
<path d="m 202.929 1244.11 c -0.2513 -1.5757 -0.1155 -3.1928 0.3404 -4.879 0.8059 1.4823 1.5258 2.8976 1.8193 4.5301" fill="#fff"/>
<path d="m 210.837 1243.79 c 0.5207 -1.4577 1.0711 -3.1487 1.429 -4.5424 0.6465 1.7949 1.313 3.8099 0.5127 5.2594" fill="#fff"/>
<path d="m 197.016 1249.2 c -1.1453 -1.1452 -1.3541 -2.7986 -0.7589 -5.0982 0.5484 1.3304 1.2352 2.487 2.0883 3.7064" fill="#fff"/>
<path d="m 218.191 1248.79 2.4545 -2.7069 c 0.004 1.2925 -0.2457 2.5382 -0.7483 3.8521" fill="#fff"/>
<path d="m 206.199 1247.01 c -0.2326 -3.5728 -4.5944 -3.7008 -3.4667 0.8173 0.6482 2.5971 3.6593 2.1408 3.4667 -0.8173 z"/>
<path d="m 209.57 1246.68 c 0.251 -3.927 5.2615 -3.0115 3.7015 1.1662 -1.1122 2.9786 -3.9093 2.0851 -3.7015 -1.1662 z"/>
<path d="m 218.923 1252.23 c -1.9231 2.2457 -4.319 1.6206 -2.3847 -1.8646 1.1185 -2.0153 4.1311 -0.1748 2.3847 1.8646 z"/>
<path d="m 199.506 1249.27 c -1.0892 -1.9731 -3.8977 -0.8227 -2.1208 2.1938 1.2433 2.1107 3.7275 0.7166 2.1208 -2.1938 z"/>
<path d="m 211.39 1258.36 c -1.5499 0.2878 -2.2288 -0.571 -3.3115 -0.5755 -0.9536 0 -2.0579 0.8862 -3.202 0.6871 -5.2949 -0.9221 -2.7562 -6.1645 3.2239 -6.1645 5.2249 0 8.306 5.1216 3.2896 6.0529 z"/>
<path d="m 202.092 1258.72 -1.0165 3.0936 1.2374 -0.6629 -0.8397 2.5191 1.5468 -0.9281" fill="#fff" fill-rule="evenodd"/>
<path d="m 211.157 1261.79 2.74 -3.867 -0.0442 3.5355 -0.8176 -0.906 0.685 3.1158 -2.5633 -1.8783 z" fill="#fff" fill-rule="evenodd"/>
</g>
</svg>
