<svg viewBox="0 0 512 512" xmlns="http://www.w3.org/2000/svg">

<g transform="matrix(18.68858,0,0,18.68858,-3635.64359,-23137.50075)">
<path d="m200.0882,1247.3962c-1.4718-2.0588-5.9202.5472-4.9705,2.8652" fill="none" stroke="#000"/>
<path d="m201.0014,1244.8061c.6304-2.6184 5.9105-2.9629 6.4346,0" fill="none" stroke="#000"/>
<path d="m215.3608,1245.6105c.2451-3.4917-6.1718-4.4509-7.0483-1.1397" fill="none" stroke="#000"/>
<path d="m220.9255,1251.8311c1.3523-2.7267-3.1234-5.5455-5.2797-3.209" fill="none" stroke="#000"/>
<path d="m211.6181,1242.9449c-1.2405.01-2.4407.5618-2.7631,1.796-.638,2.4425-.3517,4.2727-.3109,5.5261 .0534,1.6398-1.7501,1.2457-1.6578,0 .1299-1.754.505-3.0464-.0345-5.5606-.5619-2.618-5.4023-1.9191-5.388.7253 .0151,2.8173.7657,4.1824 1.4852,5.5261 .7249,1.3539-.7404,2.1708-1.3815.6216-.4941-1.194-.8031-2.2444-1.7615-3.6264-1.4318-2.0648-4.9781-.059-4.1101,2.2449 .6775,1.7983 2.1286,3.3503 3.0048,4.1101 2.0967,1.818 3.0273,3.8843 3.5575,6.4932 .3712,1.8267.1797,2.818-.3799,3.87h11.7776c-.7455-1.2479-1.4895-2.2048-.8635-3.8355 .7757-2.0205 2.776-4.0344 4.2482-5.2498 .2147-.1773.4425-.3393.6562-.518 .8912-.7453 1.8336-1.8637 2.694-3.4885 1.2261-2.3145-2.7457-4.5438-4.3864-2.5212-.8382,1.0333-1.1181,1.9537-1.7615,2.7976-.7693,1.009-1.6504.3635-1.1743-.5181 .7515-1.3917 1.5566-3.0975 1.6924-5.837 .0822-1.6592-1.5481-2.5636-3.143-2.5558z" fill="#fff" fill-rule="evenodd"/>
<path d="m202.9292,1244.1094c-.2513-1.5757-.1155-3.1928.3404-4.879 .8059,1.4823 1.5258,2.8976 1.8193,4.5301" fill="#fff"/>
<path d="m210.8365,1243.7926c.5207-1.4577 1.0711-3.1487 1.429-4.5424 .6465,1.7949 1.313,3.8099.5127,5.2594" fill="#fff"/>
<path d="m197.0164,1249.1977c-1.1453-1.1452-1.3541-2.7986-.7589-5.0982 .5484,1.3304 1.2352,2.487 2.0883,3.7064" fill="#fff"/>
<path d="m218.191,1248.7935 2.4545-2.7069c.004,1.2925-.2457,2.5382-.7483,3.8521" fill="#fff"/>
<path d="m206.1987,1247.0105c-.2326-3.5728-4.5944-3.7008-3.4667.8173 .6482,2.5971 3.6593,2.1408 3.4667-.8173z"/>
<path d="m209.5703,1246.6847c.251-3.927 5.2615-3.0115 3.7015,1.1662-1.1122,2.9786-3.9093,2.0851-3.7015-1.1662z"/>
<path d="m218.923,1252.2295c-1.9231,2.2457-4.319,1.6206-2.3847-1.8646 1.1185-2.0153 4.1311-.1748 2.3847,1.8646z"/>
<path d="m199.5065,1249.272c-1.0892-1.9731-3.8977-.8227-2.1208,2.1938 1.2433,2.1107 3.7275.7166 2.1208-2.1938z"/>
<path d="m211.3904,1258.3644c-1.5499.2878-2.2288-.571-3.3115-.5755-.9536,0-2.0579.8862-3.202.6871-5.2949-.9221-2.7562-6.1645 3.2239-6.1645 5.2249,0 8.306,5.1216 3.2896,6.0529z"/>
<path d="m202.0924,1258.7199-1.0165,3.0936 1.2374-.6629-.8397,2.5191 1.5468-.9281" fill="#fff" fill-rule="evenodd"/>
<path d="m211.1566,1261.7914 2.74-3.867-.0442,3.5355-.8176-.906 .685,3.1158-2.5633-1.8783z" fill="#fff" fill-rule="evenodd"/>
</g>
</svg>
