<svg viewBox="0 0 512 512" xmlns="http://www.w3.org/2000/svg">

<g transform="matrix(18.68858,0,0,18.68858,2604.74939,-11108.06436)">
<path d="m 623.536 613.779 c 0 1.5133 -3.1856 2.74 -7.1153 2.74 s -7.1153 -1.2268 -7.1153 -2.74 3.1856 -2.74 7.1153 -2.74 7.1153 1.2268 7.1153 2.74 z" fill="#fff" stroke="#000" stroke-width=".8213" transform="matrix(1.21085,0,0,1.44173,-872.07672,-267.56952)"/>
<path d="m -130.607 604.244 c 3.9901 1.0737 4.5479 5.6406 0.3668 8.0649 -1.1668 0.6196 -1.8863 1.4758 -1.8863 2.4206 0 1.8897 2.8862 3.4468 6.4448 3.4468 s 6.4448 -1.5571 6.4448 -3.4468 c 0 -0.9639 -0.7562 -1.8246 -1.9649 -2.4469 -4.0492 -2.3479 -3.4094 -7.0083 0.4192 -8.0386 h -9.8244 z" fill="#fff" stroke="#000"/>
<path d="m 619.956 597.958 c 0 2.1479 -1.7412 3.8891 -3.8891 3.8891 s -3.8891 -1.7412 -3.8891 -3.8891 1.7412 -3.8891 3.8891 -3.8891 3.8891 1.7412 3.8891 3.8891 z" fill="#fff" stroke="#000" stroke-width="1.0866" transform="matrix(1.2341,0,0,.68631,-885.97305,193.13504)"/>
<path d="m 619.956 597.958 c 0 2.1479 -1.7412 3.8891 -3.8891 3.8891 s -3.8891 -1.7412 -3.8891 -3.8891 1.7412 -3.8891 3.8891 -3.8891 3.8891 1.7412 3.8891 3.8891 z" fill="#fff" stroke="#000" stroke-width="1.048" transform="matrix(.95202,0,0,.9564,-712.19226,26.75199)"/>
</g>
</svg>
