<svg viewBox="0 0 512 512" xmlns="http://www.w3.org/2000/svg">

<g transform="matrix(18.68858,0,0,18.68858,-7718.18866,-3425.47319)">
<path d="m433.0281,202.3235c3.9032,1.4625 1.929,5.7669-1.4827,5.7528-2.6721-.0112-2.8186-1.4007-4.6441-1.4084-1.6077-.007-2.3077,1.542-4.2715,1.5338-3.5781-.0149-6.11-4.2944-1.9298-5.715 5.4789-1.8619 2.961-5.086 6.2383-5.0537 3.2005.0315 1.1201,3.0285 6.0897,4.8905z" fill="#fff"/>
<path d="m429.9423,195.4405c2.7834-.1118 2.7887-6.3572-.1388-6.2385-2.9756.121-2.6926,6.3526.1388,6.2385z" fill="#fff"/>
<path d="m424.4102,195.5327c2.7741-.2381 2.4458-6.4761-.4719-6.2246-2.9655.256-2.35,6.4672.4719,6.2246z" fill="#fff"/>
<path d="m420.1367,199.9799c2.7603-.3485 2.1396-6.5676-.7635-6.2-2.9508.374-2.0444,6.5548.7635,6.2z" fill="#fff"/>
<path d="m434.2516,200.0712c2.7854.0528 3.2247-6.1794.2949-6.2339-2.9779-.0549-3.1285,6.1805-.2949,6.2339z" fill="#fff"/>
<path d="m418.514,192.4545c1.5988-.1336.9567-2.1696-.3539-3.7007-.8949,1.761-.9437,3.8091.3539,3.7007z" fill="#fff" fill-rule="evenodd"/>
<path d="m435.1354,192.3083c-1.5995-.0205-1.1308-2.1033.0441-3.7281 1.0354,1.6988 1.2541,3.7448-.0441,3.7281z" fill="#fff" fill-rule="evenodd"/>
<path d="m430.147,188.0564c-1.587.1779-1.3226-1.957-.3145-3.7229 1.1892,1.5655 1.6024,3.5786.3145,3.7229z" fill="#fff" fill-rule="evenodd"/>
<path d="m423.8016,188.2525c-1.5758.2481-1.4233-1.896-.5086-3.7047 1.2696,1.5109 1.7875,3.5033.5086,3.7047z" fill="#fff" fill-rule="evenodd"/>
</g>
</svg>
