<svg viewBox="0 0 512 512" xmlns="http://www.w3.org/2000/svg">

<g transform="matrix(18.68858,0,0,18.68858,-7718.18866,-3425.47319)">
<path d="m 433.028 202.323 c 3.9032 1.4625 1.929 5.7669 -1.4827 5.7528 -2.6721 -0.0112 -2.8186 -1.4007 -4.6441 -1.4084 -1.6077 -0.007 -2.3077 1.542 -4.2715 1.5338 -3.5781 -0.0149 -6.11 -4.2944 -1.9298 -5.715 5.4789 -1.8619 2.961 -5.086 6.2383 -5.0537 3.2005 0.0315 1.1201 3.0285 6.0897 4.8905 z" fill="#fff"/>
<path d="m 429.942 195.44 c 2.7834 -0.1118 2.7887 -6.3572 -0.1388 -6.2385 -2.9756 0.121 -2.6926 6.3526 0.1388 6.2385 z" fill="#fff"/>
<path d="m 424.41 195.533 c 2.7741 -0.2381 2.4458 -6.4761 -0.4719 -6.2246 -2.9655 0.256 -2.35 6.4672 0.4719 6.2246 z" fill="#fff"/>
<path d="m 420.137 199.98 c 2.7603 -0.3485 2.1396 -6.5676 -0.7635 -6.2 -2.9508 0.374 -2.0444 6.5548 0.7635 6.2 z" fill="#fff"/>
<path d="m 434.252 200.071 c 2.7854 0.0528 3.2247 -6.1794 0.2949 -6.2339 -2.9779 -0.0549 -3.1285 6.1805 -0.2949 6.2339 z" fill="#fff"/>
<path d="m 418.514 192.454 c 1.5988 -0.1336 0.9567 -2.1696 -0.3539 -3.7007 -0.8949 1.761 -0.9437 3.8091 0.3539 3.7007 z" fill="#fff" fill-rule="evenodd"/>
<path d="m 435.135 192.308 c -1.5995 -0.0205 -1.1308 -2.1033 0.0441 -3.7281 1.0354 1.6988 1.2541 3.7448 -0.0441 3.7281 z" fill="#fff" fill-rule="evenodd"/>
<path d="m 430.147 188.056 c -1.587 0.1779 -1.3226 -1.957 -0.3145 -3.7229 1.1892 1.5655 1.6024 3.5786 0.3145 3.7229 z" fill="#fff" fill-rule="evenodd"/>
<path d="m 423.802 188.252 c -1.5758 0.2481 -1.4233 -1.896 -0.5086 -3.7047 1.2696 1.5109 1.7875 3.5033 0.5086 3.7047 z" fill="#fff" fill-rule="evenodd"/>
</g>
</svg>
