<svg viewBox="0 0 512 512" xmlns="http://www.w3.org/2000/svg">

<g transform="matrix(18.68858,0,0,18.68858,-1466.77524,-12277.77396)">
<path d="m 98.6414 673.176 c 0 4.1493 -3.3637 7.513 -7.513 7.513 s -7.513 -3.3637 -7.513 -7.513 3.3637 -7.513 7.513 -7.513 7.513 3.3637 7.513 7.513 z" fill="#fff" stroke="#000" stroke-width="1.0032" transform="matrix(1.21811,0,0,.81574,-18.81498,128.60497)"/>
<path d="m 98.6414 673.176 c 0 4.1493 -3.3637 7.513 -7.513 7.513 s -7.513 -3.3637 -7.513 -7.513 3.3637 -7.513 7.513 -7.513 7.513 3.3637 7.513 7.513 z" fill="#fff" stroke="#000" stroke-width=".7847" transform="matrix(1.40819,0,0,1.15325,-36.13722,-103.50347)"/>
<path d="m 83.4655 672.279 c -0.1077 0.4034 -0.1767 0.8032 -0.1767 1.2295 0 3.5826 3.9957 6.4941 8.9056 6.4941 s 8.9056 -2.9115 8.9056 -6.4941 c 0 -0.4263 -0.1043 -0.8261 -0.212 -1.2295 -0.783 3.0001 -4.3551 5.2646 -8.6935 5.2646 s -7.9459 -2.2646 -8.7289 -5.2646 z"/>
<path d="m 98.6414 673.176 c 0 4.1493 -3.3637 7.513 -7.513 7.513 s -7.513 -3.3637 -7.513 -7.513 3.3637 -7.513 7.513 -7.513 7.513 3.3637 7.513 7.513 z" fill="#fff" stroke="#000" stroke-width="1.628" transform="matrix(.76192,0,0,.49523,22.75658,332.27423)"/>
<path d="m 98.6414 673.176 c 0 4.1493 -3.3637 7.513 -7.513 7.513 s -7.513 -3.3637 -7.513 -7.513 3.3637 -7.513 7.513 -7.513 7.513 3.3637 7.513 7.513 z" fill="#fff" stroke="#000" stroke-width="1.6059" transform="matrix(.62399,0,0,.62143,35.38073,243.79523)"/>
</g>
</svg>
