<svg viewBox="0 0 512 512" xmlns="http://www.w3.org/2000/svg">

<g transform="matrix(18.68858,0,0,18.68858,-1466.77524,-12277.77396)">
<path d="m98.6414,673.1762c0,4.1493-3.3637,7.513-7.513,7.513s-7.513-3.3637-7.513-7.513 3.3637-7.513 7.513-7.513 7.513,3.3637 7.513,7.513z" fill="#fff" stroke="#000" stroke-width="1.0032" transform="matrix(1.21811,0,0,.81574,-18.81498,128.60497)"/>
<path d="m98.6414,673.1762c0,4.1493-3.3637,7.513-7.513,7.513s-7.513-3.3637-7.513-7.513 3.3637-7.513 7.513-7.513 7.513,3.3637 7.513,7.513z" fill="#fff" stroke="#000" stroke-width=".7847" transform="matrix(1.40819,0,0,1.15325,-36.13722,-103.50347)"/>
<path d="m83.4655,672.2792c-.1077.4034-.1767.8032-.1767,1.2295 0,3.5826 3.9957,6.4941 8.9056,6.4941s8.9056-2.9115 8.9056-6.4941c0-.4263-.1043-.8261-.212-1.2295-.783,3.0001-4.3551,5.2646-8.6935,5.2646s-7.9459-2.2646-8.7289-5.2646z"/>
<path d="m98.6414,673.1762c0,4.1493-3.3637,7.513-7.513,7.513s-7.513-3.3637-7.513-7.513 3.3637-7.513 7.513-7.513 7.513,3.3637 7.513,7.513z" fill="#fff" stroke="#000" stroke-width="1.628" transform="matrix(.76192,0,0,.49523,22.75658,332.27423)"/>
<path d="m98.6414,673.1762c0,4.1493-3.3637,7.513-7.513,7.513s-7.513-3.3637-7.513-7.513 3.3637-7.513 7.513-7.513 7.513,3.3637 7.513,7.513z" fill="#fff" stroke="#000" stroke-width="1.6059" transform="matrix(.62399,0,0,.62143,35.38073,243.79523)"/>
</g>
</svg>
