<svg viewBox="0 0 512 512" xmlns="http://www.w3.org/2000/svg">

<path d="m -87.4787 176.476 h 176.469 a 30 30 0 0 1 30 30 v 176.469 a 30 30 0 0 1 -30 30 h -176.469 a 30 30 0 0 1 -30 -30 v -176.469 a 30 30 0 0 1 30 -30" fill="#fff" stroke="#000" stroke-width="20.407" transform="matrix(.86561,-.50072,.86561,.50072,0,0)"/>
<path d="m 325.684 413.731 h 169.672 a 30 30 0 0 1 30 30 v 157.698 a 30 30 0 0 1 -30 30 h -169.672 a 30 30 0 0 1 -30 -30 v -157.698 a 30 30 0 0 1 30 -30" fill="#fff" stroke="#000" stroke-width="20.4173" transform="matrix(.86598,-.50007,0,1,0,0)"/>
<path d="m 382.771 320.263 a 23.177 22.4746 0 1 1 -46.3539 0 23.177 22.4746 0 1 1 46.3539 0 z" transform="matrix(.97079,-.56048,0,1.11237,6.41252,162.58695)"/>
<path d="m 382.771 320.263 a 23.177 22.4746 0 1 1 -46.3539 0 23.177 22.4746 0 1 1 46.3539 0 z" transform="matrix(.97079,-.56048,0,1.11237,62.40909,69.25733)"/>
<path d="m 382.771 320.263 a 23.177 22.4746 0 1 1 -46.3539 0 23.177 22.4746 0 1 1 46.3539 0 z" transform="matrix(.97079,-.56048,0,1.11237,-49.59091,256.63026)"/>
<path d="m -265.685 118.004 h 169.672 a 30 30 0 0 1 30 30 v 157.698 a 30 30 0 0 1 -30 30 h -169.672 a 30 30 0 0 1 -30 -30 v -157.698 a 30 30 0 0 1 30 -30" fill="#fff" stroke="#000" stroke-width="20.4173" transform="matrix(-.86598,-.50007,0,1,0,0)"/>
<path d="m 382.771 320.263 a 23.177 22.4746 0 1 1 -46.3539 0 23.177 22.4746 0 1 1 46.3539 0 z" transform="matrix(-.97079,-.56048,0,1.11237,505.70283,162.58704)"/>
<path d="m 8.428 184.011 a 69.882 69.5309 0 1 1 -139.764 0 69.882 69.5309 0 1 1 139.764 0 z" transform="matrix(-.32332,.19184,-.32495,-.19281,296.1458,123.39652)"/>
<path d="m 8.428 184.011 a 69.882 69.5309 0 1 1 -139.764 0 69.882 69.5309 0 1 1 139.764 0 z" transform="matrix(-.32332,.19184,-.32495,-.19281,296.14581,264.29386)"/>
</svg>
