<svg viewBox="0 0 512 512" xmlns="http://www.w3.org/2000/svg">

<path d="m-87.4787,176.4763h176.4686a30,30 0 0,1 30,30v176.4686a30,30 0 0,1 -30,30h-176.4686a30,30 0 0,1 -30-30v-176.4686a30,30 0 0,1 30-30" fill="#fff" stroke="#000" stroke-width="20.407" transform="matrix(.86561,-.50072,.86561,.50072,0,0)"/>
<path d="m325.6843,413.7312h169.6715a30,30 0 0,1 30,30v157.6982a30,30 0 0,1 -30,30h-169.6715a30,30 0 0,1 -30-30v-157.6982a30,30 0 0,1 30-30" fill="#fff" stroke="#000" stroke-width="20.4173" transform="matrix(.86598,-.50007,0,1,0,0)"/>
<path d="m382.7709,320.2634a23.177,22.4746 0 1,1 -46.3539,0 23.177,22.4746 0 1,1 46.3539,0z" transform="matrix(.97079,-.56048,0,1.11237,6.40909,224.29879)"/>
<path d="m382.7709,320.2634a23.177,22.4746 0 1,1 -46.3539,0 23.177,22.4746 0 1,1 46.3539,0z" transform="matrix(.97079,-.56048,0,1.11237,6.40909,101.58879)"/>
<path d="m382.7709,320.2634a23.177,22.4746 0 1,1 -46.3539,0 23.177,22.4746 0 1,1 46.3539,0z" transform="matrix(.97079,-.56048,0,1.11237,62.40909,69.25733)"/>
<path d="m382.7709,320.2634a23.177,22.4746 0 1,1 -46.3539,0 23.177,22.4746 0 1,1 46.3539,0z" transform="matrix(.97079,-.56048,0,1.11237,62.40909,191.96733)"/>
<path d="m382.7709,320.2634a23.177,22.4746 0 1,1 -46.3539,0 23.177,22.4746 0 1,1 46.3539,0z" transform="matrix(.97079,-.56048,0,1.11237,-49.59091,256.63026)"/>
<path d="m382.7709,320.2634a23.177,22.4746 0 1,1 -46.3539,0 23.177,22.4746 0 1,1 46.3539,0z" transform="matrix(.97079,-.56048,0,1.11237,-49.59091,133.92026)"/>
<path d="m-265.6845,118.0035h169.6715a30,30 0 0,1 30,30v157.6982a30,30 0 0,1 -30,30h-169.6715a30,30 0 0,1 -30-30v-157.6982a30,30 0 0,1 30-30" fill="#fff" stroke="#000" stroke-width="20.4173" transform="matrix(-.86598,-.50007,0,1,0,0)"/>
<path d="m382.7709,320.2634a23.177,22.4746 0 1,1 -46.3539,0 23.177,22.4746 0 1,1 46.3539,0z" transform="matrix(-.97079,-.56048,0,1.11237,449.70626,69.25742)"/>
<path d="m382.7709,320.2634a23.177,22.4746 0 1,1 -46.3539,0 23.177,22.4746 0 1,1 46.3539,0z" transform="matrix(-.97079,-.56048,0,1.11237,449.70626,191.96742)"/>
<path d="m382.7709,320.2634a23.177,22.4746 0 1,1 -46.3539,0 23.177,22.4746 0 1,1 46.3539,0z" transform="matrix(-.97079,-.56048,0,1.11237,561.70626,256.63035)"/>
<path d="m382.7709,320.2634a23.177,22.4746 0 1,1 -46.3539,0 23.177,22.4746 0 1,1 46.3539,0z" transform="matrix(-.97079,-.56048,0,1.11237,561.70626,133.92035)"/>
<path d="m8.428,184.011a69.882,69.5309 0 1,1 -139.7641,0 69.882,69.5309 0 1,1 139.7641,0z" transform="matrix(-.32332,-.19184,.32495,-.19281,176.55539,170.26631)"/>
<path d="m8.428,184.011a69.882,69.5309 0 1,1 -139.7641,0 69.882,69.5309 0 1,1 139.7641,0z" transform="matrix(-.32332,.19184,-.32495,-.19281,296.1458,123.39652)"/>
<path d="m8.428,184.011a69.882,69.5309 0 1,1 -139.7641,0 69.882,69.5309 0 1,1 139.7641,0z" transform="matrix(-.32332,.19184,-.32495,-.19281,414.87702,193.84519)"/>
<path d="m8.428,184.011a69.882,69.5309 0 1,1 -139.7641,0 69.882,69.5309 0 1,1 139.7641,0z" transform="matrix(-.32332,.19184,-.32495,-.19281,296.14581,264.29386)"/>
<path d="m8.428,184.011a69.882,69.5309 0 1,1 -139.7641,0 69.882,69.5309 0 1,1 139.7641,0z" transform="matrix(-.32332,.19184,-.32495,-.19281,176.97455,193.58409)"/>
</svg>
