<svg viewBox="0 0 512 512" xmlns="http://www.w3.org/2000/svg">

<path d="m-87.4787,176.4763h176.4686a30,30 0 0,1 30,30v176.4686a30,30 0 0,1 -30,30h-176.4686a30,30 0 0,1 -30-30v-176.4686a30,30 0 0,1 30-30" fill="#fff" stroke="#000" stroke-width="20.407" transform="matrix(.86561,-.50072,.86561,.50072,0,0)"/>
<path d="m325.6843,413.7312h169.6715a30,30 0 0,1 30,30v157.6982a30,30 0 0,1 -30,30h-169.6715a30,30 0 0,1 -30-30v-157.6982a30,30 0 0,1 30-30" fill="#fff" stroke="#000" stroke-width="20.4173" transform="matrix(.86598,-.50007,0,1,0,0)"/>
<path d="m-265.6845,118.0035h169.6715a30,30 0 0,1 30,30v157.6982a30,30 0 0,1 -30,30h-169.6715a30,30 0 0,1 -30-30v-157.6982a30,30 0 0,1 30-30" fill="#fff" stroke="#000" stroke-width="20.4173" transform="matrix(-.86598,-.50007,0,1,0,0)"/>
<g font-family="Sans" font-size="300" font-weight="bold" letter-spacing="0" transform="matrix(.33274,-.19211,0,.35362,274.52818,232.08727)" word-spacing="0">
<path d="m289.8145,451.2965h-88.1348v-11.9629c-9e-05-13.3462 2.6855-25.1463 8.0566-35.4004 5.371-10.4165 16.6828-23.6001 33.9355-39.5508l15.625-14.1601c9.2772-8.4633 16.0317-16.4386 20.2637-23.9258 4.3944-7.4867 6.5916-14.9737 6.5918-22.4609-.0002-11.393-3.9064-20.2634-11.7188-26.6113-7.8126-6.5101-18.7176-9.7653-32.7148-9.7656-13.1837.0003-27.4252,2.7672-42.7246,8.3008-15.2995,5.3714-31.2501,13.428-47.8516,24.1699v-76.6602c19.694-6.8356 37.679-11.8811 53.9551-15.1367 16.2759-3.2548 31.9823-4.8824 47.1191-4.8828 39.7134.0004 69.9868,8.1384 90.8203,24.4141 20.8331,16.1136 31.2497,39.7139 31.25,70.8008-.0003,15.9508-3.1741,30.2737-9.5215,42.9688-6.3479,12.5328-17.1715,26.0419-32.4707,40.5273l-15.625,13.916c-11.0679,10.0913-18.3107,18.2293-21.7285,24.4141-3.4181,6.0223-5.1271,12.6954-5.127,20.0195v10.9863m-88.1348,36.1328h88.1348v86.9141h-88.1348v-86.9141"/>
</g>
<g font-family="Sans" font-size="300" font-weight="bold" letter-spacing="0" transform="matrix(.3771,-.21127,.30853,.17285,46.01703,131.55158)" word-spacing="0">
<path d="m289.8145,451.2965h-88.1348v-11.9629c-9e-05-13.3462 2.6855-25.1463 8.0566-35.4004 5.371-10.4165 16.6828-23.6001 33.9355-39.5508l15.625-14.1601c9.2772-8.4633 16.0317-16.4386 20.2637-23.9258 4.3944-7.4867 6.5916-14.9737 6.5918-22.4609-.0002-11.393-3.9064-20.2634-11.7188-26.6113-7.8126-6.5101-18.7176-9.7653-32.7148-9.7656-13.1837.0003-27.4252,2.7672-42.7246,8.3008-15.2995,5.3714-31.2501,13.428-47.8516,24.1699v-76.6602c19.694-6.8356 37.679-11.8811 53.9551-15.1367 16.2759-3.2548 31.9823-4.8824 47.1191-4.8828 39.7134.0004 69.9868,8.1384 90.8203,24.4141 20.8331,16.1136 31.2497,39.7139 31.25,70.8008-.0003,15.9508-3.1741,30.2737-9.5215,42.9688-6.3479,12.5328-17.1715,26.0419-32.4707,40.5273l-15.625,13.916c-11.0679,10.0913-18.3107,18.2293-21.7285,24.4141-3.4181,6.0223-5.1271,12.6954-5.127,20.0195v10.9863m-88.1348,36.1328h88.1348v86.9141h-88.1348v-86.9141"/>
</g>
<g font-family="Sans" font-size="300" font-weight="bold" letter-spacing="0" transform="matrix(.33274,.19211,0,.35362,64.60773,129.6055)" word-spacing="0">
<path d="m289.8145,451.2965h-88.1348v-11.9629c-9e-05-13.3462 2.6855-25.1463 8.0566-35.4004 5.371-10.4165 16.6828-23.6001 33.9355-39.5508l15.625-14.1601c9.2772-8.4633 16.0317-16.4386 20.2637-23.9258 4.3944-7.4867 6.5916-14.9737 6.5918-22.4609-.0002-11.393-3.9064-20.2634-11.7188-26.6113-7.8126-6.5101-18.7176-9.7653-32.7148-9.7656-13.1837.0003-27.4252,2.7672-42.7246,8.3008-15.2995,5.3714-31.2501,13.428-47.8516,24.1699v-76.6602c19.694-6.8356 37.679-11.8811 53.9551-15.1367 16.2759-3.2548 31.9823-4.8824 47.1191-4.8828 39.7134.0004 69.9868,8.1384 90.8203,24.4141 20.8331,16.1136 31.2497,39.7139 31.25,70.8008-.0003,15.9508-3.1741,30.2737-9.5215,42.9688-6.3479,12.5328-17.1715,26.0419-32.4707,40.5273l-15.625,13.916c-11.0679,10.0913-18.3107,18.2293-21.7285,24.4141-3.4181,6.0223-5.1271,12.6954-5.127,20.0195v10.9863m-88.1348,36.1328h88.1348v86.9141h-88.1348v-86.9141"/>
</g>
</svg>
