<svg viewBox="0 0 512 512" xmlns="http://www.w3.org/2000/svg">

<g transform="matrix(18.68858,0,0,18.68858,-11121.69568,-35398.75239)">
<path d="m 596.62 1909.23 c 7.7314 -1.9964 15.4628 -3.5678 23.1943 -4.1531 v 7.5507 l -23.1943 5.4408 z" stroke="#fff"/>
<path d="m 596.104 1908.75 0.0571 1.4017 24.2092 -4.8989 0.0346 -0.9187 -12.7063 -5.0012 z" fill="#fff"/>
<path d="m 620.026 1904.65 0.2412 8.3618 1.089 -8.6603" fill="#fff"/>
<path d="m 607.573 1899.44 c -0.0489 -1.8728 2.7077 -1.341 2.9504 0.014 0.687 -1.0981 3.3966 -0.1291 3.1487 1.0886 0.777 -1.0984 2.9524 0.1608 2.7778 1.1348 0.6981 -0.5825 3.0381 -0.1424 2.7839 0.923 2.117 -0.4158 2.8755 2.044 1.5395 2.6395" fill="#fff"/>
<path d="m 604.917 1916.07 1.8289 -0.06 0.2099 1.3492 -1.589 0.18 z" fill="#fff"/>
<path d="m 611.146 1917.38 0.054 1.0589 -1.1692 -0.087 -0.5974 -0.6923 z" fill="#fff"/>
<path d="m 615.206 1917.11 -1.3352 0.2373 -0.7801 -1.1396 1.4146 -0.1642 z" fill="#fff"/>
<path d="m 603.847 1919.92 -1.2023 -0.1557 0.087 -0.799 1.5665 0.1367 z" fill="#fff"/>
<path d="m 612.072 1914.9 0.054 1.0589 -1.1692 -0.087 -0.5974 -0.6923 z" fill="#fff"/>
<path d="m 608.478 1919.21 -1.3013 0.1685 0.0941 0.8648 1.6954 -0.1479 z" fill="#fff"/>
<path d="m 607.871 1900.67 c 0.459 0.552 1.4959 0.6977 2.1038 0.54 0.3318 1.2311 1.7952 1.284 2.8245 0.8742 0.2114 1.0331 2.0156 1.6318 2.8874 1.0888 0.1938 0.9083 1.1427 1.3589 2.0854 1.2459" fill="none" stroke="#000"/>
<path d="m 596.441 1910.24 c 7.7258 -2.0283 15.4515 -3.6783 23.1773 -4.2833" fill="none" stroke="#fff"/>
<path d="m 618.527 1912.93 c 1.9278 -0.2834 1.6007 -7.266 -0.2656 -6.8287" fill="none" stroke="#fff"/>
</g>
</svg>
