<svg viewBox="0 0 512 512" xmlns="http://www.w3.org/2000/svg">

<g transform="matrix(18.68858,0,0,18.68858,-11121.69568,-35398.75239)">
<path d="m596.6196,1909.2262c7.7314-1.9964 15.4628-3.5678 23.1943-4.1531v7.5507l-23.1943,5.4408z" stroke="#fff"/>
<path d="m596.1044,1908.7464 .0571,1.4017 24.2092-4.8989 .0346-.9187-12.7063-5.0012z" fill="#fff"/>
<path d="m620.0259,1904.6467 .2412,8.3618 1.089-8.6603" fill="#fff"/>
<path d="m607.573,1899.4408c-.0489-1.8728 2.7077-1.341 2.9504.014 .687-1.0981 3.3966-.1291 3.1487,1.0886 .777-1.0984 2.9524.1608 2.7778,1.1348 .6981-.5825 3.0381-.1424 2.7839.923 2.117-.4158 2.8755,2.044 1.5395,2.6395" fill="#fff"/>
<path d="m604.9174,1916.0726 1.8289-.06 .2099,1.3492-1.589.18z" fill="#fff"/>
<path d="m611.1464,1917.3829 .054,1.0589-1.1692-.087-.5974-.6923z" fill="#fff"/>
<path d="m615.2055,1917.1102-1.3352.2373-.7801-1.1396 1.4146-.1642z" fill="#fff"/>
<path d="m603.8472,1919.9151-1.2023-.1557 .087-.799 1.5665.1367z" fill="#fff"/>
<path d="m612.0724,1914.9026 .054,1.0589-1.1692-.087-.5974-.6923z" fill="#fff"/>
<path d="m608.4784,1919.2139-1.3013.1685 .0941.8648 1.6954-.1479z" fill="#fff"/>
<path d="m607.8712,1900.6707c.459.552 1.4959.6977 2.1038.54 .3318,1.2311 1.7952,1.284 2.8245.8742 .2114,1.0331 2.0156,1.6318 2.8874,1.0888 .1938.9083 1.1427,1.3589 2.0854,1.2459" fill="none" stroke="#000"/>
<path d="m596.4405,1910.2406c7.7258-2.0283 15.4515-3.6783 23.1773-4.2833" fill="none" stroke="#fff"/>
<path d="m618.5271,1912.9282c1.9278-.2834 1.6007-7.266-.2656-6.8287" fill="none" stroke="#fff"/>
</g>
</svg>
