<svg viewBox="0 0 512 512" xmlns="http://www.w3.org/2000/svg">

<g transform="matrix(18.68858,0,0,18.68858,5785.16488,-8596.9796)">
<path d="m-297.0399,470.4779v2.4062l11.2812,6.4176c1.2262.7583 2.0839-1.3072 1.1562-1.7771l-12.4375-7.0467z" fill="#fff" stroke="#000"/>
<path d="m-296.6446,460.6664c-1.6658.2146-2.9663,2.0102-2.9663,4.1775 2e-05,1.2003.415,2.2721 1.0541,3.0359-3.4643.6459-3.7263,6.4309-3.7263,10.4922h2.4024l.6374,8.4764h6.1042l.5638-8.4764h2.2799c0-4.0726.0825-9.9594-3.7018-10.5408 .6117-.7602 1.0051-1.8167 1.0051-2.9874-2e-05-2.3117-1.4853-4.1775-3.3095-4.1775-.114,0-.2322-.0143-.3432,0z" fill="#fff" fill-rule="evenodd" stroke="#000"/>
<path d="m454.2529,480.3025-6.4394-1.7254 4.714-4.714z" fill="#fff" transform="matrix(-.09272,.7015,-.93045,-.3137,199.61288,310.63112)"/>
<path d="m-308.943,463.7361v2.3125l11,6.3245c2.4685,1.5739 2.9813-.6378 1.0938-1.6658l-12.0938-6.9712z" fill="#fff" stroke="#000"/>
</g>
</svg>
