<svg viewBox="0 0 512 512" xmlns="http://www.w3.org/2000/svg">

<g transform="matrix(18.68858,0,0,18.68858,-3631.91321,-21126.75175)">
<path d="m-411.5776,1077.2146h23.39v2.4641h-23.39z" fill="#fff" stroke="#000" stroke-width="1.0001" transform="matrix(.85026,-.52637,.50917,.86067,0,0)"/>
<path d="m207.2213,1156.861c.7679,0 1.4975-.5914 1.4975-1.2557 0-1.3381-1.3253-2.0693-1.4975-4.4716-.2156,2.4062-1.5275,3.0461-1.5275,4.4399 0,.6995.7764,1.2874 1.5275,1.2874z" fill="#fff" fill-rule="evenodd"/>
<path d="m214.2454,1137.9561c.1352,4.3293-5.5023,5.425-7.2467,9.7467-1.6514-4.3212-7.1387-5.6777-7.268-9.7467-.1379-4.3377 5.2349-5.1704 7.268-1.6499 2.0368-3.8431 7.1198-2.4113 7.2467,1.6499z" fill="#fff" stroke="#000"/>
<path d="m212.3771,1141.1534c-1.6535,2.544-.0418,3.6831-.0418,4.7464 0,.5335-.4683.9256-.9212.9256-.4631,0-.9031-.3667-.9031-.8731 0-1.0208 1.2953-2.3721.1536-3.5978" fill="#fff" fill-rule="evenodd"/>
<path d="m203.1444,1142.6312c1.8698,4.4594-.889,6.5174-.889,8.6708 0,1.0804.9484,1.8746 1.8657,1.8746 .9379,0 1.829-.7425 1.829-1.7685 0-2.0671-2.4494-4.4775-.7752-7.6203" fill="#fff" fill-rule="evenodd"/>
<path d="m220.6684,1131.6121-4.3587,6.1188 .1427-3.5102-3.2048-1.4391 7.4208-1.1695z" fill="#fff"/>
<path d="m202.9062,1141.0108-8,4.9587v2.875l9.25-5.7297c1.4151-.876.4124-3.1332-1.25-2.104z" fill="#fff" stroke="#000"/>
<path d="m210.6155,1142.6589c-2.3432,3.6051-.0592,5.5957-.0592,7.1025 0,.7561-.6636,1.3117-1.3055,1.3117-.6563,0-1.2798-.5196-1.2798-1.2373 0-1.4465 1.8355-3.3615.2177-5.0984" fill="#fff" fill-rule="evenodd"/>
<path d="m211.5747,1153.9203c-.5015,0-.978-.3863-.978-.8201 0-.8739.8655-1.3514.978-2.9203 .1408,1.5714.9976,1.9894.9976,2.8996 0,.4568-.5071.8408-.9976.8408z" fill="#fff" fill-rule="evenodd"/>
</g>
</svg>
