<svg viewBox="0 0 512 512" xmlns="http://www.w3.org/2000/svg">

<g transform="matrix(18.68858,0,0,18.68858,5785.16488,-8596.9796)">
<path d="m -297.04 470.478 v 2.4062 l 11.2812 6.4176 c 1.2262 0.7583 2.0839 -1.3072 1.1562 -1.7771 l -12.4375 -7.0467 z" fill="#fff" stroke="#000"/>
<path d="m -296.645 460.666 c -1.6658 0.2146 -2.9663 2.0102 -2.9663 4.1775 2e-05 1.2003 0.415 2.2721 1.0541 3.0359 -3.4643 0.6459 -3.7263 6.4309 -3.7263 10.4922 h 2.4024 l 0.6374 8.4764 h 6.1042 l 0.5638 -8.4764 h 2.2799 c 0 -4.0726 0.0825 -9.9594 -3.7018 -10.5408 0.6117 -0.7602 1.0051 -1.8167 1.0051 -2.9874 -2e-05 -2.3117 -1.4853 -4.1775 -3.3095 -4.1775 -0.114 0 -0.2322 -0.0143 -0.3432 0 z" fill="#fff" fill-rule="evenodd" stroke="#000"/>
<path d="m 454.253 480.303 -6.4394 -1.7254 4.714 -4.714 z" fill="#fff" transform="matrix(-.09272,.7015,-.93045,-.3137,199.61288,310.63112)"/>
<path d="m -308.943 463.736 v 2.3125 l 11 6.3245 c 2.4685 1.5739 2.9813 -0.6378 1.0938 -1.6658 l -12.0938 -6.9712 z" fill="#fff" stroke="#000"/>
</g>
</svg>
