<svg viewBox="0 0 512 512" xmlns="http://www.w3.org/2000/svg">

<g transform="matrix(18.68858,0,0,18.68858,-3631.91321,-21126.75175)">
<path d="m -411.578 1077.21 h 23.39 v 2.4641 h -23.39 z" fill="#fff" stroke="#000" stroke-width="1.0001" transform="matrix(.85026,-.52637,.50917,.86067,0,0)"/>
<path d="m 207.221 1156.86 c 0.7679 0 1.4975 -0.5914 1.4975 -1.2557 0 -1.3381 -1.3253 -2.0693 -1.4975 -4.4716 -0.2156 2.4062 -1.5275 3.0461 -1.5275 4.4399 0 0.6995 0.7764 1.2874 1.5275 1.2874 z" fill="#fff" fill-rule="evenodd"/>
<path d="m 214.245 1137.96 c 0.1352 4.3293 -5.5023 5.425 -7.2467 9.7467 -1.6514 -4.3212 -7.1387 -5.6777 -7.268 -9.7467 -0.1379 -4.3377 5.2349 -5.1704 7.268 -1.6499 2.0368 -3.8431 7.1198 -2.4113 7.2467 1.6499 z" fill="#fff" stroke="#000"/>
<path d="m 212.377 1141.15 c -1.6535 2.544 -0.0418 3.6831 -0.0418 4.7464 0 0.5335 -0.4683 0.9256 -0.9212 0.9256 -0.4631 0 -0.9031 -0.3667 -0.9031 -0.8731 0 -1.0208 1.2953 -2.3721 0.1536 -3.5978" fill="#fff" fill-rule="evenodd"/>
<path d="m 203.144 1142.63 c 1.8698 4.4594 -0.889 6.5174 -0.889 8.6708 0 1.0804 0.9484 1.8746 1.8657 1.8746 0.9379 0 1.829 -0.7425 1.829 -1.7685 0 -2.0671 -2.4494 -4.4775 -0.7752 -7.6203" fill="#fff" fill-rule="evenodd"/>
<path d="m 220.668 1131.61 -4.3587 6.1188 0.1427 -3.5102 -3.2048 -1.4391 7.4208 -1.1695 z" fill="#fff"/>
<path d="m 202.906 1141.01 -8 4.9587 v 2.875 l 9.25 -5.7297 c 1.4151 -0.876 0.4124 -3.1332 -1.25 -2.104 z" fill="#fff" stroke="#000"/>
<path d="m 210.615 1142.66 c -2.3432 3.6051 -0.0592 5.5957 -0.0592 7.1025 0 0.7561 -0.6636 1.3117 -1.3055 1.3117 -0.6563 0 -1.2798 -0.5196 -1.2798 -1.2373 0 -1.4465 1.8355 -3.3615 0.2177 -5.0984" fill="#fff" fill-rule="evenodd"/>
<path d="m 211.575 1153.92 c -0.5015 0 -0.978 -0.3863 -0.978 -0.8201 0 -0.8739 0.8655 -1.3514 0.978 -2.9203 0.1408 1.5714 0.9976 1.9894 0.9976 2.8996 0 0.4568 -0.5071 0.8408 -0.9976 0.8408 z" fill="#fff" fill-rule="evenodd"/>
</g>
</svg>
