<svg viewBox="0 0 512 512" xmlns="http://www.w3.org/2000/svg">

<g transform="matrix(18.68858,0,0,18.68858,-9765.41731,-40152.4091)">
<g stroke="#fff" stroke-width=".6362" transform="matrix(1.36129,.78594,-.78594,1.36129,844.15624,-1241.35345)">
<path d="m 910.198 1968.7 c -0.8766 0 -1.6257 -0.01 -4.1813 -0.01 -1.4031 0 -2.5418 1.1388 -2.5418 2.5419 s 1.1388 2.5482 2.5419 2.5418 l 4.28 -0.01" fill="none" stroke="#fff" stroke-width=".6362"/>
</g>
<path d="m 425.043 2171.49 c 0 1.3622 -0.7764 2.4664 -1.7342 2.4664 s -1.7342 -1.1042 -1.7342 -2.4664 0.7764 -2.4665 1.7342 -2.4665 1.7342 1.1043 1.7342 2.4665 z" stroke="#fff" stroke-width=".705" transform="matrix(1.07955,.62328,-.80692,1.39763,1829.29306,-1141.2665)"/>
<g fill="#fff">
<g fill="#fff" stroke="#fff" stroke-width=".6362" transform="matrix(-1.36129,.78594,.78594,1.36129,228.31396,-1239.99229)">
<path d="m 910.198 1968.7 c -0.8766 0 -1.6257 -0.01 -4.1813 -0.01 -1.4031 0 -2.5418 1.1388 -2.5418 2.5419 s 1.1388 2.5482 2.5419 2.5418 l 4.28 -0.01" fill="#fff" stroke="#fff" stroke-width=".6362"/>
</g>
<path d="m 425.043 2171.49 c 0 1.3622 -0.7764 2.4664 -1.7342 2.4664 s -1.7342 -1.1042 -1.7342 -2.4664 0.7764 -2.4665 1.7342 -2.4665 1.7342 1.1043 1.7342 2.4665 z" fill="#fff" stroke="#fff" stroke-width=".705" transform="matrix(-1.07955,.62328,.80692,1.39763,-756.82286,-1139.90534)"/>
</g>
<path d="m 535.845 2162.05 c -0.7568 6.2729 -3.5498 5.4526 -3.6058 9.4047 -0.0243 1.7913 1.6535 3.2706 3.7345 3.2706 s 3.7989 -1.4787 3.7989 -3.2706 c 0 -3.9721 -3.0926 -3.1559 -3.9277 -9.4047 z" fill="#fff" fill-rule="evenodd"/>
<path d="m 538.207 2169.32 c 0 0.7224 -0.5856 1.3081 -1.308 1.3081 s -1.308 -0.5857 -1.308 -1.3081 0.5856 -1.308 1.308 -1.308 1.308 0.5856 1.308 1.308 z" stroke="#fff" stroke-width=".4549" transform="matrix(-2.19793,0,0,-2.19872,1715.8037,6940.8427)"/>
<path d="m 538.207 2169.32 c 0 0.7224 -0.5856 1.3081 -1.308 1.3081 s -1.308 -0.5857 -1.308 -1.3081 0.5856 -1.308 1.308 -1.308 1.308 0.5856 1.308 1.308 z" fill="#fff" transform="matrix(-1.84743,0,0,-1.8481,1528.7052,6179.3787)"/>
</g>
</svg>
