<svg viewBox="0 0 512 512" xmlns="http://www.w3.org/2000/svg">

<g transform="matrix(18.68858,0,0,18.68858,712.88948,-9854.73343)">
<path d="m-33.7248,540.0792c-2.4037,1.3877-3.2282,4.4648-1.8404,6.8685s4.4712,3.239 6.8685,1.8404c8.1014-4.7264 5.5893-3.2345 13.5682-7.8336 2.4047-1.386 3.2282-4.4648 1.8404-6.8685s-4.472-3.2404-6.8685-1.8404c-7.952,4.6453-5.4457,3.1441-13.5682,7.8335z" fill="none" stroke="#fff"/>
<path d="m-27.0882,536.2201 7.3933-4.2685c4.9745-2.872 9.9314,5.5321 4.8783,8.4495l-7.3933,4.2685c2.8927-1.6701-2.4721-9.8609-4.8783-8.4495z" fill="#fff"/>
<path d="m-31.9284,540.4041c.3362-.691.872-1.278 1.5875-1.6881 6.331-3.6284 4.2884-2.4947 10.7171-6.2227 1.9024-1.1033 4.3641-.4751 5.4577,1.4273 .0973.1693.1497.3716.2197.5482-1.224-1.3836-3.3103-1.7692-4.9749-.8039-6.4287,3.728-4.4027,2.6231-10.7337,6.2515-1.6695.9568-2.3803,2.949-1.7984,4.7072-.1192-.151-.2448-.2946-.3435-.4665-.6834-1.189-.6918-2.6013-.1314-3.753z"/>
<path d="m-16.6307,539.284c-.3362.691-.872,1.278-1.5875,1.6881-6.331,3.6284-4.2884,2.4947-10.7171,6.2227-1.9024,1.1033-4.3641.4751-5.4577-1.4273-.0973-.1693-.1497-.3716-.2197-.5482 1.224,1.3836 3.3103,1.7692 4.9749.8039 6.4287-3.728 4.4027-2.6231 10.7337-6.2515 1.6695-.9568 2.3803-2.949 1.7984-4.7072 .1192.151.2448.2946.3435.4665 .6834,1.189.6918,2.6013.1314,3.753z" fill="#fff"/>
</g>
</svg>
