<svg viewBox="0 0 512 512" xmlns="http://www.w3.org/2000/svg">

<g transform="matrix(18.68858,0,0,18.68858,2604.05791,-15526.17362)">
<path d="m -121.844 831.375 c -1.5003 0.0459 -2.9953 0.6957 -4.1645 1.8614 -2.4449 2.4375 -2.6138 6.1031 -0.5048 9.7488 -0.9988 3.9018 -5.1975 9.8452 -9.56 14.6705 h 5.5537 c 3.7993 -4.4942 6.1798 -10.1408 7.6976 -14.7336 -2.2336 -2.1497 -2.6341 -4.7721 -0.631 -7.1617 1.6315 -1.9462 4.7622 -1.7734 6.8462 -1.262 -1.3416 -2.2184 -3.3082 -3.1824 -5.2372 -3.1234 z" fill="#fff" stroke="#000"/>
<path d="m -115.566 835.54 c 0.5131 2.0773 0.659 5.1885 -1.2935 6.8147 -2.3974 1.9967 -5.0051 1.5954 -7.1617 -0.631 -4.6078 1.5129 -10.288 3.6581 -14.7967 7.4451 v 5.7431 c 4.841 -4.3484 10.8191 -8.5013 14.7336 -9.4969 3.6576 2.1022 7.335 1.9007 9.7803 -0.5363 2.6731 -2.664 2.6947 -6.9614 -1.262 -9.3386 z" fill="#fff" stroke="#000"/>
<path d="m 277.981 844.241 c 0 0.6407 -0.5194 1.1601 -1.1601 1.1601 s -1.1601 -0.5194 -1.1601 -1.1601 0.5194 -1.1601 1.1601 -1.1601 1.1601 0.5194 1.1601 1.1601 z" fill="#fff" stroke="#000" stroke-width=".6856" transform="matrix(1.45866,0,0,1.45866,-528.54787,-387.67636)"/>
</g>
</svg>
