<svg viewBox="0 0 512 512" xmlns="http://www.w3.org/2000/svg">

<g transform="matrix(18.68858,0,0,18.68858,-5676.23406,-32000.63032)">
<path d="m 314.68 1739.2 h 3.9621 l -0.6243 -6.5091 h -2.3944 z" fill="#fff" stroke="#000"/>
<path d="m 317.066 1713.34 c 0.6167 1.8571 1.7517 3.7076 4.075 5.5435 l -1.3735 0.4633 2.4983 3.3616 -2.0166 -0.9146 c 0.6006 1.9489 1.2697 2.9195 3.7483 4.8683 l -1.5217 1.0911 2.3433 2.6409 -1.5561 -0.016 2.4538 4.2433 -3.0181 1.1101 -2.3685 -1.1215 -0.5458 1.3264 -3.596 -1.5434 -3.8775 1.4746 -0.6435 -1.717 -3.4 0.4338 2.7658 -4.472 -1.9316 -0.01 3.4912 -4.9307 -0.8839 -0.5267 1.7979 -2.9374 -1.3269 0.4239 2.7471 -3.4809 -2.0181 0.211 c 1.7455 -1.6361 3.1876 -3.4408 4.1569 -5.5081 z" fill="#fff"/>
<path d="m 316.702 1723.28 0.1862 1.5431 1.5431 -3.2458 2.3412 3.0861 -0.1463 -2.2747 3.0142 1.1041" fill="none" stroke="#000"/>
<path d="m 325.468 1731 -3.1926 -0.5853 0.6917 1.7559 -3.4054 -1.3303 v 1.756 l -4.0439 -2.4477 -1.4324 1.4091 0.1136 -1.3198" fill="none" stroke="#000"/>
<path d="m 321.299 1720.28 -3.9109 -2.022 -0.6917 1.5697 -0.3991 -1.1706" fill="none" stroke="#000"/>
<path d="m 324.571 1726.74 -3.1394 1.8623 -1.9422 -2.2348 0.3193 1.8357" fill="none" stroke="#000"/>
</g>
</svg>
