<svg viewBox="0 0 512 512" xmlns="http://www.w3.org/2000/svg">

<g transform="matrix(18.68858,0,0,18.68858,-4994.56174,-7720.11635)">
<path d="m 269.642 426.152 c 6.7748 2.8841 6.6697 7.9322 3.9984 11.4833 2.4613 3.0582 11.5714 3.2831 14.8924 0.0361 -2.9125 -3.9397 -2.9842 -8.4663 3.7208 -11.5194 0 -6.393 -3.1082 -12.5321 -11.3058 -12.5321 -8.2675 0 -11.3058 6.4798 -11.3058 12.5321 z" fill="#fff" stroke="#000"/>
<path d="m 275.359 422.516 c 0.3055 1.1218 1.6968 1.9738 3.3749 1.9738 0.3729 0 0.7143 -0.0499 1.0507 -0.1273 0.002 0.0319 0 0.0633 0 0.0955 0 1.3108 -1.2658 2.3876 -2.8337 2.3876 s -2.8337 -1.0769 -2.8337 -2.3876 c 0 -0.8192 0.4862 -1.5151 1.2417 -1.9419 z"/>
<path d="m 287.623 430.894 c -3.1464 2.9614 -9.1786 3.1823 -12.7405 0.4717" fill="none" stroke="#000"/>
<path d="m 281.16 426.481 c 0.7812 1.5568 1.274 3.1135 1.6838 4.6703 -1.1225 -0.4026 -2.245 -0.3552 -3.3676 0 0.3032 -1.5568 0.914 -3.1135 1.6838 -4.6703 z" fill-rule="evenodd"/>
<path d="m 290.795 419.492 c -1.9596 6.5235 -12.8895 5.1878 -18.2755 -4.045" fill="none" stroke="#000"/>
<path d="m 282.437 423.481 c 2.3497 0.5846 4.1395 0.5443 5.3575 -0.3 1.3797 3.3918 -5.0746 7.8251 -5.3575 0.3 z" fill-rule="evenodd" stroke="#000"/>
<path d="m 287.623 434.332 c -3.1464 2.9614 -9.1786 3.1823 -12.7405 0.4717" fill="none" stroke="#000"/>
<path d="m 283.987 432.713 v 3.4035" fill="none" stroke="#000"/>
<path d="m 278.404 435.957 2.4236 0.559 -0.1211 -3.023 -2.3025 -0.4619 v 2.926 z" fill-rule="evenodd"/>
<path d="m 280.993 433.11 v 3.1488" fill="none" stroke="#000"/>
<path d="m 277.998 432.713 v 3.4035" fill="none" stroke="#000"/>
</g>
</svg>
