<svg viewBox="0 0 512 512" xmlns="http://www.w3.org/2000/svg">

<g transform="matrix(18.68858,0,0,18.68858,-4994.56174,-7720.11635)">
<path d="m269.6418,426.1522c6.7748,2.8841 6.6697,7.9322 3.9984,11.4833 2.4613,3.0582 11.5714,3.2831 14.8924.0361-2.9125-3.9397-2.9842-8.4663 3.7208-11.5194 0-6.393-3.1082-12.5321-11.3058-12.5321-8.2675,0-11.3058,6.4798-11.3058,12.5321z" fill="#fff" stroke="#000"/>
<path d="m275.3588,422.5156c.3055,1.1218 1.6968,1.9738 3.3749,1.9738 .3729,0 .7143-.0499 1.0507-.1273 .002.0319 0,.0633 0,.0955 0,1.3108-1.2658,2.3876-2.8337,2.3876s-2.8337-1.0769-2.8337-2.3876c0-.8192.4862-1.5151 1.2417-1.9419z"/>
<path d="m287.623,430.894c-3.1464,2.9614-9.1786,3.1823-12.7405.4717" fill="none" stroke="#000"/>
<path d="m281.1603,426.4809c.7812,1.5568 1.274,3.1135 1.6838,4.6703-1.1225-.4026-2.245-.3552-3.3676,0 .3032-1.5568.914-3.1135 1.6838-4.6703z" fill-rule="evenodd"/>
<path d="m290.7951,419.492c-1.9596,6.5235-12.8895,5.1878-18.2755-4.045" fill="none" stroke="#000"/>
<path d="m282.4368,423.4813c2.3497.5846 4.1395.5443 5.3575-.3 1.3797,3.3918-5.0746,7.8251-5.3575.3z" fill-rule="evenodd" stroke="#000"/>
<path d="m287.623,434.3318c-3.1464,2.9614-9.1786,3.1823-12.7405.4717" fill="none" stroke="#000"/>
<path d="m283.9869,432.7131v3.4035" fill="none" stroke="#000"/>
<path d="m278.4036,435.9565 2.4236.559-.1211-3.023-2.3025-.4619v2.926z" fill-rule="evenodd"/>
<path d="m280.9926,433.1103v3.1488" fill="none" stroke="#000"/>
<path d="m277.9984,432.7131v3.4035" fill="none" stroke="#000"/>
</g>
</svg>
