<svg viewBox="0 0 512 512" xmlns="http://www.w3.org/2000/svg">

<g transform="matrix(18.68858,0,0,18.68858,-2277.04461,-46958.57102)">
<path d="m128.0832,2518.0464c3.2155-6.1183 13.8831-5.5965 15.6695,0l-2.1361,20.8558h-15.6695z" fill="#fff"/>
<path d="m138.1098,2538.3983h6.5216l1.6058-17.7329-4.007-4.2034" fill="none" stroke="#fff"/>
<path d="m139.8952,2521.22c0,1.5628-1.6892,2.8297-3.773,2.8297s-3.773-1.2669-3.773-2.8297 1.6892-2.8298 3.773-2.8298 3.773,1.2669 3.773,2.8298z" transform="matrix(1.37189,-.10033,.16857,1.35417,-476.11314,-881.16583)"/>
<path d="m132.4338,2521.6016-1.3394,3.4705 2.4353-.9399 1.2176,2.0552 1.4611-1.6242 2.1106.9546-.7306-3.7993"/>
<path d="m133.6929,2519.9451c0,.5648-.4579,1.0227-1.0227,1.0227s-1.0227-.4579-1.0227-1.0227 .4579-1.0227 1.0227-1.0227 1.0227.4578 1.0227,1.0227z" fill="#fff" transform="matrix(1.08232,0,0,1.08232,-10.73538,-208.02915)"/>
<path d="m133.6929,2519.9451c0,.5648-.4579,1.0227-1.0227,1.0227s-1.0227-.4579-1.0227-1.0227 .4579-1.0227 1.0227-1.0227 1.0227.4578 1.0227,1.0227z" fill="#fff" transform="matrix(1.38035,0,0,1.38035,-45.22198,-958.85878)"/>
<path d="m133.9448,2522.4689 1.1738-1.6671 .7833,1.8915z" fill="#fff"/>
<path d="m127.3165,2531.8972c4.375-.8397 10.2423-4.6169 13.2007-7.1548 1.1083.7593 1.8955,1.9027 1.5841,3.5135-3.5722,1.0218-9.8813,4.141-13.4536,6.516-.9648-.5415-1.4313-1.4815-1.3313-2.8747z" stroke="#fff"/>
<path d="m141.7252,2532.2926c-3.9385-1.1584-9.4963-4.6955-12.3529-7.9223-1.1094.6908-1.8212,2.1869-1.6244,3.8134 3.566.7137 9.1851,4.3753 12.3294,7.2807 .9582-.4821 1.656-1.7753 1.6479-3.1718z" stroke="#fff"/>
<path d="m143.798,2521.3568-2.5233.5887 2.4275,1.0091"/>
<path d="m142.4006,2522.4075 2.2636.8429-2.0492.9603" fill="#fff"/>
</g>
</svg>
