<svg viewBox="0 0 512 512" xmlns="http://www.w3.org/2000/svg">

<g transform="matrix(4.81223,0,0,4.81223,-2290.2893,-1441.26992)">
<path d="m534.328,345.48c1.434-16.519 8.323-30.891 18.272-40.009h18.234c-9.949,9.118-15.68,23.49-16.849,40.009h14.688v16.51h-14.349c1.742,15.208 7.503,28.316 16.934,36.746h-18.234c-9.432-8.43-16.189-21.539-18.286-36.746h-12.03c-2.097,15.208-8.854,28.316-18.286,36.746h-18.233c9.431-8.43 15.19-21.539 16.934-36.746h-15.541v-16.51h15.88c-1.171-16.519-6.9-30.891-16.849-40.009h18.235c9.947,9.118 16.837,23.49 18.27,40.009h11.21z" fill="#fff"/>
</g>
</svg>
