<svg viewBox="0 0 512 512" xmlns="http://www.w3.org/2000/svg">

<g transform="matrix(4.81223,0,0,4.81223,-2290.2893,-1441.26992)">
<path d="m 534.328 345.48 c 1.434 -16.519 8.323 -30.891 18.272 -40.009 h 18.234 c -9.949 9.118 -15.68 23.49 -16.849 40.009 h 14.688 v 16.51 h -14.349 c 1.742 15.208 7.503 28.316 16.934 36.746 h -18.234 c -9.432 -8.43 -16.189 -21.539 -18.286 -36.746 h -12.03 c -2.097 15.208 -8.854 28.316 -18.286 36.746 h -18.233 c 9.431 -8.43 15.19 -21.539 16.934 -36.746 h -15.541 v -16.51 h 15.88 c -1.171 -16.519 -6.9 -30.891 -16.849 -40.009 h 18.235 c 9.947 9.118 16.837 23.49 18.27 40.009 h 11.21 z" fill="#fff"/>
</g>
</svg>
