<svg viewBox="0 0 512 512" xmlns="http://www.w3.org/2000/svg">

<g transform="matrix(18.68858,0,0,18.68858,-5276.42145,-9139.75166)">
<path d="m308,505.7059c0,3.9523-3.204,7.1562-7.1562,7.1562s-7.1562-3.204-7.1562-7.1562 3.204-7.1562 7.1562-7.1562 7.1562,3.204 7.1562,7.1562z" fill="#fff" transform="matrix(1.20524,0,0,1.20524,-64.05772,-104.13492)"/>
<path d="m308.5857,503.7164-2.931.0674 .7972-4.8518-2.4871,1.5373-1.7618-4.6037-1.3921,2.5477-3.8502-3.1099 .0911,2.9181-4.8879-.7855 1.539,2.4803-4.6154,1.7612 2.5524,1.3871-3.1197,3.8438 2.931-.0674-.7972,4.8518 2.487-1.5373 1.7618,4.6037 1.3921-2.5477 3.8502,3.1099-.0911-2.9181 4.8879.7855-1.539-2.4804 4.6153-1.7613-2.5524-1.3871 3.1198-3.8439z" fill="#fff"/>
<path d="m302.2817,504.4691c-.062-.2518-.1587-.5216-.266-.7471-.7046-1.4809-2.305-2.3062-3.9619-2.049-2.7519-3.3483-6.6127-5.9275-10.8046-7.2546l-1.861,3.215c3.8583,1.0189 7.1104,3.0333 9.8034,6.2134-.3263.7342-.4435,1.5809-.2368,2.4201 .4961,2.014 2.5222,3.2415 4.5421,2.7447s3.2807-2.5283 2.7846-4.5424z" fill="#fff" stroke="#000"/>
<path d="m300.625,500.4871c0,.8284-.6716,1.5-1.5,1.5s-1.5-.6716-1.5-1.5 .6716-1.5 1.5-1.5 1.5.6716 1.5,1.5z" fill="#fff" stroke="#000" stroke-width=".9186" transform="matrix(.37275,1.02182,-1.0239,.37259,699.56302,13.18321)"/>
<path d="m297.4726,503.9436c-2.0343-2.8901-4.4835-5.0052-8.2765-6.811" fill="none" stroke="#000"/>
<path d="m282.8374,490.6875v6.4355l5.4129,2.6895 2.5623-5.1868-7.9752-3.9382z" fill="#fff" stroke="#000"/>
</g>
</svg>
