<svg viewBox="0 0 512 512" xmlns="http://www.w3.org/2000/svg">

<g transform="matrix(18.68858,0,0,18.68858,-5276.42145,-9139.75166)">
<path d="m 308 505.706 c 0 3.9523 -3.204 7.1562 -7.1562 7.1562 s -7.1562 -3.204 -7.1562 -7.1562 3.204 -7.1562 7.1562 -7.1562 7.1562 3.204 7.1562 7.1562 z" fill="#fff" transform="matrix(1.20524,0,0,1.20524,-64.05772,-104.13492)"/>
<path d="m 308.586 503.716 -2.931 0.0674 0.7972 -4.8518 -2.4871 1.5373 -1.7618 -4.6037 -1.3921 2.5477 -3.8502 -3.1099 0.0911 2.9181 -4.8879 -0.7855 1.539 2.4803 -4.6154 1.7612 2.5524 1.3871 -3.1197 3.8438 2.931 -0.0674 -0.7972 4.8518 2.487 -1.5373 1.7618 4.6037 1.3921 -2.5477 3.8502 3.1099 -0.0911 -2.9181 4.8879 0.7855 -1.539 -2.4804 4.6153 -1.7613 -2.5524 -1.3871 3.1198 -3.8439 z" fill="#fff"/>
<path d="m 302.282 504.469 c -0.062 -0.2518 -0.1587 -0.5216 -0.266 -0.7471 -0.7046 -1.4809 -2.305 -2.3062 -3.9619 -2.049 -2.7519 -3.3483 -6.6127 -5.9275 -10.8046 -7.2546 l -1.861 3.215 c 3.8583 1.0189 7.1104 3.0333 9.8034 6.2134 -0.3263 0.7342 -0.4435 1.5809 -0.2368 2.4201 0.4961 2.014 2.5222 3.2415 4.5421 2.7447 s 3.2807 -2.5283 2.7846 -4.5424 z" fill="#fff" stroke="#000"/>
<path d="m 300.625 500.487 c 0 0.8284 -0.6716 1.5 -1.5 1.5 s -1.5 -0.6716 -1.5 -1.5 0.6716 -1.5 1.5 -1.5 1.5 0.6716 1.5 1.5 z" fill="#fff" stroke="#000" stroke-width=".9186" transform="matrix(.37275,1.02182,-1.0239,.37259,699.56302,13.18321)"/>
<path d="m 297.473 503.944 c -2.0343 -2.8901 -4.4835 -5.0052 -8.2765 -6.811" fill="none" stroke="#000"/>
<path d="m 282.837 490.688 v 6.4355 l 5.4129 2.6895 2.5623 -5.1868 -7.9752 -3.9382 z" fill="#fff" stroke="#000"/>
</g>
</svg>
