<svg viewBox="0 0 512 512" xmlns="http://www.w3.org/2000/svg">

<g transform="matrix(18.68858,0,0,18.68858,-235.32904,-41514.84833)">
<path d="m 25.0577 2227.67 c 5.7003 5.7 10.6997 13.1151 14.0406 20.1481 -7.0846 -3.3656 -14.4475 -8.34 -20.1482 -14.0407 z" fill="#fff"/>
<path d="m 17.4186 2224.74 c 0 1.0232 -0.8295 1.8526 -1.8526 1.8526 s -1.8526 -0.8294 -1.8526 -1.8526 0.8295 -1.8527 1.8526 -1.8527 1.8526 0.8295 1.8526 1.8527 z" fill="#fff" stroke="#000" stroke-width=".8025" transform="matrix(1.04399,0,0,1.04386,-1.32924,-98.55836)"/>
<path d="m 22.6144 2229.98 -1.3974 1.3972 c -2.7287 -1.2622 -4.9181 -3.0637 -5.9866 -5.9858 l 1.3974 -1.3973 c 2.6131 1.1572 4.6084 3.2546 5.9866 5.9859 z" fill="#fff" stroke="#000"/>
<path d="m 16.6329 2235.69 -0.3098 3.6902 3.4585 -1.4584 -0.1877 -2.1876 c 1.8957 -3.084 4.1881 -5.7273 7.3758 -7.3758 l 2.1876 0.1876 1.4805 -3.4805 -3.6902 0.3098 c -4.3742 2.636 -7.9552 5.9518 -10.3147 10.3147 z" fill="#fff" stroke="#000"/>
<path d="m 24.3854 2230.32 c 2.5519 2.5517 4.7899 5.8713 6.2856 9.0198 -3.1716 -1.5068 -6.4678 -3.7336 -9.0198 -6.2857" fill="none" stroke="#000"/>
</g>
</svg>
