<svg viewBox="0 0 512 512" xmlns="http://www.w3.org/2000/svg">

<g transform="matrix(18.68858,0,0,18.68858,-235.32904,-41514.84833)">
<path d="m25.0577,2227.6728c5.7003,5.7 10.6997,13.1151 14.0406,20.1481-7.0846-3.3656-14.4475-8.34-20.1482-14.0407z" fill="#fff"/>
<path d="m17.4186,2224.7405c0,1.0232-.8295,1.8526-1.8526,1.8526s-1.8526-.8294-1.8526-1.8526 .8295-1.8527 1.8526-1.8527 1.8526.8295 1.8526,1.8527z" fill="#fff" stroke="#000" stroke-width=".8025" transform="matrix(1.04399,0,0,1.04386,-1.32924,-98.55836)"/>
<path d="m22.6144,2229.983-1.3974,1.3972c-2.7287-1.2622-4.9181-3.0637-5.9866-5.9858l1.3974-1.3973c2.6131,1.1572 4.6084,3.2546 5.9866,5.9859z" fill="#fff" stroke="#000"/>
<path d="m16.6329,2235.6876-.3098,3.6902 3.4585-1.4584-.1877-2.1876c1.8957-3.084 4.1881-5.7273 7.3758-7.3758l2.1876.1876 1.4805-3.4805-3.6902.3098c-4.3742,2.636-7.9552,5.9518-10.3147,10.3147z" fill="#fff" stroke="#000"/>
<path d="m24.3854,2230.3199c2.5519,2.5517 4.7899,5.8713 6.2856,9.0198-3.1716-1.5068-6.4678-3.7336-9.0198-6.2857" fill="none" stroke="#000"/>
</g>
</svg>
