<svg viewBox="0 0 512 512" xmlns="http://www.w3.org/2000/svg">

<g transform="matrix(18.68858,0,0,18.68858,-9084.5576,-41515.19654)">
<path d="m499.8125,2223.5938c-3.0622,0-6.1113.4057-9.0312,1.1874-4.4422,4.4921-3.5213,12.3544 1.0312,18.5313-5.6368,6.6684 21.6729,6.6471 16.2188,0 4.761-6.2393 5.4679-13.9124.875-18.5313-2.9617-.7929-6.0315-1.1903-9.0938-1.1874z" fill="#fff" stroke="#000"/>
<path d="m505.563,2225.2022c0,1.2918-2.5554,4.3425-5.7076,4.3425s-5.7076-3.0507-5.7076-4.3425 2.5554-2.3389 5.7076-2.3389 5.7076,1.0471 5.7076,2.3389z" stroke="#fff"/>
<path d="m510.8434,2247.4202c-1.4369-5.2358-4.2021-8.9579-7.8925-11.4871m-6.1909,0c-3.6904,2.5292-6.4556,6.2513-7.8925,11.4871" fill="none" stroke="#000"/>
<path d="m508.191,2243.1152c-4.5588,3.7263-11.9502,3.7265-16.509,0" fill="none" stroke="#000"/>
<path d="m494.025,2231.9409c0,1.7721-.4874,3.2087-1.0887,3.2087s-1.0887-1.4366-1.0887-3.2087 .4874-3.2087 1.0887-3.2087 1.0887,1.4366 1.0887,3.2087z" stroke="#fff" stroke-width=".6879" transform="matrix(-1.23167,.55903,.16553,1.64042,747.2267,-1705.7705)"/>
<path d="m494.025,2231.9409c0,1.7721-.4874,3.2087-1.0887,3.2087s-1.0887-1.4366-1.0887-3.2087 .4874-3.2087 1.0887-3.2087 1.0887,1.4366 1.0887,3.2087z" stroke="#fff" stroke-width=".6879" transform="matrix(1.23167,.55903,-.16553,1.64042,252.7049,-1705.7705)"/>
<path d="m509.0956,2225.0369c-1.5045,6.5623-4.7531,10.7319-9.1065,13.1386-4.3534-2.4067-7.6019-6.5763-9.1065-13.1386" fill="none" stroke="#000"/>
</g>
</svg>
