<svg viewBox="0 0 512 512" xmlns="http://www.w3.org/2000/svg">

<g transform="matrix(18.68858,0,0,18.68858,-12483.34001,-36767.1732)">
<path d="m 679.749 1986.93 c -0.002 -2.7348 -1.5875 -4.5096 -2.9799 -4.7901 -2.2804 -0.4592 -3.1068 -2.3368 -2.6796 -4.3307 0.5679 -2.6488 -0.6647 -3.7939 -2.6499 -4.4275 -2.1604 -0.689 -3.3425 -2.7947 -2.1877 -5.2765 0.7387 2.5088 2.6428 4.0187 4.4698 3.6929 2.0514 -0.3657 3.676 -0.069 4.5087 2.5094 0.6269 1.9403 2.1707 2.6359 4.486 2.4105 2.4085 -0.2344 9.4772 3.0723 10.2268 5.6169" fill="#fff"/>
<path d="m 701.25 1989.42 c 0 4.5908 -3.7216 8.3125 -8.3125 8.3125 s -8.3125 -3.7217 -8.3125 -8.3125 3.7216 -8.3125 8.3125 -8.3125 8.3125 3.7216 8.3125 8.3125 z" fill="#fff" transform="matrix(.87882,.08909,-.08909,.87882,255.319,176.42576)"/>
<path d="m 685.954 1980.14 c 1.402 5.6109 4.828 4.5598 3.0641 0.6318 5.6673 3.605 4.9156 8.1982 2.0415 10.5731 -2.8311 2.3393 -7.3772 2.6562 -9.3826 -2.1658 1.0143 0.8805 4.7869 -2.014 2.1458 -4.0848 -1.8144 -1.3418 -3.7695 -1.8413 -2.7003 -4.4582 1.9431 3.8436 4.6226 -0.6639 0.9128 -2.8245 1.7652 -0.013 3.5433 0.701 3.9186 2.3284 z"/>
<path d="m 679.877 1984.17 c 0.7086 -4.8632 -4.3064 -4.2032 -4.9408 -5.3602 -0.004 3.4337 3.7402 1.0549 4.9408 5.3602 z"/>
<path d="m 677.518 1975.77 c 0.3747 -2.2 -1.8881 -4.1446 -4.0642 -2.8788 2.2543 0.6368 3.3217 1.8388 4.0642 2.8788 z"/>
<path d="m 683.728 1986.41 c 0 0.7078 -0.5738 1.2816 -1.2816 1.2816 s -1.2816 -0.5738 -1.2816 -1.2816 0.5738 -1.2816 1.2816 -1.2816 1.2816 0.5738 1.2816 1.2816 z" stroke="#fff" stroke-width=".6667" transform="matrix(1.5,0,0,1.5,-340.58237,-992.40746)"/>
<path d="m 683.728 1986.41 c 0 0.7078 -0.5738 1.2816 -1.2816 1.2816 s -1.2816 -0.5738 -1.2816 -1.2816 0.5738 -1.2816 1.2816 -1.2816 1.2816 0.5738 1.2816 1.2816 z" stroke="#fff" stroke-width=".7646" transform="matrix(.99327,-.57138,.74842,1.29159,-1482.3045,-195.5405)"/>
<path d="m 683.728 1986.41 c 0 0.7078 -0.5738 1.2816 -1.2816 1.2816 s -1.2816 -0.5738 -1.2816 -1.2816 0.5738 -1.2816 1.2816 -1.2816 1.2816 0.5738 1.2816 1.2816 z" stroke="#fff" stroke-width=".8083" transform="matrix(.90337,-.43953,.54675,1.42823,-1014.3289,-555.36217)"/>
<path d="m 683.728 1986.41 c 0 0.7078 -0.5738 1.2816 -1.2816 1.2816 s -1.2816 -0.5738 -1.2816 -1.2816 0.5738 -1.2816 1.2816 -1.2816 1.2816 0.5738 1.2816 1.2816 z" stroke="#fff" stroke-width=".8083" transform="matrix(.93522,-.36691,.43241,1.4669,-821.12749,-686.43304)"/>
</g>
</svg>
