<svg viewBox="0 0 512 512" xmlns="http://www.w3.org/2000/svg">

<g transform="matrix(18.68858,0,0,18.68858,-4640.25012,-7250.38331)">
<path d="m 271.529 391.338 c -1.878 2.2316 -2.7942 5.6514 -4.4857 8.9493 l 1.9887 1.9887 c 1.9752 -4.0803 2.6437 -8.762 5.9441 -13.1478 -1.4874 0.3986 -2.5684 1.1655 -3.4472 2.2097 z m -20.5503 20.5945 c -0.6751 0.7312 -1.193 1.6006 -1.4805 2.6738 4.4925 -3.3807 9.2927 -4.0155 13.435 -6.0988 l -1.9666 -1.9666 c -3.7864 2.0389 -7.7768 2.9968 -9.9879 5.3917 z" fill="#fff" fill-rule="evenodd"/>
<path d="m 266.959 399.035 2.9062 2.9062 c -2.9105 2.0678 -5.7214 4.235 -7.4673 7.4673 l -2.9062 -2.9062 c 3.099 -1.8792 5.6592 -4.2973 7.4673 -7.4673 z" fill="#fff" stroke="#000"/>
<path d="m 254.82 391.553 17.6813 -0.6889 m -21.1248 21.3016 0.6332 -18.3632" fill="none" stroke="#fff"/>
<path d="m 252.064 391.073 -0.5375 0.5816 16.4066 18.6506 3.1768 -3.177 -19.0459 -16.0552 z" fill="#fff" stroke="#000"/>
<path d="m 263.994 412.017 c 3.7311 1.3551 7.4927 2.4765 11.3565 2.8179 -0.4958 -3.8435 -1.4877 -7.6222 -2.8179 -11.3565 -2.2245 3.7618 -4.5651 6.4304 -8.5386 8.5386 z" fill="#fff" stroke="#000"/>
<path d="m 253.292 396.388 -2.9055 -3.9248 3.1682 0.51 -0.4373 -3.2403 3.8529 2.9776 1e-05 3.6775 -3.6783 2e-05 z" stroke="#fff"/>
</g>
</svg>
