<svg xmlns="http://www.w3.org/2000/svg" viewBox="0 0 512 512">
<g fill="#fff" transform="translate(-131.17442 154.81485)">
<path d="m221.6953,235.2466 38.4961,0 0,16.582-63.5742,0 0-16.582 31.9336-28.1836c2.8515-2.5781 4.9609-5.0976 6.3281-7.5586 1.3671-2.4609 2.0507-5.0195 2.0508-7.6758 0-4.1015-1.3868-7.4023-4.1602-9.9023-2.7344-2.4999-6.3868-3.7499-10.957-3.75-3.5156,.0001-7.3633,.7618-11.543,2.2851-4.1797,1.4845-8.6524,3.711-13.418,6.6797v-19.2188c5.0781-1.6796 10.0976-2.9491 15.0586-3.8086 4.9609-.8983 9.8242-1.3476 14.5898-1.3477 10.4687,.0001 18.5937,2.3048 24.375,6.9141 5.8202,4.6095 8.7304,11.0352 8.7305,19.2773-.0001,4.7657-1.2305,9.2188-3.6914,13.3594-2.461,4.1016-7.6368,9.6094-15.5274,16.5234l-18.6914,16.4062m349.378,32.9141c5.8984,1.5235 10.371,4.1797 13.418,7.9688 3.0859,3.75 4.6288,8.5352 4.6289,14.3555-.0001,8.6719-3.3204,15.2734-9.9609,19.8047-6.6407,4.4922-16.3282,6.7383-29.0625,6.7383-4.4922,0-9.0039-.3711-13.5352-1.1133-4.4922-.7031-8.9453-1.7773-13.3594-3.2226v-17.4024c4.2187,2.1094 8.3984,3.711 12.5391,4.8047 4.1797,1.0547 8.2812,1.582 12.3047,1.582 5.9765,0 10.5468-1.0351 13.7109-3.1055 3.2031-2.0703 4.8046-5.039 4.8047-8.9062 0-3.9843-1.6407-6.9921-4.9219-9.0234-3.2422-2.0703-8.0469-3.1054-14.4141-3.1055h-9.0234v-14.5313h9.4922c5.664,.0001 9.8828-.8788 12.6562-2.6367 2.7734-1.7968 4.1601-4.5117 4.1602-8.1445 0-3.3593-1.3477-5.957-4.043-7.793-2.6953-1.8359-6.5039-2.7538-11.4258-2.7539-3.6328,.0001-7.3047,.4102-11.0156,1.2305-3.711,.8204-7.4024,2.0313-11.0742,3.6328v-16.5234c4.4531-1.2499 8.8672-2.1874 13.2422-2.8125 4.375-.6249 8.6718-.9374 12.8906-.9375 11.3671,.0001 19.8632,1.8751 25.4883,5.625 5.664,3.711 8.496,9.3165 8.4961,16.8164-.0001,5.1173-1.3477,9.3165-4.043,12.5977-2.6954,3.2422-6.6798,5.5274-11.9531,6.8555m-203.8359-192.2362h19.9219v-56.543l-20.4492,4.2188v-15.3516l20.332-4.2188h21.4453v71.8945h19.9219v15.5859h-61.1719v-15.5859m259.9375,265.2612 0-144-144-.0001 0-223.9999-176,0 0,160-160,0 0,208"/>
</g>
</svg>
