<svg viewBox="0 0 512 512" xmlns="http://www.w3.org/2000/svg">

<g transform="matrix(18.68858,0,0,18.68858,-212.49179,-6621.03269)">
<path d="m27.5936,364.2533c5.3651-.3584 8.7197-3.0673 5.465-5.2452-5.4789,2.52-12.0147-.5179-16.552-4.1459h-4.6484v10.933c2.0824,4.358 3.0483,7.3824 8.2289,12.0895 1.0726,1.0727 3.117-.6834 3.1408-1.7275" fill="#fff" stroke="#000"/>
<path d="m22.8824,376.0186c1.743.003 2.9996-.6419 3.7375-1.9788 1.8848-.2958 3.1192-1.1493 3.8318-2.4499l-3.8946-4.46-6.7527,4.994 3.078,3.8947z" fill="#fff" fill-rule="evenodd"/>
<path d="m25.6343,362.3232 11.9451,11.9454c1.8646,1.8646-.6624,4.5398-2.6011,2.6011l-8.9213-8.9215" fill="#fff" stroke="#000"/>
<path d="m26.6474,374.2289c-.3751,1.195-2.3983,2.8039-3.2083,1.9938l-3.3679-3.368" fill="#fff" stroke="#000"/>
<path d="m29.955,372.2954c-.43,1.0948-1.5322,1.9734-2.8679,2.0906l-3.5865-3.5866" fill="#fff" stroke="#000"/>
</g>
</svg>
