<svg viewBox="0 0 512 512" xmlns="http://www.w3.org/2000/svg">

<g transform="matrix(18.68858,0,0,18.68858,-13163.1572,-11595.19703)">
<path d="m705.5023,637.6513c-4.2752-9.7916 31.4139-3.2251 24.9265,4.5009-6.311,7.516-21.2328,3.959-24.9265-4.5009z" fill="#fff" fill-rule="evenodd" stroke="#000"/>
<path d="m730.0085,622.6701c-9.5636-2.5672-15.1127,6.2606-17.9587,14.1633-1.0436,3.8946 13.4868,6.0412 13.2993,2.5191-.4346-5.8396-1.6401-13.6137 4.6594-16.6824z" fill="#fff" fill-rule="evenodd" stroke="#000"/>
<path d="m712.9922,634.2967c-.03,3.6251 12.2266,5.3108 12.1223,2.6469" fill="none" stroke="#000"/>
<path d="m728.7017,622.5641c-3.063,2.6254-5.9101,5.4291-7.875,9.3234 2.2507-2.7556 5.7241-6.2928 8.3438-8.4884l-.4688-.835z" fill-rule="evenodd"/>
</g>
</svg>
