<svg viewBox="0 0 512 512" xmlns="http://www.w3.org/2000/svg">
<path d="m0,0h512v512h-512z"/>
<g transform="matrix(18.68858,0,0,18.68858,5158.98676,-5415.12295)">
<path d="m-264.9971,294.5701c0,1.0785-.236,1.932-1.7573,1.932-2.1207,0-3.7315,1.1726-3.7315,2.6359v13.4533c0,1.4633 1.1726,2.6359 2.6359,2.6359h11.4223c1.4633,0 2.6359-1.1726 2.6359-2.6359v-13.4533c0-1.4633-1.6108-2.6359-3.622-2.6359-1.9303,0-2.1814-.8339-2.1814-1.932h-5.402z" stroke="#fff"/>
<path d="m-268.9118,310.5911c3.6943-.3297 9.3555-1.6145 12.6617-3.3927 .7994.8679 1.1746,1.8496.8116,3.029-3.721.2301-9.3111,1.7804-12.6617,3.3927-.8345-.8585-1.1412-1.8585-.8116-3.029z" fill="#fff" stroke="#000"/>
<path d="m-255.4295,310.5911c-3.6943-.3297-9.3555-1.6145-12.6617-3.3927-.7994.8679-1.1746,1.8496-.8116,3.029 3.721.2301 9.3111,1.7804 12.6617,3.3927 .8345-.8585 1.1412-1.8585.8116-3.029z" fill="#fff" stroke="#000"/>
<path d="m-257.1304,303.2591c-2.9346,1.2939-2.889,3.1547-1.732,4.7479-1.0661,1.372-5.0123,1.4729-6.4508.0162 1.2616-1.7675 1.2926-3.3944-1.6117-4.7641 0-2.8682 1.3463-6.0264 4.8972-6.0264 3.5811,0 4.8972,3.311 4.8972,6.0264z" fill="#fff" stroke="#000" stroke-width=".9516"/>
<path d="m-264.5444,306.1122c1.1863.9325 3.8616.9317 5.2045,0" fill="#fff" fill-rule="evenodd" stroke="#000" stroke-width="1.0079"/>
<path d="m-262.2038,303.5129c-.3407.7088-.5556,1.4176-.7343,2.1265 .4895-.1833.9791-.1617 1.4686,0-.1322-.7088-.3986-1.4176-.7343-2.1265z" fill-rule="evenodd"/>
<path d="m607.875,129.3622c0,1.2081-.9794,2.1875-2.1875,2.1875s-2.1875-.9794-2.1875-2.1875 .9794-2.1875 2.1875-2.1875 2.1875.9794 2.1875,2.1875z" transform="matrix(.4056,0,0,.4056,-509.29253,250.13228)"/>
<path d="m607.875,129.3622c0,1.2081-.9794,2.1875-2.1875,2.1875s-2.1875-.9794-2.1875-2.1875 .9794-2.1875 2.1875-2.1875 2.1875.9794 2.1875,2.1875z" transform="matrix(.4056,0,0,.4056,-506.32619,250.13228)"/>
<path d="m-266.8231,291.0218h8.9945v3.7574h-8.9945v-3.7574z" fill="#fff" stroke="#000"/>
</g>
</svg>
