<svg viewBox="0 0 512 512" xmlns="http://www.w3.org/2000/svg">

<g transform="matrix(18.68858,0,0,18.68858,5158.98676,-5415.12295)">
<path d="m -264.997 294.57 c 0 1.0785 -0.236 1.932 -1.7573 1.932 -2.1207 0 -3.7315 1.1726 -3.7315 2.6359 v 13.4533 c 0 1.4633 1.1726 2.6359 2.6359 2.6359 h 11.4223 c 1.4633 0 2.6359 -1.1726 2.6359 -2.6359 v -13.4533 c 0 -1.4633 -1.6108 -2.6359 -3.622 -2.6359 -1.9303 0 -2.1814 -0.8339 -2.1814 -1.932 h -5.402 z" stroke="#fff"/>
<path d="m -268.912 310.591 c 3.6943 -0.3297 9.3555 -1.6145 12.6617 -3.3927 0.7994 0.8679 1.1746 1.8496 0.8116 3.029 -3.721 0.2301 -9.3111 1.7804 -12.6617 3.3927 -0.8345 -0.8585 -1.1412 -1.8585 -0.8116 -3.029 z" fill="#fff" stroke="#000"/>
<path d="m -255.429 310.591 c -3.6943 -0.3297 -9.3555 -1.6145 -12.6617 -3.3927 -0.7994 0.8679 -1.1746 1.8496 -0.8116 3.029 3.721 0.2301 9.3111 1.7804 12.6617 3.3927 0.8345 -0.8585 1.1412 -1.8585 0.8116 -3.029 z" fill="#fff" stroke="#000"/>
<path d="m -257.13 303.259 c -2.9346 1.2939 -2.889 3.1547 -1.732 4.7479 -1.0661 1.372 -5.0123 1.4729 -6.4508 0.0162 1.2616 -1.7675 1.2926 -3.3944 -1.6117 -4.7641 0 -2.8682 1.3463 -6.0264 4.8972 -6.0264 3.5811 0 4.8972 3.311 4.8972 6.0264 z" fill="#fff" stroke="#000" stroke-width=".9516"/>
<path d="m -264.544 306.112 c 1.1863 0.9325 3.8616 0.9317 5.2045 0" fill="#fff" fill-rule="evenodd" stroke="#000" stroke-width="1.0079"/>
<path d="m -262.204 303.513 c -0.3407 0.7088 -0.5556 1.4176 -0.7343 2.1265 0.4895 -0.1833 0.9791 -0.1617 1.4686 0 -0.1322 -0.7088 -0.3986 -1.4176 -0.7343 -2.1265 z" fill-rule="evenodd"/>
<path d="m 607.875 129.362 c 0 1.2081 -0.9794 2.1875 -2.1875 2.1875 s -2.1875 -0.9794 -2.1875 -2.1875 0.9794 -2.1875 2.1875 -2.1875 2.1875 0.9794 2.1875 2.1875 z" transform="matrix(.4056,0,0,.4056,-509.29253,250.13228)"/>
<path d="m 607.875 129.362 c 0 1.2081 -0.9794 2.1875 -2.1875 2.1875 s -2.1875 -0.9794 -2.1875 -2.1875 0.9794 -2.1875 2.1875 -2.1875 2.1875 0.9794 2.1875 2.1875 z" transform="matrix(.4056,0,0,.4056,-506.32619,250.13228)"/>
<path d="m -266.823 291.022 h 8.9945 v 3.7574 h -8.9945 v -3.7574 z" fill="#fff" stroke="#000"/>
</g>
</svg>
