<svg viewBox="0 0 512 512" xmlns="http://www.w3.org/2000/svg">

<g transform="matrix(18.68858,0,0,18.68858,-11809.05263,-39462.46502)">
<g fill="#fff">
<path d="m641.3757,2124.7482c0,3.9721-6.0567,3.9721-6.0567,0s6.0567-3.9722 6.0567,0z" fill="#fff"/>
<path d="m651,2134.6444c0,3.2099-4.8943,3.2099-4.8943,0s4.8943-3.2098 4.8943,0z" fill="#fff"/>
<path d="m656.2002,2124.8344c0,3.2099-4.8943,3.2099-4.8943,0s4.8943-3.2097 4.8943,0z" fill="#fff"/>
<path d="m649.8376,2115.4179c0,3.2099-4.8944,3.2099-4.8944,0s4.8944-3.2099 4.8944,0z" fill="#fff"/>
<path d="m644.4853,2132.3502c0,3.2099-4.8943,3.2099-4.8943,0s4.8943-3.2098 4.8943,0z" fill="#fff"/>
<path d="m655.0278,2115.6373c0,4.2432-6.4699,4.2432-6.4699,0s6.4699-4.243 6.4699,0z" fill="#fff"/>
<path d="m653.5326,2127.2417c0,4.9511-7.5493,4.9511-7.5493,0s7.5493-4.951 7.5493,0z" fill="#fff"/>
<path d="m653.3127,2136.3587c0,2.2068-3.3649,2.2068-3.3649,0s3.3649-2.2068 3.3649,0z" fill="#fff"/>
<path d="m636.1436,2123.3811c0,2.2068-3.3649,2.2068-3.3649,0s3.3649-2.2068 3.3649,0z" fill="#fff"/>
<path d="m657.8321,2125.4534c0,1.645-2.5083,1.645-2.5083,0s2.5083-1.6451 2.5083,0z" fill="#fff"/>
<path d="m658.1724,2119.1125c0,1.5166-2.3124,1.5166-2.3124,0s2.3124-1.5166 2.3124,0z" fill="#fff"/>
<path d="m643.6109,2135.3662c0,1.6451-2.5084,1.6451-2.5084,0s2.5084-1.6451 2.5084,0z" fill="#fff"/>
<path d="m655.0378,2121.1026c0,3.2099-4.8943,3.2099-4.8943,0s4.8943-3.2098 4.8943,0z" fill="#fff"/>
<path d="m643.3688,2129.5711c0,2.2068-3.3649,2.2068-3.3649,0s3.3649-2.2068 3.3649,0z" fill="#fff"/>
<path d="m653.585,2118.6114c0,1.5166-2.3124,1.5166-2.3124,0s2.3124-1.5166 2.3124,0z" fill="#fff"/>
<path d="m657.4238,2121.8297c0,1.0432-1.5907,1.0432-1.5907,0s1.5907-1.0432 1.5907,0z" fill="#fff"/>
<path d="m634.842,2126.958c0,1.0433-1.5906,1.0433-1.5906,0s1.5906-1.0431 1.5906,0z" fill="#fff"/>
<path d="m639.6439,2135.5668c0,1.0432-1.5906,1.0432-1.5906,0s1.5906-1.0433 1.5906,0z" fill="#fff"/>
<path d="m637.3078,2136.8863c0,1.4181-2.1623,1.4181-2.1623,0s2.1623-1.4182 2.1623,0z" fill="#fff"/>
<path d="m636.5724,2135.2692c0,1.8438-2.8112,1.8438-2.8112,0s2.8112-1.8437 2.8112,0z" fill="#fff"/>
<path d="m656.3593,2135.7471c.367,1.3698-1.7216,1.9295-2.0886.5597s1.7216-1.9296 2.0886-.5597z" fill="#fff"/>
<path d="m657.3974,2135.2553c.2652.9899-1.2442,1.3943-1.5094.4044s1.2441-1.3944 1.5094-.4044z" fill="#fff"/>
<path d="m658.3068,2133.221c.2194.8189-1.0293,1.1535-1.2487.3346s1.0293-1.1537 1.2487-.3346z" fill="#fff"/>
<path d="m639.6153,2116.6418c-.6823,3.1365-5.4648,2.0962-4.7825-1.0403s5.4648-2.0961 4.7825,1.0403z" fill="#fff"/>
<path d="m641.2268,2115.3746c-.3497,1.6075-2.8007,1.0743-2.451-.533s2.8007-1.0746 2.451.533z" fill="#fff"/>
</g>
<path d="m640.0975,2116.8708-2.1119,8.7438h3.8533l1.1115,9.5588h5.7058l1.1115-9.5588h3.8532l-2.1119-8.7438h-11.4115z" fill="#fff" stroke="#000"/>
<path d="m651.2901,2123.4491-.6298-2.9059-3.6007,2.5272z"/>
<path d="m640.3051,2123.4491 .6298-2.9059 3.6007,2.5272z"/>
<path d="m644.4903,2126.4773 1.3074-1.7264 1.3073,1.7264" fill="none" stroke="#000"/>
</g>
</svg>
