<svg viewBox="0 0 512 512" xmlns="http://www.w3.org/2000/svg">

<g transform="matrix(18.68858,0,0,18.68858,-11809.05263,-39462.46502)">
<g fill="#fff">
<path d="m 641.376 2124.75 c 0 3.9721 -6.0567 3.9721 -6.0567 0 s 6.0567 -3.9722 6.0567 0 z" fill="#fff"/>
<path d="m 651 2134.64 c 0 3.2099 -4.8943 3.2099 -4.8943 0 s 4.8943 -3.2098 4.8943 0 z" fill="#fff"/>
<path d="m 656.2 2124.83 c 0 3.2099 -4.8943 3.2099 -4.8943 0 s 4.8943 -3.2097 4.8943 0 z" fill="#fff"/>
<path d="m 649.838 2115.42 c 0 3.2099 -4.8944 3.2099 -4.8944 0 s 4.8944 -3.2099 4.8944 0 z" fill="#fff"/>
<path d="m 644.485 2132.35 c 0 3.2099 -4.8943 3.2099 -4.8943 0 s 4.8943 -3.2098 4.8943 0 z" fill="#fff"/>
<path d="m 655.028 2115.64 c 0 4.2432 -6.4699 4.2432 -6.4699 0 s 6.4699 -4.243 6.4699 0 z" fill="#fff"/>
<path d="m 653.533 2127.24 c 0 4.9511 -7.5493 4.9511 -7.5493 0 s 7.5493 -4.951 7.5493 0 z" fill="#fff"/>
<path d="m 653.313 2136.36 c 0 2.2068 -3.3649 2.2068 -3.3649 0 s 3.3649 -2.2068 3.3649 0 z" fill="#fff"/>
<path d="m 636.144 2123.38 c 0 2.2068 -3.3649 2.2068 -3.3649 0 s 3.3649 -2.2068 3.3649 0 z" fill="#fff"/>
<path d="m 657.832 2125.45 c 0 1.645 -2.5083 1.645 -2.5083 0 s 2.5083 -1.6451 2.5083 0 z" fill="#fff"/>
<path d="m 658.172 2119.11 c 0 1.5166 -2.3124 1.5166 -2.3124 0 s 2.3124 -1.5166 2.3124 0 z" fill="#fff"/>
<path d="m 643.611 2135.37 c 0 1.6451 -2.5084 1.6451 -2.5084 0 s 2.5084 -1.6451 2.5084 0 z" fill="#fff"/>
<path d="m 655.038 2121.1 c 0 3.2099 -4.8943 3.2099 -4.8943 0 s 4.8943 -3.2098 4.8943 0 z" fill="#fff"/>
<path d="m 643.369 2129.57 c 0 2.2068 -3.3649 2.2068 -3.3649 0 s 3.3649 -2.2068 3.3649 0 z" fill="#fff"/>
<path d="m 653.585 2118.61 c 0 1.5166 -2.3124 1.5166 -2.3124 0 s 2.3124 -1.5166 2.3124 0 z" fill="#fff"/>
<path d="m 657.424 2121.83 c 0 1.0432 -1.5907 1.0432 -1.5907 0 s 1.5907 -1.0432 1.5907 0 z" fill="#fff"/>
<path d="m 634.842 2126.96 c 0 1.0433 -1.5906 1.0433 -1.5906 0 s 1.5906 -1.0431 1.5906 0 z" fill="#fff"/>
<path d="m 639.644 2135.57 c 0 1.0432 -1.5906 1.0432 -1.5906 0 s 1.5906 -1.0433 1.5906 0 z" fill="#fff"/>
<path d="m 637.308 2136.89 c 0 1.4181 -2.1623 1.4181 -2.1623 0 s 2.1623 -1.4182 2.1623 0 z" fill="#fff"/>
<path d="m 636.572 2135.27 c 0 1.8438 -2.8112 1.8438 -2.8112 0 s 2.8112 -1.8437 2.8112 0 z" fill="#fff"/>
<path d="m 656.359 2135.75 c 0.367 1.3698 -1.7216 1.9295 -2.0886 0.5597 s 1.7216 -1.9296 2.0886 -0.5597 z" fill="#fff"/>
<path d="m 657.397 2135.26 c 0.2652 0.9899 -1.2442 1.3943 -1.5094 0.4044 s 1.2441 -1.3944 1.5094 -0.4044 z" fill="#fff"/>
<path d="m 658.307 2133.22 c 0.2194 0.8189 -1.0293 1.1535 -1.2487 0.3346 s 1.0293 -1.1537 1.2487 -0.3346 z" fill="#fff"/>
<path d="m 639.615 2116.64 c -0.6823 3.1365 -5.4648 2.0962 -4.7825 -1.0403 s 5.4648 -2.0961 4.7825 1.0403 z" fill="#fff"/>
<path d="m 641.227 2115.37 c -0.3497 1.6075 -2.8007 1.0743 -2.451 -0.533 s 2.8007 -1.0746 2.451 0.533 z" fill="#fff"/>
</g>
<path d="m 640.097 2116.87 -2.1119 8.7438 h 3.8533 l 1.1115 9.5588 h 5.7058 l 1.1115 -9.5588 h 3.8532 l -2.1119 -8.7438 h -11.4115 z" fill="#fff" stroke="#000"/>
<path d="m 651.29 2123.45 -0.6298 -2.9059 -3.6007 2.5272 z"/>
<path d="m 640.305 2123.45 0.6298 -2.9059 3.6007 2.5272 z"/>
<path d="m 644.49 2126.48 1.3074 -1.7264 1.3073 1.7264" fill="none" stroke="#000"/>
</g>
</svg>
