<svg xmlns="http://www.w3.org/2000/svg" viewBox="0 0 512 512">
<g transform="matrix(15 0 0 15 -3764 -44)">
<use width="744.094" height="1052.362" transform="translate(288)"/>
<path fill="#fff" d="m268,10c-2.254,0-4.1258,1.5126-4.75,3.5625-.6812-.3477-1.4328-.5625-2.25-.5625-2.7614,0-5,2.2386-5,5 0,.1189 .0231,.227 .0312,.3438-2.3456,.8154-4.0312,3.0329-4.0312,5.6562 0,3.3137 2.6863,6 6,6h20c3.3137,0 6-2.6863 6-6 0-2.6234-1.6856-4.8409-4.0312-5.6562 .0082-.1168 .0312-.2249 .0312-.3438 0-2.7614-2.2386-5-5-5-.8172,0-1.5688,.2148-2.25,.5625-.6242-2.0499-2.496-3.5625-4.75-3.5625zm-4,6 4,4 4-4 2,2-4,4 4,4-2,2-4-4-4,4-2-2 4-4-4-4z"/>
</g>
</svg>
