<svg viewBox="0 0 512 512" xmlns="http://www.w3.org/2000/svg">

<g transform="matrix(18.68858,0,0,18.68858,1980.4731,-2861.20968)">
<path d="m -46.5996 178.205 h 5.9107 a 1.5 1.5 0 0 1 1.5 1.5 v 10.3661 a 1.5 1.5 0 0 1 -1.5 1.5 h -5.9107 a 1.5 1.5 0 0 1 -1.5 -1.5 v -10.3661 a 1.5 1.5 0 0 1 1.5 -1.5" fill="#fff" stroke="#000" transform="matrix(-.76027,-.64961,-.64961,.76027,0,0)"/>
<path d="m 30.4416 179.543 h 5.9107 a 1.5 1.5 0 0 1 1.5 1.5 v 10.3661 a 1.5 1.5 0 0 1 -1.5 1.5 h -5.9107 a 1.5 1.5 0 0 1 -1.5 -1.5 v -10.3661 a 1.5 1.5 0 0 1 1.5 -1.5" fill="#fff" stroke="#000" transform="matrix(-.9489,-.31558,-.31558,.9489,0,0)"/>
<path d="m 83.8398 162.022 h 5.9107 a 1.5 1.5 0 0 1 1.5 1.5 v 10.3661 a 1.5 1.5 0 0 1 -1.5 1.5 h -5.9107 a 1.5 1.5 0 0 1 -1.5 -1.5 v -10.3661 a 1.5 1.5 0 0 1 1.5 -1.5" fill="#fff" stroke="#000" transform="matrix(-.99892,-.04648,-.04648,.99892,0,0)"/>
<path d="m 146.478 113.603 h 5.9107 a 1.5 1.5 0 0 1 1.5 1.5 v 10.3661 a 1.5 1.5 0 0 1 -1.5 1.5 h -5.9107 a 1.5 1.5 0 0 1 -1.5 -1.5 v -10.3661 a 1.5 1.5 0 0 1 1.5 -1.5" fill="#fff" stroke="#000" transform="matrix(-.93883,.34437,.34437,.93883,0,0)"/>
<path d="m -101.635 165.783 c -0.7239 -1.5826 1.2853 -2.9009 1.2892 -4.7848 1.3087 1.3343 3.6403 0.9492 4.3215 2.4362 0.7262 1.5854 -1.2214 2.7633 -2.5535 1.7875 -0.1911 1.7539 -2.3781 2.0457 -3.0572 0.5611 z"/>
<path d="m -100.17 161.661 3.0244 5.4757 -1.0061 0.3699 -2.0183 -5.8456 z" fill-rule="evenodd"/>
</g>
</svg>
