<svg viewBox="0 0 512 512" xmlns="http://www.w3.org/2000/svg">

<g transform="matrix(18.68858,0,0,18.68858,1980.4731,-2861.20968)">
<path d="m-46.5996,178.2053h5.9107a1.5,1.5 0 0,1 1.5,1.5v10.3661a1.5,1.5 0 0,1 -1.5,1.5h-5.9107a1.5,1.5 0 0,1 -1.5-1.5v-10.3661a1.5,1.5 0 0,1 1.5-1.5" fill="#fff" stroke="#000" transform="matrix(-.76027,-.64961,-.64961,.76027,0,0)"/>
<path d="m30.4416,179.5435h5.9107a1.5,1.5 0 0,1 1.5,1.5v10.3661a1.5,1.5 0 0,1 -1.5,1.5h-5.9107a1.5,1.5 0 0,1 -1.5-1.5v-10.3661a1.5,1.5 0 0,1 1.5-1.5" fill="#fff" stroke="#000" transform="matrix(-.9489,-.31558,-.31558,.9489,0,0)"/>
<path d="m83.8398,162.0217h5.9107a1.5,1.5 0 0,1 1.5,1.5v10.3661a1.5,1.5 0 0,1 -1.5,1.5h-5.9107a1.5,1.5 0 0,1 -1.5-1.5v-10.3661a1.5,1.5 0 0,1 1.5-1.5" fill="#fff" stroke="#000" transform="matrix(-.99892,-.04648,-.04648,.99892,0,0)"/>
<path d="m146.4776,113.6034h5.9107a1.5,1.5 0 0,1 1.5,1.5v10.3661a1.5,1.5 0 0,1 -1.5,1.5h-5.9107a1.5,1.5 0 0,1 -1.5-1.5v-10.3661a1.5,1.5 0 0,1 1.5-1.5" fill="#fff" stroke="#000" transform="matrix(-.93883,.34437,.34437,.93883,0,0)"/>
<path d="m-101.6351,165.7829c-.7239-1.5826 1.2853-2.9009 1.2892-4.7848 1.3087,1.3343 3.6403.9492 4.3215,2.4362 .7262,1.5854-1.2214,2.7633-2.5535,1.7875-.1911,1.7539-2.3781,2.0457-3.0572.5611z"/>
<path d="m-100.1704,161.661 3.0244,5.4757-1.0061.3699-2.0183-5.8456z" fill-rule="evenodd"/>
</g>
</svg>
