<svg viewBox="0 0 512 512" xmlns="http://www.w3.org/2000/svg">

<g transform="matrix(18.68858,0,0,18.68858,-7036.01376,-22487.69526)">
<path d="m 396.267 1220.1 c 0.4267 -0.7323 1.4386 -0.1185 1.0527 0.6076 s -1.4793 0.1246 -1.0527 -0.6076 z" fill="#fff" fill-rule="evenodd"/>
<g transform="matrix(1.05709,-.28325,-.28325,-1.05709,372.05479,2604.66109)">
<path d="m 347.08 1228.69 c 3.7877 -4.3411 0.2523 -11.2931 -5.2297 -9.7446 1.9574 4.6864 -2.0231 8.6634 5.2297 9.7446 z" fill="#fff" fill-rule="evenodd" stroke="#000" stroke-width=".9138"/>
<path d="m 349.239 1228.69 c -3.7877 -4.3411 -0.2523 -11.2931 5.2297 -9.7446 -1.9574 4.6864 2.0231 8.6634 -5.2297 9.7446 z" fill="#fff" fill-rule="evenodd" stroke="#000" stroke-width=".9138"/>
<path d="m 348.329 1226.89 c 4.2045 0.02 3.9464 -7.6249 0.0882 -9.5823 -4.0232 1.786 -4.3621 9.5618 -0.0882 9.5823 z" fill="#fff" fill-rule="evenodd" stroke="#000" stroke-width=".9138"/>
</g>
<path d="m 319.013 1205.4 c 0 0.7585 -0.6148 1.3733 -1.3733 1.3733 s -1.3733 -0.6148 -1.3733 -1.3733 0.6148 -1.3733 1.3733 -1.3733 1.3733 0.6149 1.3733 1.3733 z" fill="#fff" stroke="#000" stroke-width=".887" transform="matrix(1.30951,-.35088,.24267,.90564,-316.30793,227.61446)"/>
<path d="m 391.788 1208.56 c -2.2477 -5.2304 -12.4429 -2.6813 -6.9495 7.4233 2.3701 4.3596 4.0549 10.0644 1.4996 14.1435 h -4.9653 c 4.6356 -4.0025 4.0529 -8.6669 1.8637 -13.3408 -6.8434 -14.6106 8.7625 -14.8564 9.8677 -8.8131" fill="#fff" fill-rule="evenodd"/>
<path d="m 395.75 1228.22 c -0.8041 -0.7978 -1.8982 0.3446 -1.1487 1.1485 s 1.9528 -0.3509 1.1487 -1.1485 z" fill="#fff" fill-rule="evenodd"/>
<path d="m 395.18 1221.25 c 0.005 -1.1327 1.5859 -1.0985 1.6245 0 s -1.629 1.1327 -1.6245 0 z" fill="#fff" fill-rule="evenodd"/>
<path d="m 397.694 1218.5 c 0.005 -1.1327 1.5859 -1.0985 1.6245 0 s -1.629 1.1327 -1.6245 0 z" fill="#fff" fill-rule="evenodd"/>
<path d="m 390.943 1220.42 c 0.5703 -0.9786 1.9227 -0.1583 1.4068 0.8123 s -1.9771 0.1664 -1.4068 -0.8123 z" fill="#fff" fill-rule="evenodd"/>
<path d="m 384.379 1222.69 c 0.1802 2.7944 -0.9764 5.5634 -3.538 6.72" fill="none" stroke="#000"/>
<path d="m 377.107 1230.2 h 26.2502" fill="none" stroke="#000"/>
<path d="m 402.821 1226 c -0.005 1.1327 -1.5859 1.0985 -1.6245 0 s 1.629 -1.1327 1.6245 0 z" fill="#fff" fill-rule="evenodd"/>
<path d="m 378.906 1212.69 c -0.5448 -0.01 -1.0821 0.072 -1.5938 0.2188 v 1.9062 c 2.2395 -0.7067 4.9967 0.2094 6.9688 4.5625 l 1.6562 -0.9687 c -2.2272 -4.135 -4.7397 -5.6841 -7.0312 -5.7188 z" fill="#fff" fill-rule="evenodd"/>
<path d="m 390.163 1226.63 c 0.005 -1.1327 1.5859 -1.0985 1.6245 0 s -1.629 1.1327 -1.6245 0 z" fill="#fff" fill-rule="evenodd"/>
<path d="m 377.312 1225.54 v -1.4639 c 1.7199 0.5427 3.6639 -1.3757 2.6621 -3.0991 2.8144 1.3357 0.1775 5.652 -2.6621 4.563 z" fill="#fff" fill-rule="evenodd"/>
<path d="m 392.829 1224.23 c 0.4267 -0.7323 1.4386 -0.1185 1.0527 0.6076 s -1.4793 0.1246 -1.0527 -0.6076 z" fill="#fff" fill-rule="evenodd"/>
<path d="m 398.26 1226.66 c 0.7357 -0.4208 1.3052 0.6168 0.6078 1.0526 s -1.3434 -0.6317 -0.6078 -1.0526 z" fill="#fff" fill-rule="evenodd"/>
<path d="m 398.026 1224.29 c -0.006 1.4226 -1.9918 1.3796 -2.0402 0 s 2.0459 -1.4226 2.0402 0 z" fill="#fff" fill-rule="evenodd"/>
<path d="m 400.234 1222.23 c 0.7357 -0.4208 1.3052 0.6168 0.6078 1.0526 s -1.3434 -0.6317 -0.6078 -1.0526 z" fill="#fff" fill-rule="evenodd"/>
<path d="m 400.726 1219.78 c 0.7357 -0.4208 1.3052 0.6168 0.6078 1.0526 s -1.3434 -0.6317 -0.6078 -1.0526 z" fill="#fff" fill-rule="evenodd"/>
<path d="m 401.866 1228.09 c -0.7357 -0.4208 -1.3052 0.6168 -0.6078 1.0526 s 1.3434 -0.6317 0.6078 -1.0526 z" fill="#fff" fill-rule="evenodd"/>
</g>
</svg>
