<svg viewBox="0 0 512 512" xmlns="http://www.w3.org/2000/svg">

<g transform="matrix(18.68858,0,0,18.68858,-7036.01376,-22487.69526)">
<path d="m396.2665,1220.102c.4267-.7323 1.4386-.1185 1.0527.6076s-1.4793.1246-1.0527-.6076z" fill="#fff" fill-rule="evenodd"/>
<g transform="matrix(1.05709,-.28325,-.28325,-1.05709,372.05479,2604.66109)">
<path d="m347.0802,1228.6879c3.7877-4.3411.2523-11.2931-5.2297-9.7446 1.9574,4.6864-2.0231,8.6634 5.2297,9.7446z" fill="#fff" fill-rule="evenodd" stroke="#000" stroke-width=".9138"/>
<path d="m349.2394,1228.6879c-3.7877-4.3411-.2523-11.2931 5.2297-9.7446-1.9574,4.6864 2.0231,8.6634-5.2297,9.7446z" fill="#fff" fill-rule="evenodd" stroke="#000" stroke-width=".9138"/>
<path d="m348.3289,1226.8909c4.2045.02 3.9464-7.6249.0882-9.5823-4.0232,1.786-4.3621,9.5618-.0882,9.5823z" fill="#fff" fill-rule="evenodd" stroke="#000" stroke-width=".9138"/>
</g>
<path d="m319.0127,1205.3972c0,.7585-.6148,1.3733-1.3733,1.3733s-1.3733-.6148-1.3733-1.3733 .6148-1.3733 1.3733-1.3733 1.3733.6149 1.3733,1.3733z" fill="#fff" stroke="#000" stroke-width=".887" transform="matrix(1.30951,-.35088,.24267,.90564,-316.30793,227.61446)"/>
<path d="m391.7877,1208.5589c-2.2477-5.2304-12.4429-2.6813-6.9495,7.4233 2.3701,4.3596 4.0549,10.0644 1.4996,14.1435h-4.9653c4.6356-4.0025 4.0529-8.6669 1.8637-13.3408-6.8434-14.6106 8.7625-14.8564 9.8677-8.8131" fill="#fff" fill-rule="evenodd"/>
<path d="m395.7505,1228.2202c-.8041-.7978-1.8982.3446-1.1487,1.1485s1.9528-.3509 1.1487-1.1485z" fill="#fff" fill-rule="evenodd"/>
<path d="m395.18,1221.2517c.005-1.1327 1.5859-1.0985 1.6245,0s-1.629,1.1327-1.6245,0z" fill="#fff" fill-rule="evenodd"/>
<path d="m397.6943,1218.4978c.005-1.1327 1.5859-1.0985 1.6245,0s-1.629,1.1327-1.6245,0z" fill="#fff" fill-rule="evenodd"/>
<path d="m390.9434,1220.421c.5703-.9786 1.9227-.1583 1.4068.8123s-1.9771.1664-1.4068-.8123z" fill="#fff" fill-rule="evenodd"/>
<path d="m384.3786,1222.6913c.1802,2.7944-.9764,5.5634-3.538,6.72" fill="none" stroke="#000"/>
<path d="m377.1072,1230.2009h26.2502" fill="none" stroke="#000"/>
<path d="m402.8208,1225.9998c-.005,1.1327-1.5859,1.0985-1.6245,0s1.629-1.1327 1.6245,0z" fill="#fff" fill-rule="evenodd"/>
<path d="m378.9062,1212.6875c-.5448-.01-1.0821.072-1.5938.2188v1.9062c2.2395-.7067 4.9967.2094 6.9688,4.5625l1.6562-.9687c-2.2272-4.135-4.7397-5.6841-7.0312-5.7188z" fill="#fff" fill-rule="evenodd"/>
<path d="m390.1633,1226.6278c.005-1.1327 1.5859-1.0985 1.6245,0s-1.629,1.1327-1.6245,0z" fill="#fff" fill-rule="evenodd"/>
<path d="m377.3125,1225.5428v-1.4639c1.7199.5427 3.6639-1.3757 2.6621-3.0991 2.8144,1.3357.1775,5.652-2.6621,4.563z" fill="#fff" fill-rule="evenodd"/>
<path d="m392.8295,1224.2349c.4267-.7323 1.4386-.1185 1.0527.6076s-1.4793.1246-1.0527-.6076z" fill="#fff" fill-rule="evenodd"/>
<path d="m398.2598,1226.6581c.7357-.4208 1.3052.6168.6078,1.0526s-1.3434-.6317-.6078-1.0526z" fill="#fff" fill-rule="evenodd"/>
<path d="m398.0255,1224.2916c-.006,1.4226-1.9918,1.3796-2.0402,0s2.0459-1.4226 2.0402,0z" fill="#fff" fill-rule="evenodd"/>
<path d="m400.2344,1222.2326c.7357-.4208 1.3052.6168.6078,1.0526s-1.3434-.6317-.6078-1.0526z" fill="#fff" fill-rule="evenodd"/>
<path d="m400.7258,1219.7751c.7357-.4208 1.3052.6168.6078,1.0526s-1.3434-.6317-.6078-1.0526z" fill="#fff" fill-rule="evenodd"/>
<path d="m401.8659,1228.0928c-.7357-.4208-1.3052.6168-.6078,1.0526s1.3434-.6317.6078-1.0526z" fill="#fff" fill-rule="evenodd"/>
</g>
</svg>
