<svg viewBox="0 0 512 512" xmlns="http://www.w3.org/2000/svg">

<g transform="matrix(18.68858,0,0,18.68858,-11802.95236,-29938.06892)">
<path d="m 654.14 1603.16 v 0.9688 22 h -1.9375 v -21.0312 h -2 v 21.0312 h -1.9375 v -21.0312 h -2.125 v 21.0312 h -1.9688 v -21.0312 h -1.9688 v 21.0312 h -1.9375 v -21.0312 h -2.0938 v 21.0312 h -1.9375 v -22 -0.9688 h 0.9688 15.9688 0.9688 z" fill="#fff"/>
<path d="m 653.116 1608.73 v 1.9442 h -15.6755 v -1.9442 h 15.6755 z" fill="#fff"/>
<path d="m 653.116 1614.4 v 1.9442 h -15.6755 v -1.9442 h 15.6755 z" fill="#fff"/>
<path d="m 653.116 1620.07 v 1.9444 h -15.6755 v -1.9444 h 15.6755 z" fill="#fff"/>
<path d="m 652.16 1602.61 v 25.0152" fill="none" stroke="#000"/>
<path d="m 648.224 1602.61 v 25.0152" fill="none" stroke="#000"/>
<path d="m 644.128 1602.61 v 25.0152" fill="none" stroke="#000"/>
<path d="m 640.22 1602.61 v 25.0152" fill="none" stroke="#000"/>
<path d="m 636.312 1602.61 v 25.0152" fill="none" stroke="#000"/>
<path d="m 651.875 1625.41 1.6339 3.1063 1.6339 -3.1063" fill="#fff"/>
<path d="m 647.892 1625.41 1.6339 3.1063 1.6339 -3.1063" fill="#fff"/>
<path d="m 643.866 1625.41 1.6339 3.1063 1.6339 -3.1063" fill="#fff"/>
<path d="m 639.883 1625.41 1.6339 3.1063 1.6339 -3.1063" fill="#fff"/>
<path d="m 635.825 1625.41 1.6339 3.1063 1.6339 -3.1063" fill="#fff"/>
</g>
</svg>
