<svg viewBox="0 0 512 512" xmlns="http://www.w3.org/2000/svg">

<g transform="matrix(18.68858,0,0,18.68858,-11802.95236,-29938.06892)">
<path d="m654.1399,1603.1562v.9688 22h-1.9375v-21.0312h-2v21.0312h-1.9375v-21.0312h-2.125v21.0312h-1.9688v-21.0312h-1.9688v21.0312h-1.9375v-21.0312h-2.0938v21.0312h-1.9375v-22-.9688h.9688 15.9688 .9688z" fill="#fff"/>
<path d="m653.1157,1608.7287v1.9442h-15.6755v-1.9442h15.6755z" fill="#fff"/>
<path d="m653.1157,1614.3979v1.9442h-15.6755v-1.9442h15.6755z" fill="#fff"/>
<path d="m653.1157,1620.0684v1.9444h-15.6755v-1.9444h15.6755z" fill="#fff"/>
<path d="m652.16,1602.6141v25.0152" fill="none" stroke="#000"/>
<path d="m648.224,1602.6141v25.0152" fill="none" stroke="#000"/>
<path d="m644.1276,1602.6141v25.0152" fill="none" stroke="#000"/>
<path d="m640.2199,1602.6141v25.0152" fill="none" stroke="#000"/>
<path d="m636.3122,1602.6141v25.0152" fill="none" stroke="#000"/>
<path d="m651.8751,1625.4104 1.6339,3.1063 1.6339-3.1063" fill="#fff"/>
<path d="m647.892,1625.4104 1.6339,3.1063 1.6339-3.1063" fill="#fff"/>
<path d="m643.866,1625.4104 1.6339,3.1063 1.6339-3.1063" fill="#fff"/>
<path d="m639.8829,1625.4104 1.6339,3.1063 1.6339-3.1063" fill="#fff"/>
<path d="m635.8249,1625.4104 1.6339,3.1063 1.6339-3.1063" fill="#fff"/>
</g>
</svg>
