<svg viewBox="0 0 512 512" xmlns="http://www.w3.org/2000/svg">

<g transform="matrix(18.68858,0,0,18.68858,-2952.9186,-25184.03588)">
<path d="m 182.621 1360.24 h -17.2524 c -0.6059 5.7813 -0.8391 11.4037 8.1922 13.0751 9.7821 -2.3644 10.4562 -7.4146 9.0602 -13.0751 z" fill="#fff"/>
<path d="m 178.779 1363.96 c 0 0.7003 -4.2457 1.2679 -9.4831 1.2679 s -9.4831 -0.5676 -9.4831 -1.2679 4.2457 -1.2679 9.4831 -1.2679 9.4831 0.5676 9.4831 1.2679 z" fill="#fff" stroke="#000" stroke-width=".697" transform="matrix(-1.00694,0,0,1.70417,344.64263,-962.86375)"/>
<path d="m 165.664 1350.37 3.3987 5.6306 c 3.6136 -2.3428 8.482 -1.9317 11.6492 1.2335 3.6408 3.6389 3.6397 9.5231 -0.002 13.1632 s -9.53 3.641 -13.1708 0 c -3.1679 -3.1661 -3.5802 -8.0307 -1.2342 -11.6423 l -5.6339 -3.3968 z" fill="none" stroke="#fff"/>
<path d="m 163.039 1348.73 3.1864 5.6759 -1.4936 1.4936 -5.709 -3.1532 4.0162 -4.0163 z" fill="#fff"/>
<path d="m 171.066 1357.8 c 0 0.9775 -1.6912 1.7698 -3.7774 1.7698 s -3.7774 -0.7923 -3.7774 -1.7698 1.6912 -1.7698 3.7774 -1.7698 3.7774 0.7924 3.7774 1.7698 z" fill="#fff" transform="matrix(-1,0,0,1,344.31064,-.47548)"/>
</g>
</svg>
