<svg viewBox="0 0 512 512" xmlns="http://www.w3.org/2000/svg">

<g transform="matrix(18.68858,0,0,18.68858,-2952.9186,-25184.03588)">
<path d="m182.6206,1360.2376h-17.2524c-.6059,5.7813-.8391,11.4037 8.1922,13.0751 9.7821-2.3644 10.4562-7.4146 9.0602-13.0751z" fill="#fff"/>
<path d="m178.7789,1363.9574c0,.7003-4.2457,1.2679-9.4831,1.2679s-9.4831-.5676-9.4831-1.2679 4.2457-1.2679 9.4831-1.2679 9.4831.5676 9.4831,1.2679z" fill="#fff" stroke="#000" stroke-width=".697" transform="matrix(-1.00694,0,0,1.70417,344.64263,-962.86375)"/>
<path d="m165.6644,1350.3697 3.3987,5.6306c3.6136-2.3428 8.482-1.9317 11.6492,1.2335 3.6408,3.6389 3.6397,9.5231-.002,13.1632s-9.53,3.641-13.1708,0c-3.1679-3.1661-3.5802-8.0307-1.2342-11.6423l-5.6339-3.3968z" fill="none" stroke="#fff"/>
<path d="m163.0393,1348.7347 3.1864,5.6759-1.4936,1.4936-5.709-3.1532 4.0162-4.0163z" fill="#fff"/>
<path d="m171.0657,1357.8026c0,.9775-1.6912,1.7698-3.7774,1.7698s-3.7774-.7923-3.7774-1.7698 1.6912-1.7698 3.7774-1.7698 3.7774.7924 3.7774,1.7698z" fill="#fff" transform="matrix(-1,0,0,1,344.31064,-.47548)"/>
</g>
</svg>
