<svg viewBox="0 0 512 512" xmlns="http://www.w3.org/2000/svg">

<g transform="matrix(18.68858,0,0,18.68858,-11803.66285,-31323.86342)">
<path d="m644.3752,1687.4496-8.4741,3.9798c-1.5554-.9754-2.9115-1.3184-3.5123-.7176-.9145.9146.0959,3.7582 2.5122,6.1745s5.3164,3.4832 6.2309,2.5686c.6028-.6028.2465-1.9692-.7365-3.5312z" fill="#fff" stroke="#000"/>
<path d="m654.5887,1689.8964c-4.5161,4.5162-9.8448,4.2354-13.3047.7757s-4.3038-8.2253.7756-13.3047c1.5977-1.5978 5.6977-.088 9.1575,3.3716s4.9693,7.5597 3.3716,9.1574z" fill="#fff" stroke="#000"/>
<path d="m655.5959,1688.1375c0,2.1893-3.9665,3.9641-8.8594,3.9641s-8.8594-1.7748-8.8594-3.9641 3.9665-3.9642 8.8594-3.9642 8.8594,1.7748 8.8594,3.9642z" transform="matrix(.50686,.50686,-.3844,.3844,969.30128,706.9645)"/>
<path d="m651.6631,1697.3657c0,.6858-.5559,1.2416-1.2416,1.2416s-1.2416-.5558-1.2416-1.2416 .5559-1.2416 1.2416-1.2416 1.2416.5559 1.2416,1.2416z" fill="#fff" transform="matrix(.86364,0,0,.86364,90.48214,227.87576)"/>
<path d="m650.4688,1688.0312c1.7874.5924 3.7812,3.1993 3.7812,6.3438v8.6593h2.7272v-8.6593c0-4.4071-1.4229-8.9688-5.5312-8.9688h-4.7272" fill="#fff" stroke="#000"/>
<path d="m653.9537,1690.4371c-1.6064,1.0075-4.2403,1.6645-7.2172,1.6645-4.8929,0-8.8594-1.7748-8.8594-3.9641s3.9665-3.9642 8.8594-3.9642c2.1589,0 4.1374.3455 5.6745.9197" fill="none" stroke="#000" stroke-width="1.6019" transform="matrix(.50686,.50686,-.3844,.3844,969.30128,706.9645)"/>
<path d="m651.6631,1697.3657c0,.6858-.5559,1.2416-1.2416,1.2416s-1.2416-.5558-1.2416-1.2416 .5559-1.2416 1.2416-1.2416 1.2416.5559 1.2416,1.2416z" fill="#fff" transform="matrix(.63636,0,0,.63636,240.20415,616.96052)"/>
<path d="m651.6631,1697.3657c0,.6858-.5559,1.2416-1.2416,1.2416s-1.2416-.5558-1.2416-1.2416 .5559-1.2416 1.2416-1.2416 1.2416.5559 1.2416,1.2416z" fill="#fff" transform="matrix(.63636,0,0,.63636,241.9349,605.10111)"/>
<path d="m651.6631,1697.3657c0,.6858-.5559,1.2416-1.2416,1.2416s-1.2416-.5558-1.2416-1.2416 .5559-1.2416 1.2416-1.2416 1.2416.5559 1.2416,1.2416z" fill="#fff" transform="matrix(.86364,0,0,.86364,95.2178,234.52696)"/>
<path d="m640.2548,1696.2646c-.8192.8178-2.327.2256-3.6217-1.0682s-1.9888-2.6978-1.0672-3.6172" fill="none" stroke="#000"/>
<path d="m641.4576,1693.5765c-.5601.5586-1.591.1541-2.4763-.7299s-1.3598-1.8432-.7296-2.4713" fill="none" stroke="#000"/>
</g>
</svg>
