<svg viewBox="0 0 512 512" xmlns="http://www.w3.org/2000/svg">

<g transform="matrix(18.68858,0,0,18.68858,-11803.66285,-31323.86342)">
<path d="m 644.375 1687.45 -8.4741 3.9798 c -1.5554 -0.9754 -2.9115 -1.3184 -3.5123 -0.7176 -0.9145 0.9146 0.0959 3.7582 2.5122 6.1745 s 5.3164 3.4832 6.2309 2.5686 c 0.6028 -0.6028 0.2465 -1.9692 -0.7365 -3.5312 z" fill="#fff" stroke="#000"/>
<path d="m 654.589 1689.9 c -4.5161 4.5162 -9.8448 4.2354 -13.3047 0.7757 s -4.3038 -8.2253 0.7756 -13.3047 c 1.5977 -1.5978 5.6977 -0.088 9.1575 3.3716 s 4.9693 7.5597 3.3716 9.1574 z" fill="#fff" stroke="#000"/>
<path d="m 655.596 1688.14 c 0 2.1893 -3.9665 3.9641 -8.8594 3.9641 s -8.8594 -1.7748 -8.8594 -3.9641 3.9665 -3.9642 8.8594 -3.9642 8.8594 1.7748 8.8594 3.9642 z" transform="matrix(.50686,.50686,-.3844,.3844,969.30128,706.9645)"/>
<path d="m 651.663 1697.37 c 0 0.6858 -0.5559 1.2416 -1.2416 1.2416 s -1.2416 -0.5558 -1.2416 -1.2416 0.5559 -1.2416 1.2416 -1.2416 1.2416 0.5559 1.2416 1.2416 z" fill="#fff" transform="matrix(.86364,0,0,.86364,90.48214,227.87576)"/>
<path d="m 650.469 1688.03 c 1.7874 0.5924 3.7812 3.1993 3.7812 6.3438 v 8.6593 h 2.7272 v -8.6593 c 0 -4.4071 -1.4229 -8.9688 -5.5312 -8.9688 h -4.7272" fill="#fff" stroke="#000"/>
<path d="m 653.954 1690.44 c -1.6064 1.0075 -4.2403 1.6645 -7.2172 1.6645 -4.8929 0 -8.8594 -1.7748 -8.8594 -3.9641 s 3.9665 -3.9642 8.8594 -3.9642 c 2.1589 0 4.1374 0.3455 5.6745 0.9197" fill="none" stroke="#000" stroke-width="1.6019" transform="matrix(.50686,.50686,-.3844,.3844,969.30128,706.9645)"/>
<path d="m 651.663 1697.37 c 0 0.6858 -0.5559 1.2416 -1.2416 1.2416 s -1.2416 -0.5558 -1.2416 -1.2416 0.5559 -1.2416 1.2416 -1.2416 1.2416 0.5559 1.2416 1.2416 z" fill="#fff" transform="matrix(.63636,0,0,.63636,240.20415,616.96052)"/>
<path d="m 651.663 1697.37 c 0 0.6858 -0.5559 1.2416 -1.2416 1.2416 s -1.2416 -0.5558 -1.2416 -1.2416 0.5559 -1.2416 1.2416 -1.2416 1.2416 0.5559 1.2416 1.2416 z" fill="#fff" transform="matrix(.63636,0,0,.63636,241.9349,605.10111)"/>
<path d="m 651.663 1697.37 c 0 0.6858 -0.5559 1.2416 -1.2416 1.2416 s -1.2416 -0.5558 -1.2416 -1.2416 0.5559 -1.2416 1.2416 -1.2416 1.2416 0.5559 1.2416 1.2416 z" fill="#fff" transform="matrix(.86364,0,0,.86364,95.2178,234.52696)"/>
<path d="m 640.255 1696.26 c -0.8192 0.8178 -2.327 0.2256 -3.6217 -1.0682 s -1.9888 -2.6978 -1.0672 -3.6172" fill="none" stroke="#000"/>
<path d="m 641.458 1693.58 c -0.5601 0.5586 -1.591 0.1541 -2.4763 -0.7299 s -1.3598 -1.8432 -0.7296 -2.4713" fill="none" stroke="#000"/>
</g>
</svg>
