<svg viewBox="0 0 512 512" xmlns="http://www.w3.org/2000/svg">

<g transform="matrix(18.68858,0,0,18.68858,-211.96897,-12278.71125)">
<path d="m14.9337,673.1057c4.7974,3.0591 14.8237,2.7384 20.0019.3251 3.4372-1.6019-3.2305-8.3804-7.8655-11.8627-1.6116-1.2108-2.5452-.7409-3.6901.142-4.868,3.7542-11.3131,9.5674-8.4463,11.3955z" fill="#fff" fill-rule="evenodd"/>
<path d="m15.1854,678.7629c0,1.1225 2.4183,1.1124 2.4183,0s-2.4183-1.0913-2.4183,0z" fill="#fff" fill-rule="evenodd"/>
<path d="m18.6325,679.6026c0,1.1225 2.4183,1.1124 2.4183,0s-2.4183-1.0913-2.4183,0z" fill="#fff" fill-rule="evenodd"/>
<path d="m21.5273,678.2547c0,1.1225 2.4183,1.1124 2.4183,0s-2.4183-1.0913-2.4183,0z" fill="#fff" fill-rule="evenodd"/>
<path d="m23.0299,678.7842c0,1.2866 2.7718,1.275 2.7718,0s-2.7718-1.2508-2.7718,0z" fill="#fff" fill-rule="evenodd"/>
<path d="m28.2949,675.39c0,1.4607 3.1468,1.4475 3.1468,0s-3.1468-1.42-3.1468,0z" fill="#fff" fill-rule="evenodd"/>
<path d="m35.0728,677.2595c0,1.2866 2.7718,1.275 2.7718,0s-2.7718-1.2508-2.7718,0z" fill="#fff" fill-rule="evenodd"/>
<path d="m33.1367,679.4894c0,1.102 2.3741,1.0921 2.3741,0s-2.3741-1.0713-2.3741,0z" fill="#fff" fill-rule="evenodd"/>
<path d="m30.6599,674.0445c0,1.6387 3.5303,1.624 3.5303,0s-3.5303-1.5931-3.5303,0z" fill="#fff" fill-rule="evenodd"/>
<path d="m14.4562,676.1556c0,1.102 2.3741,1.0921 2.3741,0s-2.3741-1.0713-2.3741,0z" fill="#fff" fill-rule="evenodd"/>
<path d="m26.6096,675.3828c0,.9789 2.1089.9701 2.1089,0s-2.1089-.9516-2.1089,0z" fill="#fff" fill-rule="evenodd"/>
<path d="m24.1347,676.7087c0,.9789 2.1089.9701 2.1089,0s-2.1089-.9516-2.1089,0z" fill="#fff" fill-rule="evenodd"/>
<path d="m35.4484,671.4053c0,.9789 2.1089.9701 2.1089,0s-2.1089-.9516-2.1089,0z" fill="#fff" fill-rule="evenodd"/>
<path d="m22.146,675.0735c0,.9789 2.1089.9701 2.1089,0s-2.1089-.9516-2.1089,0z" fill="#fff" fill-rule="evenodd"/>
<path d="m17.6824,674.8967c0,.9789 2.1089.9701 2.1089,0s-2.1089-.9516-2.1089,0z" fill="#fff" fill-rule="evenodd"/>
<path d="m16.224,674.1012c0,.9789 2.1089.9701 2.1089,0s-2.1089-.9516-2.1089,0z" fill="#fff" fill-rule="evenodd"/>
<path d="m13.6607,672.8637c0,.9789 2.1089.9701 2.1089,0s-2.1089-.9516-2.1089,0z" fill="#fff" fill-rule="evenodd"/>
<path d="m12.5558,670.9634c0,.9789 2.1089.9701 2.1089,0s-2.1089-.9516-2.1089,0z" fill="#fff" fill-rule="evenodd"/>
<path d="m12.1581,674.5431c0,.9789 2.1089.9701 2.1089,0s-2.1089-.9516-2.1089,0z" fill="#fff" fill-rule="evenodd"/>
<path d="m13.3071,676.8191c0,.9789 2.1089.9701 2.1089,0s-2.1089-.9516-2.1089,0z" fill="#fff" fill-rule="evenodd"/>
<path d="m17.8591,677.0392c0,1.1533 2.4846,1.1429 2.4846,0s-2.4846-1.1212-2.4846,0z" fill="#fff" fill-rule="evenodd"/>
<path d="m19.3617,676.6203c0,.9789 2.1089.9701 2.1089,0s-2.1089-.9516-2.1089,0z" fill="#fff" fill-rule="evenodd"/>
<path d="m26.7422,678.6974c0,.9789 2.1089.9701 2.1089,0s-2.1089-.9516-2.1089,0z" fill="#fff" fill-rule="evenodd"/>
<path d="m28.2006,678.5206c0,.9789 2.1089.9701 2.1089,0s-2.1089-.9516-2.1089,0z" fill="#fff" fill-rule="evenodd"/>
<path d="m31.3819,677.4135c0,.9789 2.1089.9701 2.1089,0s-2.1089-.9516-2.1089,0z" fill="#fff" fill-rule="evenodd"/>
<path d="m33.1503,675.0734c0,.9789 2.1089.9701 2.1089,0s-2.1089-.9516-2.1089,0z" fill="#fff" fill-rule="evenodd"/>
<path d="m35.9346,673.9244c0,.9789 2.1089.9701 2.1089,0s-2.1089-.9516-2.1089,0z" fill="#fff" fill-rule="evenodd"/>
</g>
</svg>
