<svg viewBox="0 0 512 512" xmlns="http://www.w3.org/2000/svg">

<g transform="matrix(18.68858,0,0,18.68858,-211.96897,-12278.71125)">
<path d="m 14.9337 673.106 c 4.7974 3.0591 14.8237 2.7384 20.0019 0.3251 3.4372 -1.6019 -3.2305 -8.3804 -7.8655 -11.8627 -1.6116 -1.2108 -2.5452 -0.7409 -3.6901 0.142 -4.868 3.7542 -11.3131 9.5674 -8.4463 11.3955 z" fill="#fff" fill-rule="evenodd"/>
<path d="m 15.1854 678.763 c 0 1.1225 2.4183 1.1124 2.4183 0 s -2.4183 -1.0913 -2.4183 0 z" fill="#fff" fill-rule="evenodd"/>
<path d="m 18.6325 679.603 c 0 1.1225 2.4183 1.1124 2.4183 0 s -2.4183 -1.0913 -2.4183 0 z" fill="#fff" fill-rule="evenodd"/>
<path d="m 21.5273 678.255 c 0 1.1225 2.4183 1.1124 2.4183 0 s -2.4183 -1.0913 -2.4183 0 z" fill="#fff" fill-rule="evenodd"/>
<path d="m 23.0299 678.784 c 0 1.2866 2.7718 1.275 2.7718 0 s -2.7718 -1.2508 -2.7718 0 z" fill="#fff" fill-rule="evenodd"/>
<path d="m 28.2949 675.39 c 0 1.4607 3.1468 1.4475 3.1468 0 s -3.1468 -1.42 -3.1468 0 z" fill="#fff" fill-rule="evenodd"/>
<path d="m 35.0728 677.26 c 0 1.2866 2.7718 1.275 2.7718 0 s -2.7718 -1.2508 -2.7718 0 z" fill="#fff" fill-rule="evenodd"/>
<path d="m 33.1367 679.489 c 0 1.102 2.3741 1.0921 2.3741 0 s -2.3741 -1.0713 -2.3741 0 z" fill="#fff" fill-rule="evenodd"/>
<path d="m 30.6599 674.044 c 0 1.6387 3.5303 1.624 3.5303 0 s -3.5303 -1.5931 -3.5303 0 z" fill="#fff" fill-rule="evenodd"/>
<path d="m 14.4562 676.156 c 0 1.102 2.3741 1.0921 2.3741 0 s -2.3741 -1.0713 -2.3741 0 z" fill="#fff" fill-rule="evenodd"/>
<path d="m 26.6096 675.383 c 0 0.9789 2.1089 0.9701 2.1089 0 s -2.1089 -0.9516 -2.1089 0 z" fill="#fff" fill-rule="evenodd"/>
<path d="m 24.1347 676.709 c 0 0.9789 2.1089 0.9701 2.1089 0 s -2.1089 -0.9516 -2.1089 0 z" fill="#fff" fill-rule="evenodd"/>
<path d="m 35.4484 671.405 c 0 0.9789 2.1089 0.9701 2.1089 0 s -2.1089 -0.9516 -2.1089 0 z" fill="#fff" fill-rule="evenodd"/>
<path d="m 22.146 675.073 c 0 0.9789 2.1089 0.9701 2.1089 0 s -2.1089 -0.9516 -2.1089 0 z" fill="#fff" fill-rule="evenodd"/>
<path d="m 17.6824 674.897 c 0 0.9789 2.1089 0.9701 2.1089 0 s -2.1089 -0.9516 -2.1089 0 z" fill="#fff" fill-rule="evenodd"/>
<path d="m 16.224 674.101 c 0 0.9789 2.1089 0.9701 2.1089 0 s -2.1089 -0.9516 -2.1089 0 z" fill="#fff" fill-rule="evenodd"/>
<path d="m 13.6607 672.864 c 0 0.9789 2.1089 0.9701 2.1089 0 s -2.1089 -0.9516 -2.1089 0 z" fill="#fff" fill-rule="evenodd"/>
<path d="m 12.5558 670.963 c 0 0.9789 2.1089 0.9701 2.1089 0 s -2.1089 -0.9516 -2.1089 0 z" fill="#fff" fill-rule="evenodd"/>
<path d="m 12.1581 674.543 c 0 0.9789 2.1089 0.9701 2.1089 0 s -2.1089 -0.9516 -2.1089 0 z" fill="#fff" fill-rule="evenodd"/>
<path d="m 13.3071 676.819 c 0 0.9789 2.1089 0.9701 2.1089 0 s -2.1089 -0.9516 -2.1089 0 z" fill="#fff" fill-rule="evenodd"/>
<path d="m 17.8591 677.039 c 0 1.1533 2.4846 1.1429 2.4846 0 s -2.4846 -1.1212 -2.4846 0 z" fill="#fff" fill-rule="evenodd"/>
<path d="m 19.3617 676.62 c 0 0.9789 2.1089 0.9701 2.1089 0 s -2.1089 -0.9516 -2.1089 0 z" fill="#fff" fill-rule="evenodd"/>
<path d="m 26.7422 678.697 c 0 0.9789 2.1089 0.9701 2.1089 0 s -2.1089 -0.9516 -2.1089 0 z" fill="#fff" fill-rule="evenodd"/>
<path d="m 28.2006 678.521 c 0 0.9789 2.1089 0.9701 2.1089 0 s -2.1089 -0.9516 -2.1089 0 z" fill="#fff" fill-rule="evenodd"/>
<path d="m 31.3819 677.413 c 0 0.9789 2.1089 0.9701 2.1089 0 s -2.1089 -0.9516 -2.1089 0 z" fill="#fff" fill-rule="evenodd"/>
<path d="m 33.1503 675.073 c 0 0.9789 2.1089 0.9701 2.1089 0 s -2.1089 -0.9516 -2.1089 0 z" fill="#fff" fill-rule="evenodd"/>
<path d="m 35.9346 673.924 c 0 0.9789 2.1089 0.9701 2.1089 0 s -2.1089 -0.9516 -2.1089 0 z" fill="#fff" fill-rule="evenodd"/>
</g>
</svg>
