<svg viewBox="0 0 512 512" xmlns="http://www.w3.org/2000/svg">

<g transform="matrix(18.68858,0,0,18.68858,-12483.06769,-19766.01735)">
<path d="m 673.642 1072.03 2.3125 11.9529 h 11.8027 l 2.1323 -11.9529 h -16.2474 z" fill="#fff"/>
<path d="m 686.484 1066.06 c -1.8667 -1.07 -7.814 -0.8839 -9.3561 0 -5.3619 3.1544 -7.5103 8.2987 -7.3685 14.8726 h 24.0446 c 0.1418 -6.5739 -1.9582 -11.7182 -7.32 -14.8726 z" fill="#fff" fill-rule="evenodd" stroke="#000"/>
<path d="m 691.925 1078.81 h 2.0644 v 2.0303 h -2.0644 z"/>
<path d="m 674.62 1077.18 c 0 -1.6983 1.327 -4.3477 2.3438 -5.6089" fill="#fff" fill-rule="evenodd" stroke="#000"/>
<path d="m 690.302 1077.18 h -5.0308 c -0.0682 -2.3846 -1.7895 -3.8987 -3.4903 -3.8987 -1.8993 0 -3.4419 1.6213 -3.4419 3.8987 h -4.8716" fill="#fff" fill-rule="evenodd" stroke="#000"/>
<path d="m 686.857 1071.57 c 1.0168 1.2612 2.3438 3.9106 2.4287 5.6089" fill="#fff" fill-rule="evenodd" stroke="#000"/>
<path d="m 681.758 1073.43 v 7.314" fill="none" stroke="#000"/>
<path d="m 685.512 1064.6 c 0 1.8494 -1.4992 3.3487 -3.3487 3.3487 s -3.3487 -1.4993 -3.3487 -3.3487 1.4992 -3.3487 3.3487 -3.3487 3.3487 1.4993 3.3487 3.3487 z" fill="#fff" stroke="#000" stroke-width=".5785" transform="matrix(1.66257,0,0,1.79752,-452.18442,-849.5063)"/>
<path d="m 678.68 1066.68 c 2.2437 0.6201 4.4217 0.5783 6.5449 0" fill="none" stroke="#000"/>
<path d="m 680.921 1065.6 h 2.0886 v 2.1526 h -2.0886 z" fill="#fff"/>
<path d="m 693.263 1079.41 c 0 0.7388 -0.5989 1.3378 -1.3378 1.3378 s -1.3378 -0.599 -1.3378 -1.3378 0.5989 -1.3378 1.3378 -1.3378 1.3378 0.599 1.3378 1.3378 z" fill="#fff" transform="translate(.0346,-.3227)"/>
<path d="m -671.657 1078.81 h 2.0644 v 2.0303 h -2.0644 z" transform="scale(-1,1)"/>
<path d="m 693.263 1079.41 c 0 0.7388 -0.5989 1.3378 -1.3378 1.3378 s -1.3378 -0.599 -1.3378 -1.3378 0.5989 -1.3378 1.3378 -1.3378 1.3378 0.599 1.3378 1.3378 z" fill="#fff" transform="matrix(-1,0,0,1,1363.547,-.32269)"/>
</g>
</svg>
