<svg viewBox="0 0 512 512" xmlns="http://www.w3.org/2000/svg">

<g transform="matrix(18.68858,0,0,18.68858,-12483.06769,-19766.01735)">
<path d="m673.6419,1072.0262 2.3125,11.9529h11.8027l2.1323-11.9529h-16.2474z" fill="#fff"/>
<path d="m686.4835,1066.0636c-1.8667-1.07-7.814-.8839-9.3561,0-5.3619,3.1544-7.5103,8.2987-7.3685,14.8726h24.0446c.1418-6.5739-1.9582-11.7182-7.32-14.8726z" fill="#fff" fill-rule="evenodd" stroke="#000"/>
<path d="m691.9251,1078.8062h2.0644v2.0303h-2.0644z"/>
<path d="m674.6202,1077.182c0-1.6983 1.327-4.3477 2.3438-5.6089" fill="#fff" fill-rule="evenodd" stroke="#000"/>
<path d="m690.3024,1077.182h-5.0308c-.0682-2.3846-1.7895-3.8987-3.4903-3.8987-1.8993,0-3.4419,1.6213-3.4419,3.8987h-4.8716" fill="#fff" fill-rule="evenodd" stroke="#000"/>
<path d="m686.857,1071.5731c1.0168,1.2612 2.3438,3.9106 2.4287,5.6089" fill="#fff" fill-rule="evenodd" stroke="#000"/>
<path d="m681.7578,1073.4348v7.314" fill="none" stroke="#000"/>
<path d="m685.5121,1064.6028c0,1.8494-1.4992,3.3487-3.3487,3.3487s-3.3487-1.4993-3.3487-3.3487 1.4992-3.3487 3.3487-3.3487 3.3487,1.4993 3.3487,3.3487z" fill="#fff" stroke="#000" stroke-width=".5785" transform="matrix(1.66257,0,0,1.79752,-452.18442,-849.5063)"/>
<path d="m678.6803,1066.6768c2.2437.6201 4.4217.5783 6.5449,0" fill="none" stroke="#000"/>
<path d="m680.9209,1065.6045h2.0886v2.1526h-2.0886z" fill="#fff"/>
<path d="m693.263,1079.412c0,.7388-.5989,1.3378-1.3378,1.3378s-1.3378-.599-1.3378-1.3378 .5989-1.3378 1.3378-1.3378 1.3378.599 1.3378,1.3378z" fill="#fff" transform="translate(.0346,-.3227)"/>
<path d="m-671.6566,1078.8062h2.0644v2.0303h-2.0644z" transform="scale(-1,1)"/>
<path d="m693.263,1079.412c0,.7388-.5989,1.3378-1.3378,1.3378s-1.3378-.599-1.3378-1.3378 .5989-1.3378 1.3378-1.3378 1.3378.599 1.3378,1.3378z" fill="#fff" transform="matrix(-1,0,0,1,1363.547,-.32269)"/>
</g>
</svg>
