<svg viewBox="0 0 512 512" xmlns="http://www.w3.org/2000/svg">

<g transform="matrix(18.68858,0,0,18.68858,-5676.23406,-30619.55173)">
<g transform="translate(-400.7366,652.8882)">
<path d="m705.3929,995.2974c2.6827-.5644 5.7116-2.537 7.9848-4.6233 2.9698,1.7201 5.9395,2.1201 8.9093,0 1.6493,1.8697 5.2541,4.1677 8.489,4.6233 0,0-1.8687,4.6283-6.5716,8.4912-3.2663,2.6829-9.6153,2.7739-12.6516,0-4.3913-4.0119-6.1599-8.4912-6.1599-8.4912z" fill="#fff" fill-rule="evenodd"/>
<path d="m731.1615,995.0161c-3.0566,1.4372-6.728,1.6238-9.2945.7513-3.0383,1.7221-5.2297,1.6763-8.0796,0-2.552.5341-6.4471.2575-8.5764-.5948l-.3095.3157c6.7294,7.4258 19.5692,6.5331 26.4835.3263l-.2235-.7986z" fill-rule="evenodd"/>
</g>
<path d="m309.056,1649.7338c-.0761,4.4007.6753,11.9551 2.6541,14.5569l.7708-14.9238c-1.1533.3997-2.3192.4909-3.4249.3669z" fill="#fff" stroke="#000"/>
<path d="m325.1332,1649.7338c.0761,4.4007-.6753,11.9551-2.6541,14.5569l-.7708-14.9238c1.1533.3997 2.3192.4909 3.4249.3669z" fill="#fff" stroke="#000"/>
</g>
</svg>
