<svg viewBox="0 0 512 512" xmlns="http://www.w3.org/2000/svg">

<g transform="matrix(18.68858,0,0,18.68858,-5676.23406,-30619.55173)">
<g transform="translate(-400.7366,652.8882)">
<path d="m 705.393 995.297 c 2.6827 -0.5644 5.7116 -2.537 7.9848 -4.6233 2.9698 1.7201 5.9395 2.1201 8.9093 0 1.6493 1.8697 5.2541 4.1677 8.489 4.6233 0 0 -1.8687 4.6283 -6.5716 8.4912 -3.2663 2.6829 -9.6153 2.7739 -12.6516 0 -4.3913 -4.0119 -6.1599 -8.4912 -6.1599 -8.4912 z" fill="#fff" fill-rule="evenodd"/>
<path d="m 731.162 995.016 c -3.0566 1.4372 -6.728 1.6238 -9.2945 0.7513 -3.0383 1.7221 -5.2297 1.6763 -8.0796 0 -2.552 0.5341 -6.4471 0.2575 -8.5764 -0.5948 l -0.3095 0.3157 c 6.7294 7.4258 19.5692 6.5331 26.4835 0.3263 l -0.2235 -0.7986 z" fill-rule="evenodd"/>
</g>
<path d="m 309.056 1649.73 c -0.0761 4.4007 0.6753 11.9551 2.6541 14.5569 l 0.7708 -14.9238 c -1.1533 0.3997 -2.3192 0.4909 -3.4249 0.3669 z" fill="#fff" stroke="#000"/>
<path d="m 325.133 1649.73 c 0.0761 4.4007 -0.6753 11.9551 -2.6541 14.5569 l -0.7708 -14.9238 c 1.1533 0.3997 2.3192 0.4909 3.4249 0.3669 z" fill="#fff" stroke="#000"/>
</g>
</svg>
