<svg viewBox="0 0 512 512" xmlns="http://www.w3.org/2000/svg">

<g transform="matrix(18.68858,0,0,18.68858,-1590.65257,-30618.88828)">
<g transform="matrix(1.22561,0,0,1.22561,-200.79133,-235.47037)">
<path d="m 240.363 1546.5 c 0.8942 -5.1319 6.9402 -5.1351 7.7977 0 0.9435 5.6503 -8.822 5.8783 -7.7977 0 z" fill="#fff" stroke="#000" stroke-width=".8159"/>
<path d="m 240.491 1539.59 2.0174 3.6282 c 0.8349 0.5727 2.4481 0.7568 3.5979 0.1079 l 2.0174 -3.7361 c -0.9203 -0.2893 -1.8168 -1.0532 -2.8041 0 -0.7592 -0.7483 -1.5185 -0.6146 -2.2778 0 -0.8996 -0.8139 -1.8011 -0.6356 -2.5508 0 z" fill="#fff" stroke="#000" stroke-width=".8159"/>
</g>
<path d="m 91.0366 1647.28 5.4462 2.7765 -1.495 -5.9801 z" fill="#fff"/>
<path d="m 102.085 1644.85 -3.5878 4.9495 -1.388 -6.0059 z" fill="#fff"/>
<path d="m 107.062 1649.64 -6.1048 -0.3186 4.2848 -4.4314 z" fill="#fff"/>
<path d="m 111.529 1648.93 v -4.4929 c -2.765 0.1807 -5.1419 1.8168 -7.5133 3.4735 2.5044 -0.1239 5.0089 -0.4991 7.5133 1.0194 z" fill="#fff"/>
<path d="m 85.5625 1639.06 v 4.5625 c 3.7514 0.2779 6.4624 2.3797 9.3125 4.2188 -1.5191 -3.2489 -3.0677 -6.4741 -5.5312 -8.7813 h -3.7812 z" fill="#fff"/>
<path d="m 101.188 1639 c -1.0309 1.8468 -1.8971 3.7405 -2.6932 5.6856 h 1.8382 c 2.0051 -2.1028 4.0678 -4.0978 6.5834 -5.6856 h -5.7284 z" fill="#fff"/>
<path d="m 85.6194 1645.18 v -6.2673 h 22.5399" fill="none" stroke="#000"/>
</g>
</svg>
