<svg viewBox="0 0 512 512" xmlns="http://www.w3.org/2000/svg">

<g transform="matrix(18.68858,0,0,18.68858,-1590.65257,-30618.88828)">
<g transform="matrix(1.22561,0,0,1.22561,-200.79133,-235.47037)">
<path d="m240.3631,1546.4961c.8942-5.1319 6.9402-5.1351 7.7977,0 .9435,5.6503-8.822,5.8783-7.7977,0z" fill="#fff" stroke="#000" stroke-width=".8159"/>
<path d="m240.4911,1539.5854 2.0174,3.6282c.8349.5727 2.4481.7568 3.5979.1079l2.0174-3.7361c-.9203-.2893-1.8168-1.0532-2.8041,0-.7592-.7483-1.5185-.6146-2.2778,0-.8996-.8139-1.8011-.6356-2.5508,0z" fill="#fff" stroke="#000" stroke-width=".8159"/>
</g>
<path d="m91.0366,1647.2773 5.4462,2.7765-1.495-5.9801z" fill="#fff"/>
<path d="m102.0853,1644.8482-3.5878,4.9495-1.388-6.0059z" fill="#fff"/>
<path d="m107.062,1649.638-6.1048-.3186 4.2848-4.4314z" fill="#fff"/>
<path d="m111.5289,1648.9322v-4.4929c-2.765.1807-5.1419,1.8168-7.5133,3.4735 2.5044-.1239 5.0089-.4991 7.5133,1.0194z" fill="#fff"/>
<path d="m85.5625,1639.0625v4.5625c3.7514.2779 6.4624,2.3797 9.3125,4.2188-1.5191-3.2489-3.0677-6.4741-5.5312-8.7813h-3.7812z" fill="#fff"/>
<path d="m101.1876,1639.004c-1.0309,1.8468-1.8971,3.7405-2.6932,5.6856h1.8382c2.0051-2.1028 4.0678-4.0978 6.5834-5.6856h-5.7284z" fill="#fff"/>
<path d="m85.6194,1645.1849v-6.2673h22.5399" fill="none" stroke="#000"/>
</g>
</svg>
