<svg viewBox="0 0 512 512" xmlns="http://www.w3.org/2000/svg">

<g transform="matrix(18.68858,0,0,18.68858,-2101.95854,-7884.69051)">
<path d="m 132.25 429.831 c 0 2.8132 -2.2805 5.0938 -5.0938 5.0938 s -5.0938 -2.2805 -5.0938 -5.0938 2.2805 -5.0938 5.0938 -5.0938 5.0938 2.2805 5.0938 5.0938 z" fill="none" stroke="#fff" transform="translate(-1.1571,-1.2354)"/>
<path d="m 120.906 422.375 c -1.8046 1.4788 -2.9688 3.7056 -2.9688 6.2188 0 4.4505 3.612 8.0625 8.0625 8.0625 s 8.0625 -3.612 8.0625 -8.0625 c 0 -2.51 -1.168 -4.7399 -2.9688 -6.2188" fill="none" stroke="#fff"/>
<path d="m 116.969 422.219 c -1.2768 1.8037 -2.0312 3.9985 -2.0312 6.375 0 6.1065 4.956 11.0625 11.0625 11.0625 s 11.0625 -4.956 11.0625 -11.0625 c 0 -2.3785 -0.7831 -4.5706 -2.0625 -6.375" fill="none" stroke="#fff"/>
<path d="m 114.455 422.381 h 23.3155" fill="none" stroke="#000"/>
<path d="m 125.711 425.48 c -1.4764 0.1912 -2.629 1.7912 -2.629 3.7222 1e-05 1.0695 0.3678 2.0246 0.9343 2.7051 -3.0704 0.5755 -3.3026 5.7302 -3.3025 9.3489 h 2.1293 l 0.5649 7.5527 h 5.4101 l 0.4997 -7.5527 h 2.0206 c 0 -3.6288 0.0731 -8.8741 -3.2808 -9.3922 0.5421 -0.6774 0.8908 -1.6187 0.8908 -2.6618 -3e-05 -2.0598 -1.3164 -3.7222 -2.9332 -3.7222 -0.1011 0 -0.2057 -0.0127 -0.3042 0 z" fill="#fff" fill-rule="evenodd" stroke="#000"/>
</g>
</svg>
