<svg xmlns="http://www.w3.org/2000/svg" viewBox="0 0 512 512">
<g transform="matrix(15 0 0 15 -524 -44)">
<use width="744.094" height="1052.362" transform="translate(72)"/>
<path fill="#fff" d="m52,4c-8-0-9,7-4,13 0-11 9-3 9-9 0-2-3-4-5-4zm9.75,8.9688c-2.1094,.1348-4.5,1.1562-6.75,3.0312 11,0 3,9 9,9 2,0 4-3 4-5 0-5-2.7344-7.2559-6.25-7.0312zm-21.75,2.0312c-2,0-4,3-4,5-0,8 7,9 13,4-11,0-3-9-9-9zm11.7188,1a4,4 0 0,0 -3.7188,4 4,4 0 0,0 8,0 4,4 0 0,0 -4.2812-4zm4.2812,7c0,11-9,3-9,9 0,2 3,4 5,4 8,0 9-7 4-13z"/>
</g>
</svg>
