<svg viewBox="0 0 512 512" xmlns="http://www.w3.org/2000/svg">

<g transform="matrix(18.68858,0,0,18.68858,-6356.69135,-25182.738)">
<path d="m 695.188 438.862 c 0 6.4548 -3.5398 11.6875 -7.9062 11.6875 s -7.9062 -5.2327 -7.9062 -11.6875 3.5398 -11.6875 7.9062 -11.6875 7.9062 5.2327 7.9062 11.6875 z" fill="#fff" stroke="#000" stroke-width=".8665" transform="matrix(1.1792,0,0,1.12947,-456.15508,865.55098)"/>
<path d="m 353.055 1363.26 c 0 1.5974 -1.3701 2.8924 -3.0603 2.8924 s -3.0603 -1.295 -3.0603 -2.8924 1.3701 -2.8924 3.0603 -2.8924 3.0603 1.295 3.0603 2.8924 z" transform="matrix(1.12698,0,0,1.12698,-44.66532,-175.12483)"/>
<path d="m 356.016 1361.5 c 1.8626 0.6336 5.0954 0.1819 5.6331 -0.1878 -0.5375 2.2353 -5.3313 1.8789 -5.6331 0.1878 z" fill-rule="evenodd"/>
<path d="m 354.394 1367.38 c -2.7616 -0.065 -5.4936 0.6046 -4.7946 2.4197 0.6266 -0.7678 2.513 -1.3419 4.7946 -1.3419 2.2871 0 4.2042 0.5712 4.8259 1.3419 1.1555 -1.931 -2.5791 -2.3664 -4.8259 -2.4197 z"/>
<path d="m 353.503 1363.75 c 0 0.9585 -1.579 1.7354 -3.5268 1.7354 s -3.5268 -0.7769 -3.5268 -1.7354 1.579 -1.7354 3.5268 -1.7354 3.5268 0.777 3.5268 1.7354 z" fill="#fff" transform="matrix(1.12698,.13118,0,1.12698,-44.66532,-221.57542)"/>
<path d="m 357.292 1362.07 v 5.9463" fill="none" stroke="#000"/>
<path d="m 355.392 1367.85 v 6.0169" fill="none" stroke="#000"/>
<path d="m 358.901 1368.86 v 4.865" fill="none" stroke="#000"/>
</g>
</svg>
