<svg viewBox="0 0 512 512" xmlns="http://www.w3.org/2000/svg">

<g transform="matrix(18.68858,0,0,18.68858,-6356.69135,-25182.738)">
<path d="m695.1875,438.8622c0,6.4548-3.5398,11.6875-7.9062,11.6875s-7.9062-5.2327-7.9062-11.6875 3.5398-11.6875 7.9062-11.6875 7.9062,5.2327 7.9062,11.6875z" fill="#fff" stroke="#000" stroke-width=".8665" transform="matrix(1.1792,0,0,1.12947,-456.15508,865.55098)"/>
<path d="m353.055,1363.2633c0,1.5974-1.3701,2.8924-3.0603,2.8924s-3.0603-1.295-3.0603-2.8924 1.3701-2.8924 3.0603-2.8924 3.0603,1.295 3.0603,2.8924z" transform="matrix(1.12698,0,0,1.12698,-44.66532,-175.12483)"/>
<path d="m356.016,1361.4972c1.8626.6336 5.0954.1819 5.6331-.1878-.5375,2.2353-5.3313,1.8789-5.6331.1878z" fill-rule="evenodd"/>
<path d="m354.3945,1367.3752c-2.7616-.065-5.4936.6046-4.7946,2.4197 .6266-.7678 2.513-1.3419 4.7946-1.3419 2.2871,0 4.2042.5712 4.8259,1.3419 1.1555-1.931-2.5791-2.3664-4.8259-2.4197z"/>
<path d="m353.5028,1363.7484c0,.9585-1.579,1.7354-3.5268,1.7354s-3.5268-.7769-3.5268-1.7354 1.579-1.7354 3.5268-1.7354 3.5268.777 3.5268,1.7354z" fill="#fff" transform="matrix(1.12698,.13118,0,1.12698,-44.66532,-221.57542)"/>
<path d="m357.2916,1362.0729v5.9463" fill="none" stroke="#000"/>
<path d="m355.3915,1367.8522v6.0169" fill="none" stroke="#000"/>
<path d="m358.9014,1368.855v4.865" fill="none" stroke="#000"/>
</g>
</svg>
