<svg viewBox="0 0 512 512" xmlns="http://www.w3.org/2000/svg">

<g transform="matrix(18.68858,0,0,18.68858,-11802.45316,-19763.71208)">
<path d="m 634.867 1074.75 c 1.8545 8.8786 19.0379 8.2253 20.6286 0 -6.2783 1.8884 -14.4101 1.7787 -20.6286 0 z" fill="#fff" fill-rule="evenodd"/>
<path d="m 883.016 956.605 h 2.1999 v 3.8461 h -2.1999 z" transform="matrix(.9863,.16496,-.24289,.97005,0,0)"/>
<path d="m 521.844 1144.39 h 2.5462 v 3.0215 h -2.5462 z" transform="matrix(.99386,-.11069,.11069,.99386,0,0)"/>
<path d="m 228.511 1253.19 h 2.2832 v 3.9216 h -2.2832 z" transform="matrix(.91089,-.41266,.35341,.93547,0,0)"/>
<path d="m 496.176 1164.72 h 2.5965 v 4.5219 h -2.5965 z" transform="matrix(.98665,-.16282,.13534,.9908,0,0)"/>
<path d="m 643.852 1072.82 c 0 0.9038 -0.7327 1.6365 -1.6365 1.6365 s -1.6365 -0.7327 -1.6365 -1.6365 0.7327 -1.6365 1.6365 -1.6365 1.6365 0.7326 1.6365 1.6365 z" fill="#fff" transform="matrix(1.15033,0,0,1.15047,-88.96939,-163.94287)"/>
<path d="m 638.604 1071.92 c 0.5373 -1.3383 1.2585 -2.539 2.1963 -3.5771 0.8226 1.0403 1.4858 2.2932 2.008 3.734 l -4.2043 -0.1569 z" fill="#fff" fill-rule="evenodd"/>
<path d="m 834.781 938.54 h 2.1799 v 3.7609 h -2.1799 z" transform="matrix(.98199,.18891,-.19116,.98156,0,0)"/>
<path d="m 645.048 1063.32 c -14.353 -2.8137 -17.1495 22.3386 0 19.9272 19.3636 1.9149 12.4514 -22.9048 0 -19.9272 z" fill="none" stroke="#fff"/>
<path d="m -701.908 1024.43 h 2.5924 v 4.528 h -2.5924 z" transform="matrix(-.99741,-.07187,-.05341,.99857,0,0)"/>
<path d="m 642.623 1059.81 c 1.3506 -0.739 2.7546 -0.8379 4.2054 -0.3755 -1.0314 1.8159 -1.3341 3.7288 -0.8636 5.7449 -3.1177 0.9916 -3.4448 -3.2717 -3.3418 -5.3694 z" fill-rule="evenodd" stroke="#fff"/>
<path d="m 638.005 1064.43 c 1.7597 3.8967 12.6847 3.7967 13.8927 -0.075" fill="none" stroke="#fff"/>
</g>
</svg>
