<svg viewBox="0 0 512 512" xmlns="http://www.w3.org/2000/svg">

<g transform="matrix(18.68858,0,0,18.68858,-11802.45316,-19763.71208)">
<path d="m634.8672,1074.7518c1.8545,8.8786 19.0379,8.2253 20.6286,0-6.2783,1.8884-14.4101,1.7787-20.6286,0z" fill="#fff" fill-rule="evenodd"/>
<path d="m883.0164,956.6054h2.1999v3.8461h-2.1999z" transform="matrix(.9863,.16496,-.24289,.97005,0,0)"/>
<path d="m521.8444,1144.3861h2.5462v3.0215h-2.5462z" transform="matrix(.99386,-.11069,.11069,.99386,0,0)"/>
<path d="m228.5111,1253.1917h2.2832v3.9216h-2.2832z" transform="matrix(.91089,-.41266,.35341,.93547,0,0)"/>
<path d="m496.1758,1164.724h2.5965v4.5219h-2.5965z" transform="matrix(.98665,-.16282,.13534,.9908,0,0)"/>
<path d="m643.8521,1072.8184c0,.9038-.7327,1.6365-1.6365,1.6365s-1.6365-.7327-1.6365-1.6365 .7327-1.6365 1.6365-1.6365 1.6365.7326 1.6365,1.6365z" fill="#fff" transform="matrix(1.15033,0,0,1.15047,-88.96939,-163.94287)"/>
<path d="m638.6041,1071.9213c.5373-1.3383 1.2585-2.539 2.1963-3.5771 .8226,1.0403 1.4858,2.2932 2.008,3.734l-4.2043-.1569z" fill="#fff" fill-rule="evenodd"/>
<path d="m834.7808,938.54h2.1799v3.7609h-2.1799z" transform="matrix(.98199,.18891,-.19116,.98156,0,0)"/>
<path d="m645.0483,1063.3186c-14.353-2.8137-17.1495,22.3386 0,19.9272 19.3636,1.9149 12.4514-22.9048 0-19.9272z" fill="none" stroke="#fff"/>
<path d="m-701.9076,1024.4338h2.5924v4.528h-2.5924z" transform="matrix(-.99741,-.07187,-.05341,.99857,0,0)"/>
<path d="m642.6233,1059.8112c1.3506-.739 2.7546-.8379 4.2054-.3755-1.0314,1.8159-1.3341,3.7288-.8636,5.7449-3.1177.9916-3.4448-3.2717-3.3418-5.3694z" fill-rule="evenodd" stroke="#fff"/>
<path d="m638.005,1064.4296c1.7597,3.8967 12.6847,3.7967 13.8927-.075" fill="none" stroke="#fff"/>
</g>
</svg>
