<svg xmlns="http://www.w3.org/2000/svg" viewBox="0 0 512 512">
<g transform="matrix(18.68858 0 0 18.68858 712.44251 -6704.9601)">
<path fill="#fff" d="m-31.8691,361.6538c-3.0938,2.2702-5.1121,5.9222-5.1121,10.0364 0,6.8799 5.6147,12.4636 12.5328,12.4636s12.5328-5.5837 12.5328-12.4636c0-4.0816-1.994-7.6969-5.0461-9.9708-.6031,2.251-4.1889,3.6121-7.4537-2.0427-2.6195,5.7499-6.8697,4.3278-7.4537,1.9771z"/>
<path fill-rule="evenodd" d="m-35.6526,371.333c-.1125,3.1379 1.0999,6.3351 3.5809,8.4851l.9318-3.4423 2.8485,4.9069 3.7514-4.4726 3.0207,4.7983 3.0031-4.987 1.2502,3.6397c2.4363-1.6966 4.4177-5.8377 4.4824-8.8461l-3.9272,3.3628-1.8626-3.7056-3.4999,4.8123-2.1631-4.3104-2.9155,4.1466-2.85-4.7172-2.7526,3.9778-2.8979-3.6484z"/>
<path d="m715.5037,366.5791c0,.8665-1.2762,1.5689-2.8505,1.5689s-2.8505-.7024-2.8505-1.5689 1.2762-1.5689 2.8505-1.5689 2.8505.7024 2.8505,1.5689z" transform="matrix(-.86603 .37465 .5 .9384 415.56648 -243.13966)"/>
<path d="m715.5037,366.5791c0,.8665-1.2762,1.5689-2.8505,1.5689s-2.8505-.7024-2.8505-1.5689 1.2762-1.5689 2.8505-1.5689 2.8505.7024 2.8505,1.5689z" transform="matrix(.86603 .37465 -.5 .9384 -463.95606 -243.20216)"/>
</g>
</svg>
