<svg viewBox="0 0 512 512" xmlns="http://www.w3.org/2000/svg">

<g transform="matrix(18.68858,0,0,18.68858,712.70666,-14265.89804)">
<path d="m -32.5317 772.494 c -2.0794 2.5527 -3.6457 6.6309 -3.3414 10.3537 3.1779 2.6067 6.4045 2.9279 9.1545 0.5275" fill="#fff" fill-rule="evenodd" stroke="#000"/>
<path d="m -30.1447 768.086 c -1.8515 4.9738 -2.7918 7.0236 -3.3511 12.2979 3.8468 3.6584 10.7995 6.6277 16.3267 4.2173 2.3983 -2.957 4.04 -6.061 4.7001 -9.5601 0.3297 -1.7477 -1.0297 -3.4258 -3.371 -3.5259 -0.9902 -2.623 -3.0558 -2.3115 -4.3 -1.5991 -0.1274 -2.1093 -2.4704 -3.53 -5.0185 -1.7564 -0.8614 -2.7445 -4.2178 -2.1383 -4.9863 -0.0738 z" fill="#fff" fill-rule="evenodd" stroke="#000"/>
<path d="m -29.9693 782.873 3.7174 -11.0007" fill="none" stroke="#000"/>
<path d="m -21.579 773.596 -4.1264 11.0301" fill="none" stroke="#000"/>
<path d="m -17.2733 775.618 -4.2753 9.6149" fill="none" stroke="#000"/>
</g>
</svg>
