<svg viewBox="0 0 512 512" xmlns="http://www.w3.org/2000/svg">

<g transform="matrix(18.68858,0,0,18.68858,3236.13372,-13009.44423)">
<path d="m -160.589 710.414 -1.9922 7.7554 -5.294 3.3119" fill="none" stroke="#fff"/>
<path d="m -159.395 709.635 2.7595 7.2734 5.6979 3.4495" fill="none" stroke="#fff"/>
<path d="m -161.683 709.82 -0.8606 8.2286 -5.5592 2.9584" fill="none" stroke="#fff"/>
<path d="m -160.297 710.691 3.6617 6.2181 5.2559 4.1124" fill="none" stroke="#fff"/>
<path d="m 247.188 714.206 c 0 1.0873 -1.3991 1.9688 -3.125 1.9688 s -3.125 -0.8814 -3.125 -1.9688 1.3991 -1.9688 3.125 -1.9688 3.125 0.8814 3.125 1.9688 z" fill="#fff" stroke="#000" stroke-width=".9463" transform="matrix(.93305,-.0545,-.0243,1.19823,-370.62692,-132.76284)"/>
<path d="m -148.318 704.581 -4.0915 -5.1955 -6.5839 4.9281 -7.9344 -4.8656 -4.0464 6.258" fill="none" stroke="#fff"/>
<path d="m 247 711.612 c 0 2.8305 -1.609 5.125 -3.5938 5.125 s -3.5938 -2.2945 -3.5938 -5.125 1.609 -5.125 3.5938 -5.125 3.5938 2.2945 3.5938 5.125 z" fill="#fff" stroke="#000" stroke-width="1.0029" transform="matrix(.7848,.08175,-.08099,.78753,-293.18057,124.43786)"/>
<path d="m 245.375 705.987 c 0 2.2782 -1.8468 4.125 -4.125 4.125 s -4.125 -1.8468 -4.125 -4.125 1.8468 -4.125 4.125 -4.125 4.125 1.8468 4.125 4.125 z" fill="#fff" stroke="#000" stroke-width="1.3827" transform="matrix(.7209,0,0,.72554,-333.30426,187.30874)"/>
<path d="m 232.562 711.518 c 0 0.7766 -0.6296 1.4062 -1.4062 1.4062 s -1.4062 -0.6296 -1.4062 -1.4062 0.6296 -1.4062 1.4062 -1.4062 1.4062 0.6296 1.4062 1.4062 z" fill="#fff" stroke="#000" stroke-width=".7258" transform="matrix(1.37778,0,0,1.37778,-489.20616,-274.29584)"/>
<path d="m 232.562 711.518 c 0 0.7766 -0.6296 1.4062 -1.4062 1.4062 s -1.4062 -0.6296 -1.4062 -1.4062 0.6296 -1.4062 1.4062 -1.4062 1.4062 0.6296 1.4062 1.4062 z" fill="#fff" stroke="#000" stroke-width=".7258" transform="matrix(1.37778,0,0,1.37778,-466.64366,-274.98334)"/>
<path d="m 232.562 711.518 c 0 0.7766 -0.6296 1.4062 -1.4062 1.4062 s -1.4062 -0.6296 -1.4062 -1.4062 0.6296 -1.4062 1.4062 -1.4062 1.4062 0.6296 1.4062 1.4062 z" fill="#fff" stroke="#000" stroke-width=".7258" transform="matrix(-1.31718,.40413,.40413,1.31718,-133.78784,-309.6898)"/>
<path d="m 232.562 711.518 c 0 0.7766 -0.6296 1.4062 -1.4062 1.4062 s -1.4062 -0.6296 -1.4062 -1.4062 0.6296 -1.4062 1.4062 -1.4062 1.4062 0.6296 1.4062 1.4062 z" fill="#fff" stroke="#000" stroke-width=".7258" transform="matrix(-1.36431,.19215,.19215,1.36431,10.40699,-294.12744)"/>
<path d="m -163.614 717.105 2.3735 1.7119" fill="none" stroke="#000"/>
<path d="m -155.217 715.779 -2.6507 2.2776" fill="none" stroke="#000"/>
<path d="m -152.212 698.19 -0.3977 3.3588" fill="none" stroke="#000"/>
<path d="m -167.37 698.013 1.0165 3.1378" fill="none" stroke="#000"/>
</g>
</svg>
