<svg viewBox="0 0 512 512" xmlns="http://www.w3.org/2000/svg">

<g transform="matrix(18.68858,0,0,18.68858,3236.13372,-13009.44423)">
<path d="m-160.5887,710.4138-1.9922,7.7554-5.294,3.3119" fill="none" stroke="#fff"/>
<path d="m-159.3948,709.6353 2.7595,7.2734 5.6979,3.4495" fill="none" stroke="#fff"/>
<path d="m-161.6825,709.82-.8606,8.2286-5.5592,2.9584" fill="none" stroke="#fff"/>
<path d="m-160.297,710.6906 3.6617,6.2181 5.2559,4.1124" fill="none" stroke="#fff"/>
<path d="m247.1875,714.2059c0,1.0873-1.3991,1.9688-3.125,1.9688s-3.125-.8814-3.125-1.9688 1.3991-1.9688 3.125-1.9688 3.125.8814 3.125,1.9688z" fill="#fff" stroke="#000" stroke-width=".9463" transform="matrix(.93305,-.0545,-.0243,1.19823,-370.62692,-132.76284)"/>
<path d="m-148.318,704.5809-4.0915-5.1955-6.5839,4.9281-7.9344-4.8656-4.0464,6.258" fill="none" stroke="#fff"/>
<path d="m247,711.6122c0,2.8305-1.609,5.125-3.5938,5.125s-3.5938-2.2945-3.5938-5.125 1.609-5.125 3.5938-5.125 3.5938,2.2945 3.5938,5.125z" fill="#fff" stroke="#000" stroke-width="1.0029" transform="matrix(.7848,.08175,-.08099,.78753,-293.18057,124.43786)"/>
<path d="m245.375,705.9872c0,2.2782-1.8468,4.125-4.125,4.125s-4.125-1.8468-4.125-4.125 1.8468-4.125 4.125-4.125 4.125,1.8468 4.125,4.125z" fill="#fff" stroke="#000" stroke-width="1.3827" transform="matrix(.7209,0,0,.72554,-333.30426,187.30874)"/>
<path d="m232.5625,711.5184c0,.7766-.6296,1.4062-1.4062,1.4062s-1.4062-.6296-1.4062-1.4062 .6296-1.4062 1.4062-1.4062 1.4062.6296 1.4062,1.4062z" fill="#fff" stroke="#000" stroke-width=".7258" transform="matrix(1.37778,0,0,1.37778,-489.20616,-274.29584)"/>
<path d="m232.5625,711.5184c0,.7766-.6296,1.4062-1.4062,1.4062s-1.4062-.6296-1.4062-1.4062 .6296-1.4062 1.4062-1.4062 1.4062.6296 1.4062,1.4062z" fill="#fff" stroke="#000" stroke-width=".7258" transform="matrix(1.37778,0,0,1.37778,-466.64366,-274.98334)"/>
<path d="m232.5625,711.5184c0,.7766-.6296,1.4062-1.4062,1.4062s-1.4062-.6296-1.4062-1.4062 .6296-1.4062 1.4062-1.4062 1.4062.6296 1.4062,1.4062z" fill="#fff" stroke="#000" stroke-width=".7258" transform="matrix(-1.31718,.40413,.40413,1.31718,-133.78784,-309.6898)"/>
<path d="m232.5625,711.5184c0,.7766-.6296,1.4062-1.4062,1.4062s-1.4062-.6296-1.4062-1.4062 .6296-1.4062 1.4062-1.4062 1.4062.6296 1.4062,1.4062z" fill="#fff" stroke="#000" stroke-width=".7258" transform="matrix(-1.36431,.19215,.19215,1.36431,10.40699,-294.12744)"/>
<path d="m-163.6136,717.1052 2.3735,1.7119" fill="none" stroke="#000"/>
<path d="m-155.2167,715.7793-2.6507,2.2776" fill="none" stroke="#000"/>
<path d="m-152.2115,698.1901-.3977,3.3588" fill="none" stroke="#000"/>
<path d="m-167.3701,698.0133 1.0165,3.1378" fill="none" stroke="#000"/>
</g>
</svg>
