<svg viewBox="0 0 512 512" xmlns="http://www.w3.org/2000/svg">

<g transform="matrix(18.68858,0,0,18.68858,-2951.09208,-19082.89166)">
<path d="m 172.812 1022.33 c -1.7125 0.7603 -1.224 2.9568 -0.4375 3.9062 1.4983 1.8084 -1.6771 2.7906 -2.625 -0.2812 -0.2878 0.943 -1.3127 1.1504 -1.9062 0.4062 -0.3754 -0.4707 -1.0431 -1.6917 -0.6562 -2.875 -1.1175 0.7884 -1.695 2.411 -1.0312 3.375 1.5669 2.2755 -0.6279 4.0282 -3.1562 2.1875 1.9507 2.5549 1.1326 6.4143 -0.875 7.7188 0.7857 -1.7145 0.4423 -4.7191 -1.1875 -5.3125 0.8501 2.5175 -1.2592 4.3935 -2.2812 3.3125 v 13.5146 h 26.25 v -12.2959 c -0.3444 -1.6615 -0.9439 -4.443 -2.25 -4.8437 1.043 2.1386 0.0684 6.922 -3.3125 7.5625 1.4295 -1.1977 2.4198 -4.2009 1.875 -5.4375 -1.8615 2.5463 -4.2338 0.1368 -1.8438 -2.3125 1.5879 -1.6274 2.1369 -3.6819 0.5625 -5.9375 0.4871 2.1503 -2.0209 4.5442 -3.739 3.0312 -1.1601 -1.0215 -0.5482 -3.2591 1.2703 -3.8437 -1.4423 -0.4995 -2.5534 0.1505 -2.8125 1.1562 -0.9451 -0.9145 -2.185 -1.5132 -1.8438 -3.0312 z" fill="#fff" fill-rule="evenodd"/>
<path d="m 182.288 1047.91 c -0.5212 -3.3693 -2.0568 -5.4378 -6.4692 -6.1321 1.1148 -1.397 1.7886 -3.3719 1.7886 -5.5229 -2e-05 -4.2477 -2.6881 -7.694 -6.0126 -7.694 s -6.0126 3.4462 -6.0126 7.694 c 0 2.2057 0.738 4.1956 1.9027 5.5991 -4.0382 0.7599 -5.6581 2.7707 -6.317 6.0559" fill-rule="evenodd" stroke="#fff"/>
<path d="m 162.246 1027.52 c -1.2437 -2.4875 3.4547 -3.0783 0.2574 -5.2978 -0.1194 1.6907 -5.0945 2.4192 -0.2574 5.2978 z" fill="#fff" fill-rule="evenodd"/>
<path d="m 158.471 1021.64 h 26.4314 v 26.4314 h -26.4314 z" fill="none" stroke="#000"/>
<path d="m 167.29 1036.03 c 0.7808 1.5814 2.1339 1.3747 3.6349 0.7058 -0.8457 -1.244 -2.208 -2.0822 -3.6349 -0.7058 z" fill="#fff" fill-rule="evenodd"/>
<path d="m 175.701 1036.03 c -0.7808 1.5814 -2.1339 1.3747 -3.6349 0.7058 0.8457 -1.244 2.208 -2.0822 3.6349 -0.7058 z" fill="#fff" fill-rule="evenodd"/>
<path d="m 168.452 1039.87 c 1.0322 3.2836 5.4006 3.2479 6.511 0 -2.2588 0.4588 -4.3188 0.5142 -6.511 0 z" fill="#fff"/>
</g>
</svg>
