<svg viewBox="0 0 512 512" xmlns="http://www.w3.org/2000/svg">

<g transform="matrix(18.68858,0,0,18.68858,-12488.93532,-38099.89176)">
<path d="m 653.798 2057.24 c 0 1.2933 -4.2423 2.3416 -9.4753 2.3416 s -9.4753 -1.0483 -9.4753 -2.3416 4.2423 -2.3416 9.4753 -2.3416 9.4753 1.0484 9.4753 2.3416 z" fill="#fff" transform="matrix(1.13224,0,0,.94294,-47.44208,116.76433)"/>
<path d="m 653.798 2057.24 c 0 1.2933 -4.2423 2.3416 -9.4753 2.3416 s -9.4753 -1.0483 -9.4753 -2.3416 4.2423 -2.3416 9.4753 -2.3416 9.4753 1.0484 9.4753 2.3416 z" transform="matrix(.9805,0,0,.769,50.32966,473.90413)"/>
<path d="m 643.25 2044.5 c -1.654 0.088 -3.6261 0.6605 -5.25 1.875 l 0.9375 9.125 -0.1127 2.881 2.7472 0.6003 0.928 -1.7938 0.9627 2.0399 c 3.7656 0.7204 6.7084 0.4253 8.2248 -0.4462 0.5056 -2.9795 -1.5729 -6.895 -6.3438 -5.1874 l 1.25 -7.2188 c 0.3767 -1.2889 -1.2172 -1.9882 -3.3438 -1.875 z" fill="#fff" transform="matrix(1.12361,-.08083,.08083,1.12361,-209.09448,-205.33964)"/>
<path d="m 674.502 2053.48 c 4.7425 1.9092 13.304 2.0465 15.1932 -0.2711" fill="none" stroke="#000"/>
<path d="m 683.906 2049.3 c -1.1981 0.2288 -2.5083 0.8451 -3.7679 1.7671 1.1751 -1.7034 2.6172 -2.6877 3.9762 -3.0111"/>
<path d="m 686.291 2057.77 5.3485 2.4891 -2.7448 2.1281 5.3617 3.1174 h -6.839 l -3.6411 -3.5512 3.5791 -1.9113 -2.9082 -1.8382" fill="#fff"/>
<path d="m 677.362 2057.74 -4.6537 2.1918 1.4249 1.1242 -5.0545 2.147 v 2.2896 h 6.7105 l 3.1734 -3.3591 -2.1648 -2.1905 2.5229 -1.6506 z" fill="#fff"/>
<path d="m 691.51 2056.11 2.355 0.843 1.2604 1.3507" fill="none" stroke="#fff"/>
<path d="m 672.309 2056.27 -2.0361 0.9952 -1.5398 -0.9826" fill="none" stroke="#fff"/>
<path d="m 675.642 2059.55 6.8946 6.2504" fill="none" stroke="#fff"/>
<path d="m 668.982 2051.5 h 26.382" fill="none" stroke="#fff"/>
<path d="m 668.777 2039.28 h 26.4314 v 26.4314 h -26.4314 z" fill="none" stroke="#000"/>
<path d="m 689.881 2053.15 c -0.2374 -1.4932 -1.1647 -2.6443 -2.2624 -3.6812" fill="none" stroke="#000"/>
<path d="m 674.379 2053.3 c 0.2356 -1.5038 -0.2915 -2.8557 -1.0163 -4.1414" fill="none" stroke="#000"/>
<path d="m 678.491 2042.34 c 1.4837 -0.3052 2.9674 -0.2771 4.451 0.1861" fill="none" stroke="#000"/>
<path d="m 678.874 2045.12 c 1.3568 -0.3029 2.7137 -0.3851 4.0705 0.2459" fill="none" stroke="#000"/>
<path d="m 679.176 2047.92 c 1.0222 -0.2626 2.47 -0.2467 3.3789 0.087" fill="none" stroke="#000"/>
</g>
</svg>
