<svg viewBox="0 0 512 512" xmlns="http://www.w3.org/2000/svg">

<g transform="matrix(18.68858,0,0,18.68858,-12488.93532,-38099.89176)">
<path d="m653.7983,2057.238c0,1.2933-4.2423,2.3416-9.4753,2.3416s-9.4753-1.0483-9.4753-2.3416 4.2423-2.3416 9.4753-2.3416 9.4753,1.0484 9.4753,2.3416z" fill="#fff" transform="matrix(1.13224,0,0,.94294,-47.44208,116.76433)"/>
<path d="m653.7983,2057.238c0,1.2933-4.2423,2.3416-9.4753,2.3416s-9.4753-1.0483-9.4753-2.3416 4.2423-2.3416 9.4753-2.3416 9.4753,1.0484 9.4753,2.3416z" transform="matrix(.9805,0,0,.769,50.32966,473.90413)"/>
<path d="m643.25,2044.5c-1.654.088-3.6261.6605-5.25,1.875l.9375,9.125-.1127,2.881 2.7472.6003 .928-1.7938 .9627,2.0399c3.7656.7204 6.7084.4253 8.2248-.4462 .5056-2.9795-1.5729-6.895-6.3438-5.1874l1.25-7.2188c.3767-1.2889-1.2172-1.9882-3.3438-1.875z" fill="#fff" transform="matrix(1.12361,-.08083,.08083,1.12361,-209.09448,-205.33964)"/>
<path d="m674.5022,2053.4849c4.7425,1.9092 13.304,2.0465 15.1932-.2711" fill="none" stroke="#000"/>
<path d="m683.9057,2049.299c-1.1981.2288-2.5083.8451-3.7679,1.7671 1.1751-1.7034 2.6172-2.6877 3.9762-3.0111"/>
<path d="m686.2914,2057.7741 5.3485,2.4891-2.7448,2.1281 5.3617,3.1174h-6.839l-3.6411-3.5512 3.5791-1.9113-2.9082-1.8382" fill="#fff"/>
<path d="m677.3623,2057.7417-4.6537,2.1918 1.4249,1.1242-5.0545,2.147v2.2896h6.7105l3.1734-3.3591-2.1648-2.1905 2.5229-1.6506z" fill="#fff"/>
<path d="m691.5103,2056.1087 2.355.843 1.2604,1.3507" fill="none" stroke="#fff"/>
<path d="m672.3094,2056.2742-2.0361.9952-1.5398-.9826" fill="none" stroke="#fff"/>
<path d="m675.6416,2059.5549 6.8946,6.2504" fill="none" stroke="#fff"/>
<path d="m668.9821,2051.5023h26.382" fill="none" stroke="#fff"/>
<path d="m668.7767,2039.2764h26.4314v26.4314h-26.4314z" fill="none" stroke="#000"/>
<path d="m689.8806,2053.1511c-.2374-1.4932-1.1647-2.6443-2.2624-3.6812" fill="none" stroke="#000"/>
<path d="m674.3794,2053.3044c.2356-1.5038-.2915-2.8557-1.0163-4.1414" fill="none" stroke="#000"/>
<path d="m678.4912,2042.3437c1.4837-.3052 2.9674-.2771 4.451.1861" fill="none" stroke="#000"/>
<path d="m678.8736,2045.1154c1.3568-.3029 2.7137-.3851 4.0705.2459" fill="none" stroke="#000"/>
<path d="m679.1755,2047.9209c1.0222-.2626 2.47-.2467 3.3789.087" fill="none" stroke="#000"/>
</g>
</svg>
