<svg viewBox="0 0 512 512" xmlns="http://www.w3.org/2000/svg">

<g transform="matrix(18.68858,0,0,18.68858,-1590.99338,-19081.98501)">
<path d="m90.5694,1041.6301h16.5177c1.4997,0 1.4733,2.1505 0,2.1505h-16.5177c-1.5269,0-1.5093-2.1505 0-2.1505z" fill="#fff"/>
<path d="m87.6625,1026.1023 3.266,17.6953h15.7478l3.266-17.6953-4.6564,7.311-2.8262-6.6317-3.6411,6.2111-3.594-6.2434-2.8733,6.664-4.6888-7.311z" fill="#fff"/>
<path d="m89.5851,1028.4457c0,.9145-.7414,1.6559-1.656,1.6559s-1.656-.7414-1.656-1.6559 .7414-1.656 1.656-1.656 1.656.7414 1.656,1.656z" fill="#fff" transform="matrix(1.03476,0,0,1.03519,-2.99844,-37.84623)"/>
<path d="m89.5851,1028.4457c0,.9145-.7414,1.6559-1.656,1.6559s-1.656-.7414-1.656-1.6559 .7414-1.656 1.656-1.656 1.656.7414 1.656,1.656z" fill="#fff" transform="matrix(1.03476,0,0,1.03519,18.63144,-37.84623)"/>
<path d="m89.5851,1028.4457c0,.9145-.7414,1.6559-1.656,1.6559s-1.656-.7414-1.656-1.6559 .7414-1.656 1.656-1.656 1.656.7414 1.656,1.656z" fill="#fff" transform="matrix(1.1167,0,0,1.11716,4.31706,-122.85639)"/>
<path d="m89.5851,1028.4457c0,.9145-.7414,1.6559-1.656,1.6559s-1.656-.7414-1.656-1.6559 .7414-1.656 1.656-1.656 1.656.7414 1.656,1.656z" fill="#fff" transform="matrix(1.1167,0,0,1.11716,-2.98411,-122.85639)"/>
<path d="m89.5851,1028.4457c0,.9145-.7414,1.6559-1.656,1.6559s-1.656-.7414-1.656-1.6559 .7414-1.656 1.656-1.656 1.656.7414 1.656,1.656z" transform="matrix(-1.09991,0,0,1.10036,201.7709,-97.61201)"/>
<path d="m89.5851,1028.4457c0,.9145-.7414,1.6559-1.656,1.6559s-1.656-.7414-1.656-1.6559 .7414-1.656 1.656-1.656 1.656.7414 1.656,1.656z" transform="matrix(-1.15785,0,0,1.15832,200.71482,-157.56112)"/>
<path d="m89.5851,1028.4457c0,.9145-.7414,1.6559-1.656,1.6559s-1.656-.7414-1.656-1.6559 .7414-1.656 1.656-1.656 1.656.7414 1.656,1.656z" transform="matrix(-1.09991,0,0,1.10036,189.2351,-97.61201)"/>
<path d="m88.7103,1041.1476h20.2207" fill="none" stroke="#000"/>
</g>
</svg>
