<svg viewBox="0 0 512 512" xmlns="http://www.w3.org/2000/svg">

<g transform="matrix(18.68858,0,0,18.68858,-8398.8518,-33369.86221)">
<path d="m452.5543,1791.8075-2.4688,6.9375c-.6483,2.4598 2.9142,3.265 3.5625.9688l1.4062-3.625 2.9375.8125 1.5,8.0937h3.1267v-10.625l-10.0642-2.5625z" fill="#fff" stroke="#000"/>
<path d="m473.7107,1791.8075 2.4688,6.9375c.6483,2.4598-2.9142,3.265-3.5625.9688l-1.4062-3.625-2.9375.8125-1.5,8.0937h-3.1267v-10.625l10.0642-2.5625z" fill="#fff" stroke="#000"/>
<path d="m459.8971,1795.9729h6.4629v9.0887h-6.4629z" fill="#fff"/>
<path d="m29.3565,1146.3989c0,1.4124-1.145,2.5574-2.5574,2.5574s-2.5574-1.145-2.5574-2.5574 1.145-2.5573 2.5574-2.5573 2.5574,1.1449 2.5574,2.5573z" fill="#fff" stroke="#000" stroke-width=".5935" transform="matrix(1.46954,0,0,1.93176,423.77921,-422.32173)"/>
<path d="m461.8137,1794.458-.0002-2.4288" fill="none" stroke="#000"/>
<path d="m466.0826,1804.9612c0,.4896-1.3531.8865-3.0223.8865s-3.0223-.3969-3.0223-.8865 1.3531-.8866 3.0223-.8866 3.0223.397 3.0223.8866z" fill="#fff" transform="matrix(1.06667,0,0,1.06667,-30.80353,-120.16955)"/>
<path d="m466.0826,1804.9612c0,.4896-1.3531.8865-3.0223.8865s-3.0223-.3969-3.0223-.8865 1.3531-.8866 3.0223-.8866 3.0223.397 3.0223.8866z" fill="none" stroke="#fff" stroke-width=".4136" transform="matrix(2.12727,0,0,2.74848,-521.92808,-3155.5577)"/>
<path d="m466.0826,1804.9612c0,.4896-1.3531.8865-3.0223.8865s-3.0223-.3969-3.0223-.8865 1.3531-.8866 3.0223-.8866 3.0223.397 3.0223.8866z" fill="none" stroke="#fff" stroke-width=".2185" transform="matrix(4.02704,0,0,5.20303,-1401.6359,-7585.5676)"/>
<path d="m464.5271,1794.458-.0002-2.4288" fill="none" stroke="#000"/>
</g>
</svg>
