<svg viewBox="0 0 512 512" xmlns="http://www.w3.org/2000/svg">

<g transform="matrix(18.68858,0,0,18.68858,-8398.8518,-33369.86221)">
<path d="m 452.554 1791.81 -2.4688 6.9375 c -0.6483 2.4598 2.9142 3.265 3.5625 0.9688 l 1.4062 -3.625 2.9375 0.8125 1.5 8.0937 h 3.1267 v -10.625 l -10.0642 -2.5625 z" fill="#fff" stroke="#000"/>
<path d="m 473.711 1791.81 2.4688 6.9375 c 0.6483 2.4598 -2.9142 3.265 -3.5625 0.9688 l -1.4062 -3.625 -2.9375 0.8125 -1.5 8.0937 h -3.1267 v -10.625 l 10.0642 -2.5625 z" fill="#fff" stroke="#000"/>
<path d="m 459.897 1795.97 h 6.4629 v 9.0887 h -6.4629 z" fill="#fff"/>
<path d="m 29.3565 1146.4 c 0 1.4124 -1.145 2.5574 -2.5574 2.5574 s -2.5574 -1.145 -2.5574 -2.5574 1.145 -2.5573 2.5574 -2.5573 2.5574 1.1449 2.5574 2.5573 z" fill="#fff" stroke="#000" stroke-width=".5935" transform="matrix(1.46954,0,0,1.93176,423.77921,-422.32173)"/>
<path d="m 461.814 1794.46 -0.0002 -2.4288" fill="none" stroke="#000"/>
<path d="m 466.083 1804.96 c 0 0.4896 -1.3531 0.8865 -3.0223 0.8865 s -3.0223 -0.3969 -3.0223 -0.8865 1.3531 -0.8866 3.0223 -0.8866 3.0223 0.397 3.0223 0.8866 z" fill="#fff" transform="matrix(1.06667,0,0,1.06667,-30.80353,-120.16955)"/>
<path d="m 466.083 1804.96 c 0 0.4896 -1.3531 0.8865 -3.0223 0.8865 s -3.0223 -0.3969 -3.0223 -0.8865 1.3531 -0.8866 3.0223 -0.8866 3.0223 0.397 3.0223 0.8866 z" fill="none" stroke="#fff" stroke-width=".4136" transform="matrix(2.12727,0,0,2.74848,-521.92808,-3155.5577)"/>
<path d="m 466.083 1804.96 c 0 0.4896 -1.3531 0.8865 -3.0223 0.8865 s -3.0223 -0.3969 -3.0223 -0.8865 1.3531 -0.8866 3.0223 -0.8866 3.0223 0.397 3.0223 0.8866 z" fill="none" stroke="#fff" stroke-width=".2185" transform="matrix(4.02704,0,0,5.20303,-1401.6359,-7585.5676)"/>
<path d="m 464.527 1794.46 -0.0002 -2.4288" fill="none" stroke="#000"/>
</g>
</svg>
