<svg viewBox="0 0 512 512" xmlns="http://www.w3.org/2000/svg">

<g transform="matrix(18.68858,0,0,18.68858,-2100.13652,-8506.37685)">
<path d="m 119.041 471.716 c -0.866 -7.7924 5.8624 -15.2813 19.9256 -15.7982 -7.6203 3.0951 -13.2525 12.8691 -19.9256 15.7982 z" fill="#fff" fill-rule="evenodd"/>
<path d="m 117.626 473.632 -2.7232 2.3909 -1.1914 4.5472 0.7781 0.8491 h 9.4825 l 0.7781 -0.8491 -1.1914 -4.5472 -2.5773 -2.3909 h -3.3553 z" fill="#fff"/>
<path d="m 118.694 472.521 c 2.2314 -5.5761 7.2454 -10.4096 11.879 -13.2299" fill="none" stroke="#000"/>
<path d="m 115.061 471.361 h 8.196 v 2.627 h -8.196 z" fill="#fff" stroke="#000"/>
<path d="m 126.257 466.881 -4.0875 1.7401 3.4892 -0.1818" fill-rule="evenodd"/>
<path d="m 134.561 458.543 -3.1309 1.1661 1.8782 0.3977" fill-rule="evenodd"/>
<path d="m 123.456 460.445 -1.0622 3.2565 -0.371 -1.8533" fill-rule="evenodd"/>
<path d="m 126.795 458.561 -1.7814 2.9786 -0.3747 -2.117" fill-rule="evenodd"/>
</g>
</svg>
