<svg viewBox="0 0 512 512" xmlns="http://www.w3.org/2000/svg">

<g transform="matrix(18.68858,0,0,18.68858,-2100.13652,-8506.37685)">
<path d="m119.0407,471.7158c-.866-7.7924 5.8624-15.2813 19.9256-15.7982-7.6203,3.0951-13.2525,12.8691-19.9256,15.7982z" fill="#fff" fill-rule="evenodd"/>
<path d="m117.6261,473.632-2.7232,2.3909-1.1914,4.5472 .7781.8491h9.4825l.7781-.8491-1.1914-4.5472-2.5773-2.3909h-3.3553z" fill="#fff"/>
<path d="m118.6938,472.5206c2.2314-5.5761 7.2454-10.4096 11.879-13.2299" fill="none" stroke="#000"/>
<path d="m115.0606,471.3609h8.196v2.627h-8.196z" fill="#fff" stroke="#000"/>
<path d="m126.2566,466.8812-4.0875,1.7401 3.4892-.1818" fill-rule="evenodd"/>
<path d="m134.5606,458.5432-3.1309,1.1661 1.8782.3977" fill-rule="evenodd"/>
<path d="m123.4558,460.4446-1.0622,3.2565-.371-1.8533" fill-rule="evenodd"/>
<path d="m126.7946,458.5609-1.7814,2.9786-.3747-2.117" fill-rule="evenodd"/>
</g>
</svg>
