<svg viewBox="0 0 512 512" xmlns="http://www.w3.org/2000/svg">

<g transform="matrix(18.68858,0,0,18.68858,-212.55864,-4740.66833)">
<path d="m 37.7258 254.841 c -10.8251 -0.0334 -22.2827 4.0843 -25.5177 17.7483 6.8871 -1.641 6.9844 0.1868 2.7159 7.5134 0.9031 0.675 2.2563 0.7371 3.3117 -0.0834 0.3077 -12.0161 5.5215 -8.8966 6.7393 -7.3814 1.8749 -5.3262 5.7453 -11.0814 12.7509 -17.797 z" fill="#fff" fill-rule="evenodd"/>
<path d="m 29.9369 268.029 c -0.8761 -2.0714 -2.7284 -3.1902 -5.0107 -3.8894 2.2857 -0.4736 4.5984 -1.0099 6.2987 -0.129" fill-rule="evenodd"/>
<path d="m 11.2464 269.201 c 1.2745 -1.8793 5.0844 -2.5499 8.0534 -1.8936 -2.111 -2.0872 -5.1588 -3.0736 -7.0047 -2.5094" fill-rule="evenodd"/>
<path d="m 37.7225 264.404 c -0.4923 -2.3197 -3.7253 -4.746 -6.6644 -5.5624 2.6668 -0.8962 5.7952 -0.343 7.2765 1.0506" fill-rule="evenodd"/>
<path d="m 20.056 259.399 c 1.3972 -0.9085 3.7108 -0.9676 5.3816 0.2914 -0.6005 -2.8363 -1.5952 -4.7751 -3.0948 -5.1527" fill-rule="evenodd"/>
<path d="m 19.1291 271.513 c 1.4663 -7.9793 7.6047 -13.3221 15.0784 -15.3173 -7.0057 3.499 -12.127 8.7183 -15.0784 15.3173 z" fill-rule="evenodd"/>
</g>
</svg>
