<svg viewBox="0 0 512 512" xmlns="http://www.w3.org/2000/svg">

<g transform="matrix(18.68858,0,0,18.68858,-13163.92913,-26545.5323)">
<path d="m 714.062 1439.54 -2.5036 -3.2943 -0.6602 -3.7443 3.2999 -0.5806 3.117 5.5486 z" fill="#fff"/>
<path d="m 721.16 1447.66 -1.684 -10.8838 -3.7921 0.1242 -8.3034 10.5386" stroke="#fff"/>
<path d="m 730.1 1427.57 -9.0444 8.4747 -2.8106 -4.8726 z" fill="#fff"/>
<path d="m 721.212 1447.23 -9.6874 -3.9573 7.3595 -2.5918" fill="none" stroke="#fff"/>
<path d="m 715.062 1432.38 -5.8438 5.4688 1 1.7187 7.625 -2.3125 z" fill="#fff"/>
<path d="m 716.658 1421.28 c -4.126 3.9054 -5.2576 10.2516 -2.2965 15.3853 s 9.0182 7.326 14.4604 5.7022 l -12.164 -21.0875 z" fill="#fff" stroke="#000"/>
<path d="m 718.562 1431.33 c 0 0.7076 -0.5736 1.2813 -1.2812 1.2813 s -1.2812 -0.5737 -1.2812 -1.2813 0.5736 -1.2812 1.2812 -1.2812 1.2812 0.5736 1.2812 1.2812 z" fill="#fff" transform="matrix(.65391,1.13359,-1.13359,.65505,1882.5625,-322.5251)"/>
<path d="m 713.371 1439.81 6.5994 4.3271 -12.2303 3.0853" fill="none" stroke="#fff"/>
<path d="m 704.688 1447.3 h 19.3125" fill="none" stroke="#000"/>
</g>
</svg>
