<svg viewBox="0 0 512 512" xmlns="http://www.w3.org/2000/svg">

<g transform="matrix(18.68858,0,0,18.68858,-8397.75478,-34036.44835)">
<path d="m 294.428 1799.14 c 0 6.6673 -5.405 12.0723 -12.0723 12.0723 s -12.0723 -5.405 -12.0723 -12.0723 5.405 -12.0723 12.0723 -12.0723 12.0723 5.4049 12.0723 12.0723 z" fill="none" stroke="#fff" stroke-width=".9987" transform="matrix(.50067,.86719,.86719,-.50067,-1238.555,2490.8686)"/>
<path d="m 294.428 1799.14 c 0 6.2248 -4.7331 11.4291 -10.93 12.0181 l -1.1423 -12.0181 z" transform="matrix(.50067,.86719,.86719,-.50067,-1238.0455,2489.8138)"/>
<path d="m 294.428 1799.14 c 0 6.6673 -5.405 12.0723 -12.0723 12.0723 s -12.0723 -5.405 -12.0723 -12.0723 5.405 -12.0723 12.0723 -12.0723 12.0723 5.4049 12.0723 12.0723 z" fill="none" stroke="#fff" stroke-width="1.3726" transform="matrix(.36427,.63094,.63094,-.36427,-774.97433,2311.9402)"/>
<path d="m 466.982 1841.99 c 3.9503 -2.1064 6.1058 -6.2888 5.5929 -10.3282 l -10.1559 1.7151 z"/>
<path d="m 294.428 1799.14 c 0 6.6673 -5.405 12.0723 -12.0723 12.0723 s -12.0723 -5.405 -12.0723 -12.0723 5.405 -12.0723 12.0723 -12.0723 12.0723 5.4049 12.0723 12.0723 z" fill="none" stroke="#fff" stroke-width="2.3427" transform="matrix(.21343,.36967,.36967,-.21343,-262.28102,2114.3215)"/>
<path d="m 463.764 1839.31 c 3.206 -0.5382 5.6554 -2.9201 6.2348 -5.8197 l -7.3882 -1.1635 z"/>
<path d="m 464.103 1834.53 c 0 0.6933 -0.562 1.2553 -1.2554 1.2553 s -1.2554 -0.562 -1.2554 -1.2553 0.5621 -1.2554 1.2554 -1.2554 1.2554 0.5621 1.2554 1.2554 z" fill="#fff" transform="matrix(1.33333,0,0,1.33333,-153.82599,-611.54723)"/>
<path d="m 464.978 1834.53 10.5374 -4.5269" fill="none" stroke="#000"/>
<path d="m 474.72 1829.09 -11.0933 5.2961 10.0247 -7.0815 z" fill="#fff" stroke="#fff"/>
</g>
</svg>
