<svg viewBox="0 0 512 512" xmlns="http://www.w3.org/2000/svg">

<g transform="matrix(18.68858,0,0,18.68858,-13163.92913,-26545.5323)">
<path d="m714.0616,1439.5359-2.5036-3.2943-.6602-3.7443 3.2999-.5806 3.117,5.5486z" fill="#fff"/>
<path d="m721.16,1447.6615-1.684-10.8838-3.7921.1242-8.3034,10.5386" stroke="#fff"/>
<path d="m730.0997,1427.566-9.0444,8.4747-2.8106-4.8726z" fill="#fff"/>
<path d="m721.2125,1447.2346-9.6874-3.9573 7.3595-2.5918" fill="none" stroke="#fff"/>
<path d="m715.0625,1432.375-5.8438,5.4688 1,1.7187 7.625-2.3125z" fill="#fff"/>
<path d="m716.6575,1421.2754c-4.126,3.9054-5.2576,10.2516-2.2965,15.3853s9.0182,7.326 14.4604,5.7022l-12.164-21.0875z" fill="#fff" stroke="#000"/>
<path d="m718.5625,1431.3309c0,.7076-.5736,1.2813-1.2812,1.2813s-1.2812-.5737-1.2812-1.2813 .5736-1.2812 1.2812-1.2812 1.2812.5736 1.2812,1.2812z" fill="#fff" transform="matrix(.65391,1.13359,-1.13359,.65505,1882.5625,-322.5251)"/>
<path d="m713.3706,1439.805 6.5994,4.3271-12.2303,3.0853" fill="none" stroke="#fff"/>
<path d="m704.6875,1447.2997h19.3125" fill="none" stroke="#000"/>
</g>
</svg>
