<svg viewBox="0 0 512 512" xmlns="http://www.w3.org/2000/svg">

<g transform="matrix(18.68858,0,0,18.68858,-8397.75478,-34036.44835)">
<path d="m294.4278,1799.1415c0,6.6673-5.405,12.0723-12.0723,12.0723s-12.0723-5.405-12.0723-12.0723 5.405-12.0723 12.0723-12.0723 12.0723,5.4049 12.0723,12.0723z" fill="none" stroke="#fff" stroke-width=".9987" transform="matrix(.50067,.86719,.86719,-.50067,-1238.555,2490.8686)"/>
<path d="m294.4278,1799.1415c0,6.2248-4.7331,11.4291-10.93,12.0181l-1.1423-12.0181z" transform="matrix(.50067,.86719,.86719,-.50067,-1238.0455,2489.8138)"/>
<path d="m294.4278,1799.1415c0,6.6673-5.405,12.0723-12.0723,12.0723s-12.0723-5.405-12.0723-12.0723 5.405-12.0723 12.0723-12.0723 12.0723,5.4049 12.0723,12.0723z" fill="none" stroke="#fff" stroke-width="1.3726" transform="matrix(.36427,.63094,.63094,-.36427,-774.97433,2311.9402)"/>
<path d="m466.9818,1841.9907c3.9503-2.1064 6.1058-6.2888 5.5929-10.3282l-10.1559,1.7151z"/>
<path d="m294.4278,1799.1415c0,6.6673-5.405,12.0723-12.0723,12.0723s-12.0723-5.405-12.0723-12.0723 5.405-12.0723 12.0723-12.0723 12.0723,5.4049 12.0723,12.0723z" fill="none" stroke="#fff" stroke-width="2.3427" transform="matrix(.21343,.36967,.36967,-.21343,-262.28102,2114.3215)"/>
<path d="m463.7637,1839.3055c3.206-.5382 5.6554-2.9201 6.2348-5.8197l-7.3882-1.1635z"/>
<path d="m464.1028,1834.5276c0,.6933-.562,1.2553-1.2554,1.2553s-1.2554-.562-1.2554-1.2553 .5621-1.2554 1.2554-1.2554 1.2554.5621 1.2554,1.2554z" fill="#fff" transform="matrix(1.33333,0,0,1.33333,-153.82599,-611.54723)"/>
<path d="m464.9777,1834.5275 10.5374-4.5269" fill="none" stroke="#000"/>
<path d="m474.7198,1829.0851-11.0933,5.2961 10.0247-7.0815z" fill="#fff" stroke="#fff"/>
</g>
</svg>
