<svg viewBox="0 0 512 512" xmlns="http://www.w3.org/2000/svg">

<g transform="matrix(18.68858,0,0,18.68858,-8398.85199,-26544.86718)">
<path d="m472.603,1432.5289c0,5.6692-4.5957,10.2649-10.2649,10.2649s-10.2649-4.5957-10.2649-10.2649 4.5957-10.2648 10.2649-10.2648 10.2649,4.5957 10.2649,10.2648z" stroke="#fff" stroke-width=".843" transform="matrix(1.18622,0,0,-1.18622,-85.44403,3133.2698)"/>
<path d="m462.7328,1444.6008c-1.6965-.044-3.3864-.4934-4.9625-1.3916l5.12-8.8221 5.1463,8.9272c-1.6269.8693-3.4541,1.3346-5.3038,1.2865zm-10.3188-10.3712c-.0496-1.8949.3744-3.8309 1.3916-5.5928 .9117-1.579 2.1734-2.8333 3.6234-3.7282l5.3826,9.321h-.0263-10.3713zm10.5551,0 5.4351-9.4524c3.4585,2.022 5.3393,5.7062 5.2513,9.4524h-10.6864z" fill="#fff"/>
<path d="m466.9791,1433.5742c0,2.168-1.7575,3.9255-3.9254,3.9255s-3.9254-1.7575-3.9254-3.9255 1.7575-3.9254 3.9254-3.9254 3.9254,1.7575 3.9254,3.9254z" fill="#fff" stroke="#000" stroke-width="1.6253" transform="matrix(.53284,.30764,.30764,-.53284,-224.95128,2055.7917)"/>
</g>
</svg>
