<svg viewBox="0 0 512 512" xmlns="http://www.w3.org/2000/svg">

<g transform="matrix(18.68858,0,0,18.68858,-3389.17905,-1593.74131)">
<path d="m 186.581 94.3306 -4.2757 1.1212 3.1341 3.1395 0.3696 -1.3794 18.1771 4.8705 -0.3696 1.3794 4.2839 -1.1519 -3.1423 -3.1089 -0.4107 1.5327 -18.1771 -4.8705 0.4107 -1.5326 z" fill="#fff"/>
<path d="m 199.668 90.3744 -1.1212 -4.2757 -3.1395 3.1341 1.3794 0.3696 -4.8705 18.1772 -1.3794 -0.3696 1.1519 4.2839 3.1089 -3.1423 -1.5326 -0.4107 4.8705 -18.1771 1.5327 0.4107 z" fill="#fff"/>
<path d="m 192.296 89.6529 -3.8162 -2.2306 -0.004 4.4361 1.2367 -0.714 9.4092 16.2972 -1.2367 0.714 3.8437 2.2147 -0.0236 -4.4202 -1.3741 0.7933 -9.4092 -16.2972 1.3741 -0.7934 z" fill="#fff"/>
<path d="m 204.346 96.0899 2.2306 -3.8162 -4.4361 -0.0039 0.714 1.2367 -16.2972 9.4092 -0.714 -1.2367 -2.2147 3.8437 4.4202 -0.0236 -0.7933 -1.3741 16.2972 -9.4092 0.7934 1.3741 z" fill="#fff"/>
<path d="m 227.158 104.729 c 0 2.6238 -2.127 4.7509 -4.7509 4.7509 s -4.7509 -2.127 -4.7509 -4.7509 2.127 -4.7509 4.7509 -4.7509 4.7509 2.127 4.7509 4.7509 z" fill="#fff" stroke="#fff" stroke-width=".827" transform="matrix(1.16796,.31295,-.31295,1.16796,-31.88529,-93.02599)"/>
<path d="m 194.082 90.8571 -0.8383 4.6323 -4.5292 -1.4887 2.691 3.901 -4.244 2.0371 4.6408 0.9008 -1.5596 4.4752 3.9636 -2.6994 2.0371 4.2439 0.8383 -4.6323 4.4751 1.5596 -2.6284 -3.9095 4.2355 -2.0997 -4.6323 -0.8383 1.4971 -4.4667 -3.9095 2.6285 -2.0371 -4.244 z"/>
</g>
</svg>
