<svg viewBox="0 0 512 512" xmlns="http://www.w3.org/2000/svg">

<g transform="matrix(18.68858,0,0,18.68858,-8398.85199,-26544.86718)">
<path d="m 472.603 1432.53 c 0 5.6692 -4.5957 10.2649 -10.2649 10.2649 s -10.2649 -4.5957 -10.2649 -10.2649 4.5957 -10.2648 10.2649 -10.2648 10.2649 4.5957 10.2649 10.2648 z" stroke="#fff" stroke-width=".843" transform="matrix(1.18622,0,0,-1.18622,-85.44403,3133.2698)"/>
<path d="m 462.733 1444.6 c -1.6965 -0.044 -3.3864 -0.4934 -4.9625 -1.3916 l 5.12 -8.8221 5.1463 8.9272 c -1.6269 0.8693 -3.4541 1.3346 -5.3038 1.2865 z m -10.3188 -10.3712 c -0.0496 -1.8949 0.3744 -3.8309 1.3916 -5.5928 0.9117 -1.579 2.1734 -2.8333 3.6234 -3.7282 l 5.3826 9.321 h -0.0263 -10.3713 z m 10.5551 0 5.4351 -9.4524 c 3.4585 2.022 5.3393 5.7062 5.2513 9.4524 h -10.6864 z" fill="#fff"/>
<path d="m 466.979 1433.57 c 0 2.168 -1.7575 3.9255 -3.9254 3.9255 s -3.9254 -1.7575 -3.9254 -3.9255 1.7575 -3.9254 3.9254 -3.9254 3.9254 1.7575 3.9254 3.9254 z" fill="#fff" stroke="#000" stroke-width="1.6253" transform="matrix(.53284,.30764,.30764,-.53284,-224.95128,2055.7917)"/>
</g>
</svg>
