<svg viewBox="0 0 512 512" xmlns="http://www.w3.org/2000/svg">

<g transform="matrix(18.68858,0,0,18.68858,-5674.69017,-230.9801)">
<path d="m317.3368,12.6186v26.8257" fill="none" stroke="#000"/>
<g transform="translate(579.6394,-38.9291)">
<path d="m-274.8689,52.7959c3.6694-.1749 6.9687,2.2261 9.4314,7.1094 .5368-4.1206 4.8565.0943 5.6988,2.2633 1.3966-1.7716 5.2404-1.6628 4.8837,3.6076 2.7-2.1593 4.9524,1.8272 5.2513,5.8631-1.9995-3.5496-3.6807-3.9434-4.4082-.7053-1.094-3.7896-6.9481-6.4835-6.7762-2.5906-1.9294-3.4005-5.2535-9.701-6.3002-1.2942-.8028-6.2941-2.5992-11.4626-4.5655-7.128-.7857-2.584-1.3763-5.6393-3.2152-7.1254z" fill="#fff" fill-rule="evenodd"/>
<path d="m-267.0553,75.2993c3.1334,0 .1977-5.5887 0-6.8234-.3253,1.2277-3.1314,6.8234 0,6.8234z" fill="#fff" fill-rule="evenodd"/>
<path d="m-271.6338,66.2812c2.6576,0 .1677-3.8862 0-4.7448-.2759.8537-2.6559,4.7448 0,4.7448z" fill="#fff" fill-rule="evenodd"/>
<path d="m-254.0059,75.9027c2.1295,0 .1344-3.2653 0-3.9867-.2211.7173-2.1282,3.9867 0,3.9867z" fill="#fff" fill-rule="evenodd"/>
</g>
</g>
</svg>
