<svg viewBox="0 0 512 512" xmlns="http://www.w3.org/2000/svg">

<g transform="matrix(18.68858,0,0,18.68858,-5674.69017,-230.9801)">
<path d="m 317.337 12.6186 v 26.8257" fill="none" stroke="#000"/>
<g transform="translate(579.6394,-38.9291)">
<path d="m -274.869 52.7959 c 3.6694 -0.1749 6.9687 2.2261 9.4314 7.1094 0.5368 -4.1206 4.8565 0.0943 5.6988 2.2633 1.3966 -1.7716 5.2404 -1.6628 4.8837 3.6076 2.7 -2.1593 4.9524 1.8272 5.2513 5.8631 -1.9995 -3.5496 -3.6807 -3.9434 -4.4082 -0.7053 -1.094 -3.7896 -6.9481 -6.4835 -6.7762 -2.5906 -1.9294 -3.4005 -5.2535 -9.701 -6.3002 -1.2942 -0.8028 -6.2941 -2.5992 -11.4626 -4.5655 -7.128 -0.7857 -2.584 -1.3763 -5.6393 -3.2152 -7.1254 z" fill="#fff" fill-rule="evenodd"/>
<path d="m -267.055 75.2993 c 3.1334 0 0.1977 -5.5887 0 -6.8234 -0.3253 1.2277 -3.1314 6.8234 0 6.8234 z" fill="#fff" fill-rule="evenodd"/>
<path d="m -271.634 66.2812 c 2.6576 0 0.1677 -3.8862 0 -4.7448 -0.2759 0.8537 -2.6559 4.7448 0 4.7448 z" fill="#fff" fill-rule="evenodd"/>
<path d="m -254.006 75.9027 c 2.1295 0 0.1344 -3.2653 0 -3.9867 -0.2211 0.7173 -2.1282 3.9867 0 3.9867 z" fill="#fff" fill-rule="evenodd"/>
</g>
</g>
</svg>
