<svg viewBox="0 0 512 512" xmlns="http://www.w3.org/2000/svg">

<g transform="matrix(18.68858,0,0,18.68858,-2740.74929,-14783.24983)">
<path d="m168.1947,805.1747 3.61,12.6587" fill="none" stroke="#fff"/>
<path d="m164.5241,805.1747 3.61,12.6587" fill="none" stroke="#fff"/>
<path d="m171.4597,807.8227-3.4122,1.0239 .8733,2.2033 3.4122-1.0239-.8733-2.2033z"/>
<path d="m172.7931,812.3653-3.4122,1.0239 .8733,2.2033 3.4122-1.0239-.8733-2.2033z"/>
<path d="m161.1236,805.1747 3.61,12.6587" fill="none" stroke="#fff"/>
<path d="m157.453,805.1747 3.61,12.6587" fill="none" stroke="#fff"/>
<path d="m154.1409,805.1747 3.61,12.6587" fill="none" stroke="#fff"/>
<path d="m150.4703,805.1747 3.61,12.6587" fill="none" stroke="#fff"/>
<path d="m173.2796,817.9563h-26.0781" fill="none" stroke="#000"/>
<path d="m160.3347,807.9165-3.4122,1.0239 .8733,2.2033 3.4122-1.0239-.8733-2.2033z"/>
<path d="m161.7931,813.3965-3.4122,1.0239 .8733,2.2033 3.4122-1.0239-.8733-2.2033z"/>
<path d="m164.2409,809.8852-3.4122,1.0239 .8733,2.2033 3.4122-1.0239-.8733-2.2033z"/>
<path d="m165.6994,815.1465-3.4122,1.0239 .8733,2.2033 3.4122-1.0239-.8733-2.2033z"/>
<path d="m162.6994,804.558-3.4122,1.0239 .8733,2.2033 3.4122-1.0239-.8733-2.2033z"/>
<path d="m166.9181,806.834-3.4122,1.0239 .8733,2.2033 3.4122-1.0239-.8733-2.2033z"/>
<path d="m168.6369,810.834-3.4122,1.0239 .8733,2.2033 3.4122-1.0239-.8733-2.2033z"/>
<path d="m169.2619,814.8653-3.4122,1.0239 .8733,2.2033 3.4122-1.0239-.8733-2.2033z"/>
<path d="m154.3556,813.2715-3.4122,1.0239 .8733,2.2033 3.4122-1.0239-.8733-2.2033z"/>
<path d="m152.6681,808.3653-3.4122,1.0239 .8733,2.2033 3.4122-1.0239-.8733-2.2033z"/>
<path d="m158.6681,815.1465-3.4122,1.0239 .8733,2.2033 3.4122-1.0239-.8733-2.2033z"/>
<path d="m157.5431,811.1778-3.4122,1.0239 .8733,2.2033 3.4122-1.0239-.8733-2.2033z"/>
<path d="m156.1369,807.3028-3.4122,1.0239 .8733,2.2033 3.4122-1.0239-.8733-2.2033z"/>
<path d="m162.9742,791.572c3.18,0 5.775,2.544 5.8106,5.7193 .1734-.0218.3431-.0326.5223-.0326 2.3327,0 4.2437,1.8805 4.2437,4.2159s-1.911,4.2486-4.2437,4.2486c-1.1333,0-2.1462-.4487-2.9053-1.1765-.5901.6449-1.4412,1.0458-2.383,1.0458-1.1651,0-2.1747-.6086-2.7421-1.536-.8743,1.4518-2.4281,2.4184-4.2437,2.4184-1.5678,0-2.9688-.7303-3.8847-1.8628-.5703.9139-1.5872,1.536-2.7421,1.536-1.7814,0-3.2318-1.4521-3.2318-3.2355 0-1.6388 1.2271-2.9939 2.8074-3.2028-.1045-.368-.1959-.7425-.1959-1.1439 0-2.3354 1.911-4.2486 4.2437-4.2486 1.3601,0 2.5566.6665 3.3297,1.6667 .6278-2.5281 2.8962-4.412 5.6148-4.412z" fill="#fff" stroke="#000"/>
</g>
</svg>
