<svg viewBox="0 0 512 512" xmlns="http://www.w3.org/2000/svg">

<g transform="matrix(18.68858,0,0,18.68858,-2740.74929,-14783.24983)">
<path d="m 168.195 805.175 3.61 12.6587" fill="none" stroke="#fff"/>
<path d="m 164.524 805.175 3.61 12.6587" fill="none" stroke="#fff"/>
<path d="m 171.46 807.823 -3.4122 1.0239 0.8733 2.2033 3.4122 -1.0239 -0.8733 -2.2033 z"/>
<path d="m 172.793 812.365 -3.4122 1.0239 0.8733 2.2033 3.4122 -1.0239 -0.8733 -2.2033 z"/>
<path d="m 161.124 805.175 3.61 12.6587" fill="none" stroke="#fff"/>
<path d="m 157.453 805.175 3.61 12.6587" fill="none" stroke="#fff"/>
<path d="m 154.141 805.175 3.61 12.6587" fill="none" stroke="#fff"/>
<path d="m 150.47 805.175 3.61 12.6587" fill="none" stroke="#fff"/>
<path d="m 173.28 817.956 h -26.0781" fill="none" stroke="#000"/>
<path d="m 160.335 807.917 -3.4122 1.0239 0.8733 2.2033 3.4122 -1.0239 -0.8733 -2.2033 z"/>
<path d="m 161.793 813.396 -3.4122 1.0239 0.8733 2.2033 3.4122 -1.0239 -0.8733 -2.2033 z"/>
<path d="m 164.241 809.885 -3.4122 1.0239 0.8733 2.2033 3.4122 -1.0239 -0.8733 -2.2033 z"/>
<path d="m 165.699 815.146 -3.4122 1.0239 0.8733 2.2033 3.4122 -1.0239 -0.8733 -2.2033 z"/>
<path d="m 162.699 804.558 -3.4122 1.0239 0.8733 2.2033 3.4122 -1.0239 -0.8733 -2.2033 z"/>
<path d="m 166.918 806.834 -3.4122 1.0239 0.8733 2.2033 3.4122 -1.0239 -0.8733 -2.2033 z"/>
<path d="m 168.637 810.834 -3.4122 1.0239 0.8733 2.2033 3.4122 -1.0239 -0.8733 -2.2033 z"/>
<path d="m 169.262 814.865 -3.4122 1.0239 0.8733 2.2033 3.4122 -1.0239 -0.8733 -2.2033 z"/>
<path d="m 154.356 813.271 -3.4122 1.0239 0.8733 2.2033 3.4122 -1.0239 -0.8733 -2.2033 z"/>
<path d="m 152.668 808.365 -3.4122 1.0239 0.8733 2.2033 3.4122 -1.0239 -0.8733 -2.2033 z"/>
<path d="m 158.668 815.146 -3.4122 1.0239 0.8733 2.2033 3.4122 -1.0239 -0.8733 -2.2033 z"/>
<path d="m 157.543 811.178 -3.4122 1.0239 0.8733 2.2033 3.4122 -1.0239 -0.8733 -2.2033 z"/>
<path d="m 156.137 807.303 -3.4122 1.0239 0.8733 2.2033 3.4122 -1.0239 -0.8733 -2.2033 z"/>
<path d="m 162.974 791.572 c 3.18 0 5.775 2.544 5.8106 5.7193 0.1734 -0.0218 0.3431 -0.0326 0.5223 -0.0326 2.3327 0 4.2437 1.8805 4.2437 4.2159 s -1.911 4.2486 -4.2437 4.2486 c -1.1333 0 -2.1462 -0.4487 -2.9053 -1.1765 -0.5901 0.6449 -1.4412 1.0458 -2.383 1.0458 -1.1651 0 -2.1747 -0.6086 -2.7421 -1.536 -0.8743 1.4518 -2.4281 2.4184 -4.2437 2.4184 -1.5678 0 -2.9688 -0.7303 -3.8847 -1.8628 -0.5703 0.9139 -1.5872 1.536 -2.7421 1.536 -1.7814 0 -3.2318 -1.4521 -3.2318 -3.2355 0 -1.6388 1.2271 -2.9939 2.8074 -3.2028 -0.1045 -0.368 -0.1959 -0.7425 -0.1959 -1.1439 0 -2.3354 1.911 -4.2486 4.2437 -4.2486 1.3601 0 2.5566 0.6665 3.3297 1.6667 0.6278 -2.5281 2.8962 -4.412 5.6148 -4.412 z" fill="#fff" stroke="#000"/>
</g>
</svg>
