<svg viewBox="0 0 512 512" xmlns="http://www.w3.org/2000/svg">

<g transform="matrix(18.68858,0,0,18.68858,-5684.39907,-44909.10404)">
<path d="m304.3884,2403.615h11.1056c3.3472,2.7885 6.7671,5.4497 8.7721,10.5871l-6.7843,7.5189c-4.3644-1.8477-8.7289-2.515-13.0934-.3457z" fill="#fff"/>
<path d="m321.552,2426.4953c-3.5387-6.277-11.2516-8.4994-17.2273-4.9637" fill="none" stroke="#fff"/>
<path d="m324.9265,2416.3163c-1.4267-5.6714-5.0707-10.2311-9.7882-12.8045" fill="none" stroke="#fff"/>
<path d="m320.6158,2423.6886c-2.6334-6.5696-9.7743-9.7918-16.082-7.3289" fill="none" stroke="#000"/>
<path d="m322.2006,2415.7184c-2.9975-6.8283-10.6575-10.6216-17.6434-9.5808" fill="none" stroke="#000"/>
<path d="m320.7577,2417.9409c-3.7015-5.6906-10.1642-8.2821-16.1333-7.0552" fill="none" stroke="#000"/>
<path d="m319.1408,2422.5004-6.6881-2.5247-5.5806,4.4679 .3345-7.141-5.9738-3.9268 6.8948-1.8885 1.8886-6.8949 3.9268,5.9738 7.141-.3345-4.468,5.5806z" fill="#fff" stroke="#000" stroke-width="1.234" transform="matrix(-.20972,.78283,-.78268,-.20976,2277.3472,2683.445)"/>
<path d="m304.5278,2403.509h26.4314v26.4314h-26.4314z" fill="none" stroke="#000"/>
</g>
</svg>
