<svg viewBox="0 0 512 512" xmlns="http://www.w3.org/2000/svg">

<g transform="matrix(18.68858,0,0,18.68858,-7036.54963,-30620.2133)">
<path d="m 399.304 1640.96 c -10.6119 -2.6155 -13.5152 11.9283 -21.9932 4.8326 0.1736 1.9675 4.7359 4.1949 4.7359 4.1949 -1.3967 1.0699 -1.8649 1.3222 -3.8561 1.3614 5.5738 4.6418 18.1218 -5.3397 21.852 2.1458 z" fill="#fff"/>
<path d="m 401.017 1642.16 1.084 22.9601" fill="none" stroke="#fff"/>
<path d="m 382.234 1641.06 c 0 0.8445 -0.6846 1.5291 -1.5291 1.5291 s -1.5291 -0.6846 -1.5291 -1.5291 0.6846 -1.5291 1.5291 -1.5291 1.5291 0.6846 1.5291 1.5291 z" fill="#fff" stroke="#000" stroke-width="1.0771" transform="matrix(-.92841,0,0,.92841,754.47996,116.81175)"/>
<path d="m 399.993 1641.62 -3.3462 0.3879 3.7237 1.6235 -3.4621 0.6392 3.5376 1.9281 -3.4152 0.5076 3.604 2.2864 -3.1444 -0.049 3.0689 3.1445"/>
<path d="m 395.522 1654.12 -2.3313 3.7479 1.59 1.8737 2.0307 -1.4673 -1.2893 -4.1543 z" fill="#fff"/>
<path d="m 394.989 1658.15 -1.0631 7.1377" fill="none" stroke="#fff"/>
<path d="m 378.674 1655.34 -0.8784 3.3114 1.5081 1.1339 1.1339 -1.5082 -1.7635 -2.9371 z" fill="#fff"/>
<path d="m 379.125 1658.53 1.0009 6.8886" fill="none" stroke="#fff"/>
<path d="m 383.275 1655.74 1.153 3.2261 -1.4077 1.2564 -1.2564 -1.4079 1.5111 -3.0746 z" fill="#fff"/>
<path d="m 383.13 1658.96 -0.4363 6.1899" fill="none" stroke="#fff"/>
<path d="m 390.597 1657.47 -1.0401 3.6608 1.653 1.2888 1.2888 -1.6531 -1.9016 -3.2965 z" fill="#fff"/>
<path d="m 390.999 1661.02 0.4938 4.5676" fill="none" stroke="#fff"/>
<path d="m 387.137 1655.07 1.6047 3.7082 -1.5602 1.5868 -1.5868 -1.5603 1.5423 -3.7347 z" fill="#fff"/>
<path d="m 387.169 1658.88 0.1527 6.394" fill="none" stroke="#fff"/>
<path d="m 398.284 1657.47 -1.0114 3.6689 1.663 1.2758 1.2758 -1.6632 -1.9274 -3.2815 z" fill="#fff"/>
<path d="m 398.752 1661.02 0.5296 4.5635" fill="none" stroke="#fff"/>
<path d="m 403.127 1665.32 h -25.9931" fill="none" stroke="#000"/>
</g>
</svg>
