<svg viewBox="0 0 512 512" xmlns="http://www.w3.org/2000/svg">

<g transform="matrix(18.68858,0,0,18.68858,-7036.54963,-30620.2133)">
<path d="m399.3037,1640.9551c-10.6119-2.6155-13.5152,11.9283-21.9932,4.8326 .1736,1.9675 4.7359,4.1949 4.7359,4.1949-1.3967,1.0699-1.8649,1.3222-3.8561,1.3614 5.5738,4.6418 18.1218-5.3397 21.852,2.1458z" fill="#fff"/>
<path d="m401.017,1642.1573 1.084,22.9601" fill="none" stroke="#fff"/>
<path d="m382.2337,1641.0602c0,.8445-.6846,1.5291-1.5291,1.5291s-1.5291-.6846-1.5291-1.5291 .6846-1.5291 1.5291-1.5291 1.5291.6846 1.5291,1.5291z" fill="#fff" stroke="#000" stroke-width="1.0771" transform="matrix(-.92841,0,0,.92841,754.47996,116.81175)"/>
<path d="m399.9927,1641.6243-3.3462.3879 3.7237,1.6235-3.4621.6392 3.5376,1.9281-3.4152.5076 3.604,2.2864-3.1444-.049 3.0689,3.1445"/>
<path d="m395.5217,1654.116-2.3313,3.7479 1.59,1.8737 2.0307-1.4673-1.2893-4.1543z" fill="#fff"/>
<path d="m394.9888,1658.1507-1.0631,7.1377" fill="none" stroke="#fff"/>
<path d="m378.6739,1655.3418-.8784,3.3114 1.5081,1.1339 1.1339-1.5082-1.7635-2.9371z" fill="#fff"/>
<path d="m379.1252,1658.5324 1.0009,6.8886" fill="none" stroke="#fff"/>
<path d="m383.2749,1655.7407 1.153,3.2261-1.4077,1.2564-1.2564-1.4079 1.5111-3.0746z" fill="#fff"/>
<path d="m383.1304,1658.9581-.4363,6.1899" fill="none" stroke="#fff"/>
<path d="m390.5972,1657.4689-1.0401,3.6608 1.653,1.2888 1.2888-1.6531-1.9016-3.2965z" fill="#fff"/>
<path d="m390.9987,1661.0214 .4938,4.5676" fill="none" stroke="#fff"/>
<path d="m387.1366,1655.0746 1.6047,3.7082-1.5602,1.5868-1.5868-1.5603 1.5423-3.7347z" fill="#fff"/>
<path d="m387.1691,1658.875 .1527,6.394" fill="none" stroke="#fff"/>
<path d="m398.2845,1657.4724-1.0114,3.6689 1.663,1.2758 1.2758-1.6632-1.9274-3.2815z" fill="#fff"/>
<path d="m398.7516,1661.0214 .5296,4.5635" fill="none" stroke="#fff"/>
<path d="m403.1265,1665.3244h-25.9931" fill="none" stroke="#000"/>
</g>
</svg>
