<svg viewBox="0 0 512 512" xmlns="http://www.w3.org/2000/svg">

<g transform="matrix(18.68858,0,0,18.68858,-8403.2944,-40833.09266)">
<g transform="matrix(-.70711,.70711,-.70711,-.70711,2337.1085,3417.9506)">
<path d="m455.2531,2178.1345h13.7419l1.3274-1.3274" fill="none" stroke="#fff"/>
<path d="m455.2531,2181.794h13.7419l1.3274-1.3274" fill="none" stroke="#fff"/>
<path d="m455.2531,2185.4916h13.7419l1.3274-1.3274" fill="none" stroke="#fff"/>
<path d="m455.2531,2189.2654h13.7419l1.3274-1.3274" fill="none" stroke="#fff"/>
<path d="m455.2531,2192.9249h13.7419l1.3274-1.3274" fill="none" stroke="#fff"/>
<path d="m455.2531,2196.6225h13.7419l1.3274-1.3274" fill="none" stroke="#fff"/>
<path d="m456.998,2177.125h10.0103v20.3728h-10.0103z" stroke="#fff" transform="matrix(1,1.5272195e-4,5.5296559e-5,1,0,0)"/>
<path d="m458.9071,2179.3904-1.4647-1.8848 .0127,19.6382 9.3214.01-1.7204-1.4707-6.1633.01z" fill="#fff"/>
</g>
<path d="m472.3896,2200.6096-5.0944,5.0944-12.1835-12.1835" fill="none" stroke="#fff"/>
<path d="m467.3222,2205.6232-5e-05,2.7763" fill="none" stroke="#fff"/>
<path d="m469.0864,2201.0811-1.8464,1.8334-9.3074-9.2416" fill="none" stroke="#fff"/>
</g>
</svg>
