<svg viewBox="0 0 512 512" xmlns="http://www.w3.org/2000/svg">

<g transform="matrix(18.68858,0,0,18.68858,-8403.2944,-40833.09266)">
<g transform="matrix(-.70711,.70711,-.70711,-.70711,2337.1085,3417.9506)">
<path d="m 455.253 2178.13 h 13.7419 l 1.3274 -1.3274" fill="none" stroke="#fff"/>
<path d="m 455.253 2181.79 h 13.7419 l 1.3274 -1.3274" fill="none" stroke="#fff"/>
<path d="m 455.253 2185.49 h 13.7419 l 1.3274 -1.3274" fill="none" stroke="#fff"/>
<path d="m 455.253 2189.27 h 13.7419 l 1.3274 -1.3274" fill="none" stroke="#fff"/>
<path d="m 455.253 2192.92 h 13.7419 l 1.3274 -1.3274" fill="none" stroke="#fff"/>
<path d="m 455.253 2196.62 h 13.7419 l 1.3274 -1.3274" fill="none" stroke="#fff"/>
<path d="m 456.998 2177.12 h 10.0103 v 20.3728 h -10.0103 z" stroke="#fff" transform="matrix(1,1.5272195e-4,5.5296559e-5,1,0,0)"/>
<path d="m 458.907 2179.39 -1.4647 -1.8848 0.0127 19.6382 9.3214 0.01 -1.7204 -1.4707 -6.1633 0.01 z" fill="#fff"/>
</g>
<path d="m 472.39 2200.61 -5.0944 5.0944 -12.1835 -12.1835" fill="none" stroke="#fff"/>
<path d="m 467.322 2205.62 -5e-05 2.7763" fill="none" stroke="#fff"/>
<path d="m 469.086 2201.08 -1.8464 1.8334 -9.3074 -9.2416" fill="none" stroke="#fff"/>
</g>
</svg>
