<svg viewBox="0 0 512 512" xmlns="http://www.w3.org/2000/svg">

<g transform="matrix(18.68858,0,0,18.68858,-1464.8216,-4743.95998)">
<path d="m96.75,255.0312c-3.0676,0-3.277,1.9358-4.875,2.9375-5.212-1.85-6.3715,7.7253-4.4062,13.5312-.8238,1.7082-1.6441,4.0614-2.3438,7.2188 3.0407,1.6405 6.3738,2.0695 9.75.5312-.5185-3.1535-1.2707-5.4511-1.8504-7.2812 3.1154-2.6517 6.1752-6.375 5.0531-10.2491-.5513-2.0574 3.1152-3.3293 6.5473-2.8759-1.3121-1.1324-2.9963-1.6309-4.5938-1.8125-.4732-1.1645-1.7457-2-3.2812-2z" fill="#fff" fill-rule="evenodd"/>
<path d="m93.0938,274.5138c.1651-2.1036 5.2626-2.991 5.2343.4026-1.6723-1.8011-3.899-1.3691-5.2343-.4026z" fill="#fff" fill-rule="evenodd"/>
<path d="m95.7188,272.8934-1.9375-4.1562" fill="none" stroke="#fff"/>
<path d="m100.4534,257.4415c0,.8054-.6529,1.4584-1.4584,1.4584s-1.4584-.653-1.4584-1.4584 .653-1.4584 1.4584-1.4584 1.4584.653 1.4584,1.4584z" transform="matrix(.65152,0,0,.65152,32.84096,89.42721)"/>
</g>
</svg>
