<svg viewBox="0 0 512 512" xmlns="http://www.w3.org/2000/svg">

<g transform="matrix(18.68858,0,0,18.68858,-6355.72934,-26544.86942)">
<path d="m350.5653,1435.4358c-4.3762,1.1726-8.643-.5606-9.5299-3.8712s1.9414-6.9448 6.3176-8.1178z" fill="#fff"/>
<path d="m350.1552,1423.2383 2.9414,10.9771" fill="none" stroke="#fff"/>
<path d="m353.4339,1423.0355 2.6033,9.7163" fill="none" stroke="#fff"/>
<path d="m356.7819,1423.0918 2.1267,7.937" fill="none" stroke="#fff"/>
<path d="m360.1132,1423.4125 1.5199,5.6728" fill="none" stroke="#fff"/>
<path d="m-34.2654,1465.0323h3.9826v11.8669h-3.9826z" fill="#fff" transform="matrix(.96593,-.25882,.25882,.96593,0,0)"/>
<path d="m350.5653,1435.4358c-4.3762,1.1726-8.643-.5606-9.5299-3.8712s1.9414-6.945 6.3176-8.1178c6.8569-1.8371 15.0512-1.1562 15.9382,2.1545s-6.1447,8.071-12.7258,9.8345z" fill="none" stroke="#000"/>
<path d="m352.8287,1425.0137c0,1.2003-.9731,2.1734-2.1734,2.1734s-2.1734-.9731-2.1734-2.1734 .9731-2.1735 2.1734-2.1735 2.1734.9731 2.1734,2.1735z" fill="#fff" stroke="#000" stroke-width=".9206" transform="matrix(.28115,1.04925,-1.04928,.28115,1761.2923,656.66725)"/>
<path d="m364.8299,1425.1888-18.8487,5.0506" fill="none" stroke="#fff"/>
<path d="m347.6432,1433.1741c-5.6459,3.0338-7.8372,15.6667 1.2876,13.3779l1.0402-12.8235" fill="#fff"/>
<path d="m352.7763,1440.3324c0,.9545-.7738,1.7283-1.7283,1.7283s-1.7283-.7738-1.7283-1.7283 .7738-1.7283 1.7283-1.7283 1.7283.7738 1.7283,1.7283z" transform="matrix(.93776,-.25127,.25126,.93773,-340.52734,174.1105)"/>
<path d="m352.7763,1440.3324c0,.9545-.7738,1.7283-1.7283,1.7283s-1.7283-.7738-1.7283-1.7283 .7738-1.7283 1.7283-1.7283 1.7283.7738 1.7283,1.7283z" transform="matrix(.93776,-.25127,.25126,.93773,-340.6385,177.03529)"/>
<path d="m352.7763,1440.3324c0,.9545-.7738,1.7283-1.7283,1.7283s-1.7283-.7738-1.7283-1.7283 .7738-1.7283 1.7283-1.7283 1.7283.7738 1.7283,1.7283z" transform="matrix(.93776,-.25127,.25126,.93773,-341.0382,179.66896)"/>
<path d="m352.7763,1440.3324c0,.9545-.7738,1.7283-1.7283,1.7283s-1.7283-.7738-1.7283-1.7283 .7738-1.7283 1.7283-1.7283 1.7283.7738 1.7283,1.7283z" transform="matrix(.93776,-.25127,.25126,.93773,-341.68213,182.56992)"/>
<path d="m350.5432,1434.0097c.2858,3.1516 1.9157,4.6408 3.3047,3.7125-1.6565-1.4533-1.7562-3.1687-1.471-4.841" fill="#fff"/>
<path d="m346.957,1427.0564c0,.7976-.6466,1.4443-1.4443,1.4443s-1.4443-.6467-1.4443-1.4443 .6466-1.4443 1.4443-1.4443 1.4443.6467 1.4443,1.4443z" fill="#fff" transform="matrix(1.04928,-.28115,.28115,1.04925,-420.82764,26.14491)"/>
<path d="m350.7862,1426.7471 15.1033-1.8733-14.0553,5.3666" fill="#fff"/>
</g>
</svg>
