<svg viewBox="0 0 512 512" xmlns="http://www.w3.org/2000/svg">

<g transform="matrix(17.12316,-9.88606,9.88606,17.12316,-4072.72226,-4926.52421)">
<path d="m 47.7934 330.504 h 21.757 v 11.9367 h -21.757 z" fill="#fff"/>
<path d="m 25.8125 334.237 c 0 1.2772 -1.0353 2.3125 -2.3125 2.3125 s -2.3125 -1.0353 -2.3125 -2.3125 1.0353 -2.3125 2.3125 -2.3125 2.3125 1.0353 2.3125 2.3125 z" transform="matrix(.85135,0,0,.85135,38.66513,51.91871)"/>
<path d="m 55.2665 336.472 h 6.8108" fill="none" stroke="#000" stroke-width=".9452"/>
<path d="m 25.8125 334.237 c 0 1.2772 -1.0353 2.3125 -2.3125 2.3125 s -2.3125 -1.0353 -2.3125 -2.3125 1.0353 -2.3125 2.3125 -2.3125 2.3125 1.0353 2.3125 2.3125 z" transform="matrix(.53497,0,0,.53497,41.74789,157.66482)"/>
<path d="m 25.8125 334.237 c 0 1.2772 -1.0353 2.3125 -2.3125 2.3125 s -2.3125 -1.0353 -2.3125 -2.3125 1.0353 -2.3125 2.3125 -2.3125 2.3125 1.0353 2.3125 2.3125 z" transform="matrix(.53497,0,0,.53497,50.45224,157.66482)"/>
<g transform="translate(.3594,.0473)">
<path d="m 47.125 339.862 h 22.375" fill="none" stroke="#000" stroke-width=".9452"/>
<path d="m 47.125 332.987 h 22.375" fill="none" stroke="#000" stroke-width=".9452"/>
</g>
<g transform="translate(.0221,-.221)">
<path d="m 47.7093 336.693 h 3.4079" fill="none" stroke="#000" stroke-width=".9452"/>
<path d="m 66.1824 336.693 h 3.4079" fill="none" stroke="#000" stroke-width=".9452"/>
</g>
<g transform="translate(.024,-.2156)">
<path d="m 47.6875 334.531 v 4.3125 c 1.0336 -0.1816 1.8125 -1.0709 1.8125 -2.1562 s -0.7784 -1.975 -1.8125 -2.1562 z"/>
<path d="m 69.6084 334.531 v 4.3125 c -1.0336 -0.1816 -1.8125 -1.0709 -1.8125 -2.1562 s 0.7784 -1.975 1.8125 -2.1562 z"/>
</g>
</g>
</svg>
