<svg viewBox="0 0 512 512" xmlns="http://www.w3.org/2000/svg">

<g transform="matrix(17.12316,-9.88606,9.88606,17.12316,-4072.72226,-4926.52421)">
<path d="m47.7934,330.5036h21.757v11.9367h-21.757z" fill="#fff"/>
<path d="m25.8125,334.2371c0,1.2772-1.0353,2.3125-2.3125,2.3125s-2.3125-1.0353-2.3125-2.3125 1.0353-2.3125 2.3125-2.3125 2.3125,1.0353 2.3125,2.3125z" transform="matrix(.85135,0,0,.85135,38.66513,51.91871)"/>
<path d="m55.2665,336.4719h6.8108" fill="none" stroke="#000" stroke-width=".9452"/>
<path d="m25.8125,334.2371c0,1.2772-1.0353,2.3125-2.3125,2.3125s-2.3125-1.0353-2.3125-2.3125 1.0353-2.3125 2.3125-2.3125 2.3125,1.0353 2.3125,2.3125z" transform="matrix(.53497,0,0,.53497,41.74789,157.66482)"/>
<path d="m25.8125,334.2371c0,1.2772-1.0353,2.3125-2.3125,2.3125s-2.3125-1.0353-2.3125-2.3125 1.0353-2.3125 2.3125-2.3125 2.3125,1.0353 2.3125,2.3125z" transform="matrix(.53497,0,0,.53497,50.45224,157.66482)"/>
<g transform="translate(.3594,.0473)">
<path d="m47.125,339.8621h22.375" fill="none" stroke="#000" stroke-width=".9452"/>
<path d="m47.125,332.9871h22.375" fill="none" stroke="#000" stroke-width=".9452"/>
</g>
<g transform="translate(.0221,-.221)">
<path d="m47.7093,336.6929h3.4079" fill="none" stroke="#000" stroke-width=".9452"/>
<path d="m66.1824,336.6929h3.4079" fill="none" stroke="#000" stroke-width=".9452"/>
</g>
<g transform="translate(.024,-.2156)">
<path d="m47.6875,334.5312v4.3125c1.0336-.1816 1.8125-1.0709 1.8125-2.1562s-.7784-1.975-1.8125-2.1562z"/>
<path d="m69.6084,334.5312v4.3125c-1.0336-.1816-1.8125-1.0709-1.8125-2.1562s.7784-1.975 1.8125-2.1562z"/>
</g>
</g>
</svg>
