<svg xmlns="http://www.w3.org/2000/svg" viewBox="0 0 512 512">
<g transform="matrix(15.14038 0 0 -15.14038 -3256.5686 2857.9893)">
<use width="744.094" height="1052.362" transform="translate(252 152)"/>
<g fill="#fff">
<path fill-rule="evenodd" d="m227.75,173.25-2.75,2.75l2,6c1,3 1,4 5,4 4,0 4-1 5-4l2-6-2.75-2.75c-1.0858,1.0858-2.5932,1.75-4.25,1.75-1.6568,0-3.1642-.6642-4.25-1.75z"/>
<path d="m236,136c0,2.2091-1.7909,4-4,4-2.2091,0-4-1.7909-4-4 0-2.2091 1.7909-4 4-4 2.2091,0 4,1.7909 4,4z" transform="matrix(1 0 0 -1 0 305)"/>
<g fill-rule="evenodd">
<path d="m237.8056,170.5556 3.7566,1.0066 4.1961-4.732c2.0981-2.366 2.9641-2.866 .9641-6.3301-2-3.4641-2.866-2.9641-5.9641-2.3301l-6.1961,1.268-1.0066,3.7566c1.4832,.3974 2.8121,1.3707 3.6405,2.8056 .8284,1.4349 1.0069,3.0724 .6095,4.5556z"/>
<path d="m230.4444,163.1944-1.0066-3.7566-6.1961-1.268c-3.0981-.634-3.9641-1.134-5.9641,2.3301-2,3.4641-1.134,3.9641 .9641,6.3301l4.1961,4.732 3.7566-1.0066c-.3974-1.4832-.219-3.1207 .6095-4.5556 .8284-1.4349 2.1573-2.4082 3.6405-2.8056z"/>
</g>
</g>
</g>
</svg>
