<svg viewBox="0 0 512 512" xmlns="http://www.w3.org/2000/svg">

<g transform="matrix(18.68858,0,0,18.68858,-2277.789,-41514.84833)">
<path d="m 123.811 2225.98 c 2.4601 -0.6281 5.7651 -1.1616 6.6557 -2.9891 5.9888 -0.1147 15.4843 1.5127 17.0532 8.5334 -3.4543 -1.1871 -8.5168 -2.5353 -12.7024 -1.4258 -0.4294 -2.3705 -5.2945 -0.6672 -6.6585 0.4651" fill="none" stroke="#fff"/>
<path d="m 124.06 2224.09 c -0.6753 0.026 -1.2708 0.5677 -1.25 1.5312 5.0336 7.1546 9.3798 14.5896 12.8125 22.3438 h 2.2188 l -13.1562 -23.7188 c -0.1104 -0.048 -0.2315 -0.1044 -0.3438 -0.125 -0.0982 -0.018 -0.1848 -0.035 -0.2812 -0.031 z" fill="#fff"/>
<g transform="matrix(.94892,0,0,.94892,7.49247,119.9483)">
<path d="m 140.472 2228.71 c 3.3766 -0.9039 6.7698 0.986 7.6207 4.1589 0.8234 3.0697 0.1042 8.9703 0.1042 8.9703 -2.4743 1.6639 -5.0659 1.1085 -7.6748 0.6877 l -0.0617 -2.5145 c -1.5964 -0.7023 -4.0838 -2.1313 -4.5532 -3.8817 -0.8511 -3.173 1.1882 -6.5168 4.5648 -7.4207 z" fill="#fff" stroke="#000" stroke-width="1.0538"/>
<path d="m 461.069 1938.74 c 0 0.5133 -0.4161 0.9294 -0.9295 0.9294 s -0.9295 -0.4161 -0.9295 -0.9294 0.4161 -0.9295 0.9295 -0.9295 0.9295 0.4162 0.9295 0.9295 z" transform="matrix(-1.72709,.4623,.46277,1.72534,45.04045,-1323.2715)"/>
<path d="m 461.069 1938.74 c 0 0.5133 -0.4161 0.9294 -0.9295 0.9294 s -0.9295 -0.4161 -0.9295 -0.9294 0.4161 -0.9295 0.9295 -0.9295 0.9295 0.4162 0.9295 0.9295 z" transform="matrix(-1.99365,.53366,.5342,1.99164,24.09258,-1871.9145)"/>
<path d="m 145.324 2235.61 1.4438 3.0226 -2.1741 0.3419 z"/>
<path d="m 140.561 2242.3 c -0.0262 -1.9315 0.0609 -3.8342 -0.952 -5.6522" fill="none" stroke="#000" stroke-width="1.0538"/>
<path d="m 143.264 2240.42 -0.108 2.0258" fill="none" stroke="#000" stroke-width="1.0538"/>
<path d="m 145.965 2240.32 0.108 2.3499" fill="none" stroke="#000" stroke-width="1.0538"/>
</g>
<path d="m 127.857 2230.49 -0.4948 0.022 1.0337 -3.6638 2.0745 1.4834 1.274 -2.4144 2.4601 2.4517 1.4931 -2.0404 2.4237 2.4569 1.2394 -1.836 2.3067 2.4864 1.385 -1.6059 3.9503 3.2816 -6.2545 -1.3476 -5.9796 0.086 -1.5852 -1.2806 z" fill="#fff"/>
<path d="m 124.55 2223.25 5.8922 10.2609" fill="none" stroke="#000"/>
</g>
</svg>
