<svg viewBox="0 0 512 512" xmlns="http://www.w3.org/2000/svg">

<g transform="matrix(18.68858,0,0,18.68858,-2277.789,-41514.84833)">
<path d="m123.811,2225.9815c2.4601-.6281 5.7651-1.1616 6.6557-2.9891 5.9888-.1147 15.4843,1.5127 17.0532,8.5334-3.4543-1.1871-8.5168-2.5353-12.7024-1.4258-.4294-2.3705-5.2945-.6672-6.6585.4651" fill="none" stroke="#fff"/>
<path d="m124.0598,2224.0938c-.6753.026-1.2708.5677-1.25,1.5312 5.0336,7.1546 9.3798,14.5896 12.8125,22.3438h2.2188l-13.1562-23.7188c-.1104-.048-.2315-.1044-.3438-.125-.0982-.018-.1848-.035-.2812-.031z" fill="#fff"/>
<g transform="matrix(.94892,0,0,.94892,7.49247,119.9483)">
<path d="m140.4721,2228.7077c3.3766-.9039 6.7698.986 7.6207,4.1589 .8234,3.0697.1042,8.9703.1042,8.9703-2.4743,1.6639-5.0659,1.1085-7.6748.6877l-.0617-2.5145c-1.5964-.7023-4.0838-2.1313-4.5532-3.8817-.8511-3.173 1.1882-6.5168 4.5648-7.4207z" fill="#fff" stroke="#000" stroke-width="1.0538"/>
<path d="m461.069,1938.7444c0,.5133-.4161.9294-.9295.9294s-.9295-.4161-.9295-.9294 .4161-.9295.9295-.9295 .9295.4162.9295.9295z" transform="matrix(-1.72709,.4623,.46277,1.72534,45.04045,-1323.2715)"/>
<path d="m461.069,1938.7444c0,.5133-.4161.9294-.9295.9294s-.9295-.4161-.9295-.9294 .4161-.9295.9295-.9295 .9295.4162.9295.9295z" transform="matrix(-1.99365,.53366,.5342,1.99164,24.09258,-1871.9145)"/>
<path d="m145.3239,2235.6131 1.4438,3.0226-2.1741.3419z"/>
<path d="m140.5614,2242.2964c-.0262-1.9315.0609-3.8342-.952-5.6522" fill="none" stroke="#000" stroke-width="1.0538"/>
<path d="m143.2644,2240.4246-.108,2.0258" fill="none" stroke="#000" stroke-width="1.0538"/>
<path d="m145.9654,2240.3166 .108,2.3499" fill="none" stroke="#000" stroke-width="1.0538"/>
</g>
<path d="m127.8569,2230.4949-.4948.022 1.0337-3.6638 2.0745,1.4834 1.274-2.4144 2.4601,2.4517 1.4931-2.0404 2.4237,2.4569 1.2394-1.836 2.3067,2.4864 1.385-1.6059 3.9503,3.2816-6.2545-1.3476-5.9796.086-1.5852-1.2806z" fill="#fff"/>
<path d="m124.5501,2223.2548 5.8922,10.2609" fill="none" stroke="#000"/>
</g>
</svg>
