<svg viewBox="0 0 512 512" xmlns="http://www.w3.org/2000/svg">

<g transform="matrix(18.68858,0,0,18.68858,-12489.15249,-40153.2096)">
<path d="m 681.969 2149.6 c -0.8315 0.018 -1.6299 0.224 -2.4071 0.5615 l 1.2036 2.2469 c 0.397 -0.1419 0.8035 -0.2377 1.2036 -0.2408 1.3716 0 2.8233 0.7315 3.9317 2.6477 l 4.5736 7.9438 1.5246 -2.4877 -3.8515 -6.74 c -1.4702 -2.5419 -3.8026 -3.9516 -6.1784 -3.9314 z m -7.5424 6.4991 -3.5305 6.1785 c -1.3459 2.3281 -1.441 4.9667 -0.3209 7.0611 0.4642 0.8679 1.168 1.5799 2.006 2.1664 l 1.2838 -2.1664 c -0.4303 -0.3403 -0.797 -0.7439 -1.0431 -1.2034 -0.6694 -1.2522 -0.7129 -2.9241 0.2407 -4.5737 l 4.3329 -7.4625 h -2.9688 z m 17.1711 10.9124 c -0.0837 0.4113 -0.2051 0.7686 -0.4012 1.1238 -0.6866 1.2417 -2.0338 2.1662 -4.1724 2.1662 h -8.746 l 1.5245 2.5677 h 7.2215 c 2.9174 0 5.2707 -1.3731 6.4191 -3.4503 0.4048 -0.7328 0.6278 -1.5642 0.7221 -2.4074 h -2.5676 z" fill="#fff"/>
<path d="m 687.249 2161.88 h -11.6474 l 5.8237 -10.0869 z" fill="#fff" transform="matrix(.49538,.28561,-.28601,.4947,955.81296,893.58148)"/>
<path d="m 687.249 2161.88 h -11.6474 l 5.8237 -10.0869 z" fill="#fff" transform="matrix(-.49538,-.28561,-.28601,.4947,1646.0993,1288.2145)"/>
<path d="m 687.249 2161.88 h -11.6474 l 5.8237 -10.0869 z" fill="#fff" transform="matrix(-.49538,.28561,-.28601,-.4947,1634.0718,3044.7293)"/>
<path d="m 681.069 2168.16 h 4.6474 v 3.3647 h -4.6474 z"/>
<path d="m 1531.07 -1666.81 h 4.6474 v 3.3647 h -4.6474 z" transform="matrix(-.5,.86603,-.86603,-.5,0,0)"/>
<path d="m 2210.85 -485.511 h 4.6474 v 3.3647 h -4.6474 z" transform="matrix(.5,.86603,.86603,-.5,0,0)"/>
</g>
</svg>
