<svg viewBox="0 0 512 512" xmlns="http://www.w3.org/2000/svg">

<g transform="matrix(18.68858,0,0,18.68858,-12489.15249,-40153.2096)">
<path d="m681.9688,2149.5999c-.8315.018-1.6299.224-2.4071.5615l1.2036,2.2469c.397-.1419.8035-.2377 1.2036-.2408 1.3716,0 2.8233.7315 3.9317,2.6477l4.5736,7.9438 1.5246-2.4877-3.8515-6.74c-1.4702-2.5419-3.8026-3.9516-6.1784-3.9314zm-7.5424,6.4991-3.5305,6.1785c-1.3459,2.3281-1.441,4.9667-.3209,7.0611 .4642.8679 1.168,1.5799 2.006,2.1664l1.2838-2.1664c-.4303-.3403-.797-.7439-1.0431-1.2034-.6694-1.2522-.7129-2.9241.2407-4.5737l4.3329-7.4625h-2.9688zm17.1711,10.9124c-.0837.4113-.2051.7686-.4012,1.1238-.6866,1.2417-2.0338,2.1662-4.1724,2.1662h-8.746l1.5245,2.5677h7.2215c2.9174,0 5.2707-1.3731 6.4191-3.4503 .4048-.7328.6278-1.5642.7221-2.4074h-2.5676z" fill="#fff"/>
<path d="m687.2494,2161.8784h-11.6474l5.8237-10.0869z" fill="#fff" transform="matrix(.49538,.28561,-.28601,.4947,955.81296,893.58148)"/>
<path d="m687.2494,2161.8784h-11.6474l5.8237-10.0869z" fill="#fff" transform="matrix(-.49538,-.28561,-.28601,.4947,1646.0993,1288.2145)"/>
<path d="m687.2494,2161.8784h-11.6474l5.8237-10.0869z" fill="#fff" transform="matrix(-.49538,.28561,-.28601,-.4947,1634.0718,3044.7293)"/>
<path d="m681.069,2168.1631h4.6474v3.3647h-4.6474z"/>
<path d="m1531.0681-1666.8125h4.6474v3.3647h-4.6474z" transform="matrix(-.5,.86603,-.86603,-.5,0,0)"/>
<path d="m2210.8506-485.5112h4.6474v3.3647h-4.6474z" transform="matrix(.5,.86603,.86603,-.5,0,0)"/>
</g>
</svg>
