<svg xmlns="http://www.w3.org/2000/svg" viewBox="0 0 512 512">
<g transform="matrix(15 0 0 15 -523.99999 -4904)">
<use width="744.094" height="1052.362" transform="translate(72 324)"/>
<g fill="#fff">
<path d="m 50.2404 328 c -4.9053 0.3273 -8.5994 4.4527 -8.5994 9.4906 0 1.2377 0.2341 2.4205 0.6608 3.5043 0.435 1.1049 0.9987 2.3852 5.4484 6.6041 l 1.297 -0.7563 c -0.0815 -0.2302 -0.1234 -0.4785 -0.1234 -0.7369 0 -1.0447 0.725 -1.9184 1.6946 -2.1358 v -1.5153 c -3.7545 -0.2323 -6.7344 -3.379 -6.7344 -7.2302 0 -3.7889 2.688 -6.9038 6.3564 -7.2246 z"/>
<path d="m 67.0542 354.413 c 2.1721 -4.4554 0.4828 -9.7501 -3.8359 -12.2691 -1.061 -0.6188 -2.192 -1.0054 -3.3344 -1.174 -1.1647 -0.1719 -2.544 -0.3188 -8.3854 1.4649 l -0.0002 1.5129 c 0.2381 0.0438 0.4719 0.1313 0.6934 0.2605 0.8955 0.5223 1.282 1.5935 0.9836 2.5505 l 1.2989 0.7576 c 2.0764 -3.1687 6.2638 -4.2026 9.5651 -2.277 3.2479 1.8944 4.5741 5.8037 3.0149 9.1737 z"/>
<path d="m 36 355.901 c 2.7332 4.1281 8.1166 5.2974 12.4353 2.7784 1.061 -0.6188 1.9578 -1.4151 2.6735 -2.3303 0.7297 -0.933 1.5453 -2.0664 2.937 -8.069 l -1.2968 -0.7566 c -0.1566 0.1864 -0.3485 0.3472 -0.57 0.4764 -0.8955 0.5223 -2.007 0.3249 -2.6782 -0.4147 l -1.2989 0.7576 c 1.6781 3.401 0.4706 7.5816 -2.8307 9.5072 -3.2479 1.8944 -7.2621 1.1002 -9.3713 -1.949 z"/>
<g fill-rule="evenodd">
<path d="m 51.0905 337.155 c -1.9769 0 -3.8048 0.6497 -5.2825 1.7507 0.4544 0.6443 1.0198 1.2108 1.6611 1.663 1.04 -0.6895 2.2846 -1.0915 3.6214 -1.0915 1.4095 0 2.7163 0.4467 3.789 1.2064 0.9419 -0.23 1.8934 -0.4146 2.8582 -0.517 -1.6312 -1.8474 -4.004 -3.0115 -6.6473 -3.0115 z"/>
<path d="m 58.8061 350.663 c 0.9885 -1.7297 1.3454 -3.6538 1.1405 -5.4971 -0.7795 0.0754 -1.5478 0.2869 -2.2561 0.6218 0.0711 1.2547 -0.2066 2.5446 -0.875 3.7142 -0.7048 1.2332 -1.7411 2.1531 -2.9287 2.7119 -0.2737 0.9391 -0.5913 1.8639 -0.9859 2.7592 2.3993 -0.5035 4.5835 -1.9974 5.9052 -4.31 z"/>
<path d="m 43.3773 350.65 c 0.9885 1.7296 2.4594 3.004 4.142 3.7464 0.3251 -0.7197 0.528 -1.4976 0.595 -2.2848 -1.111 -0.5651 -2.078 -1.453 -2.7464 -2.6227 -0.7048 -1.2332 -0.9752 -2.5999 -0.8603 -3.9183 -0.6681 -0.709 -1.3021 -1.4493 -1.8723 -2.2422 -0.7681 2.3509 -0.5796 5.0089 0.7421 7.3216 z"/>
</g>
</g>
</g>
</svg>
