<svg xmlns="http://www.w3.org/2000/svg" viewBox="0 0 512 512">
<g transform="matrix(15 0 0 15 -523.99999 -4904)">
<use width="744.094" height="1052.362" transform="translate(72 324)"/>
<g fill="#fff">
<path d="m50.2404,328c-4.9053,.3273-8.5994,4.4527-8.5994,9.4906 0,1.2377 .2341,2.4205 .6608,3.5043 .435,1.1049 .9987,2.3852 5.4484,6.6041l1.297-.7563c-.0815-.2302-.1234-.4785-.1234-.7369 0-1.0447 .725-1.9184 1.6946-2.1358v-1.5153c-3.7545-.2323-6.7344-3.379-6.7344-7.2302 0-3.7889 2.688-6.9038 6.3564-7.2246z"/>
<path d="m67.0542,354.4126c2.1721-4.4554 .4828-9.7501-3.8359-12.2691-1.061-.6188-2.192-1.0054-3.3344-1.174-1.1647-.1719-2.544-.3188-8.3854,1.4649l-.0002,1.5129c.2381,.0438 .4719,.1313 .6934,.2605 .8955,.5223 1.282,1.5935 .9836,2.5505l1.2989,.7576c2.0764-3.1687 6.2638-4.2026 9.5651-2.277 3.2479,1.8944 4.5741,5.8037 3.0149,9.1737z"/>
<path d="m36,355.9007c2.7332,4.1281 8.1166,5.2974 12.4353,2.7784 1.061-.6188 1.9578-1.4151 2.6735-2.3303 .7297-.933 1.5453-2.0664 2.937-8.069l-1.2968-.7566c-.1566,.1864-.3485,.3472-.57,.4764-.8955,.5223-2.007,.3249-2.6782-.4147l-1.2989,.7576c1.6781,3.401 .4706,7.5816-2.8307,9.5072-3.2479,1.8944-7.2621,1.1002-9.3713-1.949z"/>
<g fill-rule="evenodd">
<path d="m51.0905,337.1546c-1.9769,0-3.8048,.6497-5.2825,1.7507 .4544,.6443 1.0198,1.2108 1.6611,1.663 1.04-.6895 2.2846-1.0915 3.6214-1.0915 1.4095,0 2.7163,.4467 3.789,1.2064 .9419-.23 1.8934-.4146 2.8582-.517-1.6312-1.8474-4.004-3.0115-6.6473-3.0115z"/>
<path d="m58.8061,350.6628c.9885-1.7297 1.3454-3.6538 1.1405-5.4971-.7795,.0754-1.5478,.2869-2.2561,.6218 .0711,1.2547-.2066,2.5446-.875,3.7142-.7048,1.2332-1.7411,2.1531-2.9287,2.7119-.2737,.9391-.5913,1.8639-.9859,2.7592 2.3993-.5035 4.5835-1.9974 5.9052-4.31z"/>
<path d="m43.3773,350.6497c.9885,1.7296 2.4594,3.004 4.142,3.7464 .3251-.7197 .528-1.4976 .595-2.2848-1.111-.5651-2.078-1.453-2.7464-2.6227-.7048-1.2332-.9752-2.5999-.8603-3.9183-.6681-.709-1.3021-1.4493-1.8723-2.2422-.7681,2.3509-.5796,5.0089 .7421,7.3216z"/>
</g>
</g>
</g>
</svg>
