<svg viewBox="0 0 512 512" xmlns="http://www.w3.org/2000/svg">

<g transform="matrix(18.68858,0,0,18.68858,-2276.63516,-38784.45763)">
<path d="m147.486,2076.9875-8.104,2.2766-.0607,1.9425-1.3659.3642-.0607,1.5176-7.3148,7.2845c.0466,1.3387-.9157,2.2591-1.7604,2.1853-1.2653-.1107-1.7661-.9147-1.7604-2.0032-.845.9188-1.2981,2.0834-1.3051,3.2477 1.239.0003 2.4841.4809 3.4298,1.4265s1.4523,2.2163 1.4568,3.4601c1.1958.0003 2.4114-.4546 3.3387-1.3355-1.2925-.19-2.0524-.9451-1.9729-1.7908 .1301-1.3825.9344-1.7352 2.0943-1.6997l7.4363-7.4362 1.2141-.03 .3336-1.2141 2.1246-.091 2.2764-8.104z" stroke="#fff"/>
<path d="m146.0034,2078.4699-5.625,1.5626-.0625,1.9687-1.3749.3749-.0938,3.1564 3.1563-.125 .3442-1.2499 2.0937-.062 1.5625-5.625z" fill="#fff" stroke="#000"/>
<path d="m427.7921,1638.6007c0,1.0763-.8725,1.9489-1.9489,1.9489s-1.9489-.8726-1.9489-1.9489 .8726-1.9489 1.9489-1.9489 1.9489.8726 1.9489,1.9489z" fill="#fff" transform="matrix(-1.34079,.767,-.76701,1.3409,1955.0159,-426.58364)"/>
<path d="m125.6712,2098.8023-.8338,2.982-2.2278.08 .0797-2.2279z" fill="#fff"/>
<path d="m143.8083,2080.6654-11.8456,11.8456" fill="none" stroke="#fff"/>
<path d="m127.5863,2096.8877 1.1982-4.285 3.2013-.1149-.1145,3.2012z" stroke="#fff"/>
</g>
</svg>
