<svg viewBox="0 0 512 512" xmlns="http://www.w3.org/2000/svg">

<g transform="matrix(18.68858,0,0,18.68858,-2276.63516,-38784.45763)">
<path d="m 147.486 2076.99 -8.104 2.2766 -0.0607 1.9425 -1.3659 0.3642 -0.0607 1.5176 -7.3148 7.2845 c 0.0466 1.3387 -0.9157 2.2591 -1.7604 2.1853 -1.2653 -0.1107 -1.7661 -0.9147 -1.7604 -2.0032 -0.845 0.9188 -1.2981 2.0834 -1.3051 3.2477 1.239 0.0003 2.4841 0.4809 3.4298 1.4265 s 1.4523 2.2163 1.4568 3.4601 c 1.1958 0.0003 2.4114 -0.4546 3.3387 -1.3355 -1.2925 -0.19 -2.0524 -0.9451 -1.9729 -1.7908 0.1301 -1.3825 0.9344 -1.7352 2.0943 -1.6997 l 7.4363 -7.4362 1.2141 -0.03 0.3336 -1.2141 2.1246 -0.091 2.2764 -8.104 z" stroke="#fff"/>
<path d="m 146.003 2078.47 -5.625 1.5626 -0.0625 1.9687 -1.3749 0.3749 -0.0938 3.1564 3.1563 -0.125 0.3442 -1.2499 2.0937 -0.062 1.5625 -5.625 z" fill="#fff" stroke="#000"/>
<path d="m 427.792 1638.6 c 0 1.0763 -0.8725 1.9489 -1.9489 1.9489 s -1.9489 -0.8726 -1.9489 -1.9489 0.8726 -1.9489 1.9489 -1.9489 1.9489 0.8726 1.9489 1.9489 z" fill="#fff" transform="matrix(-1.34079,.767,-.76701,1.3409,1955.0159,-426.58364)"/>
<path d="m 125.671 2098.8 -0.8338 2.982 -2.2278 0.08 0.0797 -2.2279 z" fill="#fff"/>
<path d="m 143.808 2080.67 -11.8456 11.8456" fill="none" stroke="#fff"/>
<path d="m 127.586 2096.89 1.1982 -4.285 3.2013 -0.1149 -0.1145 3.2012 z" stroke="#fff"/>
</g>
</svg>
