<svg viewBox="0 0 512 512" xmlns="http://www.w3.org/2000/svg">

<g transform="matrix(18.68858,0,0,18.68858,-5674.69017,-230.9801)">
<path d="m 317.353 13.4035 c -6.9735 0 -12.6441 5.6379 -12.6441 12.6115 s 5.6706 12.6443 12.6441 12.6443 12.6113 -5.6707 12.6113 -12.6443 -5.6378 -12.6115 -12.6113 -12.6115 z m 0 3.0872 c 5.2557 -1e-06 9.5241 4.2685 9.5241 9.5243 s -4.2684 9.5243 -9.5241 9.5243 -9.5242 -4.2685 -9.5242 -9.5243 4.2684 -9.5243 9.5242 -9.5243 z" fill="#fff"/>
<path d="m 303.793 26.0314 h 27.0876" fill="none" stroke="#000"/>
<path d="m 317.337 12.6186 v 26.8257" fill="none" stroke="#000"/>
<path d="m 317.354 19.1516 c -3.7991 0 -6.8972 3.0632 -6.8972 6.8624 s 3.0982 6.8974 6.8972 6.8974 6.8622 -3.0982 6.8623 -6.8974 -3.0632 -6.8624 -6.8623 -6.8624 z m 0 1.6806 c 2.8633 1e-06 5.1817 2.3185 5.1817 5.1818 s -2.3184 5.2168 -5.1817 5.2168 -5.1817 -2.3535 -5.1817 -5.2168 2.3184 -5.1818 5.1817 -5.1818 z" fill="#fff"/>
<path d="m 311.238 19.9327 12.1972 12.1975" fill="none" stroke="#000"/>
<path d="m 323.435 19.9327 -12.1972 12.1975" fill="none" stroke="#000"/>
<path d="m 318.466 20.6116 -2.1781 7e-06 1.0891 4.0884 1.0891 -4.0885 z" fill="#fff"/>
<path d="m 318.466 31.4088 -2.1781 -7e-06 1.0891 -4.0884 1.0891 4.0885 z" fill="#fff"/>
<path d="m 322.776 27.0992 -2e-05 -2.1781 -4.0884 1.0891 4.0885 1.0891 z" fill="#fff"/>
<path d="m 311.978 27.0992 1e-05 -2.1781 4.0884 1.0891 -4.0884 1.0891 z" fill="#fff"/>
</g>
</svg>
