<svg xmlns="http://www.w3.org/2000/svg" viewBox="0 0 512 512">
<g transform="matrix(14.99998 0 0 14.99998 -4873.9935 -583.99864)">
<use width="744.094" height="1052.362" transform="translate(360 36)"/>
<path fill="#fff" d="m332,48.6153c0-2.4615 2.5-2.4615 2.5-2.4615 0,0-1.25-1.5442-1.25-2.4615 0-.9174 0-1.2308 1.25-2.4615 1.25-1.2308 1.25-1.2308 2.5-1.2308h10c1.25,0 2.8148,1.3039 3.75,2.4615 .7342,.9089 1.25,2.4615 1.25,3.2594 0,4.1252-3.3345,11.8949-3.3345,11.8949l.4091,14.3465-13.5567,.0377 1.4821-14.7693c0,0-1.25-1.2308-2.5-2.4615-1.25-1.2308-2.5-2.4616-2.5-3.6923z"/>
</g>
</svg>
