<svg viewBox="0 0 512 512" xmlns="http://www.w3.org/2000/svg">

<g transform="matrix(18.68858,0,0,18.68858,-6357.05529,-32001.29189)">
<path d="m353.1562,1713.3438c-3.7757.1957-7.4714,2.5949-5.125,6.9062l3.0938,5.6875-4.9688,7.3125 1.3125-.062-.9062,2.5625 2.4375-1.4062-1.5938,3.5 1.9375-1.2188 .375,2 3.875-8.1562 4.4062,8.125 .2607-1.9355 2.0269.3977-1.362-2.5366 3.1507,1.3275-1.7477-3.0721 1.2651-.306-5.625-7.0313 2.75-5.75c1.99-4.1902-1.2732-6.2517-4.8125-6.3437-.2507-.01-.4983-.013-.75,0zm.0625,3.4374c1.8049-.026 3.6628.6604 2.6875,2.0938l-2.375,3.5-2.6875-3.3438c-1.1731-1.469.5701-2.2238 2.375-2.25z" fill="#fff"/>
<path d="m353.8858,1720.9565-4.5338,6.7349" fill="none" stroke="#000"/>
<path d="m356.6512,1725.1706-3.706,7.7695" fill="none" stroke="#000"/>
<path d="m355.0837,1719.1882c1.9983-2.7492 2.444-4.2985 1.5482-5.719" fill="none" stroke="#000"/>
<path d="m351.4857,1718.9625c-1.9983-2.5955-2.444-4.0581-1.5482-5.3992" fill="none" stroke="#000"/>
</g>
</svg>
