<svg viewBox="0 0 512 512" xmlns="http://www.w3.org/2000/svg">

<g transform="matrix(18.68858,0,0,18.68858,-6357.05529,-32001.29189)">
<path d="m 353.156 1713.34 c -3.7757 0.1957 -7.4714 2.5949 -5.125 6.9062 l 3.0938 5.6875 -4.9688 7.3125 1.3125 -0.062 -0.9062 2.5625 2.4375 -1.4062 -1.5938 3.5 1.9375 -1.2188 0.375 2 3.875 -8.1562 4.4062 8.125 0.2607 -1.9355 2.0269 0.3977 -1.362 -2.5366 3.1507 1.3275 -1.7477 -3.0721 1.2651 -0.306 -5.625 -7.0313 2.75 -5.75 c 1.99 -4.1902 -1.2732 -6.2517 -4.8125 -6.3437 -0.2507 -0.01 -0.4983 -0.013 -0.75 0 z m 0.0625 3.4374 c 1.8049 -0.026 3.6628 0.6604 2.6875 2.0938 l -2.375 3.5 -2.6875 -3.3438 c -1.1731 -1.469 0.5701 -2.2238 2.375 -2.25 z" fill="#fff"/>
<path d="m 353.886 1720.96 -4.5338 6.7349" fill="none" stroke="#000"/>
<path d="m 356.651 1725.17 -3.706 7.7695" fill="none" stroke="#000"/>
<path d="m 355.084 1719.19 c 1.9983 -2.7492 2.444 -4.2985 1.5482 -5.719" fill="none" stroke="#000"/>
<path d="m 351.486 1718.96 c -1.9983 -2.5955 -2.444 -4.0581 -1.5482 -5.3992" fill="none" stroke="#000"/>
</g>
</svg>
