<svg viewBox="0 0 512 512" xmlns="http://www.w3.org/2000/svg">

<g transform="matrix(18.68858,0,0,18.68858,-4313.93376,-33370.52379)">
<path d="m174.8924,1148.4327c0,1.9738-1.6001,2.7155-3.5739,2.7155s-3.5739-.7417-3.5739-2.7155 1.6001-5.0504 3.5739-5.0504 3.5739,3.0766 3.5739,5.0504z" fill="#fff" transform="matrix(.63469,0,0,1.55867,135.81253,12.99391)"/>
<g transform="translate(-.0478,-1.6591)">
<path d="m254.4912,1805.8016c.8091.9343.6463,2.291-.7079,3.3899" fill="none" stroke="#fff"/>
<path d="m255.8607,1798.2007c1.5207,1.0519 1.28,2.8139-.9082,3.9921" fill="none" stroke="#fff"/>
<path d="m254.4626,1792.7554c1.966.4492 2.8658,2.4165 2.4294,4.1114" fill="none" stroke="#fff"/>
<path d="m251.9273,1788.3365c.9297.5229 1.6206,1.21 1.9862,1.977 1.3463,2.8252-2.2387,6.0676-8.0088,7.2851-.3436.073-.6825.114-1.0251.169v1.3775c.538-.074 1.0928-.1522 1.6338-.2663 6.2316-1.315 10.1036-4.8641 8.6495-7.9154-.5274-1.1072-1.6774-2.0037-3.2355-2.6269z" fill="#fff"/>
<path d="m256.3547,1798.3197c.2758.7497.2418,1.458-.1488,2.0848-1.2872,2.0653-6.0758,2.5412-11.4583,1.3996v1.3126c5.6474,1.1161 10.585.5487 11.9419-1.6282 .5791-.9293.4031-2.025-.3348-3.1688z" fill="#fff"/>
<path d="m244.0648,1806.2092c4.07,3.5305 8.3511,4.9822 10.2016,3.2121 .7388-.7067.9794-1.8491.8112-3.221-.0442.8274-.322,1.507-.8203,1.9837-1.6055,1.5358-5.208.4429-8.7488-2.3886l-1.4437.4138z" fill="#fff"/>
<path d="m255.4688,1793.3943c.6966.6073 1.0624,1.3181 1.0625,2.0312-9e-05,2.4928-4.7426,4.4862-10.7812,4.6875v1.2187c6.5594-.2045 11.75-2.4221 11.75-5.125 .0002-1.0293-.7405-2.0082-2.0312-2.8124z" fill="#fff"/>
<path d="m255.8912,1802.2214c1.0448,1.2492.5094,2.9669-1.5105,3.8431" fill="none" stroke="#fff"/>
<path d="m256.2733,1802.406c.0823.7817-.0815,1.4806-.522,2.0507-1.4515,1.8783-5.4685,1.7075-9.6618-.1496l-.2519,1.3037c4.4154,1.8674 8.5721,1.9674 10.1021-.012 .6531-.8451.719-1.9571.3336-3.1923z" fill="#fff"/>
<path d="m234.6987,1805.8016c-.8091.9343-.6463,2.291.7079,3.3899" fill="none" stroke="#fff"/>
<path d="m233.3293,1798.2007c-1.5207,1.0519-1.28,2.8139.9082,3.9921" fill="none" stroke="#fff"/>
<path d="m234.7273,1792.7554c-1.966.4492-2.8658,2.4165-2.4294,4.1114" fill="none" stroke="#fff"/>
<path d="m237.2626,1788.3365c-.9297.5229-1.6206,1.21-1.9862,1.977-1.3463,2.8252 2.2387,6.0676 8.0088,7.2851 .3436.073.6825.114 1.0251.169v1.3775c-.538-.074-1.0928-.1522-1.6338-.2663-6.2316-1.315-10.1036-4.8641-8.6495-7.9154 .5274-1.1072 1.6774-2.0037 3.2355-2.6269z" fill="#fff"/>
<path d="m232.8352,1798.3197c-.2758.7497-.2418,1.458.1488,2.0848 1.2872,2.0653 6.0758,2.5412 11.4583,1.3996v1.3126c-5.6474,1.1161-10.585.5487-11.9419-1.6282-.5791-.9293-.4031-2.025.3348-3.1688z" fill="#fff"/>
<path d="m245.1251,1806.2092c-4.07,3.5305-8.3511,4.9822-10.2016,3.2121-.7388-.7067-.9794-1.8491-.8112-3.221 .0442.8274.322,1.507.8203,1.9837 1.6055,1.5358 5.208.4429 8.7488-2.3886l1.4437.4138z" fill="#fff"/>
<path d="m233.7212,1793.3943c-.6966.6073-1.0624,1.3181-1.0625,2.0312 9e-05,2.4928 4.7426,4.4862 10.7812,4.6875v1.2187c-6.5594-.2045-11.75-2.4221-11.75-5.125-.0002-1.0293.7405-2.0082 2.0312-2.8124z" fill="#fff"/>
<path d="m233.2988,1802.2214c-1.0448,1.2492-.5094,2.9669 1.5105,3.8431" fill="none" stroke="#fff"/>
<path d="m232.9166,1802.406c-.0823.7817.0815,1.4806.522,2.0507 1.4515,1.8783 5.4685,1.7075 9.6618-.1496l.2519,1.3037c-4.4154,1.8674-8.5721,1.9674-10.1021-.012-.6531-.8451-.719-1.9571-.3336-3.1923z" fill="#fff"/>
</g>
<path d="m252.6946,1807.625c1.6904,3.4935-4.3841,4.3336-7.7694-2.6354" fill="none" stroke="#fff"/>
<path d="m236.3857,1807.625c-1.6904,3.4935 4.3841,4.3336 7.7694-2.6354" fill="none" stroke="#fff"/>
</g>
</svg>
