<svg viewBox="0 0 512 512" xmlns="http://www.w3.org/2000/svg">

<g transform="matrix(18.68858,0,0,18.68858,-4313.93376,-33370.52379)">
<path d="m 174.892 1148.43 c 0 1.9738 -1.6001 2.7155 -3.5739 2.7155 s -3.5739 -0.7417 -3.5739 -2.7155 1.6001 -5.0504 3.5739 -5.0504 3.5739 3.0766 3.5739 5.0504 z" fill="#fff" transform="matrix(.63469,0,0,1.55867,135.81253,12.99391)"/>
<g transform="translate(-.0478,-1.6591)">
<path d="m 254.491 1805.8 c 0.8091 0.9343 0.6463 2.291 -0.7079 3.3899" fill="none" stroke="#fff"/>
<path d="m 255.861 1798.2 c 1.5207 1.0519 1.28 2.8139 -0.9082 3.9921" fill="none" stroke="#fff"/>
<path d="m 254.463 1792.76 c 1.966 0.4492 2.8658 2.4165 2.4294 4.1114" fill="none" stroke="#fff"/>
<path d="m 251.927 1788.34 c 0.9297 0.5229 1.6206 1.21 1.9862 1.977 1.3463 2.8252 -2.2387 6.0676 -8.0088 7.2851 -0.3436 0.073 -0.6825 0.114 -1.0251 0.169 v 1.3775 c 0.538 -0.074 1.0928 -0.1522 1.6338 -0.2663 6.2316 -1.315 10.1036 -4.8641 8.6495 -7.9154 -0.5274 -1.1072 -1.6774 -2.0037 -3.2355 -2.6269 z" fill="#fff"/>
<path d="m 256.355 1798.32 c 0.2758 0.7497 0.2418 1.458 -0.1488 2.0848 -1.2872 2.0653 -6.0758 2.5412 -11.4583 1.3996 v 1.3126 c 5.6474 1.1161 10.585 0.5487 11.9419 -1.6282 0.5791 -0.9293 0.4031 -2.025 -0.3348 -3.1688 z" fill="#fff"/>
<path d="m 244.065 1806.21 c 4.07 3.5305 8.3511 4.9822 10.2016 3.2121 0.7388 -0.7067 0.9794 -1.8491 0.8112 -3.221 -0.0442 0.8274 -0.322 1.507 -0.8203 1.9837 -1.6055 1.5358 -5.208 0.4429 -8.7488 -2.3886 l -1.4437 0.4138 z" fill="#fff"/>
<path d="m 255.469 1793.39 c 0.6966 0.6073 1.0624 1.3181 1.0625 2.0312 -9e-05 2.4928 -4.7426 4.4862 -10.7812 4.6875 v 1.2187 c 6.5594 -0.2045 11.75 -2.4221 11.75 -5.125 0.0002 -1.0293 -0.7405 -2.0082 -2.0312 -2.8124 z" fill="#fff"/>
<path d="m 255.891 1802.22 c 1.0448 1.2492 0.5094 2.9669 -1.5105 3.8431" fill="none" stroke="#fff"/>
<path d="m 256.273 1802.41 c 0.0823 0.7817 -0.0815 1.4806 -0.522 2.0507 -1.4515 1.8783 -5.4685 1.7075 -9.6618 -0.1496 l -0.2519 1.3037 c 4.4154 1.8674 8.5721 1.9674 10.1021 -0.012 0.6531 -0.8451 0.719 -1.9571 0.3336 -3.1923 z" fill="#fff"/>
<path d="m 234.699 1805.8 c -0.8091 0.9343 -0.6463 2.291 0.7079 3.3899" fill="none" stroke="#fff"/>
<path d="m 233.329 1798.2 c -1.5207 1.0519 -1.28 2.8139 0.9082 3.9921" fill="none" stroke="#fff"/>
<path d="m 234.727 1792.76 c -1.966 0.4492 -2.8658 2.4165 -2.4294 4.1114" fill="none" stroke="#fff"/>
<path d="m 237.263 1788.34 c -0.9297 0.5229 -1.6206 1.21 -1.9862 1.977 -1.3463 2.8252 2.2387 6.0676 8.0088 7.2851 0.3436 0.073 0.6825 0.114 1.0251 0.169 v 1.3775 c -0.538 -0.074 -1.0928 -0.1522 -1.6338 -0.2663 -6.2316 -1.315 -10.1036 -4.8641 -8.6495 -7.9154 0.5274 -1.1072 1.6774 -2.0037 3.2355 -2.6269 z" fill="#fff"/>
<path d="m 232.835 1798.32 c -0.2758 0.7497 -0.2418 1.458 0.1488 2.0848 1.2872 2.0653 6.0758 2.5412 11.4583 1.3996 v 1.3126 c -5.6474 1.1161 -10.585 0.5487 -11.9419 -1.6282 -0.5791 -0.9293 -0.4031 -2.025 0.3348 -3.1688 z" fill="#fff"/>
<path d="m 245.125 1806.21 c -4.07 3.5305 -8.3511 4.9822 -10.2016 3.2121 -0.7388 -0.7067 -0.9794 -1.8491 -0.8112 -3.221 0.0442 0.8274 0.322 1.507 0.8203 1.9837 1.6055 1.5358 5.208 0.4429 8.7488 -2.3886 l 1.4437 0.4138 z" fill="#fff"/>
<path d="m 233.721 1793.39 c -0.6966 0.6073 -1.0624 1.3181 -1.0625 2.0312 9e-05 2.4928 4.7426 4.4862 10.7812 4.6875 v 1.2187 c -6.5594 -0.2045 -11.75 -2.4221 -11.75 -5.125 -0.0002 -1.0293 0.7405 -2.0082 2.0312 -2.8124 z" fill="#fff"/>
<path d="m 233.299 1802.22 c -1.0448 1.2492 -0.5094 2.9669 1.5105 3.8431" fill="none" stroke="#fff"/>
<path d="m 232.917 1802.41 c -0.0823 0.7817 0.0815 1.4806 0.522 2.0507 1.4515 1.8783 5.4685 1.7075 9.6618 -0.1496 l 0.2519 1.3037 c -4.4154 1.8674 -8.5721 1.9674 -10.1021 -0.012 -0.6531 -0.8451 -0.719 -1.9571 -0.3336 -3.1923 z" fill="#fff"/>
</g>
<path d="m 252.695 1807.62 c 1.6904 3.4935 -4.3841 4.3336 -7.7694 -2.6354" fill="none" stroke="#fff"/>
<path d="m 236.386 1807.62 c -1.6904 3.4935 4.3841 4.3336 7.7694 -2.6354" fill="none" stroke="#fff"/>
</g>
</svg>
