<svg xmlns="http://www.w3.org/2000/svg" viewBox="0 0 512 512">
<g transform="matrix(15 0 0 15 15.99995 -6109.4326)">
<use width="744.094" height="1052.362" transform="translate(36 404.36217)"/>
</g>
<g fill="#fff" transform="matrix(6.31579 0 0 6.31579 -3179.78995 -2739.9721)">
<path d="m 544 24 c 0 0 -19 9.5 -19 33.25 v 19 c 0 4.75 0 4.75 4.75 4.75 h 28.5 c 4.75 0 4.75 0 4.75 -4.75 v -19 c 0 -23.75 -19 -33.25 -19 -33.25 z m 0 11.875 c 0 0 9.5 4.75 9.5 21.375 v 9.5 h -19 v -9.5 c 0 -16.625 9.5 -21.375 9.5 -21.375 z" transform="translate(0 412.36218)"/>
<path d="m 527 500.487 h 34 a 2 2 0 0 1 2 2 v 7.875 a 2 2 0 0 1 -2 2 h -34 a 2 2 0 0 1 -2 -2 v -7.875 a 2 2 0 0 1 2 -2"/>
</g>
</svg>
