<svg xmlns="http://www.w3.org/2000/svg" viewBox="0 0 512 512">
<g transform="matrix(15 0 0 15 15.99995 -6109.4326)">
<use width="744.094" height="1052.362" transform="translate(36 404.36217)"/>
</g>
<g fill="#fff" transform="matrix(6.31579 0 0 6.31579 -3179.78995 -2739.9721)">
<path d="m544,24c0,0-19,9.5-19,33.25v19c0,4.75 0,4.75 4.75,4.75h28.5c4.75,0 4.75,0 4.75-4.75v-19c0-23.75-19-33.25-19-33.25zm0,11.875c0,0 9.5,4.75 9.5,21.375v9.5h-19v-9.5c0-16.625 9.5-21.375 9.5-21.375z" transform="translate(0 412.36218)"/>
<path d="m527,500.487h34a2,2 0 0,1 2,2v7.875a2,2 0 0,1 -2,2h-34a2,2 0 0,1 -2-2v-7.875a2,2 0 0,1 2-2"/>
</g>
</svg>
