<svg viewBox="0 0 512 512" xmlns="http://www.w3.org/2000/svg">

<g transform="matrix(18.68858,0,0,18.68858,-1590.21713,-35398.08895)">
<g transform="matrix(.57845,.33397,-.33397,.57845,583.1624,741.92852)">
<path d="m240.684,1880.8335c0,1.1926-.9668,2.1594-2.1595,2.1594s-2.1595-.9668-2.1595-2.1594 .9668-2.1595 2.1595-2.1595 2.1595.9669 2.1595,2.1595z" fill="#fff" transform="matrix(.80696,-.46574,.4659,.80668,-826.30032,477.69507)"/>
<path d="m235.3227,1873.5777c1.5901,5.9323-.8726,6.6952 1.08,10.0762 1.1681,2.0225 6.7834.3877 12.1276-2.6962 5.3466-3.0855 9.5681-7.1279 8.3995-9.1514-1.9526-3.3808-3.8448-1.6303-8.189-5.9729-5.1657-5.164-7.9662-7.0098-11.7369-4.8336s-3.572,5.5237-1.6812,12.5779z" fill="#fff" stroke="#000" stroke-width="1.4971"/>
<path d="m246.3668,1861.1143c0,1.1612-.9414,2.1026-2.1026,2.1026s-2.1026-.9414-2.1026-2.1026 .9414-2.1027 2.1026-2.1027 2.1026.9414 2.1026,2.1027z" fill="none" stroke="#fff" stroke-width="1.7606" transform="matrix(.73656,-.4251,.42525,.7363,-734.69884,594.04558)"/>
<path d="m237.9311,1862.473c2.3355.2377 5.3364,2.3083 7.936,6.9119 2.5137,4.4516 6.0381,3.3438 7.3839,7.8578l2.5894-2.7061c-1.1698-3.8971-4.5725-2.557-9.2334-7.5425-2.2138-2.368-5.7408-5.8414-8.6759-4.5211z"/>
<path d="m254.9855,1871.7488c1.8195,1.3406-1.9926,4.4304-3.5146,5.4927" fill="none" stroke="#fff" stroke-width="1.4971"/>
</g>
<path d="m104.7386,1920.6047c2.065-1.6277 3.8666-4.4527 4.8025-7.9455 .8922-3.3298.7983-6.5491-.0554-8.9591 1.7616,2.385 2.4234,5.8807 1.4771,9.4121-.9743,3.6363-3.4015,6.3668-6.2241,7.4925z" fill="#fff"/>
<path d="m103.313,1917.8623c1.7224-1.1532 3.1803-3.2111 3.8731-5.7967 .6605-2.4649.4772-4.8787-.3332-6.7104 1.5897,1.8422 2.2696,4.4807 1.5692,7.0949-.7212,2.6918-2.7197,4.6591-5.1091,5.4122z" fill="#fff"/>
<path d="m92.8593,1920.6047c-2.065-1.6277-3.8666-4.4527-4.8025-7.9455-.8922-3.3298-.7983-6.5491.0554-8.9591-1.7616,2.385-2.4234,5.8807-1.4771,9.4121 .9743,3.6363 3.4015,6.3668 6.2241,7.4925z" fill="#fff"/>
<path d="m94.2849,1917.8623c-1.7224-1.1532-3.1803-3.2111-3.8731-5.7967-.6605-2.4649-.4772-4.8787.3332-6.7104-1.5897,1.8422-2.2696,4.4807-1.5692,7.0949 .7212,2.6918 2.7197,4.6591 5.1091,5.4122z" fill="#fff"/>
</g>
</svg>
