<svg viewBox="0 0 512 512" xmlns="http://www.w3.org/2000/svg">

<g transform="matrix(18.68858,0,0,18.68858,-11802.95236,-27902.40886)">
<path d="m 651.981 1507.45 c 0 3.9712 -3.2193 7.1904 -7.1904 7.1904 s -7.1904 -3.2192 -7.1904 -7.1904 3.2193 -7.1904 7.1904 -7.1904 7.1904 3.2193 7.1904 7.1904 z" fill="#fff" transform="matrix(1.74043,-1.00744,.39569,.68713,-1073.6058,1120.1475)"/>
<path d="m 651.981 1507.45 c 0 3.9712 -3.2193 7.1904 -7.1904 7.1904 s -7.1904 -3.2192 -7.1904 -7.1904 3.2193 -7.1904 7.1904 -7.1904 7.1904 3.2193 7.1904 7.1904 z" transform="matrix(1.1875,-.68738,.26998,.46883,-527.64949,1242.7399)"/>
<path d="m 652.067 1506.27 c 0 3.3754 -2.7363 6.1118 -6.1118 6.1118 s -6.1118 -2.7364 -6.1118 -6.1118 2.7364 -6.1118 6.1118 -6.1118 6.1118 2.7363 6.1118 6.1118 z" fill="#fff" transform="matrix(1.1229,-.64999,.64831,1.12581,-1056.425,231.04493)"/>
<path d="m 632.097 1513.85 c 1.7251 2.9955 8.9232 2.0508 16.0728 -2.0874 s 11.5647 -9.9154 9.8396 -12.9108" fill="none" stroke="#000"/>
</g>
</svg>
