<svg viewBox="0 0 512 512" xmlns="http://www.w3.org/2000/svg">

<g transform="matrix(18.68858,0,0,18.68858,-1596.03334,-40834.02896)">
<path d="m108.8804,2187.1887-.9911-.6671c-4.2826,1.0522-8.7116.6239-14.352-.2096l6.1942,1.8342z" fill="#fff"/>
<path d="m108.9107,2187.1581c-5.2623.6053-10.7677.6114-15.6045-1.0088l-1.5224,23.5831c1.8294,2.0103 13.1646,2.4604 15.6663.052z" fill="#fff"/>
<path d="m107.3276,2190.3402c-3.9383.6093-7.8262.5009-11.6804-.09l-.3297,4.702c3.8193,1.0886 7.7136,1.1066 11.6805.09z" fill="#fff" stroke="#000"/>
<path d="m105.5487,2195.3407-2.5601-4.6212-4.3853-.034 2.7378,4.9418z"/>
<path d="m99.4587,2195.7717-2.9831-5.3849" fill="none" stroke="#000"/>
<path d="m92.6795,2195.9943 1.0938,1.033 3.2138.2249-3.3556.9386-1.1426-.8244"/>
<path d="m96.7666,2200.6993c.2714.6346.7905.7124 1.3455.7087-.4626.9181 3e-05,1.0456.7002,1.6721-1.2025-.2944-1.9736.015-2.6449,1.1856-.0184-.9681-.3662-1.9198-1.7924-2.4521 1.1831.064 2.2669-.1661 2.3916-1.1143z"/>
<path d="m109.8779,2198.8936-1.9138,2.5607-5.6874,1.5363z"/>
<path d="m98.6788,2205.043c1.0691-.2441 1.7655-.6546 1.8538-1.7467 .3404.8923 1.1153,1.0648 1.9767.5844-.4626.918-.5128,1.6116.1873,2.2382-1.2025-.2944-1.7272-.3837-2.1814.4771-.0184-.9682-.7916-1.3066-1.8366-1.553z"/>
<path d="m106.2961,2208.7843c-.9069-.08-1.5707.2601-1.8214,1.0407-.2715-.6347-.7905-.7125-1.3456-.7089 .1498-.4713.2538-1.0162-.1721-1.6161 .9359.1845 1.6816.036 2.3092-.4435 .0184.9682.0502,1.3575 1.03,1.7278z"/>
</g>
</svg>
