<svg viewBox="0 0 512 512" xmlns="http://www.w3.org/2000/svg">

<g transform="matrix(18.68858,0,0,18.68858,-1596.03334,-40834.02896)">
<path d="m 108.88 2187.19 -0.9911 -0.6671 c -4.2826 1.0522 -8.7116 0.6239 -14.352 -0.2096 l 6.1942 1.8342 z" fill="#fff"/>
<path d="m 108.911 2187.16 c -5.2623 0.6053 -10.7677 0.6114 -15.6045 -1.0088 l -1.5224 23.5831 c 1.8294 2.0103 13.1646 2.4604 15.6663 0.052 z" fill="#fff"/>
<path d="m 107.328 2190.34 c -3.9383 0.6093 -7.8262 0.5009 -11.6804 -0.09 l -0.3297 4.702 c 3.8193 1.0886 7.7136 1.1066 11.6805 0.09 z" fill="#fff" stroke="#000"/>
<path d="m 105.549 2195.34 -2.5601 -4.6212 -4.3853 -0.034 2.7378 4.9418 z"/>
<path d="m 99.4587 2195.77 -2.9831 -5.3849" fill="none" stroke="#000"/>
<path d="m 92.6795 2195.99 1.0938 1.033 3.2138 0.2249 -3.3556 0.9386 -1.1426 -0.8244"/>
<path d="m 96.7666 2200.7 c 0.2714 0.6346 0.7905 0.7124 1.3455 0.7087 -0.4626 0.9181 3e-05 1.0456 0.7002 1.6721 -1.2025 -0.2944 -1.9736 0.015 -2.6449 1.1856 -0.0184 -0.9681 -0.3662 -1.9198 -1.7924 -2.4521 1.1831 0.064 2.2669 -0.1661 2.3916 -1.1143 z"/>
<path d="m 109.878 2198.89 -1.9138 2.5607 -5.6874 1.5363 z"/>
<path d="m 98.6788 2205.04 c 1.0691 -0.2441 1.7655 -0.6546 1.8538 -1.7467 0.3404 0.8923 1.1153 1.0648 1.9767 0.5844 -0.4626 0.918 -0.5128 1.6116 0.1873 2.2382 -1.2025 -0.2944 -1.7272 -0.3837 -2.1814 0.4771 -0.0184 -0.9682 -0.7916 -1.3066 -1.8366 -1.553 z"/>
<path d="m 106.296 2208.78 c -0.9069 -0.08 -1.5707 0.2601 -1.8214 1.0407 -0.2715 -0.6347 -0.7905 -0.7125 -1.3456 -0.7089 0.1498 -0.4713 0.2538 -1.0162 -0.1721 -1.6161 0.9359 0.1845 1.6816 0.036 2.3092 -0.4435 0.0184 0.9682 0.0502 1.3575 1.03 1.7278 z"/>
</g>
</svg>
