<svg viewBox="0 0 512 512" xmlns="http://www.w3.org/2000/svg">

<g transform="matrix(19.9766,0,0,19.9766,-3887.41026,-13911.52273)">
<path d="m 213.232 706.269 c 0 5.0897 -2.7384 9.2205 -6.1125 9.2205 s -6.1125 -4.1308 -6.1125 -9.2205 2.0342 -11.5647 6.1125 -7.4864 c 4.0736 -4.0736 6.1125 2.3967 6.1125 7.4864 z" fill="#fff"/>
<g transform="translate(1.875)">
<path d="m 206.855 699.529 7.489 7.106 c 0.0286 -6.1837 -3.4306 -9.9564 -7.489 -7.106 z" fill="#fff" fill-rule="evenodd"/>
<path d="m 203.633 699.529 -7.489 7.106 c -0.0286 -6.1837 3.4306 -9.9564 7.489 -7.106 z" fill="#fff" fill-rule="evenodd"/>
</g>
<g transform="translate(2.235)">
<path d="m 205.061 717.37 c 0 1.7574 -0.9794 3.182 -2.1876 3.182 s -2.1876 -1.4246 -2.1876 -3.182 0.9794 -3.182 2.1876 -3.182 2.1876 1.4246 2.1876 3.182 z" fill="#fff" transform="matrix(.02161,1.95015,-1.02017,.55829,937.11737,-84.53847)"/>
<path d="m 205.809 719.508 c 1.3419 -1.2915 1.7608 -5.2806 2.5292 -5.1307 s -0.4153 3.9114 0.4206 5.7059 c 0.5621 1.2068 -1.3675 1.3497 -1.5739 0.2088 -0.6396 1.0767 -2.2739 0.0803 -1.3758 -0.784 z" fill="#fff"/>
<path d="m 205.061 717.37 c 0 1.7574 -0.9794 3.182 -2.1876 3.182 s -2.1876 -1.4246 -2.1876 -3.182 0.9794 -3.182 2.1876 -3.182 2.1876 1.4246 2.1876 3.182 z" fill="#fff" transform="matrix(-.02161,1.95015,1.02017,.55829,-527.34893,-84.53847)"/>
<path d="m 203.96 719.508 c -1.3419 -1.2915 -1.7608 -5.2806 -2.5292 -5.1307 s 0.4153 3.9114 -0.4206 5.7059 c -0.5621 1.2068 1.3675 1.3497 1.5739 0.2088 0.6396 1.0767 2.2739 0.0803 1.3758 -0.784 z" fill="#fff"/>
</g>
</g>
</svg>
