<svg viewBox="0 0 512 512" xmlns="http://www.w3.org/2000/svg">

<g transform="matrix(19.9766,0,0,19.9766,-3887.41026,-13911.52273)">
<path d="m213.2317,706.2688c0,5.0897-2.7384,9.2205-6.1125,9.2205s-6.1125-4.1308-6.1125-9.2205 2.0342-11.5647 6.1125-7.4864c4.0736-4.0736 6.1125,2.3967 6.1125,7.4864z" fill="#fff"/>
<g transform="translate(1.875)">
<path d="m206.855,699.5288 7.489,7.106c.0286-6.1837-3.4306-9.9564-7.489-7.106z" fill="#fff" fill-rule="evenodd"/>
<path d="m203.6334,699.5288-7.489,7.106c-.0286-6.1837 3.4306-9.9564 7.489-7.106z" fill="#fff" fill-rule="evenodd"/>
</g>
<g transform="translate(2.235)">
<path d="m205.061,717.3704c0,1.7574-.9794,3.182-2.1876,3.182s-2.1876-1.4246-2.1876-3.182 .9794-3.182 2.1876-3.182 2.1876,1.4246 2.1876,3.182z" fill="#fff" transform="matrix(.02161,1.95015,-1.02017,.55829,937.11737,-84.53847)"/>
<path d="m205.8088,719.5075c1.3419-1.2915 1.7608-5.2806 2.5292-5.1307s-.4153,3.9114.4206,5.7059c.5621,1.2068-1.3675,1.3497-1.5739.2088-.6396,1.0767-2.2739.0803-1.3758-.784z" fill="#fff"/>
<path d="m205.061,717.3704c0,1.7574-.9794,3.182-2.1876,3.182s-2.1876-1.4246-2.1876-3.182 .9794-3.182 2.1876-3.182 2.1876,1.4246 2.1876,3.182z" fill="#fff" transform="matrix(-.02161,1.95015,1.02017,.55829,-527.34893,-84.53847)"/>
<path d="m203.9596,719.5075c-1.3419-1.2915-1.7608-5.2806-2.5292-5.1307s.4153,3.9114-.4206,5.7059c-.5621,1.2068 1.3675,1.3497 1.5739.2088 .6396,1.0767 2.2739.0803 1.3758-.784z" fill="#fff"/>
</g>
</g>
</svg>
