<svg viewBox="0 0 512 512" xmlns="http://www.w3.org/2000/svg">

<g transform="matrix(18.68858,0,0,18.68858,-908.7363,-37446.00257)">
<path d="m56.2505,2021.7274c0,.9088-.7367,1.6455-1.6455,1.6455s-1.6455-.7367-1.6455-1.6455 .7367-1.6455 1.6455-1.6455 1.6455.7367 1.6455,1.6455z" fill="#fff" transform="translate(1.0775,.0757)"/>
<path d="m62.3592,2007.519 10.0237,11.7407-9.1052,8.2407-10.9423-8.2407z" fill="#fff"/>
<path d="m56.2505,2021.7274c0,.9088-.7367,1.6455-1.6455,1.6455s-1.6455-.7367-1.6455-1.6455 .7367-1.6455 1.6455-1.6455 1.6455.7367 1.6455,1.6455z" fill="#fff" transform="matrix(-1,0,0,1,123.62416,.07566)"/>
<path d="m61.1211,2005.5741-6.1368,25.0494h14.6733l-6.1368-25.0494h-2.3998z" fill="#fff" stroke="#000"/>
<path d="m60.8031,2009.0598-3.4395,4.9353 4.8974,2.3183 4.9236-2.3183-3.439-4.9353z" fill="#fff"/>
<path d="m61.9147,2007.5938-1.3438,22.9062h3.5l-1.3438-22.9062h-.8125z"/>
<path d="m60.4257,2005.0589-4.322,6.2015 6.1539,2.9131 6.1868-2.9131-4.3213-6.2015c-1.1947-1.1817-2.465-1.0616-3.6975,0z" fill="#fff" stroke="#000"/>
<path d="m65.4221,2011.3196-3.1512,2.8558-3.1512-2.8558c2.6432-5.5031 3.8529-5.4039 6.3023,0z"/>
<path d="m52.7481,2020.3919 4.4403,1.0164" fill="none" stroke="#000"/>
<path d="m71.9536,2020.3919-4.4403,1.0164" fill="none" stroke="#000"/>
</g>
</svg>
