<svg viewBox="0 0 512 512" xmlns="http://www.w3.org/2000/svg">

<g transform="matrix(18.68858,0,0,18.68858,-908.7363,-37446.00257)">
<path d="m 56.2505 2021.73 c 0 0.9088 -0.7367 1.6455 -1.6455 1.6455 s -1.6455 -0.7367 -1.6455 -1.6455 0.7367 -1.6455 1.6455 -1.6455 1.6455 0.7367 1.6455 1.6455 z" fill="#fff" transform="translate(1.0775,.0757)"/>
<path d="m 62.3592 2007.52 10.0237 11.7407 -9.1052 8.2407 -10.9423 -8.2407 z" fill="#fff"/>
<path d="m 56.2505 2021.73 c 0 0.9088 -0.7367 1.6455 -1.6455 1.6455 s -1.6455 -0.7367 -1.6455 -1.6455 0.7367 -1.6455 1.6455 -1.6455 1.6455 0.7367 1.6455 1.6455 z" fill="#fff" transform="matrix(-1,0,0,1,123.62416,.07566)"/>
<path d="m 61.1211 2005.57 -6.1368 25.0494 h 14.6733 l -6.1368 -25.0494 h -2.3998 z" fill="#fff" stroke="#000"/>
<path d="m 60.8031 2009.06 -3.4395 4.9353 4.8974 2.3183 4.9236 -2.3183 -3.439 -4.9353 z" fill="#fff"/>
<path d="m 61.9147 2007.59 -1.3438 22.9062 h 3.5 l -1.3438 -22.9062 h -0.8125 z"/>
<path d="m 60.4257 2005.06 -4.322 6.2015 6.1539 2.9131 6.1868 -2.9131 -4.3213 -6.2015 c -1.1947 -1.1817 -2.465 -1.0616 -3.6975 0 z" fill="#fff" stroke="#000"/>
<path d="m 65.4221 2011.32 -3.1512 2.8558 -3.1512 -2.8558 c 2.6432 -5.5031 3.8529 -5.4039 6.3023 0 z"/>
<path d="m 52.7481 2020.39 4.4403 1.0164" fill="none" stroke="#000"/>
<path d="m 71.9536 2020.39 -4.4403 1.0164" fill="none" stroke="#000"/>
</g>
</svg>
