<svg viewBox="0 0 512 512" xmlns="http://www.w3.org/2000/svg">

<g transform="matrix(18.68858,0,0,18.68858,-1590.1522,-21126.75175)">
<path d="m88.8178,1142.4975c0-7.8418 20.0066-7.7799 20.0066,0" fill="none" stroke="#fff"/>
<path d="m92.6292,1152.859c0-10.9363 12.3838-10.8502 12.3838,0" fill="none" stroke="#fff"/>
<path d="m94.0235,1149.178c0,.9336-.7569,1.6905-1.6905,1.6905s-1.6905-.7569-1.6905-1.6905 .7569-1.6905 1.6905-1.6905 1.6905.7568 1.6905,1.6905z" fill="#fff" stroke="#000" stroke-width=".8824" transform="matrix(1.14172,-.28124,.30592,1.04961,-347.92092,-31.38998)"/>
<path d="m94.0235,1149.178c0,.9336-.7569,1.6905-1.6905,1.6905s-1.6905-.7569-1.6905-1.6905 .7569-1.6905 1.6905-1.6905 1.6905.7568 1.6905,1.6905z" fill="#fff" stroke="#000" stroke-width=".8824" transform="matrix(1.14172,-.28124,.30592,1.04961,-368.39685,-31.38998)"/>
<path d="m101.5919,1157.2872c0-12.5134 7.0321-12.4147 7.0321,0h-7.0321z" fill="#fff" fill-rule="evenodd" stroke="#000"/>
<path d="m89.0183,1157.2872c0-12.5134 7.0321-12.4147 7.0321,0h-7.0321z" fill="#fff" fill-rule="evenodd" stroke="#000"/>
<path d="m88.4442,1157.2872c0-3.839 5.3842-3.8087 5.3842,0h-5.3842z" fill="#fff" fill-rule="evenodd" stroke="#000"/>
<path d="m103.8138,1157.2872c0-3.839 5.3842-3.8087 5.3842,0h-5.3842z" fill="#fff" fill-rule="evenodd" stroke="#000"/>
<path d="m112.0227,1148.0121c-4e-05-10.6347-5.9273-10.5508-5.9272,0h5.9272z" fill="#fff" fill-rule="evenodd" stroke="#000"/>
<path d="m91.5468,1148.0121c-4.8e-05-10.6347-5.9273-10.5508-5.9272,0h5.9272z" fill="#fff" fill-rule="evenodd" stroke="#000"/>
<path d="m101.5074,1143.6885c0,1.2169-.9865,2.2034-2.2034,2.2034s-2.2034-.9865-2.2034-2.2034 .9865-2.2034 2.2034-2.2034 2.2034.9865 2.2034,2.2034z" fill="#fff" stroke="#000" stroke-width=".9589" transform="matrix(1.08748,0,0,1,-9.16963,0)"/>
<path d="m93.3776,1136.0199c0,8.3624 10.887,8.2966 10.887,0h-10.887z" fill="#fff" fill-rule="evenodd" stroke="#000"/>
<path d="m108.8912,1135.7739c-6.3682,6.4429-10.8144,1.8433-4.4964-4.5487l4.4964,4.5487z" fill="#fff" fill-rule="evenodd" stroke="#000"/>
<path d="m88.7511,1135.7739c6.3682,6.4429 10.8144,1.8433 4.4964-4.5487l-4.4964,4.5487z" fill="#fff" fill-rule="evenodd" stroke="#000"/>
<path d="m101.594,1140.0145c0,1.5281-1.2388,2.7669-2.7668,2.7669s-2.7668-1.2388-2.7668-2.7669 1.2388-2.7668 2.7668-2.7668 2.7668,1.2387 2.7668,2.7668z" fill="#fff" stroke="#000" stroke-width=".7502" transform="matrix(1.33316,0,0,1.33281,-32.93142,-384.78695)"/>
<path d="m95.3466,1134.6383h6.949" fill="none" stroke="#000"/>
<path d="m98.8212,1134.4316-9.2e-05,3.6194" fill="none" stroke="#000"/>
</g>
</svg>
