<svg viewBox="0 0 512 512" xmlns="http://www.w3.org/2000/svg">

<g transform="matrix(18.68858,0,0,18.68858,-1590.1522,-21126.75175)">
<path d="m 88.8178 1142.5 c 0 -7.8418 20.0066 -7.7799 20.0066 0" fill="none" stroke="#fff"/>
<path d="m 92.6292 1152.86 c 0 -10.9363 12.3838 -10.8502 12.3838 0" fill="none" stroke="#fff"/>
<path d="m 94.0235 1149.18 c 0 0.9336 -0.7569 1.6905 -1.6905 1.6905 s -1.6905 -0.7569 -1.6905 -1.6905 0.7569 -1.6905 1.6905 -1.6905 1.6905 0.7568 1.6905 1.6905 z" fill="#fff" stroke="#000" stroke-width=".8824" transform="matrix(1.14172,-.28124,.30592,1.04961,-347.92092,-31.38998)"/>
<path d="m 94.0235 1149.18 c 0 0.9336 -0.7569 1.6905 -1.6905 1.6905 s -1.6905 -0.7569 -1.6905 -1.6905 0.7569 -1.6905 1.6905 -1.6905 1.6905 0.7568 1.6905 1.6905 z" fill="#fff" stroke="#000" stroke-width=".8824" transform="matrix(1.14172,-.28124,.30592,1.04961,-368.39685,-31.38998)"/>
<path d="m 101.592 1157.29 c 0 -12.5134 7.0321 -12.4147 7.0321 0 h -7.0321 z" fill="#fff" fill-rule="evenodd" stroke="#000"/>
<path d="m 89.0183 1157.29 c 0 -12.5134 7.0321 -12.4147 7.0321 0 h -7.0321 z" fill="#fff" fill-rule="evenodd" stroke="#000"/>
<path d="m 88.4442 1157.29 c 0 -3.839 5.3842 -3.8087 5.3842 0 h -5.3842 z" fill="#fff" fill-rule="evenodd" stroke="#000"/>
<path d="m 103.814 1157.29 c 0 -3.839 5.3842 -3.8087 5.3842 0 h -5.3842 z" fill="#fff" fill-rule="evenodd" stroke="#000"/>
<path d="m 112.023 1148.01 c -4e-05 -10.6347 -5.9273 -10.5508 -5.9272 0 h 5.9272 z" fill="#fff" fill-rule="evenodd" stroke="#000"/>
<path d="m 91.5468 1148.01 c -4.8e-05 -10.6347 -5.9273 -10.5508 -5.9272 0 h 5.9272 z" fill="#fff" fill-rule="evenodd" stroke="#000"/>
<path d="m 101.507 1143.69 c 0 1.2169 -0.9865 2.2034 -2.2034 2.2034 s -2.2034 -0.9865 -2.2034 -2.2034 0.9865 -2.2034 2.2034 -2.2034 2.2034 0.9865 2.2034 2.2034 z" fill="#fff" stroke="#000" stroke-width=".9589" transform="matrix(1.08748,0,0,1,-9.16963,0)"/>
<path d="m 93.3776 1136.02 c 0 8.3624 10.887 8.2966 10.887 0 h -10.887 z" fill="#fff" fill-rule="evenodd" stroke="#000"/>
<path d="m 108.891 1135.77 c -6.3682 6.4429 -10.8144 1.8433 -4.4964 -4.5487 l 4.4964 4.5487 z" fill="#fff" fill-rule="evenodd" stroke="#000"/>
<path d="m 88.7511 1135.77 c 6.3682 6.4429 10.8144 1.8433 4.4964 -4.5487 l -4.4964 4.5487 z" fill="#fff" fill-rule="evenodd" stroke="#000"/>
<path d="m 101.594 1140.01 c 0 1.5281 -1.2388 2.7669 -2.7668 2.7669 s -2.7668 -1.2388 -2.7668 -2.7669 1.2388 -2.7668 2.7668 -2.7668 2.7668 1.2387 2.7668 2.7668 z" fill="#fff" stroke="#000" stroke-width=".7502" transform="matrix(1.33316,0,0,1.33281,-32.93142,-384.78695)"/>
<path d="m 95.3466 1134.64 h 6.949" fill="none" stroke="#000"/>
<path d="m 98.8212 1134.43 -9.2e-05 3.6194" fill="none" stroke="#000"/>
</g>
</svg>
