<svg xmlns="http://www.w3.org/2000/svg" viewBox="0 0 512 512">

<path fill="#fff" d="m40.5405,222.3784 .3243,137.4054 96.2162,.8649c-9.8626,32.4055 114.1291,85.7303 121.9459,64.8649c.6784-1.811 105.0811-219.6757 105.0811-219.6757z"/>
<path fill="#fff" stroke="#000" stroke-linejoin="round" stroke-linecap="round" stroke-width="18" d="m408.2326,401.4946c-4.9128,23.4065-2.072,47.3379-45.5823,56.0773c-37.945-1.0055-70.6472-13.8071-102.1291-29.3545c-3.9322-21.06-5.077-62.6055 26.6216-64.3613"/>
<path fill="#fff" stroke="#000" stroke-linejoin="round" stroke-linecap="round" stroke-width="18" d="m438.4826,323.0305c24.9054,39.43-1.3232,59.017-29.966,77.6671c-38.6043-5.0322-76.8907-11.177-110.6909-33.0238c-20.9431-23.6467-2.2188-46.4285 7.9809-70.0751"/>
<path fill="#fff" stroke="#000" stroke-linejoin="round" stroke-linecap="round" stroke-width="18" d="m460.0353,232.8049c24.1529,41.8527 9.7095,69.5031-16.6603,88.391c-46.2741-.9427-92.5482-8.8475-138.8223-22.0159c2.0046-19.7021-1.8698-44.6953 15.2888-50.7588"/>
<path fill="#fff" stroke="#000" stroke-linejoin="round" stroke-linecap="round" stroke-width="18" d="m369.3773,145.6805 50.2394-7.3386c57.8613,5.2535 57.2138,42.4977 43.6338,88.9808c-22.1601,5.1456-35.2085,12.868-68.188,6.4213"/>
<path fill="#fff" stroke="#000" stroke-linejoin="round" stroke-width="18" d="m40.3624,222.1244 105.7985-.6116 62.9898-100.2945c80.4199-29.8845 133.2114-20.053 161.4497,25.0736c11.0314,29.7622 19.7158,59.5244 22.6274,89.2866c-18.8718,14.6879-37.7426,29.3779-70.94,12.231l-27.5198-69.1054c-2.2753,92.9762-79.3562,109.3873-88.0635,112.5255"/>
<path fill="none" stroke="#000" stroke-linejoin="round" stroke-width="18" d="m260.0643,427.7479c-39.2899-1.3508-107.081-10.8925-124.8064-68.5002l-94.8955-.7472"/>
</svg>
