<svg viewBox="0 0 512 512" xmlns="http://www.w3.org/2000/svg">

<g transform="matrix(18.68858,0,0,18.68858,-8399.08167,-36083.70006)">
<g transform="matrix(1.68412,-1.68412,-1.68412,-1.68412,3332.7662,5623.9594)">
<path d="m 240.312 1936.81 c -1.9713 2.8717 -2.2863 6.5377 -0.9375 9.6563 h 1.875 c 1.3647 -3.1217 1.0542 -6.7736 -0.9375 -9.6563 z" fill="#fff"/>
<path d="m 239.566 1947.45 c -0.5484 1.4496 -0.3048 3.0548 0.75 4.3514 1.065 -1.3008 1.3038 -2.9022 0.75 -4.3514 -0.085 0.514 -0.3142 1.0036 -0.75 1.4505 -0.4316 -0.4454 -0.6658 -0.9359 -0.75 -1.4505 z" fill="#fff"/>
<path d="m 241.001 1943.01 2.5753 2.167 v 2.3606 l -2.5753 -1.1806 z" fill="#fff"/>
<path d="m 239.606 1943.01 -2.5753 2.167 v 2.3606 l 2.5753 -1.1806 z" fill="#fff"/>
</g>
<path d="m 466.528 1953.98 c 0 -3.1784 2.5767 -5.7552 5.7553 -5.7552" fill="none" stroke="#000"/>
<path d="m 457.699 1943.67 c 0 -2.4297 1.9697 -4.3994 4.3994 -4.3994" fill="#fff"/>
<path d="m 464.758 1952.85 c 0 -3.552 2.8795 -6.4315 6.4316 -6.4315" fill="none" stroke="#000"/>
<path d="m 457.674 1941.86 5.5768 6.8477 -3.1867 0.3414" fill="none" stroke="#000"/>
<path d="m 460.14 1939.31 6.7908 5.5387 0.3415 -3.1867" fill="none" stroke="#000"/>
<path d="m 468.359 1955.06 c 0 -2.7304 2.2135 -4.9439 4.944 -4.9439" fill="none" stroke="#000"/>
<path d="m 465.185 1950.38 3.664 2.9906" fill="none" stroke="#000"/>
<path d="m 468.688 1946.89 2.8834 3.5206" fill="none" stroke="#000"/>
<path d="m 466.671 1948.1 2.9397 3.2256" fill="none" stroke="#000"/>
<path d="m 458.955 1938.05 -1.8422 -4.6383 -0.2095 2.7874" fill="#fff"/>
<path d="m 453.358 1938.64 -3.02 -3.0798 1.8359 0.5672" fill="#fff"/>
</g>
</svg>
