<svg viewBox="0 0 512 512" xmlns="http://www.w3.org/2000/svg">

<g transform="matrix(18.68858,0,0,18.68858,-9760.49296,-26544.86886)">
<path d="m523.4436,1445.672v-8.9915c5.6528,8.1482 15.6528,3.9377 19.6471-2.2171-2.5623,7.6559-11.5704,14.7193-19.6471,11.2086z" fill="#fff"/>
<path d="m540.9057,1432.3219c.7231-2.6985 1.4371-3.1795 3.2905-4.006l1.1731-3.0617 2.7039-2.475 .3577,3.6481-1.1731,3.0617c1.1441,1.7947 1.0832,2.9067-.2288,5.1791l-.9443-2.1174-1.1628,1.3101-1.9987-.7659 .0999-1.7173z" fill="#fff"/>
<path d="m539.3366,1438.6568c-2.2286,3.1438-7.8703,3.811-10.2481.5599 2.7266,1.7103 7.0098,1.6627 10.2481-.5599z" fill="#fff"/>
<path d="m541.061,1437.0299c-1.2242,2.7041-5.3925,4.036-7.6674,1.9263 2.3127.8933 5.5446.2293 7.6674-1.9263z" fill="#fff"/>
<path d="m538.9366,1438.7264-1.4756,5.7512 3.3201-5.521" fill="#fff"/>
<path d="m535.3813,1442.016-2.3449,4.9523 4.7151-4.55" fill="#fff"/>
</g>
</svg>
