<svg viewBox="0 0 512 512" xmlns="http://www.w3.org/2000/svg">

<g transform="matrix(18.68858,0,0,18.68858,-8399.08167,-36083.70006)">
<g transform="matrix(1.68412,-1.68412,-1.68412,-1.68412,3332.7662,5623.9594)">
<path d="m240.3125,1936.8125c-1.9713,2.8717-2.2863,6.5377-.9375,9.6563h1.875c1.3647-3.1217 1.0542-6.7736-.9375-9.6563z" fill="#fff"/>
<path d="m239.5665,1947.4453c-.5484,1.4496-.3048,3.0548.75,4.3514 1.065-1.3008 1.3038-2.9022.75-4.3514-.085.514-.3142,1.0036-.75,1.4505-.4316-.4454-.6658-.9359-.75-1.4505z" fill="#fff"/>
<path d="m241.0012,1943.0053 2.5753,2.167v2.3606l-2.5753-1.1806z" fill="#fff"/>
<path d="m239.6063,1943.0053-2.5753,2.167v2.3606l2.5753-1.1806z" fill="#fff"/>
</g>
<path d="m466.5282,1953.9846c0-3.1784 2.5767-5.7552 5.7553-5.7552" fill="none" stroke="#000"/>
<path d="m457.6985,1943.6696c0-2.4297 1.9697-4.3994 4.3994-4.3994" fill="#fff"/>
<path d="m464.7578,1952.8527c0-3.552 2.8795-6.4315 6.4316-6.4315" fill="none" stroke="#000"/>
<path d="m457.6736,1941.8551 5.5768,6.8477-3.1867.3414" fill="none" stroke="#000"/>
<path d="m460.1404,1939.3091 6.7908,5.5387 .3415-3.1867" fill="none" stroke="#000"/>
<path d="m468.3589,1955.0576c0-2.7304 2.2135-4.9439 4.944-4.9439" fill="none" stroke="#000"/>
<path d="m465.1847,1950.3826 3.664,2.9906" fill="none" stroke="#000"/>
<path d="m468.6877,1946.8888 2.8834,3.5206" fill="none" stroke="#000"/>
<path d="m466.6712,1948.0959 2.9397,3.2256" fill="none" stroke="#000"/>
<path d="m458.9547,1938.0549-1.8422-4.6383-.2095,2.7874" fill="#fff"/>
<path d="m453.3584,1938.639-3.02-3.0798 1.8359.5672" fill="#fff"/>
</g>
</svg>
