<svg viewBox="0 0 512 512" xmlns="http://www.w3.org/2000/svg">

<g transform="matrix(18.68858,0,0,18.68858,-9760.49296,-26544.86886)">
<path d="m 523.444 1445.67 v -8.9915 c 5.6528 8.1482 15.6528 3.9377 19.6471 -2.2171 -2.5623 7.6559 -11.5704 14.7193 -19.6471 11.2086 z" fill="#fff"/>
<path d="m 540.906 1432.32 c 0.7231 -2.6985 1.4371 -3.1795 3.2905 -4.006 l 1.1731 -3.0617 2.7039 -2.475 0.3577 3.6481 -1.1731 3.0617 c 1.1441 1.7947 1.0832 2.9067 -0.2288 5.1791 l -0.9443 -2.1174 -1.1628 1.3101 -1.9987 -0.7659 0.0999 -1.7173 z" fill="#fff"/>
<path d="m 539.337 1438.66 c -2.2286 3.1438 -7.8703 3.811 -10.2481 0.5599 2.7266 1.7103 7.0098 1.6627 10.2481 -0.5599 z" fill="#fff"/>
<path d="m 541.061 1437.03 c -1.2242 2.7041 -5.3925 4.036 -7.6674 1.9263 2.3127 0.8933 5.5446 0.2293 7.6674 -1.9263 z" fill="#fff"/>
<path d="m 538.937 1438.73 -1.4756 5.7512 3.3201 -5.521" fill="#fff"/>
<path d="m 535.381 1442.02 -2.3449 4.9523 4.7151 -4.55" fill="#fff"/>
</g>
</svg>
