<svg viewBox="0 0 512 512" xmlns="http://www.w3.org/2000/svg">

<g transform="matrix(18.68858,0,0,18.68858,-1596.72108,-42186.9532)">
<path d="m91.5084,2283.1981-1.7023-4.8543 5.1415-.5277z" fill="#fff"/>
<path d="m90.9211,2270.9304 9.42.307 .3082-9.4206c-6.0627,1.5658-8.1007,3.7477-9.7282,9.1136z" fill="#fff" stroke="#000"/>
<path d="m100.8453,2270.7399 .561-7.7322 5.744-.2605 .0215-1.5103-7.8666-.704-.9811,6.04" fill="#fff"/>
<path d="m99.4062,2272.5818-7.7516.056-.6349,5.7153-1.5082-.077-.1892-7.8967 6.0904-.5847" fill="#fff"/>
<path d="m17.3056,1872.8766c0,.7249-.5877,1.3126-1.3127,1.3126s-1.3127-.5877-1.3127-1.3126 .5877-1.3127 1.3127-1.3127 1.3127.5877 1.3127,1.3127z" fill="#fff" transform="matrix(-1.07182,1.0041,1.00387,1.07177,-1755.7016,239.21727)"/>
<path d="m25.744,1875.2474c0,1.3267-.7796,2.4022-1.7413,2.4022s-1.7413-1.0755-1.7413-2.4022 .7796-2.4021 1.7413-2.4021 1.7413,1.0755 1.7413,2.4021z" fill="#fff" stroke="#000" stroke-width=".5582" transform="matrix(-1.46416,1.37166,1.09371,1.16769,-1915.3643,49.04481)"/>
<path d="m105.2001,2258.7192 5.5431,9.825" fill="none" stroke="#fff"/>
<path d="m106.4457,2264.2761c2.3171,3.0309 3.9029,6.5767 5.2328,10.303 .7402-4.0949-.081-7.7831-1.8461-11.2255" fill="#fff"/>
<path d="m17.3056,1872.8766c0,.7249-.5877,1.3126-1.3127,1.3126s-1.3127-.5877-1.3127-1.3126 .5877-1.3127 1.3127-1.3127 1.3127.5877 1.3127,1.3127z" fill="#fff" transform="matrix(1.07182,-1.0041,1.00387,1.07177,-1807.0382,287.31081)"/>
<path d="m86.5303,2276.2097 9.4409,6.1728" fill="none" stroke="#fff"/>
<path d="m91.9933,2277.8155c2.8731,2.5098 6.3074,4.3238 9.9385,5.8943-4.1339.4717-7.7604-.5886-11.08-2.5751" fill="#fff"/>
<path d="m106.0238,2266.9786 .9529-5.0551 4.7165,2.1138z" fill="#fff"/>
<path d="m105.3207,2265.5624 5.7535-3.1408" fill="none" stroke="#000"/>
<path d="m93.3503,2276.7768-3.5096,5.5365" fill="none" stroke="#000"/>
<path d="m90.8279,2268.6421-2.8357,3.2266" fill="none" stroke="#000"/>
<path d="m100.6841,2258.8942-2.8357,3.2266" fill="none" stroke="#000"/>
</g>
</svg>
