<svg viewBox="0 0 512 512" xmlns="http://www.w3.org/2000/svg">

<g transform="matrix(18.68858,0,0,18.68858,-1596.72108,-42186.9532)">
<path d="m 91.5084 2283.2 -1.7023 -4.8543 5.1415 -0.5277 z" fill="#fff"/>
<path d="m 90.9211 2270.93 9.42 0.307 0.3082 -9.4206 c -6.0627 1.5658 -8.1007 3.7477 -9.7282 9.1136 z" fill="#fff" stroke="#000"/>
<path d="m 100.845 2270.74 0.561 -7.7322 5.744 -0.2605 0.0215 -1.5103 -7.8666 -0.704 -0.9811 6.04" fill="#fff"/>
<path d="m 99.4062 2272.58 -7.7516 0.056 -0.6349 5.7153 -1.5082 -0.077 -0.1892 -7.8967 6.0904 -0.5847" fill="#fff"/>
<path d="m 17.3056 1872.88 c 0 0.7249 -0.5877 1.3126 -1.3127 1.3126 s -1.3127 -0.5877 -1.3127 -1.3126 0.5877 -1.3127 1.3127 -1.3127 1.3127 0.5877 1.3127 1.3127 z" fill="#fff" transform="matrix(-1.07182,1.0041,1.00387,1.07177,-1755.7016,239.21727)"/>
<path d="m 25.744 1875.25 c 0 1.3267 -0.7796 2.4022 -1.7413 2.4022 s -1.7413 -1.0755 -1.7413 -2.4022 0.7796 -2.4021 1.7413 -2.4021 1.7413 1.0755 1.7413 2.4021 z" fill="#fff" stroke="#000" stroke-width=".5582" transform="matrix(-1.46416,1.37166,1.09371,1.16769,-1915.3643,49.04481)"/>
<path d="m 105.2 2258.72 5.5431 9.825" fill="none" stroke="#fff"/>
<path d="m 106.446 2264.28 c 2.3171 3.0309 3.9029 6.5767 5.2328 10.303 0.7402 -4.0949 -0.081 -7.7831 -1.8461 -11.2255" fill="#fff"/>
<path d="m 17.3056 1872.88 c 0 0.7249 -0.5877 1.3126 -1.3127 1.3126 s -1.3127 -0.5877 -1.3127 -1.3126 0.5877 -1.3127 1.3127 -1.3127 1.3127 0.5877 1.3127 1.3127 z" fill="#fff" transform="matrix(1.07182,-1.0041,1.00387,1.07177,-1807.0382,287.31081)"/>
<path d="m 86.5303 2276.21 9.4409 6.1728" fill="none" stroke="#fff"/>
<path d="m 91.9933 2277.82 c 2.8731 2.5098 6.3074 4.3238 9.9385 5.8943 -4.1339 0.4717 -7.7604 -0.5886 -11.08 -2.5751" fill="#fff"/>
<path d="m 106.024 2266.98 0.9529 -5.0551 4.7165 2.1138 z" fill="#fff"/>
<path d="m 105.321 2265.56 5.7535 -3.1408" fill="none" stroke="#000"/>
<path d="m 93.3503 2276.78 -3.5096 5.5365" fill="none" stroke="#000"/>
<path d="m 90.8279 2268.64 -2.8357 3.2266" fill="none" stroke="#000"/>
<path d="m 100.684 2258.89 -2.8357 3.2266" fill="none" stroke="#000"/>
</g>
</svg>
