<svg viewBox="0 0 512 512" xmlns="http://www.w3.org/2000/svg">

<g transform="matrix(18.68858,0,0,18.68858,-5674.47733,-36084.36164)">
<path d="m 326.445 1944.43 c 4.9146 -2.2363 3.1631 -8.5588 -1.2315 -8.9082" fill="none" stroke="#fff"/>
<path d="m 1842.21 693.698 h 4.0507 v 2.9776 h -4.0507 z" fill="#fff" stroke="#000" transform="rotate(59.793)"/>
<path d="m 321.562 1931.81 0.875 1.6875 -6.7188 -0.2812 1.25 0.7812 -7.2188 2.4688 2.5 0.25 -6.5064 4.8707 1.8224 -0.4549 -2.6484 5.8457 5.9574 -7.9178 6.7812 -3.2187 -0.4688 0.9687 5.6875 -1.125 -1.8125 1.8437 4.8524 -1.0312 0.4331 -1.0783 -1.9418 -3.5155 -0.0312 1.75 z" fill="#fff"/>
<path d="m 324.214 1937.71 2.3331 -1.7861 -0.4016 -2.3987" fill="none" stroke="#000"/>
<path d="m 330.223 1950.11 c 0 5.0372 -4.0835 9.1207 -9.1207 9.1207 s -9.1207 -4.0835 -9.1207 -9.1207 4.0835 -9.1207 9.1207 -9.1207 9.1207 4.0835 9.1207 9.1207 z" fill="#fff" stroke="#000" stroke-width=".9913" transform="matrix(.87366,.50441,-.50441,.87366,1021.3792,82.76121)"/>
<path d="m 310.936 1933.26 3.997 0.6923 -4.1848 0.3807 -2.1729 -0.8308 z" fill="#fff"/>
<path d="m 306.714 1937.59 -2.1136 -0.044 1.7051 -1.3035 2.9906 -0.3076 z" fill="#fff"/>
</g>
</svg>
