<svg viewBox="0 0 512 512" xmlns="http://www.w3.org/2000/svg">

<g transform="matrix(18.68858,0,0,18.68858,-5674.47733,-36084.36164)">
<path d="m326.4452,1944.4267c4.9146-2.2363 3.1631-8.5588-1.2315-8.9082" fill="none" stroke="#fff"/>
<path d="m1842.214,693.6981h4.0507v2.9776h-4.0507z" fill="#fff" stroke="#000" transform="rotate(59.793)"/>
<path d="m321.5625,1931.8125 .875,1.6875-6.7188-.2812 1.25.7812-7.2188,2.4688 2.5.25-6.5064,4.8707 1.8224-.4549-2.6484,5.8457 5.9574-7.9178 6.7812-3.2187-.4688.9687 5.6875-1.125-1.8125,1.8437 4.8524-1.0312 .4331-1.0783-1.9418-3.5155-.0312,1.75z" fill="#fff"/>
<path d="m324.2142,1937.7144 2.3331-1.7861-.4016-2.3987" fill="none" stroke="#000"/>
<path d="m330.2232,1950.1078c0,5.0372-4.0835,9.1207-9.1207,9.1207s-9.1207-4.0835-9.1207-9.1207 4.0835-9.1207 9.1207-9.1207 9.1207,4.0835 9.1207,9.1207z" fill="#fff" stroke="#000" stroke-width=".9913" transform="matrix(.87366,.50441,-.50441,.87366,1021.3792,82.76121)"/>
<path d="m310.9356,1933.2614 3.997.6923-4.1848.3807-2.1729-.8308z" fill="#fff"/>
<path d="m306.7136,1937.5917-2.1136-.044 1.7051-1.3035 2.9906-.3076z" fill="#fff"/>
</g>
</svg>
