<svg viewBox="0 0 512 512" xmlns="http://www.w3.org/2000/svg">

<g transform="matrix(18.68858,0,0,18.68858,-10440.11244,-21126.75175)">
<path d="m 571.875 1146.97 c -2.8521 4.0764 -6.2329 7.4969 -10.1875 10.2187 h 2.4688 c 3.4201 -2.6116 6.3934 -5.7385 8.9375 -9.375 l -1.2188 -0.8437 z" fill="#fff" fill-rule="evenodd"/>
<path d="m 571.214 1143.22 c -3.2736 6.9253 1.1016 8.808 6.0355 3.341" fill="#fff" fill-rule="evenodd"/>
<path d="m 575.684 1142.34 c 3.8126 0.4864 8.422 2.7845 9.6999 7.0156 -2.7303 -0.017 -4.7011 -0.4606 -6.8293 -2.4869 1.2102 2.3366 1.0398 4.4426 0.402 6.8831 -3.5347 -1.7763 -6.8919 -3.6785 -5.9291 -8.6443 -3.5276 2.6413 -6.4732 3.3582 -10.7137 3.0182 2.115 -3.1532 4.2021 -5.5135 7.5445 -5.7193 -3.6912 0.079 -4.7632 -2.0917 -6.1536 -3.9888 4.6057 -0.4291 8.2063 -0.2385 11.9794 3.9224 z" fill="#fff" fill-rule="evenodd" stroke="#000"/>
<path d="m 579.572 1135.37 5.2307 0.065 0.6642 8.3947 -8.8003 4.5606 -7.998 -4.5678 -1.4996 -7.9373 7.5733 -4.1017" fill="#fff" fill-rule="evenodd" stroke="#000"/>
<path d="m 578.322 1139.35 0.078 1.4376 -2.6091 -0.6783 0.1235 -3.1877 5.1458 0.8205 0.2007 5.133 -5.9547 0.4617 -4.394 -5.9933 2.4535 -6.2899 6.1005 0.8288 0.1618 5.6718" fill="#fff" fill-rule="evenodd" stroke="#000"/>
<path d="m 565.366 1154.39 c -1.0049 -0.01 -1.4144 -0.9974 -1.0432 -2.0013 -1.315 1.0442 -1.6897 2.4638 -0.919 3.9963" fill="#fff" fill-rule="evenodd"/>
<path d="m 570.063 1151.13 c 0.1465 0.9941 1.1839 1.2624 2.1266 0.7556 -0.8518 1.4471 -2.2057 2.0151 -3.8301 1.4641" fill="#fff" fill-rule="evenodd"/>
<path d="m 559.662 1157.37 h 7.1256" fill="none" stroke="#000"/>
</g>
</svg>
