<svg viewBox="0 0 512 512" xmlns="http://www.w3.org/2000/svg">

<g transform="matrix(18.68858,0,0,18.68858,-10440.11244,-21126.75175)">
<path d="m571.875,1146.9688c-2.8521,4.0764-6.2329,7.4969-10.1875,10.2187h2.4688c3.4201-2.6116 6.3934-5.7385 8.9375-9.375l-1.2188-.8437z" fill="#fff" fill-rule="evenodd"/>
<path d="m571.2136,1143.2176c-3.2736,6.9253 1.1016,8.808 6.0355,3.341" fill="#fff" fill-rule="evenodd"/>
<path d="m575.6844,1142.3406c3.8126.4864 8.422,2.7845 9.6999,7.0156-2.7303-.017-4.7011-.4606-6.8293-2.4869 1.2102,2.3366 1.0398,4.4426.402,6.8831-3.5347-1.7763-6.8919-3.6785-5.9291-8.6443-3.5276,2.6413-6.4732,3.3582-10.7137,3.0182 2.115-3.1532 4.2021-5.5135 7.5445-5.7193-3.6912.079-4.7632-2.0917-6.1536-3.9888 4.6057-.4291 8.2063-.2385 11.9794,3.9224z" fill="#fff" fill-rule="evenodd" stroke="#000"/>
<path d="m579.5724,1135.3705 5.2307.065 .6642,8.3947-8.8003,4.5606-7.998-4.5678-1.4996-7.9373 7.5733-4.1017" fill="#fff" fill-rule="evenodd" stroke="#000"/>
<path d="m578.322,1139.3464 .078,1.4376-2.6091-.6783 .1235-3.1877 5.1458.8205 .2007,5.133-5.9547.4617-4.394-5.9933 2.4535-6.2899 6.1005.8288 .1618,5.6718" fill="#fff" fill-rule="evenodd" stroke="#000"/>
<path d="m565.3659,1154.3913c-1.0049-.01-1.4144-.9974-1.0432-2.0013-1.315,1.0442-1.6897,2.4638-.919,3.9963" fill="#fff" fill-rule="evenodd"/>
<path d="m570.0635,1151.1341c.1465.9941 1.1839,1.2624 2.1266.7556-.8518,1.4471-2.2057,2.0151-3.8301,1.4641" fill="#fff" fill-rule="evenodd"/>
<path d="m559.6617,1157.369h7.1256" fill="none" stroke="#000"/>
</g>
</svg>
