<svg viewBox="0 0 512 512" xmlns="http://www.w3.org/2000/svg">

<g transform="matrix(18.68858,0,0,18.68858,-229.35166,-2063.64922)">
<g transform="translate(355.4,-109.8229)">
<path d="m-325.1303,222.6252h-8.5218c.8413,2.3053 2.8613,4.9927 1.3197,7.1669-1.6001,2.2568-5.3752,4.2056-5.3752,7.7642 0,4.5991 3.725,8.3614 8.3241,8.3614s8.3614-3.7624 8.3614-8.3614c0-3.5509-3.6159-5.6219-5.3752-7.7642-1.3716-1.6702.5738-5.5698 1.267-7.1669z" stroke="#fff"/>
<path d="m-334.5736,234.3609c-.8636.9484-1.5774,2.0145-1.5774,3.3849 1e-05,3.7333 3.0364,6.8026 6.7698,6.8026s6.8026-3.0693 6.8026-6.8026c0-1.3512-.6793-2.432-1.5117-3.3849h-10.4833z" fill="#fff"/>
<path d="m-324.5178,234.7037c0,.4271-2.2458.8806-5.016.8806s-5.016-.4535-5.016-.8806 2.2458-.7734 5.016-.7734 5.016.3463 5.016.7734z" fill="#fff" stroke="#000" stroke-width=".5454" transform="matrix(1.17715,0,0,2.8563,58.53235,-435.72875)"/>
</g>
<path d="m22.0212,110.9154h7.8887l-2.1655,5.8557c-1.0754.3917-2.1508.4188-3.2262,0l-2.497-5.8557z" fill="#fff" stroke="#000"/>
<path d="m31.4429,124.7977c0,1.9811-2.4261,3.7457-5.4189,3.7457s-5.4189-1.7646-5.4189-3.7457z" fill="#fff"/>
</g>
</svg>
