<svg viewBox="0 0 512 512" xmlns="http://www.w3.org/2000/svg">

<g transform="matrix(18.68858,0,0,18.68858,4528.14582,-12370.17775)">
<g transform="translate(-401.5992)">
<path d="m184.5468,664.5475c-.2243,5.078-2.6447,10.6182-7.1314,15.1052-4.4607,4.461-10.0061,6.9273-15.06,7.1761 6.1185,2.11 13.1905.7179 18.072-4.1639 4.8996-4.9 6.2629-11.983 4.1193-18.1175z" fill="#fff"/>
<path d="m179.1034,663.3688c-.1813,4.1041-2.1374,8.5817-5.7636,12.208-3.6052,3.6054-8.087,5.5986-12.1715,5.7997 4.9449,1.7053 10.6605.5803 14.6058-3.3653 3.9599-3.9601 5.0617-9.6846 3.3293-14.6424z" fill="#fff"/>
<path d="m174.4127,663.2272c-.1354,3.0652-1.5964,6.4093-4.3046,9.1177-2.6926,2.6927-6.0399,4.1814-9.0904,4.3315 3.6932,1.2737 7.9619.4334 10.9085-2.5133 2.9574-2.9576 3.7803-7.2331 2.4865-10.9359z" fill="#fff"/>
<path d="m170.2379,662.7486c-.0981,2.221-1.1567,4.6443-3.1191,6.6068-1.951,1.9512-4.3765,3.0299-6.587,3.1387 2.6761.9229 5.7693.314 7.9044-1.8212s2.7393-5.2412 1.8017-7.9242z" fill="#fff"/>
</g>
<path d="m-241.6555,662.5009v7.0418c.648.3012 1.3877.4774 2.149.4774 2.796,0 5.0541-2.2574 5.0541-5.0526 0-.8924-.2706-1.7383-.6765-2.4666h-6.5265z" fill="#fff" stroke="#000"/>
</g>
</svg>
