<svg viewBox="0 0 512 512" xmlns="http://www.w3.org/2000/svg">

<g transform="matrix(18.68858,0,0,18.68858,-3389.91727,-4741.72856)">
<path d="m 199.517 280.401 c -0.8386 -5.3702 -2.3257 -7.6993 -5.3472 -11.549 0.1185 2.3706 -0.2474 4.7873 -1.3373 7.1119 -3.4838 1.5955 -7.0325 1.4495 -10.2119 0 l 1.1549 -2.4922 c 2.0415 1.0986 4.3129 0.9561 6.5952 0 1.5611 -5.6608 0.3267 -8.633 4.2991 -12.1184 -1.215 -0.414 -2.43 -0.499 -3.645 -0.0793 -1.1713 1.2405 -1.8785 2.4743 -2.3212 4.1189 l -1.9991 -0.9531 c 0.483 -2.0448 1.4957 -3.6719 2.8286 -5.2677 2.6538 -0.5982 5.3075 -0.4397 7.9613 0.127 l 2.8457 0.0454 c 0.0423 1.5602 0.748 3.4014 2.5607 4.652 l 4.63 0.1128 -0.0256 2.1961 -5.21 -0.0841 c -1.1296 -0.6541 -2.1367 -1.5596 -2.7343 -2.6173 -1.6211 0.7821 -2.2867 2.042 -2.8054 3.9752 2.8336 3.1451 4.1564 5.6865 5.3615 10.6164 0.1677 0.6862 0.3332 1.4187 0.5001 2.2056" fill="#fff"/>
<path d="m 199.051 280.688 c -0.4568 -4.4046 -2.2296 -7.6919 -4.4194 -10.4298 -0.0215 2.185 -0.5544 4.1236 -1.4584 6.0325 -3.3249 1.8497 -7.8612 1.6724 -11.1811 -0.0884 l 1.5468 -3.3367 c 1.8111 0.9764 4.1667 1.3518 6.4745 0.221 1.6099 -5.3281 0.0782 -7.7679 3.7344 -11.4794 -0.6315 -0.1735 -1.5896 -0.1857 -2.4307 0.0773 -1.1589 1.0164 -1.8327 2.6592 -2.4086 4.3752 l -2.8063 -1.37 c 0.5653 -2.1348 1.7297 -4.2294 3.1378 -5.8778 2.9145 -0.6072 5.6293 -0.4811 8.2864 0.0663" fill="none" stroke="#000"/>
<path d="m 375.872 -129.059 c 0 1.4523 -0.8805 2.6296 -1.9666 2.6296 s -1.9667 -1.1773 -1.9667 -2.6296 0.8805 -2.6296 1.9667 -2.6296 1.9666 1.1773 1.9666 2.6296 z" fill="#fff" stroke="#000" stroke-width=".6236" transform="matrix(1.47879,.4813,-.51413,1.57172,-418.55923,281.68218)"/>
</g>
</svg>
