<svg viewBox="0 0 512 512" xmlns="http://www.w3.org/2000/svg">

<g transform="matrix(18.68858,0,0,18.68858,-908.42271,-25864.41144)">
<path d="m 50.0122 1391.19 4.283 16.8526 11.6915 2.7782 3.5595 -3.2816 5.9703 -11.2256 -3.9067 -7.265 -14.9923 -4.5719 z" fill="#fff" stroke="#000"/>
<path d="m 56.6852 1384.47 -2.7799 3.1507 3.6276 16.5796 12.7994 3.3296" fill="none" stroke="#000"/>
<path d="m 57.5533 1404.12 -4.5712 5.2437" fill="none" stroke="#000"/>
<path d="m 58.1812 1405.78 0.7199 -2.5476 -3.0014 0.2814 z" fill="#fff"/>
<path d="m 69.5251 1396.67 c 0.9399 -5.9834 -7.4039 -11.3261 -11.9954 -7.5866 -3.0939 2.5199 1.8855 6.0569 4.3386 7.1219 2.3832 1.0349 9.462 2.8788 6.5426 6.0403 -2.0828 2.2557 -5.5028 -0.5778 -6.4582 -2.3242 -0.4511 3.7328 5.1127 6.7458 8.0646 3.624 3.1984 -3.3825 -1.6352 -6.8164 -5.8314 -7.8383 -3.7994 -0.9253 -6.8936 -4.4279 -3.5218 -5.2273 3.8994 -0.9245 7.3548 2.5517 8.861 6.1902 z"/>
<path d="m 62.4051 1398.96 c 0 0.8674 -0.4914 1.5706 -1.0975 1.5706 s -1.0975 -0.7032 -1.0975 -1.5706 0.4914 -1.5705 1.0975 -1.5705 1.0975 0.7031 1.0975 1.5705 z" transform="matrix(.42906,-.74315,.74315,.42906,-1003.7484,843.53964)"/>
<path d="m 70.3822 1397.42 c 2.3882 -1.5611 1.5974 -4.2152 -0.4738 -5.1388 0.8116 1.6879 0.8313 3.4062 0.4738 5.1388 z"/>
<path d="m 62.2944 1394.21 c -3.0901 -2.2693 -1.6289 -3.4906 1.3655 -2.9395 -1.3565 0.6088 -1.6211 1.6671 -1.3655 2.9395 z"/>
</g>
</svg>
