<svg viewBox="0 0 512 512" xmlns="http://www.w3.org/2000/svg">

<g transform="matrix(18.68858,0,0,18.68858,-11801.124,-21805.261)">
<path d="m 637.732 1167.84 c 4.226 6.7891 3.9372 13.4532 1.6629 19.5263 l -0.4688 1.7247 9.93 3.736 c 5.2707 1.6639 8.0535 -1.3171 8.4899 -4.3724 1.1523 -8.0679 0.0686 -16.0311 -3.086 -20.6146 h -16.528 z" fill="#fff"/>
<path d="m 634.852 1190.73 4.2135 1.3248 c -0.3126 -1.5238 -0.258 -3.064 0.1941 -4.5165 s 1.2914 -2.787 2.4167 -3.8759 l -4.2135 -1.3247 c 0.629 3.0659 -0.3563 6.2331 -2.6108 8.3923 z" fill="#fff" stroke="#000"/>
<path d="m 632.469 1184.77 v 1.5869 l 5.5312 1.7518 0.4375 -1.4378 -5.9688 -1.9009 z" fill="#fff"/>
<path d="m 649.876 1167.48 c 2.8399 4.9773 4.3966 11.267 3.0045 17.7213 0.003 -6.41 -1.8003 -12.18 -5.7189 -17.4922" fill-rule="evenodd"/>
<path d="m 652.904 1167.57 c 2.2394 3.5306 3.7443 8.3825 3.4038 13.9351 -0.5361 -5.2497 -3.2138 -10.301 -7.4855 -13.8989" fill-rule="evenodd"/>
<path d="m 634.311 1167.16 c 5.4257 3.7558 8.0526 10.1012 8.9873 15.6386 0.8527 -5.1948 -0.1283 -11.0476 -3.4231 -15.6386 h -5.5642 z" fill-rule="evenodd"/>
<path d="m 639.882 1187.05 c 5.2855 1.7424 14.4211 4.06 16.6262 1.0245 -3.5804 1.2739 -11.3622 -0.4031 -16.3654 -2.3733" fill-rule="evenodd"/>
<path d="m 638.122 1167.16 c 5.3068 3.8239 7.8763 10.2846 8.7905 15.9225 0.834 -5.2891 -0.1255 -11.2482 -3.3481 -15.9225 h -5.4424 z" fill-rule="evenodd"/>
<path d="m 642.732 1167.63 c 3.2563 1.9938 5.3292 5.9344 6.4262 9.4918 -0.1223 -3.4886 -1.2781 -7.2493 -3.5088 -9.9784 l -2.9174 0.4866 z" fill-rule="evenodd"/>
<path d="m 640.283 1167.93 c 2.2075 1.5612 3.9767 3.964 5.2166 6.4555 -0.4121 -2.4694 -1.1405 -4.6433 -2.3552 -6.4555 h -2.8614 z" fill="#fff" fill-rule="evenodd"/>
<path d="m 649.72 1167.93 c 1.5455 0.8103 2.7884 1.9588 3.8149 3.573 -0.3821 -1.487 -0.9216 -2.6671 -1.6825 -3.573 h -2.1323 z" fill="#fff" fill-rule="evenodd"/>
</g>
</svg>
