<svg viewBox="0 0 512 512" xmlns="http://www.w3.org/2000/svg">

<g transform="matrix(18.68858,0,0,18.68858,-11801.124,-21805.261)">
<path d="m637.7316,1167.8396c4.226,6.7891 3.9372,13.4532 1.6629,19.5263l-.4688,1.7247 9.93,3.736c5.2707,1.6639 8.0535-1.3171 8.4899-4.3724 1.1523-8.0679.0686-16.0311-3.086-20.6146h-16.528z" fill="#fff"/>
<path d="m634.8521,1190.7314 4.2135,1.3248c-.3126-1.5238-.258-3.064.1941-4.5165s1.2914-2.787 2.4167-3.8759l-4.2135-1.3247c.629,3.0659-.3563,6.2331-2.6108,8.3923z" fill="#fff" stroke="#000"/>
<path d="m632.4688,1184.7658v1.5869l5.5312,1.7518 .4375-1.4378-5.9688-1.9009z" fill="#fff"/>
<path d="m649.876,1167.4793c2.8399,4.9773 4.3966,11.267 3.0045,17.7213 .003-6.41-1.8003-12.18-5.7189-17.4922" fill-rule="evenodd"/>
<path d="m652.9043,1167.5671c2.2394,3.5306 3.7443,8.3825 3.4038,13.9351-.5361-5.2497-3.2138-10.301-7.4855-13.8989" fill-rule="evenodd"/>
<path d="m634.3105,1167.1578c5.4257,3.7558 8.0526,10.1012 8.9873,15.6386 .8527-5.1948-.1283-11.0476-3.4231-15.6386h-5.5642z" fill-rule="evenodd"/>
<path d="m639.8823,1187.049c5.2855,1.7424 14.4211,4.06 16.6262,1.0245-3.5804,1.2739-11.3622-.4031-16.3654-2.3733" fill-rule="evenodd"/>
<path d="m638.1223,1167.1578c5.3068,3.8239 7.8763,10.2846 8.7905,15.9225 .834-5.2891-.1255-11.2482-3.3481-15.9225h-5.4424z" fill-rule="evenodd"/>
<path d="m642.732,1167.6302c3.2563,1.9938 5.3292,5.9344 6.4262,9.4918-.1223-3.4886-1.2781-7.2493-3.5088-9.9784l-2.9174.4866z" fill-rule="evenodd"/>
<path d="m640.283,1167.9255c2.2075,1.5612 3.9767,3.964 5.2166,6.4555-.4121-2.4694-1.1405-4.6433-2.3552-6.4555h-2.8614z" fill="#fff" fill-rule="evenodd"/>
<path d="m649.7196,1167.9255c1.5455.8103 2.7884,1.9588 3.8149,3.573-.3821-1.487-.9216-2.6671-1.6825-3.573h-2.1323z" fill="#fff" fill-rule="evenodd"/>
</g>
</svg>
