<svg viewBox="0 0 512 512" xmlns="http://www.w3.org/2000/svg">

<g transform="matrix(18.68858,0,0,18.68858,418.89612,-696.31139)">
<path d="m-5.4147,63.3719c2.9715,1.8673 6.0043-3.6227 3.956-11.5939-1.3482,9.3855-6.3098,10.1148-3.956,11.5939z" fill="#fff" fill-rule="evenodd"/>
<path d="m-7.987,63.1605c2.9805.9619 3.3696-3.9184 1.6824-10.3983-1.2138,6.9306-3.8792,9.6892-1.6824,10.3983z" fill="#fff" fill-rule="evenodd"/>
<path d="m-12.0239,63.3719c-2.9715,1.8673-6.0043-3.6227-3.956-11.5939 1.3482,9.3855 6.3098,10.1148 3.956,11.5939z" fill="#fff" fill-rule="evenodd"/>
<path d="m-9.4517,63.1605c-2.9805.9619-3.3696-3.9184-1.6824-10.3983 1.2138,6.9306 3.8792,9.6892 1.6824,10.3983z" fill="#fff" fill-rule="evenodd"/>
</g>
<g transform="matrix(20.09396,0,0,20.09396,428.63063,-766.17808)">
<path d="m-2.8794,39.9894c3.1434-4.3586 9.5281,6.4059 3.6497,15.8121 1.8101-13.2949-5.6526-13.035-3.6497-15.8121z" fill="#fff" fill-rule="evenodd"/>
<path d="m-7.8198,39.6114c3.0568-.8571 2.9916,4.6448.747,10.4586-.5901-6.9741-3.0001-9.8269-.747-10.4586z" fill="#fff" fill-rule="evenodd"/>
<path d="m-5.4086,39.5653c3.2868-1.3108 5.2982,4.5734 1.8186,12.004 .3671-9.3975-4.4221-10.9657-1.8186-12.004z" fill="#fff" fill-rule="evenodd"/>
</g>
<g transform="matrix(-20.09396,0,0,20.09396,83.25932,-766.17808)">
<path d="m-2.8794,39.9894c3.1434-4.3586 9.5281,6.4059 3.6497,15.8121 1.8101-13.2949-5.6526-13.035-3.6497-15.8121z" fill="#fff" fill-rule="evenodd"/>
<path d="m-7.8198,39.6114c3.0568-.8571 2.9916,4.6448.747,10.4586-.5901-6.9741-3.0001-9.8269-.747-10.4586z" fill="#fff" fill-rule="evenodd"/>
<path d="m-5.4086,39.5653c3.2868-1.3108 5.2982,4.5734 1.8186,12.004 .3671-9.3975-4.4221-10.9657-1.8186-12.004z" fill="#fff" fill-rule="evenodd"/>
</g>
</svg>
