<svg viewBox="0 0 512 512" xmlns="http://www.w3.org/2000/svg">

<g transform="matrix(18.68858,0,0,18.68858,-7036.65665,-23821.86738)">
<path d="m 389.341 1283.24 3.4822 3.0647 c 2.0786 1.8294 10.4804 10.4947 10.1141 14.6641 l -16.4542 -14.4815 2.8579 -3.2473 z" fill="#fff"/>
<path d="m 1137.81 -715.326 h 2.0682 v 13.877 h -2.0682 z" fill="#fff" stroke="#000" transform="matrix(.75067,.66067,.66067,-.75067,0,0)"/>
<path d="m 379.312 1277.53 c 0.813 2.3761 4.5324 5.9556 7.1875 7.0625 l 0.5938 -0.6875 c -1.3475 -2.4538 -5.243 -5.82 -7.7812 -6.375 z" fill="#fff" fill-rule="evenodd"/>
<path d="m 391.094 1284.5 c -0.6828 0.7759 -0.6075 1.96 0.1686 2.643 s 1.9601 0.6074 2.6429 -0.1685"/>
<path d="m 390.516 1280.85 1.0354 -1.1765 -4.0046 -3.5245 2.9692 4.701 z" fill="#fff"/>
<path d="m 378.986 1287.44 c 0 0.6829 -0.5536 1.2364 -1.2364 1.2364 s -1.2364 -0.5535 -1.2364 -1.2364 0.5535 -1.2364 1.2364 -1.2364 1.2364 0.5536 1.2364 1.2364 z" stroke="#fff" stroke-width=".9775" transform="matrix(.76796,.67588,.67588,-.76796,-780.95178,2010.915)"/>
<path d="m 384.056 1288.15 -1.0354 1.1765 -4.0046 -3.5245 5.0401 2.348 z" fill="#fff"/>
</g>
</svg>
