<svg viewBox="0 0 512 512" xmlns="http://www.w3.org/2000/svg">

<g transform="matrix(18.68858,0,0,18.68858,-7036.65665,-23821.86738)">
<path d="m389.3411,1283.2419 3.4822,3.0647c2.0786,1.8294 10.4804,10.4947 10.1141,14.6641l-16.4542-14.4815 2.8579-3.2473z" fill="#fff"/>
<path d="m1137.8094-715.3264h2.0682v13.877h-2.0682z" fill="#fff" stroke="#000" transform="matrix(.75067,.66067,.66067,-.75067,0,0)"/>
<path d="m379.3125,1277.5313c.813,2.3761 4.5324,5.9556 7.1875,7.0625l.5938-.6875c-1.3475-2.4538-5.243-5.82-7.7812-6.375z" fill="#fff" fill-rule="evenodd"/>
<path d="m391.0935,1284.4956c-.6828.7759-.6075,1.96.1686,2.643s1.9601.6074 2.6429-.1685"/>
<path d="m390.5159,1280.8525 1.0354-1.1765-4.0046-3.5245 2.9692,4.701z" fill="#fff"/>
<path d="m378.9861,1287.441c0,.6829-.5536,1.2364-1.2364,1.2364s-1.2364-.5535-1.2364-1.2364 .5535-1.2364 1.2364-1.2364 1.2364.5536 1.2364,1.2364z" stroke="#fff" stroke-width=".9775" transform="matrix(.76796,.67588,.67588,-.76796,-780.95178,2010.915)"/>
<path d="m384.0559,1288.1524-1.0354,1.1765-4.0046-3.5245 5.0401,2.348z" fill="#fff"/>
</g>
</svg>
