<svg viewBox="0 0 512 512" xmlns="http://www.w3.org/2000/svg">

<g transform="matrix(18.68858,0,0,18.68858,-2958.61023,-40154.1459)">
<path d="m 181.413 2164.47 c -2.1421 2.1421 -4.2285 3.585 -9.4446 3.585 s -7.3393 -1.4797 -9.4446 -3.585 c 0 -2.2781 4.2285 -4.1248 9.4446 -4.1248 s 9.4446 1.8467 9.4446 4.1248 z" fill="#fff" transform="translate(0,.771)"/>
<path d="m 181.413 2164.47 c 0 2.278 -4.2285 4.1247 -9.4446 4.1247 s -9.4446 -1.8467 -9.4446 -4.1247 4.2285 -4.1248 9.4446 -4.1248 9.4446 1.8467 9.4446 4.1248 z" fill="#fff" transform="matrix(-.15819,-.52704,-.81519,.15168,1972.7567,1919.3348)"/>
<path d="m 165.472 2166.59 c -1.4911 0.7703 -2.2079 2.6908 -2.1653 4.9772" fill="none" stroke="#fff"/>
<path d="m 168.077 2166.59 c -1.4911 0.7703 -2.2079 2.6908 -2.1653 4.9772" fill="none" stroke="#fff"/>
<path d="m 179.003 2166.59 c 1.4911 0.7703 2.208 2.6908 2.1653 4.9772" fill="none" stroke="#fff"/>
<path d="m 176.398 2166.59 c 1.4911 0.7703 2.2079 2.6908 2.1653 4.9772" fill="none" stroke="#fff"/>
<path d="m 169.295 2166.59 c -0.7229 0.7703 -1.0704 2.6908 -1.0497 4.9772" fill="none" stroke="#fff"/>
<path d="m 175.18 2166.59 c 0.7229 0.7703 1.0704 2.6908 1.0497 4.9772" fill="none" stroke="#fff"/>
<path d="m 168.962 2159.42 0.9252 3.1996" fill="none" stroke="#fff"/>
<path d="m 175.321 2159.42 -0.9252 3.1996" fill="none" stroke="#fff"/>
<path d="m 178.662 2151.94 c 2.2649 -0.2649 3.358 4.03 2.5807 7.0032 -1.7948 -1.2517 -3.4542 -3.3941 -4.2178 -5.9938"/>
<path d="m 181.413 2164.47 c 0 2.278 -4.2285 4.1247 -9.4446 4.1247 s -9.4446 -1.8467 -9.4446 -4.1247 4.2285 -4.1248 9.4446 -4.1248 9.4446 1.8467 9.4446 4.1248 z" fill="#fff" transform="matrix(.2305,-.47044,.7421,.26917,-1482.8196,1656.2105)"/>
<path d="m 166.406 2154.04 c -2.1127 -0.6161 -3.9973 2.8271 -3.836 5.4761 1.96 -0.7481 3.9649 -2.2728 5.203 -4.3392"/>
<path d="m 161.098 2160.93 c -0.7116 1.7214 -0.5112 4.3934 2.0431 4.0054" fill="none" stroke="#fff"/>
<path d="m 181.905 2160.54 c 1.0904 1.4968 1.5224 4.2033 -1.0357 4.5685" fill="none" stroke="#fff"/>
<path d="m 168.653 2158.73 c 0 0.4258 -0.3452 0.7709 -0.771 0.7709 s -0.771 -0.3451 -0.771 -0.7709 0.3452 -0.771 0.771 -0.771 0.771 0.3452 0.771 0.771 z" fill="#fff" transform="matrix(1.325,0,0,1.325,-53.55952,-701.41336)"/>
<path d="m 168.653 2158.73 c 0 0.4258 -0.3452 0.7709 -0.771 0.7709 s -0.771 -0.3451 -0.771 -0.7709 0.3452 -0.771 0.771 -0.771 0.771 0.3452 0.771 0.771 z" fill="#fff" transform="matrix(-1.325,0,0,1.325,397.9198,-701.37481)"/>
<g transform="matrix(-1,0,0,-1,344.18796,4329.7164)">
<path d="m 164.914 2164.78 2.8413 1.3877 1.973 -2.1587 2.6011 2.0045 2.0703 -2.1587 2.0172 2.0816 2.4905 -1.2528" fill="none" stroke="#000"/>
<path d="m 167.882 2167.29 -3.4887 -2.9491" fill="none" stroke="#fff"/>
<path d="m 175.843 2167.29 3.4887 -2.9491" fill="none" stroke="#fff"/>
</g>
</g>
</svg>
