<svg viewBox="0 0 512 512" xmlns="http://www.w3.org/2000/svg">

<g transform="matrix(18.68858,0,0,18.68858,-7716.93542,-34718.59273)">
<path d="m 418.065 1860.37 c -2.1228 1.0157 -2.2566 4.3257 -0.6925 5.9643 3.7194 3.8964 -0.7946 6.6319 -1.8454 2.4419 -2.0969 6.7183 2.3996 15.3721 13.0099 15.3722 13.4145 -0.0001 13.5262 -17.8419 5.3511 -20.003 4.6116 4.6908 -3.9906 10.1666 -3.3414 1.8546 -1.4819 3.6964 -4.0912 0.4215 -2.5601 -1.0891 2.1034 -2.0754 -1.5831 -7.4691 -5.4137 -4.9155 4.1302 0.4622 3.5227 4.8909 0.7546 5.6834 -3.4993 1.0018 -7.0271 -1.2706 -5.2625 -5.3088 z" fill="#fff"/>
<g transform="matrix(.09577,1.04623,-1.04623,.09577,2343.0794,1249.9831)">
<path d="m 425.189 1864.29 c -0.4712 -1.115 0.312 -1.6488 0.8563 -0.362 1.1031 -0.4664 1.5691 0.3457 0.3619 0.8561 l -0.8561 0.362 c -1.2827 0.5424 -1.7144 -0.2843 -0.3621 -0.8561 z"/>
<path d="m 428.765 1866.7 c -1.1307 -0.3325 -1.9035 -1.1196 -2.5386 -2.045 l -0.6767 0.3442 c 0.6323 1.304 1.5587 2.108 2.8417 2.6316 l 0.3736 -0.9308 z" fill-rule="evenodd"/>
<path d="m 425.818 1872.07 2.1751 1.0397 c -1.3119 3.0579 -5.3783 4.8431 -7.8741 3.0389 -1.9963 -1.4432 -2.5465 -6.1781 0.3722 -6.638 -1.8049 0.8352 -0.972 4.4589 0.5392 5.3635 1.9715 1.1803 3.7776 -0.8869 4.7876 -2.8041 z" fill-rule="evenodd"/>
<path d="m 421.851 1870.6 c -1.0229 0.6471 -0.6838 1.5325 0.497 0.7854 0.6403 1.0123 1.4862 0.6108 0.7854 -0.4969 l -0.4971 -0.7855 c -0.7447 -1.1768 -1.5703 -0.7437 -0.7853 0.497 z"/>
<path d="m 433.143 1869.73 c 1.126 -0.4442 0.9587 -1.3773 -0.3411 -0.8647 -0.4393 -1.1144 -1.3455 -0.8784 -0.8646 0.341 l 0.3409 0.8646 c 0.5109 1.2956 1.4034 1.0248 0.8648 -0.3409 z"/>
<path d="m 432.155 1869.33 c -1.273 0.3822 -1.576 -0.357 -1.9641 -1.4258 l -0.6598 0.4503 c 0.3825 1.7853 1.3312 2.2395 2.9112 1.6964 l -0.2872 -0.7209 z" fill-rule="evenodd"/>
<path d="m 431.03 1876.11 c -0.0761 1.2081 -1.0156 1.3359 -0.9277 -0.058 -1.1953 -0.075 -1.2497 -1.0102 0.0587 -0.9277 l 0.9276 0.058 c 1.39 0.088 1.4066 1.0202 -0.0586 0.9276 z"/>
<path d="m 428.65 1871.26 -0.8781 1.5433 c 1.4676 0.1306 2.4121 1.3335 2.54 2.9153 l 0.6191 -0.081 c 0.3109 -2.1297 -0.8545 -3.393 -2.2809 -4.3772 z" fill-rule="evenodd"/>
<path d="m 426.407 1870.11 -0.6471 1.547 c -0.5561 -1.3099 -1.5931 -1.4636 -3.0416 -0.6941 l -0.3922 -0.5537 c 1.4565 -1.249 2.6978 -1.6411 4.0809 -0.2992 z" fill-rule="evenodd"/>
<g transform="matrix(.61372,.46382,-.46382,.61372,873.04377,1065.6113)">
<path d="m 167.342 1173.25 c -3.8791 -2.3218 -5.3101 -1.0251 -2.8817 2.8816 1.9052 3.0651 5.9876 -1.0225 2.8817 -2.8816 z"/>
<path d="m 160.382 1174.03 c 0 0.5331 -0.4321 0.9652 -0.9652 0.9652 s -0.9652 -0.4321 -0.9652 -0.9652 0.4321 -0.9652 0.9652 -0.9652 0.9652 0.4322 0.9652 0.9652 z" transform="matrix(.70711,-.70711,-.70711,-.70711,882.20297,2119.2494)"/>
<path d="m 160.382 1174.03 c 0 0.5331 -0.4321 0.9652 -0.9652 0.9652 s -0.9652 -0.4321 -0.9652 -0.9652 0.4321 -0.9652 0.9652 -0.9652 0.9652 0.4322 0.9652 0.9652 z" transform="matrix(.70711,-.70711,-.70711,-.70711,885.00876,2116.4436)"/>
</g>
<path d="m 425.642 1872.77 1.8786 1.2032 c 1.9055 -1.8884 3.3227 -4.8762 2.9526 -7.5355 -0.0492 -0.353 -0.0807 -0.8528 0.1645 -1.0373 l -1.5391 -0.7669 c -0.008 0.2265 0.1996 0.7374 -0.044 0.9272 -1.5616 1.2165 -3.6531 4.1618 -3.4125 7.2093 z" fill-rule="evenodd"/>
</g>
</g>
</svg>
