<svg viewBox="0 0 512 512" xmlns="http://www.w3.org/2000/svg">

<g transform="matrix(18.68858,0,0,18.68858,-7716.93542,-34718.59273)">
<path d="m418.0649,1860.3712c-2.1228,1.0157-2.2566,4.3257-.6925,5.9643 3.7194,3.8964-.7946,6.6319-1.8454,2.4419-2.0969,6.7183 2.3996,15.3721 13.0099,15.3722 13.4145-.0001 13.5262-17.8419 5.3511-20.003 4.6116,4.6908-3.9906,10.1666-3.3414,1.8546-1.4819,3.6964-4.0912.4215-2.5601-1.0891 2.1034-2.0754-1.5831-7.4691-5.4137-4.9155 4.1302.4622 3.5227,4.8909.7546,5.6834-3.4993,1.0018-7.0271-1.2706-5.2625-5.3088z" fill="#fff"/>
<g transform="matrix(.09577,1.04623,-1.04623,.09577,2343.0794,1249.9831)">
<path d="m425.1893,1864.2902c-.4712-1.115.312-1.6488.8563-.362 1.1031-.4664 1.5691.3457.3619.8561l-.8561.362c-1.2827.5424-1.7144-.2843-.3621-.8561z"/>
<path d="m428.7655,1866.7003c-1.1307-.3325-1.9035-1.1196-2.5386-2.045l-.6767.3442c.6323,1.304 1.5587,2.108 2.8417,2.6316l.3736-.9308z" fill-rule="evenodd"/>
<path d="m425.8181,1872.0718 2.1751,1.0397c-1.3119,3.0579-5.3783,4.8431-7.8741,3.0389-1.9963-1.4432-2.5465-6.1781.3722-6.638-1.8049.8352-.972,4.4589.5392,5.3635 1.9715,1.1803 3.7776-.8869 4.7876-2.8041z" fill-rule="evenodd"/>
<path d="m421.8506,1870.6044c-1.0229.6471-.6838,1.5325.497.7854 .6403,1.0123 1.4862.6108.7854-.4969l-.4971-.7855c-.7447-1.1768-1.5703-.7437-.7853.497z"/>
<path d="m433.1432,1869.7326c1.126-.4442.9587-1.3773-.3411-.8647-.4393-1.1144-1.3455-.8784-.8646.341l.3409.8646c.5109,1.2956 1.4034,1.0248.8648-.3409z"/>
<path d="m432.1553,1869.3313c-1.273.3822-1.576-.357-1.9641-1.4258l-.6598.4503c.3825,1.7853 1.3312,2.2395 2.9112,1.6964l-.2872-.7209z" fill-rule="evenodd"/>
<path d="m431.0302,1876.1121c-.0761,1.2081-1.0156,1.3359-.9277-.058-1.1953-.075-1.2497-1.0102.0587-.9277l.9276.058c1.39.088 1.4066,1.0202-.0586.9276z"/>
<path d="m428.6496,1871.2614-.8781,1.5433c1.4676.1306 2.4121,1.3335 2.54,2.9153l.6191-.081c.3109-2.1297-.8545-3.393-2.2809-4.3772z" fill-rule="evenodd"/>
<path d="m426.4074,1870.1083-.6471,1.547c-.5561-1.3099-1.5931-1.4636-3.0416-.6941l-.3922-.5537c1.4565-1.249 2.6978-1.6411 4.0809-.2992z" fill-rule="evenodd"/>
<g transform="matrix(.61372,.46382,-.46382,.61372,873.04377,1065.6113)">
<path d="m167.3417,1173.2513c-3.8791-2.3218-5.3101-1.0251-2.8817,2.8816 1.9052,3.0651 5.9876-1.0225 2.8817-2.8816z"/>
<path d="m160.382,1174.0294c0,.5331-.4321.9652-.9652.9652s-.9652-.4321-.9652-.9652 .4321-.9652.9652-.9652 .9652.4322.9652.9652z" transform="matrix(.70711,-.70711,-.70711,-.70711,882.20297,2119.2494)"/>
<path d="m160.382,1174.0294c0,.5331-.4321.9652-.9652.9652s-.9652-.4321-.9652-.9652 .4321-.9652.9652-.9652 .9652.4322.9652.9652z" transform="matrix(.70711,-.70711,-.70711,-.70711,885.00876,2116.4436)"/>
</g>
<path d="m425.6422,1872.7654 1.8786,1.2032c1.9055-1.8884 3.3227-4.8762 2.9526-7.5355-.0492-.353-.0807-.8528.1645-1.0373l-1.5391-.7669c-.008.2265.1996.7374-.044.9272-1.5616,1.2165-3.6531,4.1618-3.4125,7.2093z" fill-rule="evenodd"/>
</g>
</g>
</svg>
