<svg viewBox="0 0 512 512" xmlns="http://www.w3.org/2000/svg">

<g transform="matrix(18.68858,0,0,18.68858,-839.37201,-12277.7738)">
<path d="m54.7574,663.8826-6.0907,10.5493c-1.0509,1.8201.7438,4.826 4.006,6.7094s6.7626,1.9348 7.8135.1146l6.0544-10.4865" fill="#fff" stroke="#fff"/>
<path d="m57.166,659.7108-2.6923,4.6631c-1.0509,1.8201.7438,4.826 4.006,6.7094s6.7626,1.9348 7.8135.1146l2.656-4.6003" stroke="#fff"/>
<path d="m-553.7703,385.6471h8.9074v2.8474h-8.9074z" fill="#fff" transform="matrix(.50613,-.86246,.86483,.50206,0,0)"/>
<path d="m68.0625,670.5497c0,2.1746-4.0015,3.9375-8.9375,3.9375s-8.9375-1.7629-8.9375-3.9375 4.0015-3.9375 8.9375-3.9375 8.9375,1.7629 8.9375,3.9375z" fill="#fff" transform="matrix(.71294,.41162,-.52791,.91436,374.88024,25.72345)"/>
<path d="m68.0625,670.5497c0,2.1746-4.0015,3.9375-8.9375,3.9375s-8.9375-1.7629-8.9375-3.9375 4.0015-3.9375 8.9375-3.9375 8.9375,1.7629 8.9375,3.9375z" transform="matrix(.11834,.06832,-.08763,.15177,119.34399,559.43183)"/>
<path d="m68.0625,670.5497c0,2.1746-4.0015,3.9375-8.9375,3.9375s-8.9375-1.7629-8.9375-3.9375 4.0015-3.9375 8.9375-3.9375 8.9375,1.7629 8.9375,3.9375z" transform="matrix(.11834,.06832,-.08763,.15177,110.84031,554.52223)"/>
<path d="m68.0625,670.5497c0,2.1746-4.0015,3.9375-8.9375,3.9375s-8.9375-1.7629-8.9375-3.9375 4.0015-3.9375 8.9375-3.9375 8.9375,1.7629 8.9375,3.9375z" transform="matrix(.11834,.06832,-.08763,.15177,115.1133,556.98924)"/>
<path d="m68.0625,670.5497c0,2.1746-4.0015,3.9375-8.9375,3.9375s-8.9375-1.7629-8.9375-3.9375 4.0015-3.9375 8.9375-3.9375 8.9375,1.7629 8.9375,3.9375z" transform="matrix(.11834,.06832,-.08763,.15177,113.89544,554.11575)"/>
<path d="m68.0625,670.5497c0,2.1746-4.0015,3.9375-8.9375,3.9375s-8.9375-1.7629-8.9375-3.9375 4.0015-3.9375 8.9375-3.9375 8.9375,1.7629 8.9375,3.9375z" transform="matrix(.11834,.06832,-.08763,.15177,117.9569,556.46063)"/>
<path d="m68.0625,670.5497c0,2.1746-4.0015,3.9375-8.9375,3.9375s-8.9375-1.7629-8.9375-3.9375 4.0015-3.9375 8.9375-3.9375 8.9375,1.7629 8.9375,3.9375z" transform="matrix(.11834,.06832,-.08763,.15177,111.92188,557.53407)"/>
<path d="m68.0625,670.5497c0,2.1746-4.0015,3.9375-8.9375,3.9375s-8.9375-1.7629-8.9375-3.9375 4.0015-3.9375 8.9375-3.9375 8.9375,1.7629 8.9375,3.9375z" transform="matrix(.11834,.06832,-.08763,.15177,115.98334,559.87895)"/>
<path d="m61.1638,666.3575-2.7583,4.7749" fill="none" stroke="#fff"/>
</g>
</svg>
