<svg viewBox="0 0 512 512" xmlns="http://www.w3.org/2000/svg">

<g transform="matrix(18.68858,0,0,18.68858,-839.37201,-12277.7738)">
<path d="m 54.7574 663.883 -6.0907 10.5493 c -1.0509 1.8201 0.7438 4.826 4.006 6.7094 s 6.7626 1.9348 7.8135 0.1146 l 6.0544 -10.4865" fill="#fff" stroke="#fff"/>
<path d="m 57.166 659.711 -2.6923 4.6631 c -1.0509 1.8201 0.7438 4.826 4.006 6.7094 s 6.7626 1.9348 7.8135 0.1146 l 2.656 -4.6003" stroke="#fff"/>
<path d="m -553.77 385.647 h 8.9074 v 2.8474 h -8.9074 z" fill="#fff" transform="matrix(.50613,-.86246,.86483,.50206,0,0)"/>
<path d="m 68.0625 670.55 c 0 2.1746 -4.0015 3.9375 -8.9375 3.9375 s -8.9375 -1.7629 -8.9375 -3.9375 4.0015 -3.9375 8.9375 -3.9375 8.9375 1.7629 8.9375 3.9375 z" fill="#fff" transform="matrix(.71294,.41162,-.52791,.91436,374.88024,25.72345)"/>
<path d="m 68.0625 670.55 c 0 2.1746 -4.0015 3.9375 -8.9375 3.9375 s -8.9375 -1.7629 -8.9375 -3.9375 4.0015 -3.9375 8.9375 -3.9375 8.9375 1.7629 8.9375 3.9375 z" transform="matrix(.11834,.06832,-.08763,.15177,119.34399,559.43183)"/>
<path d="m 68.0625 670.55 c 0 2.1746 -4.0015 3.9375 -8.9375 3.9375 s -8.9375 -1.7629 -8.9375 -3.9375 4.0015 -3.9375 8.9375 -3.9375 8.9375 1.7629 8.9375 3.9375 z" transform="matrix(.11834,.06832,-.08763,.15177,110.84031,554.52223)"/>
<path d="m 68.0625 670.55 c 0 2.1746 -4.0015 3.9375 -8.9375 3.9375 s -8.9375 -1.7629 -8.9375 -3.9375 4.0015 -3.9375 8.9375 -3.9375 8.9375 1.7629 8.9375 3.9375 z" transform="matrix(.11834,.06832,-.08763,.15177,115.1133,556.98924)"/>
<path d="m 68.0625 670.55 c 0 2.1746 -4.0015 3.9375 -8.9375 3.9375 s -8.9375 -1.7629 -8.9375 -3.9375 4.0015 -3.9375 8.9375 -3.9375 8.9375 1.7629 8.9375 3.9375 z" transform="matrix(.11834,.06832,-.08763,.15177,113.89544,554.11575)"/>
<path d="m 68.0625 670.55 c 0 2.1746 -4.0015 3.9375 -8.9375 3.9375 s -8.9375 -1.7629 -8.9375 -3.9375 4.0015 -3.9375 8.9375 -3.9375 8.9375 1.7629 8.9375 3.9375 z" transform="matrix(.11834,.06832,-.08763,.15177,117.9569,556.46063)"/>
<path d="m 68.0625 670.55 c 0 2.1746 -4.0015 3.9375 -8.9375 3.9375 s -8.9375 -1.7629 -8.9375 -3.9375 4.0015 -3.9375 8.9375 -3.9375 8.9375 1.7629 8.9375 3.9375 z" transform="matrix(.11834,.06832,-.08763,.15177,111.92188,557.53407)"/>
<path d="m 68.0625 670.55 c 0 2.1746 -4.0015 3.9375 -8.9375 3.9375 s -8.9375 -1.7629 -8.9375 -3.9375 4.0015 -3.9375 8.9375 -3.9375 8.9375 1.7629 8.9375 3.9375 z" transform="matrix(.11834,.06832,-.08763,.15177,115.98334,559.87895)"/>
<path d="m 61.1638 666.357 -2.7583 4.7749" fill="none" stroke="#fff"/>
</g>
</svg>
