<svg viewBox="0 0 512 512" xmlns="http://www.w3.org/2000/svg">

<g transform="matrix(18.68858,0,0,18.68858,-7037.41167,-21806.87029)">
<path d="m 386.318 1191.1 c 3.17 -5.3386 4.9194 -5.4582 8.1859 0 h -8.1859 z" fill="#fff"/>
<path d="m 383.219 1168.53 c 0 5.488 2.173 10.1336 5.1562 11.5937 v 0.9063 c -2.9833 1.4601 -5.1562 6.1057 -5.1562 11.5937 h 14.3438 c 0 -5.5204 -2.2084 -10.1628 -5.2188 -11.5937 v -0.9063 c 3.0104 -1.4309 5.2188 -6.0733 5.2188 -11.5937 h -14.3438 z" fill="none" stroke="#fff"/>
<path d="m 389.388 1179.57 h 1.9675 v 2.2716 h -1.9675 z" stroke="#000"/>
<path d="m 391.148 1185.65 c 0 0.3618 -0.2933 0.6551 -0.6551 0.6551 s -0.6551 -0.2933 -0.6551 -0.6551 0.2933 -0.6551 0.6551 -0.6551 0.6551 0.2933 0.6551 0.6551 z" fill="#fff" transform="matrix(1,0,0,-1,-.12585,2364.8879)"/>
<path d="m 391.148 1185.65 c 0 0.3618 -0.2933 0.6551 -0.6551 0.6551 s -0.6551 -0.2933 -0.6551 -0.6551 0.2933 -0.6551 0.6551 -0.6551 0.6551 0.2933 0.6551 0.6551 z" fill="#fff" transform="matrix(1,0,0,-1,-.12585,2367.003)"/>
<path d="m 391.148 1185.65 c 0 0.3618 -0.2933 0.6551 -0.6551 0.6551 s -0.6551 -0.2933 -0.6551 -0.6551 0.2933 -0.6551 0.6551 -0.6551 0.6551 0.2933 0.6551 0.6551 z" fill="#fff" transform="matrix(1,0,0,-1,-.12585,2369.1049)"/>
<path d="m 395.164 1173.64 c -3.0825 1.488 -6.6621 1.4892 -9.5 0.2187 0.8598 2.9867 2.6527 5.0313 4.7188 5.0313 2.1151 0 3.9466 -2.1478 4.7812 -5.25 z" fill="#fff"/>
<path d="m 391.148 1185.65 c 0 0.3618 -0.2933 0.6551 -0.6551 0.6551 s -0.6551 -0.2933 -0.6551 -0.6551 0.2933 -0.6551 0.6551 -0.6551 0.6551 0.2933 0.6551 0.6551 z" fill="#fff" transform="matrix(1,0,0,-1,-.12585,2371.2197)"/>
</g>
</svg>
