<svg viewBox="0 0 512 512" xmlns="http://www.w3.org/2000/svg">

<g transform="matrix(18.68858,0,0,18.68858,-7037.41167,-21806.87029)">
<path d="m386.3181,1191.0952c3.17-5.3386 4.9194-5.4582 8.1859,0h-8.1859z" fill="#fff"/>
<path d="m383.2188,1168.5313c0,5.488 2.173,10.1336 5.1562,11.5937v.9063c-2.9833,1.4601-5.1562,6.1057-5.1562,11.5937h14.3438c0-5.5204-2.2084-10.1628-5.2188-11.5937v-.9063c3.0104-1.4309 5.2188-6.0733 5.2188-11.5937h-14.3438z" fill="none" stroke="#fff"/>
<path d="m389.388,1179.5709h1.9675v2.2716h-1.9675z" stroke="#000"/>
<path d="m391.1483,1185.6533c0,.3618-.2933.6551-.6551.6551s-.6551-.2933-.6551-.6551 .2933-.6551.6551-.6551 .6551.2933.6551.6551z" fill="#fff" transform="matrix(1,0,0,-1,-.12585,2364.8879)"/>
<path d="m391.1483,1185.6533c0,.3618-.2933.6551-.6551.6551s-.6551-.2933-.6551-.6551 .2933-.6551.6551-.6551 .6551.2933.6551.6551z" fill="#fff" transform="matrix(1,0,0,-1,-.12585,2367.003)"/>
<path d="m391.1483,1185.6533c0,.3618-.2933.6551-.6551.6551s-.6551-.2933-.6551-.6551 .2933-.6551.6551-.6551 .6551.2933.6551.6551z" fill="#fff" transform="matrix(1,0,0,-1,-.12585,2369.1049)"/>
<path d="m395.1641,1173.6388c-3.0825,1.488-6.6621,1.4892-9.5.2187 .8598,2.9867 2.6527,5.0313 4.7188,5.0313 2.1151,0 3.9466-2.1478 4.7812-5.25z" fill="#fff"/>
<path d="m391.1483,1185.6533c0,.3618-.2933.6551-.6551.6551s-.6551-.2933-.6551-.6551 .2933-.6551.6551-.6551 .6551.2933.6551.6551z" fill="#fff" transform="matrix(1,0,0,-1,-.12585,2371.2197)"/>
</g>
</svg>
