<svg viewBox="0 0 512 512" xmlns="http://www.w3.org/2000/svg">

<g transform="matrix(18.68858,0,0,18.68858,-1465.32819,-9139.07251)">
<path d="m-75.0952-534.2488h17.9641v17.9314h-17.9641z" stroke="#fff" transform="matrix(-.9443,.32908,-.05649,-.9984,0,0)"/>
<path d="m100.8128,508.4962-17.6489-11.7726" fill="none" stroke="#fff"/>
<path d="m84.2535,514.4097 15.6816-23.413" fill="none" stroke="#fff"/>
<path d="m-72.4222-530.9602h10.5795v10.5603h-10.5795z" stroke="#fff" stroke-width="1.0963" transform="matrix(-.94371,.33078,-.05469,-.9985,0,0)"/>
<path d="m93.9273,496.5283c1.9951,4.4784-.3367,11.0581-6.4707,9.6753l-.4725-7.3209 6.9431-2.3544z" fill="#fff" fill-rule="evenodd"/>
<path d="m83.3214,497.0381 1.0313,16.5647c1.6711-6.6531 2.5082-14.8235-1.0313-16.5647z" fill="#fff" fill-rule="evenodd"/>
<path d="m99.0824,491.423-15.7421,5.2829c3.6948,2.3521 12.2904-2.2123 15.7421-5.2829z" fill="#fff" fill-rule="evenodd"/>
<path d="m99.7743,491.8914-2.7635,3.8287 .4416,6.6799c1.2154-2.6259 2.1037-7.21 2.3219-10.5086z" fill="#fff" fill-rule="evenodd"/>
<path d="m85.0505,513.9779 2.4829-4.0161 6.3445-2.1465c-1.963,2.1265-5.8612,4.6998-8.8274,6.1626z" fill="#fff" fill-rule="evenodd"/>
<path d="m95.2812,504.0809c0,.8284-.6716,1.5-1.5,1.5s-1.5-.6716-1.5-1.5 .6716-1.5 1.5-1.5 1.5.6716 1.5,1.5z" fill="#fff" stroke="#000" stroke-width=".9376" transform="matrix(.17449,-1.55355,1.37593,.09754,-616.17112,597.73982)"/>
</g>
</svg>
