<svg viewBox="0 0 512 512" xmlns="http://www.w3.org/2000/svg">

<g transform="matrix(18.68858,0,0,18.68858,-10439.55274,-37446.66591)">
<g transform="matrix(-.75529,.22795,.58414,.85073,-172.63697,165.88104)">
<path d="m 569.655 2009.13 -0.009 19.5575" fill="none" stroke="#000" stroke-width="1.1354"/>
<path d="m 574.226 2012.71 -9.371 -0.0001" fill="none" stroke="#000" stroke-width="1.1354"/>
<path d="m 574.226 2016.79 -9.371 -0.0001" fill="none" stroke="#000" stroke-width="1.1354"/>
<path d="m 574.226 2020.74 -9.371 -0.0001" fill="none" stroke="#000" stroke-width="1.1354"/>
<path d="m 574.226 2024.82 -9.371 -0.0001" fill="none" stroke="#000" stroke-width="1.1354"/>
</g>
<g transform="matrix(-.65077,.19641,.50331,.73301,-67.60617,422.16404)">
<path d="m 565.617 2009.28 h 8.2283 v 18.8945 h -8.2283 z" fill="#fff"/>
<path d="m 569.655 2009.13 -0.009 19.5575" fill="none" stroke="#000" stroke-width="1.3178"/>
<path d="m 574.226 2012.71 -9.371 -0.0001" fill="none" stroke="#000" stroke-width="1.3178"/>
<path d="m 574.226 2016.79 -9.371 -0.0001" fill="none" stroke="#000" stroke-width="1.3178"/>
<path d="m 574.226 2020.74 -9.371 -0.0001" fill="none" stroke="#000" stroke-width="1.3178"/>
<path d="m 574.226 2024.82 -9.371 -0.0001" fill="none" stroke="#000" stroke-width="1.3178"/>
<path d="m 565.126 2008.68 -0.009 19.5575" fill="none" stroke="#000" stroke-width="1.3178"/>
</g>
<path d="m 577.655 2016.71 c 0 2.4194 -1.9613 4.3808 -4.3808 4.3808 s -4.3808 -1.9614 -4.3808 -4.3808 1.9613 -4.3808 4.3808 -4.3808 4.3808 1.9613 4.3808 4.3808 z" fill="#fff" stroke="#000" stroke-width="1.1165" transform="matrix(-.89565,0,0,.89565,1085.8341,209.76328)"/>
<path d="m 573.913 2017.88 5.6473 8.395" fill="none" stroke="#fff"/>
<g transform="matrix(-.65077,.19641,.50331,.73301,-77.96766,425.5163)">
<path d="m 565.617 2009.28 h 8.2283 v 18.8945 h -8.2283 z" fill="#fff"/>
<path d="m 569.655 2009.13 -0.009 19.5575" fill="none" stroke="#000" stroke-width="1.3178"/>
<path d="m 574.226 2012.71 -9.371 -0.0001" fill="none" stroke="#000" stroke-width="1.3178"/>
<path d="m 574.226 2016.79 -9.371 -0.0001" fill="none" stroke="#000" stroke-width="1.3178"/>
<path d="m 574.226 2020.74 -9.371 -0.0001" fill="none" stroke="#000" stroke-width="1.3178"/>
<path d="m 574.226 2024.82 -9.371 -0.0001" fill="none" stroke="#000" stroke-width="1.3178"/>
<path d="m 565.126 2008.68 -0.009 19.5575" fill="none" stroke="#000" stroke-width="1.3178"/>
</g>
<path d="m 581.177 2023.55 c -2.5878 -0.8919 -4.7797 0.8781 -5.1706 3.2351 z" fill="#fff"/>
<path d="m 565.922 2028.75 c 0 0.547 -0.4434 0.9904 -0.9904 0.9904 s -0.9904 -0.4434 -0.9904 -0.9904 0.4434 -0.9905 0.9904 -0.9905 0.9904 0.4435 0.9904 0.9905 z" fill="#fff" transform="matrix(-1,0,0,1,1144.6635,-2.19954)"/>
<path d="m -599.4 2013.13 h 2.8581 v 4.7206 h -2.8581 z" fill="#fff" stroke="#000" transform="matrix(.84394,-.53644,.53644,.84394,0,0)"/>
</g>
</svg>
