<svg viewBox="0 0 512 512" xmlns="http://www.w3.org/2000/svg">

<g transform="matrix(18.68858,0,0,18.68858,-10439.55274,-37446.66591)">
<g transform="matrix(-.75529,.22795,.58414,.85073,-172.63697,165.88104)">
<path d="m569.6553,2009.1272-.009,19.5575" fill="none" stroke="#000" stroke-width="1.1354"/>
<path d="m574.2265,2012.7081-9.371-.0001" fill="none" stroke="#000" stroke-width="1.1354"/>
<path d="m574.2265,2016.7948-9.371-.0001" fill="none" stroke="#000" stroke-width="1.1354"/>
<path d="m574.2265,2020.7352-9.371-.0001" fill="none" stroke="#000" stroke-width="1.1354"/>
<path d="m574.2265,2024.8219-9.371-.0001" fill="none" stroke="#000" stroke-width="1.1354"/>
</g>
<g transform="matrix(-.65077,.19641,.50331,.73301,-67.60617,422.16404)">
<path d="m565.6174,2009.2795h8.2283v18.8945h-8.2283z" fill="#fff"/>
<path d="m569.6553,2009.1272-.009,19.5575" fill="none" stroke="#000" stroke-width="1.3178"/>
<path d="m574.2265,2012.7081-9.371-.0001" fill="none" stroke="#000" stroke-width="1.3178"/>
<path d="m574.2265,2016.7948-9.371-.0001" fill="none" stroke="#000" stroke-width="1.3178"/>
<path d="m574.2265,2020.7352-9.371-.0001" fill="none" stroke="#000" stroke-width="1.3178"/>
<path d="m574.2265,2024.8219-9.371-.0001" fill="none" stroke="#000" stroke-width="1.3178"/>
<path d="m565.1264,2008.684-.009,19.5575" fill="none" stroke="#000" stroke-width="1.3178"/>
</g>
<path d="m577.655,2016.7079c0,2.4194-1.9613,4.3808-4.3808,4.3808s-4.3808-1.9614-4.3808-4.3808 1.9613-4.3808 4.3808-4.3808 4.3808,1.9613 4.3808,4.3808z" fill="#fff" stroke="#000" stroke-width="1.1165" transform="matrix(-.89565,0,0,.89565,1085.8341,209.76328)"/>
<path d="m573.9125,2017.8821 5.6473,8.395" fill="none" stroke="#fff"/>
<g transform="matrix(-.65077,.19641,.50331,.73301,-77.96766,425.5163)">
<path d="m565.6174,2009.2795h8.2283v18.8945h-8.2283z" fill="#fff"/>
<path d="m569.6553,2009.1272-.009,19.5575" fill="none" stroke="#000" stroke-width="1.3178"/>
<path d="m574.2265,2012.7081-9.371-.0001" fill="none" stroke="#000" stroke-width="1.3178"/>
<path d="m574.2265,2016.7948-9.371-.0001" fill="none" stroke="#000" stroke-width="1.3178"/>
<path d="m574.2265,2020.7352-9.371-.0001" fill="none" stroke="#000" stroke-width="1.3178"/>
<path d="m574.2265,2024.8219-9.371-.0001" fill="none" stroke="#000" stroke-width="1.3178"/>
<path d="m565.1264,2008.684-.009,19.5575" fill="none" stroke="#000" stroke-width="1.3178"/>
</g>
<path d="m581.1771,2023.5521c-2.5878-.8919-4.7797.8781-5.1706,3.2351z" fill="#fff"/>
<path d="m565.9221,2028.7455c0,.547-.4434.9904-.9904.9904s-.9904-.4434-.9904-.9904 .4434-.9905.9904-.9905 .9904.4435.9904.9905z" fill="#fff" transform="matrix(-1,0,0,1,1144.6635,-2.19954)"/>
<path d="m-599.4002,2013.126h2.8581v4.7206h-2.8581z" fill="#fff" stroke="#000" transform="matrix(.84394,-.53644,.53644,.84394,0,0)"/>
</g>
</svg>
