<svg viewBox="0 0 512 512" xmlns="http://www.w3.org/2000/svg">

<g transform="matrix(18.68858,0,0,18.68858,-905.85586,-28581.49333)">
<path d="m 68.2906 1530.25 h -18.4653 v 11.7032 c 0.7461 1.5385 3.3182 0.7687 3.0399 -0.4158 l 14.5166 -9.4257 c 0.8172 0.9155 2.5862 -0.3942 0.9088 -1.8617 z" fill="#fff"/>
<path d="m 53.6988 1541.14 c 8.1939 2.3829 14.0304 7.9756 17.0436 14.6237 2.1553 -7.7254 0.9367 -14.664 -3.7652 -22.5769 -2.6411 -4.4446 -15.4342 3.6545 -13.2784 7.9532 z" fill="#fff"/>
<path d="m 58.2679 1534.29 c 6.3031 3.845 9.3138 10.5341 11.09 16.2085 -0.5784 -6.5816 -3.1627 -12.4915 -8.9422 -17.8145 z"/>
<path d="m 66.219 1548.53 -2.9994 1.222 5.6971 2.5398" fill="#fff"/>
<path d="m 63.6031 1545.82 -2.9658 1.8885 6.059 1.4819" fill="#fff"/>
<path d="m 60.4466 1543.69 -2.7125 2.0659 6.1912 0.7593" fill="#fff"/>
<path d="m 57.3076 1542.24 -2.2412 1.2209 5.7539 0.7133" fill="#fff"/>
<path d="m 69.0075 1551.48 -3.4151 0.768 5.162 3.5016" fill="#fff"/>
<path d="m 67.4511 1532.98 c -2.8159 -4.7481 -16.4556 3.904 -14.1572 8.4963" fill="none" stroke="#000"/>
</g>
</svg>
