<svg viewBox="0 0 512 512" xmlns="http://www.w3.org/2000/svg">

<g transform="matrix(18.68858,0,0,18.68858,-905.85586,-28581.49333)">
<path d="m68.2906,1530.2535h-18.4653v11.7032c.7461,1.5385 3.3182.7687 3.0399-.4158l14.5166-9.4257c.8172.9155 2.5862-.3942.9088-1.8617z" fill="#fff"/>
<path d="m53.6988,1541.1368c8.1939,2.3829 14.0304,7.9756 17.0436,14.6237 2.1553-7.7254.9367-14.664-3.7652-22.5769-2.6411-4.4446-15.4342,3.6545-13.2784,7.9532z" fill="#fff"/>
<path d="m58.2679,1534.2917c6.3031,3.845 9.3138,10.5341 11.09,16.2085-.5784-6.5816-3.1627-12.4915-8.9422-17.8145z"/>
<path d="m66.219,1548.5346-2.9994,1.222 5.6971,2.5398" fill="#fff"/>
<path d="m63.6031,1545.8235-2.9658,1.8885 6.059,1.4819" fill="#fff"/>
<path d="m60.4466,1543.6873-2.7125,2.0659 6.1912.7593" fill="#fff"/>
<path d="m57.3076,1542.2436-2.2412,1.2209 5.7539.7133" fill="#fff"/>
<path d="m69.0075,1551.4774-3.4151.768 5.162,3.5016" fill="#fff"/>
<path d="m67.4511,1532.9825c-2.8159-4.7481-16.4556,3.904-14.1572,8.4963" fill="none" stroke="#000"/>
</g>
</svg>
