<svg viewBox="0 0 512 512" xmlns="http://www.w3.org/2000/svg">

<g transform="matrix(18.68858,0,0,18.68858,-228.76212,-15891.28812)">
<path d="m21.5876,853.5902-8.4263,4.8643 3.5002,6.0641 3.8567-2.2376-.5303,11.944h11.8852l-.5303-11.944 3.8567,2.2376 3.4678-6.0641-8.4263-4.8643c-.6133,1.257-2.3316,2.1727-4.3428,2.1727s-3.6971-.9158-4.3104-2.1727z" fill="#fff"/>
<path d="m18.919,853.9654c3.2743,5.1026 10.6372,5.1315 13.6125.4949" fill="none" stroke="#000"/>
<path d="m14.3361,856.9673 4.3125,7.25" fill="none" stroke="#000"/>
<path d="m37.4611,856.9673-4.3125,7.25" fill="none" stroke="#000"/>
<path d="m19.8579,872.2681h12.1092" fill="none" stroke="#000"/>
<path d="m28.5863,865.0806 1.6552,2.9972 1.6552-2.9972" fill="none" stroke="#000"/>
<path d="m25.99,866.9491 1.6552,2.9972 1.6552-2.9972" fill="none" stroke="#000"/>
<path d="m23.3937,868.7606 1.6552,2.9972 1.6552-2.9972" fill="none" stroke="#000"/>
<path d="m31.21,855.9584 1.6552,2.9972 1.6552-2.9972" fill="none" stroke="#000"/>
<path d="m28.6136,857.8269 1.6552,2.9972 1.6552-2.9972" fill="none" stroke="#000"/>
<path d="m26.0173,859.6384 1.6552,2.9972 1.6552-2.9972" fill="none" stroke="#000"/>
<path d="m19.8145,857.1922 1.6552,2.9972 1.6552-2.9972" fill="none" stroke="#000"/>
<path d="m19.3834,864.8788 1.6552,2.9972 1.6552-2.9972" fill="none" stroke="#000"/>
<path d="m21.7648,863.1028 1.6552,2.9972 1.6552-2.9972" fill="none" stroke="#000"/>
<path d="m17.5541,858.605 1.6552,2.9972 1.6552-2.9972" fill="none" stroke="#000"/>
</g>
</svg>
