<svg viewBox="0 0 512 512" xmlns="http://www.w3.org/2000/svg">

<g transform="matrix(18.68858,0,0,18.68858,3236.13372,-7331.74149)">
<path d="m -159.544 395.151 c 0 0 -0.2584 1.9874 -2.6499 2.6499 s -6.9162 0 -6.9162 0 l -0.7682 0.7058 0.7682 0.8577 c 0 0 4.3922 -0.6956 6.7838 0 s 2.7824 2.7824 2.7824 2.7824 0.3909 -2.0868 2.7824 -2.7824 6.7838 0 6.7838 0 l 0.8338 -0.8014 -0.8338 -0.762 c 0 0 -4.5247 0.6625 -6.9162 0 s -2.6499 -2.6499 -2.6499 -2.6499 z" fill="#fff"/>
<g transform="matrix(1.02476,0,0,1.02476,-756.88911,-4.87595)">
<path d="m 570.947 401.607 c 0 3.4091 5.6348 3.4115 5.6348 0 l -2.9271 -7.1702 -2.7077 7.1702 z" fill="none" stroke="#fff" stroke-width=".9758"/>
<path d="m 570.985 401.429 h 5.4489 c -0.6633 3.3399 -5.253 2.9577 -5.4489 0 z" fill="#fff" fill-rule="evenodd"/>
</g>
<path d="m -159.512 398.408 -2.3701 12.8709 1.1442 1.6209 c -1.1708 0.5111 -2.1045 1.7839 -2.1045 3.8207 h 6.6608 c 0 -2.0316 -0.9219 -3.3355 -2.084 -3.8496 l 1.1238 -1.592 -2.3701 -12.8709 z" fill="#fff" fill-rule="evenodd"/>
<path d="m -151.168 417.664 h -16.6875 c 0 -1.2075 3.738 -2.1875 8.3438 -2.1875 s 8.3438 0.98 8.3438 2.1875 z" fill="#fff"/>
<g transform="matrix(1.02476,0,0,1.02476,-737.88561,-4.87595)">
<path d="m 570.947 401.607 c 0 3.4091 5.6348 3.4115 5.6348 0 l -2.9271 -7.1702 -2.7077 7.1702 z" fill="none" stroke="#fff" stroke-width=".9758"/>
<path d="m 570.985 401.429 h 5.4489 c -0.6633 3.3399 -5.253 2.9577 -5.4489 0 z" fill="#fff" fill-rule="evenodd"/>
</g>
</g>
</svg>
