<svg viewBox="0 0 512 512" xmlns="http://www.w3.org/2000/svg">

<g transform="matrix(18.68858,0,0,18.68858,-228.76212,-15891.28812)">
<path d="m 21.5876 853.59 -8.4263 4.8643 3.5002 6.0641 3.8567 -2.2376 -0.5303 11.944 h 11.8852 l -0.5303 -11.944 3.8567 2.2376 3.4678 -6.0641 -8.4263 -4.8643 c -0.6133 1.257 -2.3316 2.1727 -4.3428 2.1727 s -3.6971 -0.9158 -4.3104 -2.1727 z" fill="#fff"/>
<path d="m 18.919 853.965 c 3.2743 5.1026 10.6372 5.1315 13.6125 0.4949" fill="none" stroke="#000"/>
<path d="m 14.3361 856.967 4.3125 7.25" fill="none" stroke="#000"/>
<path d="m 37.4611 856.967 -4.3125 7.25" fill="none" stroke="#000"/>
<path d="m 19.8579 872.268 h 12.1092" fill="none" stroke="#000"/>
<path d="m 28.5863 865.081 1.6552 2.9972 1.6552 -2.9972" fill="none" stroke="#000"/>
<path d="m 25.99 866.949 1.6552 2.9972 1.6552 -2.9972" fill="none" stroke="#000"/>
<path d="m 23.3937 868.761 1.6552 2.9972 1.6552 -2.9972" fill="none" stroke="#000"/>
<path d="m 31.21 855.958 1.6552 2.9972 1.6552 -2.9972" fill="none" stroke="#000"/>
<path d="m 28.6136 857.827 1.6552 2.9972 1.6552 -2.9972" fill="none" stroke="#000"/>
<path d="m 26.0173 859.638 1.6552 2.9972 1.6552 -2.9972" fill="none" stroke="#000"/>
<path d="m 19.8145 857.192 1.6552 2.9972 1.6552 -2.9972" fill="none" stroke="#000"/>
<path d="m 19.3834 864.879 1.6552 2.9972 1.6552 -2.9972" fill="none" stroke="#000"/>
<path d="m 21.7648 863.103 1.6552 2.9972 1.6552 -2.9972" fill="none" stroke="#000"/>
<path d="m 17.5541 858.605 1.6552 2.9972 1.6552 -2.9972" fill="none" stroke="#000"/>
</g>
</svg>
