<svg viewBox="0 0 512 512" xmlns="http://www.w3.org/2000/svg">

<g transform="matrix(18.68858,0,0,18.68858,-2277.56997,-39463.40253)">
<path d="m 126.562 2112.12 c 2.8681 2.646 5.9278 5.2037 9.0625 7.7188 l -0.125 1.625 c 3.8381 3.1786 8.2306 6.0736 12.6562 8.9062 -3.7437 -6.3402 -8.0455 -12.446 -12.625 -18.25 h -8.9688 z" fill="#fff"/>
<path d="m 129.781 2112.12 c 3.2691 3.1974 6.6491 6.3424 10.0625 9.4688 -2.3656 -3.1767 -4.7558 -6.3399 -7.2188 -9.4688 h -2.8438 z"/>
<path d="m 122.344 2121.06 v 7.1563 c 8.2781 3.0944 16.965 5.7561 25.8438 7.5937 -3.7115 -2.907 -7.4588 -5.7283 -11.375 -8.0625 l -1.5625 0.5 c -4.2492 -2.6247 -8.5182 -5.082 -12.9062 -7.1875 z" fill="#fff"/>
<path d="m 122.344 2123.47 v 2.625 c 5.1316 1.8879 10.3302 3.5595 15.5312 5.1874 -5.1425 -2.7244 -10.2991 -5.4218 -15.5312 -7.8124 z"/>
<path d="m 122.331 2112.14 h 26.4314 v 26.4314 h -26.4314 z" fill="none" stroke="#000"/>
</g>
</svg>
