<svg viewBox="0 0 512 512" xmlns="http://www.w3.org/2000/svg">

<g transform="matrix(18.68858,0,0,18.68858,3236.13372,-7331.74149)">
<path d="m-159.5443,395.1515c0,0-.2584,1.9874-2.6499,2.6499s-6.9162,0-6.9162,0l-.7682.7058 .7682.8577c0,0 4.3922-.6956 6.7838,0s2.7824,2.7824 2.7824,2.7824 .3909-2.0868 2.7824-2.7824 6.7838,0 6.7838,0l.8338-.8014-.8338-.762c0,0-4.5247.6625-6.9162,0s-2.6499-2.6499-2.6499-2.6499z" fill="#fff"/>
<g transform="matrix(1.02476,0,0,1.02476,-756.88911,-4.87595)">
<path d="m570.9471,401.6066c0,3.4091 5.6348,3.4115 5.6348,0l-2.9271-7.1702-2.7077,7.1702z" fill="none" stroke="#fff" stroke-width=".9758"/>
<path d="m570.9852,401.4289h5.4489c-.6633,3.3399-5.253,2.9577-5.4489,0z" fill="#fff" fill-rule="evenodd"/>
</g>
<path d="m-159.5115,398.4079-2.3701,12.8709 1.1442,1.6209c-1.1708.5111-2.1045,1.7839-2.1045,3.8207h6.6608c0-2.0316-.9219-3.3355-2.084-3.8496l1.1238-1.592-2.3701-12.8709z" fill="#fff" fill-rule="evenodd"/>
<path d="m-151.1678,417.6642h-16.6875c0-1.2075 3.738-2.1875 8.3438-2.1875s8.3438.98 8.3438,2.1875z" fill="#fff"/>
<g transform="matrix(1.02476,0,0,1.02476,-737.88561,-4.87595)">
<path d="m570.9471,401.6066c0,3.4091 5.6348,3.4115 5.6348,0l-2.9271-7.1702-2.7077,7.1702z" fill="none" stroke="#fff" stroke-width=".9758"/>
<path d="m570.9852,401.4289h5.4489c-.6633,3.3399-5.253,2.9577-5.4489,0z" fill="#fff" fill-rule="evenodd"/>
</g>
</g>
</svg>
