<svg viewBox="0 0 512 512" xmlns="http://www.w3.org/2000/svg">

<g transform="matrix(18.68858,0,0,18.68858,3883.65937,-5415.12295)">
<path d="m-194.0992,293.6818c-6.4253-.0229-12.8608,3.6413-12.8608,11.0791 5.0848.9554 7.7868,4.0645 8.102,4.924 .2007.5473-1.4934,1.1269-1.4934,2.0409-3e-05,1.9993 12.5044,1.9725 12.5044,0-2e-05-.9589-1.8986-1.5197-1.804-2.1381 .1235-.8075 2.9705-4.0093 8.3801-4.8268 0-7.3462-6.4031-11.0562-12.8284-11.0791z" fill="#fff" fill-rule="evenodd"/>
<path d="m-197.3608,311.899c2.1647,3.2988 3.9234,3.3544 6.3606-1e-05" fill="#fff" fill-rule="evenodd" stroke="#000"/>
<path d="m-194.4095,293.1608 .0916,12.0031" fill="none" stroke="#000"/>
<path d="m-207.0061,299.9422c3.4384,1.1776 6.2287,3.6098 8.3015,6.5518" fill="none" stroke="#000"/>
<path d="m-201.4578,293.8997c2.3446,3.612 3.7874,7.4248 4.7626,11.6095" fill="none" stroke="#000"/>
<path d="m-181.6684,299.9423c-3.4384,1.1776-6.2287,3.6098-8.3015,6.5517" fill="none" stroke="#000"/>
<path d="m-187.2167,293.8997c-2.3446,3.6121-3.7873,7.4248-4.7626,11.6095" fill="none" stroke="#000"/>
</g>
</svg>
