<svg viewBox="0 0 512 512" xmlns="http://www.w3.org/2000/svg">

<g transform="matrix(18.68858,0,0,18.68858,-2277.56997,-39463.40253)">
<path d="m126.5625,2112.125c2.8681,2.646 5.9278,5.2037 9.0625,7.7188l-.125,1.625c3.8381,3.1786 8.2306,6.0736 12.6562,8.9062-3.7437-6.3402-8.0455-12.446-12.625-18.25h-8.9688z" fill="#fff"/>
<path d="m129.7812,2112.125c3.2691,3.1974 6.6491,6.3424 10.0625,9.4688-2.3656-3.1767-4.7558-6.3399-7.2188-9.4688h-2.8438z"/>
<path d="m122.3438,2121.0625v7.1563c8.2781,3.0944 16.965,5.7561 25.8438,7.5937-3.7115-2.907-7.4588-5.7283-11.375-8.0625l-1.5625.5c-4.2492-2.6247-8.5182-5.082-12.9062-7.1875z" fill="#fff"/>
<path d="m122.3438,2123.4688v2.625c5.1316,1.8879 10.3302,3.5595 15.5312,5.1874-5.1425-2.7244-10.2991-5.4218-15.5312-7.8124z"/>
<path d="m122.3307,2112.1357h26.4314v26.4314h-26.4314z" fill="none" stroke="#000"/>
</g>
</svg>
