<svg viewBox="0 0 512 512" xmlns="http://www.w3.org/2000/svg">

<g transform="matrix(18.68858,0,0,18.68858,-10441.97464,-25864.04976)">
<path d="m580.4393,1388.4461c-2.2917.5224-3.9336,1.6946-4.2211,4.2212 2.8637-.7551 3.6319-2.441 4.2211-4.2212z" fill="#fff"/>
<path d="m584.7386,1390.1752-4.6513-1.838 1.1253,4.8764 .4126-2.2131 1.6129,1.1253-.5626-1.7255z" fill="#fff"/>
<path d="m563.6798,1388.1384c2.4218.3545 3.9719,1.8026 5.0789,3.9271-2.8842-.5858-4.1438-2.0969-5.0789-3.9271z" fill="#fff"/>
<path d="m563.7862,1393.158-.063-5.0008-4.0853,2.8906 2.2044-.4574-.4295,1.9192 1.3833-1.1751z" fill="#fff"/>
<path d="m570.2215,1398.4403c1.5342,3.1026-1.1325,6.9183-1.7815,8.7785l2.5938.094c.0344-2.5962.7319-4.5824 1.1591-7.5247 .3242,2.6332 1.0063,5.2665.3408,7.8997l2.625-.3125c-.4209-2.0682-2.1526-5.8008-1.03-8.8525-1.0598-.6772-2.3914-.7809-3.9073-.082z" fill="#fff"/>
<path d="m572.7761,1399.7694c.057-2.8035 2.2083-6.2458 4.8489-6.7691l-1.375-2.25c-2.5637,2.6895-4.9915,3.3744-7.1562-.2188-.8801.7302-1.7136,1.515-2.5625,2.281 3.1149.1943 5.1017,3.8378 4.9369,6.8744" fill="#fff"/>
<path d="m571.4498,1410.3997-1.2426-4.9641-3.3105,3.9994 2.0109-1.0123 .0819,1.9649 1.032-1.493z" fill="#fff"/>
<path d="m572.0731,1410.4747 1.3552-4.8141 3.198,3.8494-2.0109-1.0123-.0819,1.9649-1.032-1.493z" fill="#fff"/>
<path d="m565.3916,1388.7726c0,.4868-.3947.8815-.8815.8815s-.8815-.3947-.8815-.8815 .3947-.8815.8815-.8815 .8815.3946.8815.8815z" fill="#fff" transform="matrix(-1.40426,0,0,1.40426,1372.939,-561.3812)"/>
<path d="m565.3916,1388.7726c0,.4868-.3947.8815-.8815.8815s-.8815-.3947-.8815-.8815 .3947-.8815.8815-.8815 .8815.3946.8815.8815z" fill="#fff" transform="matrix(-1.27081,0,0,1.27081,1281.5666,-376.21077)"/>
<path d="m561.1891,1388.0996 11.1933,1.6097 12.1476-1.5567" fill="none" stroke="#fff"/>
<path d="m573.9439,1394.943c0,1.6366-.9657,2.9633-2.1568,2.9633s-2.1568-1.3267-2.1568-2.9633 .9657-2.9633 2.1568-2.9633 2.1568,1.3267 2.1568,2.9633z" fill="#fff" stroke="#000" stroke-width="1.0445" transform="matrix(-1.11392,0,0,.82278,1209.4509,242.51539)"/>
<path d="m569.2251,1386.5189 3.5303,3.3822 2.0925-3.5763-1.491.9467-.4892-2.0187-.4292,2.1186-1.509-1.3443 .515,1.3821z" fill="#fff"/>
</g>
</svg>
