<svg viewBox="0 0 512 512" xmlns="http://www.w3.org/2000/svg">

<g transform="matrix(18.68858,0,0,18.68858,-10441.97464,-25864.04976)">
<path d="m 580.439 1388.45 c -2.2917 0.5224 -3.9336 1.6946 -4.2211 4.2212 2.8637 -0.7551 3.6319 -2.441 4.2211 -4.2212 z" fill="#fff"/>
<path d="m 584.739 1390.18 -4.6513 -1.838 1.1253 4.8764 0.4126 -2.2131 1.6129 1.1253 -0.5626 -1.7255 z" fill="#fff"/>
<path d="m 563.68 1388.14 c 2.4218 0.3545 3.9719 1.8026 5.0789 3.9271 -2.8842 -0.5858 -4.1438 -2.0969 -5.0789 -3.9271 z" fill="#fff"/>
<path d="m 563.786 1393.16 -0.063 -5.0008 -4.0853 2.8906 2.2044 -0.4574 -0.4295 1.9192 1.3833 -1.1751 z" fill="#fff"/>
<path d="m 570.221 1398.44 c 1.5342 3.1026 -1.1325 6.9183 -1.7815 8.7785 l 2.5938 0.094 c 0.0344 -2.5962 0.7319 -4.5824 1.1591 -7.5247 0.3242 2.6332 1.0063 5.2665 0.3408 7.8997 l 2.625 -0.3125 c -0.4209 -2.0682 -2.1526 -5.8008 -1.03 -8.8525 -1.0598 -0.6772 -2.3914 -0.7809 -3.9073 -0.082 z" fill="#fff"/>
<path d="m 572.776 1399.77 c 0.057 -2.8035 2.2083 -6.2458 4.8489 -6.7691 l -1.375 -2.25 c -2.5637 2.6895 -4.9915 3.3744 -7.1562 -0.2188 -0.8801 0.7302 -1.7136 1.515 -2.5625 2.281 3.1149 0.1943 5.1017 3.8378 4.9369 6.8744" fill="#fff"/>
<path d="m 571.45 1410.4 -1.2426 -4.9641 -3.3105 3.9994 2.0109 -1.0123 0.0819 1.9649 1.032 -1.493 z" fill="#fff"/>
<path d="m 572.073 1410.47 1.3552 -4.8141 3.198 3.8494 -2.0109 -1.0123 -0.0819 1.9649 -1.032 -1.493 z" fill="#fff"/>
<path d="m 565.392 1388.77 c 0 0.4868 -0.3947 0.8815 -0.8815 0.8815 s -0.8815 -0.3947 -0.8815 -0.8815 0.3947 -0.8815 0.8815 -0.8815 0.8815 0.3946 0.8815 0.8815 z" fill="#fff" transform="matrix(-1.40426,0,0,1.40426,1372.939,-561.3812)"/>
<path d="m 565.392 1388.77 c 0 0.4868 -0.3947 0.8815 -0.8815 0.8815 s -0.8815 -0.3947 -0.8815 -0.8815 0.3947 -0.8815 0.8815 -0.8815 0.8815 0.3946 0.8815 0.8815 z" fill="#fff" transform="matrix(-1.27081,0,0,1.27081,1281.5666,-376.21077)"/>
<path d="m 561.189 1388.1 11.1933 1.6097 12.1476 -1.5567" fill="none" stroke="#fff"/>
<path d="m 573.944 1394.94 c 0 1.6366 -0.9657 2.9633 -2.1568 2.9633 s -2.1568 -1.3267 -2.1568 -2.9633 0.9657 -2.9633 2.1568 -2.9633 2.1568 1.3267 2.1568 2.9633 z" fill="#fff" stroke="#000" stroke-width="1.0445" transform="matrix(-1.11392,0,0,.82278,1209.4509,242.51539)"/>
<path d="m 569.225 1386.52 3.5303 3.3822 2.0925 -3.5763 -1.491 0.9467 -0.4892 -2.0187 -0.4292 2.1186 -1.509 -1.3443 0.515 1.3821 z" fill="#fff"/>
</g>
</svg>
