<svg viewBox="0 0 512 512" xmlns="http://www.w3.org/2000/svg">

<g transform="matrix(18.68858,0,0,18.68858,-5676.23406,-32681.44968)">
<path d="m 317.426 1753.6 c 0 1.404 -1.1382 2.5421 -2.5422 2.5421 s -2.5422 -1.1381 -2.5422 -2.5421 1.1382 -2.5422 2.5422 -2.5422 2.5422 1.1381 2.5422 2.5422 z" fill="#fff" stroke="#000" stroke-width="1.3245" transform="matrix(.75502,0,0,.75502,75.16038,427.87555)"/>
<path d="m 317.426 1753.6 c 0 1.404 -1.1382 2.5421 -2.5422 2.5421 s -2.5422 -1.1381 -2.5422 -2.5421 1.1382 -2.5422 2.5422 -2.5422 2.5422 1.1381 2.5422 2.5422 z" fill="#fff" stroke="#000" stroke-width="1.3245" transform="matrix(.75502,0,0,.75502,84.1668,427.87555)"/>
<path d="m 323.474 1762.41 c 0 4.286 -3.0911 7.7604 -6.904 7.7604 s -6.904 -3.4744 -6.904 -7.7604 3.0911 -7.7603 6.904 -7.7603 6.904 3.4744 6.904 7.7603 z" fill="#fff" stroke="#000" stroke-width="2.6127" transform="matrix(.56077,0,0,.31709,139.88368,1192.9071)"/>
<path d="m 326.621 1757.41 c -0.8482 1.6865 -2.2847 1.8288 -4.0731 1.0479" fill="none" stroke="#fff"/>
<path d="m 324.688 1767.44 c 0.1588 3.2635 -4.7511 3.3475 -3.379 7.443 1.8931 -4.0184 6.6343 -4.6806 3.379 -7.443 z" fill="#fff"/>
<path d="m 325.279 1769.1 c 0.1087 -1.8847 -1.0642 -2.7261 -3.0034 -2.9441" fill="none" stroke="#fff"/>
<path d="m 330.083 1768.09 c -2.9057 -1.4943 -0.5235 -5.7883 -4.7564 -6.6479 2.5336 3.6489 0.7364 8.0858 4.7564 6.6479 z" fill="#fff"/>
<path d="m 326.756 1762.7 c -1.2558 -1.4095 -2.6801 -1.1751 -4.2055 0.042" fill="none" stroke="#fff"/>
<path d="m 328.055 1751.95 c -2.0466 2.547 1.3056 4.4134 -2.2117 6.9203 0.8303 -4.3638 -2.0456 -6.5987 2.2117 -6.9203 z" fill="#fff"/>
<g transform="matrix(-1,0,0,1,634.77256,0)">
<path d="m 326.621 1757.41 c -0.8482 1.6865 -2.2847 1.8288 -4.0731 1.0479" fill="none" stroke="#fff"/>
<path d="m 324.688 1767.44 c 0.1588 3.2635 -4.7511 3.3475 -3.379 7.443 1.8931 -4.0184 6.6343 -4.6806 3.379 -7.443 z" fill="#fff"/>
<path d="m 325.279 1769.1 c 0.1087 -1.8847 -1.0642 -2.7261 -3.0034 -2.9441" fill="none" stroke="#fff"/>
<path d="m 330.083 1768.09 c -2.9057 -1.4943 -0.5235 -5.7883 -4.7564 -6.6479 2.5336 3.6489 0.7364 8.0858 4.7564 6.6479 z" fill="#fff"/>
<path d="m 326.756 1762.7 c -1.2558 -1.4095 -2.6801 -1.1751 -4.2055 0.042" fill="none" stroke="#fff"/>
<path d="m 328.055 1751.95 c -2.0466 2.547 1.3056 4.4134 -2.2117 6.9203 0.8303 -4.3638 -2.0456 -6.5987 2.2117 -6.9203 z" fill="#fff"/>
</g>
<path d="m 323.474 1762.41 c 0 4.286 -3.0911 7.7604 -6.904 7.7604 s -6.904 -3.4744 -6.904 -7.7604 3.0911 -7.7603 6.904 -7.7603 6.904 3.4744 6.904 7.7603 z" fill="#fff" stroke="#000" stroke-width="1.0208" transform="matrix(.97966,0,0,1.1891,7.27618,-333.916)"/>
<path d="m 310.965 1757.78 c 3.5578 -2.8698 9.3257 -2.8696 12.8835 -0.0003" fill="none" stroke="#000"/>
<path d="m 317.407 1755.63 v 14.9679" fill="none" stroke="#000"/>
<path d="m 320.212 1756.12 -0.5439 11.9466 -0.6719 -12.573"/>
<path d="m 322.376 1757.04 -0.5518 8.1072 -0.6817 -8.5323"/>
<path d="m 314.791 1756.12 0.5439 11.9466 0.6719 -12.573"/>
<path d="m 312.627 1757.04 0.5518 8.1072 0.6817 -8.5323"/>
<path d="m 326.899 1753.93 1.7394 -0.3479 c -0.4563 0.61 -0.9066 1.1394 -1.0972 2.3281" fill="#fff"/>
<path d="m 307.926 1753.93 -1.7394 -0.3479 c 0.4563 0.61 0.9066 1.1394 1.0972 2.3281" fill="#fff"/>
<path d="m 306.732 1766.58 -1.7702 -0.1142 c 0.5987 -0.4711 1.1706 -0.8659 1.6623 -1.9648" fill="#fff"/>
<path d="m 328.082 1766.58 1.7702 -0.1142 c -0.5987 -0.4711 -1.1706 -0.8659 -1.6623 -1.9648" fill="#fff"/>
<path d="m 322.097 1773.15 1.3325 1.1708 c -0.0903 -0.7563 -0.2155 -1.4399 0.2138 -2.5646" fill="#fff"/>
<path d="m 323.179 1772.13 1.3325 1.1707 c -0.0903 -0.7562 -0.2155 -1.4398 0.2138 -2.5645" fill="#fff"/>
<path d="m 312.63 1773.15 -1.3325 1.1708 c 0.0903 -0.7563 0.2155 -1.4399 -0.2138 -2.5646" fill="#fff"/>
<path d="m 311.548 1772.13 -1.3325 1.1707 c 0.0903 -0.7562 0.2155 -1.4398 -0.2138 -2.5645" fill="#fff"/>
</g>
</svg>
