<svg viewBox="0 0 512 512" xmlns="http://www.w3.org/2000/svg">

<g transform="matrix(18.68858,0,0,18.68858,-5676.23406,-32681.44968)">
<path d="m317.4257,1753.6049c0,1.404-1.1382,2.5421-2.5422,2.5421s-2.5422-1.1381-2.5422-2.5421 1.1382-2.5422 2.5422-2.5422 2.5422,1.1381 2.5422,2.5422z" fill="#fff" stroke="#000" stroke-width="1.3245" transform="matrix(.75502,0,0,.75502,75.16038,427.87555)"/>
<path d="m317.4257,1753.6049c0,1.404-1.1382,2.5421-2.5422,2.5421s-2.5422-1.1381-2.5422-2.5421 1.1382-2.5422 2.5422-2.5422 2.5422,1.1381 2.5422,2.5422z" fill="#fff" stroke="#000" stroke-width="1.3245" transform="matrix(.75502,0,0,.75502,84.1668,427.87555)"/>
<path d="m323.4735,1762.4089c0,4.286-3.0911,7.7604-6.904,7.7604s-6.904-3.4744-6.904-7.7604 3.0911-7.7603 6.904-7.7603 6.904,3.4744 6.904,7.7603z" fill="#fff" stroke="#000" stroke-width="2.6127" transform="matrix(.56077,0,0,.31709,139.88368,1192.9071)"/>
<path d="m326.6211,1757.4072c-.8482,1.6865-2.2847,1.8288-4.0731,1.0479" fill="none" stroke="#fff"/>
<path d="m324.6883,1767.4442c.1588,3.2635-4.7511,3.3475-3.379,7.443 1.8931-4.0184 6.6343-4.6806 3.379-7.443z" fill="#fff"/>
<path d="m325.2792,1769.0987c.1087-1.8847-1.0642-2.7261-3.0034-2.9441" fill="none" stroke="#fff"/>
<path d="m330.0827,1768.092c-2.9057-1.4943-.5235-5.7883-4.7564-6.6479 2.5336,3.6489.7364,8.0858 4.7564,6.6479z" fill="#fff"/>
<path d="m326.7559,1762.6966c-1.2558-1.4095-2.6801-1.1751-4.2055.042" fill="none" stroke="#fff"/>
<path d="m328.0549,1751.9464c-2.0466,2.547 1.3056,4.4134-2.2117,6.9203 .8303-4.3638-2.0456-6.5987 2.2117-6.9203z" fill="#fff"/>
<g transform="matrix(-1,0,0,1,634.77256,0)">
<path d="m326.6211,1757.4072c-.8482,1.6865-2.2847,1.8288-4.0731,1.0479" fill="none" stroke="#fff"/>
<path d="m324.6883,1767.4442c.1588,3.2635-4.7511,3.3475-3.379,7.443 1.8931-4.0184 6.6343-4.6806 3.379-7.443z" fill="#fff"/>
<path d="m325.2792,1769.0987c.1087-1.8847-1.0642-2.7261-3.0034-2.9441" fill="none" stroke="#fff"/>
<path d="m330.0827,1768.092c-2.9057-1.4943-.5235-5.7883-4.7564-6.6479 2.5336,3.6489.7364,8.0858 4.7564,6.6479z" fill="#fff"/>
<path d="m326.7559,1762.6966c-1.2558-1.4095-2.6801-1.1751-4.2055.042" fill="none" stroke="#fff"/>
<path d="m328.0549,1751.9464c-2.0466,2.547 1.3056,4.4134-2.2117,6.9203 .8303-4.3638-2.0456-6.5987 2.2117-6.9203z" fill="#fff"/>
</g>
<path d="m323.4735,1762.4089c0,4.286-3.0911,7.7604-6.904,7.7604s-6.904-3.4744-6.904-7.7604 3.0911-7.7603 6.904-7.7603 6.904,3.4744 6.904,7.7603z" fill="#fff" stroke="#000" stroke-width="1.0208" transform="matrix(.97966,0,0,1.1891,7.27618,-333.916)"/>
<path d="m310.9649,1757.7809c3.5578-2.8698 9.3257-2.8696 12.8835-.0003" fill="none" stroke="#000"/>
<path d="m317.4066,1755.6269v14.9679" fill="none" stroke="#000"/>
<path d="m320.2117,1756.1249-.5439,11.9466-.6719-12.573"/>
<path d="m322.376,1757.0387-.5518,8.1072-.6817-8.5323"/>
<path d="m314.7914,1756.1249 .5439,11.9466 .6719-12.573"/>
<path d="m312.627,1757.0387 .5518,8.1072 .6817-8.5323"/>
<path d="m326.8987,1753.926 1.7394-.3479c-.4563.61-.9066,1.1394-1.0972,2.3281" fill="#fff"/>
<path d="m307.926,1753.926-1.7394-.3479c.4563.61.9066,1.1394 1.0972,2.3281" fill="#fff"/>
<path d="m306.7317,1766.5777-1.7702-.1142c.5987-.4711 1.1706-.8659 1.6623-1.9648" fill="#fff"/>
<path d="m328.0821,1766.5777 1.7702-.1142c-.5987-.4711-1.1706-.8659-1.6623-1.9648" fill="#fff"/>
<path d="m322.0974,1773.1453 1.3325,1.1708c-.0903-.7563-.2155-1.4399.2138-2.5646" fill="#fff"/>
<path d="m323.1793,1772.1294 1.3325,1.1707c-.0903-.7562-.2155-1.4398.2138-2.5645" fill="#fff"/>
<path d="m312.6302,1773.1453-1.3325,1.1708c.0903-.7563.2155-1.4399-.2138-2.5646" fill="#fff"/>
<path d="m311.5483,1772.1294-1.3325,1.1707c.0903-.7562.2155-1.4398-.2138-2.5645" fill="#fff"/>
</g>
</svg>
