<svg xmlns="http://www.w3.org/2000/svg" viewBox="0 0 512 512">

<path fill="#fff" d="m34.8585,219.984-.9173,124.145 74.6093,.3058c29.7807,49.9064 85.6129,45.2636 129.9548,66.0476l71.4493-86.9363l-17.6327-124.0491z"/>
<path fill="none" stroke="#000" stroke-linejoin="round" stroke-width="18" d="m169.2594,387.6647c-9.7165,7.5994-59.8667-28.9301-60.8494-43.7259l-74.6618-.0959"/>
<path fill="#fff" stroke="#000" stroke-linejoin="round" stroke-linecap="round" stroke-width="18" d="m265.8846,372.0702c2.0901,17.9313-1.8071,32.9476-26.9083,39.7509c-19.1352-.2307-62.7643-16.9207-70.6342-24.4621c-14.3846-13.7841 14.3492-57.6145 32.1065-49.5357z"/>
<path fill="#fff" stroke="#000" stroke-linejoin="round" stroke-linecap="round" stroke-width="18" d="m287.5947,199.3068 123.8392-26.6025c64.0096-11.4611 71.7655,38.798 14.983,59.0147c-4.3209,1.5384-122.3104,26.2967-122.3104,26.2967c18.9496-.8235 95.6851,6.3606 136.9876,17.4292s43.5323,51.726 7.0328,54.7339s-93.1833,.9272-141.2467-5.4605"/>
<path fill="#fff" stroke="#000" stroke-linejoin="round" stroke-linecap="round" stroke-width="18" d="m240.1994,295.0146c6.3906-1.7639 71.9333,27.5045 69.7169,34.2469c-3.8445,11.6952-22.624,51.3271-43.4202,42.1971l-66.0476-33.9411c7.3243-16.0613 16.3242-36.0369 39.7509-42.5029z"/>
<path fill="#fff" stroke="#000" stroke-linejoin="round" stroke-width="18" d="m34.8754,219.9294 69.2537-1.9703c45.1107-56.9352 110.9168-105.3401 176.1269-21.4043c12.1175,24.4621 15.0532,42.5028 21.7101,66.9649c-6.874,23.8455-29.9194,30.8594-44.3375,22.3217c-23.1995-18.5778-34.3731-42.2191-42.1971-67.2707c-5.8463,38.6561-38.642,59.7078-66.6591,74.6093"/>
</svg>
