<svg viewBox="0 0 512 512" xmlns="http://www.w3.org/2000/svg">

<g transform="matrix(18.68858,0,0,18.68858,713.92892,-3503.2523)">
<path d="m -29.9694 191.498 c -2.8279 0.3086 -4.9178 2.0175 -5.252 5.0141 -2.1033 2.0152 -2.5616 4.6835 -0.9826 7.5211 -0.6008 3.3057 1.0122 5.4389 3.8628 6.4734 0.7198 1.8013 1.6953 3.1834 3.0787 3.7902 l 17.2116 -0.0122 c -3.9504 -5.2804 -15.0559 -7.0106 -17.0908 -6.547 -0.1104 -2.5444 -1.4899 -3.6852 -3.2422 -4.6372 1.2411 -1.615 0.4988 -3.5518 -0.059 -5.3161 2.2243 -0.7957 3.533 -2.0292 4.0999 -3.667 1.6462 0.5877 3.1179 0.1118 4.9132 -0.5239 1.631 2.0431 4.4654 3.2351 6.9462 1.3096 -0.3544 -3.2665 -3.5278 -4.9413 -6.2346 -4.5277 -2.6534 -1.2812 -5.3299 -0.7717 -7.2511 1.1226 z" fill="#fff" stroke="#000" stroke-width="1.0466"/>
<path d="m -18.598 194.735 c -4.7367 1.6754 -1.1402 11.1954 6.7252 8.5022 -4.7815 -0.525 -2.9364 -3.0018 -2.4499 -5.0084 0.6618 -2.7295 -1.4681 -4.4867 -4.2754 -3.4937 z" fill="#fff" fill-rule="evenodd"/>
</g>
</svg>
