<svg viewBox="0 0 512 512" xmlns="http://www.w3.org/2000/svg">

<g transform="translate(-199.1118,-8.1377)">
<path d="m 571.478 474.851 c -13.3118 0 -25.0193 -1.4022 -35.3246 -3.9914 -14.1505 -5.0193 -26.6321 -10.9591 -41.8751 -31.901 -1.4452 -1.9699 -2.8129 -4.0344 -4.086 -6.1376 l -0.8602 -1.4365 c -14.1376 -24.3225 -17.3806 -56.3912 -19.015 -86.3782 l -0.215 -7.9527 v -230.623 c 0 -7.4279 -0.9462 -15.0795 -4.172 -21.9784 -2.4946 -4.2021 -5.7935 -4.5161 -8.357 -3.2387 -3.2989 1.643 -7.4021 6.8215 -8.0602 17.1999 0.9462 72.7008 -1.5914 176.021 -2.6366 246.593 h -77.9051 v -238.571 c 0 -7.4279 -0.9376 -15.0795 -4.1677 -21.9784 -2.5849 -4.3484 -6.043 -4.5935 -8.8043 -2.9978 -3.5355 2.0473 -7.7032 8.1161 -7.7032 19.8064 0.6108 79.303 -1.5011 164.812 -2.6839 243.741 h -77.9008 v -238.571 c 0 -21.372 -8.8516 -39.7289 -36.374 -39.8364 l -8.4215 -0.0344 c 17.4193 -19.8408 34.7482 -28.3655 62.761 -28.3655 18.0472 0 34.916 7.1484 46.5762 19.3161 l 1.8925 -1.7118 2.215 -1.9054 c 16.7698 -12.929 35.9956 -15.6946 50.5675 -15.6946 18.0214 0 34.8601 7.1269 46.5202 19.2558 l 1.8236 -1.6516 2.2151 -1.9054 c 16.7827 -12.929 35.9956 -15.6946 50.5804 -15.6946 33.0364 0 61.9223 23.9096 62.5546 58.4127 0.1634 8.843 0.2495 19.0365 0.2667 30.172 0 62.6535 -2.7871 237.685 -0.714 250.206 l 1.0022 5.5441 c 0.5204 2.5763 1.071 5.0279 1.6731 7.3806 9.7806 37.7031 23.9139 46.3568 49.574 45.7977 11.458 -1.0323 21.6644 -5.2817 29.6042 -9.8021 l -16.5032 -29.7117 72.8427 2.3699 -29.0192 77.5739 c -0.2193 -0.8688 -6.215 -11.9397 -13.7161 -25.587 -6.7742 8.8817 -25.5311 24.2881 -74.1546 24.2881 z" fill="#fff"/>
</g>
</svg>
