<svg viewBox="0 0 512 512" xmlns="http://www.w3.org/2000/svg">

<g transform="matrix(18.68858,0,0,18.68858,-4643.99792,-11642.52566)">
<path d="m257.9688,632.0938c-.5938.037-1.0736.2299-1.4375.5938-1.4554,1.4554-.1919,5.1206 2.8438,8.1562 1.4243,1.4243 3.0028,2.418 4.4062,2.9688 1.8998-.5529 3.3548-1.655 4.1875-2.875-.3798-1.6317-1.5382-3.6008-3.3125-5.375-2.2767-2.2767-4.9061-3.5798-6.6875-3.4688z" fill="#fff"/>
<path d="m268.4863,627.8234c-1.9757,1.245-3.5704.2-4.7943-1.4165-1.1069-1.462-2.8169-2.3598-4.9857.5777 1.5491,5.0692 7.658,5.5655 9.78.8388z" fill="#fff" fill-rule="evenodd"/>
<path d="m267.6334,649.3765c-2.2462-4.2844-6.2688-5.8861-9.1427-3.8811-.8569,3.0806 5.8996,4.9703 9.1427,3.8811z" fill="#fff" fill-rule="evenodd"/>
<path d="m273.4444,644.7659c1.7085-4.3937.2047-7.7846-3.6326-8.5194-3.03,1.5805.4185,7.2006 3.6326,8.5194z" fill="#fff" fill-rule="evenodd"/>
<path d="m261.3911,642.0435c-1.1882.6306-2.3803,1.4485-3.4192,2.4066 .4896,1.1881.9853,2.0956 1.5726,2.7599" fill="none" stroke="#fff"/>
<path d="m266.5743,640.3225c.2966-1.3121.773-2.677 1.425-3.9309 1.1545.1455 2.0883.3562 2.8449.686" fill="none" stroke="#fff"/>
<path d="m266.4715,634.8424c-2.1796,3.5313-5.6234,5.3845-9.1613,7.1129" fill="none" stroke="#fff"/>
<path d="m264.8471,633.3524c-2.0464,3.3083-5.2799,5.0445-8.6015,6.6637" fill="none" stroke="#fff"/>
<path d="m262.989,632.1592c-1.8339,2.9524-4.7314,4.5018-7.7081,5.9467" fill="none" stroke="#fff"/>
<path d="m260.8901,631.3783c-1.4849,2.3682-3.831,3.611-6.2412,4.7701" fill="none" stroke="#fff"/>
<path d="m258.7178,633.4111c-.3671-2.4569-3.8764-3.1709-5.3945-1.2623 .3663,2.4512 3.7551,3.3234 5.3945,1.2623z" fill="#fff" fill-rule="evenodd"/>
<path d="m254.4564,632.4081c.5901-2.1142-1.6547-4.1263-3.5429-3.086-.5887,2.1093 1.5038,4.2094 3.5429,3.086z" fill="#fff" fill-rule="evenodd"/>
<path d="m251.4474,630.1617c1.6227-1.2907.8858-3.9066-1.1274-4.2074-1.6189,1.2877-1.0466,3.8826 1.1274,4.2074z" fill="#fff" fill-rule="evenodd"/>
<path d="m253.8714,624.4633c.1495,1.6073-1.9418,2.8149-3.4409,2.0817-.8522-2.3689 1.7267-3.3502 3.4409-2.0817z" fill="#fff" fill-rule="evenodd"/>
<path d="m257.2853,625.7351c-1.1811,1.4849-3.8561.5918-4.1314-1.2504 1.1784-1.4814 3.8341-.739 4.1314,1.2504z" fill="#fff" fill-rule="evenodd"/>
<path d="m259.9555,627.3756c-1.5484,1.1184-3.9983-.2784-3.7285-2.1123 1.5448-1.1158 4.0199.1319 3.7285,2.1123z" fill="#fff" fill-rule="evenodd"/>
<path d="m264.1037,642.3286c3.2627,3.904 5.9612,2.5747 2.2227-1.591" fill="none" stroke="#000"/>
</g>
</svg>
