<svg viewBox="0 0 512 512" xmlns="http://www.w3.org/2000/svg">

<g transform="matrix(18.68858,0,0,18.68858,-4643.99792,-11642.52566)">
<path d="m 257.969 632.094 c -0.5938 0.037 -1.0736 0.2299 -1.4375 0.5938 -1.4554 1.4554 -0.1919 5.1206 2.8438 8.1562 1.4243 1.4243 3.0028 2.418 4.4062 2.9688 1.8998 -0.5529 3.3548 -1.655 4.1875 -2.875 -0.3798 -1.6317 -1.5382 -3.6008 -3.3125 -5.375 -2.2767 -2.2767 -4.9061 -3.5798 -6.6875 -3.4688 z" fill="#fff"/>
<path d="m 268.486 627.823 c -1.9757 1.245 -3.5704 0.2 -4.7943 -1.4165 -1.1069 -1.462 -2.8169 -2.3598 -4.9857 0.5777 1.5491 5.0692 7.658 5.5655 9.78 0.8388 z" fill="#fff" fill-rule="evenodd"/>
<path d="m 267.633 649.376 c -2.2462 -4.2844 -6.2688 -5.8861 -9.1427 -3.8811 -0.8569 3.0806 5.8996 4.9703 9.1427 3.8811 z" fill="#fff" fill-rule="evenodd"/>
<path d="m 273.444 644.766 c 1.7085 -4.3937 0.2047 -7.7846 -3.6326 -8.5194 -3.03 1.5805 0.4185 7.2006 3.6326 8.5194 z" fill="#fff" fill-rule="evenodd"/>
<path d="m 261.391 642.043 c -1.1882 0.6306 -2.3803 1.4485 -3.4192 2.4066 0.4896 1.1881 0.9853 2.0956 1.5726 2.7599" fill="none" stroke="#fff"/>
<path d="m 266.574 640.322 c 0.2966 -1.3121 0.773 -2.677 1.425 -3.9309 1.1545 0.1455 2.0883 0.3562 2.8449 0.686" fill="none" stroke="#fff"/>
<path d="m 266.471 634.842 c -2.1796 3.5313 -5.6234 5.3845 -9.1613 7.1129" fill="none" stroke="#fff"/>
<path d="m 264.847 633.352 c -2.0464 3.3083 -5.2799 5.0445 -8.6015 6.6637" fill="none" stroke="#fff"/>
<path d="m 262.989 632.159 c -1.8339 2.9524 -4.7314 4.5018 -7.7081 5.9467" fill="none" stroke="#fff"/>
<path d="m 260.89 631.378 c -1.4849 2.3682 -3.831 3.611 -6.2412 4.7701" fill="none" stroke="#fff"/>
<path d="m 258.718 633.411 c -0.3671 -2.4569 -3.8764 -3.1709 -5.3945 -1.2623 0.3663 2.4512 3.7551 3.3234 5.3945 1.2623 z" fill="#fff" fill-rule="evenodd"/>
<path d="m 254.456 632.408 c 0.5901 -2.1142 -1.6547 -4.1263 -3.5429 -3.086 -0.5887 2.1093 1.5038 4.2094 3.5429 3.086 z" fill="#fff" fill-rule="evenodd"/>
<path d="m 251.447 630.162 c 1.6227 -1.2907 0.8858 -3.9066 -1.1274 -4.2074 -1.6189 1.2877 -1.0466 3.8826 1.1274 4.2074 z" fill="#fff" fill-rule="evenodd"/>
<path d="m 253.871 624.463 c 0.1495 1.6073 -1.9418 2.8149 -3.4409 2.0817 -0.8522 -2.3689 1.7267 -3.3502 3.4409 -2.0817 z" fill="#fff" fill-rule="evenodd"/>
<path d="m 257.285 625.735 c -1.1811 1.4849 -3.8561 0.5918 -4.1314 -1.2504 1.1784 -1.4814 3.8341 -0.739 4.1314 1.2504 z" fill="#fff" fill-rule="evenodd"/>
<path d="m 259.955 627.376 c -1.5484 1.1184 -3.9983 -0.2784 -3.7285 -2.1123 1.5448 -1.1158 4.0199 0.1319 3.7285 2.1123 z" fill="#fff" fill-rule="evenodd"/>
<path d="m 264.104 642.329 c 3.2627 3.904 5.9612 2.5747 2.2227 -1.591" fill="none" stroke="#000"/>
</g>
</svg>
