<svg viewBox="0 0 512 512" xmlns="http://www.w3.org/2000/svg">

<g transform="matrix(18.68858,0,0,18.68858,-4644.05555,-5365.36648)">
<path d="m 249.375 288.031 v 0.7812 l 7.5312 7.0938 -2.75 -7.875 h -4.7812 z m 6.5938 0 3.6562 6.6562 -0.1562 -6.6562 h -3.5 z m 5.375 0 1.2188 6.3438 1.9062 -6.3438 h -3.125 z m 5 0 -0.875 6.9688 4.8438 -6.9688 h -3.9688 z m 5.6875 0 -3.9688 8.4688 6.9688 -5.3125 v -3.1562 h -3 z m -22.6562 2.875 v 4.5 l 5.3125 2.5 -5.3125 -7 z m 25.6562 2.4688 -5 5.3125 5 -1.75 v -3.5625 z" fill="#fff"/>
<path d="m 262.344 303.534 c 0 1.9244 -0.6716 3.4844 -1.5 3.4844 s -1.5 -1.56 -1.5 -3.4844 0.6716 -3.4844 1.5 -3.4844 1.5 1.56 1.5 3.4844 z" fill="#fff" transform="matrix(-.68597,.61104,.40647,.63068,322.54825,-51.87924)"/>
<path d="m 262.344 303.534 c 0 1.9244 -0.6716 3.4844 -1.5 3.4844 s -1.5 -1.56 -1.5 -3.4844 0.6716 -3.4844 1.5 -3.4844 1.5 1.56 1.5 3.4844 z" fill="#fff" transform="matrix(.68597,.61104,-.40647,.63068,201.86787,-51.87924)"/>
<path d="m 324.312 101.018 c 0 1.5188 -0.8465 2.75 -1.8906 2.75 s -1.8906 -1.2312 -1.8906 -2.75 0.8465 -2.75 1.8906 -2.75 1.8906 1.2312 1.8906 2.75 z" fill="#fff" stroke="#000" stroke-width=".4759" transform="matrix(2.12478,0,0,2.07772,-422.8253,91.91224)"/>
<path d="m 262.094 306.062 c -1.4798 -0.002 -2.976 1.0789 -4.625 3.2812 l 0.9062 4.0938 h 7.7188 l 0.7188 -4.0938 c -1.7517 -2.1959 -3.239 -3.2796 -4.7188 -3.2812 z" fill="#fff"/>
<path d="m 267.286 299.055 c 2.5245 0.8092 7.5651 4.014 7.5651 4.014 l -8.1454 6.9147 -2.8087 -2.8519 7.0483 -3.8948 -3.0303 -1.9962" fill="#fff"/>
<path d="m 257.194 299.055 c -2.5245 0.8092 -7.5651 4.014 -7.5651 4.014 l 8.1454 6.9147 2.8087 -2.8519 -7.0483 -3.8948 3.0303 -1.9962" fill="#fff"/>
<path d="m 259.652 300.624 c 1.5425 -0.6138 3.3976 -0.5947 5.1357 0" fill="none" stroke="#000"/>
<path d="m 264.344 300.018 c 0 0.8284 -0.6716 1.5 -1.5 1.5 s -1.5 -0.6716 -1.5 -1.5 0.6716 -1.5 1.5 -1.5 1.5 0.6716 1.5 1.5 z" fill="#fff" transform="matrix(.53772,0,0,1.21573,121.00934,-64.39697)"/>
<path d="m 263.531 306.971 c 0 0.6645 -0.5387 1.2031 -1.2031 1.2031 s -1.2031 -0.5387 -1.2031 -1.2031 0.5387 -1.2031 1.2031 -1.2031 1.2031 0.5387 1.2031 1.2031 z" transform="matrix(1.63219,0,0,1.63102,-165.94681,-196.7759)"/>
</g>
</svg>
