<svg viewBox="0 0 512 512" xmlns="http://www.w3.org/2000/svg">

<g transform="matrix(18.68858,0,0,18.68858,-4644.05555,-5365.36648)">
<path d="m249.375,288.0312v.7812l7.5312,7.0938-2.75-7.875h-4.7812zm6.5938,0 3.6562,6.6562-.1562-6.6562h-3.5zm5.375,0 1.2188,6.3438 1.9062-6.3438h-3.125zm5,0-.875,6.9688 4.8438-6.9688h-3.9688zm5.6875,0-3.9688,8.4688 6.9688-5.3125v-3.1562h-3zm-22.6562,2.875v4.5l5.3125,2.5-5.3125-7zm25.6562,2.4688-5,5.3125 5-1.75v-3.5625z" fill="#fff"/>
<path d="m262.3438,303.534c0,1.9244-.6716,3.4844-1.5,3.4844s-1.5-1.56-1.5-3.4844 .6716-3.4844 1.5-3.4844 1.5,1.56 1.5,3.4844z" fill="#fff" transform="matrix(-.68597,.61104,.40647,.63068,322.54825,-51.87924)"/>
<path d="m262.3438,303.534c0,1.9244-.6716,3.4844-1.5,3.4844s-1.5-1.56-1.5-3.4844 .6716-3.4844 1.5-3.4844 1.5,1.56 1.5,3.4844z" fill="#fff" transform="matrix(.68597,.61104,-.40647,.63068,201.86787,-51.87924)"/>
<path d="m324.3125,101.0184c0,1.5188-.8465,2.75-1.8906,2.75s-1.8906-1.2312-1.8906-2.75 .8465-2.75 1.8906-2.75 1.8906,1.2312 1.8906,2.75z" fill="#fff" stroke="#000" stroke-width=".4759" transform="matrix(2.12478,0,0,2.07772,-422.8253,91.91224)"/>
<path d="m262.0938,306.0625c-1.4798-.002-2.976,1.0789-4.625,3.2812l.9062,4.0938h7.7188l.7188-4.0938c-1.7517-2.1959-3.239-3.2796-4.7188-3.2812z" fill="#fff"/>
<path d="m267.286,299.0547c2.5245.8092 7.5651,4.014 7.5651,4.014l-8.1454,6.9147-2.8087-2.8519 7.0483-3.8948-3.0303-1.9962" fill="#fff"/>
<path d="m257.1941,299.0547c-2.5245.8092-7.5651,4.014-7.5651,4.014l8.1454,6.9147 2.8087-2.8519-7.0483-3.8948 3.0303-1.9962" fill="#fff"/>
<path d="m259.6522,300.6236c1.5425-.6138 3.3976-.5947 5.1357,0" fill="none" stroke="#000"/>
<path d="m264.3438,300.0184c0,.8284-.6716,1.5-1.5,1.5s-1.5-.6716-1.5-1.5 .6716-1.5 1.5-1.5 1.5.6716 1.5,1.5z" fill="#fff" transform="matrix(.53772,0,0,1.21573,121.00934,-64.39697)"/>
<path d="m263.5312,306.9715c0,.6645-.5387,1.2031-1.2031,1.2031s-1.2031-.5387-1.2031-1.2031 .5387-1.2031 1.2031-1.2031 1.2031.5387 1.2031,1.2031z" transform="matrix(1.63219,0,0,1.63102,-165.94681,-196.7759)"/>
</g>
</svg>
