<svg viewBox="0 0 512 512" xmlns="http://www.w3.org/2000/svg">

<g transform="matrix(18.68858,0,0,18.68858,-3639.17916,-44231.51936)">
<g transform="matrix(.99271,-.12052,.12052,.99271,-284.81938,43.50639)">
<path d="m 216.194 2378.04 c -0.1828 3.4831 0.3353 7.034 1.6301 9.98 1.3211 -2.9629 1.8579 -6.5068 1.6719 -9.98 h -3.302 z" fill="#fff" stroke="#000"/>
<path d="m 221.388 2378.2 h -7.143 c 0 -3.7949 6.9894 -3.7722 7.143 0 z" fill="#fff" stroke="#000"/>
<path d="m 215.559 2382.02 4.2359 -2.3662" fill="none" stroke="#000"/>
<path d="m 215.559 2384.98 4.2359 -2.3662" fill="none" stroke="#000"/>
<path d="m 219.039 2375.69 -0.0291 1.3668 -2.3555 -1.5994"/>
</g>
<path d="m 219.393 2393.43 -4.5152 -2.8881 0.279 -1.9243 -7.2933 -7.2933 1.3897 -1.3896 7.2933 7.2932 1.9242 -0.2791 2.8882 4.5152 z" fill="#fff" stroke="#000"/>
<path d="m 1534.02 -1832.14 h 3.7836 v 3.1667 h -3.7836 z" fill="#fff" stroke="#000" transform="matrix(-.70711,.70711,-.70711,-.70711,0,0)"/>
<path d="m 203.783 2380.58 c -0.0435 -1.4887 -1.1192 -2.5644 -2.6075 -2.6076 l -4.7391 -4.7391 c -3.3415 -3.3417 1.1045 -8.2646 4.6846 -4.6845 l 4.7611 4.761 c 0.0626 1.4514 1.1119 2.5009 2.5633 2.5634 1.1714 0 2.2544 1.2812 1.1712 2.3645 l -3.4475 3.4467 c -1.0421 1.0424 -2.5168 0.1512 -2.3862 -1.1044 z" fill="#fff" stroke="#000"/>
<path d="m 195.594 2369.31 6.6322 6.6321" fill="none" stroke="#000"/>
<path d="m 196.982 2367.57 6.8066 6.8065" fill="none" stroke="#000"/>
<path d="m 197.603 2372.97 c -3.3665 -3.1887 0.0221 -6.5217 3.0955 -3.4019" fill="none" stroke="#fff"/>
<g transform="matrix(.40529,-.91419,.91419,.40529,-2060.7707,1622.092)">
<path d="m 216.194 2378.04 c -0.1828 3.4831 0.3353 7.034 1.6301 9.98 1.3211 -2.9629 1.8579 -6.5068 1.6719 -9.98 h -3.302 z" fill="#fff" stroke="#000"/>
<path d="m 221.388 2378.2 h -7.143 c 0 -3.7949 6.9894 -3.7722 7.143 0 z" fill="#fff" stroke="#000"/>
<path d="m 215.559 2382.02 4.2359 -2.3662" fill="none" stroke="#000"/>
<path d="m 215.559 2384.98 4.2359 -2.3662" fill="none" stroke="#000"/>
<path d="m 219.039 2375.69 -2.2062 1.2178 -0.1784 -1.4504"/>
</g>
</g>
</svg>
