<svg viewBox="0 0 512 512" xmlns="http://www.w3.org/2000/svg">

<g transform="matrix(18.68858,0,0,18.68858,-841.34936,-14782.10466)">
<path d="m51.8194,817.1916 14.914.1048c-3.6424-3.3245-3.4428-9.0472-.0275-12.7788 3.8196-4.1734 4.8522-12.2777-1.0844-12.2777-2.9168.5667-12.0413.6805-14.914-.1048 5.4079,2.338 3.2184,7.2946.0096,12.341-3.1683,4.9826-3.8646,12.7156 1.1023,12.7156z" fill="#fff" fill-rule="evenodd"/>
<path d="m54.5319,811.7597h13.3777c5.149,0 4.6488,6.0362 1.0045,6.0362h-14.0956" fill="#fff" fill-rule="evenodd" stroke="#000"/>
<path d="m61.9318,813.0807c.8582-3.2038.9473-6.6674-2.936-6.818-1.6223-.0629-3.0709,1.4234-2.9715,3.1044 .0756,1.2786 1.145,2.417 2.4721,2.3203 .9845-.0717 1.8611-.9045 1.7696-1.9299l.7384-2.7565" fill="none" stroke="#000" stroke-width="1.1512" transform="matrix(.22484,.83918,-.83888,.22479,720.11508,582.95548)"/>
<path d="m53.007,793.0458c-1.9607-.9669-4.1565-.9255-5.4212.9961-1.083,1.6456.0701,4.4702 2.6123,4.4702 2.38,0 1.4059-2.0768.2307-3.7197h4.7511" fill="none" stroke="#fff"/>
<path d="m50.2827,798.5486h4.773" fill="none" stroke="#fff"/>
<path d="m49.5725,804.2052 2.6743,2.7397-3.6576.6126" fill-rule="evenodd"/>
<path d="m66.9721,796.358 2.3208,1.381-2.0478.3695 3.0944,1.8714 .8646-4.3404-4.2321.7186z" fill-rule="evenodd"/>
<path d="m71.6446,811.5514-4.3044,2.1029 4.0075.4702" fill-rule="evenodd"/>
</g>
</svg>
