<svg viewBox="0 0 512 512" xmlns="http://www.w3.org/2000/svg">

<g transform="matrix(18.68858,0,0,18.68858,-841.34936,-14782.10466)">
<path d="m 51.8194 817.192 14.914 0.1048 c -3.6424 -3.3245 -3.4428 -9.0472 -0.0275 -12.7788 3.8196 -4.1734 4.8522 -12.2777 -1.0844 -12.2777 -2.9168 0.5667 -12.0413 0.6805 -14.914 -0.1048 5.4079 2.338 3.2184 7.2946 0.0096 12.341 -3.1683 4.9826 -3.8646 12.7156 1.1023 12.7156 z" fill="#fff" fill-rule="evenodd"/>
<path d="m 54.5319 811.76 h 13.3777 c 5.149 0 4.6488 6.0362 1.0045 6.0362 h -14.0956" fill="#fff" fill-rule="evenodd" stroke="#000"/>
<path d="m 61.9318 813.081 c 0.8582 -3.2038 0.9473 -6.6674 -2.936 -6.818 -1.6223 -0.0629 -3.0709 1.4234 -2.9715 3.1044 0.0756 1.2786 1.145 2.417 2.4721 2.3203 0.9845 -0.0717 1.8611 -0.9045 1.7696 -1.9299 l 0.7384 -2.7565" fill="none" stroke="#000" stroke-width="1.1512" transform="matrix(.22484,.83918,-.83888,.22479,720.11508,582.95548)"/>
<path d="m 53.007 793.046 c -1.9607 -0.9669 -4.1565 -0.9255 -5.4212 0.9961 -1.083 1.6456 0.0701 4.4702 2.6123 4.4702 2.38 0 1.4059 -2.0768 0.2307 -3.7197 h 4.7511" fill="none" stroke="#fff"/>
<path d="m 50.2827 798.549 h 4.773" fill="none" stroke="#fff"/>
<path d="m 49.5725 804.205 2.6743 2.7397 -3.6576 0.6126" fill-rule="evenodd"/>
<path d="m 66.9721 796.358 2.3208 1.381 -2.0478 0.3695 3.0944 1.8714 0.8646 -4.3404 -4.2321 0.7186 z" fill-rule="evenodd"/>
<path d="m 71.6446 811.551 -4.3044 2.1029 4.0075 0.4702" fill-rule="evenodd"/>
</g>
</svg>
