<svg viewBox="0 0 512 512" xmlns="http://www.w3.org/2000/svg">

<g transform="matrix(18.68858,0,0,18.68858,2603.71067,-2861.46179)">
<path d="m -134.473 156.23 c -0.1857 1.8235 0.1189 3.6876 0.7505 5.5788 4.0961 -4.6319 15.4659 -6.2977 20.4458 -1.8471 -2.8414 -7.1762 -12.2897 -6.0352 -21.1963 -3.7318 z" fill="#fff" fill-rule="evenodd"/>
<path d="m -135.808 156.4 c 0.8216 16.2328 12.0571 11.4445 18.2326 22.8433 l -2.6441 0.007 c -5.1261 -8.5779 -16.5917 -8.2869 -17.6077 -22.3378 l 2.0192 -0.5122 z" fill="#fff" fill-rule="evenodd"/>
<path d="m -134.339 166.08 c -0.8815 0.6208 -2.2813 1.1822 -3.935 1.6043 0.3031 0.353 0.7613 0.865 1.6324 0.9908 1.5653 -0.2729 2.4053 -1.0146 3.2666 -1.7569" fill="#fff" fill-rule="evenodd"/>
</g>
</svg>
