<svg viewBox="0 0 512 512" xmlns="http://www.w3.org/2000/svg">

<g transform="matrix(18.68858,0,0,18.68858,-9760.7919,-24501.83081)">
<path d="m 533.085 1316.54 10.8628 10.8256" fill="none" stroke="#fff"/>
<path d="m 536.749 1319.6 c -0.8793 -1.3495 -0.3458 -1.863 0.5179 -1.8534 l -3.3912 -0.9724 2.8733 2.8258 z" fill="#fff" fill-rule="evenodd"/>
<path d="m 532.257 1314.38 c -3.7342 -0.038 -7.6276 2.9256 -8.2862 6.4421 -0.6994 3.7343 0.7037 7.289 4.471 9.3294 1.5479 0.8386 3.6368 2.3661 3.7258 3.9941 0.0843 1.5421 -0.8803 2.5249 -2.0567 3.3305 h 7.5709 c 0.567 -1.3987 0.8371 -2.7164 0.6855 -3.9863 -0.3754 -3.1469 -3.2934 -5.8007 -6.5574 -7.1237 -1.6916 -0.6856 -3.607 -1.3571 -3.1893 -4.5008 0.421 -3.1686 3.8355 -4.2425 5.9315 -3.3681 l -0.3343 -3.7689 c -0.5941 -0.2341 -1.4273 -0.3429 -1.9607 -0.3483 z" fill="#fff" fill-rule="evenodd"/>
<path d="m 533.645 1314.55 13.6849 3.6667 1.2827 1.4701 -0.2836 1.0586 -15.2492 -4.086 0.5652 -2.1094 z" fill="#fff"/>
<path d="m 532.032 1320.39 c 0 0.6986 -0.5663 1.2649 -1.265 1.2649 s -1.265 -0.5663 -1.265 -1.2649 0.5663 -1.265 1.265 -1.265 1.265 0.5663 1.265 1.265 z" stroke="#fff" stroke-width=".7724" transform="matrix(1.25062,.3351,-.3351,1.25062,317.57793,-512.00002)"/>
<path d="m 538.022 1321.1 2.5106 -0.3248 -1.5928 1.445" fill="#fff" fill-rule="evenodd"/>
<path d="m 539.957 1322.68 2.5106 -0.3247 -1.5928 1.445" fill="#fff" fill-rule="evenodd"/>
<path d="m 541.626 1324.4 2.5106 -0.3248 -1.5928 1.445" fill="#fff" fill-rule="evenodd"/>
<path d="m 543.283 1326 2.5106 -0.3248 -1.5928 1.445" fill="#fff" fill-rule="evenodd"/>
<path d="m 540.093 1317.88 0.8866 2.3855 0.5398 -2.0936" fill="#fff" fill-rule="evenodd"/>
<path d="m 542.355 1318.83 0.8866 2.3856 0.5398 -2.0936" fill="#fff" fill-rule="evenodd"/>
<path d="m 544.757 1319.67 0.8867 2.3856 0.5397 -2.0936" fill="#fff" fill-rule="evenodd"/>
<path d="m 546.942 1320.25 0.8866 2.3856 0.5398 -2.0936" fill="#fff" fill-rule="evenodd"/>
<path d="m 538.486 1315.3 -4.4273 -3.3812 1.4456 4.5063" fill="#fff" fill-rule="evenodd"/>
<path d="m 535.835 1314.49 -5.1516 -2.1202 2.5626 3.9786" fill="#fff" fill-rule="evenodd"/>
<path d="m 534.097 1314.55 -5.5248 -0.7146 3.5051 3.1797" fill="#fff" fill-rule="evenodd"/>
</g>
</svg>
