<svg viewBox="0 0 512 512" xmlns="http://www.w3.org/2000/svg">

<g transform="matrix(18.68858,0,0,18.68858,-4320.0004,-43547.65563)">
<path d="m 244.589 2331.96 c 2.5973 -1.4159 5.5753 -0.4642 7.3129 1.9595 1.2105 1.9604 2.943 3.2943 5.5036 4.4016 l -1.1188 3.2458 -8.2291 -2.293 0.6011 -4.1936 c 0.327 -2.3181 -1.688 -3.2933 -4.0697 -3.1203 z" fill="#fff"/>
<path d="m 248.912 2333.83 0.0325 3.4316 c -4.1666 -1.0836 -6.6753 3.4855 1.6729 6.6701 11.0564 4.2178 -0.9803 17.1589 -11.139 11.2938 -9.1743 -5.2968 -10.333 -19.5237 -0.5571 -20.674 -4.9576 2.0756 -8.5747 11.7038 2.3675 16.3658 6.6185 2.8199 8.8997 -2.1041 5.5819 -4.0182 -12.4325 -7.1727 -4.9588 -14.2552 2.0413 -13.0691 z" fill="#fff"/>
<path d="m 234.232 2334.4 c 1.5071 0.8354 2.3711 2.465 3.0674 4.3017 1.0202 -2.6003 3.0169 -3.6718 5.0078 -4.7522 -2.793 -1.3152 -5.4589 -0.7903 -8.0752 0.4505 z" fill="#fff"/>
<path d="m 250.817 2336.12 c 0.9234 -1.5604 1.0549 -3.1208 0.9694 -4.6811 1.3062 1.5871 1.9452 3.1742 1.7992 4.7613" fill="#fff"/>
<path d="m 249.41 2334.8 c 1.2307 0.3889 2.3939 1.1177 3.3184 2.3606 -1.8048 0.8464 -3.6996 -0.2859 -3.3184 -2.3606 z"/>
<path d="m 248.26 2340.1 -0.2451 -4.0033" fill="none" stroke="#000"/>
</g>
</svg>
