<svg viewBox="0 0 512 512" xmlns="http://www.w3.org/2000/svg">

<g transform="matrix(18.68858,0,0,18.68858,-4320.0004,-43547.65563)">
<path d="m244.5891,2331.9624c2.5973-1.4159 5.5753-.4642 7.3129,1.9595 1.2105,1.9604 2.943,3.2943 5.5036,4.4016l-1.1188,3.2458-8.2291-2.293 .6011-4.1936c.327-2.3181-1.688-3.2933-4.0697-3.1203z" fill="#fff"/>
<path d="m248.9125,2333.8291 .0325,3.4316c-4.1666-1.0836-6.6753,3.4855 1.6729,6.6701 11.0564,4.2178-.9803,17.1589-11.139,11.2938-9.1743-5.2968-10.333-19.5237-.5571-20.674-4.9576,2.0756-8.5747,11.7038 2.3675,16.3658 6.6185,2.8199 8.8997-2.1041 5.5819-4.0182-12.4325-7.1727-4.9588-14.2552 2.0413-13.0691z" fill="#fff"/>
<path d="m234.2321,2334.3969c1.5071.8354 2.3711,2.465 3.0674,4.3017 1.0202-2.6003 3.0169-3.6718 5.0078-4.7522-2.793-1.3152-5.4589-.7903-8.0752.4505z" fill="#fff"/>
<path d="m250.8172,2336.1235c.9234-1.5604 1.0549-3.1208.9694-4.6811 1.3062,1.5871 1.9452,3.1742 1.7992,4.7613" fill="#fff"/>
<path d="m249.4101,2334.7993c1.2307.3889 2.3939,1.1177 3.3184,2.3606-1.8048.8464-3.6996-.2859-3.3184-2.3606z"/>
<path d="m248.2603,2340.0967-.2451-4.0033" fill="none" stroke="#000"/>
</g>
</svg>
