<svg viewBox="0 0 512 512" xmlns="http://www.w3.org/2000/svg">

<g transform="matrix(18.68858,0,0,18.68858,-2271.83327,-29934.69092)">
<path d="m126.8918,1621.0385c-2.6836.7292-4.4171,1.8093-4.4171,3.0074 0,2.1948 5.6999,3.9785 12.7188,3.9785s12.7188-1.7837 12.7188-3.9785c0-1.1938-1.7187-2.2783-4.3858-3.0074 .922.4751 1.4724,1.03 1.4724,1.629 0,1.7192-4.4043,3.1327-9.8053,3.1327s-9.774-1.4136-9.774-3.1327c0-.6022.541-1.1523 1.4724-1.629z" fill="#fff"/>
<path d="m126.983,1610.9521c5.0328,1.8859 10.0481-.5256 8.0208-3.7752s-6.5245-.1712-8.0208,3.7752z" fill="#fff"/>
<path d="m134.0479,1608.3023c-5.7396,5.7404-6.3166,14.43.001,14.4309s5.5901-8.5104-.001-14.4309z" fill="#fff"/>
<path d="m135.4175,1622.0596c6.1089,2.7282 8.1796-2.2649 6.2821-5.4134-1.9663-3.2628-2.0757-5.2803.4102-6.5286" fill="none" stroke="#fff"/>
<path d="m136.6962,1605.7948c1.2903,0 2.3365,1.0462 2.3365,2.3365s-1.0461,2.3364-2.3365,2.3365-5.8413-2.3365-5.8413-2.3365 4.5508-2.3365 5.8413-2.3365z" fill="#fff"/>
<path d="m132.4374,1604.1929c.6451-1.1174 2.0743-1.5003 3.1917-.8552s1.5004,2.0743.8552,3.1917-4.9441,3.8905-4.9441,3.8905 .2519-5.1094.8972-6.227z" fill="#fff"/>
</g>
</svg>
