<svg xmlns="http://www.w3.org/2000/svg" viewBox="0 0 512 512">
<g transform="matrix(15 0 0 15 -4304 -4364.0652)">
<use width="744.094" height="1052.362" transform="translate(324 288)"/>
<path fill="#fff" d="m296.1708,292.0087c-3.6715,1.7942-6.4726,4.7143-8.1615,8.1634l3.9945,1.9608c1.2659-2.5897 3.3657-4.7861 6.1218-6.1323zm15.6577,.001-1.9608,3.9945c2.5909,1.2657 4.7773,3.3688 6.1242,6.1251l2.0532-5.9534c-1.7949-3.6744-4.7181-6.4721-8.1714-8.1581zm-19.8285,21.865-4,1.9581c1.7952,3.6731 4.719,6.4719 8.1714,8.1581l1.9608-3.9945c-2.5897-1.266-4.786-3.3659-6.1322-6.1218zm23.9962-.007c-1.2656,2.591-3.3688,4.7774-6.1251,6.1242l1.9615,4.008c3.6744-1.795 6.4721-4.718 8.1581-8.1714z"/>
</g>
</svg>
