<svg viewBox="0 0 512 512" xmlns="http://www.w3.org/2000/svg">

<g transform="matrix(18.68858,0,0,18.68858,-6354.56279,-14997.06143)">
<path d="m 333.489 668.425 c 0 1.5987 -1.296 2.8947 -2.8947 2.8947 s -2.8947 -1.296 -2.8947 -2.8947 1.296 -2.8947 2.8947 -2.8947 2.8947 1.296 2.8947 2.8947 z" fill="none" stroke="#fff" stroke-width=".2361" transform="matrix(4.23541,0,0,4.23557,-1046.3707,-2014.8856)"/>
<path d="m 366.782 816.329 c -8.143 -7.2397 -17.4807 -7.4862 -25.9009 0 8.2321 7.319 17.8792 7.1319 25.9009 0 z" fill="#fff" fill-rule="evenodd" stroke="#000"/>
<path d="m 333.489 668.425 c 0 1.5987 -1.296 2.8947 -2.8947 2.8947 s -2.8947 -1.296 -2.8947 -2.8947 1.296 -2.8947 2.8947 -2.8947 2.8947 1.296 2.8947 2.8947 z" transform="matrix(1.09412,0,0,1.09416,-7.8782,84.91233)"/>
<path d="m 333.489 668.425 c 0 1.5987 -1.296 2.8947 -2.8947 2.8947 s -2.8947 -1.296 -2.8947 -2.8947 1.296 -2.8947 2.8947 -2.8947 2.8947 1.296 2.8947 2.8947 z" fill="none" stroke="#000" stroke-width=".476" transform="matrix(2.10061,0,0,2.10069,-340.61836,-587.87744)"/>
<path d="m 366.11 814.469 c -7.7203 -6.1087 -16.5733 -6.3166 -24.5565 0" fill="none" stroke="#fff"/>
<path d="m 366.041 818.252 c -7.6773 6.3135 -16.4811 6.5285 -24.4199 0" fill="none" stroke="#fff"/>
<path d="m 357.872 814.219 c 0 0.8289 -0.6719 1.5008 -1.5008 1.5008 s -1.5008 -0.6719 -1.5008 -1.5008 0.6719 -1.5008 1.5008 -1.5008 1.5008 0.672 1.5008 1.5008 z" fill="#fff" transform="translate(-.9005,.3752)"/>
</g>
</svg>
