<svg viewBox="0 0 512 512" xmlns="http://www.w3.org/2000/svg">

<g transform="matrix(18.68858,0,0,18.68858,-6354.56279,-14997.06143)">
<path d="m333.4893,668.4253c0,1.5987-1.296,2.8947-2.8947,2.8947s-2.8947-1.296-2.8947-2.8947 1.296-2.8947 2.8947-2.8947 2.8947,1.296 2.8947,2.8947z" fill="none" stroke="#fff" stroke-width=".2361" transform="matrix(4.23541,0,0,4.23557,-1046.3707,-2014.8856)"/>
<path d="m366.7818,816.3289c-8.143-7.2397-17.4807-7.4862-25.9009,0 8.2321,7.319 17.8792,7.1319 25.9009,0z" fill="#fff" fill-rule="evenodd" stroke="#000"/>
<path d="m333.4893,668.4253c0,1.5987-1.296,2.8947-2.8947,2.8947s-2.8947-1.296-2.8947-2.8947 1.296-2.8947 2.8947-2.8947 2.8947,1.296 2.8947,2.8947z" transform="matrix(1.09412,0,0,1.09416,-7.8782,84.91233)"/>
<path d="m333.4893,668.4253c0,1.5987-1.296,2.8947-2.8947,2.8947s-2.8947-1.296-2.8947-2.8947 1.296-2.8947 2.8947-2.8947 2.8947,1.296 2.8947,2.8947z" fill="none" stroke="#000" stroke-width=".476" transform="matrix(2.10061,0,0,2.10069,-340.61836,-587.87744)"/>
<path d="m366.1096,814.4694c-7.7203-6.1087-16.5733-6.3166-24.5565,0" fill="none" stroke="#fff"/>
<path d="m366.0413,818.2524c-7.6773,6.3135-16.4811,6.5285-24.4199,0" fill="none" stroke="#fff"/>
<path d="m357.8719,814.2187c0,.8289-.6719,1.5008-1.5008,1.5008s-1.5008-.6719-1.5008-1.5008 .6719-1.5008 1.5008-1.5008 1.5008.672 1.5008,1.5008z" fill="#fff" transform="translate(-.9005,.3752)"/>
</g>
</svg>
