<svg viewBox="0 0 512 512" xmlns="http://www.w3.org/2000/svg">

<g transform="matrix(18.68858,0,0,18.68858,-1590.65313,-27221.58701)">
<path d="m 91.6317 1479.58 c -1.5245 0 -2.8219 0.9997 -3.3723 2.4357 h 6.7446 c -0.5504 -1.436 -1.8478 -2.4357 -3.3723 -2.4357 z" fill="#fff"/>
<path d="m 90.5619 1481.41 7.5545 -9.9879" fill="none" stroke="#fff"/>
<path d="m 101.243 1479.58 c 1.5245 0 2.8219 0.9997 3.3723 2.4357 h -6.7446 c 0.5504 -1.436 1.8478 -2.4357 3.3723 -2.4357 z" fill="#fff"/>
<path d="m 102.312 1481.41 -7.5545 -9.9879" fill="none" stroke="#fff"/>
<path d="m 98.0065 1464.35 h 13.9624 v 3.7685 h -13.9624 z" fill="#fff" stroke="#000"/>
<path d="m 99.4977 1463.37 h 7.8031 v 5.7847 h -7.8031 z" fill="#fff" stroke="#000"/>
<path d="m 95.8731 1471.65 h 7.2732 l 3.1364 -3.1444 v -4.1421" fill="none" stroke="#fff"/>
<path d="m 99.3485 1473.38 c 0 1.3791 -1.1179 2.497 -2.497 2.497 s -2.497 -1.1179 -2.497 -2.497 1.1179 -2.4969 2.497 -2.4969 2.497 1.1179 2.497 2.4969 z" fill="#fff" transform="matrix(1.02945,0,0,1.02945,-3.14415,-43.64361)"/>
<path d="m 91.2007 1472.66 -5.5256 -5.5398 v -4.7665 h 13.9616 v 10.3063 z" fill="#fff" stroke="#000"/>
<path d="m 89.6439 1459.71 h 7.6382 v 5.1797 h -7.6382 z" fill="#fff" stroke="#000"/>
<path d="m 93.6475 1477.55 h 5.8778" fill="none" stroke="#fff"/>
</g>
</svg>
