<svg viewBox="0 0 512 512" xmlns="http://www.w3.org/2000/svg">

<g transform="matrix(18.68858,0,0,18.68858,-1590.65313,-27221.58701)">
<path d="m91.6317,1479.5804c-1.5245,0-2.8219.9997-3.3723,2.4357h6.7446c-.5504-1.436-1.8478-2.4357-3.3723-2.4357z" fill="#fff"/>
<path d="m90.5619,1481.4104 7.5545-9.9879" fill="none" stroke="#fff"/>
<path d="m101.2425,1479.5804c1.5245,0 2.8219.9997 3.3723,2.4357h-6.7446c.5504-1.436 1.8478-2.4357 3.3723-2.4357z" fill="#fff"/>
<path d="m102.3123,1481.4104-7.5545-9.9879" fill="none" stroke="#fff"/>
<path d="m98.0065,1464.3514h13.9624v3.7685h-13.9624z" fill="#fff" stroke="#000"/>
<path d="m99.4977,1463.3679h7.8031v5.7847h-7.8031z" fill="#fff" stroke="#000"/>
<path d="m95.8731,1471.6532h7.2732l3.1364-3.1444v-4.1421" fill="none" stroke="#fff"/>
<path d="m99.3485,1473.3779c0,1.3791-1.1179,2.497-2.497,2.497s-2.497-1.1179-2.497-2.497 1.1179-2.4969 2.497-2.4969 2.497,1.1179 2.497,2.4969z" fill="#fff" transform="matrix(1.02945,0,0,1.02945,-3.14415,-43.64361)"/>
<path d="m91.2007,1472.6639-5.5256-5.5398v-4.7665h13.9616v10.3063z" fill="#fff" stroke="#000"/>
<path d="m89.6439,1459.7092h7.6382v5.1797h-7.6382z" fill="#fff" stroke="#000"/>
<path d="m93.6475,1477.5543h5.8778" fill="none" stroke="#fff"/>
</g>
</svg>
