<svg viewBox="0 0 512 512" xmlns="http://www.w3.org/2000/svg">

<g transform="matrix(18.68858,0,0,18.68858,-12483.92952,-1383.01218)">
<path d="m677.1147,98.2008c20.43,9.452 25.738-23.934-7.8666-22.981 12.7114,1.3731 23.2103,23.7873 7.8666,22.981z" fill="#fff" fill-rule="evenodd"/>
<path d="m676.5155,76.4659c19.2353,3.9764 19.3107,22.8152 6.9109,22.1313 8.3196-.5313 7.4181-16.3672-6.9109-22.1313z" fill-rule="evenodd"/>
<path d="m679.0369,78.5213 6.1924.7218" fill="none" stroke="#fff"/>
<path d="m681.1353,79.5558 9.2137,3.9605" fill="none" stroke="#fff"/>
<path d="m683.3623,81.4702 9.0905,7.198" fill="none" stroke="#fff"/>
<path d="m685.5124,83.9495 6.9177,9.3055" fill="none" stroke="#fff"/>
<path d="m687.6917,88.2275 3.0149,7.9676" fill="none" stroke="#fff"/>
<path d="m688.2043,90.7464 .6424,7.4127" fill="none" stroke="#fff"/>
<path d="m687.7927,94.9282-1.4216,3.8435" fill="none" stroke="#fff"/>
</g>
</svg>
