<svg viewBox="0 0 512 512" xmlns="http://www.w3.org/2000/svg">

<g transform="matrix(18.68858,0,0,18.68858,-4994.18946,-18613.73635)">
<path d="m 293.627 999.94 c -8.1056 0 -9.2655 5.8428 -6.8676 9.9961 3.0556 5.2926 -0.113 12.4159 -10.7592 10.6829 -9.9751 -1.6237 -8.9427 -10.8354 0 -9.0804 2.6707 0.5242 4.5925 -0.133 5.7241 -1.4042" fill="none" stroke="#fff"/>
<path d="m 272.284 1002.84 c 7.5776 7.4842 13.7601 13.7849 18.7958 18.0983" fill="none" stroke="#000"/>
<path d="m 268.564 997.217 c 2.5099 -2.2952 5.8108 0.9176 8.0037 8.0037 -6.8134 -2.1013 -10.5137 -5.7085 -8.0037 -8.0037 z" fill="#fff" fill-rule="evenodd" stroke="#000"/>
<path d="m 272.287 999.674 c 9.8664 9.8663 18.4096 17.7237 21.4234 22.7726 -5.0561 -3.2166 -12.9164 -11.7296 -22.6914 -21.5046 l 1.268 -1.268 z" fill="#fff"/>
<path d="m 269.638 998.284 c 2.1749 0.5828 2.6276 1.0406 3.8852 3.8851 -2.7923 -1.2345 -3.2938 -1.6781 -3.8852 -3.8851 z" fill-rule="evenodd"/>
<path d="m 281.725 1010.13 c 1.9448 -2.1848 1.5557 -6.1833 -1.3769 -9.1159 -6.0382 -6.0382 -13.9182 -0.054 -9.1536 4.7107" fill="none" stroke="#fff"/>
<path d="m 271.881 1003.29 c -3.6468 -1.9874 -5.1641 -4.3876 -3.3165 -6.0771" fill="none" stroke="#000"/>
<path d="m 270.325 998.824 c 0.2813 0.7698 0.5472 1.59 1.612 1.8409" fill="none" stroke="#000"/>
<path d="m 271.393 1000.85 c 0.9174 -0.9573 2.0199 -1.3171 3.1286 -1.3322" fill="none" stroke="#000"/>
<path d="m 270.592 999.1 c 1.4377 -1.1779 3.1654 -1.6207 4.9027 -1.6393" fill="none" stroke="#000"/>
<path d="m 292.466 1019.74 c -4.0353 -4.7093 -9.9163 -10.3969 -16.7587 -17.3466" fill="none" stroke="#000"/>
</g>
</svg>
