<svg viewBox="0 0 512 512" xmlns="http://www.w3.org/2000/svg">

<g transform="matrix(18.68858,0,0,18.68858,-4994.18946,-18613.73635)">
<path d="m293.6272,999.9396c-8.1056,0-9.2655,5.8428-6.8676,9.9961 3.0556,5.2926-.113,12.4159-10.7592,10.6829-9.9751-1.6237-8.9427-10.8354 0-9.0804 2.6707.5242 4.5925-.133 5.7241-1.4042" fill="none" stroke="#fff"/>
<path d="m272.2845,1002.8392c7.5776,7.4842 13.7601,13.7849 18.7958,18.0983" fill="none" stroke="#000"/>
<path d="m268.5644,997.2168c2.5099-2.2952 5.8108.9176 8.0037,8.0037-6.8134-2.1013-10.5137-5.7085-8.0037-8.0037z" fill="#fff" fill-rule="evenodd" stroke="#000"/>
<path d="m272.2867,999.674c9.8664,9.8663 18.4096,17.7237 21.4234,22.7726-5.0561-3.2166-12.9164-11.7296-22.6914-21.5046l1.268-1.268z" fill="#fff"/>
<path d="m269.6377,998.2835c2.1749.5828 2.6276,1.0406 3.8852,3.8851-2.7923-1.2345-3.2938-1.6781-3.8852-3.8851z" fill-rule="evenodd"/>
<path d="m281.7246,1010.134c1.9448-2.1848 1.5557-6.1833-1.3769-9.1159-6.0382-6.0382-13.9182-.054-9.1536,4.7107" fill="none" stroke="#fff"/>
<path d="m271.8809,1003.2939c-3.6468-1.9874-5.1641-4.3876-3.3165-6.0771" fill="none" stroke="#000"/>
<path d="m270.3251,998.8236c.2813.7698.5472,1.59 1.612,1.8409" fill="none" stroke="#000"/>
<path d="m271.3934,1000.8537c.9174-.9573 2.0199-1.3171 3.1286-1.3322" fill="none" stroke="#000"/>
<path d="m270.5922,999.0996c1.4377-1.1779 3.1654-1.6207 4.9027-1.6393" fill="none" stroke="#000"/>
<path d="m292.4658,1019.7408c-4.0353-4.7093-9.9163-10.3969-16.7587-17.3466" fill="none" stroke="#000"/>
</g>
</svg>
