<svg viewBox="0 0 512 512" xmlns="http://www.w3.org/2000/svg">

<g transform="matrix(18.68858,0,0,18.68858,-4312.76792,-31322.92844)">
<path d="m244.573,1677.1284c-5.84,3.71-10.0668,13.9353-10.0668,25.8855h20.082c0-11.9502-4.1752-22.1755-10.0152-25.8855z" fill="#fff"/>
<path d="m253.1012,1703.1616h-17.1079c0-9.6214 3.8297-17.4211 8.554-17.4211s8.554,7.7997 8.554,17.4211z"/>
<path d="m253.4696,1703.1616h-17.8447c0-6.0082 3.9947-10.8787 8.9223-10.8787s8.9223,4.8705 8.9223,10.8787z" fill="#fff"/>
<path d="m-646.6511,1221.9545h3.1494v3.1494h-3.1494z" fill="#fff" transform="matrix(.42276,-.90624,.42276,.90624,0,0)"/>
<g transform="translate(-.3969)">
<path d="m238.5959,1689.6043 1.6408,1.3718-.538-3.0127" fill="#fff"/>
<path d="m251.2924,1689.6043-1.6408,1.3718 .538-3.0127" fill="#fff"/>
</g>
<g transform="translate(-.409)">
<path d="m248.9444,1687.3678-1.2299,1.7497-.2601-3.0493" fill="#fff"/>
<path d="m240.9681,1687.2537 1.2299,1.7497 .2601-3.0493" fill="#fff"/>
</g>
<g transform="translate(-.3162)">
<path d="m239.1339,1695.4414-.2769-2.4706 1.8101,1.1795" fill="#fff"/>
<path d="m250.593,1695.4414 .2769-2.4706-1.8101,1.1795" fill="#fff"/>
</g>
<g transform="translate(-.3835)">
<path d="m241.281,1693.7396 .2122-2.6098 1.603,1.7595" fill="#fff"/>
<path d="m248.5804,1693.632-.2122-2.6098-1.603,1.7595" fill="#fff"/>
</g>
<path d="m1213.6571-674.8184h2.9498v2.9498h-2.9498z" fill="#fff" transform="matrix(.45137,.89234,.45137,-.89234,0,0)"/>
<path d="m231.9936,1703.0001h25.1072" fill="none" stroke="#000"/>
</g>
</svg>
