<svg viewBox="0 0 512 512" xmlns="http://www.w3.org/2000/svg">

<g transform="matrix(18.68858,0,0,18.68858,-4312.76792,-31322.92844)">
<path d="m 244.573 1677.13 c -5.84 3.71 -10.0668 13.9353 -10.0668 25.8855 h 20.082 c 0 -11.9502 -4.1752 -22.1755 -10.0152 -25.8855 z" fill="#fff"/>
<path d="m 253.101 1703.16 h -17.1079 c 0 -9.6214 3.8297 -17.4211 8.554 -17.4211 s 8.554 7.7997 8.554 17.4211 z"/>
<path d="m 253.47 1703.16 h -17.8447 c 0 -6.0082 3.9947 -10.8787 8.9223 -10.8787 s 8.9223 4.8705 8.9223 10.8787 z" fill="#fff"/>
<path d="m -646.651 1221.95 h 3.1494 v 3.1494 h -3.1494 z" fill="#fff" transform="matrix(.42276,-.90624,.42276,.90624,0,0)"/>
<g transform="translate(-.3969)">
<path d="m 238.596 1689.6 1.6408 1.3718 -0.538 -3.0127" fill="#fff"/>
<path d="m 251.292 1689.6 -1.6408 1.3718 0.538 -3.0127" fill="#fff"/>
</g>
<g transform="translate(-.409)">
<path d="m 248.944 1687.37 -1.2299 1.7497 -0.2601 -3.0493" fill="#fff"/>
<path d="m 240.968 1687.25 1.2299 1.7497 0.2601 -3.0493" fill="#fff"/>
</g>
<g transform="translate(-.3162)">
<path d="m 239.134 1695.44 -0.2769 -2.4706 1.8101 1.1795" fill="#fff"/>
<path d="m 250.593 1695.44 0.2769 -2.4706 -1.8101 1.1795" fill="#fff"/>
</g>
<g transform="translate(-.3835)">
<path d="m 241.281 1693.74 0.2122 -2.6098 1.603 1.7595" fill="#fff"/>
<path d="m 248.58 1693.63 -0.2122 -2.6098 -1.603 1.7595" fill="#fff"/>
</g>
<path d="m 1213.66 -674.818 h 2.9498 v 2.9498 h -2.9498 z" fill="#fff" transform="matrix(.45137,.89234,.45137,-.89234,0,0)"/>
<path d="m 231.994 1703 h 25.1072" fill="none" stroke="#000"/>
</g>
</svg>
