<svg viewBox="0 0 512 512" xmlns="http://www.w3.org/2000/svg">

<g transform="matrix(18.68858,0,0,-18.68858,-7718.03198,26376.75803)">
<path d="m 415.366 1384.68 -1.6563 1.6564 5.7467 5.7466 1.6562 -1.6564 z" fill="#fff" stroke="#000"/>
<g transform="matrix(.70711,-.70711,.70711,.70711,-861.57122,716.58178)">
<path d="m 427.438 1389.86 v -4.6875 l -2.4083 4.9614 z" fill="#fff"/>
<path d="m 431.256 1385.5 -0.0002 19.854 -1.9795 5.4205 -1.9797 -5.4204 -3e-05 -19.8543 z" fill="#fff"/>
<path d="m 430.904 1395.42 v -4.6875 l 2.4083 4.9614 z" fill="#fff"/>
<path d="m 430.904 1405.49 v -4.6875 l 2.4083 4.9614 z" fill="#fff"/>
<path d="m 427.438 1399.92 v -4.6875 l -2.4083 4.9614 z" fill="#fff"/>
</g>
<path d="m 414.812 1394.49 7e-05 3.1379 3.1157 -0.022 -1e-05 -1.5026 7.1152 -7.1153 h 1.5026 l 0.0221 -3.1157 h -3.1378 l 0.0221 1.5689 -7.0711 7.0711 -1.5689 -0.022 z" fill="#fff" stroke="#000"/>
<path d="m 421.39 1392.58 14.0663 14.0663" fill="none" stroke="#000"/>
</g>
</svg>
