<svg viewBox="0 0 512 512" xmlns="http://www.w3.org/2000/svg">

<g transform="matrix(18.68858,0,0,-18.68858,-7718.03198,26376.75803)">
<path d="m415.3664,1384.6756-1.6563,1.6564 5.7467,5.7466 1.6562-1.6564z" fill="#fff" stroke="#000"/>
<g transform="matrix(.70711,-.70711,.70711,.70711,-861.57122,716.58178)">
<path d="m427.4375,1389.8622v-4.6875l-2.4083,4.9614z" fill="#fff"/>
<path d="m431.2563,1385.5023-.0002,19.854-1.9795,5.4205-1.9797-5.4204-3e-05-19.8543z" fill="#fff"/>
<path d="m430.9042,1395.4247v-4.6875l2.4083,4.9614z" fill="#fff"/>
<path d="m430.9042,1405.4872v-4.6875l2.4083,4.9614z" fill="#fff"/>
<path d="m427.4375,1399.9247v-4.6875l-2.4083,4.9614z" fill="#fff"/>
</g>
<path d="m414.8125,1394.488 7e-05,3.1379 3.1157-.022-1e-05-1.5026 7.1152-7.1153h1.5026l.0221-3.1157h-3.1378l.0221,1.5689-7.0711,7.0711-1.5689-.022z" fill="#fff" stroke="#000"/>
<path d="m421.3898,1392.5799 14.0663,14.0663" fill="none" stroke="#000"/>
</g>
</svg>
