<svg viewBox="0 0 512 512" xmlns="http://www.w3.org/2000/svg">

<g transform="matrix(18.68858,0,0,18.68858,3882.39029,-14269.155)">
<path d="m-194.1778,775.3913c-6.9081,0-12.5147,2.9392-12.5147,6.5646 0,.316.047.6337.1293.9378 .8623-3.1232 6.0793-5.5298 12.3854-5.5298s11.5231,2.4066 12.3854,5.5298c.0823-.3041.1293-.6218.1293-.9378 0-3.6254-5.6066-6.5646-12.5147-6.5646z" fill="#fff"/>
<path d="m-194.2425,764.5-2.8781,9.5396-2.3283-7.1143-2.7164,9.766-1.7786-4.689-2.005,8.0844 4.0099-2.8134-.0647-.1617 4.3333-1.1965-.1617.5174h7.179l-.194-.6468 4.495,1.2288-.097.2587 4.0099,2.8134-2.0049-8.0844-1.5522,4.1069-2.587-9.1839-2.5547,7.8581-3.1044-10.2834z" fill="#fff"/>
<path d="m208.9375,773.9872c0,.7594-.6156,1.375-1.375,1.375s-1.375-.6156-1.375-1.375 .6156-1.375 1.375-1.375 1.375.6156 1.375,1.375z" transform="matrix(.7619,0,0,1.09091,-357.55458,-68.92496)"/>
<path d="m208.9375,773.9872c0,.7594-.6156,1.375-1.375,1.375s-1.375-.6156-1.375-1.375 .6156-1.375 1.375-1.375 1.375.6156 1.375,1.375z" transform="matrix(.7619,0,0,1.09091,-346.74208,-68.92496)"/>
<path d="m208.9375,773.9872c0,.7594-.6156,1.375-1.375,1.375s-1.375-.6156-1.375-1.375 .6156-1.375 1.375-1.375 1.375.6156 1.375,1.375z" transform="matrix(.58009,0,0,.83058,-324.25344,134.63005)"/>
<path d="m208.9375,773.9872c0,.7594-.6156,1.375-1.375,1.375s-1.375-.6156-1.375-1.375 .6156-1.375 1.375-1.375 1.375.6156 1.375,1.375z" transform="matrix(.58009,0,0,.83058,-304.94094,134.63005)"/>
<path d="m-203.5879,785.8832c2.6075,3.3515 5.2149,2.684 7.8224,1.58-2.5563-2.1525-5.1486-3.1597-7.8224-1.58z" fill="#fff" fill-rule="evenodd"/>
<path d="m-184.4518,785.8832c-2.6075,3.3515-5.2149,2.684-7.8224,1.58 2.5563-2.1525 5.1486-3.1597 7.8224-1.58z" fill="#fff" fill-rule="evenodd"/>
<path d="m208.9375,773.9872c0,.7594-.6156,1.375-1.375,1.375s-1.375-.6156-1.375-1.375 .6156-1.375 1.375-1.375 1.375.6156 1.375,1.375z" transform="matrix(1,0,0,1.43182,-401.84922,-333.75297)"/>
</g>
</svg>
