<svg viewBox="0 0 512 512" xmlns="http://www.w3.org/2000/svg">

<g transform="matrix(18.68858,0,0,18.68858,1984.88101,-1586.99197)">
<path d="m-102.1712,94.9812c4.9268,4.417 14.6702,4.1448 20.1828-.3125 3.3314-2.6936 1.8245,9.4941.2483,12.625-2.7184,5.3997-18.3696,4.6751-20.9953.0625-2.0741-3.6434-2.3909-15.0243.5642-12.375z" fill="#fff"/>
<path d="m-104.5563,106.0437c.7621-3.8481 2.3799-7.7059 5.0625-10.8125-1.3266,4.875-2.3809,9.5625-1,14.625 .744-4.753 2.0201-9.2087 4.625-13-.8131,4.9792-1.0356,10.8958 1,15.25 .2793-4.5266 1.1133-9.7705 2.4609-14.1811 1.6314,4.6559 2.2332,9.4833 2.8947,14.3008 1.0786-5.2672 1.303-10.392 1.3944-15.4947 2.0399,4.7463 2.6942,9.873 3.125,14.9375 2.0332-5.4167 1.8956-10.9583.5625-16.375 2.8882,2.7139 3.8727,6.9945 4.3125,11.3125" fill="none" stroke="#000"/>
<path d="m-97.9557,90.1858c-.9498-2.0066-2.2213-3.7656-5.3125-4.125-.4988,2.8881 1.3113,4.2369 5.3125,4.125z" fill="#fff" fill-rule="evenodd"/>
<path d="m-86.9784,90.0974c.9498-2.0066 2.2213-3.7656 5.3125-4.125 .4988,2.8881-1.3113,4.2369-5.3125,4.125z" fill="#fff" fill-rule="evenodd"/>
</g>
</svg>
