<svg viewBox="0 0 512 512" xmlns="http://www.w3.org/2000/svg">

<g transform="matrix(18.68858,0,0,18.68858,-12490.09065,-41513.91203)">
<path d="m 676.212 2247.6 c 3.675 -2.9934 8.6961 -2.9935 12.3709 0 z" fill="#fff"/>
<path d="m 688.105 2223.14 c 0.6909 1.9605 1.1112 4.1308 1.1112 6.1533 0 5.5731 -3.0436 7.8427 -6.8018 7.8427 s -6.8355 -2.2696 -6.8355 -7.8427 c 0 -2.0225 0.4203 -4.1928 1.1112 -6.1533 h 11.415 z" fill="#fff" stroke="#fff"/>
<path d="m 683.984 2237.12 c -1.1108 2.7757 -1.0701 5.8908 0.0934 8.6497 h -3.3605 c 1.1635 -2.7589 1.2042 -5.874 0.0934 -8.6497 h 3.1738 z" fill="#fff"/>
<path d="m 691.013 2226.02 -5.9601 2.0425 0.6934 0.9538 -3.8213 -0.082 2.7909 6.4002 -4.5127 -6.6241 2.4213 -2.4866 -1.0095 -3.8711 8.2386 -0.4471 z"/>
<path d="m 681.302 2230.06 -3.5069 4.776 4.3084 -3.5069"/>
<path d="m 679.863 2222 -2.2613 5.563 3.2938 0.9881" fill="none" stroke="#000"/>
<path d="m 691.427 2222.36 1.3269 2.3659 -5.7998 1.1522 z" fill="#fff"/>
<path d="m 688.593 2221.78 -4.8108 5.5224 1.2969 -5.5224 z" fill="#fff"/>
<path d="m 691.158 2221.91 h -9.0058" fill="none" stroke="#000"/>
<path d="m 684.415 2228.11 6.0168 5.0851" fill="none" stroke="#000"/>
</g>
</svg>
