<svg viewBox="0 0 512 512" xmlns="http://www.w3.org/2000/svg">

<g transform="matrix(18.68858,0,0,18.68858,-2740.90401,-4743.95998)">
<path d="m 172.092 274.271 -3.8405 -0.571 -4.1792 -4.0593 5.605 1.5897 2.4147 3.0405 z" fill="#fff"/>
<path d="m 164.137 254.643 0.6264 3.171 -2.813 5.1253 0.0587 -5.8634 2.1279 -2.4329 z" fill="#fff"/>
<path d="m 155.737 280.694 2.3448 -2.4329 0.2208 -4.7518 -2.9093 4.0137 0.3437 3.171 z" fill="#fff"/>
<path d="m 169.963 258.199 -3.5618 1.5455 -2.9862 5.0027 5.0025 -2.9863 1.5455 -3.5619 z" fill="#fff"/>
<path d="m 158.334 269.85 -2.6862 4.7593 -5.185 3.112 3.112 -5.1852 4.7592 -2.6862 z" fill="#fff"/>
<path d="m 173.149 263.474 -2.4329 2.3015 -4.7516 0.1361 4.0136 -2.8378 3.1709 0.4003 z" fill="#fff"/>
<path d="m 148.571 270.903 3.1709 0.6264 4.0136 -2.5516 -4.7516 -0.2028 -2.4329 2.128 z" fill="#fff"/>
<path d="m 172.978 267.841 -5.2312 -0.7847 -3.1387 1.1116 5.035 0.8501 3.3349 -1.177 z" fill="#fff" fill-rule="evenodd"/>
<path d="m 160.667 272.175 0.7847 5.2313 -1.1116 3.1388 -0.8501 -5.0351 1.177 -3.335 z" fill="#fff" fill-rule="evenodd"/>
<path d="m 157.918 265.25 -5.6273 -4.1594 -1.8962 -3.9759 5.505 3.9147 2.0185 4.2206 z" fill="#fff" fill-rule="evenodd"/>
<path d="m 157.601 255.329 2.3119 3.1195 0.0849 5.8255 -2.8392 -5.0875 0.4424 -3.8575 z" fill="#fff"/>
<path d="m 157.581 267.175 -5.074 0.0495 -4.9096 -2.7247 5.6142 0.0952 4.3695 2.58 z" fill="#fff"/>
<path d="m 162.373 269.99 3.4361 3.8265 1.3362 5.8139 -3.9265 -4.0668 -0.8457 -5.5736 z" fill="#fff"/>
<path d="m 156.856 268.379 2.7542 -0.9928 -0.7046 -2.7222 1.9215 1.6013 0.6405 -2.0496 0.9928 1.7614 2.466 -0.6405 -2.3058 2.2098 0.6405 1.4411 -1.9215 -0.4163 0.0179 2.4914 -0.8541 -1.0905 -1.5977 1.9298 0.6405 -3.1065 -2.6901 -0.4163 z" fill="#fff" fill-rule="evenodd"/>
</g>
</svg>
