<svg viewBox="0 0 512 512" xmlns="http://www.w3.org/2000/svg">

<g transform="matrix(18.68858,0,0,18.68858,-12490.09065,-41513.91203)">
<path d="m676.2119,2247.5998c3.675-2.9934 8.6961-2.9935 12.3709,0z" fill="#fff"/>
<path d="m688.1048,2223.143c.6909,1.9605 1.1112,4.1308 1.1112,6.1533 0,5.5731-3.0436,7.8427-6.8018,7.8427s-6.8355-2.2696-6.8355-7.8427c0-2.0225.4203-4.1928 1.1112-6.1533h11.415z" fill="#fff" stroke="#fff"/>
<path d="m683.9842,2237.1164c-1.1108,2.7757-1.0701,5.8908.0934,8.6497h-3.3605c1.1635-2.7589 1.2042-5.874.0934-8.6497h3.1738z" fill="#fff"/>
<path d="m691.0134,2226.0198-5.9601,2.0425 .6934.9538-3.8213-.082 2.7909,6.4002-4.5127-6.6241 2.4213-2.4866-1.0095-3.8711 8.2386-.4471z"/>
<path d="m681.3016,2230.0643-3.5069,4.776 4.3084-3.5069"/>
<path d="m679.863,2222.0035-2.2613,5.563 3.2938.9881" fill="none" stroke="#000"/>
<path d="m691.4265,2222.3593 1.3269,2.3659-5.7998,1.1522z" fill="#fff"/>
<path d="m688.5932,2221.7812-4.8108,5.5224 1.2969-5.5224z" fill="#fff"/>
<path d="m691.1579,2221.9078h-9.0058" fill="none" stroke="#000"/>
<path d="m684.4151,2228.1092 6.0168,5.0851" fill="none" stroke="#000"/>
</g>
</svg>
