<svg viewBox="0 0 512 512" xmlns="http://www.w3.org/2000/svg">

<g transform="matrix(18.68858,0,0,18.68858,-2740.90401,-4743.95998)">
<path d="m172.0917,274.2713-3.8405-.571-4.1792-4.0593 5.605,1.5897 2.4147,3.0405z" fill="#fff"/>
<path d="m164.1368,254.643 .6264,3.171-2.813,5.1253 .0587-5.8634 2.1279-2.4329z" fill="#fff"/>
<path d="m155.7367,280.6943 2.3448-2.4329 .2208-4.7518-2.9093,4.0137 .3437,3.171z" fill="#fff"/>
<path d="m169.9634,258.1986-3.5618,1.5455-2.9862,5.0027 5.0025-2.9863 1.5455-3.5619z" fill="#fff"/>
<path d="m158.3345,269.8496-2.6862,4.7593-5.185,3.112 3.112-5.1852 4.7592-2.6862z" fill="#fff"/>
<path d="m173.149,263.4739-2.4329,2.3015-4.7516.1361 4.0136-2.8378 3.1709.4003z" fill="#fff"/>
<path d="m148.5713,270.9027 3.1709.6264 4.0136-2.5516-4.7516-.2028-2.4329,2.128z" fill="#fff"/>
<path d="m172.9783,267.8407-5.2312-.7847-3.1387,1.1116 5.035.8501 3.3349-1.177z" fill="#fff" fill-rule="evenodd"/>
<path d="m160.6667,272.1748 .7847,5.2313-1.1116,3.1388-.8501-5.0351 1.177-3.335z" fill="#fff" fill-rule="evenodd"/>
<path d="m157.9184,265.2497-5.6273-4.1594-1.8962-3.9759 5.505,3.9147 2.0185,4.2206z" fill="#fff" fill-rule="evenodd"/>
<path d="m157.6013,255.3286 2.3119,3.1195 .0849,5.8255-2.8392-5.0875 .4424-3.8575z" fill="#fff"/>
<path d="m157.5808,267.1748-5.074.0495-4.9096-2.7247 5.6142.0952 4.3695,2.58z" fill="#fff"/>
<path d="m162.3731,269.9903 3.4361,3.8265 1.3362,5.8139-3.9265-4.0668-.8457-5.5736z" fill="#fff"/>
<path d="m156.8555,268.3794 2.7542-.9928-.7046-2.7222 1.9215,1.6013 .6405-2.0496 .9928,1.7614 2.466-.6405-2.3058,2.2098 .6405,1.4411-1.9215-.4163 .0179,2.4914-.8541-1.0905-1.5977,1.9298 .6405-3.1065-2.6901-.4163z" fill="#fff" fill-rule="evenodd"/>
</g>
</svg>
