<svg viewBox="0 0 512 512" xmlns="http://www.w3.org/2000/svg">

<g transform="matrix(18.68858,0,0,18.68858,-229.1682,-6148.75251)">
<path d="m 25.8377 338.656 c -1.1815 1.168 -2.7377 2.7052 -4.25 4.1875 l 4.0625 4.0937 c 1.4867 -1.5455 2.9522 -3.1133 4.375 -4.6563 v -1.875 l -2.5 0.5009 -1.6876 -2.2501 z" fill="#fff" fill-rule="evenodd"/>
<path d="m 18.2482 353.799 -3.5717 -3.5757 -1.7109 1.7119 c 0.3676 1.7231 1.8042 3.1088 3.5718 3.5757 l 1.7109 -1.7119 z" fill="#fff" stroke="#000"/>
<path d="m 17.5672 353.421 c -1.2247 -0.1682 -2.2532 -1.2465 -2.4132 -2.4159 2.7878 -1.8203 5.2028 -4.1324 7.1111 -7.1189 0.5638 0.9251 1.4764 1.6764 2.4132 2.4157 -2.9562 1.6988 -5.1052 4.2795 -7.1111 7.119 z" fill="#fff" stroke="#000"/>
<g transform="matrix(-.58652,-.5871,-.58652,.5871,658.61356,231.59779)">
<path d="m 445.075 627.23 -1e-05 12.9027" fill="#fff" fill-rule="evenodd" stroke="#000" stroke-width="1.205"/>
</g>
<path d="m 27.3207 352.017 c -2.7111 -4.3511 -6.3568 -7.9002 -10.7637 -10.7757 l 2.718 -2.7209 c 2.9071 4.3232 6.548 7.9292 10.7637 10.7755 l -2.718 2.7211 z" fill="#fff" stroke="#000"/>
<g transform="matrix(-.66163,-.66236,-.66163,.66236,740.60904,218.34759)">
<path d="m 439.997 641.953 c -1.8052 0 -3.2704 -1.8116 -3.2704 -4.0438 s 1.4651 -4.0438 3.2704 -4.0438" fill="#fff" stroke="#000" stroke-width="1.0681"/>
<path d="m 452.195 641.953 c 1.8052 0 3.2704 -1.8116 3.2704 -4.0438 s -1.4651 -4.0438 -3.2704 -4.0438" fill="#fff" stroke="#000" stroke-width="1.0681"/>
</g>
<g transform="matrix(-.66163,-.66236,-.66163,.66236,740.60904,218.34759)">
<path d="m 455.399 639.131 c -0.8294 0 -1.5026 -0.5476 -1.5026 -1.2224 s 0.6732 -1.2224 1.5026 -1.2224" stroke="#000" stroke-width="1.0681"/>
<path d="m 436.882 639.131 c 0.8294 0 1.5026 -0.5476 1.5026 -1.2224 s -0.6732 -1.2224 -1.5026 -1.2224" stroke="#000" stroke-width="1.0681"/>
</g>
<path d="m 26.4087 335.872 4.7027 -2.6915 0.547 3.984 -4.4231 0.9027 z" fill="#fff" fill-rule="evenodd"/>
<path d="m 34.5541 334.519 -1.764 3.6088 1.3293 3.7822 2.9063 -7.1803 z" fill="#fff" fill-rule="evenodd"/>
<path d="m 32.5274 334.087 4.0639 -4.1109 -3.6872 0.6036 -0.3768 3.5082 z" fill="#fff" fill-rule="evenodd"/>
<path d="m 38.8147 329.911 -2.5938 2.3654 2.5938 0.2448 v -2.6106 z" fill="#fff" fill-rule="evenodd"/>
</g>
</svg>
