<svg viewBox="0 0 512 512" xmlns="http://www.w3.org/2000/svg">

<g transform="matrix(18.68858,0,0,18.68858,6413.79311,-3502.21332)">
<path d="m-341.4402,189.1329h12.5222c0,6.4714-.8391,13.0393-6.2646,14.1968-4.9285-1.3553-6.2575-7.7431-6.2575-14.1968z" fill-rule="evenodd" stroke="#fff"/>
<path d="m-335.8612,193.7966h12.5221c0,6.4715-.8391,13.0393-6.2646,14.1968-4.9286-1.3553-6.2575-7.7431-6.2575-14.1968z" fill-rule="evenodd" stroke="#fff"/>
<path d="m-330.8872,197.9953h14.011c0,7.2366-.9388,14.581-7.0095,15.8754-5.5145-1.5156-7.0015-8.6587-7.0015-15.8754z" fill="#fff" fill-rule="evenodd"/>
<path d="m-329.0529,199.5607h10.4049c0,5.7473-.7742,11.5802-5.1741,12.6081-3.9968-1.2037-5.2308-6.8766-5.2308-12.6081z" fill="none" stroke="#000"/>
</g>
</svg>
