<svg viewBox="0 0 512 512" xmlns="http://www.w3.org/2000/svg">

<g transform="matrix(18.68858,0,0,18.68858,1980.72462,-8599.32433)">
<path d="m-92.3492,464.0355v14.8125" fill="none" stroke="#000"/>
<path d="m-79.164,465.0932c-4.6274-1.4987-11.1991-1.649-14.3938,1.0093 0,7.4464 1.023,14.6371 7.201,16.8656 5.6652-1.9567 7.1928-10.4489 7.1928-17.8749z" fill="#fff" fill-rule="evenodd" stroke="#000"/>
<path d="m-105.443,460.6734-.0312,2.2812 13.5938,7.875-3.5,1.1875 3.7188,1.25-6.7188,6.6875-1.1875-1.1875-3.5312,7.8438 8.4062-2.9688-1.125-1.2188 7.1875-7.1875 .875,3.0312 1.6562-4.9375 4.4906-1.3125-4.5218-1.2188-1.625-5.6562-1.0625,3.625-13.9375-8.0625-2.6875-.0312z" fill="#fff" stroke="#000"/>
</g>
</svg>
