<svg viewBox="0 0 512 512" xmlns="http://www.w3.org/2000/svg">

<g transform="matrix(18.68858,0,0,18.68858,-2955.6961,-43547.85396)">
<path d="m181.4117,2342.4871-3.1303-1.822 2e-05-3.6442 3.1303-1.822 1.9959,1.1395c-1.0261,6.6954-4.8091,13.3639-11.3393,19.4864-6.5911-6.1366-10.4546-12.7859-11.448-19.4926l1.9906-1.1333 3.1303,1.822v3.6442l-3.1303,1.822" stroke="#fff"/>
<path d="m170.1238,2353.8329 1e-05-1.5531 1.9425-1.1434 1.9425,1.1434v1.3972" fill="none" stroke="#fff"/>
<path d="m174.7526,2352.7093-2.6781-1.5511 2e-05-3.102 2.6781-1.5512 2.6781,1.5512-1e-05,1.7853" fill="none" stroke="#fff"/>
<path d="m162.6772,2342.5657 3.1303-1.8221 3.1303,1.8221v3.6442l-3.1303,1.822" fill="none" stroke="#fff"/>
<path d="m175.2074,2346.2099-3.1303,1.822-3.1303-1.8221 2e-05-3.6441 3.1303-1.8221 3.1303,1.8221z" fill="none" stroke="#fff"/>
<path d="m178.3128,2348.0319-3.1303-1.8221 2e-05-3.6441 3.1303-1.8221 3.1303,1.8221" fill="none" stroke="#fff"/>
<path d="m172.0107,2340.6651-3.1303,1.822-3.1303-1.822 2e-05-3.6442 3.1303-1.822 3.1303,1.822z" fill="none" stroke="#fff"/>
<path d="m178.2463,2340.6651-3.1303,1.822-3.1303-1.822 2e-05-3.6442 3.1303-1.822 3.1303,1.822z" fill="none" stroke="#fff"/>
<path d="m168.8781,2332.691-1e-05,2.5082-3.1303,1.8219-3.1303-1.822 .0445-3.1545c6.2133.9892 12.1853,1.2374 18.6817.1873l.0393,2.9673-3.1303,1.8219-3.1303-1.822 3e-05-2.6952" fill="none" stroke="#fff"/>
<path d="m175.1149,2332.691-1e-05,2.5082-3.1303,1.8219-3.1303-1.822 3e-05-2.6016" fill="none" stroke="#fff"/>
<path d="m169.3889,2352.7092 2.6781-1.551-2e-05-3.102-2.6781-1.5511-2.6781,1.5511 3e-05,1.7853" fill="none" stroke="#fff"/>
</g>
</svg>
