<svg viewBox="0 0 512 512" xmlns="http://www.w3.org/2000/svg">

<g transform="matrix(18.68858,0,0,18.68858,-2955.6961,-43547.85396)">
<path d="m 181.412 2342.49 -3.1303 -1.822 2e-05 -3.6442 3.1303 -1.822 1.9959 1.1395 c -1.0261 6.6954 -4.8091 13.3639 -11.3393 19.4864 -6.5911 -6.1366 -10.4546 -12.7859 -11.448 -19.4926 l 1.9906 -1.1333 3.1303 1.822 v 3.6442 l -3.1303 1.822" stroke="#fff"/>
<path d="m 170.124 2353.83 1e-05 -1.5531 1.9425 -1.1434 1.9425 1.1434 v 1.3972" fill="none" stroke="#fff"/>
<path d="m 174.753 2352.71 -2.6781 -1.5511 2e-05 -3.102 2.6781 -1.5512 2.6781 1.5512 -1e-05 1.7853" fill="none" stroke="#fff"/>
<path d="m 162.677 2342.57 3.1303 -1.8221 3.1303 1.8221 v 3.6442 l -3.1303 1.822" fill="none" stroke="#fff"/>
<path d="m 175.207 2346.21 -3.1303 1.822 -3.1303 -1.8221 2e-05 -3.6441 3.1303 -1.8221 3.1303 1.8221 z" fill="none" stroke="#fff"/>
<path d="m 178.313 2348.03 -3.1303 -1.8221 2e-05 -3.6441 3.1303 -1.8221 3.1303 1.8221" fill="none" stroke="#fff"/>
<path d="m 172.011 2340.67 -3.1303 1.822 -3.1303 -1.822 2e-05 -3.6442 3.1303 -1.822 3.1303 1.822 z" fill="none" stroke="#fff"/>
<path d="m 178.246 2340.67 -3.1303 1.822 -3.1303 -1.822 2e-05 -3.6442 3.1303 -1.822 3.1303 1.822 z" fill="none" stroke="#fff"/>
<path d="m 168.878 2332.69 -1e-05 2.5082 -3.1303 1.8219 -3.1303 -1.822 0.0445 -3.1545 c 6.2133 0.9892 12.1853 1.2374 18.6817 0.1873 l 0.0393 2.9673 -3.1303 1.8219 -3.1303 -1.822 3e-05 -2.6952" fill="none" stroke="#fff"/>
<path d="m 175.115 2332.69 -1e-05 2.5082 -3.1303 1.8219 -3.1303 -1.822 3e-05 -2.6016" fill="none" stroke="#fff"/>
<path d="m 169.389 2352.71 2.6781 -1.551 -2e-05 -3.102 -2.6781 -1.5511 -2.6781 1.5511 3e-05 1.7853" fill="none" stroke="#fff"/>
</g>
</svg>
