<svg viewBox="0 0 512 512" xmlns="http://www.w3.org/2000/svg">

<g transform="matrix(18.68858,0,0,18.68858,-235.11281,-38781.64724)">
<path d="m35.4562,2084.4473 2.3254.098-.5978,1.9817-3.1784.2854 2.7734.754-1.1061,2.1442-3.2625.091 2.6359.8817-1.5462,2.0652-2.8316-.9742 1.9606,1.9607-1.8314,1.8313-1.7876-1.7876 .8529,2.6069-2.0394,1.5204-.9423-2.7482-.1077,3.4524-2.0926,1.0545 .0937-2.3507-1.1073,2.7301-2.0592.6752 .7954-2.5854-1.98,3.175c4.3174,1.2043 9.6819-.3224 13.6927-4.333 3.9453-3.9452 5.5179-9.2082 4.4269-13.4896zm-3.7559-7.8304c-4.2883-1.1113-9.5708.4566-13.528,4.4138s-5.5006,9.2526-4.3718,13.544l3.3151-1.9377-2.7444.8445 .6753-2.0594 2.6096-1.0892-2.2304.076 1.0835-2.064 3.4522-.1075-2.7482-.9424 1.5204-2.0395 2.6647.9105-1.8453-1.8452 1.8313-1.8313 1.903,1.9028-.9167-2.7738 2.0653-1.5463 .8817,2.6359 .0909-3.2625 2.1152-1.135 .5747,2.5738 .4647-2.9788 1.9818-.5977 .1379,2.3518z" fill="#fff"/>
<path d="m427.7921,1638.6007c0,1.0763-.8725,1.9489-1.9489,1.9489s-1.9489-.8726-1.9489-1.9489 .8726-1.9489 1.9489-1.9489 1.9489.8726 1.9489,1.9489z" fill="#fff" stroke="#000" stroke-width="1.1686" transform="matrix(.20417,.87973,.87981,.20415,-1510.3674,1387.6736)"/>
<g transform="matrix(.70711,.70711,-.70711,.70711,1074.5479,181.70869)">
<path d="m609.2317,2095.888-3.8567-.0001 .0181-15.5514 1.9103-4.2749 1.9465,4.2751z" fill="#fff"/>
<path d="m607.3125,2095.6002v-15.2376" fill="none" stroke="#000"/>
<path d="m603.5346,2094.446c7e-05,1.0325.4237,1.9728 1.0959,2.6532 .6817-.6817 1.6413-1.0959 2.682-1.0959s1.9952.4142 2.682,1.0959c.6776-.6804 1.0957-1.6205 1.0959-2.6532h-7.5558z" fill="#fff"/>
</g>
<path d="m427.7921,1638.6007c0,1.0763-.8725,1.9489-1.9489,1.9489s-1.9489-.8726-1.9489-1.9489 .8726-1.9489 1.9489-1.9489 1.9489.8726 1.9489,1.9489z" fill="#fff" transform="matrix(-1.01333,.57967,-.57968,1.01341,1401.6512,187.34844)"/>
<path d="m26.7827,2094.478c0,.7684-.6229,1.3913-1.3913,1.3913s-1.3913-.6229-1.3913-1.3913 .6229-1.3913 1.3913-1.3913 1.3913.6229 1.3913,1.3913z" transform="translate(.0803,-.9632)"/>
<path d="m26.7827,2094.478c0,.7684-.6229,1.3913-1.3913,1.3913s-1.3913-.6229-1.3913-1.3913 .6229-1.3913 1.3913-1.3913 1.3913.6229 1.3913,1.3913z" transform="translate(-3.7726,-4.709)"/>
</g>
</svg>
