<svg viewBox="0 0 512 512" xmlns="http://www.w3.org/2000/svg">

<g transform="matrix(18.68858,0,0,18.68858,-9077.42953,-34037.41031)">
<path d="m 499.75 1822.78 -3.1562 5.1563 -5.8438 -1.4063 1.375 5.8438 -5.0938 3.1562 5.0938 3.125 -1.375 5.8438 5.8438 -1.4062 3.1562 5.1562 3.1562 -5.1562 5.8438 1.4062 -1.375 -5.8438 5.0938 -3.125 -5.0938 -3.1562 1.375 -5.8438 -5.8438 1.4063 z" fill="#fff"/>
<path d="m 493.706 1822.27 5.8562 7.6294 4.6573 -6.3789 -0.415 8.1675 8.3002 -1.9106 -6.7708 5.4215 5.8946 4.5883 -8.0696 -1.1162 1.0606 7.7893 -4.8187 -5.0863 -5.6948 6.3383 1.0682 -8.8799 -6.7631 0.9548 5.8332 -4.5883 -7.1474 -5.0052 8.7228 0.8487 z" fill="#fff"/>
<path d="m 508.763 1835.33 c 0 4.6221 -3.747 8.3691 -8.3691 8.3691 s -8.3691 -3.747 -8.3691 -8.3691 3.747 -8.3691 8.3691 -8.3691 8.3691 3.747 8.3691 8.3691 z" stroke="#fff" stroke-width=".9874" transform="matrix(1.08636,0,0,1.08636,-43.74843,-158.23918)"/>
<g transform="matrix(1.22561,0,0,1.22561,200.54626,-57.36809)">
<path d="m 240.363 1546.5 c 0.8942 -5.1319 6.9402 -5.1351 7.7977 0 0.9435 5.6503 -8.822 5.8783 -7.7977 0 z" fill="#fff" stroke="#000" stroke-width=".8159"/>
<path d="m 240.491 1539.59 2.0174 3.6282 c 0.8349 0.5727 2.4481 0.7568 3.5979 0.1079 l 2.0174 -3.7361 c -0.9203 -0.2893 -1.8168 -1.0532 -2.8041 0 -0.7592 -0.7483 -1.5185 -0.6146 -2.2778 0 -0.8996 -0.8139 -1.8011 -0.6356 -2.5508 0 z" fill="#fff" stroke="#000" stroke-width=".8159"/>
</g>
</g>
</svg>
