<svg viewBox="0 0 512 512" xmlns="http://www.w3.org/2000/svg">

<g transform="matrix(18.68858,0,0,18.68858,-4993.86839,-3424.4341)">
<path d="m275.5525,188.9124c-4.1207.1433-7.6002,3.7451-7.534,8.7836 .0756,5.7583 4.2562,11.2513 9.2648,12.257 1.2818.2574 3.0962.2728 3.955-.55 .8428.6933 2.7057.7589 3.9805.4784 4.981-1.0958 8.5852-6.6553 8.5096-12.4136s-4.1796-9.5423-9.1607-8.4464c-1.2705.2795-2.4801.8415-3.5697,1.6314-1.1102-.77-2.3342-1.3101-3.6117-1.5666-.6261-.1257-1.2451-.1943-1.8338-.1738z" fill="#fff" stroke="#000"/>
<path d="m281.6031,193.4178c.1058-2.8973.9482-5.2279 2.5683-7.8084-.5887-1.5614-2.6228-1.8518-3.681-1.8217-.839,3.5039-1.0681,6.2129-.8708,9.63" fill="#fff" fill-rule="evenodd" stroke="#000"/>
<path d="m276.3489,191.9022c.7797,1.4462 2.9716,2.3782 5.3415,1.8906 1.8876-.3884 3.4338-1.6215 3.4511-2.7736-.4846.8029-1.4639,1.4504-2.7997,1.7252-2.4817.5107-5.2321-.4497-6.1597-2.1457-.1114.4231-.0669.8702.1667,1.3035z"/>
<path d="m288.8447,191.5324c2.8729,1.7378 4.0319,6.1658 1.9844,10.7352-1.6309,3.6395-4.9863,6.4875-7.5367,6.3534 5.9307-3.5554 8.4404-10.8799 5.5523-17.0886z"/>
</g>
</svg>
