<svg viewBox="0 0 512 512" xmlns="http://www.w3.org/2000/svg">

<g transform="matrix(18.68858,0,0,18.68858,-9077.42953,-34037.41031)">
<path d="m499.75,1822.7812-3.1562,5.1563-5.8438-1.4063 1.375,5.8438-5.0938,3.1562 5.0938,3.125-1.375,5.8438 5.8438-1.4062 3.1562,5.1562 3.1562-5.1562 5.8438,1.4062-1.375-5.8438 5.0938-3.125-5.0938-3.1562 1.375-5.8438-5.8438,1.4063z" fill="#fff"/>
<path d="m493.7063,1822.2741 5.8562,7.6294 4.6573-6.3789-.415,8.1675 8.3002-1.9106-6.7708,5.4215 5.8946,4.5883-8.0696-1.1162 1.0606,7.7893-4.8187-5.0863-5.6948,6.3383 1.0682-8.8799-6.7631.9548 5.8332-4.5883-7.1474-5.0052 8.7228.8487z" fill="#fff"/>
<path d="m508.7632,1835.3264c0,4.6221-3.747,8.3691-8.3691,8.3691s-8.3691-3.747-8.3691-8.3691 3.747-8.3691 8.3691-8.3691 8.3691,3.747 8.3691,8.3691z" stroke="#fff" stroke-width=".9874" transform="matrix(1.08636,0,0,1.08636,-43.74843,-158.23918)"/>
<g transform="matrix(1.22561,0,0,1.22561,200.54626,-57.36809)">
<path d="m240.3631,1546.4961c.8942-5.1319 6.9402-5.1351 7.7977,0 .9435,5.6503-8.822,5.8783-7.7977,0z" fill="#fff" stroke="#000" stroke-width=".8159"/>
<path d="m240.4911,1539.5854 2.0174,3.6282c.8349.5727 2.4481.7568 3.5979.1079l2.0174-3.7361c-.9203-.2893-1.8168-1.0532-2.8041,0-.7592-.7483-1.5185-.6146-2.2778,0-.8996-.8139-1.8011-.6356-2.5508,0z" fill="#fff" stroke="#000" stroke-width=".8159"/>
</g>
</g>
</svg>
