<svg viewBox="0 0 512 512" xmlns="http://www.w3.org/2000/svg">

<g transform="matrix(18.68858,0,0,18.68858,-2271.76957,-23822.72145)">
<path d="m 146.03 1298.99 c -1.3741 -8.9873 -6.5757 -15.3957 -16.323 -11.9057 -6.6123 2.3677 -9.9699 -8.851 -1.7684 -10.1091 11.7646 -1.8046 23.3996 9.152 18.0913 22.0148 z" fill="#fff"/>
<path d="m 145.921 1298.08 -2.7071 -7.7499 -3.7183 -3.5315 -2.9202 -1.5925 4.1487 0.1557 -5.9535 -2.995 5.4702 0.2691 -2.9265 -2.6323 5.5435 2.2216 3.4347 4.4954 1.0085 5.3081 -0.2654 3.9281 -1.1147 2.1232 z" fill-rule="evenodd"/>
<path d="m 146.03 1298.99 c -1.3741 -8.9873 -6.5757 -15.3957 -16.323 -11.9057 -6.6123 2.3677 -9.9699 -8.851 -1.7684 -10.1091 11.7646 -1.8046 23.3996 9.152 18.0913 22.0148 z" fill="none" stroke="#fff"/>
<path d="m 144.33 1289.57 c -1.8078 -4.4664 0.6137 -6.1587 2.1198 -0.7323 1.0985 3.9581 -0.6056 4.4781 -2.1198 0.7323 z" fill="#fff" fill-rule="evenodd"/>
<path d="m 141.564 1283.7 c 0.4773 1.7615 3.408 1.8981 2.2171 -0.1241 -0.8687 -1.475 -2.6192 -1.3529 -2.2171 0.1241 z" fill="#fff" fill-rule="evenodd"/>
</g>
</svg>
