<svg viewBox="0 0 512 512" xmlns="http://www.w3.org/2000/svg">

<g transform="matrix(18.68858,0,0,18.68858,-4314.2716,-21128.78291)">
<path d="m248.103,1156.6363c-1.805-4.6394-4.9204-4.6233-6.7638-.114 .759-4.9386-1.8135-6.251-5.6882-3.2229 3.1313-3.9038 1.4906-6.5816-3.3977-5.8849 4.7144-1.8348 4.559-4.7633-.1734-6.5982 5.0761.8163 6.4847-1.9347 3.2836-5.9148 3.8491,3.1284 6.4765,1.7351 5.9901-2.8842 1.8091,4.2241 4.7775,4.0646 6.598-.1732-.638,4.7298 1.9142,6.0767 5.6882,3.223-2.8737,3.7203-1.3627,6.3082 3.1716,5.8239-4.2256,1.8092-4.1481,4.6341.0904,6.4548-4.73-.6382-5.9939,2.0574-3.14,5.8319-3.9464-3.1655-6.4358-1.5574-5.6587,3.4586z" fill="#fff" fill-rule="evenodd"/>
<path d="m248.6267,1150.9552c-1.8038-2.4591-3.6448-1.9556-4.0206,1.0052-.334-3.043-2.0643-3.4117-3.8771-1.0054 1.234-2.8066-.1615-4.1311-2.9438-2.9437 2.4989-1.8333 1.9426-3.5417-1.1489-3.8771 3.1333-.3219 3.5307-2.1731 1.0053-4.0207 2.7738,1.2409 4.1077-.0002 3.0874-2.6567 1.7404,2.2128 3.4717,1.6477 3.877-1.1487 .3724,2.9001 2.0963,3.2925 3.8771,1.0054-1.1106,2.6572.1939,3.949 2.8003,2.9435-2.2137,1.7406-1.72,3.4 1.0769,3.8053-2.9003.3724-3.2207,2.1679-.9334,3.949-2.8372-1.2474-4.0555.099-2.8002,2.9439z" fill-rule="evenodd"/>
<path d="m575.9785,1067.7268c0,2.4732-2.0049,4.4781-4.4781,4.4781s-4.4781-2.0049-4.4781-4.4781 2.0049-4.4781 4.4781-4.4781 4.4781,2.0049 4.4781,4.4781z" fill="#fff" stroke="#000" stroke-width=".9115" transform="matrix(-.54948,.94858,-.95172,-.54766,1574.8077,1186.6873)"/>
<path d="m578.2948,1065.2368c0,1.0767-.8728,1.9495-1.9495,1.9495s-1.9495-.8728-1.9495-1.9495 .8728-1.9495 1.9495-1.9495 1.9495.8728 1.9495,1.9495z" transform="matrix(1.99274,0,0,1.99274,-903.052,-979.33878)"/>
<path d="m578.2948,1065.2368c0,1.0767-.8728,1.9495-1.9495,1.9495s-1.9495-.8728-1.9495-1.9495 .8728-1.9495 1.9495-1.9495 1.9495.8728 1.9495,1.9495z" fill="#fff" transform="matrix(1.20561,0,0,1.20561,-448.90017,-141.43785)"/>
</g>
</svg>
