<svg viewBox="0 0 512 512" xmlns="http://www.w3.org/2000/svg">

<g transform="matrix(18.68858,0,0,18.68858,-11804.1078,-23821.01144)">
<path d="m 632.114 1275.2 h 26.375 v 26.375 h -26.375 z" fill="#fff" stroke="#000"/>
<path d="m 632.4 1275.5 v 0.1825 l 11.7131 11.7132 -11.7131 -7.8798 v 5.5371 l 11.4089 3.0728 -11.4089 -0.791 v 4.594 l 11.348 -3.012 -11.348 5.5371 v 6.7541 h 0.1825 l 11.6218 -11.5914 -7.758 11.5914 h 5.5067 l 3.0424 -11.348 -0.791 11.348 h 4.594 l -3.0119 -11.4089 5.5675 11.4089 h 6.7541 v -0.1521 l -11.7131 -11.7131 11.7131 7.8797 v -5.5371 l -11.3785 -3.0728 11.3785 0.791 v -4.5939 l -11.4393 3.0423 11.4393 -5.6284 v -6.7236 h -0.1825 l -11.7131 11.7131 7.8797 -11.7131 h -5.5371 l -3.0424 11.2263 0.7606 -11.2263 h -4.594 l 3.0728 11.5002 -5.6284 -11.5002 h -6.7236 z"/>
<path d="m 635.014 1284.95 c -0.1695 5.3983 6.896 6.7652 9.0822 12.1545 2.0697 -5.3885 8.9469 -7.0803 9.109 -12.1545 0.1728 -5.4096 -6.5608 -6.4479 -9.109 -2.0578 -2.5527 -4.7926 -8.9232 -3.0073 -9.0822 2.0578 z" stroke="#fff"/>
<path d="m 648.474 1281.88 c -0.631 0 -1.2319 0.184 -1.7247 0.504 1.1176 -0.1316 2.3932 0.5868 3.1575 1.9105 0.6651 1.1519 0.7506 2.4351 0.3184 3.3432 0.8372 -0.5657 1.3797 -1.541 1.3797 -2.6268 0 -1.7373 -1.3937 -3.1309 -3.131 -3.1309 z" fill="#fff"/>
</g>
</svg>
