<svg xmlns="http://www.w3.org/2000/svg" viewBox="0 0 512 512">
<g transform="matrix(14.99999 0 0 14.99999 16 -4489.4306)">
<use width="744.094" height="1052.362" transform="translate(36 296.36218)"/>
</g>
<g fill="#fff" transform="matrix(6.66666 0 0 6.66666 -2310.66602 -2916.41378)">
<path d="m367,444.3622 0,45c0,4.5 0,4.5 4.5,4.5h27c4.5,0 4.5,0 4.5-4.5v-45c0-4.5 0-4.5-4.5-4.5h-27c-4.5,0-4.5,0-4.5,4.5zm9,4.5 18,0 0,31.5-18,0z"/>
<path d="m369,500.612h32a2,2 0 0,1 2,2v7.25a2,2 0 0,1 -2,2h-32a2,2 0 0,1 -2-2v-7.25a2,2 0 0,1 2-2"/>
</g>
</svg>
