<svg xmlns="http://www.w3.org/2000/svg" viewBox="0 0 512 512">
<g transform="matrix(14.99999 0 0 14.99999 16 -4489.4306)">
<use width="744.094" height="1052.362" transform="translate(36 296.36218)"/>
</g>
<g fill="#fff" transform="matrix(6.66666 0 0 6.66666 -2310.66602 -2916.41378)">
<path d="m 367 444.362 0 45 c 0 4.5 0 4.5 4.5 4.5 h 27 c 4.5 0 4.5 0 4.5 -4.5 v -45 c 0 -4.5 0 -4.5 -4.5 -4.5 h -27 c -4.5 0 -4.5 0 -4.5 4.5 z m 9 4.5 18 0 0 31.5 -18 0 z"/>
<path d="m 369 500.612 h 32 a 2 2 0 0 1 2 2 v 7.25 a 2 2 0 0 1 -2 2 h -32 a 2 2 0 0 1 -2 -2 v -7.25 a 2 2 0 0 1 2 -2"/>
</g>
</svg>
