<svg viewBox="0 0 512 512" xmlns="http://www.w3.org/2000/svg">

<g transform="matrix(18.68858,0,0,18.68858,-6355.50898,-6359.39897)">
<path d="m 695.188 438.862 c 0 6.4548 -3.5398 11.6875 -7.9062 11.6875 s -7.9062 -5.2327 -7.9062 -11.6875 3.5398 -11.6875 7.9062 -11.6875 7.9062 5.2327 7.9062 11.6875 z" fill="#fff" stroke="#000" stroke-width="1.0438" transform="matrix(.88594,0,0,.89038,-255.07352,-38.7042)"/>
<g transform="translate(-.0183)">
<path d="m 353.038 351.035 c -0.9912 -1.2612 -2.55 -1.5562 -4.098 -0.6773" fill="none" stroke="#000"/>
<path d="m 354.63 351.064 c 0.9912 -1.2611 2.55 -1.5562 4.098 -0.6773" fill="none" stroke="#000"/>
</g>
<path d="m 382.469 644.687 c 0 2.2577 -1.8302 4.088 -4.088 4.088 s -4.088 -1.8302 -4.088 -4.088 1.8302 -4.088 4.088 -4.088 4.088 1.8302 4.088 4.088 z" transform="translate(-24.5653,-287.6297)"/>
<path d="m 364.111 347.104 c 0.7566 2.7398 0.7947 5.9688 -0.0795 9.2315 -1.2973 4.8418 -4.2808 8.5919 -7.7161 10.3234 4.5069 -0.97 8.3163 -4.353 9.5907 -9.1094 0.9989 -3.7278 0.2308 -7.4925 -1.7952 -10.4456 z" fill="#fff"/>
<path d="m 343.52 347.104 c -0.7566 2.7398 -0.7947 5.9688 0.0795 9.2315 1.2973 4.8418 4.2808 8.5919 7.7161 10.3234 -4.5069 -0.97 -8.3163 -4.353 -9.5907 -9.1094 -0.9989 -3.7278 -0.2308 -7.4925 1.7952 -10.4456 z" fill="#fff"/>
<path d="m 361.216 349.26 c 0.5513 1.9963 0.5791 4.3489 -0.0579 6.7262 -0.9453 3.5278 -3.1191 6.2602 -5.6221 7.5218 3.2838 -0.7068 6.0594 -3.1717 6.988 -6.6372 0.7278 -2.7161 0.1682 -5.4592 -1.308 -7.6108 z" fill="#fff"/>
<path d="m 346.416 349.26 c -0.5513 1.9963 -0.5791 4.3489 0.0579 6.7262 0.9453 3.5278 3.1191 6.2602 5.6221 7.5218 -3.2838 -0.7068 -6.0594 -3.1717 -6.988 -6.6372 -0.7278 -2.7161 -0.1682 -5.4592 1.308 -7.6108 z" fill="#fff"/>
</g>
</svg>
