<svg viewBox="0 0 512 512" xmlns="http://www.w3.org/2000/svg">

<path d="m 200.66 573.46 -5.9727 -1.7494 -5.9728 1.7494 1.7494 -5.9728 -1.7494 -5.9727 5.9728 1.7494 5.9727 -1.7494 -1.7494 5.9727 z" fill="#fff" stroke="#fff" stroke-width=".6229" transform="matrix(-28.98211,-7.76573,-7.76573,28.98211,10300.97296,-14680.055)"/>
<path d="m 260.615 578.918 h 14.2627 v 2.9906 h -14.2627 z" fill="#fff" transform="matrix(-16.18479,9.34429,9.34429,16.18479,-838.56416,-11640.73342)"/>
<path d="m 573.282 -269.242 h 14.2627 v 2.9906 h -14.2627 z" fill="#fff" transform="matrix(9.34429,16.18479,16.18479,-9.34429,-838.56416,-11640.73342)"/>
<g stroke="#000" transform="matrix(18.68858,0,0,18.68858,-841.71655,-11642.93344)">
<path d="m 52.1324 625.615 12.7352 22.058" fill="none" stroke="#000"/>
<path d="m 69.529 630.276 -22.058 12.7352" fill="none" stroke="#000"/>
</g>
<path d="m 200.66 573.46 -5.9727 -1.7494 -5.9728 1.7494 1.7494 -5.9728 -1.7494 -5.9727 5.9728 1.7494 5.9727 -1.7494 -1.7494 5.9727 z" fill="none" stroke="#fff" stroke-width=".6229" transform="matrix(-28.98211,-7.76573,-7.76573,28.98211,10300.97296,-14680.055)"/>
<path d="m 436.234 782.439 c 0 1.1268 -0.9135 2.0403 -2.0403 2.0403 s -2.0403 -0.9135 -2.0403 -2.0403 0.9135 -2.0403 2.0403 -2.0403 2.0403 0.9135 2.0403 2.0403 z" stroke="#000" transform="matrix(18.68858,0,0,18.68858,-7733.19959,-14324.29815)"/>
<path d="m 436.234 782.439 c 0 1.1268 -0.9135 2.0403 -2.0403 2.0403 s -2.0403 -0.9135 -2.0403 -2.0403 0.9135 -2.0403 2.0403 -2.0403 2.0403 0.9135 2.0403 2.0403 z" stroke="#000" transform="matrix(18.68858,0,0,18.68858,-7827.2287,-14499.73985)"/>
<path d="m 436.234 782.439 c 0 1.1268 -0.9135 2.0403 -2.0403 2.0403 s -2.0403 -0.9135 -2.0403 -2.0403 0.9135 -2.0403 2.0403 -2.0403 2.0403 0.9135 2.0403 2.0403 z" stroke="#000" transform="matrix(18.68858,0,0,18.68858,-7996.0603,-14403.29604)"/>
<path d="m 436.234 782.439 c 0 1.1268 -0.9135 2.0403 -2.0403 2.0403 s -2.0403 -0.9135 -2.0403 -2.0403 0.9135 -2.0403 2.0403 -2.0403 2.0403 0.9135 2.0403 2.0403 z" stroke="#000" transform="matrix(18.68858,0,0,18.68858,-7902.33303,-14235.31817)"/>
<path d="m 194.5 570.534 c 0 1.0787 -0.8744 1.9531 -1.9531 1.9531 s -1.9531 -0.8744 -1.9531 -1.9531 0.8744 -1.9531 1.9531 -1.9531 1.9531 0.8744 1.9531 1.9531 z" stroke="#fff" stroke-width=".5763" transform="matrix(-34.37255,19.845,19.845,34.37255,-4452.35408,-23176.77012)"/>
</svg>
