<svg viewBox="0 0 512 512" xmlns="http://www.w3.org/2000/svg">

<path d="m200.6603,573.4599-5.9727-1.7494-5.9728,1.7494 1.7494-5.9728-1.7494-5.9727 5.9728,1.7494 5.9727-1.7494-1.7494,5.9727z" fill="#fff" stroke="#fff" stroke-width=".6229" transform="matrix(-28.98211,-7.76573,-7.76573,28.98211,10300.97296,-14680.055)"/>
<path d="m260.615,578.9177h14.2627v2.9906h-14.2627z" fill="#fff" transform="matrix(-16.18479,9.34429,9.34429,16.18479,-838.56416,-11640.73342)"/>
<path d="m573.2818-269.2416h14.2627v2.9906h-14.2627z" fill="#fff" transform="matrix(9.34429,16.18479,16.18479,-9.34429,-838.56416,-11640.73342)"/>
<g stroke="#000" transform="matrix(18.68858,0,0,18.68858,-841.71655,-11642.93344)">
<path d="m52.1324,625.6145 12.7352,22.058" fill="none" stroke="#000"/>
<path d="m69.529,630.2759-22.058,12.7352" fill="none" stroke="#000"/>
</g>
<path d="m200.6603,573.4599-5.9727-1.7494-5.9728,1.7494 1.7494-5.9728-1.7494-5.9727 5.9728,1.7494 5.9727-1.7494-1.7494,5.9727z" fill="none" stroke="#fff" stroke-width=".6229" transform="matrix(-28.98211,-7.76573,-7.76573,28.98211,10300.97296,-14680.055)"/>
<path d="m436.234,782.4386c0,1.1268-.9135,2.0403-2.0403,2.0403s-2.0403-.9135-2.0403-2.0403 .9135-2.0403 2.0403-2.0403 2.0403.9135 2.0403,2.0403z" stroke="#000" transform="matrix(18.68858,0,0,18.68858,-7733.19959,-14324.29815)"/>
<path d="m436.234,782.4386c0,1.1268-.9135,2.0403-2.0403,2.0403s-2.0403-.9135-2.0403-2.0403 .9135-2.0403 2.0403-2.0403 2.0403.9135 2.0403,2.0403z" stroke="#000" transform="matrix(18.68858,0,0,18.68858,-7827.2287,-14499.73985)"/>
<path d="m436.234,782.4386c0,1.1268-.9135,2.0403-2.0403,2.0403s-2.0403-.9135-2.0403-2.0403 .9135-2.0403 2.0403-2.0403 2.0403.9135 2.0403,2.0403z" stroke="#000" transform="matrix(18.68858,0,0,18.68858,-7996.0603,-14403.29604)"/>
<path d="m436.234,782.4386c0,1.1268-.9135,2.0403-2.0403,2.0403s-2.0403-.9135-2.0403-2.0403 .9135-2.0403 2.0403-2.0403 2.0403.9135 2.0403,2.0403z" stroke="#000" transform="matrix(18.68858,0,0,18.68858,-7902.33303,-14235.31817)"/>
<path d="m194.5,570.5341c0,1.0787-.8744,1.9531-1.9531,1.9531s-1.9531-.8744-1.9531-1.9531 .8744-1.9531 1.9531-1.9531 1.9531.8744 1.9531,1.9531z" stroke="#fff" stroke-width=".5763" transform="matrix(-34.37255,19.845,19.845,34.37255,-4452.35408,-23176.77012)"/>
</svg>
