<svg viewBox="0 0 512 512" xmlns="http://www.w3.org/2000/svg">

<g transform="matrix(18.68858,0,0,18.68858,-227.16852,-6828.53465)">
<path d="m 18.2008 380.742 2.421 -9.0353 c 1.117 -4.1686 5.4112 -6.6441 9.5854 -5.5256 s 6.63 5.504 5.5384 9.5781 l -2.421 9.0353" fill="#fff" stroke="#000"/>
<path d="m 21.2366 380.842 2.2015 -8.216 c 0.6971 -2.6015 3.3703 -4.1481 5.9671 -3.4523 s 4.1227 3.4309 3.4415 5.9733 l -2.2015 8.216" stroke="#000"/>
<path d="m 114.914 357.381 h 18.2341 v 12.9585 h -18.2341 z" fill="#fff" stroke="#000" transform="rotate(15)"/>
<path d="m 70.5804 719.818 c 0 0.5178 -0.6596 0.9375 -1.4732 0.9375 s -1.4732 -0.4197 -1.4732 -0.9375 0.6596 -0.9375 1.4732 -0.9375 1.4732 0.4197 1.4732 0.9375 z" stroke="#fff" stroke-width=".5074" transform="matrix(1.83946,.49288,-.25111,2.0442,76.77553,-1118.9831)"/>
<path d="m 24.9247 387.098 0.9298 -7.5693 3.7226 2.1613 -0.4528 1.7345 -3.215 -2.1437" fill-rule="evenodd" stroke="#000"/>
</g>
</svg>
