<svg viewBox="0 0 512 512" xmlns="http://www.w3.org/2000/svg">

<g transform="matrix(18.68858,0,0,18.68858,-227.16852,-6828.53465)">
<path d="m18.2008,380.7417 2.421-9.0353c1.117-4.1686 5.4112-6.6441 9.5854-5.5256s6.63,5.504 5.5384,9.5781l-2.421,9.0353" fill="#fff" stroke="#000"/>
<path d="m21.2366,380.8422 2.2015-8.216c.6971-2.6015 3.3703-4.1481 5.9671-3.4523s4.1227,3.4309 3.4415,5.9733l-2.2015,8.216" stroke="#000"/>
<path d="m114.9143,357.3809h18.2341v12.9585h-18.2341z" fill="#fff" stroke="#000" transform="rotate(15)"/>
<path d="m70.5804,719.8176c0,.5178-.6596.9375-1.4732.9375s-1.4732-.4197-1.4732-.9375 .6596-.9375 1.4732-.9375 1.4732.4197 1.4732.9375z" stroke="#fff" stroke-width=".5074" transform="matrix(1.83946,.49288,-.25111,2.0442,76.77553,-1118.9831)"/>
<path d="m24.9247,387.0981 .9298-7.5693 3.7226,2.1613-.4528,1.7345-3.215-2.1437" fill-rule="evenodd" stroke="#000"/>
</g>
</svg>
