<svg viewBox="0 0 512 512" xmlns="http://www.w3.org/2000/svg">

<g transform="matrix(18.68858,0,0,18.68858,-2099.19923,-7250.96798)">
<path d="m695.1875,438.8622c0,6.4548-3.5398,11.6875-7.9062,11.6875s-7.9062-5.2327-7.9062-11.6875 3.5398-11.6875 7.9062-11.6875 7.9062,5.2327 7.9062,11.6875z" fill="#fff" stroke="#000" stroke-width=".8282" transform="matrix(1.11647,0,0,1.12206,-641.54762,-90.78782)"/>
<path d="m124.4669,398.4565c-1.8764-.7519-3.7636-.0917-4.8993,1.843" fill="none" stroke="#000"/>
<path d="m127.03,398.493c1.8764-.7518 3.7636-.0917 4.8993,1.843" fill="none" stroke="#000"/>
<path d="m382.469,644.6867c0,2.2577-1.8302,4.088-4.088,4.088s-4.088-1.8302-4.088-4.088 1.8302-4.088 4.088-4.088 4.088,1.8302 4.088,4.088z" transform="matrix(1.26021,0,0,1.46562,-351.01974,-537.74803)"/>
<g fill="#fff" transform="matrix(.68967,0,0,.68967,76.17413,-86.0306)">
<path d="m70.5804,719.8176c0,.5178-.6596.9375-1.4732.9375s-1.4732-.4197-1.4732-.9375 .6596-.9375 1.4732-.9375 1.4732.4197 1.4732.9375z" fill="#fff" transform="matrix(2.03021,0,.30546,2.17433,-290.01284,-845.61472)"/>
<path d="m72.4687,719.6008-1.1311-8.0511 4.4297,1.1985 .0123,1.9111-3.9022-1.3204" fill="#fff" fill-rule="evenodd" stroke="#fff" stroke-width="1.45"/>
</g>
</g>
</svg>
