<svg viewBox="0 0 512 512" xmlns="http://www.w3.org/2000/svg">

<g transform="matrix(18.68858,0,0,18.68858,-2099.19923,-7250.96798)">
<path d="m 695.188 438.862 c 0 6.4548 -3.5398 11.6875 -7.9062 11.6875 s -7.9062 -5.2327 -7.9062 -11.6875 3.5398 -11.6875 7.9062 -11.6875 7.9062 5.2327 7.9062 11.6875 z" fill="#fff" stroke="#000" stroke-width=".8282" transform="matrix(1.11647,0,0,1.12206,-641.54762,-90.78782)"/>
<path d="m 124.467 398.457 c -1.8764 -0.7519 -3.7636 -0.0917 -4.8993 1.843" fill="none" stroke="#000"/>
<path d="m 127.03 398.493 c 1.8764 -0.7518 3.7636 -0.0917 4.8993 1.843" fill="none" stroke="#000"/>
<path d="m 382.469 644.687 c 0 2.2577 -1.8302 4.088 -4.088 4.088 s -4.088 -1.8302 -4.088 -4.088 1.8302 -4.088 4.088 -4.088 4.088 1.8302 4.088 4.088 z" transform="matrix(1.26021,0,0,1.46562,-351.01974,-537.74803)"/>
<g fill="#fff" transform="matrix(.68967,0,0,.68967,76.17413,-86.0306)">
<path d="m 70.5804 719.818 c 0 0.5178 -0.6596 0.9375 -1.4732 0.9375 s -1.4732 -0.4197 -1.4732 -0.9375 0.6596 -0.9375 1.4732 -0.9375 1.4732 0.4197 1.4732 0.9375 z" fill="#fff" transform="matrix(2.03021,0,.30546,2.17433,-290.01284,-845.61472)"/>
<path d="m 72.4687 719.601 -1.1311 -8.0511 4.4297 1.1985 0.0123 1.9111 -3.9022 -1.3204" fill="#fff" fill-rule="evenodd" stroke="#fff" stroke-width="1.45"/>
</g>
</g>
</svg>
