<svg viewBox="0 0 512 512" xmlns="http://www.w3.org/2000/svg">

<g transform="matrix(9.78852,0,0,10.13482,-3321.27387,-11395.41883)">
<path d="m 341.671 1138.67 c 7.112 7.5588 16.1881 7.8841 24.2149 0 -7.1946 -7.1245 -16.8428 -7.5937 -24.2149 0 z" fill="#fff" fill-rule="evenodd"/>
<path d="m 358.75 1143.42 c 0 2.8304 -2.2945 5.125 -5.125 5.125 s -5.125 -2.2946 -5.125 -5.125 2.2945 -5.125 5.125 -5.125 5.125 2.2945 5.125 5.125 z" transform="matrix(.73373,0,0,.73411,94.23176,299.35632)"/>
<path d="m 357.373 1136.55 c 0 1.0905 -0.884 1.9745 -1.9745 1.9745 s -1.9745 -0.884 -1.9745 -1.9745 0.884 -1.9746 1.9745 -1.9746 1.9745 0.884 1.9745 1.9746 z" fill="#fff" transform="translate(-.6394,.4137)"/>
</g>
<g transform="matrix(9.78852,0,0,10.13482,-3321.27387,-11252.03032)">
<path d="m 341.671 1138.67 c 7.112 7.5588 16.1881 7.8841 24.2149 0 -7.1946 -7.1245 -16.8428 -7.5937 -24.2149 0 z" fill="#fff" fill-rule="evenodd"/>
<path d="m 358.75 1143.42 c 0 2.8304 -2.2945 5.125 -5.125 5.125 s -5.125 -2.2946 -5.125 -5.125 2.2945 -5.125 5.125 -5.125 5.125 2.2945 5.125 5.125 z" transform="matrix(.73373,0,0,.73411,94.23176,299.35632)"/>
<path d="m 357.373 1136.55 c 0 1.0905 -0.884 1.9745 -1.9745 1.9745 s -1.9745 -0.884 -1.9745 -1.9745 0.884 -1.9746 1.9745 -1.9746 1.9745 0.884 1.9745 1.9746 z" fill="#fff" transform="translate(-.6394,.4137)"/>
</g>
<g transform="matrix(9.78852,0,0,10.13482,-3321.27387,-11109.13763)">
<path d="m 341.671 1138.67 c 7.112 7.5588 16.1881 7.8841 24.2149 0 -7.1946 -7.1245 -16.8428 -7.5937 -24.2149 0 z" fill="#fff" fill-rule="evenodd"/>
<path d="m 358.75 1143.42 c 0 2.8304 -2.2945 5.125 -5.125 5.125 s -5.125 -2.2946 -5.125 -5.125 2.2945 -5.125 5.125 -5.125 5.125 2.2945 5.125 5.125 z" transform="matrix(.73373,0,0,.73411,94.23176,299.35632)"/>
<path d="m 357.373 1136.55 c 0 1.0905 -0.884 1.9745 -1.9745 1.9745 s -1.9745 -0.884 -1.9745 -1.9745 0.884 -1.9746 1.9745 -1.9746 1.9745 0.884 1.9745 1.9746 z" fill="#fff" transform="translate(-.6394,.4137)"/>
</g>
<g transform="matrix(9.78852,0,0,10.13482,-3093.89758,-11463.3008)">
<path d="m 341.671 1138.67 c 7.112 7.5588 16.1881 7.8841 24.2149 0 -7.1946 -7.1245 -16.8428 -7.5937 -24.2149 0 z" fill="#fff" fill-rule="evenodd"/>
<path d="m 358.75 1143.42 c 0 2.8304 -2.2945 5.125 -5.125 5.125 s -5.125 -2.2946 -5.125 -5.125 2.2945 -5.125 5.125 -5.125 5.125 2.2945 5.125 5.125 z" transform="matrix(.73373,0,0,.73411,94.23176,299.35632)"/>
<path d="m 357.373 1136.55 c 0 1.0905 -0.884 1.9745 -1.9745 1.9745 s -1.9745 -0.884 -1.9745 -1.9745 0.884 -1.9746 1.9745 -1.9746 1.9745 0.884 1.9745 1.9746 z" fill="#fff" transform="translate(-.6394,.4137)"/>
</g>
<g transform="matrix(9.78852,0,0,10.13482,-3093.89758,-11319.91229)">
<path d="m 341.671 1138.67 c 7.112 7.5588 16.1881 7.8841 24.2149 0 -7.1946 -7.1245 -16.8428 -7.5937 -24.2149 0 z" fill="#fff" fill-rule="evenodd"/>
<path d="m 358.75 1143.42 c 0 2.8304 -2.2945 5.125 -5.125 5.125 s -5.125 -2.2946 -5.125 -5.125 2.2945 -5.125 5.125 -5.125 5.125 2.2945 5.125 5.125 z" transform="matrix(.73373,0,0,.73411,94.23176,299.35632)"/>
<path d="m 357.373 1136.55 c 0 1.0905 -0.884 1.9745 -1.9745 1.9745 s -1.9745 -0.884 -1.9745 -1.9745 0.884 -1.9746 1.9745 -1.9746 1.9745 0.884 1.9745 1.9746 z" fill="#fff" transform="translate(-.6394,.4137)"/>
</g>
<g transform="matrix(9.78852,0,0,10.13482,-3093.89758,-11177.01941)">
<path d="m 341.671 1138.67 c 7.112 7.5588 16.1881 7.8841 24.2149 0 -7.1946 -7.1245 -16.8428 -7.5937 -24.2149 0 z" fill="#fff" fill-rule="evenodd"/>
<path d="m 358.75 1143.42 c 0 2.8304 -2.2945 5.125 -5.125 5.125 s -5.125 -2.2946 -5.125 -5.125 2.2945 -5.125 5.125 -5.125 5.125 2.2945 5.125 5.125 z" transform="matrix(.73373,0,0,.73411,94.23176,299.35632)"/>
<path d="m 357.373 1136.55 c 0 1.0905 -0.884 1.9745 -1.9745 1.9745 s -1.9745 -0.884 -1.9745 -1.9745 0.884 -1.9746 1.9745 -1.9746 1.9745 0.884 1.9745 1.9746 z" fill="#fff" transform="translate(-.6394,.4137)"/>
</g>
</svg>
