<svg viewBox="0 0 512 512" xmlns="http://www.w3.org/2000/svg">

<g transform="matrix(18.68858,0,0,18.68858,-227.24041,-37446.666)">
<path d="m-1549.3041,1285.8735h1.8646v21.4569h-1.8646z" fill="#fff" transform="matrix(.63067,-.77605,.77605,.63067,0,0)"/>
<g transform="matrix(.63067,-.77605,.77605,.63067,-1553.6684,757.63937)">
<path d="m19.4934,2004.6217c-3.433.0002-6.2075,2.2935-6.2074,5.1098-3.3e-05,1.7331 1.0388,3.2421 2.6495,4.1635l-.0002,3.7096 7.116-.0003-2.8e-05-3.7093c1.6106-.9213 2.6496-2.4304 2.6496-4.1636-.0001-2.8162-2.7746-5.1098-6.2075-5.1097z" fill="#fff" stroke="#000"/>
<g stroke="#000" stroke-width=".9319" transform="matrix(.61473,3.6750152e-8,4.4272653e-8,.71007,-399.34341,734.01982)">
<path d="m679.4645,1802.7223v4.4087" fill="none" stroke="#000" stroke-width="1.5136"/>
<path d="m683.2093,1802.7223v4.4087" fill="none" stroke="#000" stroke-width="1.5136"/>
</g>
<path d="m29.1827,2009.4785c0,.65-.5269,1.177-1.1769,1.177s-1.1769-.527-1.1769-1.177 .5269-1.1769 1.1769-1.1769 1.1769.5269 1.1769,1.1769z" stroke="#fff" stroke-width=".9505" transform="matrix(1.05211,4.3362093e-8,1.208453e-7,1.05211,-9.97202,-108.32283)"/>
<g transform="translate(-.0016)">
<path d="m24.0127,2010.2331-2.996-.0001-.4996-1.2657 2.592-1.0231z"/>
<path d="m14.9773,2010.233 2.996.0001 .4995-1.266-2.5917-1.0227z"/>
</g>
<path d="m20.8809,2012.4515-2.775-.0001 1.3876-2.6892z"/>
</g>
<path d="m31.3933,2020.8078-1.8526,2.2797 2.4251,1.9709-1.3796,1.6976 2.0434.8549-.9854,1.2126 1.6976,1.3796 3.8235-4.7049-5.7718-4.6906z" fill="#fff"/>
<path d="m34.1797,2026.3909-2.4736,3.0437" fill="none" stroke="#000"/>
<path d="m31.9323,2022.8584-1.1876,1.4614" fill="none" stroke="#000"/>
<path d="m32.4779,2025.2882-3.0657,3.5745" fill="none" stroke="#fff"/>
</g>
</svg>
