<svg viewBox="0 0 512 512" xmlns="http://www.w3.org/2000/svg">

<g transform="matrix(18.68858,0,0,18.68858,-3633.33866,-34037.77337)">
<path d="m215.4887,1825.85c-1.2929,3.2404-4.8149,3.4309-8.7026,1.6614-3.913-1.781-3.358-1.7682-6.8956-4.0379-3.223-2.0678-6.0424,1.7757-3.2001,4.0004 3.371,2.6387 5.9736,3.625 5.5587,6.4632-.6072,4.1543-6.6361,3.9724-6.0485,10.9451 .3991,4.7362 7.6943,4.2537 5.6738-.912-.5756-1.4718 1.7336-4.0377 3.5808-3.7177 1.618.2803.7867,5.3396 3.303,6.9611 4.3875,2.8277 9.0249-1.3793 4.1246-4.7154-2.0871-1.4208-1.9555-6.2679-.6141-8.0717 .9529-1.2814 5.8597-.895 8.0585-5.925 1.9799-4.5295-3.1828-6.8012-4.8385-2.6515z" fill="#fff" fill-rule="evenodd" stroke="#000"/>
<path d="m203.5753,1835.0422 5.1454,1.0192-.5846,2.6568c-1.7574.031-3.5097.01-5.1454-1.0192z" stroke="#fff"/>
<path d="m197.6015,1825.0686 8.2312,5.9716" fill="none" stroke="#000"/>
<path d="m218.3408,1826.1177-2.0174,3.4162-5.2722,1.9905" fill="none" stroke="#000"/>
<path d="m207.8889,1838.9089 1.333,2.8372 2.7168,4.3846" fill="none" stroke="#000"/>
<path d="m202.7335,1837.8533-3.3836,3.1128 .2421,5.326" fill="none" stroke="#000"/>
<path d="m202.3358,1826.3598-1.7753,2.6899" fill="none" stroke="#fff"/>
<path d="m217.1841,1830.825-1.9097-2.1519" fill="none" stroke="#fff"/>
<path d="m207.9309,1842.553 2.6898-1.1297" fill="none" stroke="#fff"/>
<path d="m198.1508,1840.7024 3.2052.9306" fill="none" stroke="#fff"/>
<path d="m617.0873,1210.6788c0,2.5471-2.0648,4.6119-4.6119,4.6119s-4.6119-2.0648-4.6119-4.6119 2.0648-4.6119 4.6119-4.6119 4.6119,2.0649 4.6119,4.6119z" fill="#fff" transform="matrix(.50263,.50263,-.6316,.63159,666.48606,753.54237)"/>
<path d="m205.2623,1828.2667c2.0093-.1102 4.3697.2541 6.2366,1.704-.004,2.1248-.2769,3.7795-1.4818,5.5634-1.857-1.2312-4.1618-2.1087-6.2366-1.704 .0351-2.2502.4664-3.8605 1.4818-5.5634z" stroke="#fff"/>
<path d="m617.0873,1210.6788c0,2.5471-2.0648,4.6119-4.6119,4.6119s-4.6119-2.0648-4.6119-4.6119 2.0648-4.6119 4.6119-4.6119 4.6119,2.0649 4.6119,4.6119z" transform="matrix(.31545,.34138,-.39638,.42897,496.516,1097.4419)"/>
<path d="m207.0969,1832.8694-1.1716,3.5064" fill="none" stroke="#000"/>
</g>
</svg>
