<svg viewBox="0 0 512 512" xmlns="http://www.w3.org/2000/svg">

<g transform="matrix(18.68858,0,0,-18.68858,-7042.34286,43381.49941)">
<path d="m 397.605 2304.35 5.7112 15.8683 -15.8683 -5.7112 z" fill="#fff"/>
<path d="m 387.843 2294.33 14.2372 24.6491 -24.6518 -14.2327 0.0317 -10.3956 z" fill="#fff"/>
<path d="m 380.08 2307.13 5.4134 -2.9071 -0.9774 -0.9775 1.9047 -1.9046 0.9524 0.9523 2.857 -5.3131" fill="none" stroke="#000"/>
<path d="m 384.238 2311.29 5.4135 -2.9073 -0.9775 -0.9773 1.9048 -1.9049 0.9523 0.9525 2.8571 -5.3132" fill="none" stroke="#000"/>
<path d="m 388.614 2315.67 5.4134 -2.9072 -0.9775 -0.9773 1.9048 -1.9048 0.9524 0.9524 2.857 -5.3131" fill="none" stroke="#000"/>
<path d="m 392.426 2319.48 5.4134 -2.9072 -0.9774 -0.9774 1.9047 -1.9047 0.9524 0.9523 2.857 -5.3131" fill="none" stroke="#000"/>
<path d="m 377.387 2294.3 h 26.4314 v 26.4314 h -26.4314 z" fill="none" stroke="#000"/>
<path d="m 377.399 2301.8 3.5871 -1.9263 -0.9774 -0.9775 1.9047 -1.9046 0.9524 0.9523 1.947 -3.6208" fill="none" stroke="#000"/>
<path d="m 400.216 2319.56 2.7009 -2.7009" fill="none" stroke="#000"/>
</g>
</svg>
