<svg viewBox="0 0 512 512" xmlns="http://www.w3.org/2000/svg">

<g transform="matrix(18.68858,0,0,-18.68858,-7042.34286,43381.49941)">
<path d="m397.6051,2304.3495 5.7112,15.8683-15.8683-5.7112z" fill="#fff"/>
<path d="m387.843,2294.3325 14.2372,24.6491-24.6518-14.2327 .0317-10.3956z" fill="#fff"/>
<path d="m380.0796,2307.1319 5.4134-2.9071-.9774-.9775 1.9047-1.9046 .9524.9523 2.857-5.3131" fill="none" stroke="#000"/>
<path d="m384.2385,2311.2909 5.4135-2.9073-.9775-.9773 1.9048-1.9049 .9523.9525 2.8571-5.3132" fill="none" stroke="#000"/>
<path d="m388.614,2315.6663 5.4134-2.9072-.9775-.9773 1.9048-1.9048 .9524.9524 2.857-5.3131" fill="none" stroke="#000"/>
<path d="m392.4262,2319.4786 5.4134-2.9072-.9774-.9774 1.9047-1.9047 .9524.9523 2.857-5.3131" fill="none" stroke="#000"/>
<path d="m377.3873,2294.2988h26.4314v26.4314h-26.4314z" fill="none" stroke="#000"/>
<path d="m377.3988,2301.7967 3.5871-1.9263-.9774-.9775 1.9047-1.9046 .9524.9523 1.947-3.6208" fill="none" stroke="#000"/>
<path d="m400.2156,2319.5584 2.7009-2.7009" fill="none" stroke="#000"/>
</g>
</svg>
