<svg viewBox="0 0 512 512" xmlns="http://www.w3.org/2000/svg">

<g transform="matrix(18.68858,0,0,18.68858,-5672.48887,-36765.84631)">
<path d="m 695.188 438.862 c 0 6.4548 -3.5398 11.6875 -7.9062 11.6875 s -7.9062 -5.2327 -7.9062 -11.6875 3.5398 -11.6875 7.9062 -11.6875 7.9062 5.2327 7.9062 11.6875 z" fill="#fff" stroke="#000" stroke-width=".8684" transform="matrix(1.17666,0,0,1.12705,-491.34875,1486.3766)"/>
<g transform="translate(.1069)">
<path d="m 313.109 1993.8 v -8.5456" fill="none" stroke="#000"/>
<path d="m 315.172 1993.8 v -8.5456" fill="none" stroke="#000"/>
<path d="m 317.235 1993.8 v -8.5456" fill="none" stroke="#000"/>
<path d="m 319.297 1993.8 v -8.5456" fill="none" stroke="#000"/>
<path d="m 321.373 1993.8 v -8.5456" fill="none" stroke="#000"/>
</g>
<path d="m 323.11 1978.26 c 0 3.0016 -2.4333 5.4349 -5.4349 5.4349 s -5.4349 -2.4333 -5.4349 -5.4349 2.4333 -5.4349 5.4349 -5.4349 5.4349 2.4333 5.4349 5.4349 z" transform="matrix(1.40686,0,0,1.40686,-129.5766,-803.71765)"/>
<path d="m 313.543 1984.72 h 7.6107 v 4.0314 h -7.6107 z"/>
<g transform="translate(.2186)">
<path d="m 318.661 1980.88 c 2.1206 -2.2252 4.2045 -2.2217 6.5981 -0.1 -1.5746 3.016 -5.2726 3.0101 -6.5981 0.1 z" fill="#fff" fill-rule="evenodd"/>
<path d="m 315.598 1980.88 c -2.1206 -2.2252 -4.2045 -2.2217 -6.5981 -0.1 1.5746 3.016 5.2726 3.0101 6.5981 0.1 z" fill="#fff" fill-rule="evenodd"/>
</g>
<path d="m 317.348 1981.78 1.3631 3.5744 h -2.7262 z" fill="#fff"/>
<path d="m 322.685 1989.77 c -2.9478 1.7422 -7.7273 1.7419 -10.6749 -0.0002" fill="none" stroke="#fff"/>
</g>
</svg>
