<svg viewBox="0 0 512 512" xmlns="http://www.w3.org/2000/svg">

<g transform="matrix(18.68858,0,0,18.68858,-9759.29242,-19083.59152)">
<path d="m 549.182 1029.82 -26.4009 -0.4733 v 7.2983 c 0 3.1519 5.9138 5.7099 13.2005 5.7099 s 13.2004 -2.558 13.2004 -5.7099 v -6.825 z" fill="#fff" stroke="#000"/>
<path d="m 549.125 1029.99 c 0 2.1401 -5.8902 3.875 -13.1562 3.875 s -13.1562 -1.7349 -13.1562 -3.875 5.8902 -3.875 13.1562 -3.875 13.1562 1.7349 13.1562 3.875 z" stroke="#fff" stroke-width=".9187" transform="matrix(.92836,0,0,1.27623,38.40844,-284.49665)"/>
<path d="m 549.191 1033.64 c 0 3.6315 -5.9211 6.5786 -13.2168 6.5786 s -13.2168 -2.9471 -13.2168 -6.5786" fill="none" stroke="#000"/>
<path d="m 549.191 1029.93 c 0 3.6315 -5.9211 6.5786 -13.2168 6.5786 s -13.2168 -2.9471 -13.2168 -6.5786" fill="none" stroke="#000"/>
<g transform="matrix(1.11966,0,0,1.11966,-65.03307,-124.46557)">
<path d="m 533.844 1029.31 -4.6562 6.2411 3.2812 4.1964 v 4.8125 h 8.625 v -4.8125 l 3.2812 -4.1964 -4.6562 -6.2411 h -5.875 z" fill="#fff" stroke="#000" stroke-width=".8931"/>
<g transform="translate(.0312)">
<path d="m 534.625 1040.05 v 4.4375" fill="none" stroke="#000" stroke-width=".8931"/>
<path d="m 536.75 1040.05 v 4.4375" fill="none" stroke="#000" stroke-width=".8931"/>
<path d="m 538.875 1040.05 v 4.4375" fill="none" stroke="#000" stroke-width=".8931"/>
</g>
<path d="m 536.781 1036.43 0.999 2.6562 h -1.9979 l 0.999 -2.6562 z"/>
<g transform="translate(-.0299)">
<path d="m 543.704 1037.05 h -5.4416 l 2.9252 -3.1619 2.5164 3.1619 z" fill-rule="evenodd"/>
<path d="m 529.918 1037.05 h 5.4416 l -2.9252 -3.1619 -2.5164 3.1619 z" fill-rule="evenodd"/>
</g>
</g>
</g>
</svg>
