<svg viewBox="0 0 512 512" xmlns="http://www.w3.org/2000/svg">

<g transform="matrix(18.68858,0,0,18.68858,-1596.03334,-40151.33514)">
<path d="m87.528,2152.0371c.0624,8.5627 2.9913,20.0197 11.6021,22.3269 8.8677-2.3761 11.5719-13.7578 11.6399-22.3269-3.2786.7202-9.0631-.6231-11.698-2.1443-2.9781,1.7194-8.2244,2.8826-11.5439,2.1443z" fill="#fff"/>
<path d="m90.4672,2155.1851c.0475,6.7283 2.2744,15.3613 8.8215,17.1743 6.7425-1.867 8.7987-10.4411 8.8503-17.1743-2.4929.5659-6.8911-.8588-8.8945-2.0542-2.2644,1.3511-6.2534,2.6342-8.7773,2.0542z" fill="none" stroke="#000"/>
<path d="m94.6761,2166.9062-.4892,3.8559 5.0067,2.417 5.1506-2.417-.5755-3.8559h-9.0927z" fill="#fff"/>
<path d="m92.9728,2153.3315-.8038,4.1876h14.2478l-.8976-4.1876z" fill="#fff"/>
<path d="m104.3237,2153.227 1.8882,7.8176h-3.4119c.5054,1.59.3461,3.7525-.53,5.3426l-.9275-2.6703-1.06,2.9021-1.06-2.6752-1.06,2.642-1.0269-2.8689-.9275,2.6371c-.7773-1.4156-1.2756-3.4796-.53-5.3094h-3.4451l1.8882-7.8176c3.364-1.1661 6.8018-1.312 10.2026,0z"/>
<path d="m100.2576,2167.7551 1.1617,2.5772 .8439-3.007c.834.9841 1.1109,2.1164.9788,3.518-2.6027,2.0236-5.1873,2.2953-7.9674,0 .0125-1.2908-.0345-2.3669.9072-3.5504l.7751,3.0394 1.2305-2.5449 1.0352,3.1755z"/>
<g transform="matrix(-1.20807,0,0,1.20807,878.27502,-407.15537)">
<path d="m649.1625,2124.6062-.4924-2.2721c-1.2348.2636-2.2491.8211-2.8154,1.976z" fill="#fff"/>
<path d="m640.5734,2124.6062 .4924-2.2721c1.1751.3511 2.1963.9022 2.8154,1.976z" fill="#fff"/>
</g>
<path d="m100.4638,2162.3793-1.2349-1.6306-1.2349,1.6306" fill="none" stroke="#fff"/>
</g>
</svg>
