<svg viewBox="0 0 512 512" xmlns="http://www.w3.org/2000/svg">

<g transform="matrix(18.68858,0,0,18.68858,3236.13393,-2218.55986)">
<path d="m -148.76 135.957 c -4.8296 2.2643 -5.5616 4.1371 -3.7019 5.8735 -3.2734 3.6099 -10.9437 3.2304 -13.788 0.0355 1.5696 -1.4732 1.11 -3.7728 -3.4449 -5.909 0 -6.2903 2.8777 -13.2168 10.4674 -13.2168 7.6544 0 10.4674 7.2617 10.4674 13.2168 z" fill="#fff" stroke="#000"/>
<path d="m 607.875 129.362 c 0 1.2081 -0.9794 2.1875 -2.1875 2.1875 s -2.1875 -0.9794 -2.1875 -2.1875 0.9794 -2.1875 2.1875 -2.1875 2.1875 0.9794 2.1875 2.1875 z" transform="matrix(1.22913,0,0,1.22913,-899.91458,-23.81821)"/>
<path d="m -159.446 137.105 c -0.746 1.5521 -1.2166 3.1043 -1.608 4.6564 1.0095 0.7901 2.4252 0.69 3.2159 0 -0.2895 -1.5521 -0.8728 -3.1043 -1.608 -4.6564 z" fill-rule="evenodd"/>
<path d="m 607.875 129.362 c 0 1.2081 -0.9794 2.1875 -2.1875 2.1875 s -2.1875 -0.9794 -2.1875 -2.1875 0.9794 -2.1875 2.1875 -2.1875 2.1875 0.9794 2.1875 2.1875 z" transform="matrix(1.22913,0,0,1.22913,-907.91333,-23.81821)"/>
<path d="m -157.923 119.509 1.8587 8.5267 -4.8732 -1.277 2.1696 4.4712 -8.0101 -5.0933 2.7966 -1.6815 -6.0156 -4.1154" fill-rule="evenodd"/>
<path d="m -167.388 123.79 5.1589 3.35 -2.01 -5.1589 c -1.2975 0.1568 -2.2969 0.8504 -3.149 1.809 z" fill="#fff" fill-rule="evenodd"/>
<path d="m -158.262 120.549 -1.272 2.6764 -1.7484 -1.3702 0.218 -1.8491 c 0.9152 0.022 1.8316 0.0537 2.8025 0.5428 z" fill="#fff" fill-rule="evenodd"/>
</g>
</svg>
