<svg viewBox="0 0 512 512" xmlns="http://www.w3.org/2000/svg">

<g transform="matrix(18.68858,0,0,18.68858,-12485.09861,-33370.52379)">
<path d="m693.1052,1806.9942c-6.3094-2.1445-16.5643-13.2316-19.4711-19.4711-.8138-1.7467-3.565-.025-1.947,1.947-1.9402-1.792-3.6689.7136-1.6411,1.6411 5.8898,2.6937 17.0224,13.5807 19.4711,19.471 .9205,2.2143 3.8399.5208 1.6966-1.6966 2.5344,1.8395 4.2778-1.0802 1.8914-1.8914z" fill="#fff"/>
<path d="m693.1052,1791.4251c-6.3094,2.1445-16.5643,13.2316-19.4711,19.4711-.8138,1.7467-3.565.025-1.947-1.947-1.9402,1.792-3.6689-.7136-1.6411-1.6411 5.8898-2.6937 17.0224-13.5807 19.4711-19.471 .9205-2.2143 3.8399-.5208 1.6966,1.6966 2.5344-1.8395 4.2778,1.0802 1.8914,1.8914z" fill="#fff"/>
<path d="m689.0409,1799.6464c0,3.3782-2.7386,6.1168-6.1169,6.1168s-6.1169-2.7386-6.1169-6.1168 2.7386-6.1169 6.1169-6.1169 6.1169,2.7386 6.1169,6.1169z" fill="#fff" stroke="#000" stroke-width=".875" transform="matrix(1.14286,0,0,1.14286,-98.85505,-258.11815)"/>
<path d="m681.6295,1799.6562 1.6021,2.579h-3.2042z"/>
<path d="m679.1627,1798.7345c0,.9862-.7995,1.7857-1.7857,1.7857s-1.7857-.7995-1.7857-1.7857 .7995-1.7857 1.7857-1.7857 1.7857.7995 1.7857,1.7857z" transform="matrix(1.07858,0,0,1.07858,-45.40571,-141.29725)"/>
<path d="m679.1627,1798.7345c0,.9862-.7995,1.7857-1.7857,1.7857s-1.7857-.7995-1.7857-1.7857 .7995-1.7857 1.7857-1.7857 1.7857.7995 1.7857,1.7857z" transform="matrix(1.07858,0,0,1.07858,-52.55183,-141.29725)"/>
<g transform="translate(.1207,.114)">
<path d="m678.7258,1803.7874v3.3435" fill="none" stroke="#fff"/>
<path d="m680.5874,1803.7874v3.3435" fill="none" stroke="#fff"/>
<path d="m682.4301,1803.7874v3.3435" fill="none" stroke="#fff"/>
<path d="m684.2917,1803.7874v3.3435" fill="none" stroke="#fff"/>
</g>
</g>
</svg>
