<svg viewBox="0 0 512 512" xmlns="http://www.w3.org/2000/svg">

<g transform="matrix(18.68858,0,0,18.68858,-1596.96963,-41513.91203)">
<path d="m96.261,2234.8059c0,2.0042-1.6247,3.6289-3.6289,3.6289s-3.6289-1.6247-3.6289-3.6289 1.6247-3.6289 3.6289-3.6289 3.6289,1.6247 3.6289,3.6289z" fill="#fff" transform="matrix(.23827,0,0,.23827,78.26687,1692.8765)"/>
<path d="m96.261,2234.8059c0,2.0042-1.6247,3.6289-3.6289,3.6289s-3.6289-1.6247-3.6289-3.6289 1.6247-3.6289 3.6289-3.6289 3.6289,1.6247 3.6289,3.6289z" fill="#fff" transform="matrix(.16948,0,0,.16948,72.16638,1848.7338)"/>
<path d="m96.261,2234.8059c0,2.0042-1.6247,3.6289-3.6289,3.6289s-3.6289-1.6247-3.6289-3.6289 1.6247-3.6289 3.6289-3.6289 3.6289,1.6247 3.6289,3.6289z" fill="#fff" transform="matrix(.30526,0,0,.30526,67.28644,1558.0857)"/>
<path d="m86.9027,2222.8447c-.8087.6189-.4672,1.5753.3161,1.8428-.6361,1.4318.979,2.0768 1.75,1.2187 .0947.3399.2991.6238.5625.8438-.3657.9479-.0236,1.8821.5608,2.461 .9137.905 1.8535.6155 2.8767.164 .2681.4157.6402.7727 1.0625,1.0312-.4625.1333-.8502.4522-1.0625.875-.6612-.6802-1.736-.255-1.8333.4584-.1528,1.1201 1.2529,1.6825 1.7708.9479 .2226.5539.7356.9401 1.3438,1.0313-1.0871.8488-.9971,2.4869-.0522,3.5323 1.0138,1.1216 2.3255.8824 3.3022.1551 .1025.4759.3324.8823.625,1.25-.9911,1.1911-.0257,2.8995 1.2188,2.9376l11.0938-7.5938c2.416-.7471.769-3.7773-.9062-2.5 .1315-2.569-2.4615-4.1838-4.3438-3.3748-.4289-2.0819-4.209-1.8713-4.8438-.25l-1.3438-.469c-.1002-1.7241-1.532-3.0937-3.2812-3.0937-1.1339,0-2.1284.5949-2.7188,1.4687l-.6562-.375c-.0171-.9345-.7801-1.6874-1.7188-1.6874-.6171,0-1.1343.3241-1.4375.8124l-.5312-.4687c.451-1.124-.9055-2.0658-1.7536-1.2178z" fill="#fff"/>
<g transform="matrix(.86603,-.5,.5,.86603,-1105.2958,352.63556)">
<path d="m108.9573,2233.1978c3.0934,1.7859 4.1783,5.6043 2.4983,8.514-1.6253,2.8151-6.4126,6.5631-6.4126,6.5631-2.9912-.5842-4.4619-2.8586-6.0427-5.0478l1.5983-2.0388c-.6455-1.6614-1.2334-4.3166-.3066-5.9217 1.68-2.9098 5.5719-3.8548 8.6653-2.0688z" fill="#fff" stroke="#000"/>
<path d="m461.069,1938.7444c0,.5133-.4161.9294-.9295.9294s-.9295-.4161-.9295-.9294 .4161-.9295.9295-.9295 .9295.4162.9295.9295z" transform="matrix(-1.58223,-.9135,-.9135,1.58223,2608.9994,-404.74785)"/>
<path d="m461.069,1938.7444c0,.5133-.4161.9294-.9295.9294s-.9295-.4161-.9295-.9294 .4161-.9295.9295-.9295 .9295.4162.9295.9295z" transform="matrix(-1.82644,-1.05449,-1.05449,1.82644,2990.6739,-816.69308)"/>
<path d="m107.4685,2241.6977-1.143,3.2293-1.818-1.3237z"/>
<path d="m99.2329,2242.895c1.417-1.2203 2.7868-2.4893 3.361-4.5806" fill="none" stroke="#000"/>
<path d="m97.9887,2244.0415 1.4469-.8665 2.8933-.089-1.2233,2.1623 2.4721-.5485-.9012,2.0258 2.3833-1.0253-.0218,2.4744z"/>
</g>
<path d="m99.8299,2232.5001 1.9448,2.3768-1.0265,1.6747-2.2102-.5684z" fill="#fff"/>
<path d="m106.1461,2230.9675-.0897,2.562-2.0868-.2856-.2327-2.1015z" fill="#fff"/>
</g>
</svg>
