<svg viewBox="0 0 512 512" xmlns="http://www.w3.org/2000/svg">

<g transform="matrix(18.68858,0,0,18.68858,-1596.03334,-40151.33514)">
<path d="m 87.528 2152.04 c 0.0624 8.5627 2.9913 20.0197 11.6021 22.3269 8.8677 -2.3761 11.5719 -13.7578 11.6399 -22.3269 -3.2786 0.7202 -9.0631 -0.6231 -11.698 -2.1443 -2.9781 1.7194 -8.2244 2.8826 -11.5439 2.1443 z" fill="#fff"/>
<path d="m 90.4672 2155.19 c 0.0475 6.7283 2.2744 15.3613 8.8215 17.1743 6.7425 -1.867 8.7987 -10.4411 8.8503 -17.1743 -2.4929 0.5659 -6.8911 -0.8588 -8.8945 -2.0542 -2.2644 1.3511 -6.2534 2.6342 -8.7773 2.0542 z" fill="none" stroke="#000"/>
<path d="m 94.6761 2166.91 -0.4892 3.8559 5.0067 2.417 5.1506 -2.417 -0.5755 -3.8559 h -9.0927 z" fill="#fff"/>
<path d="m 92.9728 2153.33 -0.8038 4.1876 h 14.2478 l -0.8976 -4.1876 z" fill="#fff"/>
<path d="m 104.324 2153.23 1.8882 7.8176 h -3.4119 c 0.5054 1.59 0.3461 3.7525 -0.53 5.3426 l -0.9275 -2.6703 -1.06 2.9021 -1.06 -2.6752 -1.06 2.642 -1.0269 -2.8689 -0.9275 2.6371 c -0.7773 -1.4156 -1.2756 -3.4796 -0.53 -5.3094 h -3.4451 l 1.8882 -7.8176 c 3.364 -1.1661 6.8018 -1.312 10.2026 0 z"/>
<path d="m 100.258 2167.76 1.1617 2.5772 0.8439 -3.007 c 0.834 0.9841 1.1109 2.1164 0.9788 3.518 -2.6027 2.0236 -5.1873 2.2953 -7.9674 0 0.0125 -1.2908 -0.0345 -2.3669 0.9072 -3.5504 l 0.7751 3.0394 1.2305 -2.5449 1.0352 3.1755 z"/>
<g transform="matrix(-1.20807,0,0,1.20807,878.27502,-407.15537)">
<path d="m 649.163 2124.61 -0.4924 -2.2721 c -1.2348 0.2636 -2.2491 0.8211 -2.8154 1.976 z" fill="#fff"/>
<path d="m 640.573 2124.61 0.4924 -2.2721 c 1.1751 0.3511 2.1963 0.9022 2.8154 1.976 z" fill="#fff"/>
</g>
<path d="m 100.464 2162.38 -1.2349 -1.6306 -1.2349 1.6306" fill="none" stroke="#fff"/>
</g>
</svg>
