<svg viewBox="0 0 512 512" xmlns="http://www.w3.org/2000/svg">

<g transform="matrix(18.68858,0,0,18.68858,-1596.96963,-41513.91203)">
<path d="m 96.261 2234.81 c 0 2.0042 -1.6247 3.6289 -3.6289 3.6289 s -3.6289 -1.6247 -3.6289 -3.6289 1.6247 -3.6289 3.6289 -3.6289 3.6289 1.6247 3.6289 3.6289 z" fill="#fff" transform="matrix(.23827,0,0,.23827,78.26687,1692.8765)"/>
<path d="m 96.261 2234.81 c 0 2.0042 -1.6247 3.6289 -3.6289 3.6289 s -3.6289 -1.6247 -3.6289 -3.6289 1.6247 -3.6289 3.6289 -3.6289 3.6289 1.6247 3.6289 3.6289 z" fill="#fff" transform="matrix(.16948,0,0,.16948,72.16638,1848.7338)"/>
<path d="m 96.261 2234.81 c 0 2.0042 -1.6247 3.6289 -3.6289 3.6289 s -3.6289 -1.6247 -3.6289 -3.6289 1.6247 -3.6289 3.6289 -3.6289 3.6289 1.6247 3.6289 3.6289 z" fill="#fff" transform="matrix(.30526,0,0,.30526,67.28644,1558.0857)"/>
<path d="m 86.9027 2222.84 c -0.8087 0.6189 -0.4672 1.5753 0.3161 1.8428 -0.6361 1.4318 0.979 2.0768 1.75 1.2187 0.0947 0.3399 0.2991 0.6238 0.5625 0.8438 -0.3657 0.9479 -0.0236 1.8821 0.5608 2.461 0.9137 0.905 1.8535 0.6155 2.8767 0.164 0.2681 0.4157 0.6402 0.7727 1.0625 1.0312 -0.4625 0.1333 -0.8502 0.4522 -1.0625 0.875 -0.6612 -0.6802 -1.736 -0.255 -1.8333 0.4584 -0.1528 1.1201 1.2529 1.6825 1.7708 0.9479 0.2226 0.5539 0.7356 0.9401 1.3438 1.0313 -1.0871 0.8488 -0.9971 2.4869 -0.0522 3.5323 1.0138 1.1216 2.3255 0.8824 3.3022 0.1551 0.1025 0.4759 0.3324 0.8823 0.625 1.25 -0.9911 1.1911 -0.0257 2.8995 1.2188 2.9376 l 11.0938 -7.5938 c 2.416 -0.7471 0.769 -3.7773 -0.9062 -2.5 0.1315 -2.569 -2.4615 -4.1838 -4.3438 -3.3748 -0.4289 -2.0819 -4.209 -1.8713 -4.8438 -0.25 l -1.3438 -0.469 c -0.1002 -1.7241 -1.532 -3.0937 -3.2812 -3.0937 -1.1339 0 -2.1284 0.5949 -2.7188 1.4687 l -0.6562 -0.375 c -0.0171 -0.9345 -0.7801 -1.6874 -1.7188 -1.6874 -0.6171 0 -1.1343 0.3241 -1.4375 0.8124 l -0.5312 -0.4687 c 0.451 -1.124 -0.9055 -2.0658 -1.7536 -1.2178 z" fill="#fff"/>
<g transform="matrix(.86603,-.5,.5,.86603,-1105.2958,352.63556)">
<path d="m 108.957 2233.2 c 3.0934 1.7859 4.1783 5.6043 2.4983 8.514 -1.6253 2.8151 -6.4126 6.5631 -6.4126 6.5631 -2.9912 -0.5842 -4.4619 -2.8586 -6.0427 -5.0478 l 1.5983 -2.0388 c -0.6455 -1.6614 -1.2334 -4.3166 -0.3066 -5.9217 1.68 -2.9098 5.5719 -3.8548 8.6653 -2.0688 z" fill="#fff" stroke="#000"/>
<path d="m 461.069 1938.74 c 0 0.5133 -0.4161 0.9294 -0.9295 0.9294 s -0.9295 -0.4161 -0.9295 -0.9294 0.4161 -0.9295 0.9295 -0.9295 0.9295 0.4162 0.9295 0.9295 z" transform="matrix(-1.58223,-.9135,-.9135,1.58223,2608.9994,-404.74785)"/>
<path d="m 461.069 1938.74 c 0 0.5133 -0.4161 0.9294 -0.9295 0.9294 s -0.9295 -0.4161 -0.9295 -0.9294 0.4161 -0.9295 0.9295 -0.9295 0.9295 0.4162 0.9295 0.9295 z" transform="matrix(-1.82644,-1.05449,-1.05449,1.82644,2990.6739,-816.69308)"/>
<path d="m 107.469 2241.7 -1.143 3.2293 -1.818 -1.3237 z"/>
<path d="m 99.2329 2242.89 c 1.417 -1.2203 2.7868 -2.4893 3.361 -4.5806" fill="none" stroke="#000"/>
<path d="m 97.9887 2244.04 1.4469 -0.8665 2.8933 -0.089 -1.2233 2.1623 2.4721 -0.5485 -0.9012 2.0258 2.3833 -1.0253 -0.0218 2.4744 z"/>
</g>
<path d="m 99.8299 2232.5 1.9448 2.3768 -1.0265 1.6747 -2.2102 -0.5684 z" fill="#fff"/>
<path d="m 106.146 2230.97 -0.0897 2.562 -2.0868 -0.2856 -0.2327 -2.1015 z" fill="#fff"/>
</g>
</svg>
