<svg viewBox="0 0 512 512" xmlns="http://www.w3.org/2000/svg">

<g transform="matrix(18.68858,0,0,18.68858,-5672.48887,-36765.84631)">
<path d="m695.1875,438.8622c0,6.4548-3.5398,11.6875-7.9062,11.6875s-7.9062-5.2327-7.9062-11.6875 3.5398-11.6875 7.9062-11.6875 7.9062,5.2327 7.9062,11.6875z" fill="#fff" stroke="#000" stroke-width=".8684" transform="matrix(1.17666,0,0,1.12705,-491.34875,1486.3766)"/>
<g transform="translate(.1069)">
<path d="m313.1094,1993.7959v-8.5456" fill="none" stroke="#000"/>
<path d="m315.172,1993.7959v-8.5456" fill="none" stroke="#000"/>
<path d="m317.2347,1993.7959v-8.5456" fill="none" stroke="#000"/>
<path d="m319.2973,1993.7959v-8.5456" fill="none" stroke="#000"/>
<path d="m321.3729,1993.7959v-8.5456" fill="none" stroke="#000"/>
</g>
<path d="m323.1095,1978.2649c0,3.0016-2.4333,5.4349-5.4349,5.4349s-5.4349-2.4333-5.4349-5.4349 2.4333-5.4349 5.4349-5.4349 5.4349,2.4333 5.4349,5.4349z" transform="matrix(1.40686,0,0,1.40686,-129.5766,-803.71765)"/>
<path d="m313.5426,1984.7157h7.6107v4.0314h-7.6107z"/>
<g transform="translate(.2186)">
<path d="m318.661,1980.8792c2.1206-2.2252 4.2045-2.2217 6.5981-.1-1.5746,3.016-5.2726,3.0101-6.5981.1z" fill="#fff" fill-rule="evenodd"/>
<path d="m315.5979,1980.8792c-2.1206-2.2252-4.2045-2.2217-6.5981-.1 1.5746,3.016 5.2726,3.0101 6.5981.1z" fill="#fff" fill-rule="evenodd"/>
</g>
<path d="m317.348,1981.7771 1.3631,3.5744h-2.7262z" fill="#fff"/>
<path d="m322.6855,1989.7737c-2.9478,1.7422-7.7273,1.7419-10.6749-.0002" fill="none" stroke="#fff"/>
</g>
</svg>
