<svg viewBox="0 0 512 512" xmlns="http://www.w3.org/2000/svg">

<g transform="matrix(18.68858,0,0,18.68858,-9759.29242,-19083.59152)">
<path d="m549.1821,1029.8169-26.4009-.4733v7.2983c0,3.1519 5.9138,5.7099 13.2005,5.7099s13.2004-2.558 13.2004-5.7099v-6.825z" fill="#fff" stroke="#000"/>
<path d="m549.125,1029.9872c0,2.1401-5.8902,3.875-13.1562,3.875s-13.1562-1.7349-13.1562-3.875 5.8902-3.875 13.1562-3.875 13.1562,1.7349 13.1562,3.875z" stroke="#fff" stroke-width=".9187" transform="matrix(.92836,0,0,1.27623,38.40844,-284.49665)"/>
<path d="m549.1907,1033.6445c0,3.6315-5.9211,6.5786-13.2168,6.5786s-13.2168-2.9471-13.2168-6.5786" fill="none" stroke="#000"/>
<path d="m549.1907,1029.9322c0,3.6315-5.9211,6.5786-13.2168,6.5786s-13.2168-2.9471-13.2168-6.5786" fill="none" stroke="#000"/>
<g transform="matrix(1.11966,0,0,1.11966,-65.03307,-124.46557)">
<path d="m533.8438,1029.3125-4.6562,6.2411 3.2812,4.1964v4.8125h8.625v-4.8125l3.2812-4.1964-4.6562-6.2411h-5.875z" fill="#fff" stroke="#000" stroke-width=".8931"/>
<g transform="translate(.0312)">
<path d="m534.625,1040.0497v4.4375" fill="none" stroke="#000" stroke-width=".8931"/>
<path d="m536.75,1040.0497v4.4375" fill="none" stroke="#000" stroke-width=".8931"/>
<path d="m538.875,1040.0497v4.4375" fill="none" stroke="#000" stroke-width=".8931"/>
</g>
<path d="m536.7812,1036.4256 .999,2.6562h-1.9979l.999-2.6562z"/>
<g transform="translate(-.0299)">
<path d="m543.7038,1037.0472h-5.4416l2.9252-3.1619 2.5164,3.1619z" fill-rule="evenodd"/>
<path d="m529.9185,1037.0472h5.4416l-2.9252-3.1619-2.5164,3.1619z" fill-rule="evenodd"/>
</g>
</g>
</g>
</svg>
