<svg viewBox="0 0 512 512" xmlns="http://www.w3.org/2000/svg">

<g transform="matrix(18.68858,0,0,18.68858,-6355.29483,-34717.93116)">
<path d="m358.1128,1875.0197c0,3.536-2.8665,6.4025-6.4025,6.4025s-6.4025-2.8665-6.4025-6.4025 2.8665-6.4026 6.4025-6.4026 6.4025,2.8665 6.4025,6.4026z" fill="#fff" transform="matrix(1.63307,0,0,1.63307,-220.55057,-1189.5039)"/>
<path d="m358.1128,1875.0197c0,3.536-2.8665,6.4025-6.4025,6.4025s-6.4025-2.8665-6.4025-6.4025 2.8665-6.4026 6.4025-6.4026 6.4025,2.8665 6.4025,6.4026z" transform="matrix(1.2854,0,0,1.2854,-98.27149,-537.5725)"/>
<path d="m355.675,1880.5784c0,.7027-.5697,1.2724-1.2725,1.2724s-1.2725-.5697-1.2725-1.2724 .5697-1.2725 1.2725-1.2725 1.2725.5697 1.2725,1.2725z" fill="#fff" stroke="#000" stroke-width=".5483" transform="matrix(1.82377,0,0,1.82377,-292.52464,-1547.4507)"/>
<path d="m355.675,1880.5784c0,.7027-.5697,1.2724-1.2725,1.2724s-1.2725-.5697-1.2725-1.2724 .5697-1.2725 1.2725-1.2725 1.2725.5697 1.2725,1.2725z" fill="#fff" stroke="#000" stroke-width=".5483" transform="matrix(1.82377,0,0,1.82377,-288.07078,-1548.8501)"/>
<path d="m355.675,1880.5784c0,.7027-.5697,1.2724-1.2725,1.2724s-1.2725-.5697-1.2725-1.2724 .5697-1.2725 1.2725-1.2725 1.2725.5697 1.2725,1.2725z" fill="#fff" stroke="#000" stroke-width=".5483" transform="matrix(1.82377,0,0,1.82377,-297.11915,-1548.8501)"/>
<path d="m612.2567,1725.8232c0,1.3592-1.5485,2.461-3.4586,2.461s-3.4586-1.1018-3.4586-2.461 1.5485-2.4609 3.4586-2.4609 3.4586,1.1018 3.4586,2.4609z" fill="#fff" stroke="#000" stroke-width=".548" transform="matrix(1.73336,0,0,1.92094,-701.25632,-1452.2784)"/>
<path d="m349.9446,1865.6793h8.0695v2.955h-8.0695z" fill="#fff"/>
<path d="m351.6918,1865.6716v3.2152" fill="none" stroke="#000"/>
<path d="m353.993,1865.6716v3.2152" fill="none" stroke="#000"/>
<path d="m356.2638,1865.6716v3.2152" fill="none" stroke="#000"/>
<path d="m608.1063,1725.7035c0,.573-.4645,1.0376-1.0376,1.0376s-1.0376-.4646-1.0376-1.0376 .4645-1.0376 1.0376-1.0376 1.0376.4645 1.0376,1.0376z" stroke="#fff" stroke-width=".4826" transform="matrix(2.07221,0,0,2.07221,-906.23464,-1712.9986)"/>
<path d="m608.1063,1725.7035c0,.573-.4645,1.0376-1.0376,1.0376s-1.0376-.4646-1.0376-1.0376 .4645-1.0376 1.0376-1.0376 1.0376.4645 1.0376,1.0376z" stroke="#fff" stroke-width=".4826" transform="matrix(2.07221,0,0,2.07221,-901.81388,-1712.9986)"/>
</g>
</svg>
