<svg viewBox="0 0 512 512" xmlns="http://www.w3.org/2000/svg">

<g transform="matrix(18.68858,0,0,18.68858,-12485.09861,-33370.52379)">
<path d="m 693.105 1806.99 c -6.3094 -2.1445 -16.5643 -13.2316 -19.4711 -19.4711 -0.8138 -1.7467 -3.565 -0.025 -1.947 1.947 -1.9402 -1.792 -3.6689 0.7136 -1.6411 1.6411 5.8898 2.6937 17.0224 13.5807 19.4711 19.471 0.9205 2.2143 3.8399 0.5208 1.6966 -1.6966 2.5344 1.8395 4.2778 -1.0802 1.8914 -1.8914 z" fill="#fff"/>
<path d="m 693.105 1791.43 c -6.3094 2.1445 -16.5643 13.2316 -19.4711 19.4711 -0.8138 1.7467 -3.565 0.025 -1.947 -1.947 -1.9402 1.792 -3.6689 -0.7136 -1.6411 -1.6411 5.8898 -2.6937 17.0224 -13.5807 19.4711 -19.471 0.9205 -2.2143 3.8399 -0.5208 1.6966 1.6966 2.5344 -1.8395 4.2778 1.0802 1.8914 1.8914 z" fill="#fff"/>
<path d="m 689.041 1799.65 c 0 3.3782 -2.7386 6.1168 -6.1169 6.1168 s -6.1169 -2.7386 -6.1169 -6.1168 2.7386 -6.1169 6.1169 -6.1169 6.1169 2.7386 6.1169 6.1169 z" fill="#fff" stroke="#000" stroke-width=".875" transform="matrix(1.14286,0,0,1.14286,-98.85505,-258.11815)"/>
<path d="m 681.63 1799.66 1.6021 2.579 h -3.2042 z"/>
<path d="m 679.163 1798.73 c 0 0.9862 -0.7995 1.7857 -1.7857 1.7857 s -1.7857 -0.7995 -1.7857 -1.7857 0.7995 -1.7857 1.7857 -1.7857 1.7857 0.7995 1.7857 1.7857 z" transform="matrix(1.07858,0,0,1.07858,-45.40571,-141.29725)"/>
<path d="m 679.163 1798.73 c 0 0.9862 -0.7995 1.7857 -1.7857 1.7857 s -1.7857 -0.7995 -1.7857 -1.7857 0.7995 -1.7857 1.7857 -1.7857 1.7857 0.7995 1.7857 1.7857 z" transform="matrix(1.07858,0,0,1.07858,-52.55183,-141.29725)"/>
<g transform="translate(.1207,.114)">
<path d="m 678.726 1803.79 v 3.3435" fill="none" stroke="#fff"/>
<path d="m 680.587 1803.79 v 3.3435" fill="none" stroke="#fff"/>
<path d="m 682.43 1803.79 v 3.3435" fill="none" stroke="#fff"/>
<path d="m 684.292 1803.79 v 3.3435" fill="none" stroke="#fff"/>
</g>
</g>
</svg>
