<svg viewBox="0 0 512 512" xmlns="http://www.w3.org/2000/svg">

<g transform="matrix(18.68858,0,0,18.68858,-5676.72606,-23822.72145)">
<path d="m 327.737 1300.9 v -16.2612 c 0 -4.601 -3.8119 -8.2812 -8.5312 -8.2812 h -3.8125 c -4.7194 0 -8.5312 3.6801 -8.5312 8.2812 v 16.2612" fill="none" stroke="#fff"/>
<g transform="matrix(-.81155,.34422,.34422,.81155,131.98726,135.82173)">
<path d="m 325.853 1285.8 c -3.538 1.7994 -4.7369 4.0548 -4.6544 6.7162 -1.4698 1.2147 -8.0503 1.1561 -9.3395 0.066 0.3821 -2.4666 -0.7862 -4.754 -4.5155 -6.7827 0 -6.2521 2.5443 -10.9469 9.2547 -10.9469 6.7676 0 9.2547 5.0279 9.2547 10.9469 z" fill="#fff" stroke="#000" stroke-width="1.1344"/>
<path d="m 315.716 1286.11 c -0.9019 1.4478 -1.5324 2.9253 -2.0846 4.4113 1.0997 -0.2799 2.1512 -0.1182 3.1697 0.3456 -0.1188 -1.5592 -0.5271 -3.1499 -1.0851 -4.7569 z" fill-rule="evenodd"/>
<path d="m 316.036 1285.02 c 0 1.4423 -1.1692 2.6115 -2.6115 2.6115 s -2.6116 -1.1692 -2.6116 -2.6115 1.1692 -2.6116 2.6116 -2.6116 2.6115 1.1693 2.6115 2.6116 z" transform="matrix(.778,.08482,-.08482,.778,177.12629,257.74451)"/>
<path d="m 316.036 1285.02 c 0 1.4423 -1.1692 2.6115 -2.6115 2.6115 s -2.6116 -1.1692 -2.6116 -2.6115 1.1692 -2.6116 2.6116 -2.6116 2.6115 1.1693 2.6115 2.6116 z" transform="matrix(.778,.08482,-.08482,.778,184.95242,258.59774)"/>
</g>
<path d="m 325.97 1300.9 v -15.3856 c 0 -4.3532 -3.2423 -7.8353 -7.2565 -7.8353 h -2.271 c 4.0142 0 7.2565 3.482 7.2565 7.8353 v 15.3856" fill="#fff"/>
<path d="m 321.889 1294.51 c 0.0889 0.9865 0.4775 1.0649 1.1008 1.983 -1.3677 4.0033 -6.9219 4.5618 -9.0992 0.3403 0.5387 -0.9416 0.9233 -1.1725 1.0278 -2.0459 1.9259 2.8961 5.3356 2.7179 6.9706 -0.2774 z" fill="#fff"/>
<path d="m 316.467 1289.19 c 0 0.6086 -0.4934 1.102 -1.102 1.102 s -1.102 -0.4934 -1.102 -1.102 0.4934 -1.102 1.102 -1.102 1.102 0.4934 1.102 1.102 z" fill="#fff" transform="translate(.7537,-.751)"/>
<path d="m 316.467 1289.19 c 0 0.6086 -0.4934 1.102 -1.102 1.102 s -1.102 -0.4934 -1.102 -1.102 0.4934 -1.102 1.102 -1.102 1.102 0.4934 1.102 1.102 z" fill="#fff" transform="translate(6.667,-4.2452)"/>
</g>
</svg>
