<svg viewBox="0 0 512 512" xmlns="http://www.w3.org/2000/svg">

<g transform="matrix(18.68858,0,0,18.68858,3236.13393,-2218.55986)">
<path d="m-148.7602,135.9565c-4.8296,2.2643-5.5616,4.1371-3.7019,5.8735-3.2734,3.6099-10.9437,3.2304-13.788.0355 1.5696-1.4732 1.11-3.7728-3.4449-5.909 0-6.2903 2.8777-13.2168 10.4674-13.2168 7.6544,0 10.4674,7.2617 10.4674,13.2168z" fill="#fff" stroke="#000"/>
<path d="m607.875,129.3622c0,1.2081-.9794,2.1875-2.1875,2.1875s-2.1875-.9794-2.1875-2.1875 .9794-2.1875 2.1875-2.1875 2.1875.9794 2.1875,2.1875z" transform="matrix(1.22913,0,0,1.22913,-899.91458,-23.81821)"/>
<path d="m-159.446,137.1048c-.746,1.5521-1.2166,3.1043-1.608,4.6564 1.0095.7901 2.4252.69 3.2159,0-.2895-1.5521-.8728-3.1043-1.608-4.6564z" fill-rule="evenodd"/>
<path d="m607.875,129.3622c0,1.2081-.9794,2.1875-2.1875,2.1875s-2.1875-.9794-2.1875-2.1875 .9794-2.1875 2.1875-2.1875 2.1875.9794 2.1875,2.1875z" transform="matrix(1.22913,0,0,1.22913,-907.91333,-23.81821)"/>
<path d="m-157.9227,119.5087 1.8587,8.5267-4.8732-1.277 2.1696,4.4712-8.0101-5.0933 2.7966-1.6815-6.0156-4.1154" fill-rule="evenodd"/>
<path d="m-167.3879,123.79 5.1589,3.35-2.01-5.1589c-1.2975.1568-2.2969.8504-3.149,1.809z" fill="#fff" fill-rule="evenodd"/>
<path d="m-158.2616,120.5486-1.272,2.6764-1.7484-1.3702 .218-1.8491c.9152.022 1.8316.0537 2.8025.5428z" fill="#fff" fill-rule="evenodd"/>
</g>
</svg>
