<svg viewBox="0 0 512 512" xmlns="http://www.w3.org/2000/svg">

<path d="m110.7381,2307.2009c0,6.2055-5.0305,11.236-11.236,11.236s-11.236-5.0305-11.236-11.236 5.0305-11.236 11.236-11.236 11.236,5.0306 11.236,11.236z" fill="#fff" stroke="#000" stroke-width=".8534" transform="matrix(21.89968,0,0,21.89968,-1921.8665,-50266.65386)"/>
<path d="m110.7381,2307.2009c0,6.2055-5.0305,11.236-11.236,11.236s-11.236-5.0305-11.236-11.236 5.0305-11.236 11.236-11.236 11.236,5.0306 11.236,11.236z" transform="matrix(18.94547,0,0,18.94547,-1669.76905,-43492.55279)"/>
<g transform="matrix(18.55412,2.23784,-2.23784,18.55412,-2196.79601,-40704.15334)">
<path d="m391.5312,2149.0312-2.8438,8.1876 .0625-7.4063c-.6633-.6838-2.2938-.7837-2.9375.031l.0312,8.7187c-1.8076-2.515-3.871-4.2712-5.0625-1.3437 2.1599,2.0018 2.7939,4.0165 3.2812,5.4062 .1221.3481.1746.7595.3125,1.125 .2732,3.0194 3.2855,4.193 5.25,3.5938 1.0944-.3731 1.8219-.8852 2.5-1.625 .5319-.601 1.5624-1.5871 2.1562-2.2188 1.8452-1.9627 5.4062-4.375 5.4062-4.375 .2425-1.0307-.5555-2.0243-1.4688-2.1875l-4.5938,3.4375 4.9375-6.8438c-.0312-1.0838-1.256-2.162-2.1562-2l-5.1875,7.0626 3.2188-8.4063c-.7893-1.0938-1.7507-1.1594-2.9062-1.1563z" fill="#fff" stroke="#000"/>
<g transform="matrix(-.70086,-.1878,-.1878,.70086,1161.4665,986.44467)">
<g transform="matrix(1.44199,0,0,1.44199,-270.28472,-810.4147)">
<path d="m604.1509,1836.1333c3.1134.844 6.8377-.3659 9.1299-3.4052-3.3023.6297-6.8284.8227-9.1299,3.4052z" fill="#fff" fill-rule="evenodd"/>
<path d="m614.1058,1836.5057-.3869-3.3858-1.9401,5.3639z" fill="#fff"/>
</g>
<path d="m616.7986,1835.2634c-1.2698.7818-2.3346,1.6661-3.1741,2.663" fill="none" stroke="#000" stroke-width="1.3782"/>
</g>
</g>
</svg>
