<svg viewBox="0 0 512 512" xmlns="http://www.w3.org/2000/svg">

<g transform="matrix(18.68858,0,0,18.68858,-4644.05555,-2847.142)">
<path d="m 251.218 156.39 10.9862 -3.3828 10.9904 3.3828 c 0 12.0041 -1.947 20.3862 -10.9946 22.9514 -8.7823 -2.4899 -10.9821 -10.9802 -10.9821 -22.9514 z" fill="#fff" fill-rule="evenodd" stroke="#000"/>
<path d="m 262.959 153.034 c -3.0183 6.0576 -5.2679 11.7401 -7.0158 18.1727 l 9.6908 -17.948" fill-rule="evenodd"/>
<path d="m 266.324 154.614 c -3.1466 6.0367 -7.1798 14.122 -9.6703 21.0069 4.7954 -6.3831 8.5412 -13.6059 12.3453 -20.7822" fill-rule="evenodd"/>
<path d="m 270.194 155.825 c -3.6955 6.0367 -6.7547 12.0717 -9.0902 18.1308 l 11.7652 -17.9061" fill-rule="evenodd"/>
<path d="m 254.105 158.65 8.0185 -2.58 8.0216 2.58 c 0 9.1551 -1.4211 15.5479 -8.0246 17.5042 -6.4099 -1.899 -8.0154 -8.3742 -8.0154 -17.5042 z" fill="none" stroke="#000"/>
</g>
</svg>
