<svg viewBox="0 0 512 512" xmlns="http://www.w3.org/2000/svg">

<g transform="matrix(18.68858,0,0,18.68858,-8397.14436,-17250.95016)">
<path d="m464.8749,930.9654c-.0833.3743-.5302.5105-.8685.4125-.6315-.183-.85-.9249-.6528-1.4895 .3354-.9605 1.513-1.2747 2.4119-.9303 1.4272.5467 1.6964,2.2106 1.3271,3.5773-.4644,1.7184-2.2707,2.5813-4.0616,2.1055-5.2613-1.3979-4.8997-7.5447-11.1253-7.3003" fill="none" stroke="#fff"/>
<g transform="matrix(.91195,0,0,.91195,380.12288,755.69685)">
<path d="m88.0877,209.7613h-7.0009l-1.552,2.8012h15.0891l-5.1915-6.0582c1.4241-1.5671 3.9579-2.5645 5.6913-2.6442 .8093,2.6461 2.1269,6.6595 4.209,8.7023h3.5713c-2.7516-2.9737-4.8367-7.0598-4.8536-11.6694l.6072-2.2245c-5.453-3.4194-19.4624,4.4087-10.5698,11.0927z" fill="#fff"/>
<path d="m100.3208,202.3535c0,1.7696-.9794,3.2041-2.1876,3.2041s-2.1876-1.4345-2.1876-3.2041 .9794-3.2041 2.1876-3.2041 2.1876,1.4345 2.1876,3.2041z" fill="#fff" transform="matrix(.90638,.90638,-.90638,.90638,195.83238,-72.73435)"/>
<path d="m84.6775,204.74c.4388-5.7718 9.4332-8.8421 14.166-6.6214" fill="none" stroke="#000" stroke-width="1.0966"/>
</g>
<path d="m450.4834,927.1051v2.5222c2.7144-2.4207 5.7598-.7591 8.3413,2.7548l.5771-.8575c-3.3267-4.7619-5.6024-6.59-8.9184-4.4194z" fill="#fff" fill-rule="evenodd"/>
<path d="m465.9551,927.5693c3.4131.9868 3.566,5.3946 1.4827,7.1001l4.5744-.6957-2.318-.7792 4.157-2.4265-4.0333.1899 3.3031-4.243-4.2004,1.8729 .4669-3.5106-1.8773,2.3216-1.3381-2.2953-.217,2.4658z" fill="#fff" fill-rule="evenodd"/>
<path d="m463.7929,930.1973c-.0856,1.2539.9487,1.563 1.5983.9133l-1.5983-.9133z" fill-rule="evenodd"/>
</g>
</svg>
