<svg viewBox="0 0 512 512" xmlns="http://www.w3.org/2000/svg">

<g transform="matrix(18.68858,0,0,18.68858,-8397.14436,-17250.95016)">
<path d="m 464.875 930.965 c -0.0833 0.3743 -0.5302 0.5105 -0.8685 0.4125 -0.6315 -0.183 -0.85 -0.9249 -0.6528 -1.4895 0.3354 -0.9605 1.513 -1.2747 2.4119 -0.9303 1.4272 0.5467 1.6964 2.2106 1.3271 3.5773 -0.4644 1.7184 -2.2707 2.5813 -4.0616 2.1055 -5.2613 -1.3979 -4.8997 -7.5447 -11.1253 -7.3003" fill="none" stroke="#fff"/>
<g transform="matrix(.91195,0,0,.91195,380.12288,755.69685)">
<path d="m 88.0877 209.761 h -7.0009 l -1.552 2.8012 h 15.0891 l -5.1915 -6.0582 c 1.4241 -1.5671 3.9579 -2.5645 5.6913 -2.6442 0.8093 2.6461 2.1269 6.6595 4.209 8.7023 h 3.5713 c -2.7516 -2.9737 -4.8367 -7.0598 -4.8536 -11.6694 l 0.6072 -2.2245 c -5.453 -3.4194 -19.4624 4.4087 -10.5698 11.0927 z" fill="#fff"/>
<path d="m 100.321 202.353 c 0 1.7696 -0.9794 3.2041 -2.1876 3.2041 s -2.1876 -1.4345 -2.1876 -3.2041 0.9794 -3.2041 2.1876 -3.2041 2.1876 1.4345 2.1876 3.2041 z" fill="#fff" transform="matrix(.90638,.90638,-.90638,.90638,195.83238,-72.73435)"/>
<path d="m 84.6775 204.74 c 0.4388 -5.7718 9.4332 -8.8421 14.166 -6.6214" fill="none" stroke="#000" stroke-width="1.0966"/>
</g>
<path d="m 450.483 927.105 v 2.5222 c 2.7144 -2.4207 5.7598 -0.7591 8.3413 2.7548 l 0.5771 -0.8575 c -3.3267 -4.7619 -5.6024 -6.59 -8.9184 -4.4194 z" fill="#fff" fill-rule="evenodd"/>
<path d="m 465.955 927.569 c 3.4131 0.9868 3.566 5.3946 1.4827 7.1001 l 4.5744 -0.6957 -2.318 -0.7792 4.157 -2.4265 -4.0333 0.1899 3.3031 -4.243 -4.2004 1.8729 0.4669 -3.5106 -1.8773 2.3216 -1.3381 -2.2953 -0.217 2.4658 z" fill="#fff" fill-rule="evenodd"/>
<path d="m 463.793 930.197 c -0.0856 1.2539 0.9487 1.563 1.5983 0.9133 l -1.5983 -0.9133 z" fill-rule="evenodd"/>
</g>
</svg>
