<svg viewBox="0 0 512 512" xmlns="http://www.w3.org/2000/svg">

<g transform="matrix(18.68858,0,0,18.68858,1348.3012,-7972.21782)">
<path d="m 695.188 438.862 c 0 6.4548 -3.5398 11.6875 -7.9062 11.6875 s -7.9062 -5.2327 -7.9062 -11.6875 3.5398 -11.6875 7.9062 -11.6875 7.9062 5.2327 7.9062 11.6875 z" fill="#fff" stroke="#000" stroke-width=".8203" transform="matrix(1.13066,0,0,1.1295,-835.89804,-55.39889)"/>
<path d="m -57.6652 441.158 c 1.8949 1.802 4.3657 1.7407 6.466 -0.3301" fill="none" stroke="#000"/>
<path d="m -59.6024 441.158 c -1.8948 1.802 -4.3656 1.7407 -6.466 -0.3301" fill="none" stroke="#000"/>
<path d="m -62.7818 449.595 c 2.7466 0.6831 5.4932 0.7114 8.2398 0 -0.4754 -4.2018 -7.8269 -4.135 -8.2398 0 z" fill-rule="evenodd"/>
</g>
</svg>
