<svg viewBox="0 0 512 512" xmlns="http://www.w3.org/2000/svg">

<g transform="matrix(18.68858,0,0,18.68858,-8398.35331,-22489.79212)">
<path d="m457.5051,1223.6703c-2.3865-2.9463-7.6602-7.1402-7.1595-8.8388 1.2819-4.3487-.4245-7.2237 1.2156-8.9926 1.9203-2.071 8.1849-2.3803 11.3797.021 2.4428,1.8361 5.6697,4.0565 6.2977,5.922" fill="#fff" fill-rule="evenodd"/>
<path d="m457.3223,1221.6671c-.2356.7167.0429,2.1192 1.6275,2.1192 2.5571,0 7.3892-.016 9.9282-.016 1.6965,0 2.0158-1.779 1.7554-2.5491-.8557-2.5307-1.2468-4.648-.4496-7.0514 2.0082-6.0542-14.8957-5.6766-12.9271.4836 .7564,2.367 1.0317,4.0744.0656,7.0134z" fill="#fff" fill-rule="evenodd" stroke="#000"/>
<path d="m459.5226,1226.1119c0,.9997.5282,1.9368 1.5878,1.9288 2.7408-.021 4.3519.6519 6.3044,1.3658 3.0704,1.1226 8.6887-.6205 8.6887-2.6288v-1.5874l-16.5721-.1016-.009,1.0232z" fill="#fff" fill-rule="evenodd"/>
<path d="m467.0307,1220.8874c-.5609-.2688-2.0321-.504-2.8325.118-1.2915,1.0038-3.1223,2.328-4.4029,3.327-1.2336.9623-.1655,1.8986.9353,1.8903 2.8475-.021 5.0396.6531 6.9172,1.5568 4.7299,2.2764 12.9092-4.4522 6.0703-5.1939-2.6278-.2848-4.3869-.5966-6.6874-1.6982z" fill="#fff" fill-rule="evenodd" stroke="#000"/>
<path d="m467.1049,1208.7174c-3.9689-2.7319-9.3009-1.577-11.302,1.0994 2.9039-1.9083 9.3005-2.1739 11.3423-.7286" fill-rule="evenodd"/>
<path d="m464.4575,1206.6342c-3.9689-2.7319-9.3009-1.577-11.302,1.0994 2.9039-1.9083 9.3005-2.1739 11.3423-.7286" fill-rule="evenodd"/>
</g>
</svg>
