<svg viewBox="0 0 512 512" xmlns="http://www.w3.org/2000/svg">

<g transform="matrix(18.68858,0,0,18.68858,-8398.35331,-22489.79212)">
<path d="m 457.505 1223.67 c -2.3865 -2.9463 -7.6602 -7.1402 -7.1595 -8.8388 1.2819 -4.3487 -0.4245 -7.2237 1.2156 -8.9926 1.9203 -2.071 8.1849 -2.3803 11.3797 0.021 2.4428 1.8361 5.6697 4.0565 6.2977 5.922" fill="#fff" fill-rule="evenodd"/>
<path d="m 457.322 1221.67 c -0.2356 0.7167 0.0429 2.1192 1.6275 2.1192 2.5571 0 7.3892 -0.016 9.9282 -0.016 1.6965 0 2.0158 -1.779 1.7554 -2.5491 -0.8557 -2.5307 -1.2468 -4.648 -0.4496 -7.0514 2.0082 -6.0542 -14.8957 -5.6766 -12.9271 0.4836 0.7564 2.367 1.0317 4.0744 0.0656 7.0134 z" fill="#fff" fill-rule="evenodd" stroke="#000"/>
<path d="m 459.523 1226.11 c 0 0.9997 0.5282 1.9368 1.5878 1.9288 2.7408 -0.021 4.3519 0.6519 6.3044 1.3658 3.0704 1.1226 8.6887 -0.6205 8.6887 -2.6288 v -1.5874 l -16.5721 -0.1016 -0.009 1.0232 z" fill="#fff" fill-rule="evenodd"/>
<path d="m 467.031 1220.89 c -0.5609 -0.2688 -2.0321 -0.504 -2.8325 0.118 -1.2915 1.0038 -3.1223 2.328 -4.4029 3.327 -1.2336 0.9623 -0.1655 1.8986 0.9353 1.8903 2.8475 -0.021 5.0396 0.6531 6.9172 1.5568 4.7299 2.2764 12.9092 -4.4522 6.0703 -5.1939 -2.6278 -0.2848 -4.3869 -0.5966 -6.6874 -1.6982 z" fill="#fff" fill-rule="evenodd" stroke="#000"/>
<path d="m 467.105 1208.72 c -3.9689 -2.7319 -9.3009 -1.577 -11.302 1.0994 2.9039 -1.9083 9.3005 -2.1739 11.3423 -0.7286" fill-rule="evenodd"/>
<path d="m 464.457 1206.63 c -3.9689 -2.7319 -9.3009 -1.577 -11.302 1.0994 2.9039 -1.9083 9.3005 -2.1739 11.3423 -0.7286" fill-rule="evenodd"/>
</g>
</svg>
