<svg xmlns="http://www.w3.org/2000/svg" viewBox="0 0 512 512">
<g transform="matrix(15 0 0 15 -5924 -10969.433)">
<use width="744.094" height="1052.362" transform="translate(431.99999 728.36218)"/>
<path fill="#fff" d="m412,486c-5.5229,0-10,4.4771-10,10 0,5.5229 4.4771,10 10,10 5.5229,0 10-4.4771 10-10 0-5.5229-4.4771-10-10-10zm0,6c2.2091,0 4,1.7909 4,4 0,2.2091-1.7909,4-4,4-2.2091,0-4-1.7909-4-4 0-2.2091 1.7909-4 4-4z" transform="translate(0 252.36218)"/>
</g>
<g fill="#fff">
<g transform="matrix(15 0 0 15 -5924 -10969.433)">
<path d="m412,732.3622c-2,0-3.3333,1.3333-3.3333,2.6667 0,2.6667 2.6667,3.3333 3.3333,9.3333 .6667-6 3.3333-6.6667 3.3333-9.3333 0-1.3333-1.3333-2.6667-3.3333-2.6667z"/>
<path d="m416,748.3622c6,.6667 6.6667,3.3333 9.3333,3.3333 1.3333,0 2.6667-1.3333 2.6667-3.3333 0-2-1.3333-3.3333-2.6667-3.3333-2.6667,0-3.3333,2.6667-9.3333,3.3333z"/>
<path d="m412,752.3622c-.6667,6-3.3333,6.6667-3.3333,9.3333 0,1.3333 1.3333,2.6667 3.3333,2.6667 2,0 3.3333-1.3333 3.3333-2.6667 0-2.6667-2.6667-3.3333-3.3333-9.3333z"/>
<path d="m408,748.3622c-6-.6667-6.6667-3.3333-9.3333-3.3333-1.3333,0-2.6667,1.3333-2.6667,3.3333 0,2 1.3333,3.3333 2.6667,3.3333 2.6667,0 3.3333-2.6667 9.3333-3.3333z"/>
</g>
<g transform="matrix(10.6066 10.6066 -10.6066 10.6066 3823.6597 -12051.49979)">
<path d="m412,732.3622c-2,0-3.3333,1.3333-3.3333,2.6667 0,2.6667 2.6667,3.3333 3.3333,9.3333 .6667-6 3.3333-6.6667 3.3333-9.3333 0-1.3333-1.3333-2.6667-3.3333-2.6667z"/>
<path d="m416,748.3622c6,.6667 6.6667,3.3333 9.3333,3.3333 1.3333,0 2.6667-1.3333 2.6667-3.3333 0-2-1.3333-3.3333-2.6667-3.3333-2.6667,0-3.3333,2.6667-9.3333,3.3333z"/>
<path d="m412,752.3622c-.6667,6-3.3333,6.6667-3.3333,9.3333 0,1.3333 1.3333,2.6667 3.3333,2.6667 2,0 3.3333-1.3333 3.3333-2.6667 0-2.6667-2.6667-3.3333-3.3333-9.3333z"/>
<path d="m408,748.3622c-6-.6667-6.6667-3.3333-9.3333-3.3333-1.3333,0-2.6667,1.3333-2.6667,3.3333 0,2 1.3333,3.3333 2.6667,3.3333 2.6667,0 3.3333-2.6667 9.3333-3.3333z"/>
</g>
</g>
</svg>
