<svg viewBox="0 0 512 512" xmlns="http://www.w3.org/2000/svg">

<g transform="matrix(18.68858,0,0,18.68858,-235.07861,-44230.57933)">
<path d="m695.1875,438.8622c0,6.4548-3.5398,11.6875-7.9062,11.6875s-7.9062-5.2327-7.9062-11.6875 3.5398-11.6875 7.9062-11.6875 7.9062,5.2327 7.9062,11.6875z" fill="#fff" stroke="#000" stroke-width=".834" transform="matrix(1.27557,0,0,1.12705,-850.36884,1885.869)"/>
<path d="m21.5289,2386.4521h9.449v1.9269h-9.449z"/>
<path d="m34.5101,2379.2021c-.504,2.1484-4.2428,2.751-4.8695,3.8363 1e-05-1.3696-2.8342-3.5178-2.3095-5.7599 .5039-2.1531 3.2598-1.911 3.8124.1512 1.5465-1.5465 3.8632-.3445 3.3666,1.7724z"/>
<path d="m17.9983,2379.2021c.504,2.1484 4.2428,2.751 4.8695,3.8363-1e-05-1.3696 2.8342-3.5178 2.3095-5.7599-.5039-2.1531-3.2598-1.911-3.8124.1512-1.5465-1.5465-3.8632-.3445-3.3666,1.7724z"/>
<path d="m26.3856,2390.4333c-4.4046,0-5.0898-3.3028-5.0898-3.3028 3.0883-1.5318 7.0914-1.5318 10.1797,0 0,0-.6852,3.3028-5.0898,3.3028z" fill="none" stroke="#000"/>
</g>
</svg>
