<svg viewBox="0 0 512 512" xmlns="http://www.w3.org/2000/svg">

<g transform="matrix(18.68858,0,0,18.68858,-235.07861,-44230.57933)">
<path d="m 695.188 438.862 c 0 6.4548 -3.5398 11.6875 -7.9062 11.6875 s -7.9062 -5.2327 -7.9062 -11.6875 3.5398 -11.6875 7.9062 -11.6875 7.9062 5.2327 7.9062 11.6875 z" fill="#fff" stroke="#000" stroke-width=".834" transform="matrix(1.27557,0,0,1.12705,-850.36884,1885.869)"/>
<path d="m 21.5289 2386.45 h 9.449 v 1.9269 h -9.449 z"/>
<path d="m 34.5101 2379.2 c -0.504 2.1484 -4.2428 2.751 -4.8695 3.8363 1e-05 -1.3696 -2.8342 -3.5178 -2.3095 -5.7599 0.5039 -2.1531 3.2598 -1.911 3.8124 0.1512 1.5465 -1.5465 3.8632 -0.3445 3.3666 1.7724 z"/>
<path d="m 17.9983 2379.2 c 0.504 2.1484 4.2428 2.751 4.8695 3.8363 -1e-05 -1.3696 2.8342 -3.5178 2.3095 -5.7599 -0.5039 -2.1531 -3.2598 -1.911 -3.8124 0.1512 -1.5465 -1.5465 -3.8632 -0.3445 -3.3666 1.7724 z"/>
<path d="m 26.3856 2390.43 c -4.4046 0 -5.0898 -3.3028 -5.0898 -3.3028 3.0883 -1.5318 7.0914 -1.5318 10.1797 0 0 0 -0.6852 3.3028 -5.0898 3.3028 z" fill="none" stroke="#000"/>
</g>
</svg>
