<svg viewBox="0 0 512 512" xmlns="http://www.w3.org/2000/svg">

<g transform="matrix(18.68858,0,0,18.68858,-839.96191,-6620.50542)">
<path d="m55.875,355.0312c-4.1486,3.7333-.9474,5.8468 3.1654,2.7933 2.7631-2.0515 3.8226,1.2569 2.5533,2.863-3.1269,3.9568-9.2344,1.829-4.7812.375-6.0663-1.9556-6.4904,3.8201-4.8438,5.5938 2.0795,2.2398 6.6761,1.4049 8.8438-.375 1.9856-1.6304 1.1638-3.257-1.2188-1.9688 1.8897-2.8168 5.0975-.8875 5.0312,1.9062-.0454,1.8851-1.525,4.7502-6.6875,5.9375 10.5092,1.7128 16.9187-7.7187 11.6875-11.4375 .4068,2.2174-1.9407,4.5586-3.5312,4.3125 2.4383-6.4871-1.2549-13.0352-7.0625-7.8438-1.9274,1.7229-3.8418.1723-3.1562-2.1562z" fill="#fff" fill-rule="evenodd"/>
<path d="m365.7956,85.3447h2.8629v4.434h-2.8629z" fill="#fff" transform="rotate(68.264)"/>
<path d="m368.7981,85.9033h2.8629v4.434h-2.8629z" fill="#fff" transform="rotate(68.264)"/>
<path d="m50.8438,371.3125c1.0346-2.9308.6746-5.4729-.75-5.5-.3288-.006-.7179.1221-1.1562.4062 .0681,2.716-1.4317,5.1033-3.4688,6.9688v8.0312h9.125c.8716-.2888 1.8437-.6326 3.0625-1.1875 1.0024-.3996.4257-2.2536-.25-2.5625" fill="#fff" stroke="#000"/>
<path d="m49.0327,372.0236 10.1359-4.0409c1.7425-.6947 2.7808,1.7085.9691,2.4308l-7.31,2.9143" fill="#fff" stroke="#000"/>
<path d="m57.0982,374.7067c.6756.5809 1.1586,2.3552.4016,2.6571l-3.1474,1.2548" fill="#fff" stroke="#000"/>
<path d="m56.764,372.0017c.5947.5886.8592,1.5558.5605,2.4618l-3.3518,1.3363" fill="#fff" stroke="#000"/>
</g>
</svg>
