<svg viewBox="0 0 512 512" xmlns="http://www.w3.org/2000/svg">

<g transform="matrix(18.68858,0,0,18.68858,-6356.39185,-27904.39633)">
<path d="m 341.169 1517.16 h 17.2123 c 5.517 0 7.3814 -5.7723 5.961 -12.0672 -1.0694 1.4069 -2.4446 1.2439 -3.5021 -0.9438 -0.2095 5.7236 -4.1204 9.5448 -7.5769 8.4527 -5.3837 -0.1697 -10.7232 2.191 -12.0943 4.5583 z" fill="#fff"/>
<path d="m 351.949 1512.36 c 2.0152 2.2193 7.4005 1.5819 7.875 -2.0397 0.5383 -4.1092 -1.8608 -8.2108 -4.0397 -10.0387 -3.3463 -2.8076 -8.0407 -2.5386 -11.3022 0.3681 s -3.4097 8.2482 -0.5211 11.4822 c 2.2839 2.2748 6.2573 2.0439 8.8214 -0.5196 2.1899 -2.184 2.393 -5.569 0.4717 -7.502 -1.3769 -1.3849 -3.7889 -1.5216 -5.3106 0.071 -0.834 0.8725 -0.8075 2.678 0.011 3.6608 0.5692 0.6834 1.8512 1.0194 2.7528 0.6847 1.668 -0.4897 1.3963 -3.313 -0.8535 -2.6104" fill="#fff" stroke="#000"/>
<path d="m 361.287 1505.91 c -0.0828 -3.0928 -1.0586 -7.4338 1.2294 -7.6748" fill="none" stroke="#fff"/>
<path d="m 364.092 1506.48 c -0.814 -3.5004 -0.192 -5.9316 1.2923 -7.1123" fill="none" stroke="#fff"/>
<path d="m 364.285 1499.16 c 0 0.5529 -0.4482 1.0011 -1.0011 1.0011 s -1.0011 -0.4482 -1.0011 -1.0011 0.4482 -1.0011 1.0011 -1.0011 1.0011 0.4482 1.0011 1.0011 z" fill="#fff" transform="translate(-.3952,-1.0538)"/>
<path d="m 364.285 1499.16 c 0 0.5529 -0.4482 1.0011 -1.0011 1.0011 s -1.0011 -0.4482 -1.0011 -1.0011 0.4482 -1.0011 1.0011 -1.0011 1.0011 0.4482 1.0011 1.0011 z" fill="#fff" transform="translate(2.1866,.2371)"/>
<path d="m 348.608 1506.72 c 0 1.8869 2.8745 1.9178 2.8745 0 s -2.8745 -1.8869 -2.8745 0 z" fill="#fff"/>
</g>
</svg>
