<svg viewBox="0 0 512 512" xmlns="http://www.w3.org/2000/svg">

<g transform="matrix(18.68858,0,0,18.68858,-6356.39185,-27904.39633)">
<path d="m341.1686,1517.1585h17.2123c5.517,0 7.3814-5.7723 5.961-12.0672-1.0694,1.4069-2.4446,1.2439-3.5021-.9438-.2095,5.7236-4.1204,9.5448-7.5769,8.4527-5.3837-.1697-10.7232,2.191-12.0943,4.5583z" fill="#fff"/>
<path d="m351.9485,1512.3614c2.0152,2.2193 7.4005,1.5819 7.875-2.0397 .5383-4.1092-1.8608-8.2108-4.0397-10.0387-3.3463-2.8076-8.0407-2.5386-11.3022.3681s-3.4097,8.2482-.5211,11.4822c2.2839,2.2748 6.2573,2.0439 8.8214-.5196 2.1899-2.184 2.393-5.569.4717-7.502-1.3769-1.3849-3.7889-1.5216-5.3106.071-.834.8725-.8075,2.678.011,3.6608 .5692.6834 1.8512,1.0194 2.7528.6847 1.668-.4897 1.3963-3.313-.8535-2.6104" fill="#fff" stroke="#000"/>
<path d="m361.2869,1505.9072c-.0828-3.0928-1.0586-7.4338 1.2294-7.6748" fill="none" stroke="#fff"/>
<path d="m364.0917,1506.4828c-.814-3.5004-.192-5.9316 1.2923-7.1123" fill="none" stroke="#fff"/>
<path d="m364.2853,1499.157c0,.5529-.4482,1.0011-1.0011,1.0011s-1.0011-.4482-1.0011-1.0011 .4482-1.0011 1.0011-1.0011 1.0011.4482 1.0011,1.0011z" fill="#fff" transform="translate(-.3952,-1.0538)"/>
<path d="m364.2853,1499.157c0,.5529-.4482,1.0011-1.0011,1.0011s-1.0011-.4482-1.0011-1.0011 .4482-1.0011 1.0011-1.0011 1.0011.4482 1.0011,1.0011z" fill="#fff" transform="translate(2.1866,.2371)"/>
<path d="m348.608,1506.7243c0,1.8869 2.8745,1.9178 2.8745,0s-2.8745-1.8869-2.8745,0z" fill="#fff"/>
</g>
</svg>
