<svg viewBox="0 0 512 512" xmlns="http://www.w3.org/2000/svg">

<g transform="matrix(18.68858,0,0,18.68858,-6356.39185,-30618.22484)">
<path d="m357.5332,1640.4946-8.5644,5.8179c-1.4616.7484-5.2534.8428-7.8438.7187v7.2813c2.5603-1.1252 5.5992-1.9397 8.0625-2.2813 4.5756,1.1447 9.9579,3.2332 9.159,10.0415l2.8097-5.3591-5.7473-4.4115c2.7534-1.0083 8.0408,1.4649 7.8283,6.242l1.2942-5.5727-7.844-3.4402c2.7561-1.6029 7.5979-1.2614 9.638,3.9713l-.6976-6.3293c-4.9655.1467-10.7166-.5001-12.0728-1.6942 2.1338-1.3307 3.7639-2.6543 6.9135-.3961z" fill="#fff" fill-rule="evenodd"/>
<path d="m343.8764,1659.3007c1.2654-7.262 9.8208-7.2666 11.0342,0 1.3352,7.9954-12.4837,8.3182-11.0342,0z" fill="#fff" stroke="#000"/>
<path d="m344.0575,1649.5215 2.8548,5.1342c1.1814.8104 3.4642,1.0709 5.0912.1526l2.8548-5.2868c-1.3022-.4093-2.5708-1.4904-3.9681,0-1.0744-1.0589-2.1488-.8697-3.2232,0-1.273-1.1517-2.5487-.8994-3.6095,0z" fill="#fff" stroke="#000"/>
<path d="m352.5666,1646.7564c1.3255-.8587 2.4697-2.0413 4.3416-1.9248" fill="none" stroke="#000"/>
</g>
</svg>
