<svg viewBox="0 0 512 512" xmlns="http://www.w3.org/2000/svg">

<g transform="matrix(18.68858,0,0,18.68858,-6356.39185,-30618.22484)">
<path d="m 357.533 1640.49 -8.5644 5.8179 c -1.4616 0.7484 -5.2534 0.8428 -7.8438 0.7187 v 7.2813 c 2.5603 -1.1252 5.5992 -1.9397 8.0625 -2.2813 4.5756 1.1447 9.9579 3.2332 9.159 10.0415 l 2.8097 -5.3591 -5.7473 -4.4115 c 2.7534 -1.0083 8.0408 1.4649 7.8283 6.242 l 1.2942 -5.5727 -7.844 -3.4402 c 2.7561 -1.6029 7.5979 -1.2614 9.638 3.9713 l -0.6976 -6.3293 c -4.9655 0.1467 -10.7166 -0.5001 -12.0728 -1.6942 2.1338 -1.3307 3.7639 -2.6543 6.9135 -0.3961 z" fill="#fff" fill-rule="evenodd"/>
<path d="m 343.876 1659.3 c 1.2654 -7.262 9.8208 -7.2666 11.0342 0 1.3352 7.9954 -12.4837 8.3182 -11.0342 0 z" fill="#fff" stroke="#000"/>
<path d="m 344.058 1649.52 2.8548 5.1342 c 1.1814 0.8104 3.4642 1.0709 5.0912 0.1526 l 2.8548 -5.2868 c -1.3022 -0.4093 -2.5708 -1.4904 -3.9681 0 -1.0744 -1.0589 -2.1488 -0.8697 -3.2232 0 -1.273 -1.1517 -2.5487 -0.8994 -3.6095 0 z" fill="#fff" stroke="#000"/>
<path d="m 352.567 1646.76 c 1.3255 -0.8587 2.4697 -2.0413 4.3416 -1.9248" fill="none" stroke="#000"/>
</g>
</svg>
