<svg xmlns="http://www.w3.org/2000/svg" viewBox="0 0 512 512">
<g transform="matrix(15 0 0 15 -1041.5 -3949.4327)">
<use width="744.094" height="1052.362" transform="translate(108 260.36217)"/>
<g fill="#fff">
<path d="m93,84c-1,0-1,1-1,2v22c0,2.2091-1.7909,4-4,4-2.2091,0-4-1.7909-4-4 0,0 1-1 1-2 0-1 3-2 3-3 0-1-1-1-1-1 0,0-3,3-5,3-2,0-5-3-5-3 0,0-1,0-1,1 0,1 3,2 3,3 0,1 1,2 1,2 0,4.4183 3.5817,8 8,8 4.4183,0 8-3.5817 8-8v-22c0-1 0-2-1-2h-1z" transform="translate(0 180.36218)"/>
<path d="m92,270.362h4a1,1 0 0,1 1,1v2a1,1 0 0,1 -1,1h-4a1,1 0 0,1 -1-1v-2a1,1 0 0,1 1-1"/>
<path d="m44,752a1,1 0 1,1 -2,0 1,1 0 1,1 2,0z" transform="translate(36 -467.63784)"/>
<path d="m44,752a1,1 0 1,1 -2,0 1,1 0 1,1 2,0z" transform="translate(42 -467.63784)"/>
</g>
</g>
</svg>
