<svg xmlns="http://www.w3.org/2000/svg" viewBox="0 0 512 512">
<g transform="matrix(15 0 0 15 -1041.5 -3949.4327)">
<use width="744.094" height="1052.362" transform="translate(108 260.36217)"/>
<g fill="#fff">
<path d="m 93 84 c -1 0 -1 1 -1 2 v 22 c 0 2.2091 -1.7909 4 -4 4 -2.2091 0 -4 -1.7909 -4 -4 0 0 1 -1 1 -2 0 -1 3 -2 3 -3 0 -1 -1 -1 -1 -1 0 0 -3 3 -5 3 -2 0 -5 -3 -5 -3 0 0 -1 0 -1 1 0 1 3 2 3 3 0 1 1 2 1 2 0 4.4183 3.5817 8 8 8 4.4183 0 8 -3.5817 8 -8 v -22 c 0 -1 0 -2 -1 -2 h -1 z" transform="translate(0 180.36218)"/>
<path d="m 92 270.362 h 4 a 1 1 0 0 1 1 1 v 2 a 1 1 0 0 1 -1 1 h -4 a 1 1 0 0 1 -1 -1 v -2 a 1 1 0 0 1 1 -1"/>
<path d="m 44 752 a 1 1 0 1 1 -2 0 1 1 0 1 1 2 0 z" transform="translate(36 -467.63784)"/>
<path d="m 44 752 a 1 1 0 1 1 -2 0 1 1 0 1 1 2 0 z" transform="translate(42 -467.63784)"/>
</g>
</g>
</svg>
