<svg viewBox="0 0 512 512" xmlns="http://www.w3.org/2000/svg">

<g transform="matrix(18.79641,5.03639,-5.03639,18.79641,-8912.26876,-14403.99205)">
<path d="m653.7182,607.0749-11.8432,6.8377-11.8432-6.8377v-13.6754l11.8432-6.8377 11.8432,6.8377z" fill="#fff" transform="matrix(.91755,0,0,.91774,60.96404,54.87834)"/>
<path d="m644.6562,603.6875-5.7812,1.375v1.375l5.7812,1.3438 3.1562-2.0312-3.1562-2.0625z"/>
<path d="m655.1562,603.6875-3.125,2.0625 3.125,2.0312 5.7188-1.3438v-1.4062l-5.7188-1.3438z"/>
<path d="m649.9134,604.0578 3.3588,3.3588-3.3588-1.485-3.3588,1.485 3.3588-3.3588z" fill="#fff"/>
<path d="m649.0485,600.1927-4.0814-4.3192-1.1908.6875 1.7269,5.6786 3.3372,1.7178 .2081-3.7647z"/>
<path d="m654.2985,609.286-3.3487-1.6751-.1966,3.722 4.0231,4.2807 1.2179-.7031-1.6957-5.6245z"/>
<path d="m654.2699,602.2439 1.6998-5.6942-1.1908-.6875-4.0543,4.3348 .181,3.749 3.3643-1.7021z"/>
<path d="m649.0198,611.3372-.2237-3.7376-3.3216,1.6907-1.6957,5.6244 1.2178.7031 4.0231-4.2807z"/>
<path d="m653.7182,607.0749-11.8432,6.8377-11.8432-6.8377v-13.6754l11.8432-6.8377 11.8432,6.8377z" fill="none" stroke="#fff" stroke-width=".9969" transform="matrix(.56799,0,0,.56811,285.33311,264.73626)"/>
</g>
</svg>
