<svg viewBox="0 0 512 512" xmlns="http://www.w3.org/2000/svg">

<g transform="matrix(18.79641,5.03639,-5.03639,18.79641,-8912.26876,-14403.99205)">
<path d="m 653.718 607.075 -11.8432 6.8377 -11.8432 -6.8377 v -13.6754 l 11.8432 -6.8377 11.8432 6.8377 z" fill="#fff" transform="matrix(.91755,0,0,.91774,60.96404,54.87834)"/>
<path d="m 644.656 603.688 -5.7812 1.375 v 1.375 l 5.7812 1.3438 3.1562 -2.0312 -3.1562 -2.0625 z"/>
<path d="m 655.156 603.688 -3.125 2.0625 3.125 2.0312 5.7188 -1.3438 v -1.4062 l -5.7188 -1.3438 z"/>
<path d="m 649.913 604.058 3.3588 3.3588 -3.3588 -1.485 -3.3588 1.485 3.3588 -3.3588 z" fill="#fff"/>
<path d="m 649.048 600.193 -4.0814 -4.3192 -1.1908 0.6875 1.7269 5.6786 3.3372 1.7178 0.2081 -3.7647 z"/>
<path d="m 654.298 609.286 -3.3487 -1.6751 -0.1966 3.722 4.0231 4.2807 1.2179 -0.7031 -1.6957 -5.6245 z"/>
<path d="m 654.27 602.244 1.6998 -5.6942 -1.1908 -0.6875 -4.0543 4.3348 0.181 3.749 3.3643 -1.7021 z"/>
<path d="m 649.02 611.337 -0.2237 -3.7376 -3.3216 1.6907 -1.6957 5.6244 1.2178 0.7031 4.0231 -4.2807 z"/>
<path d="m 653.718 607.075 -11.8432 6.8377 -11.8432 -6.8377 v -13.6754 l 11.8432 -6.8377 11.8432 6.8377 z" fill="none" stroke="#fff" stroke-width=".9969" transform="matrix(.56799,0,0,.56811,285.33311,264.73626)"/>
</g>
</svg>
