<svg viewBox="0 0 512 512" xmlns="http://www.w3.org/2000/svg">

<g transform="matrix(18.68858,0,0,18.68858,-7718.03244,-29260.68452)">
<g transform="matrix(-1,0,0,1,671.12419,181.93903)">
<path d="m171.0657,1357.8026c0,.9775-1.6912,1.7698-3.7774,1.7698s-3.7774-.7923-3.7774-1.7698 1.6912-1.7698 3.7774-1.7698 3.7774.7924 3.7774,1.7698z" fill="#fff" transform="matrix(-.95571,.55177,.55177,.95569,-350.79092,2.6874)"/>
<path d="m253.0554,1385.7864-4.8832,5.0809c-3.9878-2.5854-9.3603-2.1317-12.8555,1.3612-4.0176,4.016-4.0166,10.5091.002,14.526s10.5168,4.018 14.5346.0002c3.4958-3.4942 3.9509-8.8623 1.3621-12.8478l5.023-4.9429z" fill="none" stroke="#fff"/>
<path d="m1156.6069,801.9561h8.8241v3.4947h-8.8241z" fill="#fff" stroke="#000" transform="matrix(.70711,.7071,-.70711,.7071,0,0)"/>
</g>
<path d="m434.5731,1584.3258c0,3.5386-2.8686,6.4073-6.4073,6.4073s-6.4073-2.8687-6.4073-6.4073 2.8686-6.4073 6.4073-6.4073 6.4073,2.8687 6.4073,6.4073z" fill="#fff" transform="matrix(1.3573,0,0,1.21086,-153.19802,-334.14185)"/>
<path d="m434.5731,1584.3258c0,3.5386-2.8686,6.4073-6.4073,6.4073s-6.4073-2.8687-6.4073-6.4073 2.8686-6.4073 6.4073-6.4073 6.4073,2.8687 6.4073,6.4073z" transform="matrix(1.02839,-.27556,.25698,.95908,-416.9489,182.68067)"/>
<path d="m280.4955,810.3641-8.4361,4.8706-8.4361-4.8706v-9.7412l8.4361-4.8706 8.4361,4.8706z" fill="#fff" transform="matrix(.57307,-.04352,.04361,.57434,240.80723,1131.97858)"/>
<g transform="matrix(.74285,-.05641,.05641,.74285,181.17211,998.01046)">
<path d="m269.3193,808.1452h13.5234" fill="none" stroke="#000" stroke-width="1.3423"/>
<path d="m272.7002,802.2894 6.7617,11.7116" fill="none" stroke="#000" stroke-width="1.3423"/>
<path d="m279.4619,802.2894-6.7617,11.7116" fill="none" stroke="#000" stroke-width="1.3423"/>
</g>
<path d="m279.6608,809.0732c0,1.5377-1.2465,2.7842-2.7842,2.7842s-2.7842-1.2466-2.7842-2.7842 1.2466-2.7842 2.7842-2.7842 2.7842,1.2465 2.7842,2.7842z" stroke="#fff" stroke-width="1.3423" transform="matrix(.74285,-.05641,.05641,.74285,180.52881,997.36592)"/>
<path d="m280.4955,810.3641-8.4361,4.8706-8.4361-4.8706v-9.7412l8.4361-4.8706 8.4361,4.8706z" fill="#fff" transform="matrix(.15364,-.01167,.01169,.15398,375.34351,1465.6334)"/>
<path d="m280.4955,810.3641-8.4361,4.8706-8.4361-4.8706v-9.7412l8.4361-4.8706 8.4361,4.8706z" fill="#fff" transform="matrix(.15364,-.01167,.01169,.15398,381.17154,1468.3225)"/>
<path d="m437.7294,1586.8864-1.3531-.6516-.1139-1.4999 1.2392-.8484 1.3531.6515z" fill="#fff"/>
<path d="m280.4955,810.3641-8.4361,4.8706-8.4361-4.8706v-9.7412l8.4361-4.8706 8.4361,4.8706z" fill="#fff" transform="matrix(.15364,-.01167,.01169,.15398,385.97104,1458.1683)"/>
<path d="m280.4955,810.3641-8.4361,4.8706-8.4361-4.8706v-9.7412l8.4361-4.8706 8.4361,4.8706z" fill="#fff" transform="matrix(.15364,-.01167,.01169,.15398,374.83894,1458.8902)"/>
<path d="m280.4955,810.3641-8.4361,4.8706-8.4361-4.8706v-9.7412l8.4361-4.8706 8.4361,4.8706z" fill="#fff" transform="matrix(.15364,-.01167,.01169,.15398,379.94153,1455.6608)"/>
</g>
</svg>
