<svg viewBox="0 0 512 512" xmlns="http://www.w3.org/2000/svg">

<path d="m693.2501,472.3934c0,3.6416-2.9521,6.5938-6.5938,6.5938s-6.5938-2.9521-6.5938-6.5938 2.9521-6.5938 6.5938-6.5938 6.5938,2.9521 6.5938,6.5938z" fill="#fff" transform="matrix(17.25591,3.62839,-3.62839,17.25591,-9877.12407,-10388.49759)"/>
<path d="m690.8483,478.2104-11.9162,3.1929-8.7233-8.7233 3.1929-11.9162 11.9162-3.193 8.7233,8.7233z" fill="#fff" transform="matrix(5.572,-.30425,.30425,5.572,-3649.43026,-2325.97095)"/>
<path d="m690.8483,478.2104-11.9162,3.1929-8.7233-8.7233 3.1929-11.9162 11.9162-3.193 8.7233,8.7233z" fill="#fff" transform="matrix(5.572,-.30425,.30425,5.572,-3518.45602,-2208.88531)"/>
<path d="m690.8483,478.2104-11.9162,3.1929-8.7233-8.7233 3.1929-11.9162 11.9162-3.193 8.7233,8.7233z" fill="#fff" transform="matrix(5.572,-.30425,.30425,5.572,-3554.64664,-2036.76854)"/>
<path d="m690.8483,478.2104-11.9162,3.1929-8.7233-8.7233 3.1929-11.9162 11.9162-3.193 8.7233,8.7233z" fill="#fff" transform="matrix(-5.572,.30425,-.30425,-5.572,4164.94381,2835.06562)"/>
<path d="m690.8483,478.2104-11.9162,3.1929-8.7233-8.7233 3.1929-11.9162 11.9162-3.193 8.7233,8.7233z" fill="#fff" transform="matrix(-5.572,.30425,-.30425,-5.572,4033.96957,2717.98017)"/>
<path d="m690.8483,478.2104-11.9162,3.1929-8.7233-8.7233 3.1929-11.9162 11.9162-3.193 8.7233,8.7233z" fill="#fff" transform="matrix(-5.572,.30425,-.30425,-5.572,4070.16019,2545.8634)"/>
<g transform="matrix(19.46191,4.09224,-4.09224,19.46191,-11132.18594,-11700.57626)">
<path d="m675.5,470.4247h17.3125" fill="none" stroke="#000" stroke-width=".9397"/>
<path d="m679.8282,462.9281 8.6563,14.9931" fill="none" stroke="#000" stroke-width=".9397"/>
<path d="m688.4844,462.9281-8.6562,14.9931" fill="none" stroke="#000" stroke-width=".9397"/>
</g>
<path d="m693.2501,472.3934c0,3.6416-2.9521,6.5938-6.5938,6.5938s-6.5938-2.9521-6.5938-6.5938 2.9521-6.5938 6.5938-6.5938 6.5938,2.9521 6.5938,6.5938z" fill="#fff" transform="matrix(11.49497,2.41699,-2.41699,11.49497,-6493.53237,-6835.25077)"/>
<path d="m683.3026,471.0263-1.8638.4994-1.3644-1.3644 .4994-1.8638 1.8638-.4994 1.3644,1.3644z" transform="matrix(23.1886,13.38794,-13.38794,23.1886,-9267.63827,-19766.18688)"/>
</svg>
