<svg viewBox="0 0 512 512" xmlns="http://www.w3.org/2000/svg">

<g transform="matrix(18.68858,0,0,18.68858,-7718.03244,-29260.68452)">
<g transform="matrix(-1,0,0,1,671.12419,181.93903)">
<path d="m 171.066 1357.8 c 0 0.9775 -1.6912 1.7698 -3.7774 1.7698 s -3.7774 -0.7923 -3.7774 -1.7698 1.6912 -1.7698 3.7774 -1.7698 3.7774 0.7924 3.7774 1.7698 z" fill="#fff" transform="matrix(-.95571,.55177,.55177,.95569,-350.79092,2.6874)"/>
<path d="m 253.055 1385.79 -4.8832 5.0809 c -3.9878 -2.5854 -9.3603 -2.1317 -12.8555 1.3612 -4.0176 4.016 -4.0166 10.5091 0.002 14.526 s 10.5168 4.018 14.5346 0.0002 c 3.4958 -3.4942 3.9509 -8.8623 1.3621 -12.8478 l 5.023 -4.9429 z" fill="none" stroke="#fff"/>
<path d="m 1156.61 801.956 h 8.8241 v 3.4947 h -8.8241 z" fill="#fff" stroke="#000" transform="matrix(.70711,.7071,-.70711,.7071,0,0)"/>
</g>
<path d="m 434.573 1584.33 c 0 3.5386 -2.8686 6.4073 -6.4073 6.4073 s -6.4073 -2.8687 -6.4073 -6.4073 2.8686 -6.4073 6.4073 -6.4073 6.4073 2.8687 6.4073 6.4073 z" fill="#fff" transform="matrix(1.3573,0,0,1.21086,-153.19802,-334.14185)"/>
<path d="m 434.573 1584.33 c 0 3.5386 -2.8686 6.4073 -6.4073 6.4073 s -6.4073 -2.8687 -6.4073 -6.4073 2.8686 -6.4073 6.4073 -6.4073 6.4073 2.8687 6.4073 6.4073 z" transform="matrix(1.02839,-.27556,.25698,.95908,-416.9489,182.68067)"/>
<path d="m 280.495 810.364 -8.4361 4.8706 -8.4361 -4.8706 v -9.7412 l 8.4361 -4.8706 8.4361 4.8706 z" fill="#fff" transform="matrix(.57307,-.04352,.04361,.57434,240.80723,1131.97858)"/>
<g transform="matrix(.74285,-.05641,.05641,.74285,181.17211,998.01046)">
<path d="m 269.319 808.145 h 13.5234" fill="none" stroke="#000" stroke-width="1.3423"/>
<path d="m 272.7 802.289 6.7617 11.7116" fill="none" stroke="#000" stroke-width="1.3423"/>
<path d="m 279.462 802.289 -6.7617 11.7116" fill="none" stroke="#000" stroke-width="1.3423"/>
</g>
<path d="m 279.661 809.073 c 0 1.5377 -1.2465 2.7842 -2.7842 2.7842 s -2.7842 -1.2466 -2.7842 -2.7842 1.2466 -2.7842 2.7842 -2.7842 2.7842 1.2465 2.7842 2.7842 z" stroke="#fff" stroke-width="1.3423" transform="matrix(.74285,-.05641,.05641,.74285,180.52881,997.36592)"/>
<path d="m 280.495 810.364 -8.4361 4.8706 -8.4361 -4.8706 v -9.7412 l 8.4361 -4.8706 8.4361 4.8706 z" fill="#fff" transform="matrix(.15364,-.01167,.01169,.15398,375.34351,1465.6334)"/>
<path d="m 280.495 810.364 -8.4361 4.8706 -8.4361 -4.8706 v -9.7412 l 8.4361 -4.8706 8.4361 4.8706 z" fill="#fff" transform="matrix(.15364,-.01167,.01169,.15398,381.17154,1468.3225)"/>
<path d="m 437.729 1586.89 -1.3531 -0.6516 -0.1139 -1.4999 1.2392 -0.8484 1.3531 0.6515 z" fill="#fff"/>
<path d="m 280.495 810.364 -8.4361 4.8706 -8.4361 -4.8706 v -9.7412 l 8.4361 -4.8706 8.4361 4.8706 z" fill="#fff" transform="matrix(.15364,-.01167,.01169,.15398,385.97104,1458.1683)"/>
<path d="m 280.495 810.364 -8.4361 4.8706 -8.4361 -4.8706 v -9.7412 l 8.4361 -4.8706 8.4361 4.8706 z" fill="#fff" transform="matrix(.15364,-.01167,.01169,.15398,374.83894,1458.8902)"/>
<path d="m 280.495 810.364 -8.4361 4.8706 -8.4361 -4.8706 v -9.7412 l 8.4361 -4.8706 8.4361 4.8706 z" fill="#fff" transform="matrix(.15364,-.01167,.01169,.15398,379.94153,1455.6608)"/>
</g>
</svg>
