<svg viewBox="0 0 512 512" xmlns="http://www.w3.org/2000/svg">

<g transform="matrix(18.68858,0,0,18.68858,-4021.01232,-7249.09341)">
<path d="m235.75,409.2371c0,3.1756-2.5744,5.75-5.75,5.75s-5.75-2.5744-5.75-5.75 2.5744-5.75 5.75-5.75 5.75,2.5744 5.75,5.75z" fill="#fff" stroke="#000" stroke-width=".8214" transform="matrix(-1.21739,0,0,1.21739,508.70174,-90.4021)"/>
<path d="m224.875,405.2996-3.75-3.6875-2.1875.8125-1.875-2.25" fill="none" stroke="#fff"/>
<path d="m235.75,409.2371c0,3.1756-2.5744,5.75-5.75,5.75s-5.75-2.5744-5.75-5.75 2.5744-5.75 5.75-5.75 5.75,2.5744 5.75,5.75z" fill="#fff" stroke="#000" stroke-width="1.1871" transform="matrix(-.84239,0,0,.84239,423.26424,53.65558)"/>
<path d="m114.5345,433.6963h5.0245v5.8798h-5.0245z" fill="#fff" transform="matrix(-.71009,.70411,.70411,.71009,0,0)"/>
<path d="m112.3426,439.1367h9.25v1.875h-9.25z" fill="#fff" stroke="#000" transform="matrix(-.71009,.70411,.70411,.71009,0,0)"/>
<path d="m230.2075,399.2828c0,.1587-.1286.2873-.2873.2873s-.2873-.1286-.2873-.2873 .1286-.2873.2873-.2873 .2873.1286.2873.2873z" transform="matrix(-2.53846,0,0,2.53846,812.31215,-615.29762)"/>
<path d="m230.2075,399.2828c0,.1587-.1286.2873-.2873.2873s-.2873-.1286-.2873-.2873 .1286-.2873.2873-.2873 .2873.1286.2873.2873z" transform="matrix(-2.53846,0,0,2.53846,815.29526,-617.17587)"/>
<path d="m230.2075,399.2828c0,.1587-.1286.2873-.2873.2873s-.2873-.1286-.2873-.2873 .1286-.2873.2873-.2873 .2873.1286.2873.2873z" transform="matrix(-2.53846,0,0,2.53846,815.18477,-606.41459)"/>
<path d="m230.2075,399.2828c0,.1587-.1286.2873-.2873.2873s-.2873-.1286-.2873-.2873 .1286-.2873.2873-.2873 .2873.1286.2873.2873z" transform="matrix(-2.53846,0,0,2.53846,815.09638,-603.49777)"/>
<path d="m230.2075,399.2828c0,.1587-.1286.2873-.2873.2873s-.2873-.1286-.2873-.2873 .1286-.2873.2873-.2873 .2873.1286.2873.2873z" transform="matrix(-2.53846,0,0,2.53846,814.2125,-601.15548)"/>
<path d="m220.1875,401.6746-.6875-3.875" fill="none" stroke="#fff"/>
<path d="m232.375,405.4871 3.75-3.6875 2.1875.8125 1.875-2.25" fill="none" stroke="#fff"/>
<path d="m241.0998,405.0661-3.0121-2.5329" fill="none" stroke="#fff"/>
<path d="m231.2392,398.5084c1.2192-.4919 3.5808-.0862 5.182.5689-1.3144,1.035-3.7213,1.7434-5.0435,1.4634" fill="#fff" fill-rule="evenodd" stroke="#000"/>
</g>
</svg>
