<svg viewBox="0 0 512 512" xmlns="http://www.w3.org/2000/svg">

<g transform="matrix(18.68858,0,0,18.68858,-4993.42773,-26544.2056)">
<g transform="matrix(1.19423,-.31999,.31999,1.19423,-283.85332,-241.28927)">
<path d="m 94.875 1430.24 v 3.75" fill="none" stroke="#fff" stroke-width=".8088"/>
<path d="m 96.4988 1431.17 -3.2476 1.875" fill="none" stroke="#fff" stroke-width=".8088"/>
<path d="m 93.2512 1431.17 3.2476 1.875" fill="none" stroke="#fff" stroke-width=".8088"/>
</g>
<g transform="matrix(1.47766,.15894,-.15894,1.47766,367.93579,-688.71488)">
<path d="m 94.875 1430.24 v 3.75" fill="none" stroke="#fff" stroke-width=".6729"/>
<path d="m 96.4988 1431.17 -3.2476 1.875" fill="none" stroke="#fff" stroke-width=".6729"/>
<path d="m 93.2512 1431.17 3.2476 1.875" fill="none" stroke="#fff" stroke-width=".6729"/>
</g>
<g transform="matrix(-.87424,.87424,-.87424,-.87424,1607.8716,2608.6018)">
<path d="m 94.875 1430.24 v 3.75" fill="none" stroke="#fff" stroke-width=".8088"/>
<path d="m 96.4988 1431.17 -3.2476 1.875" fill="none" stroke="#fff" stroke-width=".8088"/>
<path d="m 93.2512 1431.17 3.2476 1.875" fill="none" stroke="#fff" stroke-width=".8088"/>
</g>
<g transform="matrix(-1.03355,-.39963,.39963,-1.03355,-183.41861,2962.4931)">
<path d="m 94.875 1430.24 v 3.75" fill="none" stroke="#fff" stroke-width=".9024"/>
<path d="m 96.4988 1431.17 -3.2476 1.875" fill="none" stroke="#fff" stroke-width=".9024"/>
<path d="m 93.2512 1431.17 3.2476 1.875" fill="none" stroke="#fff" stroke-width=".9024"/>
</g>
<path d="m 278.344 1420.99 c -3.1839 0 -5.782 2.5472 -5.8177 5.7263 -0.1736 -0.022 -0.3435 -0.032 -0.523 -0.032 -2.3356 0 -4.2489 1.8827 -4.2489 4.221 s 1.9133 4.2537 4.2489 4.2537 c 1.1346 0 2.1488 -0.4492 2.9089 -1.1779 0.5908 0.6457 1.443 1.0471 2.3859 1.0471 1.1665 0 2.1774 -0.6093 2.7454 -1.5379 0.8754 1.4535 2.4311 2.4214 4.2489 2.4214 1.5697 0 2.9724 -0.7313 3.8894 -1.8651 0.5709 0.9149 1.5892 1.5378 2.7454 1.5378 1.7835 0 3.2357 -1.4538 3.2357 -3.2394 0 -1.6408 -1.2286 -2.9974 -2.8108 -3.2067 0.1046 -0.3684 0.1961 -0.7434 0.1961 -1.1451 0 -2.3383 -1.9133 -4.2539 -4.2489 -4.2539 -1.3618 0 -2.5597 0.6674 -3.3337 1.6688 -0.6286 -2.5312 -2.8997 -4.4174 -5.6216 -4.4174 z" fill="#fff" stroke="#000"/>
</g>
</svg>
