<svg viewBox="0 0 512 512" xmlns="http://www.w3.org/2000/svg">

<g transform="matrix(18.68858,0,0,18.68858,-4021.01232,-7249.09341)">
<path d="m 235.75 409.237 c 0 3.1756 -2.5744 5.75 -5.75 5.75 s -5.75 -2.5744 -5.75 -5.75 2.5744 -5.75 5.75 -5.75 5.75 2.5744 5.75 5.75 z" fill="#fff" stroke="#000" stroke-width=".8214" transform="matrix(-1.21739,0,0,1.21739,508.70174,-90.4021)"/>
<path d="m 224.875 405.3 -3.75 -3.6875 -2.1875 0.8125 -1.875 -2.25" fill="none" stroke="#fff"/>
<path d="m 235.75 409.237 c 0 3.1756 -2.5744 5.75 -5.75 5.75 s -5.75 -2.5744 -5.75 -5.75 2.5744 -5.75 5.75 -5.75 5.75 2.5744 5.75 5.75 z" fill="#fff" stroke="#000" stroke-width="1.1871" transform="matrix(-.84239,0,0,.84239,423.26424,53.65558)"/>
<path d="m 114.534 433.696 h 5.0245 v 5.8798 h -5.0245 z" fill="#fff" transform="matrix(-.71009,.70411,.70411,.71009,0,0)"/>
<path d="m 112.343 439.137 h 9.25 v 1.875 h -9.25 z" fill="#fff" stroke="#000" transform="matrix(-.71009,.70411,.70411,.71009,0,0)"/>
<path d="m 230.208 399.283 c 0 0.1587 -0.1286 0.2873 -0.2873 0.2873 s -0.2873 -0.1286 -0.2873 -0.2873 0.1286 -0.2873 0.2873 -0.2873 0.2873 0.1286 0.2873 0.2873 z" transform="matrix(-2.53846,0,0,2.53846,812.31215,-615.29762)"/>
<path d="m 230.208 399.283 c 0 0.1587 -0.1286 0.2873 -0.2873 0.2873 s -0.2873 -0.1286 -0.2873 -0.2873 0.1286 -0.2873 0.2873 -0.2873 0.2873 0.1286 0.2873 0.2873 z" transform="matrix(-2.53846,0,0,2.53846,815.29526,-617.17587)"/>
<path d="m 230.208 399.283 c 0 0.1587 -0.1286 0.2873 -0.2873 0.2873 s -0.2873 -0.1286 -0.2873 -0.2873 0.1286 -0.2873 0.2873 -0.2873 0.2873 0.1286 0.2873 0.2873 z" transform="matrix(-2.53846,0,0,2.53846,815.18477,-606.41459)"/>
<path d="m 230.208 399.283 c 0 0.1587 -0.1286 0.2873 -0.2873 0.2873 s -0.2873 -0.1286 -0.2873 -0.2873 0.1286 -0.2873 0.2873 -0.2873 0.2873 0.1286 0.2873 0.2873 z" transform="matrix(-2.53846,0,0,2.53846,815.09638,-603.49777)"/>
<path d="m 230.208 399.283 c 0 0.1587 -0.1286 0.2873 -0.2873 0.2873 s -0.2873 -0.1286 -0.2873 -0.2873 0.1286 -0.2873 0.2873 -0.2873 0.2873 0.1286 0.2873 0.2873 z" transform="matrix(-2.53846,0,0,2.53846,814.2125,-601.15548)"/>
<path d="m 220.188 401.675 -0.6875 -3.875" fill="none" stroke="#fff"/>
<path d="m 232.375 405.487 3.75 -3.6875 2.1875 0.8125 1.875 -2.25" fill="none" stroke="#fff"/>
<path d="m 241.1 405.066 -3.0121 -2.5329" fill="none" stroke="#fff"/>
<path d="m 231.239 398.508 c 1.2192 -0.4919 3.5808 -0.0862 5.182 0.5689 -1.3144 1.035 -3.7213 1.7434 -5.0435 1.4634" fill="#fff" fill-rule="evenodd" stroke="#000"/>
</g>
</svg>
