<svg xmlns="http://www.w3.org/2000/svg" viewBox="0 0 512 512">
<g stroke-linejoin="round">
<g fill-rule="evenodd">
<g>
<path fill="#fff" stroke="#000" stroke-width="5.414" d="m155.0743,86.3165a66.7681,65.6912 0 1,1 -133.5362,0 66.7681,65.6912 0 1,1 133.5362,0z" transform="matrix(-2.95956 -1.88098 -1.90232 2.99314 680.74848 165.29458)"/>
</g>
<g stroke-width="2.5">
<path d="m407.8832,215.9646-45.9766-90.9687-95.4809-.3438-19.5522,100.5137 86.0824,50.8406 74.9273-60.0418z"/>
<path d="m162.6261,262.2259-70.5359-46.2376-47.8949,58.7506 39.6893,101.0656 77.125-12.2211 1.6166-101.3575z"/>
<path d="m393.9477,400.0971-63.8449-34.0685-91.1265,48.1618 8.255,59.2545 91.4443-11.0159 55.272-62.3319z"/>
<path d="m454.6812,344.3992 5.0739-90.1893 16.3791-30.7573c6.6454,4.2236 5.6233,99.5386-13.6927,129.2184-12.8064,7.6938-7.7602-8.2718-7.7602-8.2718z"/>
<path d="m229.8579,35.615-30.916,48.6437-90.9858,45.3963-26.691-20.657c19.7887-34.0718 93.6859-71.0732 107.6974-69.6319 19.1331-9.5529 41.675-4.9778 40.8954-3.7512z"/>
</g>
</g>
<g>
<path fill="none" stroke="#000" stroke-width="18.689" d="m464.106,255.2871-67.6478-42.4107"/>
<path fill-rule="evenodd" stroke-width="2.5" d="m411.6297,95.0509-33.4912-8.8976-37.3472-36.1245c0,0 65.274,30.2899 70.8385,45.0221z"/>
</g>
<g fill="none" stroke="#000">
<g stroke-width="18.689">
<path d="m379.6397,82.8531-22.507,47.1565"/>
<path d="m461.374,348.7257-85.2142,54.7183"/>
<path d="m328.5125,375.818 3.6494-106.9603"/>
<path d="m273.5013,132.2805-77.4151-51.801"/>
<path d="m253.5516,221.8949-96.4686,44.4146"/>
<path d="m108.2118,122.2374-15.0518,107.2402"/>
<path d="m249.6553,418.7959-96.0518-61.7797"/>
<path d="m252.0904,462.9845-75.3909,16.4663"/>
<path d="m84.1094,351.6601 16.3791,84.1729"/>
<path d="m54.0678,276.4241-32.3012-8.1206"/>
</g>
<g>
<path stroke-width="7.755" d="m338.4921,464.6737"/>
<path stroke-width="18.689" d="m343.3196,467.347-8.5963-11.9485"/>
</g>
</g>
</g>
</svg>
