<svg xmlns="http://www.w3.org/2000/svg" viewBox="0 0 512 512">
<g stroke-linejoin="round">
<g fill-rule="evenodd">
<g>
<path fill="#fff" stroke="#000" stroke-width="5.414" d="m155.0743,86.3165a66.7681,65.6912 0 1,1 -133.5362,0 66.7681,65.6912 0 1,1 133.5362,0z" transform="matrix(-2.95956 -1.88098 -1.90232 2.99314 680.74848 165.29458)"/>
</g>
<g stroke-width="2.5">
<path d="m 407.883 215.965 -45.9766 -90.9687 -95.4809 -0.3438 -19.5522 100.514 86.0824 50.8406 74.9273 -60.0418 z"/>
<path d="m 162.626 262.226 -70.5359 -46.2376 -47.8949 58.7506 39.6893 101.066 77.125 -12.2211 1.6166 -101.358 z"/>
<path d="m 393.948 400.097 -63.8449 -34.0685 -91.1265 48.1618 8.255 59.2545 91.4443 -11.0159 55.272 -62.3319 z"/>
<path d="m 454.681 344.399 5.0739 -90.1893 16.3791 -30.7573 c 6.6454 4.2236 5.6233 99.5386 -13.6927 129.218 -12.8064 7.6938 -7.7602 -8.2718 -7.7602 -8.2718 z"/>
<path d="m 229.858 35.615 -30.916 48.6437 -90.9858 45.3963 -26.691 -20.657 c 19.7887 -34.0718 93.6859 -71.0732 107.697 -69.6319 19.1331 -9.5529 41.675 -4.9778 40.8954 -3.7512 z"/>
</g>
</g>
<g>
<path fill="none" stroke="#000" stroke-width="18.689" d="m464.106,255.2871-67.6478-42.4107"/>
<path fill-rule="evenodd" stroke-width="2.5" d="m411.6297,95.0509-33.4912-8.8976-37.3472-36.1245c0,0 65.274,30.2899 70.8385,45.0221z"/>
</g>
<g fill="none" stroke="#000">
<g stroke-width="18.689">
<path d="m 379.64 82.8531 -22.507 47.1565"/>
<path d="m 461.374 348.726 -85.2142 54.7183"/>
<path d="m 328.512 375.818 3.6494 -106.96"/>
<path d="m 273.501 132.28 -77.4151 -51.801"/>
<path d="m 253.552 221.895 -96.4686 44.4146"/>
<path d="m 108.212 122.237 -15.0518 107.24"/>
<path d="m 249.655 418.796 -96.0518 -61.7797"/>
<path d="m 252.09 462.985 -75.3909 16.4663"/>
<path d="m 84.1094 351.66 16.3791 84.1729"/>
<path d="m 54.0678 276.424 -32.3012 -8.1206"/>
</g>
<g>
<path stroke-width="7.755" d="m338.4921,464.6737"/>
<path stroke-width="18.689" d="m343.3196,467.347-8.5963-11.9485"/>
</g>
</g>
</g>
</svg>
