<svg viewBox="0 0 512 512" xmlns="http://www.w3.org/2000/svg">

<g transform="matrix(18.68858,0,0,18.68858,-13164.09258,-22486.99257)">
<path d="m722.7595,1204.4093c1.9541,2.9862-.4701,5.0675-3.3313,5.6924l.639,2.385c.8394-1.2066 4.3823-1.7039 5.5672.5023 .5133-1.7917 4.0222-2.2492 5.122-.782-.8479-4.6801-3.3767-8.2855-7.9969-7.7977z" fill="#fff" fill-rule="evenodd"/>
<path d="m713.5655,1204.4093c-1.9541,2.9862.4701,5.0675 3.3313,5.6924l-.639,2.385c-.8394-1.2066-4.3823-1.7039-5.5672.5023-.5133-1.7917-4.0222-2.2492-5.122-.782 .8479-4.6801 3.3767-8.2855 7.9969-7.7977z" fill="#fff" fill-rule="evenodd"/>
<path d="m715.3308,1205.5217c-1.2141,1.6646-.925,5.4833.9321,6.2299-.2678,1.0774.6381,2.2396 1.8829,2.2396 1.1621,0 2.3484-1.1438 1.8806-2.2531 1.624-.9525 2.025-4.4236.772-5.9992-1.3955.7324-2.1075,2.4015-2.7068,3.3661-.5264-1.0407-1.4574-2.8027-2.7609-3.5833z" fill="#fff" fill-rule="evenodd" stroke="#000"/>
<path d="m705.4491,1223.5534c2.5724,3.5572 7.2656,5.9625 12.662,5.9625s10.0896-2.4053 12.662-5.9625c-3.3016,2.5809-7.7496,4.1632-12.662,4.1632s-9.3604-1.5823-12.662-4.1632z" fill="#fff"/>
<path d="m707.8319,1219.7732c1.8513,3.223 5.7401,5.4686 10.2792,5.4686 4.5226,0 8.4195-2.2295 10.2792-5.4334-2.5985,2.2684-6.2407,3.7047-10.2792,3.7047-4.0599,0-7.6781-1.4504-10.2792-3.7399z" fill="#fff"/>
<path d="m711.4277,1216.8357c.9668,2.411 3.5971,4.1562 6.6834,4.1562s5.7166-1.7452 6.6834-4.1562c-1.6189,1.6265-4.0256,2.6562-6.6834,2.6562s-5.0646-1.0297-6.6834-2.6562z" fill="#fff"/>
<path d="m713.8299,1213.9963c.3712,1.8801 2.1433,3.2973 4.2812,3.2973s3.9101-1.4172 4.2812-3.2973c-.995,1.1922-2.5288,1.9668-4.2812,1.9668s-3.2862-.7746-4.2812-1.9668z" fill="#fff"/>
</g>
</svg>
