<svg viewBox="0 0 512 512" xmlns="http://www.w3.org/2000/svg">

<g transform="matrix(18.68858,0,0,18.68858,-9760.64675,-6147.71342)">
<g transform="matrix(1.18136,0,0,1.21365,254.07419,-472.79471)">
<path d="m246.6361,664.502-2.0089,3.4796-8.7946-5.0776 10.8035,1.598z" fill="#fff"/>
<path d="m229.1339,669.4072 5.0775,8.7946-3.4796,2.0089-1.598-10.8035z" fill="#fff"/>
<path d="m232.3097,665.8839c3.0356,1.4559 6.4195,4.6909 6.0989,7.3754-2.752.5221-4.9932-3.8554-9.0065-2.4821" fill="#fff" fill-rule="evenodd"/>
</g>
<path d="m522.7726,329.4554 .1274,25.299c2.4501,1.0167 7.7237.0484 4.649-4.8993-6.7516-10.8646 4.6325-22.9282 16.0857-14.8646 4.2081,2.9627 3.7349-4.0366 5.0029-5.4816l-25.865-.0534z" fill="#fff" stroke="#000"/>
<path d="m548.4252,339.0183c-.6088,3.1944-2.6328,6.8803-5.851,10.0986-3.1995,3.1997-6.8929,5.2528-10.0745,5.8747 3.6292.7541 8.1775-.7686 11.6789-4.2702 3.5144-3.5145 5.0201-8.0671 4.2465-11.7032z" fill="#fff"/>
<path d="m544.8226,338.4305c-.4921,2.5817-2.1278,5.5606-4.7288,8.1617-2.5859,2.586-5.5709,4.2453-8.1422,4.748 2.9331.6094 6.609-.6211 9.4389-3.4512 2.8403-2.8404 4.0572-6.5198 3.432-9.4585z" fill="#fff"/>
<path d="m541.2854,338.2004c-.3675,1.9282-1.5892,4.153-3.5317,6.0956-1.9313,1.9314-4.1607,3.1707-6.081,3.546 2.1906.4552 4.936-.4639 7.0495-2.5775 2.1213-2.1214 3.0302-4.8694 2.5632-7.0642z" fill="#fff"/>
</g>
</svg>
