<svg viewBox="0 0 512 512" xmlns="http://www.w3.org/2000/svg">

<g transform="matrix(18.68858,0,0,18.68858,-13164.09258,-22486.99257)">
<path d="m 722.76 1204.41 c 1.9541 2.9862 -0.4701 5.0675 -3.3313 5.6924 l 0.639 2.385 c 0.8394 -1.2066 4.3823 -1.7039 5.5672 0.5023 0.5133 -1.7917 4.0222 -2.2492 5.122 -0.782 -0.8479 -4.6801 -3.3767 -8.2855 -7.9969 -7.7977 z" fill="#fff" fill-rule="evenodd"/>
<path d="m 713.566 1204.41 c -1.9541 2.9862 0.4701 5.0675 3.3313 5.6924 l -0.639 2.385 c -0.8394 -1.2066 -4.3823 -1.7039 -5.5672 0.5023 -0.5133 -1.7917 -4.0222 -2.2492 -5.122 -0.782 0.8479 -4.6801 3.3767 -8.2855 7.9969 -7.7977 z" fill="#fff" fill-rule="evenodd"/>
<path d="m 715.331 1205.52 c -1.2141 1.6646 -0.925 5.4833 0.9321 6.2299 -0.2678 1.0774 0.6381 2.2396 1.8829 2.2396 1.1621 0 2.3484 -1.1438 1.8806 -2.2531 1.624 -0.9525 2.025 -4.4236 0.772 -5.9992 -1.3955 0.7324 -2.1075 2.4015 -2.7068 3.3661 -0.5264 -1.0407 -1.4574 -2.8027 -2.7609 -3.5833 z" fill="#fff" fill-rule="evenodd" stroke="#000"/>
<path d="m 705.449 1223.55 c 2.5724 3.5572 7.2656 5.9625 12.662 5.9625 s 10.0896 -2.4053 12.662 -5.9625 c -3.3016 2.5809 -7.7496 4.1632 -12.662 4.1632 s -9.3604 -1.5823 -12.662 -4.1632 z" fill="#fff"/>
<path d="m 707.832 1219.77 c 1.8513 3.223 5.7401 5.4686 10.2792 5.4686 4.5226 0 8.4195 -2.2295 10.2792 -5.4334 -2.5985 2.2684 -6.2407 3.7047 -10.2792 3.7047 -4.0599 0 -7.6781 -1.4504 -10.2792 -3.7399 z" fill="#fff"/>
<path d="m 711.428 1216.84 c 0.9668 2.411 3.5971 4.1562 6.6834 4.1562 s 5.7166 -1.7452 6.6834 -4.1562 c -1.6189 1.6265 -4.0256 2.6562 -6.6834 2.6562 s -5.0646 -1.0297 -6.6834 -2.6562 z" fill="#fff"/>
<path d="m 713.83 1214 c 0.3712 1.8801 2.1433 3.2973 4.2812 3.2973 s 3.9101 -1.4172 4.2812 -3.2973 c -0.995 1.1922 -2.5288 1.9668 -4.2812 1.9668 s -3.2862 -0.7746 -4.2812 -1.9668 z" fill="#fff"/>
</g>
</svg>
