<svg viewBox="0 0 512 512" xmlns="http://www.w3.org/2000/svg">

<g transform="matrix(-18.68858,0,0,-18.68858,11640.36575,38614.55678)">
<path d="m621.7677,2054.116c0,7.1741-5.8158,12.99-12.99,12.99s-12.99-5.8159-12.99-12.99 5.8158-12.99 12.99-12.99 12.99,5.8158 12.99,12.99z" fill="#fff" stroke="#000" stroke-width=".9855" transform="matrix(1.01466,0,0,-1.01466,-8.57109,4136.7271)"/>
<path d="m621.7677,2054.116c0,7.1741-5.8158,12.99-12.99,12.99s-12.99-5.8159-12.99-12.99 5.8158-12.99 12.99-12.99 12.99,5.8158 12.99,12.99z" transform="matrix(.77713,0,0,-.77713,135.46461,3647.8851)"/>
<path d="m621.7677,2054.116c0,7.1741-5.8158,12.99-12.99,12.99s-12.99-5.8159-12.99-12.99 5.8158-12.99 12.99-12.99 12.99,5.8158 12.99,12.99z" fill="#fff" transform="matrix(.54252,0,0,-.54252,277.67682,3164.762)"/>
<path d="m621.7677,2054.116c0,7.1741-5.8158,12.99-12.99,12.99s-12.99-5.8159-12.99-12.99 5.8158-12.99 12.99-12.99 12.99,5.8158 12.99,12.99z" transform="matrix(.34897,0,0,-.34897,394.74289,2766.0484)"/>
<path d="m612.4512,2065.4764-9.9372-20.9949 12.854,20.6719"/>
<path d="m622.7615,2055.7393-20.7283-11.2323 20.4053,14.1493"/>
<path d="m620.0816,2061.0975-17.6614-16.5901 16.4813,19.2772"/>
<path d="m622.7615,2050.0288-20.6141-5.3955 20.291,7.8844"/>
<path d="m606.8881,2066.1128-4.2527-21.6425 6.7415,21.3195"/>
<path d="m606.1771,2045.6694c0,1.815-1.4713,3.2863-3.2862,3.2863s-3.2862-1.4713-3.2862-3.2863c0-1.8149 1.4713-3.2862 3.2862-3.2862s3.2862,1.4713 3.2862,3.2862z" fill="#fff" stroke="#000" transform="translate(1.6989,1.0089)"/>
</g>
</svg>
