<svg viewBox="0 0 512 512" xmlns="http://www.w3.org/2000/svg">

<g transform="matrix(18.68858,0,0,18.68858,-11800.96445,-27220.26293)">
<path d="m642.1327,1477.0206c.8094-4.9819 4.8518-4.2544 5.2907,0l2.5351-.9378c-1.598-7.6712-9.2646-6.1241-9.8466-.3411z" fill="#fff"/>
<path d="m640.1972,1475.6565c-4.0057,0-4.3547,6.4793 0,6.4793s4.0057-6.4793 0-6.4793z" fill="#fff"/>
<path d="m649.2339,1475.6565c-4.0057,0-4.3547,6.4793 0,6.4793s4.0057-6.4793 0-6.4793z" fill="#fff"/>
<path d="m635.0993,1483.4998c1.0116-5.0102 6.1004-3.265 6.9481,0z" fill="#fff" stroke="#000"/>
<path d="m654.0081,1483.4998c-1.0116-5.0102-6.1004-3.265-6.9481,0z" fill="#fff" stroke="#000"/>
<path d="m640.796,1473.4155 8.11-.037-1.3723-5.6774h-5.274z" fill="#fff"/>
<path d="m640.2385,1472.7627c-2.8198,0-3.0655,4.5611 0,4.5611s2.8198-4.5611 0-4.5611z" fill="#fff" stroke="#000"/>
<path d="m650.5339,1472.7627c-2.8198,0-3.0655,4.5611 0,4.5611s2.8198-4.5611 0-4.5611z" fill="#fff" stroke="#000"/>
<path d="m636.0119,1472.61-1.7085-1.8529c.8874-4.2034 2.718-6.7985 5.9915-6.9338l.654,2.296c-2.7875.9351-4.4647,3.0647-4.937,6.4907z" fill="#fff"/>
<path d="m652.2576,1473.0084 1.7084-1.8529c-.8874-4.2036-2.718-6.7986-5.9916-6.9339l-.6536,2.2959c2.7875.9352 4.4648,3.0649 4.9371,6.4909z" fill="#fff"/>
<path d="m640.4748,1469.0795c2.8757,1.9919 5.7514,1.5456 8.6271,0 2.1059-1.1318 2.6015-8.2308 0-6.2355-3.2084,2.4611-5.613,1.7141-8.6271,0-2.5119-1.4282-1.9031,4.9172 0,6.2355z" fill="#fff" stroke="#000"/>
<path d="m645.9556,1463.8296c0,2.0224-1.6395,3.6618-3.6618,3.6618s-3.6618-1.6394-3.6618-3.6618 1.6395-3.6618 3.6618-3.6618 3.6618,1.6394 3.6618,3.6618z" fill="#fff" stroke="#000" stroke-width=".874" transform="matrix(1.14414,0,0,1.14414,-90.02405,-213.48099)"/>
<path d="m633.6514,1472.0488c-1.6738-3.6443.7813-5.0681 2.5743-4.5899 2.0502.5469 2.9188,3.4462.5869,4.9851" fill="#fff" stroke="#000"/>
<path d="m635.796,1470.9789c-2.7238-.7298-4.1415,3.6123-1.1805,4.4057s3.9042-3.6759 1.1805-4.4057z" fill="#fff" stroke="#000"/>
<path d="m654.3779,1473.5116c-3.9929-.3727-3.9984-3.2108-2.6877-4.5243 1.5005-1.5004 4.444-.8047 4.6108,1.9841" fill="#fff" stroke="#000"/>
<path d="m654.5237,1471.1195c-1.9939,1.9939 1.0576,5.3928 3.2251,3.2251s-1.2313-5.2191-3.2251-3.2251z" fill="#fff" stroke="#000"/>
<path d="m642.239,1462.6569c-.286-.789-.3237-1.593-.1265-2.3817 2.2097-1.0914 3.2894-1.082 5.5162,0 .2041.8165.1888,1.6499-.1265,2.4667-2.4979.589-2.8917.5904-5.2633-.085z"/>
<path d="m644.9028,1459.1494c-1.9982,3.2706 3.0462,4.0558 1.8922.3784" fill="#fff"/>
</g>
</svg>
