<svg viewBox="0 0 512 512" xmlns="http://www.w3.org/2000/svg">

<g transform="matrix(18.68858,0,0,18.68858,-11800.96445,-27220.26293)">
<path d="m 642.133 1477.02 c 0.8094 -4.9819 4.8518 -4.2544 5.2907 0 l 2.5351 -0.9378 c -1.598 -7.6712 -9.2646 -6.1241 -9.8466 -0.3411 z" fill="#fff"/>
<path d="m 640.197 1475.66 c -4.0057 0 -4.3547 6.4793 0 6.4793 s 4.0057 -6.4793 0 -6.4793 z" fill="#fff"/>
<path d="m 649.234 1475.66 c -4.0057 0 -4.3547 6.4793 0 6.4793 s 4.0057 -6.4793 0 -6.4793 z" fill="#fff"/>
<path d="m 635.099 1483.5 c 1.0116 -5.0102 6.1004 -3.265 6.9481 0 z" fill="#fff" stroke="#000"/>
<path d="m 654.008 1483.5 c -1.0116 -5.0102 -6.1004 -3.265 -6.9481 0 z" fill="#fff" stroke="#000"/>
<path d="m 640.796 1473.42 8.11 -0.037 -1.3723 -5.6774 h -5.274 z" fill="#fff"/>
<path d="m 640.239 1472.76 c -2.8198 0 -3.0655 4.5611 0 4.5611 s 2.8198 -4.5611 0 -4.5611 z" fill="#fff" stroke="#000"/>
<path d="m 650.534 1472.76 c -2.8198 0 -3.0655 4.5611 0 4.5611 s 2.8198 -4.5611 0 -4.5611 z" fill="#fff" stroke="#000"/>
<path d="m 636.012 1472.61 -1.7085 -1.8529 c 0.8874 -4.2034 2.718 -6.7985 5.9915 -6.9338 l 0.654 2.296 c -2.7875 0.9351 -4.4647 3.0647 -4.937 6.4907 z" fill="#fff"/>
<path d="m 652.258 1473.01 1.7084 -1.8529 c -0.8874 -4.2036 -2.718 -6.7986 -5.9916 -6.9339 l -0.6536 2.2959 c 2.7875 0.9352 4.4648 3.0649 4.9371 6.4909 z" fill="#fff"/>
<path d="m 640.475 1469.08 c 2.8757 1.9919 5.7514 1.5456 8.6271 0 2.1059 -1.1318 2.6015 -8.2308 0 -6.2355 -3.2084 2.4611 -5.613 1.7141 -8.6271 0 -2.5119 -1.4282 -1.9031 4.9172 0 6.2355 z" fill="#fff" stroke="#000"/>
<path d="m 645.956 1463.83 c 0 2.0224 -1.6395 3.6618 -3.6618 3.6618 s -3.6618 -1.6394 -3.6618 -3.6618 1.6395 -3.6618 3.6618 -3.6618 3.6618 1.6394 3.6618 3.6618 z" fill="#fff" stroke="#000" stroke-width=".874" transform="matrix(1.14414,0,0,1.14414,-90.02405,-213.48099)"/>
<path d="m 633.651 1472.05 c -1.6738 -3.6443 0.7813 -5.0681 2.5743 -4.5899 2.0502 0.5469 2.9188 3.4462 0.5869 4.9851" fill="#fff" stroke="#000"/>
<path d="m 635.796 1470.98 c -2.7238 -0.7298 -4.1415 3.6123 -1.1805 4.4057 s 3.9042 -3.6759 1.1805 -4.4057 z" fill="#fff" stroke="#000"/>
<path d="m 654.378 1473.51 c -3.9929 -0.3727 -3.9984 -3.2108 -2.6877 -4.5243 1.5005 -1.5004 4.444 -0.8047 4.6108 1.9841" fill="#fff" stroke="#000"/>
<path d="m 654.524 1471.12 c -1.9939 1.9939 1.0576 5.3928 3.2251 3.2251 s -1.2313 -5.2191 -3.2251 -3.2251 z" fill="#fff" stroke="#000"/>
<path d="m 642.239 1462.66 c -0.286 -0.789 -0.3237 -1.593 -0.1265 -2.3817 2.2097 -1.0914 3.2894 -1.082 5.5162 0 0.2041 0.8165 0.1888 1.6499 -0.1265 2.4667 -2.4979 0.589 -2.8917 0.5904 -5.2633 -0.085 z"/>
<path d="m 644.903 1459.15 c -1.9982 3.2706 3.0462 4.0558 1.8922 0.3784" fill="#fff"/>
</g>
</svg>
