<svg viewBox="0 0 512 512" xmlns="http://www.w3.org/2000/svg">

<g transform="matrix(18.68858,0,0,18.68858,-12481.96595,-29255.80337)">
<path d="m 692.462 1581.16 c 0.202 -6.4362 -9.8816 -10.9582 -10.8283 -14.4914 -1.0344 3.8606 -10.6457 7.7753 -10.8602 14.4914 -0.206 6.4497 7.7451 7.8489 10.8602 2.4534 3.1912 5.5273 10.6292 3.8884 10.8283 -2.4534 z" fill="#fff"/>
<path d="m 681.491 1580.53 4.4288 11.6723 h -8.8576 z" fill="#fff"/>
<path d="m 681.424 1592.5 v -1.6029" fill="none" stroke="#000"/>
<path d="m 681.554 1584.74 -1.7233 4.3208 h 3.4216 z"/>
<path d="m 678.99 1582.2 c 0 1.4701 -1.1917 2.6618 -2.6617 2.6618 s -2.6617 -1.1917 -2.6617 -2.6618 1.1917 -2.6617 2.6617 -2.6617 2.6617 1.1917 2.6617 2.6617 z" stroke="#fff" stroke-width=".6044" transform="matrix(1.65444,0,0,-1.65444,-442.96443,4199.628)"/>
<path d="m 678.806 1592.5 0.7932 -2.3301" fill="none" stroke="#000"/>
<path d="m 684.173 1592.5 -0.7932 -2.3301" fill="none" stroke="#000"/>
<path d="m 678.99 1582.2 c 0 1.4701 -1.1917 2.6618 -2.6617 2.6618 s -2.6617 -1.1917 -2.6617 -2.6618 1.1917 -2.6617 2.6617 -2.6617 2.6617 1.1917 2.6617 2.6617 z" stroke="#fff" stroke-width=".6044" transform="matrix(1.65444,0,0,-1.65444,-431.91246,4199.628)"/>
<path d="m 673.748 1578.48 c 0.4567 2.5611 4.3977 4.4453 6.3721 3.3314 l -1.2956 -4.7328 z" fill="#fff"/>
<path d="m 689.294 1578.48 c -0.4567 2.5611 -4.3977 4.4453 -6.3721 3.3314 l 1.2956 -4.7328 z" fill="#fff"/>
<path d="m 677.462 1581.54 c 0 0.5529 -0.4482 1.0011 -1.0011 1.0011 s -1.0011 -0.4482 -1.0011 -1.0011 0.4482 -1.0011 1.0011 -1.0011 1.0011 0.4482 1.0011 1.0011 z" fill="#fff" transform="matrix(.99038,0,0,.99038,6.34617,15.77057)"/>
<path d="m 677.462 1581.54 c 0 0.5529 -0.4482 1.0011 -1.0011 1.0011 s -1.0011 -0.4482 -1.0011 -1.0011 0.4482 -1.0011 1.0011 -1.0011 1.0011 0.4482 1.0011 1.0011 z" fill="#fff" transform="matrix(.99038,0,0,.99038,16.3141,15.77057)"/>
</g>
</svg>
