<svg viewBox="0 0 512 512" xmlns="http://www.w3.org/2000/svg">

<g transform="matrix(18.68858,0,0,18.68858,-12481.96595,-29255.80337)">
<path d="m692.462,1581.1648c.202-6.4362-9.8816-10.9582-10.8283-14.4914-1.0344,3.8606-10.6457,7.7753-10.8602,14.4914-.206,6.4497 7.7451,7.8489 10.8602,2.4534 3.1912,5.5273 10.6292,3.8884 10.8283-2.4534z" fill="#fff"/>
<path d="m681.4908,1580.532 4.4288,11.6723h-8.8576z" fill="#fff"/>
<path d="m681.4238,1592.5001v-1.6029" fill="none" stroke="#000"/>
<path d="m681.5539,1584.7358-1.7233,4.3208h3.4216z"/>
<path d="m678.9896,1582.1998c0,1.4701-1.1917,2.6618-2.6617,2.6618s-2.6617-1.1917-2.6617-2.6618 1.1917-2.6617 2.6617-2.6617 2.6617,1.1917 2.6617,2.6617z" stroke="#fff" stroke-width=".6044" transform="matrix(1.65444,0,0,-1.65444,-442.96443,4199.628)"/>
<path d="m678.8062,1592.5001 .7932-2.3301" fill="none" stroke="#000"/>
<path d="m684.1735,1592.5001-.7932-2.3301" fill="none" stroke="#000"/>
<path d="m678.9896,1582.1998c0,1.4701-1.1917,2.6618-2.6617,2.6618s-2.6617-1.1917-2.6617-2.6618 1.1917-2.6617 2.6617-2.6617 2.6617,1.1917 2.6617,2.6617z" stroke="#fff" stroke-width=".6044" transform="matrix(1.65444,0,0,-1.65444,-431.91246,4199.628)"/>
<path d="m673.7476,1578.4819c.4567,2.5611 4.3977,4.4453 6.3721,3.3314l-1.2956-4.7328z" fill="#fff"/>
<path d="m689.2944,1578.4819c-.4567,2.5611-4.3977,4.4453-6.3721,3.3314l1.2956-4.7328z" fill="#fff"/>
<path d="m677.4621,1581.536c0,.5529-.4482,1.0011-1.0011,1.0011s-1.0011-.4482-1.0011-1.0011 .4482-1.0011 1.0011-1.0011 1.0011.4482 1.0011,1.0011z" fill="#fff" transform="matrix(.99038,0,0,.99038,6.34617,15.77057)"/>
<path d="m677.4621,1581.536c0,.5529-.4482,1.0011-1.0011,1.0011s-1.0011-.4482-1.0011-1.0011 .4482-1.0011 1.0011-1.0011 1.0011.4482 1.0011,1.0011z" fill="#fff" transform="matrix(.99038,0,0,.99038,16.3141,15.77057)"/>
</g>
</svg>
