<svg viewBox="0 0 512 512" xmlns="http://www.w3.org/2000/svg">

<g transform="matrix(18.68858,0,0,18.68858,-4320.03329,-38101.76623)">
<path d="m242.1526,2049.3784-6.9132.813-5.1376,4.7179 .4926-5.1468-5.4172,2.4867 3.8547-5.79-4.2149-3.433 4.9801-.2517 .7649-4.712 3.3411,3.4434 5.1341-2.4885-2.0799,4.3321 5.7141,1.1094-4.7057,2.3241z" fill="#fff" transform="matrix(.96593,-.25882,.25882,.96593,-513.591,132.12033)"/>
<path d="m245.3907,2049.3261-3.9662,3.9661 2.0719,2.0719c-.2796.7509-.444,1.5491-.444,2.3974 0,3.8185 3.078,6.926 6.8965,6.926s6.9261-3.1075 6.9261-6.926-3.1076-6.8963-6.9261-6.8963c-.8998,0-1.7571.1608-2.5455.4736l-2.0127-2.0127z" stroke="#fff"/>
<path d="m244.3236,2052.3385c-1.2747-2.855-3.7527-2.5697-3.4768-5.4823" fill="none" stroke="#000"/>
<path d="m255.724,2058.2302c0,1.7462-1.4156,3.1618-3.1618,3.1618s-3.1618-1.4156-3.1618-3.1618 1.4156-3.1618 3.1618-3.1618 3.1618,1.4156 3.1618,3.1618z" fill="#fff" transform="matrix(1.12179,1.12179,-.8782,.8782,1776.5199,-35.27797)"/>
<path d="m249.8915,2045.9663 3.9597-2.4242 1.2121,1.1313-1.6162.862z" fill="#fff"/>
<path d="m235.1555,2044.4044-1.2043-1.7617-1.8567-.064 1.1423,1.6658z" fill="#fff"/>
<path d="m238.5569,2061.8375 .9235-1.9237-.3776-3.3923-1.3667,3.5746z" fill="#fff"/>
<path d="m232.3924,2053.4716 2.0132-.4298 1.3044-2.2829-2.6667.9906z" fill="#fff"/>
<path d="m245.9301,2057.2522 4.8355,4.8635 3.0495-.5478-.6695-3.6278 2.8623-1.0647-2.4421-.9618 .6445-2.5559-2.4264,1.216-2.0313-2.14 .0977,2.5797-3.1071-.3829z"/>
</g>
</svg>
