<svg viewBox="0 0 512 512" xmlns="http://www.w3.org/2000/svg">

<g transform="matrix(18.68858,0,0,18.68858,-8397.39146,-7720.11635)">
<path d="m 463.231 434.538 c -0.9698 2.4172 -0.8385 3.0993 -0.1483 4.9931 -1.6359 -1.4381 -2.3628 -1.7797 -5.1302 -2.1982 2.3161 -0.1795 3.6733 -0.4882 5.2785 -2.7949 z" fill="#fff" fill-rule="evenodd"/>
<g stroke="#000" stroke-width=".9242" transform="matrix(1.01289,0,0,.94469,-92.23402,-50.95951)">
<path d="m 561.247 492.443 c -3.1837 3.2786 -8.5964 6.5643 -12.2505 6.6027 0.0234 3.6587 -7.5102 8.5186 -13.4824 11.4216 v 6.58 c 10.6332 -2.239 25.681 -8.3315 25.7329 -24.6043 z" fill="#fff" stroke="#000" stroke-width=".9242"/>
<path d="m 535.189 513.816 c 11.2972 -3.5688 20.6033 -9.9313 19.3007 -17.4396" fill="none" stroke="#000" stroke-width="1.0223"/>
</g>
<path d="m 471.848 428.403 c 1.7525 -1.1122 2.0894 -1.5939 2.4958 -3.4946 -0.0334 2.0539 0.2916 2.6921 1.4927 4.2985 -1.2423 -0.8853 -2.069 -1.2375 -3.9885 -0.8038 z" fill="#fff" fill-rule="evenodd"/>
<path d="m 466.654 418.328 c 1.7428 -1.3972 2.3776 -1.5626 4.5672 -0.8018 -1.2587 -1.3808 -1.1416 -1.9735 -0.2949 -3.53 -1.8252 1.8056 -2.8844 1.3588 -4.7672 0.2582 1.6616 1.4902 2.3921 2.1792 0.495 4.0735 z" fill="#fff" fill-rule="evenodd"/>
<path d="m 457.621 436.351 c -2.4944 0.7179 -3.2168 0.0153 -4.3876 -1.2574 0.2069 1.3216 -0.1192 2.377 -1.5424 3.3769 2.3093 -0.7953 2.8064 -0.0714 4.0768 1.0062 -0.409 -1.4359 -0.2808 -1.9435 1.8532 -3.1257 z" fill="#fff" fill-rule="evenodd"/>
<path d="m 454.269 428.505 c -0.2686 -2.8515 -0.5417 -4.6102 -3.7404 -5.6857 2.6257 0.0287 4.2982 -0.5326 5.7588 -3.7527 -0.2537 3.7021 -0.042 4.6188 2.1935 6.3224 -2.2756 -0.952 -3.1771 -0.0388 -4.2119 3.116 z" fill="#fff" fill-rule="evenodd"/>
<path d="m 471.911 429.862 c -2.4087 2.6032 -2.6208 3.7921 -0.7531 6.6341 -1.8601 -2.2166 -3.4053 -2.2923 -7.0077 -0.3839 2.9498 -2.685 2.0825 -4.2033 1.5368 -6.81 1.5075 1.8972 3.171 2.976 6.2241 0.5597 z" fill="#fff" fill-rule="evenodd"/>
<path d="m 462.216 416.89 c 0.5891 1.88 0.9962 2.2522 2.5256 2.9719 -1.6688 0.0209 -2.1141 -0.0999 -3.8077 1.2305 1.0459 -1.1792 1.5424 -2.2465 1.2821 -4.2024 z" fill="#fff" fill-rule="evenodd"/>
</g>
</svg>
