<svg viewBox="0 0 512 512" xmlns="http://www.w3.org/2000/svg">

<g transform="matrix(18.68858,0,0,18.68858,-13166.22434,-40151.38781)">
<path d="m719.0938,2153.6562c-.0236,1.0219.3559,2.0781 1.2812,2.625-.155.3665-.25.7647-.25,1.1876 0,1.6914 1.4737,4.101 3.0625,3.5206 1.4758-.5391 3.0625-1.8292 3.0625-3.5206-.6872-4.0782-4.8076-1.7069-7.1562-3.8126z" fill="#fff"/>
<path d="m725.125,2159.4503c2.0181-.5703 4.7898-.624 6.1256.846-.5118-4.1206-3.7697-4.4653-6.3168-4.4397" fill="#fff"/>
<path d="m708.9375,2157.4688 .15,2.3062-3.0924-1.0199 1.8112,2.8387-2.0563.9687c4.8126,1.5795 10.7764,4.5452 14.75,2.5313 2.6273-1.3315 3.8092-3.8885 2.6875-5.625-2.6603-2.8244-7.5564-1.0494-9.1813,2.6448z" fill="#fff"/>
<path d="m723.4334,2160.0791c0,.379-.3072.6862-.6862.6862s-.6862-.3072-.6862-.6862 .3072-.6862.6862-.6862 .6862.3073.6862.6862z" transform="matrix(1.06189,0,0,1.06189,-43.75801,-136.99202)"/>
<path d="m716.9888,2164.9696-1.4598,6.4401" fill="none" stroke="#fff"/>
<path d="m713.6113,2170.1215 2.7478-2.3184 1.3739,3.1198" fill="none" stroke="#fff"/>
<path d="m719.7656,2164.5555 3.0769,5.8428" fill="none" stroke="#fff"/>
<path d="m724.3062,2168.6726-3.2542-1.5283-.6647,3.1217" fill="none" stroke="#fff"/>
</g>
</svg>
