<svg viewBox="0 0 512 512" xmlns="http://www.w3.org/2000/svg">

<g transform="matrix(18.68858,0,0,18.68858,-4320.03329,-38101.76623)">
<path d="m 242.153 2049.38 -6.9132 0.813 -5.1376 4.7179 0.4926 -5.1468 -5.4172 2.4867 3.8547 -5.79 -4.2149 -3.433 4.9801 -0.2517 0.7649 -4.712 3.3411 3.4434 5.1341 -2.4885 -2.0799 4.3321 5.7141 1.1094 -4.7057 2.3241 z" fill="#fff" transform="matrix(.96593,-.25882,.25882,.96593,-513.591,132.12033)"/>
<path d="m 245.391 2049.33 -3.9662 3.9661 2.0719 2.0719 c -0.2796 0.7509 -0.444 1.5491 -0.444 2.3974 0 3.8185 3.078 6.926 6.8965 6.926 s 6.9261 -3.1075 6.9261 -6.926 -3.1076 -6.8963 -6.9261 -6.8963 c -0.8998 0 -1.7571 0.1608 -2.5455 0.4736 l -2.0127 -2.0127 z" stroke="#fff"/>
<path d="m 244.324 2052.34 c -1.2747 -2.855 -3.7527 -2.5697 -3.4768 -5.4823" fill="none" stroke="#000"/>
<path d="m 255.724 2058.23 c 0 1.7462 -1.4156 3.1618 -3.1618 3.1618 s -3.1618 -1.4156 -3.1618 -3.1618 1.4156 -3.1618 3.1618 -3.1618 3.1618 1.4156 3.1618 3.1618 z" fill="#fff" transform="matrix(1.12179,1.12179,-.8782,.8782,1776.5199,-35.27797)"/>
<path d="m 249.892 2045.97 3.9597 -2.4242 1.2121 1.1313 -1.6162 0.862 z" fill="#fff"/>
<path d="m 235.155 2044.4 -1.2043 -1.7617 -1.8567 -0.064 1.1423 1.6658 z" fill="#fff"/>
<path d="m 238.557 2061.84 0.9235 -1.9237 -0.3776 -3.3923 -1.3667 3.5746 z" fill="#fff"/>
<path d="m 232.392 2053.47 2.0132 -0.4298 1.3044 -2.2829 -2.6667 0.9906 z" fill="#fff"/>
<path d="m 245.93 2057.25 4.8355 4.8635 3.0495 -0.5478 -0.6695 -3.6278 2.8623 -1.0647 -2.4421 -0.9618 0.6445 -2.5559 -2.4264 1.216 -2.0313 -2.14 0.0977 2.5797 -3.1071 -0.3829 z"/>
</g>
</svg>
