<svg viewBox="0 0 512 512" xmlns="http://www.w3.org/2000/svg">

<g transform="matrix(18.68858,0,0,18.68858,-2953.44861,-24503.54081)">
<path d="m 592.29 496.841 c 0 2.2943 -1.3653 4.1543 -3.0494 4.1543 s -3.0494 -1.8599 -3.0494 -4.1543 1.3653 -4.1543 3.0494 -4.1543 3.0494 1.8599 3.0494 4.1543 z" fill="#fff" transform="matrix(-.86381,-.00188,.00188,.86381,680.64118,891.32391)"/>
<path d="m 162.389 1312.29 3.6834 5.5649 -1.4574 2.6798 -2.6122 -1.5976 0.3863 -6.6471 z" fill="#fff"/>
<path d="m 164.174 1319.05 5.1506 19.0772" fill="none" stroke="#fff"/>
<path d="m 145.915 1328.08 c 0 2.9519 -2.393 5.3449 -5.3449 5.3449 s -5.3449 -2.393 -5.3449 -5.3449 2.393 -5.3448 5.3449 -5.3448 5.3449 2.3929 5.3449 5.3448 z" stroke="#fff" stroke-width=".7952" transform="matrix(1.25759,0,0,1.25759,.13662,-339.98081)"/>
<path d="m 145.915 1328.08 c 0 2.9519 -2.393 5.3449 -5.3449 5.3449 s -5.3449 -2.393 -5.3449 -5.3449 2.393 -5.3448 5.3449 -5.3448 5.3449 2.3929 5.3449 5.3448 z" fill="#fff" transform="matrix(.95908,0,0,.95908,42.02459,56.46723)"/>
<path d="m 172.565 1317.42 1.6107 -4.87 -1.6107 -0.1671 -1.6107 0.1671 1.6107 4.87 z" fill="#fff"/>
<path d="m 172.525 1323.23 v -4.3141" fill="none" stroke="#000"/>
<path d="m 169.833 1318.59 2.6151 0.6748 3.1116 -0.6749" fill="none" stroke="#000"/>
<path d="m 163.914 1318.09 2.2076 3.9598 -2.1288 0.5648 -0.0788 -4.5246 z" fill="#fff"/>
</g>
</svg>
