<svg viewBox="0 0 512 512" xmlns="http://www.w3.org/2000/svg">

<g transform="matrix(18.68858,0,0,18.68858,-8397.39146,-7720.11635)">
<path d="m463.2312,434.5375c-.9698,2.4172-.8385,3.0993-.1483,4.9931-1.6359-1.4381-2.3628-1.7797-5.1302-2.1982 2.3161-.1795 3.6733-.4882 5.2785-2.7949z" fill="#fff" fill-rule="evenodd"/>
<g stroke="#000" stroke-width=".9242" transform="matrix(1.01289,0,0,.94469,-92.23402,-50.95951)">
<path d="m561.2475,492.4429c-3.1837,3.2786-8.5964,6.5643-12.2505,6.6027 .0234,3.6587-7.5102,8.5186-13.4824,11.4216v6.58c10.6332-2.239 25.681-8.3315 25.7329-24.6043z" fill="#fff" stroke="#000" stroke-width=".9242"/>
<path d="m535.1888,513.8158c11.2972-3.5688 20.6033-9.9313 19.3007-17.4396" fill="none" stroke="#000" stroke-width="1.0223"/>
</g>
<path d="m471.8481,428.4026c1.7525-1.1122 2.0894-1.5939 2.4958-3.4946-.0334,2.0539.2916,2.6921 1.4927,4.2985-1.2423-.8853-2.069-1.2375-3.9885-.8038z" fill="#fff" fill-rule="evenodd"/>
<path d="m466.6541,418.328c1.7428-1.3972 2.3776-1.5626 4.5672-.8018-1.2587-1.3808-1.1416-1.9735-.2949-3.53-1.8252,1.8056-2.8844,1.3588-4.7672.2582 1.6616,1.4902 2.3921,2.1792.495,4.0735z" fill="#fff" fill-rule="evenodd"/>
<path d="m457.6207,436.3511c-2.4944.7179-3.2168.0153-4.3876-1.2574 .2069,1.3216-.1192,2.377-1.5424,3.3769 2.3093-.7953 2.8064-.0714 4.0768,1.0062-.409-1.4359-.2808-1.9435 1.8532-3.1257z" fill="#fff" fill-rule="evenodd"/>
<path d="m454.2691,428.5052c-.2686-2.8515-.5417-4.6102-3.7404-5.6857 2.6257.0287 4.2982-.5326 5.7588-3.7527-.2537,3.7021-.042,4.6188 2.1935,6.3224-2.2756-.952-3.1771-.0388-4.2119,3.116z" fill="#fff" fill-rule="evenodd"/>
<path d="m471.9105,429.8622c-2.4087,2.6032-2.6208,3.7921-.7531,6.6341-1.8601-2.2166-3.4053-2.2923-7.0077-.3839 2.9498-2.685 2.0825-4.2033 1.5368-6.81 1.5075,1.8972 3.171,2.976 6.2241.5597z" fill="#fff" fill-rule="evenodd"/>
<path d="m462.2157,416.8904c.5891,1.88.9962,2.2522 2.5256,2.9719-1.6688.0209-2.1141-.0999-3.8077,1.2305 1.0459-1.1792 1.5424-2.2465 1.2821-4.2024z" fill="#fff" fill-rule="evenodd"/>
</g>
</svg>
