<svg viewBox="0 0 512 512" xmlns="http://www.w3.org/2000/svg">

<g transform="matrix(18.68858,0,0,18.68858,-13166.22434,-40151.38781)">
<path d="m 719.094 2153.66 c -0.0236 1.0219 0.3559 2.0781 1.2812 2.625 -0.155 0.3665 -0.25 0.7647 -0.25 1.1876 0 1.6914 1.4737 4.101 3.0625 3.5206 1.4758 -0.5391 3.0625 -1.8292 3.0625 -3.5206 -0.6872 -4.0782 -4.8076 -1.7069 -7.1562 -3.8126 z" fill="#fff"/>
<path d="m 725.125 2159.45 c 2.0181 -0.5703 4.7898 -0.624 6.1256 0.846 -0.5118 -4.1206 -3.7697 -4.4653 -6.3168 -4.4397" fill="#fff"/>
<path d="m 708.938 2157.47 0.15 2.3062 -3.0924 -1.0199 1.8112 2.8387 -2.0563 0.9687 c 4.8126 1.5795 10.7764 4.5452 14.75 2.5313 2.6273 -1.3315 3.8092 -3.8885 2.6875 -5.625 -2.6603 -2.8244 -7.5564 -1.0494 -9.1813 2.6448 z" fill="#fff"/>
<path d="m 723.433 2160.08 c 0 0.379 -0.3072 0.6862 -0.6862 0.6862 s -0.6862 -0.3072 -0.6862 -0.6862 0.3072 -0.6862 0.6862 -0.6862 0.6862 0.3073 0.6862 0.6862 z" transform="matrix(1.06189,0,0,1.06189,-43.75801,-136.99202)"/>
<path d="m 716.989 2164.97 -1.4598 6.4401" fill="none" stroke="#fff"/>
<path d="m 713.611 2170.12 2.7478 -2.3184 1.3739 3.1198" fill="none" stroke="#fff"/>
<path d="m 719.766 2164.56 3.0769 5.8428" fill="none" stroke="#fff"/>
<path d="m 724.306 2168.67 -3.2542 -1.5283 -0.6647 3.1217" fill="none" stroke="#fff"/>
</g>
</svg>
