<svg viewBox="0 0 512 512" xmlns="http://www.w3.org/2000/svg">

<g transform="matrix(18.68858,0,0,18.68858,-2953.44861,-24503.54081)">
<path d="m592.2903,496.8414c0,2.2943-1.3653,4.1543-3.0494,4.1543s-3.0494-1.8599-3.0494-4.1543 1.3653-4.1543 3.0494-4.1543 3.0494,1.8599 3.0494,4.1543z" fill="#fff" transform="matrix(-.86381,-.00188,.00188,.86381,680.64118,891.32391)"/>
<path d="m162.3886,1312.2917 3.6834,5.5649-1.4574,2.6798-2.6122-1.5976 .3863-6.6471z" fill="#fff"/>
<path d="m164.174,1319.0461 5.1506,19.0772" fill="none" stroke="#fff"/>
<path d="m145.9149,1328.0809c0,2.9519-2.393,5.3449-5.3449,5.3449s-5.3449-2.393-5.3449-5.3449 2.393-5.3448 5.3449-5.3448 5.3449,2.3929 5.3449,5.3448z" stroke="#fff" stroke-width=".7952" transform="matrix(1.25759,0,0,1.25759,.13662,-339.98081)"/>
<path d="m145.9149,1328.0809c0,2.9519-2.393,5.3449-5.3449,5.3449s-5.3449-2.393-5.3449-5.3449 2.393-5.3448 5.3449-5.3448 5.3449,2.3929 5.3449,5.3448z" fill="#fff" transform="matrix(.95908,0,0,.95908,42.02459,56.46723)"/>
<path d="m172.5647,1317.4179 1.6107-4.87-1.6107-.1671-1.6107.1671 1.6107,4.87z" fill="#fff"/>
<path d="m172.5247,1323.2325v-4.3141" fill="none" stroke="#000"/>
<path d="m169.8331,1318.5867 2.6151.6748 3.1116-.6749" fill="none" stroke="#000"/>
<path d="m163.9142,1318.0872 2.2076,3.9598-2.1288.5648-.0788-4.5246z" fill="#fff"/>
</g>
</svg>
