<svg viewBox="0 0 512 512" xmlns="http://www.w3.org/2000/svg">

<g transform="matrix(18.68858,0,0,18.68858,-13164.03652,-24502.68674)">
<g fill="#fff">
<path d="m731.8166,1332.7321c0,2.7062-2.1938,4.9-4.9001,4.9s-4.9001-2.1938-4.9001-4.9 2.1938-4.9001 4.9001-4.9001 4.9001,2.1938 4.9001,4.9001z" fill="#fff" transform="translate(-6.711,-.1065)"/>
<path d="m731.8166,1332.7321c0,2.7062-2.1938,4.9-4.9001,4.9s-4.9001-2.1938-4.9001-4.9 2.1938-4.9001 4.9001-4.9001 4.9001,2.1938 4.9001,4.9001z" fill="#fff" transform="matrix(.56522,0,0,.56522,306.03746,563.89627)"/>
<path d="m731.8166,1332.7321c0,2.7062-2.1938,4.9-4.9001,4.9s-4.9001-2.1938-4.9001-4.9 2.1938-4.9001 4.9001-4.9001 4.9001,2.1938 4.9001,4.9001z" fill="#fff" transform="matrix(.67391,0,0,.67391,233.62925,428.19511)"/>
<path d="m731.8166,1332.7321c0,2.7062-2.1938,4.9-4.9001,4.9s-4.9001-2.1938-4.9001-4.9 2.1938-4.9001 4.9001-4.9001 4.9001,2.1938 4.9001,4.9001z" fill="#fff" transform="matrix(.3913,0,0,.3913,430.85988,799.0845)"/>
<path d="m731.8166,1332.7321c0,2.7062-2.1938,4.9-4.9001,4.9s-4.9001-2.1938-4.9001-4.9 2.1938-4.9001 4.9001-4.9001 4.9001,2.1938 4.9001,4.9001z" fill="#fff" transform="matrix(.3913,0,0,.3913,424.57499,806.11505)"/>
<path d="m731.8166,1332.7321c0,2.7062-2.1938,4.9-4.9001,4.9s-4.9001-2.1938-4.9001-4.9 2.1938-4.9001 4.9001-4.9001 4.9001,2.1938 4.9001,4.9001z" fill="#fff" transform="matrix(.26087,0,0,.26087,519.16957,971.13627)"/>
<path d="m731.8166,1332.7321c0,2.7062-2.1938,4.9-4.9001,4.9s-4.9001-2.1938-4.9001-4.9 2.1938-4.9001 4.9001-4.9001 4.9001,2.1938 4.9001,4.9001z" fill="#fff" transform="matrix(.26087,0,0,.26087,532.70563,966.74074)"/>
<path d="m731.8166,1332.7321c0,2.7062-2.1938,4.9-4.9001,4.9s-4.9001-2.1938-4.9001-4.9 2.1938-4.9001 4.9001-4.9001 4.9001,2.1938 4.9001,4.9001z" fill="#fff" transform="matrix(.26087,0,0,.26087,520.56195,984.84974)"/>
<path d="m731.8166,1332.7321c0,2.7062-2.1938,4.9-4.9001,4.9s-4.9001-2.1938-4.9001-4.9 2.1938-4.9001 4.9001-4.9001 4.9001,2.1938 4.9001,4.9001z" fill="#fff" transform="matrix(.3913,0,0,.3913,431.92517,806.54129)"/>
<path d="m712.75,1335.5c-1.0584,0-1.9063.8478-1.9062,1.9063 0,.1221.009.2591.0312.375h3.75c.0219-.1159.0312-.2529.0312-.375 0-1.0585-.8478-1.9063-1.9062-1.9063z" fill="#fff"/>
<path d="m730.875,1312.2813-5.4375,4-2.0312,9.1562-10.5312,12.3438h18v-25.5z" fill="#fff" fill-rule="evenodd"/>
<path d="m731.8166,1332.7321c0,2.7062-2.1938,4.9-4.9001,4.9s-4.9001-2.1938-4.9001-4.9 2.1938-4.9001 4.9001-4.9001 4.9001,2.1938 4.9001,4.9001z" fill="#fff" transform="matrix(.55978,0,0,.55978,317.47142,573.16347)"/>
<path d="m731.8166,1332.7321c0,2.7062-2.1938,4.9-4.9001,4.9s-4.9001-2.1938-4.9001-4.9 2.1938-4.9001 4.9001-4.9001 4.9001,2.1938 4.9001,4.9001z" fill="#fff" transform="matrix(.26087,0,0,.26087,536.11445,968.33877)"/>
<path d="m709.4446,1327.8354c.9963,1.3696 2.2098,2.0406 3.7759,1.5777-.9252-1.2871-2.1916-1.7954-3.7759-1.5777z" fill="#fff" fill-rule="evenodd"/>
<path d="m710.4066,1312.7295c-.162,1.3645.2846,1.9088 1.5229,2.013 .0828-1.1017-.2932-1.8979-1.5229-2.013z" fill="#fff" fill-rule="evenodd"/>
<path d="m707.8346,1335.2147c-.8503,1.0794-1.5509,1.1485-2.5003.3465 .7205-.8376 1.5493-1.1346 2.5003-.3465z" fill="#fff" fill-rule="evenodd"/>
<path d="m729,1311.6875c-.051.138-.0937.2818-.0937.4375 0,.7056.5756,1.2811 1.2812,1.2813 .2568,0 .4866-.088.6875-.2188v-1.5h-1.875z" fill="#fff"/>
<path d="m722.4974,1324.9514c-.2179-1.7772-.8449-2.5973-2.1832-3.0052 .2266,1.4454.8508,2.5846 2.1832,3.0052z" fill="#fff" fill-rule="evenodd"/>
</g>
<path d="m731.8166,1332.7321c0,2.7062-2.1938,4.9-4.9001,4.9s-4.9001-2.1938-4.9001-4.9 2.1938-4.9001 4.9001-4.9001 4.9001,2.1938 4.9001,4.9001z" transform="matrix(.38031,0,0,.38031,452.06631,807.91045)"/>
<path d="m731.8166,1332.7321c0,2.7062-2.1938,4.9-4.9001,4.9s-4.9001-2.1938-4.9001-4.9 2.1938-4.9001 4.9001-4.9001 4.9001,2.1938 4.9001,4.9001z" transform="matrix(.3322,0,0,.3322,479.20249,888.07965)"/>
<path d="m731.8166,1332.7321c0,2.7062-2.1938,4.9-4.9001,4.9s-4.9001-2.1938-4.9001-4.9 2.1938-4.9001 4.9001-4.9001 4.9001,2.1938 4.9001,4.9001z" transform="matrix(.23981,0,0,.23981,547.93448,999.49491)"/>
<path d="m718.4375,1336.375c-.8985,0-1.625.7265-1.625,1.625 0,.079.0204.1428.0312.2188h3.1875c.0109-.076.0312-.1398.0312-.2188 0-.8986-.7265-1.625-1.625-1.625z"/>
<path d="m731.8166,1332.7321c0,2.7062-2.1938,4.9-4.9001,4.9s-4.9001-2.1938-4.9001-4.9 2.1938-4.9001 4.9001-4.9001 4.9001,2.1938 4.9001,4.9001z" transform="matrix(.17663,0,0,.17663,598.25035,1087.2973)"/>
<path d="m730.9375,1316.625c-.6233,0-1.125.5017-1.125,1.125s.5017,1.1562 1.125,1.1563c.0555,0 .1029-.024.1562-.031v-2.2187c-.0534-.01-.1008-.031-.1562-.031z"/>
<path d="m731.8166,1332.7321c0,2.7062-2.1938,4.9-4.9001,4.9s-4.9001-2.1938-4.9001-4.9 2.1938-4.9001 4.9001-4.9001 4.9001,2.1938 4.9001,4.9001z" transform="matrix(.14204,0,0,.14204,625.06797,1128.8351)"/>
<path d="m720.0731,1333.3528c.5277,1.2294 1.1692,1.471 2.2642.956-.4665-.9693-1.1712-1.4577-2.2642-.956z" fill-rule="evenodd"/>
<path d="m731.8166,1332.7321c0,2.7062-2.1938,4.9-4.9001,4.9s-4.9001-2.1938-4.9001-4.9 2.1938-4.9001 4.9001-4.9001 4.9001,2.1938 4.9001,4.9001z" transform="matrix(.37885,0,0,.37885,442.09427,814.52557)"/>
<path d="m714.1075,1336.0441c1.1043,1.7273 2.9248-.3404 1.535-1.6273" fill-rule="evenodd"/>
<path d="m723.8506,1323.0431c1.8798.585 2.2556-1.3112.2759-1.0989" fill-rule="evenodd"/>
<path d="m722.1277,1326.2036c0,1.1276-.9141,2.0416-2.0416,2.0416s-2.0416-.914-2.0416-2.0416 .9141-2.0416 2.0416-2.0416 2.0416.9141 2.0416,2.0416z" transform="matrix(1.1631,.67152,-.4717,.81701,508.04283,-241.46197)"/>
</g>
</svg>
