<svg viewBox="0 0 512 512" xmlns="http://www.w3.org/2000/svg">

<g transform="matrix(18.68858,0,0,18.68858,-13164.03652,-24502.68674)">
<g fill="#fff">
<path d="m 731.817 1332.73 c 0 2.7062 -2.1938 4.9 -4.9001 4.9 s -4.9001 -2.1938 -4.9001 -4.9 2.1938 -4.9001 4.9001 -4.9001 4.9001 2.1938 4.9001 4.9001 z" fill="#fff" transform="translate(-6.711,-.1065)"/>
<path d="m 731.817 1332.73 c 0 2.7062 -2.1938 4.9 -4.9001 4.9 s -4.9001 -2.1938 -4.9001 -4.9 2.1938 -4.9001 4.9001 -4.9001 4.9001 2.1938 4.9001 4.9001 z" fill="#fff" transform="matrix(.56522,0,0,.56522,306.03746,563.89627)"/>
<path d="m 731.817 1332.73 c 0 2.7062 -2.1938 4.9 -4.9001 4.9 s -4.9001 -2.1938 -4.9001 -4.9 2.1938 -4.9001 4.9001 -4.9001 4.9001 2.1938 4.9001 4.9001 z" fill="#fff" transform="matrix(.67391,0,0,.67391,233.62925,428.19511)"/>
<path d="m 731.817 1332.73 c 0 2.7062 -2.1938 4.9 -4.9001 4.9 s -4.9001 -2.1938 -4.9001 -4.9 2.1938 -4.9001 4.9001 -4.9001 4.9001 2.1938 4.9001 4.9001 z" fill="#fff" transform="matrix(.3913,0,0,.3913,430.85988,799.0845)"/>
<path d="m 731.817 1332.73 c 0 2.7062 -2.1938 4.9 -4.9001 4.9 s -4.9001 -2.1938 -4.9001 -4.9 2.1938 -4.9001 4.9001 -4.9001 4.9001 2.1938 4.9001 4.9001 z" fill="#fff" transform="matrix(.3913,0,0,.3913,424.57499,806.11505)"/>
<path d="m 731.817 1332.73 c 0 2.7062 -2.1938 4.9 -4.9001 4.9 s -4.9001 -2.1938 -4.9001 -4.9 2.1938 -4.9001 4.9001 -4.9001 4.9001 2.1938 4.9001 4.9001 z" fill="#fff" transform="matrix(.26087,0,0,.26087,519.16957,971.13627)"/>
<path d="m 731.817 1332.73 c 0 2.7062 -2.1938 4.9 -4.9001 4.9 s -4.9001 -2.1938 -4.9001 -4.9 2.1938 -4.9001 4.9001 -4.9001 4.9001 2.1938 4.9001 4.9001 z" fill="#fff" transform="matrix(.26087,0,0,.26087,532.70563,966.74074)"/>
<path d="m 731.817 1332.73 c 0 2.7062 -2.1938 4.9 -4.9001 4.9 s -4.9001 -2.1938 -4.9001 -4.9 2.1938 -4.9001 4.9001 -4.9001 4.9001 2.1938 4.9001 4.9001 z" fill="#fff" transform="matrix(.26087,0,0,.26087,520.56195,984.84974)"/>
<path d="m 731.817 1332.73 c 0 2.7062 -2.1938 4.9 -4.9001 4.9 s -4.9001 -2.1938 -4.9001 -4.9 2.1938 -4.9001 4.9001 -4.9001 4.9001 2.1938 4.9001 4.9001 z" fill="#fff" transform="matrix(.3913,0,0,.3913,431.92517,806.54129)"/>
<path d="m 712.75 1335.5 c -1.0584 0 -1.9063 0.8478 -1.9062 1.9063 0 0.1221 0.009 0.2591 0.0312 0.375 h 3.75 c 0.0219 -0.1159 0.0312 -0.2529 0.0312 -0.375 0 -1.0585 -0.8478 -1.9063 -1.9062 -1.9063 z" fill="#fff"/>
<path d="m 730.875 1312.28 -5.4375 4 -2.0312 9.1562 -10.5312 12.3438 h 18 v -25.5 z" fill="#fff" fill-rule="evenodd"/>
<path d="m 731.817 1332.73 c 0 2.7062 -2.1938 4.9 -4.9001 4.9 s -4.9001 -2.1938 -4.9001 -4.9 2.1938 -4.9001 4.9001 -4.9001 4.9001 2.1938 4.9001 4.9001 z" fill="#fff" transform="matrix(.55978,0,0,.55978,317.47142,573.16347)"/>
<path d="m 731.817 1332.73 c 0 2.7062 -2.1938 4.9 -4.9001 4.9 s -4.9001 -2.1938 -4.9001 -4.9 2.1938 -4.9001 4.9001 -4.9001 4.9001 2.1938 4.9001 4.9001 z" fill="#fff" transform="matrix(.26087,0,0,.26087,536.11445,968.33877)"/>
<path d="m 709.445 1327.84 c 0.9963 1.3696 2.2098 2.0406 3.7759 1.5777 -0.9252 -1.2871 -2.1916 -1.7954 -3.7759 -1.5777 z" fill="#fff" fill-rule="evenodd"/>
<path d="m 710.407 1312.73 c -0.162 1.3645 0.2846 1.9088 1.5229 2.013 0.0828 -1.1017 -0.2932 -1.8979 -1.5229 -2.013 z" fill="#fff" fill-rule="evenodd"/>
<path d="m 707.835 1335.21 c -0.8503 1.0794 -1.5509 1.1485 -2.5003 0.3465 0.7205 -0.8376 1.5493 -1.1346 2.5003 -0.3465 z" fill="#fff" fill-rule="evenodd"/>
<path d="m 729 1311.69 c -0.051 0.138 -0.0937 0.2818 -0.0937 0.4375 0 0.7056 0.5756 1.2811 1.2812 1.2813 0.2568 0 0.4866 -0.088 0.6875 -0.2188 v -1.5 h -1.875 z" fill="#fff"/>
<path d="m 722.497 1324.95 c -0.2179 -1.7772 -0.8449 -2.5973 -2.1832 -3.0052 0.2266 1.4454 0.8508 2.5846 2.1832 3.0052 z" fill="#fff" fill-rule="evenodd"/>
</g>
<path d="m 731.817 1332.73 c 0 2.7062 -2.1938 4.9 -4.9001 4.9 s -4.9001 -2.1938 -4.9001 -4.9 2.1938 -4.9001 4.9001 -4.9001 4.9001 2.1938 4.9001 4.9001 z" transform="matrix(.38031,0,0,.38031,452.06631,807.91045)"/>
<path d="m 731.817 1332.73 c 0 2.7062 -2.1938 4.9 -4.9001 4.9 s -4.9001 -2.1938 -4.9001 -4.9 2.1938 -4.9001 4.9001 -4.9001 4.9001 2.1938 4.9001 4.9001 z" transform="matrix(.3322,0,0,.3322,479.20249,888.07965)"/>
<path d="m 731.817 1332.73 c 0 2.7062 -2.1938 4.9 -4.9001 4.9 s -4.9001 -2.1938 -4.9001 -4.9 2.1938 -4.9001 4.9001 -4.9001 4.9001 2.1938 4.9001 4.9001 z" transform="matrix(.23981,0,0,.23981,547.93448,999.49491)"/>
<path d="m 718.438 1336.38 c -0.8985 0 -1.625 0.7265 -1.625 1.625 0 0.079 0.0204 0.1428 0.0312 0.2188 h 3.1875 c 0.0109 -0.076 0.0312 -0.1398 0.0312 -0.2188 0 -0.8986 -0.7265 -1.625 -1.625 -1.625 z"/>
<path d="m 731.817 1332.73 c 0 2.7062 -2.1938 4.9 -4.9001 4.9 s -4.9001 -2.1938 -4.9001 -4.9 2.1938 -4.9001 4.9001 -4.9001 4.9001 2.1938 4.9001 4.9001 z" transform="matrix(.17663,0,0,.17663,598.25035,1087.2973)"/>
<path d="m 730.938 1316.62 c -0.6233 0 -1.125 0.5017 -1.125 1.125 s 0.5017 1.1562 1.125 1.1563 c 0.0555 0 0.1029 -0.024 0.1562 -0.031 v -2.2187 c -0.0534 -0.01 -0.1008 -0.031 -0.1562 -0.031 z"/>
<path d="m 731.817 1332.73 c 0 2.7062 -2.1938 4.9 -4.9001 4.9 s -4.9001 -2.1938 -4.9001 -4.9 2.1938 -4.9001 4.9001 -4.9001 4.9001 2.1938 4.9001 4.9001 z" transform="matrix(.14204,0,0,.14204,625.06797,1128.8351)"/>
<path d="m 720.073 1333.35 c 0.5277 1.2294 1.1692 1.471 2.2642 0.956 -0.4665 -0.9693 -1.1712 -1.4577 -2.2642 -0.956 z" fill-rule="evenodd"/>
<path d="m 731.817 1332.73 c 0 2.7062 -2.1938 4.9 -4.9001 4.9 s -4.9001 -2.1938 -4.9001 -4.9 2.1938 -4.9001 4.9001 -4.9001 4.9001 2.1938 4.9001 4.9001 z" transform="matrix(.37885,0,0,.37885,442.09427,814.52557)"/>
<path d="m 714.107 1336.04 c 1.1043 1.7273 2.9248 -0.3404 1.535 -1.6273" fill-rule="evenodd"/>
<path d="m 723.851 1323.04 c 1.8798 0.585 2.2556 -1.3112 0.2759 -1.0989" fill-rule="evenodd"/>
<path d="m 722.128 1326.2 c 0 1.1276 -0.9141 2.0416 -2.0416 2.0416 s -2.0416 -0.914 -2.0416 -2.0416 0.9141 -2.0416 2.0416 -2.0416 2.0416 0.9141 2.0416 2.0416 z" transform="matrix(1.1631,.67152,-.4717,.81701,508.04283,-241.46197)"/>
</g>
</svg>
