<svg viewBox="0 0 512 512" xmlns="http://www.w3.org/2000/svg">

<g transform="matrix(18.68858,0,0,18.68858,-909.27864,-24503.54268)">
<path d="m 57.1901 1316.02 h 5.9557 v 5.9557 h -5.9557 z"/>
<path d="m 71.8704 1312.21 3.1598 8.9328 -3.9046 3.4619 -3.462 -3.9046 4.2068 -8.4901 z" fill="#fff"/>
<path d="m 149.493 1315.39 h 2.0717 v 16.2467 h -2.0717 z" fill="#fff" transform="rotate(3.439)"/>
<path d="m 56.9232 1327.52 0.6639 4.7735 -2.2986 1.327 -1.3271 -2.2987 2.9617 -3.8018 z" fill="#fff"/>
<path d="m 54.6275 1319.35 0.7747 6.236 3.3428 0.8958 0.8957 -3.3429 -5.0132 -3.7889 z" fill="#fff"/>
<path d="m 57.8438 1323.53 -1.2188 0.6875 8.0312 13.9375 h 1.5938 l -8.4062 -14.625 z" fill="#fff"/>
<path d="m 55.7508 1331.9 -1.4761 6.082" fill="none" stroke="#fff"/>
<path d="m 64.8888 1313.32 1.0475 7.5311 -3.6265 2.0938 -2.0938 -3.6267 4.6727 -5.9982 z" fill="#fff"/>
<path d="m 62.4688 1319.22 -5.0938 18.9375 h 1.75 l 4.9375 -18.5 -1.5938 -0.4375 z" fill="#fff"/>
<path d="m 65.7414 1323.91 -1.1962 4.6685 2.1348 1.577 1.5771 -2.1349 -2.5157 -4.1106 z" fill="#fff"/>
<path d="m 66.5288 1328.89 1.1787 9.3456" fill="none" stroke="#fff"/>
<path d="m 51.9865 1323.32 1.4534 4.595 -2.0441 1.693 -1.6931 -2.0442 2.2837 -4.2438 z" fill="#fff"/>
<path d="m 51.5634 1327.84 -0.8107 10.3509" fill="none" stroke="#fff"/>
<path d="m 62.5555 1327.27 -1.5289 5.7059" fill="none" stroke="#000"/>
<path d="m 60.0677 1326.19 -1.5289 5.7059" fill="none" stroke="#000"/>
<path d="m 75.6141 1325.46 -2.286 12.8971" fill="none" stroke="#fff"/>
<path d="m 49.1919 1338.05 h 26.4189 v -18.733" fill="none" stroke="#000"/>
</g>
</svg>
