<svg viewBox="0 0 512 512" xmlns="http://www.w3.org/2000/svg">

<g transform="matrix(18.68858,0,0,18.68858,-909.27864,-24503.54268)">
<path d="m57.1901,1316.0168h5.9557v5.9557h-5.9557z"/>
<path d="m71.8704,1312.213 3.1598,8.9328-3.9046,3.4619-3.462-3.9046 4.2068-8.4901z" fill="#fff"/>
<path d="m149.4926,1315.394h2.0717v16.2467h-2.0717z" fill="#fff" transform="rotate(3.439)"/>
<path d="m56.9232,1327.5188 .6639,4.7735-2.2986,1.327-1.3271-2.2987 2.9617-3.8018z" fill="#fff"/>
<path d="m54.6275,1319.3486 .7747,6.236 3.3428.8958 .8957-3.3429-5.0132-3.7889z" fill="#fff"/>
<path d="m57.8438,1323.5313-1.2188.6875 8.0312,13.9375h1.5938l-8.4062-14.625z" fill="#fff"/>
<path d="m55.7508,1331.8975-1.4761,6.082" fill="none" stroke="#fff"/>
<path d="m64.8888,1313.3152 1.0475,7.5311-3.6265,2.0938-2.0938-3.6267 4.6727-5.9982z" fill="#fff"/>
<path d="m62.4688,1319.2188-5.0938,18.9375h1.75l4.9375-18.5-1.5938-.4375z" fill="#fff"/>
<path d="m65.7414,1323.907-1.1962,4.6685 2.1348,1.577 1.5771-2.1349-2.5157-4.1106z" fill="#fff"/>
<path d="m66.5288,1328.8859 1.1787,9.3456" fill="none" stroke="#fff"/>
<path d="m51.9865,1323.3249 1.4534,4.595-2.0441,1.693-1.6931-2.0442 2.2837-4.2438z" fill="#fff"/>
<path d="m51.5634,1327.8381-.8107,10.3509" fill="none" stroke="#fff"/>
<path d="m62.5555,1327.2673-1.5289,5.7059" fill="none" stroke="#000"/>
<path d="m60.0677,1326.1858-1.5289,5.7059" fill="none" stroke="#000"/>
<path d="m75.6141,1325.4634-2.286,12.8971" fill="none" stroke="#fff"/>
<path d="m49.1919,1338.0454h26.4189v-18.733" fill="none" stroke="#000"/>
</g>
</svg>
