<svg viewBox="0 0 512 512" xmlns="http://www.w3.org/2000/svg">

<g transform="matrix(18.68858,0,0,18.68858,-6354.68374,-17721.12379)">
<path d="m 343.073 963.833 c -3.0415 -1.6941 -0.3724 -5.9764 2.5285 -4.3613 l 9.3094 4.5091" fill="none" stroke="#fff"/>
<path d="m 353.565 960.953 c -2.9019 -1.3781 -0.8816 -5.9084 1.8861 -4.5946 l 8.8207 3.5455" fill="none" stroke="#fff"/>
<path d="m 359.068 962.947 c 0.8077 -0.7365 1.6154 -0.8493 2.423 -0.7975" fill="none" stroke="#fff"/>
<path d="m 359.588 975.909 c 0 1.1412 -0.9251 2.0663 -2.0663 2.0663 s -2.0663 -0.9251 -2.0663 -2.0663 0.9251 -2.0663 2.0663 -2.0663 2.0663 0.9251 2.0663 2.0663 z" stroke="#fff" stroke-width=".6698" transform="matrix(1.48195,-.40558,0,1.50395,-173.75654,-358.31258)"/>
<path d="m 359.588 975.909 c 0 1.1412 -0.9251 2.0663 -2.0663 2.0663 s -2.0663 -0.9251 -2.0663 -2.0663 0.9251 -2.0663 2.0663 -2.0663 2.0663 0.9251 2.0663 2.0663 z" stroke="#fff" stroke-width=".7974" transform="matrix(1.04561,-.40558,0,1.50395,-10.14482,-360.64213)"/>
<path d="m 359.588 975.909 c 0 1.1412 -0.9251 2.0663 -2.0663 2.0663 s -2.0663 -0.9251 -2.0663 -2.0663 0.9251 -2.0663 2.0663 -2.0663 2.0663 0.9251 2.0663 2.0663 z" fill="#fff" transform="matrix(1.07562,-.29438,0,1.09158,-27.86165,5.04454)"/>
<path d="m 359.588 975.909 c 0 1.1412 -0.9251 2.0663 -2.0663 2.0663 s -2.0663 -0.9251 -2.0663 -2.0663 0.9251 -2.0663 2.0663 -2.0663 2.0663 0.9251 2.0663 2.0663 z" fill="#fff" transform="matrix(.75892,-.29438,0,1.09158,93.02098,2.71474)"/>
</g>
</svg>
