<svg viewBox="0 0 512 512" xmlns="http://www.w3.org/2000/svg">

<g transform="matrix(18.68858,0,0,18.68858,-4993.04413,-17932.91592)">
<path d="m 286.066 961.688 c -1.8372 0.0463 -3.4627 1.4859 -4.4099 4.5 -1.1421 3.6345 -6.7249 -4.3116 -10.1167 -0.2812 -2.1497 2.5544 0.5917 5.0214 -2.9507 9.4062 1.904 -0.2215 2.4137 -0.5067 3.3398 -1.9375 1.4781 -2.2836 5.8174 -0.7633 3.5344 1.0625 -3.3045 2.6428 -7.4584 4.615 -7.2309 10.625 0.2974 -0.6029 0.6231 -1.0867 0.9403 -1.5312 0.3199 1.5829 1.5089 2.8788 4.9757 2.1661 -2.511 -0.3428 -4.0809 -3.1883 -2.4268 -4.4159 3.3558 -2.4905 6.893 0.0769 14.442 -4.0314 4.0624 -2.2108 3.8265 5.3209 1.6861 7.9062 4.1498 -2.11 5.7045 -4.127 5.8732 -10.2022 0.0889 -3.2011 -3.544 -3.2392 -3.0198 -5.4228 1.4205 -5.9168 -1.6825 -7.9182 -4.6368 -7.8438 z" fill="#fff" fill-rule="evenodd"/>
<path d="m 282.953 983.372 c 0.8896 2.4423 3.6852 3.7705 5.3211 -1.6807 -1.2946 1.4889 -3.1512 3.2158 -5.3211 1.6807 z" fill="#fff" fill-rule="evenodd"/>
<path d="m 270.153 965.826 c -0.8554 -2.7677 0.7678 -5.7313 5.9487 -1.839 -2.1809 -0.5283 -5.0312 -0.9169 -5.9487 1.839 z" fill="#fff" fill-rule="evenodd"/>
<path d="m 285.047 974.109 c 2.9953 -0.08 5.5455 2.1981 0.3034 6.0137 1.094 -1.8935 2.2212 -4.4463 -0.3034 -6.0137 z" fill="#fff" fill-rule="evenodd"/>
<path d="m 287.757 968.141 c 1.7248 0.0453 2.404 -0.0882 2.4953 -1.7206 -1.6076 -0.2528 -1.9666 0.3162 -2.4953 1.7206 z" fill-rule="evenodd"/>
<path d="m 278.38 974.158 c -0.6951 -2.809 -3.6383 -4.5934 -6.1058 1.274 1.6146 -1.5085 3.8815 -3.2185 6.1058 -1.274 z" fill="#fff" fill-rule="evenodd"/>
<path d="m 285.466 976.001 c 3.3591 -0.0897 6.219 2.4651 0.3403 6.744 1.2268 -2.1235 2.4909 -4.9863 -0.3403 -6.744 z" fill="#fff" fill-rule="evenodd"/>
<path d="m 290.542 964.599 c -0.6641 -3.3953 -4.1607 -4.0425 -8.2375 -4.0238 1.5459 0.4405 2.4394 1.1604 2.2004 2.3653" fill="#fff" fill-rule="evenodd"/>
<path d="m 289.143 963.595 c -2.3366 -2.6204 -5.7005 -1.4959 -9.2215 0.4847 1.5673 -0.3635 2.7146 -0.1706 3.1328 0.9881" fill="#fff" fill-rule="evenodd"/>
<path d="m 285.599 963.762 c -0.9032 1.4169 -0.8805 2.6249 0.5408 3.5173 1.031 -1.2153 0.4568 -2.3738 -0.5408 -3.5173 z" fill-rule="evenodd"/>
<path d="m 286.472 972.998 c -0.812 0.0457 0.0772 -1.2758 -0.8652 -2.0588 -0.8165 -0.6784 -2.0653 0.6705 -2.4189 -0.3092 -0.6118 -1.6895 1.5364 -2.7897 3.5035 -1.6334 2.3892 1.4044 1.1736 3.9229 -0.2195 4.0013 z" fill-rule="evenodd"/>
</g>
</svg>
