<svg viewBox="0 0 512 512" xmlns="http://www.w3.org/2000/svg">

<g transform="matrix(18.68858,0,0,18.68858,-4993.04413,-17932.91592)">
<path d="m286.0661,961.6875c-1.8372.0463-3.4627,1.4859-4.4099,4.5-1.1421,3.6345-6.7249-4.3116-10.1167-.2812-2.1497,2.5544.5917,5.0214-2.9507,9.4062 1.904-.2215 2.4137-.5067 3.3398-1.9375 1.4781-2.2836 5.8174-.7633 3.5344,1.0625-3.3045,2.6428-7.4584,4.615-7.2309,10.625 .2974-.6029.6231-1.0867.9403-1.5312 .3199,1.5829 1.5089,2.8788 4.9757,2.1661-2.511-.3428-4.0809-3.1883-2.4268-4.4159 3.3558-2.4905 6.893.0769 14.442-4.0314 4.0624-2.2108 3.8265,5.3209 1.6861,7.9062 4.1498-2.11 5.7045-4.127 5.8732-10.2022 .0889-3.2011-3.544-3.2392-3.0198-5.4228 1.4205-5.9168-1.6825-7.9182-4.6368-7.8438z" fill="#fff" fill-rule="evenodd"/>
<path d="m282.9532,983.3725c.8896,2.4423 3.6852,3.7705 5.3211-1.6807-1.2946,1.4889-3.1512,3.2158-5.3211,1.6807z" fill="#fff" fill-rule="evenodd"/>
<path d="m270.1526,965.826c-.8554-2.7677.7678-5.7313 5.9487-1.839-2.1809-.5283-5.0312-.9169-5.9487,1.839z" fill="#fff" fill-rule="evenodd"/>
<path d="m285.0466,974.1087c2.9953-.08 5.5455,2.1981.3034,6.0137 1.094-1.8935 2.2212-4.4463-.3034-6.0137z" fill="#fff" fill-rule="evenodd"/>
<path d="m287.7572,968.1413c1.7248.0453 2.404-.0882 2.4953-1.7206-1.6076-.2528-1.9666.3162-2.4953,1.7206z" fill-rule="evenodd"/>
<path d="m278.38,974.1581c-.6951-2.809-3.6383-4.5934-6.1058,1.274 1.6146-1.5085 3.8815-3.2185 6.1058-1.274z" fill="#fff" fill-rule="evenodd"/>
<path d="m285.4664,976.0006c3.3591-.0897 6.219,2.4651.3403,6.744 1.2268-2.1235 2.4909-4.9863-.3403-6.744z" fill="#fff" fill-rule="evenodd"/>
<path d="m290.5422,964.5993c-.6641-3.3953-4.1607-4.0425-8.2375-4.0238 1.5459.4405 2.4394,1.1604 2.2004,2.3653" fill="#fff" fill-rule="evenodd"/>
<path d="m289.1429,963.5954c-2.3366-2.6204-5.7005-1.4959-9.2215.4847 1.5673-.3635 2.7146-.1706 3.1328.9881" fill="#fff" fill-rule="evenodd"/>
<path d="m285.5989,963.7619c-.9032,1.4169-.8805,2.6249.5408,3.5173 1.031-1.2153.4568-2.3738-.5408-3.5173z" fill-rule="evenodd"/>
<path d="m286.472,972.9983c-.812.0457.0772-1.2758-.8652-2.0588-.8165-.6784-2.0653.6705-2.4189-.3092-.6118-1.6895 1.5364-2.7897 3.5035-1.6334 2.3892,1.4044 1.1736,3.9229-.2195,4.0013z" fill-rule="evenodd"/>
</g>
</svg>
