<svg viewBox="0 0 512 512" xmlns="http://www.w3.org/2000/svg">

<g transform="matrix(18.68858,0,0,18.68858,-6354.68374,-17721.12379)">
<path d="m343.0732,963.8332c-3.0415-1.6941-.3724-5.9764 2.5285-4.3613l9.3094,4.5091" fill="none" stroke="#fff"/>
<path d="m353.5653,960.9528c-2.9019-1.3781-.8816-5.9084 1.8861-4.5946l8.8207,3.5455" fill="none" stroke="#fff"/>
<path d="m359.0678,962.947c.8077-.7365 1.6154-.8493 2.423-.7975" fill="none" stroke="#fff"/>
<path d="m359.5884,975.9095c0,1.1412-.9251,2.0663-2.0663,2.0663s-2.0663-.9251-2.0663-2.0663 .9251-2.0663 2.0663-2.0663 2.0663.9251 2.0663,2.0663z" stroke="#fff" stroke-width=".6698" transform="matrix(1.48195,-.40558,0,1.50395,-173.75654,-358.31258)"/>
<path d="m359.5884,975.9095c0,1.1412-.9251,2.0663-2.0663,2.0663s-2.0663-.9251-2.0663-2.0663 .9251-2.0663 2.0663-2.0663 2.0663.9251 2.0663,2.0663z" stroke="#fff" stroke-width=".7974" transform="matrix(1.04561,-.40558,0,1.50395,-10.14482,-360.64213)"/>
<path d="m359.5884,975.9095c0,1.1412-.9251,2.0663-2.0663,2.0663s-2.0663-.9251-2.0663-2.0663 .9251-2.0663 2.0663-2.0663 2.0663.9251 2.0663,2.0663z" fill="#fff" transform="matrix(1.07562,-.29438,0,1.09158,-27.86165,5.04454)"/>
<path d="m359.5884,975.9095c0,1.1412-.9251,2.0663-2.0663,2.0663s-2.0663-.9251-2.0663-2.0663 .9251-2.0663 2.0663-2.0663 2.0663.9251 2.0663,2.0663z" fill="#fff" transform="matrix(.75892,-.29438,0,1.09158,93.02098,2.71474)"/>
</g>
</svg>
