<svg viewBox="0 0 512 512" xmlns="http://www.w3.org/2000/svg">

<g transform="matrix(18.68858,0,0,18.68858,-12485.09861,-30618.88828)">
<path d="m652.9385,1652.5189c0,3.5031-2.8398,6.3429-6.3429,6.3429s-6.3429-2.8398-6.3429-6.3429 2.8398-6.3429 6.3429-6.3429 6.3429,2.8398 6.3429,6.3429z" stroke="#fff" stroke-width="1.1667" transform="matrix(.85714,0,0,.85714,120.82559,236.14964)"/>
<path d="m670.9602,1655.7112c1.7889-2.8946 6.9686-2.4146 8.5125,0-2.8375,3.2892-6.27,3.0553-8.5125,0z" fill="#fff"/>
<path d="m641.6882,1650.5876c0,.7962-.9562,1.4417-2.1358,1.4417s-2.1358-.6455-2.1358-1.4417 .9562-1.4416 2.1358-1.4416 2.1358.6455 2.1358,1.4416z" fill="#fff" transform="matrix(.85714,0,0,.85714,123.87083,235.15524)"/>
<path d="m652.9385,1652.5189c0,3.5031-2.8398,6.3429-6.3429,6.3429s-6.3429-2.8398-6.3429-6.3429 2.8398-6.3429 6.3429-6.3429 6.3429,2.8398 6.3429,6.3429z" stroke="#fff" stroke-width="1.1667" transform="matrix(.85714,0,0,.85714,133.81338,236.14964)"/>
<path d="m683.948,1655.7112c1.7889-2.8946 6.9686-2.4146 8.5125,0-2.8375,3.2892-6.27,3.0553-8.5125,0z" fill="#fff"/>
<path d="m641.6882,1650.5876c0,.7962-.9562,1.4417-2.1358,1.4417s-2.1358-.6455-2.1358-1.4417 .9562-1.4416 2.1358-1.4416 2.1358.6455 2.1358,1.4416z" fill="#fff" transform="matrix(.85714,0,0,.85714,136.85863,235.15524)"/>
<path d="m680.3662,1653.6712c.4992-.8647 1.8373-.9071 2.361,0" fill="none" stroke="#fff"/>
<path d="m680.3662,1651.8291c.4992-.8647 1.8373-.9071 2.361,0" fill="none" stroke="#fff"/>
</g>
</svg>
