<svg xmlns="http://www.w3.org/2000/svg" viewBox="0 0 512 512">
<g fill="none" stroke="#fff" stroke-width="1.152" transform="matrix(15.93973 0 0 15.93973 1.0159 1.70461)">
<path d="m 26.596 31.433 -2.263 -4.198 -8.322 -4.417 -8.359 4.417 -2.263 4.198"/>
<path d="m 31.299 27.533 -4.724 -3.801 -10.559 -2.301 -10.606 2.301 -4.724 3.801"/>
<path d="m 31.477 2.073 -4.779 11.272 -10.682 6.393 -10.729 -6.393 -4.779 -11.272"/>
<path d="m 31.299 15.236 -4.724 3.749 -10.559 1.475 -10.606 -1.475 -4.724 -3.749"/>
</g>
<g fill="#fff" transform="matrix(15.93973 0 0 15.93973 1.0159 1.70461)">
<path d="m 9.844 10.387 c 0 3.346 2.754 6.062 6.148 6.062 3.394 0 6.148 -2.716 6.148 -6.062 0 -3.346 -2.754 -9.211 -6.148 -9.211 -3.394 0 -6.148 5.865 -6.148 9.211 z"/>
<path stroke="#000" stroke-width=".64" d="m15.992,27.327c-1.608,0-2.981-.463-3.969-1.338-1.095-.97-1.674-2.423-1.674-4.203 0-1.809 .593-3.82 1.587-5.381 .519-.815 1.114-1.465 1.767-1.932 .732-.523 1.502-.788 2.289-.788 .786,0 1.556,.265 2.289,.788 .653,.466 1.248,1.116 1.767,1.932 .994,1.561 1.587,3.573 1.587,5.381 0,1.78-.579,3.233-1.674,4.203-.988,.875-2.36,1.338-3.969,1.338z" stroke-miterlimit="10"/>
<path d="m 15.444 27.969 c 0 -0.355 -0.322 -0.69 -0.709 -0.303 -0.085 0.176 -0.133 0.373 -0.133 0.579 0 0.37 0.152 0.707 0.401 0.957 -0.001 -0.03 -0.001 -0.06 -0.001 -0.09 0 -0.469 0.174 -0.886 0.442 -1.143 z"/>
<path d="m 16.556 27.969 c 0 -0.355 0.322 -0.69 0.709 -0.303 0.085 0.176 0.133 0.373 0.133 0.579 0 0.37 -0.152 0.707 -0.401 0.957 0.001 -0.03 0.001 -0.06 0.001 -0.09 0 -0.469 -0.174 -0.886 -0.442 -1.143 z"/>
</g>
<path fill="none" stroke="#000" stroke-width="18.363" d="m9.8943,10.7584h492.0753v492.0753h-492.0753v-492.0753z"/>
<g fill="#fff" transform="matrix(15.93973 0 0 15.93973 1.0159 1.70461)">
<path d="m 13.552 27.932 c 0 -0.991 -0.898 -1.923 -1.977 -0.844 -0.237 0.492 -0.37 1.039 -0.37 1.615 0 1.032 0.425 1.971 1.118 2.667 -0.002 -0.083 -0.004 -0.167 -0.004 -0.251 0 -1.308 0.485 -2.469 1.233 -3.187 z"/>
<path d="m 18.437 27.932 c 0 -0.991 0.898 -1.923 1.977 -0.844 0.237 0.492 0.37 1.039 0.37 1.615 0 1.032 -0.425 1.971 -1.118 2.667 0.002 -0.083 0.004 -0.167 0.004 -0.251 0 -1.308 -0.485 -2.469 -1.233 -3.187 z"/>
</g>
<path d="m 251.7 389.949 c 0 9.2929 -7.5714 16.8164 -16.912 16.8164 -9.3407 0 -16.912 -7.5395 -16.912 -16.8164 0 -9.2769 7.5714 -16.8164 16.912 -16.8164 9.3407 0 16.912 7.5236 16.912 16.8164 z"/>
<path d="m 294.227 389.949 c 0 9.2929 -7.5714 16.8164 -16.9121 16.8164 -9.3407 0 -16.9121 -7.5395 -16.9121 -16.8164 0 -9.2769 7.5714 -16.8164 16.9121 -16.8164 9.3407 0 16.9121 7.5236 16.9121 16.8164 z"/>
<path d="m 319.715 371.857 c 0 5.547 -4.5269 10.058 -10.1058 10.058 -5.5789 0 -10.1058 -4.495 -10.1058 -10.058 0 -5.563 4.5269 -10.058 10.1058 -10.058 5.5789 0 10.1058 4.495 10.1058 10.058 z"/>
<path d="m 212.6 371.857 c 0 5.547 -4.5269 10.058 -10.1058 10.058 -5.5789 0 -10.1058 -4.495 -10.1058 -10.058 0 -5.563 4.5269 -10.058 10.1058 -10.058 5.5789 0 10.1058 4.495 10.1058 10.058 z"/>
</svg>
