<svg xmlns="http://www.w3.org/2000/svg" viewBox="0 0 512 512">
<g fill="#fff" transform="scale(16)">
<circle cx="20.038" cy="13.282" r="1.876" d="m 21.914,13.282 c 0,1.036086 -0.839914,1.876 -1.876,1.876 -1.036086,0 -1.876,-0.839914 -1.876,-1.876 0,-1.036087 0.839914,-1.876 1.876,-1.876 1.036086,0 1.876,0.839913 1.876,1.876 z"/>
<circle cx="22.345" cy="16.118" r=".938" d="m 23.282999,16.118 c 0,0.518043 -0.419957,0.938 -0.938,0.938 -0.518043,0 -0.938,-0.419957 -0.938,-0.938 0,-0.518043 0.419957,-0.938 0.938,-0.938 0.518043,0 0.938,0.419957 0.938,0.938 z"/>
<path d="m6.187,20.267c-.742,0-1.592,.313-2.491,1.079-.623,1.101-.97,2.324-.97,3.613 0,2.309 1.115,4.409 2.933,5.968-.007-.186-.01-.374-.01-.562 0-2.925 1.272-5.524 3.235-7.13 .001-1.515-1.098-2.968-2.697-2.968z"/>
<path d="m29.326,24.958c0-1.289-.347-2.512-.97-3.613-.898-.766-1.748-1.079-2.491-1.079-1.599,0-2.698,1.453-2.698,2.967 1.963,1.607 3.235,4.205 3.235,7.13 0,.188-.004,.375-.01,.562 1.819-1.558 2.934-3.657 2.934-5.967z"/>
<path d="m1,1.074v14.791c0,1.28 1.208,2.523 3.01,3.592 .719-.379 1.454-.597 2.176-.597 1.814,0 3.34,1.269 3.88,3.012 .118,.031 .235,.053 .352,.083 .864-.62 1.641-.763 2.168-.763 1.097,0 2.065,.604 2.633,1.518 .268,.013 .544,.034 .798,.034 .261,0 .532-.011 .809-.027 .568-.918 1.537-1.525 2.637-1.525 .505,0 1.24,.136 2.06,.692 .166-.046 .332-.097 .499-.145 .576-1.674 2.073-2.878 3.841-2.878 .642,0 1.294,.171 1.937,.472 1.907-1.107 3.2-2.337 3.2-3.459v-14.8h-30zm4.22,12.583c-1.295,0-2.345-1.05-2.345-2.345 0-1.295 1.05-2.345 2.345-2.345 1.295,0 2.345,1.049 2.345,2.345 0,1.295-1.05,2.345-2.345,2.345zm6.096,4.298c-2.071,0-3.751-1.68-3.751-3.751 0-2.071 1.68-3.751 3.751-3.751 2.071,0 3.751,1.679 3.751,3.751 .001,2.071-1.679,3.751-3.751,3.751zm9.379,0c-2.071,0-3.751-1.68-3.751-3.751 0-2.071 1.68-3.751 3.751-3.751 2.071,0 3.751,1.679 3.751,3.751 .001,2.071-1.679,3.751-3.751,3.751zm6.096-4.298c-1.295,0-2.345-1.05-2.345-2.345 0-1.295 1.05-2.345 2.345-2.345 1.295,0 2.345,1.049 2.345,2.345 0,1.295-1.05,2.345-2.345,2.345z"/>
<circle cx="4.81" cy="10.736" r="1.031" d="m 5.841,10.736 c 0,0.569406 -0.4615945,1.031 -1.0310001,1.031 -0.5694055,0 -1.031,-0.461594 -1.031,-1.031 0,-0.569406 0.4615945,-1.031 1.031,-1.031 0.5694056,0 1.0310001,0.461594 1.0310001,1.031 z"/>
<circle cx="6.251" cy="12.509" r=".411" d="m 6.6619999,12.509 c 0,0.226989 -0.1840109,0.411 -0.411,0.411 -0.226989,0 -0.411,-0.184011 -0.411,-0.411 0,-0.226989 0.184011,-0.411 0.411,-0.411 0.2269891,0 0.411,0.184011 0.411,0.411 z"/>
<circle cx="26.381" cy="10.736" r="1.031" d="m 27.412001,10.736 c 0,0.569406 -0.461595,1.031 -1.031,1.031 -0.569406,0 -1.031,-0.461594 -1.031,-1.031 0,-0.569406 0.461594,-1.031 1.031,-1.031 0.569405,0 1.031,0.461594 1.031,1.031 z"/>
<circle cx="27.822" cy="12.509" r=".411" d="m 28.233001,12.509 c 0,0.226989 -0.184011,0.411 -0.411,0.411 -0.22699,0 -0.411001,-0.184011 -0.411001,-0.411 0,-0.226989 0.184011,-0.411 0.411001,-0.411 0.226989,0 0.411,0.184011 0.411,0.411 z"/>
<path d="m12.588,22.507c-.509,0-1.093,.22-1.709,.759-.427,.775-.666,1.636-.666,2.543 0,1.626 .765,3.104 2.013,4.201-.005-.131-.007-.263-.007-.395 0-2.059 .873-3.889 2.22-5.02 0-1.064-.754-2.088-1.851-2.088z"/>
<path d="m21.839,25.81c0-.907-.238-1.768-.666-2.543-.616-.539-1.199-.76-1.709-.759-1.097,0-1.851,1.023-1.851,2.089 1.347,1.131 2.22,2.96 2.22,5.02 0,.132-.002,.264-.007,.395 1.248-1.098 2.013-2.576 2.013-4.202z"/>
<circle cx="10.66" cy="13.282" r="1.876" d="m 12.536,13.282 c 0,1.036086 -0.839914,1.876 -1.876,1.876 -1.0360864,0 -1.8760002,-0.839914 -1.8760002,-1.876 0,-1.036087 0.8399138,-1.876 1.8760002,-1.876 1.036086,0 1.876,0.839913 1.876,1.876 z"/>
<circle cx="12.967" cy="16.118" r=".938" d="m 13.905,16.118 c 0,0.518043 -0.419957,0.938 -0.938,0.938 -0.518043,0 -0.938,-0.419957 -0.938,-0.938 0,-0.518043 0.419957,-0.938 0.938,-0.938 0.518043,0 0.938,0.419957 0.938,0.938 z"/>
</g>
</svg>
