<svg xmlns="http://www.w3.org/2000/svg" viewBox="0 0 512 512">
<g fill="#fff" transform="scale(16)">
<circle cx="20.038" cy="13.282" r="1.876" d="m 21.914,13.282 c 0,1.036086 -0.839914,1.876 -1.876,1.876 -1.036086,0 -1.876,-0.839914 -1.876,-1.876 0,-1.036087 0.839914,-1.876 1.876,-1.876 1.036086,0 1.876,0.839913 1.876,1.876 z"/>
<circle cx="22.345" cy="16.118" r=".938" d="m 23.282999,16.118 c 0,0.518043 -0.419957,0.938 -0.938,0.938 -0.518043,0 -0.938,-0.419957 -0.938,-0.938 0,-0.518043 0.419957,-0.938 0.938,-0.938 0.518043,0 0.938,0.419957 0.938,0.938 z"/>
<path d="m 6.187 20.267 c -0.742 0 -1.592 0.313 -2.491 1.079 -0.623 1.101 -0.97 2.324 -0.97 3.613 0 2.309 1.115 4.409 2.933 5.968 -0.007 -0.186 -0.01 -0.374 -0.01 -0.562 0 -2.925 1.272 -5.524 3.235 -7.13 0.001 -1.515 -1.098 -2.968 -2.697 -2.968 z"/>
<path d="m 29.326 24.958 c 0 -1.289 -0.347 -2.512 -0.97 -3.613 -0.898 -0.766 -1.748 -1.079 -2.491 -1.079 -1.599 0 -2.698 1.453 -2.698 2.967 1.963 1.607 3.235 4.205 3.235 7.13 0 0.188 -0.004 0.375 -0.01 0.562 1.819 -1.558 2.934 -3.657 2.934 -5.967 z"/>
<path d="m 1 1.074 v 14.791 c 0 1.28 1.208 2.523 3.01 3.592 0.719 -0.379 1.454 -0.597 2.176 -0.597 1.814 0 3.34 1.269 3.88 3.012 0.118 0.031 0.235 0.053 0.352 0.083 0.864 -0.62 1.641 -0.763 2.168 -0.763 1.097 0 2.065 0.604 2.633 1.518 0.268 0.013 0.544 0.034 0.798 0.034 0.261 0 0.532 -0.011 0.809 -0.027 0.568 -0.918 1.537 -1.525 2.637 -1.525 0.505 0 1.24 0.136 2.06 0.692 0.166 -0.046 0.332 -0.097 0.499 -0.145 0.576 -1.674 2.073 -2.878 3.841 -2.878 0.642 0 1.294 0.171 1.937 0.472 1.907 -1.107 3.2 -2.337 3.2 -3.459 v -14.8 h -30 z m 4.22 12.583 c -1.295 0 -2.345 -1.05 -2.345 -2.345 0 -1.295 1.05 -2.345 2.345 -2.345 1.295 0 2.345 1.049 2.345 2.345 0 1.295 -1.05 2.345 -2.345 2.345 z m 6.096 4.298 c -2.071 0 -3.751 -1.68 -3.751 -3.751 0 -2.071 1.68 -3.751 3.751 -3.751 2.071 0 3.751 1.679 3.751 3.751 0.001 2.071 -1.679 3.751 -3.751 3.751 z m 9.379 0 c -2.071 0 -3.751 -1.68 -3.751 -3.751 0 -2.071 1.68 -3.751 3.751 -3.751 2.071 0 3.751 1.679 3.751 3.751 0.001 2.071 -1.679 3.751 -3.751 3.751 z m 6.096 -4.298 c -1.295 0 -2.345 -1.05 -2.345 -2.345 0 -1.295 1.05 -2.345 2.345 -2.345 1.295 0 2.345 1.049 2.345 2.345 0 1.295 -1.05 2.345 -2.345 2.345 z"/>
<circle cx="4.81" cy="10.736" r="1.031" d="m 5.841,10.736 c 0,0.569406 -0.4615945,1.031 -1.0310001,1.031 -0.5694055,0 -1.031,-0.461594 -1.031,-1.031 0,-0.569406 0.4615945,-1.031 1.031,-1.031 0.5694056,0 1.0310001,0.461594 1.0310001,1.031 z"/>
<circle cx="6.251" cy="12.509" r=".411" d="m 6.6619999,12.509 c 0,0.226989 -0.1840109,0.411 -0.411,0.411 -0.226989,0 -0.411,-0.184011 -0.411,-0.411 0,-0.226989 0.184011,-0.411 0.411,-0.411 0.2269891,0 0.411,0.184011 0.411,0.411 z"/>
<circle cx="26.381" cy="10.736" r="1.031" d="m 27.412001,10.736 c 0,0.569406 -0.461595,1.031 -1.031,1.031 -0.569406,0 -1.031,-0.461594 -1.031,-1.031 0,-0.569406 0.461594,-1.031 1.031,-1.031 0.569405,0 1.031,0.461594 1.031,1.031 z"/>
<circle cx="27.822" cy="12.509" r=".411" d="m 28.233001,12.509 c 0,0.226989 -0.184011,0.411 -0.411,0.411 -0.22699,0 -0.411001,-0.184011 -0.411001,-0.411 0,-0.226989 0.184011,-0.411 0.411001,-0.411 0.226989,0 0.411,0.184011 0.411,0.411 z"/>
<path d="m 12.588 22.507 c -0.509 0 -1.093 0.22 -1.709 0.759 -0.427 0.775 -0.666 1.636 -0.666 2.543 0 1.626 0.765 3.104 2.013 4.201 -0.005 -0.131 -0.007 -0.263 -0.007 -0.395 0 -2.059 0.873 -3.889 2.22 -5.02 0 -1.064 -0.754 -2.088 -1.851 -2.088 z"/>
<path d="m 21.839 25.81 c 0 -0.907 -0.238 -1.768 -0.666 -2.543 -0.616 -0.539 -1.199 -0.76 -1.709 -0.759 -1.097 0 -1.851 1.023 -1.851 2.089 1.347 1.131 2.22 2.96 2.22 5.02 0 0.132 -0.002 0.264 -0.007 0.395 1.248 -1.098 2.013 -2.576 2.013 -4.202 z"/>
<circle cx="10.66" cy="13.282" r="1.876" d="m 12.536,13.282 c 0,1.036086 -0.839914,1.876 -1.876,1.876 -1.0360864,0 -1.8760002,-0.839914 -1.8760002,-1.876 0,-1.036087 0.8399138,-1.876 1.8760002,-1.876 1.036086,0 1.876,0.839913 1.876,1.876 z"/>
<circle cx="12.967" cy="16.118" r=".938" d="m 13.905,16.118 c 0,0.518043 -0.419957,0.938 -0.938,0.938 -0.518043,0 -0.938,-0.419957 -0.938,-0.938 0,-0.518043 0.419957,-0.938 0.938,-0.938 0.518043,0 0.938,0.419957 0.938,0.938 z"/>
</g>
</svg>
