<svg viewBox="0 0 512 512" xmlns="http://www.w3.org/2000/svg">

<g transform="matrix(18.68858,0,0,18.68858,-2270.97157,-21126.75175)">
<g transform="matrix(1,0,0,2.93383,0,-2236.8194)">
<path d="m124.6758,1148.7188v8.0056" fill="none" stroke="#fff" stroke-width=".5838"/>
<path d="m129.9796,1148.7188v8.0056" fill="none" stroke="#fff" stroke-width=".5838"/>
<path d="m135.2834,1148.7188v8.0056" fill="none" stroke="#fff" stroke-width=".5838"/>
<path d="m140.5682,1148.7188v8.0056" fill="none" stroke="#fff" stroke-width=".5838"/>
<path d="m145.8597,1148.7188v8.0056" fill="none" stroke="#fff" stroke-width=".5838"/>
</g>
<path d="m148.4695,1149.4214c-.0132-1.473-1.1931-2.6687-2.647-2.6687s-2.6337,1.1957-2.6337,2.6687c0-1.473-1.1799-2.6687-2.6338-2.6687s-2.6337,1.1957-2.647,2.6687c-.0132-1.473-1.1932-2.6687-2.647-2.6687s-2.6337,1.1957-2.647,2.6687c-.0132-1.473-1.1932-2.6687-2.647-2.6687s-2.6337,1.1957-2.647,2.6687c-.0132-1.473-1.1931-2.6687-2.647-2.6687s-2.6337,1.1957-2.6337,2.6687" fill="none" stroke="#fff"/>
<path d="m124.6758,1131.6996 1.8892,5.0103-1.8892-1.0869-1.8892,1.0869 1.8892-5.0103z" fill="#fff"/>
<path d="m122.0347,1131.6409v20.7218" fill="none" stroke="#000"/>
<path d="m148.5087,1141.4453c-1.4557,0-2.6371-1.1957-2.6503-2.6687-.0133,1.473-1.1947,2.6687-2.6503,2.6687s-2.6371-1.1957-2.6371-2.6687c0,1.473-1.1814,2.6687-2.6371,2.6687s-2.6371-1.1957-2.6503-2.6687c-.0132,1.473-1.1947,2.6687-2.6503,2.6687s-2.6371-1.1957-2.6503-2.6687c-.0132,1.473-1.1947,2.6687-2.6503,2.6687s-2.6371-1.1957-2.6503-2.6687c-.0132,1.473-1.1947,2.6687-2.6503,2.6687" fill="none" stroke="#fff"/>
<path d="m129.9796,1131.6996 1.8892,5.0103-1.8892-1.0869-1.8892,1.0869 1.8892-5.0103z" fill="#fff"/>
<path d="m135.2834,1131.6996 1.8892,5.0103-1.8892-1.0869-1.8892,1.0869 1.8892-5.0103z" fill="#fff"/>
<path d="m140.5682,1131.6996 1.8892,5.0103-1.8892-1.0869-1.8892,1.0869 1.8892-5.0103z" fill="#fff"/>
<path d="m145.8597,1131.6996 1.8892,5.0103-1.8892-1.0869-1.8892,1.0869 1.8892-5.0103z" fill="#fff"/>
<g transform="translate(.0056,-1.5528)">
<path d="m122.0444,1133.4479v21.9756" fill="none" stroke="#000"/>
<path d="m148.4582,1133.4479v21.9756" fill="none" stroke="#000"/>
</g>
<g transform="matrix(1,0,0,1.88356,2.63466,-1021.9429)">
<path d="m124.6758,1148.7188v8.0056" fill="none" stroke="#fff" stroke-width=".7286"/>
<path d="m129.9796,1148.7188v8.0056" fill="none" stroke="#fff" stroke-width=".7286"/>
<path d="m135.2834,1148.7188v8.0056" fill="none" stroke="#fff" stroke-width=".7286"/>
<path d="m140.5682,1148.7188v8.0056" fill="none" stroke="#fff" stroke-width=".7286"/>
</g>
</g>
</svg>
