<svg viewBox="0 0 512 512" xmlns="http://www.w3.org/2000/svg">

<g transform="matrix(18.68858,0,0,18.68858,-5680.25128,-21122.2723)">
<g transform="matrix(.99308,.07024,-.07024,.99308,368.78446,42.20868)">
<path d="m 35.4752 1109.49 c 0 3.8485 -3.1198 6.9683 -6.9683 6.9683 s -6.9683 -3.1198 -6.9683 -6.9683 3.1198 -6.9684 6.9683 -6.9684 6.9683 3.1199 6.9683 6.9684 z" fill="#fff" transform="matrix(1.17112,0,0,1.17112,-4.1329,-187.54849)"/>
<path d="m 32.9039 1119.21 c 4.7333 -1.039 7.555 -6.5426 5.1424 -11.8499 l -2.3104 0.708 c 1.4171 3.971 -0.4011 7.2695 -2.8321 11.1419 z" fill="#fff" fill-rule="evenodd"/>
<path d="m 35.0178 1105.23 -12.3179 -9.9646 5.3033 13.9378" fill="#fff" fill-rule="evenodd"/>
<path d="m 25.9365 1104.32 -11.7483 5.92 12.1155 -0.8031" fill="#fff" fill-rule="evenodd"/>
<path d="m 21.4116 1109.41 -2.9044 8.8045 5.6372 -6.4376" fill="#fff" fill-rule="evenodd"/>
<path d="m 21.4703 1114.35 1.0226 4.9191 0.9013 -4.5489" fill="#fff" fill-rule="evenodd"/>
<path d="m 30.3856 1103.9 -17.2564 -5.6922 12.6174 11.0486" fill="#fff" fill-rule="evenodd"/>
<path d="m 36.8951 1107.54 -6.3136 -9.243 2.0393 9.4904" fill="#fff" fill-rule="evenodd"/>
<path d="m 318.918 1000.02 c 0.5496 0.5579 -0.1412 1.3628 -0.6976 1.5408 -1.2361 0.3954 -2.3603 -0.7145 -2.5451 -1.8697 -0.2985 -1.8667 1.325 -3.4197 3.0974 -3.5756 2.5015 -0.2201 4.5128 1.9564 4.6259 4.3589 0.1481 3.1446 -2.6018 5.629 -5.6453 5.6921 -3.7957 0.079 -6.7629 -3.2581 -6.7715 -6.9514 -0.0104 -4.454 3.9233 -7.9113 8.2739 -7.8623 5.1185 0.0577 9.0719 4.596 8.963 9.6105 -0.0391 1.8022 -0.5794 3.579 -1.5327 5.1076" fill="none" stroke="#000" stroke-width="1.1896" transform="matrix(.84528,3.4249458e-4,-3.4157483e-4,-.84342,-237.9323,1955.6761)"/>
<path d="m 38.224 1109.38 c -0.2134 -1.8162 -4.8913 -10.0297 -4.8913 -10.0297 l 0.5775 8.4006" fill="#fff" fill-rule="evenodd"/>
</g>
<path d="m 321.005 1137.64 3.2212 3.0524 -2.4377 -3.8932"/>
<path d="m 315.623 1138.23 5.1948 2.1482 -5.1983 -4.0218"/>
<path d="m 311.695 1141.24 5.527 -0.5676 -5.3409 2.1604"/>
<path d="m 310.627 1146.11 2.0265 -1.9738 -1.0929 2.6441"/>
<path d="m 310.896 1151.81 0.8338 -2.3793 0.3099 2.493"/>
</g>
</svg>
