<svg xmlns="http://www.w3.org/2000/svg" viewBox="0 0 512 512">
<g transform="matrix(15 0 0 15 -3764 -3824)">
<use width="744.094" height="1052.362" transform="translate(288 252)"/>
</g>
<g fill="#fff" transform="matrix(3.75 0 0 3.75 -584 -2730.35818)">
<path d="m 224 732.362 c -2 18 -10 40 -10 48 0 4 4 8 10 8 6 0 10 -4 10 -8 0 -8 -8 -30 -10 -48 z"/>
<path d="m 288 796.362 c -18 -2 -40 -10 -48 -10 -4 0 -8 4 -8 10 0 6 4 10 8 10 8 0 30 -8 48 -10 z"/>
<path d="m 224 860.362 c 2 -18 10 -40 10 -48 0 -4 -4 -8 -10 -8 -6 0 -10 4 -10 8 0 8 8 30 10 48 z"/>
<path d="m 160 796.362 c 18 2 40 10 48 10 4 0 8 -4 8 -10 0 -6 -4 -10 -8 -10 -8 0 -30 8 -48 10 z"/>
<path d="m 266.426 753.936 c -22.6274 16.9706 -22.6274 16.9706 -25.4558 19.799 -2.8284 2.8284 -5.6568 5.6569 -2.8284 8.4853 2.8284 2.8284 5.6568 0 8.4853 -2.8284 2.8284 -2.8284 2.8284 -2.8284 19.799 -25.4559 z"/>
<path d="m 181.574 753.936 c 16.9706 22.6274 16.9706 22.6274 19.799 25.4559 2.8284 2.8284 5.6569 5.6568 8.4853 2.8284 2.8284 -2.8284 0 -5.6568 -2.8284 -8.4853 -2.8284 -2.8284 -2.8284 -2.8284 -25.4558 -19.799 z"/>
<path d="m 181.574 838.789 c 22.6274 -16.9706 22.6274 -16.9706 25.4558 -19.799 2.8284 -2.8284 5.6568 -5.6569 2.8284 -8.4853 -2.8284 -2.8284 -5.6568 0 -8.4853 2.8284 -2.8284 2.8284 -2.8284 2.8284 -19.799 25.4559 z"/>
<path d="m 266.426 838.789 c -16.9706 -22.6274 -16.9706 -22.6274 -19.799 -25.4559 -2.8284 -2.8284 -5.6569 -5.6568 -8.4853 -2.8284 -2.8284 2.8284 0 5.6568 2.8284 8.4853 2.8284 2.8284 2.8284 2.8284 25.4558 19.799 z"/>
</g>
</svg>
