<svg xmlns="http://www.w3.org/2000/svg" viewBox="0 0 512 512">
<g transform="matrix(15 0 0 15 -3764 -3824)">
<use width="744.094" height="1052.362" transform="translate(288 252)"/>
</g>
<g fill="#fff" transform="matrix(3.75 0 0 3.75 -584 -2730.35818)">
<path d="m224,732.3622c-2,18-10,40-10,48 0,4 4,8 10,8 6,0 10-4 10-8 0-8-8-30-10-48z"/>
<path d="m288,796.3622c-18-2-40-10-48-10-4,0-8,4-8,10 0,6 4,10 8,10 8,0 30-8 48-10z"/>
<path d="m224,860.3622c2-18 10-40 10-48 0-4-4-8-10-8-6,0-10,4-10,8 0,8 8,30 10,48z"/>
<path d="m160,796.3622c18,2 40,10 48,10 4,0 8-4 8-10 0-6-4-10-8-10-8,0-30,8-48,10z"/>
<path d="m266.4264,753.9358c-22.6274,16.9706-22.6274,16.9706-25.4558,19.799-2.8284,2.8284-5.6568,5.6569-2.8284,8.4853 2.8284,2.8284 5.6568,0 8.4853-2.8284 2.8284-2.8284 2.8284-2.8284 19.799-25.4559z"/>
<path d="m181.5736,753.9358c16.9706,22.6274 16.9706,22.6274 19.799,25.4559 2.8284,2.8284 5.6569,5.6568 8.4853,2.8284 2.8284-2.8284 0-5.6568-2.8284-8.4853-2.8284-2.8284-2.8284-2.8284-25.4558-19.799z"/>
<path d="m181.5736,838.7886c22.6274-16.9706 22.6274-16.9706 25.4558-19.799 2.8284-2.8284 5.6568-5.6569 2.8284-8.4853-2.8284-2.8284-5.6568,0-8.4853,2.8284-2.8284,2.8284-2.8284,2.8284-19.799,25.4559z"/>
<path d="m266.4264,838.7886c-16.9706-22.6274-16.9706-22.6274-19.799-25.4559-2.8284-2.8284-5.6569-5.6568-8.4853-2.8284-2.8284,2.8284 0,5.6568 2.8284,8.4853 2.8284,2.8284 2.8284,2.8284 25.4558,19.799z"/>
</g>
</svg>
