<svg xmlns="http://www.w3.org/2000/svg" viewBox="0 0 512 512">
<g transform="matrix(15 0 0 15 -4304 -3824)">
<use width="744.094" height="1052.362" transform="translate(324 252)"/>
</g>
<g fill="#fff" transform="matrix(3.75 0 0 3.75 -584 -2730.35818)">
<path d="m 224 732.362 c -2 18 -10 40 -10 48 0 4 4 8 10 8 6 0 10 -4 10 -8 0 -8 -8 -30 -10 -48 z"/>
<path d="m 288 796.362 c -18 -2 -40 -10 -48 -10 -4 0 -8 4 -8 10 0 6 4 10 8 10 8 0 30 -8 48 -10 z"/>
<path d="m 224 860.362 c 2 -18 10 -40 10 -48 0 -4 -4 -8 -10 -8 -6 0 -10 4 -10 8 0 8 8 30 10 48 z"/>
<path d="m 160 796.362 c 18 2 40 10 48 10 4 0 8 -4 8 -10 0 -6 -4 -10 -8 -10 -8 0 -30 8 -48 10 z"/>
<path d="m 254 848.324 c -7.268 -16.5884 -6.5359 -19.3205 -8.5359 -22.7846 -2 -3.4641 -4 -6.9282 -7.4641 -4.9282 -3.4641 2 -1.4641 5.4641 0.5359 8.9282 2 3.4641 4.732 4.1962 15.4641 18.7846 z"/>
<path d="m 194 848.324 c 10.732 -14.5884 13.4641 -15.3205 15.4641 -18.7846 2 -3.4641 4 -6.9282 0.5359 -8.9282 -3.4641 -2 -5.4641 1.4641 -7.4641 4.9282 -2 3.4641 -1.268 6.1962 -8.5359 22.7846 z"/>
<path d="m 172.038 826.362 c 16.5884 -7.268 19.3205 -6.5359 22.7846 -8.5359 3.4641 -2 6.9282 -4 4.9282 -7.4641 -2 -3.4641 -5.4641 -1.4641 -8.9282 0.5359 -3.4641 2 -4.1962 4.732 -18.7846 15.4641 z"/>
<path d="m 275.962 826.362 c -14.5885 -10.732 -15.3205 -13.4641 -18.7846 -15.4641 -3.4641 -2 -6.9282 -4 -8.9282 -0.5359 -2 3.4641 1.4641 5.4641 4.9282 7.4641 3.4641 2 6.1962 1.268 22.7846 8.5359 z"/>
<path d="m 172.038 766.362 c 14.5884 10.732 15.3205 13.4641 18.7846 15.4641 3.4641 2 6.9282 4 8.9282 0.5359 2 -3.4641 -1.4641 -5.4641 -4.9282 -7.4641 -3.4641 -2 -6.1962 -1.268 -22.7846 -8.5359 z"/>
<path d="m 194 744.401 c 7.268 16.5884 6.5359 19.3205 8.5359 22.7846 2 3.4641 4 6.9282 7.4641 4.9282 3.4641 -2 1.4641 -5.4641 -0.5359 -8.9282 -2 -3.4641 -4.732 -4.1962 -15.4641 -18.7846 z"/>
<path d="m 275.962 766.362 c -16.5885 7.268 -19.3205 6.5359 -22.7846 8.5359 -3.4641 2 -6.9282 4 -4.9282 7.4641 2 3.4641 5.4641 1.4641 8.9282 -0.5359 3.4641 -2 4.1962 -4.732 18.7846 -15.4641 z"/>
<path d="m 254 744.401 c -10.732 14.5884 -13.4641 15.3205 -15.4641 18.7846 -2 3.4641 -4 6.9282 -0.5359 8.9282 3.4641 2 5.4641 -1.4641 7.4641 -4.9282 2 -3.4641 1.268 -6.1962 8.5359 -22.7846 z"/>
</g>
</svg>
