<svg viewBox="0 0 512 512" xmlns="http://www.w3.org/2000/svg">

<path d="m 452.125 241.081 c 0 0.466 -1.0493 0.8438 -2.3438 0.8438 s -2.3438 -0.3778 -2.3438 -0.8438 1.0493 -0.8438 2.3438 -0.8438 2.3438 0.3778 2.3438 0.8438 z" transform="matrix(21.66957,-2.61222,3.96671,32.90564,-10388.69716,-6332.14127)"/>
<path d="m 452.125 241.081 c 0 0.466 -1.0493 0.8438 -2.3438 0.8438 s -2.3438 -0.3778 -2.3438 -0.8438 1.0493 -0.8438 2.3438 -0.8438 2.3438 0.3778 2.3438 0.8438 z" transform="matrix(18.51358,-2.55155,3.87458,28.11322,-8931.79915,-5272.39819)"/>
<path d="m 452.125 241.081 c 0 0.466 -1.0493 0.8438 -2.3438 0.8438 s -2.3438 -0.3778 -2.3438 -0.8438 1.0493 -0.8438 2.3438 -0.8438 2.3438 0.3778 2.3438 0.8438 z" transform="matrix(14.44143,-3.86957,5.87601,21.92958,-7600.00699,-3243.71821)"/>
<path d="m 452.125 241.081 c 0 0.466 -1.0493 0.8438 -2.3438 0.8438 s -2.3438 -0.3778 -2.3438 -0.8438 1.0493 -0.8438 2.3438 -0.8438 2.3438 0.3778 2.3438 0.8438 z" transform="matrix(10.5669,-2.83139,4.29952,16.04603,-5515.5144,-2333.72544)"/>
<path d="m 452.125 241.081 c 0 0.466 -1.0493 0.8438 -2.3438 0.8438 s -2.3438 -0.3778 -2.3438 -0.8438 1.0493 -0.8438 2.3438 -0.8438 2.3438 0.3778 2.3438 0.8438 z" transform="matrix(6.74582,-1.80754,2.74478,10.24365,-3458.54505,-1423.81239)"/>
<path d="m 452.125 241.081 c 0 0.466 -1.0493 0.8438 -2.3438 0.8438 s -2.3438 -0.3778 -2.3438 -0.8438 1.0493 -0.8438 2.3438 -0.8438 2.3438 0.3778 2.3438 0.8438 z" transform="matrix(4.65401,-1.24704,1.89365,7.0672,-2335.62659,-934.59294)"/>
<g transform="matrix(18.68858,0,0,18.68858,5158.98661,-4114.26672)">
<path d="m -249.863 238.081 c -0.4891 -0.712 -1.6472 -1.8604 -2.595 -2.2312 0.0987 0.4918 -0.2706 1.5957 -0.5419 2.0082 0.8534 0.2951 2.1731 0.2277 3.1369 0.223 z" fill="#fff" fill-rule="evenodd"/>
<path d="m -274.724 223.589 v 11.0324 c 2.348 -4.736 6.8543 -5.6465 6.8543 1.857 0 5.0493 8.2145 8.039 12.9986 2.84 2.0936 -2.2752 2.5766 -7.6007 0.0546 -10.6774 -2.4356 -2.9712 -10.2866 0.704 -4.4239 5.3797 -2.2287 -4.1359 1.5023 -4.0505 2.485 -2.3485 1.0815 1.8733 1.256 4.4973 -1.5019 6.0897 -2.1801 1.2587 -4.6345 -1.4312 -4.2327 -5.2158 0.7925 -7.4664 -2.6513 -12.2098 -12.234 -8.957 z" fill="#fff" fill-rule="evenodd"/>
<path d="m -271.393 242.704 c 1.823 -0.1432 7.2895 -2.3952 5.5142 -4.1705 -1.7396 -1.7396 -4.4463 2.3 -5.5142 4.1705 z" fill="#fff" fill-rule="evenodd" stroke="#000"/>
<path d="m -273.669 235.28 c 1.6503 0.7875 7.5105 1.5704 6.8607 -0.8547 -0.6368 -2.3764 -5.0006 -0.2313 -6.8607 0.8547 z" fill="#fff" fill-rule="evenodd" stroke="#000"/>
<path d="m -262.551 246.273 c 1.1878 -1.3903 3.2423 -5.4281 0.7317 -5.4281 -2.4602 1e-05 -1.2992 3.3503 -0.7317 5.4281 z" fill="#fff" fill-rule="evenodd" stroke="#000"/>
<path d="m -253.162 244.583 c -0.1432 -1.823 -1.5456 -6.1309 -3.3209 -4.3556 -1.7396 1.7396 1.4504 3.2877 3.3209 4.3556 z" fill="#fff" fill-rule="evenodd" stroke="#000"/>
<path d="m -249.973 230.867 c -0.7036 -0.3228 -2.1225 -0.6738 -3.0222 -0.5233 0.2029 0.4713 0.3992 1.312 0.5064 1.794 0.7922 -0.1654 1.7764 -0.8239 2.5158 -1.2707 z" fill="#fff" fill-rule="evenodd"/>
<path d="m -253.981 225.518 c -0.6421 0.2438 -1.7473 0.9221 -2.2123 1.5845 0.4242 0.1652 1.0778 0.5645 1.4492 0.7968 0.3887 -0.6037 0.5851 -1.6358 0.763 -2.3813 z" fill="#fff" fill-rule="evenodd"/>
<path d="m -260.344 225.103 c -0.1924 0.6593 -0.3172 1.9501 -0.0688 2.7203 0.3875 -0.239 1.1 -0.5199 1.5092 -0.6763 -0.2475 -0.674 -0.9528 -1.4528 -1.4405 -2.044 z" fill="#fff" fill-rule="evenodd"/>
</g>
</svg>
