<svg viewBox="0 0 512 512" xmlns="http://www.w3.org/2000/svg">

<g transform="matrix(18.68858,0,0,18.68858,-13164.95432,-27902.71258)">
<path d="m 718.518 1493.96 c 1.6048 0.2086 2.8577 1.9547 2.8577 4.0623 -1e-05 1.1671 -0.3998 2.2093 -1.0155 2.952 3.3374 0.628 4.5724 5.4692 3.5898 10.2026 h -2.3145 l -0.614 8.2425 h -5.8807 l -0.5432 -8.2425 h -2.1964 c -0.8667 -4.6093 -0.0795 -9.6844 3.5662 -10.2498 -0.5893 -0.7393 -0.9683 -1.7665 -0.9683 -2.9048 1e-05 -2.248 1.4309 -4.0623 3.1883 -4.0623 0.1097 0 0.2236 -0.016 0.3306 0 z" fill="#fff" fill-rule="evenodd"/>
<g transform="translate(546.8266)">
<path d="m 167.31 1513.28 -0.0756 -7.7005" fill="none" stroke="#000"/>
<path d="m 175.279 1513.28 0.0756 -7.7005" fill="none" stroke="#000"/>
<path d="m 171.258 1519.9 v -9.8259" fill="none" stroke="#000"/>
</g>
<path d="m 727.825 1508.35 -3.9308 -1.0928 3e-05 2.1859 z" fill="#fff"/>
<path d="m 727.6 1503.94 -4.0797 -0.038 0.5658 2.1114 z" fill="#fff"/>
<path d="m 724.982 1499.46 -3.5521 2.0069 1.5457 1.5456 z" fill="#fff"/>
<path d="m 708.592 1508.35 3.9308 -1.0928 -3e-05 2.1859 z" fill="#fff"/>
<path d="m 708.817 1503.94 4.0797 -0.038 -0.5658 2.1114 z" fill="#fff"/>
<path d="m 711.435 1499.46 3.5521 2.0069 -1.5457 1.5456 z" fill="#fff"/>
<path d="m 724.883 1513.57 -3.3596 -1.2608 -0.1687 1.9151 z" fill="#fff"/>
<path d="m 724.305 1517.51 -3.3596 -1.2608 -0.1687 1.9151 z" fill="#fff"/>
<path d="m 711.411 1513.57 3.3596 -1.2608 0.1687 1.9151 z" fill="#fff"/>
<path d="m 711.99 1517.51 3.3596 -1.2608 0.1687 1.9151 z" fill="#fff"/>
<path d="m 723.752 1498.06 -2.5728 -1.0928 2e-05 2.1859 z" fill="#fff"/>
<path d="m 712.641 1498.06 2.5728 -1.0928 -2e-05 2.1859 z" fill="#fff"/>
<path d="m 722.521 1494.11 -2.7373 0.5666 1.2446 1.7969 z" fill="#fff"/>
<path d="m 713.918 1494.11 2.7373 0.5666 -1.2446 1.7969 z" fill="#fff"/>
<path d="m 720.634 1498.69 c 0 2.1164 -1.0494 3.832 -2.3438 3.832 s -2.3438 -1.7156 -2.3438 -3.832 1.0494 -3.8319 2.3438 -3.8319 2.3438 1.7156 2.3438 3.8319 z" stroke="#fff" stroke-width=".9526" transform="matrix(1.15818,0,0,.95146,-113.73269,72.15688)"/>
<path d="m 715.473 1498.05 h 5.4117" fill="none" stroke="#fff"/>
<path d="m 718.178 1495.35 0.0001 5.4116" fill="none" stroke="#000"/>
</g>
</svg>
