<svg viewBox="0 0 512 512" xmlns="http://www.w3.org/2000/svg">

<g transform="matrix(18.68858,0,0,18.68858,3237.1728,-4771.40603)">
<g transform="matrix(-1.17416,9.10820566820655e-08,-1.00640338377746e-07,-1.06264,525.00008,551.85137)">
<path d="m576.0872,263.5339-2.5372-6.0775 4.6684,4.464-2.1312,1.6135z" fill="#fff" fill-rule="evenodd"/>
<path d="m589.7878,263.5339 2.5372-6.0775-4.6684,4.464 2.1312,1.6135z" fill="#fff" fill-rule="evenodd"/>
<path d="m579.6269,260.815-.3753-6.634 2.9039,5.9108-2.5286.7232z" fill="#fff" fill-rule="evenodd"/>
<path d="m586.2963,260.815 .3753-6.634-2.9039,5.9108 2.5286.7232z" fill="#fff" fill-rule="evenodd"/>
</g>
<g transform="matrix(-1.17416,9.10820566820655e-08,-1.00640338377746e-07,-1.06264,525.00008,551.85137)">
<path d="m576.0872,269.1346-2.5372,6.0775 4.6684-4.464-2.1312-1.6135z" fill="#fff" fill-rule="evenodd"/>
<path d="m589.7878,269.1346 2.5372,6.0775-4.6684-4.464 2.1312-1.6135z" fill="#fff" fill-rule="evenodd"/>
<path d="m579.6269,271.8534-.3753,6.634 2.9039-5.9108-2.5286-.7232z" fill="#fff" fill-rule="evenodd"/>
<path d="m586.2963,271.8534 .3753,6.634-2.9039-5.9108 2.5286-.7232z" fill="#fff" fill-rule="evenodd"/>
</g>
<path d="m-150.4812,271.0754c0,3.4293-3.8089,6.2093-8.5074,6.2093s-8.5074-2.78-8.5074-6.2093 3.8089-6.2093 8.5074-6.2093 8.5074,2.78 8.5074,6.2093z" fill="#fff" transform="matrix(1.18926,0,0,1.11069,29.61996,-32.24793)"/>
<path d="m-171.3172,268.8338h23.7153" fill="none" stroke="#000"/>
<path d="m586.25,266.5497c0,1.1391-.9234,2.0625-2.0625,2.0625s-2.0625-.9234-2.0625-2.0625 .9234-2.0625 2.0625-2.0625 2.0625.9234 2.0625,2.0625z" fill="#fff" stroke="#000" stroke-width=".5744" transform="matrix(-1.74094,0,0,-1.74075,857.57709,732.83051)"/>
</g>
</svg>
