<svg viewBox="0 0 512 512" xmlns="http://www.w3.org/2000/svg">

<g transform="matrix(18.68858,0,0,18.68858,-839.37214,-7882.46856)">
<path d="m67.7247,423.2193-22.2982,22.2982v3.2439h3.1495l22.3612-22.3297-3.2124-3.2125z" fill="#fff" stroke="#000"/>
<g transform="matrix(.71264,.71264,-.71264,.71264,303.45185,59.28305)">
<path d="m-675.2335,763.0311h9.0336v9.0336h-9.0336z" fill="#fff" transform="matrix(.95212,-.30572,.95212,.30572,0,0)"/>
<path d="m-660.6478,748.0501h9.4923v9.4923h-9.4923z" fill="#fff" transform="matrix(.9515,-.30765,.9515,.30765,0,0)"/>
<path d="m-647.2767,734.3451h9.8746v9.8746h-9.8746z" fill="#fff" transform="matrix(.95102,-.30912,.95102,.30912,0,0)"/>
<path d="m88.0077,422.7373 8.375-1e-05-.7071,21.0625-7.0934,1e-05-.5745-21.0625z" fill="#fff" stroke="#000" stroke-width=".9922"/>
<path d="m59.6875,431.3621c0,1.2081-.9794,2.1875-2.1875,2.1875s-2.1875-.9794-2.1875-2.1875 .9794-2.1875 2.1875-2.1875 2.1875.9794 2.1875,2.1875z" fill="#fff" stroke="#000" stroke-width=".9922" transform="translate(34.6952,-4.2186)"/>
<path d="m59.6875,431.3621c0,1.2081-.9794,2.1875-2.1875,2.1875s-2.1875-.9794-2.1875-2.1875 .9794-2.1875 2.1875-2.1875 2.1875.9794 2.1875,2.1875z" fill="#fff" stroke="#000" stroke-width="1.0344" transform="matrix(.96177,-5.9835569e-8,0,.95671,36.8935,20.7491)"/>
<path d="m59.6875,431.3621c0,1.2081-.9794,2.1875-2.1875,2.1875s-2.1875-.9794-2.1875-2.1875 .9794-2.1875 2.1875-2.1875 2.1875.9794 2.1875,2.1875z" fill="#fff" stroke="#000" stroke-width="1.09" transform="matrix(.91589,-3.8534564e-8,4.7604749e-8,.90477,39.53152,49.4729)"/>
</g>
</g>
</svg>
