<svg viewBox="0 0 512 512" xmlns="http://www.w3.org/2000/svg">

<g transform="matrix(18.68858,0,0,18.68858,3237.1728,-4771.40603)">
<g transform="matrix(-1.17416,9.10820566820655e-08,-1.00640338377746e-07,-1.06264,525.00008,551.85137)">
<path d="m 576.087 263.534 -2.5372 -6.0775 4.6684 4.464 -2.1312 1.6135 z" fill="#fff" fill-rule="evenodd"/>
<path d="m 589.788 263.534 2.5372 -6.0775 -4.6684 4.464 2.1312 1.6135 z" fill="#fff" fill-rule="evenodd"/>
<path d="m 579.627 260.815 -0.3753 -6.634 2.9039 5.9108 -2.5286 0.7232 z" fill="#fff" fill-rule="evenodd"/>
<path d="m 586.296 260.815 0.3753 -6.634 -2.9039 5.9108 2.5286 0.7232 z" fill="#fff" fill-rule="evenodd"/>
</g>
<g transform="matrix(-1.17416,9.10820566820655e-08,-1.00640338377746e-07,-1.06264,525.00008,551.85137)">
<path d="m 576.087 269.135 -2.5372 6.0775 4.6684 -4.464 -2.1312 -1.6135 z" fill="#fff" fill-rule="evenodd"/>
<path d="m 589.788 269.135 2.5372 6.0775 -4.6684 -4.464 2.1312 -1.6135 z" fill="#fff" fill-rule="evenodd"/>
<path d="m 579.627 271.853 -0.3753 6.634 2.9039 -5.9108 -2.5286 -0.7232 z" fill="#fff" fill-rule="evenodd"/>
<path d="m 586.296 271.853 0.3753 6.634 -2.9039 -5.9108 2.5286 -0.7232 z" fill="#fff" fill-rule="evenodd"/>
</g>
<path d="m -150.481 271.075 c 0 3.4293 -3.8089 6.2093 -8.5074 6.2093 s -8.5074 -2.78 -8.5074 -6.2093 3.8089 -6.2093 8.5074 -6.2093 8.5074 2.78 8.5074 6.2093 z" fill="#fff" transform="matrix(1.18926,0,0,1.11069,29.61996,-32.24793)"/>
<path d="m -171.317 268.834 h 23.7153" fill="none" stroke="#000"/>
<path d="m 586.25 266.55 c 0 1.1391 -0.9234 2.0625 -2.0625 2.0625 s -2.0625 -0.9234 -2.0625 -2.0625 0.9234 -2.0625 2.0625 -2.0625 2.0625 0.9234 2.0625 2.0625 z" fill="#fff" stroke="#000" stroke-width=".5744" transform="matrix(-1.74094,0,0,-1.74075,857.57709,732.83051)"/>
</g>
</svg>
