<svg xmlns="http://www.w3.org/2000/svg" viewBox="0 0 512 512">
<g transform="matrix(15 0 0 15 -4304 -3824)">
<use width="744.094" height="1052.362" transform="translate(324 252)"/>
</g>
<g fill="#fff" transform="matrix(3.75 0 0 3.75 -584 -2730.35818)">
<path d="m224,732.3622c-2,18-10,40-10,48 0,4 4,8 10,8 6,0 10-4 10-8 0-8-8-30-10-48z"/>
<path d="m288,796.3622c-18-2-40-10-48-10-4,0-8,4-8,10 0,6 4,10 8,10 8,0 30-8 48-10z"/>
<path d="m224,860.3622c2-18 10-40 10-48 0-4-4-8-10-8-6,0-10,4-10,8 0,8 8,30 10,48z"/>
<path d="m160,796.3622c18,2 40,10 48,10 4,0 8-4 8-10 0-6-4-10-8-10-8,0-30,8-48,10z"/>
<path d="m254,848.3237c-7.268-16.5884-6.5359-19.3205-8.5359-22.7846-2-3.4641-4-6.9282-7.4641-4.9282-3.4641,2-1.4641,5.4641 .5359,8.9282 2,3.4641 4.732,4.1962 15.4641,18.7846z"/>
<path d="m194,848.3237c10.732-14.5884 13.4641-15.3205 15.4641-18.7846 2-3.4641 4-6.9282 .5359-8.9282-3.4641-2-5.4641,1.4641-7.4641,4.9282-2,3.4641-1.268,6.1962-8.5359,22.7846z"/>
<path d="m172.0385,826.3622c16.5884-7.268 19.3205-6.5359 22.7846-8.5359 3.4641-2 6.9282-4 4.9282-7.4641-2-3.4641-5.4641-1.4641-8.9282,.5359-3.4641,2-4.1962,4.732-18.7846,15.4641z"/>
<path d="m275.9615,826.3622c-14.5885-10.732-15.3205-13.4641-18.7846-15.4641-3.4641-2-6.9282-4-8.9282-.5359-2,3.4641 1.4641,5.4641 4.9282,7.4641 3.4641,2 6.1962,1.268 22.7846,8.5359z"/>
<path d="m172.0385,766.3622c14.5884,10.732 15.3205,13.4641 18.7846,15.4641 3.4641,2 6.9282,4 8.9282,.5359 2-3.4641-1.4641-5.4641-4.9282-7.4641-3.4641-2-6.1962-1.268-22.7846-8.5359z"/>
<path d="m194,744.4007c7.268,16.5884 6.5359,19.3205 8.5359,22.7846 2,3.4641 4,6.9282 7.4641,4.9282 3.4641-2 1.4641-5.4641-.5359-8.9282-2-3.4641-4.732-4.1962-15.4641-18.7846z"/>
<path d="m275.9615,766.3622c-16.5885,7.268-19.3205,6.5359-22.7846,8.5359-3.4641,2-6.9282,4-4.9282,7.4641 2,3.4641 5.4641,1.4641 8.9282-.5359 3.4641-2 4.1962-4.732 18.7846-15.4641z"/>
<path d="m254,744.4007c-10.732,14.5884-13.4641,15.3205-15.4641,18.7846-2,3.4641-4,6.9282-.5359,8.9282 3.4641,2 5.4641-1.4641 7.4641-4.9282 2-3.4641 1.268-6.1962 8.5359-22.7846z"/>
</g>
</svg>
