<svg viewBox="0 0 512 512" xmlns="http://www.w3.org/2000/svg">

<g transform="matrix(18.68858,0,0,18.68858,-2270.97157,-21126.75175)">
<g transform="matrix(1,0,0,2.93383,0,-2236.8194)">
<path d="m 124.676 1148.72 v 8.0056" fill="none" stroke="#fff" stroke-width=".5838"/>
<path d="m 129.98 1148.72 v 8.0056" fill="none" stroke="#fff" stroke-width=".5838"/>
<path d="m 135.283 1148.72 v 8.0056" fill="none" stroke="#fff" stroke-width=".5838"/>
<path d="m 140.568 1148.72 v 8.0056" fill="none" stroke="#fff" stroke-width=".5838"/>
<path d="m 145.86 1148.72 v 8.0056" fill="none" stroke="#fff" stroke-width=".5838"/>
</g>
<path d="m 148.47 1149.42 c -0.0132 -1.473 -1.1931 -2.6687 -2.647 -2.6687 s -2.6337 1.1957 -2.6337 2.6687 c 0 -1.473 -1.1799 -2.6687 -2.6338 -2.6687 s -2.6337 1.1957 -2.647 2.6687 c -0.0132 -1.473 -1.1932 -2.6687 -2.647 -2.6687 s -2.6337 1.1957 -2.647 2.6687 c -0.0132 -1.473 -1.1932 -2.6687 -2.647 -2.6687 s -2.6337 1.1957 -2.647 2.6687 c -0.0132 -1.473 -1.1931 -2.6687 -2.647 -2.6687 s -2.6337 1.1957 -2.6337 2.6687" fill="none" stroke="#fff"/>
<path d="m 124.676 1131.7 1.8892 5.0103 -1.8892 -1.0869 -1.8892 1.0869 1.8892 -5.0103 z" fill="#fff"/>
<path d="m 122.035 1131.64 v 20.7218" fill="none" stroke="#000"/>
<path d="m 148.509 1141.45 c -1.4557 0 -2.6371 -1.1957 -2.6503 -2.6687 -0.0133 1.473 -1.1947 2.6687 -2.6503 2.6687 s -2.6371 -1.1957 -2.6371 -2.6687 c 0 1.473 -1.1814 2.6687 -2.6371 2.6687 s -2.6371 -1.1957 -2.6503 -2.6687 c -0.0132 1.473 -1.1947 2.6687 -2.6503 2.6687 s -2.6371 -1.1957 -2.6503 -2.6687 c -0.0132 1.473 -1.1947 2.6687 -2.6503 2.6687 s -2.6371 -1.1957 -2.6503 -2.6687 c -0.0132 1.473 -1.1947 2.6687 -2.6503 2.6687" fill="none" stroke="#fff"/>
<path d="m 129.98 1131.7 1.8892 5.0103 -1.8892 -1.0869 -1.8892 1.0869 1.8892 -5.0103 z" fill="#fff"/>
<path d="m 135.283 1131.7 1.8892 5.0103 -1.8892 -1.0869 -1.8892 1.0869 1.8892 -5.0103 z" fill="#fff"/>
<path d="m 140.568 1131.7 1.8892 5.0103 -1.8892 -1.0869 -1.8892 1.0869 1.8892 -5.0103 z" fill="#fff"/>
<path d="m 145.86 1131.7 1.8892 5.0103 -1.8892 -1.0869 -1.8892 1.0869 1.8892 -5.0103 z" fill="#fff"/>
<g transform="translate(.0056,-1.5528)">
<path d="m 122.044 1133.45 v 21.9756" fill="none" stroke="#000"/>
<path d="m 148.458 1133.45 v 21.9756" fill="none" stroke="#000"/>
</g>
<g transform="matrix(1,0,0,1.88356,2.63466,-1021.9429)">
<path d="m 124.676 1148.72 v 8.0056" fill="none" stroke="#fff" stroke-width=".7286"/>
<path d="m 129.98 1148.72 v 8.0056" fill="none" stroke="#fff" stroke-width=".7286"/>
<path d="m 135.283 1148.72 v 8.0056" fill="none" stroke="#fff" stroke-width=".7286"/>
<path d="m 140.568 1148.72 v 8.0056" fill="none" stroke="#fff" stroke-width=".7286"/>
</g>
</g>
</svg>
