<svg viewBox="0 0 512 512" xmlns="http://www.w3.org/2000/svg">

<path d="m626.4724,546.0495-10.0397-4.7724-3.7246,10.4737-3.7246-10.4737-10.0397,4.7724 4.7724-10.0397-10.4737-3.7246 10.4737-3.7246-4.7724-10.0397 10.0397,4.7724 3.7246-10.4737 3.7246,10.4737 10.0397-4.7724-4.7724,10.0397 10.4737,3.7246-10.4737,3.7246z" fill="#fff" transform="matrix(-5.92092,-12.11394,-8.91352,4.47292,8627.1228,5297.36378)"/>
<path d="m627.3805,540.8146c0,4.4666-3.6209,8.0875-8.0875,8.0875s-8.0875-3.6209-8.0875-8.0875 3.6209-8.0875 8.0875-8.0875 8.0875,3.6209 8.0875,8.0875z" fill="#fff" stroke="#fff" stroke-width="1.0258" transform="matrix(-9.30299,-19.03357,-14.00485,7.02803,13590.12639,8242.45916)"/>
<path d="m627.3805,540.8146c0,4.4666-3.6209,8.0875-8.0875,8.0875s-8.0875-3.6209-8.0875-8.0875 3.6209-8.0875 8.0875-8.0875 8.0875,3.6209 8.0875,8.0875z" transform="matrix(-7.70568,-15.76587,-11.52338,5.78281,11271.91737,6885.68564)"/>
<path d="m627.3805,540.8146c0,4.4666-3.6209,8.0875-8.0875,8.0875s-8.0875-3.6209-8.0875-8.0875 3.6209-8.0875 8.0875-8.0875 8.0875,3.6209 8.0875,8.0875z" fill="none" stroke="#fff" stroke-width="1.2425" transform="matrix(-7.70568,-15.76587,-11.52338,5.78281,11238.87409,6902.26783)"/>
</svg>
