<svg xmlns="http://www.w3.org/2000/svg" viewBox="0 0 512 512">
<g transform="matrix(15 0 0 15 -3224 -3824)">
<use width="744.094" height="1052.362" transform="translate(252 252)"/>
</g>
<g fill="#fff" transform="matrix(3.75 0 0 3.75 -584 -2730.35818)">
<path d="m224,732.3622c-2,18-10,40-10,48 0,4 4,8 10,8 6,0 10-4 10-8 0-8-8-30-10-48z"/>
<path d="m288,796.3622c-18-2-40-10-48-10-4,0-8,4-8,10 0,6 4,10 8,10 8,0 30-8 48-10z"/>
<path d="m224,860.3622c2-18 10-40 10-48 0-4-4-8-10-8-6,0-10,4-10,8 0,8 8,30 10,48z"/>
<path d="m160,796.3622c18,2 40,10 48,10 4,0 8-4 8-10 0-6-4-10-8-10-8,0-30,8-48,10z"/>
</g>
</svg>
