<svg xmlns="http://www.w3.org/2000/svg" viewBox="0 0 512 512">
<g transform="matrix(15 0 0 15 -4304 -1124)">
<use width="744.094" height="1052.362" transform="translate(324 72)"/>
<path fill="#fff" d="m304,76c-.493,0-1.0049,1.6773-1.5,3.7981a12.3077,12.3077 0 0,0 -6.0577,2.5192c-1.8517-1.1509-3.4108-1.9835-3.7596-1.6346-.3484,.3484 .4858,1.9013 1.6346,3.75a12.3077,12.3077 0 0,0 -2.5288,6.0673c-2.1166,.4945-3.7885,1.0077-3.7885,1.5 0,.493 1.6773,1.0049 3.7981,1.5a12.3077,12.3077 0 0,0 2.5192,6.0577c-1.151,1.8517-1.9835,3.4108-1.6346,3.7596 .3485,.3484 1.9013-.4858 3.75-1.6346a12.3077,12.3077 0 0,0 6.0673,2.5289c.4945,2.1166 1.0077,3.7885 1.5,3.7885 .493,0 1.0049-1.6773 1.5-3.7981a12.3077,12.3077 0 0,0 6.0577-2.5192c1.8517,1.1509 3.4108,1.9835 3.7596,1.6346 .3484-.3484-.4858-1.9013-1.6346-3.75a12.3077,12.3077 0 0,0 2.5288-6.0673c2.1166-.4945 3.7885-1.0077 3.7885-1.5 0-.493-1.6773-1.0049-3.7981-1.5a12.3077,12.3077 0 0,0 -2.5192-6.0577c1.151-1.8517 1.9835-3.4108 1.6346-3.7596-.3485-.3484-1.9013,.4858-3.75,1.6346a12.3077,12.3077 0 0,0 -6.0673-2.5288c-.4945-2.1166-1.0077-3.7885-1.5-3.7885zm.2115,8.6154a7.3846,7.3846 0 0,1 7.1731,7.3846 7.3846,7.3846 0 0,1 -14.7692,0 7.3846,7.3846 0 0,1 7.5962-7.3846z"/>
</g>
</svg>
