<svg viewBox="0 0 512 512" xmlns="http://www.w3.org/2000/svg">

<g transform="matrix(18.68858,0,0,18.68858,-13164.95432,-27902.71258)">
<path d="m718.5182,1493.9565c1.6048.2086 2.8577,1.9547 2.8577,4.0623-1e-05,1.1671-.3998,2.2093-1.0155,2.952 3.3374.628 4.5724,5.4692 3.5898,10.2026h-2.3145l-.614,8.2425h-5.8807l-.5432-8.2425h-2.1964c-.8667-4.6093-.0795-9.6844 3.5662-10.2498-.5893-.7393-.9683-1.7665-.9683-2.9048 1e-05-2.248 1.4309-4.0623 3.1883-4.0623 .1097,0 .2236-.016.3306,0z" fill="#fff" fill-rule="evenodd"/>
<g transform="translate(546.8266)">
<path d="m167.3097,1513.2839-.0756-7.7005" fill="none" stroke="#000"/>
<path d="m175.2788,1513.2839 .0756-7.7005" fill="none" stroke="#000"/>
<path d="m171.2581,1519.8976v-9.8259" fill="none" stroke="#000"/>
</g>
<path d="m727.8251,1508.346-3.9308-1.0928 3e-05,2.1859z" fill="#fff"/>
<path d="m727.6002,1503.9439-4.0797-.038 .5658,2.1114z" fill="#fff"/>
<path d="m724.9817,1499.4639-3.5521,2.0069 1.5457,1.5456z" fill="#fff"/>
<path d="m708.5918,1508.346 3.9308-1.0928-3e-05,2.1859z" fill="#fff"/>
<path d="m708.8166,1503.9439 4.0797-.038-.5658,2.1114z" fill="#fff"/>
<path d="m711.4352,1499.4639 3.5521,2.0069-1.5457,1.5456z" fill="#fff"/>
<path d="m724.8834,1513.5655-3.3596-1.2608-.1687,1.9151z" fill="#fff"/>
<path d="m724.3046,1517.5115-3.3596-1.2608-.1687,1.9151z" fill="#fff"/>
<path d="m711.4111,1513.5655 3.3596-1.2608 .1687,1.9151z" fill="#fff"/>
<path d="m711.9899,1517.5115 3.3596-1.2608 .1687,1.9151z" fill="#fff"/>
<path d="m723.7524,1498.0612-2.5728-1.0928 2e-05,2.1859z" fill="#fff"/>
<path d="m712.6413,1498.0612 2.5728-1.0928-2e-05,2.1859z" fill="#fff"/>
<path d="m722.5213,1494.105-2.7373.5666 1.2446,1.7969z" fill="#fff"/>
<path d="m713.9175,1494.105 2.7373.5666-1.2446,1.7969z" fill="#fff"/>
<path d="m720.6337,1498.6937c0,2.1164-1.0494,3.832-2.3438,3.832s-2.3438-1.7156-2.3438-3.832 1.0494-3.8319 2.3438-3.8319 2.3438,1.7156 2.3438,3.8319z" stroke="#fff" stroke-width=".9526" transform="matrix(1.15818,0,0,.95146,-113.73269,72.15688)"/>
<path d="m715.4727,1498.0532h5.4117" fill="none" stroke="#fff"/>
<path d="m718.1785,1495.3474 .0001,5.4116" fill="none" stroke="#000"/>
</g>
</svg>
