<svg xmlns="http://www.w3.org/2000/svg" viewBox="0 0 512 512">
<g transform="matrix(15 0 0 15 -5923.9999 -8269.4327)">
<use width="744.094" height="1052.362" transform="translate(431.99999 548.36218)"/>
</g>
<g fill="#fff" transform="matrix(3.75 0 0 3.75 -583.9999 -2730.3584)">
<path d="m160,4c-.3812,3.4311-1.6136,6.2665-2.1875,8.3125-.5931,.1683-1.1591,.3945-1.6875,.6875-1.8535-1.043-4.7419-2.156-7.4375-4.3125 2.1565,2.6956 3.2695,5.584 4.3125,7.4375-.293,.5284-.5192,1.0944-.6875,1.6875-2.046,.5739-4.8814,1.8063-8.3125,2.1875 3.4311,.3812 6.2665,1.6136 8.3125,2.1875 .1683,.5931 .3945,1.1591 .6875,1.6875-1.043,1.8535-2.156,4.7419-4.3125,7.4375 2.6956-2.1565 5.584-3.2695 7.4375-4.3125 .5284,.293 1.0944,.5192 1.6875,.6875 .5739,2.046 1.8063,4.8814 2.1875,8.3125 .3812-3.4311 1.6136-6.2665 2.1875-8.3125 .5931-.1683 1.1591-.3945 1.6875-.6875 1.8535,1.043 4.7419,2.156 7.4375,4.3125-2.1565-2.6956-3.2695-5.584-4.3125-7.4375 .293-.5284 .5192-1.0944 .6875-1.6875 2.046-.5739 4.8814-1.8063 8.3125-2.1875-3.4311-.3812-6.2665-1.6136-8.3125-2.1875-.1683-.5931-.3945-1.1591-.6875-1.6875 1.043-1.8535 2.156-4.7419 4.3125-7.4375-2.6956,2.1565-5.584,3.2695-7.4375,4.3125-.5284-.293-1.0944-.5192-1.6875-.6875-.5739-2.046-1.8063-4.8814-2.1875-8.3125zm0,12c1.1046,0 2.1199,.4324 2.8438,1.1562 .7239,.7239 1.1562,1.7392 1.1562,2.8438 0,1.1046-.4324,2.1199-1.1562,2.8438-.7239,.7239-1.7392,1.1562-2.8438,1.1562-1.1046,0-2.1199-.4324-2.8438-1.1562-.7239-.7239-1.1562-1.7392-1.1562-2.8438 0-1.1046 .4324-2.1199 1.1562-2.8438 .7239-.7239 1.7392-1.1562 2.8438-1.1562z" transform="matrix(4 0 0 4 -416.00007 716.36218)"/>
</g>
</svg>
