<svg viewBox="0 0 512 512" xmlns="http://www.w3.org/2000/svg">

<g transform="matrix(18.68858,0,0,18.68858,-227.68695,-33368.53532)">
<path d="m 31.3438 1793.84 c -2.3087 0 -3.9842 0.5283 -4.4375 1.4688 -4.4707 -0.1338 -8.1803 1.4292 -7.2188 2.5 0.1253 0.1395 0.0158 0.2978 -0.2812 0.3124 -7.4353 0.3653 -8.8151 3.7133 -1.6562 4.75 0.3029 0.044 0.3631 0.264 0.2188 0.4063 -1.7387 1.7146 2.0549 2.9687 7.6875 2.9687 5.7536 0 8.8671 -0.989 7.875 -2.5937 -0.2189 -0.3541 -0.1072 -0.6059 0.375 -0.6563 7.6115 -0.7916 5.6796 -5.0868 -0.875 -5.5 -1.3356 -0.084 -1.0182 -0.7188 -0.5312 -0.7812 5.4641 -0.6998 2.1379 -2.875 -1.1562 -2.875 z" fill="#fff"/>
<path d="m 17.9291 1809.52 c -5.3061 0.0002 -3.6584 -2.6402 0 -2.6403 5.3061 -0.0002 3.6584 2.6402 0 2.6403 z" fill="#fff"/>
<path d="m 23.6898 1794.55 c -3.3701 0.0001 -1.983 -1.6391 0.3406 -1.6391 3.3701 -0.0001 1.983 1.639 -0.3406 1.6391 z" fill="#fff"/>
<path d="m 36.4315 1806.23 c -3.1274 -0.2167 -1.8401 -1.6486 0.3161 -1.4992 3.1274 0.2169 1.8401 1.6486 -0.3161 1.4992 z" fill="#fff"/>
</g>
</svg>
