<svg viewBox="0 0 512 512" xmlns="http://www.w3.org/2000/svg">

<g transform="matrix(18.68858,0,0,18.68858,-227.68695,-33368.53532)">
<path d="m31.3438,1793.8417c-2.3087,0-3.9842.5283-4.4375,1.4688-4.4707-.1338-8.1803,1.4292-7.2188,2.5 .1253.1395.0158.2978-.2812.3124-7.4353.3653-8.8151,3.7133-1.6562,4.75 .3029.044.3631.264.2188.4063-1.7387,1.7146 2.0549,2.9687 7.6875,2.9687 5.7536,0 8.8671-.989 7.875-2.5937-.2189-.3541-.1072-.6059.375-.6563 7.6115-.7916 5.6796-5.0868-.875-5.5-1.3356-.084-1.0182-.7188-.5312-.7812 5.4641-.6998 2.1379-2.875-1.1562-2.875z" fill="#fff"/>
<path d="m17.9291,1809.5168c-5.3061.0002-3.6584-2.6402 0-2.6403 5.3061-.0002 3.6584,2.6402 0,2.6403z" fill="#fff"/>
<path d="m23.6898,1794.547c-3.3701.0001-1.983-1.6391.3406-1.6391 3.3701-.0001 1.983,1.639-.3406,1.6391z" fill="#fff"/>
<path d="m36.4315,1806.2278c-3.1274-.2167-1.8401-1.6486.3161-1.4992 3.1274.2169 1.8401,1.6486-.3161,1.4992z" fill="#fff"/>
</g>
</svg>
