<svg viewBox="0 0 512 512" xmlns="http://www.w3.org/2000/svg">

<g transform="matrix(18.68858,0,0,18.68858,-5673.74355,-15209.8813)">
<path d="m306.5308,671.2758c0,5.5406-4.4915,10.0321-10.0321,10.0321s-10.0321-4.4915-10.0321-10.0321 4.4915-10.0321 10.0321-10.0321 10.0321,4.4915 10.0321,10.0321z" fill="#fff" stroke="#000" stroke-width=".7643" transform="matrix(.92517,-.92517,-.92517,-.92517,664.04865,1722.8821)"/>
<g transform="matrix(.70711,-.70711,-.70711,-.70711,563.44787,1491.1867)">
<path d="m295.8137,652.7031c-16.0922,0-15.3408-22.4791 0-22.4791v22.4791z"/>
<path d="m295.7803,652.7031c9.3561,0 8.9192-13.0695 0-13.0695v13.0695z"/>
</g>
<path d="m309.8678,827.4892-1.7597-1.7598 2.8877-2.8879c-1.9936-1.7699-4.4508-3.8713-6.5721-5.5135l2.7674-2.7676c1.6518,2.1111 3.7992,4.5237 5.5855,6.5002l2.8395-2.8397 1.7597,1.7598-7.508,7.5085z" fill="#fff" stroke="#000"/>
<path d="m313.697,820.9818-2.9699,2.9699 15.3335,15.3334 4.1382,1.0306-1.1683-4.0005-15.3335-15.3334z" fill="#fff"/>
<path d="m317.07,823.6422 11.844,11.844" fill="none" stroke="#000"/>
<path d="m313.1962,823.3614 13.793,13.7929" fill="none" stroke="#000"/>
<path d="m129.4133,966.5015c0,.6275-.5087,1.1362-1.1361,1.1362s-1.1361-.5087-1.1361-1.1362 .5087-1.1361 1.1361-1.1361 1.1361.5087 1.1361,1.1361z" transform="matrix(1.04762,0,0,1.04762,179.1386,-188.74639)"/>
</g>
</svg>
