<svg viewBox="0 0 512 512" xmlns="http://www.w3.org/2000/svg">

<g transform="matrix(18.68858,0,0,18.68858,-7036.11793,-36765.84631)">
<path d="m400.5833,1981.009c0,5.5471-4.4968,10.0439-10.0439,10.0439s-10.0439-4.4968-10.0439-10.0439 4.4968-10.0439 10.0439-10.0439 10.0439,4.4968 10.0439,10.0439z" fill="none" stroke="#fff" stroke-width=".8715" transform="matrix(1.14741,0,0,1.14741,-58.06963,-292.33331)"/>
<path d="m377.462,1986.8298c.4234-3.7454 1.3429-6.9897 2.4612-10.0327l3.8719,8.0515z"/>
<path d="m402.678,1974.5518c-.4234,3.7454-1.3429,6.9897-2.4612,10.0327l-3.8719-8.0515z"/>
<path d="m400.5833,1981.009c0,5.5471-4.4968,10.0439-10.0439,10.0439s-10.0439-4.4968-10.0439-10.0439 4.4968-10.0439 10.0439-10.0439 10.0439,4.4968 10.0439,10.0439z" fill="none" stroke="#fff" stroke-width="1.0952" transform="matrix(.91308,0,0,.91308,33.6617,171.84844)"/>
<path d="m401.8911,1977.3107c-1.2544,3.2294-2.8319,5.8971-4.5391,8.3393l-1.5537-8.0631z"/>
<path d="m400.5833,1981.009c0,5.5471-4.4968,10.0439-10.0439,10.0439s-10.0439-4.4968-10.0439-10.0439 4.4968-10.0439 10.0439-10.0439 10.0439,4.4968 10.0439,10.0439z" fill="none" stroke="#fff" stroke-width="1.4675" transform="matrix(.68144,0,0,.68144,124.12471,630.6133)"/>
<path d="m380.6358,1981.5089c1.6292-2.2238 3.3912-3.9494 5.2064-5.475l-.4664,6.5176z"/>
<path d="m399.2466,1980.1605c-1.6292,2.2238-3.3912,3.9494-5.2064,5.475l.4664-6.5176z"/>
<path d="m378.3223,1984.5138c1.2544-3.2293 2.8319-5.897 4.5391-8.3393l1.5537,8.0632z"/>
<g transform="matrix(-.87658,.11231,-.11231,-.87658,952.23372,3675.3716)">
<path d="m386.9699,1987.2622 4.2917-4.2881" fill="none" stroke="#fff" stroke-width="1.1315"/>
<path d="m388.9873,1981.9399 3.3095,3.3068" fill="none" stroke="#fff" stroke-width="1.1315"/>
<path d="m396.9313,1973.8488c-1.0045,2.9301-4.0022,6.9928-6.8309,8.9395l1.2493,1.2484c.8262-1.4298 2.5239-1.9353 3.0971-.8586 4.8985-2.5312 11.8262-6.5362 5.7295-13.5756 .2131,2.5454-1.6793,4.3687-3.2449,4.2463z" fill="#fff"/>
</g>
<g transform="matrix(.87658,-.11231,.11231,.87658,-171.93528,286.63341)">
<path d="m386.9699,1987.2622 4.2917-4.2881" fill="none" stroke="#fff" stroke-width="1.1315"/>
<path d="m388.9873,1981.9399 3.3095,3.3068" fill="none" stroke="#fff" stroke-width="1.1315"/>
<path d="m396.9313,1973.8488c-1.0045,2.9301-4.0022,6.9928-6.8309,8.9395l1.2493,1.2484c.8262-1.4298 2.5239-1.9353 3.0971-.8586 4.8985-2.5312 11.8262-6.5362 5.7295-13.5756 .2131,2.5454-1.6793,4.3687-3.2449,4.2463z" fill="#fff"/>
</g>
</g>
</svg>
