<svg viewBox="0 0 512 512" xmlns="http://www.w3.org/2000/svg">

<g transform="matrix(18.68858,0,0,18.68858,-7036.11793,-36765.84631)">
<path d="m 400.583 1981.01 c 0 5.5471 -4.4968 10.0439 -10.0439 10.0439 s -10.0439 -4.4968 -10.0439 -10.0439 4.4968 -10.0439 10.0439 -10.0439 10.0439 4.4968 10.0439 10.0439 z" fill="none" stroke="#fff" stroke-width=".8715" transform="matrix(1.14741,0,0,1.14741,-58.06963,-292.33331)"/>
<path d="m 377.462 1986.83 c 0.4234 -3.7454 1.3429 -6.9897 2.4612 -10.0327 l 3.8719 8.0515 z"/>
<path d="m 402.678 1974.55 c -0.4234 3.7454 -1.3429 6.9897 -2.4612 10.0327 l -3.8719 -8.0515 z"/>
<path d="m 400.583 1981.01 c 0 5.5471 -4.4968 10.0439 -10.0439 10.0439 s -10.0439 -4.4968 -10.0439 -10.0439 4.4968 -10.0439 10.0439 -10.0439 10.0439 4.4968 10.0439 10.0439 z" fill="none" stroke="#fff" stroke-width="1.0952" transform="matrix(.91308,0,0,.91308,33.6617,171.84844)"/>
<path d="m 401.891 1977.31 c -1.2544 3.2294 -2.8319 5.8971 -4.5391 8.3393 l -1.5537 -8.0631 z"/>
<path d="m 400.583 1981.01 c 0 5.5471 -4.4968 10.0439 -10.0439 10.0439 s -10.0439 -4.4968 -10.0439 -10.0439 4.4968 -10.0439 10.0439 -10.0439 10.0439 4.4968 10.0439 10.0439 z" fill="none" stroke="#fff" stroke-width="1.4675" transform="matrix(.68144,0,0,.68144,124.12471,630.6133)"/>
<path d="m 380.636 1981.51 c 1.6292 -2.2238 3.3912 -3.9494 5.2064 -5.475 l -0.4664 6.5176 z"/>
<path d="m 399.247 1980.16 c -1.6292 2.2238 -3.3912 3.9494 -5.2064 5.475 l 0.4664 -6.5176 z"/>
<path d="m 378.322 1984.51 c 1.2544 -3.2293 2.8319 -5.897 4.5391 -8.3393 l 1.5537 8.0632 z"/>
<g transform="matrix(-.87658,.11231,-.11231,-.87658,952.23372,3675.3716)">
<path d="m 386.97 1987.26 4.2917 -4.2881" fill="none" stroke="#fff" stroke-width="1.1315"/>
<path d="m 388.987 1981.94 3.3095 3.3068" fill="none" stroke="#fff" stroke-width="1.1315"/>
<path d="m 396.931 1973.85 c -1.0045 2.9301 -4.0022 6.9928 -6.8309 8.9395 l 1.2493 1.2484 c 0.8262 -1.4298 2.5239 -1.9353 3.0971 -0.8586 4.8985 -2.5312 11.8262 -6.5362 5.7295 -13.5756 0.2131 2.5454 -1.6793 4.3687 -3.2449 4.2463 z" fill="#fff"/>
</g>
<g transform="matrix(.87658,-.11231,.11231,.87658,-171.93528,286.63341)">
<path d="m 386.97 1987.26 4.2917 -4.2881" fill="none" stroke="#fff" stroke-width="1.1315"/>
<path d="m 388.987 1981.94 3.3095 3.3068" fill="none" stroke="#fff" stroke-width="1.1315"/>
<path d="m 396.931 1973.85 c -1.0045 2.9301 -4.0022 6.9928 -6.8309 8.9395 l 1.2493 1.2484 c 0.8262 -1.4298 2.5239 -1.9353 3.0971 -0.8586 4.8985 -2.5312 11.8262 -6.5362 5.7295 -13.5756 0.2131 2.5454 -1.6793 4.3687 -3.2449 4.2463 z" fill="#fff"/>
</g>
</g>
</svg>
