<svg viewBox="0 0 512 512" xmlns="http://www.w3.org/2000/svg">

<g transform="matrix(18.68858,0,0,18.68858,-4313.43339,-21806.87216)">
<path d="m249.8527,1170.5158c-2.7837-1.254-6.2056-1.0249-9.3738.3861-5.5747,2.4825-8.2759,9.224-5.9458,14.9173 2.0402,4.9835 7.7059,7.224 12.6004,5.1315 2.8726-1.228 4.5296-4.0743 4.618-6.9852 .1195-3.9309-3.5396-6.9807-6.161-6.6469-1.2877.1641-2.6529.8427-3.279,2.2917 1.0864-.7282 2.2121-.9883 3.2229-.8954 1.4978.1375 2.6758,1.4043 3.2186,2.8835 .9801,2.6726-.0697,5.6073-2.7257,6.7426-3.5029,1.4977-7.362-.035-8.8111-3.5741-1.7561-4.2911.1221-9.1309 4.2798-10.9823 2.5571-1.1387 5.0362-1.1865 7.1155-.3674s3.844,2.4862 4.9756,5.1241c1.0384.6587 2.5842-.022 2.9801-1.2397-1.2386-3.1365-3.7222-5.438-6.7146-6.7858z" fill="#fff"/>
<path d="m249.0228,1177.5142-2.2415,2.6967" fill="none" stroke="#000"/>
<path d="m248.0908,1182.3743 3.6288-1.921" fill="none" stroke="#000"/>
<path d="m248.2591,1184.6812 4.4273.6503" fill="none" stroke="#000"/>
<path d="m246.7934,1186.3399 3.642,2.812" fill="none" stroke="#000"/>
<path d="m244.987,1187.9217 1.6229,4.2152" fill="none" stroke="#000"/>
<path d="m242.3728,1188.0559-.4462,4.3324" fill="none" stroke="#000"/>
<path d="m239.8873,1187.0411-2.5234,3.8284" fill="none" stroke="#000"/>
<path d="m238.0753,1184.8605-3.5182,1.9721" fill="none" stroke="#000"/>
<path d="m237.3199,1181.9061-4.2153.5754" fill="none" stroke="#000"/>
<path d="m237.6713,1179.1142-4.2479-1.212" fill="none" stroke="#000"/>
<path d="m239.2147,1176.4169-3.7528-2.863" fill="none" stroke="#000"/>
<path d="m241.345,1174.3672-2.1173-3.611" fill="none" stroke="#000"/>
<path d="m244.2321,1173.5269-1.035-4.6147" fill="none" stroke="#000"/>
<path d="m247.1357,1173.5799 .9749-5.2428" fill="none" stroke="#000"/>
<path d="m249.8508,1174.9698 2.7791-4.0327" fill="none" stroke="#000"/>
<path d="m255.9311,1174.0212-4.1409,3.3762" fill="none" stroke="#000"/>
<path d="m249.7023,1179.5876 1.3633-1.0884" fill="none" stroke="#fff"/>
<path d="m251.2492,1183.0958 1.7372-.271" fill="none" stroke="#fff"/>
<path d="m250.7068,1187.0568 1.6399.6335" fill="none" stroke="#fff"/>
<path d="m248.3075,1190.2535 .9747,1.4629" fill="none" stroke="#fff"/>
<path d="m244.1861,1191.441 .1128,1.7539" fill="none" stroke="#fff"/>
<path d="m239.8675,1190.9793-.675,1.623" fill="none" stroke="#fff"/>
<path d="m236.2928,1188.3859-1.3004,1.183" fill="none" stroke="#fff"/>
<path d="m234.1634,1184.4025-1.6529.5993" fill="none" stroke="#fff"/>
<path d="m233.8946,1180.271-1.7463-.2031" fill="none" stroke="#fff"/>
<path d="m235.161,1176.0402-1.5754-.7799" fill="none" stroke="#fff"/>
<path d="m237.8826,1172.6125-1.1033-1.3683" fill="none" stroke="#fff"/>
<path d="m241.4188,1170.6006-.5944-1.6541" fill="none" stroke="#fff"/>
<path d="m245.6415,1169.7619 .004-1.7573" fill="none" stroke="#fff"/>
<path d="m250.0129,1170.6767 .7368-1.5957" fill="none" stroke="#fff"/>
<path d="m253.59,1173.1084 1.2246-1.2608" fill="none" stroke="#fff"/>
<path d="m245.285,1176.5621-.1893,3.1598" fill="none" stroke="#000"/>
<path d="m255.6676,1176.5233 1.5531-.8233" fill="none" stroke="#fff"/>
</g>
</svg>
