<svg viewBox="0 0 512 512" xmlns="http://www.w3.org/2000/svg">

<g transform="matrix(18.68858,0,0,18.68858,-4313.43339,-21806.87216)">
<path d="m 249.853 1170.52 c -2.7837 -1.254 -6.2056 -1.0249 -9.3738 0.3861 -5.5747 2.4825 -8.2759 9.224 -5.9458 14.9173 2.0402 4.9835 7.7059 7.224 12.6004 5.1315 2.8726 -1.228 4.5296 -4.0743 4.618 -6.9852 0.1195 -3.9309 -3.5396 -6.9807 -6.161 -6.6469 -1.2877 0.1641 -2.6529 0.8427 -3.279 2.2917 1.0864 -0.7282 2.2121 -0.9883 3.2229 -0.8954 1.4978 0.1375 2.6758 1.4043 3.2186 2.8835 0.9801 2.6726 -0.0697 5.6073 -2.7257 6.7426 -3.5029 1.4977 -7.362 -0.035 -8.8111 -3.5741 -1.7561 -4.2911 0.1221 -9.1309 4.2798 -10.9823 2.5571 -1.1387 5.0362 -1.1865 7.1155 -0.3674 s 3.844 2.4862 4.9756 5.1241 c 1.0384 0.6587 2.5842 -0.022 2.9801 -1.2397 -1.2386 -3.1365 -3.7222 -5.438 -6.7146 -6.7858 z" fill="#fff"/>
<path d="m 249.023 1177.51 -2.2415 2.6967" fill="none" stroke="#000"/>
<path d="m 248.091 1182.37 3.6288 -1.921" fill="none" stroke="#000"/>
<path d="m 248.259 1184.68 4.4273 0.6503" fill="none" stroke="#000"/>
<path d="m 246.793 1186.34 3.642 2.812" fill="none" stroke="#000"/>
<path d="m 244.987 1187.92 1.6229 4.2152" fill="none" stroke="#000"/>
<path d="m 242.373 1188.06 -0.4462 4.3324" fill="none" stroke="#000"/>
<path d="m 239.887 1187.04 -2.5234 3.8284" fill="none" stroke="#000"/>
<path d="m 238.075 1184.86 -3.5182 1.9721" fill="none" stroke="#000"/>
<path d="m 237.32 1181.91 -4.2153 0.5754" fill="none" stroke="#000"/>
<path d="m 237.671 1179.11 -4.2479 -1.212" fill="none" stroke="#000"/>
<path d="m 239.215 1176.42 -3.7528 -2.863" fill="none" stroke="#000"/>
<path d="m 241.345 1174.37 -2.1173 -3.611" fill="none" stroke="#000"/>
<path d="m 244.232 1173.53 -1.035 -4.6147" fill="none" stroke="#000"/>
<path d="m 247.136 1173.58 0.9749 -5.2428" fill="none" stroke="#000"/>
<path d="m 249.851 1174.97 2.7791 -4.0327" fill="none" stroke="#000"/>
<path d="m 255.931 1174.02 -4.1409 3.3762" fill="none" stroke="#000"/>
<path d="m 249.702 1179.59 1.3633 -1.0884" fill="none" stroke="#fff"/>
<path d="m 251.249 1183.1 1.7372 -0.271" fill="none" stroke="#fff"/>
<path d="m 250.707 1187.06 1.6399 0.6335" fill="none" stroke="#fff"/>
<path d="m 248.308 1190.25 0.9747 1.4629" fill="none" stroke="#fff"/>
<path d="m 244.186 1191.44 0.1128 1.7539" fill="none" stroke="#fff"/>
<path d="m 239.868 1190.98 -0.675 1.623" fill="none" stroke="#fff"/>
<path d="m 236.293 1188.39 -1.3004 1.183" fill="none" stroke="#fff"/>
<path d="m 234.163 1184.4 -1.6529 0.5993" fill="none" stroke="#fff"/>
<path d="m 233.895 1180.27 -1.7463 -0.2031" fill="none" stroke="#fff"/>
<path d="m 235.161 1176.04 -1.5754 -0.7799" fill="none" stroke="#fff"/>
<path d="m 237.883 1172.61 -1.1033 -1.3683" fill="none" stroke="#fff"/>
<path d="m 241.419 1170.6 -0.5944 -1.6541" fill="none" stroke="#fff"/>
<path d="m 245.642 1169.76 0.004 -1.7573" fill="none" stroke="#fff"/>
<path d="m 250.013 1170.68 0.7368 -1.5957" fill="none" stroke="#fff"/>
<path d="m 253.59 1173.11 1.2246 -1.2608" fill="none" stroke="#fff"/>
<path d="m 245.285 1176.56 -0.1893 3.1598" fill="none" stroke="#000"/>
<path d="m 255.668 1176.52 1.5531 -0.8233" fill="none" stroke="#fff"/>
</g>
</svg>
