<svg viewBox="0 0 512 512" xmlns="http://www.w3.org/2000/svg">

<g transform="matrix(18.68858,0,0,18.68858,4524.48518,-5414.08387)">
<path d="m 520.409 300.042 c 0 1.9971 -1.132 3.6161 -2.5284 3.6161 s -2.5285 -1.619 -2.5285 -3.6161 1.132 -3.6161 2.5285 -3.6161 2.5284 1.619 2.5284 3.6161 z" fill="#fff" transform="matrix(1.05051,-.77487,.93902,.92943,-1051.1902,422.75328)"/>
<path d="m -240.322 315.657 c 0.1457 -6.9054 5.5392 -8.7655 5.7709 -13.6631 0.3869 -8.1779 16.2549 1.4754 10.6258 5.6275 -0.9096 0.671 -1.4051 0.9215 -2.4739 0.3353 -0.4769 6.1714 -7.7434 1.8826 -13.9228 7.7003 z" fill="#fff" fill-rule="evenodd"/>
<path d="m -240.452 315.818 c 3.7078 -5.6764 13.7891 -15.2559 12.9517 -7.5395 -0.4667 4.3006 -5.7413 0.8389 -12.9517 7.5395 z" fill-rule="evenodd"/>
<path d="m 520.409 300.042 c 0 1.9971 -1.132 3.6161 -2.5284 3.6161 s -2.5285 -1.619 -2.5285 -3.6161 1.132 -3.6161 2.5285 -3.6161 2.5284 1.619 2.5284 3.6161 z" fill="#fff" transform="matrix(.7348,-.542,.65681,.65011,-800.21747,383.54383)"/>
<path d="m 520.409 300.042 c 0 1.9971 -1.132 3.6161 -2.5284 3.6161 s -2.5285 -1.619 -2.5285 -3.6161 1.132 -3.6161 2.5285 -3.6161 2.5284 1.619 2.5284 3.6161 z" fill="#fff" transform="matrix(.58105,-.4286,.51939,.51409,-677.3226,363.79427)"/>
<path d="m -218.401 293.995 c 1.9989 1.8115 2.1881 -1.7163 2.2587 -2.2051 -0.4927 0.0259 -4.1423 0.4981 -2.2587 2.2051 z" fill="#fff" fill-rule="evenodd"/>
<path d="m 520.409 300.042 c 0 1.9971 -1.132 3.6161 -2.5284 3.6161 s -2.5285 -1.619 -2.5285 -3.6161 1.132 -3.6161 2.5285 -3.6161 2.5284 1.619 2.5284 3.6161 z" fill="#fff" transform="matrix(.49328,-.33802,.3719,.37744,-586.06811,356.36002)"/>
</g>
</svg>
