<svg viewBox="0 0 512 512" xmlns="http://www.w3.org/2000/svg">

<g transform="matrix(18.68858,0,0,18.68858,-12483.79936,-19083.45911)">
<path d="m 681.75 1031.87 c -4.8095 0 -8.693 3.8811 -8.693 8.6881 0 2.8745 1.3908 5.4286 3.5416 7.0149 h 10.3028 c 2.1509 -1.5863 3.5738 -4.1405 3.5738 -7.0149 0 -4.8069 -3.9157 -8.6881 -8.7252 -8.6881 z" fill="#fff"/>
<path d="m 679.286 1027.42 h 4.9392 v 4.8809 h -4.9392 z" fill="#fff"/>
<path d="m 680.894 1039.14 c 0.9017 -0.6398 2.3108 -0.6615 3.1464 -0.072 1.2018 0.8481 1.7686 2.8457 1.1021 4.0631 -1.2162 2.2216 -3.9351 2.7875 -5.8766 1.6587 -2.7095 -1.5754 -3.4916 -5.3962 -1.7099 -8.4739 2.0886 -3.6078 6.4282 -5.0489 9.6698 -3.1783" fill="none" stroke="#000"/>
<path d="m 678.163 1026.62 h 7.1035 c 1.3074 0 1.3895 2.4405 0 2.4405 h -7.1035 c -1.2038 0 -1.2729 -2.4405 0 -2.4405 z" fill="#fff"/>
<path d="m 678.189 1022.27 1.9815 7.1296 h 3.1705 l 1.9815 -7.1296 h -7.1336 z" fill="#fff"/>
<path d="m 676.775 1026.11 h 9.9616" fill="none" stroke="#000"/>
</g>
</svg>
