<svg viewBox="0 0 512 512" xmlns="http://www.w3.org/2000/svg">

<g transform="matrix(18.68858,0,0,18.68858,-12483.79936,-19083.45911)">
<path d="m681.7495,1031.8686c-4.8095,0-8.693,3.8811-8.693,8.6881 0,2.8745 1.3908,5.4286 3.5416,7.0149h10.3028c2.1509-1.5863 3.5738-4.1405 3.5738-7.0149 0-4.8069-3.9157-8.6881-8.7252-8.6881z" fill="#fff"/>
<path d="m679.2861,1027.4248h4.9392v4.8809h-4.9392z" fill="#fff"/>
<path d="m680.8944,1039.1382c.9017-.6398 2.3108-.6615 3.1464-.072 1.2018.8481 1.7686,2.8457 1.1021,4.0631-1.2162,2.2216-3.9351,2.7875-5.8766,1.6587-2.7095-1.5754-3.4916-5.3962-1.7099-8.4739 2.0886-3.6078 6.4282-5.0489 9.6698-3.1783" fill="none" stroke="#000"/>
<path d="m678.1626,1026.6206h7.1035c1.3074,0 1.3895,2.4405 0,2.4405h-7.1035c-1.2038,0-1.2729-2.4405 0-2.4405z" fill="#fff"/>
<path d="m678.1889,1022.2662 1.9815,7.1296h3.1705l1.9815-7.1296h-7.1336z" fill="#fff"/>
<path d="m676.7749,1026.1134h9.9616" fill="none" stroke="#000"/>
</g>
</svg>
