<svg viewBox="0 0 512 512" xmlns="http://www.w3.org/2000/svg">

<g transform="matrix(18.68858,0,0,18.68858,-8399.15131,-23822.72145)">
<path d="m 458.441 1278.99 -3.64 -3.6399 -2e-05 4.7276 h -4.7275 l 3.6399 3.6399 h 4.7276 l 3e-05 -4.7276 z" fill="#fff"/>
<path d="m 463.844 1281.44 -0.5938 2.1563 c 1.8936 0.4649 3.227 2.7721 1.125 5.6875 -1.8837 2.6124 -1.4378 5.6064 0.0312 7.1562 l 1.2188 -2.125 c -0.4213 -0.4744 -0.6799 -1.1389 -0.6562 -1.9375 0.0394 -1.3295 0.4887 -2.5897 1.6875 -4.25 2.2557 -3.1238 0.1646 -6.2603 -2.8125 -6.6875 z" fill="#fff"/>
<path d="m 450.12 1276.66 1.2808 -1.2467 21.6844 21.6842 -1.2502 1.2502 -21.715 -21.6877 z" fill="#fff" stroke="#000"/>
<path d="m 471 1287.31 c 0.0173 2.9171 -0.7595 5.1094 -1.9062 6.75 -1.4288 2.0444 -4.1991 0.8096 -4.125 -1.6875 0.0009 -0.031 -0.002 -0.063 0 -0.094 h -1.8125 c -0.2734 2.2251 0.7929 4.2069 2.3438 4.9375 3.5319 1.6637 6.888 2.9219 10.5 4.0937 -1.7989 -4.729 -3.6254 -9.2128 -5 -14 z" fill="#fff"/>
<path d="m 463.531 1281.38 c -1.4282 -0.1095 -3.0208 0.4126 -4.4375 1.8438 -1.8621 1.8811 -3.0084 6.8071 -0.9688 8.5312 -0.4535 -2.1427 -0.2943 -4.7125 2.125 -7.2187 2.3412 -2.4252 6.4182 -0.1944 4.8125 3.5312 h 1.625 c 2.2632 -3.2133 -0.0337 -6.448 -3.1562 -6.6875 z" fill="#fff"/>
<path d="m 471.827 1292.35 3.2808 8.0349 -8.0349 -3.2806 c 2.5818 -0.8092 4.1315 -2.4213 4.7541 -4.7543 z" stroke="#fff"/>
<path d="m 468.766 1292.77 3.3618 3.3898" fill="none" stroke="#000"/>
<path d="m 467.365 1293.88 3.3751 3.3765" fill="none" stroke="#000"/>
<path d="m 457.536 1284.63 c 0.5499 -1.0514 1.17 -1.7436 1.9215 -2.482" fill="none" stroke="#000"/>
<path d="m 459.459 1286.48 c 0.4854 -1.0398 1.0757 -1.5537 1.799 -2.1196" fill="none" stroke="#000"/>
</g>
</svg>
