<svg viewBox="0 0 512 512" xmlns="http://www.w3.org/2000/svg">

<g transform="matrix(18.68858,0,0,18.68858,4524.48518,-5414.08387)">
<path d="m520.4091,300.0417c0,1.9971-1.132,3.6161-2.5284,3.6161s-2.5285-1.619-2.5285-3.6161 1.132-3.6161 2.5285-3.6161 2.5284,1.619 2.5284,3.6161z" fill="#fff" transform="matrix(1.05051,-.77487,.93902,.92943,-1051.1902,422.75328)"/>
<path d="m-240.3216,315.6572c.1457-6.9054 5.5392-8.7655 5.7709-13.6631 .3869-8.1779 16.2549,1.4754 10.6258,5.6275-.9096.671-1.4051.9215-2.4739.3353-.4769,6.1714-7.7434,1.8826-13.9228,7.7003z" fill="#fff" fill-rule="evenodd"/>
<path d="m-240.4515,315.8183c3.7078-5.6764 13.7891-15.2559 12.9517-7.5395-.4667,4.3006-5.7413.8389-12.9517,7.5395z" fill-rule="evenodd"/>
<path d="m520.4091,300.0417c0,1.9971-1.132,3.6161-2.5284,3.6161s-2.5285-1.619-2.5285-3.6161 1.132-3.6161 2.5285-3.6161 2.5284,1.619 2.5284,3.6161z" fill="#fff" transform="matrix(.7348,-.542,.65681,.65011,-800.21747,383.54383)"/>
<path d="m520.4091,300.0417c0,1.9971-1.132,3.6161-2.5284,3.6161s-2.5285-1.619-2.5285-3.6161 1.132-3.6161 2.5285-3.6161 2.5284,1.619 2.5284,3.6161z" fill="#fff" transform="matrix(.58105,-.4286,.51939,.51409,-677.3226,363.79427)"/>
<path d="m-218.4008,293.9946c1.9989,1.8115 2.1881-1.7163 2.2587-2.2051-.4927.0259-4.1423.4981-2.2587,2.2051z" fill="#fff" fill-rule="evenodd"/>
<path d="m520.4091,300.0417c0,1.9971-1.132,3.6161-2.5284,3.6161s-2.5285-1.619-2.5285-3.6161 1.132-3.6161 2.5285-3.6161 2.5284,1.619 2.5284,3.6161z" fill="#fff" transform="matrix(.49328,-.33802,.3719,.37744,-586.06811,356.36002)"/>
</g>
</svg>
