<svg viewBox="0 0 512 512" xmlns="http://www.w3.org/2000/svg">

<g transform="matrix(18.68858,0,0,18.68858,-6354.63512,-36084.36351)">
<path d="m341.5312,1941.1258c0,10.8699 5.5268,16.218 12.3438,16.218s12.3438-5.9551 12.3438-13.3348z" fill="#fff"/>
<path d="m365.8719,1939.4381c4.417,13.4563-26.3301,8.8094-24.6386.2383 .2181-9.6587 23.4758-11.6726 24.6386-.2383z" fill="#fff"/>
<path d="m355.0401,1943.3861 .6633-4.2754c6.1535,1.4129 3.0615,5.5226-3.1832,3.9743-9.1523-2.2694-2.1222-8.5368 4.2962-7.3943 17.1555,3.0537 8.9522,14.904-4.6343,12.3558-18.1112-3.692-11.4059-17.9178 4.3526-16.3552 5.0609.5019 10.1154,4.1657 9.2735,8.4391" fill="none" stroke="#000"/>
<path d="m348.1671,1939.4287c-.4263,2.7017.0518,5.4034 1.0034,8.1051" fill="none" stroke="#000"/>
<path d="m358.5996,1948.0988c.5232-2.1004.6064-4.3254.4268-6.6252" fill="none" stroke="#000"/>
</g>
</svg>
