<svg viewBox="0 0 512 512" xmlns="http://www.w3.org/2000/svg">

<g transform="matrix(18.68858,0,0,18.68858,-6354.63512,-36084.36351)">
<path d="m 341.531 1941.13 c 0 10.8699 5.5268 16.218 12.3438 16.218 s 12.3438 -5.9551 12.3438 -13.3348 z" fill="#fff"/>
<path d="m 365.872 1939.44 c 4.417 13.4563 -26.3301 8.8094 -24.6386 0.2383 0.2181 -9.6587 23.4758 -11.6726 24.6386 -0.2383 z" fill="#fff"/>
<path d="m 355.04 1943.39 0.6633 -4.2754 c 6.1535 1.4129 3.0615 5.5226 -3.1832 3.9743 -9.1523 -2.2694 -2.1222 -8.5368 4.2962 -7.3943 17.1555 3.0537 8.9522 14.904 -4.6343 12.3558 -18.1112 -3.692 -11.4059 -17.9178 4.3526 -16.3552 5.0609 0.5019 10.1154 4.1657 9.2735 8.4391" fill="none" stroke="#000"/>
<path d="m 348.167 1939.43 c -0.4263 2.7017 0.0518 5.4034 1.0034 8.1051" fill="none" stroke="#000"/>
<path d="m 358.6 1948.1 c 0.5232 -2.1004 0.6064 -4.3254 0.4268 -6.6252" fill="none" stroke="#000"/>
</g>
</svg>
