<svg viewBox="0 0 512 512" xmlns="http://www.w3.org/2000/svg">

<g transform="matrix(18.68858,0,0,18.68858,-8399.15131,-23822.72145)">
<path d="m458.4414,1278.9909-3.64-3.6399-2e-05,4.7276h-4.7275l3.6399,3.6399h4.7276l3e-05-4.7276z" fill="#fff"/>
<path d="m463.8438,1281.4375-.5938,2.1563c1.8936.4649 3.227,2.7721 1.125,5.6875-1.8837,2.6124-1.4378,5.6064.0312,7.1562l1.2188-2.125c-.4213-.4744-.6799-1.1389-.6562-1.9375 .0394-1.3295.4887-2.5897 1.6875-4.25 2.2557-3.1238.1646-6.2603-2.8125-6.6875z" fill="#fff"/>
<path d="m450.12,1276.661 1.2808-1.2467 21.6844,21.6842-1.2502,1.2502-21.715-21.6877z" fill="#fff" stroke="#000"/>
<path d="m471,1287.3125c.0173,2.9171-.7595,5.1094-1.9062,6.75-1.4288,2.0444-4.1991.8096-4.125-1.6875 .0009-.031-.002-.063 0-.094h-1.8125c-.2734,2.2251.7929,4.2069 2.3438,4.9375 3.5319,1.6637 6.888,2.9219 10.5,4.0937-1.7989-4.729-3.6254-9.2128-5-14z" fill="#fff"/>
<path d="m463.5312,1281.375c-1.4282-.1095-3.0208.4126-4.4375,1.8438-1.8621,1.8811-3.0084,6.8071-.9688,8.5312-.4535-2.1427-.2943-4.7125 2.125-7.2187 2.3412-2.4252 6.4182-.1944 4.8125,3.5312h1.625c2.2632-3.2133-.0337-6.448-3.1562-6.6875z" fill="#fff"/>
<path d="m471.8267,1292.3528 3.2808,8.0349-8.0349-3.2806c2.5818-.8092 4.1315-2.4213 4.7541-4.7543z" stroke="#fff"/>
<path d="m468.7656,1292.7726 3.3618,3.3898" fill="none" stroke="#000"/>
<path d="m467.3645,1293.8802 3.3751,3.3765" fill="none" stroke="#000"/>
<path d="m457.5363,1284.6264c.5499-1.0514 1.17-1.7436 1.9215-2.482" fill="none" stroke="#000"/>
<path d="m459.459,1286.4802c.4854-1.0398 1.0757-1.5537 1.799-2.1196" fill="none" stroke="#000"/>
</g>
</svg>
