<svg viewBox="0 0 512 512" xmlns="http://www.w3.org/2000/svg">

<g transform="matrix(18.68858,0,0,18.68858,-4995.90669,-25181.88394)">
<path d="m280.1355,1369.1631c2.9157.017 5.1754-.7595 6.9159-1.906 2.31-1.4803 1.751-4.4087-1.3289-4.125l-1.3556-1.667c2.3224-.8027 5.6009.4556 6.1527,2.1986 1.0999,3.5109 2.4141,7.315 3.1808,10.5-4.5727-1.7989-8.8976-3.6254-13.5653-5z" fill="#fff"/>
<path d="m275.9969,1353.458 15.115,15.1152 1.9224,4.818-4.8181-1.9222-15.1152-15.1152 2.8959-2.8958z" stroke="#fff" stroke-width=".9219"/>
<path d="m763.0952,1143.9188h1.5987v6.9979h-1.5987z" fill="#fff" transform="matrix(-.70711,.70711,.70711,.70711,0,0)"/>
<path d="m274.0931,1354.4292 14.592,14.592" fill="none" stroke="#fff"/>
<path d="m278.274,1349.1758-9.4078,9.4079 2.1088,2.1087c2.4498-3.7645 5.6859-6.9857 9.4078-9.4077l-2.1087-2.1089z" fill="#fff" stroke="#000"/>
<path d="m273.8754,1361.6945c-.1095-1.4282.4126-3.0208 1.8437-4.4376 1.8808-1.8623 6.8071-3.0084 8.5312-.9687-2.1426-.4535-4.7125-.2944-7.2186,2.125-2.3031,2.2239-.4067,6.013 2.9817,5.0124l.9457,1.2929c-3.4684,2.3145-7.2828.1858-7.0836-3.024z" fill="#fff"/>
</g>
</svg>
