<svg xmlns="http://www.w3.org/2000/svg" viewBox="0 0 512 512">
<g transform="matrix(15.00001 0 0 15.00001 -7004.006 -8267.9299)">
<use width="744.094" height="1052.362" transform="translate(504 548.26152)"/>
</g>
<g fill="#fff" transform="matrix(0 15.00001 -15.00001 0 15801.44524 -4844.00406)">
<path d="m20,1024.3622a4,4 0 1,1 -8,0h4z" transform="matrix(-1.50001 0 0 -1.50001 364.00015 2588.915)"/>
<path d="m337,1023.3622c0,0 0-3 3-3 3,0 3,3 3,3l-2,21h-2z"/>
<path d="m325.268,1030.8455c0,0-1-1.732 .7321-2.732 1.7321-1 2.7321,.732 2.7321,.732l8.134,16.0885-1.7321,1z"/>
<path d="m351.2679,1028.8455c0,0 1-1.732 2.7321-.732 1.7321,1 .7321,2.732 .7321,2.732l-9.866,15.0885-1.7321-1z"/>
<path d="m352.8564,1042.6301c0,0 1.7321-1 2.7321,.7321 1,1.732-.7321,2.732-.7321,2.732l-7.4282,3.134-1-1.732z"/>
<path d="m325.1436,1046.0942c0,0-1.7321-1-.7321-2.732 1-1.7321 2.7321-.7321 2.7321-.7321l6.4282,4.8661-1,1.732z"/>
</g>
</svg>
