<svg xmlns="http://www.w3.org/2000/svg" viewBox="0 0 512 512">
<g transform="matrix(15.00001 0 0 15.00001 -7004.006 -8267.9299)">
<use width="744.094" height="1052.362" transform="translate(504 548.26152)"/>
</g>
<g fill="#fff" transform="matrix(0 15.00001 -15.00001 0 15801.44524 -4844.00406)">
<path d="m 20 1024.36 a 4 4 0 1 1 -8 0 h 4 z" transform="matrix(-1.50001 0 0 -1.50001 364.00015 2588.915)"/>
<path d="m 337 1023.36 c 0 0 0 -3 3 -3 3 0 3 3 3 3 l -2 21 h -2 z"/>
<path d="m 325.268 1030.85 c 0 0 -1 -1.732 0.7321 -2.732 1.7321 -1 2.7321 0.732 2.7321 0.732 l 8.134 16.0885 -1.7321 1 z"/>
<path d="m 351.268 1028.85 c 0 0 1 -1.732 2.7321 -0.732 1.7321 1 0.7321 2.732 0.7321 2.732 l -9.866 15.0885 -1.7321 -1 z"/>
<path d="m 352.856 1042.63 c 0 0 1.7321 -1 2.7321 0.7321 1 1.732 -0.7321 2.732 -0.7321 2.732 l -7.4282 3.134 -1 -1.732 z"/>
<path d="m 325.144 1046.09 c 0 0 -1.7321 -1 -0.7321 -2.732 1 -1.7321 2.7321 -0.7321 2.7321 -0.7321 l 6.4282 4.8661 -1 1.732 z"/>
</g>
</svg>
