<svg viewBox="0 0 512 512" xmlns="http://www.w3.org/2000/svg">

<g transform="matrix(18.68858,0,0,18.68858,5157.49902,-8598.11661)">
<path d="m -263.068 468.892 v 8.3125 c 14.8124 1.1991 13.8125 -4.9771 13.8125 -11.3125 -1.9904 2.4428 -3.5495 4.9485 -13.8125 3 z" fill="#fff" fill-rule="evenodd" stroke="#000"/>
<path d="m -275.898 468.48 c 7.4144 2.7541 16.5201 4.6499 21.746 3.5556 2.4541 -0.6302 3.2714 -2.1192 2.1357 -4.337" fill="none" stroke="#000"/>
<path d="m -262.648 460.626 c -1.6802 0.2164 -2.992 2.0269 -2.992 4.212 2e-05 1.2102 0.4186 2.291 1.0633 3.0611 -3.4942 0.6513 -3.7585 6.4842 -3.7585 10.5791 h 2.4232 l 0.6429 8.5465 h 6.157 l 0.5687 -8.5465 h 2.2996 c 0 -4.1063 0.0832 -10.0419 -3.7338 -10.6281 0.617 -0.7665 1.0138 -1.8318 1.0138 -3.0121 -2e-05 -2.3308 -1.4981 -4.212 -3.3381 -4.212 -0.115 0 -0.2342 -0.0144 -0.3462 0 z" fill="#fff" fill-rule="evenodd" stroke="#000"/>
<path d="m -263.068 468.892 c -3.2157 -0.6105 -7.1612 -1.6124 -12.4062 -3.25 v 9.6562 c 5.1774 1.1197 9.0656 1.6358 12.4062 1.9062 v -8.3125 z" fill="#fff" fill-rule="evenodd" stroke="#000"/>
<path d="m -263.071 471.485 v -10.5624" fill="none" stroke="#000"/>
<path d="m -275.898 468.48 c 4.0959 1.5214 8.7078 2.7809 12.8968 3.4191" fill="none" stroke="#000"/>
</g>
</svg>
