<svg viewBox="0 0 512 512" xmlns="http://www.w3.org/2000/svg">

<path d="m 4959.21 -3620.04 h 15.0539 v 15.0539 h -15.0539 z" fill="#fff" transform="matrix(-10.47364,15.47788,-15.47788,10.47364,-3637.33834,-38783.52096)"/>
<path d="m 2676.62 -4346.06 h 15.0539 v 15.0539 h -15.0539 z" fill="#fff" transform="matrix(-15.47788,-10.47364,-10.47364,-15.47788,-3637.33834,-38783.52096)"/>
<g transform="matrix(15.50741,15.50741,-15.50741,15.50741,29421.46026,-35370.43232)">
<path d="m 210.841 2076.31 1.6598 8.631 8.6307 1.6599 -11.9502 1.6599 z" fill="#fff"/>
<path d="m 221.624 2087.35 h -11.6287 v -11.6802" fill="none" stroke="#000" stroke-width=".8522"/>
<path d="m 205.856 2076.31 -1.6598 8.631 -8.6307 1.6599 11.9502 1.6599 z" fill="#fff"/>
<path d="m 195.072 2087.35 h 11.6287 v -11.6802" fill="none" stroke="#000" stroke-width=".8522"/>
<path d="m 210.841 2101.67 1.6598 -8.631 8.6307 -1.6599 -11.9502 -1.6599 z" fill="#fff"/>
<path d="m 221.624 2090.64 h -11.6287 v 11.6802" fill="none" stroke="#000" stroke-width=".8522"/>
<path d="m 205.856 2101.67 -1.6598 -8.631 -8.6307 -1.6599 11.9502 -1.6599 z" fill="#fff"/>
<path d="m 195.072 2090.64 h 11.6287 v 11.6802" fill="none" stroke="#000" stroke-width=".8522"/>
</g>
</svg>
