<svg viewBox="0 0 512 512" xmlns="http://www.w3.org/2000/svg">

<path d="m4959.2085-3620.0393h15.0539v15.0539h-15.0539z" fill="#fff" transform="matrix(-10.47364,15.47788,-15.47788,10.47364,-3637.33834,-38783.52096)"/>
<path d="m2676.6245-4346.062h15.0539v15.0539h-15.0539z" fill="#fff" transform="matrix(-15.47788,-10.47364,-10.47364,-15.47788,-3637.33834,-38783.52096)"/>
<g transform="matrix(15.50741,15.50741,-15.50741,15.50741,29421.46026,-35370.43232)">
<path d="m210.841,2076.3122 1.6598,8.631 8.6307,1.6599-11.9502,1.6599z" fill="#fff"/>
<path d="m221.6244,2087.3487h-11.6287v-11.6802" fill="none" stroke="#000" stroke-width=".8522"/>
<path d="m205.856,2076.3122-1.6598,8.631-8.6307,1.6599 11.9502,1.6599z" fill="#fff"/>
<path d="m195.0725,2087.3487h11.6287v-11.6802" fill="none" stroke="#000" stroke-width=".8522"/>
<path d="m210.841,2101.6745 1.6598-8.631 8.6307-1.6599-11.9502-1.6599z" fill="#fff"/>
<path d="m221.6244,2090.638h-11.6287v11.6802" fill="none" stroke="#000" stroke-width=".8522"/>
<path d="m205.856,2101.6745-1.6598-8.631-8.6307-1.6599 11.9502-1.6599z" fill="#fff"/>
<path d="m195.0725,2090.638h11.6287v11.6802" fill="none" stroke="#000" stroke-width=".8522"/>
</g>
</svg>
