<svg viewBox="0 0 512 512" xmlns="http://www.w3.org/2000/svg">

<g transform="matrix(18.68858,0,0,18.68858,5157.49902,-8598.11661)">
<path d="m-263.068,468.8921v8.3125c14.8124,1.1991 13.8125-4.9771 13.8125-11.3125-1.9904,2.4428-3.5495,4.9485-13.8125,3z" fill="#fff" fill-rule="evenodd" stroke="#000"/>
<path d="m-275.898,468.4797c7.4144,2.7541 16.5201,4.6499 21.746,3.5556 2.4541-.6302 3.2714-2.1192 2.1357-4.337" fill="none" stroke="#000"/>
<path d="m-262.6477,460.6261c-1.6802.2164-2.992,2.0269-2.992,4.212 2e-05,1.2102.4186,2.291 1.0633,3.0611-3.4942.6513-3.7585,6.4842-3.7585,10.5791h2.4232l.6429,8.5465h6.157l.5687-8.5465h2.2996c0-4.1063.0832-10.0419-3.7338-10.6281 .617-.7665 1.0138-1.8318 1.0138-3.0121-2e-05-2.3308-1.4981-4.212-3.3381-4.212-.115,0-.2342-.0144-.3462,0z" fill="#fff" fill-rule="evenodd" stroke="#000"/>
<path d="m-263.068,468.8921c-3.2157-.6105-7.1612-1.6124-12.4062-3.25v9.6562c5.1774,1.1197 9.0656,1.6358 12.4062,1.9062v-8.3125z" fill="#fff" fill-rule="evenodd" stroke="#000"/>
<path d="m-263.0706,471.4849v-10.5624" fill="none" stroke="#000"/>
<path d="m-275.898,468.4797c4.0959,1.5214 8.7078,2.7809 12.8968,3.4191" fill="none" stroke="#000"/>
</g>
</svg>
