<svg viewBox="0 0 512 512" xmlns="http://www.w3.org/2000/svg">

<g transform="matrix(18.68858,0,0,18.68858,-227.25151,-34718.59273)">
<path d="m 32.3782 1878.01 c 0.512 3.9879 5.4597 2.0168 4.1914 -1.7105 -1.5796 -4.6423 -3.9815 -5.6 -7.3613 -6.3546 1.8323 2.5061 2.5818 3.4845 3.1699 8.0651 z" fill="#fff"/>
<path d="m 17.8774 1878.86 c -2.0284 3.7427 -6.4621 0.6832 -3.7863 -2.5138 3.3326 -3.9815 6.5852 -6.0716 10.0846 -6.575 -2.151 2.4163 -3.9685 4.7896 -6.2983 9.0888 z" fill="#fff"/>
<path d="m 28.7723 1881.09 c 0.1245 4.0606 -5.002 3.9303 -4.3369 0.011 0.4744 -2.7958 0.9721 -4.3238 2.4485 -7.4842 0.9765 2.5836 1.8172 5.1533 1.8883 7.4732 z" fill="#fff"/>
<path d="m 16.7603 1865.78 c -2.9682 1.2407 -3.5818 -2.9762 -0.4916 -3.5887 3.8488 -0.7627 7.659 1.9273 7.5423 4.6957 -1.5575 -1.9351 -3.6414 -2.5319 -7.0508 -1.107 z" fill="#fff"/>
<path d="m 34.5828 1869.06 c 2.5198 3.3059 5.9309 -1.0166 2.8685 -3.6982 -1.6679 -1.4606 -4.3893 -2.4867 -6.0936 -2.2224 -2.2187 0.3442 -3.3168 1.274 -3.6043 4.0735 1.909 -2.2732 3.9349 -1.95 6.8293 1.8471 z" fill="#fff"/>
<path d="m 15.5011 1869.19 c -2.0331 0.328 -1.2526 2.9983 0.5651 2.1246 1.8977 -0.9121 2.8664 -1.5593 4.3822 -2.459 -1.6934 -0.023 -3.049 0.028 -4.9472 0.3344 z" fill="#fff"/>
<path d="m 25.3587 1859.94 c -0.328 -2.0332 -2.9984 -1.2525 -2.1246 0.565 0.9121 1.8977 1.5591 2.8665 2.4586 4.3825 0.023 -1.6935 -0.0279 -3.0491 -0.3344 -4.9472 z" fill="#fff"/>
<path d="m 34.8564 1861.46 c 2.3544 0.1527 2.0678 -2.6771 -0.2365 -2.5076 -3.071 0.2259 -6.1759 2.3517 -6.8901 4.7396 1.2377 -1.4749 4.0649 -2.4305 7.1266 -2.232 z" fill="#fff"/>
<path d="m 20.334 1880.18 c -1.1083 2.1152 1.9136 3.2459 2.3651 0.9513 0.4716 -2.3954 0.9378 -4.8214 1.1555 -6.8538 -1.4744 2.1203 -2.3661 3.6991 -3.5207 5.9025 z" fill="#fff"/>
</g>
</svg>
