<svg viewBox="0 0 512 512" xmlns="http://www.w3.org/2000/svg">

<g transform="matrix(18.68858,0,0,18.68858,-5681.63912,-43547.65376)">
<path d="m 325.523 2344.11 c 0 1.6516 -2.8483 2.9905 -6.3619 2.9905 s -6.3619 -1.3389 -6.3619 -2.9905 2.8705 -3.4182 6.3841 -3.4182 6.3397 1.7666 6.3397 3.4182 z" stroke="#fff" stroke-width="1.0121" transform="matrix(.61707,.67463,.78779,-.7207,-1718.2762,3825.2644)"/>
<path d="m 320.94 2347.26 c 1.2646 3.9892 4.3924 7.1033 7.824 8.5539 l 1.1695 -2.6689 -2.1919 -4.1136 -3.8275 -2.6178 z" fill="#fff"/>
<path d="m 321.126 2347.13 c -3.5451 -6.4626 -8.277 -10.5513 -14.5861 -12.0089 -3.7802 -0.8732 -0.2833 -5.0723 2.3147 -3.5235 5.7426 3.4228 10.5742 7.7256 13.517 14.7136" fill="#fff"/>
<path d="m 320.414 2347.53 c 0.1788 -0.9517 -0.2342 -1.9034 -0.7366 -2.8551 l 1.9541 2.164" fill="#fff"/>
<path d="m 323.251 2345.91 c -0.9136 -0.321 -1.5312 -1.1544 -2.1043 -2.0653 l 0.897 2.7742" fill="#fff"/>
</g>
</svg>
