<svg viewBox="0 0 512 512" xmlns="http://www.w3.org/2000/svg">

<g transform="matrix(18.68858,0,0,18.68858,-5681.63912,-43547.65376)">
<path d="m325.5227,2344.1101c0,1.6516-2.8483,2.9905-6.3619,2.9905s-6.3619-1.3389-6.3619-2.9905 2.8705-3.4182 6.3841-3.4182 6.3397,1.7666 6.3397,3.4182z" stroke="#fff" stroke-width="1.0121" transform="matrix(.61707,.67463,.78779,-.7207,-1718.2762,3825.2644)"/>
<path d="m320.9398,2347.2581c1.2646,3.9892 4.3924,7.1033 7.824,8.5539l1.1695-2.6689-2.1919-4.1136-3.8275-2.6178z" fill="#fff"/>
<path d="m321.1261,2347.133c-3.5451-6.4626-8.277-10.5513-14.5861-12.0089-3.7802-.8732-.2833-5.0723 2.3147-3.5235 5.7426,3.4228 10.5742,7.7256 13.517,14.7136" fill="#fff"/>
<path d="m320.4144,2347.5334c.1788-.9517-.2342-1.9034-.7366-2.8551l1.9541,2.164" fill="#fff"/>
<path d="m323.2506,2345.9082c-.9136-.321-1.5312-1.1544-2.1043-2.0653l.897,2.7742" fill="#fff"/>
</g>
</svg>
