<svg viewBox="0 0 512 512" xmlns="http://www.w3.org/2000/svg">

<g transform="matrix(18.68858,0,0,18.68858,-7718.05779,-22488.56563)">
<path d="m414.1444,1204.7268c9.5129,7.0382 17.8318,15.3735 25.3311,25.0286-10.0726-7.0403-18.2793-15.5716-25.3311-25.0286z" fill="#fff" fill-rule="evenodd"/>
<path d="m419.5995,1209.2355 2.6519-.7106-2.1137,2.1329" fill="#fff" fill-rule="evenodd"/>
<path d="m433.3603,1222.3921c.9506,1.2783 2.2868.5115 3.1508-.6937l-1.329,2.904" fill="#fff" fill-rule="evenodd"/>
<path d="m435.1228,1226.4996c-1.4695-.991-2.267-.1408-3.1555,1.0292 .6537-1.377.9504-2.8029-.1147-3.7462" fill="#fff" fill-rule="evenodd"/>
<path d="m432.7237,1216.6558-4.2259,2.3849-2.8525,4.2722 4.2258-2.385 2.8525-4.2721z" fill="#fff" fill-rule="evenodd"/>
<path d="m428.6943,1210.6839-5.3307,2.3062-3.9337,4.7258 5.8804-1.7166 3.384-5.3154z" fill="#fff" fill-rule="evenodd"/>
<path d="m417.0968,1208.5784c1.2196,1.2491.335,2.3412-.9563,2.8639l3.0506-.532" fill="#fff" fill-rule="evenodd"/>
<path d="m423.2479,1216.0361c1.9935,1.0834 4.8335,3.8992 3.3961,5.7817l4.4427-4.236c-1.7546,1.5671-5.1857-2.924-3.617-4.9591l-4.2218,3.4134z" fill="#fff" fill-rule="evenodd"/>
<path d="m427.8825,1220.7756 4.1639,3.2318 1.7084-1.1258-2.8509-4.0115-3.0214,1.9055z" fill="#fff" fill-rule="evenodd"/>
<path d="m420.7131,1216.215c1.0403-1.2987.0522-3.2521-.6951-4.1973l2.9399,2.4331z" fill="#fff" fill-rule="evenodd"/>
<path d="m425.9431,1221.5422c0,1.0727-.8695,1.9422-1.9422,1.9422s-1.9422-.8695-1.9422-1.9422 .8695-1.9421 1.9422-1.9421 1.9422.8695 1.9422,1.9421z" fill="#fff" stroke="#000" stroke-width=".5994" transform="matrix(1.66836,0,0,1.66836,-284.60372,-817.32574)"/>
<path d="m425.9431,1221.5422c0,1.0727-.8695,1.9422-1.9422,1.9422s-1.9422-.8695-1.9422-1.9422 .8695-1.9421 1.9422-1.9421 1.9422.8695 1.9422,1.9421z" fill="#fff" stroke="#000" stroke-width="1.0018" transform="matrix(.99822,0,0,.99822,1.10061,-9.47854)"/>
<path d="m425.9431,1221.5422c0,1.0727-.8695,1.9422-1.9422,1.9422s-1.9422-.8695-1.9422-1.9422 .8695-1.9421 1.9422-1.9421 1.9422.8695 1.9422,1.9421z" fill="#fff" stroke="#000" stroke-width=".708" transform="matrix(1.4125,0,0,1.4125,-168.44627,-511.29799)"/>
<path d="m425.9431,1221.5422c0,1.0727-.8695,1.9422-1.9422,1.9422s-1.9422-.8695-1.9422-1.9422 .8695-1.9421 1.9422-1.9421 1.9422.8695 1.9422,1.9421z" fill="#fff" stroke="#000" stroke-width=".9035" transform="matrix(1.10684,0,0,1.10684,-34.49946,-132.67918)"/>
<path d="m425.9431,1221.5422c0,1.0727-.8695,1.9422-1.9422,1.9422s-1.9422-.8695-1.9422-1.9422 .8695-1.9421 1.9422-1.9421 1.9422.8695 1.9422,1.9421z" fill="#fff" stroke="#000" stroke-width=".79" transform="matrix(1.26583,0,0,1.26583,-118.73912,-331.80538)"/>
<path d="m425.9431,1221.5422c0,1.0727-.8695,1.9422-1.9422,1.9422s-1.9422-.8695-1.9422-1.9422 .8695-1.9421 1.9422-1.9421 1.9422.8695 1.9422,1.9421z" fill="#fff" stroke="#000" stroke-width="1.341" transform="matrix(.74569,0,0,.74569,99.25057,298.71055)"/>
<path d="m425.9431,1221.5422c0,1.0727-.8695,1.9422-1.9422,1.9422s-1.9422-.8695-1.9422-1.9422 .8695-1.9421 1.9422-1.9421 1.9422.8695 1.9422,1.9421z" fill="#fff" stroke="#000" stroke-width="1.2775" transform="matrix(.78277,0,0,.78277,88.35679,250.64062)"/>
<path d="m425.9431,1221.5422c0,1.0727-.8695,1.9422-1.9422,1.9422s-1.9422-.8695-1.9422-1.9422 .8695-1.9421 1.9422-1.9421 1.9422.8695 1.9422,1.9421z" fill="#fff" stroke="#000" stroke-width="1.2748" transform="matrix(.78443,0,0,.78443,101.39392,270.08572)"/>
<path d="m425.9431,1221.5422c0,1.0727-.8695,1.9422-1.9422,1.9422s-1.9422-.8695-1.9422-1.9422 .8695-1.9421 1.9422-1.9421 1.9422.8695 1.9422,1.9421z" fill="#fff" stroke="#000" stroke-width="1.1734" transform="matrix(.85224,0,0,.85224,76.37575,183.18101)"/>
<path d="m425.9431,1221.5422c0,1.0727-.8695,1.9422-1.9422,1.9422s-1.9422-.8695-1.9422-1.9422 .8695-1.9421 1.9422-1.9421 1.9422.8695 1.9422,1.9421z" fill="#fff" stroke="#000" stroke-width=".7279" transform="matrix(1.37376,0,0,1.37376,-153.76813,-452.43641)"/>
</g>
</svg>
