<svg xmlns="http://www.w3.org/2000/svg" viewBox="0 0 512 512">
<g transform="matrix(18.68858 0 0 18.68858 -11121.94052 -23140.06386)">
<path fill="#fff" d="m618.0179,1261.1307c-2.5212,.119-4.9421-.2628-7.1813-1.5535-1.4066,1.9714-3.3335,3.5265-5.4425,4.936-1.2127-2.3321-2.1555-4.664-2.2454-6.9959-2.509,.1365-4.7649-.9923-6.9959-2.2454 1.2918-1.9908 2.5451-4.0011 4.9359-5.4426-1.261-2.3938-1.555-4.7875-1.5534-7.1812 2.3938-.1091 4.7876,.2534 7.1813,1.5533 1.2528-2.3003 3.3664-3.5962 5.4425-4.9358 1.3055,2.1463 2.2073,4.427 2.2454,6.9958 2.4285-.1203 4.7033,.7717 6.9959,2.2454-1.173,2.4214-2.7745,4.2919-4.9359,5.4425 1.2966,2.1602 1.666,4.5984 1.5534,7.1814z"/>
<g stroke="#000">
<g fill="none">
<path d="m 601.66 1254.29 15.2813 -4.5695"/>
<path d="m 603.07 1245.98 11.8627 11.5979"/>
<path d="m 610.86 1243.77 -3.643 16.0922"/>
<path d="m 600.574 1249.65 c 5.2177 2.8443 10.7152 3.0085 16.9174 4.56"/>
<path d="m 606.595 1243.5 c 0.4589 5.5477 4.3698 10.9507 4.5098 16.9308"/>
<path d="m 615.236 1245.75 c -5.0043 4.0324 -7.5457 9.2369 -12.4074 12.3707"/>
</g>
<path fill="#fff" stroke-width="1.084" d="m613.2274,1253.411c0,2.7103-2.1971,4.9074-4.9073,4.9074-2.7102,0-4.9073-2.1971-4.9073-4.9074 0-2.7102 2.1971-4.9073 4.9073-4.9073 2.7102,0 4.9073,2.1971 4.9073,4.9073z" transform="matrix(.92257 0 0 .92257 47.66917 95.35465)"/>
</g>
<g fill-rule="evenodd">
<path d="m 611.287 1253.73 c -1.0206 -1.0125 -2.4091 0.4374 -1.4579 1.4577 0.9513 1.0205 2.4785 -0.4454 1.4579 -1.4577 z"/>
<path d="m 606.778 1253.66 c -0.8041 -0.7978 -1.8982 0.3446 -1.1487 1.1485 0.7495 0.8041 1.9528 -0.3509 1.1487 -1.1485 z"/>
<path d="m 608.26 1254.11 c -1.0206 -1.0125 -2.4091 0.4374 -1.4579 1.4577 0.9513 1.0205 2.4785 -0.4454 1.4579 -1.4577 z"/>
<path d="m 608.029 1248.17 c -1.0206 -1.0125 -2.4091 0.4374 -1.4579 1.4577 0.9513 1.0205 2.4785 -0.4454 1.4579 -1.4577 z"/>
<path d="m 612.365 1252.3 c -1.3807 -1.3698 -3.2592 0.5918 -1.9724 1.9721 1.287 1.3806 3.3531 -0.6026 1.9724 -1.9721 z"/>
<path d="m 608.326 1250.96 c -1.4376 0.01 -1.3942 2.0128 -0.0002 2.0616 1.3943 0.049 1.4376 -2.0674 0.0002 -2.0616 z"/>
<path d="m 607.565 1252.52 c -0.006 -1.5308 -2.1433 -1.4846 -2.1953 -0.0001 -0.0521 1.4847 2.2015 1.5308 2.1953 0.0001 z"/>
<path d="m 611.158 1249.87 c -0.2975 -1.0929 -1.8162 -0.6506 -1.5691 0.4204 0.2471 1.0711 1.8666 0.6725 1.5691 -0.4204 z"/>
</g>
</g>
</svg>
