<svg viewBox="0 0 512 512" xmlns="http://www.w3.org/2000/svg">

<g transform="matrix(18.68858,0,0,18.68858,-7035.40877,-12485.44857)">
<path d="m394.1456,675.1104c-.1753,5.3635-3.6647,15.5768-8.4813,18.7487-4.7143,3.1045-9.1871-2.1455-4.8964-5.0944 4.8628-3.3421 10.5799-9.2763 13.3777-13.6543z" fill="#fff" fill-rule="evenodd" stroke="#000"/>
<path d="m385.7989,686.6018c-.9149-.9162-1.5225-1.8195-1.8101-2.7093 3.7223-4.4435 12.1684-1.6401 7.6144,5.2783-.8573.0218-2.2862-.3733-3.1188-.9408" fill="#fff" fill-rule="evenodd" stroke="#000"/>
<path d="m384.1787,673.8547c11.7818-8.5373 20.8753-7.8585 16.5217,11.7062-1.9737,8.8695-25.1735-5.4369-16.5217-11.7062z" fill="#fff" fill-rule="evenodd" stroke="#000"/>
<path d="m30.6875,429.3934c0,1.7086-1.3851,3.0938-3.0938,3.0938s-3.0938-1.3851-3.0938-3.0938 1.3851-3.0938 3.0938-3.0938 3.0938,1.3851 3.0938,3.0938z" fill="none" stroke="#000" stroke-width="1.1411" transform="matrix(.82856,-.47831,.40139,.69514,193.97972,387.49556)"/>
<path d="m30.6875,429.3934c0,1.7086-1.3851,3.0938-3.0938,3.0938s-3.0938-1.3851-3.0938-3.0938 1.3851-3.0938 3.0938-3.0938 3.0938,1.3851 3.0938,3.0938z" fill="none" stroke="#000" stroke-width=".9186" transform="matrix(1.0887,0,0,1.08856,369.19255,220.36608)"/>
<path d="m30.6875,429.3934c0,1.7086-1.3851,3.0938-3.0938,3.0938s-3.0938-1.3851-3.0938-3.0938 1.3851-3.0938 3.0938-3.0938 3.0938,1.3851 3.0938,3.0938z" fill="none" stroke="#000" stroke-width="1.3581" transform="matrix(.64882,0,0,.83566,382.08962,316.6127)"/>
<path d="m30.6875,429.3934c0,1.7086-1.3851,3.0938-3.0938,3.0938s-3.0938-1.3851-3.0938-3.0938 1.3851-3.0938 3.0938-3.0938 3.0938,1.3851 3.0938,3.0938z" fill="none" stroke="#000" stroke-width="1.0163" transform="matrix(.98402,0,0,.98389,364.80598,257.92854)"/>
</g>
</svg>
