<svg xmlns="http://www.w3.org/2000/svg" viewBox="0 0 512 512">
<g transform="matrix(18.68858 0 0 18.68858 -11121.94052 -23140.06386)">
<path fill="#fff" d="m618.0179,1261.1307c-2.5212,.119-4.9421-.2628-7.1813-1.5535-1.4066,1.9714-3.3335,3.5265-5.4425,4.936-1.2127-2.3321-2.1555-4.664-2.2454-6.9959-2.509,.1365-4.7649-.9923-6.9959-2.2454 1.2918-1.9908 2.5451-4.0011 4.9359-5.4426-1.261-2.3938-1.555-4.7875-1.5534-7.1812 2.3938-.1091 4.7876,.2534 7.1813,1.5533 1.2528-2.3003 3.3664-3.5962 5.4425-4.9358 1.3055,2.1463 2.2073,4.427 2.2454,6.9958 2.4285-.1203 4.7033,.7717 6.9959,2.2454-1.173,2.4214-2.7745,4.2919-4.9359,5.4425 1.2966,2.1602 1.666,4.5984 1.5534,7.1814z"/>
<g stroke="#000">
<g fill="none">
<path d="m601.6603,1254.2866 15.2813-4.5695"/>
<path d="m603.07,1245.9782 11.8627,11.5979"/>
<path d="m610.8603,1243.7684-3.643,16.0922"/>
<path d="m600.5737,1249.6515c5.2177,2.8443 10.7152,3.0085 16.9174,4.56"/>
<path d="m606.5948,1243.4969c.4589,5.5477 4.3698,10.9507 4.5098,16.9308"/>
<path d="m615.236,1245.7461c-5.0043,4.0324-7.5457,9.2369-12.4074,12.3707"/>
</g>
<path fill="#fff" stroke-width="1.084" d="m613.2274,1253.411c0,2.7103-2.1971,4.9074-4.9073,4.9074-2.7102,0-4.9073-2.1971-4.9073-4.9074 0-2.7102 2.1971-4.9073 4.9073-4.9073 2.7102,0 4.9073,2.1971 4.9073,4.9073z" transform="matrix(.92257 0 0 .92257 47.66917 95.35465)"/>
</g>
<g fill-rule="evenodd">
<path d="m611.2868,1253.7341c-1.0206-1.0125-2.4091,.4374-1.4579,1.4577 .9513,1.0205 2.4785-.4454 1.4579-1.4577z"/>
<path d="m606.7783,1253.6613c-.8041-.7978-1.8982,.3446-1.1487,1.1485 .7495,.8041 1.9528-.3509 1.1487-1.1485z"/>
<path d="m608.2602,1254.1091c-1.0206-1.0125-2.4091,.4374-1.4579,1.4577 .9513,1.0205 2.4785-.4454 1.4579-1.4577z"/>
<path d="m608.0294,1248.1677c-1.0206-1.0125-2.4091,.4374-1.4579,1.4577 .9513,1.0205 2.4785-.4454 1.4579-1.4577z"/>
<path d="m612.3648,1252.3037c-1.3807-1.3698-3.2592,.5918-1.9724,1.9721 1.287,1.3806 3.3531-.6026 1.9724-1.9721z"/>
<path d="m608.326,1250.9627c-1.4376,.01-1.3942,2.0128-.0002,2.0616 1.3943,.049 1.4376-2.0674 .0002-2.0616z"/>
<path d="m607.5653,1252.5202c-.006-1.5308-2.1433-1.4846-2.1953-.0001-.0521,1.4847 2.2015,1.5308 2.1953,.0001z"/>
<path d="m611.1577,1249.8749c-.2975-1.0929-1.8162-.6506-1.5691,.4204 .2471,1.0711 1.8666,.6725 1.5691-.4204z"/>
</g>
</g>
</svg>
