<svg viewBox="0 0 512 512" xmlns="http://www.w3.org/2000/svg">

<g transform="matrix(18.68858,0,0,18.68858,-230.33793,-27221.58944)">
<path d="m31.6096,1475.9948-13.3285-12.7156" fill="none" stroke="#fff"/>
<path d="m32.8125,1470.0184c0,2.9858-2.4205,5.4063-5.4062,5.4063s-5.4062-2.4205-5.4062-5.4063 2.4205-5.4062 5.4062-5.4062 5.4062,2.4204 5.4062,5.4062z" fill="#fff" stroke="#000" stroke-width=".9427" transform="matrix(.75011,-.75011,-.75011,-.75011,1115.5032,2600.9213)"/>
<path d="m16.75,1477.9872c0,.8284-.6716,1.5-1.5,1.5s-1.5-.6716-1.5-1.5 .6716-1.5 1.5-1.5 1.5.6716 1.5,1.5z" fill="#fff" transform="translate(-.4688)"/>
<path d="m16.75,1477.9872c0,.8284-.6716,1.5-1.5,1.5s-1.5-.6716-1.5-1.5 .6716-1.5 1.5-1.5 1.5.6716 1.5,1.5z" fill="#fff" transform="translate(18.4375,-19.0938)"/>
<path d="m16.75,1477.9872c0,.8284-.6716,1.5-1.5,1.5s-1.5-.6716-1.5-1.5 .6716-1.5 1.5-1.5 1.5.6716 1.5,1.5z" fill="#fff" transform="translate(2.9688,-14.75)"/>
<path d="m38.0146,1476.7473-4.3478-17.9007" fill="none" stroke="#fff"/>
<path d="m32.507,1482.3174-17.9008-4.3477" fill="none" stroke="#fff"/>
</g>
</svg>
