<svg viewBox="0 0 512 512" xmlns="http://www.w3.org/2000/svg">

<g transform="matrix(18.68858,0,0,18.68858,-3638.24287,-42186.01691)">
<path d="m 198.579 2280.26 c -2.21 -1.276 -3.6402 -2.9362 -3.1664 -3.7567 l 7.6281 -13.2122 8.0031 4.6205 -7.6281 13.2123 c -0.4737 0.8205 -2.6266 0.412 -4.8366 -0.8639 z" fill="#fff" stroke="#000"/>
<path d="m 211.194 2267.65 c -0.4457 0.772 -2.5985 0.3634 -4.8085 -0.9125 s -3.6402 -2.936 -3.1945 -3.7081 c 0.8888 -1.5395 3.275 -1.535 5.485 -0.2592 s 3.3603 3.4211 2.518 4.8798 z" fill="#fff" stroke="#000"/>
<path d="m 204.528 2279.2 c -0.4738 0.8206 -2.6266 0.412 -4.8366 -0.8639 s -3.6403 -2.936 -3.1665 -3.7567" fill="#fff" stroke="#000"/>
<path d="m 210.16 2264.05 c -0.2075 0.3594 -1.1107 0.2036 -2.0296 -0.3269 s -1.5055 -1.2349 -1.298 -1.5943 l 1.5485 -2.682 c 0.2075 -0.3595 1.1107 -0.2036 2.0296 0.3269 s 1.5055 1.2349 1.298 1.5943 z" fill="#fff" stroke="#000"/>
<path d="m 206.784 2261.52 c 0 0.3648 -0.2958 0.6606 -0.6606 0.6606 s -0.6606 -0.2958 -0.6606 -0.6606 0.2958 -0.6605 0.6606 -0.6605 0.6606 0.2957 0.6606 0.6605 z" transform="matrix(.99154,.57246,-.57246,.99154,1300.7172,-97.98497)"/>
<path d="m 221.656 2263.96 -10.8352 -1.3536 10.8352 14.3225" fill="#fff"/>
<path d="m 221.681 2261.63 v 20.1424" fill="none" stroke="#000"/>
<path d="m 205.496 2268.08 c -0.785 -0.4533 -1.9273 -0.099 -3.0096 0.8317 0.8359 -0.3303 1.7323 -0.3247 2.4707 0.1013 s 1.1914 1.1998 1.3233 2.0889 c 0.2648 -1.4026 0.0006 -2.569 -0.7844 -3.0223 z m -1.8025 7.7114 c -0.88 0.3947 -1.8466 0.4192 -2.6305 -0.033 -0.7712 -0.4454 -1.2233 -1.274 -1.3313 -2.214 -0.3554 1.5273 -0.1318 2.8145 0.7055 3.2979 0.8445 0.4876 2.1031 0.041 3.2563 -1.0506 z"/>
</g>
</svg>
