<svg viewBox="0 0 512 512" xmlns="http://www.w3.org/2000/svg">

<g transform="matrix(18.68858,0,0,18.68858,-3638.24287,-42186.01691)">
<path d="m198.5794,2280.2621c-2.21-1.276-3.6402-2.9362-3.1664-3.7567l7.6281-13.2122 8.0031,4.6205-7.6281,13.2123c-.4737.8205-2.6266.412-4.8366-.8639z" fill="#fff" stroke="#000"/>
<path d="m211.1941,2267.6539c-.4457.772-2.5985.3634-4.8085-.9125s-3.6402-2.936-3.1945-3.7081c.8888-1.5395 3.275-1.535 5.485-.2592s3.3603,3.4211 2.518,4.8798z" fill="#fff" stroke="#000"/>
<path d="m204.5279,2279.2001c-.4738.8206-2.6266.412-4.8366-.8639s-3.6403-2.936-3.1665-3.7567" fill="#fff" stroke="#000"/>
<path d="m210.1603,2264.0458c-.2075.3594-1.1107.2036-2.0296-.3269s-1.5055-1.2349-1.298-1.5943l1.5485-2.682c.2075-.3595 1.1107-.2036 2.0296.3269s1.5055,1.2349 1.298,1.5943z" fill="#fff" stroke="#000"/>
<path d="m206.7844,2261.5244c0,.3648-.2958.6606-.6606.6606s-.6606-.2958-.6606-.6606 .2958-.6605.6606-.6605 .6606.2957.6606.6605z" transform="matrix(.99154,.57246,-.57246,.99154,1300.7172,-97.98497)"/>
<path d="m221.6562,2263.9575-10.8352-1.3536 10.8352,14.3225" fill="#fff"/>
<path d="m221.6806,2261.6298v20.1424" fill="none" stroke="#000"/>
<path d="m205.4957,2268.0844c-.785-.4533-1.9273-.099-3.0096.8317 .8359-.3303 1.7323-.3247 2.4707.1013s1.1914,1.1998 1.3233,2.0889c.2648-1.4026.0006-2.569-.7844-3.0223zm-1.8025,7.7114c-.88.3947-1.8466.4192-2.6305-.033-.7712-.4454-1.2233-1.274-1.3313-2.214-.3554,1.5273-.1318,2.8145.7055,3.2979 .8445.4876 2.1031.041 3.2563-1.0506z"/>
</g>
</svg>
