<svg viewBox="0 0 512 512" xmlns="http://www.w3.org/2000/svg">
<path d="m0,0h512v512h-512z"/>
<g transform="matrix(18.68858,0,0,18.68858,-2269.71334,-36765.18287)">
<path d="m143.195,1973.2244-18.7591-.7742 12.1619,3.6414-10.5806,13.2036-.7778-.9456-2.6332,5.171 22.8114-18.6z" fill="#fff"/>
<path d="m136.5193,1979.466 8.7333,2.4214-12.3951,7.4984 3.065-4.5003 .6875.5758 2.0764-2.1715-4.9556-1.1083" fill="#fff"/>
<path d="m144.1311,1973.5493c0,1.751-.9542,3.1704-2.1313,3.1704s-2.1313-1.4194-2.1313-3.1704 .9542-3.1703 2.1313-3.1703 2.1313,1.4194 2.1313,3.1703z" fill="#fff" transform="matrix(1.06033,.28411,-.28411,1.06033,555.58838,-160.47384)"/>
<path d="m145.2422,1973.5599-14.7221-5.4307 6.9736,5.5632" fill="#fff"/>
<path d="m129.9212,1972.164 9.5323.5275" fill="none" stroke="#000"/>
</g>
</svg>
