<svg viewBox="0 0 512 512" xmlns="http://www.w3.org/2000/svg">

<g transform="matrix(18.68858,0,0,18.68858,-2269.71334,-36765.18287)">
<path d="m 143.195 1973.22 -18.7591 -0.7742 12.1619 3.6414 -10.5806 13.2036 -0.7778 -0.9456 -2.6332 5.171 22.8114 -18.6 z" fill="#fff"/>
<path d="m 136.519 1979.47 8.7333 2.4214 -12.3951 7.4984 3.065 -4.5003 0.6875 0.5758 2.0764 -2.1715 -4.9556 -1.1083" fill="#fff"/>
<path d="m 144.131 1973.55 c 0 1.751 -0.9542 3.1704 -2.1313 3.1704 s -2.1313 -1.4194 -2.1313 -3.1704 0.9542 -3.1703 2.1313 -3.1703 2.1313 1.4194 2.1313 3.1703 z" fill="#fff" transform="matrix(1.06033,.28411,-.28411,1.06033,555.58838,-160.47384)"/>
<path d="m 145.242 1973.56 -14.7221 -5.4307 6.9736 5.5632" fill="#fff"/>
<path d="m 129.921 1972.16 9.5323 0.5275" fill="none" stroke="#000"/>
</g>
</svg>
