<svg viewBox="0 0 512 512" xmlns="http://www.w3.org/2000/svg">

<g transform="matrix(18.68858,0,0,18.68858,-3389.17879,-12898.21094)">
<path d="m 206.375 703.737 c 0 6.0751 -4.9249 11 -11 11 s -11 -4.9249 -11 -11 4.9249 -11 11 -11 11 4.9249 11 11 z" fill="#fff" stroke="#000" stroke-width="1.1263" transform="matrix(1.02912,0,0,1.02912,-6.00239,-20.19022)"/>
<path d="m 194.985 697.219 c -1e-05 -2e-05 -2.4752 2.8584 -2.4375 5.5938 0.001 0.0895 0.0248 0.1921 0.0312 0.2812 -1.6792 -2.0937 -3.9219 -3.1875 -6.625 -3.1875 1e-05 2e-05 0.0141 4.1024 2.3438 6.2812 1.3658 1.2774 3.7282 1.299 4.9375 2.1875 1.3064 0.9599 1.1779 3.198 0.3438 5.5312 -0.2019 0.3282 -0.5575 0.558 -0.9688 0.5625 -0.0636 0.0007 -0.1875 -0.0312 -0.1875 -0.0312 l 2.7188 0.9062 2.5625 -0.875 c -0.0609 0.01 -0.1239 0.0312 -0.1875 0.0312 -0.4814 1e-05 -0.8877 -0.3004 -1.0625 -0.7188 -0.004 -0.009 0.003 -0.0226 0 -0.0312 -0.7878 -2.2851 -0.8826 -4.4678 0.4062 -5.4062 1.2191 -0.8877 3.5826 -0.889 4.9375 -2.1562 2.3297 -2.1789 2.3437 -6.2812 2.3438 -6.2812 -3.0063 0 -5.0667 1.2497 -6.5938 3.2188 0.0193 -0.1878 0.003 -0.3748 0 -0.5625 -0.0377 -2.7353 -2.5625 -5.3437 -2.5625 -5.3438 z"/>
<path d="m 202.625 704.331 c 0 4.0904 -3.3159 7.4062 -7.4062 7.4062 s -7.4063 -3.3159 -7.4063 -7.4062 3.3159 -7.4062 7.4063 -7.4062 7.4062 3.3159 7.4062 7.4062 z" fill="none" stroke="#fff" stroke-width=".6045" transform="matrix(1.65425,0,0,1.65425,-127.90864,-461.18258)"/>
<path d="m 195.05 703.531 c -0.8251 0.3759 -1.3834 1.1927 -1.3834 2.158 s 0.5583 1.8098 1.3834 2.1857 c 0.8149 -0.3799 1.3834 -1.2278 1.3834 -2.1857 s -0.5684 -1.7781 -1.3834 -2.158 z" fill="#fff"/>
</g>
</svg>
