<svg viewBox="0 0 512 512" xmlns="http://www.w3.org/2000/svg">

<g transform="matrix(18.68858,0,0,18.68858,-3389.17879,-12898.21094)">
<path d="m206.375,703.7372c0,6.0751-4.9249,11-11,11s-11-4.9249-11-11 4.9249-11 11-11 11,4.9249 11,11z" fill="#fff" stroke="#000" stroke-width="1.1263" transform="matrix(1.02912,0,0,1.02912,-6.00239,-20.19022)"/>
<path d="m194.9853,697.2188c-1e-05-2e-05-2.4752,2.8584-2.4375,5.5938 .001.0895.0248.1921.0312.2812-1.6792-2.0937-3.9219-3.1875-6.625-3.1875 1e-05,2e-05 .0141,4.1024 2.3438,6.2812 1.3658,1.2774 3.7282,1.299 4.9375,2.1875 1.3064.9599 1.1779,3.198.3438,5.5312-.2019.3282-.5575.558-.9688.5625-.0636.0007-.1875-.0312-.1875-.0312l2.7188.9062 2.5625-.875c-.0609.01-.1239.0312-.1875.0312-.4814,1e-05-.8877-.3004-1.0625-.7188-.004-.009.003-.0226 0-.0312-.7878-2.2851-.8826-4.4678.4062-5.4062 1.2191-.8877 3.5826-.889 4.9375-2.1562 2.3297-2.1789 2.3437-6.2812 2.3438-6.2812-3.0063,0-5.0667,1.2497-6.5938,3.2188 .0193-.1878.003-.3748 0-.5625-.0377-2.7353-2.5625-5.3437-2.5625-5.3438z"/>
<path d="m202.625,704.3309c0,4.0904-3.3159,7.4062-7.4062,7.4062s-7.4063-3.3159-7.4063-7.4062 3.3159-7.4062 7.4063-7.4062 7.4062,3.3159 7.4062,7.4062z" fill="none" stroke="#fff" stroke-width=".6045" transform="matrix(1.65425,0,0,1.65425,-127.90864,-461.18258)"/>
<path d="m195.0501,703.5314c-.8251.3759-1.3834,1.1927-1.3834,2.158s.5583,1.8098 1.3834,2.1857c.8149-.3799 1.3834-1.2278 1.3834-2.1857s-.5684-1.7781-1.3834-2.158z" fill="#fff"/>
</g>
</svg>
