<svg viewBox="0 0 512 512" xmlns="http://www.w3.org/2000/svg">

<g transform="matrix(18.68858,0,0,18.68858,3239.20474,-7971.99027)">
<path d="m -159.644 427.534 c 0 0 3.1746 3.2708 3.2217 6.6953 s -3.0331 7.0028 -3.0331 7.0028 -3.1745 -3.2707 -3.2217 -6.6952 3.0331 -7.0028 3.0331 -7.0028 z" fill="#fff"/>
<path d="m -159.444 442.231 c -2.2643 -6.6569 -6.806 -10.2139 -13.1245 -10.2139 1e-05 1e-05 0.0269 5.1471 3.4003 7.875 1.9777 1.5992 5.3672 1.6063 7.1184 2.7188 2.759 1.7526 1.169 6.9105 -1.716 10.875 h 8.6755 c -2.9066 -3.994 -4.4671 -9.1543 -1.6843 -10.9062 1.7653 -1.1113 5.1564 -1.1009 7.1184 -2.6875 3.3734 -2.7279 3.4003 -7.875 3.4003 -7.875 -7.3562 0 -10.8784 4.4295 -13.188 10.2139 z" fill="#fff" stroke="#000"/>
</g>
</svg>
