<svg viewBox="0 0 512 512" xmlns="http://www.w3.org/2000/svg">

<g transform="matrix(18.68858,0,0,18.68858,-227.20399,-32681.74988)">
<path d="m30.0247,1762.532c0,2.8468-1.3476,5.1546-3.01,5.1546s-3.01-2.3078-3.01-5.1546 1.3476-5.1546 3.01-5.1546 3.01,2.3078 3.01,5.1546z" fill="#fff" stroke="#000" stroke-width="1.5372" transform="matrix(.47414,.47414,-.44625,.44625,789.20379,952.73692)"/>
<path d="m17.5191,1757.2779c.5414.5415 1.6945.2787 2.5671-.5938s1.1353-2.0257.5939-2.567l-2.8735-2.3181c-.4458-.446-1.3887-.2205-2.1073.4982s-.944,1.6614-.4981,2.1072z" fill="#fff" stroke="#000"/>
<path d="m22.281,1764.2753c.9242.9244 2.8928.4759 4.3826-1.0138s1.9381-3.4583 1.0138-4.3826l-4.9058-3.9573c-.7612-.7612-2.3708-.3765-3.5976.8503s-1.6114,2.8364-.8503,3.5975z" fill="#fff" stroke="#000"/>
<path d="m29.6546,1774.7562c1.4565,1.4564 4.5585.7499 6.906-1.5977s3.0541-5.4495 1.5976-6.906l-7.7305-6.236c-1.1995-1.1995-3.7359-.5932-5.6691,1.3399s-2.5394,4.4697-1.34,5.6692z" fill="#fff" stroke="#000"/>
<path d="m30.0247,1762.532c0,2.8468-1.3476,5.1546-3.01,5.1546s-3.01-2.3078-3.01-5.1546 1.3476-5.1546 3.01-5.1546 3.01,2.3078 3.01,5.1546z" fill="#fff" stroke="#000" stroke-width=".7781" transform="matrix(.93675,.93675,-.88165,.88165,1562.4156,191.04182)"/>
<path d="m30.0247,1762.532c0,2.8468-1.3476,5.1546-3.01,5.1546s-3.01-2.3078-3.01-5.1546 1.3476-5.1546 3.01-5.1546 3.01,2.3078 3.01,5.1546z" fill="#fff" stroke="#000" stroke-width="1.0707" transform="matrix(.68071,.68071,-.64067,.64067,1145.689,623.78582)"/>
<path d="m24.9538,1768.9735c-1.2714-1.2713-.6408-3.9631 1.4083-6.0122s4.7409-2.6797 6.0123-1.4083" fill="none" stroke="#000"/>
<path d="m19.7571,1761.1447c-.825-.8248-.4158-2.5716.9138-3.9014s3.0764-1.7387 3.9014-.9136" fill="none" stroke="#000"/>
<path d="m30.0247,1762.532c0,2.8468-1.3476,5.1546-3.01,5.1546s-3.01-2.3078-3.01-5.1546 1.3476-5.1546 3.01-5.1546 3.01,2.3078 3.01,5.1546z" transform="matrix(.44204,.44204,-.41604,.41604,755.11467,1026.7886)"/>
<path d="m30.0247,1762.532c0,2.8468-1.3476,5.1546-3.01,5.1546s-3.01-2.3078-3.01-5.1546 1.3476-5.1546 3.01-5.1546 3.01,2.3078 3.01,5.1546z" fill="#fff" transform="matrix(.32333,.32333,-.30431,.30431,562.96715,1226.0701)"/>
</g>
</svg>
