<svg viewBox="0 0 512 512" xmlns="http://www.w3.org/2000/svg">

<g transform="matrix(18.68858,0,0,18.68858,-227.20399,-32681.74988)">
<path d="m 30.0247 1762.53 c 0 2.8468 -1.3476 5.1546 -3.01 5.1546 s -3.01 -2.3078 -3.01 -5.1546 1.3476 -5.1546 3.01 -5.1546 3.01 2.3078 3.01 5.1546 z" fill="#fff" stroke="#000" stroke-width="1.5372" transform="matrix(.47414,.47414,-.44625,.44625,789.20379,952.73692)"/>
<path d="m 17.5191 1757.28 c 0.5414 0.5415 1.6945 0.2787 2.5671 -0.5938 s 1.1353 -2.0257 0.5939 -2.567 l -2.8735 -2.3181 c -0.4458 -0.446 -1.3887 -0.2205 -2.1073 0.4982 s -0.944 1.6614 -0.4981 2.1072 z" fill="#fff" stroke="#000"/>
<path d="m 22.281 1764.28 c 0.9242 0.9244 2.8928 0.4759 4.3826 -1.0138 s 1.9381 -3.4583 1.0138 -4.3826 l -4.9058 -3.9573 c -0.7612 -0.7612 -2.3708 -0.3765 -3.5976 0.8503 s -1.6114 2.8364 -0.8503 3.5975 z" fill="#fff" stroke="#000"/>
<path d="m 29.6546 1774.76 c 1.4565 1.4564 4.5585 0.7499 6.906 -1.5977 s 3.0541 -5.4495 1.5976 -6.906 l -7.7305 -6.236 c -1.1995 -1.1995 -3.7359 -0.5932 -5.6691 1.3399 s -2.5394 4.4697 -1.34 5.6692 z" fill="#fff" stroke="#000"/>
<path d="m 30.0247 1762.53 c 0 2.8468 -1.3476 5.1546 -3.01 5.1546 s -3.01 -2.3078 -3.01 -5.1546 1.3476 -5.1546 3.01 -5.1546 3.01 2.3078 3.01 5.1546 z" fill="#fff" stroke="#000" stroke-width=".7781" transform="matrix(.93675,.93675,-.88165,.88165,1562.4156,191.04182)"/>
<path d="m 30.0247 1762.53 c 0 2.8468 -1.3476 5.1546 -3.01 5.1546 s -3.01 -2.3078 -3.01 -5.1546 1.3476 -5.1546 3.01 -5.1546 3.01 2.3078 3.01 5.1546 z" fill="#fff" stroke="#000" stroke-width="1.0707" transform="matrix(.68071,.68071,-.64067,.64067,1145.689,623.78582)"/>
<path d="m 24.9538 1768.97 c -1.2714 -1.2713 -0.6408 -3.9631 1.4083 -6.0122 s 4.7409 -2.6797 6.0123 -1.4083" fill="none" stroke="#000"/>
<path d="m 19.7571 1761.14 c -0.825 -0.8248 -0.4158 -2.5716 0.9138 -3.9014 s 3.0764 -1.7387 3.9014 -0.9136" fill="none" stroke="#000"/>
<path d="m 30.0247 1762.53 c 0 2.8468 -1.3476 5.1546 -3.01 5.1546 s -3.01 -2.3078 -3.01 -5.1546 1.3476 -5.1546 3.01 -5.1546 3.01 2.3078 3.01 5.1546 z" transform="matrix(.44204,.44204,-.41604,.41604,755.11467,1026.7886)"/>
<path d="m 30.0247 1762.53 c 0 2.8468 -1.3476 5.1546 -3.01 5.1546 s -3.01 -2.3078 -3.01 -5.1546 1.3476 -5.1546 3.01 -5.1546 3.01 2.3078 3.01 5.1546 z" fill="#fff" transform="matrix(.32333,.32333,-.30431,.30431,562.96715,1226.0701)"/>
</g>
</svg>
