<svg viewBox="0 0 512 512" xmlns="http://www.w3.org/2000/svg">

<g transform="matrix(18.68858,0,0,18.68858,-4994.19856,-25862.70143)">
<path d="m 270.091 1401.99 3.8115 6.007 6.9337 1.6042 6.8442 -9.6514 c 3.5918 -5.065 -7.1706 -12.652 -10.7533 -7.5998 z" stroke="#fff"/>
<path d="m 271.736 1399.58 5.9571 3.1085 9.4123 -1.7794 -6.1518 -3.1767 z" fill="#fff"/>
<path d="m 273.953 1407.8 8.4129 -11.8633" fill="none" stroke="#fff"/>
<path d="m 284.74 1387.6 4.3972 3.1146 -2.1507 3.0328 c -1.2764 1.7997 -5.7159 -1.2551 -4.3972 -3.1147 z" stroke="#fff"/>
<path d="m 284.06 1391.47 c 0 1.2534 -1.6069 2.2695 -3.589 2.2695 s -3.589 -1.0161 -3.589 -2.2695 1.6069 -2.2695 3.589 -2.2695 3.589 1.0161 3.589 2.2695 z" fill="#fff" stroke="#000" stroke-width=".7133" transform="matrix(1.14413,.81042,-.81079,1.14334,1094.8475,-429.90075)"/>
</g>
</svg>
