<svg viewBox="0 0 512 512" xmlns="http://www.w3.org/2000/svg">

<g transform="matrix(18.68858,0,0,18.68858,-4994.19856,-25862.70143)">
<path d="m270.0913,1401.9938 3.8115,6.007 6.9337,1.6042 6.8442-9.6514c3.5918-5.065-7.1706-12.652-10.7533-7.5998z" stroke="#fff"/>
<path d="m271.7361,1399.5822 5.9571,3.1085 9.4123-1.7794-6.1518-3.1767z" fill="#fff"/>
<path d="m273.9529,1407.7975 8.4129-11.8633" fill="none" stroke="#fff"/>
<path d="m284.7403,1387.5955 4.3972,3.1146-2.1507,3.0328c-1.2764,1.7997-5.7159-1.2551-4.3972-3.1147z" stroke="#fff"/>
<path d="m284.0599,1391.4712c0,1.2534-1.6069,2.2695-3.589,2.2695s-3.589-1.0161-3.589-2.2695 1.6069-2.2695 3.589-2.2695 3.589,1.0161 3.589,2.2695z" fill="#fff" stroke="#000" stroke-width=".7133" transform="matrix(1.14413,.81042,-.81079,1.14334,1094.8475,-429.90075)"/>
</g>
</svg>
