<svg viewBox="0 0 512 512" xmlns="http://www.w3.org/2000/svg">

<g transform="matrix(18.68858,0,0,18.68858,-839.37198,-9138.81774)">
<path d="m54.2109,500.5823c-1.3969,4.0101-3.4369,5.7339-5.9062,6.5625-.7573.2541-1.5604.4018-2.4062.5v2.125c1.0431-.1103 2.0624-.2894 3.0625-.625 1.653-.5547 3.2179-1.542 4.5312-3.0312-.7113,1.4627-1.7012,2.4821-2.9062,3.2812-1.3094.8683-2.9388,1.4212-4.6875,1.875v2.2188c2.0716-.5004 4.1123-1.1436 5.875-2.3125 1.4248-.9448 2.6406-2.2429 3.5-3.9688-.3114,1.5486-.9996,2.7505-1.9375,3.8125-1.6216,1.8361-4.0783,3.1841-6.7188,4.5h4.3438c1.4591-.8713 2.8472-1.8551 3.9688-3.125 1.1433-1.2945 1.951-2.9057 2.3438-4.8125 .1102,1.5901-.209,2.974-.8438,4.25-.6426,1.2918-1.642,2.5024-2.7812,3.6875h2.8438c.6964-.8444 1.3222-1.7332 1.8125-2.7188 .7864-1.5808 1.2004-3.3703 1.0625-5.375 .5529,1.5592.6008,3.014.3125,4.4375-.2461,1.2151-.7545,2.4315-1.4062,3.6562h2.3438c.4896-1.035.8977-2.1278 1.125-3.25 .3537-1.7463.2555-3.6032-.4375-5.5312 .981,1.3746 1.3768,2.7997 1.4688,4.2812 .0882,1.4213-.1838,2.9331-.5938,4.5h2.1875c.3456-1.52.5339-3.0719.4375-4.625-.1065-1.7172-.6539-3.4304-1.7188-5.0625 1.2051,1.0556 1.9511,2.2373 2.4062,3.5938 .604,1.7999.7007,3.8781.625,6.0938h2.0938c.0835-2.2984.0092-4.5807-.7188-6.75-.5547-1.653-1.542-3.2179-3.0312-4.5312 1.5004.6979 2.539,1.724 3.3438,2.9375 1.4395,2.1708 2.0725,5.1532 2.6875,8.25 .0064.0322.0249.0615.0312.0937h.7812v-5.5625c-.4384-1.3942-1.0079-2.7242-1.8125-3.9375-1.536-2.3163-3.9783-4.0796-7.7188-4.7188l-7.5625-.7188z" fill="#fff" fill-rule="evenodd"/>
<path d="m28.6378,496.9298c0,3.71-3.0075,6.7175-6.7175,6.7175s-6.7175-3.0075-6.7175-6.7175 3.0075-6.7175 6.7175-6.7175 6.7175,3.0075 6.7175,6.7175z" fill="#fff" stroke="#fff" stroke-width="1.0638" transform="matrix(1,0,.23268,.8837,-82.24295,57.2549)"/>
<path d="m22.981,501.2829c0,.9641-.7816,1.7457-1.7457,1.7457s-1.7457-.7816-1.7457-1.7457 .7816-1.7457 1.7457-1.7457 1.7457.7816 1.7457,1.7457z" stroke="#fff" stroke-width=".798" transform="matrix(1.25316,0,0,1.25316,28.49329,-128.48232)"/>
<path d="m22.981,501.2829c0,.9641-.7816,1.7457-1.7457,1.7457s-1.7457-.7816-1.7457-1.7457 .7816-1.7457 1.7457-1.7457 1.7457.7816 1.7457,1.7457z" stroke="#fff" stroke-width=".949" transform="matrix(.87541,.13709,-.19389,1.23807,138.98952,-124.40368)"/>
</g>
</svg>
