<svg viewBox="0 0 512 512" xmlns="http://www.w3.org/2000/svg">

<g transform="matrix(18.68858,0,0,18.68858,-11808.33312,-41513.91203)">
<path d="m 642.21 2239.85 c -1.267 2.1485 -2.9674 4.0993 -4.9078 5.4647 -0.2433 -2.9844 0.2863 -6.417 1.7655 -9.3793" fill="#fff" stroke="#000"/>
<path d="m 640.224 2232.58 h 10.9078 v 6.2885 h -10.9078 z" fill="#fff"/>
<path d="m 650.063 2236.26 c 7.1309 -1.9107 7.0926 -14.3248 -4.4238 -14.3248 s -12.3823 12.199 -4.4487 14.3248" fill="#fff" stroke="#000"/>
<path d="m 649.201 2239.85 c 1.267 2.1485 2.9674 4.0993 4.9078 5.4647 0.2433 -2.9844 -0.2863 -6.417 -1.7655 -9.3793" fill="#fff" stroke="#000"/>
<path d="m 650.56 2237.72 c 1.3796 0.3697 2.7979 -0.4492 3.1676 -1.8288 s -0.4491 -2.7979 -1.8288 -3.1676 -2.7979 0.4492 -3.1924 1.5807 c 2.6764 4.2302 3.7223 8.1544 1.0992 13.3098 l -4.0781 -6.7143 -4.0781 6.7143 c -2.6231 -5.1554 -1.5772 -9.0796 1.0992 -13.3098 -0.3945 -1.1315 -1.8127 -1.9503 -3.1924 -1.5807 s -2.1985 1.788 -1.8288 3.1676 1.788 2.1985 3.1676 1.8288" fill="#fff" stroke="#000"/>
<path d="m 647.381 2236 c 1.2603 3.5442 0.687 8.42 -1.6212 11.8845 -2.1342 -3.3071 -3.1808 -7.9594 -1.4698 -11.9209" fill="#fff" stroke="#000"/>
</g>
</svg>
