<svg viewBox="0 0 512 512" xmlns="http://www.w3.org/2000/svg">

<g transform="matrix(18.68858,0,0,18.68858,-11808.33312,-41513.91203)">
<path d="m642.2098,2239.8457c-1.267,2.1485-2.9674,4.0993-4.9078,5.4647-.2433-2.9844.2863-6.417 1.7655-9.3793" fill="#fff" stroke="#000"/>
<path d="m640.2242,2232.5828h10.9078v6.2885h-10.9078z" fill="#fff"/>
<path d="m650.0629,2236.2593c7.1309-1.9107 7.0926-14.3248-4.4238-14.3248s-12.3823,12.199-4.4487,14.3248" fill="#fff" stroke="#000"/>
<path d="m649.2011,2239.8457c1.267,2.1485 2.9674,4.0993 4.9078,5.4647 .2433-2.9844-.2863-6.417-1.7655-9.3793" fill="#fff" stroke="#000"/>
<path d="m650.5599,2237.7206c1.3796.3697 2.7979-.4492 3.1676-1.8288s-.4491-2.7979-1.8288-3.1676-2.7979.4492-3.1924,1.5807c2.6764,4.2302 3.7223,8.1544 1.0992,13.3098l-4.0781-6.7143-4.0781,6.7143c-2.6231-5.1554-1.5772-9.0796 1.0992-13.3098-.3945-1.1315-1.8127-1.9503-3.1924-1.5807s-2.1985,1.788-1.8288,3.1676 1.788,2.1985 3.1676,1.8288" fill="#fff" stroke="#000"/>
<path d="m647.3806,2236.0045c1.2603,3.5442.687,8.42-1.6212,11.8845-2.1342-3.3071-3.1808-7.9594-1.4698-11.9209" fill="#fff" stroke="#000"/>
</g>
</svg>
