<svg viewBox="0 0 512 512" xmlns="http://www.w3.org/2000/svg">

<g transform="matrix(18.68858,0,0,18.68858,-13163.39176,-20444.53261)">
<path d="m716.8477,1107.7777c-1.2226.5224-1.7233,1.6063-2.044,2.8303l2.2012,6.1711c.2357.8797 1.7387.9044 1.9811,0l2.2012-6.1711c-.2559-1.3689-.879-2.3705-2.044-2.8303h-2.2955z" fill="#fff"/>
<path d="m719.4242,1109.98c1.9393,1.776 4.179,1.8249 6.5204,1.289-2.0629-2.3655-4.2557-2.455-6.5204-1.289z" fill="#fff" fill-rule="evenodd"/>
<path d="m716.6568,1109.98c-1.9393,1.776-4.179,1.8249-6.5204,1.289 2.0628-2.3655 4.2557-2.455 6.5204-1.289z" fill="#fff" fill-rule="evenodd"/>
<path d="m711.3956,1104.0017c1.3846,3.9262 6.0939,1.82 4.9055-.5092" fill="none" stroke="#fff"/>
<path d="m724.9119,1103.7513c0,2.2492-3.0316,4.0746-6.7669,4.0746s-6.7669-1.8254-6.7669-4.0746" fill="none" stroke="#fff"/>
<path d="m724.9039,1103.9157c-1.3846,3.9262-6.0938,1.8199-4.9055-.5093" fill="none" stroke="#fff"/>
<path d="m722.154,1102.228c4.3716,3.7262 8.5025-1.9643 5.4733-3.9263" fill="none" stroke="#fff"/>
<path d="m714.1915,1102.228c-4.3716,3.7262-8.5025-1.9643-5.4733-3.9263" fill="none" stroke="#fff"/>
<path d="m723.2445,1106.4078c1.6311-1.1797 2.9813.753 1.0673,2.0831" fill="none" stroke="#fff"/>
<path d="m730.1374,1102.1367c.7806,1.8639-2.16,2.8622-3.0093.6851" fill="none" stroke="#fff"/>
<path d="m706.1431,1102.1367c-.7806,1.8639 2.16,2.8622 3.0093.6851" fill="none" stroke="#fff"/>
<path d="m713.0264,1106.4078c-1.6311-1.1797-2.9813.753-1.0673,2.0831" fill="none" stroke="#fff"/>
<path d="m724.1959,1101.5958c-.7659,1.8699-3.551.4963-2.6123-1.6437" fill="none" stroke="#fff"/>
<path d="m712.1713,1101.5958c.7659,1.8699 3.551.4963 2.6123-1.6437" fill="none" stroke="#fff"/>
</g>
</svg>
