<svg viewBox="0 0 512 512" xmlns="http://www.w3.org/2000/svg">

<g transform="matrix(18.68858,0,0,18.68858,-13163.39176,-20444.53261)">
<path d="m 716.848 1107.78 c -1.2226 0.5224 -1.7233 1.6063 -2.044 2.8303 l 2.2012 6.1711 c 0.2357 0.8797 1.7387 0.9044 1.9811 0 l 2.2012 -6.1711 c -0.2559 -1.3689 -0.879 -2.3705 -2.044 -2.8303 h -2.2955 z" fill="#fff"/>
<path d="m 719.424 1109.98 c 1.9393 1.776 4.179 1.8249 6.5204 1.289 -2.0629 -2.3655 -4.2557 -2.455 -6.5204 -1.289 z" fill="#fff" fill-rule="evenodd"/>
<path d="m 716.657 1109.98 c -1.9393 1.776 -4.179 1.8249 -6.5204 1.289 2.0628 -2.3655 4.2557 -2.455 6.5204 -1.289 z" fill="#fff" fill-rule="evenodd"/>
<path d="m 711.396 1104 c 1.3846 3.9262 6.0939 1.82 4.9055 -0.5092" fill="none" stroke="#fff"/>
<path d="m 724.912 1103.75 c 0 2.2492 -3.0316 4.0746 -6.7669 4.0746 s -6.7669 -1.8254 -6.7669 -4.0746" fill="none" stroke="#fff"/>
<path d="m 724.904 1103.92 c -1.3846 3.9262 -6.0938 1.8199 -4.9055 -0.5093" fill="none" stroke="#fff"/>
<path d="m 722.154 1102.23 c 4.3716 3.7262 8.5025 -1.9643 5.4733 -3.9263" fill="none" stroke="#fff"/>
<path d="m 714.192 1102.23 c -4.3716 3.7262 -8.5025 -1.9643 -5.4733 -3.9263" fill="none" stroke="#fff"/>
<path d="m 723.245 1106.41 c 1.6311 -1.1797 2.9813 0.753 1.0673 2.0831" fill="none" stroke="#fff"/>
<path d="m 730.137 1102.14 c 0.7806 1.8639 -2.16 2.8622 -3.0093 0.6851" fill="none" stroke="#fff"/>
<path d="m 706.143 1102.14 c -0.7806 1.8639 2.16 2.8622 3.0093 0.6851" fill="none" stroke="#fff"/>
<path d="m 713.026 1106.41 c -1.6311 -1.1797 -2.9813 0.753 -1.0673 2.0831" fill="none" stroke="#fff"/>
<path d="m 724.196 1101.6 c -0.7659 1.8699 -3.551 0.4963 -2.6123 -1.6437" fill="none" stroke="#fff"/>
<path d="m 712.171 1101.6 c 0.7659 1.8699 3.551 0.4963 2.6123 -1.6437" fill="none" stroke="#fff"/>
</g>
</svg>
