<svg viewBox="0 0 512 512" xmlns="http://www.w3.org/2000/svg">

<g transform="matrix(18.68858,0,0,18.68858,-1590.09801,-24502.68487)">
<path d="m100.6256,1311.4861-4.8455.2195 2.0867,4.5445-1.4501,2.288 2.016,2.7266-2.299.7836 3.3246,3.3849-.6013,2.0372 1.4855,1.9746-3.0619,3.982-2.1325-2.1558 1.4678,4.2588 2.029,2.0638 1.5555-.9581 .9911-4.9655 1.0257-4.7013 2.7234-3.949 3.0063-11.0636-7.4981.1254 .1768-.5956zm-.672,2.3193 1.9529,4.3394-.998,2.4618-2.0514-3.0088 1.0964-3.7924z" fill="#fff" fill-rule="evenodd"/>
<path d="m98.8981,1328.0046 4.6666-1.4125" fill="none" stroke="#000"/>
<path d="m102.6573,1320.7127 1.9444-3.016-1.2531-5.9557" fill="none" stroke="#000"/>
<path d="m104.6017,1317.6967 3.6296.5726" fill="none" stroke="#000"/>
<path d="m89.685,1311.7095 4.2164,9.2865 .8555,8.9626 3.7581,6.02" fill="none" stroke="#fff"/>
<path d="m93.8403,1320.969 4.0025-3.9684-2.2304-5.2371" fill="none" stroke="#fff"/>
<path d="m94.158,1323.3928 3.4553,4.0658 3.4766-1.1635" fill="none" stroke="#fff"/>
<path d="m96.1929,1332.4151 1.436-5.0212" fill="none" stroke="#fff"/>
<path d="m87.5813,1311.6173h20.7597" fill="none" stroke="#000"/>
</g>
</svg>
