<svg viewBox="0 0 512 512" xmlns="http://www.w3.org/2000/svg">

<g transform="matrix(18.68858,0,0,18.68858,-4993.4281,-29262.01141)">
<path d="m280.2782,1581.7853c15.9539,1.827 9.1833-12.8808-6.3906-10.8836 25.9556-5.6521 24.2597,20.1929 6.3906,10.8836z" fill="#fff" fill-rule="evenodd"/>
<path d="m279.9945,1576.1077c-13.2796,1.3221-6.7676,13.3672 7.8498,11.343-21.6318,3.9766-27.0568-14.5083-7.8498-11.343z" fill="#fff" fill-rule="evenodd"/>
<path d="m281.7003,1581.2741-3.0677-.379-2.8004,1.3084-.5875-3.0346-2.1097-2.2591 2.7045-1.4965 1.4965-2.7046 2.259,2.1098 3.0346.5875-1.3084,2.8004z" fill="#fff" transform="matrix(.95482,.25584,-.25584,.95482,418.54917,1.05371)"/>
<path d="m273.1185,1587.1455 1.6257,2.3489-2.5163-.9684-1.9464,1.6671 .8088-2.2765-1.7669-2.108 2.5175.7659 2.183-2.3248z" fill="#fff"/>
<path d="m290.7538,1587.7945-2.5291-1.8236 .7623,2.7636-1.6772,2.197 2.6526-.679 1.8029,1.835-.1361-2.7506 1.8844-1.6258z" fill="#fff"/>
<path d="m277.9861,1570.9791 2.8742-.4418-3.2559-.5426-1.2919-2.0553 .0267,2.13-2.6325.8784 2.9454.2449 .42,1.8067z" fill="#fff"/>
<path d="m291.1319,1571.5274-1.6193,2.5015-.2801-2.7255-2.2558-1.3743 2.5976-.3155 .9687-2.2596 .8333,2.4967 2.242.7938z" fill="#fff"/>
<path d="m270.2383,1571.0208 1.7773.091-1.326.9588-.0369,1.577-.9389-1.2493-1.4579.1736 1.0422-1.1764-.2589-1.3968z" fill="#fff"/>
</g>
</svg>
