<svg viewBox="0 0 512 512" xmlns="http://www.w3.org/2000/svg">

<g transform="matrix(18.68858,0,0,18.68858,-3389.17905,-9758.52943)">
<path d="m194.7466,523.043-3.9646,8.0238-8.653,1.2586c-.0825.2367-.1504.4814-.2203.7237l6.2616,6.1044-1.5104,8.6216c.1861.1467.3728.3033.5664.4405l7.8034-4.0906 8.0237,4.2479c.1221-.0834.2268-.196.3461-.2832l-1.5103-8.9363 6.5763-6.4505c-.0328-.1036-.0592-.2122-.0944-.3147l-9.0935-1.3216-3.9961-8.0552c-.1789-.003-.3566.021-.5349.0315z" fill="#fff"/>
<path d="m199.619,530.7171-10.9769,15.0325-1.7629,2.4142" fill="#fff" fill-rule="evenodd" stroke="#000"/>
<path d="m203.5157,548.6518-13.2105-18.1077" fill="#fff" fill-rule="evenodd" stroke="#000"/>
<path d="m202.7894,539.4353-20.9279-6.8295" fill="#fff" fill-rule="evenodd" stroke="#000"/>
<path d="m195.0293,522.9057v21.4852" fill="#fff" fill-rule="evenodd" stroke="#000"/>
<path d="m187.4469,539.3929 21.0121-6.8149" fill="#fff" fill-rule="evenodd" stroke="#000"/>
<path d="m195.035,532.1749c.9451,1.8675 2.5519,2.9411 4.6751,3.3948-1.7145,1.5018-2.0685,3.4038-1.7857,5.493-1.9263-.8428-3.8525-1.1505-5.7787,0 .3128-2.1841.0139-4.1304-1.7857-5.493 2.0049-.4618 3.6125-1.5196 4.6751-3.3948z" fill="#fff" stroke="#000" stroke-width=".8302"/>
</g>
</svg>
