<svg viewBox="0 0 512 512" xmlns="http://www.w3.org/2000/svg">

<g transform="matrix(18.68858,0,0,18.68858,-2270.95478,-20.30476)">
<path d="m 147.934 15.1569 c -6.529 -11.1793 -17.0777 -12.2916 -25.3185 0 8.3464 7.2586 17.6803 7.3721 25.3185 0 z" fill="#fff" fill-rule="evenodd"/>
<path d="m 136.42 21.7756 c -0.6199 -0.0295 -1.2329 -0.1169 -1.8127 -0.2758 l 1.8521 -2.0492 0.7881 2.325 c -0.2881 0.0155 -0.5454 0.0134 -0.8276 0 z m 2.5221 -0.2364 0.3941 -2.2856 1.6945 1.3792 c -0.6483 0.3802 -1.3407 0.7108 -2.0886 0.9064 z m -5.714 -0.5517 c -1.024 -0.4872 -1.9334 -1.166 -2.6797 -2.0098 l 3.4284 -0.9064 -0.7487 2.9161 z m 9.2212 -1.3792 -0.867 -2.0492 2.325 0.2364 c -0.4093 0.6622 -0.8844 1.2888 -1.4581 1.8127 z m -12.5708 -1.4975 c -0.758 -1.1192 -1.2399 -2.4333 -1.3792 -3.8619 l 4.0983 1.3398 -2.7191 2.522 z m 14.817 -1.8127 -2.0886 -1.4186 2.5615 -1.261 c -0.0189 0.9418 -0.1632 1.834 -0.4729 2.6797 z m -16.2357 -2.7585 c -0.0204 -1.6684 0.4631 -3.248 1.3004 -4.5712 l 3.0737 3.7831 -4.3742 0.7881 z m 16.6297 -1.3398 -3.1132 -0.1182 1.8915 -3.1131 c 0.6105 0.9628 1.0476 2.0472 1.2216 3.2314 z m -10.5611 -1.7339 -4.5318 -1.8915 c 0.9771 -1.3706 2.3568 -2.451 3.9801 -3.0343 l 0.5517 4.9259 z m 5.4382 -0.3941 -0.1576 -4.4136 c 1.3499 0.5202 2.5167 1.38 3.4284 2.4826 l -3.2708 1.9309 z m -2.7585 -0.5911 -2.7979 -4.0589 c 0.6219 -0.186 1.2937 -0.2789 1.9704 -0.3153 0.9779 -0.0526 1.909 0.0528 2.7979 0.3153 l -1.9704 4.0589 z"/>
<path d="m 540.804 29.7729 c 0 1.0355 -0.8395 1.875 -1.875 1.875 s -1.875 -0.8395 -1.875 -1.875 0.8395 -1.875 1.875 -1.875 1.875 0.8395 1.875 1.875 z" stroke="#fff" stroke-width=".4571" transform="matrix(-2.18455,-.11745,.11745,-2.18455,1311.26692,142.95535)"/>
<path d="m 138.557 23.7379 c 0 0.7321 -0.5935 1.3255 -1.3255 1.3255 s -1.3255 -0.5935 -1.3255 -1.3255 0.5935 -1.3255 1.3255 -1.3255 1.3255 0.5935 1.3255 1.3255 z" fill="#fff" transform="matrix(1.51826,0,0,1.51826,-69.73345,-23.47952)"/>
</g>
</svg>
