<svg viewBox="0 0 512 512" xmlns="http://www.w3.org/2000/svg">

<g transform="matrix(18.68858,0,0,18.68858,-4993.4281,-29262.01141)">
<path d="m 280.278 1581.79 c 15.9539 1.827 9.1833 -12.8808 -6.3906 -10.8836 25.9556 -5.6521 24.2597 20.1929 6.3906 10.8836 z" fill="#fff" fill-rule="evenodd"/>
<path d="m 279.995 1576.11 c -13.2796 1.3221 -6.7676 13.3672 7.8498 11.343 -21.6318 3.9766 -27.0568 -14.5083 -7.8498 -11.343 z" fill="#fff" fill-rule="evenodd"/>
<path d="m 281.7 1581.27 -3.0677 -0.379 -2.8004 1.3084 -0.5875 -3.0346 -2.1097 -2.2591 2.7045 -1.4965 1.4965 -2.7046 2.259 2.1098 3.0346 0.5875 -1.3084 2.8004 z" fill="#fff" transform="matrix(.95482,.25584,-.25584,.95482,418.54917,1.05371)"/>
<path d="m 273.118 1587.15 1.6257 2.3489 -2.5163 -0.9684 -1.9464 1.6671 0.8088 -2.2765 -1.7669 -2.108 2.5175 0.7659 2.183 -2.3248 z" fill="#fff"/>
<path d="m 290.754 1587.79 -2.5291 -1.8236 0.7623 2.7636 -1.6772 2.197 2.6526 -0.679 1.8029 1.835 -0.1361 -2.7506 1.8844 -1.6258 z" fill="#fff"/>
<path d="m 277.986 1570.98 2.8742 -0.4418 -3.2559 -0.5426 -1.2919 -2.0553 0.0267 2.13 -2.6325 0.8784 2.9454 0.2449 0.42 1.8067 z" fill="#fff"/>
<path d="m 291.132 1571.53 -1.6193 2.5015 -0.2801 -2.7255 -2.2558 -1.3743 2.5976 -0.3155 0.9687 -2.2596 0.8333 2.4967 2.242 0.7938 z" fill="#fff"/>
<path d="m 270.238 1571.02 1.7773 0.091 -1.326 0.9588 -0.0369 1.577 -0.9389 -1.2493 -1.4579 0.1736 1.0422 -1.1764 -0.2589 -1.3968 z" fill="#fff"/>
</g>
</svg>
