<svg viewBox="0 0 512 512" xmlns="http://www.w3.org/2000/svg">

<g transform="matrix(18.68858,0,0,18.68858,-2270.95478,-20.30476)">
<path d="m147.9344,15.1569c-6.529-11.1793-17.0777-12.2916-25.3185,0 8.3464,7.2586 17.6803,7.3721 25.3185,0z" fill="#fff" fill-rule="evenodd"/>
<path d="m136.4202,21.7756c-.6199-.0295-1.2329-.1169-1.8127-.2758l1.8521-2.0492 .7881,2.325c-.2881.0155-.5454.0134-.8276,0zm2.5221-.2364 .3941-2.2856 1.6945,1.3792c-.6483.3802-1.3407.7108-2.0886.9064zm-5.714-.5517c-1.024-.4872-1.9334-1.166-2.6797-2.0098l3.4284-.9064-.7487,2.9161zm9.2212-1.3792-.867-2.0492 2.325.2364c-.4093.6622-.8844,1.2888-1.4581,1.8127zm-12.5708-1.4975c-.758-1.1192-1.2399-2.4333-1.3792-3.8619l4.0983,1.3398-2.7191,2.522zm14.817-1.8127-2.0886-1.4186 2.5615-1.261c-.0189.9418-.1632,1.834-.4729,2.6797zm-16.2357-2.7585c-.0204-1.6684.4631-3.248 1.3004-4.5712l3.0737,3.7831-4.3742.7881zm16.6297-1.3398-3.1132-.1182 1.8915-3.1131c.6105.9628 1.0476,2.0472 1.2216,3.2314zm-10.5611-1.7339-4.5318-1.8915c.9771-1.3706 2.3568-2.451 3.9801-3.0343l.5517,4.9259zm5.4382-.3941-.1576-4.4136c1.3499.5202 2.5167,1.38 3.4284,2.4826l-3.2708,1.9309zm-2.7585-.5911-2.7979-4.0589c.6219-.186 1.2937-.2789 1.9704-.3153 .9779-.0526 1.909.0528 2.7979.3153l-1.9704,4.0589z"/>
<path d="m540.8036,29.7729c0,1.0355-.8395,1.875-1.875,1.875s-1.875-.8395-1.875-1.875 .8395-1.875 1.875-1.875 1.875.8395 1.875,1.875z" stroke="#fff" stroke-width=".4571" transform="matrix(-2.18455,-.11745,.11745,-2.18455,1311.26692,142.95535)"/>
<path d="m138.5566,23.7379c0,.7321-.5935,1.3255-1.3255,1.3255s-1.3255-.5935-1.3255-1.3255 .5935-1.3255 1.3255-1.3255 1.3255.5935 1.3255,1.3255z" fill="#fff" transform="matrix(1.51826,0,0,1.51826,-69.73345,-23.47952)"/>
</g>
</svg>
