<svg viewBox="0 0 512 512" xmlns="http://www.w3.org/2000/svg">

<g transform="matrix(-18.68858,0,0,18.68858,8913.27945,-35398.20089)">
<path d="m 687.811 1877.74 -7.7813 -1.9798 -3.4851 7.2334 -4.6882 -6.5184 -7.3193 3.301 0.5986 -8.0069 -7.7287 -2.1761 5.6052 -5.7489 -4.5218 -6.6349 7.9892 -0.8009 0.8009 -7.9892 6.6349 4.5218 5.7489 -5.6052 2.1761 7.7287 8.0069 -0.5985 -3.301 7.3193 6.5184 4.6882 -7.2335 3.4851 z" fill="#fff" transform="matrix(.6884,-.18446,.18446,.6884,-345.52666,748.94129)"/>
<path d="m 687.668 1872.31 c 0 3.9742 -3.2217 7.196 -7.1959 7.196 s -7.1959 -3.2218 -7.1959 -7.196 3.2217 -7.1959 7.1959 -7.1959 7.1959 3.2218 7.1959 7.1959 z" transform="matrix(1.07394,0,0,1.07394,-267.97495,-102.50893)"/>
<path d="m 459.113 1902.15 c -0.9693 0.098 -1.8754 0.4609 -2.6566 0.9592 -1.0784 1.4244 -1.7342 3.2044 -1.7342 5.1287 0 1.9386 0.6781 3.6989 1.7711 5.1287 0.9408 0.5932 2.0525 0.9592 3.2469 0.9592 3.3695 0 6.088 -2.7184 6.088 -6.0879 s -2.7185 -6.0879 -6.088 -6.0879 c -0.2106 0 -0.4222 -0.021 -0.6272 0 z" fill="#fff"/>
<path d="m 466.064 1906.84 c 0 0.7025 -0.5695 1.272 -1.2721 1.272 s -1.2721 -0.5695 -1.2721 -1.272 0.5695 -1.2721 1.2721 -1.2721 1.2721 0.5695 1.2721 1.2721 z" transform="translate(-1.0285,-1.8404)"/>
<path d="m 466.064 1906.84 c 0 0.7025 -0.5695 1.272 -1.2721 1.272 s -1.2721 -0.5695 -1.2721 -1.272 0.5695 -1.2721 1.2721 -1.2721 1.2721 0.5695 1.2721 1.2721 z" fill="#fff" transform="matrix(.78723,0,0,.78723,100.52629,408.56491)"/>
<path d="m 466.064 1906.84 c 0 0.7025 -0.5695 1.272 -1.2721 1.272 s -1.2721 -0.5695 -1.2721 -1.272 0.5695 -1.2721 1.2721 -1.2721 1.2721 0.5695 1.2721 1.2721 z" transform="matrix(.78723,0,0,.78723,96.94326,411.66508)"/>
<path d="m 466.064 1906.84 c 0 0.7025 -0.5695 1.272 -1.2721 1.272 s -1.2721 -0.5695 -1.2721 -1.272 0.5695 -1.2721 1.2721 -1.2721 1.2721 0.5695 1.2721 1.2721 z" transform="matrix(.78723,0,0,.78723,99.21674,407.06398)"/>
<path d="m 466.064 1906.84 c 0 0.7025 -0.5695 1.272 -1.2721 1.272 s -1.2721 -0.5695 -1.2721 -1.272 0.5695 -1.2721 1.2721 -1.2721 1.2721 0.5695 1.2721 1.2721 z" fill="#fff" transform="matrix(.78723,0,0,.78723,95.89488,401.29245)"/>
<path d="m 466.064 1906.84 c 0 0.7025 -0.5695 1.272 -1.2721 1.272 s -1.2721 -0.5695 -1.2721 -1.272 0.5695 -1.2721 1.2721 -1.2721 1.2721 0.5695 1.2721 1.2721 z" fill="#fff" transform="matrix(.65183,0,0,.65183,163.33277,669.45083)"/>
<path d="m 468.121 1906.11 c 0 0.4783 -0.3878 0.8661 -0.8661 0.8661 s -0.8661 -0.3878 -0.8661 -0.8661 0.3878 -0.8661 0.8661 -0.8661 0.8661 0.3878 0.8661 0.8661 z" stroke="#fff" stroke-width=".6465" transform="matrix(1.54688,0,0,1.54688,-256.08501,-1042.6202)"/>
<path d="m 468.121 1906.11 c 0 0.4783 -0.3878 0.8661 -0.8661 0.8661 s -0.8661 -0.3878 -0.8661 -0.8661 0.3878 -0.8661 0.8661 -0.8661 0.8661 0.3878 0.8661 0.8661 z" fill="none" stroke="#000" stroke-width=".6465" transform="matrix(1.54688,0,0,1.54688,-261.67316,-1037.1207)"/>
<path d="m 466.064 1906.84 c 0 0.7025 -0.5695 1.272 -1.2721 1.272 s -1.2721 -0.5695 -1.2721 -1.272 0.5695 -1.2721 1.2721 -1.2721 1.2721 0.5695 1.2721 1.2721 z" transform="matrix(.78723,0,0,.78723,93.72248,403.73492)"/>
</g>
</svg>
