<svg viewBox="0 0 512 512" xmlns="http://www.w3.org/2000/svg">

<g transform="matrix(-18.68858,0,0,18.68858,8913.27945,-35398.20089)">
<path d="m687.811,1877.7375-7.7813-1.9798-3.4851,7.2334-4.6882-6.5184-7.3193,3.301 .5986-8.0069-7.7287-2.1761 5.6052-5.7489-4.5218-6.6349 7.9892-.8009 .8009-7.9892 6.6349,4.5218 5.7489-5.6052 2.1761,7.7287 8.0069-.5985-3.301,7.3193 6.5184,4.6882-7.2335,3.4851z" fill="#fff" transform="matrix(.6884,-.18446,.18446,.6884,-345.52666,748.94129)"/>
<path d="m687.6684,1872.3127c0,3.9742-3.2217,7.196-7.1959,7.196s-7.1959-3.2218-7.1959-7.196 3.2217-7.1959 7.1959-7.1959 7.1959,3.2218 7.1959,7.1959z" transform="matrix(1.07394,0,0,1.07394,-267.97495,-102.50893)"/>
<path d="m459.1128,1902.1501c-.9693.098-1.8754.4609-2.6566.9592-1.0784,1.4244-1.7342,3.2044-1.7342,5.1287 0,1.9386.6781,3.6989 1.7711,5.1287 .9408.5932 2.0525.9592 3.2469.9592 3.3695,0 6.088-2.7184 6.088-6.0879s-2.7185-6.0879-6.088-6.0879c-.2106,0-.4222-.021-.6272,0z" fill="#fff"/>
<path d="m466.0643,1906.8405c0,.7025-.5695,1.272-1.2721,1.272s-1.2721-.5695-1.2721-1.272 .5695-1.2721 1.2721-1.2721 1.2721.5695 1.2721,1.2721z" transform="translate(-1.0285,-1.8404)"/>
<path d="m466.0643,1906.8405c0,.7025-.5695,1.272-1.2721,1.272s-1.2721-.5695-1.2721-1.272 .5695-1.2721 1.2721-1.2721 1.2721.5695 1.2721,1.2721z" fill="#fff" transform="matrix(.78723,0,0,.78723,100.52629,408.56491)"/>
<path d="m466.0643,1906.8405c0,.7025-.5695,1.272-1.2721,1.272s-1.2721-.5695-1.2721-1.272 .5695-1.2721 1.2721-1.2721 1.2721.5695 1.2721,1.2721z" transform="matrix(.78723,0,0,.78723,96.94326,411.66508)"/>
<path d="m466.0643,1906.8405c0,.7025-.5695,1.272-1.2721,1.272s-1.2721-.5695-1.2721-1.272 .5695-1.2721 1.2721-1.2721 1.2721.5695 1.2721,1.2721z" transform="matrix(.78723,0,0,.78723,99.21674,407.06398)"/>
<path d="m466.0643,1906.8405c0,.7025-.5695,1.272-1.2721,1.272s-1.2721-.5695-1.2721-1.272 .5695-1.2721 1.2721-1.2721 1.2721.5695 1.2721,1.2721z" fill="#fff" transform="matrix(.78723,0,0,.78723,95.89488,401.29245)"/>
<path d="m466.0643,1906.8405c0,.7025-.5695,1.272-1.2721,1.272s-1.2721-.5695-1.2721-1.272 .5695-1.2721 1.2721-1.2721 1.2721.5695 1.2721,1.2721z" fill="#fff" transform="matrix(.65183,0,0,.65183,163.33277,669.45083)"/>
<path d="m468.1212,1906.1096c0,.4783-.3878.8661-.8661.8661s-.8661-.3878-.8661-.8661 .3878-.8661.8661-.8661 .8661.3878.8661.8661z" stroke="#fff" stroke-width=".6465" transform="matrix(1.54688,0,0,1.54688,-256.08501,-1042.6202)"/>
<path d="m468.1212,1906.1096c0,.4783-.3878.8661-.8661.8661s-.8661-.3878-.8661-.8661 .3878-.8661.8661-.8661 .8661.3878.8661.8661z" fill="none" stroke="#000" stroke-width=".6465" transform="matrix(1.54688,0,0,1.54688,-261.67316,-1037.1207)"/>
<path d="m466.0643,1906.8405c0,.7025-.5695,1.272-1.2721,1.272s-1.2721-.5695-1.2721-1.272 .5695-1.2721 1.2721-1.2721 1.2721.5695 1.2721,1.2721z" transform="matrix(.78723,0,0,.78723,93.72248,403.73492)"/>
</g>
</svg>
