<svg viewBox="0 0 512 512" xmlns="http://www.w3.org/2000/svg">

<g transform="matrix(18.68858,0,0,18.68858,-3389.17905,-9758.52943)">
<path d="m 194.747 523.043 -3.9646 8.0238 -8.653 1.2586 c -0.0825 0.2367 -0.1504 0.4814 -0.2203 0.7237 l 6.2616 6.1044 -1.5104 8.6216 c 0.1861 0.1467 0.3728 0.3033 0.5664 0.4405 l 7.8034 -4.0906 8.0237 4.2479 c 0.1221 -0.0834 0.2268 -0.196 0.3461 -0.2832 l -1.5103 -8.9363 6.5763 -6.4505 c -0.0328 -0.1036 -0.0592 -0.2122 -0.0944 -0.3147 l -9.0935 -1.3216 -3.9961 -8.0552 c -0.1789 -0.003 -0.3566 0.021 -0.5349 0.0315 z" fill="#fff"/>
<path d="m 199.619 530.717 -10.9769 15.0325 -1.7629 2.4142" fill="#fff" fill-rule="evenodd" stroke="#000"/>
<path d="m 203.516 548.652 -13.2105 -18.1077" fill="#fff" fill-rule="evenodd" stroke="#000"/>
<path d="m 202.789 539.435 -20.9279 -6.8295" fill="#fff" fill-rule="evenodd" stroke="#000"/>
<path d="m 195.029 522.906 v 21.4852" fill="#fff" fill-rule="evenodd" stroke="#000"/>
<path d="m 187.447 539.393 21.0121 -6.8149" fill="#fff" fill-rule="evenodd" stroke="#000"/>
<path d="m 195.035 532.175 c 0.9451 1.8675 2.5519 2.9411 4.6751 3.3948 -1.7145 1.5018 -2.0685 3.4038 -1.7857 5.493 -1.9263 -0.8428 -3.8525 -1.1505 -5.7787 0 0.3128 -2.1841 0.0139 -4.1304 -1.7857 -5.493 2.0049 -0.4618 3.6125 -1.5196 4.6751 -3.3948 z" fill="#fff" stroke="#000" stroke-width=".8302"/>
</g>
</svg>
