<svg viewBox="0 0 512 512" xmlns="http://www.w3.org/2000/svg">

<g transform="matrix(18.68858,0,0,18.68858,-2269.04989,-36085.02321)">
<path d="m 132.677 1990.1 9.9303 -3.0647 12.049 5.0544 -9.6715 1.8775 11.1693 0.8026 -6.7334 1.5679 9.2211 1.5315 -9.9491 1.775 4.717 0.8688 -20.7327 2.2362 z" fill="#fff" transform="matrix(.92035,-.39109,0,1,0,0)"/>
<path d="m 133.752 1946.89 14.2712 -8.4232 v 14.0887 l -8.0183 2.2564 4.3873 -3.0848 -15.3078 5.464 11.5702 -6.3953 -6.0263 1.8426 3.7602 -2.7988 -11.8316 4.7884 15.2476 -9.8278 z" fill="#fff"/>
<path d="m 121.913 1953.03 9.1895 -4.6256 -5.4761 4.8583 18.8555 -9.6308 -20.8774 14.0922 -1.633 0.2423 z" fill="#fff"/>
<path d="m 126.016 1940.95 3.3915 0.5002 -7.2607 2.6263 -0.156 4.6117 14.0822 -10.185 z"/>
<path d="m 148.466 1946.62 -8.037 3.0015 3.891 -3.131 -7.1551 2.5278 9.475 -6.1589 -1.3336 2.2729 3.0943 -1.1705 z"/>
<path d="m 137.712 1939.14 10.9259 -4.1309" fill="none" stroke="#fff"/>
<path d="m 137.484 1936.9 10.9259 -5.3112" fill="none" stroke="#fff"/>
<path d="m 121.925 1935.83 9.5066 -4.5601" fill="none" stroke="#fff"/>
<path d="m 121.984 1931.36 h 26.4314 v 26.4314 h -26.4314 z" fill="none" stroke="#000"/>
<path d="m 138.42 1931.44 h -3.9165 l -7.082 5.5261 z"/>
</g>
</svg>
