<svg viewBox="0 0 512 512" xmlns="http://www.w3.org/2000/svg">

<g transform="matrix(18.68858,0,0,18.68858,-2269.04989,-36085.02321)">
<path d="m132.6773,1990.0979 9.9303-3.0647 12.049,5.0544-9.6715,1.8775 11.1693.8026-6.7334,1.5679 9.2211,1.5315-9.9491,1.775 4.717.8688-20.7327,2.2362z" fill="#fff" transform="matrix(.92035,-.39109,0,1,0,0)"/>
<path d="m133.7525,1946.8888 14.2712-8.4232v14.0887l-8.0183,2.2564 4.3873-3.0848-15.3078,5.464 11.5702-6.3953-6.0263,1.8426 3.7602-2.7988-11.8316,4.7884 15.2476-9.8278z" fill="#fff"/>
<path d="m121.9131,1953.0315 9.1895-4.6256-5.4761,4.8583 18.8555-9.6308-20.8774,14.0922-1.633.2423z" fill="#fff"/>
<path d="m126.0156,1940.9488 3.3915.5002-7.2607,2.6263-.156,4.6117 14.0822-10.185z"/>
<path d="m148.4657,1946.6229-8.037,3.0015 3.891-3.131-7.1551,2.5278 9.475-6.1589-1.3336,2.2729 3.0943-1.1705z"/>
<path d="m137.7118,1939.1439 10.9259-4.1309" fill="none" stroke="#fff"/>
<path d="m137.4842,1936.9045 10.9259-5.3112" fill="none" stroke="#fff"/>
<path d="m121.9253,1935.8315 9.5066-4.5601" fill="none" stroke="#fff"/>
<path d="m121.9836,1931.3608h26.4314v26.4314h-26.4314z" fill="none" stroke="#000"/>
<path d="m138.4201,1931.4372h-3.9165l-7.082,5.5261z"/>
</g>
</svg>
