<svg viewBox="0 0 512 512" xmlns="http://www.w3.org/2000/svg">

<g transform="matrix(18.68858,0,0,18.68858,-4645.32637,-2216.63977)">
<path d="m 250.877 125.769 c 2.6967 -5.1711 7.5908 -3.404 11.1495 -1.4779 -1.975 5.6946 -1.4543 11.3891 0 17.0837 -2.7758 1.0866 -5.3915 0.5596 -8.4 0.5596 1.3169 -5.6946 1.1115 -15.0523 -2.7494 -16.1654 z" fill="#fff" stroke="#000"/>
<path d="m 249.108 142.086 c 0 -2.8429 1.221 -5.023 2.814 -6.2006 1.348 0.5783 3.6057 0.6778 5.6772 0.4279 0.964 1.145 1.609 3.0257 1.609 5.7727 -5.2428 1.0865 -8.1019 0.7925 -10.1002 0 z" fill="#fff" fill-rule="evenodd" stroke="#000"/>
<path d="m 274.191 128.651 c -0.3807 -6.531 -10.1265 -6.7674 -11.002 -2.808 1.3219 5.6011 0.7319 9.7339 0 15.5319 1.5768 0.6408 5.4523 0.7074 8.4 0.7074 -1.3169 -5.6946 -2.5123 -14.8306 2.602 -13.4314 z" fill="#fff" stroke="#000"/>
<path d="m 254.279 133.447 c 1.477 -1.0079 2.9541 -0.6245 4.4312 -0.0523" fill="none" stroke="#000"/>
<path d="m 254.097 130.7 c 1.477 -1.2142 2.9541 -1.0372 4.4311 -0.6712" fill="none" stroke="#000"/>
<path d="m 253.211 128.391 c 1.7813 -1.8664 3.5625 -1.9224 5.3438 -1.7326" fill="none" stroke="#000"/>
<path d="m 270.36 134.633 c -1.3932 -1.1214 -3.1689 -1.0835 -4.6864 -0.6297" fill="none" stroke="#000"/>
<path d="m 270.485 131.681 c -1.377 -1.3271 -2.8634 -1.2673 -4.3646 -1.0191" fill="none" stroke="#000"/>
<path d="m 271.55 129.45 c -1.629 -2.0013 -3.4003 -2.1978 -5.1909 -2.1493" fill="none" stroke="#000"/>
<path d="m 265.312 142.086 c 0 -2.8429 1.221 -5.023 2.814 -6.2006 1.348 0.5783 3.6057 0.6778 5.6772 0.4279 0.964 1.145 1.609 3.0257 1.609 5.7727 -5.2428 1.0865 -8.1019 0.7925 -10.1002 0 z" fill="#fff" fill-rule="evenodd" stroke="#000"/>
</g>
</svg>
