<svg viewBox="0 0 512 512" xmlns="http://www.w3.org/2000/svg">

<g transform="matrix(18.68858,0,0,18.68858,-1591.31583,-26544.20597)">
<path d="m 109.534 1427.64 1.2761 14.0954 -7.2427 -12.1593 c -1.3564 -2.092 -0.6352 -4.4502 1.6447 -5.19 s 4.1944 0.8 4.3219 3.2539 z" fill="#fff"/>
<path d="m 102.998 1421.93 c -1.9732 1.3716 -2.0722 3.1452 -0.9046 5.703 -0.1452 -1.8068 0.8731 -3.4536 2.8502 -4.0953 2.002 -0.6493 3.7399 0.1643 4.6527 1.7569 -0.3292 -3.2471 -4.2749 -4.9795 -6.5983 -3.3646 z" fill="#fff"/>
<path d="m 95.2663 1432.73 11.0215 9.4583 -14.0268 -3.7658 c -2.4944 -0.5689 -3.6506 -2.82 -2.5023 -4.9953 1.1485 -2.1748 3.6585 -2.4114 5.5076 -0.6972 z" fill="#fff"/>
<path d="m 87.4322 1430.64 c -2.4553 2.5257 -0.6445 6.5414 2.3543 7.4067 -1.3993 -1.2255 -1.8279 -3.1656 -0.8321 -5.052 1.0084 -1.9097 2.8691 -2.5542 4.68 -2.0353 -2.1713 -2.1973 -4.6206 -1.9463 -6.2022 -0.3194 z" fill="#fff"/>
<path d="m 101.02 1427.1 6.4797 13.3516 -11.6138 -9.2399 c -2.1063 -1.5484 -2.1847 -4.0239 -0.3119 -5.7005 1.8569 -1.6623 4.5425 -0.3224 5.4459 1.5888 z" fill="#fff"/>
<path d="m 92.521 1423.95 c -1.0118 1.6487 -0.9007 4.0123 1.2735 5.8988 -0.7943 -1.6793 -0.415 -3.6272 1.2478 -4.9588 1.6837 -1.3484 3.6447 -1.1986 5.0971 0 -1.5381 -3.2982 -6.1142 -3.391 -7.6184 -0.94 z" fill="#fff"/>
<path d="m 94.0209 1440.91 11.394 4.9194 -12.4011 0.4878 c -2.1797 0.1692 -3.7827 -1.3925 -3.3098 -3.4405 0.5806 -2.5146 2.5734 -2.8056 4.3169 -1.9667 z" fill="#fff"/>
<path d="m 86.7176 1441.07 c -0.7281 2.8129 0.9164 5.57 4.146 5.6837 -1.5017 -0.6665 -2.3723 -2.1903 -2.0274 -4.0425 0.3494 -1.8751 1.7495 -2.9069 3.4129 -2.9446 -2.3729 -1.4234 -4.8885 -1.1807 -5.5315 1.3034 z" fill="#fff"/>
<path d="m 100.718 1427.7 5.3609 10.9981 -7.2558 -8.6416 c -2.996 -3.5681 -0.1788 -6.6107 1.8949 -2.3565 z" stroke="#fff"/>
<path d="m 109.021 1427.85 1.0519 11.6142 -3.521 -10.1275 c -1.4539 -4.1816 2.0623 -5.9794 2.4692 -1.4867 z" stroke="#fff"/>
<path d="m 95.0887 1433.26 9.119 7.7985 -9.8447 -4.9482 c -4.0649 -2.043 -2.8018 -5.8668 0.7257 -2.8503 z" stroke="#fff"/>
<path d="m 93.8314 1441.4 9.3009 4.007 -9.2693 -1.407 c -3.8273 -0.5809 -3.6293 -4.1499 -0.0316 -2.6 z" stroke="#fff"/>
</g>
</svg>
