<svg viewBox="0 0 512 512" xmlns="http://www.w3.org/2000/svg">

<g transform="matrix(18.68858,0,0,18.68858,-4645.32637,-2216.63977)">
<path d="m250.877,125.769c2.6967-5.1711 7.5908-3.404 11.1495-1.4779-1.975,5.6946-1.4543,11.3891 0,17.0837-2.7758,1.0866-5.3915.5596-8.4.5596 1.3169-5.6946 1.1115-15.0523-2.7494-16.1654z" fill="#fff" stroke="#000"/>
<path d="m249.1077,142.0864c0-2.8429 1.221-5.023 2.814-6.2006 1.348.5783 3.6057.6778 5.6772.4279 .964,1.145 1.609,3.0257 1.609,5.7727-5.2428,1.0865-8.1019.7925-10.1002,0z" fill="#fff" fill-rule="evenodd" stroke="#000"/>
<path d="m274.191,128.6509c-.3807-6.531-10.1265-6.7674-11.002-2.808 1.3219,5.6011.7319,9.7339 0,15.5319 1.5768.6408 5.4523.7074 8.4.7074-1.3169-5.6946-2.5123-14.8306 2.602-13.4314z" fill="#fff" stroke="#000"/>
<path d="m254.2793,133.4469c1.477-1.0079 2.9541-.6245 4.4312-.0523" fill="none" stroke="#000"/>
<path d="m254.0968,130.6997c1.477-1.2142 2.9541-1.0372 4.4311-.6712" fill="none" stroke="#000"/>
<path d="m253.2106,128.3912c1.7813-1.8664 3.5625-1.9224 5.3438-1.7326" fill="none" stroke="#000"/>
<path d="m270.3599,134.6327c-1.3932-1.1214-3.1689-1.0835-4.6864-.6297" fill="none" stroke="#000"/>
<path d="m270.4846,131.6808c-1.377-1.3271-2.8634-1.2673-4.3646-1.0191" fill="none" stroke="#000"/>
<path d="m271.5496,129.4495c-1.629-2.0013-3.4003-2.1978-5.1909-2.1493" fill="none" stroke="#000"/>
<path d="m265.3116,142.0864c0-2.8429 1.221-5.023 2.814-6.2006 1.348.5783 3.6057.6778 5.6772.4279 .964,1.145 1.609,3.0257 1.609,5.7727-5.2428,1.0865-8.1019.7925-10.1002,0z" fill="#fff" fill-rule="evenodd" stroke="#000"/>
</g>
</svg>
