<svg viewBox="0 0 512 512" xmlns="http://www.w3.org/2000/svg">

<g transform="matrix(18.68858,0,0,18.68858,-3632.86223,-12273.72872)">
<g transform="translate(.1531)">
<path d="m204.2236,674.8469-4.6056,3.4828c-3.9095-2.625-4.8185-8.4636-4.7502-14.0123l9.1621,2.4098z" fill="#fff" fill-rule="evenodd" stroke="#000" stroke-width=".795"/>
<path d="m194.8604,668.533 8.3437.8351" fill="none" stroke="#000"/>
<path d="m202.9232,671.6746-7.5613.7033" fill="none" stroke="#000"/>
<path d="m202.6992,673.7073-6.3859,2.1881" fill="none" stroke="#000"/>
</g>
<path d="m194.981,660.6736-.067,3.6407 8.1377,2.7232c-1.0172,2.9716-1.0543,6.4926.5261,9.4461l2.8721-1.1381c-1.4522-3.2418-1.1899-5.8512.4975-9.9031l-11.9665-4.7688z" fill="#fff" stroke="#000"/>
<g transform="translate(.0383)">
<path d="m211.805,674.8469 4.6056,3.4828c3.9095-2.625 4.8185-8.4636 4.7502-14.0123l-9.1621,2.4098z" fill="#fff" fill-rule="evenodd" stroke="#000" stroke-width=".795"/>
<path d="m221.1681,668.533-8.3437.8351" fill="none" stroke="#000"/>
<path d="m213.1053,671.6746 7.5613.7033" fill="none" stroke="#000"/>
<path d="m213.3293,673.7073 6.3859,2.1881" fill="none" stroke="#000"/>
</g>
<path d="m221.1604,660.6736 .067,3.6407-8.1377,2.7232c1.0172,2.9716 1.0543,6.4926-.5261,9.4461l-2.8721-1.1381c1.4522-3.2418 1.1899-5.8512-.4975-9.9031l11.9665-4.7688z" fill="#fff" stroke="#000"/>
<path d="m203.264,674.2798c.4973,2.6954 2.4641,4.7188 4.8067,4.7188s4.3093-2.0234 4.8067-4.7188h-9.6134z" fill="#fff"/>
<path d="m28.8146,504.0672c0,3.3072-1.3158,5.9883-2.9389,5.9883s-2.9389-2.6811-2.9389-5.9883 1.3158-5.9883 2.9389-5.9883 2.9389,2.6811 2.9389,5.9883z" transform="matrix(1.09091,0,0,1.01845,179.84267,157.32991)"/>
<path d="m606.3592,291.5983h5.6304v5.6304h-5.6304z" stroke="#fff" stroke-width="1.004" transform="matrix(.66107,.75033,-.66107,.75033,0,0)"/>
<path d="m211.4754,678.1368h-3.4449v-3.9424z" fill="#fff"/>
</g>
</svg>
