<svg viewBox="0 0 512 512" xmlns="http://www.w3.org/2000/svg">

<g transform="matrix(18.68858,0,0,18.68858,-1591.31583,-26544.20597)">
<path d="m109.534,1427.6371 1.2761,14.0954-7.2427-12.1593c-1.3564-2.092-.6352-4.4502 1.6447-5.19s4.1944.8 4.3219,3.2539z" fill="#fff"/>
<path d="m102.9976,1421.9274c-1.9732,1.3716-2.0722,3.1452-.9046,5.703-.1452-1.8068.8731-3.4536 2.8502-4.0953 2.002-.6493 3.7399.1643 4.6527,1.7569-.3292-3.2471-4.2749-4.9795-6.5983-3.3646z" fill="#fff"/>
<path d="m95.2663,1432.7317 11.0215,9.4583-14.0268-3.7658c-2.4944-.5689-3.6506-2.82-2.5023-4.9953 1.1485-2.1748 3.6585-2.4114 5.5076-.6972z" fill="#fff"/>
<path d="m87.4322,1430.6427c-2.4553,2.5257-.6445,6.5414 2.3543,7.4067-1.3993-1.2255-1.8279-3.1656-.8321-5.052 1.0084-1.9097 2.8691-2.5542 4.68-2.0353-2.1713-2.1973-4.6206-1.9463-6.2022-.3194z" fill="#fff"/>
<path d="m101.0199,1427.1035 6.4797,13.3516-11.6138-9.2399c-2.1063-1.5484-2.1847-4.0239-.3119-5.7005 1.8569-1.6623 4.5425-.3224 5.4459,1.5888z" fill="#fff"/>
<path d="m92.521,1423.955c-1.0118,1.6487-.9007,4.0123 1.2735,5.8988-.7943-1.6793-.415-3.6272 1.2478-4.9588 1.6837-1.3484 3.6447-1.1986 5.0971,0-1.5381-3.2982-6.1142-3.391-7.6184-.94z" fill="#fff"/>
<path d="m94.0209,1440.9146 11.394,4.9194-12.4011.4878c-2.1797.1692-3.7827-1.3925-3.3098-3.4405 .5806-2.5146 2.5734-2.8056 4.3169-1.9667z" fill="#fff"/>
<path d="m86.7176,1441.0735c-.7281,2.8129.9164,5.57 4.146,5.6837-1.5017-.6665-2.3723-2.1903-2.0274-4.0425 .3494-1.8751 1.7495-2.9069 3.4129-2.9446-2.3729-1.4234-4.8885-1.1807-5.5315,1.3034z" fill="#fff"/>
<path d="m100.7184,1427.6951 5.3609,10.9981-7.2558-8.6416c-2.996-3.5681-.1788-6.6107 1.8949-2.3565z" stroke="#fff"/>
<path d="m109.0207,1427.8528 1.0519,11.6142-3.521-10.1275c-1.4539-4.1816 2.0623-5.9794 2.4692-1.4867z" stroke="#fff"/>
<path d="m95.0887,1433.261 9.119,7.7985-9.8447-4.9482c-4.0649-2.043-2.8018-5.8668.7257-2.8503z" stroke="#fff"/>
<path d="m93.8314,1441.3955 9.3009,4.007-9.2693-1.407c-3.8273-.5809-3.6293-4.1499-.0316-2.6z" stroke="#fff"/>
</g>
</svg>
