<svg viewBox="0 0 512 512" xmlns="http://www.w3.org/2000/svg">

<g transform="matrix(18.68858,0,0,18.68858,-3632.86223,-12273.72872)">
<g transform="translate(.1531)">
<path d="m 204.224 674.847 -4.6056 3.4828 c -3.9095 -2.625 -4.8185 -8.4636 -4.7502 -14.0123 l 9.1621 2.4098 z" fill="#fff" fill-rule="evenodd" stroke="#000" stroke-width=".795"/>
<path d="m 194.86 668.533 8.3437 0.8351" fill="none" stroke="#000"/>
<path d="m 202.923 671.675 -7.5613 0.7033" fill="none" stroke="#000"/>
<path d="m 202.699 673.707 -6.3859 2.1881" fill="none" stroke="#000"/>
</g>
<path d="m 194.981 660.674 -0.067 3.6407 8.1377 2.7232 c -1.0172 2.9716 -1.0543 6.4926 0.5261 9.4461 l 2.8721 -1.1381 c -1.4522 -3.2418 -1.1899 -5.8512 0.4975 -9.9031 l -11.9665 -4.7688 z" fill="#fff" stroke="#000"/>
<g transform="translate(.0383)">
<path d="m 211.805 674.847 4.6056 3.4828 c 3.9095 -2.625 4.8185 -8.4636 4.7502 -14.0123 l -9.1621 2.4098 z" fill="#fff" fill-rule="evenodd" stroke="#000" stroke-width=".795"/>
<path d="m 221.168 668.533 -8.3437 0.8351" fill="none" stroke="#000"/>
<path d="m 213.105 671.675 7.5613 0.7033" fill="none" stroke="#000"/>
<path d="m 213.329 673.707 6.3859 2.1881" fill="none" stroke="#000"/>
</g>
<path d="m 221.16 660.674 0.067 3.6407 -8.1377 2.7232 c 1.0172 2.9716 1.0543 6.4926 -0.5261 9.4461 l -2.8721 -1.1381 c 1.4522 -3.2418 1.1899 -5.8512 -0.4975 -9.9031 l 11.9665 -4.7688 z" fill="#fff" stroke="#000"/>
<path d="m 203.264 674.28 c 0.4973 2.6954 2.4641 4.7188 4.8067 4.7188 s 4.3093 -2.0234 4.8067 -4.7188 h -9.6134 z" fill="#fff"/>
<path d="m 28.8146 504.067 c 0 3.3072 -1.3158 5.9883 -2.9389 5.9883 s -2.9389 -2.6811 -2.9389 -5.9883 1.3158 -5.9883 2.9389 -5.9883 2.9389 2.6811 2.9389 5.9883 z" transform="matrix(1.09091,0,0,1.01845,179.84267,157.32991)"/>
<path d="m 606.359 291.598 h 5.6304 v 5.6304 h -5.6304 z" stroke="#fff" stroke-width="1.004" transform="matrix(.66107,.75033,-.66107,.75033,0,0)"/>
<path d="m 211.475 678.137 h -3.4449 v -3.9424 z" fill="#fff"/>
</g>
</svg>
