<svg viewBox="0 0 512 512" xmlns="http://www.w3.org/2000/svg">

<g transform="matrix(18.68858,0,0,18.68858,-11801.145,-25183.53)">
<path d="m643.4729,1370.1918-4.2501,4.2499-7.1875-.0001v-10.4374l2.6249-2.6251 8.8127,8.8127z" fill="#fff" stroke="#000"/>
<path d="m652.0393,1365.6091c0,3.4105-1.5005,6.1752-3.3515,6.1752s-3.3515-2.7647-3.3515-6.1752 1.5005-6.1752 3.3515-6.1752 3.3515,2.7648 3.3515,6.1752z" fill="#fff" stroke="#000" stroke-width="1.0044" transform="matrix(-.70399,.70399,-.70399,-.70399,2057.0712,1870.7679)"/>
<path d="m657.8084,1370.3657 .0001,3.4568h-6.9135c-2.4938-10.6086-9.9499-18.2635-17.7566-24.7793 11.9674,2.8262 20.1633,11.4061 24.67,21.3225z" fill="#fff"/>
<path d="m653.7456,1370.8517-.265,2.9708h-5.9417c-1.3297-9.1172-7.1507-15.6961-13.3603-21.2958 10.0684,2.4289 16.4541,9.8025 19.567,18.325z" fill="#fff"/>
<path d="m649.7711,1371.4108-.502,2.4116-4.8234.0001c-.1989-7.4013-4.2892-12.742-8.7892-17.2879 7.9389,1.9719 12.4108,7.9577 14.1146,14.8762z" fill="#fff"/>
<path d="m644.0948,1373.8574c-.1995-7.4164-4.2984-12.7677-8.8079-17.3227" fill="none" stroke="#000"/>
<path d="m658.4416,1357.223-6.6876,3.8437c-1.8854,1.0886-4.9152-1.1411-6.4063-4-1.3875-2.6607-1.3843-5.8917.1562-6.7812l3.8439-2.2188h9.0937l.0001,9.1563z" fill="#fff" stroke="#000"/>
<path d="m644.4391,1353.8393 10.3411-5.9705 3.7898.8151-13.434,7.7561z"/>
<path d="m631.9109,1367.3843 2.4156-2.4155 1.3693,2.3716-3.8012,3.8013z"/>
<path d="m645.9697,1358.3256 12.3738-7.144" fill="none" stroke="#000"/>
<path d="m632.1294,1374.0947 5.3392-5.3392" fill="none" stroke="#000"/>
</g>
</svg>
