<svg viewBox="0 0 512 512" xmlns="http://www.w3.org/2000/svg">

<g transform="matrix(18.68858,0,0,18.68858,-11801.145,-25183.53)">
<path d="m 643.473 1370.19 -4.2501 4.2499 -7.1875 -0.0001 v -10.4374 l 2.6249 -2.6251 8.8127 8.8127 z" fill="#fff" stroke="#000"/>
<path d="m 652.039 1365.61 c 0 3.4105 -1.5005 6.1752 -3.3515 6.1752 s -3.3515 -2.7647 -3.3515 -6.1752 1.5005 -6.1752 3.3515 -6.1752 3.3515 2.7648 3.3515 6.1752 z" fill="#fff" stroke="#000" stroke-width="1.0044" transform="matrix(-.70399,.70399,-.70399,-.70399,2057.0712,1870.7679)"/>
<path d="m 657.808 1370.37 0.0001 3.4568 h -6.9135 c -2.4938 -10.6086 -9.9499 -18.2635 -17.7566 -24.7793 11.9674 2.8262 20.1633 11.4061 24.67 21.3225 z" fill="#fff"/>
<path d="m 653.746 1370.85 -0.265 2.9708 h -5.9417 c -1.3297 -9.1172 -7.1507 -15.6961 -13.3603 -21.2958 10.0684 2.4289 16.4541 9.8025 19.567 18.325 z" fill="#fff"/>
<path d="m 649.771 1371.41 -0.502 2.4116 -4.8234 0.0001 c -0.1989 -7.4013 -4.2892 -12.742 -8.7892 -17.2879 7.9389 1.9719 12.4108 7.9577 14.1146 14.8762 z" fill="#fff"/>
<path d="m 644.095 1373.86 c -0.1995 -7.4164 -4.2984 -12.7677 -8.8079 -17.3227" fill="none" stroke="#000"/>
<path d="m 658.442 1357.22 -6.6876 3.8437 c -1.8854 1.0886 -4.9152 -1.1411 -6.4063 -4 -1.3875 -2.6607 -1.3843 -5.8917 0.1562 -6.7812 l 3.8439 -2.2188 h 9.0937 l 0.0001 9.1563 z" fill="#fff" stroke="#000"/>
<path d="m 644.439 1353.84 10.3411 -5.9705 3.7898 0.8151 -13.434 7.7561 z"/>
<path d="m 631.911 1367.38 2.4156 -2.4155 1.3693 2.3716 -3.8012 3.8013 z"/>
<path d="m 645.97 1358.33 12.3738 -7.144" fill="none" stroke="#000"/>
<path d="m 632.129 1374.09 5.3392 -5.3392" fill="none" stroke="#000"/>
</g>
</svg>
