<svg viewBox="0 0 512 512" xmlns="http://www.w3.org/2000/svg">

<g transform="matrix(18.68858,0,0,18.68858,-2270.05956,-23140.19208)">
<path d="m 146.25 1249.56 c 2.3496 -2.3497 2.3496 -6.1636 4e-05 -8.5131 s -6.1635 -2.3497 -8.5131 -0.0001 l -13.4275 13.4275 c -2.3496 2.3497 -2.3496 6.1635 -4e-05 8.513 s 6.1635 2.3497 8.5131 0.0001" fill="#fff"/>
<path d="m 130.409 1253.06 3.9554 3.9554 m 6.2314 -6.2315 -3.9553 -3.9552" fill="#fff" stroke="#000"/>
<path d="m 145.102 1249.89 c 0 0.5142 -0.4169 0.9311 -0.9311 0.9311 s -0.9311 -0.4169 -0.9311 -0.9311 0.4169 -0.9312 0.9311 -0.9312 0.9311 0.4169 0.9311 0.9312 z" transform="matrix(.50508,-.50508,.50508,.50508,-565.42938,686.59144)"/>
<path d="m 145.102 1249.89 c 0 0.5142 -0.4169 0.9311 -0.9311 0.9311 s -0.9311 -0.4169 -0.9311 -0.9311 0.4169 -0.9312 0.9311 -0.9312 0.9311 0.4169 0.9311 0.9312 z" transform="matrix(.50508,-.50508,.50508,.50508,-563.60199,688.41883)"/>
<path d="m 145.102 1249.89 c 0 0.5142 -0.4169 0.9311 -0.9311 0.9311 s -0.9311 -0.4169 -0.9311 -0.9311 0.4169 -0.9312 0.9311 -0.9312 0.9311 0.4169 0.9311 0.9312 z" transform="matrix(.50508,-.50508,.50508,.50508,-561.64023,690.38059)"/>
<path d="m 145.102 1249.89 c 0 0.5142 -0.4169 0.9311 -0.9311 0.9311 s -0.9311 -0.4169 -0.9311 -0.9311 0.4169 -0.9312 0.9311 -0.9312 0.9311 0.4169 0.9311 0.9312 z" transform="matrix(.50508,-.50508,.50508,.50508,-563.46762,684.62969)"/>
<path d="m 145.102 1249.89 c 0 0.5142 -0.4169 0.9311 -0.9311 0.9311 s -0.9311 -0.4169 -0.9311 -0.9311 0.4169 -0.9312 0.9311 -0.9312 0.9311 0.4169 0.9311 0.9312 z" transform="matrix(.50508,-.50508,.50508,.50508,-561.64023,686.45708)"/>
<path d="m 145.102 1249.89 c 0 0.5142 -0.4169 0.9311 -0.9311 0.9311 s -0.9311 -0.4169 -0.9311 -0.9311 0.4169 -0.9312 0.9311 -0.9312 0.9311 0.4169 0.9311 0.9312 z" transform="matrix(.50508,-.50508,.50508,.50508,-559.67848,688.41883)"/>
<path d="m 145.102 1249.89 c 0 0.5142 -0.4169 0.9311 -0.9311 0.9311 s -0.9311 -0.4169 -0.9311 -0.9311 0.4169 -0.9312 0.9311 -0.9312 0.9311 0.4169 0.9311 0.9312 z" transform="matrix(.50508,-.50508,.50508,.50508,-561.58649,682.74855)"/>
<path d="m 145.102 1249.89 c 0 0.5142 -0.4169 0.9311 -0.9311 0.9311 s -0.9311 -0.4169 -0.9311 -0.9311 0.4169 -0.9312 0.9311 -0.9312 0.9311 0.4169 0.9311 0.9312 z" transform="matrix(.50508,-.50508,.50508,.50508,-559.7591,684.57594)"/>
<path d="m 145.102 1249.89 c 0 0.5142 -0.4169 0.9311 -0.9311 0.9311 s -0.9311 -0.4169 -0.9311 -0.9311 0.4169 -0.9312 0.9311 -0.9312 0.9311 0.4169 0.9311 0.9312 z" transform="matrix(.50508,-.50508,.50508,.50508,-557.79734,686.5377)"/>
<path d="m 145.102 1249.89 c 0 0.5142 -0.4169 0.9311 -0.9311 0.9311 s -0.9311 -0.4169 -0.9311 -0.9311 0.4169 -0.9312 0.9311 -0.9312 0.9311 0.4169 0.9311 0.9312 z" transform="matrix(.50508,-.50508,.50508,.50508,-579.4531,700.61516)"/>
<path d="m 145.102 1249.89 c 0 0.5142 -0.4169 0.9311 -0.9311 0.9311 s -0.9311 -0.4169 -0.9311 -0.9311 0.4169 -0.9312 0.9311 -0.9312 0.9311 0.4169 0.9311 0.9312 z" transform="matrix(.50508,-.50508,.50508,.50508,-577.62571,702.44255)"/>
<path d="m 145.102 1249.89 c 0 0.5142 -0.4169 0.9311 -0.9311 0.9311 s -0.9311 -0.4169 -0.9311 -0.9311 0.4169 -0.9312 0.9311 -0.9312 0.9311 0.4169 0.9311 0.9312 z" transform="matrix(.50508,-.50508,.50508,.50508,-575.66395,704.40431)"/>
<path d="m 145.102 1249.89 c 0 0.5142 -0.4169 0.9311 -0.9311 0.9311 s -0.9311 -0.4169 -0.9311 -0.9311 0.4169 -0.9312 0.9311 -0.9312 0.9311 0.4169 0.9311 0.9312 z" transform="matrix(.50508,-.50508,.50508,.50508,-577.49134,698.65341)"/>
<path d="m 145.102 1249.89 c 0 0.5142 -0.4169 0.9311 -0.9311 0.9311 s -0.9311 -0.4169 -0.9311 -0.9311 0.4169 -0.9312 0.9311 -0.9312 0.9311 0.4169 0.9311 0.9312 z" transform="matrix(.50508,-.50508,.50508,.50508,-575.66395,700.4808)"/>
<path d="m 145.102 1249.89 c 0 0.5142 -0.4169 0.9311 -0.9311 0.9311 s -0.9311 -0.4169 -0.9311 -0.9311 0.4169 -0.9312 0.9311 -0.9312 0.9311 0.4169 0.9311 0.9312 z" transform="matrix(.50508,-.50508,.50508,.50508,-573.7022,702.44255)"/>
<path d="m 145.102 1249.89 c 0 0.5142 -0.4169 0.9311 -0.9311 0.9311 s -0.9311 -0.4169 -0.9311 -0.9311 0.4169 -0.9312 0.9311 -0.9312 0.9311 0.4169 0.9311 0.9312 z" transform="matrix(.50508,-.50508,.50508,.50508,-575.61021,696.77227)"/>
<path d="m 145.102 1249.89 c 0 0.5142 -0.4169 0.9311 -0.9311 0.9311 s -0.9311 -0.4169 -0.9311 -0.9311 0.4169 -0.9312 0.9311 -0.9312 0.9311 0.4169 0.9311 0.9312 z" transform="matrix(.50508,-.50508,.50508,.50508,-573.78282,698.59966)"/>
<path d="m 145.102 1249.89 c 0 0.5142 -0.4169 0.9311 -0.9311 0.9311 s -0.9311 -0.4169 -0.9311 -0.9311 0.4169 -0.9312 0.9311 -0.9312 0.9311 0.4169 0.9311 0.9312 z" transform="matrix(.50508,-.50508,.50508,.50508,-571.82106,700.56142)"/>
<path d="m 134.365 1246.83 -3.9553 3.9553 m 6.2313 6.2313 3.9553 -3.9554" fill="#fff" stroke="#000"/>
</g>
</svg>
