<svg viewBox="0 0 512 512" xmlns="http://www.w3.org/2000/svg">

<g transform="matrix(18.68858,0,0,18.68858,-7042.59198,-40152.2733)">
<path d="m391.5312,2149.0312-2.8438,8.1876 .0625-7.4063c-.6633-.6838-2.2938-.7837-2.9375.031l.0312,8.7187c-1.8076-2.515-3.871-4.2712-5.0625-1.3437 2.1599,2.0018 2.7939,4.0165 3.2812,5.4062 .1221.3481.1746.7595.3125,1.125l-7,2.9688v8.75h3.5938l8.6562-8.125c1.0944-.3731 1.8219-.8852 2.5-1.625 .5319-.601 1.5624-1.5871 2.1562-2.2188 1.8452-1.9627 5.4062-4.375 5.4062-4.375 .2425-1.0307-.5555-2.0243-1.4688-2.1875l-4.5938,3.4375 4.9375-6.8438c-.0312-1.0838-1.256-2.162-2.1562-2l-5.1875,7.0626 3.2188-8.4063c-.7893-1.0938-1.7507-1.1594-2.9062-1.1563z" fill="#fff" stroke="#000"/>
<g transform="matrix(-.70086,-.1878,-.1878,.70086,1161.4665,986.44467)">
<g transform="matrix(1.44199,0,0,1.44199,-270.28472,-810.4147)">
<path d="m604.1509,1836.1333c3.1134.844 6.8377-.3659 9.1299-3.4052-3.3023.6297-6.8284.8227-9.1299,3.4052z" fill="#fff" fill-rule="evenodd"/>
<path d="m614.1058,1836.5057-.3869-3.3858-1.9401,5.3639z" fill="#fff"/>
</g>
<path d="m616.7986,1835.2634c-1.2698.7818-2.3346,1.6661-3.1741,2.663" fill="none" stroke="#000" stroke-width="1.3782"/>
</g>
<path d="m389.7202,2160.9859v6.4312" fill="none" stroke="#000"/>
<path d="m389.6588,2167.8255c-.4212,3.4912-1.9756,3.0347-2.0068,5.2342-.0136.9969.9203,1.8202 2.0785,1.8202s2.1143-.823 2.1143-1.8202c0-2.2107-1.7212-1.7566-2.186-5.2342z" fill="#fff" fill-rule="evenodd"/>
<path d="m389.6735,2166.1678c-.3522-2.919-1.6518-2.5373-1.6779-4.3764-.0114-.8335.7694-1.5218 1.7378-1.5218s1.7678.6881 1.7678,1.5218c0,1.8485-1.4391,1.4688-1.8277,4.3764z" fill-rule="evenodd"/>
</g>
</svg>
