<svg viewBox="0 0 512 512" xmlns="http://www.w3.org/2000/svg">

<g transform="matrix(18.68858,0,0,18.68858,-7042.59198,-40152.2733)">
<path d="m 391.531 2149.03 -2.8438 8.1876 0.0625 -7.4063 c -0.6633 -0.6838 -2.2938 -0.7837 -2.9375 0.031 l 0.0312 8.7187 c -1.8076 -2.515 -3.871 -4.2712 -5.0625 -1.3437 2.1599 2.0018 2.7939 4.0165 3.2812 5.4062 0.1221 0.3481 0.1746 0.7595 0.3125 1.125 l -7 2.9688 v 8.75 h 3.5938 l 8.6562 -8.125 c 1.0944 -0.3731 1.8219 -0.8852 2.5 -1.625 0.5319 -0.601 1.5624 -1.5871 2.1562 -2.2188 1.8452 -1.9627 5.4062 -4.375 5.4062 -4.375 0.2425 -1.0307 -0.5555 -2.0243 -1.4688 -2.1875 l -4.5938 3.4375 4.9375 -6.8438 c -0.0312 -1.0838 -1.256 -2.162 -2.1562 -2 l -5.1875 7.0626 3.2188 -8.4063 c -0.7893 -1.0938 -1.7507 -1.1594 -2.9062 -1.1563 z" fill="#fff" stroke="#000"/>
<g transform="matrix(-.70086,-.1878,-.1878,.70086,1161.4665,986.44467)">
<g transform="matrix(1.44199,0,0,1.44199,-270.28472,-810.4147)">
<path d="m 604.151 1836.13 c 3.1134 0.844 6.8377 -0.3659 9.1299 -3.4052 -3.3023 0.6297 -6.8284 0.8227 -9.1299 3.4052 z" fill="#fff" fill-rule="evenodd"/>
<path d="m 614.106 1836.51 -0.3869 -3.3858 -1.9401 5.3639 z" fill="#fff"/>
</g>
<path d="m 616.799 1835.26 c -1.2698 0.7818 -2.3346 1.6661 -3.1741 2.663" fill="none" stroke="#000" stroke-width="1.3782"/>
</g>
<path d="m 389.72 2160.99 v 6.4312" fill="none" stroke="#000"/>
<path d="m 389.659 2167.83 c -0.4212 3.4912 -1.9756 3.0347 -2.0068 5.2342 -0.0136 0.9969 0.9203 1.8202 2.0785 1.8202 s 2.1143 -0.823 2.1143 -1.8202 c 0 -2.2107 -1.7212 -1.7566 -2.186 -5.2342 z" fill="#fff" fill-rule="evenodd"/>
<path d="m 389.673 2166.17 c -0.3522 -2.919 -1.6518 -2.5373 -1.6779 -4.3764 -0.0114 -0.8335 0.7694 -1.5218 1.7378 -1.5218 s 1.7678 0.6881 1.7678 1.5218 c 0 1.8485 -1.4391 1.4688 -1.8277 4.3764 z" fill-rule="evenodd"/>
</g>
</svg>
