<svg viewBox="0 0 512 512" xmlns="http://www.w3.org/2000/svg">

<g transform="matrix(18.68858,0,0,18.68858,-2275.69887,-38102.7044)">
<path d="m129.4867,2046.4801 3.3798.1842c5.9768,6.6227 11.9389,13.5426 15.4459,18.6416-5.0283-3.5713-11.8543-9.3314-18.6415-15.4459z" fill="#fff"/>
<path d="m124.1736,2041.167c.7701,3.1697 3.9638,6.3631 7.1334,7.1334-.7702-3.1694-3.9639-6.3631-7.1334-7.1334z" fill="#fff"/>
<path d="m127.3015,2042.2754c0,1.1604-.9407,2.101-2.101,2.101s-2.101-.9406-2.101-2.101 .9407-2.101 2.101-2.101 2.101.9406 2.101,2.101z" fill="#fff" transform="matrix(.70059,-.70059,.49401,.49401,-972.06402,1120.3581)"/>
<path d="m127.6449,2051.848c0-3.9397 3.1938-7.1333 7.1333-7.1335" fill="none" stroke="#fff"/>
</g>
</svg>
