<svg viewBox="0 0 512 512" xmlns="http://www.w3.org/2000/svg">

<g transform="matrix(18.68858,0,0,18.68858,6411.71405,-9227.02888)">
<path d="m -341.782 498.356 c 11.665 -0.4814 18.959 9.4446 22.2281 21.4554 2.0829 -11.7769 -10.7068 -26.5523 -22.2281 -21.4554 z" fill="#fff" fill-rule="evenodd"/>
<path d="m -317.104 513.141 c -2.3474 1.2013 -4.8586 1.531 -7.4054 1.6711 2.2809 -1.6203 4.6512 -2.2477 7.4054 -1.6711 z" fill="#fff" fill-rule="evenodd"/>
<path d="m -320.065 503.429 c -2.2838 2.5957 -5.3854 4.0584 -8.7918 5.0829 2.3015 -2.7132 4.9647 -4.4734 8.7918 -5.0829 z" fill="#fff" fill-rule="evenodd"/>
<path d="m -330.112 495.81 c -1.9321 1.9544 -3.1874 5.0322 -3.8946 7.9867 2.1819 -1.886 3.6974 -4.6432 3.8946 -7.9867 z" fill="#fff" fill-rule="evenodd"/>
<path d="m -317.939 508.166 c -2.547 1.852 -5.5415 2.8604 -8.7077 3.493 2.2014 -2.1497 4.8134 -3.481 8.7077 -3.493 z" fill="#fff" fill-rule="evenodd"/>
<path d="m -335.821 494.5 c 0.3503 2.5008 0.0644 4.9989 -1.1101 7.6269 -0.6041 -2.7166 -0.2849 -5.1495 1.1101 -7.6269 z" fill="#fff" fill-rule="evenodd"/>
<path d="m -323.899 498.922 c -1.5484 3.1111 -4.1737 5.3441 -7.2045 7.2342 1.2486 -3.2643 3.4856 -5.6551 7.2045 -7.2342 z" fill="#fff" fill-rule="evenodd"/>
</g>
</svg>
