<svg viewBox="0 0 512 512" xmlns="http://www.w3.org/2000/svg">

<g transform="matrix(18.68858,0,0,18.68858,-10441.31176,-32682.11125)">
<path d="m 563.906 1765.65 -4.5938 -1.2124 v 1.1875 l 2.2812 1.6499 c -0.2622 0.3707 -0.4201 0.7556 -0.5 1.1563 l -1.7812 0.1875 v 1.3438 l 2.0938 0.2187 c 0.4168 0.7759 1.153 1.4904 2.2188 2.0937 l -4 3.2534 h 1.5625 l 5.6562 -1.9721 c 1.2171 0.3257 2.5795 0.5746 4.0312 0.6875 l 0.4688 1.2846 h 3.4688 l 0.5 -1.3784 c 0.3941 -0.044 0.773 -0.098 1.1562 -0.1562 l 2.3438 1.5346 h 2.9375 l -1.4375 -2.5034 c 0.3508 -0.1338 0.6853 -0.2547 1 -0.4062 l 4.125 0.5938 v -1.5 l -1.75 -0.75 c 0.2096 -0.2287 0.455 -0.4431 0.5938 -0.6876 l 1.1562 -0.125 v -1.7187 l -0.9375 -0.094 c -0.1893 -0.8213 -0.7186 -1.5499 -1.625 -2.2188 l 2.5625 -1.8438 v -0.9374 l -5.125 1.4687 z" fill="#fff"/>
<path d="m 581.404 1766.89 c -1.2565 -8.1591 -1.4979 -17.6179 -1.4979 -17.6179 l -14.4375 0.0005 c 0 0 -0.2692 10.9047 -1.6562 19.1298 -0.1302 0.7723 0.3354 1.3899 1.6101 2.0362 l 1.1712 1.3388 h 2.9482 l 2.3955 0.875 3 -1.0312 2.75 0.062 1.5959 -1.5154" fill="#fff" stroke="#000"/>
<path d="m 579.283 1770.17 1.792 -0.1667 0.5676 -1.6675 c -0.2485 -3.872 -2.9002 -5.2978 -3.3295 -1.4331" fill="#fff" stroke="#000"/>
<path d="m 579.072 1770.37 c -0.2977 -6.5155 -4.3305 -6.0544 -4.3523 1.0747" fill="none" stroke="#000"/>
<path d="m 565.345 1770.2 c 0.4432 -6.1935 4.368 -6.2399 4.161 1.3878" fill="none" stroke="#000"/>
<path d="m 574.738 1772.08 c 0.1892 -7.7847 -5.3256 -7.8031 -5.2314 -0.045" fill="none" stroke="#000"/>
<path d="m 580.715 1752.03 c -2.3504 2.2205 -5.6677 3.0481 -9.1419 3.5144 4.8631 0.7003 7.9661 -0.9702 9.1419 -3.5144 z"/>
<path d="m 563.038 1749.91 c 2.7447 1.8771 7.7847 2.8019 13.0853 1.9368 -5.5584 1.9351 -10.877 1.2382 -13.0853 -1.9368 z"/>
<path d="m 578.457 1759.57 c -3.5056 3.0545 -7.3806 2.4017 -11.208 0.2077 4.9579 4.3142 8.9488 2.865 11.208 -0.2077 z"/>
<path d="m 559.206 1759.76 v 15.9007 h 26.4141 v -15.6741" fill="none" stroke="#000"/>
</g>
</svg>
