<svg viewBox="0 0 512 512" xmlns="http://www.w3.org/2000/svg">

<g transform="matrix(18.68858,0,0,18.68858,-10441.31176,-32682.11125)">
<path d="m563.9062,1765.6528-4.5938-1.2124v1.1875l2.2812,1.6499c-.2622.3707-.4201.7556-.5,1.1563l-1.7812.1875v1.3438l2.0938.2187c.4168.7759 1.153,1.4904 2.2188,2.0937l-4,3.2534h1.5625l5.6562-1.9721c1.2171.3257 2.5795.5746 4.0312.6875l.4688,1.2846h3.4688l.5-1.3784c.3941-.044.773-.098 1.1562-.1562l2.3438,1.5346h2.9375l-1.4375-2.5034c.3508-.1338.6853-.2547 1-.4062l4.125.5938v-1.5l-1.75-.75c.2096-.2287.455-.4431.5938-.6876l1.1562-.125v-1.7187l-.9375-.094c-.1893-.8213-.7186-1.5499-1.625-2.2188l2.5625-1.8438v-.9374l-5.125,1.4687z" fill="#fff"/>
<path d="m581.4042,1766.8904c-1.2565-8.1591-1.4979-17.6179-1.4979-17.6179l-14.4375.0005c0,0-.2692,10.9047-1.6562,19.1298-.1302.7723.3354,1.3899 1.6101,2.0362l1.1712,1.3388h2.9482l2.3955.875 3-1.0312 2.75.062 1.5959-1.5154" fill="#fff" stroke="#000"/>
<path d="m579.2834,1770.1682 1.792-.1667 .5676-1.6675c-.2485-3.872-2.9002-5.2978-3.3295-1.4331" fill="#fff" stroke="#000"/>
<path d="m579.0724,1770.3689c-.2977-6.5155-4.3305-6.0544-4.3523,1.0747" fill="none" stroke="#000"/>
<path d="m565.3451,1770.2045c.4432-6.1935 4.368-6.2399 4.161,1.3878" fill="none" stroke="#000"/>
<path d="m574.7383,1772.0831c.1892-7.7847-5.3256-7.8031-5.2314-.045" fill="none" stroke="#000"/>
<path d="m580.7151,1752.0346c-2.3504,2.2205-5.6677,3.0481-9.1419,3.5144 4.8631.7003 7.9661-.9702 9.1419-3.5144z"/>
<path d="m563.0378,1749.9101c2.7447,1.8771 7.7847,2.8019 13.0853,1.9368-5.5584,1.9351-10.877,1.2382-13.0853-1.9368z"/>
<path d="m578.4572,1759.574c-3.5056,3.0545-7.3806,2.4017-11.208.2077 4.9579,4.3142 8.9488,2.865 11.208-.2077z"/>
<path d="m559.2058,1759.7585v15.9007h26.4141v-15.6741" fill="none" stroke="#000"/>
</g>
</svg>
