<svg viewBox="0 0 512 512" xmlns="http://www.w3.org/2000/svg">

<g transform="matrix(18.68858,0,0,18.68858,-12484.43516,-28579.86889)">
<path d="m671.8244,1530.4689v5.9459l10.042,12.4486 10.042-12.4486v-5.9459h-3.4472v2.8046h-2.0983v-2.8046h-3.4847v2.8046h-2.0608v-2.8046h-3.4847v2.8046h-2.0608v-2.8046h-3.4472z" fill="#fff"/>
<path d="m675.0968,1539.2535h13.5392v15.322h-13.5392z" fill="#fff" stroke="#fff"/>
<path d="m672.9909,1550.566h17.7509l1.5357,4.9676h-20.8222l1.5357-4.9676z" fill="#fff"/>
<path d="m673.0032,1550.0835h12.0086" fill="none" stroke="#000"/>
<path d="m673.1109,1540.3327h11.1261" fill="none" stroke="#000"/>
<path d="m671.4997,1536.4539h11.1464" fill="none" stroke="#000"/>
<path d="m676.4509,1546.6896h8.8895" fill="none" stroke="#000"/>
<path d="m678.2287,1549.6525v-2.5859" fill="none" stroke="#000"/>
<path d="m680.9185,1546.5818v-2.5859" fill="none" stroke="#000"/>
<path d="m677.2051,1542.8108v-2.5859" fill="none" stroke="#000"/>
<path d="m678.2287,1538.932v-2.5859" fill="none" stroke="#000"/>
<path d="m678.3904,1543.8881 5.2015.0001" fill="none" stroke="#000"/>
<path d="m683.1046,1549.6525v-2.5859" fill="none" stroke="#000"/>
<path d="m676.1984,1555.7813 .5504-3.9616" fill="none" stroke="#000"/>
<path d="m680.9604,1554.527 .1573-4.3387" fill="none" stroke="#000"/>
</g>
</svg>
