<svg viewBox="0 0 512 512" xmlns="http://www.w3.org/2000/svg">

<g transform="matrix(18.68858,0,0,18.68858,-4642.78659,-4742.99939)">
<path d="m 249.029 254.406 v 3.0938 l 10.1875 10.1562 2.875 -2.875 -10.3438 -10.375 h -2.7188 z" fill="#fff" stroke="#000"/>
<path d="m 261.32 269.418 c 0 2.2455 -1.8203 4.0659 -4.0659 4.0659 s -4.0659 -1.8203 -4.0659 -4.0659 1.8203 -4.0659 4.0659 -4.0659 4.0659 1.8203 4.0659 4.0659 z" fill="#fff" stroke="#000" stroke-width="1.2414" transform="matrix(.45622,.45622,-.71115,.71115,330.85187,-46.77893)"/>
<path d="m 261.32 269.418 c 0 2.2455 -1.8203 4.0659 -4.0659 4.0659 s -4.0659 -1.8203 -4.0659 -4.0659 1.8203 -4.0659 4.0659 -4.0659 4.0659 1.8203 4.0659 4.0659 z" fill="#fff" stroke="#000" stroke-width="1.0081" transform="matrix(.56492,.56492,-.87086,.87086,347.88584,-115.80209)"/>
<path d="m 266.205 261.758 c -0.0553 2.5947 1.6463 4.9855 4.0342 6.7677 -0.1646 2.3288 0.6467 4.5401 2.4943 5.6909 0.8742 1.9195 1.5737 4.339 2.1799 6.2585 -2.2008 -0.6274 -4.5891 -1.4248 -6.7273 -2.4135 -0.4218 -2.0169 -4.3979 -3.7775 -6.8071 -3.4364 -0.8018 -2.4945 -3.1188 -3.6138 -5.271 -3.5655 -0.522 -6.9161 3.346 -9.7046 10.0971 -9.3016 z" fill="#fff"/>
<path d="m 272.004 265.749 c -10.7853 -10.7853 -22.576 0.9891 -11.7826 11.7825" fill="none" stroke="#000"/>
<path d="m 260.657 269.772 c 0.0833 -1.9907 -0.4926 -4.1003 -3.4914 -5.3475" fill="none" stroke="#000"/>
<path d="m 262.208 264.494 c 0.5988 3.0568 3.355 4.9727 5.7858 5.41" fill="none" stroke="#000"/>
<path d="m 265.74 269.418 c -1.2382 2.665 2.169 5.9307 5.7453 6.0546" fill="none" stroke="#000"/>
<path d="m 262.16 273.17 c 1.3096 -1.0369 2.6652 -1.4073 4.4636 0.0382" fill="none" stroke="#000"/>
</g>
</svg>
