<svg viewBox="0 0 512 512" xmlns="http://www.w3.org/2000/svg">

<g transform="matrix(18.68858,0,0,18.68858,-13161.94104,-31999.96687)">
<path d="m 716.688 1718.75 -11.7624 20.4062 v 0.063 h 4.2937 l 10.7188 -18.5938 z" fill="#fff" stroke="#000"/>
<path d="m 729.903 1718.27 -17.05 -5.322 -2.2236 4.4667 0.3335 3.6368 13.1806 8.8911 5.6525 -4.0447 z" fill="#fff" stroke="#000"/>
<path d="m 721.319 1715.11 c 1.2588 -1.2587 3.0306 0.477 1.7537 1.7539 l -7.6151 7.6151 c -1.2549 1.2548 -2.9394 -0.5681 -1.7537 -1.7538 z" fill="#fff" stroke="#000"/>
<path d="m 720.435 1715.35 c 0.4607 -1.7196 -1.9283 -2.3862 -2.3957 -0.642 l -2.7873 10.4024 c -0.4594 1.7143 1.9617 2.2616 2.3956 0.6422 z" fill="#fff" stroke="#000"/>
<path d="m 727.172 1717.33 -0.7306 5.9451 -4.1438 5.0903" fill="none" stroke="#000"/>
<path d="m 715.561 1727.85 c 1.5416 0.8901 2.8038 -1.245 1.24 -2.1479 l -3.0524 -1.7622 c -1.5369 -0.8874 -2.6921 1.3096 -1.2403 2.1477 z" fill="#fff" stroke="#000"/>
<path d="m 714.319 1730.03 c 1.5416 0.8901 2.8038 -1.245 1.24 -2.1479 l -3.0524 -1.7622 c -1.5369 -0.8874 -2.6921 1.3096 -1.2403 2.1477 z" fill="#fff" stroke="#000"/>
<path d="m 726.427 1723.17 3.9479 3.0492" fill="none" stroke="#000"/>
</g>
</svg>
