<svg viewBox="0 0 512 512" xmlns="http://www.w3.org/2000/svg">

<g transform="matrix(18.68858,0,0,18.68858,-211.96877,-12900.03272)">
<path d="m 37.2634 702.07 -0.0813 5.9913 -3.6922 1.7988 -5.8154 5.8037 -2.9819 0.4005 -4.9904 -5.929 -6.8651 -4.3038 0.2917 -6.3455" stroke="#fff"/>
<path d="m 37.7188 705.055 -3.4301 1.6744 -5.4009 5.4047 -2.7709 0.372 -4.6408 -5.5256 -8.3231 -5.2326 -0.5276 -2.3044 9.7586 -7.8677 2.8248 0.1674 2.881 3.5821 9.7025 6.59 -0.0736 3.1394 z" fill="#fff"/>
<path d="m 29.5558 695.024 -2.9273 1.2671 -0.2185 1.8787" fill="none" stroke="#000"/>
<path d="m 21.3854 706.296 -1.3981 3.7575" fill="none" stroke="#fff"/>
<path d="m 24.5968 715.908 1.7914 -3.9104" fill="none" stroke="#fff"/>
<path d="m 27.0654 715.602 1.704 -4.391" fill="none" stroke="#fff"/>
<path d="m 33.2342 710.058 0.9268 -3.7691" fill="none" stroke="#fff"/>
<path d="m 19.7252 706.471 3.7575 -0.7428 -1.4418 -1.3981" fill="none" stroke="#000"/>
<path d="m 35.2794 706.777 -2.5641 -1.1872" fill="none" stroke="#000"/>
<path d="m 26.5411 696.203 -3.1895 -0.5243 -1.3108 1.7913" fill="none" stroke="#000"/>
</g>
</svg>
