<svg viewBox="0 0 512 512" xmlns="http://www.w3.org/2000/svg">

<g transform="matrix(18.68858,0,0,18.68858,-4021.0123,-12900.03298)">
<path d="m 226.314 692.09 -10.5742 6.1864 v 14.694 l 15.5897 3.9866 10.6225 -6.1932 v -14.694 l -15.638 -3.9798 z" fill="#fff" stroke="#000"/>
<path d="m 215.723 698.45 7.2026 3.271 8.181 0.6451 10.6394 -6.163" fill="#fff" stroke="#000"/>
<path d="m 231.192 702.487 v 14.2344" fill="#fff" fill-rule="evenodd" stroke="#000"/>
<path d="m 230.841 710.804 -5.5402 -2.8664 -4.0625 1.7111 3.8144 -0.352 6.132 4.3647 3.5938 -3.933 -3.9375 1.0757 z" fill-rule="evenodd"/>
<path d="m 241.81 705.493 -1.6739 -0.8108 1.7676 -2.786" fill-rule="evenodd"/>
<path d="m 215.498 710.223 v 4.0772 h 3.0625 l -3.0625 -4.0772 z" fill-rule="evenodd"/>
<path d="m 223.071 712.89 -1.8951 1.8428 2.6522 0.1754 -0.7571 -2.0182 z" fill-rule="evenodd"/>
<path d="m 227.751 692.704 -0.3511 1.3734 3.4472 -0.309" fill-rule="evenodd"/>
<path d="m 231.841 698.433 4.8125 0.3025 -0.0937 2.9246 -4.7188 -3.2271 z" fill-rule="evenodd"/>
<path d="m 231.154 698.568 5.75 3.8322" fill="none" stroke="#fff"/>
<path d="m 224.794 709.746 6.364 3.4212 3.9554 -3.1821" fill="none" stroke="#fff"/>
</g>
</svg>
