<svg viewBox="0 0 512 512" xmlns="http://www.w3.org/2000/svg">

<g transform="matrix(18.68858,0,0,18.68858,-4021.0123,-12900.03298)">
<path d="m226.314,692.0902-10.5742,6.1864v14.694l15.5897,3.9866 10.6225-6.1932v-14.694l-15.638-3.9798z" fill="#fff" stroke="#000"/>
<path d="m215.7229,698.4496 7.2026,3.271 8.181.6451 10.6394-6.163" fill="#fff" stroke="#000"/>
<path d="m231.1923,702.4868v14.2344" fill="#fff" fill-rule="evenodd" stroke="#000"/>
<path d="m230.8415,710.8039-5.5402-2.8664-4.0625,1.7111 3.8144-.352 6.132,4.3647 3.5938-3.933-3.9375,1.0757z" fill-rule="evenodd"/>
<path d="m241.8102,705.4927-1.6739-.8108 1.7676-2.786" fill-rule="evenodd"/>
<path d="m215.4977,710.2228v4.0772h3.0625l-3.0625-4.0772z" fill-rule="evenodd"/>
<path d="m223.0712,712.8896-1.8951,1.8428 2.6522.1754-.7571-2.0182z" fill-rule="evenodd"/>
<path d="m227.7511,692.7041-.3511,1.3734 3.4472-.309" fill-rule="evenodd"/>
<path d="m231.8415,698.4334 4.8125.3025-.0937,2.9246-4.7188-3.2271z" fill-rule="evenodd"/>
<path d="m231.154,698.5679 5.75,3.8322" fill="none" stroke="#fff"/>
<path d="m224.7937,709.7456 6.364,3.4212 3.9554-3.1821" fill="none" stroke="#fff"/>
</g>
</svg>
