<svg viewBox="0 0 512 512" xmlns="http://www.w3.org/2000/svg">

<g transform="matrix(18.68858,0,0,18.68858,-4020.07513,-11642.52568)">
<g stroke="#000" stroke-width=".8026">
<path d="m 517.451 132.555 c 0 5.823 -4.7205 10.5435 -10.5435 10.5435 s -10.5435 -4.7205 -10.5435 -10.5435 4.7205 -10.5435 10.5435 -10.5435 10.5435 4.7205 10.5435 10.5435 z" fill="#fff" stroke="#000" stroke-width=".8026" transform="matrix(1.24593,0,0,1.24587,-402.76999,471.50807)"/>
</g>
<path d="m 228.146 636.291 c 1.3701 -0.3405 2.6429 -1.059 3.7857 -2.0142 l 4.1195 2.0524 c 0.6379 -1.4901 1.1586 -2.9997 1.0968 -4.6063 l 4.3173 1.4061" fill="none" stroke="#000"/>
<path d="m 236.051 624.777 c -0.181 2.3745 0.189 4.749 1.1487 7.1235" fill="none" stroke="#000"/>
<path d="m 220.622 632.162 c -1.3517 1.9396 -2.9316 3.651 -4.8719 5.002" fill="none" stroke="#000"/>
<path d="m 234.954 624.192 c -3.1649 0.146 -5.7643 1.0273 -7.7507 2.7053 1.8846 2.218 3.42 4.6357 4.4801 7.3249" fill="none" stroke="#000"/>
<path d="m 235.967 636.143 c 1.838 2.5622 2.9409 5.6025 3.309 8.7892" fill="none" stroke="#000"/>
<path d="m 217.377 643.979 c 1.0925 0.1549 2.0287 -0.3115 2.8399 -1.0213 1.2521 0.2287 2.9741 0.0671 4.3673 -0.5463 1.6494 1.0015 3.0951 2.1728 4.0403 3.7611 -0.7804 1.2753 -0.8617 2.5506 -0.8273 3.8259" fill="none" stroke="#000"/>
<path d="m 228.315 646.276 c 3.0638 -1.6854 7.0098 -3.2885 10.309 -4.1502" fill="none" stroke="#000"/>
<path d="m 224.623 642.337 c 0.8482 -2.247 1.9601 -4.3183 3.5143 -6.0946 l -7.6613 -4.0446 c -0.4618 -1.9976 -0.4581 -3.8627 -0.0981 -5.8604 2.3388 0.9266 4.7347 1.0865 6.9662 0.5735" fill="none" stroke="#000"/>
<path d="m 218.535 634.301 c 1.1192 2.7333 1.5069 5.5581 1.6904 8.4084" fill="none" stroke="#000"/>
</g>
</svg>
