<svg viewBox="0 0 512 512" xmlns="http://www.w3.org/2000/svg">

<g transform="matrix(18.68858,0,0,18.68858,-3389.52652,-14162.04812)">
<path d="m186.4749,761.0524-2.2997,2.2961c7.1651,6.8626 14.4042,13.5523 21.2329,21.1998l2.2997-2.2961-21.2329-21.1998z" fill="#fff" stroke="#000"/>
<path d="m205.4082,761.0525 2.2997,2.2961c-7.3368,6.9047-14.8021,13.7289-21.2329,21.1998l-2.2997-2.2961 21.2329-21.1998z" fill="#fff" stroke="#000"/>
<path d="m199.9373,759.7603 8.1814,8.19-3.822,3.826-6.534-6.5408 2.1745-5.4752z" fill="#fff" stroke="#000"/>
<path d="m191.4339,760.3948 6.319,1.4128c-5.5743,1.9777-12.2994,8.96-15.7305,16.6479-.6395-8.1387 3.4476-14.0582 9.4115-18.0606z" fill="#fff" stroke="#000"/>
</g>
</svg>
