<svg viewBox="0 0 512 512" xmlns="http://www.w3.org/2000/svg">

<g transform="matrix(18.68858,0,0,18.68858,-4642.78659,-4742.99939)">
<path d="m249.0293,254.4062v3.0938l10.1875,10.1562 2.875-2.875-10.3438-10.375h-2.7188z" fill="#fff" stroke="#000"/>
<path d="m261.3202,269.4182c0,2.2455-1.8203,4.0659-4.0659,4.0659s-4.0659-1.8203-4.0659-4.0659 1.8203-4.0659 4.0659-4.0659 4.0659,1.8203 4.0659,4.0659z" fill="#fff" stroke="#000" stroke-width="1.2414" transform="matrix(.45622,.45622,-.71115,.71115,330.85187,-46.77893)"/>
<path d="m261.3202,269.4182c0,2.2455-1.8203,4.0659-4.0659,4.0659s-4.0659-1.8203-4.0659-4.0659 1.8203-4.0659 4.0659-4.0659 4.0659,1.8203 4.0659,4.0659z" fill="#fff" stroke="#000" stroke-width="1.0081" transform="matrix(.56492,.56492,-.87086,.87086,347.88584,-115.80209)"/>
<path d="m266.2049,261.7581c-.0553,2.5947 1.6463,4.9855 4.0342,6.7677-.1646,2.3288.6467,4.5401 2.4943,5.6909 .8742,1.9195 1.5737,4.339 2.1799,6.2585-2.2008-.6274-4.5891-1.4248-6.7273-2.4135-.4218-2.0169-4.3979-3.7775-6.8071-3.4364-.8018-2.4945-3.1188-3.6138-5.271-3.5655-.522-6.9161 3.346-9.7046 10.0971-9.3016z" fill="#fff"/>
<path d="m272.004,265.7486c-10.7853-10.7853-22.576.9891-11.7826,11.7825" fill="none" stroke="#000"/>
<path d="m260.6574,269.7717c.0833-1.9907-.4926-4.1003-3.4914-5.3475" fill="none" stroke="#000"/>
<path d="m262.2076,264.4943c.5988,3.0568 3.355,4.9727 5.7858,5.41" fill="none" stroke="#000"/>
<path d="m265.7396,269.4182c-1.2382,2.665 2.169,5.9307 5.7453,6.0546" fill="none" stroke="#000"/>
<path d="m262.1599,273.1701c1.3096-1.0369 2.6652-1.4073 4.4636.0382" fill="none" stroke="#000"/>
</g>
</svg>
