<svg viewBox="0 0 512 512" xmlns="http://www.w3.org/2000/svg">

<g transform="matrix(18.68858,0,0,18.68858,-211.96877,-12900.03272)">
<path d="m37.2634,702.0701-.0813,5.9913-3.6922,1.7988-5.8154,5.8037-2.9819.4005-4.9904-5.929-6.8651-4.3038 .2917-6.3455" stroke="#fff"/>
<path d="m37.7188,705.0547-3.4301,1.6744-5.4009,5.4047-2.7709.372-4.6408-5.5256-8.3231-5.2326-.5276-2.3044 9.7586-7.8677 2.8248.1674 2.881,3.5821 9.7025,6.59-.0736,3.1394z" fill="#fff"/>
<path d="m29.5558,695.0238-2.9273,1.2671-.2185,1.8787" fill="none" stroke="#000"/>
<path d="m21.3854,706.2961-1.3981,3.7575" fill="none" stroke="#fff"/>
<path d="m24.5968,715.9082 1.7914-3.9104" fill="none" stroke="#fff"/>
<path d="m27.0654,715.6024 1.704-4.391" fill="none" stroke="#fff"/>
<path d="m33.2342,710.0584 .9268-3.7691" fill="none" stroke="#fff"/>
<path d="m19.7252,706.4709 3.7575-.7428-1.4418-1.3981" fill="none" stroke="#000"/>
<path d="m35.2794,706.7767-2.5641-1.1872" fill="none" stroke="#000"/>
<path d="m26.5411,696.2034-3.1895-.5243-1.3108,1.7913" fill="none" stroke="#000"/>
</g>
</svg>
