<svg viewBox="0 0 512 512" xmlns="http://www.w3.org/2000/svg">

<g transform="matrix(18.68858,0,0,18.68858,-12484.43516,-28579.86889)">
<path d="m 671.824 1530.47 v 5.9459 l 10.042 12.4486 10.042 -12.4486 v -5.9459 h -3.4472 v 2.8046 h -2.0983 v -2.8046 h -3.4847 v 2.8046 h -2.0608 v -2.8046 h -3.4847 v 2.8046 h -2.0608 v -2.8046 h -3.4472 z" fill="#fff"/>
<path d="m 675.097 1539.25 h 13.5392 v 15.322 h -13.5392 z" fill="#fff" stroke="#fff"/>
<path d="m 672.991 1550.57 h 17.7509 l 1.5357 4.9676 h -20.8222 l 1.5357 -4.9676 z" fill="#fff"/>
<path d="m 673.003 1550.08 h 12.0086" fill="none" stroke="#000"/>
<path d="m 673.111 1540.33 h 11.1261" fill="none" stroke="#000"/>
<path d="m 671.5 1536.45 h 11.1464" fill="none" stroke="#000"/>
<path d="m 676.451 1546.69 h 8.8895" fill="none" stroke="#000"/>
<path d="m 678.229 1549.65 v -2.5859" fill="none" stroke="#000"/>
<path d="m 680.918 1546.58 v -2.5859" fill="none" stroke="#000"/>
<path d="m 677.205 1542.81 v -2.5859" fill="none" stroke="#000"/>
<path d="m 678.229 1538.93 v -2.5859" fill="none" stroke="#000"/>
<path d="m 678.39 1543.89 5.2015 0.0001" fill="none" stroke="#000"/>
<path d="m 683.105 1549.65 v -2.5859" fill="none" stroke="#000"/>
<path d="m 676.198 1555.78 0.5504 -3.9616" fill="none" stroke="#000"/>
<path d="m 680.96 1554.53 0.1573 -4.3387" fill="none" stroke="#000"/>
</g>
</svg>
