<svg viewBox="0 0 512 512" xmlns="http://www.w3.org/2000/svg">

<g transform="matrix(18.68858,0,0,18.68858,-13161.94104,-31999.96687)">
<path d="m716.6875,1718.75-11.7624,20.4062v.063h4.2937l10.7188-18.5938z" fill="#fff" stroke="#000"/>
<path d="m729.9031,1718.2705-17.05-5.322-2.2236,4.4667 .3335,3.6368 13.1806,8.8911 5.6525-4.0447z" fill="#fff" stroke="#000"/>
<path d="m721.3186,1715.1145c1.2588-1.2587 3.0306.477 1.7537,1.7539l-7.6151,7.6151c-1.2549,1.2548-2.9394-.5681-1.7537-1.7538z" fill="#fff" stroke="#000"/>
<path d="m720.435,1715.3485c.4607-1.7196-1.9283-2.3862-2.3957-.642l-2.7873,10.4024c-.4594,1.7143 1.9617,2.2616 2.3956.6422z" fill="#fff" stroke="#000"/>
<path d="m727.1724,1717.3278-.7306,5.9451-4.1438,5.0903" fill="none" stroke="#000"/>
<path d="m715.5607,1727.8466c1.5416.8901 2.8038-1.245 1.24-2.1479l-3.0524-1.7622c-1.5369-.8874-2.6921,1.3096-1.2403,2.1477z" fill="#fff" stroke="#000"/>
<path d="m714.3191,1730.0288c1.5416.8901 2.8038-1.245 1.24-2.1479l-3.0524-1.7622c-1.5369-.8874-2.6921,1.3096-1.2403,2.1477z" fill="#fff" stroke="#000"/>
<path d="m726.4265,1723.1748 3.9479,3.0492" fill="none" stroke="#000"/>
</g>
</svg>
