<svg viewBox="0 0 512 512" xmlns="http://www.w3.org/2000/svg">

<g transform="matrix(18.68858,0,0,18.68858,5786.38856,-13006.32697)">
<path d="m-295.9224,700.3386c-6.0461,0-10.9568,4.9079-10.9568,10.9506s4.9107,10.9506 10.9568,10.9506 10.9568-4.908 10.9568-10.9506-4.9107-10.9506-10.9568-10.9506zm0,1.9057c4.9987,2e-05 9.05,4.049 9.05,9.0449s-4.0513,9.0734-9.05,9.0734-9.0501-4.0775-9.0501-9.0734 4.0513-9.0449 9.0501-9.0449z" fill="#fff"/>
<g transform="matrix(.9107,0,0,.91018,-392.24237,65.225)">
<path d="m97.0842,709.8193h17.362" fill="none" stroke="#fff" stroke-width="1.0984"/>
<path d="m105.7652,701.1383 1e-05,17.362" fill="none" stroke="#fff" stroke-width="1.0984"/>
<path d="m99.6268,703.6809 12.2768,12.2768" fill="none" stroke="#fff" stroke-width="1.0984"/>
<path d="m111.9036,703.6809-12.2768,12.2768" fill="none" stroke="#fff" stroke-width="1.0984"/>
<path d="m282.5902,676.0488c0,2.6674-2.1624,4.8298-4.8298,4.8298s-4.8298-2.1624-4.8298-4.8298 2.1624-4.8298 4.8298-4.8298 4.8298,2.1624 4.8298,4.8298z" transform="matrix(1.25113,0,0,1.25113,-241.74906,-136.00533)"/>
</g>
<path d="m106.288,710.939-3.489-2.0144 3.489-2.0143z" fill="#fff" transform="matrix(1.2776,.90885,-2.54276,-.39194,1374.2715,894.18569)"/>
<path d="m-300.5111,696.5578h8.6643v3.2147h-8.6643z" fill="#fff" stroke="#000"/>
<path d="m106.288,710.939-3.489-2.0144 3.489-2.0143z" fill="#fff" transform="matrix(1.14592,-1.07012,-.89237,2.41308,217.18375,-888.76131)"/>
<path d="m109.6563,709.5028c0,1.7518-1.4201,3.1719-3.1719,3.1719s-3.1719-1.4201-3.1719-3.1719 1.4201-3.1719 3.1719-3.1719 3.1719,1.4201 3.1719,3.1719z" fill="#fff" stroke="#000" transform="matrix(.12801,.61166,-.612,.12794,124.64286,555.45879)"/>
</g>
</svg>
