<svg viewBox="0 0 512 512" xmlns="http://www.w3.org/2000/svg">

<g transform="matrix(18.68858,0,0,18.68858,5786.38856,-13006.32697)">
<path d="m -295.922 700.339 c -6.0461 0 -10.9568 4.9079 -10.9568 10.9506 s 4.9107 10.9506 10.9568 10.9506 10.9568 -4.908 10.9568 -10.9506 -4.9107 -10.9506 -10.9568 -10.9506 z m 0 1.9057 c 4.9987 2e-05 9.05 4.049 9.05 9.0449 s -4.0513 9.0734 -9.05 9.0734 -9.0501 -4.0775 -9.0501 -9.0734 4.0513 -9.0449 9.0501 -9.0449 z" fill="#fff"/>
<g transform="matrix(.9107,0,0,.91018,-392.24237,65.225)">
<path d="m 97.0842 709.819 h 17.362" fill="none" stroke="#fff" stroke-width="1.0984"/>
<path d="m 105.765 701.138 1e-05 17.362" fill="none" stroke="#fff" stroke-width="1.0984"/>
<path d="m 99.6268 703.681 12.2768 12.2768" fill="none" stroke="#fff" stroke-width="1.0984"/>
<path d="m 111.904 703.681 -12.2768 12.2768" fill="none" stroke="#fff" stroke-width="1.0984"/>
<path d="m 282.59 676.049 c 0 2.6674 -2.1624 4.8298 -4.8298 4.8298 s -4.8298 -2.1624 -4.8298 -4.8298 2.1624 -4.8298 4.8298 -4.8298 4.8298 2.1624 4.8298 4.8298 z" transform="matrix(1.25113,0,0,1.25113,-241.74906,-136.00533)"/>
</g>
<path d="m 106.288 710.939 -3.489 -2.0144 3.489 -2.0143 z" fill="#fff" transform="matrix(1.2776,.90885,-2.54276,-.39194,1374.2715,894.18569)"/>
<path d="m -300.511 696.558 h 8.6643 v 3.2147 h -8.6643 z" fill="#fff" stroke="#000"/>
<path d="m 106.288 710.939 -3.489 -2.0144 3.489 -2.0143 z" fill="#fff" transform="matrix(1.14592,-1.07012,-.89237,2.41308,217.18375,-888.76131)"/>
<path d="m 109.656 709.503 c 0 1.7518 -1.4201 3.1719 -3.1719 3.1719 s -3.1719 -1.4201 -3.1719 -3.1719 1.4201 -3.1719 3.1719 -3.1719 3.1719 1.4201 3.1719 3.1719 z" fill="#fff" stroke="#000" transform="matrix(.12801,.61166,-.612,.12794,124.64286,555.45879)"/>
</g>
</svg>
