<svg viewBox="0 0 512 512" xmlns="http://www.w3.org/2000/svg">

<g transform="matrix(18.68858,0,0,18.68858,-4314.59589,-27221.58888)">
<path d="m247.8248,1466.3052 10.0644,10.0645" fill="none" stroke="#fff"/>
<path d="m240.5538,1473.5235 10.0644,10.0645" fill="none" stroke="#fff"/>
<path d="m235.3094,1483.49h22.4282v-13.6358" fill="none" stroke="#000"/>
<g transform="matrix(.64902,-.64902,-.64902,-.64902,918.46644,2698.4751)">
<path d="m428.8453,1463.1151c0,6.0462 4.2489,11.9096 7.4248,11.9096-1.4598,2.9776-5.0452,5.1445-9.281,5.1445s-7.8927-2.1624-9.3498-5.1445c3.4155,0 7.4248-5.7737 7.4248-11.9096z" fill="#fff"/>
<path d="m425.6158,1468.7759c0-5.4618 2.8269-5.4547 2.8269,0z"/>
<path d="m421.3607,1476.3329v-8.2138" fill="none" stroke="#fff" stroke-width="1.0895"/>
<path d="m432.6232,1476.3329v-8.2138" fill="none" stroke="#fff" stroke-width="1.0895"/>
<path d="m422.4544,1479.9093c.2405-.4533 2.116-4.2435 2.116-4.2435" fill="none" stroke="#000" stroke-width="1.0895"/>
<path d="m431.3428,1479.806c-.2361-.4423-2.0781-4.1402-2.0781-4.1402" fill="none" stroke="#000" stroke-width="1.0895"/>
</g>
<path d="m242.049,1474.3014c0,.6474-.5249,1.1723-1.1723,1.1723s-1.1723-.5249-1.1723-1.1723 .5249-1.1723 1.1723-1.1723 1.1723.5248 1.1723,1.1723z" fill="#fff" transform="matrix(1.57303,2.9303725e-8,-2.9303725e-8,1.57303,-137.91481,-845.05843)"/>
<path d="m243.5058,1476.1313c0,.9156-.4587,1.6578-1.0245,1.6578s-1.0245-.7422-1.0245-1.6578 .4587-1.6577 1.0245-1.6577 1.0245.7422 1.0245,1.6577z" transform="matrix(.70711,-.70711,.70711,.70711,-974.9922,601.00314)"/>
<path d="m242.049,1474.3014c0,.6474-.5249,1.1723-1.1723,1.1723s-1.1723-.5249-1.1723-1.1723 .5249-1.1723 1.1723-1.1723 1.1723.5248 1.1723,1.1723z" fill="#fff" transform="matrix(1.57303,2.9303725e-8,-2.9303725e-8,1.57303,-130.53849,-852.38206)"/>
<path d="m243.5058,1476.1313c0,.9156-.4587,1.6578-1.0245,1.6578s-1.0245-.7422-1.0245-1.6578 .4587-1.6577 1.0245-1.6577 1.0245.7422 1.0245,1.6577z" transform="matrix(.70711,-.70711,.70711,.70711,-967.61588,593.67951)"/>
<path d="m246.6353,1482.6327 10.3758-10.3758" fill="none" stroke="#000"/>
<path d="m244.549,1480.1737 10.3758-10.3758" fill="none" stroke="#000"/>
<path d="m242.3881,1477.6403 10.3758-10.3758" fill="none" stroke="#000"/>
</g>
</svg>
