<svg viewBox="0 0 512 512" xmlns="http://www.w3.org/2000/svg">

<g transform="matrix(18.68858,0,0,18.68858,-4314.59589,-27221.58888)">
<path d="m 247.825 1466.31 10.0644 10.0645" fill="none" stroke="#fff"/>
<path d="m 240.554 1473.52 10.0644 10.0645" fill="none" stroke="#fff"/>
<path d="m 235.309 1483.49 h 22.4282 v -13.6358" fill="none" stroke="#000"/>
<g transform="matrix(.64902,-.64902,-.64902,-.64902,918.46644,2698.4751)">
<path d="m 428.845 1463.12 c 0 6.0462 4.2489 11.9096 7.4248 11.9096 -1.4598 2.9776 -5.0452 5.1445 -9.281 5.1445 s -7.8927 -2.1624 -9.3498 -5.1445 c 3.4155 0 7.4248 -5.7737 7.4248 -11.9096 z" fill="#fff"/>
<path d="m 425.616 1468.78 c 0 -5.4618 2.8269 -5.4547 2.8269 0 z"/>
<path d="m 421.361 1476.33 v -8.2138" fill="none" stroke="#fff" stroke-width="1.0895"/>
<path d="m 432.623 1476.33 v -8.2138" fill="none" stroke="#fff" stroke-width="1.0895"/>
<path d="m 422.454 1479.91 c 0.2405 -0.4533 2.116 -4.2435 2.116 -4.2435" fill="none" stroke="#000" stroke-width="1.0895"/>
<path d="m 431.343 1479.81 c -0.2361 -0.4423 -2.0781 -4.1402 -2.0781 -4.1402" fill="none" stroke="#000" stroke-width="1.0895"/>
</g>
<path d="m 242.049 1474.3 c 0 0.6474 -0.5249 1.1723 -1.1723 1.1723 s -1.1723 -0.5249 -1.1723 -1.1723 0.5249 -1.1723 1.1723 -1.1723 1.1723 0.5248 1.1723 1.1723 z" fill="#fff" transform="matrix(1.57303,2.9303725e-8,-2.9303725e-8,1.57303,-137.91481,-845.05843)"/>
<path d="m 243.506 1476.13 c 0 0.9156 -0.4587 1.6578 -1.0245 1.6578 s -1.0245 -0.7422 -1.0245 -1.6578 0.4587 -1.6577 1.0245 -1.6577 1.0245 0.7422 1.0245 1.6577 z" transform="matrix(.70711,-.70711,.70711,.70711,-974.9922,601.00314)"/>
<path d="m 242.049 1474.3 c 0 0.6474 -0.5249 1.1723 -1.1723 1.1723 s -1.1723 -0.5249 -1.1723 -1.1723 0.5249 -1.1723 1.1723 -1.1723 1.1723 0.5248 1.1723 1.1723 z" fill="#fff" transform="matrix(1.57303,2.9303725e-8,-2.9303725e-8,1.57303,-130.53849,-852.38206)"/>
<path d="m 243.506 1476.13 c 0 0.9156 -0.4587 1.6578 -1.0245 1.6578 s -1.0245 -0.7422 -1.0245 -1.6578 0.4587 -1.6577 1.0245 -1.6577 1.0245 0.7422 1.0245 1.6577 z" transform="matrix(.70711,-.70711,.70711,.70711,-967.61588,593.67951)"/>
<path d="m 246.635 1482.63 10.3758 -10.3758" fill="none" stroke="#000"/>
<path d="m 244.549 1480.17 10.3758 -10.3758" fill="none" stroke="#000"/>
<path d="m 242.388 1477.64 10.3758 -10.3758" fill="none" stroke="#000"/>
</g>
</svg>
