<svg viewBox="0 0 512 512" xmlns="http://www.w3.org/2000/svg">

<g transform="matrix(18.68858,0,0,18.68858,-3633.45254,-1380.66233)">
<path d="m198.8236,78.0732 13.3759,18.3103c4.9981,7.37 11.2157,2.3007 4.7449-4.002l-18.1208-14.3083z" fill="#fff" fill-rule="evenodd"/>
<path d="m200.3125,76.7956 14.9983,7.8487c4.3784,2.0568 5.6423-4.0379 1.1607-4.8678l-16.159-2.9808z" fill="#fff" fill-rule="evenodd"/>
<path d="m195.9449,76.6712 4.1265,16.4431c1.3171,5.3051 6.5717,4.3294 4.2537-.7638l-8.3802-15.6793z" fill="#fff" fill-rule="evenodd"/>
<path d="m616.5087,158.1815c0,1.6353-1.3257,2.961-2.961,2.961s-2.961-1.3257-2.961-2.961 1.3257-2.961 2.961-2.961 2.961,1.3257 2.961,2.961z" fill="#fff" stroke="#000" stroke-width=".9606" transform="matrix(1.03144,-.14124,.14124,1.03144,-438.63101,5.6944)"/>
<path d="m622.6075,174.0472c0,2.2943-1.8599,4.1543-4.1543,4.1543s-4.1543-1.8599-4.1543-4.1543 1.8599-4.1543 4.1543-4.1543 4.1543,1.8599 4.1543,4.1543z" fill="#fff" stroke="#000" stroke-width=".9606" transform="matrix(1.03959,.0554,-.0554,1.03959,-417.29004,-119.28439)"/>
<path d="m214.4113,91.7932-6.1476-4.5165 4.6499,5.7797" fill-rule="evenodd"/>
<path d="m199.2017,81.8858 9.626,7.6545-10.0263-11.5644" fill-rule="evenodd"/>
<path d="m207.1875,78.7812 6.0312,3.7812 .9062-2.5938-6.9375-1.1875z" fill-rule="evenodd"/>
<path d="m616.5087,158.1815c0,1.6353-1.3257,2.961-2.961,2.961s-2.961-1.3257-2.961-2.961 1.3257-2.961 2.961-2.961 2.961,1.3257 2.961,2.961z" fill="#fff" stroke="#000" stroke-width=".9606" transform="matrix(1.03624,.10011,-.10011,1.03624,-416.97374,-130.18812)"/>
<path d="m197.2688,86.8592 3.9672,4.1358-4.0649-9.0854" fill-rule="evenodd"/>
</g>
</svg>
