<svg viewBox="0 0 512 512" xmlns="http://www.w3.org/2000/svg">

<g transform="matrix(18.68858,0,0,18.68858,-5276.48083,-1591.7329)">
<path d="m291.655,97.0975c3.1932-4.2678 5.6315-4.2552 9.0236,0l-1.5715,8.9073 1.1925,5.6711h-7.978l1.2187-5.6722-1.8852-8.9062z" fill="#fff"/>
<g transform="matrix(1,0,0,1.07085,-27.21039,-12.26164)">
<path d="m331.371,94.1529c1.0865.0287 1.283.6952 1.6996,1.4517 1.2466,2.2637 2.9743,8.2317 2.9743,8.2317l-11.2307-.3541-.0837-4.6911 7.632,2.4434-.4249-3.7178c-.1785.0621-.367.1062-.5665.1062-.9577,0-1.735-.7773-1.735-1.735s.7773-1.735 1.735-1.735z" fill="#fff"/>
<path d="m315.2792,94.1529c-1.0865.0287-1.283.6952-1.6996,1.4517-1.2466,2.2637-2.9743,8.2317-2.9743,8.2317l11.2307-.3541 .0837-4.6911-7.632,2.4434 .4249-3.7178c.1785.0621.367.1062.5665.1062 .9577,0 1.735-.7773 1.735-1.735s-.7773-1.735-1.735-1.735z" fill="#fff"/>
</g>
<path d="m324.3125,101.0184c0,1.5188-.8465,2.75-1.8906,2.75s-1.8906-1.2312-1.8906-2.75 .8465-2.75 1.8906-2.75 1.8906,1.2312 1.8906,2.75z" fill="#fff" stroke="#000" stroke-width=".5792" transform="matrix(1.74414,0,0,1.70892,-266.24024,-82.17408)"/>
</g>
</svg>
