<svg viewBox="0 0 512 512" xmlns="http://www.w3.org/2000/svg">

<g transform="matrix(18.68858,0,0,18.68858,-5276.48083,-1591.7329)">
<path d="m 291.655 97.0975 c 3.1932 -4.2678 5.6315 -4.2552 9.0236 0 l -1.5715 8.9073 1.1925 5.6711 h -7.978 l 1.2187 -5.6722 -1.8852 -8.9062 z" fill="#fff"/>
<g transform="matrix(1,0,0,1.07085,-27.21039,-12.26164)">
<path d="m 331.371 94.1529 c 1.0865 0.0287 1.283 0.6952 1.6996 1.4517 1.2466 2.2637 2.9743 8.2317 2.9743 8.2317 l -11.2307 -0.3541 -0.0837 -4.6911 7.632 2.4434 -0.4249 -3.7178 c -0.1785 0.0621 -0.367 0.1062 -0.5665 0.1062 -0.9577 0 -1.735 -0.7773 -1.735 -1.735 s 0.7773 -1.735 1.735 -1.735 z" fill="#fff"/>
<path d="m 315.279 94.1529 c -1.0865 0.0287 -1.283 0.6952 -1.6996 1.4517 -1.2466 2.2637 -2.9743 8.2317 -2.9743 8.2317 l 11.2307 -0.3541 0.0837 -4.6911 -7.632 2.4434 0.4249 -3.7178 c 0.1785 0.0621 0.367 0.1062 0.5665 0.1062 0.9577 0 1.735 -0.7773 1.735 -1.735 s -0.7773 -1.735 -1.735 -1.735 z" fill="#fff"/>
</g>
<path d="m 324.312 101.018 c 0 1.5188 -0.8465 2.75 -1.8906 2.75 s -1.8906 -1.2312 -1.8906 -2.75 0.8465 -2.75 1.8906 -2.75 1.8906 1.2312 1.8906 2.75 z" fill="#fff" stroke="#000" stroke-width=".5792" transform="matrix(1.74414,0,0,1.70892,-266.24024,-82.17408)"/>
</g>
</svg>
