<svg viewBox="0 0 512 512" xmlns="http://www.w3.org/2000/svg">

<g transform="matrix(18.68858,0,0,18.68858,5785.35026,-4117.30572)">
<path d="m-294.318,221.0484c-.3089.0127-.6418.0572-.9688.0937-9.0578,1.0131-12.3965,8.1587-4.75,13.8438 4.6838,3.4823 4.5058,6.9453-4.6875,11.25h6.7188c1.4978-1.4199 5.2291-.9006 6.3125-.0937 4.4204-3.1465 3.5914-10.6008-2.0938-13.125-7.22-3.2056-6.3459-8.4738-1.2812-9.4375 2.872-.5465 5.2373.9154 5.6875,2.7188 .6637,2.6584-1.9545,5.8004-6.125,2.0625 4.0381,7.0215 9.0042,2.0831 8.625-2.375-.2286-2.6871-2.8039-5.1282-7.4375-4.9375z" fill="#fff" fill-rule="evenodd"/>
<path d="m452.125,241.081c0,.466-1.0493.8438-2.3438.8438s-2.3438-.3778-2.3438-.8438 1.0493-.8438 2.3438-.8438 2.3438.3778 2.3438.8438z" transform="matrix(1.15951,-.13978,.21225,1.76073,-865.45071,-118.51276)"/>
<path d="m452.125,241.081c0,.466-1.0493.8438-2.3438.8438s-2.3438-.3778-2.3438-.8438 1.0493-.8438 2.3438-.8438 2.3438.3778 2.3438.8438z" transform="matrix(.99064,-.13653,.20732,1.5043,-787.49413,-61.80739)"/>
<path d="m452.125,241.081c0,.466-1.0493.8438-2.3438.8438s-2.3438-.3778-2.3438-.8438 1.0493-.8438 2.3438-.8438 2.3438.3778 2.3438.8438z" transform="matrix(.77274,-.20706,.31442,1.17342,-716.23179,46.74445)"/>
<path d="m452.125,241.081c0,.466-1.0493.8438-2.3438.8438s-2.3438-.3778-2.3438-.8438 1.0493-.8438 2.3438-.8438 2.3438.3778 2.3438.8438z" transform="matrix(.56542,-.1515,.23006,.8586,-604.6935,95.43689)"/>
<path d="m452.125,241.081c0,.466-1.0493.8438-2.3438.8438s-2.3438-.3778-2.3438-.8438 1.0493-.8438 2.3438-.8438 2.3438.3778 2.3438.8438z" transform="matrix(.36096,-.09672,.14687,.54812,-494.62794,144.12507)"/>
<path d="m452.125,241.081c0,.466-1.0493.8438-2.3438.8438s-2.3438-.3778-2.3438-.8438 1.0493-.8438 2.3438-.8438 2.3438.3778 2.3438.8438z" transform="matrix(.24903,-.06673,.10133,.37816,-434.54214,170.30252)"/>
</g>
</svg>
