<svg xmlns="http://www.w3.org/2000/svg" viewBox="0 0 512 512">
<g transform="matrix(14.99999 0 0 14.99999 -523.99932 -7189.426)">
<use width="744.094" height="1052.362" transform="translate(72 476.36216)"/>
<g fill="#fff">
<path d="m52,486.3622c-4,12-10,14-10,17 0,6 4.8558,9 10,9 5.1442,0 10-3 10-9 0-3-6-5-10-17zm0,8c1,3 6,8 6,9 0,3-3.0022,6-6,6-3.0022,0-6-3-6-6 0-1 5-6 6-9z"/>
<path d="m49,485.362h6a1,1 0 0,1 1,1v6a1,1 0 0,1 -1,1h-6a1,1 0 0,1 -1-1v-6a1,1 0 0,1 1-1"/>
<path d="m51,480.362h2a1,1 0 0,1 1,1v8a1,1 0 0,1 -1,1h-2a1,1 0 0,1 -1-1v-8a1,1 0 0,1 1-1"/>
</g>
</g>
</svg>
