<svg xmlns="http://www.w3.org/2000/svg" viewBox="0 0 512 512">
<g transform="matrix(14.99999 0 0 14.99999 -523.99932 -7189.426)">
<use width="744.094" height="1052.362" transform="translate(72 476.36216)"/>
<g fill="#fff">
<path d="m 52 486.362 c -4 12 -10 14 -10 17 0 6 4.8558 9 10 9 5.1442 0 10 -3 10 -9 0 -3 -6 -5 -10 -17 z m 0 8 c 1 3 6 8 6 9 0 3 -3.0022 6 -6 6 -3.0022 0 -6 -3 -6 -6 0 -1 5 -6 6 -9 z"/>
<path d="m 49 485.362 h 6 a 1 1 0 0 1 1 1 v 6 a 1 1 0 0 1 -1 1 h -6 a 1 1 0 0 1 -1 -1 v -6 a 1 1 0 0 1 1 -1"/>
<path d="m 51 480.362 h 2 a 1 1 0 0 1 1 1 v 8 a 1 1 0 0 1 -1 1 h -2 a 1 1 0 0 1 -1 -1 v -8 a 1 1 0 0 1 1 -1"/>
</g>
</g>
</svg>
