<svg viewBox="0 0 512 512" xmlns="http://www.w3.org/2000/svg">

<g transform="matrix(18.68858,0,0,18.68858,-9765.65638,-39461.52843)">
<path d="m541.2198,2115.4284c.0943,3.0012-4.6078,5.1097-5.0493,6.7576-.4824-1.8003-4.9641-3.6258-5.0642-6.7575-.096-3.0076 3.6116-3.6601 5.0642-1.1443 1.4881-2.5773 4.9565-1.813 5.0493,1.1442z" fill="#fff"/>
<path d="m1795.3899,945.4509h7.2507v7.2507h-7.2507z" fill="#fff" transform="matrix(.63083,.77593,-.63083,.77593,0,0)"/>
<g transform="matrix(-.95581,0,0,.95581,981.29867,131.81969)">
<path d="m454.995,2090.3138 2.026-4.8519 2.026,4.8521" fill="#fff"/>
<path d="m461.7879,2085.1401c.0888-2.829-4.7598-6.37-4.7598-6.37s-4.6796,3.4178-4.7738,6.37c-.0906,2.8353 3.4045,3.4502 4.7738,1.0785 1.4028,2.4297 4.6723,1.7092 4.7598-1.0785z" fill="#fff"/>
</g>
<g transform="matrix(-.95581,0,0,.95581,977.73048,131.8581)">
<path d="m468.2709,2090.3138 2.026-4.8519 2.026,4.8521" fill="#fff"/>
<path d="m470.2812,2078.8438c-1.373,0-2.4688,1.0957-2.4688,2.4687 0,.5768.2016,1.1095.5312,1.5313-.1132-.016-.2263-.031-.3438-.031-1.373,0-2.4688,1.127-2.4688,2.5s1.0957,2.5 2.4688,2.5c1.0143,0 1.8946-.6291 2.2812-1.5 .3836.8782 1.2617,1.5 2.2812,1.5 1.373,0 2.5-1.127 2.5-2.5s-1.127-2.5-2.5-2.5c-.1069,0-.2091.018-.3125.031 .3248-.4202.5312-.9592.5312-1.5313 0-1.373-1.127-2.4687-2.5-2.4687z" fill="#fff"/>
</g>
</g>
</svg>
