<svg viewBox="0 0 512 512" xmlns="http://www.w3.org/2000/svg">

<g transform="matrix(18.68858,0,0,18.68858,-9765.65638,-39461.52843)">
<path d="m 541.22 2115.43 c 0.0943 3.0012 -4.6078 5.1097 -5.0493 6.7576 -0.4824 -1.8003 -4.9641 -3.6258 -5.0642 -6.7575 -0.096 -3.0076 3.6116 -3.6601 5.0642 -1.1443 1.4881 -2.5773 4.9565 -1.813 5.0493 1.1442 z" fill="#fff"/>
<path d="m 1795.39 945.451 h 7.2507 v 7.2507 h -7.2507 z" fill="#fff" transform="matrix(.63083,.77593,-.63083,.77593,0,0)"/>
<g transform="matrix(-.95581,0,0,.95581,981.29867,131.81969)">
<path d="m 454.995 2090.31 2.026 -4.8519 2.026 4.8521" fill="#fff"/>
<path d="m 461.788 2085.14 c 0.0888 -2.829 -4.7598 -6.37 -4.7598 -6.37 s -4.6796 3.4178 -4.7738 6.37 c -0.0906 2.8353 3.4045 3.4502 4.7738 1.0785 1.4028 2.4297 4.6723 1.7092 4.7598 -1.0785 z" fill="#fff"/>
</g>
<g transform="matrix(-.95581,0,0,.95581,977.73048,131.8581)">
<path d="m 468.271 2090.31 2.026 -4.8519 2.026 4.8521" fill="#fff"/>
<path d="m 470.281 2078.84 c -1.373 0 -2.4688 1.0957 -2.4688 2.4687 0 0.5768 0.2016 1.1095 0.5312 1.5313 -0.1132 -0.016 -0.2263 -0.031 -0.3438 -0.031 -1.373 0 -2.4688 1.127 -2.4688 2.5 s 1.0957 2.5 2.4688 2.5 c 1.0143 0 1.8946 -0.6291 2.2812 -1.5 0.3836 0.8782 1.2617 1.5 2.2812 1.5 1.373 0 2.5 -1.127 2.5 -2.5 s -1.127 -2.5 -2.5 -2.5 c -0.1069 0 -0.2091 0.018 -0.3125 0.031 0.3248 -0.4202 0.5312 -0.9592 0.5312 -1.5313 0 -1.373 -1.127 -2.4687 -2.5 -2.4687 z" fill="#fff"/>
</g>
</g>
</svg>
