<svg viewBox="0 0 512 512" xmlns="http://www.w3.org/2000/svg">

<g transform="matrix(18.68858,0,0,18.68858,-1589.21609,-11596.05163)">
<g transform="matrix(-.23705,.99495,-.99495,-.23705,453.78787,621.28906)">
<path d="m94.2896,329.6707-4.751-.4319c3.952-2.8664-.513-5.4229 3.3302-7.1992-1.5758,2.2343 2.7996,4.4121 1.4207,7.6311z" fill="#fff"/>
</g>
<g transform="matrix(.23705,-.99495,.99495,.23705,-256.06958,646.80123)">
<path d="m94.2896,329.6707-4.751-.4319c3.952-2.8664-.513-5.4229 3.3302-7.1992-1.5758,2.2343 2.7996,4.4121 1.4207,7.6311z" fill="#fff"/>
</g>
<g transform="matrix(-.87115,.53591,-.53591,-.87115,358.85157,875.99774)">
<path d="m94.2896,329.6707-4.751-.4319c3.952-2.8664-.513-5.4229 3.3302-7.1992-1.5758,2.2343 2.7996,4.4121 1.4207,7.6311z" fill="#fff"/>
</g>
<g transform="matrix(.87115,-.53591,.53591,.87115,-161.13328,392.09255)">
<path d="m94.2896,329.6707-4.751-.4319c3.952-2.8664-.513-5.4229 3.3302-7.1992-1.5758,2.2343 2.7996,4.4121 1.4207,7.6311z" fill="#fff"/>
</g>
<g transform="matrix(-.99495,-.23705,.23705,-.99495,111.61523,988.97389)">
<path d="m94.2896,329.6707-4.751-.4319c3.952-2.8664-.513-5.4229 3.3302-7.1992-1.5758,2.2343 2.7996,4.4121 1.4207,7.6311z" fill="#fff"/>
</g>
<g transform="matrix(.99495,.23705,-.23705,.99495,86.10306,279.1164)">
<path d="m94.2896,329.6707-4.751-.4319c3.952-2.8664-.513-5.4229 3.3302-7.1992-1.5758,2.2343 2.7996,4.4121 1.4207,7.6311z" fill="#fff"/>
</g>
<g transform="matrix(-.53591,-.87115,.87115,-.53591,-143.09346,894.03758)">
<path d="m94.2896,329.6707-4.751-.4319c3.952-2.8664-.513-5.4229 3.3302-7.1992-1.5758,2.2343 2.7996,4.4121 1.4207,7.6311z" fill="#fff"/>
</g>
<g transform="matrix(.53591,.87115,-.87115,.53591,340.81175,374.05271)">
<path d="m94.2896,329.6707-4.751-.4319c3.952-2.8664-.513-5.4229 3.3302-7.1992-1.5758,2.2343 2.7996,4.4121 1.4207,7.6311z" fill="#fff"/>
</g>
<path d="m102.125,337.3309c0,5.1949-4.2113,9.4062-9.4063,9.4062-5.1949,0-9.4063-4.2113-9.4063-9.4062s4.2113-9.4062 9.4063-9.4062c5.1949,0 9.4063,4.2113 9.4063,9.4062z" fill="#fff" stroke="#000" stroke-width="1.5145" transform="matrix(.60376,.2673,-.2673,.60376,133.04139,405.59223)"/>
<path d="m101.0797,628.116-1.4161,2.2068-.5331-2.5673 1.9492.3605z"/>
<path d="m98.8854,639.9799-.5331-2.5673-1.4161,2.2068 1.9492.3605z"/>
<path d="m101.3096,628.1586-1.7502,2.7274-.6589-3.173 2.409.4456z"/>
<path d="m93.6534,636.8176 1.9568-1.7453-2.6192-.123 .6624,1.8683z"/>
<path d="m105.0249,632.7861-2.6192-.123 1.9568-1.7453 .6624,1.8683z"/>
<path d="m93.7759,630.7055 2.4899.822-1.2031-2.3298-1.2868,1.5078z"/>
<path d="m102.9531,638.5377-1.2031-2.3298 2.4899.822-1.2868,1.5078z"/>
</g>
</svg>
