<svg viewBox="0 0 512 512" xmlns="http://www.w3.org/2000/svg">

<g transform="matrix(18.68858,0,0,18.68858,-1589.21609,-11596.05163)">
<g transform="matrix(-.23705,.99495,-.99495,-.23705,453.78787,621.28906)">
<path d="m 94.2896 329.671 -4.751 -0.4319 c 3.952 -2.8664 -0.513 -5.4229 3.3302 -7.1992 -1.5758 2.2343 2.7996 4.4121 1.4207 7.6311 z" fill="#fff"/>
</g>
<g transform="matrix(.23705,-.99495,.99495,.23705,-256.06958,646.80123)">
<path d="m 94.2896 329.671 -4.751 -0.4319 c 3.952 -2.8664 -0.513 -5.4229 3.3302 -7.1992 -1.5758 2.2343 2.7996 4.4121 1.4207 7.6311 z" fill="#fff"/>
</g>
<g transform="matrix(-.87115,.53591,-.53591,-.87115,358.85157,875.99774)">
<path d="m 94.2896 329.671 -4.751 -0.4319 c 3.952 -2.8664 -0.513 -5.4229 3.3302 -7.1992 -1.5758 2.2343 2.7996 4.4121 1.4207 7.6311 z" fill="#fff"/>
</g>
<g transform="matrix(.87115,-.53591,.53591,.87115,-161.13328,392.09255)">
<path d="m 94.2896 329.671 -4.751 -0.4319 c 3.952 -2.8664 -0.513 -5.4229 3.3302 -7.1992 -1.5758 2.2343 2.7996 4.4121 1.4207 7.6311 z" fill="#fff"/>
</g>
<g transform="matrix(-.99495,-.23705,.23705,-.99495,111.61523,988.97389)">
<path d="m 94.2896 329.671 -4.751 -0.4319 c 3.952 -2.8664 -0.513 -5.4229 3.3302 -7.1992 -1.5758 2.2343 2.7996 4.4121 1.4207 7.6311 z" fill="#fff"/>
</g>
<g transform="matrix(.99495,.23705,-.23705,.99495,86.10306,279.1164)">
<path d="m 94.2896 329.671 -4.751 -0.4319 c 3.952 -2.8664 -0.513 -5.4229 3.3302 -7.1992 -1.5758 2.2343 2.7996 4.4121 1.4207 7.6311 z" fill="#fff"/>
</g>
<g transform="matrix(-.53591,-.87115,.87115,-.53591,-143.09346,894.03758)">
<path d="m 94.2896 329.671 -4.751 -0.4319 c 3.952 -2.8664 -0.513 -5.4229 3.3302 -7.1992 -1.5758 2.2343 2.7996 4.4121 1.4207 7.6311 z" fill="#fff"/>
</g>
<g transform="matrix(.53591,.87115,-.87115,.53591,340.81175,374.05271)">
<path d="m 94.2896 329.671 -4.751 -0.4319 c 3.952 -2.8664 -0.513 -5.4229 3.3302 -7.1992 -1.5758 2.2343 2.7996 4.4121 1.4207 7.6311 z" fill="#fff"/>
</g>
<path d="m 102.125 337.331 c 0 5.1949 -4.2113 9.4062 -9.4063 9.4062 -5.1949 0 -9.4063 -4.2113 -9.4063 -9.4062 s 4.2113 -9.4062 9.4063 -9.4062 c 5.1949 0 9.4063 4.2113 9.4063 9.4062 z" fill="#fff" stroke="#000" stroke-width="1.5145" transform="matrix(.60376,.2673,-.2673,.60376,133.04139,405.59223)"/>
<path d="m 101.08 628.116 -1.4161 2.2068 -0.5331 -2.5673 1.9492 0.3605 z"/>
<path d="m 98.8854 639.98 -0.5331 -2.5673 -1.4161 2.2068 1.9492 0.3605 z"/>
<path d="m 101.31 628.159 -1.7502 2.7274 -0.6589 -3.173 2.409 0.4456 z"/>
<path d="m 93.6534 636.818 1.9568 -1.7453 -2.6192 -0.123 0.6624 1.8683 z"/>
<path d="m 105.025 632.786 -2.6192 -0.123 1.9568 -1.7453 0.6624 1.8683 z"/>
<path d="m 93.7759 630.706 2.4899 0.822 -1.2031 -2.3298 -1.2868 1.5078 z"/>
<path d="m 102.953 638.538 -1.2031 -2.3298 2.4899 0.822 -1.2868 1.5078 z"/>
</g>
</svg>
