<svg viewBox="0 0 512 512" xmlns="http://www.w3.org/2000/svg">

<g transform="matrix(18.68858,0,0,18.68858,-212.90611,-9140.68884)">
<path d="m12.3281,490.0625v.4931l6.8458,2.8428c-.0827.3824-.116.8113-.116,1.2183 0,.0636-.0021.111 0,.1741l-6.7298-.8992v3.3939l7.0489-.9573c.1343.406.3034.8014.5221,1.1603l-7.571,3.1328v4.5832l8.4412-6.5847c.3002.2909.5981.5359.9573.7542l-9.3985,12.1542v4.0031h4.2351l6.3817-15.6351c.3496.1108.7267.2209 1.1023.2611l-2.0595,15.3741h5.4534l-2.0595-15.3741c.3731-.0505.7562-.1987 1.1023-.3191l6.3817,15.6932h4.9313v-3.1328l-10.1527-13.1115c.3056-.1954.5799-.4179.8412-.6672l9.3115,7.1649v-4.8443l-8.3832-3.4519c.2086-.3422.4191-.717.5511-1.1023l7.8321,1.0443v-3.655l-7.542,1.0153c.0021-.063 0-.1105 0-.1741-1e-06-.3861-.0415-.7962-.116-1.1603l7.658-3.1618v-.2321h-6.0046l-2.2626,1.7405c-.2488-.4357-.5468-.8079-.8992-1.1603l.4351-.5802h-8.7023l.4061.5221c-.3714.3602-.6677.7674-.9282,1.2183l-2.2336-1.7405h-5.2794z" fill="#fff"/>
<path d="m34.8741,490.8404c.4051,1.1297.6259,2.347.6259,3.6156 0,5.9168-4.802,10.7188-10.7188,10.7188s-10.7188-4.802-10.7188-10.7188c0-1.3885.2644-2.7155.7457-3.9336" fill="none" stroke="#fff"/>
</g>
</svg>
