<svg viewBox="0 0 512 512" xmlns="http://www.w3.org/2000/svg">

<g transform="matrix(18.68858,0,0,18.68858,-212.90611,-9140.68884)">
<path d="m 12.3281 490.062 v 0.4931 l 6.8458 2.8428 c -0.0827 0.3824 -0.116 0.8113 -0.116 1.2183 0 0.0636 -0.0021 0.111 0 0.1741 l -6.7298 -0.8992 v 3.3939 l 7.0489 -0.9573 c 0.1343 0.406 0.3034 0.8014 0.5221 1.1603 l -7.571 3.1328 v 4.5832 l 8.4412 -6.5847 c 0.3002 0.2909 0.5981 0.5359 0.9573 0.7542 l -9.3985 12.1542 v 4.0031 h 4.2351 l 6.3817 -15.6351 c 0.3496 0.1108 0.7267 0.2209 1.1023 0.2611 l -2.0595 15.3741 h 5.4534 l -2.0595 -15.3741 c 0.3731 -0.0505 0.7562 -0.1987 1.1023 -0.3191 l 6.3817 15.6932 h 4.9313 v -3.1328 l -10.1527 -13.1115 c 0.3056 -0.1954 0.5799 -0.4179 0.8412 -0.6672 l 9.3115 7.1649 v -4.8443 l -8.3832 -3.4519 c 0.2086 -0.3422 0.4191 -0.717 0.5511 -1.1023 l 7.8321 1.0443 v -3.655 l -7.542 1.0153 c 0.0021 -0.063 0 -0.1105 0 -0.1741 -1e-06 -0.3861 -0.0415 -0.7962 -0.116 -1.1603 l 7.658 -3.1618 v -0.2321 h -6.0046 l -2.2626 1.7405 c -0.2488 -0.4357 -0.5468 -0.8079 -0.8992 -1.1603 l 0.4351 -0.5802 h -8.7023 l 0.4061 0.5221 c -0.3714 0.3602 -0.6677 0.7674 -0.9282 1.2183 l -2.2336 -1.7405 h -5.2794 z" fill="#fff"/>
<path d="m 34.8741 490.84 c 0.4051 1.1297 0.6259 2.347 0.6259 3.6156 0 5.9168 -4.802 10.7188 -10.7188 10.7188 s -10.7188 -4.802 -10.7188 -10.7188 c 0 -1.3885 0.2644 -2.7155 0.7457 -3.9336" fill="none" stroke="#fff"/>
</g>
</svg>
