<svg viewBox="0 0 512 512" xmlns="http://www.w3.org/2000/svg">

<g transform="matrix(18.68858,0,0,18.68858,-2950.48535,-29261.22919)">
<path d="m175.2209,1572.9074-.2801,7.2748 7.3896-8.4391-4.5664,10.2139 5.3866-1.7053-4.0568,4.7247 5.4976.5323-7.4059,3.1864c.9067-9.0654-11.4151-8.0169-9.7812.1563l-8.5151-3.2874 6.5299-.1862-4.9076-3.6993 5.4499,1.3916-5.2519-8.4716 6.7281,5.7529-1.0419-6.5527 3.4794,5.4967 .1488-11.1232 2.445,11.5229z" fill="#fff"/>
<path d="m177.2381,1585.8544c0,3.124-2.5325,5.6565-5.6565,5.6565s-5.6565-2.5325-5.6565-5.6565 2.5325-5.6566 5.6565-5.6566 5.6565,2.5326 5.6565,5.6566z" fill="#fff" stroke="#000" stroke-width="1.1124" transform="matrix(.89898,0,0,.89898,17.81721,160.73769)"/>
<path d="m162.1541,1586.3965c0-5.4744 4.4379-9.9123 9.9124-9.9123s9.9124,4.4379 9.9124,9.9123" fill="none" stroke="#fff"/>
<path d="m158.4292,1585.8898 8.8757,3.5046" fill="none" stroke="#000"/>
<path d="m185.1325,1585.8898-8.8757,3.5046" fill="none" stroke="#000"/>
</g>
</svg>
