<svg viewBox="0 0 512 512" xmlns="http://www.w3.org/2000/svg">

<g transform="matrix(18.68858,0,0,18.68858,-2950.48535,-29261.22919)">
<path d="m 175.221 1572.91 -0.2801 7.2748 7.3896 -8.4391 -4.5664 10.2139 5.3866 -1.7053 -4.0568 4.7247 5.4976 0.5323 -7.4059 3.1864 c 0.9067 -9.0654 -11.4151 -8.0169 -9.7812 0.1563 l -8.5151 -3.2874 6.5299 -0.1862 -4.9076 -3.6993 5.4499 1.3916 -5.2519 -8.4716 6.7281 5.7529 -1.0419 -6.5527 3.4794 5.4967 0.1488 -11.1232 2.445 11.5229 z" fill="#fff"/>
<path d="m 177.238 1585.85 c 0 3.124 -2.5325 5.6565 -5.6565 5.6565 s -5.6565 -2.5325 -5.6565 -5.6565 2.5325 -5.6566 5.6565 -5.6566 5.6565 2.5326 5.6565 5.6566 z" fill="#fff" stroke="#000" stroke-width="1.1124" transform="matrix(.89898,0,0,.89898,17.81721,160.73769)"/>
<path d="m 162.154 1586.4 c 0 -5.4744 4.4379 -9.9123 9.9124 -9.9123 s 9.9124 4.4379 9.9124 9.9123" fill="none" stroke="#fff"/>
<path d="m 158.429 1585.89 8.8757 3.5046" fill="none" stroke="#000"/>
<path d="m 185.132 1585.89 -8.8757 3.5046" fill="none" stroke="#000"/>
</g>
</svg>
