<svg viewBox="0 0 512 512" xmlns="http://www.w3.org/2000/svg">

<g transform="matrix(18.68858,0,0,18.68858,-2950.4625,-21.18892)">
<path d="m 544.018 30.6658 c 0 2.6628 -2.1586 4.8214 -4.8214 4.8214 s -4.8214 -2.1586 -4.8214 -4.8214 2.1586 -4.8214 4.8214 -4.8214 4.8214 2.1586 4.8214 4.8214 z" fill="#fff" transform="matrix(1.29693,0,0,-1.29693,-527.4413,54.76031)"/>
<path d="m 159.702 16.4003 c 6.3625 -9.9768 15.8657 -10.9694 23.8964 0 -8.1336 6.4778 -16.453 6.5791 -23.8964 0 z" fill="none" stroke="#fff"/>
<path d="m 158.502 10.7915 c 5.8006 -7.5157 18.1634 -4.9991 24.5734 5.2407" fill="none" stroke="#fff"/>
<path d="m 162.748 19.0382 c 6.7351 4.0477 16.6723 3.9471 22.1297 -1.0353" fill="none" stroke="#fff"/>
<path d="m 162.826 19.1414 c -1.2489 -2.2941 -1.3785 -4.5883 0 -6.8824 l -3.1219 4.399 3.1219 2.4833 z" fill="#fff" fill-rule="evenodd"/>
<path d="m 180.578 18.8971 c 1.1209 -2.2941 1.1226 -4.5883 -0.3839 -6.8824 l 3.3673 4.399 -2.9834 2.4833 z" fill="#fff" fill-rule="evenodd"/>
<path d="m 159.823 16.4547 c 6.1802 7.1139 18.8553 9.2152 25.2717 3.9406" fill="none" stroke="#fff"/>
<path d="m 158.502 13.5906 c 4.0948 -5.9489 11.4598 -7.412 17.6923 -4.5102" fill="none" stroke="#fff"/>
<path d="m 171.859 21.3446 c -2.3399 -3.1702 -2.7145 -9.2272 0 -12.811 3.0094 3.582 2.2485 9.8303 0 12.811 z" fill-rule="evenodd"/>
<path d="m -190.963 30.2393 c 0 0.8299 -0.6727 1.5026 -1.5026 1.5026 s -1.5026 -0.6727 -1.5026 -1.5026 0.6727 -1.5026 1.5026 -1.5026 1.5026 0.6727 1.5026 1.5026 z" fill="#fff" transform="matrix(1.22375,0,0,1.22375,409.01245,-25.25544)"/>
<path d="m 184.856 9.9909 v 14.2817" fill="none" stroke="#000"/>
<path d="m 158.481 4.2791 v 17.0724" fill="none" stroke="#000"/>
</g>
</svg>
