<svg viewBox="0 0 512 512" xmlns="http://www.w3.org/2000/svg">

<g transform="matrix(18.68858,0,0,18.68858,-2950.4625,-21.18892)">
<path d="m544.0178,30.6658c0,2.6628-2.1586,4.8214-4.8214,4.8214s-4.8214-2.1586-4.8214-4.8214 2.1586-4.8214 4.8214-4.8214 4.8214,2.1586 4.8214,4.8214z" fill="#fff" transform="matrix(1.29693,0,0,-1.29693,-527.4413,54.76031)"/>
<path d="m159.7022,16.4003c6.3625-9.9768 15.8657-10.9694 23.8964,0-8.1336,6.4778-16.453,6.5791-23.8964,0z" fill="none" stroke="#fff"/>
<path d="m158.5025,10.7915c5.8006-7.5157 18.1634-4.9991 24.5734,5.2407" fill="none" stroke="#fff"/>
<path d="m162.7477,19.0382c6.7351,4.0477 16.6723,3.9471 22.1297-1.0353" fill="none" stroke="#fff"/>
<path d="m162.8257,19.1414c-1.2489-2.2941-1.3785-4.5883 0-6.8824l-3.1219,4.399 3.1219,2.4833z" fill="#fff" fill-rule="evenodd"/>
<path d="m180.5782,18.8971c1.1209-2.2941 1.1226-4.5883-.3839-6.8824l3.3673,4.399-2.9834,2.4833z" fill="#fff" fill-rule="evenodd"/>
<path d="m159.8229,16.4547c6.1802,7.1139 18.8553,9.2152 25.2717,3.9406" fill="none" stroke="#fff"/>
<path d="m158.5025,13.5906c4.0948-5.9489 11.4598-7.412 17.6923-4.5102" fill="none" stroke="#fff"/>
<path d="m171.8595,21.3446c-2.3399-3.1702-2.7145-9.2272 0-12.811 3.0094,3.582 2.2485,9.8303 0,12.811z" fill-rule="evenodd"/>
<path d="m-190.963,30.2393c0,.8299-.6727,1.5026-1.5026,1.5026s-1.5026-.6727-1.5026-1.5026 .6727-1.5026 1.5026-1.5026 1.5026.6727 1.5026,1.5026z" fill="#fff" transform="matrix(1.22375,0,0,1.22375,409.01245,-25.25544)"/>
<path d="m184.8557,9.9909v14.2817" fill="none" stroke="#000"/>
<path d="m158.4807,4.2791v17.0724" fill="none" stroke="#000"/>
</g>
</svg>
