<svg viewBox="0 0 512 512" xmlns="http://www.w3.org/2000/svg">

<g transform="matrix(18.68858,0,0,18.68858,1351.18859,-15526.17362)">
<path d="m 347.875 844.112 c 0 2.2091 -1.7909 4 -4 4 s -4 -1.7909 -4 -4 1.7909 -4 4 -4 4 1.7909 4 4 z" fill="#fff" stroke="#000" stroke-width=".6186" transform="matrix(1.61653,0,0,-1.61647,-614.30526,2211.7992)"/>
<path d="m -58.4098 857.072 c -5.2077 0 -9.4521 -4.2204 -9.4521 -9.4279 0 -0.0792 -0.0019 -0.16 0 -0.2387 h 18.8804 c 0.0019 0.0787 0 0.1595 0 0.2387 0 5.2075 -4.2206 9.4279 -9.4283 9.4279 z"/>
<path d="m -46.4351 842.366 -8.2084 2.7714 7.3816 -5.8611 0.8268 3.0897 z" fill="#fff"/>
<path d="m -69.8112 848.739 6.8595 -1.376 -7.489 -1.1127 0.6294 2.4887 z" fill="#fff"/>
<path d="m -46.6432 848.817 -7.2487 -1.4541 7.7294 -1.1484 -0.4807 2.6025 z" fill="#fff"/>
<path d="m -49.5123 835.749 -6.8951 7.8363 3.9244 -9.9376 2.9707 2.1013 z" fill="#fff"/>
<path d="m -56.4789 831.996 -2.2323 11.1272 -1.6533 -11.1272 3.8856 -2e-05 z" fill="#fff"/>
<path d="m -64.4144 833.577 3.477 10.2977 -6.3761 -8.0295 2.899 -2.2682 z" fill="#fff"/>
<path d="m -69.6091 839.374 7.1196 6.264 -8.088 -3.1938 0.9684 -3.0702 z" fill="#fff"/>
<path d="m 531.037 404.564 c 0 7.4688 -6.0546 13.5234 -13.5234 13.5234 s -13.5234 -6.0546 -13.5234 -13.5234 6.0546 -13.5234 13.5234 -13.5234 13.5234 6.0546 13.5234 13.5234 z" fill="none" stroke="#fff" stroke-width="1.0479" transform="matrix(.91335,0,0,-.91335,-531.09259,1213.9921)"/>
</g>
</svg>
