<svg viewBox="0 0 512 512" xmlns="http://www.w3.org/2000/svg">

<g transform="matrix(18.68858,0,0,18.68858,1351.18859,-15526.17362)">
<path d="m347.875,844.1122c0,2.2091-1.7909,4-4,4s-4-1.7909-4-4 1.7909-4 4-4 4,1.7909 4,4z" fill="#fff" stroke="#000" stroke-width=".6186" transform="matrix(1.61653,0,0,-1.61647,-614.30526,2211.7992)"/>
<path d="m-58.4098,857.0716c-5.2077,0-9.4521-4.2204-9.4521-9.4279 0-.0792-.0019-.16 0-.2387h18.8804c.0019.0787 0,.1595 0,.2387 0,5.2075-4.2206,9.4279-9.4283,9.4279z"/>
<path d="m-46.4351,842.3658-8.2084,2.7714 7.3816-5.8611 .8268,3.0897z" fill="#fff"/>
<path d="m-69.8112,848.7392 6.8595-1.376-7.489-1.1127 .6294,2.4887z" fill="#fff"/>
<path d="m-46.6432,848.8173-7.2487-1.4541 7.7294-1.1484-.4807,2.6025z" fill="#fff"/>
<path d="m-49.5123,835.7487-6.8951,7.8363 3.9244-9.9376 2.9707,2.1013z" fill="#fff"/>
<path d="m-56.4789,831.9957-2.2323,11.1272-1.6533-11.1272 3.8856-2e-05z" fill="#fff"/>
<path d="m-64.4144,833.5768 3.477,10.2977-6.3761-8.0295 2.899-2.2682z" fill="#fff"/>
<path d="m-69.6091,839.3744 7.1196,6.264-8.088-3.1938 .9684-3.0702z" fill="#fff"/>
<path d="m531.0372,404.564c0,7.4688-6.0546,13.5234-13.5234,13.5234s-13.5234-6.0546-13.5234-13.5234 6.0546-13.5234 13.5234-13.5234 13.5234,6.0546 13.5234,13.5234z" fill="none" stroke="#fff" stroke-width="1.0479" transform="matrix(.91335,0,0,-.91335,-531.09259,1213.9921)"/>
</g>
</svg>
