<svg viewBox="0 0 512 512" xmlns="http://www.w3.org/2000/svg">

<g transform="matrix(18.68858,0,0,18.68858,-9766.59193,-38102.7044)">
<path d="m 530.713 2046.93 c 0.7735 -3.6208 -0.7911 -4.9757 -3.596 -7.2472 l -0.2127 3.4387 -3.4385 0.2125 c 2.4509 3.0156 3.7259 3.8136 7.2473 3.596 z" fill="#fff"/>
<path d="m 531.89 2048.09 c 6.8628 -6.8628 14.3899 -10.4618 16.8193 -8.0325 s -1.1696 9.9565 -8.0324 16.8193 -14.4121 10.484 -16.8415 8.0547 1.1918 -9.9787 8.0546 -16.8415 z" fill="#fff" stroke="#000"/>
<path d="m 534.741 2050.94 c -5.3638 5.3637 -8.6432 10.7944 -7.3224 12.1152 s 6.7515 -1.9586 12.1152 -7.3224 8.6432 -10.7944 7.3224 -12.1152 -6.7515 1.9586 -12.1152 7.3224 z"/>
<path d="m 525.312 2040.81 -0.625 0.625 18.375 19.6875 4.0625 2.125 -2.125 -4.0625 -19.6875 -18.375 z" fill="#fff"/>
<path d="m 538.654 2042.48 c -2.1934 1.452 -4.4957 3.3394 -6.75 5.5937 -2.7474 2.7475 -4.9719 5.6239 -6.5 8.2188" fill="none" stroke="#000"/>
<path d="m 530.091 2057.13 c 2.8369 -3.8076 5.7264 -6.9616 9.3328 -9.7086" fill="none" stroke="#000"/>
<path d="m 536.982 2053.32 c 2.2915 -2.2914 4.8049 -3.4931 5.6161 -2.6821 s -0.3905 3.3246 -2.6821 5.6162 -4.8123 3.5006 -5.6235 2.6895 0.398 -3.332 2.6895 -5.6236 z" fill="none" stroke="#fff"/>
<path d="m 537.509 2055.92 2.5549 2.7287 m 2.4472 -2.4743 -2.7555 -2.5817" fill="none" stroke="#000"/>
<path d="m 548.889 2065.13 -11.2966 -4.3636 5.2495 -1.6835 1.6834 -5.2496 z" fill="#fff"/>
<path d="m 536.152 2055.89 c 1.0448 -1.5097 2.1877 -2.6137 3.5939 -3.5936" fill="none" stroke="#000"/>
<path d="m 533.815 2055.51 c 1.682 -2.3401 3.4819 -3.9977 5.6615 -5.3984" fill="none" stroke="#000"/>
</g>
</svg>
