<svg viewBox="0 0 512 512" xmlns="http://www.w3.org/2000/svg">

<g transform="matrix(18.68858,0,0,18.68858,-908.73432,-34037.1118)">
<path d="m66.2721,1836.0347c-1.9747-1.334-4.339-2.1127-6.9014-2.1126l-8e-06,4.2957c2.5771,0 4.9201-.8349 6.9015-2.1831z" fill="#fff"/>
<path d="m1833.951-58.4618h4.238v7.8767h-4.238z" fill="#fff" transform="matrix(0,1,-1,0,0,0)"/>
<path d="m58.7189,1833.6852-7.4e-05,4.7697" fill="none" stroke="#000"/>
<path d="m52.28,1833.6851-7.4e-05,4.7698" fill="none" stroke="#000"/>
<path d="m49.5178,1842.6241c7.2056,0 13.757-2.5477 19.2969-6.6618-5.5215-4.0707-12.1322-6.4467-19.2968-6.4465" fill="none" stroke="#fff"/>
<path d="m61.1508,1848.2885c4.8277-3.6259 8.6652-7.768 11.0315-12.3766-2.7976-5.4485-7.7405-10.1865-13.9813-14.1594" fill="none" stroke="#fff"/>
<path d="m71.6451,1848.1519c4.3116-8.2014 3.6289-18.962-1.1315-26.4994" fill="none" stroke="#fff"/>
<path d="m68.9826,1848.1519c8.2173-8.2014 6.9162-18.962-2.1565-26.4994" fill="none" stroke="#fff"/>
<path d="m55.8298,1848.2885c7.1153-3.6259 12.7712-7.768 16.2588-12.3766-4.1232-5.4485-11.4083-10.1865-20.6063-14.1594" fill="none" stroke="#fff"/>
<path d="m49.5178,1844.9925c7.3058,0 13.9482-3.4684 19.5651-9.0691-5.5982-5.5417-12.3008-8.7763-19.565-8.776" fill="none" stroke="#fff"/>
<path d="m49.1571,1821.783h26.4314v26.4314h-26.4314z" fill="none" stroke="#000"/>
</g>
</svg>
