<svg viewBox="0 0 512 512" xmlns="http://www.w3.org/2000/svg">

<g transform="matrix(18.68858,0,0,18.68858,-6356.31964,-35396.88175)">
<path d="m 365.69 1905.73 c 0.488 3.6484 -6.3591 5.2479 -12.3047 5.2479 s -12.231 -0.9891 -11.5099 -5.2479 c 2.4795 -14.6455 22.2823 -11.4557 23.8147 0 z" fill="none" stroke="#fff"/>
<path d="m 360.59 1909.6 c -2.92 -1.8896 0.0783 -5.2762 2.2389 -3.8779 2.92 1.8896 -0.0783 5.2762 -2.2389 3.8779 z" fill="#fff"/>
<path d="m 356.058 1908.53 c 4.1913 -2.7121 -0.1124 -7.573 -3.2136 -5.566 -4.1912 2.7121 0.1124 7.573 3.2136 5.566 z" fill="#fff"/>
<path d="m 360.752 1903.45 c 1.9345 0.5894 1.8443 -1.9119 0.4128 -2.348 -1.9345 -0.5894 -1.8442 1.9119 -0.4128 2.348 z" fill="#fff"/>
<path d="m 349.522 1898.3 c -1.5064 -0.9748 0.0404 -2.7219 1.155 -2.0006 1.5063 0.9748 -0.0404 2.7218 -1.155 2.0006 z" fill="#fff"/>
<path d="m 347.754 1910.23 c -2.0483 -1.3255 0.0549 -3.7011 1.5705 -2.7203 2.0483 1.3255 -0.0549 3.701 -1.5705 2.7203 z" fill="#fff"/>
<path d="m 342.854 1908.87 c -1.6981 -1.0989 0.0455 -3.0683 1.302 -2.2552 1.698 1.0988 -0.0455 3.0682 -1.302 2.2552 z" fill="#fff"/>
<path d="m 351.171 1902.25 c 2.0336 -1.316 -0.0545 -3.6745 -1.5592 -2.7008 -2.0335 1.316 0.0545 3.6744 1.5592 2.7008 z" fill="#fff"/>
<path d="m 345.244 1904.19 c 3.3279 -0.5724 2.955 -5.2572 0.4926 -4.8338 -3.3278 0.5726 -2.9549 5.2572 -0.4926 4.8338 z" fill="#fff"/>
<path d="m 349.423 1910.82 h 8.2454 c 1.4656 5.4041 3.4323 9.6456 -4.1576 9.6456 -7.1244 0 -5.35 -3.946 -4.0877 -9.6456 z" fill="#fff"/>
<path d="m 347.47 1911.58 c 3.9978 0.5372 8.4547 0.5596 12.5928 -0.2679" fill="none" stroke="#000"/>
<path d="m 357.15 1899.4 c 3.179 -0.6027 0.9399 -3.8094 -1.4124 -3.3635 -3.1789 0.6027 -0.9398 3.8092 1.4124 3.3635 z" fill="#fff"/>
</g>
</svg>
