<svg viewBox="0 0 512 512" xmlns="http://www.w3.org/2000/svg">

<g transform="matrix(18.68858,0,0,18.68858,-9766.59193,-38102.7044)">
<path d="m530.7129,2046.9307c.7735-3.6208-.7911-4.9757-3.596-7.2472l-.2127,3.4387-3.4385.2125c2.4509,3.0156 3.7259,3.8136 7.2473,3.596z" fill="#fff"/>
<path d="m531.8899,2048.0889c6.8628-6.8628 14.3899-10.4618 16.8193-8.0325s-1.1696,9.9565-8.0324,16.8193-14.4121,10.484-16.8415,8.0547 1.1918-9.9787 8.0546-16.8415z" fill="#fff" stroke="#000"/>
<path d="m534.7415,2050.9405c-5.3638,5.3637-8.6432,10.7944-7.3224,12.1152s6.7515-1.9586 12.1152-7.3224 8.6432-10.7944 7.3224-12.1152-6.7515,1.9586-12.1152,7.3224z"/>
<path d="m525.3125,2040.8125-.625.625 18.375,19.6875 4.0625,2.125-2.125-4.0625-19.6875-18.375z" fill="#fff"/>
<path d="m538.654,2042.4837c-2.1934,1.452-4.4957,3.3394-6.75,5.5937-2.7474,2.7475-4.9719,5.6239-6.5,8.2188" fill="none" stroke="#000"/>
<path d="m530.0915,2057.1298c2.8369-3.8076 5.7264-6.9616 9.3328-9.7086" fill="none" stroke="#000"/>
<path d="m536.9818,2053.3204c2.2915-2.2914 4.8049-3.4931 5.6161-2.6821s-.3905,3.3246-2.6821,5.6162-4.8123,3.5006-5.6235,2.6895 .398-3.332 2.6895-5.6236z" fill="none" stroke="#fff"/>
<path d="m537.5086,2055.9193 2.5549,2.7287m2.4472-2.4743-2.7555-2.5817" fill="none" stroke="#000"/>
<path d="m548.8885,2065.13-11.2966-4.3636 5.2495-1.6835 1.6834-5.2496z" fill="#fff"/>
<path d="m536.1522,2055.8903c1.0448-1.5097 2.1877-2.6137 3.5939-3.5936" fill="none" stroke="#000"/>
<path d="m533.8153,2055.5131c1.682-2.3401 3.4819-3.9977 5.6615-5.3984" fill="none" stroke="#000"/>
</g>
</svg>
