<svg viewBox="0 0 512 512" xmlns="http://www.w3.org/2000/svg">

<g transform="matrix(18.68858,0,0,18.68858,-908.73432,-34037.1118)">
<path d="m 66.2721 1836.03 c -1.9747 -1.334 -4.339 -2.1127 -6.9014 -2.1126 l -8e-06 4.2957 c 2.5771 0 4.9201 -0.8349 6.9015 -2.1831 z" fill="#fff"/>
<path d="m 1833.95 -58.4618 h 4.238 v 7.8767 h -4.238 z" fill="#fff" transform="matrix(0,1,-1,0,0,0)"/>
<path d="m 58.7189 1833.69 -7.4e-05 4.7697" fill="none" stroke="#000"/>
<path d="m 52.28 1833.69 -7.4e-05 4.7698" fill="none" stroke="#000"/>
<path d="m 49.5178 1842.62 c 7.2056 0 13.757 -2.5477 19.2969 -6.6618 -5.5215 -4.0707 -12.1322 -6.4467 -19.2968 -6.4465" fill="none" stroke="#fff"/>
<path d="m 61.1508 1848.29 c 4.8277 -3.6259 8.6652 -7.768 11.0315 -12.3766 -2.7976 -5.4485 -7.7405 -10.1865 -13.9813 -14.1594" fill="none" stroke="#fff"/>
<path d="m 71.6451 1848.15 c 4.3116 -8.2014 3.6289 -18.962 -1.1315 -26.4994" fill="none" stroke="#fff"/>
<path d="m 68.9826 1848.15 c 8.2173 -8.2014 6.9162 -18.962 -2.1565 -26.4994" fill="none" stroke="#fff"/>
<path d="m 55.8298 1848.29 c 7.1153 -3.6259 12.7712 -7.768 16.2588 -12.3766 -4.1232 -5.4485 -11.4083 -10.1865 -20.6063 -14.1594" fill="none" stroke="#fff"/>
<path d="m 49.5178 1844.99 c 7.3058 0 13.9482 -3.4684 19.5651 -9.0691 -5.5982 -5.5417 -12.3008 -8.7763 -19.565 -8.776" fill="none" stroke="#fff"/>
<path d="m 49.1571 1821.78 h 26.4314 v 26.4314 h -26.4314 z" fill="none" stroke="#000"/>
</g>
</svg>
