<svg viewBox="0 0 512 512" xmlns="http://www.w3.org/2000/svg">

<g transform="matrix(18.68858,0,0,18.68858,-6356.31964,-35396.88175)">
<path d="m365.6897,1905.7324c.488,3.6484-6.3591,5.2479-12.3047,5.2479s-12.231-.9891-11.5099-5.2479c2.4795-14.6455 22.2823-11.4557 23.8147,0z" fill="none" stroke="#fff"/>
<path d="m360.5897,1909.6c-2.92-1.8896.0783-5.2762 2.2389-3.8779 2.92,1.8896-.0783,5.2762-2.2389,3.8779z" fill="#fff"/>
<path d="m356.0584,1908.5264c4.1913-2.7121-.1124-7.573-3.2136-5.566-4.1912,2.7121.1124,7.573 3.2136,5.566z" fill="#fff"/>
<path d="m360.7522,1903.447c1.9345.5894 1.8443-1.9119.4128-2.348-1.9345-.5894-1.8442,1.9119-.4128,2.348z" fill="#fff"/>
<path d="m349.5216,1898.2951c-1.5064-.9748.0404-2.7219 1.155-2.0006 1.5063.9748-.0404,2.7218-1.155,2.0006z" fill="#fff"/>
<path d="m347.7539,1910.2329c-2.0483-1.3255.0549-3.7011 1.5705-2.7203 2.0483,1.3255-.0549,3.701-1.5705,2.7203z" fill="#fff"/>
<path d="m342.8537,1908.8695c-1.6981-1.0989.0455-3.0683 1.302-2.2552 1.698,1.0988-.0455,3.0682-1.302,2.2552z" fill="#fff"/>
<path d="m351.1713,1902.2493c2.0336-1.316-.0545-3.6745-1.5592-2.7008-2.0335,1.316.0545,3.6744 1.5592,2.7008z" fill="#fff"/>
<path d="m345.2436,1904.1927c3.3279-.5724 2.955-5.2572.4926-4.8338-3.3278.5726-2.9549,5.2572-.4926,4.8338z" fill="#fff"/>
<path d="m349.4225,1910.8185h8.2454c1.4656,5.4041 3.4323,9.6456-4.1576,9.6456-7.1244,0-5.35-3.946-4.0877-9.6456z" fill="#fff"/>
<path d="m347.4704,1911.584c3.9978.5372 8.4547.5596 12.5928-.2679" fill="none" stroke="#000"/>
<path d="m357.1503,1899.398c3.179-.6027.9399-3.8094-1.4124-3.3635-3.1789.6027-.9398,3.8092 1.4124,3.3635z" fill="#fff"/>
</g>
</svg>
