<svg viewBox="0 0 512 512" xmlns="http://www.w3.org/2000/svg">

<g transform="matrix(18.68858,0,0,18.68858,-13170.69136,-39462.4658)">
<path d="m 710.919 2137.46 5.403 -3.2738 2.0952 4.061 2.094 -3.2727 4.16 2.4766 -0.1466 -5.0297 4.5689 1.8925 -1.6781 -3.7479 2.6034 0.068 -2.2944 -2.7859 3.4181 -1.0525 -3.3745 -1.9654 3.0716 -3.9052 -3.797 -0.6597 3.5756 -5.3804 -5.8337 2.3804 0.7178 -3.4996 -3.8095 3.1305 -0.7028 -3.4911 -2.2056 2.8032 -2.9686 -3.6509 -1.4569 3.9882 -4.5449 -1.5108 0.9169 4.473 -4.6178 1.3788 2.7819 2.9301 -3.1704 2.6054 5.0193 1.3544 -3.8687 3.6003 2.7278 0.6962 -1.2199 2.7753 3.2605 -2.0014 z" fill="#fff"/>
<path d="m 718.619 2116.92 c 4.6067 0 8.3438 2.9495 8.3438 6.5626 0 2.4306 -2.5823 3.1653 -5.091 4.2933 l 1.4505 5.0684 c -3.1241 1.1145 -7.4068 1.3266 -10.443 0.077 l 1.8613 -5.0066 c -2.0555 -1.1916 -4.4653 -2.2737 -4.4653 -4.4322 0 -3.6131 3.7371 -6.5626 8.3438 -6.5626 z" stroke="#fff"/>
<path d="m 719.287 2123.89 c 0.5503 3.9742 7.31 1.2069 5.525 -1.7315 -1.8843 -3.102 -6.0229 -1.8637 -5.525 1.7315 z" fill="#fff"/>
<path d="m 717.261 2123.78 c -1.2122 3.8307 -5.9727 1.3412 -5.1048 -1.4017 1.2122 -3.8305 5.9727 -1.3411 5.1048 1.4017 z" fill="#fff"/>
<path d="m 718.336 2125.5 0.7905 2.6714 h -1.9899 z" fill="#fff"/>
<path d="m 720.217 2130.41 1.1277 2.5533 -1.286 0.3446 z" fill="#fff"/>
<path d="m 716.098 2130.52 -1.1277 2.6304 1.286 0.3446 z" fill="#fff"/>
<path d="m 718.207 2130.47 -0.7216 2.9824 h 1.3314 z" fill="#fff"/>
<path d="m 716.681 2122.59 c 0 0.7227 -0.5858 1.3084 -1.3084 1.3084 s -1.3084 -0.5857 -1.3084 -1.3084 0.5858 -1.3084 1.3084 -1.3084 1.3084 0.5858 1.3084 1.3084 z" fill="#fff" stroke="#000" stroke-width="1.1707" transform="matrix(-.85417,0,0,.85417,1325.6858,310.1154)"/>
<path d="m 716.681 2122.59 c 0 0.7227 -0.5858 1.3084 -1.3084 1.3084 s -1.3084 -0.5857 -1.3084 -1.3084 0.5858 -1.3084 1.3084 -1.3084 1.3084 0.5858 1.3084 1.3084 z" stroke="#fff" stroke-width="1.1707" transform="matrix(-.85417,0,0,.85417,1333.1644,310.1154)"/>
</g>
</svg>
