<svg viewBox="0 0 512 512" xmlns="http://www.w3.org/2000/svg">

<g transform="matrix(18.68858,0,0,18.68858,-228.51162,-19763.71219)">
<path d="m 28.6076 1066.97 -2.5623 -8.0321 -1.2558 3.6077 -6.1542 -3.8846 2.4777 4.6005 -7.8409 -1.5622 5.918 4.7199 -5.1112 1.1722 6.357 1.7406 -2.9009 2.6236 9.4798 -0.7618 1.5928 -4.2238 z" fill="#fff" fill-rule="evenodd"/>
<g fill="#fff" stroke="#000" transform="matrix(1.08546,0,0,1.08546,-344.39114,778.02555)">
<path d="m 334.666 282.308 h 15.8001 c 0 -5.4029 0.0965 -8.5645 -4.8616 -9.345 0.8061 -1.0104 1.2829 -2.4249 1.2829 -3.9809 0 -3.0727 -1.9511 -5.5665 -4.3552 -5.5665 s -4.3552 2.4938 -4.3552 5.5665 c 0 1.5954 0.5419 3.0331 1.3842 4.0484 -4.5635 0.8591 -4.8953 3.8801 -4.8953 9.2775 z" fill="#fff" fill-rule="evenodd" stroke="#000" stroke-width=".9213"/>
</g>
<path d="m 27.0427 1069.81 c 0 1.0518 -0.4178 1.9045 -0.9332 1.9045 s -0.9332 -0.8527 -0.9332 -1.9045 0.4178 -1.9044 0.9332 -1.9044 0.9332 0.8527 0.9332 1.9044 z" transform="matrix(1.32915,0,0,1.07015,-8.99714,-74.93341)"/>
<path d="m 27.0427 1069.81 c 0 1.0518 -0.4178 1.9045 -0.9332 1.9045 s -0.9332 -0.8527 -0.9332 -1.9045 0.4178 -1.9044 0.9332 -1.9044 0.9332 0.8527 0.9332 1.9044 z" transform="matrix(1.32915,0,0,1.07015,-5.55064,-74.93341)"/>
<path d="m 22.354 1081.24 v 3.3225" fill="none" stroke="#000"/>
<path d="m 32.319 1081.24 v 3.3225" fill="none" stroke="#000"/>
</g>
</svg>
