<svg viewBox="0 0 512 512" xmlns="http://www.w3.org/2000/svg">

<g transform="matrix(18.68858,0,0,18.68858,-1589.32755,-27902.40974)">
<path d="m 103.971 1494.2 h -11.4599 l -3.8208 19.4443 5.2464 5.6352 h 8.6648 l 5.2352 -5.6352 z" fill="#fff"/>
<path d="m 93.5846 1501.12 c 0 0 -2.9312 5.3545 -2.9312 8.25 s 2.9312 8.25 2.9312 8.25 l 0.5543 -4.3019 1.8715 4.3019 0.9758 -3.1345 1.4837 3.1345 1.1704 -3.1415 1.0196 3.1415 1.6724 -3.9398 0.6524 3.9398 c 0 0 2.9312 -5.3545 2.9312 -8.25 s -2.9312 -8.25 -2.9312 -8.25 l -0.5733 3.8344 -1.7514 -3.8344 -1.1118 3.5103 -1.0782 -3.5103 -1.2466 3.4375 -1.2129 -3.4375 -1.7662 3.8804 z"/>
<path d="m 96.0703 1508.51 c 0 0 -1.0277 1.5991 -1.0277 2.4688 s 1.0277 2.4687 1.0277 2.4687 l 0.6851 -1.6875 0.8163 1.6875 0.7062 -1.3794 0.7062 1.3794 0.8163 -1.6875 0.6851 1.6875 c 0 0 1.0277 -1.5991 1.0277 -2.4687 s -1.0277 -2.4688 -1.0277 -2.4688 l -0.6851 1.6875 -0.8536 -1.6875 -0.6689 1.511 -0.7062 -1.511 -0.8163 1.6875 z" fill="#fff"/>
<path d="m 95.1433 1505.64 1.9175 2.0417 -2.5263 -0.5361 z" fill="#fff"/>
<path d="m 101.285 1505.64 -1.9175 2.0417 2.5263 -0.5361 z" fill="#fff"/>
<path d="m 93.7473 1495.55 c 1.3833 0.7444 2.6202 1.6751 2.9245 3.7927 l -3.853 -0.9959 z"/>
<path d="m 102.561 1495.55 c -1.3833 0.7444 -2.6201 1.6751 -2.9245 3.7927 l 3.853 -0.9959 z"/>
</g>
</svg>
