<svg viewBox="0 0 512 512" xmlns="http://www.w3.org/2000/svg">

<g transform="matrix(18.68858,0,0,18.68858,-1589.32755,-27902.40974)">
<path d="m103.9707,1494.2043h-11.4599l-3.8208,19.4443 5.2464,5.6352h8.6648l5.2352-5.6352z" fill="#fff"/>
<path d="m93.5846,1501.125c0,0-2.9312,5.3545-2.9312,8.25s2.9312,8.25 2.9312,8.25l.5543-4.3019 1.8715,4.3019 .9758-3.1345 1.4837,3.1345 1.1704-3.1415 1.0196,3.1415 1.6724-3.9398 .6524,3.9398c0,0 2.9312-5.3545 2.9312-8.25s-2.9312-8.25-2.9312-8.25l-.5733,3.8344-1.7514-3.8344-1.1118,3.5103-1.0782-3.5103-1.2466,3.4375-1.2129-3.4375-1.7662,3.8804z"/>
<path d="m96.0703,1508.5134c0,0-1.0277,1.5991-1.0277,2.4688s1.0277,2.4687 1.0277,2.4687l.6851-1.6875 .8163,1.6875 .7062-1.3794 .7062,1.3794 .8163-1.6875 .6851,1.6875c0,0 1.0277-1.5991 1.0277-2.4687s-1.0277-2.4688-1.0277-2.4688l-.6851,1.6875-.8536-1.6875-.6689,1.511-.7062-1.511-.8163,1.6875z" fill="#fff"/>
<path d="m95.1433,1505.6384 1.9175,2.0417-2.5263-.5361z" fill="#fff"/>
<path d="m101.2847,1505.6384-1.9175,2.0417 2.5263-.5361z" fill="#fff"/>
<path d="m93.7473,1495.5457c1.3833.7444 2.6202,1.6751 2.9245,3.7927l-3.853-.9959z"/>
<path d="m102.561,1495.5457c-1.3833.7444-2.6201,1.6751-2.9245,3.7927l3.853-.9959z"/>
</g>
</svg>
