<svg viewBox="0 0 512 512" xmlns="http://www.w3.org/2000/svg">

<g transform="matrix(18.68858,0,0,18.68858,-8398.35331,-21126.0528)">
<path d="m 471.438 1151.77 c 0 1.1909 -3.9315 2.1563 -8.7812 2.1563 s -8.7812 -0.9654 -8.7812 -2.1563 3.9315 -2.1562 8.7812 -2.1562 8.7812 0.9654 8.7812 2.1562 z" fill="#fff" transform="matrix(1.39586,0,0,.88369,-183.24114,134.01578)"/>
<path d="m 471.438 1151.77 c 0 1.1909 -3.9315 2.1563 -8.7812 2.1563 s -8.7812 -0.9654 -8.7812 -2.1563 3.9315 -2.1562 8.7812 -2.1562 8.7812 0.9654 8.7812 2.1562 z" transform="matrix(1.22626,0,0,.69711,-104.77261,348.39636)"/>
<g transform="translate(36.3193,-1.9766)">
<path d="m 420.36 1152.92 c 1.3965 0.7745 10.456 0.6219 11.6922 0.031 3.6029 -1.7214 3.831 -4.8533 1.5278 -8.9613 -5.0488 -9.0051 1.9134 -7.7958 3.3124 -5.3728 l 0.9034 -0.664 c -1.2831 -4.3914 -12.1336 -5.6431 -6.685 6.0368 1.4877 3.1892 0.3994 5.4569 -2.0791 6.9206 -1.0561 -0.4212 -10.8847 -3.1899 -13.3998 -4.4256 -0.0355 1.8477 1.3346 4.553 4.7282 6.435 z" fill="#fff" fill-rule="evenodd"/>
<path d="m 438.092 1141.18 c 0 0.7429 -0.9245 1.3451 -2.065 1.3451 s -2.065 -0.6022 -2.065 -1.3451 0.9245 -1.3451 2.065 -1.3451 2.065 0.6022 2.065 1.3451 z" fill="#fff" transform="matrix(.80864,.81056,-.91691,.91908,1129.5786,-264.95287)"/>
<path d="m 436.917 1138.22 c 0.4877 0.6953 1.2185 1.3729 2.1781 1.56 0.3027 0.029 0.1191 0.5521 -0.1865 0.5478 -1.2662 -0.062 -2.3288 -0.5209 -3.3868 -1.1518" fill="#fff" fill-rule="evenodd"/>
<path d="m 419.066 1148 h 13.4302 v 3.3806 h -13.4302 z" fill="#fff"/>
<path d="m 427.467 1150.73 c 5.5404 -0.8751 6.297 -5.5588 2.6198 -7.0028 -5.3293 -2.0926 -7.177 -0.2823 -12.2257 -1.0262 0.9071 7.0322 4.9517 8.7641 9.6059 8.029 z" fill="#fff" fill-rule="evenodd" stroke="#000"/>
<path d="m 417.135 1148.44 -3.0678 -0.3792 2.7898 2.1284 -1.442 0.6366 4.4205 0.9674" fill="#fff" fill-rule="evenodd"/>
</g>
<path d="m 472.993 1134.99 c 0 0.4524 -0.3668 0.8192 -0.8193 0.8192 s -0.8193 -0.3668 -0.8193 -0.8192 0.3668 -0.8193 0.8193 -0.8193 0.8193 0.3668 0.8193 0.8193 z" stroke="#fff" stroke-width=".7544" transform="matrix(1.32558,0,0,1.32558,-153.54991,-369.10363)"/>
<path d="m 454.779 1141.26 c 1.5283 2.1781 3.9407 2.8256 6.2873 2.6673 -2.3121 1.0614 -5.5754 0.1385 -7.278 -1.7909" fill-rule="evenodd"/>
<path d="m 455.303 1143.5 c 0.8812 1.8524 3.3589 2.3383 4.7944 2.3326 -1.401 1.0153 -4.0206 0.4814 -5.5346 -1.362" fill-rule="evenodd"/>
</g>
</svg>
