<svg viewBox="0 0 512 512" xmlns="http://www.w3.org/2000/svg">

<g transform="matrix(18.68858,0,0,18.68858,-8398.35331,-21126.0528)">
<path d="m471.4375,1151.7684c0,1.1909-3.9315,2.1563-8.7812,2.1563s-8.7812-.9654-8.7812-2.1563 3.9315-2.1562 8.7812-2.1562 8.7812.9654 8.7812,2.1562z" fill="#fff" transform="matrix(1.39586,0,0,.88369,-183.24114,134.01578)"/>
<path d="m471.4375,1151.7684c0,1.1909-3.9315,2.1563-8.7812,2.1563s-8.7812-.9654-8.7812-2.1563 3.9315-2.1562 8.7812-2.1562 8.7812.9654 8.7812,2.1562z" transform="matrix(1.22626,0,0,.69711,-104.77261,348.39636)"/>
<g transform="translate(36.3193,-1.9766)">
<path d="m420.3603,1152.9201c1.3965.7745 10.456.6219 11.6922.031 3.6029-1.7214 3.831-4.8533 1.5278-8.9613-5.0488-9.0051 1.9134-7.7958 3.3124-5.3728l.9034-.664c-1.2831-4.3914-12.1336-5.6431-6.685,6.0368 1.4877,3.1892.3994,5.4569-2.0791,6.9206-1.0561-.4212-10.8847-3.1899-13.3998-4.4256-.0355,1.8477 1.3346,4.553 4.7282,6.435z" fill="#fff" fill-rule="evenodd"/>
<path d="m438.0925,1141.178c0,.7429-.9245,1.3451-2.065,1.3451s-2.065-.6022-2.065-1.3451 .9245-1.3451 2.065-1.3451 2.065.6022 2.065,1.3451z" fill="#fff" transform="matrix(.80864,.81056,-.91691,.91908,1129.5786,-264.95287)"/>
<path d="m436.9174,1138.2247c.4877.6953 1.2185,1.3729 2.1781,1.56 .3027.029.1191.5521-.1865.5478-1.2662-.062-2.3288-.5209-3.3868-1.1518" fill="#fff" fill-rule="evenodd"/>
<path d="m419.066,1148.0046h13.4302v3.3806h-13.4302z" fill="#fff"/>
<path d="m427.4674,1150.7295c5.5404-.8751 6.297-5.5588 2.6198-7.0028-5.3293-2.0926-7.177-.2823-12.2257-1.0262 .9071,7.0322 4.9517,8.7641 9.6059,8.029z" fill="#fff" fill-rule="evenodd" stroke="#000"/>
<path d="m417.1351,1148.4442-3.0678-.3792 2.7898,2.1284-1.442.6366 4.4205.9674" fill="#fff" fill-rule="evenodd"/>
</g>
<path d="m472.9927,1134.9921c0,.4524-.3668.8192-.8193.8192s-.8193-.3668-.8193-.8192 .3668-.8193.8193-.8193 .8193.3668.8193.8193z" stroke="#fff" stroke-width=".7544" transform="matrix(1.32558,0,0,1.32558,-153.54991,-369.10363)"/>
<path d="m454.7787,1141.2603c1.5283,2.1781 3.9407,2.8256 6.2873,2.6673-2.3121,1.0614-5.5754.1385-7.278-1.7909" fill-rule="evenodd"/>
<path d="m455.3025,1143.4998c.8812,1.8524 3.3589,2.3383 4.7944,2.3326-1.401,1.0153-4.0206.4814-5.5346-1.362" fill-rule="evenodd"/>
</g>
</svg>
