<svg viewBox="0 0 512 512" xmlns="http://www.w3.org/2000/svg">

<g transform="matrix(18.68858,0,0,18.68858,-11120.42453,-17932.91597)">
<path d="m605.3259,964.3939c1.5844,1.0734 3.1772,2.1393 3.4421,4.3868-1.8072-1.2559-3.5662-1.4833-5.2673-.4707" fill="none" stroke="#fff"/>
<path d="m609.787,968.3313c-2.6626-3.9951-.5244-11.5738 3.8633-5.9768 4.3651-.281 6.5434,4.6858 3.5212,5.19-2.2079.3684-5.4337,1.5545-5.4337,1.5545" fill="#fff" fill-rule="evenodd" stroke="#000"/>
<path d="m609.9819,968.336c.1693-2.8443 1.7763-5.1405 2.9797-7.2148 1.3682-2.3585 7.255,1.0843 4.3454,3.0965-2.0514,1.4187-4.1702,2.7444-5.8663,4.7376" fill="#fff" fill-rule="evenodd" stroke="#000"/>
<path d="m607.776,969.4084c-.7291-5.1867 8.0737-1.0269 4.2604.9276" fill="#fff" fill-rule="evenodd" stroke="#000"/>
<path d="m600.4361,985.3408c2.8742,1.3302 8.8877,1.6613 12.7319,0 5.357-2.3151 1.6468-14.3619-2.376-15.9056-8.9582-3.4378-16.0735,13.2595-10.356,15.9056z" fill="#fff" fill-rule="evenodd" stroke="#000"/>
</g>
</svg>
