<svg viewBox="0 0 512 512" xmlns="http://www.w3.org/2000/svg">

<g transform="matrix(18.68858,0,0,18.68858,-229.24184,-36766.50789)">
<path d="m 15.2835 1978.17 5.1483 2.9425 0.3507 -2.2297 0.8605 0.3859 0.2837 -1.5949 -4.7681 -2.7597 -3.985 -0.3588 z" fill="#fff"/>
<path d="m 25.5898 1980.31 0.8973 1.1796 6.4114 -1.6882 -0.9784 -3.6125 -6.8479 1.804 c 0.4411 0.6632 1.3114 1.9971 1.3114 1.9971 z" fill="#fff"/>
<path d="m 38.9504 1975.56 -10.0906 2.6881 0.3308 1.282 10.0906 -2.6882 -0.3308 -1.2819 z" fill="#fff"/>
<path d="m 27.2373 1981.97 1.6846 1.1045 -0.0015 0.8442 -0.8369 -0.019 z" fill="#fff"/>
<path d="m 20.845 1985.81 -2.2885 1.5004 0.002 1.1469 1.137 -0.026 z" fill="#fff"/>
<path d="m 17.6693 1994.22 h 5.9538 c 4.2676 -8.0372 3.3796 -19.3275 -2.7985 -26.5049 2.2163 8.4563 3.3512 19.4369 -3.1553 26.5049 z" fill="#fff" stroke="#000"/>
<path d="m 34.0633 1982.74 c 2.6404 -4.0383 1.5403 -8.1435 -2.7653 -10.3202 z" fill="#fff" stroke="#000"/>
<path d="m 33.4587 1981.25 2.0861 -0.5589" fill="none" stroke="#fff"/>
<path d="m 31.5451 1974.11 2.0862 -0.559" fill="none" stroke="#fff"/>
<path d="m 21.5763 1981.73 -2.4643 2.3548 1.6429 0.6571 z" fill="#fff"/>
<path d="m 29.2096 1985.44 1.8222 2.0416 -0.667 0.6863 -1.1442 -0.8452 z" fill="#fff"/>
<path d="m 29.7816 1984.06 1.7572 0.5941 1.291 0.9804 -1.5713 0.5765 z" fill="#fff"/>
<path d="m 18.5665 1985.39 -1.3935 1.2244 -1.4945 0.6279 0.2863 -1.6492 z" fill="#fff"/>
<path d="m 17.4591 1990.82 -0.48 -1.6795 -1.2763 0.8653 0.3194 1.0914 z" fill="#fff"/>
<path d="m 22.7224 1984.66 2.7899 -1.8806 c -0.187 -4.9129 -1.8043 -11.8475 -4.5524 -14.5192 1.9024 4.5571 2.3981 11.2927 1.7626 16.3998 z" fill="#fff"/>
<path d="m 39.1138 1973.9 v 4.4357" fill="none" stroke="#000"/>
<path d="m 26.875 1983.91 c -0.5742 3.3425 -2.9821 6.9599 -5.7812 9.8126 h 2.9688 c 2.115 -3.0546 3.7805 -7.2484 2.8125 -9.8126 z" fill="#fff"/>
<path d="m 22.7678 1983.91 c -0.5742 3.3425 -2.9821 6.9599 -5.7812 9.8126 h 2.9688 c 2.115 -3.0546 3.7805 -7.2484 2.8125 -9.8126 z" fill="#fff"/>
</g>
</svg>
