<svg viewBox="0 0 512 512" xmlns="http://www.w3.org/2000/svg">

<g transform="matrix(18.68858,0,0,18.68858,-11803.6158,-31998.64185)">
<path d="m635.0706,1724.5497c0,.5506-.4464.997-.9971.997s-.9971-.4464-.9971-.997 .4464-.9971.9971-.9971 .9971.4464.9971.9971z" fill="#fff" stroke="#000" stroke-width=".726" transform="matrix(1.37736,0,0,1.37736,-233.00846,-656.92513)"/>
<path d="m644.8328,1720.4375 7.62,5.3316 .7362,1.6793-1.8562-.1346-7.5936-5.3133" stroke="#fff"/>
<path d="m642.8574,1722.9163 2.5338-3.6208" fill="none" stroke="#fff"/>
<path d="m644.1637,1721.1336-3.2743-2.2912" fill="none" stroke="#fff"/>
<path d="m635.0706,1724.5497c0,.5506-.4464.997-.9971.997s-.9971-.4464-.9971-.997 .4464-.9971.9971-.9971 .9971.4464.9971.9971z" fill="#fff" stroke="#000" stroke-width=".726" transform="matrix(1.37736,0,0,1.37736,-230.93908,-660.72524)"/>
<path d="m647.2595,1715.2989 8.7404,3.1778 1.1458,1.4316-1.8278.3503-8.7102-3.1669" stroke="#fff"/>
<path d="m645.993,1718.2044 1.5103-4.1531" fill="none" stroke="#fff"/>
<path d="m646.7934,1716.1443-3.7558-1.3656" fill="none" stroke="#fff"/>
<path d="m635.0706,1724.5497c0,.5506-.4464.997-.9971.997s-.9971-.4464-.9971-.997 .4464-.9971.9971-.9971 .9971.4464.9971.9971z" fill="#fff" stroke="#000" stroke-width=".726" transform="matrix(1.37736,0,0,1.37736,-235.83032,-653.50126)"/>
<path d="m639.7426,1725.8678 5.9803,7.122 1.7375.5859-.297-1.8371-5.9597-7.0974" stroke="#fff"/>
<path d="m642.0385,1723.6826-3.3847,2.8416" fill="none" stroke="#fff"/>
<path d="m640.3772,1725.1402-2.5698-3.0603" fill="none" stroke="#fff"/>
<path d="m635.0706,1724.5497c0,.5506-.4464.997-.9971.997s-.9971-.4464-.9971-.997 .4464-.9971.9971-.9971 .9971.4464.9971.9971z" fill="#fff" stroke="#000" stroke-width=".726" transform="matrix(1.37736,0,0,1.37736,-239.46114,-651.14973)"/>
<path d="m634.8577,1728.6115 3.9331,8.427 1.5267,1.0156 .1886-1.8514-3.9196-8.3979" stroke="#fff"/>
<path d="m637.641,1727.0949-4.0049,1.8689" fill="none" stroke="#fff"/>
<path d="m635.659,1728.073-1.6902-3.6212" fill="none" stroke="#fff"/>
<path d="m653.7511,1719.6931 1.7481-.3653-1.1303-1.3931" fill="none" stroke="#fff"/>
<path d="m649.9141,1726.3203 1.7831.1-.7312-1.6382" fill="none" stroke="#fff"/>
<path d="m644.5817,1731.6036 1.6965.5581-.2823-1.7716" fill="none" stroke="#fff"/>
<path d="m638.0199,1735.3722 1.4942.9782 .1858-1.7844" fill="none" stroke="#fff"/>
</g>
</svg>
