<svg viewBox="0 0 512 512" xmlns="http://www.w3.org/2000/svg">

<g transform="matrix(18.68858,0,0,18.68858,-13164.89059,-25182.738)">
<path d="m717.4688,1358.5625c-4.6876.8616-8.7675,4.4917-10.375,8.9687-.5693-.064-1.1572.095-1.5938.5313-.7615.7615-.7615,1.9885 0,2.75s1.9885.7615 2.75,0c.5287-.5287.6741-1.2694.4688-1.9375 4.4032-1.643 7.9117-5.6664 8.75-10.3125z" fill="#fff" stroke="#000"/>
<path d="m712.2906,1353.4538c-3.1719,3.1718 7.5001,13.1331 10.3166,10.3166 1.859-1.859 1.0567-5.6755-1.7922-8.5244s-6.6654-3.6512-8.5244-1.7922z" fill="#fff" stroke="#000"/>
<path d="m717.9694,1358.9965-1.9381,1.9327c1.7561,1.4808 3.3669,3.8561.4021,5.227-2.4198,1.119-5.3835,3.7625-4.5583,7.2813 1.9404-7.0845 10.0416-3.7417 11.1562-11.4375z" fill="#fff"/>
<path d="m725.1937,1348.0626-8.3887,7.4748c1.4595,1.4178 2.8794,3.4149 3.2075,5.2548l11.2586-11.6784v-1.1858" fill="#fff" stroke="#000"/>
<path d="m713.5181,1348.0364h17.802v7.8" fill="none" stroke="#000"/>
<path d="m718.5944,1358.0617 10.3448-10.0282" fill="none" stroke="#000"/>
<path d="m708.6836,1369.1753c-1.028.01-1.8222-1.026-1.8602-1.8416" fill="none" stroke="#000"/>
</g>
</svg>
