<svg viewBox="0 0 512 512" xmlns="http://www.w3.org/2000/svg">

<g transform="matrix(18.68858,0,0,18.68858,-11121.46977,-33370.52379)">
<path d="m606.528,1803.7473h4.8611c0,3.4097 1.7189,5.7742 4.5391,7.6892h-13.708c2.3671-1.9176 4.3079-4.2878 4.3079-7.6892z" fill="#fff"/>
<path d="m614.7156,1801.4226v3.9717c1.2594-.3083 2.5189-1.0515 3.7783-2.1469-1.2594-1.1139-2.4889-1.6425-3.7783-1.8248z" fill="#fff" fill-rule="evenodd"/>
<path d="m598.0664,1801.0325h6.0957v4.1471c-2.4758-.05-5.0519-1.6146-6.0957-4.1471z" fill="#fff" fill-rule="evenodd"/>
<path d="m602.8247,1799.9443h12.4988v6.8268h-12.4988v-6.8268z" fill="#fff"/>
<path d="m601.467,1811.4242h15.2142" fill="none" stroke="#fff"/>
<path d="m614.5995,1791.7041c-6.3108-1.6758-12.1457-3.0665-18.681-2.9674 5.4184,3.4029 11.4001,4.9432 17.7024,6.6198l.9787-3.6524z" fill="#fff" fill-rule="evenodd"/>
<path d="m621.4402,1794.8079-.3887,1.4506c-1.7738-.8882-3.6393-1.4346-5.6312-1.5089l.3887-1.4505c1.74,1.0145 3.6464,1.4077 5.6311,1.5088z" fill="#fff"/>
<path d="m615.821,1791.58c-6.8615-1.8769-13.1096-3.5024-20.1311-3.2776m-.0594.8324c5.718,3.6988 12.0925,5.1969 18.7914,7.029" fill="none" stroke="#000"/>
<path d="m621.0904,1795.2582c0,.5141-.4168.9308-.9308.9308s-.9308-.4167-.9308-.9308 .4167-.9308.9308-.9308 .9308.4167.9308.9308z" fill="#fff" transform="matrix(.90671,.24295,-.43137,1.60988,832.60464,-1245.4403)"/>
<path d="m616.3482,1789.9924-2.1024,7.8463" fill="none" stroke="#fff"/>
<path d="m613.1689,1792.5226c0,.6819-.5528,1.2348-1.2348,1.2348s-1.2348-.5529-1.2348-1.2348 .5528-1.2348 1.2348-1.2348 1.2348.5528 1.2348,1.2348z" stroke="#fff" stroke-width=".9032" transform="matrix(1.10716,1.0519628e-8,-1.0519628e-8,1.10716,-63.72698,-191.14322)"/>
<path d="m614.0688,1792.6619c-3.0968-.8298-5.8982-1.5525-9.0676-1.5049 2.6077,1.6379 5.4982,2.3147 8.551,3.1347" fill-rule="evenodd"/>
</g>
</svg>
