<svg viewBox="0 0 512 512" xmlns="http://www.w3.org/2000/svg">

<g transform="matrix(18.68858,0,0,18.68858,-6362.46035,-44230.57933)">
<path d="m346.9547,2368.8096c0,.5974-.4843,1.0818-1.0818,1.0818s-1.0818-.4844-1.0818-1.0818 .4843-1.0818 1.0818-1.0818 1.0818.4843 1.0818,1.0818z" fill="#fff" stroke="#000" stroke-width=".8041" transform="matrix(1.24359,0,0,1.24359,-84.22335,-577.19801)"/>
<path d="m-588.7347,2325.4719h3.0779v12.713h-3.0779z" fill="#fff" transform="matrix(.92383,-.38281,.38281,.92383,0,0)"/>
<path d="m366.2894,2393.6784h-19.7426l1.7272-7.1061 3.6905-1.9801 3.1903-4.3697 4.2767-.1876 2.2631,7.6212 3.5554,1.6123z" fill="#fff" stroke="#000"/>
<path d="m366.0305,2389.6326-9.8779-3.2626" fill="none" stroke="#000"/>
<path d="m344.2631,2377.0387c2.2569-1.7768 6.1697-3.4993 8.8449-3.6552-4.5555-3.6229-8.5645-1.905-8.8449,3.6552z" fill="#fff" stroke="#000"/>
<path d="m345.6548,2368.1053 2.4932,5.9705" fill="none" stroke="#fff"/>
<path d="m352.2009,2372.5628-4.4889.6695-3.5286,2.6466" fill="none" stroke="#fff"/>
</g>
</svg>
