<svg viewBox="0 0 512 512" xmlns="http://www.w3.org/2000/svg">

<g transform="matrix(18.68858,0,0,18.68858,-229.24184,-36766.50789)">
<path d="m15.2835,1978.1673 5.1483,2.9425 .3507-2.2297 .8605.3859 .2837-1.5949-4.7681-2.7597-3.985-.3588z" fill="#fff"/>
<path d="m25.5898,1980.3149 .8973,1.1796 6.4114-1.6882-.9784-3.6125-6.8479,1.804c.4411.6632 1.3114,1.9971 1.3114,1.9971z" fill="#fff"/>
<path d="m38.9504,1975.5625-10.0906,2.6881 .3308,1.282 10.0906-2.6882-.3308-1.2819z" fill="#fff"/>
<path d="m27.2373,1981.9683 1.6846,1.1045-.0015.8442-.8369-.019z" fill="#fff"/>
<path d="m20.845,1985.8145-2.2885,1.5004 .002,1.1469 1.137-.026z" fill="#fff"/>
<path d="m17.6693,1994.2173h5.9538c4.2676-8.0372 3.3796-19.3275-2.7985-26.5049 2.2163,8.4563 3.3512,19.4369-3.1553,26.5049z" fill="#fff" stroke="#000"/>
<path d="m34.0633,1982.7376c2.6404-4.0383 1.5403-8.1435-2.7653-10.3202z" fill="#fff" stroke="#000"/>
<path d="m33.4587,1981.2521 2.0861-.5589" fill="none" stroke="#fff"/>
<path d="m31.5451,1974.1109 2.0862-.559" fill="none" stroke="#fff"/>
<path d="m21.5763,1981.7298-2.4643,2.3548 1.6429.6571z" fill="#fff"/>
<path d="m29.2096,1985.4433 1.8222,2.0416-.667.6863-1.1442-.8452z" fill="#fff"/>
<path d="m29.7816,1984.0625 1.7572.5941 1.291.9804-1.5713.5765z" fill="#fff"/>
<path d="m18.5665,1985.3859-1.3935,1.2244-1.4945.6279 .2863-1.6492z" fill="#fff"/>
<path d="m17.4591,1990.815-.48-1.6795-1.2763.8653 .3194,1.0914z" fill="#fff"/>
<path d="m22.7224,1984.66 2.7899-1.8806c-.187-4.9129-1.8043-11.8475-4.5524-14.5192 1.9024,4.5571 2.3981,11.2927 1.7626,16.3998z" fill="#fff"/>
<path d="m39.1138,1973.8988v4.4357" fill="none" stroke="#000"/>
<path d="m26.875,1983.9062c-.5742,3.3425-2.9821,6.9599-5.7812,9.8126h2.9688c2.115-3.0546 3.7805-7.2484 2.8125-9.8126z" fill="#fff"/>
<path d="m22.7678,1983.9062c-.5742,3.3425-2.9821,6.9599-5.7812,9.8126h2.9688c2.115-3.0546 3.7805-7.2484 2.8125-9.8126z" fill="#fff"/>
</g>
</svg>
