<svg viewBox="0 0 512 512" xmlns="http://www.w3.org/2000/svg">

<g transform="matrix(18.68858,0,0,18.68858,-8398.28947,-16571.27528)">
<path d="m450.3373,913.031 5.5797-1.4775c4.3038-5.5016 8.2148-9.9085 13.2414-14.2118l-3.101-3.101c-4.2943,5.0917-9.1612,9.2115-14.2118,13.2985l-1.5082,5.4919z" fill="#fff"/>
<g transform="matrix(-1.10399,-1.10399,-1.22323,1.22323,1605.7589,816.84732)">
<path d="m478.91,491.5236h1.6175c-.4295,2.0932-.478,4.1865 0,6.2797h-1.6175c.5704-2.0932.4481-4.1865 0-6.2797z" fill="#fff"/>
</g>
<path d="m-969.3324-303.4803h10.5276v1.9311h-10.5276z" fill="#fff" transform="matrix(-.70711,-.70711,.70711,-.70711,0,0)"/>
<path d="m452.7967,910.6776 14.2747-14.2747" fill="none" stroke="#000"/>
<g transform="matrix(-.78409,.78409,-.78409,-.78409,1534.3128,1317.8753)">
<path d="m415.5843,937.7463 1e-05,20.25h2.4184c-.0571-6.7069.1708-13.4801.3455-20.25h-2.7639z" fill="#fff" stroke="#000" stroke-width=".9018"/>
<path d="m419.6629,961.8554-5.7083,2e-05c-1e-05-2.3493 1.2787-4.256 2.8541-4.256s2.8542,1.9067 2.8542,4.256z" fill="none" stroke="#fff" stroke-width=".9018"/>
<path d="m414.1779,960.4705h5.3643v1.1822h-5.3643z" fill="#fff"/>
<path d="m416.9504,933.6611c-2.0754.5024-3.7161,3.6411-3.7161,7.4784 2.2671-.482 5.3825-.5134 7.4322,1e-05 1e-05-3.8656-1.6184-7.012-3.7161-7.4784z" fill="#fff"/>
</g>
<path d="m473.7836,898.0875c-.9532-.9532-2.4656-.9532-3.4188,0s-.9791,2.4915-.0259,3.4447c.2294.2294.4954.399.777.518-.3575-.882-.171-1.9528.5439-2.6677s1.7598-.8755 2.6419-.518c-.119-.2816-.2887-.5476-.518-.777z" fill="#fff"/>
<path d="m461.8207,893.1154c.9532.9532 2.4656.9532 3.4188,0s.9791-2.4915.0259-3.4447c-.2294-.2294-.4954-.399-.777-.518 .3575.882.171,1.9528-.5439,2.6677s-1.7598.8755-2.6419.518c.119.2816.2887.5476.518.777z" fill="#fff"/>
</g>
</svg>
