<svg viewBox="0 0 512 512" xmlns="http://www.w3.org/2000/svg">

<g transform="matrix(0,-18.68858,18.68858,0,-35398.12989,4826.15287)">
<path d="m 1572.74 1082.45 h 8.4263 v 2.963 h -8.4263 c -1.0402 -0.9253 -1.0283 -2.1035 0 -2.963 z" fill="#fff" stroke="#000" transform="matrix(.66354,.74814,-.74817,.66351,0,0)"/>
<path d="m 1579.41 1079.86 h 4.1577 v 8.0669 h -4.1577 z" fill="#fff" stroke="#000" transform="matrix(.66354,.74814,-.74817,.66351,0,0)"/>
<path d="m 240 1901.44 -2.7188 2.4063 7.1562 8.0624 2.5625 -2.5937 z" fill="#fff" stroke="#000"/>
<path d="m 244.444 1902.14 3.9083 -3.6407 -0.8608 2.1989 4.7842 -3.7282 -2.6388 4.6257 7.2068 -5.4598 -4.1447 6.9197 -1.6289 1.2184" fill="#fff"/>
<path d="m 255.837 1910.86 c 0 4.3336 -3.513 7.8466 -7.8466 7.8466 s -7.8466 -3.513 -7.8466 -7.8466 3.513 -7.8466 7.8466 -7.8466 7.8466 3.5131 7.8466 7.8466 z" fill="#fff" stroke="#000" transform="translate(-2.3731,-1.0717)"/>
<path d="m 251.351 1903.92 5.6828 -4.3282 -3.4052 6.3431 3.4762 -1.6125 -6.6235 8.3255 c 0 0 2.9347 3.7369 6.5496 7.9741 -2.8129 0.2774 -4.2607 0.6877 -6.0625 -1.3438 l -4.0789 -4.5762 c 0.6259 -0.5146 1.3124 -1.0564 1.9519 -1.6959" fill="#fff"/>
<path d="m 249.73 1912.37 7.3013 8.2519 c -2.8129 0.2774 -4.2607 0.6877 -6.0625 -1.3438 l -4.0789 -4.5762 c 3.1456 -1.6878 6.6519 -7.2071 4.1611 -10.595" fill="none" stroke="#000"/>
<path d="m 249.786 1914.38 6.811 -6.3512 -4.0278 1.4392 -3.4869 4.2901 z" fill="#fff"/>
<path d="m 231.647 1897.58 4.4018 -0.9187 -1.6842 4.2487" fill="none" stroke="#000"/>
</g>
</svg>
