<svg viewBox="0 0 512 512" xmlns="http://www.w3.org/2000/svg">

<g transform="matrix(18.68858,0,0,18.68858,-4994.75312,-33369.19877)">
<path d="m294.4278,1799.1415c0,6.6673-5.405,12.0723-12.0723,12.0723s-12.0723-5.405-12.0723-12.0723 5.405-12.0723 12.0723-12.0723 12.0723,5.4049 12.0723,12.0723z" fill="none" stroke="#fff" stroke-width=".9987" transform="matrix(.50067,.86719,.86719,-.50067,-1420.4635,2455.1384)"/>
<path d="m294.4278,1799.1415c0,6.2248-4.7331,11.4291-10.93,12.0181l-1.1423-12.0181z" transform="matrix(.50067,.86719,.86719,-.50067,-1419.954,2454.0836)"/>
<path d="m294.4278,1799.1415c0,6.6673-5.405,12.0723-12.0723,12.0723s-12.0723-5.405-12.0723-12.0723 5.405-12.0723 12.0723-12.0723 12.0723,5.4049 12.0723,12.0723z" fill="none" stroke="#fff" stroke-width="1.3726" transform="matrix(.36427,.63094,.63094,-.36427,-956.88284,2276.21)"/>
<path d="m294.4278,1799.1415c0,5.2093-3.3148,9.7039-8.0282,11.3769l-4.0441-11.3769z" transform="matrix(.37797,.71346,.75832,-.40436,-1190.5379,2323.6929)"/>
<path d="m272.6304,1805.5379 5.9278-3.4225" fill="none" stroke="#fff"/>
<path d="m276.3828,1800.324 2.6391,4.5713" fill="none" stroke="#fff"/>
<path d="m292.1377,1793.1161-3.5696,1.5344c-2.6284,2.7884-7.5705,5.6266-11.2207,6.9234l.9963,1.7257c1.3176-1.3177 3.0887-1.4862 3.5869-.5215 5.0205-1.7443 12.3808-5.8971 10.2071-9.662z" fill="#fff"/>
<path d="m284.4337,1794.8022c0,.7323-.5936,1.3259-1.3258,1.3259s-1.3258-.5936-1.3258-1.3259 .5936-1.3258 1.3258-1.3258 1.3258.5936 1.3258,1.3258z" transform="matrix(.825,0,0,.825,56.64809,313.26728)"/>
</g>
</svg>
