<svg viewBox="0 0 512 512" xmlns="http://www.w3.org/2000/svg">

<g transform="matrix(18.68858,0,0,18.68858,-11121.46977,-33370.52379)">
<path d="m 606.528 1803.75 h 4.8611 c 0 3.4097 1.7189 5.7742 4.5391 7.6892 h -13.708 c 2.3671 -1.9176 4.3079 -4.2878 4.3079 -7.6892 z" fill="#fff"/>
<path d="m 614.716 1801.42 v 3.9717 c 1.2594 -0.3083 2.5189 -1.0515 3.7783 -2.1469 -1.2594 -1.1139 -2.4889 -1.6425 -3.7783 -1.8248 z" fill="#fff" fill-rule="evenodd"/>
<path d="m 598.066 1801.03 h 6.0957 v 4.1471 c -2.4758 -0.05 -5.0519 -1.6146 -6.0957 -4.1471 z" fill="#fff" fill-rule="evenodd"/>
<path d="m 602.825 1799.94 h 12.4988 v 6.8268 h -12.4988 v -6.8268 z" fill="#fff"/>
<path d="m 601.467 1811.42 h 15.2142" fill="none" stroke="#fff"/>
<path d="m 614.6 1791.7 c -6.3108 -1.6758 -12.1457 -3.0665 -18.681 -2.9674 5.4184 3.4029 11.4001 4.9432 17.7024 6.6198 l 0.9787 -3.6524 z" fill="#fff" fill-rule="evenodd"/>
<path d="m 621.44 1794.81 -0.3887 1.4506 c -1.7738 -0.8882 -3.6393 -1.4346 -5.6312 -1.5089 l 0.3887 -1.4505 c 1.74 1.0145 3.6464 1.4077 5.6311 1.5088 z" fill="#fff"/>
<path d="m 615.821 1791.58 c -6.8615 -1.8769 -13.1096 -3.5024 -20.1311 -3.2776 m -0.0594 0.8324 c 5.718 3.6988 12.0925 5.1969 18.7914 7.029" fill="none" stroke="#000"/>
<path d="m 621.09 1795.26 c 0 0.5141 -0.4168 0.9308 -0.9308 0.9308 s -0.9308 -0.4167 -0.9308 -0.9308 0.4167 -0.9308 0.9308 -0.9308 0.9308 0.4167 0.9308 0.9308 z" fill="#fff" transform="matrix(.90671,.24295,-.43137,1.60988,832.60464,-1245.4403)"/>
<path d="m 616.348 1789.99 -2.1024 7.8463" fill="none" stroke="#fff"/>
<path d="m 613.169 1792.52 c 0 0.6819 -0.5528 1.2348 -1.2348 1.2348 s -1.2348 -0.5529 -1.2348 -1.2348 0.5528 -1.2348 1.2348 -1.2348 1.2348 0.5528 1.2348 1.2348 z" stroke="#fff" stroke-width=".9032" transform="matrix(1.10716,1.0519628e-8,-1.0519628e-8,1.10716,-63.72698,-191.14322)"/>
<path d="m 614.069 1792.66 c -3.0968 -0.8298 -5.8982 -1.5525 -9.0676 -1.5049 2.6077 1.6379 5.4982 2.3147 8.551 3.1347" fill-rule="evenodd"/>
</g>
</svg>
