<svg viewBox="0 0 512 512" xmlns="http://www.w3.org/2000/svg">

<g transform="matrix(18.68858,0,0,18.68858,-13164.89059,-25182.738)">
<path d="m 717.469 1358.56 c -4.6876 0.8616 -8.7675 4.4917 -10.375 8.9687 -0.5693 -0.064 -1.1572 0.095 -1.5938 0.5313 -0.7615 0.7615 -0.7615 1.9885 0 2.75 s 1.9885 0.7615 2.75 0 c 0.5287 -0.5287 0.6741 -1.2694 0.4688 -1.9375 4.4032 -1.643 7.9117 -5.6664 8.75 -10.3125 z" fill="#fff" stroke="#000"/>
<path d="m 712.291 1353.45 c -3.1719 3.1718 7.5001 13.1331 10.3166 10.3166 1.859 -1.859 1.0567 -5.6755 -1.7922 -8.5244 s -6.6654 -3.6512 -8.5244 -1.7922 z" fill="#fff" stroke="#000"/>
<path d="m 717.969 1359 -1.9381 1.9327 c 1.7561 1.4808 3.3669 3.8561 0.4021 5.227 -2.4198 1.119 -5.3835 3.7625 -4.5583 7.2813 1.9404 -7.0845 10.0416 -3.7417 11.1562 -11.4375 z" fill="#fff"/>
<path d="m 725.194 1348.06 -8.3887 7.4748 c 1.4595 1.4178 2.8794 3.4149 3.2075 5.2548 l 11.2586 -11.6784 v -1.1858" fill="#fff" stroke="#000"/>
<path d="m 713.518 1348.04 h 17.802 v 7.8" fill="none" stroke="#000"/>
<path d="m 718.594 1358.06 10.3448 -10.0282" fill="none" stroke="#000"/>
<path d="m 708.684 1369.18 c -1.028 0.01 -1.8222 -1.026 -1.8602 -1.8416" fill="none" stroke="#000"/>
</g>
</svg>
