<svg viewBox="0 0 512 512" xmlns="http://www.w3.org/2000/svg">

<g transform="matrix(18.68858,0,0,18.68858,-7717.15039,-1383.01211)">
<path d="m 426.265 93.35 -2.4724 4.1863 0.4179 1.2631 1.486 -0.6067 z" fill="#fff"/>
<path d="m 427.112 93.3938 4.5123 4.4373 0.1882 1.7113 -1.9518 -0.5503 z" fill="#fff"/>
<path d="m 415.483 75.4921 c 0.9929 12.4469 13.9354 19.2257 24.4198 22.9179 v -5.527 c -7.2472 -4.0982 -16.8889 -10.9367 -24.4198 -17.3908 z" fill="#fff" stroke="#000"/>
<path d="m 439.881 95.5712 c -7.4587 -3.0196 -18.0426 -9.2795 -18.0711 -15.9232" fill="none" stroke="#000"/>
<path d="m 426.782 82.5284 1.5799 -6.5837 1.2309 -0.5703 0.442 1.1614 z" fill="#fff"/>
<path d="m 437.66 75.4921 c -7.4449 6.3804 -16.9511 13.1605 -24.1657 17.27 v 5.5573 c 10.4367 -3.7056 23.1804 -10.4757 24.1657 -22.8273 z" fill="#fff" stroke="#000"/>
<path d="m 413.396 95.5535 c 7.4522 -3.0169 18.0268 -9.2713 18.0553 -15.9092" fill="none" stroke="#000"/>
<path d="m 426.104 82.579 -2.1775 -3.909 0.4558 -1.4882 1.3544 0.8323 z" fill="#fff"/>
</g>
</svg>
