<svg viewBox="0 0 512 512" xmlns="http://www.w3.org/2000/svg">

<g transform="matrix(18.68858,0,0,18.68858,-11803.6158,-31998.64185)">
<path d="m 635.071 1724.55 c 0 0.5506 -0.4464 0.997 -0.9971 0.997 s -0.9971 -0.4464 -0.9971 -0.997 0.4464 -0.9971 0.9971 -0.9971 0.9971 0.4464 0.9971 0.9971 z" fill="#fff" stroke="#000" stroke-width=".726" transform="matrix(1.37736,0,0,1.37736,-233.00846,-656.92513)"/>
<path d="m 644.833 1720.44 7.62 5.3316 0.7362 1.6793 -1.8562 -0.1346 -7.5936 -5.3133" stroke="#fff"/>
<path d="m 642.857 1722.92 2.5338 -3.6208" fill="none" stroke="#fff"/>
<path d="m 644.164 1721.13 -3.2743 -2.2912" fill="none" stroke="#fff"/>
<path d="m 635.071 1724.55 c 0 0.5506 -0.4464 0.997 -0.9971 0.997 s -0.9971 -0.4464 -0.9971 -0.997 0.4464 -0.9971 0.9971 -0.9971 0.9971 0.4464 0.9971 0.9971 z" fill="#fff" stroke="#000" stroke-width=".726" transform="matrix(1.37736,0,0,1.37736,-230.93908,-660.72524)"/>
<path d="m 647.26 1715.3 8.7404 3.1778 1.1458 1.4316 -1.8278 0.3503 -8.7102 -3.1669" stroke="#fff"/>
<path d="m 645.993 1718.2 1.5103 -4.1531" fill="none" stroke="#fff"/>
<path d="m 646.793 1716.14 -3.7558 -1.3656" fill="none" stroke="#fff"/>
<path d="m 635.071 1724.55 c 0 0.5506 -0.4464 0.997 -0.9971 0.997 s -0.9971 -0.4464 -0.9971 -0.997 0.4464 -0.9971 0.9971 -0.9971 0.9971 0.4464 0.9971 0.9971 z" fill="#fff" stroke="#000" stroke-width=".726" transform="matrix(1.37736,0,0,1.37736,-235.83032,-653.50126)"/>
<path d="m 639.743 1725.87 5.9803 7.122 1.7375 0.5859 -0.297 -1.8371 -5.9597 -7.0974" stroke="#fff"/>
<path d="m 642.038 1723.68 -3.3847 2.8416" fill="none" stroke="#fff"/>
<path d="m 640.377 1725.14 -2.5698 -3.0603" fill="none" stroke="#fff"/>
<path d="m 635.071 1724.55 c 0 0.5506 -0.4464 0.997 -0.9971 0.997 s -0.9971 -0.4464 -0.9971 -0.997 0.4464 -0.9971 0.9971 -0.9971 0.9971 0.4464 0.9971 0.9971 z" fill="#fff" stroke="#000" stroke-width=".726" transform="matrix(1.37736,0,0,1.37736,-239.46114,-651.14973)"/>
<path d="m 634.858 1728.61 3.9331 8.427 1.5267 1.0156 0.1886 -1.8514 -3.9196 -8.3979" stroke="#fff"/>
<path d="m 637.641 1727.09 -4.0049 1.8689" fill="none" stroke="#fff"/>
<path d="m 635.659 1728.07 -1.6902 -3.6212" fill="none" stroke="#fff"/>
<path d="m 653.751 1719.69 1.7481 -0.3653 -1.1303 -1.3931" fill="none" stroke="#fff"/>
<path d="m 649.914 1726.32 1.7831 0.1 -0.7312 -1.6382" fill="none" stroke="#fff"/>
<path d="m 644.582 1731.6 1.6965 0.5581 -0.2823 -1.7716" fill="none" stroke="#fff"/>
<path d="m 638.02 1735.37 1.4942 0.9782 0.1858 -1.7844" fill="none" stroke="#fff"/>
</g>
</svg>
