<svg viewBox="0 0 512 512" xmlns="http://www.w3.org/2000/svg">

<g transform="matrix(18.68858,0,0,18.68858,-7717.15039,-1383.01211)">
<path d="m426.2649,93.35-2.4724,4.1863 .4179,1.2631 1.486-.6067z" fill="#fff"/>
<path d="m427.1118,93.3938 4.5123,4.4373 .1882,1.7113-1.9518-.5503z" fill="#fff"/>
<path d="m415.4827,75.4921c.9929,12.4469 13.9354,19.2257 24.4198,22.9179v-5.527c-7.2472-4.0982-16.8889-10.9367-24.4198-17.3908z" fill="#fff" stroke="#000"/>
<path d="m439.8809,95.5712c-7.4587-3.0196-18.0426-9.2795-18.0711-15.9232" fill="none" stroke="#000"/>
<path d="m426.7818,82.5284 1.5799-6.5837 1.2309-.5703 .442,1.1614z" fill="#fff"/>
<path d="m437.66,75.4921c-7.4449,6.3804-16.9511,13.1605-24.1657,17.27v5.5573c10.4367-3.7056 23.1804-10.4757 24.1657-22.8273z" fill="#fff" stroke="#000"/>
<path d="m413.3958,95.5535c7.4522-3.0169 18.0268-9.2713 18.0553-15.9092" fill="none" stroke="#000"/>
<path d="m426.1036,82.579-2.1775-3.909 .4558-1.4882 1.3544.8323z" fill="#fff"/>
</g>
</svg>
