<svg viewBox="0 0 512 512" xmlns="http://www.w3.org/2000/svg">

<g transform="matrix(0,-18.68858,18.68858,0,-35398.12989,4826.15287)">
<path d="m1572.7394,1082.454h8.4263v2.963h-8.4263c-1.0402-.9253-1.0283-2.1035 0-2.963z" fill="#fff" stroke="#000" transform="matrix(.66354,.74814,-.74817,.66351,0,0)"/>
<path d="m1579.4103,1079.8573h4.1577v8.0669h-4.1577z" fill="#fff" stroke="#000" transform="matrix(.66354,.74814,-.74817,.66351,0,0)"/>
<path d="m240,1901.4375-2.7188,2.4063 7.1562,8.0624 2.5625-2.5937z" fill="#fff" stroke="#000"/>
<path d="m244.4438,1902.1383 3.9083-3.6407-.8608,2.1989 4.7842-3.7282-2.6388,4.6257 7.2068-5.4598-4.1447,6.9197-1.6289,1.2184" fill="#fff"/>
<path d="m255.8374,1910.8568c0,4.3336-3.513,7.8466-7.8466,7.8466s-7.8466-3.513-7.8466-7.8466 3.513-7.8466 7.8466-7.8466 7.8466,3.5131 7.8466,7.8466z" fill="#fff" stroke="#000" transform="translate(-2.3731,-1.0717)"/>
<path d="m251.3514,1903.9234 5.6828-4.3282-3.4052,6.3431 3.4762-1.6125-6.6235,8.3255c0,0 2.9347,3.7369 6.5496,7.9741-2.8129.2774-4.2607.6877-6.0625-1.3438l-4.0789-4.5762c.6259-.5146 1.3124-1.0564 1.9519-1.6959" fill="#fff"/>
<path d="m249.7299,1912.3731 7.3013,8.2519c-2.8129.2774-4.2607.6877-6.0625-1.3438l-4.0789-4.5762c3.1456-1.6878 6.6519-7.2071 4.1611-10.595" fill="none" stroke="#000"/>
<path d="m249.7856,1914.3775 6.811-6.3512-4.0278,1.4392-3.4869,4.2901z" fill="#fff"/>
<path d="m231.6469,1897.575 4.4018-.9187-1.6842,4.2487" fill="none" stroke="#000"/>
</g>
</svg>
