<svg viewBox="0 0 512 512" xmlns="http://www.w3.org/2000/svg">

<g transform="matrix(18.68858,0,0,18.68858,-6362.46035,-44230.57933)">
<path d="m 346.955 2368.81 c 0 0.5974 -0.4843 1.0818 -1.0818 1.0818 s -1.0818 -0.4844 -1.0818 -1.0818 0.4843 -1.0818 1.0818 -1.0818 1.0818 0.4843 1.0818 1.0818 z" fill="#fff" stroke="#000" stroke-width=".8041" transform="matrix(1.24359,0,0,1.24359,-84.22335,-577.19801)"/>
<path d="m -588.735 2325.47 h 3.0779 v 12.713 h -3.0779 z" fill="#fff" transform="matrix(.92383,-.38281,.38281,.92383,0,0)"/>
<path d="m 366.289 2393.68 h -19.7426 l 1.7272 -7.1061 3.6905 -1.9801 3.1903 -4.3697 4.2767 -0.1876 2.2631 7.6212 3.5554 1.6123 z" fill="#fff" stroke="#000"/>
<path d="m 366.031 2389.63 -9.8779 -3.2626" fill="none" stroke="#000"/>
<path d="m 344.263 2377.04 c 2.2569 -1.7768 6.1697 -3.4993 8.8449 -3.6552 -4.5555 -3.6229 -8.5645 -1.905 -8.8449 3.6552 z" fill="#fff" stroke="#000"/>
<path d="m 345.655 2368.11 2.4932 5.9705" fill="none" stroke="#fff"/>
<path d="m 352.201 2372.56 -4.4889 0.6695 -3.5286 2.6466" fill="none" stroke="#fff"/>
</g>
</svg>
