<svg viewBox="0 0 512 512" xmlns="http://www.w3.org/2000/svg">

<g transform="matrix(18.68858,0,0,18.68858,-8398.28947,-16571.27528)">
<path d="m 450.337 913.031 5.5797 -1.4775 c 4.3038 -5.5016 8.2148 -9.9085 13.2414 -14.2118 l -3.101 -3.101 c -4.2943 5.0917 -9.1612 9.2115 -14.2118 13.2985 l -1.5082 5.4919 z" fill="#fff"/>
<g transform="matrix(-1.10399,-1.10399,-1.22323,1.22323,1605.7589,816.84732)">
<path d="m 478.91 491.524 h 1.6175 c -0.4295 2.0932 -0.478 4.1865 0 6.2797 h -1.6175 c 0.5704 -2.0932 0.4481 -4.1865 0 -6.2797 z" fill="#fff"/>
</g>
<path d="m -969.332 -303.48 h 10.5276 v 1.9311 h -10.5276 z" fill="#fff" transform="matrix(-.70711,-.70711,.70711,-.70711,0,0)"/>
<path d="m 452.797 910.678 14.2747 -14.2747" fill="none" stroke="#000"/>
<g transform="matrix(-.78409,.78409,-.78409,-.78409,1534.3128,1317.8753)">
<path d="m 415.584 937.746 1e-05 20.25 h 2.4184 c -0.0571 -6.7069 0.1708 -13.4801 0.3455 -20.25 h -2.7639 z" fill="#fff" stroke="#000" stroke-width=".9018"/>
<path d="m 419.663 961.855 -5.7083 2e-05 c -1e-05 -2.3493 1.2787 -4.256 2.8541 -4.256 s 2.8542 1.9067 2.8542 4.256 z" fill="none" stroke="#fff" stroke-width=".9018"/>
<path d="m 414.178 960.471 h 5.3643 v 1.1822 h -5.3643 z" fill="#fff"/>
<path d="m 416.95 933.661 c -2.0754 0.5024 -3.7161 3.6411 -3.7161 7.4784 2.2671 -0.482 5.3825 -0.5134 7.4322 1e-05 1e-05 -3.8656 -1.6184 -7.012 -3.7161 -7.4784 z" fill="#fff"/>
</g>
<path d="m 473.784 898.087 c -0.9532 -0.9532 -2.4656 -0.9532 -3.4188 0 s -0.9791 2.4915 -0.0259 3.4447 c 0.2294 0.2294 0.4954 0.399 0.777 0.518 -0.3575 -0.882 -0.171 -1.9528 0.5439 -2.6677 s 1.7598 -0.8755 2.6419 -0.518 c -0.119 -0.2816 -0.2887 -0.5476 -0.518 -0.777 z" fill="#fff"/>
<path d="m 461.821 893.115 c 0.9532 0.9532 2.4656 0.9532 3.4188 0 s 0.9791 -2.4915 0.0259 -3.4447 c -0.2294 -0.2294 -0.4954 -0.399 -0.777 -0.518 0.3575 0.882 0.171 1.9528 -0.5439 2.6677 s -1.7598 0.8755 -2.6419 0.518 c 0.119 0.2816 0.2887 0.5476 0.518 0.777 z" fill="#fff"/>
</g>
</svg>
