<svg xmlns="http://www.w3.org/2000/svg" viewBox="0 0 512 512">
<g transform="matrix(15 0 0 15 -1063.9999 -4903.9996)">
<use width="744.094" height="1052.362" transform="translate(108 324)"/>
<path fill="#fff" d="m90.2015,342.7944 0-2.6579c0-.2183-.1016-.5412-.818-.5412-.7164,0-.818,.3229-.818,.5412l-0,2.6579c0,.2183 .1423,.4677 .818,.4677 .6757,0 .818-.2494 .818-.4677zm-2.6269,17.0585-.2017-7.7852c-.9471-.0353-1.4925-.0489-1.9981-.1764-.3503-.0884-.5228-.341-.5228-.7314v-11.167c0-.2571-.0229-.4102-.4336-.4071-.6959,.0052-3.4183,.0394-3.4183,.0394l.5048-.8704c.0938-.1617 .1797-.2821 .4241-.2821 .175,0 1.5554,.1707 2.4989,.0788 .4806-.0468 .6944-.1019 .91-.4287 .3818-.5787 .3053-1.9741-.3854-2.9429-.1673-.2346 .0134-.4424 .3065-.3467 .6416,.2094 1.7163,.1772 1.7163,.1772v-5.4663c0-.1857-.1106-.2942-.3347-.2942h-3.8923c0,0 .532-1.039 1.302-1.1474 .841-.1184 2.6326-.1017 3.9497-.1017 1.3171,0 3.1087-.0167 3.9497,.1017 .77,.1084 1.302,1.1474 1.302,1.1474h-3.8923c-.2241,0-.3347,.1085-.3347,.2942v5.4663c0,0 1.0747,.0322 1.7163-.1772 .2931-.0957 .4737,.1121 .3065,.3467-.6907,.9688-.7672,2.3642-.3854,2.9429 .2156,.3268 .4294,.3819 .91,.4287 .9435,.0919 2.3239-.0788 2.4989-.0788 .2445,0 .3304,.1204 .4241,.2821l.5048,.8704c0,0-2.7224-.0342-3.4183-.0394-.4107-.003-.4336,.15-.4336,.4071v11.167c0,.3904-.1725,.643-.5228,.7314-.5055,.1275-1.0509,.1411-1.9981,.1764l-.2017,7.7852c-.0033,.1279-.1999,.1471-.4255,.1471-.2255,0-.4222-.0192-.4255-.1471zm-.958-16.5908c.6757,0 .818-.2494 .818-.4677l-0-2.6579c0-.2183-.1016-.5412-.818-.5412-.7164,0-.818,.3229-.818,.5412l0,2.6579c0,.2183 .1423,.4677 .818,.4677z"/>
</g>
</svg>
