<svg viewBox="0 0 512 512" xmlns="http://www.w3.org/2000/svg">

<g transform="matrix(18.68858,0,0,18.68858,-11808.33312,-40153.2096)">
<path d="m65.1229,2249.0833h12.6792v2.4887h-12.6792z" fill="#fff" stroke="#000" transform="matrix(.96593,-.25882,.25882,.96593,0,0)"/>
<path d="m634.1573,2161.5659 4.1932-1.9822h8.3863c3.4294.143 9.801,1.8623 9.801,4.6125l-1.0335-.3431h-20.3727l-.9742.4043z" fill="#fff"/>
<path d="m639.5252,2168.418c0,1.6226-1.3154,2.938-2.9381,2.938s-2.9381-1.3154-2.9381-2.938 1.3154-2.9381 2.9381-2.9381 2.9381,1.3154 2.9381,2.9381z" stroke="#fff" stroke-width=".9647" transform="matrix(1.03658,0,0,1.03658,-23.50145,-79.37161)"/>
<path d="m639.5252,2168.418c0,1.6226-1.3154,2.938-2.9381,2.938s-2.9381-1.3154-2.9381-2.938 1.3154-2.9381 2.9381-2.9381 2.9381,1.3154 2.9381,2.9381z" stroke="#fff" stroke-width=".9647" transform="matrix(1.03658,0,0,1.03658,-17.39404,-79.37161)"/>
<path d="m639.5252,2168.418c0,1.6226-1.3154,2.938-2.9381,2.938s-2.9381-1.3154-2.9381-2.938 1.3154-2.9381 2.9381-2.9381 2.9381,1.3154 2.9381,2.9381z" stroke="#fff" stroke-width=".9647" transform="matrix(1.03658,0,0,1.03658,-11.24033,-79.37161)"/>
<path d="m639.5252,2168.418c0,1.6226-1.3154,2.938-2.9381,2.938s-2.9381-1.3154-2.9381-2.938 1.3154-2.9381 2.9381-2.9381 2.9381,1.3154 2.9381,2.9381z" stroke="#fff" stroke-width=".9647" transform="matrix(1.03658,0,0,1.03658,-5.14929,-79.37161)"/>
<path d="m638.9036,2153.7238c-1.6828,1.2384-2.7659,3.2453-2.7659,5.495h13.6081c0-2.2497-1.083-4.2566-2.7659-5.495h-8.0764z" fill="#fff" stroke="#000"/>
<path d="m636.308,2165.321h18.3718" fill="none" stroke="#fff"/>
<path d="m636.308,2171.4062h18.3718" fill="none" stroke="#fff"/>
<path d="m2247.9482-78.3481h4.4117v3.3004h-4.4117z" fill="#fff" stroke="#000" transform="rotate(75)"/>
<path d="m639.3365,2155.5067v-4.6631" fill="none" stroke="#fff"/>
</g>
</svg>
