<svg viewBox="0 0 512 512" xmlns="http://www.w3.org/2000/svg">

<g transform="matrix(18.68858,0,0,18.68858,-11808.33312,-40153.2096)">
<path d="m 65.1229 2249.08 h 12.6792 v 2.4887 h -12.6792 z" fill="#fff" stroke="#000" transform="matrix(.96593,-.25882,.25882,.96593,0,0)"/>
<path d="m 634.157 2161.57 4.1932 -1.9822 h 8.3863 c 3.4294 0.143 9.801 1.8623 9.801 4.6125 l -1.0335 -0.3431 h -20.3727 l -0.9742 0.4043 z" fill="#fff"/>
<path d="m 639.525 2168.42 c 0 1.6226 -1.3154 2.938 -2.9381 2.938 s -2.9381 -1.3154 -2.9381 -2.938 1.3154 -2.9381 2.9381 -2.9381 2.9381 1.3154 2.9381 2.9381 z" stroke="#fff" stroke-width=".9647" transform="matrix(1.03658,0,0,1.03658,-23.50145,-79.37161)"/>
<path d="m 639.525 2168.42 c 0 1.6226 -1.3154 2.938 -2.9381 2.938 s -2.9381 -1.3154 -2.9381 -2.938 1.3154 -2.9381 2.9381 -2.9381 2.9381 1.3154 2.9381 2.9381 z" stroke="#fff" stroke-width=".9647" transform="matrix(1.03658,0,0,1.03658,-17.39404,-79.37161)"/>
<path d="m 639.525 2168.42 c 0 1.6226 -1.3154 2.938 -2.9381 2.938 s -2.9381 -1.3154 -2.9381 -2.938 1.3154 -2.9381 2.9381 -2.9381 2.9381 1.3154 2.9381 2.9381 z" stroke="#fff" stroke-width=".9647" transform="matrix(1.03658,0,0,1.03658,-11.24033,-79.37161)"/>
<path d="m 639.525 2168.42 c 0 1.6226 -1.3154 2.938 -2.9381 2.938 s -2.9381 -1.3154 -2.9381 -2.938 1.3154 -2.9381 2.9381 -2.9381 2.9381 1.3154 2.9381 2.9381 z" stroke="#fff" stroke-width=".9647" transform="matrix(1.03658,0,0,1.03658,-5.14929,-79.37161)"/>
<path d="m 638.904 2153.72 c -1.6828 1.2384 -2.7659 3.2453 -2.7659 5.495 h 13.6081 c 0 -2.2497 -1.083 -4.2566 -2.7659 -5.495 h -8.0764 z" fill="#fff" stroke="#000"/>
<path d="m 636.308 2165.32 h 18.3718" fill="none" stroke="#fff"/>
<path d="m 636.308 2171.41 h 18.3718" fill="none" stroke="#fff"/>
<path d="m 2247.95 -78.3481 h 4.4117 v 3.3004 h -4.4117 z" fill="#fff" stroke="#000" transform="rotate(75)"/>
<path d="m 639.337 2155.51 v -4.6631" fill="none" stroke="#fff"/>
</g>
</svg>
