<svg viewBox="0 0 512 512" xmlns="http://www.w3.org/2000/svg">

<g transform="matrix(18.68858,0,0,18.68858,-7042.37631,-38101.76623)">
<path d="m397.366,2053.4001c0,4.5969-3.7265,8.3234-8.3233,8.3234s-8.3233-3.7265-8.3233-8.3234 3.7265-8.3233 8.3233-8.3233 8.3233,3.7265 8.3233,8.3233z" stroke="#fff" stroke-width=".8809" transform="matrix(1.09652,.29381,-.29381,1.09652,567.27483,-313.41203)"/>
<path d="m385.6985,2044.0813 9.7121,16.8216" fill="none" stroke="#fff"/>
<path d="m398.9655,2047.6361-16.8218,9.7119" fill="none" stroke="#fff"/>
<g transform="translate(.0305,-.2886)">
<path d="m377.645,2049.3297 25.7584,6.9019" fill="none" stroke="#fff"/>
<path d="m393.9752,2039.9015-6.9022,25.7583" fill="none" stroke="#fff"/>
</g>
<g transform="translate(.4345,-.2885)">
<path d="m403.0496,2052.7807h-25.8589l.4405,3.3463 24.9778-6.6927z" stroke="#000"/>
<path d="m378.9228,2046.3159 22.3945,12.9295-2.0547,2.6778-18.2851-18.285z" stroke="#000"/>
<path d="m386.7737,2040.2917 6.6928,24.9778-3.3464.4405-3e-05-25.8589z" stroke="#000"/>
<path d="m396.5848,2041.5833-12.9294,22.3946-2.6778-2.0547 18.285-18.2851z" stroke="#000"/>
</g>
<path d="m397.366,2053.4001c0,4.5969-3.7265,8.3234-8.3233,8.3234s-8.3233-3.7265-8.3233-8.3234 3.7265-8.3233 8.3233-8.3233 8.3233,3.7265 8.3233,8.3233z" transform="matrix(.69153,.1853,-.1853,.69153,502.00533,560.40623)"/>
<path d="m377.3389,2039.2764h26.4314v26.4314h-26.4314z" fill="none" stroke="#000"/>
<path d="m397.366,2053.4001c0,4.5969-3.7265,8.3234-8.3233,8.3234s-8.3233-3.7265-8.3233-8.3234 3.7265-8.3233 8.3233-8.3233 8.3233,3.7265 8.3233,8.3233z" stroke="#fff" stroke-width="2.4601" transform="matrix(.39264,.10521,-.10521,.39264,453.90312,1205.319)"/>
<path d="m387.4084,2051.6515 6.5256,1.7605" fill="none" stroke="#fff"/>
<path d="m389.6819,2055.7403 1.7607-6.5256" fill="none" stroke="#fff"/>
<path d="m392.682,2052.446c0,.9925-.8046,1.7971-1.7971,1.7971s-1.7971-.8046-1.7971-1.7971 .8046-1.797 1.7971-1.797 1.7971.8046 1.7971,1.797z" transform="translate(-.2178,.0545)"/>
</g>
</svg>
