<svg viewBox="0 0 512 512" xmlns="http://www.w3.org/2000/svg">

<g transform="matrix(18.68858,0,0,18.68858,-11121.63263,-22489.0913)">
<path d="m616.4224,1207.909c-1.2929,3.2404-4.8149,3.4309-8.7026,1.6614-3.913-1.781-3.358-1.7682-6.8956-4.0379-3.223-2.0678-6.0424,1.7757-3.2001,4.0004 3.371,2.6387 5.9736,3.625 5.5587,6.4632-.6072,4.1543-6.6361,3.9724-6.0485,10.9451 .3991,4.7362 7.6943,4.2537 5.6738-.912-.5756-1.4718 1.7336-4.0377 3.5808-3.7177 1.618.2803.7867,5.3396 3.303,6.9611 4.3875,2.8277 9.0249-1.3793 4.1246-4.7154-2.0871-1.4208-1.9555-6.2679-.6141-8.0717 .9529-1.2814 5.8597-.895 8.0585-5.925 1.9799-4.5295-3.1828-6.8012-4.8385-2.6515z" fill="#fff" fill-rule="evenodd" stroke="#000"/>
<path d="m617.0873,1210.6788c0,2.5471-2.0648,4.6119-4.6119,4.6119s-4.6119-2.0648-4.6119-4.6119 2.0648-4.6119 4.6119-4.6119 4.6119,2.0649 4.6119,4.6119z" fill="#fff" transform="matrix(.49154,.49154,-.61766,.61766,1057.3711,159.21178)"/>
<path d="m610.7364,1216.2358c0,2.3592-1.3371,4.2717-2.9864,4.2717s-2.9864-1.9125-2.9864-4.2717 1.3371-4.2716 2.9864-4.2716 2.9864,1.9125 2.9864,4.2716z" fill="none" stroke="#000" stroke-width="1.0306" transform="matrix(.92257,.29934,-.29902,.92356,411.02419,-89.17853)"/>
<path d="m610.7364,1216.2358c0,2.3592-1.3371,4.2717-2.9864,4.2717s-2.9864-1.9125-2.9864-4.2717 1.3371-4.2716 2.9864-4.2716 2.9864,1.9125 2.9864,4.2716z" fill="none" stroke="#000" stroke-width="2.7389" transform="matrix(.33697,.11603,-.10922,.35799,536.07538,710.0938)"/>
</g>
</svg>
