<svg xmlns="http://www.w3.org/2000/svg" viewBox="0 0 512 512">
<g transform="matrix(15 0 0 15 -523.99992 -7729.4306)">
<use width="744.094" height="1052.362" transform="translate(72 512.36216)"/>
<g fill="#fff">
<path d="m39,516.3622 12,13 11,13-13-11-13-12z"/>
<path d="m64.0571,533.4564c-2.5009-1.4709-5.6188-1.4525-8.1176,.017l3.0269,3.027c.6687-.176 1.3735-.1635 2.0406,.01l3.0501-3.0502zm2.8488,2.8486-3.0501,3.0501c.1704,.6671 .1828,1.3719 .007,2.0405l3.0269,3.0269c1.4686-2.4986 1.487-5.6168 .0162-8.1175zm-13.7955,0c-1.4685,2.4986-1.4869,5.6167-.0162,8.1175l3.0501-3.0503c-.1706-.6668-.1828-1.3717-.007-2.0404l-3.0269-3.0268zm7.9232,7.923c-.6687,.176-1.3737,.1637-2.0405-.01l-3.0502,3.0501c2.5009,1.4706 5.6189,1.4522 8.1176-.017l-3.0269-3.0267z"/>
</g>
</g>
</svg>
