<svg viewBox="0 0 512 512" xmlns="http://www.w3.org/2000/svg">

<g transform="matrix(18.68858,0,0,18.68858,-2952.29316,-32680.12466)">
<path d="m394.1584,1725.1705c0,3.3248-2.6952,6.02-6.02,6.02s-6.02-2.6952-6.02-6.02 2.6952-6.02 6.02-6.02 6.02,2.6953 6.02,6.02z" fill="#fff" transform="matrix(1.18511,1.18515,-1.18511,1.18515,1754.8354,-743.58324)"/>
<path d="m394.1584,1725.1705c0,3.3248-2.6952,6.02-6.02,6.02s-6.02-2.6952-6.02-6.02 2.6952-6.02 6.02-6.02 6.02,2.6953 6.02,6.02z" fill="#fff" stroke="#000" stroke-width=".9189" transform="matrix(.76947,.76949,-.76947,.76949,1199.1064,134.82652)"/>
<path d="m167.6147,1760.0453c4.1353,6.3637 10.4257,11.7525 17.2321,14.4164-2.6665-6.7814-8.0136-13.1342-14.3704-17.2781l-2.8618,2.8617z"/>
<path d="m166.3216,1760.9857c4.1353,6.3637 10.4257,11.7525 17.2321,14.4164-2.6665-6.7814-8.0136-13.1342-14.3704-17.2781l-2.8618,2.8617z"/>
<path d="m161.0825,1749.7465c5.1845,4.794 9.9978,10.3066 13.4627,15.5343-5.1812-3.4278-10.62-8.1707-15.3613-13.2905 6.0528,9.4175 15.4618,18.1162 25.0269,22.9218-4.8403-9.6023-13.6477-19.111-23.1283-25.1656z" fill="#fff"/>
<path d="m160.979,1749.6774-2.0367,2.0367c4.7995,5.2221 10.331,10.0788 15.603,13.5667-3.4852-5.2583-8.3473-10.79-13.5663-15.6034z"/>
</g>
</svg>
