<svg xmlns="http://www.w3.org/2000/svg" viewBox="0 0 512 512">
<g transform="matrix(15 0 0 15 -4844 -2204)">
<use width="744.094" height="1052.362" transform="translate(360 144)"/>
</g>
<g fill="#fff" transform="matrix(15 0 0 15 -8264 -13489.4333)">
<path d="m 532 464 a 4 4 0 1 1 -8 0 4 4 0 1 1 8 0 z" transform="translate(40 452.36218)"/>
<path d="m 567 906.362 h 2 a 1 1 0 0 1 1 1 v 2 a 1 1 0 0 1 -1 1 h -2 a 1 1 0 0 1 -1 -1 v -2 a 1 1 0 0 1 1 -1"/>
<path d="m 575 914.362 h 2 a 1 1 0 0 1 1 1 v 2 a 1 1 0 0 1 -1 1 h -2 a 1 1 0 0 1 -1 -1 v -2 a 1 1 0 0 1 1 -1"/>
<path d="m 567 922.362 h 2 a 1 1 0 0 1 1 1 v 2 a 1 1 0 0 1 -1 1 h -2 a 1 1 0 0 1 -1 -1 v -2 a 1 1 0 0 1 1 -1"/>
<path d="m 559 914.362 h 2 a 1 1 0 0 1 1 1 v 2 a 1 1 0 0 1 -1 1 h -2 a 1 1 0 0 1 -1 -1 v -2 a 1 1 0 0 1 1 -1"/>
</g>
<g transform="matrix(15 0 0 15 -4844 -2204)">
<path fill="#fff" d="m340,148c-8.8366,0-16,7.1634-16,16 0,8.8366 7.1634,16 16,16 8.8366,0 16-7.1634 16-16 0-8.8366-7.1634-16-16-16zm0,4c6.6274,0 12,5.3726 12,12 0,6.6274-5.3726,12-12,12-6.6274,0-12-5.3726-12-12 0-6.6274 5.3726-12 12-12z"/>
</g>
</svg>
