<svg viewBox="0 0 512 512" xmlns="http://www.w3.org/2000/svg">

<path d="m 650.807 670.53 c 0 3.0856 -2.5014 5.587 -5.587 5.587 s -5.587 -2.5014 -5.587 -5.587 2.5014 -5.587 5.587 -5.587 5.587 2.5014 5.587 5.587 z" stroke="#fff" stroke-width=".9375" transform="matrix(19.93449,0,0,19.93449,-12606.53275,-13112.14285)"/>
<path d="m 650.807 670.53 c 0 3.0856 -2.5014 5.587 -5.587 5.587 s -5.587 -2.5014 -5.587 -5.587 2.5014 -5.587 5.587 -5.587 5.587 2.5014 5.587 5.587 z" stroke="#fff" stroke-width="1.575" transform="matrix(11.86577,0,0,11.86577,-7400.43171,-7701.82402)"/>
<g transform="matrix(18.68858,0,0,18.68858,-4647.09741,-7885.28984)">
<path d="m 266.905 444.921 3.64 3.6399 2e-05 -4.7276 4.7275 -1e-05 -3.6399 -3.6399 h -4.7276 l -3e-05 4.7276 z" fill="#fff"/>
<path d="m 275.226 447.251 -1.2808 1.2467 -21.6844 -21.6842 1.2502 -1.2502 21.715 21.6877 z" fill="#fff" stroke="#000"/>
<path d="m 252.337 430.477 c -1.238 -2.6246 -2.3217 -5.2492 -2.8906 -7.8739 2.6246 0.6708 5.2492 1.6691 7.8739 2.8906 -2.3306 1.1631 -3.9169 2.5003 -4.9832 4.9832 z" fill="#fff" stroke="#000"/>
</g>
<g transform="matrix(-18.68858,0,0,18.68858,5158.29469,-7885.28984)">
<path d="m 266.905 444.921 3.64 3.6399 2e-05 -4.7276 4.7275 -1e-05 -3.6399 -3.6399 h -4.7276 l -3e-05 4.7276 z" fill="#fff"/>
<path d="m 275.226 447.251 -1.2808 1.2467 -21.6844 -21.6842 1.2502 -1.2502 21.715 21.6877 z" fill="#fff" stroke="#000"/>
<path d="m 252.337 430.477 c -1.238 -2.6246 -2.3217 -5.2492 -2.8906 -7.8739 2.6246 0.6708 5.2492 1.6691 7.8739 2.8906 -2.3306 1.1631 -3.9169 2.5003 -4.9832 4.9832 z" fill="#fff" stroke="#000"/>
</g>
</svg>
