<svg xmlns="http://www.w3.org/2000/svg" viewBox="0 0 512 512">
<g transform="matrix(15 0 0 15 -523.99992 -7729.4306)">
<use width="744.094" height="1052.362" transform="translate(72 512.36216)"/>
<g fill="#fff">
<path d="m 39 516.362 12 13 11 13 -13 -11 -13 -12 z"/>
<path d="m 64.0571 533.456 c -2.5009 -1.4709 -5.6188 -1.4525 -8.1176 0.017 l 3.0269 3.027 c 0.6687 -0.176 1.3735 -0.1635 2.0406 0.01 l 3.0501 -3.0502 z m 2.8488 2.8486 -3.0501 3.0501 c 0.1704 0.6671 0.1828 1.3719 0.007 2.0405 l 3.0269 3.0269 c 1.4686 -2.4986 1.487 -5.6168 0.0162 -8.1175 z m -13.7955 0 c -1.4685 2.4986 -1.4869 5.6167 -0.0162 8.1175 l 3.0501 -3.0503 c -0.1706 -0.6668 -0.1828 -1.3717 -0.007 -2.0404 l -3.0269 -3.0268 z m 7.9232 7.923 c -0.6687 0.176 -1.3737 0.1637 -2.0405 -0.01 l -3.0502 3.0501 c 2.5009 1.4706 5.6189 1.4522 8.1176 -0.017 l -3.0269 -3.0267 z"/>
</g>
</g>
</svg>
