<svg viewBox="0 0 512 512" xmlns="http://www.w3.org/2000/svg">

<g transform="matrix(18.68858,0,0,18.68858,-7042.37631,-38101.76623)">
<path d="m 397.366 2053.4 c 0 4.5969 -3.7265 8.3234 -8.3233 8.3234 s -8.3233 -3.7265 -8.3233 -8.3234 3.7265 -8.3233 8.3233 -8.3233 8.3233 3.7265 8.3233 8.3233 z" stroke="#fff" stroke-width=".8809" transform="matrix(1.09652,.29381,-.29381,1.09652,567.27483,-313.41203)"/>
<path d="m 385.699 2044.08 9.7121 16.8216" fill="none" stroke="#fff"/>
<path d="m 398.966 2047.64 -16.8218 9.7119" fill="none" stroke="#fff"/>
<g transform="translate(.0305,-.2886)">
<path d="m 377.645 2049.33 25.7584 6.9019" fill="none" stroke="#fff"/>
<path d="m 393.975 2039.9 -6.9022 25.7583" fill="none" stroke="#fff"/>
</g>
<g transform="translate(.4345,-.2885)">
<path d="m 403.05 2052.78 h -25.8589 l 0.4405 3.3463 24.9778 -6.6927 z" stroke="#000"/>
<path d="m 378.923 2046.32 22.3945 12.9295 -2.0547 2.6778 -18.2851 -18.285 z" stroke="#000"/>
<path d="m 386.774 2040.29 6.6928 24.9778 -3.3464 0.4405 -3e-05 -25.8589 z" stroke="#000"/>
<path d="m 396.585 2041.58 -12.9294 22.3946 -2.6778 -2.0547 18.285 -18.2851 z" stroke="#000"/>
</g>
<path d="m 397.366 2053.4 c 0 4.5969 -3.7265 8.3234 -8.3233 8.3234 s -8.3233 -3.7265 -8.3233 -8.3234 3.7265 -8.3233 8.3233 -8.3233 8.3233 3.7265 8.3233 8.3233 z" transform="matrix(.69153,.1853,-.1853,.69153,502.00533,560.40623)"/>
<path d="m 377.339 2039.28 h 26.4314 v 26.4314 h -26.4314 z" fill="none" stroke="#000"/>
<path d="m 397.366 2053.4 c 0 4.5969 -3.7265 8.3234 -8.3233 8.3234 s -8.3233 -3.7265 -8.3233 -8.3234 3.7265 -8.3233 8.3233 -8.3233 8.3233 3.7265 8.3233 8.3233 z" stroke="#fff" stroke-width="2.4601" transform="matrix(.39264,.10521,-.10521,.39264,453.90312,1205.319)"/>
<path d="m 387.408 2051.65 6.5256 1.7605" fill="none" stroke="#fff"/>
<path d="m 389.682 2055.74 1.7607 -6.5256" fill="none" stroke="#fff"/>
<path d="m 392.682 2052.45 c 0 0.9925 -0.8046 1.7971 -1.7971 1.7971 s -1.7971 -0.8046 -1.7971 -1.7971 0.8046 -1.797 1.7971 -1.797 1.7971 0.8046 1.7971 1.797 z" transform="translate(-.2178,.0545)"/>
</g>
</svg>
