<svg viewBox="0 0 512 512" xmlns="http://www.w3.org/2000/svg">

<g transform="matrix(18.68858,0,0,18.68858,-12484.07122,-25863.55842)">
<path d="m681.3049,1391.3867-3.7538,11.351 11.613,2.1968 1.2373-11.6186z" fill="#fff" stroke="#000"/>
<path d="m682.1893,1388.6923-8.3519-1.4986-1.2373,11.6187 5.8354,1.2311z" fill="#fff" stroke="#000"/>
<path d="m674.2333,1386.2827c0,.7691-.6234,1.3925-1.3925,1.3925s-1.3925-.6234-1.3925-1.3925 .6234-1.3925 1.3925-1.3925 1.3925.6235 1.3925,1.3925z" fill="#fff" stroke="#000" stroke-width=".8824" transform="matrix(1.13333,0,0,1.13333,-89.55296,-185.07641)"/>
<path d="m672.9519,1386.3393-2.6355,24.7493" fill="none" stroke="#fff"/>
<path d="m668.5572,1410.8692h4.1908" fill="none" stroke="#000"/>
<path d="m688.9987,1405.1393-2.2278-4.4824 2.4693-1.0468 .3221-1.9861-2.0131-1.1005 .8052-1.6642 1.9057-1.4494"/>
<path d="m687.7673,1399.1321 3.9521.2074 .6413,2.3934-2.7619-.012z" fill="#fff"/>
<path d="m692.7742,1393.1274-.9748-.6528 .1147,1.8484-2.7414,1.2469 3.8418.2332 .8665-.8413z" fill="#fff"/>
<path d="m685.0054,1401.8577 1.0704-.297 .6405,1.0282-1.983.1188z"/>
<path d="m691.5377,1405.7561 2.1875-.5937-2.1562-1.0625-1.2188-1.6562-.9375,1.5624z" fill="#fff"/>
<path d="m681.1206,1399.8475 .2652,4.0354 2.8908.042-.7148-2.8981-.9957.4211z"/>
<path d="m687.6191,1397.5331 .2791,1.27-2.684.4849 1.077-1.8298z"/>
<path d="m694.0602,1401.3831-2.2799-.5435 .1933,1.8488z" fill="#fff"/>
<path d="m694.4283,1398.0868-2.8676-1.0711 1.8799,2.441z" fill="#fff"/>
</g>
</svg>
