<svg viewBox="0 0 512 512" xmlns="http://www.w3.org/2000/svg">

<g transform="matrix(18.68858,0,0,18.68858,-12484.07122,-25863.55842)">
<path d="m 681.305 1391.39 -3.7538 11.351 11.613 2.1968 1.2373 -11.6186 z" fill="#fff" stroke="#000"/>
<path d="m 682.189 1388.69 -8.3519 -1.4986 -1.2373 11.6187 5.8354 1.2311 z" fill="#fff" stroke="#000"/>
<path d="m 674.233 1386.28 c 0 0.7691 -0.6234 1.3925 -1.3925 1.3925 s -1.3925 -0.6234 -1.3925 -1.3925 0.6234 -1.3925 1.3925 -1.3925 1.3925 0.6235 1.3925 1.3925 z" fill="#fff" stroke="#000" stroke-width=".8824" transform="matrix(1.13333,0,0,1.13333,-89.55296,-185.07641)"/>
<path d="m 672.952 1386.34 -2.6355 24.7493" fill="none" stroke="#fff"/>
<path d="m 668.557 1410.87 h 4.1908" fill="none" stroke="#000"/>
<path d="m 688.999 1405.14 -2.2278 -4.4824 2.4693 -1.0468 0.3221 -1.9861 -2.0131 -1.1005 0.8052 -1.6642 1.9057 -1.4494"/>
<path d="m 687.767 1399.13 3.9521 0.2074 0.6413 2.3934 -2.7619 -0.012 z" fill="#fff"/>
<path d="m 692.774 1393.13 -0.9748 -0.6528 0.1147 1.8484 -2.7414 1.2469 3.8418 0.2332 0.8665 -0.8413 z" fill="#fff"/>
<path d="m 685.005 1401.86 1.0704 -0.297 0.6405 1.0282 -1.983 0.1188 z"/>
<path d="m 691.538 1405.76 2.1875 -0.5937 -2.1562 -1.0625 -1.2188 -1.6562 -0.9375 1.5624 z" fill="#fff"/>
<path d="m 681.121 1399.85 0.2652 4.0354 2.8908 0.042 -0.7148 -2.8981 -0.9957 0.4211 z"/>
<path d="m 687.619 1397.53 0.2791 1.27 -2.684 0.4849 1.077 -1.8298 z"/>
<path d="m 694.06 1401.38 -2.2799 -0.5435 0.1933 1.8488 z" fill="#fff"/>
<path d="m 694.428 1398.09 -2.8676 -1.0711 1.8799 2.441 z" fill="#fff"/>
</g>
</svg>
