<svg viewBox="0 0 512 512" xmlns="http://www.w3.org/2000/svg">

<g transform="matrix(4.82035,0,0,4.82035,-1071.8456,-148.93673)">
<path d="m 228.765 37.15 c 0 0 6.955 -2.242 19.104 4.075 12.654 6.58 17.764 24.224 27.572 24.45 9.809 -0.226 14.92 -17.87 27.573 -24.45 12.148 -6.317 19.104 -4.075 19.104 -4.075 v 17.734 c 0 0 -7.896 -0.509 -12.226 2.802 -3.146 2.405 -9.383 11.264 -14.807 16.613 8.063 5.774 13.27 14.911 13.27 25.195 0 17.46 -15.008 31.614 -33.522 31.614 s -33.523 -14.154 -33.523 -31.614 c 0 -10.586 5.518 -19.958 13.989 -25.696 -5.302 -5.385 -11.257 -13.781 -14.307 -16.113 -4.331 -3.311 -12.227 -2.802 -12.227 -2.802 v -17.733 z m 30.821 62.309 c 0 8.3 6.842 15.028 15.282 15.028 s 15.283 -6.729 15.283 -15.028 -6.842 -15.028 -15.283 -15.028 -15.282 6.729 -15.282 15.028 z" fill="#fff"/>
</g>
</svg>
