<svg viewBox="0 0 512 512" xmlns="http://www.w3.org/2000/svg">

<g transform="matrix(18.68858,0,0,18.68858,-7716.83234,-19764.41181)">
<path d="m 420.529 1068.27 h 12.0998 c -1.4749 -2.4888 -3.6045 -4.1556 -6.0499 -4.1555 s -4.575 1.6667 -6.0499 4.1555 z" fill="#fff"/>
<path d="m 426.928 1066.57 c 0 0.6355 -0.5152 1.1506 -1.1507 1.1506 s -1.1507 -0.5151 -1.1507 -1.1506 0.5152 -1.1507 1.1507 -1.1507 1.1507 0.5152 1.1507 1.1507 z" fill="#fff" transform="matrix(1.03528,0,0,1.03571,-14.35291,-41.34395)"/>
<path d="m 420.212 1076.87 c 0 3.4554 2.847 4.5343 6.3708 4.5343 s 6.3965 -1.0789 6.3965 -4.5343" fill="#fff" stroke="#000"/>
<path d="m 419.782 1068.34 c -1.3276 -1.7926 -4.9485 -2.9355 -5.2092 1.0079 -0.3004 4.5015 2.705 3.4707 4.5766 5.3009" fill="none" stroke="#fff"/>
<path d="m 433.241 1066.72 c -1.6217 0.9617 -3.9726 1.4958 -6.6613 1.4958 s -5.0301 -0.644 -6.663 -1.4958 c -1.3367 1.6643 -2.1878 3.6321 -2.1878 5.8363 0 4.9095 3.9545 6.4422 8.8491 6.4422 s 8.8848 -1.5327 8.8848 -6.4422 c 0 -2.2042 -0.8963 -4.2819 -2.2218 -5.8363 z" fill="#fff" stroke="#000"/>
<path d="m 435.807 1067.61 c 1.0227 -1.7181 2.7028 -0.9871 3.6948 -0.3185 -0.5928 0.099 -0.8399 0.5201 -0.6472 1.1286 -2.49 -1.164 -0.6687 2.6383 -0.8329 4.8032 -0.2208 2.9103 -3.0753 3.2215 -4.6087 3.0841 l 0.8955 -4.4738 c 2.3432 0.2325 0.8207 -3.0848 1.4986 -4.2236 z" fill="#fff" fill-rule="evenodd"/>
<path d="m 434.964 1071.29 c -4.1408 -0.4227 -3.7053 5.3002 -1.139 5.5571" fill="none" stroke="#000"/>
<path d="m 421.566 1065 c 1.5538 1.9786 9.2569 1.4498 10.2886 0" fill="none" stroke="#000"/>
</g>
</svg>
