<svg viewBox="0 0 512 512" xmlns="http://www.w3.org/2000/svg">

<g transform="matrix(18.68858,0,0,18.68858,-7716.83234,-19764.41181)">
<path d="m420.5294,1068.271h12.0998c-1.4749-2.4888-3.6045-4.1556-6.0499-4.1555s-4.575,1.6667-6.0499,4.1555z" fill="#fff"/>
<path d="m426.9276,1066.5717c0,.6355-.5152,1.1506-1.1507,1.1506s-1.1507-.5151-1.1507-1.1506 .5152-1.1507 1.1507-1.1507 1.1507.5152 1.1507,1.1507z" fill="#fff" transform="matrix(1.03528,0,0,1.03571,-14.35291,-41.34395)"/>
<path d="m420.2118,1076.8705c0,3.4554 2.847,4.5343 6.3708,4.5343s6.3965-1.0789 6.3965-4.5343" fill="#fff" stroke="#000"/>
<path d="m419.782,1068.3389c-1.3276-1.7926-4.9485-2.9355-5.2092,1.0079-.3004,4.5015 2.705,3.4707 4.5766,5.3009" fill="none" stroke="#fff"/>
<path d="m433.2406,1066.7197c-1.6217.9617-3.9726,1.4958-6.6613,1.4958s-5.0301-.644-6.663-1.4958c-1.3367,1.6643-2.1878,3.6321-2.1878,5.8363 0,4.9095 3.9545,6.4422 8.8491,6.4422s8.8848-1.5327 8.8848-6.4422c0-2.2042-.8963-4.2819-2.2218-5.8363z" fill="#fff" stroke="#000"/>
<path d="m435.8067,1067.6054c1.0227-1.7181 2.7028-.9871 3.6948-.3185-.5928.099-.8399.5201-.6472,1.1286-2.49-1.164-.6687,2.6383-.8329,4.8032-.2208,2.9103-3.0753,3.2215-4.6087,3.0841l.8955-4.4738c2.3432.2325.8207-3.0848 1.4986-4.2236z" fill="#fff" fill-rule="evenodd"/>
<path d="m434.9635,1071.2882c-4.1408-.4227-3.7053,5.3002-1.139,5.5571" fill="none" stroke="#000"/>
<path d="m421.5657,1065.0046c1.5538,1.9786 9.2569,1.4498 10.2886,0" fill="none" stroke="#000"/>
</g>
</svg>
