<svg viewBox="0 0 512 512" xmlns="http://www.w3.org/2000/svg">

<path d="m695.1875,438.8622c0,6.4548-3.5398,11.6875-7.9062,11.6875s-7.9062-5.2327-7.9062-11.6875 3.5398-11.6875 7.9062-11.6875 7.9062,5.2327 7.9062,11.6875z" fill="#fff" stroke="#000" stroke-width=".8881" transform="matrix(21.03624,0,0,21.0497,-14201.86968,-8983.15263)"/>
<g transform="matrix(20.41821,0,0,20.41821,-8861.93051,-12090.83361)">
<path d="m450.1562,604.4247v11.3125" fill="none" stroke="#000" stroke-width=".9153"/>
<path d="m450.6025,609.9559h-.848c0-4.2245-.6802-5.4725-2.7072-6.5938 0-2.5575 6.3277-1.7045 6.3277,1.0312-2.1823,0-2.7724,1.5319-2.7724,5.5625z" fill-rule="evenodd"/>
<path d="m443.9062,605.3466c0,.6127-.4967,1.1094-1.1094,1.1094s-1.1094-.4967-1.1094-1.1094 .4967-1.1094 1.1094-1.1094 1.1094.4967 1.1094,1.1094z" fill="#fff" transform="translate(7.5937,-1.6562)"/>
<g transform="matrix(-1,0,0,1,893.10975,0)">
<path d="m450.1562,604.4247v11.3125" fill="none" stroke="#000" stroke-width=".9153"/>
<path d="m450.6025,609.9559h-.848c0-4.2245-.6802-5.4725-2.7072-6.5938 0-2.5575 6.3277-1.7045 6.3277,1.0312-2.1823,0-2.7724,1.5319-2.7724,5.5625z" fill-rule="evenodd"/>
<path d="m443.9062,605.3466c0,.6127-.4967,1.1094-1.1094,1.1094s-1.1094-.4967-1.1094-1.1094 .4967-1.1094 1.1094-1.1094 1.1094.4967 1.1094,1.1094z" fill="#fff" transform="translate(7.5937,-1.6562)"/>
</g>
</g>
</svg>
