<svg viewBox="0 0 512 512" xmlns="http://www.w3.org/2000/svg">

<path d="m 695.188 438.862 c 0 6.4548 -3.5398 11.6875 -7.9062 11.6875 s -7.9062 -5.2327 -7.9062 -11.6875 3.5398 -11.6875 7.9062 -11.6875 7.9062 5.2327 7.9062 11.6875 z" fill="#fff" stroke="#000" stroke-width=".8881" transform="matrix(21.03624,0,0,21.0497,-14201.86968,-8983.15263)"/>
<g transform="matrix(20.41821,0,0,20.41821,-8861.93051,-12090.83361)">
<path d="m 450.156 604.425 v 11.3125" fill="none" stroke="#000" stroke-width=".9153"/>
<path d="m 450.603 609.956 h -0.848 c 0 -4.2245 -0.6802 -5.4725 -2.7072 -6.5938 0 -2.5575 6.3277 -1.7045 6.3277 1.0312 -2.1823 0 -2.7724 1.5319 -2.7724 5.5625 z" fill-rule="evenodd"/>
<path d="m 443.906 605.347 c 0 0.6127 -0.4967 1.1094 -1.1094 1.1094 s -1.1094 -0.4967 -1.1094 -1.1094 0.4967 -1.1094 1.1094 -1.1094 1.1094 0.4967 1.1094 1.1094 z" fill="#fff" transform="translate(7.5937,-1.6562)"/>
<g transform="matrix(-1,0,0,1,893.10975,0)">
<path d="m 450.156 604.425 v 11.3125" fill="none" stroke="#000" stroke-width=".9153"/>
<path d="m 450.603 609.956 h -0.848 c 0 -4.2245 -0.6802 -5.4725 -2.7072 -6.5938 0 -2.5575 6.3277 -1.7045 6.3277 1.0312 -2.1823 0 -2.7724 1.5319 -2.7724 5.5625 z" fill-rule="evenodd"/>
<path d="m 443.906 605.347 c 0 0.6127 -0.4967 1.1094 -1.1094 1.1094 s -1.1094 -0.4967 -1.1094 -1.1094 0.4967 -1.1094 1.1094 -1.1094 1.1094 0.4967 1.1094 1.1094 z" fill="#fff" transform="translate(7.5937,-1.6562)"/>
</g>
</g>
</svg>
