<svg viewBox="0 0 512 512" xmlns="http://www.w3.org/2000/svg">

<g transform="matrix(18.68858,0,0,18.68858,-839.37201,-13526.79874)">
<path d="m 71.5283 732.804 c 0.2393 7.9983 -9.7353 9.2105 -12.8216 17.1947 -2.9218 -7.9836 -12.6306 -9.6772 -12.8594 -17.1947 -0.2439 -8.0143 8.8037 -10.7292 12.8594 -3.7044 4.0577 -7.0282 12.5971 -3.7987 12.8216 3.7044 z" fill="#fff"/>
<path d="m 71.5184 728.789 h -12.4059 l 4.1562 6.5625 h 8.5621" fill="none" stroke="#000"/>
<path d="m 46.9061 743.842 h 12.4059 l -4.1562 -6.5625 h -8.5621" fill="none" stroke="#000"/>
<path d="m 51.1636 724.514 9.8901 14.8632 h 9.218" fill="none" stroke="#000"/>
<path d="m 45.4616 733.8 h 11.7475" fill="none" stroke="#000"/>
<path d="m 51.6065 733.877 -5.0824 -7.9208" fill="none" stroke="#000"/>
<path d="m 68.3242 742.274 c 0 1.1838 -0.9596 2.1434 -2.1434 2.1434 s -2.1434 -0.9596 -2.1434 -2.1434 0.9596 -2.1434 2.1434 -2.1434 2.1434 0.9596 2.1434 2.1434 z" fill="#fff" stroke="#000" transform="matrix(-1,0,0,1,119.85757,1.5468)"/>
<path d="m 68.3242 742.274 c 0 1.1838 -0.9596 2.1434 -2.1434 2.1434 s -2.1434 -0.9596 -2.1434 -2.1434 0.9596 -2.1434 2.1434 -2.1434 2.1434 0.9596 2.1434 2.1434 z" fill="#fff" stroke="#000" transform="matrix(-1,0,0,1,113.74339,-14.34907)"/>
<path d="m 68.3242 742.274 c 0 1.1838 -0.9596 2.1434 -2.1434 2.1434 s -2.1434 -0.9596 -2.1434 -2.1434 0.9596 -2.1434 2.1434 -2.1434 2.1434 0.9596 2.1434 2.1434 z" fill="#fff" stroke="#000" transform="matrix(-1,0,0,1,129.60239,-7.40252)"/>
</g>
</svg>
