<svg viewBox="0 0 512 512" xmlns="http://www.w3.org/2000/svg">

<g transform="matrix(18.68858,0,0,18.68858,3883.79265,-4770.4992)">
<path d="m558.2166,275.0308c0,1.7086-4.6201,3.0936-10.3193,3.0936s-10.3193-1.385-10.3193-3.0936 4.6201-3.0936 10.3193-3.0936 10.3193,1.385 10.3193,3.0936z" fill="#fff" transform="matrix(1.18415,0,0,1,-842.99993,2.25733)"/>
<path d="m558.2166,275.0308c0,1.7086-4.6201,3.0936-10.3193,3.0936s-10.3193-1.385-10.3193-3.0936 4.6201-3.0936 10.3193-3.0936 10.3193,1.385 10.3193,3.0936z" transform="matrix(.84582,0,0,.71429,-657.62997,80.43983)"/>
<path d="m-194.5392,255.9825c-1.3607.1769-2.423,1.6574-2.423,3.4443 1e-05,.9896.339,1.8734.8611,2.5031-2.8298.5326-3.0438,5.3023-3.0438,8.6508h1.9624l.5206,6.9887c1.3183.4636 3.8554.4137 4.9862,0l.4606-6.9887h1.8623c0-3.3578.0674-8.2115-3.0238-8.6908 .4997-.6268.821-1.4979.821-2.4631-2e-05-1.906-1.2132-3.4443-2.7034-3.4443-.0931,0-.1896-.0118-.2803,0z" fill="#fff" fill-rule="evenodd" stroke="#000"/>
<path d="m-194.193,266.781c-6.7453,0-12.2187,1.3861-12.2188,3.0938s5.4735,3.0938 12.2188,3.0938 12.2188-1.3861 12.2188-3.0938-5.4735-3.0938-12.2188-3.0938zm0,.5c4.818,1e-05 8.7188.9677 8.7188,2.1875s-3.9007,2.2188-8.7188,2.2188-8.75-.999-8.75-2.2188 3.932-2.1875 8.75-2.1875z" fill="#fff"/>
<path d="m-194.193,259.1796c-6.7453,0-12.2187,1.3861-12.2188,3.0938s5.4735,3.0938 12.2188,3.0938 12.2188-1.3861 12.2188-3.0938-5.4735-3.0938-12.2188-3.0938zm0,.5c4.818,1e-05 8.7188.9677 8.7188,2.1875s-3.9007,2.2188-8.7188,2.2188-8.75-.999-8.75-2.2188 3.932-2.1875 8.75-2.1875z" fill="#fff"/>
<path d="m-192.3765,261.8899c.4997-.6268.821-1.4979.821-2.4631-2e-05-1.906-1.2132-3.4443-2.7034-3.4443-.0931,0-.1896-.0118-.2803,0-1.3607.1769-2.423,1.6574-2.423,3.4443 1e-05,.9896.339,1.8734.8611,2.5031m-2.7536,4.1044c-.1508.8876-.2249,1.8349-.2603,2.7531m9.7438-.3796c-.0255-.9054-.0856-1.829-.2267-2.6864" fill="none" stroke="#000"/>
</g>
</svg>
