<svg viewBox="0 0 512 512" xmlns="http://www.w3.org/2000/svg">

<g transform="matrix(18.68858,0,0,18.68858,-9086.32928,-43547.85433)">
<path d="m507.5768,2332.056c-.3291-.155-.6915-.25-1.0625-.25-.1048,0-.2104-.013-.3125,0-1.5317.199-2.7188,1.6783-2.7188,3.6875 0,1.1128.381,2.2607.9688,2.9688-3.1856.5988-3.4375,5.1099-3.4375,8.875h2.2188l.5625,8.75h3.7812" fill-rule="evenodd" stroke="#fff"/>
<path d="m492.2095,2332.056c.3291-.155.6915-.25 1.0625-.25 .1048,0 .2104-.013.3125,0 1.5317.199 2.7188,1.6783 2.7188,3.6875 0,1.1128-.381,2.2607-.9688,2.9688 3.1856.5988 3.4375,5.1099 3.4375,8.875h-2.2188l-.5625,8.75h-3.7812" fill-rule="evenodd" stroke="#fff"/>
<path d="m505.3849,2332.056c.3291-.155.6915-.25 1.0625-.25 .1048,0 .2104-.013.3125,0 1.5317.199 2.7188,1.6783 2.7188,3.6875 0,1.1128-.381,2.2607-.9688,2.9688 3.1856.5988 3.4375,5.1099 3.4375,8.875h-2.2188l-.5625,8.75h-3.7812" fill="none" stroke="#fff"/>
<path d="m494.3995,2332.056c-.3291-.155-.6915-.25-1.0625-.25-.1048,0-.2104-.013-.3125,0-1.5317.199-2.7188,1.6783-2.7188,3.6875 0,1.1128.381,2.2607.9688,2.9688-3.1856.5988-3.4375,5.1099-3.4375,8.875h2.2188l.5625,8.75h3.7812" fill="none" stroke="#fff"/>
<path d="m495.7863,2342.8806c0,1.129-.9152,2.0443-2.0443,2.0443s-2.0442-.9153-2.0442-2.0443 .9152-2.0442 2.0442-2.0442 2.0443.9152 2.0443,2.0442z" fill="#fff" transform="matrix(.76316,0,0,.76316,116.45474,547.52271)"/>
<path d="m493.5703,2335.3508 6.7593,1.6354-.9617-2.9678 7.3221,1.8657" fill="none" stroke="#fff"/>
<path d="m495.7863,2342.8806c0,1.129-.9152,2.0443-2.0443,2.0443s-2.0442-.9153-2.0442-2.0443 .9152-2.0442 2.0442-2.0442 2.0443.9152 2.0443,2.0442z" fill="#fff" transform="matrix(.76316,0,0,.76316,129.58103,547.52271)"/>
<path d="m496.4065,2349.5701 .0577-5.8732" fill="none" stroke="#fff"/>
<path d="m493.269,2356.2687v-8.1575" fill="none" stroke="#fff"/>
<path d="m490.2027,2349.5701 .0577-5.8732" fill="none" stroke="#fff"/>
<path d="m509.5917,2349.5701 .0577-5.8732" fill="none" stroke="#fff"/>
<path d="m506.4365,2356.2687v-8.1575" fill="none" stroke="#fff"/>
<path d="m503.3702,2349.5701 .0577-5.8732" fill="none" stroke="#fff"/>
</g>
</svg>
