<svg xmlns="http://www.w3.org/2000/svg" viewBox="0 0 512 512">
<g transform="matrix(15 0 0 15 -524 -6109.4325)">
<use width="744.094" height="1052.362" transform="translate(72 404.36216)"/>
<path fill="#fff" d="m124,4c-3.9999,0-8,2-8,5 0,2 1.5,3 1.5,5 0,1.5-.5,1.5-.5,2.5 0,.5 1.6004,1.0668 3,1.5v2h4 4v-2c0,0 3.0189-.9319 3-1.5-.031-.9316-.5-1-.5-2.5 0-1 1.5214-3.0474 1.5-5 0-3-4.0001-5-8-5zm-3,6c1.1046,0 2,.8955 2,2 0,1.1045-.8954,2-2,2-1.1046,0-2-.8955-2-2 0-1.1045 .8954-2 2-2zm6,0c1.1045,0 2,.8955 2,2 0,1.1045-.8955,2-2,2-1.1046,0-2-.8955-2-2 0-1.1045 .8954-2 2-2zm-3,3.5c.5,0 1.5,2 1.5,2.5 0,1 0,1-.5,1h-2c-.5,0-.5,0-.5-1 0-.5 1-2.5 1.5-2.5zm-8,8.5 0,3 16,0 0-3-16,0zm0,5 0,3 16,0 0-3-16,0zm-2,5c-1,0-2,1-2,2v2h24v-2c0-1-1-2-2-2h-10-10z" transform="translate(-72 404.36217)"/>
</g>
</svg>
