<svg viewBox="0 0 512 512" xmlns="http://www.w3.org/2000/svg">

<g transform="matrix(18.68858,0,0,18.68858,3883.79265,-4770.4992)">
<path d="m 558.217 275.031 c 0 1.7086 -4.6201 3.0936 -10.3193 3.0936 s -10.3193 -1.385 -10.3193 -3.0936 4.6201 -3.0936 10.3193 -3.0936 10.3193 1.385 10.3193 3.0936 z" fill="#fff" transform="matrix(1.18415,0,0,1,-842.99993,2.25733)"/>
<path d="m 558.217 275.031 c 0 1.7086 -4.6201 3.0936 -10.3193 3.0936 s -10.3193 -1.385 -10.3193 -3.0936 4.6201 -3.0936 10.3193 -3.0936 10.3193 1.385 10.3193 3.0936 z" transform="matrix(.84582,0,0,.71429,-657.62997,80.43983)"/>
<path d="m -194.539 255.982 c -1.3607 0.1769 -2.423 1.6574 -2.423 3.4443 1e-05 0.9896 0.339 1.8734 0.8611 2.5031 -2.8298 0.5326 -3.0438 5.3023 -3.0438 8.6508 h 1.9624 l 0.5206 6.9887 c 1.3183 0.4636 3.8554 0.4137 4.9862 0 l 0.4606 -6.9887 h 1.8623 c 0 -3.3578 0.0674 -8.2115 -3.0238 -8.6908 0.4997 -0.6268 0.821 -1.4979 0.821 -2.4631 -2e-05 -1.906 -1.2132 -3.4443 -2.7034 -3.4443 -0.0931 0 -0.1896 -0.0118 -0.2803 0 z" fill="#fff" fill-rule="evenodd" stroke="#000"/>
<path d="m -194.193 266.781 c -6.7453 0 -12.2187 1.3861 -12.2188 3.0938 s 5.4735 3.0938 12.2188 3.0938 12.2188 -1.3861 12.2188 -3.0938 -5.4735 -3.0938 -12.2188 -3.0938 z m 0 0.5 c 4.818 1e-05 8.7188 0.9677 8.7188 2.1875 s -3.9007 2.2188 -8.7188 2.2188 -8.75 -0.999 -8.75 -2.2188 3.932 -2.1875 8.75 -2.1875 z" fill="#fff"/>
<path d="m -194.193 259.18 c -6.7453 0 -12.2187 1.3861 -12.2188 3.0938 s 5.4735 3.0938 12.2188 3.0938 12.2188 -1.3861 12.2188 -3.0938 -5.4735 -3.0938 -12.2188 -3.0938 z m 0 0.5 c 4.818 1e-05 8.7188 0.9677 8.7188 2.1875 s -3.9007 2.2188 -8.7188 2.2188 -8.75 -0.999 -8.75 -2.2188 3.932 -2.1875 8.75 -2.1875 z" fill="#fff"/>
<path d="m -192.376 261.89 c 0.4997 -0.6268 0.821 -1.4979 0.821 -2.4631 -2e-05 -1.906 -1.2132 -3.4443 -2.7034 -3.4443 -0.0931 0 -0.1896 -0.0118 -0.2803 0 -1.3607 0.1769 -2.423 1.6574 -2.423 3.4443 1e-05 0.9896 0.339 1.8734 0.8611 2.5031 m -2.7536 4.1044 c -0.1508 0.8876 -0.2249 1.8349 -0.2603 2.7531 m 9.7438 -0.3796 c -0.0255 -0.9054 -0.0856 -1.829 -0.2267 -2.6864" fill="none" stroke="#000"/>
</g>
</svg>
