<svg viewBox="0 0 512 512" xmlns="http://www.w3.org/2000/svg">

<g transform="matrix(18.68858,0,0,18.68858,-9086.32928,-43547.85433)">
<path d="m 507.577 2332.06 c -0.3291 -0.155 -0.6915 -0.25 -1.0625 -0.25 -0.1048 0 -0.2104 -0.013 -0.3125 0 -1.5317 0.199 -2.7188 1.6783 -2.7188 3.6875 0 1.1128 0.381 2.2607 0.9688 2.9688 -3.1856 0.5988 -3.4375 5.1099 -3.4375 8.875 h 2.2188 l 0.5625 8.75 h 3.7812" fill-rule="evenodd" stroke="#fff"/>
<path d="m 492.209 2332.06 c 0.3291 -0.155 0.6915 -0.25 1.0625 -0.25 0.1048 0 0.2104 -0.013 0.3125 0 1.5317 0.199 2.7188 1.6783 2.7188 3.6875 0 1.1128 -0.381 2.2607 -0.9688 2.9688 3.1856 0.5988 3.4375 5.1099 3.4375 8.875 h -2.2188 l -0.5625 8.75 h -3.7812" fill-rule="evenodd" stroke="#fff"/>
<path d="m 505.385 2332.06 c 0.3291 -0.155 0.6915 -0.25 1.0625 -0.25 0.1048 0 0.2104 -0.013 0.3125 0 1.5317 0.199 2.7188 1.6783 2.7188 3.6875 0 1.1128 -0.381 2.2607 -0.9688 2.9688 3.1856 0.5988 3.4375 5.1099 3.4375 8.875 h -2.2188 l -0.5625 8.75 h -3.7812" fill="none" stroke="#fff"/>
<path d="m 494.399 2332.06 c -0.3291 -0.155 -0.6915 -0.25 -1.0625 -0.25 -0.1048 0 -0.2104 -0.013 -0.3125 0 -1.5317 0.199 -2.7188 1.6783 -2.7188 3.6875 0 1.1128 0.381 2.2607 0.9688 2.9688 -3.1856 0.5988 -3.4375 5.1099 -3.4375 8.875 h 2.2188 l 0.5625 8.75 h 3.7812" fill="none" stroke="#fff"/>
<path d="m 495.786 2342.88 c 0 1.129 -0.9152 2.0443 -2.0443 2.0443 s -2.0442 -0.9153 -2.0442 -2.0443 0.9152 -2.0442 2.0442 -2.0442 2.0443 0.9152 2.0443 2.0442 z" fill="#fff" transform="matrix(.76316,0,0,.76316,116.45474,547.52271)"/>
<path d="m 493.57 2335.35 6.7593 1.6354 -0.9617 -2.9678 7.3221 1.8657" fill="none" stroke="#fff"/>
<path d="m 495.786 2342.88 c 0 1.129 -0.9152 2.0443 -2.0443 2.0443 s -2.0442 -0.9153 -2.0442 -2.0443 0.9152 -2.0442 2.0442 -2.0442 2.0443 0.9152 2.0443 2.0442 z" fill="#fff" transform="matrix(.76316,0,0,.76316,129.58103,547.52271)"/>
<path d="m 496.406 2349.57 0.0577 -5.8732" fill="none" stroke="#fff"/>
<path d="m 493.269 2356.27 v -8.1575" fill="none" stroke="#fff"/>
<path d="m 490.203 2349.57 0.0577 -5.8732" fill="none" stroke="#fff"/>
<path d="m 509.592 2349.57 0.0577 -5.8732" fill="none" stroke="#fff"/>
<path d="m 506.437 2356.27 v -8.1575" fill="none" stroke="#fff"/>
<path d="m 503.37 2349.57 0.0577 -5.8732" fill="none" stroke="#fff"/>
</g>
</svg>
