<svg viewBox="0 0 512 512" xmlns="http://www.w3.org/2000/svg">

<g transform="matrix(18.68858,0,0,18.68858,-4995.09282,-21805.26172)">
<path d="m 283.356 1182.11 c -0.793 1.4305 -1.2642 2.9545 -1.4099 4.5394 1.5621 -0.1574 3.1224 -0.6344 4.5392 -1.4101 v 4.9176 c -1.4187 -0.7863 -2.975 -1.2649 -4.5392 -1.4098 0.1545 1.5707 0.63 3.1146 1.4099 4.5392 h -4.9175 c 0.7862 -1.4187 1.2305 -2.9752 1.3755 -4.5392 -1.5642 0.1448 -3.0859 0.6235 -4.5049 1.4098 v -4.9176 c 1.4203 0.7874 2.9321 1.2603 4.5049 1.4101 -0.144 -1.5674 -0.5878 -3.1177 -1.3755 -4.5394 h 4.9175 z" fill="#fff"/>
<path d="m 289.655 1173.3 c 0.1228 5.2468 -6.7248 6.5752 -8.8815 11.8129 -1.9616 -5.2373 -8.6037 -6.8814 -8.7218 -11.8129 -0.1259 -5.2576 6.3981 -6.2667 8.8303 -1.9997 2.5068 -4.6579 8.6578 -2.9227 8.773 1.9997 z" stroke="#fff"/>
<path d="m 281.05 1173.89 c 0 1.78 -1.443 3.223 -3.223 3.223 s -3.2231 -1.443 -3.2231 -3.223 1.443 -3.2231 3.2231 -3.2231 3.223 1.4431 3.223 3.2231 z" fill="#f9f9f9" transform="matrix(.97647,0,0,.97647,15.1066,25.80088)"/>
<path d="m 281.05 1173.89 c 0 1.78 -1.443 3.223 -3.223 3.223 s -3.2231 -1.443 -3.2231 -3.223 1.443 -3.2231 3.2231 -3.2231 3.223 1.4431 3.223 3.2231 z" fill="#f9f9f9" transform="matrix(.97647,0,0,.97647,6.53709,25.80088)"/>
</g>
</svg>
