<svg viewBox="0 0 512 512" xmlns="http://www.w3.org/2000/svg">

<g transform="matrix(18.68858,0,0,18.68858,-6362.70891,-41513.91203)">
<path d="m 352.343 2230.81 c -1.4185 0.05 -2.6164 1.28 -2.5936 3.0024 0.026 1.9682 2.1283 4.1896 2.925 4.1896 s 1.3303 -0.4388 1.626 -0.72 c 0.2901 0.237 0.6465 0.6955 1.5725 0.6955 s 2.7532 -2.2748 2.7272 -4.2432 -1.4388 -3.2618 -3.1536 -2.8872 c -0.4374 0.096 -0.9471 0.3654 -1.2289 0.8062 -0.3511 -0.372 -0.8035 -0.6963 -1.2433 -0.784 -0.2155 -0.043 -0.4286 -0.066 -0.6313 -0.061 z" fill="#fff"/>
<path d="m 353.956 2232.1 0.8182 -3.349" fill="none" stroke="#fff"/>
<path d="m 349.479 2241.95 c -9.9885 -7.3331 -1.8936 -18.2723 6.5861 -15.8276 8.9325 2.5752 6.9394 10.8041 2.788 14.845 -4.2291 4.1166 -1.5394 7.3383 2.3347 6.8749 -5.5802 -3.6543 1.6412 -4.7927 3.5848 -10.5357 2.4643 -7.2814 -0.6208 -12.9715 -9.6438 -14.6169 -10.9761 -2.0016 -19.6023 12.9662 -7.3286 21.5124" fill="#fff"/>
<path d="m 347.788 2241.74 c -1.0868 3.1564 1.2186 4.0591 5.551 4.6579 2.1244 0.2989 2.3983 -0.6043 1.9962 -1.837 -0.8775 -2.6898 -3.2065 -3.8958 -7.547 -2.8212 z" fill="#fff"/>
<path d="m 347.303 2239.25 c 0 0.5893 -0.4777 1.0669 -1.0669 1.0669 s -1.0669 -0.4776 -1.0669 -1.0669 0.4777 -1.0669 1.0669 -1.0669 1.0669 0.4777 1.0669 1.0669 z" stroke="#fff" stroke-width=".7448" transform="matrix(1.50614,.18735,.06398,1.20501,-313.91015,-519.25339)"/>
<path d="m 359.603 2247.77 -0.3056 -1.7189 c 1.9227 2.1381 7.1304 -1.5373 6.7994 -4.3929 1.3199 3.1585 -2.3906 7.1763 -6.4938 6.1118 z" fill="#fff"/>
</g>
</svg>
