<svg viewBox="0 0 512 512" xmlns="http://www.w3.org/2000/svg">

<g transform="matrix(18.68858,0,0,18.68858,-4995.09282,-21805.26172)">
<path d="m283.3558,1182.1096c-.793,1.4305-1.2642,2.9545-1.4099,4.5394 1.5621-.1574 3.1224-.6344 4.5392-1.4101v4.9176c-1.4187-.7863-2.975-1.2649-4.5392-1.4098 .1545,1.5707.63,3.1146 1.4099,4.5392h-4.9175c.7862-1.4187 1.2305-2.9752 1.3755-4.5392-1.5642.1448-3.0859.6235-4.5049,1.4098v-4.9176c1.4203.7874 2.9321,1.2603 4.5049,1.4101-.144-1.5674-.5878-3.1177-1.3755-4.5394h4.9175z" fill="#fff"/>
<path d="m289.6552,1173.3006c.1228,5.2468-6.7248,6.5752-8.8815,11.8129-1.9616-5.2373-8.6037-6.8814-8.7218-11.8129-.1259-5.2576 6.3981-6.2667 8.8303-1.9997 2.5068-4.6579 8.6578-2.9227 8.773,1.9997z" stroke="#fff"/>
<path d="m281.0495,1173.8899c0,1.78-1.443,3.223-3.223,3.223s-3.2231-1.443-3.2231-3.223 1.443-3.2231 3.2231-3.2231 3.223,1.4431 3.223,3.2231z" fill="#f9f9f9" transform="matrix(.97647,0,0,.97647,15.1066,25.80088)"/>
<path d="m281.0495,1173.8899c0,1.78-1.443,3.223-3.223,3.223s-3.2231-1.443-3.2231-3.223 1.443-3.2231 3.2231-3.2231 3.223,1.4431 3.223,3.2231z" fill="#f9f9f9" transform="matrix(.97647,0,0,.97647,6.53709,25.80088)"/>
</g>
</svg>
