<svg xmlns="http://www.w3.org/2000/svg" viewBox="0 0 512 512">
<g fill="#fff" stroke="#000" fill-rule="evenodd" transform="matrix(18.68858 0 0 18.68858 6413.4499 -8593.10319)">
<path d="m-326.2233,484.8982c5.0261-1.6172 8.716-6.6125 8.2886-12.226 0,0-13.5742-6.1027-13.5742-6.1027 11.9625,6.1927 3.2792,20.308-5.7758,13.8091 2.1569,4.9052 6.8551,5.873 11.0613,4.5196z"/>
<path d="m-316.5203,473.1227c-.2607-5.6226-4.1293-10.801-9.6603-11.9096-5.8734-1.1772-12.7514-1.0089-16.3063,4.6296v21.0654h8.6274c-5.4053-4.2793-4.0588-10.672-1.7272-13.3982 9.0759-10.6121 20.4584,2.2252 11.8394,9.7582 5.2948-.8682 7.4453-5.44 7.2271-10.1455z"/>
</g>
</svg>
