<svg viewBox="0 0 512 512" xmlns="http://www.w3.org/2000/svg">

<g transform="matrix(18.68858,0,0,18.68858,-12487.99753,-39463.4029)">
<path d="m681.625,2112.25c-2.5822.017-5.1305,1.1991-6.4688,3.5312-2.4992,4.3557-2.6425,9.5582 1.5,10-.1339.474-.2188.9513-.2188,1.4688 0,2.9951.9122,11.2812 5.375,11.2812s5.375-8.2861 5.375-11.2812c0-.5175-.0848-.9948-.2188-1.4688 4.0587-.483 4.1625-5.3312 1.3125-10-1.4651-2.4-4.074-3.5482-6.6562-3.5312z" fill="#fff" stroke="#000"/>
<path d="m680.9177,2121.959c0,.9785-.7933,1.7718-1.7718,1.7718s-1.7718-.7933-1.7718-1.7718 .7933-1.7718 1.7718-1.7718 1.7718.7932 1.7718,1.7718z" stroke="#fff" stroke-width=".6743" transform="matrix(1.64276,0,0,1.64276,-429.54099,-1364.0971)"/>
<path d="m680.9177,2121.959c0,.9785-.7933,1.7718-1.7718,1.7718s-1.7718-.7933-1.7718-1.7718 .7933-1.7718 1.7718-1.7718 1.7718.7932 1.7718,1.7718z" stroke="#fff" stroke-width=".6743" transform="matrix(1.64276,0,0,1.64276,-438.17905,-1364.0971)"/>
<path d="m685.0562,2128.2758c0,2.0462-.5373,7.6904-3.1866,7.6904s-3.1867-5.6442-3.1867-7.6904 1.4267-3.7047 3.1867-3.7047 3.1866,1.6586 3.1866,3.7047z" fill="none" stroke="#000"/>
<path d="m679.4053,2126.6262-.7365,3.0495 1.2545,4.7022h3.9491l1.4579-4.7022-.7365-3.0495z"/>
<path d="m678.2463,2122.5723c0,.5645-.4577,1.0222-1.0222,1.0222s-1.0222-.4577-1.0222-1.0222 .4577-1.0222 1.0222-1.0222 1.0222.4576 1.0222,1.0222z" fill="#fff" stroke="#000" stroke-width=".9036" transform="matrix(1.10667,0,0,1.10667,-72.0239,-227.06191)"/>
<path d="m678.2463,2122.5723c0,.5645-.4577,1.0222-1.0222,1.0222s-1.0222-.4577-1.0222-1.0222 .4577-1.0222 1.0222-1.0222 1.0222.4576 1.0222,1.0222z" fill="#fff" stroke="#000" stroke-width=".9036" transform="matrix(1.10667,0,0,1.10667,-63.23721,-227.06191)"/>
</g>
</svg>
