<svg viewBox="0 0 512 512" xmlns="http://www.w3.org/2000/svg">

<g transform="matrix(18.68858,0,0,18.68858,-12487.99753,-39463.4029)">
<path d="m 681.625 2112.25 c -2.5822 0.017 -5.1305 1.1991 -6.4688 3.5312 -2.4992 4.3557 -2.6425 9.5582 1.5 10 -0.1339 0.474 -0.2188 0.9513 -0.2188 1.4688 0 2.9951 0.9122 11.2812 5.375 11.2812 s 5.375 -8.2861 5.375 -11.2812 c 0 -0.5175 -0.0848 -0.9948 -0.2188 -1.4688 4.0587 -0.483 4.1625 -5.3312 1.3125 -10 -1.4651 -2.4 -4.074 -3.5482 -6.6562 -3.5312 z" fill="#fff" stroke="#000"/>
<path d="m 680.918 2121.96 c 0 0.9785 -0.7933 1.7718 -1.7718 1.7718 s -1.7718 -0.7933 -1.7718 -1.7718 0.7933 -1.7718 1.7718 -1.7718 1.7718 0.7932 1.7718 1.7718 z" stroke="#fff" stroke-width=".6743" transform="matrix(1.64276,0,0,1.64276,-429.54099,-1364.0971)"/>
<path d="m 680.918 2121.96 c 0 0.9785 -0.7933 1.7718 -1.7718 1.7718 s -1.7718 -0.7933 -1.7718 -1.7718 0.7933 -1.7718 1.7718 -1.7718 1.7718 0.7932 1.7718 1.7718 z" stroke="#fff" stroke-width=".6743" transform="matrix(1.64276,0,0,1.64276,-438.17905,-1364.0971)"/>
<path d="m 685.056 2128.28 c 0 2.0462 -0.5373 7.6904 -3.1866 7.6904 s -3.1867 -5.6442 -3.1867 -7.6904 1.4267 -3.7047 3.1867 -3.7047 3.1866 1.6586 3.1866 3.7047 z" fill="none" stroke="#000"/>
<path d="m 679.405 2126.63 -0.7365 3.0495 1.2545 4.7022 h 3.9491 l 1.4579 -4.7022 -0.7365 -3.0495 z"/>
<path d="m 678.246 2122.57 c 0 0.5645 -0.4577 1.0222 -1.0222 1.0222 s -1.0222 -0.4577 -1.0222 -1.0222 0.4577 -1.0222 1.0222 -1.0222 1.0222 0.4576 1.0222 1.0222 z" fill="#fff" stroke="#000" stroke-width=".9036" transform="matrix(1.10667,0,0,1.10667,-72.0239,-227.06191)"/>
<path d="m 678.246 2122.57 c 0 0.5645 -0.4577 1.0222 -1.0222 1.0222 s -1.0222 -0.4577 -1.0222 -1.0222 0.4577 -1.0222 1.0222 -1.0222 1.0222 0.4576 1.0222 1.0222 z" fill="#fff" stroke="#000" stroke-width=".9036" transform="matrix(1.10667,0,0,1.10667,-63.23721,-227.06191)"/>
</g>
</svg>
