<svg viewBox="0 0 512 512" xmlns="http://www.w3.org/2000/svg">

<g transform="matrix(18.68858,0,0,18.68858,3883.65937,-13636.10782)">
<path d="m-195.1697,734.4293h2.0504v21.6551h-2.0504z" fill="#fff"/>
<path d="m-200.7711,750.2234h12.894c2.2731,0 2.2483-2.5598 0-2.5598h-12.894c-1.7888,0-1.7748,2.5598 0,2.5598z" fill="#fff" stroke="#000"/>
<path d="m-198.8128,745.8767h8.9774c2.2731,0 2.2483-2.5598 0-2.5598h-8.9774c-1.7888,0-1.7749,2.5598 0,2.5598z" fill="#fff" stroke="#000"/>
<path d="m-191.4566,741.6397h-5.0168c-2.2731,0-2.2483-2.5598 0-2.5598h5.0168c1.7888,0 1.7749,2.5598 0,2.5598z" fill="#fff" stroke="#000"/>
<path d="m-202.607,754.5926h16.5658c2.2731,0 2.2483-2.5598 0-2.5598h-16.5658c-1.7888,0-1.7749,2.5598 0,2.5598z" fill="#fff" stroke="#000"/>
<path d="m209.5625,732.0809c0,1.6741-1.3571,3.0312-3.0312,3.0312s-3.0312-1.3571-3.0312-3.0312 1.3571-3.0312 3.0312-3.0312 3.0312,1.3571 3.0312,3.0312z" fill="#fff" stroke="#000" stroke-width=".8362" transform="matrix(1.19588,0,0,1.19588,-441.13037,-141.67855)"/>
<g transform="translate(-400.9742)">
<path d="m197.7719,730.6812-1.6053,4.9849 4.7669,2.0721-1.6582,6.4674 3.7218-7.1422-4.2315-2.0862 2.8414-4.3263-3.835.0304z" fill="#fff" fill-rule="evenodd"/>
<path d="m215.2625,730.6812 3.1678,8.2974-4.4544,1.0096 1.9707,8.7174-4.2843-9.8922 4.6065-1.1487-4.0914-7.0138 3.085.0304z" fill="#fff" fill-rule="evenodd"/>
</g>
</g>
</svg>
