<svg xmlns="http://www.w3.org/2000/svg" viewBox="0 0 512 512">
<g transform="matrix(15 0 0 15 -7004 -4489.433)">
<use width="744.094" height="1052.362" transform="translate(504 296.36219)"/>
<g fill="#fff">
<path d="m 483 320.362 -4 0 0 -4 -3 -2 0 -14 7 0 0 2 -3 2 0 4 3 2 z m 2 0 0 -10 3 -2 0 -4 -3 -2 0 -2 7 0 0 14 -3 2 0 4 z m 4 2 c 2 0 3 1 3 2 h -4 -8 -4 c 0 -1 1 -2 3 -2 z m 5 4 c 1 0 2 1 2 2 v 4 h -24 v -4 c 0 -1 1 -2 2 -2 z"/>
<path d="m 272 1026.36 a 3 3 0 1 1 -6 0 3 3 0 1 1 6 0 z" transform="translate(215 -720)"/>
</g>
</g>
</svg>
