<svg viewBox="0 0 512 512" xmlns="http://www.w3.org/2000/svg">

<g transform="matrix(18.68858,0,0,18.68858,3883.65937,-13636.10782)">
<path d="m -195.17 734.429 h 2.0504 v 21.6551 h -2.0504 z" fill="#fff"/>
<path d="m -200.771 750.223 h 12.894 c 2.2731 0 2.2483 -2.5598 0 -2.5598 h -12.894 c -1.7888 0 -1.7748 2.5598 0 2.5598 z" fill="#fff" stroke="#000"/>
<path d="m -198.813 745.877 h 8.9774 c 2.2731 0 2.2483 -2.5598 0 -2.5598 h -8.9774 c -1.7888 0 -1.7749 2.5598 0 2.5598 z" fill="#fff" stroke="#000"/>
<path d="m -191.457 741.64 h -5.0168 c -2.2731 0 -2.2483 -2.5598 0 -2.5598 h 5.0168 c 1.7888 0 1.7749 2.5598 0 2.5598 z" fill="#fff" stroke="#000"/>
<path d="m -202.607 754.593 h 16.5658 c 2.2731 0 2.2483 -2.5598 0 -2.5598 h -16.5658 c -1.7888 0 -1.7749 2.5598 0 2.5598 z" fill="#fff" stroke="#000"/>
<path d="m 209.562 732.081 c 0 1.6741 -1.3571 3.0312 -3.0312 3.0312 s -3.0312 -1.3571 -3.0312 -3.0312 1.3571 -3.0312 3.0312 -3.0312 3.0312 1.3571 3.0312 3.0312 z" fill="#fff" stroke="#000" stroke-width=".8362" transform="matrix(1.19588,0,0,1.19588,-441.13037,-141.67855)"/>
<g transform="translate(-400.9742)">
<path d="m 197.772 730.681 -1.6053 4.9849 4.7669 2.0721 -1.6582 6.4674 3.7218 -7.1422 -4.2315 -2.0862 2.8414 -4.3263 -3.835 0.0304 z" fill="#fff" fill-rule="evenodd"/>
<path d="m 215.262 730.681 3.1678 8.2974 -4.4544 1.0096 1.9707 8.7174 -4.2843 -9.8922 4.6065 -1.1487 -4.0914 -7.0138 3.085 0.0304 z" fill="#fff" fill-rule="evenodd"/>
</g>
</g>
</svg>
