<svg viewBox="0 0 512 512" xmlns="http://www.w3.org/2000/svg">

<g transform="matrix(18.68858,0,0,18.68858,-10447.62883,-40155.08593)">
<path d="m 568.585 2163.49 h 3.4721 v 7.3033 h -3.4721 z" fill="#fff" stroke="#000"/>
<path d="m 563.879 2157.58 h 9.3637 v 6.4554 h -9.3637 z" fill="#fff" stroke="#000"/>
<g transform="matrix(.79196,-.79196,.79196,.79196,-1587.6652,897.44154)">
<path d="m 563.906 2149.59 c -0.9573 0.025 -1.9478 0.4166 -2.6562 1.125 -1.4169 1.4169 -1.6009 3.9196 0 5.125 l 7.3125 5.5 3.25 -3.25 -5.4375 -7.375 c -0.5934 -0.8074 -1.5114 -1.1498 -2.4688 -1.125 z" fill="#fff"/>
<path d="m 569.743 2159.22 6.2322 6.2322" fill="none" stroke="#fff" stroke-width=".8929"/>
<path d="m 573.437 2159.64 -3.4312 3.4315" fill="none" stroke="#fff" stroke-width=".8929"/>
<path d="m 575.055 2161.6 -2.9348 2.935" fill="none" stroke="#fff" stroke-width=".8929"/>
<path d="m 582.408 2162.27 c 0 0.6171 -0.5002 1.1173 -1.1173 1.1173 s -1.1173 -0.5002 -1.1173 -1.1173 0.5002 -1.1173 1.1173 -1.1173 1.1173 0.5002 1.1173 1.1173 z" fill="#fff" transform="matrix(1.06926,1.06926,-1.06926,1.06926,2266.4668,-768.08597)"/>
<path d="m 576.192 2163.38 -7.6001 -10.4849" fill="none" stroke="#000" stroke-width=".8929"/>
<path d="m 560.238 2155.64 13.483 10.1289" fill="none" stroke="#000" stroke-width=".8929"/>
</g>
<path d="m 570.071 2154.54 -4.4116 1.4756 3.3291 0.633 -0.2673 1.167 4.4117 -1.4755 -3.3291 -0.6331 0.2672 -1.167 z"/>
<path d="m 561.149 2174.51 h 1.7273 l 7.5413 -4.6104 7.5413 4.6104 h 2.1512" fill="none" stroke="#fff"/>
<path d="m 569.781 2174.51 h 2.9233" fill="none" stroke="#fff"/>
<path d="m 571.207 2174.53 -0.8478 -4.5861" fill="none" stroke="#fff"/>
<path d="m 562.24 2159.52 c -4.0983 4.3996 1.788 8.6144 4.7123 3.5752" fill="none" stroke="#fff"/>
<path d="m 566.934 2170.03 h 6.8672 v 1.8803 h -6.8672 z" fill="#fff"/>
</g>
</svg>
