<svg viewBox="0 0 512 512" xmlns="http://www.w3.org/2000/svg">

<g transform="matrix(18.68858,0,0,18.68858,-10447.62883,-40155.08593)">
<path d="m568.5849,2163.4929h3.4721v7.3033h-3.4721z" fill="#fff" stroke="#000"/>
<path d="m563.8793,2157.5837h9.3637v6.4554h-9.3637z" fill="#fff" stroke="#000"/>
<g transform="matrix(.79196,-.79196,.79196,.79196,-1587.6652,897.44154)">
<path d="m563.9062,2149.5938c-.9573.025-1.9478.4166-2.6562,1.125-1.4169,1.4169-1.6009,3.9196 0,5.125l7.3125,5.5 3.25-3.25-5.4375-7.375c-.5934-.8074-1.5114-1.1498-2.4688-1.125z" fill="#fff"/>
<path d="m569.743,2159.22 6.2322,6.2322" fill="none" stroke="#fff" stroke-width=".8929"/>
<path d="m573.4367,2159.6372-3.4312,3.4315" fill="none" stroke="#fff" stroke-width=".8929"/>
<path d="m575.0552,2161.5974-2.9348,2.935" fill="none" stroke="#fff" stroke-width=".8929"/>
<path d="m582.4076,2162.2666c0,.6171-.5002,1.1173-1.1173,1.1173s-1.1173-.5002-1.1173-1.1173 .5002-1.1173 1.1173-1.1173 1.1173.5002 1.1173,1.1173z" fill="#fff" transform="matrix(1.06926,1.06926,-1.06926,1.06926,2266.4668,-768.08597)"/>
<path d="m576.192,2163.3831-7.6001-10.4849" fill="none" stroke="#000" stroke-width=".8929"/>
<path d="m560.238,2155.6433 13.483,10.1289" fill="none" stroke="#000" stroke-width=".8929"/>
</g>
<path d="m570.0714,2154.5379-4.4116,1.4756 3.3291.633-.2673,1.167 4.4117-1.4755-3.3291-.6331 .2672-1.167z"/>
<path d="m561.1485,2174.5123h1.7273l7.5413-4.6104 7.5413,4.6104h2.1512" fill="none" stroke="#fff"/>
<path d="m569.7812,2174.5123h2.9233" fill="none" stroke="#fff"/>
<path d="m571.2071,2174.5315-.8478-4.5861" fill="none" stroke="#fff"/>
<path d="m562.2404,2159.5186c-4.0983,4.3996 1.788,8.6144 4.7123,3.5752" fill="none" stroke="#fff"/>
<path d="m566.9339,2170.0278h6.8672v1.8803h-6.8672z" fill="#fff"/>
</g>
</svg>
