<svg viewBox="0 0 512 512" xmlns="http://www.w3.org/2000/svg">

<g transform="matrix(18.68858,0,0,18.68858,-9080.25526,-17040.30337)">
<path d="m 695.188 438.862 c 0 6.4548 -3.5398 11.6875 -7.9062 11.6875 s -7.9062 -5.2327 -7.9062 -11.6875 3.5398 -11.6875 7.9062 -11.6875 7.9062 5.2327 7.9062 11.6875 z" fill="#fff" stroke="#000" stroke-width=".8689" transform="matrix(1.17592,0,0,1.12634,-308.82765,431.24667)"/>
<path d="m 506.257 923.341 c 0 2.2451 -3.1078 4.0672 -6.937 4.0672 s -6.937 -1.8221 -6.937 -4.0672" stroke="#000"/>
<path d="m 494.578 922.825 h 9.6873 c -3.7083 2.0827 -3.631 6.1538 -3.4713 9.8891 h -3.0273 c 0.1792 -3.4689 0.8128 -7.8328 -3.1887 -9.8891 z" fill="#fff"/>
<path d="m 508.247 923.449 c -4.6551 -1.7669 -8.5614 1.8629 -7.3471 9.1402 -0.8763 0.2711 -2.1702 0.2895 -3.1061 0 1.2144 -7.2773 -2.6919 -10.907 -7.3471 -9.1402" fill="none" stroke="#000"/>
<path d="m 504.916 936.628 c 0 -1.0792 -2.5072 -1.9551 -5.5965 -1.9551 s -5.5965 0.8759 -5.5965 1.9551" fill="none" stroke="#000"/>
<path d="m 493.584 920.184 c 3.4116 3.5379 7.7653 3.6903 11.6157 0 -3.4512 -3.3347 -8.0793 -3.5543 -11.6157 0 z" fill="#fff" fill-rule="evenodd" stroke="#000"/>
<path d="m 650.636 1028.15 c 0 2.7517 -2.2308 4.9825 -4.9825 4.9825 s -4.9825 -2.2308 -4.9825 -4.9825 2.2308 -4.9825 4.9825 -4.9825 4.9825 2.2307 4.9825 4.9825 z" fill="#fff" stroke="#000" stroke-width="1.9715" transform="matrix(.5036,0,0,.51086,174.16896,394.95177)"/>
<path d="m 650.636 1028.15 c 0 2.7517 -2.2308 4.9825 -4.9825 4.9825 s -4.9825 -2.2308 -4.9825 -4.9825 2.2308 -4.9825 4.9825 -4.9825 4.9825 2.2307 4.9825 4.9825 z" transform="matrix(.17929,0,0,.18187,383.56535,733.22121)"/>
</g>
</svg>
