<svg viewBox="0 0 512 512" xmlns="http://www.w3.org/2000/svg">

<g transform="matrix(18.68858,0,0,18.68858,-228.4486,-18613.73636)">
<path d="m 34.3989 1014.73 c -0.0829 -3.3504 -1.0965 -5.8768 -5.0615 -5.7892 -0.4795 -2.8478 -1.8817 -4.8428 -5.894 -4.4253 0.5629 -4.1389 -1.9128 -6.0439 -4.895 -6.089 -0.2058 -0.7753 -0.9011 -1.9471 -0.9011 -1.9471 l -4.8095 0.0783 -0.1887 4.5975 c 0.7652 0.2478 1.7022 0.3435 2.8358 0.2659 -0.537 4.6239 1.5175 6.1298 5.3279 5.5232 0.0647 4.6244 2.8803 4.6675 5.5277 4.991 -0.6175 5.1538 2.2098 5.4888 5.0615 5.7894 l 2.9969 -2.9947 z" fill="#fff" fill-rule="evenodd"/>
<path d="m 28.1386 1011.41 c 2.4483 -0.9313 4.4063 0.022 3.7961 3.4898 -2.6949 1.5556 -3.8036 -0.5863 -3.7961 -3.4898 z" fill-rule="evenodd"/>
<path d="m 12.6142 996.63 c 2.1008 -0.5133 3.1326 0.3274 3.1371 2.3624 -2.6005 1.0411 -2.9392 -0.4747 -3.1371 -2.3624 z" fill-rule="evenodd"/>
<path d="m 23.0438 1006.98 c 2.1008 -0.5132 3.5918 0.3274 3.5963 2.3625 -2.5531 1.053 -3.2369 -0.4344 -3.5963 -2.3625 z" fill-rule="evenodd"/>
<path d="m 17.4829 1000.99 c 2.3858 -0.9826 4.0603 0.1251 3.7961 3.4899 -2.9259 1.6421 -3.7698 -0.5092 -3.7961 -3.4899 z" fill-rule="evenodd"/>
<path d="m 17.9189 1000.82 c 1.1641 -0.1745 1.934 -0.087 2.3768 0.061 s 0.5317 0.3211 0.6798 0.6205 c 0.2963 0.5978 0.2554 1.9567 0.0878 3.4806 s -0.4489 3.2132 0.2217 4.7207 c 0.3353 0.7537 1.0273 1.3861 1.92 1.7116 s 1.9237 0.3532 3.2514 0.1583 m -0.3053 -2.1437 c -1.1116 0.1631 -1.7783 0.1061 -2.1751 -0.038 s -0.5434 -0.3138 -0.6798 -0.6204 c -0.2728 -0.6133 -0.249 -2.0135 -0.0803 -3.548 s 0.4542 -3.2277 -0.2889 -4.7281 c -0.3716 -0.7504 -1.0762 -1.3459 -1.9948 -1.6519 s -2.0147 -0.379 -3.3859 -0.1734" fill="none" stroke="#000"/>
<path d="m 15.1871 996.606 c 0.199 0.1223 0.2749 0.2727 0.3814 0.488 0.2963 0.5978 0.2554 1.9567 0.0878 3.4806 s -0.4489 3.2133 0.2217 4.7207 c 0.3353 0.7537 1.0273 1.3861 1.92 1.7118 s 1.9237 0.353 3.2514 0.1582 m -0.3053 -2.1438 c -1.1116 0.1631 -1.7783 0.1063 -2.1751 -0.038 s -0.5434 -0.3139 -0.6798 -0.6202 c -0.2728 -0.6134 -0.249 -2.0136 -0.0803 -3.5481 0.1495 -1.3596 0.3905 -2.8433 -0.0729 -4.2073" fill="none" stroke="#000"/>
<path d="m 28.6819 1011.3 c 1.1641 -0.1746 1.934 -0.087 2.3768 0.061 s 0.5317 0.3211 0.6798 0.6205 c 0.2963 0.5979 0.2554 1.9567 0.0878 3.4807 s -0.4489 3.2132 0.2217 4.7207 m 2.0112 -0.9327 c -0.2728 -0.6134 -0.249 -2.0136 -0.0803 -3.548 s 0.4542 -3.2278 -0.2889 -4.7282 c -0.3716 -0.7504 -1.0762 -1.3458 -1.9948 -1.6518 s -2.0147 -0.379 -3.3859 -0.1734" fill="none" stroke="#000"/>
<path d="m 23.275 1006.9 c 1.1641 -0.1746 1.934 -0.087 2.3768 0.061 s 0.5317 0.3212 0.6798 0.6206 c 0.2963 0.5977 0.2554 1.9566 0.0878 3.4805 s -0.4489 3.2134 0.2217 4.7208 c 0.3353 0.7536 1.0273 1.3861 1.92 1.7118 0.8928 0.3249 1.9237 0.353 3.2514 0.1582 m -0.3053 -2.1438 c -1.1116 0.163 -1.7783 0.1063 -2.1751 -0.038 s -0.5434 -0.3139 -0.6798 -0.6203 c -0.2728 -0.6135 -0.249 -2.0135 -0.0803 -3.548 s 0.4542 -3.2278 -0.2889 -4.7283 c -0.3716 -0.7503 -1.0762 -1.3458 -1.9948 -1.6518 s -2.0147 -0.3789 -3.3859 -0.1734" fill="none" stroke="#000"/>
<path d="m 12.7255 1001.22 c 0.8013 0.2066 1.7207 0.2032 2.8577 0.036 m -0.3053 -2.1438 c -1.1116 0.163 -1.7783 0.1062 -2.1751 -0.0385" fill="none" stroke="#000"/>
<path d="m 24.465 1012.97 c 0.8658 0.2135 1.7316 0.3297 2.5974 -0.3838 l -0.0001 2.4614 c -1.122 -0.1438 -1.912 -0.9985 -2.5973 -2.0776 z" fill="#fff"/>
<path d="m 34.9465 1009.74 c -0.7426 0.7091 -1.5752 0.8991 -2.5259 0.7162 l 1.0123 2.2443 c 0.7913 -0.8798 1.3808 -1.7694 1.5137 -2.9605 z" fill="#fff"/>
<path d="m 29.2417 1004.88 c -0.5791 0.7198 -1.4733 1.068 -2.4415 0.9653 l 1.2319 2.1319 c 0.8578 -0.5465 1.2429 -1.7776 1.2096 -3.0972 z" fill="#fff"/>
<path d="m 25.0841 1002.88 c -0.9132 0.3941 -1.7697 0.24 -2.5973 -0.384 l 0.0001 2.4617 c 1.0669 -0.3408 2.0287 -0.8654 2.5972 -2.0777 z" fill="#fff"/>
<path d="m 21.0038 1012.12 c 0.7897 -0.5543 1.2594 -1.3395 0.966 -2.4397 l 2.1335 1.2311 c -0.8593 0.7792 -1.8638 1.2439 -3.0994 1.2086 z" fill="#fff"/>
<path d="m 14.2339 1005.54 c 1.0757 -0.2058 1.9179 -0.6137 2.0573 -1.6302 l 1.2317 2.1319 c -1.1278 0.411 -2.3345 0.1738 -3.289 -0.5017 z" fill="#fff"/>
<path d="m 19.7558 996.963 c 0.1753 0.8863 -0.1239 1.7265 -0.6336 2.5462 l 2.4521 0.2379 c -0.1735 -0.9399 -0.6372 -1.8718 -1.8185 -2.7841 z" fill="#fff"/>
<path d="m 28.9938 1019.71 c 2.9697 1.4449 6.2162 2.2174 9.6408 2.5573 -0.1434 -3.3565 -1.0835 -6.5584 -2.312 -9.7039 -1.1707 1.1419 -2.271 2.1311 -3.886 1.901 0.0693 1.1106 -0.9178 1.6487 -1.8129 1.6648 0.2049 1.5526 -0.3582 2.3407 -1.63 3.5808 z" fill="#fff"/>
<path d="m 30.3729 1017.69 c 1.7987 1.0238 3.7138 1.6764 5.7038 2.0905 -0.2954 -1.9496 -1.039 -3.8603 -1.9447 -5.7566" fill="none" stroke="#000"/>
<path d="m 23.0803 996.495 h -10.3116 v 9.8493" fill="none" stroke="#000"/>
</g>
</svg>
