<svg viewBox="0 0 512 512" xmlns="http://www.w3.org/2000/svg">

<g transform="matrix(18.68858,0,0,18.68858,-3389.17953,-13528.08441)">
<path d="m181.9424,725.5203v-1.0275h3.961l.8569,3.3876 8.3058,5.5773 4.9867,7.8601 3.0551,4.6438 4.918-.5517v5.1222h-2.5891l.779-2.6329-5.3349.9016-2.6389-5.9902-8.6483-9.291-2.4865-2.7957-2.949-.1403-2.2156-5.0634z" fill="#fff"/>
<path d="m200.8038,750.918-2.9973-2.0796 6.0272-5.2316-3.7833-3.2915" fill="none" stroke="#fff"/>
<path d="m194.2334,732.7941-1.7236-5.4801-3.7996-.3155-.9734-2.5571" fill="none" stroke="#fff"/>
<path d="m191.6259,733.8106-5.7453.221-3.6681-7.9108" fill="none" stroke="#fff"/>
<path d="m202.1308,747.6616 1.1624,3.1195" fill="none" stroke="#fff"/>
<path d="m-750.81,181.8063h26.4321v26.4321h-26.4321z" fill="none" stroke="#000" transform="matrix(-3.6761579e-8,-1,1,-3.6761579e-8,0,0)"/>
<path d="m189.5141,735.0114c-1.1636.9119-2.1982,2.0927-2.8239,3.4165 .9736,2.5924 2.745,3.8666 5.1548,3.3912" fill="#fff" fill-rule="evenodd" stroke="#000"/>
<g transform="matrix(7.808773e-8,-.91237,.91104,7.8201754e-8,-476.38144,915.39518)">
<path d="m202.1644,737.0374c-2.2199-2.9773-3.8396-4.8517-6.4151-6.6995-3.7614,1.1077-7.8818,4.4837-9.3266,8.5637 1.0072,2.626 3.0825,4.9023 5.0782,6.6173 .9968.8566 2.2601.8575 3.1884-.6025 2.0442.3361 2.6074-1.0997 2.6107-2.1585 1.397.6979 3.1711-.2752 2.9766-2.5597 2.0745.4634 2.8609-1.8558 1.8879-3.1608z" fill="#fff" fill-rule="evenodd" stroke="#000" stroke-width="1.0968"/>
<path d="m192.6362,731.6858 5.6681,6.4416" fill="none" stroke="#000" stroke-width="1.0968"/>
<path d="m195.476,740.478-5.5359-6.7139" fill="none" stroke="#000" stroke-width="1.0968"/>
<path d="m192.5928,742.484-4.5753-6.2862" fill="none" stroke="#000" stroke-width="1.0968"/>
</g>
</g>
</svg>
