<svg viewBox="0 0 512 512" xmlns="http://www.w3.org/2000/svg">

<g transform="matrix(18.68858,0,0,18.68858,-3389.17953,-13528.08441)">
<path d="m 181.942 725.52 v -1.0275 h 3.961 l 0.8569 3.3876 8.3058 5.5773 4.9867 7.8601 3.0551 4.6438 4.918 -0.5517 v 5.1222 h -2.5891 l 0.779 -2.6329 -5.3349 0.9016 -2.6389 -5.9902 -8.6483 -9.291 -2.4865 -2.7957 -2.949 -0.1403 -2.2156 -5.0634 z" fill="#fff"/>
<path d="m 200.804 750.918 -2.9973 -2.0796 6.0272 -5.2316 -3.7833 -3.2915" fill="none" stroke="#fff"/>
<path d="m 194.233 732.794 -1.7236 -5.4801 -3.7996 -0.3155 -0.9734 -2.5571" fill="none" stroke="#fff"/>
<path d="m 191.626 733.811 -5.7453 0.221 -3.6681 -7.9108" fill="none" stroke="#fff"/>
<path d="m 202.131 747.662 1.1624 3.1195" fill="none" stroke="#fff"/>
<path d="m -750.81 181.806 h 26.4321 v 26.4321 h -26.4321 z" fill="none" stroke="#000" transform="matrix(-3.6761579e-8,-1,1,-3.6761579e-8,0,0)"/>
<path d="m 189.514 735.011 c -1.1636 0.9119 -2.1982 2.0927 -2.8239 3.4165 0.9736 2.5924 2.745 3.8666 5.1548 3.3912" fill="#fff" fill-rule="evenodd" stroke="#000"/>
<g transform="matrix(7.808773e-8,-.91237,.91104,7.8201754e-8,-476.38144,915.39518)">
<path d="m 202.164 737.037 c -2.2199 -2.9773 -3.8396 -4.8517 -6.4151 -6.6995 -3.7614 1.1077 -7.8818 4.4837 -9.3266 8.5637 1.0072 2.626 3.0825 4.9023 5.0782 6.6173 0.9968 0.8566 2.2601 0.8575 3.1884 -0.6025 2.0442 0.3361 2.6074 -1.0997 2.6107 -2.1585 1.397 0.6979 3.1711 -0.2752 2.9766 -2.5597 2.0745 0.4634 2.8609 -1.8558 1.8879 -3.1608 z" fill="#fff" fill-rule="evenodd" stroke="#000" stroke-width="1.0968"/>
<path d="m 192.636 731.686 5.6681 6.4416" fill="none" stroke="#000" stroke-width="1.0968"/>
<path d="m 195.476 740.478 -5.5359 -6.7139" fill="none" stroke="#000" stroke-width="1.0968"/>
<path d="m 192.593 742.484 -4.5753 -6.2862" fill="none" stroke="#000" stroke-width="1.0968"/>
</g>
</g>
</svg>
