<svg viewBox="0 0 512 512" xmlns="http://www.w3.org/2000/svg">

<g transform="matrix(18.68858,0,0,18.68858,-4642.78659,-1591.7329)">
<path d="m250.8014,93.2799c-2.5838,5.0909-1.5643,10.0347 3.2923,11.9701 3.6607,1.4587 8.4744-1.2543 6.9375-5.5312-.6915,4.5889-7.3438,2.7317-6.6022-1.4388 .7673-4.3151 6.8974-5.626 9.3791-1.3277 1.8857,3.2662.1437,6.5391-2.8706,8.8602-2.5393,1.9553-6.6994,2.4054-11.7812.7812v5.5312h18.5312c4.958-3.2431 5.0977-9.5167 4.0625-14.875-.9748-5.046-5.5232-8.612-10.4688-8.8125-4.3999-.1784-8.5904,1.1196-10.4799,4.8424z" fill="#fff" fill-rule="evenodd" stroke="#000"/>
<path d="m264.7552,89.8439c.4111,1.7273 1.7819,3.9381 3.6487,3.8635 1.9191-2.2138.7048-5.7454-2.8454-7.1987 1.3704,1.8751.7908,3.6391-.8033,3.3351z" fill="#fff" fill-rule="evenodd"/>
<path d="m257.3736,89.2383c1.2558.9692 3.3643,1.7478 4.4286.6751-.1578-2.5802-2.9471-4.3575-5.9054-3.4202 1.9116.5467 2.6009,2.0832 1.4768,2.7451z" fill="#fff" fill-rule="evenodd"/>
<path d="m270.5919,95.4189c-.9777,1.6331-1.3389,4.3299.2016,5.6133 3.1976-.3359 4.8994-3.9433 3.1746-7.6191-.3267,2.4366-2.3384,3.3864-3.3762,2.0058z" fill="#fff" fill-rule="evenodd"/>
<path d="m271.0433,105.5562c-1.8373.8132-3.9717,2.762-3.4084,4.7533 2.983,1.5878 6.6433-.4765 7.3659-4.606-1.757,1.8763-3.8899,1.6321-3.9575-.1473z" fill="#fff" fill-rule="evenodd"/>
<path d="m251.8907,92.5521c1.2697-.2007 2.674-.885 2.6845-2.1794-1.5426-1.434-4.2139-1.0467-5.3932,1.3375 1.4103-.8567 2.9848-.2456 2.7087.8419z" fill="#fff" fill-rule="evenodd"/>
</g>
</svg>
