<svg viewBox="0 0 512 512" xmlns="http://www.w3.org/2000/svg">

<g transform="matrix(18.68858,0,0,18.68858,-11127.51189,-40833.0908)">
<g transform="matrix(1.36955,1.36955,-1.36955,1.36955,2919.5029,-1402.8292)">
<path d="m 462.215 2158.36 16.5076 -0.0001" fill="none" stroke="#fff" stroke-width=".5163"/>
<path d="m 472.595 2154.31 c 2.891 0.7746 6.0959 2.0877 8.0956 4.0876 -1.7795 1.7796 -5.3341 3.3477 -8.0956 4.0875 l 2.6181 -4.0876 z" fill="#fff"/>
<path d="m 472.109 2155.15 c 2.2546 0.6041 4.7538 1.6281 6.3133 3.1877 -1.3878 1.3878 -4.1598 2.6107 -6.3133 3.1876" fill="none" stroke="#000" stroke-width=".5163"/>
</g>
<path d="m 612.827 2201.39 -3.2683 -3.2684 -3.8626 2.2418 z" fill="#fff"/>
<path d="m 611.396 2201.2 -3.2683 -3.2683 2.2418 -3.8625 z" fill="#fff"/>
<path d="m 610.667 2199.23 -3.2683 -3.2682 -3.8626 2.2416 z" fill="#fff"/>
<path d="m 609.235 2199.04 -3.2681 -3.2684 2.2418 -3.8624 z" fill="#fff"/>
<path d="m 608.289 2196.85 -3.2683 -3.2682 -3.8626 2.2417 z" fill="#fff"/>
<path d="m 606.858 2196.66 -3.2684 -3.2681 2.2419 -3.8626 z" fill="#fff"/>
<path d="m 606.129 2194.69 -3.2681 -3.2685 -3.8628 2.2418 z" fill="#fff"/>
<path d="m 604.697 2194.5 -3.2683 -3.268 2.2419 -3.8627 z" fill="#fff"/>
<path d="m 604.003 2192.56 -3.2682 -3.2684 -3.8627 2.2418 z" fill="#fff"/>
<path d="m 1966.91 1123.19 h 24.3096 v 1.5126 h -24.3096 z" fill="#fff" transform="rotate(45)"/>
<path d="m 613.147 2199.1 c 1.4076 2.1186 2.7591 4.6756 3.0606 6.8129 -1.902 -0.2683 -4.7893 -1.7162 -6.8129 -3.0607 z" fill="#fff" stroke="#000"/>
<path d="m 595.936 2189.27 v -3.7814 h 3.7275" fill="none" stroke="#000"/>
</g>
</svg>
