<svg viewBox="0 0 512 512" xmlns="http://www.w3.org/2000/svg">

<g transform="matrix(18.68858,0,0,18.68858,-11127.51189,-40833.0908)">
<g transform="matrix(1.36955,1.36955,-1.36955,1.36955,2919.5029,-1402.8292)">
<path d="m462.2151,2158.3583 16.5076-.0001" fill="none" stroke="#fff" stroke-width=".5163"/>
<path d="m472.595,2154.3089c2.891.7746 6.0959,2.0877 8.0956,4.0876-1.7795,1.7796-5.3341,3.3477-8.0956,4.0875l2.6181-4.0876z" fill="#fff"/>
<path d="m472.1093,2155.1496c2.2546.6041 4.7538,1.6281 6.3133,3.1877-1.3878,1.3878-4.1598,2.6107-6.3133,3.1876" fill="none" stroke="#000" stroke-width=".5163"/>
</g>
<path d="m612.8273,2201.3873-3.2683-3.2684-3.8626,2.2418z" fill="#fff"/>
<path d="m611.3958,2201.1982-3.2683-3.2683 2.2418-3.8625z" fill="#fff"/>
<path d="m610.6665,2199.2263-3.2683-3.2682-3.8626,2.2416z" fill="#fff"/>
<path d="m609.2348,2199.0374-3.2681-3.2684 2.2418-3.8624z" fill="#fff"/>
<path d="m608.2895,2196.8494-3.2683-3.2682-3.8626,2.2417z" fill="#fff"/>
<path d="m606.8579,2196.6603-3.2684-3.2681 2.2419-3.8626z" fill="#fff"/>
<path d="m606.1286,2194.6888-3.2681-3.2685-3.8628,2.2418z" fill="#fff"/>
<path d="m604.697,2194.4994-3.2683-3.268 2.2419-3.8627z" fill="#fff"/>
<path d="m604.0033,2192.5634-3.2682-3.2684-3.8627,2.2418z" fill="#fff"/>
<path d="m1966.9062,1123.1868h24.3096v1.5126h-24.3096z" fill="#fff" transform="rotate(45)"/>
<path d="m613.1469,2199.1012c1.4076,2.1186 2.7591,4.6756 3.0606,6.8129-1.902-.2683-4.7893-1.7162-6.8129-3.0607z" fill="#fff" stroke="#000"/>
<path d="m595.9355,2189.2664v-3.7814h3.7275" fill="none" stroke="#000"/>
</g>
</svg>
