<svg viewBox="0 0 512 512" xmlns="http://www.w3.org/2000/svg">

<g transform="matrix(18.68858,0,0,18.68858,-228.4486,-18613.73636)">
<path d="m34.3989,1014.7305c-.0829-3.3504-1.0965-5.8768-5.0615-5.7892-.4795-2.8478-1.8817-4.8428-5.894-4.4253 .5629-4.1389-1.9128-6.0439-4.895-6.089-.2058-.7753-.9011-1.9471-.9011-1.9471l-4.8095.0783-.1887,4.5975c.7652.2478 1.7022.3435 2.8358.2659-.537,4.6239 1.5175,6.1298 5.3279,5.5232 .0647,4.6244 2.8803,4.6675 5.5277,4.991-.6175,5.1538 2.2098,5.4888 5.0615,5.7894l2.9969-2.9947z" fill="#fff" fill-rule="evenodd"/>
<path d="m28.1386,1011.4069c2.4483-.9313 4.4063.022 3.7961,3.4898-2.6949,1.5556-3.8036-.5863-3.7961-3.4898z" fill-rule="evenodd"/>
<path d="m12.6142,996.6302c2.1008-.5133 3.1326.3274 3.1371,2.3624-2.6005,1.0411-2.9392-.4747-3.1371-2.3624z" fill-rule="evenodd"/>
<path d="m23.0438,1006.9781c2.1008-.5132 3.5918.3274 3.5963,2.3625-2.5531,1.053-3.2369-.4344-3.5963-2.3625z" fill-rule="evenodd"/>
<path d="m17.4829,1000.9925c2.3858-.9826 4.0603.1251 3.7961,3.4899-2.9259,1.6421-3.7698-.5092-3.7961-3.4899z" fill-rule="evenodd"/>
<path d="m17.9189,1000.817c1.1641-.1745 1.934-.087 2.3768.061s.5317.3211.6798.6205c.2963.5978.2554,1.9567.0878,3.4806s-.4489,3.2132.2217,4.7207c.3353.7537 1.0273,1.3861 1.92,1.7116s1.9237.3532 3.2514.1583m-.3053-2.1437c-1.1116.1631-1.7783.1061-2.1751-.038s-.5434-.3138-.6798-.6204c-.2728-.6133-.249-2.0135-.0803-3.548s.4542-3.2277-.2889-4.7281c-.3716-.7504-1.0762-1.3459-1.9948-1.6519s-2.0147-.379-3.3859-.1734" fill="none" stroke="#000"/>
<path d="m15.1871,996.6061c.199.1223.2749.2727.3814.488 .2963.5978.2554,1.9567.0878,3.4806s-.4489,3.2133.2217,4.7207c.3353.7537 1.0273,1.3861 1.92,1.7118s1.9237.353 3.2514.1582m-.3053-2.1438c-1.1116.1631-1.7783.1063-2.1751-.038s-.5434-.3139-.6798-.6202c-.2728-.6134-.249-2.0136-.0803-3.5481 .1495-1.3596.3905-2.8433-.0729-4.2073" fill="none" stroke="#000"/>
<path d="m28.6819,1011.3044c1.1641-.1746 1.934-.087 2.3768.061s.5317.3211.6798.6205c.2963.5979.2554,1.9567.0878,3.4807s-.4489,3.2132.2217,4.7207m2.0112-.9327c-.2728-.6134-.249-2.0136-.0803-3.548s.4542-3.2278-.2889-4.7282c-.3716-.7504-1.0762-1.3458-1.9948-1.6518s-2.0147-.379-3.3859-.1734" fill="none" stroke="#000"/>
<path d="m23.275,1006.9c1.1641-.1746 1.934-.087 2.3768.061s.5317.3212.6798.6206c.2963.5977.2554,1.9566.0878,3.4805s-.4489,3.2134.2217,4.7208c.3353.7536 1.0273,1.3861 1.92,1.7118 .8928.3249 1.9237.353 3.2514.1582m-.3053-2.1438c-1.1116.163-1.7783.1063-2.1751-.038s-.5434-.3139-.6798-.6203c-.2728-.6135-.249-2.0135-.0803-3.548s.4542-3.2278-.2889-4.7283c-.3716-.7503-1.0762-1.3458-1.9948-1.6518s-2.0147-.3789-3.3859-.1734" fill="none" stroke="#000"/>
<path d="m12.7255,1001.2159c.8013.2066 1.7207.2032 2.8577.036m-.3053-2.1438c-1.1116.163-1.7783.1062-2.1751-.0385" fill="none" stroke="#000"/>
<path d="m24.465,1012.9667c.8658.2135 1.7316.3297 2.5974-.3838l-.0001,2.4614c-1.122-.1438-1.912-.9985-2.5973-2.0776z" fill="#fff"/>
<path d="m34.9465,1009.7447c-.7426.7091-1.5752.8991-2.5259.7162l1.0123,2.2443c.7913-.8798 1.3808-1.7694 1.5137-2.9605z" fill="#fff"/>
<path d="m29.2417,1004.8831c-.5791.7198-1.4733,1.068-2.4415.9653l1.2319,2.1319c.8578-.5465 1.2429-1.7776 1.2096-3.0972z" fill="#fff"/>
<path d="m25.0841,1002.878c-.9132.3941-1.7697.24-2.5973-.384l.0001,2.4617c1.0669-.3408 2.0287-.8654 2.5972-2.0777z" fill="#fff"/>
<path d="m21.0038,1012.1196c.7897-.5543 1.2594-1.3395.966-2.4397l2.1335,1.2311c-.8593.7792-1.8638,1.2439-3.0994,1.2086z" fill="#fff"/>
<path d="m14.2339,1005.5445c1.0757-.2058 1.9179-.6137 2.0573-1.6302l1.2317,2.1319c-1.1278.411-2.3345.1738-3.289-.5017z" fill="#fff"/>
<path d="m19.7558,996.9631c.1753.8863-.1239,1.7265-.6336,2.5462l2.4521.2379c-.1735-.9399-.6372-1.8718-1.8185-2.7841z" fill="#fff"/>
<path d="m28.9938,1019.7128c2.9697,1.4449 6.2162,2.2174 9.6408,2.5573-.1434-3.3565-1.0835-6.5584-2.312-9.7039-1.1707,1.1419-2.271,2.1311-3.886,1.901 .0693,1.1106-.9178,1.6487-1.8129,1.6648 .2049,1.5526-.3582,2.3407-1.63,3.5808z" fill="#fff"/>
<path d="m30.3729,1017.6944c1.7987,1.0238 3.7138,1.6764 5.7038,2.0905-.2954-1.9496-1.039-3.8603-1.9447-5.7566" fill="none" stroke="#000"/>
<path d="m23.0803,996.4949h-10.3116v9.8493" fill="none" stroke="#000"/>
</g>
</svg>
