<svg viewBox="0 0 512 512" xmlns="http://www.w3.org/2000/svg">

<g transform="matrix(18.68858,0,0,18.68858,-11811.0932,-40834.37679)">
<path d="m647.7448,2204.6032c-2.8732,6.0828 5.1239,9.7107 9.1792,3.6702 1.8949-2.8224 3.3132-9.4563-1.7525-13.7808 1.4139,4.3168-5.8016,6.6703-7.4267,10.1106z" fill="#fff" stroke="#000"/>
<path d="m648.0547,2209.7685c3.0661-1.3358 5.8941-4.3874 6.5769-7.6155 .004,3.2067-1.6539,6.3829-4.6772,8.427"/>
<path d="m644.4857,2203.3159c5.529,3.8309.4168,10.9723-6.1147,7.7692-3.0518-1.4965-7.5963-6.5323-5.371-12.811 .9334,4.4456 8.3587,2.8753 11.4857,5.0418z" fill="#fff" stroke="#000"/>
<path d="m646.7994,2207.9442c-3.323.3766-7.2976-.8518-9.5026-3.3059 1.5992,2.7791 4.623,4.7005 8.263,4.9589"/>
<path d="m641.3387,2199.684c2.5856,7.2188 11.9543,3.696 10.3553-4.4416-.747-3.8024-4.9491-10.2923-12.5165-9.694 4.6178,2.3395.6989,10.053 2.1611,14.1356z" fill="#fff" stroke="#000"/>
<path d="m645.7506,2203.5973c1.3947-3.5485 1.2151-8.2876-.8355-11.4397 2.5873,2.5809 3.81,6.4775 3.0205,10.5623"/>
</g>
</svg>
