<svg viewBox="0 0 512 512" xmlns="http://www.w3.org/2000/svg">

<g transform="matrix(18.68858,0,0,18.68858,-11120.94587,-15890.3509)">
<g transform="translate(2.4218,8.7004)">
<path d="m599.4466,850.7941c-2.1224,0-3.8438,1.9455-3.8438,4.3438s1.7214,4.3437 3.8438,4.3438c1.7861,0 3.2876-1.384 3.7188-3.25h6.25v3.2812h6.0938v-3.2812h1.6562v-2.4062h-14.0625c-.4946-1.7532-1.9411-3.0312-3.6562-3.0312z" fill="#fff" stroke="#000"/>
<path d="m608.737,857.7006h2.6075v2.2539h-2.6075z"/>
<path d="m612.6261,856.4632h1.3258v3.0052h-1.3258z"/>
<path d="m599.0067,855.2502c0,.4778-.3873.8651-.8651.8651s-.8651-.3873-.8651-.8651 .3873-.8651.8651-.8651 .8651.3873.8651.8651z" transform="matrix(1.33333,0,0,1.33333,-199.24597,-285.2372)"/>
</g>
<g transform="translate(-2.3674,-8.7004)">
<path d="m601.8685,859.4945c-2.1224,0-3.8438,1.9455-3.8438,4.3438s1.7214,4.3437 3.8438,4.3438c1.7861,0 3.2876-1.384 3.7188-3.25h6.25v3.2812h6.0938v-3.2812h1.6562v-2.4062h-14.0625c-.4946-1.7532-1.9411-3.0312-3.6562-3.0312z" fill="#fff" stroke="#000"/>
<path d="m616.197,865.2835h2.6075v1.5468h-2.6075z"/>
<path d="m613.5453,866.1674h1.3258v2.0329h-1.3258z"/>
<path d="m604.1205,863.9974c0,1.3378-.921,2.4223-2.057,2.4223s-2.0571-1.0845-2.0571-2.4223 .921-2.4223 2.0571-2.4223 2.057,1.0845 2.057,2.4223z" transform="matrix(1.05607,0,0,1.05607,-33.95282,-48.60225)"/>
</g>
<path d="m604.875,868.5-3.3438,1.8438v4.9375l3.3438,1.7812 3.2812-3.2188h6.4375v3.2812h7.375v-5.6875h-13.8125l-3.2812-2.9375z" fill="#fff" stroke="#000"/>
<path d="m873.2659-622.0353h1.3258v2.4307h-1.3258z" transform="matrix(-4.3954064e-8,1,-1,-3.0746046e-8,0,0)"/>
<path d="m874.2824-617.2623h1.3258v2.4307h-1.3258z" transform="matrix(-4.3954064e-8,1,-1,-3.0746046e-8,0,0)"/>
<path d="m599.0067,855.2502c0,.4778-.3873.8651-.8651.8651s-.8651-.3873-.8651-.8651 .3873-.8651.8651-.8651 .8651.3873.8651.8651z" transform="matrix(.92478,0,0,.92478,50.62736,81.8434)"/>
</g>
</svg>
