<svg viewBox="0 0 512 512" xmlns="http://www.w3.org/2000/svg">

<g transform="matrix(18.68858,0,0,18.68858,-11120.94587,-15890.3509)">
<g transform="translate(2.4218,8.7004)">
<path d="m 599.447 850.794 c -2.1224 0 -3.8438 1.9455 -3.8438 4.3438 s 1.7214 4.3437 3.8438 4.3438 c 1.7861 0 3.2876 -1.384 3.7188 -3.25 h 6.25 v 3.2812 h 6.0938 v -3.2812 h 1.6562 v -2.4062 h -14.0625 c -0.4946 -1.7532 -1.9411 -3.0312 -3.6562 -3.0312 z" fill="#fff" stroke="#000"/>
<path d="m 608.737 857.701 h 2.6075 v 2.2539 h -2.6075 z"/>
<path d="m 612.626 856.463 h 1.3258 v 3.0052 h -1.3258 z"/>
<path d="m 599.007 855.25 c 0 0.4778 -0.3873 0.8651 -0.8651 0.8651 s -0.8651 -0.3873 -0.8651 -0.8651 0.3873 -0.8651 0.8651 -0.8651 0.8651 0.3873 0.8651 0.8651 z" transform="matrix(1.33333,0,0,1.33333,-199.24597,-285.2372)"/>
</g>
<g transform="translate(-2.3674,-8.7004)">
<path d="m 601.869 859.495 c -2.1224 0 -3.8438 1.9455 -3.8438 4.3438 s 1.7214 4.3437 3.8438 4.3438 c 1.7861 0 3.2876 -1.384 3.7188 -3.25 h 6.25 v 3.2812 h 6.0938 v -3.2812 h 1.6562 v -2.4062 h -14.0625 c -0.4946 -1.7532 -1.9411 -3.0312 -3.6562 -3.0312 z" fill="#fff" stroke="#000"/>
<path d="m 616.197 865.284 h 2.6075 v 1.5468 h -2.6075 z"/>
<path d="m 613.545 866.167 h 1.3258 v 2.0329 h -1.3258 z"/>
<path d="m 604.12 863.997 c 0 1.3378 -0.921 2.4223 -2.057 2.4223 s -2.0571 -1.0845 -2.0571 -2.4223 0.921 -2.4223 2.0571 -2.4223 2.057 1.0845 2.057 2.4223 z" transform="matrix(1.05607,0,0,1.05607,-33.95282,-48.60225)"/>
</g>
<path d="m 604.875 868.5 -3.3438 1.8438 v 4.9375 l 3.3438 1.7812 3.2812 -3.2188 h 6.4375 v 3.2812 h 7.375 v -5.6875 h -13.8125 l -3.2812 -2.9375 z" fill="#fff" stroke="#000"/>
<path d="m 873.266 -622.035 h 1.3258 v 2.4307 h -1.3258 z" transform="matrix(-4.3954064e-8,1,-1,-3.0746046e-8,0,0)"/>
<path d="m 874.282 -617.262 h 1.3258 v 2.4307 h -1.3258 z" transform="matrix(-4.3954064e-8,1,-1,-3.0746046e-8,0,0)"/>
<path d="m 599.007 855.25 c 0 0.4778 -0.3873 0.8651 -0.8651 0.8651 s -0.8651 -0.3873 -0.8651 -0.8651 0.3873 -0.8651 0.8651 -0.8651 0.8651 0.3873 0.8651 0.8651 z" transform="matrix(.92478,0,0,.92478,50.62736,81.8434)"/>
</g>
</svg>
