<svg viewBox="0 0 512 512" xmlns="http://www.w3.org/2000/svg">

<g transform="matrix(18.68858,0,0,18.68858,-5675.91329,-18405.50514)">
<path d="m312.572,1005.8985c6.4693,11.2051 21.4661,2.9018 16.0088-9.5502-4.6877-10.696-13.2587-12.1928-23.7645-9.382 4.8437-.9784 12.1118.037 18.0947,5.6499-3.9484-2.7082-8.0227-4.0186-11.918-4.1193 2.7461.7258 5.4945,2.0316 8.0913,3.992-4.903-2.6369-9.8003-3.3303-14.2091-2.5177 2.5732.5666 5.2364,1.6872 7.8629,3.4817-1.8373-.6552-3.67-1.0306-5.4818-1.257 3.701,1.3555 7.2504,3.8575 10.1542,7.5824-3.5357-3.3466-7.4184-5.2501-11.2964-5.9602 3.2934,1.7567 5.4375,3.9978 7.2862,7.2353-1.4523-1.2538-2.9896-2.2961-4.5549-3.1619 1.1681,1.1106 2.2834,2.4124 3.3175,3.9004-.8879-.7665-2.0171-1.3218-3.43-1.6578 1.9048,1.6501 2.6342,3.6775 3.839,5.7644z" fill="#fff"/>
<path d="m320.3002,1010.025-3.7222-1.9013-.7498-4.3916 4.3917-1.0712 .2142-5.1951 5.57-1.3389 2.3565,5.4628-1.6603,4.9273-2.7314.4821 .482,1.8209-4.1507,1.205z" fill-rule="evenodd"/>
<path d="m319.2558,1001.5362 1.9281,2.5707 3.2926-2.7594 4.0448.2422" fill="none" stroke="#fff"/>
<path d="m320.8951,1007.894 .3423-3.7335" fill="none" stroke="#fff"/>
<path d="m326.8074,1006.6242-2.1959-5.1416" fill="none" stroke="#fff"/>
<path d="m317.2742,993.8775 3.9097.9105-2.7314,2.5172-1.9281-1.0712 .7498-2.3565z" fill-rule="evenodd"/>
<path d="m314.4548,1000.3412 2.4175,2.0984-2.4451.6387 .0277-2.7371z" fill-rule="evenodd"/>
<path d="m324.5697,992.1557-.4238,2.8183-2.1766-1.2751 2.6004-1.5431z" fill-rule="evenodd"/>
<path d="m319.1384,1001.6696-1.5578-.5029 1.1449-2.1315 .4129,2.6344z" fill-rule="evenodd"/>
</g>
</svg>
