<svg viewBox="0 0 512 512" xmlns="http://www.w3.org/2000/svg">

<g transform="matrix(11.28473,-13.09957,13.09957,11.28473,-18744.69338,-8906.91722)">
<path d="m312.7878,1183.1093 3.3891-4.2862 3.3891,4.2862-3.3891,12.6213-3.3891-12.6213z" fill="#fff"/>
<path d="m319.655,1170.8855c0,1.4438-1.1704,2.6142-2.6142,2.6142s-2.6142-1.1704-2.6142-2.6142 1.1704-2.6142 2.6142-2.6142 2.6142,1.1704 2.6142,2.6142z" fill="#fff" transform="matrix(.98681,0,0,.98681,3.34874,16.67971)"/>
<path d="m319.655,1170.8855c0,1.4438-1.1704,2.6142-2.6142,2.6142s-2.6142-1.1704-2.6142-2.6142 1.1704-2.6142 2.6142-2.6142 2.6142,1.1704 2.6142,2.6142z" transform="matrix(.55158,0,0,.55158,141.33527,526.29862)"/>
<path d="m315.3763,1174.0824h1.6445v6.571h-1.6445z" fill="#fff"/>
</g>
<g transform="matrix(16.1032,-4.31482,4.31482,16.1032,-10084.97579,-17397.61717)">
<path d="m312.7878,1183.1093 3.3891-4.2862 3.3891,4.2862-3.3891,12.6213-3.3891-12.6213z" fill="#fff"/>
<path d="m319.655,1170.8855c0,1.4438-1.1704,2.6142-2.6142,2.6142s-2.6142-1.1704-2.6142-2.6142 1.1704-2.6142 2.6142-2.6142 2.6142,1.1704 2.6142,2.6142z" fill="#fff" transform="matrix(.98681,0,0,.98681,3.34874,16.67971)"/>
<path d="m319.655,1170.8855c0,1.4438-1.1704,2.6142-2.6142,2.6142s-2.6142-1.1704-2.6142-2.6142 1.1704-2.6142 2.6142-2.6142 2.6142,1.1704 2.6142,2.6142z" transform="matrix(.55158,0,0,.55158,141.33527,526.29862)"/>
<path d="m315.3763,1174.0824h1.6445v6.571h-1.6445z" fill="#fff"/>
</g>
<g transform="matrix(3.70015,-13.80955,13.80955,3.70015,-17190.06947,87.5276)">
<path d="m312.7878,1183.1093 3.3891-4.2862 3.3891,4.2862-3.3891,12.6213-3.3891-12.6213z" fill="#fff"/>
<path d="m315.3763,1174.0824h1.6445v6.571h-1.6445z" fill="#fff"/>
</g>
<path d="m313.8668,1170.3351c0,.9247-.7496,1.6743-1.6743,1.6743s-1.6743-.7496-1.6743-1.6743 .7496-1.6743 1.6743-1.6743 1.6743.7496 1.6743,1.6743z" stroke="#fff" stroke-width="1.1266" transform="matrix(16.58873,0,0,16.58873,-5011.78675,-19358.38262)"/>
</svg>
