<svg viewBox="0 0 512 512" xmlns="http://www.w3.org/2000/svg">

<g transform="matrix(18.68858,0,0,18.68858,-7037.87465,-32001.9572)">
<path d="m 384.646 1714.16 c 1.7157 1.7158 9.8776 16.0906 9.8776 16.0906 s -14.3745 -8.1619 -16.0904 -9.8777 -1.7154 -4.497 2e-05 -6.2129 4.4974 -1.7151 6.2127 0 z" fill="#fff" stroke="#000"/>
<path d="m 394.345 1722.64 c 2.0534 2.0532 8.3868 15.8223 8.3868 15.8223 s -13.769 -6.3331 -15.8224 -8.3866 -2.0533 -5.3822 0.0001 -7.4354 5.3824 -2.0536 7.4355 -0.0003 z" fill="#fff"/>
<path d="m 385.823 1719.8 c 0 1.0433 -0.8457 1.889 -1.8889 1.889 s -1.8889 -0.8457 -1.8889 -1.889 0.8457 -1.8889 1.8889 -1.8889 1.8889 0.8457 1.8889 1.8889 z" stroke="#fff" stroke-width=".6437" transform="matrix(1.24727,1.9410619e-8,-2.9100403e-8,1.24727,-93.9591,-424.43448)"/>
<path d="m 385.823 1719.8 c 0 1.0433 -0.8457 1.889 -1.8889 1.889 s -1.8889 -0.8457 -1.8889 -1.889 0.8457 -1.8889 1.8889 -1.8889 1.8889 0.8457 1.8889 1.8889 z" stroke="#fff" stroke-width=".6847" transform="matrix(1.46044,0,0,1.46044,-179.50907,-794.75821)"/>
<path d="m 385.823 1719.8 c 0 1.0433 -0.8457 1.889 -1.8889 1.889 s -1.8889 -0.8457 -1.8889 -1.889 0.8457 -1.8889 1.8889 -1.8889 1.8889 0.8457 1.8889 1.8889 z" stroke="#fff" stroke-width=".6987" transform="matrix(1.00791,0,0,1.00791,.89943,-9.82982)"/>
<path d="m 390.704 1720.17 c 9.9584 13.4168 7.1549 16.2201 -6.2618 6.2617" fill="none" stroke="#000"/>
<path d="m 385.823 1719.8 c 0 1.0433 -0.8457 1.889 -1.8889 1.889 s -1.8889 -0.8457 -1.8889 -1.889 0.8457 -1.8889 1.8889 -1.8889 1.8889 0.8457 1.8889 1.8889 z" stroke="#fff" stroke-width=".9486" transform="matrix(.74238,0,0,.74238,105.18426,449.17339)"/>
<path d="m 394.508 1727.05 c 0.88 0.88 3.594 6.7805 3.594 6.7805 s -5.9005 -2.714 -6.7805 -3.5939 -0.8799 -2.3065 5e-05 -3.1865 2.3066 -0.88 3.1864 -0.0001 z" fill="#fff"/>
</g>
</svg>
