<svg viewBox="0 0 512 512" xmlns="http://www.w3.org/2000/svg">

<g transform="matrix(18.68858,0,0,18.68858,-5680.73553,-38781.64612)">
<path d="m317.6825,2085.0512 3.5452,2.8092-1.2305-8.8319 3.8058,7.7067 2.768-6.2041-.9917,6.6041 3.8867-2.3048-2.9006,5.4762 3.6667-1.542-3.0759,4.9672 3.2192-.9054-3.0832,5.6478 2.6258-.2347-4.9572,3.2135h-2.9835l-6.2591-2.2427 4.1497-.2912-4.9897-4.0966 4.5981.3223 .8201-4.8149z" fill="#fff"/>
<g transform="matrix(1.12235,0,0,1.12235,-33.41059,-246.80023)">
<path d="m318.115,2080.8615c.7592.098 1.3519.9143 1.3519,1.9-1e-05,.5459-.1891,1.0334-.4804,1.3808 1.5789.2938 1.6983,2.9249 1.6983,4.7721h-1.0949l-.2905,3.8552h-2.782l-.257-3.8552h-1.0391c0-1.8523-.0376-4.5297 1.6871-4.7941-.2788-.3457-.4581-.8263-.4581-1.3588 2e-05-1.0513.6769-1.9 1.5083-1.9 .0519,0 .1058-.01.1564,0z" fill-rule="evenodd"/>
<path d="m319.2131,2083.0916c0,1.0178-.5421,1.843-1.2108,1.843s-1.2108-.8252-1.2108-1.843 .5421-1.8431 1.2108-1.8431 1.2108.8252 1.2108,1.8431z" transform="matrix(1.2987,0,0,1.12387,-95.03576,-258.34263)"/>
</g>
<path d="m305.05,2076.3164h5.5091l6.8905,6.2803-3.9383,2.9251 8.0071,5.1184-1.6369,4.8424-13.1252-8.7746 3.2173-3.1085-4.9235-3.7796z" fill="#fff"/>
</g>
</svg>
