<svg viewBox="0 0 512 512" xmlns="http://www.w3.org/2000/svg">

<g transform="matrix(18.68858,0,0,18.68858,-5679.7983,-39463.4029)">
<path d="m 305.097 2112.53 18.6509 8.0926 -5.4918 2.3162 8.6557 4.8188 -5.9531 8.3387 -11.5319 -12.689 4.2217 -1.6775 z" fill="#fff" fill-rule="evenodd"/>
<path d="m 329.674 2132.21 c 0 3.96 -3.2102 7.1702 -7.1702 7.1702 s -7.1702 -3.2102 -7.1702 -7.1702 3.2102 -7.1702 7.1702 -7.1702 7.1702 3.2102 7.1702 7.1702 z" stroke="#fff" stroke-width="1.5021" transform="matrix(.66573,0,0,.66573,110.10439,713.03818)"/>
<path d="m 325.463 2137.14 -2.6621 -2.5734 2.3515 -1.9521 -2.8396 -2.5291 4.2593 2.1741 -1.9966 2.3958 3.017 1.4643" fill="#fff"/>
<path d="m 328.778 2134.59 -1.9546 -0.2944 1.2183 -2.9006 -0.2495 2.1222 1.7212 0.317" fill="#fff"/>
<path d="m 320.303 2131.31 3.0068 1.0792 -1.4842 1.8698 0.3469 -1.3687 -2.7755 -1.0406" fill="#fff"/>
<path d="m 323.304 2128.19 1.493 2.1434 2.7518 -0.2793 -2.2344 -0.4671 -1.7235 -2.4116" fill="#fff"/>
<path d="m 308.621 2123.21 6.542 -2.535" fill="none" stroke="#000"/>
<path d="m 316.144 2124.39 8.0685 -3.4073" fill="none" stroke="#000"/>
</g>
</svg>
