<svg viewBox="0 0 512 512" xmlns="http://www.w3.org/2000/svg">

<g transform="matrix(18.68858,0,0,18.68858,-228.12911,-3424.4341)">
<g transform="translate(-387.0117,-172.9775)">
<path d="m425.4382,367.0024c-.3128-2.2975-1.6486-3.876-4.2022-4.5987l-2.7425,2.6157c3.2116-.3498 4.9767.931 6.9447,1.9829z" fill-rule="evenodd" stroke="#fff"/>
<path d="m401.1246,367.0024c.3128-2.2975 1.6486-3.876 4.2022-4.5987l2.7425,2.6157c-3.2116-.3498-4.9767.931-6.9447,1.9829z" fill-rule="evenodd" stroke="#fff"/>
</g>
<g transform="translate(-387.0117,-172.9775)">
<path d="m421.3158,377.1295c.9335-2.1388.6042-4.1429-1.2285-5.9866l-3.7463.9574c2.9647,1.2287 3.8219,3.1796 4.9748,5.0291z" fill-rule="evenodd" stroke="#fff"/>
<path d="m405.247,377.1295c-.9335-2.1388-.6042-4.1429 1.2285-5.9866l3.7463.9574c-2.9647,1.2287-3.8219,3.1796-4.9748,5.0291z" fill-rule="evenodd" stroke="#fff"/>
</g>
<g transform="translate(-387.0117,-172.9775)">
<path d="m424.1453,372.3559c.3213-2.2964-.5406-4.1509-2.8111-5.4793l-3.3588,1.8496c3.1971.4549 4.5545,2.1277 6.17,3.6297z" fill-rule="evenodd" stroke="#fff"/>
<path d="m402.4176,372.3559c-.3213-2.2964.5406-4.1509 2.8111-5.4793l3.3588,1.8496c-3.1971.4549-4.5545,2.1277-6.17,3.6297z" fill-rule="evenodd" stroke="#fff"/>
</g>
<path d="m34.7905,191.9817c0-3.6377-3.8173-6.5901-8.5208-6.5901s-8.5208,2.9524-8.5208,6.5901 3.8173,11.032 8.5208,11.032 8.5208-7.3943 8.5208-11.032z" stroke="#fff"/>
<path d="m26.2697,200.4054c-3.2177,0-5.8377,2.0193-5.8377,4.5219 0,1.6094 1.0976,3.0086 2.7243,3.8132-.0919-.2869-.1769-.5957-.1769-.9111 0-1.7123 1.4597-3.1046 3.255-3.1046s3.255,1.3923 3.255,3.1046c0,.3286-.0775.6476-.1769.9449 1.6651-.7984 2.795-2.2149 2.795-3.847 0-2.5026-2.6201-4.5219-5.8377-4.5219z" fill="#fff"/>
<path d="m417.7675,374.3794c0,2.514-2.038,4.552-4.552,4.552s-4.552-2.038-4.552-4.552 2.038-4.552 4.552-4.552 4.552,2.038 4.552,4.552z" fill="#fff" stroke="#000" stroke-width="1.023" transform="matrix(1.0009,0,0,.95464,-387.31591,-156.62623)"/>
<path d="m412.6562,375.3153c0,1.0614-.7625,1.9219-1.7031,1.9219s-1.7031-.8605-1.7031-1.9219 .7625-1.9219 1.7031-1.9219 1.7031.8605 1.7031,1.9219z" transform="matrix(-.33262,-.15303,-.2434,.33594,255.83566,139.7096)"/>
<path d="m412.6562,375.3153c0,1.0614-.7625,1.9219-1.7031,1.9219s-1.7031-.8605-1.7031-1.9219 .7625-1.9219 1.7031-1.9219 1.7031.8605 1.7031,1.9219z" transform="matrix(.33262,-.15303,.2434,.33594,-203.2963,139.7096)"/>
<path d="m412.6562,375.3153c0,1.0614-.7625,1.9219-1.7031,1.9219s-1.7031-.8605-1.7031-1.9219 .7625-1.9219 1.7031-1.9219 1.7031.8605 1.7031,1.9219z" transform="matrix(-.33262,-.18316,-.2434,.40209,256.91939,125.12543)"/>
<path d="m412.6562,375.3153c0,1.0614-.7625,1.9219-1.7031,1.9219s-1.7031-.8605-1.7031-1.9219 .7625-1.9219 1.7031-1.9219 1.7031.8605 1.7031,1.9219z" transform="matrix(.33262,-.18316,.2434,.40209,-204.38002,125.12543)"/>
<path d="m32.2483,190.9197c0,1.9676-1.595,3.5626-3.5626,3.5626s-3.5626-1.595-3.5626-3.5626 1.595-3.5626 3.5626-3.5626 3.5626,1.595 3.5626,3.5626z" fill="#fff" transform="matrix(1.06888,.61712,-.50741,.87886,95.84831,3.94862)"/>
</g>
</svg>
