<svg viewBox="0 0 512 512" xmlns="http://www.w3.org/2000/svg">

<g transform="matrix(18.68858,0,0,18.68858,-228.12911,-3424.4341)">
<g transform="translate(-387.0117,-172.9775)">
<path d="m 425.438 367.002 c -0.3128 -2.2975 -1.6486 -3.876 -4.2022 -4.5987 l -2.7425 2.6157 c 3.2116 -0.3498 4.9767 0.931 6.9447 1.9829 z" fill-rule="evenodd" stroke="#fff"/>
<path d="m 401.125 367.002 c 0.3128 -2.2975 1.6486 -3.876 4.2022 -4.5987 l 2.7425 2.6157 c -3.2116 -0.3498 -4.9767 0.931 -6.9447 1.9829 z" fill-rule="evenodd" stroke="#fff"/>
</g>
<g transform="translate(-387.0117,-172.9775)">
<path d="m 421.316 377.13 c 0.9335 -2.1388 0.6042 -4.1429 -1.2285 -5.9866 l -3.7463 0.9574 c 2.9647 1.2287 3.8219 3.1796 4.9748 5.0291 z" fill-rule="evenodd" stroke="#fff"/>
<path d="m 405.247 377.13 c -0.9335 -2.1388 -0.6042 -4.1429 1.2285 -5.9866 l 3.7463 0.9574 c -2.9647 1.2287 -3.8219 3.1796 -4.9748 5.0291 z" fill-rule="evenodd" stroke="#fff"/>
</g>
<g transform="translate(-387.0117,-172.9775)">
<path d="m 424.145 372.356 c 0.3213 -2.2964 -0.5406 -4.1509 -2.8111 -5.4793 l -3.3588 1.8496 c 3.1971 0.4549 4.5545 2.1277 6.17 3.6297 z" fill-rule="evenodd" stroke="#fff"/>
<path d="m 402.418 372.356 c -0.3213 -2.2964 0.5406 -4.1509 2.8111 -5.4793 l 3.3588 1.8496 c -3.1971 0.4549 -4.5545 2.1277 -6.17 3.6297 z" fill-rule="evenodd" stroke="#fff"/>
</g>
<path d="m 34.7905 191.982 c 0 -3.6377 -3.8173 -6.5901 -8.5208 -6.5901 s -8.5208 2.9524 -8.5208 6.5901 3.8173 11.032 8.5208 11.032 8.5208 -7.3943 8.5208 -11.032 z" stroke="#fff"/>
<path d="m 26.2697 200.405 c -3.2177 0 -5.8377 2.0193 -5.8377 4.5219 0 1.6094 1.0976 3.0086 2.7243 3.8132 -0.0919 -0.2869 -0.1769 -0.5957 -0.1769 -0.9111 0 -1.7123 1.4597 -3.1046 3.255 -3.1046 s 3.255 1.3923 3.255 3.1046 c 0 0.3286 -0.0775 0.6476 -0.1769 0.9449 1.6651 -0.7984 2.795 -2.2149 2.795 -3.847 0 -2.5026 -2.6201 -4.5219 -5.8377 -4.5219 z" fill="#fff"/>
<path d="m 417.767 374.379 c 0 2.514 -2.038 4.552 -4.552 4.552 s -4.552 -2.038 -4.552 -4.552 2.038 -4.552 4.552 -4.552 4.552 2.038 4.552 4.552 z" fill="#fff" stroke="#000" stroke-width="1.023" transform="matrix(1.0009,0,0,.95464,-387.31591,-156.62623)"/>
<path d="m 412.656 375.315 c 0 1.0614 -0.7625 1.9219 -1.7031 1.9219 s -1.7031 -0.8605 -1.7031 -1.9219 0.7625 -1.9219 1.7031 -1.9219 1.7031 0.8605 1.7031 1.9219 z" transform="matrix(-.33262,-.15303,-.2434,.33594,255.83566,139.7096)"/>
<path d="m 412.656 375.315 c 0 1.0614 -0.7625 1.9219 -1.7031 1.9219 s -1.7031 -0.8605 -1.7031 -1.9219 0.7625 -1.9219 1.7031 -1.9219 1.7031 0.8605 1.7031 1.9219 z" transform="matrix(.33262,-.15303,.2434,.33594,-203.2963,139.7096)"/>
<path d="m 412.656 375.315 c 0 1.0614 -0.7625 1.9219 -1.7031 1.9219 s -1.7031 -0.8605 -1.7031 -1.9219 0.7625 -1.9219 1.7031 -1.9219 1.7031 0.8605 1.7031 1.9219 z" transform="matrix(-.33262,-.18316,-.2434,.40209,256.91939,125.12543)"/>
<path d="m 412.656 375.315 c 0 1.0614 -0.7625 1.9219 -1.7031 1.9219 s -1.7031 -0.8605 -1.7031 -1.9219 0.7625 -1.9219 1.7031 -1.9219 1.7031 0.8605 1.7031 1.9219 z" transform="matrix(.33262,-.18316,.2434,.40209,-204.38002,125.12543)"/>
<path d="m 32.2483 190.92 c 0 1.9676 -1.595 3.5626 -3.5626 3.5626 s -3.5626 -1.595 -3.5626 -3.5626 1.595 -3.5626 3.5626 -3.5626 3.5626 1.595 3.5626 3.5626 z" fill="#fff" transform="matrix(1.06888,.61712,-.50741,.87886,95.84831,3.94862)"/>
</g>
</svg>
