<svg viewBox="0 0 512 512" xmlns="http://www.w3.org/2000/svg">

<g transform="matrix(18.68858,0,0,18.68858,-10440.65019,-27890.26964)">
<path d="m 576.004 1506.51 c 3.3528 0.5464 3.4985 4.093 8.5007 5.6007 -1.5166 1.5592 -2.8583 1.2682 -4.975 0.022 l -6.7431 -3.144" fill="#fff"/>
<path d="m 560.142 1507.14 c 8.1465 -2.9764 13.1916 -5.2069 16.769 -12.9977 0.6926 -1.5081 4.5444 -0.7947 6.614 1.6464 2.0198 2.3826 1.6303 6.4449 0.233 6.6976 -8.3574 1.5107 -12.6409 5.8642 -15.9006 13.8805 z" fill="#fff"/>
<path d="m 563.756 1509.17 c 0 2.9099 -1.0118 5.2688 -2.2599 5.2688 s -2.2599 -2.3589 -2.2599 -5.2688 1.0118 -5.2688 2.2599 -5.2688 2.2599 2.3589 2.2599 5.2688 z" fill="#fff" transform="matrix(.89079,-.71627,.69879,.86971,-991.58852,602.05933)"/>
<path d="m 567.819 1516.39 c -0.007 -0.774 -0.1358 -1.622 -0.3814 -2.4875 -0.9329 -3.2948 -3.5685 -6.5216 -5.8581 -6.7705 -1.8276 -0.1987 -2.8782 1.7697 -2.0173 4.5735 0.6614 2.1541 2.4163 4.2621 3.8918 4.3135 1.0744 0.038 1.6914 -1.2078 1.0821 -2.926 -0.4091 -1.1537 -1.1791 -1.9874 -2.1598 -2.1834 l 2.4008 -1.5105" fill="none" stroke="#000"/>
<path d="m 564.288 1515.71 2.8645 -2.8594" fill="none" stroke="#000"/>
<path d="m 579.388 1492.37 -0.2866 2.1877 2.0011 -1.2027"/>
<path d="m 585.829 1499.37 -2.8053 -0.079 2.1369 -1.7336"/>
<path d="m 564.273 1508.5 1.0435 -2.1597 -2.1552 0.9386"/>
<path d="m 567.778 1503.33 c 2.108 -1.2983 6.2644 3.2528 4.6067 6.1577" fill="none" stroke="#000"/>
<path d="m 571.265 1500.96 c 1.8375 -1.1548 5.8709 3.5721 3.951 5.6569" fill="none" stroke="#000"/>
<path d="m 573.907 1507.9 c 5.9608 1.5694 3.8494 6.1201 11.1142 8.3647 -1.6228 0.5668 -3.4758 0.2199 -5.2291 -0.6444 l 1.3265 3.065 c -5.5575 -1.8826 -3.1503 -8.4705 -8.5249 -9.4271" fill="#fff"/>
<path d="m 571.595 1510.44 c 1.7023 -2.574 4.0918 -4.4708 6.5457 -5.6435" fill="none" stroke="#000"/>
<path d="m 573.916 1507.74 c 5.2049 0.4062 4.7325 5.8479 10.1539 7.5478" fill="none" stroke="#000"/>
</g>
</svg>
