<svg viewBox="0 0 512 512" xmlns="http://www.w3.org/2000/svg">

<g transform="matrix(18.68858,0,0,18.68858,-229.67542,-30618.88642)">
<g transform="matrix(1.25657,0,0,1.25657,-668.70345,-392.88334)">
<path d="m555.5358,1631.9322c0-6.1339-5.4589-6.1303-5.4589,0z" fill="#fff"/>
<path d="m555.5358,1622.8629c0,6.1337-5.4589,6.1302-5.4589,0z" fill="#fff"/>
<path d="m548.8097,1633.1128v-11.5153" fill="none" stroke="#fff" stroke-width=".7958"/>
<path d="m556.776,1633.1128v-11.5153" fill="none" stroke="#fff" stroke-width=".7958"/>
<path d="m547.8279,1632.3198h10.0051v2.0765h-10.0051z" fill="#fff" stroke="#000" stroke-width=".7958"/>
<path d="m547.8279,1620.5024h10.0051v2.0765h-10.0051z" fill="#fff" stroke="#000" stroke-width=".7958"/>
</g>
<path d="m17.6671,1657.6761c-2.6836.7292-4.4171,1.8093-4.4171,3.0074 0,2.1948 5.6999,3.9785 12.7188,3.9785s12.7188-1.7837 12.7188-3.9785c0-1.1938-1.7187-2.2783-4.3858-3.0074 .922.4751 1.4724,1.03 1.4724,1.629 0,1.7192-4.4043,3.1327-9.8053,3.1327s-9.774-1.4136-9.774-3.1327c0-.6022.541-1.1523 1.4724-1.629z" fill="#fff"/>
<path d="m17.6671,1646.5771c-2.6836-.7292-4.4171-1.8093-4.4171-3.0074 0-2.1948 5.6999-3.9785 12.7188-3.9785s12.7188,1.7837 12.7188,3.9785c0,1.1938-1.7187,2.2783-4.3858,3.0074 .922-.4751 1.4724-1.03 1.4724-1.629 0-1.7192-4.4043-3.1327-9.8053-3.1327s-9.774,1.4136-9.774,3.1327c0,.6022.541,1.1523 1.4724,1.629z" fill="#fff"/>
</g>
</svg>
