<svg viewBox="0 0 512 512" xmlns="http://www.w3.org/2000/svg">

<g transform="matrix(18.68858,0,0,18.68858,-229.67542,-30618.88642)">
<g transform="matrix(1.25657,0,0,1.25657,-668.70345,-392.88334)">
<path d="m 555.536 1631.93 c 0 -6.1339 -5.4589 -6.1303 -5.4589 0 z" fill="#fff"/>
<path d="m 555.536 1622.86 c 0 6.1337 -5.4589 6.1302 -5.4589 0 z" fill="#fff"/>
<path d="m 548.81 1633.11 v -11.5153" fill="none" stroke="#fff" stroke-width=".7958"/>
<path d="m 556.776 1633.11 v -11.5153" fill="none" stroke="#fff" stroke-width=".7958"/>
<path d="m 547.828 1632.32 h 10.0051 v 2.0765 h -10.0051 z" fill="#fff" stroke="#000" stroke-width=".7958"/>
<path d="m 547.828 1620.5 h 10.0051 v 2.0765 h -10.0051 z" fill="#fff" stroke="#000" stroke-width=".7958"/>
</g>
<path d="m 17.6671 1657.68 c -2.6836 0.7292 -4.4171 1.8093 -4.4171 3.0074 0 2.1948 5.6999 3.9785 12.7188 3.9785 s 12.7188 -1.7837 12.7188 -3.9785 c 0 -1.1938 -1.7187 -2.2783 -4.3858 -3.0074 0.922 0.4751 1.4724 1.03 1.4724 1.629 0 1.7192 -4.4043 3.1327 -9.8053 3.1327 s -9.774 -1.4136 -9.774 -3.1327 c 0 -0.6022 0.541 -1.1523 1.4724 -1.629 z" fill="#fff"/>
<path d="m 17.6671 1646.58 c -2.6836 -0.7292 -4.4171 -1.8093 -4.4171 -3.0074 0 -2.1948 5.6999 -3.9785 12.7188 -3.9785 s 12.7188 1.7837 12.7188 3.9785 c 0 1.1938 -1.7187 2.2783 -4.3858 3.0074 0.922 -0.4751 1.4724 -1.03 1.4724 -1.629 0 -1.7192 -4.4043 -3.1327 -9.8053 -3.1327 s -9.774 1.4136 -9.774 3.1327 c 0 0.6022 0.541 1.1523 1.4724 1.629 z" fill="#fff"/>
</g>
</svg>
