<svg viewBox="0 0 512 512" xmlns="http://www.w3.org/2000/svg">

<g transform="matrix(18.86089,0,0,18.86089,-230.32391,-22693.28091)">
<path d="m-588.0888,1055.4789h8.1175v5.535h-8.1175z" fill="#fff" transform="matrix(.86538,-.50112,.49888,.86667,0,0)"/>
<path d="m469.3386,1184.2899c0,3.0473-2.4703,5.5176-5.5176,5.5176s-5.5176-2.4703-5.5176-5.5176 2.4703-5.5176 5.5176-5.5176 5.5176,2.4703 5.5176,5.5176z" fill="#fff" transform="matrix(1.70099,-.98501,.98281,1.70739,-1925.4234,-346.76554)"/>
<path d="m21.3258,1207.499c-3.4094-5.3615-9.7027-.1672-6.6173,4.0277 1.4999,2.0391.8637,4.7111-.6832,6.2104" fill="none" stroke="#fff" stroke-width=".9909"/>
</g>
<path d="m474.4319,1617.1045c0,4.5456-3.685,8.2306-8.2306,8.2306s-8.2306-3.685-8.2306-8.2306 3.685-8.2306 8.2306-8.2306 8.2306,3.6849 8.2306,8.2306z" stroke="#fff" transform="matrix(18.68858,0,0,18.68858,-8437.739,-29967.09789)"/>
<g transform="matrix(18.68858,0,0,18.68858,-8417.98143,-29969.21718)">
<path d="m465.1441,1610.8373v7.6549" fill="none" stroke="#fff"/>
<path d="m465.1441,1622.0646v1.5339" fill="none" stroke="#fff"/>
<path d="m471.5248,1617.2178-1.5339.0001" fill="none" stroke="#fff"/>
<path d="m460.2973,1617.2179-1.5339.0001" fill="none" stroke="#fff"/>
<path d="m470.67,1620.4081-1.3284-.7669" fill="none" stroke="#fff"/>
<path d="m460.9467,1614.7945-1.3284-.7668" fill="none" stroke="#fff"/>
<path d="m468.3346,1622.7436-.767-1.3283" fill="none" stroke="#fff"/>
<path d="m462.7207,1613.0204-.767-1.3283" fill="none" stroke="#fff"/>
<path d="m459.6182,1620.4081 1.3284-.7669" fill="none" stroke="#fff"/>
<path d="m464.9099,1618.1573 5.7601-4.1295" fill="none" stroke="#fff"/>
<path d="m461.9537,1622.7436 .767-1.3283" fill="none" stroke="#fff"/>
<path d="m467.5675,1613.0204 .767-1.3283" fill="none" stroke="#fff"/>
</g>
<path d="m466.3425,1617.8038c0,.6783-.5498,1.2281-1.2281,1.2281s-1.2281-.5498-1.2281-1.2281 .5498-1.228 1.2281-1.228 1.2281.5498 1.2281,1.228z" stroke="#fff" transform="matrix(18.68858,0,0,18.68858,-8417.42825,-29980.16869)"/>
</svg>
