<svg viewBox="0 0 512 512" xmlns="http://www.w3.org/2000/svg">

<g transform="matrix(18.86089,0,0,18.86089,-230.32391,-22693.28091)">
<path d="m -588.089 1055.48 h 8.1175 v 5.535 h -8.1175 z" fill="#fff" transform="matrix(.86538,-.50112,.49888,.86667,0,0)"/>
<path d="m 469.339 1184.29 c 0 3.0473 -2.4703 5.5176 -5.5176 5.5176 s -5.5176 -2.4703 -5.5176 -5.5176 2.4703 -5.5176 5.5176 -5.5176 5.5176 2.4703 5.5176 5.5176 z" fill="#fff" transform="matrix(1.70099,-.98501,.98281,1.70739,-1925.4234,-346.76554)"/>
<path d="m 21.3258 1207.5 c -3.4094 -5.3615 -9.7027 -0.1672 -6.6173 4.0277 1.4999 2.0391 0.8637 4.7111 -0.6832 6.2104" fill="none" stroke="#fff" stroke-width=".9909"/>
</g>
<path d="m 474.432 1617.1 c 0 4.5456 -3.685 8.2306 -8.2306 8.2306 s -8.2306 -3.685 -8.2306 -8.2306 3.685 -8.2306 8.2306 -8.2306 8.2306 3.6849 8.2306 8.2306 z" stroke="#fff" transform="matrix(18.68858,0,0,18.68858,-8437.739,-29967.09789)"/>
<g transform="matrix(18.68858,0,0,18.68858,-8417.98143,-29969.21718)">
<path d="m 465.144 1610.84 v 7.6549" fill="none" stroke="#fff"/>
<path d="m 465.144 1622.06 v 1.5339" fill="none" stroke="#fff"/>
<path d="m 471.525 1617.22 -1.5339 0.0001" fill="none" stroke="#fff"/>
<path d="m 460.297 1617.22 -1.5339 0.0001" fill="none" stroke="#fff"/>
<path d="m 470.67 1620.41 -1.3284 -0.7669" fill="none" stroke="#fff"/>
<path d="m 460.947 1614.79 -1.3284 -0.7668" fill="none" stroke="#fff"/>
<path d="m 468.335 1622.74 -0.767 -1.3283" fill="none" stroke="#fff"/>
<path d="m 462.721 1613.02 -0.767 -1.3283" fill="none" stroke="#fff"/>
<path d="m 459.618 1620.41 1.3284 -0.7669" fill="none" stroke="#fff"/>
<path d="m 464.91 1618.16 5.7601 -4.1295" fill="none" stroke="#fff"/>
<path d="m 461.954 1622.74 0.767 -1.3283" fill="none" stroke="#fff"/>
<path d="m 467.567 1613.02 0.767 -1.3283" fill="none" stroke="#fff"/>
</g>
<path d="m 466.342 1617.8 c 0 0.6783 -0.5498 1.2281 -1.2281 1.2281 s -1.2281 -0.5498 -1.2281 -1.2281 0.5498 -1.228 1.2281 -1.228 1.2281 0.5498 1.2281 1.228 z" stroke="#fff" transform="matrix(18.68858,0,0,18.68858,-8417.42825,-29980.16869)"/>
</svg>
