<svg viewBox="0 0 512 512" xmlns="http://www.w3.org/2000/svg">

<g transform="matrix(18.68858,0,0,18.68858,-1595.78291,-44231.51749)">
<path d="m 103.909 2368.73 c 1.593 -1.5928 3.9978 -1.8378 5.8765 -0.8023 l -3.1443 3.1442 c -0.5539 0.5539 -0.5751 1.4633 -0.0434 1.995 s 1.4194 0.4888 1.9733 -0.065 l 3.1442 -3.1443 c 1.0353 1.8786 0.7906 4.2836 -0.8023 5.8765 -1.2245 1.2245 -2.9356 1.6734 -4.5104 1.3444 l -10.6599 10.6598 c 0.3287 1.5747 -0.1199 3.2859 -1.3443 4.5105 -1.593 1.5927 -3.9979 1.8375 -5.8765 0.8022 l 3.1442 -3.1443 c 0.5539 -0.5538 0.5968 -1.4416 0.0651 -1.9733 s -1.4411 -0.5105 -1.9949 0.043 l -3.1443 3.1442 c -1.0354 -1.8786 -0.7906 -4.2835 0.8024 -5.8764 1.2245 -1.2244 2.9512 -1.6575 4.532 -1.3227 l 10.6597 -10.66 c -0.335 -1.5809 0.0984 -3.3073 1.3229 -4.5318 z" fill="#fff" stroke="#000"/>
<path d="m 110.128 2393.55 -4.7418 -3.0331 0.293 -2.0209 -7.6594 -7.6594 1.4595 -1.4594 7.6594 7.6594 2.0208 -0.2931 3.0332 4.7419 z" fill="#fff" stroke="#000"/>
<path d="m 94.6169 2380.7 c -0.0435 -1.4887 -1.1192 -2.5644 -2.6075 -2.6076 l -4.7391 -4.7391 c -3.3415 -3.3417 1.1045 -8.2646 4.6846 -4.6845 l 4.7611 4.761 c 0.0626 1.4514 1.1119 2.5009 2.5633 2.5634 1.1714 0 2.2544 1.2812 1.1712 2.3645 l -3.4475 3.4467 c -1.0421 1.0424 -2.5168 0.1512 -2.3862 -1.1044 z" fill="#fff" stroke="#000"/>
</g>
</svg>
