<svg viewBox="0 0 512 512" xmlns="http://www.w3.org/2000/svg">

<g transform="matrix(18.68858,0,0,18.68858,-11803.6158,-33369.19877)">
<path d="m 657.583 1799.12 c -2.5829 -5.0814 -7.1187 -8.4629 -12.316 -8.4629 -5.1927 0 -9.7319 3.3893 -12.316 8.4629 6.8422 15.8529 18.417 15.9563 24.632 0 z" fill="#fff"/>
<path d="m 636.687 1788.44 c 2.3622 8.8158 15.2648 8.964 17.6667 0 -5.8889 2.8881 -11.7778 2.6827 -17.6667 0 z" fill="#fff"/>
<path d="m 656.457 1797.24 c 0.5832 -2.8731 0.0915 -5.293 -1.5318 -6.2301 s -3.9665 -0.1492 -6.1613 1.7885" fill="#fff"/>
<path d="m 634.112 1797.24 c -0.5832 -2.8731 -0.0915 -5.293 1.5318 -6.2301 s 3.9665 -0.1492 6.1613 1.7885" fill="#fff"/>
<path d="m 641.795 1788.22 -1.822 3.625 h 10.6942 l -1.7824 -3.625 -3.5647 2.25 z" fill="#fff"/>
<path d="m 638.89 1797.14 c 0 0.7764 -0.6294 1.4057 -1.4058 1.4057 s -1.4057 -0.6293 -1.4057 -1.4057 0.6294 -1.4057 1.4057 -1.4057 1.4058 0.6293 1.4058 1.4057 z" stroke="#fff" stroke-width=".6415" transform="matrix(1.55886,0,0,1.55886,-340.05926,-1008.0815)"/>
<path d="m 638.89 1797.14 c 0 0.7764 -0.6294 1.4057 -1.4058 1.4057 s -1.4057 -0.6293 -1.4057 -1.4057 0.6294 -1.4057 1.4057 -1.4057 1.4058 0.6293 1.4058 1.4057 z" stroke="#fff" stroke-width=".6415" transform="matrix(1.55886,0,0,1.55886,-356.76935,-1008.0815)"/>
<path d="m 638.89 1797.14 c 0 0.7764 -0.6294 1.4057 -1.4058 1.4057 s -1.4057 -0.6293 -1.4057 -1.4057 0.6294 -1.4057 1.4057 -1.4057 1.4058 0.6293 1.4058 1.4057 z" fill="#fff" transform="matrix(.62818,0,0,.62818,254.00343,663.71561)"/>
<path d="m 638.89 1797.14 c 0 0.7764 -0.6294 1.4057 -1.4058 1.4057 s -1.4057 -0.6293 -1.4057 -1.4057 0.6294 -1.4057 1.4057 -1.4057 1.4058 0.6293 1.4058 1.4057 z" fill="#fff" transform="matrix(.62818,0,0,.62818,237.29334,663.71561)"/>
<path d="m 656.777 1799.09 c -6.4571 -5.2471 -16.9304 -5.2841 -22.9126 0 6.3647 12.2953 17.1315 12.6687 22.9126 0 z"/>
<path d="m 656.278 1801.11 -2.7972 -0.4646 2.3101 1.8595" fill="#fff"/>
<path d="m 654.533 1803.72 -2.4727 -1.3878 1.5404 2.5341" fill="#fff"/>
<path d="m 652.322 1805.83 -2.0754 -1.9321 0.8989 2.8261" fill="#fff"/>
<path d="m 649.343 1808.09 -1.0272 -2.643 -0.4211 2.9356" fill="#fff"/>
<path d="m 646.217 1808.91 -0.7397 -2.7375 -0.7315 2.8741" fill="#fff"/>
<path d="m 647.484 1795.03 -0.8738 2.6976 -0.5889 -2.9066" fill="#fff"/>
<path d="m 650.75 1795.94 -1.8681 2.1333 0.6068 -2.903" fill="#fff"/>
<path d="m 654.285 1797.23 -2.5254 1.2896 1.6389 -2.4717" fill="#fff"/>
<path d="m 642.963 1795.03 0.8738 2.6976 0.5889 -2.9066" fill="#fff"/>
<path d="m 639.697 1795.94 1.8681 2.1333 -0.6068 -2.903" fill="#fff"/>
<path d="m 636.162 1797.23 2.5254 1.2896 -1.6389 -2.4717" fill="#fff"/>
<path d="m 634.559 1801.11 2.7972 -0.4646 -2.3101 1.8595" fill="#fff"/>
<path d="m 636.303 1803.72 2.4727 -1.3878 -1.5404 2.5341" fill="#fff"/>
<path d="m 638.515 1805.83 2.0754 -1.9321 -0.8989 2.8261" fill="#fff"/>
<path d="m 641.494 1808.09 1.0272 -2.643 0.4211 2.9356" fill="#fff"/>
</g>
</svg>
