<svg viewBox="0 0 512 512" xmlns="http://www.w3.org/2000/svg">

<g transform="matrix(18.68858,0,0,18.68858,-11803.6158,-33369.19877)">
<path d="m657.5829,1799.1203c-2.5829-5.0814-7.1187-8.4629-12.316-8.4629-5.1927,0-9.7319,3.3893-12.316,8.4629 6.8422,15.8529 18.417,15.9563 24.632,0z" fill="#fff"/>
<path d="m636.6865,1788.4354c2.3622,8.8158 15.2648,8.964 17.6667,0-5.8889,2.8881-11.7778,2.6827-17.6667,0z" fill="#fff"/>
<path d="m656.4575,1797.2444c.5832-2.8731.0915-5.293-1.5318-6.2301s-3.9665-.1492-6.1613,1.7885" fill="#fff"/>
<path d="m634.1119,1797.2444c-.5832-2.8731-.0915-5.293 1.5318-6.2301s3.9665-.1492 6.1613,1.7885" fill="#fff"/>
<path d="m641.795,1788.2215-1.822,3.625h10.6942l-1.7824-3.625-3.5647,2.25z" fill="#fff"/>
<path d="m638.8901,1797.1388c0,.7764-.6294,1.4057-1.4058,1.4057s-1.4057-.6293-1.4057-1.4057 .6294-1.4057 1.4057-1.4057 1.4058.6293 1.4058,1.4057z" stroke="#fff" stroke-width=".6415" transform="matrix(1.55886,0,0,1.55886,-340.05926,-1008.0815)"/>
<path d="m638.8901,1797.1388c0,.7764-.6294,1.4057-1.4058,1.4057s-1.4057-.6293-1.4057-1.4057 .6294-1.4057 1.4057-1.4057 1.4058.6293 1.4058,1.4057z" stroke="#fff" stroke-width=".6415" transform="matrix(1.55886,0,0,1.55886,-356.76935,-1008.0815)"/>
<path d="m638.8901,1797.1388c0,.7764-.6294,1.4057-1.4058,1.4057s-1.4057-.6293-1.4057-1.4057 .6294-1.4057 1.4057-1.4057 1.4058.6293 1.4058,1.4057z" fill="#fff" transform="matrix(.62818,0,0,.62818,254.00343,663.71561)"/>
<path d="m638.8901,1797.1388c0,.7764-.6294,1.4057-1.4058,1.4057s-1.4057-.6293-1.4057-1.4057 .6294-1.4057 1.4057-1.4057 1.4058.6293 1.4058,1.4057z" fill="#fff" transform="matrix(.62818,0,0,.62818,237.29334,663.71561)"/>
<path d="m656.777,1799.0935c-6.4571-5.2471-16.9304-5.2841-22.9126,0 6.3647,12.2953 17.1315,12.6687 22.9126,0z"/>
<path d="m656.2776,1801.1055-2.7972-.4646 2.3101,1.8595" fill="#fff"/>
<path d="m654.5334,1803.7157-2.4727-1.3878 1.5404,2.5341" fill="#fff"/>
<path d="m652.3215,1805.8254-2.0754-1.9321 .8989,2.8261" fill="#fff"/>
<path d="m649.343,1808.0868-1.0272-2.643-.4211,2.9356" fill="#fff"/>
<path d="m646.2166,1808.9124-.7397-2.7375-.7315,2.8741" fill="#fff"/>
<path d="m647.4838,1795.0252-.8738,2.6976-.5889-2.9066" fill="#fff"/>
<path d="m650.7499,1795.9411-1.8681,2.1333 .6068-2.903" fill="#fff"/>
<path d="m654.2852,1797.227-2.5254,1.2896 1.6389-2.4717" fill="#fff"/>
<path d="m642.963,1795.0252 .8738,2.6976 .5889-2.9066" fill="#fff"/>
<path d="m639.6969,1795.9411 1.8681,2.1333-.6068-2.903" fill="#fff"/>
<path d="m636.1616,1797.227 2.5254,1.2896-1.6389-2.4717" fill="#fff"/>
<path d="m634.5592,1801.1055 2.7972-.4646-2.3101,1.8595" fill="#fff"/>
<path d="m636.3034,1803.7157 2.4727-1.3878-1.5404,2.5341" fill="#fff"/>
<path d="m638.5153,1805.8254 2.0754-1.9321-.8989,2.8261" fill="#fff"/>
<path d="m641.4937,1808.0868 1.0272-2.643 .4211,2.9356" fill="#fff"/>
</g>
</svg>
