<svg viewBox="0 0 512 512" xmlns="http://www.w3.org/2000/svg">

<g transform="matrix(18.68858,0,0,18.68858,-8399.05226,-20443.83179)">
<path d="m462.625,1095.1563c-.6249-.011-1.2324.228-1.6562.8125-1.5659,2.1591-2.1123,4.2088-2.375,5.9687-.2415,1.6178-.7227,3.1955-1.6562,4.6563-1.7012,2.6619-3.5239,6.6749-3.9375,8.9687-.3138,1.733.9582,2.2502 1.75.375 1.0832-2.5652 3.5043-6.7297 6.5312-5.5625 2.7423,1.0573.4775,6.5369-1.1875,8.1563-1.3437,1.3069-.3854,2.7539 1.2812,1.1875 1.7683-1.6621 4.2058-4.9365 5.0625-7.875 .3335-1.1439.8449-2.3424 1.8438-2.9063 2.1303-1.2027 4.3784-3.1565 5.25-7.125 .5833-2.6557-2.7031-3.7683-4.5625-2-.2837-2.6967-2.4874-3.3358-4.0938-1.9062 .5389-1.4785-.8753-2.7258-2.25-2.75z" fill="#fff" fill-rule="evenodd"/>
</g>
</svg>
