<svg viewBox="0 0 512 512" xmlns="http://www.w3.org/2000/svg">

<g transform="matrix(18.68858,0,0,18.68858,-2740.73096,-6621.88729)">
<path d="m 173.517 373.366 c 0 3.2703 -5.8842 4.7906 -13.1289 5.0328 -7.447 0.249 -13.3982 -1.7695 -13.1288 -5.5785 0.2307 -3.2621 5.8817 -5.8022 13.1288 -5.6516 s 13.1289 2.927 13.1289 6.1972 z" fill="#fff" stroke="#000"/>
<path d="m 152.99 360.009 h 15.3904 c -0.7414 3.7986 -1.2142 7.5263 0 11.0016 1.4383 4.1166 -16.6858 4.8385 -15.3904 0 1.0551 -3.9409 0.4949 -7.5004 0 -11.0016 z" fill="#fff" stroke="#000"/>
<path d="m 168.236 359.962 c 0.7988 2.1687 -3.2595 2.6819 -7.5504 2.5648 -4.4135 -0.1205 -7.5496 -1.3319 -7.7691 -3.1341 -0.1865 -1.5309 1.8868 -2.6944 5.6478 -2.4094 3.387 0.2599 8.9433 1.0012 9.6717 2.9788 z" fill="#fff" stroke="#000"/>
<path d="m 153.499 368.091 c -0.2937 4.3161 15.1908 3.3801 14.3225 0.5956" fill="none" stroke="#000"/>
</g>
</svg>
