<svg xmlns="http://www.w3.org/2000/svg" viewBox="0 0 512 512">
<g transform="matrix(18.68858 0 0 18.68858 -2953.20833 -23138.84016)">
<g fill="#fff">
<path fill-rule="evenodd" d="m158.9688,1239.25 0,9.0232c2.5301,3.786 .6501,6.5551 2.2812,10.6643 .9066,2.284 4.8284,1.459 4.5312-1.0312-.184-1.5425-.6427-2.5087-.9688-3.6875-.4324-1.5636 .5107-1.8574 1.1998-.6189 .707,1.2705 1.5472,3.2703 2.9877,5.5251 1.4852,2.3249 6.1499-.7761 4.6875-3.1562-1.3747-2.2374-2.7973-3.2798-3.8125-4.375-1.2629-1.3625 .4426-1.8276 1.3125-1.0938 1.219,1.0283 2.1159,2.5331 4.0312,4.0625 2.3769,1.898 6.4559-2.6725 4.125-4.6875-2.058-1.7791-4.0988-2.3747-5.3125-3.375-1.6576-1.3662-1.0457-2.0006 .5938-1.5937 .6761,.1678 1.7404,.7129 2.7564,.8813 2.382,.3947 3.5745-3.8852 1.2749-4.6626-3.9361-1.3307-8.4973-.2337-12.1667-1.875h-7.5208z"/>
<path d="m176.0772,1264.461-1.4317-4.7321c-.1671-.9541-.8882-1.8776-1.7821-2.1971-1.0528-.3765-1.9472,.2237-1.9972,1.3395-.0423,.9463 .5419,1.9636 1.3608,2.4799l3.8502,3.1098z"/>
<path d="m184.2815,1258.2363c-.8742-2.193-2.2629-5.829-5.3975-6.4713-1.2277-.1008-2.0084,.7946-1.743,1.9985 .2249,1.0211 1.1369,1.939 2.1557,2.2557 1.702,.537 3.3458,1.3651 4.9848,2.2171z"/>
<path d="m165.15,1264.5878 0-4.1418c.097-.8056-.2554-1.721-.8913-2.1939-.749-.5573-1.6575-.3083-1.9166,.5899-.5862,2.0324 .8467,3.9873 2.8078,5.7458z"/>
<path d="m184.2414,1245.3228c-.9049-1.0275-1.9779-1.8399-3.2993-2.5285-.6969-.3632-1.5692-.5046-2.3037-.2515-.8649,.2986-1.1284,1.1398-.5884,1.8777 .458,.6259 1.3522,.9765 2.1396,.8872l4.0518,.015z"/>
</g>
<g fill="none" stroke="#000">
<path d="m161.8951,1261.0564c-.988-3.2596 3.6395-3.8681 3.8078-.8672"/>
<path d="m170.7537,1260.4915c-1.3193-2.4806 1.4893-4.6237 3.5714-2.553"/>
<path d="m177.5579,1255.5309c-2.024-2.1752 .641-5.2355 3.0875-3.6024"/>
<path d="m179.0587,1245.7274c-2.4897-1.2187-1.4839-4.0872 1.2781-3.7818"/>
</g>
<g fill-rule="evenodd">
<path d="m164.5791,1258.5943-1.3-.2833-1.1307,.8136 .9944,1.7015 .3094-1.5026 .9502,.8618 .1768-1.591z"/>
<path d="m173.2918,1257.3954-1.6011,.062-1.0723,1.29 2.0794,1.6831-.4995-1.8451 1.3055,.9676-.212-2.1581z"/>
<path d="m177.0023,1254.1447 .5685-2.0303 1.5235-.7019 1.4626,2.1318-2.028-.3976 1.2217,1.5426-2.7485-.5446z"/>
<path d="m177.9716,1244.8116-.1584-1.5815 .8768-.9112 2.2373,1.2825-2.1579,.09 1.2814,.7474-2.0792,.3725z"/>
</g>
</g>
</svg>
