<svg xmlns="http://www.w3.org/2000/svg" viewBox="0 0 512 512">
<g transform="matrix(18.68858 0 0 18.68858 -2953.20833 -23138.84016)">
<g fill="#fff">
<path fill-rule="evenodd" d="m158.9688,1239.25 0,9.0232c2.5301,3.786 .6501,6.5551 2.2812,10.6643 .9066,2.284 4.8284,1.459 4.5312-1.0312-.184-1.5425-.6427-2.5087-.9688-3.6875-.4324-1.5636 .5107-1.8574 1.1998-.6189 .707,1.2705 1.5472,3.2703 2.9877,5.5251 1.4852,2.3249 6.1499-.7761 4.6875-3.1562-1.3747-2.2374-2.7973-3.2798-3.8125-4.375-1.2629-1.3625 .4426-1.8276 1.3125-1.0938 1.219,1.0283 2.1159,2.5331 4.0312,4.0625 2.3769,1.898 6.4559-2.6725 4.125-4.6875-2.058-1.7791-4.0988-2.3747-5.3125-3.375-1.6576-1.3662-1.0457-2.0006 .5938-1.5937 .6761,.1678 1.7404,.7129 2.7564,.8813 2.382,.3947 3.5745-3.8852 1.2749-4.6626-3.9361-1.3307-8.4973-.2337-12.1667-1.875h-7.5208z"/>
<path d="m 176.077 1264.46 -1.4317 -4.7321 c -0.1671 -0.9541 -0.8882 -1.8776 -1.7821 -2.1971 -1.0528 -0.3765 -1.9472 0.2237 -1.9972 1.3395 -0.0423 0.9463 0.5419 1.9636 1.3608 2.4799 l 3.8502 3.1098 z"/>
<path d="m 184.281 1258.24 c -0.8742 -2.193 -2.2629 -5.829 -5.3975 -6.4713 -1.2277 -0.1008 -2.0084 0.7946 -1.743 1.9985 0.2249 1.0211 1.1369 1.939 2.1557 2.2557 1.702 0.537 3.3458 1.3651 4.9848 2.2171 z"/>
<path d="m 165.15 1264.59 0 -4.1418 c 0.097 -0.8056 -0.2554 -1.721 -0.8913 -2.1939 -0.749 -0.5573 -1.6575 -0.3083 -1.9166 0.5899 -0.5862 2.0324 0.8467 3.9873 2.8078 5.7458 z"/>
<path d="m 184.241 1245.32 c -0.9049 -1.0275 -1.9779 -1.8399 -3.2993 -2.5285 -0.6969 -0.3632 -1.5692 -0.5046 -2.3037 -0.2515 -0.8649 0.2986 -1.1284 1.1398 -0.5884 1.8777 0.458 0.6259 1.3522 0.9765 2.1396 0.8872 l 4.0518 0.015 z"/>
</g>
<g fill="none" stroke="#000">
<path d="m 161.895 1261.06 c -0.988 -3.2596 3.6395 -3.8681 3.8078 -0.8672"/>
<path d="m 170.754 1260.49 c -1.3193 -2.4806 1.4893 -4.6237 3.5714 -2.553"/>
<path d="m 177.558 1255.53 c -2.024 -2.1752 0.641 -5.2355 3.0875 -3.6024"/>
<path d="m 179.059 1245.73 c -2.4897 -1.2187 -1.4839 -4.0872 1.2781 -3.7818"/>
</g>
<g fill-rule="evenodd">
<path d="m 164.579 1258.59 -1.3 -0.2833 -1.1307 0.8136 0.9944 1.7015 0.3094 -1.5026 0.9502 0.8618 0.1768 -1.591 z"/>
<path d="m 173.292 1257.4 -1.6011 0.062 -1.0723 1.29 2.0794 1.6831 -0.4995 -1.8451 1.3055 0.9676 -0.212 -2.1581 z"/>
<path d="m 177.002 1254.14 0.5685 -2.0303 1.5235 -0.7019 1.4626 2.1318 -2.028 -0.3976 1.2217 1.5426 -2.7485 -0.5446 z"/>
<path d="m 177.972 1244.81 -0.1584 -1.5815 0.8768 -0.9112 2.2373 1.2825 -2.1579 0.09 1.2814 0.7474 -2.0792 0.3725 z"/>
</g>
</g>
</svg>
