<svg viewBox="0 0 512 512" xmlns="http://www.w3.org/2000/svg">

<g fill="#fff">
<path d="m 21.6438 467.625 162.872 -191.444 64.325 70.6103 -205.756 144.37 z"/>
<path d="m 190.084 256.176 79.1924 86.9305 75.0923 -50.0189 -97.5018 -107.029 z"/>
<path d="m 476.72 51.39 c -5.2774 30.1852 -124.99 107.886 -82.4683 16.8608 -80.2161 45.3793 -107.558 23.428 -78.532 -5.649 -54.824 2.8011 -62.7468 88.1524 -55.3392 112.385 l 17.4463 19.151 c -2.1384 -31.2176 0.4052 -48.4704 19.5007 -71.4938 13.7643 20.6126 18.4899 33.714 52.0574 6.9818 -9.3926 53.521 54.6061 18.7315 88.7461 10.9216 -15.2479 14.0486 -35.1615 32.7337 -38.8835 55.479 -1.2413 7.5858 6.2188 17.9238 14.1362 25.6248 -9.4427 2.2355 -41.4935 8.9129 -38.5817 26.2232 2.9118 17.3103 12.1524 11.8771 3.5137 15.2724 -12.4036 2.7662 -21.1687 5.5905 -39.6059 -2.1767 l 18.8773 20.7219 c 28.3903 14.7895 73.9131 7.3166 83.6021 -14.8644 -14.7772 -1.2215 -27.1228 -4.6791 -32.9982 -11.5358 44.0226 -8.3402 66.7466 -39.2545 85.7638 -75.0436 -33.6384 18.9491 -42.1331 17.7999 -55.9747 16.3283 35.5137 -14.3646 46.8647 -108.942 38.7398 -145.187 z"/>
</g>
</svg>
