<svg viewBox="0 0 512 512" xmlns="http://www.w3.org/2000/svg">

<g transform="matrix(18.68858,0,0,18.68858,-236.05023,-39463.40253)">
<path d="m31.3531,2138.4691c5.4623-8.4383-.6117-14.3018 2.7522-22.5769 .4944-2.0701-3.1299-2.8509-7.2872-2.865-6.9961,0-11.0658,1.2796-10.9836,3.7229 .6579,9.3486 12.2218,12.8872 13.9604,21.7244" fill="none" stroke="#fff"/>
<path d="m32.6922,2121.6159c10.7106-1.9914-.9938-7.7098-10.1953-5.2995 4.1634.018 11.4674,1.0125 10.1756,4.3452" fill="#fff"/>
<path d="m20.3549,2126.1923c-10.3802-1.826 1.0959-8.5092 10.2965-5.7802-4.1335-.1058-11.6269.5647-11.2875,3.9358" fill="#fff"/>
<path d="m32.2918,2136.9673c11.1817-1.5995-1.1684-9.0901-12.972-4.393 4.7305-.8477 14.5423-.4033 13.9021,2.5484" fill="#fff"/>
<path d="m34.0127,2129.0663c4.71-.5325 3.3656-3.2832-5.1708-3.0793-8.0654.1928-13.274,3.2619-5.3518,3.4365-3.4126-2.324 12.0906-4.1122 10.5225-.3572z" fill="#fff"/>
<path d="m33.0498,2123.3089c-2.2022-2.2876-7.4398-1.6356-11.1597-.3571 4.3418-.2043 10.8298.7523 11.1416,3.4648" fill="#fff"/>
<path d="m36.5763,2134.1879c-.9307-3.7357-7.398-5.0609-10.0671-4.6706 2.3239.3319 5.3498,1.8082 6.3834,3.2308" fill="#fff"/>
<path d="m16.3549,2118.7372c.5286-2.3226 5.7932-1.8148 10.7166-.247-4.7917-.4772-10.2641,1.1508-8.9022,3.9818" fill="#fff"/>
<path d="m26.488,2138.5538h7.0854" fill="none" stroke="#000"/>
<path d="m16.1886,2115.8715c.9074-1.2771 2.5874-1.915 4.5438-2.158 2.1206.098 3.9564.4049 6.1352.9731-4.7963-.016-9.7564,1.4268-10.3453,4.4849" fill="#fff"/>
<path d="m33.4427,2125.0128c-.4267-1.8747-4.6761-1.8823-8.65-.1993 3.8677-.3852 8.0609.2875 8.3093,1.722" fill="#fff"/>
<path d="m36.4247,2135.2446c1.3192-1.6542-1.3314-5.4426-5.6803-6.5795 3.0072,2.4626 5.4966,5.9032 4.6579,7.0932" fill="#fff"/>
</g>
</svg>
