<svg viewBox="0 0 512 512" xmlns="http://www.w3.org/2000/svg">

<g transform="matrix(18.68858,0,0,18.68858,-236.05023,-39463.40253)">
<path d="m 31.3531 2138.47 c 5.4623 -8.4383 -0.6117 -14.3018 2.7522 -22.5769 0.4944 -2.0701 -3.1299 -2.8509 -7.2872 -2.865 -6.9961 0 -11.0658 1.2796 -10.9836 3.7229 0.6579 9.3486 12.2218 12.8872 13.9604 21.7244" fill="none" stroke="#fff"/>
<path d="m 32.6922 2121.62 c 10.7106 -1.9914 -0.9938 -7.7098 -10.1953 -5.2995 4.1634 0.018 11.4674 1.0125 10.1756 4.3452" fill="#fff"/>
<path d="m 20.3549 2126.19 c -10.3802 -1.826 1.0959 -8.5092 10.2965 -5.7802 -4.1335 -0.1058 -11.6269 0.5647 -11.2875 3.9358" fill="#fff"/>
<path d="m 32.2918 2136.97 c 11.1817 -1.5995 -1.1684 -9.0901 -12.972 -4.393 4.7305 -0.8477 14.5423 -0.4033 13.9021 2.5484" fill="#fff"/>
<path d="m 34.0127 2129.07 c 4.71 -0.5325 3.3656 -3.2832 -5.1708 -3.0793 -8.0654 0.1928 -13.274 3.2619 -5.3518 3.4365 -3.4126 -2.324 12.0906 -4.1122 10.5225 -0.3572 z" fill="#fff"/>
<path d="m 33.0498 2123.31 c -2.2022 -2.2876 -7.4398 -1.6356 -11.1597 -0.3571 4.3418 -0.2043 10.8298 0.7523 11.1416 3.4648" fill="#fff"/>
<path d="m 36.5763 2134.19 c -0.9307 -3.7357 -7.398 -5.0609 -10.0671 -4.6706 2.3239 0.3319 5.3498 1.8082 6.3834 3.2308" fill="#fff"/>
<path d="m 16.3549 2118.74 c 0.5286 -2.3226 5.7932 -1.8148 10.7166 -0.247 -4.7917 -0.4772 -10.2641 1.1508 -8.9022 3.9818" fill="#fff"/>
<path d="m 26.488 2138.55 h 7.0854" fill="none" stroke="#000"/>
<path d="m 16.1886 2115.87 c 0.9074 -1.2771 2.5874 -1.915 4.5438 -2.158 2.1206 0.098 3.9564 0.4049 6.1352 0.9731 -4.7963 -0.016 -9.7564 1.4268 -10.3453 4.4849" fill="#fff"/>
<path d="m 33.4427 2125.01 c -0.4267 -1.8747 -4.6761 -1.8823 -8.65 -0.1993 3.8677 -0.3852 8.0609 0.2875 8.3093 1.722" fill="#fff"/>
<path d="m 36.4247 2135.24 c 1.3192 -1.6542 -1.3314 -5.4426 -5.6803 -6.5795 3.0072 2.4626 5.4966 5.9032 4.6579 7.0932" fill="#fff"/>
</g>
</svg>
