<svg viewBox="0 0 512 512" xmlns="http://www.w3.org/2000/svg">

<g transform="matrix(18.68858,0,0,18.68858,-3633.11253,-30620.21517)">
<path d="m198.9684,1644.6644-2.0846,11.479c-.5531,3.0456 1.1092,9.2343 3.7064,9.2343h14.7256c2.5972,0 4.3628-6.1953 3.7819-9.2343l-2.1943-11.479c-.5784-3.026-3.0589-5.6099-8.9675-5.6099s-8.4145,2.5644-8.9675,5.6099z" fill="#fff" stroke="#000"/>
<path d="m200.1691,1653.0512h15.5858c1.2911,3.0252 1.9452,6.0803 0,9.2757h-15.5858c-1.6912-3.0919-1.405-6.1838 0-9.2757z"/>
<path d="m199.9891,1652.0207h16.008l-2.2007,5.6335h-11.4179z" fill="#fff"/>
<path d="m199.9891,1663.2288h16.008l-2.2007-5.6337h-11.4179z" fill="#fff"/>
<path d="m200.1691,1653.0512h15.5858c1.291,3.025 1.9452,6.0803 0,9.2757h-15.5858c-1.6912-3.0919-1.405-6.1838 0-9.2757z" fill="none" stroke="#000"/>
<path d="m201.4366,1657.5603h13.1131" fill="none" stroke="#000"/>
<path d="m207.9931,1653.1801v8.9857" fill="none" stroke="#000"/>
<g transform="matrix(1.14655,0,0,1.2064,-30.35927,-343.81543)">
<path d="m205.0721,1659.0506-.5361,3.7376" fill="none" stroke="#000" stroke-width=".8503"/>
<path d="m210.7002,1659.0506 .5361,3.7376" fill="none" stroke="#000" stroke-width=".8503"/>
<path d="m205.0721,1658.8637-.5361-3.7376" fill="none" stroke="#000" stroke-width=".8503"/>
<path d="m210.7002,1658.8637 .5361-3.7376" fill="none" stroke="#000" stroke-width=".8503"/>
</g>
<path d="m198.2903,1646.1973c.9048,4.4657 5.0859,4.04 8.0419.3349-2.6806-3.1314-5.3612-1.7037-8.0419-.3349z"/>
<path d="m217.8098,1646.1973c-.9048,4.4657-5.0859,4.04-8.0419.3349 2.6806-3.1314 5.3612-1.7037 8.0419-.3349z"/>
<path d="m207.3584,1651.5488v-3.257c-1.48,1.4624-1.757,2.9669 0,3.257z"/>
<path d="m208.5851,1651.5488v-3.257c1.48,1.4624 1.757,2.9669 0,3.257z"/>
</g>
</svg>
