<svg viewBox="0 0 512 512" xmlns="http://www.w3.org/2000/svg">

<g transform="matrix(18.68858,0,0,18.68858,-3633.11253,-30620.21517)">
<path d="m 198.968 1644.66 -2.0846 11.479 c -0.5531 3.0456 1.1092 9.2343 3.7064 9.2343 h 14.7256 c 2.5972 0 4.3628 -6.1953 3.7819 -9.2343 l -2.1943 -11.479 c -0.5784 -3.026 -3.0589 -5.6099 -8.9675 -5.6099 s -8.4145 2.5644 -8.9675 5.6099 z" fill="#fff" stroke="#000"/>
<path d="m 200.169 1653.05 h 15.5858 c 1.2911 3.0252 1.9452 6.0803 0 9.2757 h -15.5858 c -1.6912 -3.0919 -1.405 -6.1838 0 -9.2757 z"/>
<path d="m 199.989 1652.02 h 16.008 l -2.2007 5.6335 h -11.4179 z" fill="#fff"/>
<path d="m 199.989 1663.23 h 16.008 l -2.2007 -5.6337 h -11.4179 z" fill="#fff"/>
<path d="m 200.169 1653.05 h 15.5858 c 1.291 3.025 1.9452 6.0803 0 9.2757 h -15.5858 c -1.6912 -3.0919 -1.405 -6.1838 0 -9.2757 z" fill="none" stroke="#000"/>
<path d="m 201.437 1657.56 h 13.1131" fill="none" stroke="#000"/>
<path d="m 207.993 1653.18 v 8.9857" fill="none" stroke="#000"/>
<g transform="matrix(1.14655,0,0,1.2064,-30.35927,-343.81543)">
<path d="m 205.072 1659.05 -0.5361 3.7376" fill="none" stroke="#000" stroke-width=".8503"/>
<path d="m 210.7 1659.05 0.5361 3.7376" fill="none" stroke="#000" stroke-width=".8503"/>
<path d="m 205.072 1658.86 -0.5361 -3.7376" fill="none" stroke="#000" stroke-width=".8503"/>
<path d="m 210.7 1658.86 0.5361 -3.7376" fill="none" stroke="#000" stroke-width=".8503"/>
</g>
<path d="m 198.29 1646.2 c 0.9048 4.4657 5.0859 4.04 8.0419 0.3349 -2.6806 -3.1314 -5.3612 -1.7037 -8.0419 -0.3349 z"/>
<path d="m 217.81 1646.2 c -0.9048 4.4657 -5.0859 4.04 -8.0419 0.3349 2.6806 -3.1314 5.3612 -1.7037 8.0419 -0.3349 z"/>
<path d="m 207.358 1651.55 v -3.257 c -1.48 1.4624 -1.757 2.9669 0 3.257 z"/>
<path d="m 208.585 1651.55 v -3.257 c 1.48 1.4624 1.757 2.9669 0 3.257 z"/>
</g>
</svg>
