<svg viewBox="0 0 512 512" xmlns="http://www.w3.org/2000/svg">

<g transform="matrix(18.68858,0,0,18.68858,-7716.937,-37446.66548)">
<path d="m 417.794 2004.9 v 4.5145 l 7.6246 9.4519 7.6246 -9.4519 v -4.5145 h -2.6174 v 2.1294 h -1.5932 v -2.1294 h -2.6459 v 2.1294 h -1.5648 v -2.1294 h -2.6459 v 2.1294 h -1.5647 v -2.1294 h -2.6174 z" fill="#fff"/>
<path d="m 420.278 2011.57 h 10.28 v 14.7582 h -10.28 z" fill="#fff" stroke="#fff"/>
<path d="m 417.804 2012.81 7.4883 3.3401 -1.8317 2.3704 7.9732 4.9563" fill="none" stroke="#000"/>
<path d="m 424.365 2017.24 2.6666 -3.3523 4.3808 0.2667 v 6.2474 l -2.8534 -2.4301 -0.7852 0.8315 z"/>
<path d="m 426.37 2020.19 2.1261 -2.4123" fill="none" stroke="#000"/>
<path d="m 428.363 2021.59 -1.8317 2.2626 1.8721 1.6947" fill="none" stroke="#000"/>
<path d="m 436.039 2020.12 -0.7192 -3.1017 -3.1786 -0.9968 0.9253 3.9878 z" fill="#fff"/>
<path d="m 434.877 2023.5 -0.005 -1.6726 -1.5109 -0.8821 -0.2761 1.583 z" fill="#fff"/>
<path d="m 428.573 2015.48 h 1.7528 l 0.9251 1.5832 -1.6591 0.2893 z" fill="#fff"/>
<path d="m 437.637 2021.32 -1.2346 1.2413 0.4654 1.7714 1.3761 -0.9674 z" fill="#fff"/>
<path d="m 434.113 2025.01 1.1944 1.2008 -0.4502 1.7137 -1.3313 -0.9359 z" fill="#fff"/>
<path d="m 418.679 2024.9 h 13.4778 l 1.166 5.067 h -15.8098 l 1.166 -5.067 z" fill="#fff"/>
</g>
</svg>
