<svg viewBox="0 0 512 512" xmlns="http://www.w3.org/2000/svg">

<g transform="matrix(18.68858,0,0,18.68858,-7716.937,-37446.66548)">
<path d="m417.7937,2004.9037v4.5145l7.6246,9.4519 7.6246-9.4519v-4.5145h-2.6174v2.1294h-1.5932v-2.1294h-2.6459v2.1294h-1.5648v-2.1294h-2.6459v2.1294h-1.5647v-2.1294h-2.6174z" fill="#fff"/>
<path d="m420.2783,2011.5736h10.28v14.7582h-10.28z" fill="#fff" stroke="#fff"/>
<path d="m417.8039,2012.807 7.4883,3.3401-1.8317,2.3704 7.9732,4.9563" fill="none" stroke="#000"/>
<path d="m424.3654,2017.2412 2.6666-3.3523 4.3808.2667v6.2474l-2.8534-2.4301-.7852.8315z"/>
<path d="m426.3696,2020.1876 2.1261-2.4123" fill="none" stroke="#000"/>
<path d="m428.363,2021.5883-1.8317,2.2626 1.8721,1.6947" fill="none" stroke="#000"/>
<path d="m436.0387,2020.119-.7192-3.1017-3.1786-.9968 .9253,3.9878z" fill="#fff"/>
<path d="m434.8767,2023.5049-.005-1.6726-1.5109-.8821-.2761,1.583z" fill="#fff"/>
<path d="m428.5728,2015.4807h1.7528l.9251,1.5832-1.6591.2893z" fill="#fff"/>
<path d="m437.6366,2021.3209-1.2346,1.2413 .4654,1.7714 1.3761-.9674z" fill="#fff"/>
<path d="m434.1132,2025.0126 1.1944,1.2008-.4502,1.7137-1.3313-.9359z" fill="#fff"/>
<path d="m418.6794,2024.9014h13.4778l1.166,5.067h-15.8098l1.166-5.067z" fill="#fff"/>
</g>
</svg>
