<svg viewBox="0 0 512 512" xmlns="http://www.w3.org/2000/svg">

<g transform="matrix(18.68858,0,0,18.68858,-7037.87522,-27221.58869)">
<path d="m388.299,1463.6158c3.8816-3.3251 9.4208-3.3851 12.64.8418-2.7342-6.9494-9.7999-8.9522-15.3918-4.2263l3.4725.2039z" fill="#fff"/>
<path d="m397.7902,1462.9495 3.4601,2.7141-.2005-4.4571z" fill="#fff"/>
<path d="m392.2236,1476.7419c-3.8816,3.3251-9.4208,3.3851-12.64-.8418 2.7342,6.9494 9.7999,8.9522 15.3918,4.2263l-3.4725-.2039z" fill="#fff"/>
<path d="m382.9559,1477.4082-3.4601-2.7141 .2005,4.4571z" fill="#fff"/>
<g transform="matrix(-1,0,0,1,893.03452,258.0176)">
<path d="m489.6177,1209.3376h12.3848v12.3848h-12.3848z" fill="#fff" stroke="#000"/>
<path d="m492.0111,1218.6647v-6.9337h6.8016" fill="#fff" stroke="#000"/>
<path d="m494.1692,1218.5356 4.8218-4.9154" fill="none" stroke="#000"/>
</g>
<g transform="matrix(-1,0,0,1,879.1083,251.28)">
<path d="m489.6177,1209.3376h12.3848v12.3848h-12.3848z" fill="#fff" stroke="#000"/>
<path d="m492.0111,1218.6647v-6.9337h6.8016" fill="#fff" stroke="#000"/>
<path d="m494.1692,1218.5356 4.8218-4.9154" fill="none" stroke="#000"/>
</g>
</g>
</svg>
