<svg viewBox="0 0 512 512" xmlns="http://www.w3.org/2000/svg">

<g transform="matrix(18.68858,0,0,18.68858,-7037.87522,-27221.58869)">
<path d="m 388.299 1463.62 c 3.8816 -3.3251 9.4208 -3.3851 12.64 0.8418 -2.7342 -6.9494 -9.7999 -8.9522 -15.3918 -4.2263 l 3.4725 0.2039 z" fill="#fff"/>
<path d="m 397.79 1462.95 3.4601 2.7141 -0.2005 -4.4571 z" fill="#fff"/>
<path d="m 392.224 1476.74 c -3.8816 3.3251 -9.4208 3.3851 -12.64 -0.8418 2.7342 6.9494 9.7999 8.9522 15.3918 4.2263 l -3.4725 -0.2039 z" fill="#fff"/>
<path d="m 382.956 1477.41 -3.4601 -2.7141 0.2005 4.4571 z" fill="#fff"/>
<g transform="matrix(-1,0,0,1,893.03452,258.0176)">
<path d="m 489.618 1209.34 h 12.3848 v 12.3848 h -12.3848 z" fill="#fff" stroke="#000"/>
<path d="m 492.011 1218.66 v -6.9337 h 6.8016" fill="#fff" stroke="#000"/>
<path d="m 494.169 1218.54 4.8218 -4.9154" fill="none" stroke="#000"/>
</g>
<g transform="matrix(-1,0,0,1,879.1083,251.28)">
<path d="m 489.618 1209.34 h 12.3848 v 12.3848 h -12.3848 z" fill="#fff" stroke="#000"/>
<path d="m 492.011 1218.66 v -6.9337 h 6.8016" fill="#fff" stroke="#000"/>
<path d="m 494.169 1218.54 4.8218 -4.9154" fill="none" stroke="#000"/>
</g>
</g>
</svg>
