<svg viewBox="0 0 512 512" xmlns="http://www.w3.org/2000/svg">

<g transform="matrix(18.68858,0,0,18.68858,-4314.2727,-10235.66531)">
<path d="m 243.122 549.79 c -6.5588 0.3194 -11.6775 3.0075 -11.6775 6.2331 0 0.7376 0.2868 1.4332 0.7785 2.0901 1.794 -2.4144 6.5801 -4.1429 12.2336 -4.1429 s 10.4395 1.7286 12.2336 4.1429 c 0.4917 -0.6569 0.7785 -1.3525 0.7785 -2.0901 0 -3.4407 -5.8294 -6.2331 -13.0121 -6.2331 -0.4489 0 -0.8973 -0.0213 -1.3346 0 z" fill="#fff" stroke="#000"/>
<path d="m 243.122 558.559 c -6.5588 0.3194 -11.6775 3.0075 -11.6775 6.2331 0 0.7376 0.2868 1.4332 0.7785 2.0901 1.794 -2.4144 6.5801 -4.1429 12.2336 -4.1429 s 10.4395 1.7286 12.2336 4.1429 c 0.4917 -0.6569 0.7785 -1.3525 0.7785 -2.0901 0 -3.4407 -5.8294 -6.2331 -13.0121 -6.2331 -0.4489 0 -0.8973 -0.0213 -1.3346 0 z" fill="#fff" stroke="#000"/>
<path d="m 243.804 548.16 c -1.6717 0.2153 -2.9768 2.017 -2.9768 4.1916 2e-05 1.2043 0.4165 2.2798 1.0578 3.0462 -3.4765 0.6481 -3.7394 6.4526 -3.7394 10.5276 h 2.4109 l 0.6396 8.5049 h 6.1257 l 0.5658 -8.5049 h 2.2879 c 0 -4.0864 0.0828 -9.993 -3.7148 -10.5764 0.6139 -0.7628 1.0086 -1.8229 1.0086 -2.9975 -2e-05 -2.3195 -1.4905 -4.1916 -3.3212 -4.1916 -0.1144 0 -0.233 -0.0144 -0.3444 0 z" fill="#fff" fill-rule="evenodd" stroke="#000"/>
<path d="m 243.122 571.676 c -6.5588 -0.3194 -11.6775 -3.0075 -11.6775 -6.2331 0 -0.7376 0.2868 -1.4332 0.7785 -2.0901 1.794 2.4144 6.5801 4.1429 12.2336 4.1429 s 10.4395 -1.7286 12.2336 -4.1429 c 0.4917 0.6569 0.7785 1.3525 0.7785 2.0901 0 3.4407 -5.8294 6.2331 -13.0121 6.2331 -0.4489 0 -0.8973 0.0213 -1.3346 0 z" fill="#fff" stroke="#000"/>
<path d="m 238.786 561.293 c -3.8189 -0.9221 -6.4303 -2.7875 -6.4303 -4.9386 0 -2.1604 2.6342 -4.0327 6.4803 -4.9506" fill="none" stroke="#fff"/>
<path d="m 250.042 561.293 c 3.8977 -0.9221 6.5631 -2.7875 6.5631 -4.9386 0 -2.1604 -2.6886 -4.0327 -6.6141 -4.9506" fill="none" stroke="#fff"/>
<path d="m 238.786 570.07 c -3.8189 -0.9221 -6.4303 -2.7875 -6.4303 -4.9386 0 -2.1604 2.6342 -4.0327 6.4803 -4.9506" fill="none" stroke="#fff"/>
<path d="m 250.042 570.07 c 3.8977 -0.9221 6.5631 -2.7875 6.5631 -4.9386 0 -2.1604 -2.6886 -4.0327 -6.6141 -4.9506" fill="none" stroke="#fff"/>
<path d="m 243.122 562.907 c -6.5588 -0.3194 -11.6775 -3.0075 -11.6775 -6.2331 0 -0.7376 0.2868 -1.4332 0.7785 -2.0901 1.794 2.4144 6.5801 4.1429 12.2336 4.1429 s 10.4395 -1.7286 12.2336 -4.1429 c 0.4917 0.6569 0.7785 1.3525 0.7785 2.0901 0 3.4407 -5.8294 6.2331 -13.0121 6.2331 -0.4489 0 -0.8973 0.0213 -1.3346 0 z" fill="#fff" stroke="#000"/>
<path d="m 238.786 561.293 c -3.8189 -0.9221 -6.4303 -2.7875 -6.4303 -4.9386 0 -2.1604 2.6342 -4.0327 6.4803 -4.9506" fill="none" stroke="#fff"/>
<path d="m 250.042 561.293 c 3.8977 -0.9221 6.5631 -2.7875 6.5631 -4.9386 0 -2.1604 -2.6886 -4.0327 -6.6141 -4.9506" fill="none" stroke="#fff"/>
</g>
</svg>
