<svg viewBox="0 0 512 512" xmlns="http://www.w3.org/2000/svg">

<g transform="matrix(18.68858,0,0,18.68858,-4314.2727,-10235.66531)">
<path d="m243.1222,549.7899c-6.5588.3194-11.6775,3.0075-11.6775,6.2331 0,.7376.2868,1.4332.7785,2.0901 1.794-2.4144 6.5801-4.1429 12.2336-4.1429s10.4395,1.7286 12.2336,4.1429c.4917-.6569.7785-1.3525.7785-2.0901 0-3.4407-5.8294-6.2331-13.0121-6.2331-.4489,0-.8973-.0213-1.3346,0z" fill="#fff" stroke="#000"/>
<path d="m243.1222,558.5587c-6.5588.3194-11.6775,3.0075-11.6775,6.2331 0,.7376.2868,1.4332.7785,2.0901 1.794-2.4144 6.5801-4.1429 12.2336-4.1429s10.4395,1.7286 12.2336,4.1429c.4917-.6569.7785-1.3525.7785-2.0901 0-3.4407-5.8294-6.2331-13.0121-6.2331-.4489,0-.8973-.0213-1.3346,0z" fill="#fff" stroke="#000"/>
<path d="m243.8036,548.1601c-1.6717.2153-2.9768,2.017-2.9768,4.1916 2e-05,1.2043.4165,2.2798 1.0578,3.0462-3.4765.6481-3.7394,6.4526-3.7394,10.5276h2.4109l.6396,8.5049h6.1257l.5658-8.5049h2.2879c0-4.0864.0828-9.993-3.7148-10.5764 .6139-.7628 1.0086-1.8229 1.0086-2.9975-2e-05-2.3195-1.4905-4.1916-3.3212-4.1916-.1144,0-.233-.0144-.3444,0z" fill="#fff" fill-rule="evenodd" stroke="#000"/>
<path d="m243.1222,571.6755c-6.5588-.3194-11.6775-3.0075-11.6775-6.2331 0-.7376.2868-1.4332.7785-2.0901 1.794,2.4144 6.5801,4.1429 12.2336,4.1429s10.4395-1.7286 12.2336-4.1429c.4917.6569.7785,1.3525.7785,2.0901 0,3.4407-5.8294,6.2331-13.0121,6.2331-.4489,0-.8973.0213-1.3346,0z" fill="#fff" stroke="#000"/>
<path d="m238.7864,561.293c-3.8189-.9221-6.4303-2.7875-6.4303-4.9386 0-2.1604 2.6342-4.0327 6.4803-4.9506" fill="none" stroke="#fff"/>
<path d="m250.0419,561.293c3.8977-.9221 6.5631-2.7875 6.5631-4.9386 0-2.1604-2.6886-4.0327-6.6141-4.9506" fill="none" stroke="#fff"/>
<path d="m238.7864,570.0703c-3.8189-.9221-6.4303-2.7875-6.4303-4.9386 0-2.1604 2.6342-4.0327 6.4803-4.9506" fill="none" stroke="#fff"/>
<path d="m250.0419,570.0703c3.8977-.9221 6.5631-2.7875 6.5631-4.9386 0-2.1604-2.6886-4.0327-6.6141-4.9506" fill="none" stroke="#fff"/>
<path d="m243.1222,562.9068c-6.5588-.3194-11.6775-3.0075-11.6775-6.2331 0-.7376.2868-1.4332.7785-2.0901 1.794,2.4144 6.5801,4.1429 12.2336,4.1429s10.4395-1.7286 12.2336-4.1429c.4917.6569.7785,1.3525.7785,2.0901 0,3.4407-5.8294,6.2331-13.0121,6.2331-.4489,0-.8973.0213-1.3346,0z" fill="#fff" stroke="#000"/>
<path d="m238.7864,561.293c-3.8189-.9221-6.4303-2.7875-6.4303-4.9386 0-2.1604 2.6342-4.0327 6.4803-4.9506" fill="none" stroke="#fff"/>
<path d="m250.0419,561.293c3.8977-.9221 6.5631-2.7875 6.5631-4.9386 0-2.1604-2.6886-4.0327-6.6141-4.9506" fill="none" stroke="#fff"/>
</g>
</svg>
