<svg viewBox="0 0 512 512" xmlns="http://www.w3.org/2000/svg">

<g transform="matrix(18.68858,0,0,18.68858,-4320.97033,-39462.46473)">
<path d="m 233.144 2125.88 h 14.61 l -10.602 6.2706 z" fill="#fff"/>
<path d="m 236.982 2117.97 c -1.8903 -0.078 -3.8645 1.1181 -4.4866 3.4395 -1.013 3.7807 1.7139 6.6361 3.6391 9.5714 0.7279 1.1097 0.8418 2.2849 1.0633 3.5581 0.736 -1.0922 1.7513 -2.0893 2.6755 -2.6109 2.9713 -1.677 7.0009 -2.6918 7.9761 -6.3311 0.6364 -2.375 -0.4228 -4.4232 -2.1436 -5.2839 -1.4715 -0.7362 -3.3102 -0.4391 -4.8853 0.6479 -0.8145 -1.7401 -2.224 -2.9242 -3.8385 -2.991 z m -0.0498 1.5952 c 1.1958 0.049 2.3747 0.8501 2.8415 2.5922 l 0.3489 1.3461 0.997 -0.9971 c 1.2249 -1.2249 2.7755 -1.3045 3.8883 -0.7478 s 1.7621 1.6506 1.2962 3.3897 c -0.8646 3.2265 -5.4635 3.083 -8.094 5.4689 -0.9671 -3.1192 -5.1174 -5.499 -4.2191 -8.7091 0.4809 -1.7185 1.7454 -2.3925 2.9411 -2.3429 z" fill="#fff"/>
<path d="m 252.612 2113.81 c 1.8903 -0.078 3.8645 1.1181 4.4866 3.4395 1.013 3.7807 -1.7139 6.6361 -3.6391 9.5714 -0.7279 1.1097 -0.8418 2.2849 -1.0633 3.5581 -0.736 -1.0922 -1.7513 -2.0893 -2.6755 -2.6109 -2.9713 -1.677 -7.0009 -2.6918 -7.9761 -6.3311 -0.6364 -2.375 0.4228 -4.4232 2.1436 -5.2839 1.4715 -0.7362 3.3102 -0.4391 4.8853 0.6479 0.8145 -1.7401 2.224 -2.9242 3.8385 -2.991 z m 0.0498 1.5952 c -1.1958 0.049 -2.3747 0.8501 -2.8415 2.5922 l -0.3489 1.3461 -0.997 -0.9971 c -1.2249 -1.2249 -2.7755 -1.3045 -3.8883 -0.7478 s -1.7621 1.6506 -1.2962 3.3897 c 0.8646 3.2265 5.4635 3.083 8.094 5.4689 0.9671 -3.1192 5.1174 -5.499 4.2191 -8.7091 -0.4809 -1.7185 -1.7454 -2.3925 -2.9411 -2.3429 z" fill="#fff"/>
<path d="m 240.479 2123.91 c 1.5769 -2.1131 3.106 -2.3367 4.4508 -1.6201" fill="none" stroke="#000"/>
<path d="m 240.7 2120.43 c 3.3504 -2.042 6.1737 -0.5724 6.8815 0.8204" fill="none" stroke="#000"/>
<path d="m 248.913 2127.91 c -1.8433 -0.9483 -2.9167 -1.3272 -4.6934 -2.4593" fill="none" stroke="#000"/>
<path d="m 250.544 2125.22 c -1.9005 -1.1487 -3.2601 -1.2414 -4.9986 -2.2781" fill="none" stroke="#000"/>
<path d="m 254.413 2124.34 h -8.5822 l 6.2278 3.6834 z" fill="#fff"/>
<path d="m 252.473 2132.12 c -0.3476 2.8809 -1.6303 2.5042 -1.656 4.3192 -0.0112 0.8226 0.7594 1.502 1.7151 1.502 s 1.7447 -0.6791 1.7447 -1.502 c 0 -1.8242 -1.4203 -1.4495 -1.8038 -4.3192 z" fill="#fff" fill-rule="evenodd"/>
</g>
</svg>
