<svg viewBox="0 0 512 512" xmlns="http://www.w3.org/2000/svg">

<g transform="matrix(18.68858,0,0,18.68858,-4320.97033,-39462.46473)">
<path d="m233.1445,2125.8768h14.61l-10.602,6.2706z" fill="#fff"/>
<path d="m236.9817,2117.9672c-1.8903-.078-3.8645,1.1181-4.4866,3.4395-1.013,3.7807 1.7139,6.6361 3.6391,9.5714 .7279,1.1097.8418,2.2849 1.0633,3.5581 .736-1.0922 1.7513-2.0893 2.6755-2.6109 2.9713-1.677 7.0009-2.6918 7.9761-6.3311 .6364-2.375-.4228-4.4232-2.1436-5.2839-1.4715-.7362-3.3102-.4391-4.8853.6479-.8145-1.7401-2.224-2.9242-3.8385-2.991zm-.0498,1.5952c1.1958.049 2.3747.8501 2.8415,2.5922l.3489,1.3461 .997-.9971c1.2249-1.2249 2.7755-1.3045 3.8883-.7478s1.7621,1.6506 1.2962,3.3897c-.8646,3.2265-5.4635,3.083-8.094,5.4689-.9671-3.1192-5.1174-5.499-4.2191-8.7091 .4809-1.7185 1.7454-2.3925 2.9411-2.3429z" fill="#fff"/>
<path d="m252.6116,2113.8123c1.8903-.078 3.8645,1.1181 4.4866,3.4395 1.013,3.7807-1.7139,6.6361-3.6391,9.5714-.7279,1.1097-.8418,2.2849-1.0633,3.5581-.736-1.0922-1.7513-2.0893-2.6755-2.6109-2.9713-1.677-7.0009-2.6918-7.9761-6.3311-.6364-2.375.4228-4.4232 2.1436-5.2839 1.4715-.7362 3.3102-.4391 4.8853.6479 .8145-1.7401 2.224-2.9242 3.8385-2.991zm.0498,1.5952c-1.1958.049-2.3747.8501-2.8415,2.5922l-.3489,1.3461-.997-.9971c-1.2249-1.2249-2.7755-1.3045-3.8883-.7478s-1.7621,1.6506-1.2962,3.3897c.8646,3.2265 5.4635,3.083 8.094,5.4689 .9671-3.1192 5.1174-5.499 4.2191-8.7091-.4809-1.7185-1.7454-2.3925-2.9411-2.3429z" fill="#fff"/>
<path d="m240.4789,2123.9118c1.5769-2.1131 3.106-2.3367 4.4508-1.6201" fill="none" stroke="#000"/>
<path d="m240.7,2120.4303c3.3504-2.042 6.1737-.5724 6.8815.8204" fill="none" stroke="#000"/>
<path d="m248.9127,2127.9067c-1.8433-.9483-2.9167-1.3272-4.6934-2.4593" fill="none" stroke="#000"/>
<path d="m250.5439,2125.2168c-1.9005-1.1487-3.2601-1.2414-4.9986-2.2781" fill="none" stroke="#000"/>
<path d="m254.4132,2124.3385h-8.5822l6.2278,3.6834z" fill="#fff"/>
<path d="m252.473,2132.1236c-.3476,2.8809-1.6303,2.5042-1.656,4.3192-.0112.8226.7594,1.502 1.7151,1.502s1.7447-.6791 1.7447-1.502c0-1.8242-1.4203-1.4495-1.8038-4.3192z" fill="#fff" fill-rule="evenodd"/>
</g>
</svg>
