<svg viewBox="0 0 512 512" xmlns="http://www.w3.org/2000/svg">

<g transform="matrix(18.68858,0,0,18.68858,-11801.24502,-17932.916)">
<path d="m 633.643 962.153 c 6.7789 -1.4705 13.5578 -1.2867 20.3366 -0.5438 4.007 5.9624 0.4226 14.1928 3.8607 23.1098 -7.2882 0.1202 -14.0572 -1.5026 -23.5448 0.9244 -1.2936 -10.1139 2.7872 -15.6603 -0.6525 -23.4904 z" fill="#fff"/>
<path d="m 649.118 979.76 c 2.563 0.9129 5.0807 1.8847 6.7061 4.0164 -0.8817 -2.6503 -4.742 -5.2736 -6.8853 -5.6661 l 0.1793 1.6496 z" fill-rule="evenodd"/>
<path d="m 653.765 978.26 c -1.2732 1.9772 -2.596 3.8801 -4.8916 4.3192 2.677 0.5458 5.7911 -1.7772 6.5004 -3.6254 l -1.6088 -0.6938 z" fill-rule="evenodd"/>
<path d="m 652.172 977.536 c -0.2194 -3.2269 -1.5311 -4.934 -4.9789 -3.2327 -3.3926 2.678 -9.6706 2.6362 -7.9525 -2.1045 0.311 -0.8581 3.4157 -4.5684 -2.443 -5.7319" fill="none" stroke="#000" stroke-dasharray="1, 1"/>
<path d="m 645.186 981.994 -2.2206 1.7973 -0.9913 -1.5438 -1.8688 3.659 4.2254 -0.1204 -0.1476 -0.2299 1.0712 0.0914 -0.0682 -3.6536 z" fill-rule="evenodd"/>
<path d="m 656.733 973.87 -2.3767 -1.367 1.8806 -1.9484 0.4961 3.3154 z" fill-rule="evenodd"/>
<path d="m 639.855 961.197 3.3041 3.3853 -0.3708 -3.9741 -2.9334 0.5888 z" fill-rule="evenodd"/>
<path d="m 657.569 967.357 -4.7302 0.0574 3.0723 -2.548 1.6579 2.4906 z" fill-rule="evenodd"/>
<path d="m 633.904 978.784 6.5968 7.2958 -7.2436 0.1839 0.6468 -7.4798 z" fill-rule="evenodd"/>
<path d="m 631.976 963.367 4.7302 0.0574 -3.0723 -2.548 -1.6579 2.4906 z" fill-rule="evenodd"/>
<path d="m 653.048 960.841 2.3 1.8607" fill="none" stroke="#000"/>
<path d="m 643.105 970.091 1.74 -4.0782 1.4682 2.7732" fill="none" stroke="#000"/>
<path d="m 649.249 968.188 -1.74 -4.0782 -2.0663 3.3713" fill="none" stroke="#000"/>
<path d="m 652.621 969.928 -2.175 -3.6976 -2.7188 3.8063" fill="none" stroke="#000"/>
</g>
</svg>
