<svg viewBox="0 0 512 512" xmlns="http://www.w3.org/2000/svg">

<g transform="matrix(18.68858,0,0,18.68858,-5674.69017,-230.9801)">
<path d="m 317.337 12.6186 v 26.8257" fill="none" stroke="#000"/>
<g transform="translate(8.00000003664536e-06,-25.2139)">
<path d="m 314.338 62.384 c 5.1173 -2.1324 11.1398 -6.1219 13.3894 -9.3077 -2.2918 -1.7656 -3.7303 -2.87 -5.8621 -2.6717 -5.2259 1.8304 -6.516 -2.6473 -8.9697 -8.3173 -3.6099 -1.9008 -4.5159 -0.1285 -6.9869 3.7308 0.6479 4.1214 4.2513 12.767 8.4293 16.5659 z" fill="#fff" fill-rule="evenodd" stroke="#000"/>
<path d="m 320.481 58.413 c -2.7616 1.6598 -5.6968 3.0047 -7.5393 3.4931 l 1.2708 1.8408 c 5.155 -1.8231 11.9883 -5.777 16.3209 -9.2789 -2.9171 -12.806 -14.0103 -4.1003 -10.0525 3.9449 z" fill="#fff" fill-rule="evenodd" stroke="#000"/>
<path d="m 316.454 47.9311 c -2.631 -0.7153 -7.1058 1.4023 -9.1151 6.5801 -0.7117 -2.238 -1.5369 -4.361 -3.0504 -5.7866 0 -6.4245 7.696 -10.3242 11.3137 -7.9075 0.046 2.4879 -0.1451 5.092 0.8519 7.114 z" fill="#fff" fill-rule="evenodd" stroke="#000"/>
<path d="m 317.806 50.6102 c -0.7526 0.4406 -1.7082 1.7184 -1.9264 2.837" fill="none" stroke="#000"/>
<path d="m 316.166 49.169 c -1.2767 0.5087 -2.5412 1.8198 -2.7577 3.1223" fill="none" stroke="#000"/>
</g>
</g>
</svg>
