<svg viewBox="0 0 512 512" xmlns="http://www.w3.org/2000/svg">

<g transform="matrix(18.68858,0,0,18.68858,-11801.24502,-17932.916)">
<path d="m633.6434,962.1525c6.7789-1.4705 13.5578-1.2867 20.3366-.5438 4.007,5.9624.4226,14.1928 3.8607,23.1098-7.2882.1202-14.0572-1.5026-23.5448.9244-1.2936-10.1139 2.7872-15.6603-.6525-23.4904z" fill="#fff"/>
<path d="m649.1182,979.7603c2.563.9129 5.0807,1.8847 6.7061,4.0164-.8817-2.6503-4.742-5.2736-6.8853-5.6661l.1793,1.6496z" fill-rule="evenodd"/>
<path d="m653.7647,978.2596c-1.2732,1.9772-2.596,3.8801-4.8916,4.3192 2.677.5458 5.7911-1.7772 6.5004-3.6254l-1.6088-.6938z" fill-rule="evenodd"/>
<path d="m652.1721,977.5361c-.2194-3.2269-1.5311-4.934-4.9789-3.2327-3.3926,2.678-9.6706,2.6362-7.9525-2.1045 .311-.8581 3.4157-4.5684-2.443-5.7319" fill="none" stroke="#000" stroke-dasharray="1, 1"/>
<path d="m645.186,981.9941-2.2206,1.7973-.9913-1.5438-1.8688,3.659 4.2254-.1204-.1476-.2299 1.0712.0914-.0682-3.6536z" fill-rule="evenodd"/>
<path d="m656.7326,973.8697-2.3767-1.367 1.8806-1.9484 .4961,3.3154z" fill-rule="evenodd"/>
<path d="m639.8548,961.1971 3.3041,3.3853-.3708-3.9741-2.9334.5888z" fill-rule="evenodd"/>
<path d="m657.5691,967.3567-4.7302.0574 3.0723-2.548 1.6579,2.4906z" fill-rule="evenodd"/>
<path d="m633.904,978.7838 6.5968,7.2958-7.2436.1839 .6468-7.4798z" fill-rule="evenodd"/>
<path d="m631.9757,963.3675 4.7302.0574-3.0723-2.548-1.6579,2.4906z" fill-rule="evenodd"/>
<path d="m653.0475,960.8415 2.3,1.8607" fill="none" stroke="#000"/>
<path d="m643.1048,970.0913 1.74-4.0782 1.4682,2.7732" fill="none" stroke="#000"/>
<path d="m649.2492,968.1881-1.74-4.0782-2.0663,3.3713" fill="none" stroke="#000"/>
<path d="m652.6206,969.9282-2.175-3.6976-2.7188,3.8063" fill="none" stroke="#000"/>
</g>
</svg>
