<svg viewBox="0 0 512 512" xmlns="http://www.w3.org/2000/svg">

<g transform="matrix(18.68858,0,0,18.68858,-910.17196,-17933.15816)">
<path d="m 64.2811 973.195 c -3.2432 10.9584 3.0556 8.6259 8.7794 12.6956 0.6081 -6.9967 -1.5209 -14.1 -8.7794 -12.6956 z" fill="#fff" fill-rule="evenodd"/>
<path d="m 61.6239 963.693 c 0 0 3.0289 -4.0664 6.2171 -2.9203 3.8949 1.4001 4.1492 4.4253 7.0146 5.8015 -3.229 -0.3877 -5.3135 2.3793 -8.5047 2.0706 -3.3682 -0.3258 -4.727 -4.9517 -4.727 -4.9517 z" fill="#fff" fill-rule="evenodd"/>
<path d="m 57.3039 966.13 c 1.1962 4.1563 1.1152 8.2159 0.6805 12.2486" fill="none" stroke="#fff"/>
<path d="m 67.1827 965.463 c -4.016 -1.7366 -8.2417 -2.3995 -12.5458 -1.6995" fill="none" stroke="#fff"/>
<path d="m 64.7513 973.438 c -4.2955 -5.5021 -9.5676 -9.513 -14.5375 -11.2358" fill="none" stroke="#fff"/>
<path d="m 58.5495 971.968 c 0 0 -5.3673 0.5724 -5.7051 4.1335 -0.4127 4.3504 2.4958 6.4625 2.5211 9.816 2.7455 -2.7578 5.1131 -3.8933 5.7737 -7.2309 0.6945 -3.509 -2.5896 -6.7186 -2.5896 -6.7186 z" fill="#fff" fill-rule="evenodd"/>
<path d="m 50.1327 964.217 c -0.3147 -1.0962 -0.7373 -2.2154 0.6755 -2.945 2.8915 0.5956 5.3917 3.1322 7.4193 5.6238 -2.7172 -1.5595 -5.4452 -2.8966 -8.0948 -2.6788 z" fill="#fff" fill-rule="evenodd"/>
<path d="m 69.0317 981.223 c 0.0006 1.2264 -0.037 1.9473 -0.005 3.171 l 0.9825 -0.0762" fill-rule="evenodd"/>
<path d="m 73.478 981.553 -0.2175 -1.0116 -3.0913 -0.2586" fill-rule="evenodd"/>
<path d="m 65.1178 975.856 -2.1555 1.9421 0.4216 1.5267" fill-rule="evenodd"/>
<path d="m 72.1838 976.836 -0.7668 -1.3246 -2.8362 0.5129" fill-rule="evenodd"/>
<path d="m 55.5422 978.101 -2.631 2.7833 0.9712 0.8314" fill-rule="evenodd"/>
<path d="m 57.7926 984.083 0.7673 -0.6941 -1.3217 -2.8064" fill-rule="evenodd"/>
<path d="m 56.0711 974.806 -3.1416 0.4471 -0.2367 1.2533" fill-rule="evenodd"/>
<path d="m 60.7484 980.347 0.3944 -1.4788 -2.4212 -1.6555" fill-rule="evenodd"/>
<path d="m 66.0858 962.709 1.567 -2.3147 1.0544 0.723" fill-rule="evenodd"/>
<path d="m 64.2843 965.188 0.4235 3.3582 1.2533 0.2367" fill-rule="evenodd"/>
<path d="m 72.8095 964.696 -1.0835 -1.081 -2.7866 1.114" fill-rule="evenodd"/>
<path d="m 66.376 979.443 -1.5983 2.9119 1.0832 0.322" fill-rule="evenodd"/>
</g>
</svg>
