<svg viewBox="0 0 512 512" xmlns="http://www.w3.org/2000/svg">

<g transform="matrix(18.68858,0,0,-18.68858,-2270.74917,28410.46908)">
<g transform="matrix(-.3514,.60864,-.60864,-.3514,1196.64806,1597.42609)">
<path d="m 648.514 1369.38 c -2.8244 -4.8008 -2.5988 -9.8545 0.3919 -11.9095 2.5117 -1.7257 6.3999 0.3841 6.4956 3.5173 -1.1375 -1.3895 -2.8176 -1.6305 -4.4333 -0.7127 -2.6227 1.49 -3.0455 4.1067 -2.4541 9.1047 z" fill="#fff"/>
<path d="m 642.763 1369.38 c 2.8244 -4.8008 2.5988 -9.8545 -0.3919 -11.9095 -2.5117 -1.7257 -6.3999 0.3841 -6.4956 3.5173 1.1375 -1.3895 2.8176 -1.6305 4.4333 -0.7127 2.6227 1.49 3.0455 4.1067 2.4541 9.1047 z" fill="#fff"/>
<path d="m 645.665 1350.27 c 1.2394 1.4879 1.9624 4.2065 2.5091 5.7933 -1.4965 4.3981 -2.0912 9.9087 -2.5091 14.2101 -0.4897 -4.332 -1.1125 -9.878 -2.5091 -14.2101 0.446 -1.7685 1.3687 -4.4216 2.5091 -5.7933 z" fill="#fff"/>
</g>
<g transform="matrix(.3514,.60864,.60864,-.3514,-926.04829,1597.42609)">
<path d="m 648.514 1369.38 c -2.8244 -4.8008 -2.5988 -9.8545 0.3919 -11.9095 2.5117 -1.7257 6.3999 0.3841 6.4956 3.5173 -1.1375 -1.3895 -2.8176 -1.6305 -4.4333 -0.7127 -2.6227 1.49 -3.0455 4.1067 -2.4541 9.1047 z" fill="#fff"/>
<path d="m 642.763 1369.38 c 2.8244 -4.8008 2.5988 -9.8545 -0.3919 -11.9095 -2.5117 -1.7257 -6.3999 0.3841 -6.4956 3.5173 1.1375 -1.3895 2.8176 -1.6305 4.4333 -0.7127 2.6227 1.49 3.0455 4.1067 2.4541 9.1047 z" fill="#fff"/>
<path d="m 645.665 1350.27 c 1.2394 1.4879 1.9624 4.2065 2.5091 5.7933 -1.4965 4.3981 -2.0912 9.9087 -2.5091 14.2101 -0.4897 -4.332 -1.1125 -9.878 -2.5091 -14.2101 0.446 -1.7685 1.3687 -4.4216 2.5091 -5.7933 z" fill="#fff"/>
</g>
<g transform="matrix(-.7028,0,0,.7028,589.0517,545.01381)">
<path d="m 648.514 1369.38 c -2.8244 -4.8008 -2.5988 -9.8545 0.3919 -11.9095 2.5117 -1.7257 6.3999 0.3841 6.4956 3.5173 -1.1375 -1.3895 -2.8176 -1.6305 -4.4333 -0.7127 -2.6227 1.49 -3.0455 4.1067 -2.4541 9.1047 z" fill="#fff"/>
<path d="m 642.763 1369.38 c 2.8244 -4.8008 2.5988 -9.8545 -0.3919 -11.9095 -2.5117 -1.7257 -6.3999 0.3841 -6.4956 3.5173 1.1375 -1.3895 2.8176 -1.6305 4.4333 -0.7127 2.6227 1.49 3.0455 4.1067 2.4541 9.1047 z" fill="#fff"/>
<path d="m 645.665 1350.27 c 1.2394 1.4879 1.9624 4.2065 2.5091 5.7933 -1.4965 4.3981 -2.0912 9.9087 -2.5091 14.2101 -0.4897 -4.332 -1.1125 -9.878 -2.5091 -14.2101 0.446 -1.7685 1.3687 -4.4216 2.5091 -5.7933 z" fill="#fff"/>
</g>
<path d="m 139.118 1512.58 c -2.1091 -1.5943 -5.5285 -1.594 -7.6376 0" fill="none" stroke="#fff"/>
<path d="m 129.967 1509.94 c 2.4352 -1.0294 4.1448 -3.9908 3.8189 -6.6144" fill="none" stroke="#fff"/>
<path d="m 140.625 1509.94 c -2.4352 -1.0294 -4.1448 -3.9908 -3.8189 -6.6144" fill="none" stroke="#fff"/>
<path d="m 128.422 1512.59 6.8873 -3.857" fill="none" stroke="#fff"/>
<path d="m 142.236 1512.59 -7.0085 -3.8974" fill="none" stroke="#fff"/>
<path d="m 135.292 1508.91 -3e-05 -7.2962" fill="none" stroke="#fff"/>
</g>
</svg>
