<svg viewBox="0 0 512 512" xmlns="http://www.w3.org/2000/svg">

<g transform="matrix(18.68858,0,0,18.68858,-4319.09606,-38781.64649)">
<path d="m240.3826,2076.4702c-5.1022,1.829-8.75,6.706-8.75,12.4375 0,.8147.0776,1.601.2188,2.375 .4437-.8236 1.0967-1.559 1.9688-2.0625 .941-.5433 1.992-.7587 3-.6875 1.6801.1187 3.282,1.0252 4.1875,2.5938 1.4488,2.5093.5719,5.7386-1.9375,7.1874-.8651.4995-1.8212.7125-2.75.6876 2.3006,1.9447 5.2829,3.125 8.5312,3.125s6.1994-1.1803 8.5-3.125c-.9288.025-1.8849-.1881-2.75-.6876-2.5095-1.4488-3.3551-4.6781-1.9062-7.1874 .9055-1.5686 2.4762-2.4751 4.1562-2.5938 1.008-.071 2.059.1442 3,.6875 .872.5035 1.525,1.2389 1.9688,2.0625 .1412-.774.2188-1.5603.2188-2.375 0-5.7275-3.6532-10.5743-8.75-12.4062 .4833.797.7812,1.7163.7812,2.7187 0,2.8977-2.3211,5.25-5.2188,5.25s-5.25-2.3523-5.25-5.25c0-1.0081.288-1.95.7812-2.75z" fill="#fff" stroke="#000"/>
<path d="m238.9194,2077.6306c2.3471-1.1872 4.8169-1.4425 8.2212-.055-3.6397.7161-6.7506,2.2327-9.1155,4.3641" fill="#fff"/>
<path d="m257.5134,2089.7033c-.1452,2.6263-1.159,4.8929-4.0625,7.1476 1.1998-3.51 1.4415-6.9624.7782-10.0765" fill="#fff"/>
<path d="m238.0117,2099.6564c-2.2017-1.4389-3.6578-3.4502-4.1582-7.0923 2.44,2.794 5.3089,4.7297 8.3374,5.7122" fill="#fff"/>
<path d="m247.5892,2088.6477c0,1.3522-1.0962,2.4485-2.4484,2.4485s-2.4484-1.0963-2.4484-2.4485 1.0962-2.4484 2.4484-2.4484 2.4484,1.0962 2.4484,2.4484z" fill="#fff" transform="matrix(1.88124,0,0,1.88124,-216.35076,-1840.3156)"/>
<path d="m247.5892,2088.6477c0,1.3522-1.0962,2.4485-2.4484,2.4485s-2.4484-1.0963-2.4484-2.4485 1.0962-2.4484 2.4484-2.4484 2.4484,1.0962 2.4484,2.4484z" transform="matrix(1.37609,0,0,1.37609,-92.53298,-785.24262)"/>
<path d="m236.2896,2089.0873c0-6.092 4.9385-11.0305 11.0305-11.0305" fill="none" stroke="#000"/>
<path d="m248.9896,2081.5541c5.2759,3.0459 7.0834,9.7921 4.0374,15.0678" fill="none" stroke="#000"/>
<path d="m249.2749,2096.3015c-5.2757,3.0461-12.0219,1.2384-15.0677-4.0374" fill="none" stroke="#000"/>
</g>
</svg>
