<svg viewBox="0 0 512 512" xmlns="http://www.w3.org/2000/svg">

<g transform="matrix(18.68858,0,0,18.68858,1352.45755,-12371.97496)">
<path d="m -69.8097 662.652 c 7.483 2.1574 15.5974 1.8406 23.2067 0 0 11.9222 -1.5217 23.4642 -11.61 26.1544 -9.2532 -2.4675 -11.5968 -14.2649 -11.5968 -26.1544 z" fill="#fff" fill-rule="evenodd" stroke="#000"/>
<path d="m 342.768 671.402 c 0 1.7875 -1.4491 3.2366 -3.2366 3.2366 s -3.2366 -1.4491 -3.2366 -3.2366 1.4491 -3.2366 3.2366 -3.2366 3.2366 1.4491 3.2366 3.2366 z" stroke="#000" stroke-width="1.4654" transform="matrix(.69668,0,0,.66839,-299.52158,222.095)"/>
<path d="m 342.768 671.402 c 0 1.7875 -1.4491 3.2366 -3.2366 3.2366 s -3.2366 -1.4491 -3.2366 -3.2366 1.4491 -3.2366 3.2366 -3.2366 3.2366 1.4491 3.2366 3.2366 z" stroke="#000" stroke-width="1.4654" transform="matrix(.69668,0,0,.66839,-290.22231,222.095)"/>
<path d="m -60.4501 677.337 -1.2869 -14.8308 h 6.7372 l -0.9841 14.8308" fill="#fff" stroke="#000"/>
<g transform="translate(-401.5992)">
<path d="m 333.035 674.881 c 5.8294 2.9036 14.8156 2.9843 21.0869 0" fill="none" stroke="#000"/>
<path d="m 333.035 682.283 c 6.9027 2.9036 13.8054 3.1106 20.7081 0" fill="none" stroke="#000"/>
<path d="m 335.244 682.202 1.7678 -4.9197 2.336 5.9678 2.3991 -4.911 1.9572 4.8488 2.0834 -4.8488 2.115 4.6002 1.9887 -5.3395 2.0834 4.6556" fill="none" stroke="#000"/>
</g>
</g>
</svg>
