<svg viewBox="0 0 512 512" xmlns="http://www.w3.org/2000/svg">

<g transform="matrix(18.68858,0,0,18.68858,-5911.70782,-7249.90525)">
<path d="m 330.204 410.811 -6.3439 -6.3439 -0.61 -0.61 0.6405 -0.6405 7.7469 -7.7469 0.6405 -0.6405 0.61 0.61 6.3439 6.3439 -1.281 1.281 -5.7034 -5.7034 -6.4659 6.4659 5.7034 5.7034 -1.281 1.281 z" fill="#fff"/>
<path d="m 335.908 408.768 -7.9604 -7.9604 1.281 -1.281 7.9603 7.9603 -1.281 1.281 z" fill="#fff" fill-rule="evenodd"/>
<g fill="#fff">
<path d="m 352.008 394.712 h -4.8906 l 2.4453 -4.2354 z" fill="#fff" transform="matrix(.78631,-.78631,-1.13441,-1.13441,503.07976,1132.19413)"/>
<path d="m 352.008 394.712 h -4.8906 l 2.4453 -4.2354 z" fill="#fff" transform="matrix(.78631,-.78631,-1.13441,-1.13441,510.88761,1124.38628)"/>
</g>
<path d="m 352.008 394.712 h -4.8906 l 2.4453 -4.2354 z" fill="#fff" transform="matrix(.78631,-.78631,-1.13441,-1.13441,509.17963,1130.4861)"/>
<path d="m 317.246 388.812 v 2.2279 l 10.0546 10.0839 2.2572 -2.2278 -10.0839 -10.0839 h -2.2278 z" fill="#fff"/>
</g>
</svg>
