<svg viewBox="0 0 512 512" xmlns="http://www.w3.org/2000/svg">

<g transform="matrix(18.68858,0,0,18.68858,-5911.70782,-7249.90525)">
<path d="m330.2042,410.811-6.3439-6.3439-.61-.61 .6405-.6405 7.7469-7.7469 .6405-.6405 .61.61 6.3439,6.3439-1.281,1.281-5.7034-5.7034-6.4659,6.4659 5.7034,5.7034-1.281,1.281z" fill="#fff"/>
<path d="m335.9076,408.7676-7.9604-7.9604 1.281-1.281 7.9603,7.9603-1.281,1.281z" fill="#fff" fill-rule="evenodd"/>
<g fill="#fff">
<path d="m352.0078,394.7115h-4.8906l2.4453-4.2354z" fill="#fff" transform="matrix(.78631,-.78631,-1.13441,-1.13441,503.07976,1132.19413)"/>
<path d="m352.0078,394.7115h-4.8906l2.4453-4.2354z" fill="#fff" transform="matrix(.78631,-.78631,-1.13441,-1.13441,510.88761,1124.38628)"/>
</g>
<path d="m352.0078,394.7115h-4.8906l2.4453-4.2354z" fill="#fff" transform="matrix(.78631,-.78631,-1.13441,-1.13441,509.17963,1130.4861)"/>
<path d="m317.246,388.8125v2.2279l10.0546,10.0839 2.2572-2.2278-10.0839-10.0839h-2.2278z" fill="#fff"/>
</g>
</svg>
