<svg viewBox="0 0 512 512" xmlns="http://www.w3.org/2000/svg">

<g transform="matrix(18.68858,0,0,18.68858,-4312.52139,-23141.90395)">
<path d="m245.2828,1243.746c2.5339-8.4876 13.5709-1.8874 10.1568,8.1577-1.5407,4.533-.7494,7.8157 1.3506,8.9682" fill="none" stroke="#fff"/>
<path d="m243.7252,1243.746c-2.5339-8.4876-13.5709-1.8874-10.1568,8.1577 1.5407,4.533.7495,7.8157-1.3506,8.9682" fill="none" stroke="#fff"/>
<g transform="matrix(1.00756,0,0,1.00755,-1.68747,-8.33717)">
<path d="m253.6234,1250.9817c0,7.1571-4.1104,12.9657-9.1749,12.9657s-9.1749-5.8086-9.1749-12.9657 4.1104-10.5941 9.1749-10.5941 9.1749,3.437 9.1749,10.5941z" fill="#fff" stroke="#000" stroke-width=".9925"/>
<path d="m235.3454,1252.6122c0-2.109 4.0782-3.8204 9.103-3.8204s9.1031,1.7114 9.1031,3.8204" fill="none" stroke="#000" stroke-width=".9925"/>
<path d="m235.7963,1255.2819c0-1.9722 3.8547-3.5727 8.6043-3.5727s8.6043,1.6005 8.6043,3.5727" fill="none" stroke="#000" stroke-width=".9925"/>
<path d="m236.6261,1257.796c0-1.7588 3.5044-3.1862 7.8223-3.1862s7.8223,1.4274 7.8223,3.1862" fill="none" stroke="#000" stroke-width=".9925"/>
<path d="m238.0096,1260.104c0-1.3928 2.906-2.5231 6.4867-2.5231s6.4867,1.1303 6.4867,2.5231" fill="none" stroke="#000" stroke-width=".9925"/>
<path d="m239.8682,1262.1707c0-.8543 2.0305-1.5475 4.5324-1.5475s4.5324.6932 4.5324,1.5475" fill="none" stroke="#000" stroke-width=".9925"/>
<path d="m241.6845,1246.3014c-.2282,1.6719-.3904,3.5592-.3904,5.5774 0,5.1531.8278,9.5442 2.0078,11.2662h2.2309c1.1879-1.7183 2.0357-6.1077 2.0357-11.2662 0-2.0173-.1623-3.9058-.3904-5.5774h-5.4937z" fill="#fff"/>
<path d="m241.3861,1248.969c1.5152,1.0625 4.4659,1.1134 5.9812,0" fill="none" stroke="#000" stroke-width=".9925"/>
<path d="m241.3861,1252.0181c1.5152,1.0624 4.4659,1.1133 5.9812,0" fill="none" stroke="#000" stroke-width=".9925"/>
<path d="m241.4265,1254.9251c1.4952,1.0453 4.4071,1.0954 5.9023,0" fill="none" stroke="#000" stroke-width=".9925"/>
<path d="m241.3861,1257.7022c1.5152,1.0624 4.4659,1.1133 5.9812,0" fill="none" stroke="#000" stroke-width=".9925"/>
<path d="m242.3236,1260.6308c1.0634.6486 3.1343.6797 4.1977,0" fill="none" stroke="#000" stroke-width=".9925"/>
<path d="m241.6845,1246.3014c-.2282,1.6719-.3904,3.5592-.3904,5.5774 0,4.6407.6767,8.6681 1.6732,10.6805h2.9002c1.0057-2.009 1.7011-6.0318 1.7011-10.6805 0-2.0173-.1623-3.9058-.3904-5.5774" fill="none" stroke="#fff" stroke-width=".9925"/>
<path d="m253.5845,1249.724c0-1.5922-2.3394-2.9665-5.6429-3.5417-.9772.5695-2.1719.9226-3.4818.9226-1.3001,0-2.5084-.3609-3.4818-.9226h-.06c-3.2734.5807-5.5828,1.9586-5.5828,3.5417" fill="none" stroke="#000" stroke-width=".9925"/>
</g>
</g>
</svg>
