<svg viewBox="0 0 512 512" xmlns="http://www.w3.org/2000/svg">

<g transform="matrix(18.68858,0,0,18.68858,-4312.52139,-23141.90395)">
<path d="m 245.283 1243.75 c 2.5339 -8.4876 13.5709 -1.8874 10.1568 8.1577 -1.5407 4.533 -0.7494 7.8157 1.3506 8.9682" fill="none" stroke="#fff"/>
<path d="m 243.725 1243.75 c -2.5339 -8.4876 -13.5709 -1.8874 -10.1568 8.1577 1.5407 4.533 0.7495 7.8157 -1.3506 8.9682" fill="none" stroke="#fff"/>
<g transform="matrix(1.00756,0,0,1.00755,-1.68747,-8.33717)">
<path d="m 253.623 1250.98 c 0 7.1571 -4.1104 12.9657 -9.1749 12.9657 s -9.1749 -5.8086 -9.1749 -12.9657 4.1104 -10.5941 9.1749 -10.5941 9.1749 3.437 9.1749 10.5941 z" fill="#fff" stroke="#000" stroke-width=".9925"/>
<path d="m 235.345 1252.61 c 0 -2.109 4.0782 -3.8204 9.103 -3.8204 s 9.1031 1.7114 9.1031 3.8204" fill="none" stroke="#000" stroke-width=".9925"/>
<path d="m 235.796 1255.28 c 0 -1.9722 3.8547 -3.5727 8.6043 -3.5727 s 8.6043 1.6005 8.6043 3.5727" fill="none" stroke="#000" stroke-width=".9925"/>
<path d="m 236.626 1257.8 c 0 -1.7588 3.5044 -3.1862 7.8223 -3.1862 s 7.8223 1.4274 7.8223 3.1862" fill="none" stroke="#000" stroke-width=".9925"/>
<path d="m 238.01 1260.1 c 0 -1.3928 2.906 -2.5231 6.4867 -2.5231 s 6.4867 1.1303 6.4867 2.5231" fill="none" stroke="#000" stroke-width=".9925"/>
<path d="m 239.868 1262.17 c 0 -0.8543 2.0305 -1.5475 4.5324 -1.5475 s 4.5324 0.6932 4.5324 1.5475" fill="none" stroke="#000" stroke-width=".9925"/>
<path d="m 241.685 1246.3 c -0.2282 1.6719 -0.3904 3.5592 -0.3904 5.5774 0 5.1531 0.8278 9.5442 2.0078 11.2662 h 2.2309 c 1.1879 -1.7183 2.0357 -6.1077 2.0357 -11.2662 0 -2.0173 -0.1623 -3.9058 -0.3904 -5.5774 h -5.4937 z" fill="#fff"/>
<path d="m 241.386 1248.97 c 1.5152 1.0625 4.4659 1.1134 5.9812 0" fill="none" stroke="#000" stroke-width=".9925"/>
<path d="m 241.386 1252.02 c 1.5152 1.0624 4.4659 1.1133 5.9812 0" fill="none" stroke="#000" stroke-width=".9925"/>
<path d="m 241.427 1254.93 c 1.4952 1.0453 4.4071 1.0954 5.9023 0" fill="none" stroke="#000" stroke-width=".9925"/>
<path d="m 241.386 1257.7 c 1.5152 1.0624 4.4659 1.1133 5.9812 0" fill="none" stroke="#000" stroke-width=".9925"/>
<path d="m 242.324 1260.63 c 1.0634 0.6486 3.1343 0.6797 4.1977 0" fill="none" stroke="#000" stroke-width=".9925"/>
<path d="m 241.685 1246.3 c -0.2282 1.6719 -0.3904 3.5592 -0.3904 5.5774 0 4.6407 0.6767 8.6681 1.6732 10.6805 h 2.9002 c 1.0057 -2.009 1.7011 -6.0318 1.7011 -10.6805 0 -2.0173 -0.1623 -3.9058 -0.3904 -5.5774" fill="none" stroke="#fff" stroke-width=".9925"/>
<path d="m 253.584 1249.72 c 0 -1.5922 -2.3394 -2.9665 -5.6429 -3.5417 -0.9772 0.5695 -2.1719 0.9226 -3.4818 0.9226 -1.3001 0 -2.5084 -0.3609 -3.4818 -0.9226 h -0.06 c -3.2734 0.5807 -5.5828 1.9586 -5.5828 3.5417" fill="none" stroke="#000" stroke-width=".9925"/>
</g>
</g>
</svg>
