<svg viewBox="0 0 512 512" xmlns="http://www.w3.org/2000/svg">

<path d="m319.7777,1693.1012c0,2.7929-2.2641,5.057-5.0571,5.057s-5.0571-2.2641-5.0571-5.057 2.2641-5.0571 5.0571-5.0571 5.0571,2.2642 5.0571,5.0571z" fill="#fff" stroke="#000" stroke-width=".7673" transform="matrix(24.35533,0,0,-24.35533,-7283.42739,41388.31204)"/>
<path d="m319.7777,1693.1012c0,2.7929-2.2641,5.057-5.0571,5.057s-5.0571-2.2641-5.0571-5.057 2.2641-5.0571 5.0571-5.0571 5.0571,2.2642 5.0571,5.0571z" fill="#fff" stroke="#000" stroke-width=".7673" transform="matrix(24.35533,0,0,-24.35533,-7531.25627,41388.31204)"/>
<path d="m319.7777,1693.1012c0,2.7929-2.2641,5.057-5.0571,5.057s-5.0571-2.2641-5.0571-5.057 2.2641-5.0571 5.0571-5.0571 5.0571,2.2642 5.0571,5.0571z" fill="#fff" stroke="#000" stroke-width=".7673" transform="matrix(24.35533,0,0,-24.35533,-7407.34183,41600.88081)"/>
<path d="m321.4031,1697.2013-19.1204-5.1232 13.9971-13.9971z" fill="none" stroke="#000" stroke-width="1.2132" transform="matrix(10.89245,10.89245,-10.89245,10.89245,15243.59445,-21593.22501)"/>
<path d="m320.0408,1692.3486c0,1.7123-1.3881,3.1004-3.1004,3.1004s-3.1004-1.3881-3.1004-3.1004 1.3881-3.1003 3.1004-3.1003 3.1004,1.3881 3.1004,3.1003z" fill="none" stroke="#000" stroke-width=".6546" transform="matrix(28.54886,0,0,-28.54886,-8790.47018,48532.69733)"/>
</svg>
