<svg viewBox="0 0 512 512" xmlns="http://www.w3.org/2000/svg">

<g transform="matrix(18.68858,0,0,18.68858,5157.71299,-4767.93817)">
<path d="m -263.815 264.122 7.3108 8.0006 -2.319 2.1191 -7.3108 -8.0006 2.319 -2.1191 z" fill="#fff" stroke="#fff" stroke-width=".9642"/>
<path d="m -257.238 272.793 5.6882 7.0011 -6.5031 -6.1854 0.815 -0.8156 z" fill="#fff" fill-rule="evenodd"/>
<path d="m -262.595 267.784 -3.885 -4.2515" fill="none" stroke="#fff" stroke-width=".9642"/>
<path d="m -267.859 264.793 2.7581 -2.5203 c -0.9854 -1.0784 -3.7258 1.4612 -2.7581 2.5203 z" fill="#fff" fill-rule="evenodd" stroke="#fff" stroke-width=".9642"/>
<path d="m -262.332 258.501 7.0969 3.3569 -0.973 2.057 -7.0969 -3.3569 0.973 -2.0571 z" fill="#fff" stroke="#fff" stroke-width=".9642"/>
<path d="m -255.544 262.509 5.7347 3.1322 -6.0572 -2.3617 0.3225 -0.7705 z" fill="#fff" fill-rule="evenodd"/>
<path d="m -262.743 259.565 -1.5381 -0.7276" fill="none" stroke="#fff" stroke-width=".9642"/>
<path d="m -264.86 260.061 1.1572 -2.4465 c -0.9566 -0.4525 -2.0967 2.0022 -1.1572 2.4465 z" fill="#fff" fill-rule="evenodd" stroke="#fff" stroke-width=".9642"/>
<path d="m -270.272 264.344 3.5942 8.6182 -2.498 1.0418 -3.5942 -8.6182 2.498 -1.0418 z" fill="#fff" stroke="#fff" stroke-width=".9642"/>
<path d="m -267.469 273.292 2.5701 7.3347 -3.4687 -6.911 0.8986 -0.4236 z" fill="#fff" fill-rule="evenodd"/>
<path d="m -271.558 264.777 -0.7039 -1.6879" fill="none" stroke="#fff" stroke-width=".9642"/>
<path d="m -273.747 263.709 2.971 -1.239 c -0.4845 -1.1617 -3.4467 0.0982 -2.971 1.239 z" fill="#fff" fill-rule="evenodd" stroke="#fff" stroke-width=".9642"/>
</g>
</svg>
