<svg viewBox="0 0 512 512" xmlns="http://www.w3.org/2000/svg">

<g transform="matrix(18.68858,0,0,18.68858,-913.33951,-41513.91203)">
<g transform="matrix(.78422,-.21013,.21013,.78422,-460.32535,500.66122)">
<path d="m56.3253,2227.332c-3.1403.8414-4.9936,3.9428-4.2021,6.8967 .4366,1.6296 1.5948,2.8494 3.0794,3.5031l1.0122,3.7776c2.9174.4617 5.3998-.1076 7.3382-1.9663l-1.0122-3.7776c.9589-1.3085 1.3519-2.9439.9153-4.5734-.7915-2.954-3.9905-4.7016-7.1309-3.8601z" fill="#fff" stroke="#000" stroke-width="1.2317"/>
<path d="m58.3341,2233.4265-.3448,2.7195 2.1226-.5121z"/>
<path d="m57.9108,2238.1287 .9638,3.2937" fill="none" stroke="#000" stroke-width="1.2317"/>
<path d="m60.4498,2237.4264 1.0173,3.4368" fill="none" stroke="#000" stroke-width="1.2317"/>
</g>
<path d="m51.5931,2239.8025 .6566,1.8435c1.2543-.505 1.7031-1.3122 1.793-2.1717z"/>
<g transform="matrix(-.60899,-.60899,-.60899,.60899,1465.925,917.43071)">
<path d="m56.3253,2227.332c-3.1403.8414-4.9936,3.9428-4.2021,6.8967 .4366,1.6296 1.5948,2.8494 3.0794,3.5031l1.0122,3.7776c2.9174.4617 5.3998-.1076 7.3382-1.9663l-1.0122-3.7776c.9589-1.3085 1.3519-2.9439.9153-4.5734-.7915-2.954-3.9905-4.7016-7.1309-3.8601z" fill="#fff" stroke="#000" stroke-width="1.1611"/>
<path d="m57.7812,2233.9434-.1491,2.7372 2.0805-.6628z"/>
<path d="m57.9108,2238.1287 .9638,3.2937" fill="none" stroke="#000" stroke-width="1.1611"/>
<path d="m60.4498,2237.4264 1.0173,3.4368" fill="none" stroke="#000" stroke-width="1.1611"/>
</g>
<path d="m461.069,1938.7444c0,.5133-.4161.9294-.9295.9294s-.9295-.4161-.9295-.9294 .4161-.9295.9295-.9295 .9295.4162.9295.9295z" transform="matrix(-.96639,-1.11589,-1.11589,.96639,2680.0591,884.25678)"/>
<path d="m461.069,1938.7444c0,.5133-.4161.9294-.9295.9294s-.9295-.4161-.9295-.9294 .4161-.9295.9295-.9295 .9295.4162.9295.9295z" transform="matrix(-.96639,-1.11589,-1.11589,.96639,2677.8347,880.54662)"/>
<path d="m75.7405,2240.0433-2.1308,2.971-.3639-1.2489-1.7732.5923 1.358-2.2597 .8695.8517 .4682-2.6216"/>
<path d="m62.5862,2221.9613c3.8501-.208 7.0819,2.6018 7.2778,6.2183 .1081,1.9953-.7481,3.7946-2.181,5.0767l.2506,4.6252c-2.9989,1.3132-5.9979,1.4164-8.9969.4861l-.2506-4.6252c-1.563-1.1204-2.6086-2.8168-2.7167-4.8118-.196-3.617 2.7666-6.7612 6.6167-6.9693z" fill="#fff" stroke="#000"/>
<path d="m62.803,2229.2986 1.3905,2.9348-2.5816.2043z"/>
<path d="m64.7763,2233.3533 .1679,5.0692" fill="none" stroke="#000"/>
<path d="m61.6553,2233.5882 .1679,5.0688" fill="none" stroke="#000"/>
<path d="m67.8323,2230.372c-1.872-.3609-3.5587-.8905-4.5098-2.0896 1.0779-2.5332 6.199-3.3191 4.5098,2.0896z"/>
<path d="m52.6076,2234.5281 2.2198,3.0607-1.0763.1009 3.4643,3.027-1.0532-2.6431h.9081l-1.4126-3.767"/>
<path d="m58.8235,2235.8138c2.8422.4483 5.7322.5632 8.7972-.5469" fill="none" stroke="#000"/>
<path d="m57.6625,2230.4404c1.8893-.2549 3.5492-.8777 4.5663-2.0214-.9335-2.5898-5.9482-3.4738-4.5663,2.0214z"/>
<path d="m60.6118,2229.4043c0,.537-.4354.9724-.9724.9724s-.9724-.4354-.9724-.9724 .4354-.9724.9724-.9724 .9724.4354.9724.9724z" fill="#fff" transform="translate(.3241,-.1891)"/>
<path d="m60.6118,2229.4043c0,.537-.4354.9724-.9724.9724s-.9724-.4354-.9724-.9724 .4354-.9724.9724-.9724 .9724.4354.9724.9724z" fill="#fff" transform="translate(5.7263,-.1891)"/>
</g>
</svg>
