<svg viewBox="0 0 512 512" xmlns="http://www.w3.org/2000/svg">

<g transform="matrix(18.68858,0,0,18.68858,-2951.79187,-19762.31325)">
<path d="m173.0357,1058.1069c-3.5832,5.1617-9.044,8.5581-13.439,14.5693 1.1422,1.6463 2.0189,2.9016 3.6109,4.49l1.9468-.6593c1.88,6.6175 10.9958,9.9474 17.2383,6.5624-4.2655-2.7824-7.3788-7.1248-8.6976-11.8689 2.5273-3.7785 7.2107-7.0031 11.1782-8.3522v-4.7413h-11.8376z" fill="#fff" stroke="#000"/>
<path d="m158.4688,1061.7188v2.778l8.3413,5.4894c3.2087,2.0479 6.5605,2.0713 8.7188,1.2919l9.3619.2813v-2.3407l-9.4869-.25c-2.7327,1.1468-5.6828.338-8.0938-1.3437l-8.8413-5.9062z" fill="#fff" fill-rule="evenodd" stroke="#000"/>
<path d="m168.7334,1061.7755c.6803-1.8369 1.9817-2.6388 3.3588-3.3145 2.0548,3.531 6.1064,5.0867 10.2973,5.4358-.665,1.454-2.1794,3.5471-3.8007,3.9334-3.4752-.058-7.7834-2.1408-9.8553-6.0547z" fill="#fff" fill-rule="evenodd" stroke="#000"/>
<path d="m178.0093,1079.9601 3.7813,1.1455-.3281,3.2134-3.5156-.445c1.4716-.249 1.3017-2.6594.0625-3.9139z" fill-rule="evenodd"/>
<path d="m169.8156,1074.8492c1.4891-.7868 2.78-1.3452 4.7338-.7826" fill="none" stroke="#000"/>
<path d="m171.9269,1078.3485c1.1749-1.1891 2.2253-2.0955 4.1776-2.0499" fill="none" stroke="#000"/>
</g>
</svg>
