<svg viewBox="0 0 512 512" xmlns="http://www.w3.org/2000/svg">

<g transform="matrix(18.68858,0,0,18.68858,-913.33951,-41513.91203)">
<g transform="matrix(.78422,-.21013,.21013,.78422,-460.32535,500.66122)">
<path d="m 56.3253 2227.33 c -3.1403 0.8414 -4.9936 3.9428 -4.2021 6.8967 0.4366 1.6296 1.5948 2.8494 3.0794 3.5031 l 1.0122 3.7776 c 2.9174 0.4617 5.3998 -0.1076 7.3382 -1.9663 l -1.0122 -3.7776 c 0.9589 -1.3085 1.3519 -2.9439 0.9153 -4.5734 -0.7915 -2.954 -3.9905 -4.7016 -7.1309 -3.8601 z" fill="#fff" stroke="#000" stroke-width="1.2317"/>
<path d="m 58.3341 2233.43 -0.3448 2.7195 2.1226 -0.5121 z"/>
<path d="m 57.9108 2238.13 0.9638 3.2937" fill="none" stroke="#000" stroke-width="1.2317"/>
<path d="m 60.4498 2237.43 1.0173 3.4368" fill="none" stroke="#000" stroke-width="1.2317"/>
</g>
<path d="m 51.5931 2239.8 0.6566 1.8435 c 1.2543 -0.505 1.7031 -1.3122 1.793 -2.1717 z"/>
<g transform="matrix(-.60899,-.60899,-.60899,.60899,1465.925,917.43071)">
<path d="m 56.3253 2227.33 c -3.1403 0.8414 -4.9936 3.9428 -4.2021 6.8967 0.4366 1.6296 1.5948 2.8494 3.0794 3.5031 l 1.0122 3.7776 c 2.9174 0.4617 5.3998 -0.1076 7.3382 -1.9663 l -1.0122 -3.7776 c 0.9589 -1.3085 1.3519 -2.9439 0.9153 -4.5734 -0.7915 -2.954 -3.9905 -4.7016 -7.1309 -3.8601 z" fill="#fff" stroke="#000" stroke-width="1.1611"/>
<path d="m 57.7812 2233.94 -0.1491 2.7372 2.0805 -0.6628 z"/>
<path d="m 57.9108 2238.13 0.9638 3.2937" fill="none" stroke="#000" stroke-width="1.1611"/>
<path d="m 60.4498 2237.43 1.0173 3.4368" fill="none" stroke="#000" stroke-width="1.1611"/>
</g>
<path d="m 461.069 1938.74 c 0 0.5133 -0.4161 0.9294 -0.9295 0.9294 s -0.9295 -0.4161 -0.9295 -0.9294 0.4161 -0.9295 0.9295 -0.9295 0.9295 0.4162 0.9295 0.9295 z" transform="matrix(-.96639,-1.11589,-1.11589,.96639,2680.0591,884.25678)"/>
<path d="m 461.069 1938.74 c 0 0.5133 -0.4161 0.9294 -0.9295 0.9294 s -0.9295 -0.4161 -0.9295 -0.9294 0.4161 -0.9295 0.9295 -0.9295 0.9295 0.4162 0.9295 0.9295 z" transform="matrix(-.96639,-1.11589,-1.11589,.96639,2677.8347,880.54662)"/>
<path d="m 75.7405 2240.04 -2.1308 2.971 -0.3639 -1.2489 -1.7732 0.5923 1.358 -2.2597 0.8695 0.8517 0.4682 -2.6216"/>
<path d="m 62.5862 2221.96 c 3.8501 -0.208 7.0819 2.6018 7.2778 6.2183 0.1081 1.9953 -0.7481 3.7946 -2.181 5.0767 l 0.2506 4.6252 c -2.9989 1.3132 -5.9979 1.4164 -8.9969 0.4861 l -0.2506 -4.6252 c -1.563 -1.1204 -2.6086 -2.8168 -2.7167 -4.8118 -0.196 -3.617 2.7666 -6.7612 6.6167 -6.9693 z" fill="#fff" stroke="#000"/>
<path d="m 62.803 2229.3 1.3905 2.9348 -2.5816 0.2043 z"/>
<path d="m 64.7763 2233.35 0.1679 5.0692" fill="none" stroke="#000"/>
<path d="m 61.6553 2233.59 0.1679 5.0688" fill="none" stroke="#000"/>
<path d="m 67.8323 2230.37 c -1.872 -0.3609 -3.5587 -0.8905 -4.5098 -2.0896 1.0779 -2.5332 6.199 -3.3191 4.5098 2.0896 z"/>
<path d="m 52.6076 2234.53 2.2198 3.0607 -1.0763 0.1009 3.4643 3.027 -1.0532 -2.6431 h 0.9081 l -1.4126 -3.767"/>
<path d="m 58.8235 2235.81 c 2.8422 0.4483 5.7322 0.5632 8.7972 -0.5469" fill="none" stroke="#000"/>
<path d="m 57.6625 2230.44 c 1.8893 -0.2549 3.5492 -0.8777 4.5663 -2.0214 -0.9335 -2.5898 -5.9482 -3.4738 -4.5663 2.0214 z"/>
<path d="m 60.6118 2229.4 c 0 0.537 -0.4354 0.9724 -0.9724 0.9724 s -0.9724 -0.4354 -0.9724 -0.9724 0.4354 -0.9724 0.9724 -0.9724 0.9724 0.4354 0.9724 0.9724 z" fill="#fff" transform="translate(.3241,-.1891)"/>
<path d="m 60.6118 2229.4 c 0 0.537 -0.4354 0.9724 -0.9724 0.9724 s -0.9724 -0.4354 -0.9724 -0.9724 0.4354 -0.9724 0.9724 -0.9724 0.9724 0.4354 0.9724 0.9724 z" fill="#fff" transform="translate(5.7263,-.1891)"/>
</g>
</svg>
