<svg viewBox="0 0 512 512" xmlns="http://www.w3.org/2000/svg">

<g transform="matrix(18.68858,0,0,18.68858,-2951.79187,-19762.31325)">
<path d="m 173.036 1058.11 c -3.5832 5.1617 -9.044 8.5581 -13.439 14.5693 1.1422 1.6463 2.0189 2.9016 3.6109 4.49 l 1.9468 -0.6593 c 1.88 6.6175 10.9958 9.9474 17.2383 6.5624 -4.2655 -2.7824 -7.3788 -7.1248 -8.6976 -11.8689 2.5273 -3.7785 7.2107 -7.0031 11.1782 -8.3522 v -4.7413 h -11.8376 z" fill="#fff" stroke="#000"/>
<path d="m 158.469 1061.72 v 2.778 l 8.3413 5.4894 c 3.2087 2.0479 6.5605 2.0713 8.7188 1.2919 l 9.3619 0.2813 v -2.3407 l -9.4869 -0.25 c -2.7327 1.1468 -5.6828 0.338 -8.0938 -1.3437 l -8.8413 -5.9062 z" fill="#fff" fill-rule="evenodd" stroke="#000"/>
<path d="m 168.733 1061.78 c 0.6803 -1.8369 1.9817 -2.6388 3.3588 -3.3145 2.0548 3.531 6.1064 5.0867 10.2973 5.4358 -0.665 1.454 -2.1794 3.5471 -3.8007 3.9334 -3.4752 -0.058 -7.7834 -2.1408 -9.8553 -6.0547 z" fill="#fff" fill-rule="evenodd" stroke="#000"/>
<path d="m 178.009 1079.96 3.7813 1.1455 -0.3281 3.2134 -3.5156 -0.445 c 1.4716 -0.249 1.3017 -2.6594 0.0625 -3.9139 z" fill-rule="evenodd"/>
<path d="m 169.816 1074.85 c 1.4891 -0.7868 2.78 -1.3452 4.7338 -0.7826" fill="none" stroke="#000"/>
<path d="m 171.927 1078.35 c 1.1749 -1.1891 2.2253 -2.0955 4.1776 -2.0499" fill="none" stroke="#000"/>
</g>
</svg>
