<svg viewBox="0 0 512 512" xmlns="http://www.w3.org/2000/svg">

<g transform="matrix(18.68858,0,0,18.68858,-8404.9532,-38102.7044)">
<path d="m463.5625,2039.9542c-2.3842.01-4.6678.396-6.3438,1.125l-2.5,22.7813 6.8438,1.375h4.5312l6.9062-1.4063-2.5-22.75c-2.0707-.7656-4.5533-1.1341-6.9375-1.125z" fill="#fff"/>
<path d="m463.6974,2046.8835 2.4572,18.9093h-4.9145z"/>
<path d="m456.2119,2042.4402h14.9328" fill="none" stroke="#000"/>
<path d="m456.2119,2044.4782h14.9328" fill="none" stroke="#000"/>
<path d="m464.8686,2050.623h-1.9664v-6.357h2.3435" fill="#fff" stroke="#000"/>
<path d="m462.0593,2041.545h3.8665v3.8475h-3.8665z" fill="#fff" stroke="#000"/>
<path d="m458.9965,2040.9259v4.9563" fill="none" stroke="#fff"/>
<path d="m468.6936,2040.9259v4.9563" fill="none" stroke="#fff"/>
<path d="m464.4292,2043.4802-2.2136.0001" fill="none" stroke="#000"/>
</g>
</svg>
