<svg viewBox="0 0 512 512" xmlns="http://www.w3.org/2000/svg">

<g transform="matrix(18.68858,0,0,18.68858,-8404.9532,-38102.7044)">
<path d="m 463.562 2039.95 c -2.3842 0.01 -4.6678 0.396 -6.3438 1.125 l -2.5 22.7813 6.8438 1.375 h 4.5312 l 6.9062 -1.4063 -2.5 -22.75 c -2.0707 -0.7656 -4.5533 -1.1341 -6.9375 -1.125 z" fill="#fff"/>
<path d="m 463.697 2046.88 2.4572 18.9093 h -4.9145 z"/>
<path d="m 456.212 2042.44 h 14.9328" fill="none" stroke="#000"/>
<path d="m 456.212 2044.48 h 14.9328" fill="none" stroke="#000"/>
<path d="m 464.869 2050.62 h -1.9664 v -6.357 h 2.3435" fill="#fff" stroke="#000"/>
<path d="m 462.059 2041.55 h 3.8665 v 3.8475 h -3.8665 z" fill="#fff" stroke="#000"/>
<path d="m 458.997 2040.93 v 4.9563" fill="none" stroke="#fff"/>
<path d="m 468.694 2040.93 v 4.9563" fill="none" stroke="#fff"/>
<path d="m 464.429 2043.48 -2.2136 0.0001" fill="none" stroke="#000"/>
</g>
</svg>
