<svg viewBox="0 0 512 512" xmlns="http://www.w3.org/2000/svg">

<g transform="matrix(18.68858,0,0,18.68858,-1590.88057,-34718.59273)">
<path d="m 91.3947 1884.02 h 14.742 c 2.8718 0 5.1911 -1.6943 5.1911 -3.7921 s -2.3193 -3.807 -5.1911 -3.807 h -14.742 c -2.8718 0 -5.2115 1.7092 -5.2115 3.807 s 2.3398 3.7921 5.2115 3.7921 z" fill="#fff"/>
<path d="m 94.8947 1877.43 h 7.8743 c 2.4301 0 4.3927 -1.3414 4.3927 -3.0023 s -1.9626 -3.0142 -4.3927 -3.0142 h -7.8743 c -2.4301 0 -4.41 1.3532 -4.41 3.0142 s 1.9799 3.0023 4.41 3.0023 z" fill="#fff"/>
<path d="m 97.1896 1872.99 c -2.6044 0.3041 -5.1812 -6.8927 0.103 -8.8064 -1.5609 3.9349 8.8698 1.8182 5.174 8.6782" fill="#fff" fill-rule="evenodd"/>
<path d="m 88.1173 1875.67 c 3.1609 -6.0044 -1.6729 -5.9579 0.248 -9.9552 -4.6837 4.1523 1.3362 3.4652 -0.248 9.9552 z" fill="#fff"/>
<path d="m 109.09 1875.75 c 3.0868 -6.0703 -0.0923 -8.2351 -0.5685 -14.0995 -1.9042 8.0408 1.8674 6.675 0.5685 14.0995 z" fill="#fff"/>
<path d="m 104.428 1861.06 c -0.764 1.3233 -1.977 2.0531 -2.7095 1.6302 s -0.707 -1.8383 0.057 -3.1616 1.6792 -1.5373 2.4117 -1.1144 1.0047 1.3227 0.2408 2.6458 z" fill="#fff" stroke="#000"/>
<path d="m 106.356 1863.73 c -1.3233 0.764 -2.7387 0.7895 -3.1616 0.057 s 0.3069 -1.9454 1.6302 -2.7095 2.2229 -0.4916 2.6458 0.2408 0.2087 1.6478 -1.1144 2.4117 z" fill="#fff" stroke="#000"/>
<path d="m 102.781 1861.71 c 0 0.5351 -0.4337 0.9688 -0.9688 0.9688 s -0.9688 -0.4337 -0.9688 -0.9688 0.4337 -0.9687 0.9688 -0.9687 0.9688 0.4337 0.9688 0.9687 z" fill="#fff" transform="matrix(.86603,.5,-.5,.86603,944.46693,200.94522)"/>
<path d="m 91.431 1858.68 c 3.8514 4.3518 -0.4269 6.7569 1.1064 11.2848 -4.4306 -5.1509 1.1611 -5.5567 -1.1064 -11.2848 z" fill="#fff"/>
<path d="m 94.1511 1871.46 0.3536 -1.0386 c 0.4375 0.7115 3.062 1.4301 3.062 1.4301 s -2.5783 -0.3777 -3.4156 -0.3914 z"/>
<path d="m 90.3823 1876.48 0.3536 -1.0386 c 0.4375 0.7115 4.432 1.6511 4.432 1.6511 s -3.9483 -0.5987 -4.7856 -0.6124 z"/>
</g>
</svg>
