<svg viewBox="0 0 512 512" xmlns="http://www.w3.org/2000/svg">

<g transform="matrix(18.68858,0,0,18.68858,-1590.88057,-34718.59273)">
<path d="m91.3947,1884.0197h14.742c2.8718,0 5.1911-1.6943 5.1911-3.7921s-2.3193-3.807-5.1911-3.807h-14.742c-2.8718,0-5.2115,1.7092-5.2115,3.807s2.3398,3.7921 5.2115,3.7921z" fill="#fff"/>
<path d="m94.8947,1877.4258h7.8743c2.4301,0 4.3927-1.3414 4.3927-3.0023s-1.9626-3.0142-4.3927-3.0142h-7.8743c-2.4301,0-4.41,1.3532-4.41,3.0142s1.9799,3.0023 4.41,3.0023z" fill="#fff"/>
<path d="m97.1896,1872.9883c-2.6044.3041-5.1812-6.8927.103-8.8064-1.5609,3.9349 8.8698,1.8182 5.174,8.6782" fill="#fff" fill-rule="evenodd"/>
<path d="m88.1173,1875.6656c3.1609-6.0044-1.6729-5.9579.248-9.9552-4.6837,4.1523 1.3362,3.4652-.248,9.9552z" fill="#fff"/>
<path d="m109.0897,1875.7487c3.0868-6.0703-.0923-8.2351-.5685-14.0995-1.9042,8.0408 1.8674,6.675.5685,14.0995z" fill="#fff"/>
<path d="m104.4285,1861.0598c-.764,1.3233-1.977,2.0531-2.7095,1.6302s-.707-1.8383.057-3.1616 1.6792-1.5373 2.4117-1.1144 1.0047,1.3227.2408,2.6458z" fill="#fff" stroke="#000"/>
<path d="m106.3556,1863.7327c-1.3233.764-2.7387.7895-3.1616.057s.3069-1.9454 1.6302-2.7095 2.2229-.4916 2.6458.2408 .2087,1.6478-1.1144,2.4117z" fill="#fff" stroke="#000"/>
<path d="m102.7812,1861.7059c0,.5351-.4337.9688-.9688.9688s-.9688-.4337-.9688-.9688 .4337-.9687.9688-.9687 .9688.4337.9688.9687z" fill="#fff" transform="matrix(.86603,.5,-.5,.86603,944.46693,200.94522)"/>
<path d="m91.431,1858.6771c3.8514,4.3518-.4269,6.7569 1.1064,11.2848-4.4306-5.1509 1.1611-5.5567-1.1064-11.2848z" fill="#fff"/>
<path d="m94.1511,1871.4571 .3536-1.0386c.4375.7115 3.062,1.4301 3.062,1.4301s-2.5783-.3777-3.4156-.3914z"/>
<path d="m90.3823,1876.4842 .3536-1.0386c.4375.7115 4.432,1.6511 4.432,1.6511s-3.9483-.5987-4.7856-.6124z"/>
</g>
</svg>
