<svg xmlns="http://www.w3.org/2000/svg" viewBox="0 0 512 512">
<g transform="matrix(15 0 0 15 -1064 -8854.4323)">
<use width="744.094" height="1052.362" transform="translate(108 584.36217)"/>
<g fill="#fff">
<path d="m 80 606.362 c -2 0 -2 0 -2 -2 h -2 l -1 -2.0001 v -4 l 1 -2 h 2 c 0 -2 0 -2 2 -2 h 8 c 2 0 2 0 2 2 l 1 0 1 2 h 12 v 2 2 h -12 l -1 2 h -1 c 0 2 0 2 -2 2 z m 7 9 c 2 0 3 2 3 2 1 0 2 0 2 1 l 4 1 v 1 h -24 v -1 l 4 -1 c 0 -1 1 -1 2 -1 0 0 1 -2 3 -2 z"/>
<path d="m 82 608.362 h 4 a 1 1 0 0 1 1 1 v 3 a 1 1 0 0 1 -1 1 h -4 a 1 1 0 0 1 -1 -1 v -3 a 1 1 0 0 1 1 -1"/>
</g>
</g>
</svg>
