<svg xmlns="http://www.w3.org/2000/svg" viewBox="0 0 512 512">
<g transform="matrix(15 0 0 15 -1064 -8854.4323)">
<use width="744.094" height="1052.362" transform="translate(108 584.36217)"/>
<g fill="#fff">
<path d="m80,606.3622c-2,0-2,0-2-2h-2l-1-2.0001v-4l1-2h2c0-2 0-2 2-2h8c2,0 2,0 2,2l1,0 1,2h12v2 2h-12l-1,2h-1c0,2 0,2-2,2zm7,9c2,0 3,2 3,2 1,0 2,0 2,1l4,1v1h-24v-1l4-1c0-1 1-1 2-1 0,0 1-2 3-2z"/>
<path d="m82,608.362h4a1,1 0 0,1 1,1v3a1,1 0 0,1 -1,1h-4a1,1 0 0,1 -1-1v-3a1,1 0 0,1 1-1"/>
</g>
</g>
</svg>
