<svg viewBox="0 0 512 512" xmlns="http://www.w3.org/2000/svg">

<g transform="matrix(18.68858,0,0,18.68858,-4317.43819,-41512.97573)">
<path d="m247.2417,2226.0016c0,2.9091-1.072,4.7458-2.3945,4.7458s-2.3944-1.7632-2.3944-4.7458c0-1.8558 1.6597-3.3601 2.3944-3.3601s2.3945,1.5043 2.3945,3.3601z" fill="#fff"/>
<g transform="matrix(1.28201,0,0,1.28249,-68.04372,-628.1465)">
<path d="m247.4163,2231.2653c.9771-3.6959 5.3575-1.0092 6.4454.3011 1.2336,1.4857-6.7937,1.0161-6.4454-.3011z" fill="#fff"/>
<path d="m240.7091,2231.2653c-.9771-3.6959-5.3575-1.0092-6.4454.3011-1.2336,1.4857 6.7937,1.0161 6.4454-.3011z" fill="#fff"/>
</g>
<g transform="matrix(1.28201,0,0,1.28249,-68.05565,-628.1465)">
<path d="m245.8677,2238.681c3.3283-2.4195 4.7957,1.5517 4.7495,3.0239-.0506,1.6143-5.6472-2.3713-4.7495-3.0239z" fill="#fff"/>
<path d="m242.2763,2238.681c-3.3283-2.4195-4.7957,1.5517-4.7495,3.0239 .0506,1.6143 5.6472-2.3713 4.7495-3.0239z" fill="#fff"/>
</g>
<path d="m251.1359,2236.3984c0,4.415-2.8155,7.9943-6.2886,7.9943s-6.2887-3.5793-6.2887-7.9943 2.8155-6.2177 6.2887-6.2177 6.2886,1.8027 6.2886,6.2177z" stroke="#fff"/>
<path d="m243.3444,2243.9852h3.0058c-.3688.9982-.5159,1.9963-1.5029,2.9946-.9128-.9467-1.1519-1.9776-1.5029-2.9946z" fill="#fff"/>
<path d="m243.0132,2233.4548-1.7741,2.6066 2.2024,2.2687h2.8116l2.2024-2.2687-1.7471-2.6066z" fill="none" stroke="#fff"/>
<g transform="translate(.1847)">
<path d="m243.4027,2238.2958-1.6128,1.9658 1.4515,1.4992" fill="none" stroke="#fff"/>
<path d="m245.9225,2238.2958 1.6128,1.9658-1.4515,1.4992" fill="none" stroke="#fff"/>
</g>
<g transform="translate(.1532)">
<path d="m243.1754,2233.7325-2.4188-2.9374" fill="none" stroke="#fff"/>
<path d="m246.2127,2233.7325 2.4188-2.9374" fill="none" stroke="#fff"/>
</g>
</g>
</svg>
