<svg viewBox="0 0 512 512" xmlns="http://www.w3.org/2000/svg">

<g transform="matrix(18.68858,0,0,18.68858,-4317.43819,-41512.97573)">
<path d="m 247.242 2226 c 0 2.9091 -1.072 4.7458 -2.3945 4.7458 s -2.3944 -1.7632 -2.3944 -4.7458 c 0 -1.8558 1.6597 -3.3601 2.3944 -3.3601 s 2.3945 1.5043 2.3945 3.3601 z" fill="#fff"/>
<g transform="matrix(1.28201,0,0,1.28249,-68.04372,-628.1465)">
<path d="m 247.416 2231.27 c 0.9771 -3.6959 5.3575 -1.0092 6.4454 0.3011 1.2336 1.4857 -6.7937 1.0161 -6.4454 -0.3011 z" fill="#fff"/>
<path d="m 240.709 2231.27 c -0.9771 -3.6959 -5.3575 -1.0092 -6.4454 0.3011 -1.2336 1.4857 6.7937 1.0161 6.4454 -0.3011 z" fill="#fff"/>
</g>
<g transform="matrix(1.28201,0,0,1.28249,-68.05565,-628.1465)">
<path d="m 245.868 2238.68 c 3.3283 -2.4195 4.7957 1.5517 4.7495 3.0239 -0.0506 1.6143 -5.6472 -2.3713 -4.7495 -3.0239 z" fill="#fff"/>
<path d="m 242.276 2238.68 c -3.3283 -2.4195 -4.7957 1.5517 -4.7495 3.0239 0.0506 1.6143 5.6472 -2.3713 4.7495 -3.0239 z" fill="#fff"/>
</g>
<path d="m 251.136 2236.4 c 0 4.415 -2.8155 7.9943 -6.2886 7.9943 s -6.2887 -3.5793 -6.2887 -7.9943 2.8155 -6.2177 6.2887 -6.2177 6.2886 1.8027 6.2886 6.2177 z" stroke="#fff"/>
<path d="m 243.344 2243.99 h 3.0058 c -0.3688 0.9982 -0.5159 1.9963 -1.5029 2.9946 -0.9128 -0.9467 -1.1519 -1.9776 -1.5029 -2.9946 z" fill="#fff"/>
<path d="m 243.013 2233.45 -1.7741 2.6066 2.2024 2.2687 h 2.8116 l 2.2024 -2.2687 -1.7471 -2.6066 z" fill="none" stroke="#fff"/>
<g transform="translate(.1847)">
<path d="m 243.403 2238.3 -1.6128 1.9658 1.4515 1.4992" fill="none" stroke="#fff"/>
<path d="m 245.923 2238.3 1.6128 1.9658 -1.4515 1.4992" fill="none" stroke="#fff"/>
</g>
<g transform="translate(.1532)">
<path d="m 243.175 2233.73 -2.4188 -2.9374" fill="none" stroke="#fff"/>
<path d="m 246.213 2233.73 2.4188 -2.9374" fill="none" stroke="#fff"/>
</g>
</g>
</svg>
