<svg viewBox="0 0 512 512" xmlns="http://www.w3.org/2000/svg">

<g transform="matrix(18.68858,0,0,18.68858,-9759.99203,-21806.87216)">
<path d="m 618.233 23.8677 c 0 5.0325 -3.2397 9.1122 -7.2361 9.1122 s -7.2361 -4.0797 -7.2361 -9.1122 3.2397 -9.1122 7.2361 -9.1122 7.2361 4.0797 7.2361 9.1122 z" fill="#fff" transform="matrix(1.19523,0,0,1.1953,-194.085,1151.7159)"/>
<path d="m 526.827 1181.07 h 18.7391" fill="none" stroke="#000"/>
<path d="m 530.045 1189.02 12.7205 -16.6227" fill="none" stroke="#000"/>
<path d="m 542.348 1189.02 -12.8393 -16.7753" fill="none" stroke="#000"/>
<path d="m 173.973 28.1939 -7.374 1.9759 -5.3982 -5.3981 1.9759 -7.374 7.374 -1.9759 5.3982 5.3981 z" fill="#fff" stroke="#000" stroke-width="1.551" transform="matrix(-.18423,-.56415,.68754,-.15116,551.57972,1279.4897)"/>
<path d="m 541.593 1168.46 c 0 2.2205 -2.393 4.0227 -5.3415 4.0227 s -5.3415 -1.8022 -5.3415 -4.0227 h 10.6831 z"/>
<path d="m 532.378 1168.61 c -3.7444 1.8572 -6.3781 6.3539 -6.3781 11.5814 0 6.8892 4.5969 12.4923 10.2506 12.4923 s 10.218 -5.6031 10.218 -12.4923 c 0 -5.2095 -2.6215 -9.6802 -6.3456 -11.5488 -0.484 1.261 -2.0294 2.1796 -3.8724 2.1796 -1.856 0 -3.4002 -0.9376 -3.8724 -2.2122 z" fill="none" stroke="#fff"/>
</g>
</svg>
