<svg viewBox="0 0 512 512" xmlns="http://www.w3.org/2000/svg">

<g transform="matrix(18.68858,0,0,18.68858,-9759.99203,-21806.87216)">
<path d="m618.233,23.8677c0,5.0325-3.2397,9.1122-7.2361,9.1122s-7.2361-4.0797-7.2361-9.1122 3.2397-9.1122 7.2361-9.1122 7.2361,4.0797 7.2361,9.1122z" fill="#fff" transform="matrix(1.19523,0,0,1.1953,-194.085,1151.7159)"/>
<path d="m526.8273,1181.0707h18.7391" fill="none" stroke="#000"/>
<path d="m530.0455,1189.0177 12.7205-16.6227" fill="none" stroke="#000"/>
<path d="m542.3481,1189.0177-12.8393-16.7753" fill="none" stroke="#000"/>
<path d="m173.973,28.1939-7.374,1.9759-5.3982-5.3981 1.9759-7.374 7.374-1.9759 5.3982,5.3981z" fill="#fff" stroke="#000" stroke-width="1.551" transform="matrix(-.18423,-.56415,.68754,-.15116,551.57972,1279.4897)"/>
<path d="m541.5935,1168.4573c0,2.2205-2.393,4.0227-5.3415,4.0227s-5.3415-1.8022-5.3415-4.0227h10.6831z"/>
<path d="m532.3782,1168.6138c-3.7444,1.8572-6.3781,6.3539-6.3781,11.5814 0,6.8892 4.5969,12.4923 10.2506,12.4923s10.218-5.6031 10.218-12.4923c0-5.2095-2.6215-9.6802-6.3456-11.5488-.484,1.261-2.0294,2.1796-3.8724,2.1796-1.856,0-3.4002-.9376-3.8724-2.2122z" fill="none" stroke="#fff"/>
</g>
</svg>
