<svg xmlns="http://www.w3.org/2000/svg" viewBox="0 0 512 512">
<g fill="#fff" transform="matrix(18.68858 0 0 18.68858 711.62207 -15524.56111)">
<path d="m -121.062 846.831 c 0 4.9188 -3.9875 8.9062 -8.9062 8.9062 -4.9188 0 -8.9062 -3.9875 -8.9062 -8.9062 0 -4.9188 3.9875 -8.9062 8.9062 -8.9062 4.9188 0 8.9062 3.9875 8.9062 8.9062 z" transform="translate(105.89268 -3.0625)"/>
<g stroke="#000">
<g fill-rule="evenodd">
<path d="m -24.0544 844.131 c 5.2298 -6.2846 12.0057 -2.4012 12.7123 3.4513 0.576 4.7704 -5.2771 5.4129 -5.6456 1.6138 -0.3675 -3.7894 -2.1479 -6.8207 -7.0667 -5.0651 z"/>
<path d="m -23.8409 843.623 c -3.8817 -7.1956 2.2476 -12.0362 7.9414 -10.5106 4.641 1.2436 3.0551 6.9147 -0.6073 5.8406 -3.6531 -1.0713 -7.1295 -0.549 -7.3341 4.67 z"/>
<path d="m -23.9374 843.854 c -8.0171 1.6016 -10.8472 -5.6779 -7.7189 -10.6745 2.5499 -4.0727 7.5062 -0.8937 5.4053 2.293 -2.0955 3.1786 -2.6156 6.6556 2.3135 8.3814 z"/>
<path d="m -24.0087 843.627 c -0.7435 8.1421 -8.5267 8.7871 -12.4277 4.3677 -3.1797 -3.6022 1.2769 -7.4511 3.7348 -4.5312 2.4517 2.9125 5.6371 4.3993 8.6929 0.1635 z"/>
<path d="m -24.2443 843.956 c 7.597 3.0205 6.0089 10.6678 0.6652 13.1566 -4.3557 2.0286 -6.7831 -3.3362 -3.2863 -4.866 3.4879 -1.5259 5.8167 -4.1596 2.6211 -8.2906 z"/>
</g>
<path d="m 381.44 844.959 c 0 1.6353 -1.3257 2.961 -2.961 2.961 -1.6353 0 -2.961 -1.3257 -2.961 -2.961 0 -1.6353 1.3257 -2.961 2.961 -2.961 1.6353 0 2.961 1.3257 2.961 2.961 z" transform="translate(-402.4831 -1.01647)"/>
</g>
</g>
</svg>
