<svg viewBox="0 0 512 512" xmlns="http://www.w3.org/2000/svg">

<g transform="matrix(18.68858,0,0,18.68858,-4313.93376,-30619.55173)">
<path d="m252.424,1642.0579c-7.1726,12.0619 6.402,15.0304-4.1192,22.7862 3.7823-10.4046-17.3684-11.5972-13.2227-23.4833" fill="#fff"/>
<path d="m234.0104,1644.8368c1.0447,4.9871 16.2373,5.5996 17.0604,1.72" fill="none" stroke="#000"/>
<path d="m237.1607,1650.7966c2.5138,2.9868 13.7241,2.9137 13.6968-.094" fill="none" stroke="#000"/>
<path d="m243.1934,1655.5877c2.4769,2.0738 8.5369.048 8.2835-2.227" fill="none" stroke="#000"/>
<path d="m246.5439,1658.4702c1.6081,1.4381 6.068-.2107 6.2876-1.7723" fill="none" stroke="#000"/>
<path d="m247.7878,1660.4614c1.2403,1.6792 4.3899,1.0841 5.037-.2844" fill="none" stroke="#000"/>
<path d="m248.0974,1648.1472c3.8716-.5211 6.0259-2.2271 5.4747-5.1149-.6781,2.427-3.8883,3.6695-6.969,4.2225" fill="#fff"/>
<path d="m247.9308,1652.154c3.3985-.4574 5.2365-2.3377 4.4334-4.7946-.2371,2.3187-3.0409,3.5258-5.7451,4.0112" fill="#fff"/>
<path d="m249.3348,1655.1378c2.2208-.9649 3.9086-2.3604 3.092-3.9894-.4749,1.4819-1.963,2.4856-3.8669,2.9355" fill="#fff"/>
<path d="m250.0771,1658.1891c2.3196-.6946 3.9606-2.2206 2.9204-3.8635 .0412,1.5586-2.0894,2.8247-3.9217,3.4621" fill="#fff"/>
<path d="m249.2119,1660.8744c2.3562.5579 4.3479-.1972 4.0082-2.5735-.3482,1.5188-2.7692,2.0893-4.6747,1.7252" fill="#fff"/>
<path d="m252.774,1648.4253c0,1.4597-3.5651,2.643-7.9628,2.643s-7.9628-1.1833-7.9628-2.643 3.5651-2.643 7.9628-2.643 7.9628,1.1833 7.9628,2.643z" fill="#fff" stroke="#000" stroke-width=".9183" transform="matrix(-1.16576,-.07701,0,1.01732,529.33351,-16.45314)"/>
<path d="m242.0312,1640.1875c-2.5173.016-5.1974.5654-5.75,2.125 1.3637.4316 3.1081,1.0029 4.6562,1.5 .3912-.7586 2.2995-.904 4.4375-1.1875-1.9299-.2393-4.6741-.2951-6,.5625-1.2245-2.118 1.8868-2.2978 5.5312-2.7813-.8247-.1512-1.8333-.2252-2.875-.2187z"/>
<path d="m233.2188,1657.875 3.5312,5.1875-4.2812-2.9687 1.0625,2.5937-1.75-1.125 .0312,3.2813h15.5625l-1.5-1.7188-.0625.9688-2.8125-2.3438 .3125,2-4.125-4.3438 1.0938,3.8126-7.0625-5.3438z" fill="#fff"/>
</g>
</svg>
