<svg viewBox="0 0 512 512" xmlns="http://www.w3.org/2000/svg">

<g transform="matrix(18.68858,0,0,18.68858,-12483.93055,-912.83912)">
<path d="m691.2259,50.4133c-1.5139-.2018-3.0825,1.084-3.5973,3.0053-.2851,1.0641-.2147,2.2594.1651,3.087-3.1959-.2427-4.563,3.9395-5.5276,7.5399l2.1099.5654-1.6511,9.8521 5.3609-.0137 2.7061-8.1191 2.0023.5365c.9673-3.6105 2.201-7.9251-.9843-9.3311 .7178-.53 1.3537-1.5215 1.6318-2.5593 .5491-2.0494-.3121-4.0529-1.9142-4.4823-.1001-.0268-.2005-.0673-.3014-.0808z" fill-rule="evenodd" stroke="#fff"/>
<path d="m671.3612,50.5807c-1.412.5823-2.1276,2.4802-1.6128,4.4015 .2851,1.0641.9436,2.0641 1.6864,2.5908-2.889,1.3879-1.9821,5.6934-1.0174,9.2938l2.1099-.5654 2.7706,8.1018 5.3609.0137-1.7157-9.8348 2.0023-.5365c-.9673-3.6105-2.0561-7.9639-5.5176-7.5887 .3567-.8179.4117-1.9946.1336-3.0324-.5491-2.0494-2.2966-3.3539-3.8987-2.9245-.1002.0268-.2073.042-.3014.0808z" fill-rule="evenodd" stroke="#fff"/>
<path d="m681.3278,49.3385c-1.6616.2161-2.9589,2.0242-2.9589,4.2064 1e-05,1.2086.414,2.2879 1.0515,3.057-3.4557.6504-3.717,6.4756-3.717,10.565h2.3965l.6358,8.5352h6.089l.5625-8.5352h2.2742c0-4.1009.0823-10.0285-3.6925-10.6139 .6102-.7655 1.0026-1.8293 1.0026-3.0081-2e-05-2.3277-1.4816-4.2064-3.3013-4.2064-.1138,0-.2316-.0144-.3424,0z" fill="#fff" fill-rule="evenodd" stroke="#000"/>
</g>
</svg>
