<svg viewBox="0 0 512 512" xmlns="http://www.w3.org/2000/svg">

<g transform="matrix(18.68858,0,0,18.68858,-12483.93055,-912.83912)">
<path d="m 691.226 50.4133 c -1.5139 -0.2018 -3.0825 1.084 -3.5973 3.0053 -0.2851 1.0641 -0.2147 2.2594 0.1651 3.087 -3.1959 -0.2427 -4.563 3.9395 -5.5276 7.5399 l 2.1099 0.5654 -1.6511 9.8521 5.3609 -0.0137 2.7061 -8.1191 2.0023 0.5365 c 0.9673 -3.6105 2.201 -7.9251 -0.9843 -9.3311 0.7178 -0.53 1.3537 -1.5215 1.6318 -2.5593 0.5491 -2.0494 -0.3121 -4.0529 -1.9142 -4.4823 -0.1001 -0.0268 -0.2005 -0.0673 -0.3014 -0.0808 z" fill-rule="evenodd" stroke="#fff"/>
<path d="m 671.361 50.5807 c -1.412 0.5823 -2.1276 2.4802 -1.6128 4.4015 0.2851 1.0641 0.9436 2.0641 1.6864 2.5908 -2.889 1.3879 -1.9821 5.6934 -1.0174 9.2938 l 2.1099 -0.5654 2.7706 8.1018 5.3609 0.0137 -1.7157 -9.8348 2.0023 -0.5365 c -0.9673 -3.6105 -2.0561 -7.9639 -5.5176 -7.5887 0.3567 -0.8179 0.4117 -1.9946 0.1336 -3.0324 -0.5491 -2.0494 -2.2966 -3.3539 -3.8987 -2.9245 -0.1002 0.0268 -0.2073 0.042 -0.3014 0.0808 z" fill-rule="evenodd" stroke="#fff"/>
<path d="m 681.328 49.3385 c -1.6616 0.2161 -2.9589 2.0242 -2.9589 4.2064 1e-05 1.2086 0.414 2.2879 1.0515 3.057 -3.4557 0.6504 -3.717 6.4756 -3.717 10.565 h 2.3965 l 0.6358 8.5352 h 6.089 l 0.5625 -8.5352 h 2.2742 c 0 -4.1009 0.0823 -10.0285 -3.6925 -10.6139 0.6102 -0.7655 1.0026 -1.8293 1.0026 -3.0081 -2e-05 -2.3277 -1.4816 -4.2064 -3.3013 -4.2064 -0.1138 0 -0.2316 -0.0144 -0.3424 0 z" fill="#fff" fill-rule="evenodd" stroke="#000"/>
</g>
</svg>
