<svg viewBox="0 0 512 512" xmlns="http://www.w3.org/2000/svg">

<g transform="matrix(16.68629,16.68629,-16.68629,16.68629,16768.11332,-15510.64342)">
<path d="m-12.179,965.9479c-7.4534-9.4709-15.0845-1.5358-19.6562-3.5123 .8021,2.9813 3.7725,4.1645 6.5774,3.4842 3.5458-.8599 8.0401,2.9283 11.335-.5458" fill="#fff" fill-rule="evenodd"/>
<path d="m-15.3136,964.587c2.2952.5912 4.3246,1.4568 6.2427,2.6259" fill="none" stroke="#fff" stroke-width=".792"/>
<path d="m-12.3505,965.3868c-.3604-1.6789-1.0974-2.9917-1.8866-4.2538l.1281,2.2844c-.8186-1.3064-1.7069-2.2429-2.5905-3.2045l1.2372,4.5907" fill="#fff" fill-rule="evenodd"/>
<path d="m-12.7966,964.5178c-.6518-1.6592-1.467-2.6853-2.6355-3.6206l.7149,2.1734c-1.1288-1.05-2.2292-1.7247-3.3317-2.4248l2.3832,4.1141" fill="#fff" fill-rule="evenodd"/>
</g>
<g transform="matrix(18.61873,3.90332,-3.90332,18.61873,4355.74206,-17491.77635)">
<path d="m-13.1165,964.6979c-8.4336-3.6819-14.7626-6.7634-19.4329-12.7087-2.2994,10.6683 11.841,16.142 18.8053,13.3849" fill="#fff" fill-rule="evenodd"/>
<path d="m-15.3136,964.587c2.2952.5912 4.3246,1.4568 6.2427,2.6259" fill="none" stroke="#fff" stroke-width=".9824"/>
<path d="m-12.367,965.4033c-.369-1.6703-1.1098-2.9793-1.902-4.2383l.1421,2.2703c-.8217-1.3032-1.7104-2.2394-2.5945-3.2005l1.2591,4.5688" fill="#fff" fill-rule="evenodd"/>
<path d="m-15.6103,963.5445c-.7887-1.5179-1.843-2.5906-2.9342-3.6016l.7249,2.1561c-1.131-1.0461-2.2317-1.7204-3.3345-2.4199l2.3987,4.0873" fill="#fff" fill-rule="evenodd"/>
</g>
</svg>
