<svg viewBox="0 0 512 512" xmlns="http://www.w3.org/2000/svg">

<g transform="matrix(18.68858,0,0,18.68858,-11807.63223,-22490.42218)">
<path d="m 635.623 1204.94 -2.4656 2.4655 c -2.7653 2.7655 -0.1313 9.8396 5.8525 15.8234 s 13.058 8.6176 15.8233 5.8525 l 2.4656 -2.4656 -21.6758 -21.6758 z" fill="#fff" stroke="#000"/>
<path d="m 125.07 371.418 c 0 1.7574 -2.3942 3.182 -5.3475 3.182 s -5.3475 -1.4246 -5.3475 -3.182 2.3941 -3.182 5.3475 -3.182 5.3475 1.4246 5.3475 3.182 z" fill="#fff" stroke="#000" stroke-width=".3958" transform="matrix(2.02716,2.02716,1.57438,-1.57438,-180.95412,1557.8045)"/>
<path d="m 125.07 371.418 c 0 1.7574 -2.3942 3.182 -5.3475 3.182 s -5.3475 -1.4246 -5.3475 -3.182 2.3941 -3.182 5.3475 -3.182 5.3475 1.4246 5.3475 3.182 z" transform="matrix(1.4788,1.4788,1.07352,-1.07352,70.76255,1437.3916)"/>
<path d="m 654.508 1224.48 c -0.5785 -3.0563 -2.8247 -6.9429 -6.3129 -10.4312 s -7.375 -5.7346 -10.4316 -6.3131" fill="none" stroke="#fff"/>
</g>
</svg>
