<svg viewBox="0 0 512 512" xmlns="http://www.w3.org/2000/svg">

<g transform="matrix(18.68858,0,0,18.68858,-6360.88025,-43551.10802)">
<path d="m 365.593 2344.6 c 0 5.7128 -4.6311 10.3439 -10.3439 10.3439 s -10.3439 -4.6311 -10.3439 -10.3439 4.6311 -10.344 10.3439 -10.344 10.3439 4.6312 10.3439 10.344 z" stroke="#fff" stroke-width="1.1692" transform="matrix(-.82615,.22137,.22137,.82615,128.64682,328.30842)"/>
<path d="m 354.705 2340.94 c -0.2576 5.1095 -4.3755 8.6606 -9.3542 8.3944 -6.0428 -0.3232 -10.4266 -5.9042 -10.0945 -11.7965 0.4011 -7.114 6.9787 -12.2693 13.9203 -11.8589 8.3394 0.493 14.3762 8.2117 13.8736 16.3542 -0.601 9.7359 -9.6213 16.7766 -19.1332 16.1659 -11.3224 -0.7269 -19.5026 -11.2273 -18.7659 -22.2955 0.8732 -13.1189 13.051 -22.5886 25.8824 -21.7058 15.1471 1.0423 26.0718 15.1154 25.0201 29.9385 -0.1974 2.782 -0.7905 5.5335 -1.7475 8.1528" fill="none" stroke="#fff" stroke-width="3.47" transform="matrix(-.27885,.07472,.07446,.27788,276.9818,1668.41883)"/>
<path d="m 355.034 2345.27 c 0 0.8778 -0.7116 1.5893 -1.5893 1.5893 s -1.5893 -0.7115 -1.5893 -1.5893 0.7116 -1.5893 1.5893 -1.5893 1.5893 0.7116 1.5893 1.5893 z" stroke="#fff" stroke-width=".8994" transform="matrix(-1.074,.28778,.28778,1.074,58.7327,-275.65308)"/>
<path d="m 357.496 2356.56 -1.8217 -1.695 1.0428 -0.936 1.4789 0.3507 z" fill="#fff"/>
<path d="m 350.772 2331.41 1.8217 1.695 -1.0428 0.936 -1.4789 -0.3507 z" fill="#fff"/>
<path d="m 350.758 2356.56 -0.7302 -2.3787 1.3711 -0.2892 1.1055 1.0432 z" fill="#fff"/>
<path d="m 357.51 2331.41 0.7302 2.3787 -1.3711 0.2892 -1.1055 -1.0432 z" fill="#fff"/>
<path d="m 344.925 2353.19 0.557 -2.425 1.3319 0.4355 0.4358 1.4562 z" fill="#fff"/>
<path d="m 363.343 2334.79 -0.557 2.425 -1.3321 -0.4345 -0.4358 -1.4562 z" fill="#fff"/>
<path d="m 341.559 2347.35 1.6949 -1.8216 0.9357 1.0431 -0.3507 1.4789 z" fill="#fff"/>
<path d="m 366.709 2340.62 -1.6949 1.8216 -0.9364 -1.0423 0.3507 -1.479 z" fill="#fff"/>
<path d="m 341.562 2340.61 2.3786 -0.73 0.2888 1.3711 -1.0432 1.1055 z" fill="#fff"/>
<path d="m 366.706 2347.36 -2.3786 0.73 -0.2898 -1.3708 1.0432 -1.1054 z" fill="#fff"/>
<path d="m 344.935 2334.78 2.4251 0.5566 -0.4354 1.3318 -1.4562 0.4358 z" fill="#fff"/>
<path d="m 363.334 2353.2 -2.4251 -0.5566 0.4344 -1.3321 1.4562 -0.4357 z" fill="#fff"/>
</g>
</svg>
