<svg viewBox="0 0 512 512" xmlns="http://www.w3.org/2000/svg">

<g transform="matrix(18.68858,0,0,18.68858,-6360.88025,-43551.10802)">
<path d="m365.5932,2344.5989c0,5.7128-4.6311,10.3439-10.3439,10.3439s-10.3439-4.6311-10.3439-10.3439 4.6311-10.344 10.3439-10.344 10.3439,4.6312 10.3439,10.344z" stroke="#fff" stroke-width="1.1692" transform="matrix(-.82615,.22137,.22137,.82615,128.64682,328.30842)"/>
<path d="m354.7048,2340.9371c-.2576,5.1095-4.3755,8.6606-9.3542,8.3944-6.0428-.3232-10.4266-5.9042-10.0945-11.7965 .4011-7.114 6.9787-12.2693 13.9203-11.8589 8.3394.493 14.3762,8.2117 13.8736,16.3542-.601,9.7359-9.6213,16.7766-19.1332,16.1659-11.3224-.7269-19.5026-11.2273-18.7659-22.2955 .8732-13.1189 13.051-22.5886 25.8824-21.7058 15.1471,1.0423 26.0718,15.1154 25.0201,29.9385-.1974,2.782-.7905,5.5335-1.7475,8.1528" fill="none" stroke="#fff" stroke-width="3.47" transform="matrix(-.27885,.07472,.07446,.27788,276.9818,1668.41883)"/>
<path d="m355.0338,2345.2722c0,.8778-.7116,1.5893-1.5893,1.5893s-1.5893-.7115-1.5893-1.5893 .7116-1.5893 1.5893-1.5893 1.5893.7116 1.5893,1.5893z" stroke="#fff" stroke-width=".8994" transform="matrix(-1.074,.28778,.28778,1.074,58.7327,-275.65308)"/>
<path d="m357.4962,2356.5612-1.8217-1.695 1.0428-.936 1.4789.3507z" fill="#fff"/>
<path d="m350.7715,2331.4106 1.8217,1.695-1.0428.936-1.4789-.3507z" fill="#fff"/>
<path d="m350.758,2356.5575-.7302-2.3787 1.3711-.2892 1.1055,1.0432z" fill="#fff"/>
<path d="m357.5096,2331.4143 .7302,2.3787-1.3711.2892-1.1055-1.0432z" fill="#fff"/>
<path d="m344.9245,2353.1853 .557-2.425 1.3319.4355 .4358,1.4562z" fill="#fff"/>
<path d="m363.3431,2334.7865-.557,2.425-1.3321-.4345-.4358-1.4562z" fill="#fff"/>
<path d="m341.5587,2347.3482 1.6949-1.8216 .9357,1.0431-.3507,1.4789z" fill="#fff"/>
<path d="m366.7091,2340.6236-1.6949,1.8216-.9364-1.0423 .3507-1.479z" fill="#fff"/>
<path d="m341.5625,2340.6101 2.3786-.73 .2888,1.3711-1.0432,1.1055z" fill="#fff"/>
<path d="m366.7056,2347.3617-2.3786.73-.2898-1.3708 1.0432-1.1054z" fill="#fff"/>
<path d="m344.9346,2334.7766 2.4251.5566-.4354,1.3318-1.4562.4358z" fill="#fff"/>
<path d="m363.3335,2353.1952-2.4251-.5566 .4344-1.3321 1.4562-.4357z" fill="#fff"/>
</g>
</svg>
