<svg viewBox="0 0 512 512" xmlns="http://www.w3.org/2000/svg">

<path d="m 248.059 271.807 c -14.2047 66.919 -35.4621 143.259 -85.9245 129.162 -41.0336 -11.4628 -14.9195 -104.318 15.4983 -161.828" fill="#fff" stroke="#000" stroke-linecap="round" stroke-width="19"/>
<path d="m 338.672 202.068 c 31.6443 60.6512 63.8467 133.058 15.9558 154.309 -38.9425 17.2808 -77.9128 -70.9542 -91.064 -134.67" fill="#fff" stroke="#000" stroke-linecap="round" stroke-width="19"/>
<path d="m 15.2298 16.0499 h 482.313 c 2.0262 169.463 -112.206 290.955 -237.494 291.892 -126.845 0.948 -246.075 -112.25 -244.819 -291.892 z" fill="#fff" stroke="#000" stroke-width="19"/>
<path d="m 108.26 205.384 c -46.2206 50.434 -96.0131 112.081 -55.2262 144.969 31.6276 25.5023 88.035 -41.6952 118.474 -98.4255 14.7779 2.4119 64.4471 4.8819 69.8785 -16.8698" fill="#fff" stroke="#000" stroke-linecap="round" stroke-linejoin="round" stroke-width="19"/>
<path d="m 55.2262 346.486 20.7098 -28.3802" fill="none" stroke="#000" stroke-linecap="round" stroke-width="19"/>
<path d="m 408.784 207.963 c 46.2206 50.434 92.945 118.217 52.1581 151.105 -33.1659 26.7427 -114.291 -44.6162 -143.435 -102.782" fill="#fff" stroke="#000" stroke-linecap="round" stroke-width="19"/>
<path d="m 458.75 355.201 -16.1077 -19.1758" fill="none" stroke="#000" stroke-linecap="round" stroke-width="19"/>
</svg>
