<svg viewBox="0 0 512 512" xmlns="http://www.w3.org/2000/svg">

<path d="m248.0589,271.8065c-14.2047,66.919-35.4621,143.259-85.9245,129.1623-41.0336-11.4628-14.9195-104.3183 15.4983-161.8285" fill="#fff" stroke="#000" stroke-linecap="round" stroke-width="19"/>
<path d="m338.6721,202.0677c31.6443,60.6512 63.8467,133.0575 15.9558,154.3092-38.9425,17.2808-77.9128-70.9542-91.064-134.6701" fill="#fff" stroke="#000" stroke-linecap="round" stroke-width="19"/>
<path d="m15.2298,16.0499h482.3132c2.0262,169.4633-112.2061,290.9553-237.4942,291.8917-126.8449.948-246.0745-112.2498-244.8189-291.8917z" fill="#fff" stroke="#000" stroke-width="19"/>
<path d="m108.2604,205.3843c-46.2206,50.434-96.0131,112.0812-55.2262,144.9689 31.6276,25.5023 88.035-41.6952 118.4736-98.4255 14.7779,2.4119 64.4471,4.8819 69.8785-16.8698" fill="#fff" stroke="#000" stroke-linecap="round" stroke-linejoin="round" stroke-width="19"/>
<path d="m55.2262,346.4861 20.7098-28.3802" fill="none" stroke="#000" stroke-linecap="round" stroke-width="19"/>
<path d="m408.7835,207.9634c46.2206,50.434 92.945,118.2174 52.1581,151.1051-33.1659,26.7427-114.2907-44.6162-143.4348-102.7822" fill="#fff" stroke="#000" stroke-linecap="round" stroke-width="19"/>
<path d="m458.7495,355.2014-16.1077-19.1758" fill="none" stroke="#000" stroke-linecap="round" stroke-width="19"/>
</svg>
