<svg viewBox="0 0 512 512" xmlns="http://www.w3.org/2000/svg">

<g transform="matrix(18.68858,0,0,18.68858,-10447.96782,-46287.83433)">
<path d="m559.5358,2477.3411h26.4314v26.4314h-26.4314z" fill="none" stroke="#000"/>
<g transform="matrix(.86603,.5,-.5,.86603,1321.3467,48.01773)">
<path d="m563.37,2491.337c2.1073-2.1086 2.1052-5.5294-.004-7.6404" fill="none" stroke="#fff"/>
<path d="m565.4435,2493.3395c3.2119-3.2139 3.2088-8.4279-.007-11.6454" fill="none" stroke="#fff"/>
<path d="m567.7242,2495.0917c4.1785-4.1809 4.1744-10.9641-.009-15.1498" fill="none" stroke="#fff"/>
<path d="m561.4004,2489.835c1.2788-1.2796 1.2776-3.3554-.003-4.6364" fill="none" stroke="#fff"/>
<path d="m570.2016,2497.1244c5.2873-5.288 5.2858-13.8629-.003-19.1523" fill="none" stroke="#fff"/>
<path d="m573.1935,2499.5273c6.6291-6.6296 6.6275-17.3799-.003-24.0107" fill="none" stroke="#fff"/>
<path d="m576.2008,2501.8713c7.9923-7.995 7.9878-20.9618-.009-28.9614" fill="none" stroke="#fff"/>
<path d="m562.9486,2481.3728c0,.8594-.6967,1.5562-1.5561,1.5562s-1.5562-.6968-1.5562-1.5562 .6967-1.5561 1.5562-1.5561 1.5561.6967 1.5561,1.5561z" fill="#fff" stroke="#000" stroke-width=".7475" transform="matrix(1.1586,-.66892,.66892,1.1586,-1751.3628,-11.87964)"/>
</g>
<path d="m575.2236,2485.0702c-.5104,1.448-.8101,3.0629-.8101,4.557 0,3.2172 1.4101,4.9349 3.3418,5.5359 .8611,1.9698.7956,4.1279-.1688,6.0761-1.0257.4528-1.8623,1.2934-2.1941,2.5316h8.1352c-.3369-1.2573-1.2003-2.1183-2.2279-2.5654-.9487-1.9408-.9937-4.0829-.135-6.0423 1.9414-.592 3.3418-2.3014 3.3418-5.5359 0-1.4941-.3335-3.1091-.8439-4.557h-8.439z" fill="#fff" stroke="#000"/>
<path d="m579.5372,2484.9199-1.168,3.3519 1.7267,1.0156-1.2188,3.5548 3.0471-3.9611-1.879-1.2189 1.5743-2.7424"/>
</g>
</svg>
