<svg viewBox="0 0 512 512" xmlns="http://www.w3.org/2000/svg">

<g transform="matrix(18.68858,0,0,18.68858,-5675.07222,-19083.59153)">
<path d="m 317.541 1022.37 v 21.0821 c 0 4.6652 -5.2692 4.2835 -5.2692 0" fill="none" stroke="#fff"/>
<path d="m 317.488 1022.38 c -6.8939 0 -12.5497 5.0107 -13.1335 11.4015 h 26.2168 c -0.5841 -6.3905 -6.1898 -11.4016 -13.0834 -11.4015 z" fill="#fff" stroke="#000"/>
<path d="m 317.634 1022.38 c -4.7214 0 -8.5949 5.0107 -8.9947 11.4015 h 17.955 c -0.4 -6.3905 -4.2392 -11.4016 -8.9603 -11.4015 z" fill="none" stroke="#000"/>
<path d="m 317.547 1022.38 c -1.9052 0 -3.4682 5.0107 -3.6295 11.4015 h 7.2452 c -0.1614 -6.3905 -1.7106 -11.4016 -3.6157 -11.4015 z" fill="none" stroke="#000"/>
</g>
</svg>
