<svg viewBox="0 0 512 512" xmlns="http://www.w3.org/2000/svg">

<g transform="matrix(18.68858,0,0,18.68858,5159.56424,-14269.49557)">
<path d="m-262.2867,764.5809c-6.8457,0-12.4022,5.5565-12.4022,12.4022 0,2.9822 1.0554,5.7132 2.8117,7.8505l-1.1136,1.9348h7.085l-3.5494-6.1384-1.1971,2.0879c-1.1182-1.6309-1.7678-3.6098-1.7678-5.7348 0-5.5928 4.5405-10.1333 10.1333-10.1333s10.1333,4.5405 10.1333,10.1333c0,2.0927-.6248,4.0487-1.7121,5.6652l-1.1692-2.0183-3.5495,6.1384h7.085l-1.1553-2.0044c1.7243-2.1287 2.77-4.8298 2.77-7.7809 0-6.8457-5.5565-12.4022-12.4022-12.4022z" fill="#fff"/>
<path d="m-262.068,768.625c-2.6919-.1061-6.1345,1.4278-7.125,5.6094l3.25.7656c1.4429-4.0796 4.8617-3.7892 6.0625-1.5312 1.4326,2.6939-4.7977,5.7396-4.5,10.1875h4.1562c.3473-5.2516 6.3665-6.6071 3.1875-12.2812-.9601-1.7136-2.9376-2.6675-5.0312-2.75z" fill="#fff" fill-rule="evenodd"/>
<path d="m142.7812,788.9403c0,1.7-1.3781,3.0781-3.0781,3.0781s-3.0781-1.3781-3.0781-3.0781 1.3781-3.0781 3.0781-3.0781 3.0781,1.3781 3.0781,3.0781z" fill="#fff" stroke="#000" stroke-width=".9929" transform="matrix(1.00718,0,0,1.00718,-402.95567,-7.27669)"/>
</g>
</svg>
