<svg viewBox="0 0 512 512" xmlns="http://www.w3.org/2000/svg">

<g transform="matrix(18.68858,0,0,18.68858,5159.56424,-14269.49557)">
<path d="m -262.287 764.581 c -6.8457 0 -12.4022 5.5565 -12.4022 12.4022 0 2.9822 1.0554 5.7132 2.8117 7.8505 l -1.1136 1.9348 h 7.085 l -3.5494 -6.1384 -1.1971 2.0879 c -1.1182 -1.6309 -1.7678 -3.6098 -1.7678 -5.7348 0 -5.5928 4.5405 -10.1333 10.1333 -10.1333 s 10.1333 4.5405 10.1333 10.1333 c 0 2.0927 -0.6248 4.0487 -1.7121 5.6652 l -1.1692 -2.0183 -3.5495 6.1384 h 7.085 l -1.1553 -2.0044 c 1.7243 -2.1287 2.77 -4.8298 2.77 -7.7809 0 -6.8457 -5.5565 -12.4022 -12.4022 -12.4022 z" fill="#fff"/>
<path d="m -262.068 768.625 c -2.6919 -0.1061 -6.1345 1.4278 -7.125 5.6094 l 3.25 0.7656 c 1.4429 -4.0796 4.8617 -3.7892 6.0625 -1.5312 1.4326 2.6939 -4.7977 5.7396 -4.5 10.1875 h 4.1562 c 0.3473 -5.2516 6.3665 -6.6071 3.1875 -12.2812 -0.9601 -1.7136 -2.9376 -2.6675 -5.0312 -2.75 z" fill="#fff" fill-rule="evenodd"/>
<path d="m 142.781 788.94 c 0 1.7 -1.3781 3.0781 -3.0781 3.0781 s -3.0781 -1.3781 -3.0781 -3.0781 1.3781 -3.0781 3.0781 -3.0781 3.0781 1.3781 3.0781 3.0781 z" fill="#fff" stroke="#000" stroke-width=".9929" transform="matrix(1.00718,0,0,1.00718,-402.95567,-7.27669)"/>
</g>
</svg>
