<svg viewBox="0 0 512 512" xmlns="http://www.w3.org/2000/svg">

<g transform="matrix(18.68858,0,0,18.68858,-3632.67708,-34719.25431)">
<path d="m195.6647,1859.9383c6.5609-2.7941 17.0703-.02 17.0703,6.016 1e-05,2.7097-2.8508,3.2531-3.3713,5.1645-.6959,2.5554.8173,4.0539 5.2645,3.4279 9.0215-1.2699 7.6502,11.072-1.8212,9.2752-4.4023-.8351-11.2867-5.6608-12.1958-11.0016-.6161-3.6199 6.2893-5.022 5.7998-7.7235-.6688-3.6916-5.0555-6.0317-10.7464-5.1585z" fill="#fff"/>
<path d="m201.3194,1874.734c-1.2896-2.763-1.1965-5.526-.7828-8.289 .5234,2.2412.7853,4.4822 2.7169,6.7233" fill="#fff"/>
<path d="m200.7946,1871.7926c.0563-1.8967 1.1172-3.2964 2.4107-4.581-.4254,1.3506-1.0407,2.6073-.443,4.464" fill="#fff"/>
<path d="m210.885,1869.0475c2.0554-1.4381 3.1255-3.4451 3.9674-5.5838-1.2948,1.3815-2.4032,2.8705-4.7014,3.6727" fill="#fff"/>
<path d="m213.1829,1866.5079c.9807-2.6095.5436-5.0193-.2217-7.3827-.2595,2.0412-.2512,4.0444-1.9543,6.2889" fill="#fff"/>
<path d="m215.3796,1883.9384c-3.7441.4365-7.0419-.2259-10.2362-1.143 2.8683.061 5.652.3304 8.9748-.7273" fill="#fff"/>
<path d="m211.1709,1883.6407c-2.7452-.2837-4.8922-1.5447-6.9005-3.0323 2.0007.5992 3.888,1.3838 6.4977.9881" fill="#fff"/>
<path d="m212.8094,1864.1063c-.1769-1.5726-1.154-2.7875-2.3165-3.919 .4461,1.1401 1.0432,2.2128.6741,3.7176" fill="#fff"/>
<path d="m214.1201,1876.5577c-1.9375-.7727-4.6486-2.9466-3.6176-4.6218-.1652,1.5552 2.6649,2.2618 4.7574,2.3909" fill="#fff"/>
<path d="m220.0222,1882.4359-.6916-1.9006-3.2998,1.4524 .2884-1.8757-3.8083,1.4953 .9624-2.2307c-1.7487.4939-4.9001.6766-6.9164-1.7547" fill="none" stroke="#000"/>
<path d="m206.1747,1877.3771c1.6953,1.1836 3.8125,1.4074 5.7512,1.2605" fill="none" stroke="#fff"/>
<path d="m217.8114,1878.4475-3.0495-2.3258 .4212,2.1406z"/>
<path d="m219.08,1878.3974 1.1987-2.0207 1.3894,1.6658z"/>
<path d="m219.2672,1875.5646c-1.8807-1.5793-4.0496-2.0828-6.2853-2.3369l3.3761,3.212" fill="#fff"/>
</g>
</svg>
