<svg viewBox="0 0 512 512" xmlns="http://www.w3.org/2000/svg">

<g transform="matrix(18.68858,0,0,18.68858,-3632.67708,-34719.25431)">
<path d="m 195.665 1859.94 c 6.5609 -2.7941 17.0703 -0.02 17.0703 6.016 1e-05 2.7097 -2.8508 3.2531 -3.3713 5.1645 -0.6959 2.5554 0.8173 4.0539 5.2645 3.4279 9.0215 -1.2699 7.6502 11.072 -1.8212 9.2752 -4.4023 -0.8351 -11.2867 -5.6608 -12.1958 -11.0016 -0.6161 -3.6199 6.2893 -5.022 5.7998 -7.7235 -0.6688 -3.6916 -5.0555 -6.0317 -10.7464 -5.1585 z" fill="#fff"/>
<path d="m 201.319 1874.73 c -1.2896 -2.763 -1.1965 -5.526 -0.7828 -8.289 0.5234 2.2412 0.7853 4.4822 2.7169 6.7233" fill="#fff"/>
<path d="m 200.795 1871.79 c 0.0563 -1.8967 1.1172 -3.2964 2.4107 -4.581 -0.4254 1.3506 -1.0407 2.6073 -0.443 4.464" fill="#fff"/>
<path d="m 210.885 1869.05 c 2.0554 -1.4381 3.1255 -3.4451 3.9674 -5.5838 -1.2948 1.3815 -2.4032 2.8705 -4.7014 3.6727" fill="#fff"/>
<path d="m 213.183 1866.51 c 0.9807 -2.6095 0.5436 -5.0193 -0.2217 -7.3827 -0.2595 2.0412 -0.2512 4.0444 -1.9543 6.2889" fill="#fff"/>
<path d="m 215.38 1883.94 c -3.7441 0.4365 -7.0419 -0.2259 -10.2362 -1.143 2.8683 0.061 5.652 0.3304 8.9748 -0.7273" fill="#fff"/>
<path d="m 211.171 1883.64 c -2.7452 -0.2837 -4.8922 -1.5447 -6.9005 -3.0323 2.0007 0.5992 3.888 1.3838 6.4977 0.9881" fill="#fff"/>
<path d="m 212.809 1864.11 c -0.1769 -1.5726 -1.154 -2.7875 -2.3165 -3.919 0.4461 1.1401 1.0432 2.2128 0.6741 3.7176" fill="#fff"/>
<path d="m 214.12 1876.56 c -1.9375 -0.7727 -4.6486 -2.9466 -3.6176 -4.6218 -0.1652 1.5552 2.6649 2.2618 4.7574 2.3909" fill="#fff"/>
<path d="m 220.022 1882.44 -0.6916 -1.9006 -3.2998 1.4524 0.2884 -1.8757 -3.8083 1.4953 0.9624 -2.2307 c -1.7487 0.4939 -4.9001 0.6766 -6.9164 -1.7547" fill="none" stroke="#000"/>
<path d="m 206.175 1877.38 c 1.6953 1.1836 3.8125 1.4074 5.7512 1.2605" fill="none" stroke="#fff"/>
<path d="m 217.811 1878.45 -3.0495 -2.3258 0.4212 2.1406 z"/>
<path d="m 219.08 1878.4 1.1987 -2.0207 1.3894 1.6658 z"/>
<path d="m 219.267 1875.56 c -1.8807 -1.5793 -4.0496 -2.0828 -6.2853 -2.3369 l 3.3761 3.212" fill="#fff"/>
</g>
</svg>
