<svg viewBox="0 0 512 512" xmlns="http://www.w3.org/2000/svg">

<g transform="matrix(18.68858,0,0,18.68858,-2272.13538,-32680.12279)">
<g transform="matrix(1.41718,0,0,1.41718,-780.85505,-57.49741)">
<path d="m641.7266,1283.5595v2c0,.9757.7742,1.7812 1.75,1.7812h5.9688c.9758,0 1.7812-.8054 1.7812-1.7812v-2" stroke="#fff" stroke-width=".7056"/>
<path d="m646.4766,1283.5548v7.7885" fill="none" stroke="#fff" stroke-width=".7056"/>
<path d="m648.4211,1293.113h-3.8891c0-2.6565 3.8891-2.6649 3.8891,0z" fill="#fff"/>
<path d="m642.9106,1282.8613h-2.3056c0,1.5749 2.3056,1.5799 2.3056,0z" fill="#fff"/>
<path d="m652.395,1282.8613h-2.3056c0,1.5749 2.3056,1.5799 2.3056,0z" fill="#fff"/>
<path d="m647.5981,1282.8613h-2.3056c0,1.5749 2.3056,1.5799 2.3056,0z" fill="#fff"/>
</g>
<path d="m126.8075,1751.0961h3.3209v8.8953h-3.3209z" fill="#fff" stroke="#000"/>
<path d="m133.5679,1751.0961h3.3209v8.8953h-3.3209z" fill="#fff" stroke="#000"/>
<path d="m140.3875,1751.0961h3.3209v8.8953h-3.3209z" fill="#fff" stroke="#000"/>
<path d="m127.7859,1752.5192 .8599-2.9059 .3261,2.9948" fill="#fff"/>
<path d="m134.8421,1752.6247 .0785-3.0294 1.0901,2.8083" fill="#fff"/>
<path d="m141.4839,1752.6247 .6715-3.0294 .5404,2.8083" fill="#fff"/>
</g>
</svg>
