<svg viewBox="0 0 512 512" xmlns="http://www.w3.org/2000/svg">

<g transform="matrix(18.68858,0,0,18.68858,-2272.13538,-32680.12279)">
<g transform="matrix(1.41718,0,0,1.41718,-780.85505,-57.49741)">
<path d="m 641.727 1283.56 v 2 c 0 0.9757 0.7742 1.7812 1.75 1.7812 h 5.9688 c 0.9758 0 1.7812 -0.8054 1.7812 -1.7812 v -2" stroke="#fff" stroke-width=".7056"/>
<path d="m 646.477 1283.55 v 7.7885" fill="none" stroke="#fff" stroke-width=".7056"/>
<path d="m 648.421 1293.11 h -3.8891 c 0 -2.6565 3.8891 -2.6649 3.8891 0 z" fill="#fff"/>
<path d="m 642.911 1282.86 h -2.3056 c 0 1.5749 2.3056 1.5799 2.3056 0 z" fill="#fff"/>
<path d="m 652.395 1282.86 h -2.3056 c 0 1.5749 2.3056 1.5799 2.3056 0 z" fill="#fff"/>
<path d="m 647.598 1282.86 h -2.3056 c 0 1.5749 2.3056 1.5799 2.3056 0 z" fill="#fff"/>
</g>
<path d="m 126.808 1751.1 h 3.3209 v 8.8953 h -3.3209 z" fill="#fff" stroke="#000"/>
<path d="m 133.568 1751.1 h 3.3209 v 8.8953 h -3.3209 z" fill="#fff" stroke="#000"/>
<path d="m 140.387 1751.1 h 3.3209 v 8.8953 h -3.3209 z" fill="#fff" stroke="#000"/>
<path d="m 127.786 1752.52 0.8599 -2.9059 0.3261 2.9948" fill="#fff"/>
<path d="m 134.842 1752.62 0.0785 -3.0294 1.0901 2.8083" fill="#fff"/>
<path d="m 141.484 1752.62 0.6715 -3.0294 0.5404 2.8083" fill="#fff"/>
</g>
</svg>
