<svg viewBox="0 0 512 512" xmlns="http://www.w3.org/2000/svg">

<g transform="matrix(18.68858,0,0,18.68858,-908.07648,-36763.85598)">
<g transform="matrix(1.1273,0,0,1.1273,-293.59824,-209.34518)">
<path d="m314.1113,1950.6961c-2.0848-4.9508-6.046-6.938-10.0673-8.0798l.1523-11.0908 7.7885-.01c3.9489,1.8461 8.1454,4.8926 12.6424,10.9889" fill="#fff"/>
<path d="m54.375,1968.0625-4.875.125v.4375c6.1043,1.688 12.2848,3.9943 16.8438,8.0312-3.0066-3.6895-6.9149-6.2216-11.9688-8.5937z" transform="matrix(.88708,0,0,.88708,260.44477,185.70567)"/>
<path d="m304.1428,1936.4288c3.1124,1.2025 8.2538,4.7398 9.5243,7.0543-2.5674-2.5799-6.1203-3.9849-9.5453-5.0031"/>
<path d="m317.29,1931.3678h-13.1445v19.9583" fill="none" stroke="#000" stroke-width=".8871"/>
</g>
<path d="m74.27,1986.3138c0,3.6998-2.9993,6.6991-6.699,6.6991s-6.699-2.9993-6.699-6.6991 2.9993-6.699 6.699-6.699 6.699,2.9993 6.699,6.699z" stroke="#fff" stroke-width=".9301" transform="matrix(1.07514,0,0,1.07514,-5.34865,-149.4542)"/>
<path d="m60.4847,1983.4548 2.875,2.9024 .5202-1.9989 2.3274,2.9298 2.5191-.9036-.0274-2.2178 2.1357,2.3-5.0107,3.1214-1.4238-1.8072-1.2595,1.643-3.45-3.012" fill="#fff"/>
<path d="m69.7782,1979.1888-.2323,3.0979-2.6719.1939 .4647,3.2527-3.2914-4.2595 2.7493-.697-.4259-2.2459" fill="#fff"/>
<path d="m73.354,1989.16-1.793-.8067-4.427,3.1329 3.5665-1.3507 1.664.8926" fill="#fff"/>
<path d="m74.2313,1986.9334-3.6399-3.0979 2.6331.8132 .5034-1.7812" fill="#fff"/>
<path d="m56.6788,1987.3156c0,.9678-.7846,1.7523-1.7524,1.7523s-1.7524-.7845-1.7524-1.7523 .7846-1.7524 1.7524-1.7524 1.7524.7845 1.7524,1.7524z" fill="#fff" transform="matrix(.5625,0,0,.5625,42.69316,860.6627)"/>
<path d="m56.6788,1987.3156c0,.9678-.7846,1.7523-1.7524,1.7523s-1.7524-.7845-1.7524-1.7523 .7846-1.7524 1.7524-1.7524 1.7524.7845 1.7524,1.7524z" fill="#fff" transform="matrix(.95312,0,0,.95312,17.30876,83.14092)"/>
<path d="m56.6788,1987.3156c0,.9678-.7846,1.7523-1.7524,1.7523s-1.7524-.7845-1.7524-1.7523 .7846-1.7524 1.7524-1.7524 1.7524.7845 1.7524,1.7524z" fill="#fff" transform="matrix(.64062,0,0,.64062,33.19883,698.83691)"/>
</g>
</svg>
