<svg xmlns="http://www.w3.org/2000/svg" viewBox="0 0 512 512">
<g transform="matrix(15 0 0 15 -3224 -4364)">
<use width="744.094" height="1052.362" transform="translate(252 288)"/>
<g fill="#fff">
<path d="m 232 292 c -8.8366 0 -16 7.1635 -16 16 0 8.8365 7.1634 16 16 16 8.8365 0 16 -7.1635 16 -16 0 -8.8365 -7.1635 -16 -16 -16 z m 0 4 c 6.6274 0 12 5.3726 12 12 0 6.6274 -5.3726 12 -12 12 -6.6274 0 -12 -5.3726 -12 -12 0 -6.6274 5.3726 -12 12 -12 z"/>
<path d="m 240 303 c 0 0 -1.3495 2.844 -1.7147 4.2996 -0.4776 1.904 0.1955 2.9329 -0.4987 4.779 -0.3 0.5414 0.6453 1.389 0.6238 1.8825 -0.0182 0.4164 -1.6503 1.3023 -2.0092 1.4811 -0.3589 0.1788 -2.4883 0.9739 -3.0989 0.9767 -0.6456 0.003 -0.6179 -1.4178 -1.7127 -1.4189 -1.6044 -0.002 -5.7903 -1.2254 -5.7903 -1.2254 -0.6337 -0.1629 -1.7993 -0.0668 -1.7993 -0.7746 0 -0.7077 0.8292 -1.2246 1.5656 -1.2262 l 2.901 0.2547 c 0.7047 -0.0442 1.4429 -0.457 1.4654 -1.3787 -0.0118 -1.3642 -0.1467 -2.4119 -0.8392 -3.52 l -2.6891 -4.1954 c -0.1606 -0.334 -0.1987 -0.9035 0.2662 -1.1578 0.4649 -0.2543 0.9931 0.1236 1.1735 0.4527 l 3.0036 4.0857 c 0.3207 0.2984 0.8913 0.3559 0.8426 -0.2794 l -1.3263 -6.0805 c -0.0826 -0.432 0.1367 -0.9552 0.6367 -0.9552 0.6562 0 1.0599 0.2505 1.0471 0.6472 l 1.4584 5.9994 c 0.114 0.2921 0.5182 0.253 0.6269 -0.0165 l 0.4154 -5.8341 c 0.0213 -0.1861 0.2641 -0.5104 0.73 -0.4429 0.4659 0.0676 0.7346 0.5667 0.6852 0.7598 l -0.1348 5.7645 c 0.0946 0.5109 0.4962 0.5855 0.8088 0.3003 l 2.0407 -3.6496 c 0.124 -0.3062 0.6096 -0.3699 0.8905 -0.2486 0.2613 0.1703 0.4318 0.3987 0.4318 0.7201 z"/>
</g>
</g>
</svg>
