<svg xmlns="http://www.w3.org/2000/svg" viewBox="0 0 512 512">
<g transform="matrix(15 0 0 15 -3224 -4364)">
<use width="744.094" height="1052.362" transform="translate(252 288)"/>
<g fill="#fff">
<path d="m232,292c-8.8366,0-16,7.1635-16,16 0,8.8365 7.1634,16 16,16 8.8365,0 16-7.1635 16-16 0-8.8365-7.1635-16-16-16zm0,4c6.6274,0 12,5.3726 12,12 0,6.6274-5.3726,12-12,12-6.6274,0-12-5.3726-12-12 0-6.6274 5.3726-12 12-12z"/>
<path d="m240,302.9999c0,0-1.3495,2.844-1.7147,4.2996-.4776,1.904 .1955,2.9329-.4987,4.779-.3,.5414 .6453,1.389 .6238,1.8825-.0182,.4164-1.6503,1.3023-2.0092,1.4811-.3589,.1788-2.4883,.9739-3.0989,.9767-.6456,.003-.6179-1.4178-1.7127-1.4189-1.6044-.002-5.7903-1.2254-5.7903-1.2254-.6337-.1629-1.7993-.0668-1.7993-.7746 0-.7077 .8292-1.2246 1.5656-1.2262l2.901,.2547c.7047-.0442 1.4429-.457 1.4654-1.3787-.0118-1.3642-.1467-2.4119-.8392-3.52l-2.6891-4.1954c-.1606-.334-.1987-.9035 .2662-1.1578 .4649-.2543 .9931,.1236 1.1735,.4527l3.0036,4.0857c.3207,.2984 .8913,.3559 .8426-.2794l-1.3263-6.0805c-.0826-.432 .1367-.9552 .6367-.9552 .6562,0 1.0599,.2505 1.0471,.6472l1.4584,5.9994c.114,.2921 .5182,.253 .6269-.0165l.4154-5.8341c.0213-.1861 .2641-.5104 .73-.4429 .4659,.0676 .7346,.5667 .6852,.7598l-.1348,5.7645c.0946,.5109 .4962,.5855 .8088,.3003l2.0407-3.6496c.124-.3062 .6096-.3699 .8905-.2486 .2613,.1703 .4318,.3987 .4318,.7201z"/>
</g>
</g>
</svg>
