<svg viewBox="0 0 512 512" xmlns="http://www.w3.org/2000/svg">

<g transform="matrix(18.68858,0,0,18.68858,-13162.78504,-29260.14198)">
<path d="m720.5829,1584.9996c.0729,2.3826 2.4707,4.3623 2.2118,7.4378-1.8248-3.7363-4.7221-3.368-5.5697-6.2628-3.0958,1.5047-2.1132,5.5673-5.9456,6.1303 2.2138-3.4231-.3945-6.3705 2.9334-8.0231-3.4483-1.6441-6.2334,1.5959-8.7615-1.1379 2.5988.8067 4.4733-2.3482 8.3632-2.3973-2.2873-6.79-7.1825-6.0466-6.7652-12.4521 2.6254,6.6067 6.6797,3.4817 9.2808,9.9366 4.271-4.5315.4973-9.786 4.2696-11.4491-1.8548,4.6415 1.9875,8.3486-.7344,11.8474 5.2393.1519 6.033-7.6377 10.9168-5.576-4.0523.4535-3.7033,6.6239-9.0241,8.5883 3.2886,3.0071 6.6293.5012 9.1313,4.9464-3.8966-2.6788-6.5753.029-10.3063-1.5885z" fill="#fff"/>
<path d="m723.8515,1574.4404c1.4853-3.2725 4.0748-3.8749 6.9553-2.7433-1.9034-4.437-7.0041-1.6933-6.9553,2.7433z" fill="#fff"/>
<path d="m715.4275,1576.0721c.8238,1.1969 1.2532,3.7194.7658,4.6509 1.2594-.8471 1.0816-3.479.212-4.8474z"/>
<path d="m711.54,1581.1178c2.0489-.5049 3.7849-.04 4.2753,1.5399 .4706-2.2096-2.533-3.1532-4.2121-2.5353z"/>
<path d="m720.7917,1576.6843c-.3038,1.8383-2.3491,3.5519-3.324,4.211 1.7292-.051 3.2441-1.465 3.9831-3.2698z"/>
<path d="m723.7137,1580.8537c-1.197.8239-3.7195,1.2532-4.651.7659 .8472,1.2594 3.479,1.0815 4.8475.212z"/>
<path d="m722.1274,1585.4944c-1.429-.2637-3.5162-1.7437-3.8303-2.747-.2915,1.4896 1.6953,3.2247 3.2778,3.5775z"/>
<path d="m717.7131,1587.4402c-.6805-1.1418-.8188-3.3774-.2296-4.1184-1.3452.5673-1.4686,2.8644-.7623,4.1603z"/>
<path d="m712.5646,1585.9894c.6485-1.1603 2.5155-2.3977 3.4518-2.258-1.1639-.8813-3.2149.1605-3.9841,1.4199z"/>
<path d="m716.5663,1575.7401c.7192-2.9261-.0805-4.8891-1.6949-5.9646 2.5514-1.5581 3.4998,3.266 1.6949,5.9646z" fill="#fff"/>
<path d="m722.5531,1586.7214c2.0799,1.0173 5.597-.2523 6.2181,1.5855 .5556-3.0667-2.9291-1.7761-6.2181-1.5855z" fill="#fff"/>
<path d="m705.8603,1586.2749c3.1445.3545 3.124-1.3047 6.3774-1.7471-2.2856,1.3029-3.7252,4.0596-6.3774,1.7471z" fill="#fff"/>
<path d="m704.4375,1573.5625v2.25c2.4426-.08 4.792.8961 6.8438,3.25-.7964-3.2509-3.9897-5.4064-6.8438-5.5z" fill="#fff"/>
<path d="m704.9066,1571.3511v8.1693" fill="none" stroke="#000"/>
</g>
</svg>
