<svg viewBox="0 0 512 512" xmlns="http://www.w3.org/2000/svg">

<g transform="matrix(18.68858,0,0,18.68858,-13162.78504,-29260.14198)">
<path d="m 720.583 1585 c 0.0729 2.3826 2.4707 4.3623 2.2118 7.4378 -1.8248 -3.7363 -4.7221 -3.368 -5.5697 -6.2628 -3.0958 1.5047 -2.1132 5.5673 -5.9456 6.1303 2.2138 -3.4231 -0.3945 -6.3705 2.9334 -8.0231 -3.4483 -1.6441 -6.2334 1.5959 -8.7615 -1.1379 2.5988 0.8067 4.4733 -2.3482 8.3632 -2.3973 -2.2873 -6.79 -7.1825 -6.0466 -6.7652 -12.4521 2.6254 6.6067 6.6797 3.4817 9.2808 9.9366 4.271 -4.5315 0.4973 -9.786 4.2696 -11.4491 -1.8548 4.6415 1.9875 8.3486 -0.7344 11.8474 5.2393 0.1519 6.033 -7.6377 10.9168 -5.576 -4.0523 0.4535 -3.7033 6.6239 -9.0241 8.5883 3.2886 3.0071 6.6293 0.5012 9.1313 4.9464 -3.8966 -2.6788 -6.5753 0.029 -10.3063 -1.5885 z" fill="#fff"/>
<path d="m 723.851 1574.44 c 1.4853 -3.2725 4.0748 -3.8749 6.9553 -2.7433 -1.9034 -4.437 -7.0041 -1.6933 -6.9553 2.7433 z" fill="#fff"/>
<path d="m 715.428 1576.07 c 0.8238 1.1969 1.2532 3.7194 0.7658 4.6509 1.2594 -0.8471 1.0816 -3.479 0.212 -4.8474 z"/>
<path d="m 711.54 1581.12 c 2.0489 -0.5049 3.7849 -0.04 4.2753 1.5399 0.4706 -2.2096 -2.533 -3.1532 -4.2121 -2.5353 z"/>
<path d="m 720.792 1576.68 c -0.3038 1.8383 -2.3491 3.5519 -3.324 4.211 1.7292 -0.051 3.2441 -1.465 3.9831 -3.2698 z"/>
<path d="m 723.714 1580.85 c -1.197 0.8239 -3.7195 1.2532 -4.651 0.7659 0.8472 1.2594 3.479 1.0815 4.8475 0.212 z"/>
<path d="m 722.127 1585.49 c -1.429 -0.2637 -3.5162 -1.7437 -3.8303 -2.747 -0.2915 1.4896 1.6953 3.2247 3.2778 3.5775 z"/>
<path d="m 717.713 1587.44 c -0.6805 -1.1418 -0.8188 -3.3774 -0.2296 -4.1184 -1.3452 0.5673 -1.4686 2.8644 -0.7623 4.1603 z"/>
<path d="m 712.565 1585.99 c 0.6485 -1.1603 2.5155 -2.3977 3.4518 -2.258 -1.1639 -0.8813 -3.2149 0.1605 -3.9841 1.4199 z"/>
<path d="m 716.566 1575.74 c 0.7192 -2.9261 -0.0805 -4.8891 -1.6949 -5.9646 2.5514 -1.5581 3.4998 3.266 1.6949 5.9646 z" fill="#fff"/>
<path d="m 722.553 1586.72 c 2.0799 1.0173 5.597 -0.2523 6.2181 1.5855 0.5556 -3.0667 -2.9291 -1.7761 -6.2181 -1.5855 z" fill="#fff"/>
<path d="m 705.86 1586.27 c 3.1445 0.3545 3.124 -1.3047 6.3774 -1.7471 -2.2856 1.3029 -3.7252 4.0596 -6.3774 1.7471 z" fill="#fff"/>
<path d="m 704.438 1573.56 v 2.25 c 2.4426 -0.08 4.792 0.8961 6.8438 3.25 -0.7964 -3.2509 -3.9897 -5.4064 -6.8438 -5.5 z" fill="#fff"/>
<path d="m 704.907 1571.35 v 8.1693" fill="none" stroke="#000"/>
</g>
</svg>
