<svg xmlns="http://www.w3.org/2000/svg" viewBox="0 0 512 512">
<g transform="matrix(14.99976 0 0 14.99976 16.00381 -4903.9143)">
<use width="744.094" height="1052.362" transform="translate(36 324)"/>
<g fill="#fff">
<path d="m19.8735,335.2661c0,2.1889 0,5.0104 0,7.1994h-7.747c0-2.1889 0-5.0104 0-7.1994m-.7825-2.151-1.344,0 1.0087,1.6405 0,20.5001c0,2.6284 2.2261,4.7444 4.9913,4.7444 2.7652,0 4.9913-2.116 4.9913-4.7444v-20.5001l1.0087-1.6405h-1.344m-6.3198,11.2086c.5105,0 .9229,.392 .9229,.8772 0,.4853-.4124,.8797-.9229,.8797-.5105,0-.9255-.3944-.9255-.8797 0-.4853 .415-.8772 .9255-.8772zm2.9974,1.4381c.804,0 1.4558,.6195 1.4558,1.3838 0,.7642-.6518,1.3838-1.4558,1.3838-.804,0-1.4558-.6195-1.4558-1.3838 0-.7643 .6518-1.3838 1.4558-1.3838z"/>
<path d="m18.7395,340.9118a.9244,.8786 0 1,1 -1.8487,0 .9244,.8786 0 1,1 1.8487,0z"/>
<path d="m18.9076,331.3267a.9244,.8786 0 1,1 -1.8487,0 .9244,.8786 0 1,1 1.8487,0z"/>
<path d="m16.441,329.3838a1.4558,1.3838 0 1,1 -2.9116,0 1.4558,1.3838 0 1,1 2.9116,0z"/>
</g>
</g>
</svg>
