<svg viewBox="0 0 512 512" xmlns="http://www.w3.org/2000/svg">

<g transform="matrix(18.68858,0,0,18.68858,-11802.45199,-21126.0528)">
<path d="m645.4914,1156.827c4.33,0 8.4436-3.4364 8.4436-7.8815 0-6.8073-6.2051-7.4404-8.4436-17.5362-2.1663,10.115-8.6129,10.0949-8.6129,17.1865 0,4.7774 4.378,8.2312 8.6129,8.2312z" fill="#fff" fill-rule="evenodd"/>
<path d="m638.1043,1147.31c.1228,3.8228 3.356,6.9062 7.3438,6.9063s7.2209-3.0834 7.3438-6.9063c-1.5655,1.8412-4.2696,3.0625-7.3438,3.0625s-5.7783-1.2213-7.3438-3.0625z"/>
<path d="m650.3297,1142.4404c-1.1013,1.521-2.6469,2.6931-4.54,3.5921 2.7937,1.8166 5.5924.2222 4.54-3.5921z" fill-rule="evenodd"/>
<path d="m640.9643,1148.5521c-.1311,1.4618.1395,2.4151 1.245,3.7139-.0471-1.1541.0542-2.1764.4591-2.9289" fill="#fff" fill-rule="evenodd"/>
<path d="m649.7513,1148.5521c.1311,1.4618-.1395,2.4151-1.245,3.7139 .0471-1.1541-.0542-2.1764-.4591-2.9289" fill="#fff" fill-rule="evenodd"/>
<path d="m643.7534,1152.0314 .7475,2.3409h-1.495l.7475-2.3409z" fill="#fff"/>
<path d="m647.144,1152.0314 .7475,2.3409h-1.495l.7475-2.3409z" fill="#fff"/>
<path d="m640.3469,1142.4404c1.1013,1.521 2.6469,2.6931 4.54,3.5921-2.7937,1.8166-5.5924.2222-4.54-3.5921z" fill-rule="evenodd"/>
</g>
</svg>
