<svg viewBox="0 0 512 512" xmlns="http://www.w3.org/2000/svg">

<g transform="matrix(18.68858,0,0,18.68858,-7718.39437,-31324.21108)">
<path d="m 427.699 1688.31 c 1.7841 -2.9995 -1.3243 -7.199 -5.2977 -4.9854 -3.2316 1.8 -1.9941 5.5395 -8.2065 5.549 5.7268 3.5147 11.6477 2.5578 13.5042 -0.5636 z" fill="#fff"/>
<path d="m 430.488 1684.02 c -3.6826 0.4348 -4.1058 6.4031 0.4171 8.2334 3.6782 1.4887 6.3691 -3.4972 8.0656 3.1074 1.4811 -8.2419 -4.6507 -11.793 -8.4827 -11.3408 z" fill="#fff"/>
<path d="m 422.433 1688.91 c 2.5 -3.763 10.1672 -3.5644 9.8181 1.8032 -0.2838 4.3658 -6.3605 5.6813 -2.8737 11.7456 -7.3304 -3.2137 -9.5461 -9.633 -6.9444 -13.5488 z" fill="#fff"/>
<path d="m 428.3 1685.64 c -2.3305 -7.1935 6.4884 -10.2253 8.0445 -6.0984 1.2212 3.2387 -5.2972 3.2718 -8.1285 0.021 -2.3772 -2.7297 -6.2369 -2.0633 -7.895 0.1346" fill="none" stroke="#fff"/>
<path d="m 435.76 1717.26 c 0 0.7861 -0.6373 1.4233 -1.4234 1.4233 s -1.4233 -0.6372 -1.4233 -1.4233 0.6373 -1.4234 1.4233 -1.4234 1.4234 0.6373 1.4234 1.4234 z" fill="#fff" transform="matrix(-1,0,0,1,855.23411,-36.852)"/>
<path d="m 418.079 1689.57 c 4.3265 0.9471 4.9762 -3.5857 8.8379 -4.3757 -4.3258 -1.05 -4.6865 3.7891 -8.8379 4.3757 z"/>
<path d="m 427.084 1699.87 c -3.0616 -5.4329 3.3448 -7.8929 0.5321 -13.7814 0.7067 6.3607 -5.0726 8.7591 -0.5321 13.7814 z"/>
<path d="m 428.949 1686.3 c 1.7493 3.6183 6.4303 0.9868 8.7813 4.8161 -1.6254 -5.4054 -6.5183 -2.3364 -8.7813 -4.8161 z"/>
</g>
</svg>
