<svg viewBox="0 0 512 512" xmlns="http://www.w3.org/2000/svg">

<g transform="matrix(18.68858,0,0,18.68858,-4995.41657,-28582.51707)">
<path d="m 272.887 1547.11 c 3.7823 4.8793 2.733 8.1948 -3.218 6.0858 3.7321 0.5927 4.7943 -2.0491 3.218 -6.0858 z" fill="#fff"/>
<path d="m 292.216 1552.4 c 2.3322 1.1675 1.2985 2.249 -0.6464 3.3114 1.0648 -1.4267 -0.209 -2.3355 0.6464 -3.3114 z" fill="#fff"/>
<path d="m 281.427 1545.51 c 1.4673 2.2249 -3e-05 2.6541 -2.2643 2.6007 1.6715 -0.7187 1.0086 -2.174 2.2643 -2.6007 z" fill="#fff"/>
<path d="m 270.645 1533.26 c 0.683 -3.3283 2.3925 -2.3924 4.3854 -0.3032 -2.1545 -0.859 -2.8689 1.0505 -4.3854 0.3032 z" fill="#fff"/>
<path d="m 284.773 1548.11 c 0.0716 -3.2339 1.7901 -2.2899 3.8019 -2.18 -1.5314 1.1406 -2.1437 2.5093 -3.8019 2.18 z" fill="#fff"/>
<path d="m 275.455 1537.33 c -3.1051 0.9061 -2.0921 2.5485 -1.1217 4.2365 -0.0938 -2.2359 2.0283 -2.2027 1.1217 -4.2365 z" fill="#fff"/>
<path d="m 270.344 1532.91 c -2.9608 0.1956 -3.0274 5.4404 1.9062 13.125 -5.2029 -12.7082 0.1774 -13.2133 7.5938 -2.0937 5.7289 8.5896 10.6446 10.274 12.6466 8.8397 4.1207 -2.9522 -2.6397 -14.557 -9.2091 -12.1834 6.4553 -0.1069 10.3553 9.6413 7.4489 10.1562 -1.9982 0.354 -5.281 -1.9829 -9.2301 -7.9062 -4.7923 -7.188 -8.8534 -10.0897 -11.1562 -9.9376 z" fill="#fff"/>
<path d="m 290.308 1543.09 c 3.1242 -2.7733 -0.2434 -4.9308 -3.6931 -5.7685 2.2391 1.7662 0.349 4.1801 3.6931 5.7685 z" fill="#fff"/>
<path d="m 286.194 1541.24 c -2.6816 -0.8353 -2.5768 2.1772 -0.8792 2.7846 -3.7409 -1.2908 -3.7812 -4.348 0.7162 -3.6674" fill="#fff"/>
</g>
</svg>
