<svg viewBox="0 0 512 512" xmlns="http://www.w3.org/2000/svg">

<g transform="matrix(18.68858,0,0,18.68858,-7718.39437,-31324.21108)">
<path d="m427.6994,1688.3088c1.7841-2.9995-1.3243-7.199-5.2977-4.9854-3.2316,1.8-1.9941,5.5395-8.2065,5.549 5.7268,3.5147 11.6477,2.5578 13.5042-.5636z" fill="#fff"/>
<path d="m430.4876,1684.0215c-3.6826.4348-4.1058,6.4031.4171,8.2334 3.6782,1.4887 6.3691-3.4972 8.0656,3.1074 1.4811-8.2419-4.6507-11.793-8.4827-11.3408z" fill="#fff"/>
<path d="m422.4327,1688.9054c2.5-3.763 10.1672-3.5644 9.8181,1.8032-.2838,4.3658-6.3605,5.6813-2.8737,11.7456-7.3304-3.2137-9.5461-9.633-6.9444-13.5488z" fill="#fff"/>
<path d="m428.2995,1685.6396c-2.3305-7.1935 6.4884-10.2253 8.0445-6.0984 1.2212,3.2387-5.2972,3.2718-8.1285.021-2.3772-2.7297-6.2369-2.0633-7.895.1346" fill="none" stroke="#fff"/>
<path d="m435.7603,1717.2565c0,.7861-.6373,1.4233-1.4234,1.4233s-1.4233-.6372-1.4233-1.4233 .6373-1.4234 1.4233-1.4234 1.4234.6373 1.4234,1.4234z" fill="#fff" transform="matrix(-1,0,0,1,855.23411,-36.852)"/>
<path d="m418.0786,1689.5691c4.3265.9471 4.9762-3.5857 8.8379-4.3757-4.3258-1.05-4.6865,3.7891-8.8379,4.3757z"/>
<path d="m427.084,1699.8689c-3.0616-5.4329 3.3448-7.8929.5321-13.7814 .7067,6.3607-5.0726,8.7591-.5321,13.7814z"/>
<path d="m428.9487,1686.2965c1.7493,3.6183 6.4303.9868 8.7813,4.8161-1.6254-5.4054-6.5183-2.3364-8.7813-4.8161z"/>
</g>
</svg>
