<svg viewBox="0 0 512 512" xmlns="http://www.w3.org/2000/svg">

<g transform="matrix(18.68858,0,0,18.68858,-1591.31601,-31999.96687)">
<path d="m 106.293 1719.43 c -1.3871 -1.4262 -0.003 -3.3869 2.0312 -3.1563 -2.4167 -1.2766 -4.4629 1.4137 -3.1676 3.2854 1.3369 1.9318 4.4229 2.1662 5.8357 -0.2664 1.675 -2.884 -1.1635 -6.0295 -4.3555 -6.0814 -2.964 -0.048 -7.7583 2.9633 -4.997 9.2405 l 1.8364 -0.1548 c -2.3992 -5.9777 1.9115 -8.0661 4.128 -7.6049 2.1778 0.4532 3.1125 3.2477 1.9977 4.3234 -1.0186 0.9829 -2.4235 1.325 -3.309 0.4145 z" fill="#fff"/>
<path d="m 94.2062 1721.82 c -6.2095 0.7055 -8.9792 -5.0872 -4.3772 -8.4277 -6.6857 2.0716 -3.5264 11.6099 4.0137 10.2109" fill="#fff"/>
<path d="m 104.815 1731.03 c 4.4258 -1.6 6.8704 2.4975 4.4164 5.9062 4.8881 -3.1598 0.9206 -10.01 -4.4696 -7.3163" fill="#fff"/>
<path d="m 92.3911 1733.17 c 0.2875 1.5179 -0.7073 4.6956 -3.6822 3.8044 -1.8451 -0.5528 -2.2029 -2.8726 -0.862 -3.9491 -2.2735 0.7117 -2.306 4.5383 0.5482 5.2624 4.3072 1.0925 6.1779 -2.9714 5.3785 -5.1925" fill="#fff"/>
<path d="m 107.117 1729.03 c 3.8426 -0.686 3.8992 -4.6431 0.7229 -6.0739 4.8215 0.2424 4.8125 6.8083 -0.1763 7.1088" fill="#fff"/>
<path d="m 92.6967 1724.85 c -3.2022 -2.5463 -6.0404 0.6003 -4.8061 4.3172 -3.238 -4.0856 1.4112 -9.3754 5.1513 -5.5929" fill="#fff"/>
<path d="m 94.1375 1730.96 c 0 2.2027 -1.7856 3.9883 -3.9882 3.9883 s -3.9882 -1.7856 -3.9882 -3.9883 1.7856 -3.9882 3.9882 -3.9882 3.9882 1.7856 3.9882 3.9882 z" fill="#fff" transform="matrix(.83801,.33253,-.33253,.83801,593.17756,246.37852)"/>
<path d="m 94.1375 1730.96 c 0 2.2027 -1.7856 3.9883 -3.9882 3.9883 s -3.9882 -1.7856 -3.9882 -3.9883 1.7856 -3.9882 3.9882 -3.9882 3.9882 1.7856 3.9882 3.9882 z" fill="#fff" transform="matrix(.83801,.33253,-.33253,.83801,602.89984,250.23638)"/>
<path d="m 94.1375 1730.96 c 0 2.2027 -1.7856 3.9883 -3.9882 3.9883 s -3.9882 -1.7856 -3.9882 -3.9883 1.7856 -3.9882 3.9882 -3.9882 3.9882 1.7856 3.9882 3.9882 z" fill="#fff" transform="matrix(.13103,.892,-.892,.13103,1629.44339,1416.46008)"/>
<path d="m 94.1375 1730.96 c 0 2.2027 -1.7856 3.9883 -3.9882 3.9883 s -3.9882 -1.7856 -3.9882 -3.9883 1.7856 -3.9882 3.9882 -3.9882 3.9882 1.7856 3.9882 3.9882 z" fill="#fff" transform="matrix(.13103,.892,-.892,.13103,1630.96347,1426.80871)"/>
<path d="m 94.1375 1730.96 c 0 2.2027 -1.7856 3.9883 -3.9882 3.9883 s -3.9882 -1.7856 -3.9882 -3.9883 1.7856 -3.9882 3.9882 -3.9882 3.9882 1.7856 3.9882 3.9882 z" fill="#fff" transform="matrix(-.70698,.55947,.55947,.70698,-802.60555,451.407)"/>
<path d="m 94.1375 1730.96 c 0 2.2027 -1.7856 3.9883 -3.9882 3.9883 s -3.9882 -1.7856 -3.9882 -3.9883 1.7856 -3.9882 3.9882 -3.9882 3.9882 1.7856 3.9882 3.9882 z" fill="#fff" transform="matrix(-.70698,.55947,.55947,.70698,-810.80763,457.89781)"/>
<path d="m 99.4839 1712.71 -2.4266 -0.135 c 2.0397 4.321 -2.1953 3.7569 -1.6567 7.7354 l 2.3397 0.1926 c -0.4645 -2.878 3.8446 -3.4537 1.7437 -7.793 z" fill="#fff"/>
<path d="m 103.882 1731.91 -1.2188 1.6563 c 2.6051 0.9781 3.7049 2.8585 2.4987 5.9375 h 1.97 c 1.4426 -3.505 -0.4849 -6.6748 -3.25 -7.5938 z" fill="#fff"/>
<path d="m 95.3688 1719.26 c 0.0449 -3.7462 -3.3802 -4.2937 -4.6995 -1.6109 0.2239 -3.9786 6.0215 -3.5701 5.8331 1.0935" fill="#fff"/>
<path d="m 98.7919 1720.43 c -0.6241 -0.3004 -1.3534 -0.4327 -2.09 -0.325 -1.6849 0.2475 -2.9065 1.637 -3.0434 3.2638 -1.6153 -0.2416 -3.2477 0.644 -3.8761 2.2275 s -0.0473 3.3474 1.2943 4.279 c -1.0005 1.2774 -1.0623 3.1051 -0.011 4.4335 s 2.8618 1.7049 4.3376 1.0153 c 0.5952 1.5258 2.1932 2.4948 3.8826 2.2466 1.6761 -0.2462 2.8843 -1.619 3.0319 -3.2348 1.6153 0.2417 3.2477 -0.6439 3.8761 -2.2275 s 0.0472 -3.3473 -1.2943 -4.279 c 1.0158 -1.278 1.0793 -3.1271 0.0225 -4.4625 s -2.8876 -1.7279 -4.3667 -1.0268 c -0.3383 -0.8489 -0.9642 -1.5256 -1.7636 -1.9101 z m -0.046 6.4705 c 0.127 0.3263 0.302 0.6613 0.5307 0.9502 0.2236 0.2826 0.4926 0.4807 0.7736 0.6769 -0.2209 0.2743 -0.4004 0.5853 -0.5371 0.9299 s -0.2194 0.6941 -0.2467 1.0453 c -0.3392 -0.05 -0.6706 -0.09 -1.0272 -0.038 -0.3684 0.054 -0.7189 0.1748 -1.0378 0.3279 -0.1267 -0.3227 -0.2754 -0.6528 -0.5016 -0.9387 -0.2236 -0.2826 -0.4926 -0.4807 -0.7737 -0.6768 0.2209 -0.2744 0.4004 -0.5854 0.5372 -0.9301 s 0.2194 -0.694 0.2466 -1.0451 c 0.3392 0.05 0.6707 0.09 1.0273 0.038 s 0.6978 -0.1935 1.0088 -0.3394 z" fill="none" stroke="#000"/>
<g transform="matrix(.9295,.36883,-.36883,.9295,613.30909,75.85002)">
<path d="m 125.253 1726.53 h 10.8736" fill="none" stroke="#000"/>
<path d="m 127.972 1721.82 5.4368 9.4168" fill="none" stroke="#000"/>
<path d="m 133.409 1721.82 -5.4368 9.4168" fill="none" stroke="#000"/>
</g>
<g transform="matrix(.4565,.57685,-.57685,.4565,1034.2812,865.3128)">
<path d="m 125.253 1726.53 h 10.8736" fill="none" stroke="#000" stroke-width="1.3594"/>
<path d="m 127.972 1721.82 5.4368 9.4168" fill="none" stroke="#000" stroke-width="1.3594"/>
<path d="m 133.409 1721.82 -5.4368 9.4168" fill="none" stroke="#000" stroke-width="1.3594"/>
</g>
<path d="m 103.386 1727.01 c 0 2.1158 -1.7152 3.8311 -3.8311 3.8311 s -3.8311 -1.7153 -3.8311 -3.8311 1.7152 -3.8311 3.8311 -3.8311 3.8311 1.7152 3.8311 3.8311 z" fill="#fff" stroke="#000" stroke-width="1.3701" transform="matrix(.67844,.26921,-.26921,.67844,495.37413,530.38111)"/>
<path d="m 92.8345 1739.23 h 15.2209" fill="none" stroke="#000"/>
<path d="m 91.4796 1712.8 h 12.6725" fill="none" stroke="#000"/>
</g>
</svg>
