<svg viewBox="0 0 512 512" xmlns="http://www.w3.org/2000/svg">

<g transform="matrix(18.68858,0,0,18.68858,-1591.31601,-31999.96687)">
<path d="m106.2931,1719.4295c-1.3871-1.4262-.003-3.3869 2.0312-3.1563-2.4167-1.2766-4.4629,1.4137-3.1676,3.2854 1.3369,1.9318 4.4229,2.1662 5.8357-.2664 1.675-2.884-1.1635-6.0295-4.3555-6.0814-2.964-.048-7.7583,2.9633-4.997,9.2405l1.8364-.1548c-2.3992-5.9777 1.9115-8.0661 4.128-7.6049 2.1778.4532 3.1125,3.2477 1.9977,4.3234-1.0186.9829-2.4235,1.325-3.309.4145z" fill="#fff"/>
<path d="m94.2062,1721.8246c-6.2095.7055-8.9792-5.0872-4.3772-8.4277-6.6857,2.0716-3.5264,11.6099 4.0137,10.2109" fill="#fff"/>
<path d="m104.8154,1731.027c4.4258-1.6 6.8704,2.4975 4.4164,5.9062 4.8881-3.1598.9206-10.01-4.4696-7.3163" fill="#fff"/>
<path d="m92.3911,1733.1675c.2875,1.5179-.7073,4.6956-3.6822,3.8044-1.8451-.5528-2.2029-2.8726-.862-3.9491-2.2735.7117-2.306,4.5383.5482,5.2624 4.3072,1.0925 6.1779-2.9714 5.3785-5.1925" fill="#fff"/>
<path d="m107.1174,1729.0271c3.8426-.686 3.8992-4.6431.7229-6.0739 4.8215.2424 4.8125,6.8083-.1763,7.1088" fill="#fff"/>
<path d="m92.6967,1724.8473c-3.2022-2.5463-6.0404.6003-4.8061,4.3172-3.238-4.0856 1.4112-9.3754 5.1513-5.5929" fill="#fff"/>
<path d="m94.1375,1730.9647c0,2.2027-1.7856,3.9883-3.9882,3.9883s-3.9882-1.7856-3.9882-3.9883 1.7856-3.9882 3.9882-3.9882 3.9882,1.7856 3.9882,3.9882z" fill="#fff" transform="matrix(.83801,.33253,-.33253,.83801,593.17756,246.37852)"/>
<path d="m94.1375,1730.9647c0,2.2027-1.7856,3.9883-3.9882,3.9883s-3.9882-1.7856-3.9882-3.9883 1.7856-3.9882 3.9882-3.9882 3.9882,1.7856 3.9882,3.9882z" fill="#fff" transform="matrix(.83801,.33253,-.33253,.83801,602.89984,250.23638)"/>
<path d="m94.1375,1730.9647c0,2.2027-1.7856,3.9883-3.9882,3.9883s-3.9882-1.7856-3.9882-3.9883 1.7856-3.9882 3.9882-3.9882 3.9882,1.7856 3.9882,3.9882z" fill="#fff" transform="matrix(.13103,.892,-.892,.13103,1629.44339,1416.46008)"/>
<path d="m94.1375,1730.9647c0,2.2027-1.7856,3.9883-3.9882,3.9883s-3.9882-1.7856-3.9882-3.9883 1.7856-3.9882 3.9882-3.9882 3.9882,1.7856 3.9882,3.9882z" fill="#fff" transform="matrix(.13103,.892,-.892,.13103,1630.96347,1426.80871)"/>
<path d="m94.1375,1730.9647c0,2.2027-1.7856,3.9883-3.9882,3.9883s-3.9882-1.7856-3.9882-3.9883 1.7856-3.9882 3.9882-3.9882 3.9882,1.7856 3.9882,3.9882z" fill="#fff" transform="matrix(-.70698,.55947,.55947,.70698,-802.60555,451.407)"/>
<path d="m94.1375,1730.9647c0,2.2027-1.7856,3.9883-3.9882,3.9883s-3.9882-1.7856-3.9882-3.9883 1.7856-3.9882 3.9882-3.9882 3.9882,1.7856 3.9882,3.9882z" fill="#fff" transform="matrix(-.70698,.55947,.55947,.70698,-810.80763,457.89781)"/>
<path d="m99.4839,1712.7113-2.4266-.135c2.0397,4.321-2.1953,3.7569-1.6567,7.7354l2.3397.1926c-.4645-2.878 3.8446-3.4537 1.7437-7.793z" fill="#fff"/>
<path d="m103.882,1731.9062-1.2188,1.6563c2.6051.9781 3.7049,2.8585 2.4987,5.9375h1.97c1.4426-3.505-.4849-6.6748-3.25-7.5938z" fill="#fff"/>
<path d="m95.3688,1719.2631c.0449-3.7462-3.3802-4.2937-4.6995-1.6109 .2239-3.9786 6.0215-3.5701 5.8331,1.0935" fill="#fff"/>
<path d="m98.7919,1720.4339c-.6241-.3004-1.3534-.4327-2.09-.325-1.6849.2475-2.9065,1.637-3.0434,3.2638-1.6153-.2416-3.2477.644-3.8761,2.2275s-.0473,3.3474 1.2943,4.279c-1.0005,1.2774-1.0623,3.1051-.011,4.4335s2.8618,1.7049 4.3376,1.0153c.5952,1.5258 2.1932,2.4948 3.8826,2.2466 1.6761-.2462 2.8843-1.619 3.0319-3.2348 1.6153.2417 3.2477-.6439 3.8761-2.2275s.0472-3.3473-1.2943-4.279c1.0158-1.278 1.0793-3.1271.0225-4.4625s-2.8876-1.7279-4.3667-1.0268c-.3383-.8489-.9642-1.5256-1.7636-1.9101zm-.046,6.4705c.127.3263.302.6613.5307.9502 .2236.2826.4926.4807.7736.6769-.2209.2743-.4004.5853-.5371.9299s-.2194.6941-.2467,1.0453c-.3392-.05-.6706-.09-1.0272-.038-.3684.054-.7189.1748-1.0378.3279-.1267-.3227-.2754-.6528-.5016-.9387-.2236-.2826-.4926-.4807-.7737-.6768 .2209-.2744.4004-.5854.5372-.9301s.2194-.694.2466-1.0451c.3392.05.6707.09 1.0273.038s.6978-.1935 1.0088-.3394z" fill="none" stroke="#000"/>
<g transform="matrix(.9295,.36883,-.36883,.9295,613.30909,75.85002)">
<path d="m125.2533,1726.525h10.8736" fill="none" stroke="#000"/>
<path d="m127.9717,1721.8166 5.4368,9.4168" fill="none" stroke="#000"/>
<path d="m133.4085,1721.8166-5.4368,9.4168" fill="none" stroke="#000"/>
</g>
<g transform="matrix(.4565,.57685,-.57685,.4565,1034.2812,865.3128)">
<path d="m125.2533,1726.525h10.8736" fill="none" stroke="#000" stroke-width="1.3594"/>
<path d="m127.9717,1721.8166 5.4368,9.4168" fill="none" stroke="#000" stroke-width="1.3594"/>
<path d="m133.4085,1721.8166-5.4368,9.4168" fill="none" stroke="#000" stroke-width="1.3594"/>
</g>
<path d="m103.3863,1727.0071c0,2.1158-1.7152,3.8311-3.8311,3.8311s-3.8311-1.7153-3.8311-3.8311 1.7152-3.8311 3.8311-3.8311 3.8311,1.7152 3.8311,3.8311z" fill="#fff" stroke="#000" stroke-width="1.3701" transform="matrix(.67844,.26921,-.26921,.67844,495.37413,530.38111)"/>
<path d="m92.8345,1739.232h15.2209" fill="none" stroke="#000"/>
<path d="m91.4796,1712.8002h12.6725" fill="none" stroke="#000"/>
</g>
</svg>
