<svg viewBox="0 0 512 512" xmlns="http://www.w3.org/2000/svg">

<g transform="matrix(-18.68858,0,0,18.68858,10962.03,-42870.289)">
<path d="m566.9198,2307.626h3.1638v7.1458h-3.1638z" fill="#fff" stroke="#000"/>
<path d="m574.502,2307.626h3.1638v7.1458h-3.1638z" fill="#fff" stroke="#000"/>
<path d="m564.0486,2309.7752c0-1.6257 1.3483-2.8715 2.974-2.8715v-3.1792c-3.3556,0-6.0505,2.6948-6.0505,6.0507z" fill="#fff" stroke="#000"/>
<path d="m560.8077,2311.1337c-.4261-.7356-.1732-1.6761.5647-2.1008s1.6816-.1729 2.1077.5629 .1732,1.6762-.5648,2.101" fill="none" stroke="#fff"/>
<path d="m581.4719,2309.7752c0-1.6257-1.3483-2.8715-2.974-2.8715v-3.1792c3.3556,0 6.0505,2.6948 6.0505,6.0507z" fill="#fff" stroke="#000"/>
<path d="m584.7128,2311.1337c.4261-.7356.1732-1.6761-.5647-2.1008s-1.6816-.1729-2.1077.5629-.1732,1.6762.5648,2.101" fill="none" stroke="#fff"/>
<path d="m574.9384,2307.1353c0,1.446-1.1723,2.6183-2.6183,2.6183s-2.6183-1.1723-2.6183-2.6183 1.1723-2.6184 2.6183-2.6184 2.6183,1.1723 2.6183,2.6184z" fill="#fff" stroke="#000" stroke-width=".6178" transform="matrix(1.61872,0,0,1.61872,-353.78703,-1433.8186)"/>
<path d="m565.6652,2300.4258h13.5825v11.3901h-13.5825z" fill="#fff" stroke="#000"/>
<path d="m560.9622,2308.0835c1.4318-.5131 3.1466.1451 3.6924,1.4968" fill="none" stroke="#000"/>
<path d="m584.5574,2308.0835c-1.4318-.5131-3.1466.1451-3.6924,1.4968" fill="none" stroke="#000"/>
<path d="m568.5036,2314.4559c2.7542,0 3.0407,2.6261 3.1159,4.3217h-6.2317c.0752-1.6956.4764-4.3217 3.1158-4.3217z" fill="#fff" stroke="#000"/>
<path d="m576.1793,2314.4559c-2.7542,0-3.0407,2.6261-3.1159,4.3217h6.2317c-.0752-1.6956-.4764-4.3217-3.1158-4.3217z" fill="#fff" stroke="#000"/>
<path d="m574.9384,2307.1353c0,1.446-1.1723,2.6183-2.6183,2.6183s-2.6183-1.1723-2.6183-2.6183 1.1723-2.6184 2.6183-2.6184 2.6183,1.1723 2.6183,2.6184z" stroke="#000" transform="translate(.1636,-1.8001)"/>
</g>
</svg>
