<svg viewBox="0 0 512 512" xmlns="http://www.w3.org/2000/svg">

<g transform="matrix(-18.68858,0,0,18.68858,10962.03,-42870.289)">
<path d="m 566.92 2307.63 h 3.1638 v 7.1458 h -3.1638 z" fill="#fff" stroke="#000"/>
<path d="m 574.502 2307.63 h 3.1638 v 7.1458 h -3.1638 z" fill="#fff" stroke="#000"/>
<path d="m 564.049 2309.78 c 0 -1.6257 1.3483 -2.8715 2.974 -2.8715 v -3.1792 c -3.3556 0 -6.0505 2.6948 -6.0505 6.0507 z" fill="#fff" stroke="#000"/>
<path d="m 560.808 2311.13 c -0.4261 -0.7356 -0.1732 -1.6761 0.5647 -2.1008 s 1.6816 -0.1729 2.1077 0.5629 0.1732 1.6762 -0.5648 2.101" fill="none" stroke="#fff"/>
<path d="m 581.472 2309.78 c 0 -1.6257 -1.3483 -2.8715 -2.974 -2.8715 v -3.1792 c 3.3556 0 6.0505 2.6948 6.0505 6.0507 z" fill="#fff" stroke="#000"/>
<path d="m 584.713 2311.13 c 0.4261 -0.7356 0.1732 -1.6761 -0.5647 -2.1008 s -1.6816 -0.1729 -2.1077 0.5629 -0.1732 1.6762 0.5648 2.101" fill="none" stroke="#fff"/>
<path d="m 574.938 2307.14 c 0 1.446 -1.1723 2.6183 -2.6183 2.6183 s -2.6183 -1.1723 -2.6183 -2.6183 1.1723 -2.6184 2.6183 -2.6184 2.6183 1.1723 2.6183 2.6184 z" fill="#fff" stroke="#000" stroke-width=".6178" transform="matrix(1.61872,0,0,1.61872,-353.78703,-1433.8186)"/>
<path d="m 565.665 2300.43 h 13.5825 v 11.3901 h -13.5825 z" fill="#fff" stroke="#000"/>
<path d="m 560.962 2308.08 c 1.4318 -0.5131 3.1466 0.1451 3.6924 1.4968" fill="none" stroke="#000"/>
<path d="m 584.557 2308.08 c -1.4318 -0.5131 -3.1466 0.1451 -3.6924 1.4968" fill="none" stroke="#000"/>
<path d="m 568.504 2314.46 c 2.7542 0 3.0407 2.6261 3.1159 4.3217 h -6.2317 c 0.0752 -1.6956 0.4764 -4.3217 3.1158 -4.3217 z" fill="#fff" stroke="#000"/>
<path d="m 576.179 2314.46 c -2.7542 0 -3.0407 2.6261 -3.1159 4.3217 h 6.2317 c -0.0752 -1.6956 -0.4764 -4.3217 -3.1158 -4.3217 z" fill="#fff" stroke="#000"/>
<path d="m 574.938 2307.14 c 0 1.446 -1.1723 2.6183 -2.6183 2.6183 s -2.6183 -1.1723 -2.6183 -2.6183 1.1723 -2.6184 2.6183 -2.6184 2.6183 1.1723 2.6183 2.6184 z" stroke="#000" transform="translate(.1636,-1.8001)"/>
</g>
</svg>
