<svg viewBox="0 0 512 512" xmlns="http://www.w3.org/2000/svg">

<g transform="matrix(18.68858,0,0,18.68858,1982.57839,-11735.87126)">
<path d="m -191.938 642.206 c 0 4.2284 -3.4278 7.6562 -7.6563 7.6562 s -7.6562 -3.4278 -7.6562 -7.6562 3.4278 -7.6562 7.6562 -7.6562 7.6563 3.4278 7.6563 7.6562 z" fill="#fff" transform="matrix(1.12653,0,0,1.12653,132.80365,-81.85246)"/>
<path d="m -93.7912 629.527 c -6.6507 0.3864 -7.3952 4.9871 -4.875 6.5 7.4809 1.3914 3.3277 9.1265 -0.6875 0.6875 -2.4153 -2.3352 -8.4801 1.495 -4.9375 10.4688 2.7607 7.0015 10.6827 8.9744 10.6875 3.3438 -5.907 -12.908 6.97 -9.387 1.1875 -0.375 -1.4524 5.44 5.8654 5.6733 10.3438 -0.375 5.744 -7.751 0.9998 -12.5679 -1.9375 -10.9375 -7.9187 7.5008 -11.728 -1.9114 0.1562 -0.875 5.4365 -1.462 0.7574 -7.4575 -6.7188 -8.3125 -1.1979 -0.1375 -2.2686 -0.1802 -3.2188 -0.125 z" fill="#fff" fill-rule="evenodd" stroke="#000"/>
<path d="m -101.311 646.312 c 0.8448 -2.0399 3.5017 -3.2832 6.5223 -3.7524" fill="none" stroke="#000"/>
<path d="m -90.8128 642.559 c 1.9719 1.0663 4.5616 2.6673 5.2439 5.1204" fill="none" stroke="#000"/>
<path d="m -93.3185 631.861 c 1.7094 1.6465 1.8238 4.1088 1.2565 6.1524" fill="none" stroke="#000"/>
<path d="m 655.25 639.55 c 0 2.2782 -1.8468 4.125 -4.125 4.125 s -4.125 -1.8468 -4.125 -4.125 1.8468 -4.125 4.125 -4.125 4.125 1.8468 4.125 4.125 z" fill="#fff" stroke="#000" stroke-width=".8121" transform="matrix(1.23121,0,0,1.23145,-893.98322,-146.12181)"/>
<path d="m -96.0517 638.423 c 4.1198 1.566 5.5572 5.5094 2.6418 7.9236" fill="none" stroke="#000"/>
<path d="m -92.1114 641.604 c 0.691 -1.8192 2.7893 -2.3488 4.8358 -1.4333" fill="none" stroke="#000"/>
</g>
</svg>
