<svg viewBox="0 0 512 512" xmlns="http://www.w3.org/2000/svg">

<g transform="matrix(4.47554,0,0,4.47554,-999.1595,-732.02398)">
<path d="m262.598,184.877c0-1.727-.218-3.506-.969-5.111-.601-1.011-1.405-1.068-2.046-.697-.823.476-1.791,1.887-1.791,4.605 .141,18.438-.35,38.319-.624,56.67h-18.113v-55.468c0-4.969-2.058-9.237-8.457-9.262l-1.957-.009c4.049-4.612 8.08-6.595 14.591-6.595 4.196,0 8.118,1.663 10.83,4.492l.439-.398 .517-.443c3.899-3.007 8.368-3.65 11.757-3.65 4.189,0 8.104,1.657 10.815,4.478l.424-.384 .515-.443c3.901-3.007 8.368-3.65 11.758-3.65 7.682,0 14.397,5.56 14.545,13.582 .083,4.453.075,10.374.021,16.824 1.771-5.012 5.232-11.368 11.405-11.368 5.096,0 15.287.255 15.287,31.339 0,22.545-11.715,35.421-19.822,41.725 1.044.403 2.144.569 3.261.569 5.606,0 10.192-4.586 10.192-4.586v6.371c0,0-1.911,6.242-15.924,6.242-4.176,0-7.58-.673-10.361-1.862-8.634,2.752-19.066,4.282-19.066,4.282v-6.88c0,0 5.36-.27 11.909-3.06-4.268-5.805-5.151-14.124-5.571-21.844l-.051-1.849v-53.62c0-1.727-.219-3.506-.969-5.111-.58-.977-1.346-1.049-1.943-.752-.766.381-1.72,1.586-1.873,3.999 .219,16.902-.37,40.925-.614,57.333h-18.113v-55.469zm42.024,32.278-.007.459-.032,1.891c-.137,8.195-.284,15.748-.359,20.84 0,5.02.442,8.93 1.209,11.95 5.556-6.463 9.807-16.138 9.807-30.614 0-41.143-10.301-14.584-10.618-4.526z" fill="#fff"/>
</g>
</svg>
