<svg viewBox="0 0 512 512" xmlns="http://www.w3.org/2000/svg">

<g transform="matrix(4.47554,0,0,4.47554,-999.1595,-732.02398)">
<path d="m 262.598 184.877 c 0 -1.727 -0.218 -3.506 -0.969 -5.111 -0.601 -1.011 -1.405 -1.068 -2.046 -0.697 -0.823 0.476 -1.791 1.887 -1.791 4.605 0.141 18.438 -0.35 38.319 -0.624 56.67 h -18.113 v -55.468 c 0 -4.969 -2.058 -9.237 -8.457 -9.262 l -1.957 -0.009 c 4.049 -4.612 8.08 -6.595 14.591 -6.595 4.196 0 8.118 1.663 10.83 4.492 l 0.439 -0.398 0.517 -0.443 c 3.899 -3.007 8.368 -3.65 11.757 -3.65 4.189 0 8.104 1.657 10.815 4.478 l 0.424 -0.384 0.515 -0.443 c 3.901 -3.007 8.368 -3.65 11.758 -3.65 7.682 0 14.397 5.56 14.545 13.582 0.083 4.453 0.075 10.374 0.021 16.824 1.771 -5.012 5.232 -11.368 11.405 -11.368 5.096 0 15.287 0.255 15.287 31.339 0 22.545 -11.715 35.421 -19.822 41.725 1.044 0.403 2.144 0.569 3.261 0.569 5.606 0 10.192 -4.586 10.192 -4.586 v 6.371 c 0 0 -1.911 6.242 -15.924 6.242 -4.176 0 -7.58 -0.673 -10.361 -1.862 -8.634 2.752 -19.066 4.282 -19.066 4.282 v -6.88 c 0 0 5.36 -0.27 11.909 -3.06 -4.268 -5.805 -5.151 -14.124 -5.571 -21.844 l -0.051 -1.849 v -53.62 c 0 -1.727 -0.219 -3.506 -0.969 -5.111 -0.58 -0.977 -1.346 -1.049 -1.943 -0.752 -0.766 0.381 -1.72 1.586 -1.873 3.999 0.219 16.902 -0.37 40.925 -0.614 57.333 h -18.113 v -55.469 z m 42.024 32.278 -0.007 0.459 -0.032 1.891 c -0.137 8.195 -0.284 15.748 -0.359 20.84 0 5.02 0.442 8.93 1.209 11.95 5.556 -6.463 9.807 -16.138 9.807 -30.614 0 -41.143 -10.301 -14.584 -10.618 -4.526 z" fill="#fff"/>
</g>
</svg>
