<svg viewBox="0 0 512 512" xmlns="http://www.w3.org/2000/svg">

<g transform="matrix(18.68858,0,0,18.68858,-7716.04435,-26544.86811)">
<path d="m424.37,1427.0872-.9958,3.7165-3.7163.9957-5.1079-5.1082 .9958-3.7165 3.7162-.9959z" stroke="#fff"/>
<path d="m440.1676,1430.3894-7.4435,1.6294 .9999,7.925 2.0738-5.7771 4.2958.3704" fill="none" stroke="#fff"/>
<path d="m423.507,1432.5898c-1.5296-1.5298.5257-3.0767 1.8011-1.8014l8.6704,8.671c1.3578,1.358-.6335,2.969-1.8011,1.8014z" stroke="#fff"/>
<path d="m431.4465,1447.4058-5.0179-6.4252 5.8511.5555-6.5547,2.7775 .5925,3.2959" fill="none" stroke="#fff"/>
<path d="m423.9104,1433.1297 1.8701-1.8701" fill="none" stroke="#fff"/>
<path d="m425.688,1434.4999 1.8701-1.8701" fill="none" stroke="#fff"/>
<path d="m427.2803,1436.0553 1.8701-1.8701" fill="none" stroke="#fff"/>
<path d="m428.9838,1437.5366 1.8701-1.8701" fill="none" stroke="#fff"/>
<path d="m430.2429,1439.4253 1.8701-1.8701" fill="none" stroke="#fff"/>
<path d="m431.502,1441.0918 1.8701-1.8701" fill="none" stroke="#fff"/>
<path d="m419.4718,1447.2978h20.425v-21.9962" fill="none" stroke="#000"/>
</g>
</svg>
