<svg viewBox="0 0 512 512" xmlns="http://www.w3.org/2000/svg">

<g transform="matrix(18.68858,0,0,18.68858,-7716.04435,-26544.86811)">
<path d="m 424.37 1427.09 -0.9958 3.7165 -3.7163 0.9957 -5.1079 -5.1082 0.9958 -3.7165 3.7162 -0.9959 z" stroke="#fff"/>
<path d="m 440.168 1430.39 -7.4435 1.6294 0.9999 7.925 2.0738 -5.7771 4.2958 0.3704" fill="none" stroke="#fff"/>
<path d="m 423.507 1432.59 c -1.5296 -1.5298 0.5257 -3.0767 1.8011 -1.8014 l 8.6704 8.671 c 1.3578 1.358 -0.6335 2.969 -1.8011 1.8014 z" stroke="#fff"/>
<path d="m 431.447 1447.41 -5.0179 -6.4252 5.8511 0.5555 -6.5547 2.7775 0.5925 3.2959" fill="none" stroke="#fff"/>
<path d="m 423.91 1433.13 1.8701 -1.8701" fill="none" stroke="#fff"/>
<path d="m 425.688 1434.5 1.8701 -1.8701" fill="none" stroke="#fff"/>
<path d="m 427.28 1436.06 1.8701 -1.8701" fill="none" stroke="#fff"/>
<path d="m 428.984 1437.54 1.8701 -1.8701" fill="none" stroke="#fff"/>
<path d="m 430.243 1439.43 1.8701 -1.8701" fill="none" stroke="#fff"/>
<path d="m 431.502 1441.09 1.8701 -1.8701" fill="none" stroke="#fff"/>
<path d="m 419.472 1447.3 h 20.425 v -21.9962" fill="none" stroke="#000"/>
</g>
</svg>
