<svg viewBox="0 0 512 512" xmlns="http://www.w3.org/2000/svg">

<g transform="matrix(18.68858,0,0,18.68858,-4314.08907,-21.37202)">
<path d="m 235.609 25.2475 c 1.1432 -2.6087 3.0757 -4.3999 5.1249 -6.4425 h 7.353 c 2.2615 2.3526 4.2249 4.0029 5.6562 6.7907 -3.5939 -0.6118 -7.0208 0.4622 -9.1442 2.3674 -1.8347 -1.9298 -5.2318 -3.183 -8.9899 -2.7156 z" fill="#fff" fill-rule="evenodd"/>
<path d="m 652.306 28.6042 c 0 4.906 -3.2647 8.883 -7.292 8.883 s -7.292 -3.9771 -7.292 -8.883 3.2647 -8.883 7.292 -8.883 7.292 3.9771 7.292 8.883 z" fill="#fff" stroke="#000" stroke-width=".7988" transform="matrix(1.25241,0,0,1.25135,-563.17146,-23.04503)"/>
<g transform="matrix(1.02635,0,0,-1.02602,373.46991,43.87321)">
<path d="m -135.029 26.4213 c 4.9234 -2.476 12.9197 -2.5502 18.9305 0 -0.7554 1.9528 -0.7997 3.9056 0 5.8584 -3.3478 0.1451 -6.3136 0.9977 -9.3327 2.5661 -3.1993 -1.4266 -6.2525 -2.2265 -9.5978 -2.5661 0.4808 -1.9528 0.5089 -3.9056 0 -5.8584 z" fill="#fff" stroke="#000" stroke-width=".9745"/>
<path d="m -125.661 25.9205 v 6.6625" fill="none" stroke="#000" stroke-width=".9745"/>
<path d="m -128.726 26.6986 v 5.3009" fill="none" stroke="#000" stroke-width=".9745"/>
<path d="m -131.645 27.0877 v 4.1337" fill="none" stroke="#000" stroke-width=".9745"/>
<path d="m -122.692 26.6986 v 5.3009" fill="none" stroke="#000" stroke-width=".9745"/>
<path d="m -119.773 27.0877 v 4.1337" fill="none" stroke="#000" stroke-width=".9745"/>
</g>
<path d="m 239.649 18.0292 1.5139 5.0487" fill="none" stroke="#000"/>
<path d="m 249.441 18.0292 -1.5139 5.0487" fill="none" stroke="#000"/>
</g>
</svg>
