<svg viewBox="0 0 512 512" xmlns="http://www.w3.org/2000/svg">

<g transform="matrix(18.68858,0,0,18.68858,-4314.08907,-21.37202)">
<path d="m235.6086,25.2475c1.1432-2.6087 3.0757-4.3999 5.1249-6.4425h7.353c2.2615,2.3526 4.2249,4.0029 5.6562,6.7907-3.5939-.6118-7.0208.4622-9.1442,2.3674-1.8347-1.9298-5.2318-3.183-8.9899-2.7156z" fill="#fff" fill-rule="evenodd"/>
<path d="m652.306,28.6042c0,4.906-3.2647,8.883-7.292,8.883s-7.292-3.9771-7.292-8.883 3.2647-8.883 7.292-8.883 7.292,3.9771 7.292,8.883z" fill="#fff" stroke="#000" stroke-width=".7988" transform="matrix(1.25241,0,0,1.25135,-563.17146,-23.04503)"/>
<g transform="matrix(1.02635,0,0,-1.02602,373.46991,43.87321)">
<path d="m-135.0285,26.4213c4.9234-2.476 12.9197-2.5502 18.9305,0-.7554,1.9528-.7997,3.9056 0,5.8584-3.3478.1451-6.3136.9977-9.3327,2.5661-3.1993-1.4266-6.2525-2.2265-9.5978-2.5661 .4808-1.9528.5089-3.9056 0-5.8584z" fill="#fff" stroke="#000" stroke-width=".9745"/>
<path d="m-125.6606,25.9205v6.6625" fill="none" stroke="#000" stroke-width=".9745"/>
<path d="m-128.726,26.6986v5.3009" fill="none" stroke="#000" stroke-width=".9745"/>
<path d="m-131.6454,27.0877v4.1337" fill="none" stroke="#000" stroke-width=".9745"/>
<path d="m-122.6925,26.6986v5.3009" fill="none" stroke="#000" stroke-width=".9745"/>
<path d="m-119.7731,27.0877v4.1337" fill="none" stroke="#000" stroke-width=".9745"/>
</g>
<path d="m239.6493,18.0292 1.5139,5.0487" fill="none" stroke="#000"/>
<path d="m249.4408,18.0292-1.5139,5.0487" fill="none" stroke="#000"/>
</g>
</svg>
