<svg viewBox="0 0 512 512" xmlns="http://www.w3.org/2000/svg">

<g transform="matrix(18.68858,0,0,18.68858,-4642.53945,-14782.10447)">
<path d="m253.5904,791.5565h16.5851c-4.1944,2.5461-5.0845,10.5964-5.0845,16.5156h-5.7233c0-6.025-2.1531-13.755-5.7772-16.5156z" fill="#fff"/>
<path d="m274.848,818.0117-7.2795-5.7077-3.181-3.3813-1.2949.7034-1.8547.3769-1.9508-1.0481-2.9205,3.5516-4.1215,2.7947-2.3489,2.6577" fill-rule="evenodd" stroke="#fff"/>
<path d="m264.4989,807.7177c1.3358-8.239 3.6621-13.8171 10.4361-16.2074" fill="none" stroke="#fff"/>
<path d="m260.2583,807.7177c-1.3358-8.239-3.6621-13.8171-10.4361-16.2074" fill="none" stroke="#fff"/>
<path d="m249.0168,791.5378h26.4168v26.4168h-26.4168z" fill="none" stroke="#000"/>
<path d="m256.0707,791.6588c2.0157,3.127 3.2798,6.9131 4.0011,11.4681-.1348-3.9789-.622-7.7747-2.0046-11.6071" fill-rule="evenodd"/>
<path d="m260.0625,806.6146c-2.5401-4.2028-6.8185-6.7281-10.5843-6.7822 4.2111,1.2124 7.1232,4.0662 8.8032,7.4673" fill="#fff" fill-rule="evenodd"/>
<path d="m268.9219,809.0625c1.9149-.4027 3.4739-.3535 5.6406.5938-3.0724-2.4602-6.887-2.7365-10.0938-.4688 1.1227,1.8128 1.8115,1.6769 3.6875,3.0625-1.0402-1.42-.5606-2.9086.7656-3.1875z" fill="#fff" fill-rule="evenodd"/>
<path d="m258.3813,806.3765h7.3753v3.2126h-7.3753z" fill="#fff"/>
<path d="m264.3648,806.6483c2.5697-3.2308 6.4269-5.3159 10.718-5.746-4.2202,1.5446-8.0413,4.5416-8.9613,9.0911" fill="#fff" fill-rule="evenodd"/>
<path d="m252.1815,812.1411c.9494-1.5867 2.2041-2.4946 3.4839-2.5839 1.5465-.108 1.7885,1.0166.4429,2.4741 1.2085-.5728 2.7318-1.7623 2.2667-3.5312-2.8492-.772-5.8192.6357-6.1935,3.6411z" fill="#fff" fill-rule="evenodd"/>
<path d="m260.4362,808.6092c-2.8613-4.0349-4.8562-5.0223-9.8423-5.132 5.4935,1.6558 6.636,2.7947 7.8313,6.2029" fill="#fff" fill-rule="evenodd"/>
<path d="m265.3597,791.7185c-1.5741,5.4627-2.2978,10.9255-2.8895,16.3882-.0378-5.529-.0228-11.0579.7073-16.5869" fill-rule="evenodd"/>
</g>
</svg>
