<svg viewBox="0 0 512 512" xmlns="http://www.w3.org/2000/svg">

<g transform="matrix(18.68858,0,0,18.68858,-4642.53945,-14782.10447)">
<path d="m 253.59 791.557 h 16.5851 c -4.1944 2.5461 -5.0845 10.5964 -5.0845 16.5156 h -5.7233 c 0 -6.025 -2.1531 -13.755 -5.7772 -16.5156 z" fill="#fff"/>
<path d="m 274.848 818.012 -7.2795 -5.7077 -3.181 -3.3813 -1.2949 0.7034 -1.8547 0.3769 -1.9508 -1.0481 -2.9205 3.5516 -4.1215 2.7947 -2.3489 2.6577" fill-rule="evenodd" stroke="#fff"/>
<path d="m 264.499 807.718 c 1.3358 -8.239 3.6621 -13.8171 10.4361 -16.2074" fill="none" stroke="#fff"/>
<path d="m 260.258 807.718 c -1.3358 -8.239 -3.6621 -13.8171 -10.4361 -16.2074" fill="none" stroke="#fff"/>
<path d="m 249.017 791.538 h 26.4168 v 26.4168 h -26.4168 z" fill="none" stroke="#000"/>
<path d="m 256.071 791.659 c 2.0157 3.127 3.2798 6.9131 4.0011 11.4681 -0.1348 -3.9789 -0.622 -7.7747 -2.0046 -11.6071" fill-rule="evenodd"/>
<path d="m 260.062 806.615 c -2.5401 -4.2028 -6.8185 -6.7281 -10.5843 -6.7822 4.2111 1.2124 7.1232 4.0662 8.8032 7.4673" fill="#fff" fill-rule="evenodd"/>
<path d="m 268.922 809.062 c 1.9149 -0.4027 3.4739 -0.3535 5.6406 0.5938 -3.0724 -2.4602 -6.887 -2.7365 -10.0938 -0.4688 1.1227 1.8128 1.8115 1.6769 3.6875 3.0625 -1.0402 -1.42 -0.5606 -2.9086 0.7656 -3.1875 z" fill="#fff" fill-rule="evenodd"/>
<path d="m 258.381 806.376 h 7.3753 v 3.2126 h -7.3753 z" fill="#fff"/>
<path d="m 264.365 806.648 c 2.5697 -3.2308 6.4269 -5.3159 10.718 -5.746 -4.2202 1.5446 -8.0413 4.5416 -8.9613 9.0911" fill="#fff" fill-rule="evenodd"/>
<path d="m 252.181 812.141 c 0.9494 -1.5867 2.2041 -2.4946 3.4839 -2.5839 1.5465 -0.108 1.7885 1.0166 0.4429 2.4741 1.2085 -0.5728 2.7318 -1.7623 2.2667 -3.5312 -2.8492 -0.772 -5.8192 0.6357 -6.1935 3.6411 z" fill="#fff" fill-rule="evenodd"/>
<path d="m 260.436 808.609 c -2.8613 -4.0349 -4.8562 -5.0223 -9.8423 -5.132 5.4935 1.6558 6.636 2.7947 7.8313 6.2029" fill="#fff" fill-rule="evenodd"/>
<path d="m 265.36 791.718 c -1.5741 5.4627 -2.2978 10.9255 -2.8895 16.3882 -0.0378 -5.529 -0.0228 -11.0579 0.7073 -16.5869" fill-rule="evenodd"/>
</g>
</svg>
