<svg viewBox="0 0 512 512" xmlns="http://www.w3.org/2000/svg">

<g transform="matrix(18.68858,0,0,18.68858,-9760.05695,-34717.26585)">
<path d="m546.985,1870.4529c0,4.896-4.7323,8.8651-10.5699,8.8651s-10.5699-3.9691-10.5699-8.8651 4.7323-8.8651 10.5699-8.8651 10.5699,3.969 10.5699,8.8651z" fill="#fff" stroke="#000" stroke-width=".8648" transform="matrix(1.0435,0,0,1.28141,-23.78995,-527.19775)"/>
<path d="m539.4989,1884.6401v-5.8688c0-3.235 1.2154-3.8623 2.6327-3.8623 .6588,0 1.6138-.4979 1.8839-.9656 1.0294-1.783-2.9966-5.0438-8.4368-5.0438s-8.6814,3.1627-7.652,4.9457c.3964.6866.9882,1.1527 1.7835,1.195 1.265.067 2.6978.8231 2.6978,3.731v5.8688z" fill="#fff" stroke="#000"/>
<path d="m535.9618,1872.5116c-3.8584,0-6.2663.8992-6.2663,2.1964l-2.0523-1.0987 1.9235-3.595 3.2715-1.131h5.6972l4.0553,1.797 1.7885,2.8335-2.1402,1.2026c-.0109-1.4033-2.4188-2.2048-6.2772-2.2048z"/>
<path d="m528.1899,1865.0257c2.2407-1.3965 4.2121-1.3783 5.9058-.6264l-4.4976,2.4546" fill="none" stroke="#000"/>
<path d="m543.5686,1865.0257c-2.2407-1.3965-4.2121-1.3783-5.9058-.6264l4.4976,2.4546" fill="none" stroke="#000"/>
</g>
</svg>
