<svg viewBox="0 0 512 512" xmlns="http://www.w3.org/2000/svg">

<g transform="matrix(18.68858,0,0,18.68858,-5673.86408,-17932.91589)">
<path d="m 326.282 977.012 -7.6186 -2.0191 -0.5268 1.9446 7.6186 2.0191 c 3.1681 0.0796 0.5268 -1.9446 0.5268 -1.9446 z" fill="#fff" stroke="#000"/>
<path d="m 324.736 968.973 c -1.1556 1.544 -5.0065 1.8213 -8.1939 0.5442 -3.3316 -1.3349 -3.8195 -2.0519 -6.3848 -5.1345 -2.2817 -2.7418 -5.7115 0.488 -3.2028 2.8859 2.6574 2.54 6.0051 5.0723 5.5444 7.4214 -0.6743 3.4383 -5.6943 3.043 -5.4863 8.8789 0.1412 3.964 6.244 3.8568 4.7681 -0.5309 -0.4205 -1.25 1.3069 -2.9311 2.8342 -2.5897 1.3378 0.2991 0.5444 3.635 2.577 5.0885 3.5442 2.5343 7.5675 -0.5014 3.6163 -3.4804 -1.6829 -1.2688 -0.961 -4.9577 0.0259 -6.5534 0.813 -1.3146 5.7422 -0.4477 7.8293 -4.1242 2.0368 -3.588 -1.693 -5.3913 -3.9274 -2.4059 z" fill="#fff" fill-rule="evenodd" stroke="#000"/>
<path d="m 323.401 961.281 c 2.3497 -0.9172 4.7999 0.472 5.4002 1.8334 -0.7847 -0.4015 -1.2889 -0.6113 -2.1834 -0.6834 0.792 0.5414 1.3259 1.2409 1.5834 2.3168 -0.6878 -0.5344 -1.3528 -1.0917 -2.2167 -1.4501 0.4207 0.8249 0.6128 1.6826 0.4333 2.5668 -0.8093 -1.4575 -1.7174 -2.4161 -3.2834 -3.1168" fill="#fff" fill-rule="evenodd"/>
<path d="m 323.77 961.343 c 1.8958 4.9925 -3.2222 10.7055 -6.887 10.2584 -5.0198 -6.6667 1.3367 -13.1546 6.887 -10.2584 z" fill="#fff" fill-rule="evenodd"/>
<path d="m 320.166 965.524 c 0 0.8409 -0.6817 1.5225 -1.5225 1.5225 s -1.5225 -0.6817 -1.5225 -1.5225 0.6817 -1.5225 1.5225 -1.5225 1.5225 0.6816 1.5225 1.5225 z" transform="matrix(.69643,0,0,.69643,97.13722,292.18296)"/>
<path d="m 320.166 965.524 c 0 0.8409 -0.6817 1.5225 -1.5225 1.5225 s -1.5225 -0.6817 -1.5225 -1.5225 0.6817 -1.5225 1.5225 -1.5225 1.5225 0.6816 1.5225 1.5225 z" transform="matrix(.69643,0,0,.69643,99.5267,293.95292)"/>
<path d="m 314.918 973.967 -7.6186 -2.0191 -1.3379 -2.2565 c -1.6418 1.4787 -1.7102 3.4415 -1.4882 5.4936 l 2.2993 -1.2925 7.6186 2.0191 c 0.6705 -0.6482 0.7225 -1.2964 0.5268 -1.9446 z" fill="#fff" stroke="#000"/>
<path d="m 325.899 978.429 3.0043 0.3398 -2.814 -1.237" fill="#fff" fill-rule="evenodd"/>
<path d="m 324.533 965.082 c -0.1848 0.8972 -0.5367 1.7943 -1.0349 2.6915" fill="none" stroke="#000"/>
<path d="m 316.171 966.658 -1.4226 1.3457" fill="none" stroke="#000"/>
<path d="m 317.555 967.794 -1.1197 1.4789" fill="none" stroke="#000"/>
<path d="m 319.134 968.542 -0.5402 1.6918" fill="none" stroke="#000"/>
<path d="m 320.83 968.87 -0.005 1.703" fill="none" stroke="#000"/>
</g>
</svg>
