<svg viewBox="0 0 512 512" xmlns="http://www.w3.org/2000/svg">

<g transform="matrix(18.68858,0,0,18.68858,-5673.86408,-17932.91589)">
<path d="m326.2822,977.012-7.6186-2.0191-.5268,1.9446 7.6186,2.0191c3.1681.0796.5268-1.9446.5268-1.9446z" fill="#fff" stroke="#000"/>
<path d="m324.7364,968.9734c-1.1556,1.544-5.0065,1.8213-8.1939.5442-3.3316-1.3349-3.8195-2.0519-6.3848-5.1345-2.2817-2.7418-5.7115.488-3.2028,2.8859 2.6574,2.54 6.0051,5.0723 5.5444,7.4214-.6743,3.4383-5.6943,3.043-5.4863,8.8789 .1412,3.964 6.244,3.8568 4.7681-.5309-.4205-1.25 1.3069-2.9311 2.8342-2.5897 1.3378.2991.5444,3.635 2.577,5.0885 3.5442,2.5343 7.5675-.5014 3.6163-3.4804-1.6829-1.2688-.961-4.9577.0259-6.5534 .813-1.3146 5.7422-.4477 7.8293-4.1242 2.0368-3.588-1.693-5.3913-3.9274-2.4059z" fill="#fff" fill-rule="evenodd" stroke="#000"/>
<path d="m323.4009,961.281c2.3497-.9172 4.7999.472 5.4002,1.8334-.7847-.4015-1.2889-.6113-2.1834-.6834 .792.5414 1.3259,1.2409 1.5834,2.3168-.6878-.5344-1.3528-1.0917-2.2167-1.4501 .4207.8249.6128,1.6826.4333,2.5668-.8093-1.4575-1.7174-2.4161-3.2834-3.1168" fill="#fff" fill-rule="evenodd"/>
<path d="m323.7698,961.343c1.8958,4.9925-3.2222,10.7055-6.887,10.2584-5.0198-6.6667 1.3367-13.1546 6.887-10.2584z" fill="#fff" fill-rule="evenodd"/>
<path d="m320.1658,965.5237c0,.8409-.6817,1.5225-1.5225,1.5225s-1.5225-.6817-1.5225-1.5225 .6817-1.5225 1.5225-1.5225 1.5225.6816 1.5225,1.5225z" transform="matrix(.69643,0,0,.69643,97.13722,292.18296)"/>
<path d="m320.1658,965.5237c0,.8409-.6817,1.5225-1.5225,1.5225s-1.5225-.6817-1.5225-1.5225 .6817-1.5225 1.5225-1.5225 1.5225.6816 1.5225,1.5225z" transform="matrix(.69643,0,0,.69643,99.5267,293.95292)"/>
<path d="m314.9176,973.967-7.6186-2.0191-1.3379-2.2565c-1.6418,1.4787-1.7102,3.4415-1.4882,5.4936l2.2993-1.2925 7.6186,2.0191c.6705-.6482.7225-1.2964.5268-1.9446z" fill="#fff" stroke="#000"/>
<path d="m325.899,978.4287 3.0043.3398-2.814-1.237" fill="#fff" fill-rule="evenodd"/>
<path d="m324.5325,965.0815c-.1848.8972-.5367,1.7943-1.0349,2.6915" fill="none" stroke="#000"/>
<path d="m316.1713,966.658-1.4226,1.3457" fill="none" stroke="#000"/>
<path d="m317.5555,967.7936-1.1197,1.4789" fill="none" stroke="#000"/>
<path d="m319.1338,968.542-.5402,1.6918" fill="none" stroke="#000"/>
<path d="m320.8303,968.8702-.005,1.703" fill="none" stroke="#000"/>
</g>
</svg>
