<svg viewBox="0 0 512 512" xmlns="http://www.w3.org/2000/svg">

<g transform="matrix(18.68858,0,0,18.68858,-5911.22773,-8505.93451)">
<path d="m317.3278,456.0778v8.1366c2.6787,5.0046 7.5675,8.4141 13.0377,9.3262-3.9959-1.9139-7.1863-5.5231-8.4221-10.1351-.6661-2.4859-.6559-4.9736-.1427-7.3277h-4.4728z" fill="#fff"/>
<path d="m331.3724,456.0778c-3.4231,3.7893-5.0845,8.8714-4.5984,13.8899 .8115-4.339 3.4653-8.3353 7.5849-10.7137 2.6528-1.5316 5.5804-2.1938 8.4383-2.0859v-1.0903h-11.4248z" fill="#fff"/>
<path d="m339.1519,462.8381c-3.8231-.0501-7.6185,1.1274-10.7464,3.3612 4.1577-1.4647 8.9047-1.1444 13.0188,1.2309 .476.2748.9398.5827 1.3729.8995v-5.0655c-1.2137-.2769-2.4196-.41-3.6452-.4261z" fill="#fff"/>
<path d="m334.6072,468.1497c.0738.9572.0553,1.933-.0473,2.8878-2.8651,3.2287-7.0396,5.2548-11.6932,5.2548-1.9675,0-3.8137-.4176-5.5389-1.0888v6.1543c.365.0245.7182.0473 1.0888.0473 7.1005-1e-05 13.1761-4.1499 16.0959-10.1309l.0947-3.1245z" fill="#fff"/>
<path d="m332.4688,468.9716c0,.9924-.8045,1.7969-1.7969,1.7969s-1.7969-.8045-1.7969-1.7969 .8045-1.7969 1.7969-1.7969 1.7969.8045 1.7969,1.7969z" stroke="#fff" stroke-width=".4976" transform="matrix(1.8646184e-8,-2.00971,-2.00971,-1.8646184e-8,1273.3176,1134.026)"/>
<path d="m334.0433,455.6562c-1.3723,1.3367-2.5807,2.8251-3.5562,4.4688 1.9746-1.9838 4.3962-3.5298 7.025-4.4688h-3.4688z"/>
<path d="m317.125,477.0625v2.7188c3.8196.0526 7.2012-.8398 9.6875-2.6562-1.0621.3121-2.1672.4869-3.375.5625-1.9612.1227-4.108-.0949-6.3125-.625z"/>
<path d="m334.6361,468.1394c.1227,1.0451.0261,2.0911-.0937,3.125-.3882,3.348-1.8705,6.5581-4.4375,9.125-.4118.4118-.8375.8004-1.2812,1.1562h14c-.1621-7.0932-4.401-13.1311-10.5-15.9062 .8796.7537 1.6217,1.5708 2.3125,2.5z" fill="#fff"/>
<path d="m335.0732,468.2812c.444,1.1739.7301,2.3581.9058,3.5938 .4761,3.3494-.0815,6.8577-1.7397,10.0312h4.625c.4797-4.8003-.8728-9.6822-3.7911-13.625z"/>
<path d="m332.6909,469.8438c4e-05,1.3734-1.1123,2.4858-2.4858,2.4858-1.2996,2e-05-2.3397-1.0048-2.4508-2.2757 .3471.6103.9988,1.0153 1.7506,1.0153 1.1138,0 2.0306-.8819 2.0306-1.9956 1e-05-.6961-.3736-1.3178-.9103-1.6805 1.1816.1931 2.0657,1.2149 2.0656,2.4508z" fill="#fff"/>
</g>
</svg>
