<svg viewBox="0 0 512 512" xmlns="http://www.w3.org/2000/svg">

<g transform="matrix(18.68858,0,0,18.68858,-5911.22773,-8505.93451)">
<path d="m 317.328 456.078 v 8.1366 c 2.6787 5.0046 7.5675 8.4141 13.0377 9.3262 -3.9959 -1.9139 -7.1863 -5.5231 -8.4221 -10.1351 -0.6661 -2.4859 -0.6559 -4.9736 -0.1427 -7.3277 h -4.4728 z" fill="#fff"/>
<path d="m 331.372 456.078 c -3.4231 3.7893 -5.0845 8.8714 -4.5984 13.8899 0.8115 -4.339 3.4653 -8.3353 7.5849 -10.7137 2.6528 -1.5316 5.5804 -2.1938 8.4383 -2.0859 v -1.0903 h -11.4248 z" fill="#fff"/>
<path d="m 339.152 462.838 c -3.8231 -0.0501 -7.6185 1.1274 -10.7464 3.3612 4.1577 -1.4647 8.9047 -1.1444 13.0188 1.2309 0.476 0.2748 0.9398 0.5827 1.3729 0.8995 v -5.0655 c -1.2137 -0.2769 -2.4196 -0.41 -3.6452 -0.4261 z" fill="#fff"/>
<path d="m 334.607 468.15 c 0.0738 0.9572 0.0553 1.933 -0.0473 2.8878 -2.8651 3.2287 -7.0396 5.2548 -11.6932 5.2548 -1.9675 0 -3.8137 -0.4176 -5.5389 -1.0888 v 6.1543 c 0.365 0.0245 0.7182 0.0473 1.0888 0.0473 7.1005 -1e-05 13.1761 -4.1499 16.0959 -10.1309 l 0.0947 -3.1245 z" fill="#fff"/>
<path d="m 332.469 468.972 c 0 0.9924 -0.8045 1.7969 -1.7969 1.7969 s -1.7969 -0.8045 -1.7969 -1.7969 0.8045 -1.7969 1.7969 -1.7969 1.7969 0.8045 1.7969 1.7969 z" stroke="#fff" stroke-width=".4976" transform="matrix(1.8646184e-8,-2.00971,-2.00971,-1.8646184e-8,1273.3176,1134.026)"/>
<path d="m 334.043 455.656 c -1.3723 1.3367 -2.5807 2.8251 -3.5562 4.4688 1.9746 -1.9838 4.3962 -3.5298 7.025 -4.4688 h -3.4688 z"/>
<path d="m 317.125 477.062 v 2.7188 c 3.8196 0.0526 7.2012 -0.8398 9.6875 -2.6562 -1.0621 0.3121 -2.1672 0.4869 -3.375 0.5625 -1.9612 0.1227 -4.108 -0.0949 -6.3125 -0.625 z"/>
<path d="m 334.636 468.139 c 0.1227 1.0451 0.0261 2.0911 -0.0937 3.125 -0.3882 3.348 -1.8705 6.5581 -4.4375 9.125 -0.4118 0.4118 -0.8375 0.8004 -1.2812 1.1562 h 14 c -0.1621 -7.0932 -4.401 -13.1311 -10.5 -15.9062 0.8796 0.7537 1.6217 1.5708 2.3125 2.5 z" fill="#fff"/>
<path d="m 335.073 468.281 c 0.444 1.1739 0.7301 2.3581 0.9058 3.5938 0.4761 3.3494 -0.0815 6.8577 -1.7397 10.0312 h 4.625 c 0.4797 -4.8003 -0.8728 -9.6822 -3.7911 -13.625 z"/>
<path d="m 332.691 469.844 c 4e-05 1.3734 -1.1123 2.4858 -2.4858 2.4858 -1.2996 2e-05 -2.3397 -1.0048 -2.4508 -2.2757 0.3471 0.6103 0.9988 1.0153 1.7506 1.0153 1.1138 0 2.0306 -0.8819 2.0306 -1.9956 1e-05 -0.6961 -0.3736 -1.3178 -0.9103 -1.6805 1.1816 0.1931 2.0657 1.2149 2.0656 2.4508 z" fill="#fff"/>
</g>
</svg>
