<svg viewBox="0 0 512 512" xmlns="http://www.w3.org/2000/svg">

<g transform="matrix(18.68858,0,0,18.68858,-6362.49324,-38102.7044)">
<path d="m354.0903,2045.4979c-2.0269,2.0259-7.6056,14.9386-7.6056,14.9386s10.5572-4.3569 12.5841-6.3829 4.3888-6.5298 2.3619-8.5559-5.3134-2.0258-7.3404.0002z" fill="#fff"/>
<path d="m356.8196,2055.5484-6.5465.8698c-.2429,4.6278 3.75,6.8325 6.5465-.8698z" fill="#fff"/>
<path d="m354.4683,2057.1275-2.0469,3.0755 2.2786,4.2183" fill="none" stroke="#fff"/>
<path d="m357.7204,2065.1076h-6.9297c1.9426-1.854 5.3376-2.0687 6.9297,0z" fill="#fff"/>
<path d="m343.7716,2064.3425 8.7556-7.1921-.4103-2.0472-10.8184,5.89 2.5023-.068-2.3352,2.5694 2.5011-.9111z" fill="#fff"/>
<path d="m352.3283,2045.3732c0,1.7108-1.3869,3.0977-3.0977,3.0977s-3.0977-1.3869-3.0977-3.0977 1.3869-3.0977 3.0977-3.0977 3.0977,1.3869 3.0977,3.0977z" fill="#fff" transform="matrix(-1.07505,0,0,1.07452,735.32164,-154.14123)"/>
<path d="m361.8148,2043.1069c2.1212.2721 5.1525.9562 4.7617,4.3045-1.1547-1.6696-2.7447-1.4031-4.9903-1.1046" fill="#fff"/>
<path d="m349.8158,2056.7064-3.8475.2285 2.0571-1.3714-3.9618.1905 4.5332-2.3237-1.7142-.038 4.7998-3.6569" fill="#fff"/>
<path d="m360.7868,2044.1544c0,.6627-.5372,1.2-1.2,1.2s-1.2-.5373-1.2-1.2 .5372-1.1999 1.2-1.1999 1.2.5372 1.2,1.1999z" stroke="#fff" stroke-width=".7975" transform="matrix(1.25397,0,0,1.25397,-89.34276,-519.3789)"/>
</g>
</svg>
