<svg viewBox="0 0 512 512" xmlns="http://www.w3.org/2000/svg">

<g transform="matrix(18.68858,0,0,18.68858,-6362.49324,-38102.7044)">
<path d="m 354.09 2045.5 c -2.0269 2.0259 -7.6056 14.9386 -7.6056 14.9386 s 10.5572 -4.3569 12.5841 -6.3829 4.3888 -6.5298 2.3619 -8.5559 -5.3134 -2.0258 -7.3404 0.0002 z" fill="#fff"/>
<path d="m 356.82 2055.55 -6.5465 0.8698 c -0.2429 4.6278 3.75 6.8325 6.5465 -0.8698 z" fill="#fff"/>
<path d="m 354.468 2057.13 -2.0469 3.0755 2.2786 4.2183" fill="none" stroke="#fff"/>
<path d="m 357.72 2065.11 h -6.9297 c 1.9426 -1.854 5.3376 -2.0687 6.9297 0 z" fill="#fff"/>
<path d="m 343.772 2064.34 8.7556 -7.1921 -0.4103 -2.0472 -10.8184 5.89 2.5023 -0.068 -2.3352 2.5694 2.5011 -0.9111 z" fill="#fff"/>
<path d="m 352.328 2045.37 c 0 1.7108 -1.3869 3.0977 -3.0977 3.0977 s -3.0977 -1.3869 -3.0977 -3.0977 1.3869 -3.0977 3.0977 -3.0977 3.0977 1.3869 3.0977 3.0977 z" fill="#fff" transform="matrix(-1.07505,0,0,1.07452,735.32164,-154.14123)"/>
<path d="m 361.815 2043.11 c 2.1212 0.2721 5.1525 0.9562 4.7617 4.3045 -1.1547 -1.6696 -2.7447 -1.4031 -4.9903 -1.1046" fill="#fff"/>
<path d="m 349.816 2056.71 -3.8475 0.2285 2.0571 -1.3714 -3.9618 0.1905 4.5332 -2.3237 -1.7142 -0.038 4.7998 -3.6569" fill="#fff"/>
<path d="m 360.787 2044.15 c 0 0.6627 -0.5372 1.2 -1.2 1.2 s -1.2 -0.5373 -1.2 -1.2 0.5372 -1.1999 1.2 -1.1999 1.2 0.5372 1.2 1.1999 z" stroke="#fff" stroke-width=".7975" transform="matrix(1.25397,0,0,1.25397,-89.34276,-519.3789)"/>
</g>
</svg>
