<svg viewBox="0 0 512 512" xmlns="http://www.w3.org/2000/svg">

<g transform="matrix(18.68858,0,0,18.68858,2603.71054,-6068.18417)">
<path d="m-117.442,331.2601c-5.0621,1.7037-10.911,7.2647-5.9785,12.1801 3.7653-1.314 9.4371,1.1996 9.0264,6.8643h-12.2846c-.8465-2.1562-2.7298-3.8615-5.4593-5.4049-.238.1485-.4578.4429-.549.7625-2.0973-.3165-4.4909-1.7965-4.875-3.2819 .3196-2.0647 1.841-4.609 3.9361-6.711 3.0717-3.0819 5.1134-6.5909 6.7275-9.5505 4.3937-1.5694 7.5854,1.6654 9.4563,5.1414z" fill="#fff"/>
<path d="m-122.8176,341.9497c-.9302-4.5236 1.3036-7.9147 7.6591-8.2961-3.2891-12.0386-15.5214-1.6027-12.6277,7.1623 .7335,2.2217 5.3587,3.0308 4.9686,1.1338z" fill="#fff" fill-rule="evenodd" stroke="#000"/>
<path d="m-136.7431,338.0328c-1.6125,4.3711 7.4058,4.0629 11.3829,10.3057l11.8218.002" fill="none" stroke="#000"/>
</g>
</svg>
