<svg viewBox="0 0 512 512" xmlns="http://www.w3.org/2000/svg">

<g transform="matrix(18.68858,0,0,18.68858,-11803.53549,-17252.09542)">
<path d="m 652.175 933.844 c 0.705 -1.5141 1.7636 -2.416 3.1289 -2.7867 1.6996 1.4828 3.312 3.0688 2.2609 6.2505 -2.2615 0.0354 -4.0068 -1.2507 -5.3898 -3.4639 z" fill="#fff" fill-rule="evenodd"/>
<path d="m 649.609 948.422 c 0.6551 -0.5085 1.2881 -1.2849 1.4963 -2.0856 0.3368 0.544 1.4294 1.0158 1.7933 -0.5273 1.1095 0.5444 4.1425 -0.1061 5.3162 -0.8342 -1.2052 4.5747 -7.1669 4.6927 -8.6058 3.447 z" fill="#fff" fill-rule="evenodd"/>
<path d="m 656.926 933.716 c -1.3775 -2.4502 -3.8096 -4.3465 -6.5431 -4.3595" fill="none" stroke="#fff"/>
<path d="m 653.854 930.019 c 0 0.6465 -0.5241 1.1705 -1.1705 1.1705 s -1.1705 -0.5241 -1.1705 -1.1705 0.5241 -1.1705 1.1705 -1.1705 1.1705 0.5241 1.1705 1.1705 z" transform="translate(2.2794,3.5463)"/>
<path d="m 653.423 947.976 c -14.6015 2.5681 -13.9749 -9.4786 -7.7011 -10.3737 9.4148 1.6335 0.0921 6.708 7.7011 10.3737 z" fill="#fff" fill-rule="evenodd"/>
<path d="m 646.865 931.146 c 0 1.3399 -1.2395 2.426 -2.7685 2.426 s -2.7685 -1.0862 -2.7685 -2.426 1.2395 -2.426 2.7685 -2.426 2.7685 1.0862 2.7685 2.426 z" fill="#fff" transform="matrix(1.08469,-.7779,.62084,.86569,-627.1441,630.07916)"/>
<path d="m 657.359 935.272 c 0.0359 -3.1467 -1.4198 -6.353 -4.3849 -7.4751" fill="none" stroke="#fff"/>
<path d="m 640.604 927.858 c 1.589 -1.9797 4.515 -2.9465 6.3202 -0.554 1.3028 1.7267 2.3165 3.373 3.1996 5.1018" fill="none" stroke="#fff"/>
<path d="m 649.834 933.801 c -3.9207 -3.4592 -7.8358 -6.4937 -12.2729 -6.907 -4.6644 -0.4346 -6.4714 7.9901 -1.37 8.6195 4.1131 0.5075 7.4398 0.2437 11.5308 -0.3996" fill="none" stroke="#fff"/>
<path d="m 652.602 931.854 c -0.4262 1.332 -0.2735 2.664 0.4844 3.996" fill="none" stroke="#000"/>
<path d="m 645.883 937.209 c 1.4503 1.0827 3.0854 1.365 4.9136 0.8107" fill="none" stroke="#000"/>
<path d="m 650.736 941.12 c -4.1577 1.1532 -7.1561 0.4054 -8.9428 -2.3294" fill="none" stroke="#000"/>
<path d="m 641.173 943.345 c 3.5739 2.7418 6.7409 2.718 9.4825 -0.1964" fill="none" stroke="#000"/>
<path d="m 645.032 948.163 c 3.1897 0.7497 5.3303 0.111 6.3742 -1.9789" fill="none" stroke="#000"/>
<path d="m 637.122 929.907 11.1151 3.9119" fill="none" stroke="#fff"/>
<path d="m 637.014 927.02 0.3777 6.1781" fill="none" stroke="#fff"/>
<path d="m 633.237 931.445 4.1007 1.6187 2.2662 2.6439" fill="none" stroke="#fff"/>
<path d="m 641.334 935.94 2.9137 -3.1835" fill="none" stroke="#fff"/>
</g>
</svg>
