<svg viewBox="0 0 512 512" xmlns="http://www.w3.org/2000/svg">

<g transform="matrix(18.68858,0,0,18.68858,-11803.53549,-17252.09542)">
<path d="m652.1747,933.8439c.705-1.5141 1.7636-2.416 3.1289-2.7867 1.6996,1.4828 3.312,3.0688 2.2609,6.2505-2.2615.0354-4.0068-1.2507-5.3898-3.4639z" fill="#fff" fill-rule="evenodd"/>
<path d="m649.6089,948.4217c.6551-.5085 1.2881-1.2849 1.4963-2.0856 .3368.544 1.4294,1.0158 1.7933-.5273 1.1095.5444 4.1425-.1061 5.3162-.8342-1.2052,4.5747-7.1669,4.6927-8.6058,3.447z" fill="#fff" fill-rule="evenodd"/>
<path d="m656.9261,933.7164c-1.3775-2.4502-3.8096-4.3465-6.5431-4.3595" fill="none" stroke="#fff"/>
<path d="m653.8538,930.0194c0,.6465-.5241,1.1705-1.1705,1.1705s-1.1705-.5241-1.1705-1.1705 .5241-1.1705 1.1705-1.1705 1.1705.5241 1.1705,1.1705z" transform="translate(2.2794,3.5463)"/>
<path d="m653.4225,947.9757c-14.6015,2.5681-13.9749-9.4786-7.7011-10.3737 9.4148,1.6335.0921,6.708 7.7011,10.3737z" fill="#fff" fill-rule="evenodd"/>
<path d="m646.8655,931.1462c0,1.3399-1.2395,2.426-2.7685,2.426s-2.7685-1.0862-2.7685-2.426 1.2395-2.426 2.7685-2.426 2.7685,1.0862 2.7685,2.426z" fill="#fff" transform="matrix(1.08469,-.7779,.62084,.86569,-627.1441,630.07916)"/>
<path d="m657.3591,935.2717c.0359-3.1467-1.4198-6.353-4.3849-7.4751" fill="none" stroke="#fff"/>
<path d="m640.6042,927.8584c1.589-1.9797 4.515-2.9465 6.3202-.554 1.3028,1.7267 2.3165,3.373 3.1996,5.1018" fill="none" stroke="#fff"/>
<path d="m649.8338,933.8006c-3.9207-3.4592-7.8358-6.4937-12.2729-6.907-4.6644-.4346-6.4714,7.9901-1.37,8.6195 4.1131.5075 7.4398.2437 11.5308-.3996" fill="none" stroke="#fff"/>
<path d="m652.6025,931.8542c-.4262,1.332-.2735,2.664.4844,3.996" fill="none" stroke="#000"/>
<path d="m645.8832,937.2087c1.4503,1.0827 3.0854,1.365 4.9136.8107" fill="none" stroke="#000"/>
<path d="m650.7364,941.1197c-4.1577,1.1532-7.1561.4054-8.9428-2.3294" fill="none" stroke="#000"/>
<path d="m641.1733,943.3452c3.5739,2.7418 6.7409,2.718 9.4825-.1964" fill="none" stroke="#000"/>
<path d="m645.0319,948.1625c3.1897.7497 5.3303.111 6.3742-1.9789" fill="none" stroke="#000"/>
<path d="m637.122,929.9072 11.1151,3.9119" fill="none" stroke="#fff"/>
<path d="m637.0141,927.0205 .3777,6.1781" fill="none" stroke="#fff"/>
<path d="m633.2371,931.445 4.1007,1.6187 2.2662,2.6439" fill="none" stroke="#fff"/>
<path d="m641.334,935.9403 2.9137-3.1835" fill="none" stroke="#fff"/>
</g>
</svg>
