<svg viewBox="0 0 512 512" xmlns="http://www.w3.org/2000/svg">

<g transform="matrix(18.68858,0,0,18.68858,-2741.06249,-12900.0327)">
<path d="m 154.699 698.57 c 4.075 4.8195 5.6895 10.0016 3.5765 11.5771 -1.1566 0.8624 -3.1821 0.3888 -5.4464 -0.9419 0.5921 0.7843 1.2532 1.5894 1.9861 2.3223 5.5234 5.5234 12.8689 7.113 16.4116 3.5704 s 1.953 -10.8882 -3.5704 -16.4116 c -0.7329 -0.7329 -1.5379 -1.394 -2.3223 -1.9861 1.3307 2.2643 1.8043 4.2898 0.9419 5.4464 -1.5755 2.113 -6.7576 0.4985 -11.5771 -3.5765 z" fill="#fff"/>
<path d="m 154.688 698.143 c 0 0.6731 -0.5457 1.2188 -1.2188 1.2188 s -1.2188 -0.5456 -1.2188 -1.2188 0.5456 -1.2188 1.2188 -1.2188 1.2188 0.5457 1.2188 1.2188 z" fill="#fff" transform="matrix(2.24189,1.37362,-1.08507,1.60206,573.65965,-631.1525)"/>
<path d="m 154.688 698.143 c 0 0.6731 -0.5457 1.2188 -1.2188 1.2188 s -1.2188 -0.5456 -1.2188 -1.2188 0.5456 -1.2188 1.2188 -1.2188 1.2188 0.5457 1.2188 1.2188 z" fill="#fff" transform="matrix(1.26051,0,0,1.26051,-43.06903,-175.80538)"/>
<path d="m 159.5 704.281 c -2.784 1.8625 -7.3115 -1.1344 -10.0938 -6.7188 -0.5092 -1.0221 -0.9033 -2.0657 -1.2188 -3.0938 2.5023 -3.7149 9.968 -2.1361 14.0938 0.2188 -2.6058 -2.2533 -4.8812 -3.4785 -8.7188 -3.6875 h -6 v 5.4375 c 1.0718 5.9951 4.472 11.8314 12.0625 12.375" fill="#fff"/>
<path d="m 152.75 693.893 c 0 1.1218 -0.9094 2.0312 -2.0312 2.0312 s -2.0312 -0.9094 -2.0312 -2.0312 0.9094 -2.0312 2.0312 -2.0312 2.0312 0.9094 2.0312 2.0312 z" fill="#fff" transform="matrix(.81067,0,0,1.34453,27.15257,-237.68259)"/>
<path d="m 155.724 711.229 c 0.7805 0.6938 1.5835 1.1179 2.3248 1.1274 1.9767 0.0252 2.713 -2.8057 1.6437 -6.319 -0.7665 -2.5183 -2.2606 -4.7138 -3.7694 -5.7608 0.8515 1.2697 1.5901 2.8873 2.0328 4.6409 0.9507 3.7659 0.1835 6.6626 -1.7065 6.4526 -0.1734 -0.0192 -0.3464 -0.0729 -0.5254 -0.1411 z"/>
<path d="m 149.995 708.642 c 0 0.5004 -0.4056 0.906 -0.906 0.906 s -0.906 -0.4056 -0.906 -0.906 0.4056 -0.906 0.906 -0.906 0.906 0.4056 0.906 0.906 z" fill="#fff" transform="translate(.8397)"/>
<path d="m 149.995 708.642 c 0 0.5004 -0.4056 0.906 -0.906 0.906 s -0.906 -0.4056 -0.906 -0.906 0.4056 -0.906 0.906 -0.906 0.906 0.4056 0.906 0.906 z" fill="#fff" transform="translate(18.0754,-16.1751)"/>
<path d="m 149.995 708.642 c 0 0.5004 -0.4056 0.906 -0.906 0.906 s -0.906 -0.4056 -0.906 -0.906 0.4056 -0.906 0.906 -0.906 0.906 0.4056 0.906 0.906 z" fill="#fff" transform="matrix(1.87805,0,0,1.87805,-111.17476,-635.63517)"/>
<path d="m 155.969 693.625 c -1.2444 0.002 -2.3233 0.3695 -3.0312 1.125 -1.3947 2.0568 -0.7924 4.3895 0.5625 6.1562 0.7106 0.9266 1.9062 1.0938 2.4062 0.5938 s 0.2357 -1.5768 -0.5938 -2.4062 c -0.4997 -0.4997 -1.094 -0.797 -1.5938 -0.8438 0.1066 -0.1787 0.2292 -0.3444 0.375 -0.5 1.8878 -2.0146 6.3 -1.2225 9.875 1.75 1.1749 0.9769 2.0888 2.0886 2.75 3.1875 -0.2208 -1.9595 -1.6034 -4.2988 -3.875 -6.1875 -2.2344 -1.8578 -4.801 -2.8779 -6.875 -2.875 z" fill="#fff"/>
<path d="m 168.664 704.793 c 1.2227 2.2756 0.9858 5.0767 -0.8371 6.8996 s -4.6329 2.0838 -6.9048 0.8736 c 0.2907 0.5409 0.6449 1.0608 1.1045 1.5205 2.3932 2.3932 6.1638 2.5237 8.4201 0.2674 s 2.1622 -6.0321 -0.2309 -8.4253 c -0.4682 -0.4682 -0.9995 -0.8429 -1.5517 -1.1358 z"/>
<path d="m 149.995 708.642 c 0 0.5004 -0.4056 0.906 -0.906 0.906 s -0.906 -0.4056 -0.906 -0.906 0.4056 -0.906 0.906 -0.906 0.906 0.4056 0.906 0.906 z" transform="matrix(1.79334,0,0,1.79334,-98.99217,-561.32112)"/>
<path d="m 149.995 708.642 c 0 0.5004 -0.4056 0.906 -0.906 0.906 s -0.906 -0.4056 -0.906 -0.906 0.4056 -0.906 0.906 -0.906 0.906 0.4056 0.906 0.906 z" transform="matrix(1.17073,0,0,1.17073,-7.29887,-123.30664)"/>
</g>
</svg>
