<svg viewBox="0 0 512 512" xmlns="http://www.w3.org/2000/svg">

<g transform="matrix(18.68858,0,0,18.68858,-13169.75431,-38781.64612)">
<path d="m709.1325,2088.7117c1.4397-.063 3.6908-.7095 2.485-4.1814 7.3123,3.0766 9.8598-1.2886 13.2533-4.3323-2.8582,10.532 2.1957,6.9036 6.1749,5.1988l-2.9368,5.5753-11.6371,2.5465z" fill="#fff"/>
<path d="m727.625,2094.6562c.6097.4087.9688.8669.9688,1.3438 1e-05,1.7536-4.5796,3.1875-10.1875,3.1875s-10.1562-1.4339-10.1562-3.1875c0-.4626.33-.9149.9062-1.3125-2.1296.7116-3.4688,1.6704-3.4688,2.7187 0,2.1949 5.6999,3.9688 12.7188,3.9688s12.7188-1.7739 12.7188-3.9688c0-1.0591-1.3321-2.0347-3.5-2.75z" fill="#fff"/>
<path d="m708.1912,2087.6194c2.5853,3.3128 6.8186,3.2149 7.1538-2.1323 3.248,7.7419 9.0339,1.6668 13.5546-1.8608-1.413,4.0842-.8001,5.7842 1.2048,5.5-1.6266,4.4559-6.0688,7.5908-10.9592,7.5908-6.3983,0-10.421-2.7053-10.954-9.0977z" stroke="#fff"/>
<path d="m705.6309,2083.8522c-.199-.9607 1.1738-1.9548 1.5437-.4145 .3719,1.5486-1.2143,2.0052-1.5437.4145z" fill="#fff"/>
<path d="m726.2056,2077.2634c.5398-.8191 2.2289-.5409 1.3845.7991-1.2842,2.0376-2.6233,1.0803-1.3845-.7991z" fill="#fff"/>
<path d="m713.3968,2080.2372c-.0468,1.223 2.2364,1.4433 1.3299-.3571 1.0126-2.945-.9117-4.0909-1.9204-3.3876-.7817.5451-1.1627,2.2216.5905,3.7447z" fill="#fff"/>
<path d="m708.813,2088.6356c.807,4.1092 6.0304,5.4134 6.8439.5905 1.5223,4.6665 6.2578,4.041 10.8161-2.0935-1.1999,3.2007 1.883,3.7596 3.4085,2.0129-3.8781,10.0256-21.1649,10.1975-21.0685-.5099z" fill="#fff"/>
</g>
</svg>
