<svg viewBox="0 0 512 512" xmlns="http://www.w3.org/2000/svg">

<g transform="matrix(18.68858,0,0,18.68858,-13169.75431,-38781.64612)">
<path d="m 709.133 2088.71 c 1.4397 -0.063 3.6908 -0.7095 2.485 -4.1814 7.3123 3.0766 9.8598 -1.2886 13.2533 -4.3323 -2.8582 10.532 2.1957 6.9036 6.1749 5.1988 l -2.9368 5.5753 -11.6371 2.5465 z" fill="#fff"/>
<path d="m 727.625 2094.66 c 0.6097 0.4087 0.9688 0.8669 0.9688 1.3438 1e-05 1.7536 -4.5796 3.1875 -10.1875 3.1875 s -10.1562 -1.4339 -10.1562 -3.1875 c 0 -0.4626 0.33 -0.9149 0.9062 -1.3125 -2.1296 0.7116 -3.4688 1.6704 -3.4688 2.7187 0 2.1949 5.6999 3.9688 12.7188 3.9688 s 12.7188 -1.7739 12.7188 -3.9688 c 0 -1.0591 -1.3321 -2.0347 -3.5 -2.75 z" fill="#fff"/>
<path d="m 708.191 2087.62 c 2.5853 3.3128 6.8186 3.2149 7.1538 -2.1323 3.248 7.7419 9.0339 1.6668 13.5546 -1.8608 -1.413 4.0842 -0.8001 5.7842 1.2048 5.5 -1.6266 4.4559 -6.0688 7.5908 -10.9592 7.5908 -6.3983 0 -10.421 -2.7053 -10.954 -9.0977 z" stroke="#fff"/>
<path d="m 705.631 2083.85 c -0.199 -0.9607 1.1738 -1.9548 1.5437 -0.4145 0.3719 1.5486 -1.2143 2.0052 -1.5437 0.4145 z" fill="#fff"/>
<path d="m 726.206 2077.26 c 0.5398 -0.8191 2.2289 -0.5409 1.3845 0.7991 -1.2842 2.0376 -2.6233 1.0803 -1.3845 -0.7991 z" fill="#fff"/>
<path d="m 713.397 2080.24 c -0.0468 1.223 2.2364 1.4433 1.3299 -0.3571 1.0126 -2.945 -0.9117 -4.0909 -1.9204 -3.3876 -0.7817 0.5451 -1.1627 2.2216 0.5905 3.7447 z" fill="#fff"/>
<path d="m 708.813 2088.64 c 0.807 4.1092 6.0304 5.4134 6.8439 0.5905 1.5223 4.6665 6.2578 4.041 10.8161 -2.0935 -1.1999 3.2007 1.883 3.7596 3.4085 2.0129 -3.8781 10.0256 -21.1649 10.1975 -21.0685 -0.5099 z" fill="#fff"/>
</g>
</svg>
