<svg viewBox="0 0 512 512" xmlns="http://www.w3.org/2000/svg">

<g transform="matrix(18.68858,0,0,18.68858,-2741.06249,-12900.0327)">
<path d="m154.6986,698.5696c4.075,4.8195 5.6895,10.0016 3.5765,11.5771-1.1566.8624-3.1821.3888-5.4464-.9419 .5921.7843 1.2532,1.5894 1.9861,2.3223 5.5234,5.5234 12.8689,7.113 16.4116,3.5704s1.953-10.8882-3.5704-16.4116c-.7329-.7329-1.5379-1.394-2.3223-1.9861 1.3307,2.2643 1.8043,4.2898.9419,5.4464-1.5755,2.113-6.7576.4985-11.5771-3.5765z" fill="#fff"/>
<path d="m154.6875,698.1434c0,.6731-.5457,1.2188-1.2188,1.2188s-1.2188-.5456-1.2188-1.2188 .5456-1.2188 1.2188-1.2188 1.2188.5457 1.2188,1.2188z" fill="#fff" transform="matrix(2.24189,1.37362,-1.08507,1.60206,573.65965,-631.1525)"/>
<path d="m154.6875,698.1434c0,.6731-.5457,1.2188-1.2188,1.2188s-1.2188-.5456-1.2188-1.2188 .5456-1.2188 1.2188-1.2188 1.2188.5457 1.2188,1.2188z" fill="#fff" transform="matrix(1.26051,0,0,1.26051,-43.06903,-175.80538)"/>
<path d="m159.5,704.2812c-2.784,1.8625-7.3115-1.1344-10.0938-6.7188-.5092-1.0221-.9033-2.0657-1.2188-3.0938 2.5023-3.7149 9.968-2.1361 14.0938.2188-2.6058-2.2533-4.8812-3.4785-8.7188-3.6875h-6v5.4375c1.0718,5.9951 4.472,11.8314 12.0625,12.375" fill="#fff"/>
<path d="m152.75,693.8934c0,1.1218-.9094,2.0312-2.0312,2.0312s-2.0312-.9094-2.0312-2.0312 .9094-2.0312 2.0312-2.0312 2.0312.9094 2.0312,2.0312z" fill="#fff" transform="matrix(.81067,0,0,1.34453,27.15257,-237.68259)"/>
<path d="m155.7243,711.2287c.7805.6938 1.5835,1.1179 2.3248,1.1274 1.9767.0252 2.713-2.8057 1.6437-6.319-.7665-2.5183-2.2606-4.7138-3.7694-5.7608 .8515,1.2697 1.5901,2.8873 2.0328,4.6409 .9507,3.7659.1835,6.6626-1.7065,6.4526-.1734-.0192-.3464-.0729-.5254-.1411z"/>
<path d="m149.995,708.642c0,.5004-.4056.906-.906.906s-.906-.4056-.906-.906 .4056-.906.906-.906 .906.4056.906.906z" fill="#fff" transform="translate(.8397)"/>
<path d="m149.995,708.642c0,.5004-.4056.906-.906.906s-.906-.4056-.906-.906 .4056-.906.906-.906 .906.4056.906.906z" fill="#fff" transform="translate(18.0754,-16.1751)"/>
<path d="m149.995,708.642c0,.5004-.4056.906-.906.906s-.906-.4056-.906-.906 .4056-.906.906-.906 .906.4056.906.906z" fill="#fff" transform="matrix(1.87805,0,0,1.87805,-111.17476,-635.63517)"/>
<path d="m155.9688,693.625c-1.2444.002-2.3233.3695-3.0312,1.125-1.3947,2.0568-.7924,4.3895.5625,6.1562 .7106.9266 1.9062,1.0938 2.4062.5938s.2357-1.5768-.5938-2.4062c-.4997-.4997-1.094-.797-1.5938-.8438 .1066-.1787.2292-.3444.375-.5 1.8878-2.0146 6.3-1.2225 9.875,1.75 1.1749.9769 2.0888,2.0886 2.75,3.1875-.2208-1.9595-1.6034-4.2988-3.875-6.1875-2.2344-1.8578-4.801-2.8779-6.875-2.875z" fill="#fff"/>
<path d="m168.6644,704.7926c1.2227,2.2756.9858,5.0767-.8371,6.8996s-4.6329,2.0838-6.9048.8736c.2907.5409.6449,1.0608 1.1045,1.5205 2.3932,2.3932 6.1638,2.5237 8.4201.2674s2.1622-6.0321-.2309-8.4253c-.4682-.4682-.9995-.8429-1.5517-1.1358z"/>
<path d="m149.995,708.642c0,.5004-.4056.906-.906.906s-.906-.4056-.906-.906 .4056-.906.906-.906 .906.4056.906.906z" transform="matrix(1.79334,0,0,1.79334,-98.99217,-561.32112)"/>
<path d="m149.995,708.642c0,.5004-.4056.906-.906.906s-.906-.4056-.906-.906 .4056-.906.906-.906 .906.4056.906.906z" transform="matrix(1.17073,0,0,1.17073,-7.29887,-123.30664)"/>
</g>
</svg>
