<svg viewBox="0 0 512 512" xmlns="http://www.w3.org/2000/svg">

<g transform="matrix(18.68858,0,0,18.68858,-910.98865,-25181.02987)">
<path d="m 55.9015 1369.29 c 1.4006 0.03 1.3363 2.1233 -0.1456 2.0922 -1.4616 -0.031 -1.2351 -2.1213 0.1456 -2.0922 z" fill="#fff" fill-rule="evenodd"/>
<path d="m 54.2131 1365.65 c 0.6706 -2.7317 -3.4243 -3.6949 -4.1335 -0.8051 -0.7004 2.8512 3.4722 3.4983 4.1335 0.8051 z" fill="#fff" fill-rule="evenodd"/>
<path d="m 59.417 1359.5 c -1.2951 -2.1379 -4.4732 -0.1702 -3.103 2.0914 1.3513 2.2314 4.3797 0.016 3.103 -2.0914 z" fill="#fff" fill-rule="evenodd"/>
<path d="m 63.6738 1361.66 c -0.9868 -1.5409 -3.4083 -0.1228 -2.3642 1.5074 1.0296 1.6083 3.337 0.012 2.3642 -1.5074 z" fill="#fff" fill-rule="evenodd"/>
<path d="m 64.5812 1363.46 c -0.6806 -1.1235 -2.3508 -0.089 -1.6307 1.0991 0.7102 1.1726 2.3016 0.01 1.6307 -1.0991 z" fill="#fff" fill-rule="evenodd"/>
<path d="m 67.9136 1365.18 c -1.2757 -0.3132 -1.7256 1.5989 -0.3759 1.9303 1.3313 0.3269 1.6335 -1.6215 0.3759 -1.9303 z" fill="#fff" fill-rule="evenodd"/>
<path d="m 73.214 1359.25 c 1.0036 0.021 0.9575 1.5215 -0.1043 1.4992 -1.0473 -0.022 -0.885 -1.52 0.1043 -1.4992 z" fill="#fff" fill-rule="evenodd"/>
<path d="m 71.3389 1356.75 c 1.461 0.031 1.3939 2.2149 -0.1519 2.1824 -1.5246 -0.032 -1.2884 -2.2128 0.1519 -2.1824 z" fill="#fff" fill-rule="evenodd"/>
<path d="m 71.4538 1349.88 c 1.0381 0.022 0.9904 1.5738 -0.1079 1.5507 -1.0833 -0.023 -0.9155 -1.5723 0.1079 -1.5507 z" fill="#fff" fill-rule="evenodd"/>
<path d="m 61.8801 1350.4 c 3.7483 -0.5012 8.0882 0.3795 8.9565 5.0067 -0.9387 -2.0986 -5.9528 -3.2576 -6.1887 0.2748" fill="#fff" fill-rule="evenodd"/>
<path d="m 56.9591 1348.77 c 0.91 -0.5001 1.6446 0.8677 0.6819 1.3969 -0.9496 0.5219 -1.579 -0.9039 -0.6819 -1.3969 z" fill="#fff" fill-rule="evenodd"/>
<path d="m 50.9155 1352.75 c 0.544 0.9423 1.9451 0.1152 1.3695 -0.8817 -0.5677 -0.9833 -1.9058 -0.047 -1.3695 0.8817 z" fill="#fff" fill-rule="evenodd"/>
<path d="m 51.5346 1361.38 c -0.6589 0.4404 -1.9589 0.08 -2.2325 -0.4878 v -5.3467 c 1.2933 -2.5663 4.8561 -1.649 4.9902 0.8442 l -2.7578 4.9903 z" fill="#fff" fill-rule="evenodd"/>
<path d="m 53.6018 1353.64 c 0.7034 1.2183 2.515 0.1489 1.7707 -1.14 -0.734 -1.2714 -2.4642 -0.061 -1.7707 1.14 z" fill="#fff" fill-rule="evenodd"/>
<path d="m 49.3076 1359.24 c 3.1758 -5.185 8.8836 -9.0504 15.6516 -8.3458 -3.2015 8.2406 3.5385 16.904 10.7421 18.1618" fill="none" stroke="#fff"/>
<path d="m 53.3544 1358.36 c 0.5851 0.7064 2.2803 0.789 2.4576 -0.9005 0.1007 0.3607 0.8761 0.4991 1.2007 0.319 l 1.4445 -1.801 c -0.1584 -1.128 -1.3537 -1.9489 -2.3075 -1.5384 l -2.7953 3.9209 z" fill="#fff" fill-rule="evenodd"/>
<path d="m 68.0655 1351.7 c 1.3421 -0.6828 0.1636 -2.2729 -0.8092 -1.6051 -0.8647 -2.068 -4.2448 -2.049 -4.8287 0.013 -1.1705 -1.0173 -3.0985 -0.3031 -3.1032 0.7818 -2.0785 -0.7745 -1.9454 2.6981 -0.2267 3.698 -2.398 2.7887 0.3632 4.0658 1.3441 2.4199 l 2.4103 -4.6578 5.2134 -0.65 z" fill="#fff" fill-rule="evenodd"/>
<path d="m 55.4172 1353.85 c 1.217 2.1079 4.3512 0.2576 3.0636 -1.9723 -1.27 -2.1997 -4.2634 -0.1057 -3.0636 1.9723 z" fill="#fff" fill-rule="evenodd"/>
<path d="m 64.7126 1351 c -6.161 8.4455 -0.7173 20.4259 7.3049 23.4267" fill="none" stroke="#fff"/>
<path d="m 64.3163 1351.02 c -7.7599 6.2881 -5.7036 18.7237 0.9445 23.489" fill="none" stroke="#fff"/>
<path d="m 64.105 1350.98 c -9.3759 4.1687 -10.6407 17.0352 -5.3073 23.5222" fill="none" stroke="#fff"/>
<path d="m 64.0108 1350.98 c -11.2746 1.7742 -16.338 15.1922 -12.475 23.671" fill="none" stroke="#fff"/>
<path d="m 49.1832 1348.02 h 26.4314 v 26.4314 h -26.4314 z" fill="none" stroke="#000"/>
</g>
</svg>
