<svg viewBox="0 0 512 512" xmlns="http://www.w3.org/2000/svg">

<g transform="matrix(18.68858,0,0,18.68858,-910.98865,-25181.02987)">
<path d="m55.9015,1369.2912c1.4006.03 1.3363,2.1233-.1456,2.0922-1.4616-.031-1.2351-2.1213.1456-2.0922z" fill="#fff" fill-rule="evenodd"/>
<path d="m54.2131,1365.6473c.6706-2.7317-3.4243-3.6949-4.1335-.8051-.7004,2.8512 3.4722,3.4983 4.1335.8051z" fill="#fff" fill-rule="evenodd"/>
<path d="m59.417,1359.4957c-1.2951-2.1379-4.4732-.1702-3.103,2.0914 1.3513,2.2314 4.3797.016 3.103-2.0914z" fill="#fff" fill-rule="evenodd"/>
<path d="m63.6738,1361.6598c-.9868-1.5409-3.4083-.1228-2.3642,1.5074 1.0296,1.6083 3.337.012 2.3642-1.5074z" fill="#fff" fill-rule="evenodd"/>
<path d="m64.5812,1363.4551c-.6806-1.1235-2.3508-.089-1.6307,1.0991 .7102,1.1726 2.3016.01 1.6307-1.0991z" fill="#fff" fill-rule="evenodd"/>
<path d="m67.9136,1365.1819c-1.2757-.3132-1.7256,1.5989-.3759,1.9303 1.3313.3269 1.6335-1.6215.3759-1.9303z" fill="#fff" fill-rule="evenodd"/>
<path d="m73.214,1359.2539c1.0036.021.9575,1.5215-.1043,1.4992-1.0473-.022-.885-1.52.1043-1.4992z" fill="#fff" fill-rule="evenodd"/>
<path d="m71.3389,1356.7476c1.461.031 1.3939,2.2149-.1519,2.1824-1.5246-.032-1.2884-2.2128.1519-2.1824z" fill="#fff" fill-rule="evenodd"/>
<path d="m71.4538,1349.8821c1.0381.022.9904,1.5738-.1079,1.5507-1.0833-.023-.9155-1.5723.1079-1.5507z" fill="#fff" fill-rule="evenodd"/>
<path d="m61.8801,1350.4019c3.7483-.5012 8.0882.3795 8.9565,5.0067-.9387-2.0986-5.9528-3.2576-6.1887.2748" fill="#fff" fill-rule="evenodd"/>
<path d="m56.9591,1348.7659c.91-.5001 1.6446.8677.6819,1.3969-.9496.5219-1.579-.9039-.6819-1.3969z" fill="#fff" fill-rule="evenodd"/>
<path d="m50.9155,1352.7524c.544.9423 1.9451.1152 1.3695-.8817-.5677-.9833-1.9058-.047-1.3695.8817z" fill="#fff" fill-rule="evenodd"/>
<path d="m51.5346,1361.3822c-.6589.4404-1.9589.08-2.2325-.4878v-5.3467c1.2933-2.5663 4.8561-1.649 4.9902.8442l-2.7578,4.9903z" fill="#fff" fill-rule="evenodd"/>
<path d="m53.6018,1353.6389c.7034,1.2183 2.515.1489 1.7707-1.14-.734-1.2714-2.4642-.061-1.7707,1.14z" fill="#fff" fill-rule="evenodd"/>
<path d="m49.3076,1359.2387c3.1758-5.185 8.8836-9.0504 15.6516-8.3458-3.2015,8.2406 3.5385,16.904 10.7421,18.1618" fill="none" stroke="#fff"/>
<path d="m53.3544,1358.3618c.5851.7064 2.2803.789 2.4576-.9005 .1007.3607.8761.4991 1.2007.319l1.4445-1.801c-.1584-1.128-1.3537-1.9489-2.3075-1.5384l-2.7953,3.9209z" fill="#fff" fill-rule="evenodd"/>
<path d="m68.0655,1351.698c1.3421-.6828.1636-2.2729-.8092-1.6051-.8647-2.068-4.2448-2.049-4.8287.013-1.1705-1.0173-3.0985-.3031-3.1032.7818-2.0785-.7745-1.9454,2.6981-.2267,3.698-2.398,2.7887.3632,4.0658 1.3441,2.4199l2.4103-4.6578 5.2134-.65z" fill="#fff" fill-rule="evenodd"/>
<path d="m55.4172,1353.8451c1.217,2.1079 4.3512.2576 3.0636-1.9723-1.27-2.1997-4.2634-.1057-3.0636,1.9723z" fill="#fff" fill-rule="evenodd"/>
<path d="m64.7126,1351.003c-6.161,8.4455-.7173,20.4259 7.3049,23.4267" fill="none" stroke="#fff"/>
<path d="m64.3163,1351.0161c-7.7599,6.2881-5.7036,18.7237.9445,23.489" fill="none" stroke="#fff"/>
<path d="m64.105,1350.9818c-9.3759,4.1687-10.6407,17.0352-5.3073,23.5222" fill="none" stroke="#fff"/>
<path d="m64.0108,1350.9786c-11.2746,1.7742-16.338,15.1922-12.475,23.671" fill="none" stroke="#fff"/>
<path d="m49.1832,1348.0195h26.4314v26.4314h-26.4314z" fill="none" stroke="#000"/>
</g>
</svg>
