<svg viewBox="0 0 512 512" xmlns="http://www.w3.org/2000/svg">

<g transform="matrix(18.68858,0,0,18.68858,-2957.4235,-44232.45566)">
<path d="m163.0169,2384.4998c-1.2919-.3611-3.2377-.8767-4.3124-2.6815l.01-14.2021 18.4957.014c3.3427,1.0551 7.7743,4.0694 7.5171,8.8204l-11.3539,10.0135z" fill="#fff"/>
<path d="m184.2456,2376.5808c-1.41.7975-2.9694,1.0389-4.4331.8437-3.8959,3.5214-8.1953,7.2998-13.2587,8.0356l-4.2289-1.7836c2.2323.6236 3.0885,2.7957 1.9923,4.0905l-4.411,2.6888c-.2973,1.1062.2349,1.8309 1.2188,2.0937 1.5243-1.0717 3.09-2.1054 4.9062-2.8125l.2347,2.2287 2.5378-2.5994c6.6622-5.5513 15.4418-4.7744 15.4418-12.7855z" stroke="#fff"/>
<path d="m183.1464,2378.0831c1.0017-6.1676-7.1103-10.1042-11.7239-10.8122" fill="none" stroke="#000"/>
<path d="m180.4336,2378.8829c-.4839-8.98-10.6254-8.2518-14.9226-11.5403" fill="none" stroke="#000"/>
<path d="m177.9828,2380.9819c-1.5472-10.2271-12.9779-7.459-16.0652-13.6856" fill="none" stroke="#000"/>
<path d="m175.5139,2382.7399c-2.064-10.9018-14.0655-6.1986-16.3888-15.1043" fill="none" stroke="#000"/>
<path d="m172.6566,2384.3659c-1.2361-9.6142-11.5387-5.7232-13.9174-12.0763" fill="none" stroke="#000"/>
<path d="m166.738,2386.7691c.5433-5.7058-4.7149-3.5481-8.0206-6.9754" fill="none" stroke="#000"/>
<path d="m169.9285,2385.769c-.55-7.8253-8.0929-5.0061-11.0166-9.164" fill="none" stroke="#000"/>
<path d="m158.8089-2393.7024h26.4314v26.4314h-26.4314z" fill="none" stroke="#000" transform="scale(1,-1)"/>
</g>
</svg>
