<svg viewBox="0 0 512 512" xmlns="http://www.w3.org/2000/svg">

<g transform="matrix(18.68858,0,0,18.68858,-2957.4235,-44232.45566)">
<path d="m 163.017 2384.5 c -1.2919 -0.3611 -3.2377 -0.8767 -4.3124 -2.6815 l 0.01 -14.2021 18.4957 0.014 c 3.3427 1.0551 7.7743 4.0694 7.5171 8.8204 l -11.3539 10.0135 z" fill="#fff"/>
<path d="m 184.246 2376.58 c -1.41 0.7975 -2.9694 1.0389 -4.4331 0.8437 -3.8959 3.5214 -8.1953 7.2998 -13.2587 8.0356 l -4.2289 -1.7836 c 2.2323 0.6236 3.0885 2.7957 1.9923 4.0905 l -4.411 2.6888 c -0.2973 1.1062 0.2349 1.8309 1.2188 2.0937 1.5243 -1.0717 3.09 -2.1054 4.9062 -2.8125 l 0.2347 2.2287 2.5378 -2.5994 c 6.6622 -5.5513 15.4418 -4.7744 15.4418 -12.7855 z" stroke="#fff"/>
<path d="m 183.146 2378.08 c 1.0017 -6.1676 -7.1103 -10.1042 -11.7239 -10.8122" fill="none" stroke="#000"/>
<path d="m 180.434 2378.88 c -0.4839 -8.98 -10.6254 -8.2518 -14.9226 -11.5403" fill="none" stroke="#000"/>
<path d="m 177.983 2380.98 c -1.5472 -10.2271 -12.9779 -7.459 -16.0652 -13.6856" fill="none" stroke="#000"/>
<path d="m 175.514 2382.74 c -2.064 -10.9018 -14.0655 -6.1986 -16.3888 -15.1043" fill="none" stroke="#000"/>
<path d="m 172.657 2384.37 c -1.2361 -9.6142 -11.5387 -5.7232 -13.9174 -12.0763" fill="none" stroke="#000"/>
<path d="m 166.738 2386.77 c 0.5433 -5.7058 -4.7149 -3.5481 -8.0206 -6.9754" fill="none" stroke="#000"/>
<path d="m 169.929 2385.77 c -0.55 -7.8253 -8.0929 -5.0061 -11.0166 -9.164" fill="none" stroke="#000"/>
<path d="m 158.809 -2393.7 h 26.4314 v 26.4314 h -26.4314 z" fill="none" stroke="#000" transform="scale(1,-1)"/>
</g>
</svg>
