<svg viewBox="0 0 512 512" xmlns="http://www.w3.org/2000/svg">

<g transform="matrix(18.68858,0,0,18.68858,-2269.64258,-1385.00126)">
<path d="m 122.562 74.9375 v 2.375 c 0.4471 15.7812 15.9951 11.7392 21.125 21.8438 -0.8958 -10.4559 -11.3736 -6.3427 -16.4375 -18.4688 6.7215 6.7093 17.4505 -3.1371 19.875 15 -0.6207 -23.1361 -14.4552 -12.5897 -21.625 -20.75 h -2.9375 z" fill="#fff" fill-rule="evenodd"/>
<path d="m 138.227 95.7393 c 2.7516 -0.3357 3.8374 -1.6065 4.1806 -4.0503 1.2209 2.6633 2.6579 5.4734 1.3863 8.8165 -1.0294 -2.3788 -3.1597 -4.1997 -5.567 -4.7662 z" fill="#fff" fill-rule="evenodd"/>
<path d="m 143.854 90.1565 c 1.8387 0.3556 2.8033 -0.4015 3.5349 -2.2728 0.5239 2.8986 0.6086 5.2699 -0.3234 8.69 -1.0069 -2.6931 -1.8054 -4.7581 -3.2115 -6.4172 z" fill="#fff" fill-rule="evenodd"/>
</g>
</svg>
