<svg viewBox="0 0 512 512" xmlns="http://www.w3.org/2000/svg">

<g transform="matrix(18.68858,0,0,18.68858,-2269.64258,-1385.00126)">
<path d="m122.5625,74.9375v2.375c.4471,15.7812 15.9951,11.7392 21.125,21.8438-.8958-10.4559-11.3736-6.3427-16.4375-18.4688 6.7215,6.7093 17.4505-3.1371 19.875,15-.6207-23.1361-14.4552-12.5897-21.625-20.75h-2.9375z" fill="#fff" fill-rule="evenodd"/>
<path d="m138.2271,95.7393c2.7516-.3357 3.8374-1.6065 4.1806-4.0503 1.2209,2.6633 2.6579,5.4734 1.3863,8.8165-1.0294-2.3788-3.1597-4.1997-5.567-4.7662z" fill="#fff" fill-rule="evenodd"/>
<path d="m143.8541,90.1565c1.8387.3556 2.8033-.4015 3.5349-2.2728 .5239,2.8986.6086,5.2699-.3234,8.69-1.0069-2.6931-1.8054-4.7581-3.2115-6.4172z" fill="#fff" fill-rule="evenodd"/>
</g>
</svg>
