<svg viewBox="0 0 512 512" xmlns="http://www.w3.org/2000/svg">

<g transform="matrix(18.68858,0,0,18.68858,-12482.79313,-17931.46041)">
<path d="m669.6387,986.4595c3.4115-14.8808 12.9711-21.4216 25.2999-23.685" fill="none" stroke="#fff"/>
<path d="m675.1754,975.9435c0,.7751-.6283,1.4034-1.4034,1.4034s-1.4034-.6283-1.4034-1.4034 .6283-1.4034 1.4034-1.4034 1.4034.6283 1.4034,1.4034z" stroke="#fff" stroke-width="1.1406" transform="matrix(.87671,0,0,.87671,79.89569,127.31964)"/>
<path d="m675.1754,975.9435c0,.7751-.6283,1.4034-1.4034,1.4034s-1.4034-.6283-1.4034-1.4034 .6283-1.4034 1.4034-1.4034 1.4034.6283 1.4034,1.4034z" stroke="#fff" stroke-width="1.1406" transform="matrix(.87671,0,0,.87671,81.62592,122.97483)"/>
<path d="m675.1754,975.9435c0,.7751-.6283,1.4034-1.4034,1.4034s-1.4034-.6283-1.4034-1.4034 .6283-1.4034 1.4034-1.4034 1.4034.6283 1.4034,1.4034z" stroke="#fff" stroke-width="1.1406" transform="matrix(.87671,0,0,.87671,84.2405,118.70692)"/>
<path d="m675.1754,975.9435c0,.7751-.6283,1.4034-1.4034,1.4034s-1.4034-.6283-1.4034-1.4034 .6283-1.4034 1.4034-1.4034 1.4034.6283 1.4034,1.4034z" stroke="#fff" stroke-width="1.1406" transform="matrix(.87671,0,0,.87671,87.73941,114.97731)"/>
<path d="m675.1754,975.9435c0,.7751-.6283,1.4034-1.4034,1.4034s-1.4034-.6283-1.4034-1.4034 .6283-1.4034 1.4034-1.4034 1.4034.6283 1.4034,1.4034z" stroke="#fff" stroke-width="1.1406" transform="matrix(.87671,0,0,.87671,91.66128,111.74754)"/>
<path d="m675.1754,975.9435c0,.7751-.6283,1.4034-1.4034,1.4034s-1.4034-.6283-1.4034-1.4034 .6283-1.4034 1.4034-1.4034 1.4034.6283 1.4034,1.4034z" stroke="#fff" stroke-width="1.1406" transform="matrix(.87671,0,0,.87671,96.08298,109.44056)"/>
<path d="m675.1754,975.9435c0,.7751-.6283,1.4034-1.4034,1.4034s-1.4034-.6283-1.4034-1.4034 .6283-1.4034 1.4034-1.4034 1.4034.6283 1.4034,1.4034z" stroke="#fff" stroke-width="1.1406" transform="matrix(.87671,0,0,.87671,100.81229,107.82568)"/>
<path d="m674.2225,986.527c2.3109-11.8059 9.9921-17.2578 20.1099-19.4383" fill="none" stroke="#fff"/>
<path d="m675.1754,975.9435c0,.7751-.6283,1.4034-1.4034,1.4034s-1.4034-.6283-1.4034-1.4034 .6283-1.4034 1.4034-1.4034 1.4034.6283 1.4034,1.4034z" stroke="#fff" stroke-width="1.1406" transform="matrix(.87596,-.03632,.03632,.87596,49.50133,152.28523)"/>
<path d="m675.1754,975.9435c0,.7751-.6283,1.4034-1.4034,1.4034s-1.4034-.6283-1.4034-1.4034 .6283-1.4034 1.4034-1.4034 1.4034.6283 1.4034,1.4034z" stroke="#fff" stroke-width="1.1406" transform="matrix(.87596,-.03632,.03632,.87596,51.21321,148.2531)"/>
<path d="m675.1754,975.9435c0,.7751-.6283,1.4034-1.4034,1.4034s-1.4034-.6283-1.4034-1.4034 .6283-1.4034 1.4034-1.4034 1.4034.6283 1.4034,1.4034z" stroke="#fff" stroke-width="1.1406" transform="matrix(.87596,-.03632,.03632,.87596,53.81185,144.58743)"/>
<path d="m675.1754,975.9435c0,.7751-.6283,1.4034-1.4034,1.4034s-1.4034-.6283-1.4034-1.4034 .6283-1.4034 1.4034-1.4034 1.4034.6283 1.4034,1.4034z" stroke="#fff" stroke-width="1.1406" transform="matrix(.87596,-.03632,.03632,.87596,56.99012,141.47733)"/>
<path d="m675.1754,975.9435c0,.7751-.6283,1.4034-1.4034,1.4034s-1.4034-.6283-1.4034-1.4034 .6283-1.4034 1.4034-1.4034 1.4034.6283 1.4034,1.4034z" stroke="#fff" stroke-width="1.1406" transform="matrix(.87596,-.03632,.03632,.87596,60.93794,139.121)"/>
<path d="m675.1754,975.9435c0,.7751-.6283,1.4034-1.4034,1.4034s-1.4034-.6283-1.4034-1.4034 .6283-1.4034 1.4034-1.4034 1.4034.6283 1.4034,1.4034z" stroke="#fff" stroke-width="1.1406" transform="matrix(.87596,-.03632,.03632,.87596,64.87964,137.66595)"/>
<path d="m673.772,977.3469c-.7747,0-1.4034-.6287-1.4034-1.4034s.6287-1.4034 1.4034-1.4034" stroke="#fff" stroke-width="1.1406" transform="matrix(.87596,-.03632,.03632,.87596,69.0486,136.29154)"/>
<path d="m679.1164,986.5271c1.4637-9.6112 7.708-13.8837 15.923-15.5232" fill="none" stroke="#fff"/>
<path d="m675.1754,975.9435c0,.7751-.6283,1.4034-1.4034,1.4034s-1.4034-.6283-1.4034-1.4034 .6283-1.4034 1.4034-1.4034 1.4034.6283 1.4034,1.4034z" stroke="#fff" stroke-width="1.1406" transform="matrix(.87596,-.03632,.03632,.87596,54.3408,152.88337)"/>
<path d="m675.1754,975.9435c0,.7751-.6283,1.4034-1.4034,1.4034s-1.4034-.6283-1.4034-1.4034 .6283-1.4034 1.4034-1.4034 1.4034.6283 1.4034,1.4034z" stroke="#fff" stroke-width="1.1406" transform="matrix(.87596,-.03632,.03632,.87596,56.35271,148.20704)"/>
<path d="m675.1754,975.9435c0,.7751-.6283,1.4034-1.4034,1.4034s-1.4034-.6283-1.4034-1.4034 .6283-1.4034 1.4034-1.4034 1.4034.6283 1.4034,1.4034z" stroke="#fff" stroke-width="1.1406" transform="matrix(.87596,-.03632,.03632,.87596,59.83277,144.6726)"/>
<path d="m675.1754,975.9435c0,.7751-.6283,1.4034-1.4034,1.4034s-1.4034-.6283-1.4034-1.4034 .6283-1.4034 1.4034-1.4034 1.4034.6283 1.4034,1.4034z" stroke="#fff" stroke-width="1.1406" transform="matrix(.87596,-.03632,.03632,.87596,63.85659,142.33443)"/>
<path d="m674.5764,977.0935c-.2278.1597-.5052.2535-.8044.2535-.7747,0-1.4034-.6287-1.4034-1.4034s.6287-1.4034 1.4034-1.4034c.4646,0 .8767.2261 1.1322.5743" stroke="#fff" stroke-width="1.1406" transform="matrix(.87596,-.03632,.03632,.87596,68.34841,140.92066)"/>
<path d="m689.1801,986.4661c-.2282-4.4218 3.2292-6.554 5.8307-6.0859" fill="none" stroke="#fff"/>
<path d="m684.0189,986.3826c.5512-6.4906 4.404-10.0156 11.035-9.9969" fill="none" stroke="#fff"/>
<path d="m675.1754,975.9435c0,.7751-.6283,1.4034-1.4034,1.4034s-1.4034-.6283-1.4034-1.4034 .6283-1.4034 1.4034-1.4034 1.4034.6283 1.4034,1.4034z" stroke="#fff" stroke-width="1.1406" transform="matrix(.87596,-.03632,.03632,.87596,59.3008,151.53763)"/>
<path d="m675.1754,975.9435c0,.7751-.6283,1.4034-1.4034,1.4034s-1.4034-.6283-1.4034-1.4034 .6283-1.4034 1.4034-1.4034 1.4034.6283 1.4034,1.4034z" stroke="#fff" stroke-width="1.1406" transform="matrix(.87596,-.03632,.03632,.87596,62.49212,147.96181)"/>
<path d="m675.1754,975.9435c0,.7751-.6283,1.4034-1.4034,1.4034s-1.4034-.6283-1.4034-1.4034 .6283-1.4034 1.4034-1.4034 1.4034.6283 1.4034,1.4034z" stroke="#fff" stroke-width="1.1406" transform="matrix(.87596,-.03632,.03632,.87596,66.37553,146.07778)"/>
<path d="m682.8018,986.1925c-.0281-.6786.4998-1.2522 1.1783-1.2803s1.2522.4998 1.2803,1.1784" stroke="#fff"/>
<path d="m694.8623,979.164c-.1792-.1654-.4093-.2793-.6692-.3143-.6731-.0906-1.2929.3821-1.3836,1.0552s.3821,1.2929 1.0552,1.3836c.4037.0543.7882-.0939 1.0509-.3665" stroke="#fff"/>
<path d="m675.1754,975.9435c0,.7751-.6283,1.4034-1.4034,1.4034s-1.4034-.6283-1.4034-1.4034 .6283-1.4034 1.4034-1.4034 1.4034.6283 1.4034,1.4034z" stroke="#fff" stroke-width="1.1406" transform="matrix(-.03632,.87596,.87596,.03632,-140.02005,356.42547)"/>
<path d="m687.9011,986.1925c-.0281-.6786.4998-1.2522 1.1783-1.2803s1.2522.4998 1.2803,1.1784" stroke="#fff"/>
<path d="m672.7492,976.9042c-.236-.2511-.3806-.5891-.3806-.9607 0-.7747.6287-1.4034 1.4034-1.4034 .4076,0 .7749.1741 1.0313.4519" stroke="#fff" stroke-width="1.1406" transform="matrix(-.03632,.87596,.87596,.03632,-136.41144,359.96378)"/>
<path d="m668.0589,986.4823h26.8571v-26.42h-22.0701" fill="none" stroke="#000"/>
</g>
</svg>
