<svg viewBox="0 0 512 512" xmlns="http://www.w3.org/2000/svg">

<g transform="matrix(18.68858,0,0,18.68858,-12482.79313,-17931.46041)">
<path d="m 669.639 986.46 c 3.4115 -14.8808 12.9711 -21.4216 25.2999 -23.685" fill="none" stroke="#fff"/>
<path d="m 675.175 975.943 c 0 0.7751 -0.6283 1.4034 -1.4034 1.4034 s -1.4034 -0.6283 -1.4034 -1.4034 0.6283 -1.4034 1.4034 -1.4034 1.4034 0.6283 1.4034 1.4034 z" stroke="#fff" stroke-width="1.1406" transform="matrix(.87671,0,0,.87671,79.89569,127.31964)"/>
<path d="m 675.175 975.943 c 0 0.7751 -0.6283 1.4034 -1.4034 1.4034 s -1.4034 -0.6283 -1.4034 -1.4034 0.6283 -1.4034 1.4034 -1.4034 1.4034 0.6283 1.4034 1.4034 z" stroke="#fff" stroke-width="1.1406" transform="matrix(.87671,0,0,.87671,81.62592,122.97483)"/>
<path d="m 675.175 975.943 c 0 0.7751 -0.6283 1.4034 -1.4034 1.4034 s -1.4034 -0.6283 -1.4034 -1.4034 0.6283 -1.4034 1.4034 -1.4034 1.4034 0.6283 1.4034 1.4034 z" stroke="#fff" stroke-width="1.1406" transform="matrix(.87671,0,0,.87671,84.2405,118.70692)"/>
<path d="m 675.175 975.943 c 0 0.7751 -0.6283 1.4034 -1.4034 1.4034 s -1.4034 -0.6283 -1.4034 -1.4034 0.6283 -1.4034 1.4034 -1.4034 1.4034 0.6283 1.4034 1.4034 z" stroke="#fff" stroke-width="1.1406" transform="matrix(.87671,0,0,.87671,87.73941,114.97731)"/>
<path d="m 675.175 975.943 c 0 0.7751 -0.6283 1.4034 -1.4034 1.4034 s -1.4034 -0.6283 -1.4034 -1.4034 0.6283 -1.4034 1.4034 -1.4034 1.4034 0.6283 1.4034 1.4034 z" stroke="#fff" stroke-width="1.1406" transform="matrix(.87671,0,0,.87671,91.66128,111.74754)"/>
<path d="m 675.175 975.943 c 0 0.7751 -0.6283 1.4034 -1.4034 1.4034 s -1.4034 -0.6283 -1.4034 -1.4034 0.6283 -1.4034 1.4034 -1.4034 1.4034 0.6283 1.4034 1.4034 z" stroke="#fff" stroke-width="1.1406" transform="matrix(.87671,0,0,.87671,96.08298,109.44056)"/>
<path d="m 675.175 975.943 c 0 0.7751 -0.6283 1.4034 -1.4034 1.4034 s -1.4034 -0.6283 -1.4034 -1.4034 0.6283 -1.4034 1.4034 -1.4034 1.4034 0.6283 1.4034 1.4034 z" stroke="#fff" stroke-width="1.1406" transform="matrix(.87671,0,0,.87671,100.81229,107.82568)"/>
<path d="m 674.222 986.527 c 2.3109 -11.8059 9.9921 -17.2578 20.1099 -19.4383" fill="none" stroke="#fff"/>
<path d="m 675.175 975.943 c 0 0.7751 -0.6283 1.4034 -1.4034 1.4034 s -1.4034 -0.6283 -1.4034 -1.4034 0.6283 -1.4034 1.4034 -1.4034 1.4034 0.6283 1.4034 1.4034 z" stroke="#fff" stroke-width="1.1406" transform="matrix(.87596,-.03632,.03632,.87596,49.50133,152.28523)"/>
<path d="m 675.175 975.943 c 0 0.7751 -0.6283 1.4034 -1.4034 1.4034 s -1.4034 -0.6283 -1.4034 -1.4034 0.6283 -1.4034 1.4034 -1.4034 1.4034 0.6283 1.4034 1.4034 z" stroke="#fff" stroke-width="1.1406" transform="matrix(.87596,-.03632,.03632,.87596,51.21321,148.2531)"/>
<path d="m 675.175 975.943 c 0 0.7751 -0.6283 1.4034 -1.4034 1.4034 s -1.4034 -0.6283 -1.4034 -1.4034 0.6283 -1.4034 1.4034 -1.4034 1.4034 0.6283 1.4034 1.4034 z" stroke="#fff" stroke-width="1.1406" transform="matrix(.87596,-.03632,.03632,.87596,53.81185,144.58743)"/>
<path d="m 675.175 975.943 c 0 0.7751 -0.6283 1.4034 -1.4034 1.4034 s -1.4034 -0.6283 -1.4034 -1.4034 0.6283 -1.4034 1.4034 -1.4034 1.4034 0.6283 1.4034 1.4034 z" stroke="#fff" stroke-width="1.1406" transform="matrix(.87596,-.03632,.03632,.87596,56.99012,141.47733)"/>
<path d="m 675.175 975.943 c 0 0.7751 -0.6283 1.4034 -1.4034 1.4034 s -1.4034 -0.6283 -1.4034 -1.4034 0.6283 -1.4034 1.4034 -1.4034 1.4034 0.6283 1.4034 1.4034 z" stroke="#fff" stroke-width="1.1406" transform="matrix(.87596,-.03632,.03632,.87596,60.93794,139.121)"/>
<path d="m 675.175 975.943 c 0 0.7751 -0.6283 1.4034 -1.4034 1.4034 s -1.4034 -0.6283 -1.4034 -1.4034 0.6283 -1.4034 1.4034 -1.4034 1.4034 0.6283 1.4034 1.4034 z" stroke="#fff" stroke-width="1.1406" transform="matrix(.87596,-.03632,.03632,.87596,64.87964,137.66595)"/>
<path d="m 673.772 977.347 c -0.7747 0 -1.4034 -0.6287 -1.4034 -1.4034 s 0.6287 -1.4034 1.4034 -1.4034" stroke="#fff" stroke-width="1.1406" transform="matrix(.87596,-.03632,.03632,.87596,69.0486,136.29154)"/>
<path d="m 679.116 986.527 c 1.4637 -9.6112 7.708 -13.8837 15.923 -15.5232" fill="none" stroke="#fff"/>
<path d="m 675.175 975.943 c 0 0.7751 -0.6283 1.4034 -1.4034 1.4034 s -1.4034 -0.6283 -1.4034 -1.4034 0.6283 -1.4034 1.4034 -1.4034 1.4034 0.6283 1.4034 1.4034 z" stroke="#fff" stroke-width="1.1406" transform="matrix(.87596,-.03632,.03632,.87596,54.3408,152.88337)"/>
<path d="m 675.175 975.943 c 0 0.7751 -0.6283 1.4034 -1.4034 1.4034 s -1.4034 -0.6283 -1.4034 -1.4034 0.6283 -1.4034 1.4034 -1.4034 1.4034 0.6283 1.4034 1.4034 z" stroke="#fff" stroke-width="1.1406" transform="matrix(.87596,-.03632,.03632,.87596,56.35271,148.20704)"/>
<path d="m 675.175 975.943 c 0 0.7751 -0.6283 1.4034 -1.4034 1.4034 s -1.4034 -0.6283 -1.4034 -1.4034 0.6283 -1.4034 1.4034 -1.4034 1.4034 0.6283 1.4034 1.4034 z" stroke="#fff" stroke-width="1.1406" transform="matrix(.87596,-.03632,.03632,.87596,59.83277,144.6726)"/>
<path d="m 675.175 975.943 c 0 0.7751 -0.6283 1.4034 -1.4034 1.4034 s -1.4034 -0.6283 -1.4034 -1.4034 0.6283 -1.4034 1.4034 -1.4034 1.4034 0.6283 1.4034 1.4034 z" stroke="#fff" stroke-width="1.1406" transform="matrix(.87596,-.03632,.03632,.87596,63.85659,142.33443)"/>
<path d="m 674.576 977.093 c -0.2278 0.1597 -0.5052 0.2535 -0.8044 0.2535 -0.7747 0 -1.4034 -0.6287 -1.4034 -1.4034 s 0.6287 -1.4034 1.4034 -1.4034 c 0.4646 0 0.8767 0.2261 1.1322 0.5743" stroke="#fff" stroke-width="1.1406" transform="matrix(.87596,-.03632,.03632,.87596,68.34841,140.92066)"/>
<path d="m 689.18 986.466 c -0.2282 -4.4218 3.2292 -6.554 5.8307 -6.0859" fill="none" stroke="#fff"/>
<path d="m 684.019 986.383 c 0.5512 -6.4906 4.404 -10.0156 11.035 -9.9969" fill="none" stroke="#fff"/>
<path d="m 675.175 975.943 c 0 0.7751 -0.6283 1.4034 -1.4034 1.4034 s -1.4034 -0.6283 -1.4034 -1.4034 0.6283 -1.4034 1.4034 -1.4034 1.4034 0.6283 1.4034 1.4034 z" stroke="#fff" stroke-width="1.1406" transform="matrix(.87596,-.03632,.03632,.87596,59.3008,151.53763)"/>
<path d="m 675.175 975.943 c 0 0.7751 -0.6283 1.4034 -1.4034 1.4034 s -1.4034 -0.6283 -1.4034 -1.4034 0.6283 -1.4034 1.4034 -1.4034 1.4034 0.6283 1.4034 1.4034 z" stroke="#fff" stroke-width="1.1406" transform="matrix(.87596,-.03632,.03632,.87596,62.49212,147.96181)"/>
<path d="m 675.175 975.943 c 0 0.7751 -0.6283 1.4034 -1.4034 1.4034 s -1.4034 -0.6283 -1.4034 -1.4034 0.6283 -1.4034 1.4034 -1.4034 1.4034 0.6283 1.4034 1.4034 z" stroke="#fff" stroke-width="1.1406" transform="matrix(.87596,-.03632,.03632,.87596,66.37553,146.07778)"/>
<path d="m 682.802 986.192 c -0.0281 -0.6786 0.4998 -1.2522 1.1783 -1.2803 s 1.2522 0.4998 1.2803 1.1784" stroke="#fff"/>
<path d="m 694.862 979.164 c -0.1792 -0.1654 -0.4093 -0.2793 -0.6692 -0.3143 -0.6731 -0.0906 -1.2929 0.3821 -1.3836 1.0552 s 0.3821 1.2929 1.0552 1.3836 c 0.4037 0.0543 0.7882 -0.0939 1.0509 -0.3665" stroke="#fff"/>
<path d="m 675.175 975.943 c 0 0.7751 -0.6283 1.4034 -1.4034 1.4034 s -1.4034 -0.6283 -1.4034 -1.4034 0.6283 -1.4034 1.4034 -1.4034 1.4034 0.6283 1.4034 1.4034 z" stroke="#fff" stroke-width="1.1406" transform="matrix(-.03632,.87596,.87596,.03632,-140.02005,356.42547)"/>
<path d="m 687.901 986.192 c -0.0281 -0.6786 0.4998 -1.2522 1.1783 -1.2803 s 1.2522 0.4998 1.2803 1.1784" stroke="#fff"/>
<path d="m 672.749 976.904 c -0.236 -0.2511 -0.3806 -0.5891 -0.3806 -0.9607 0 -0.7747 0.6287 -1.4034 1.4034 -1.4034 0.4076 0 0.7749 0.1741 1.0313 0.4519" stroke="#fff" stroke-width="1.1406" transform="matrix(-.03632,.87596,.87596,.03632,-136.41144,359.96378)"/>
<path d="m 668.059 986.482 h 26.8571 v -26.42 h -22.0701" fill="none" stroke="#000"/>
</g>
</svg>
