<svg viewBox="0 0 512 512" xmlns="http://www.w3.org/2000/svg">

<g transform="matrix(18.68858,0,0,18.68858,-1590.08899,-18613.73635)">
<path d="m 86.9459 1005.97 c -1.7275 -1.4193 -0.0249 -4.2548 2.9208 -4.8243 2.2832 -0.4415 4.9455 -2.0349 5.7046 -2.4351 1.6451 -0.8674 5.2517 -2.1901 6.9409 -0.5429 1.7514 1.7079 2.7906 3.3115 5.1986 3.177 3.2423 -0.1813 4.158 2.1818 2.9939 4.3041 -1.4172 2.5836 -1.2988 3.8684 -0.262 5.1089 1.3975 1.6722 0.7547 4.0826 -1.4026 4.8493 -1.8348 0.6523 -2.5849 2.2435 -3.1347 3.6676 -1.1846 3.0688 -6.0037 3.9586 -8.2193 1.7444 -1.7077 -1.7067 -3.1222 -2.1398 -6.4764 -1.7363 s -5.7603 -3.1721 -3.4149 -5.6511 c 2.1237 -2.2447 2.0234 -5.3018 -0.8487 -7.6616 z" fill="#fff" fill-rule="evenodd"/>
<path d="m 102.737 1009.91 c 0 3.2278 -2.6166 5.8444 -5.8443 5.8444 s -5.8443 -2.6166 -5.8443 -5.8444 2.6166 -5.8443 5.8443 -5.8443 5.8443 2.6166 5.8443 5.8443 z" fill="#fff" stroke="#000" stroke-width=".7273" transform="matrix(1.375,0,0,1.375,-34.06637,-378.63304)"/>
<path d="m 108.387 1018.37 c -1.8215 1.3819 -0.5293 4.0119 1.7083 2.1632 2.2569 -1.8645 -0.1834 -3.3202 -1.7083 -2.1632 z" fill="#fff" fill-rule="evenodd"/>
<path d="m 94.2502 1013.86 h 9.8228" fill="none" stroke="#000"/>
<g transform="matrix(1.04701,0,0,1.04775,-4.37577,-48.07625)">
<path d="m 99.6556 1006.97 c 4.1486 -2.5784 5.9211 1.7678 3.2868 3.72" fill="none" stroke="#000" stroke-width=".9548"/>
<path d="m 98.1212 1006.97 c -4.1486 -2.5784 -5.9211 1.7678 -3.2868 3.72" fill="none" stroke="#000" stroke-width=".9548"/>
</g>
<g transform="matrix(1.04701,0,0,1.04775,-4.37577,-48.07625)">
<path d="m 99.8886 1005.46 c -3.5e-05 0.048 9.1e-05 5.4103 9.1e-05 5.4103" fill="none" stroke="#fff" stroke-width=".9548"/>
<path d="m 97.8882 1005.46 c 3e-05 0.048 -9e-05 5.4103 -9e-05 5.4103" fill="none" stroke="#fff" stroke-width=".9548"/>
</g>
<path d="m 99.1616 1013.52 v -10.0309" fill="none" stroke="#000"/>
<path d="m 92.6713 1010.92 h 12.9806" fill="none" stroke="#fff"/>
<path d="m 1779.98 1676.38 h 2.3559 v 2.3559 h -2.3559 z" transform="matrix(.95688,.29048,-.95688,.29048,0,0)"/>
<path d="m 94.2502 1011.91 h 9.8228" fill="none" stroke="#000"/>
<path d="m 101.738 1012.07 v 1.4226" fill="none" stroke="#000"/>
<path d="m 96.7008 1012.07 v 1.4226" fill="none" stroke="#000"/>
<path d="m 99.7383 1015.71 c 0 0.4088 -0.3314 0.7401 -0.7402 0.7401 s -0.7402 -0.3313 -0.7402 -0.7401 0.3314 -0.7402 0.7402 -0.7402 0.7402 0.3314 0.7402 0.7402 z" transform="translate(.173,.1153)"/>
</g>
</svg>
