<svg viewBox="0 0 512 512" xmlns="http://www.w3.org/2000/svg">

<g transform="matrix(18.68858,0,0,18.68858,-1590.08899,-18613.73635)">
<path d="m86.9459,1005.9732c-1.7275-1.4193-.0249-4.2548 2.9208-4.8243 2.2832-.4415 4.9455-2.0349 5.7046-2.4351 1.6451-.8674 5.2517-2.1901 6.9409-.5429 1.7514,1.7079 2.7906,3.3115 5.1986,3.177 3.2423-.1813 4.158,2.1818 2.9939,4.3041-1.4172,2.5836-1.2988,3.8684-.262,5.1089 1.3975,1.6722.7547,4.0826-1.4026,4.8493-1.8348.6523-2.5849,2.2435-3.1347,3.6676-1.1846,3.0688-6.0037,3.9586-8.2193,1.7444-1.7077-1.7067-3.1222-2.1398-6.4764-1.7363s-5.7603-3.1721-3.4149-5.6511c2.1237-2.2447 2.0234-5.3018-.8487-7.6616z" fill="#fff" fill-rule="evenodd"/>
<path d="m102.7374,1009.9138c0,3.2278-2.6166,5.8444-5.8443,5.8444s-5.8443-2.6166-5.8443-5.8444 2.6166-5.8443 5.8443-5.8443 5.8443,2.6166 5.8443,5.8443z" fill="#fff" stroke="#000" stroke-width=".7273" transform="matrix(1.375,0,0,1.375,-34.06637,-378.63304)"/>
<path d="m108.3867,1018.3724c-1.8215,1.3819-.5293,4.0119 1.7083,2.1632 2.2569-1.8645-.1834-3.3202-1.7083-2.1632z" fill="#fff" fill-rule="evenodd"/>
<path d="m94.2502,1013.86h9.8228" fill="none" stroke="#000"/>
<g transform="matrix(1.04701,0,0,1.04775,-4.37577,-48.07625)">
<path d="m99.6556,1006.9748c4.1486-2.5784 5.9211,1.7678 3.2868,3.72" fill="none" stroke="#000" stroke-width=".9548"/>
<path d="m98.1212,1006.9748c-4.1486-2.5784-5.9211,1.7678-3.2868,3.72" fill="none" stroke="#000" stroke-width=".9548"/>
</g>
<g transform="matrix(1.04701,0,0,1.04775,-4.37577,-48.07625)">
<path d="m99.8886,1005.463c-3.5e-05,.048 9.1e-05,5.4103 9.1e-05,5.4103" fill="none" stroke="#fff" stroke-width=".9548"/>
<path d="m97.8882,1005.463c3e-05,.048-9e-05,5.4103-9e-05,5.4103" fill="none" stroke="#fff" stroke-width=".9548"/>
</g>
<path d="m99.1616,1013.5201v-10.0309" fill="none" stroke="#000"/>
<path d="m92.6713,1010.9215h12.9806" fill="none" stroke="#fff"/>
<path d="m1779.9752,1676.3766h2.3559v2.3559h-2.3559z" transform="matrix(.95688,.29048,-.95688,.29048,0,0)"/>
<path d="m94.2502,1011.9081h9.8228" fill="none" stroke="#000"/>
<path d="m101.7377,1012.067v1.4226" fill="none" stroke="#000"/>
<path d="m96.7008,1012.067v1.4226" fill="none" stroke="#000"/>
<path d="m99.7383,1015.7101c0,.4088-.3314.7401-.7402.7401s-.7402-.3313-.7402-.7401 .3314-.7402.7402-.7402 .7402.3314.7402.7402z" transform="translate(.173,.1153)"/>
</g>
</svg>
