<svg viewBox="0 0 512 512" xmlns="http://www.w3.org/2000/svg">

<g transform="matrix(18.68858,0,0,18.68858,-13161.73935,-17253.24084)">
<path d="m709.0573,927.4683c6.2461,3.77 16.7225,9.3817 22.2938,8.8306" fill="none" stroke="#fff"/>
<path d="m704.9357,926.3509c5.9415,6.5752 12.717,14.2455 16.1378,23.6042" fill="none" stroke="#fff"/>
<path d="m714.089,932.1405c6.3982,5.7286 12.074,11.6076 15.5731,17.9397" fill="none" stroke="#fff"/>
<path d="m730.5174,942.2024c-1.8711.9548-2.8468,2.2483-3.2728,4.1711-2.1354-.9762-5.5572-.3445-6.8846,1.5837-1.0018-.6927-2.3505-.8799-3.303-.9704" fill="none" stroke="#fff"/>
<path d="m705.2871,923.8413c8.0005,8.0574 16.2608,14.1431 26.2671,18.9559" fill="none" stroke="#fff"/>
<path d="m715.3265,949.9592c2.0704-2.5682 2.394-5.4469 1.6007-8.4159" fill="none" stroke="#fff"/>
<path d="m718.5447,932.6279c4.5087,2.3401 8.7926,1.5751 12.7762-1.1259" fill="none" stroke="#fff"/>
<path d="m707.8355,930.058c.7294-.8536.9821-1.9107.6419-3.221" fill="none" stroke="#fff"/>
<path d="m713.1157,930.9291c.8994,1.6348 1.1364,3.6181.2792,5.2812" fill="none" stroke="#fff"/>
<path d="m711.1062,929.4095c-.1469.8669-.6317,2.0941-1.4875,2.7729" fill="none" stroke="#fff"/>
<path d="m715.6353,933.5962c.8054-.2998 1.4449-1.1758 1.3203-1.7919" fill="none" stroke="#fff"/>
<path d="m719.853,935.9737c1.1578-.1042 2.297-1.0163 2.3462-1.8615" fill="none" stroke="#fff"/>
<path d="m724.0868,942.0012c-1.8823.4621-3.9667,1.0688-4.9244,3.1206 .008-2.8072.7958-4.2507 2.3815-5.3747" fill="none" stroke="#fff"/>
<path d="m713.7724,936.702 5.9147.7217" fill="none" stroke="#fff"/>
<path d="m725.4099,935.6306c-1.5942,2.8765-.6785,5.6854.2888,8.4929" fill="none" stroke="#fff"/>
<path d="m728.6655,932.9728c.1064,1.1794.4527,2.3587 1.2273,3.5381-2.0141,1.0633-2.6801,2.3878-2.4545,4.1682" fill="none" stroke="#fff"/>
<path d="m721.1458,942.9455c1.8251,2.7524 3.4507,5.622 3.8639,6.9354m-8.5531-12.8754c.9666.8355 2.2954,2.4955 3.6218,4.3777" fill="none" stroke="#fff"/>
<path d="m727.9806,943.9614 3.425,2.6829" fill="none" stroke="#fff"/>
<path d="m704.9141,923.6419h26.422v26.376h-26.422z" fill="none" stroke="#000"/>
</g>
</svg>
