<svg viewBox="0 0 512 512" xmlns="http://www.w3.org/2000/svg">

<g transform="matrix(18.68858,0,0,18.68858,-13161.73935,-17253.24084)">
<path d="m 709.057 927.468 c 6.2461 3.77 16.7225 9.3817 22.2938 8.8306" fill="none" stroke="#fff"/>
<path d="m 704.936 926.351 c 5.9415 6.5752 12.717 14.2455 16.1378 23.6042" fill="none" stroke="#fff"/>
<path d="m 714.089 932.14 c 6.3982 5.7286 12.074 11.6076 15.5731 17.9397" fill="none" stroke="#fff"/>
<path d="m 730.517 942.202 c -1.8711 0.9548 -2.8468 2.2483 -3.2728 4.1711 -2.1354 -0.9762 -5.5572 -0.3445 -6.8846 1.5837 -1.0018 -0.6927 -2.3505 -0.8799 -3.303 -0.9704" fill="none" stroke="#fff"/>
<path d="m 705.287 923.841 c 8.0005 8.0574 16.2608 14.1431 26.2671 18.9559" fill="none" stroke="#fff"/>
<path d="m 715.327 949.959 c 2.0704 -2.5682 2.394 -5.4469 1.6007 -8.4159" fill="none" stroke="#fff"/>
<path d="m 718.545 932.628 c 4.5087 2.3401 8.7926 1.5751 12.7762 -1.1259" fill="none" stroke="#fff"/>
<path d="m 707.836 930.058 c 0.7294 -0.8536 0.9821 -1.9107 0.6419 -3.221" fill="none" stroke="#fff"/>
<path d="m 713.116 930.929 c 0.8994 1.6348 1.1364 3.6181 0.2792 5.2812" fill="none" stroke="#fff"/>
<path d="m 711.106 929.409 c -0.1469 0.8669 -0.6317 2.0941 -1.4875 2.7729" fill="none" stroke="#fff"/>
<path d="m 715.635 933.596 c 0.8054 -0.2998 1.4449 -1.1758 1.3203 -1.7919" fill="none" stroke="#fff"/>
<path d="m 719.853 935.974 c 1.1578 -0.1042 2.297 -1.0163 2.3462 -1.8615" fill="none" stroke="#fff"/>
<path d="m 724.087 942.001 c -1.8823 0.4621 -3.9667 1.0688 -4.9244 3.1206 0.008 -2.8072 0.7958 -4.2507 2.3815 -5.3747" fill="none" stroke="#fff"/>
<path d="m 713.772 936.702 5.9147 0.7217" fill="none" stroke="#fff"/>
<path d="m 725.41 935.631 c -1.5942 2.8765 -0.6785 5.6854 0.2888 8.4929" fill="none" stroke="#fff"/>
<path d="m 728.665 932.973 c 0.1064 1.1794 0.4527 2.3587 1.2273 3.5381 -2.0141 1.0633 -2.6801 2.3878 -2.4545 4.1682" fill="none" stroke="#fff"/>
<path d="m 721.146 942.946 c 1.8251 2.7524 3.4507 5.622 3.8639 6.9354 m -8.5531 -12.8754 c 0.9666 0.8355 2.2954 2.4955 3.6218 4.3777" fill="none" stroke="#fff"/>
<path d="m 727.981 943.961 3.425 2.6829" fill="none" stroke="#fff"/>
<path d="m 704.914 923.642 h 26.422 v 26.376 h -26.422 z" fill="none" stroke="#000"/>
</g>
</svg>
