<svg xmlns="http://www.w3.org/2000/svg" viewBox="0 0 512 512">
<g transform="matrix(15 0 0 15 16 -12049.433)">
<use width="744.094" height="1052.362" transform="translate(36 800.36217)"/>
<path fill="#fff" d="m88,4c-2.7614,0-5,2.2386-5,5 0,1.1374 .3916,2.1599 1.0312,3h-4.0312l-6,14h28l-6-14h-4.0312c.6397-.8401 1.0312-1.8626 1.0312-3 0-2.7614-2.2386-5-5-5zm0,2c1.6569,0 3,1.3431 3,3 0,1.6569-1.3431,3-3,3-1.6569,0-3-1.3431-3-3 0-1.6569 1.3431-3 3-3zm-.2812,22a4,4 0 0,0 -3.7188,4 4,4 0 0,0 8,0 4,4 0 0,0 -4.2812-4z" transform="translate(-72 800.36217)"/>
</g>
</svg>
