<svg viewBox="0 0 512 512" xmlns="http://www.w3.org/2000/svg">

<g transform="matrix(18.68858,0,0,18.68858,-13170.93423,-46289.23392)">
<g transform="matrix(.61904,.3574,-.3574,.61904,1172.5656,685.98747)">
<path d="m717.9216,2497.8803c-2.2902,1.6807-5.1399-.4558-5.899-6.1964 4.7677,1.4017 7.2847,3.8618 5.899,6.1964z" fill="#fff"/>
<path d="m717.1907,2493.8377c2.4292,1.0485 4.7333-2.4113 5.1516-8.0608-4.7773,2.4493-7.0067,5.6816-5.1516,8.0608z" fill="#fff"/>
<path d="m717.5176,2493.8377c-2.4292,1.0485-4.7333-2.4113-5.1516-8.0608 4.7773,2.4493 7.0067,5.6816 5.1516,8.0608z" fill="#fff"/>
<path d="m716.8766,2497.8803c2.2902,1.6807 5.1399-.4558 5.899-6.1964-4.7677,1.4017-7.2847,3.8618-5.899,6.1964z" fill="#fff"/>
<path d="m717.2933,2480.8077v17.8361" fill="none" stroke="#000" stroke-width="1.399"/>
<path d="m717.2933,2489.6548c2.5524-.5771 2.6289-4.5274 0-9.0808-2.6451,4.5814-2.7798,8.3156 0,9.0808z" fill="#fff"/>
<path d="m714.4078,2486.2019 2.8855,3.9751 2.8855-3.9751" fill="none" stroke="#000" stroke-width="1.399"/>
<path d="m711.8202,2489.9627 5.4731,4.984 5.4731-4.984" fill="none" stroke="#000" stroke-width="1.399"/>
</g>
<path d="m723.2037,2489.9244c-1.8603,4.1909-3.1873,8.5633-3.3362,13.6321" fill="none" stroke="#fff"/>
<g transform="matrix(.69045,.18501,-.18501,.69045,682.19889,637.97597)">
<path d="m717.9216,2497.8803c-2.2902,1.6807-5.1399-.4558-5.899-6.1964 4.7677,1.4017 7.2847,3.8618 5.899,6.1964z" fill="#fff"/>
<path d="m717.1907,2493.8377c2.4292,1.0485 4.7333-2.4113 5.1516-8.0608-4.7773,2.4493-7.0067,5.6816-5.1516,8.0608z" fill="#fff"/>
<path d="m717.5176,2493.8377c-2.4292,1.0485-4.7333-2.4113-5.1516-8.0608 4.7773,2.4493 7.0067,5.6816 5.1516,8.0608z" fill="#fff"/>
<path d="m716.8766,2497.8803c2.2902,1.6807 5.1399-.4558 5.899-6.1964-4.7677,1.4017-7.2847,3.8618-5.899,6.1964z" fill="#fff"/>
<path d="m717.2933,2480.8077v17.8361" fill="none" stroke="#000" stroke-width="1.399"/>
<path d="m717.2933,2489.6548c2.5524-.5771 2.6289-4.5274 0-9.0808-2.6451,4.5814-2.7798,8.3156 0,9.0808z" fill="#fff"/>
<path d="m714.4078,2486.2019 2.8855,3.9751 2.8855-3.9751" fill="none" stroke="#000" stroke-width="1.399"/>
<path d="m711.8202,2489.9627 5.4731,4.984 5.4731-4.984" fill="none" stroke="#000" stroke-width="1.399"/>
</g>
<path d="m715.0419,2496.7487c-.7237,2.3545-1.2553,4.7041-1.4698,7.0811" fill="none" stroke="#fff"/>
<g transform="matrix(.71256,.05659,-.05659,.71256,339.28232,669.61635)">
<path d="m717.9216,2497.8803c-2.2902,1.6807-5.1399-.4558-5.899-6.1964 4.7677,1.4017 7.2847,3.8618 5.899,6.1964z" fill="#fff"/>
<path d="m717.1907,2493.8377c2.4292,1.0485 4.7333-2.4113 5.1516-8.0608-4.7773,2.4493-7.0067,5.6816-5.1516,8.0608z" fill="#fff"/>
<path d="m717.5176,2493.8377c-2.4292,1.0485-4.7333-2.4113-5.1516-8.0608 4.7773,2.4493 7.0067,5.6816 5.1516,8.0608z" fill="#fff"/>
<path d="m716.8766,2497.8803c2.2902,1.6807 5.1399-.4558 5.899-6.1964-4.7677,1.4017-7.2847,3.8618-5.899,6.1964z" fill="#fff"/>
<path d="m717.2933,2480.8077v17.8361" fill="none" stroke="#000" stroke-width="1.399"/>
<path d="m717.2933,2489.6548c2.5524-.5771 2.6289-4.5274 0-9.0808-2.6451,4.5814-2.7798,8.3156 0,9.0808z" fill="#fff"/>
<path d="m714.4078,2486.2019 2.8855,3.9751 2.8855-3.9751" fill="none" stroke="#000" stroke-width="1.399"/>
<path d="m711.8202,2489.9627 5.4731,4.984 5.4731-4.984" fill="none" stroke="#000" stroke-width="1.399"/>
</g>
<path d="m709.0053,2491.5436c-.4811,4.1412-.4237,8.1686.797,12.1265" fill="none" stroke="#fff"/>
<path d="m724.3206,2502.0885c-.1352.5563-.2129,1.132-.1897,1.7412" fill="none" stroke="#fff"/>
<path d="m707.2628,2503.7605h20.9648" fill="none" stroke="#000"/>
<g transform="matrix(.66357,.26577,-.26577,.66357,912.63447,652.5916)">
<path d="m717.9216,2497.8803c-2.2902,1.6807-5.1399-.4558-5.899-6.1964 4.7677,1.4017 7.2847,3.8618 5.899,6.1964z" fill="#fff"/>
<path d="m717.1907,2493.8377c2.4292,1.0485 4.7333-2.4113 5.1516-8.0608-4.7773,2.4493-7.0067,5.6816-5.1516,8.0608z" fill="#fff"/>
<path d="m717.5176,2493.8377c-2.4292,1.0485-4.7333-2.4113-5.1516-8.0608 4.7773,2.4493 7.0067,5.6816 5.1516,8.0608z" fill="#fff"/>
<path d="m716.8766,2497.8803c2.2902,1.6807 5.1399-.4558 5.899-6.1964-4.7677,1.4017-7.2847,3.8618-5.899,6.1964z" fill="#fff"/>
<path d="m717.2933,2480.8077v17.8361" fill="none" stroke="#000" stroke-width="1.399"/>
<path d="m717.2933,2489.6548c2.5524-.5771 2.6289-4.5274 0-9.0808-2.6451,4.5814-2.7798,8.3156 0,9.0808z" fill="#fff"/>
<path d="m714.4078,2486.2019 2.8855,3.9751 2.8855-3.9751" fill="none" stroke="#000" stroke-width="1.399"/>
<path d="m711.8202,2489.9627 5.4731,4.984 5.4731-4.984" fill="none" stroke="#000" stroke-width="1.399"/>
</g>
</g>
</svg>
