<svg viewBox="0 0 512 512" xmlns="http://www.w3.org/2000/svg">

<g transform="matrix(18.68858,0,0,18.68858,-13170.93423,-46289.23392)">
<g transform="matrix(.61904,.3574,-.3574,.61904,1172.5656,685.98747)">
<path d="m 717.922 2497.88 c -2.2902 1.6807 -5.1399 -0.4558 -5.899 -6.1964 4.7677 1.4017 7.2847 3.8618 5.899 6.1964 z" fill="#fff"/>
<path d="m 717.191 2493.84 c 2.4292 1.0485 4.7333 -2.4113 5.1516 -8.0608 -4.7773 2.4493 -7.0067 5.6816 -5.1516 8.0608 z" fill="#fff"/>
<path d="m 717.518 2493.84 c -2.4292 1.0485 -4.7333 -2.4113 -5.1516 -8.0608 4.7773 2.4493 7.0067 5.6816 5.1516 8.0608 z" fill="#fff"/>
<path d="m 716.877 2497.88 c 2.2902 1.6807 5.1399 -0.4558 5.899 -6.1964 -4.7677 1.4017 -7.2847 3.8618 -5.899 6.1964 z" fill="#fff"/>
<path d="m 717.293 2480.81 v 17.8361" fill="none" stroke="#000" stroke-width="1.399"/>
<path d="m 717.293 2489.65 c 2.5524 -0.5771 2.6289 -4.5274 0 -9.0808 -2.6451 4.5814 -2.7798 8.3156 0 9.0808 z" fill="#fff"/>
<path d="m 714.408 2486.2 2.8855 3.9751 2.8855 -3.9751" fill="none" stroke="#000" stroke-width="1.399"/>
<path d="m 711.82 2489.96 5.4731 4.984 5.4731 -4.984" fill="none" stroke="#000" stroke-width="1.399"/>
</g>
<path d="m 723.204 2489.92 c -1.8603 4.1909 -3.1873 8.5633 -3.3362 13.6321" fill="none" stroke="#fff"/>
<g transform="matrix(.69045,.18501,-.18501,.69045,682.19889,637.97597)">
<path d="m 717.922 2497.88 c -2.2902 1.6807 -5.1399 -0.4558 -5.899 -6.1964 4.7677 1.4017 7.2847 3.8618 5.899 6.1964 z" fill="#fff"/>
<path d="m 717.191 2493.84 c 2.4292 1.0485 4.7333 -2.4113 5.1516 -8.0608 -4.7773 2.4493 -7.0067 5.6816 -5.1516 8.0608 z" fill="#fff"/>
<path d="m 717.518 2493.84 c -2.4292 1.0485 -4.7333 -2.4113 -5.1516 -8.0608 4.7773 2.4493 7.0067 5.6816 5.1516 8.0608 z" fill="#fff"/>
<path d="m 716.877 2497.88 c 2.2902 1.6807 5.1399 -0.4558 5.899 -6.1964 -4.7677 1.4017 -7.2847 3.8618 -5.899 6.1964 z" fill="#fff"/>
<path d="m 717.293 2480.81 v 17.8361" fill="none" stroke="#000" stroke-width="1.399"/>
<path d="m 717.293 2489.65 c 2.5524 -0.5771 2.6289 -4.5274 0 -9.0808 -2.6451 4.5814 -2.7798 8.3156 0 9.0808 z" fill="#fff"/>
<path d="m 714.408 2486.2 2.8855 3.9751 2.8855 -3.9751" fill="none" stroke="#000" stroke-width="1.399"/>
<path d="m 711.82 2489.96 5.4731 4.984 5.4731 -4.984" fill="none" stroke="#000" stroke-width="1.399"/>
</g>
<path d="m 715.042 2496.75 c -0.7237 2.3545 -1.2553 4.7041 -1.4698 7.0811" fill="none" stroke="#fff"/>
<g transform="matrix(.71256,.05659,-.05659,.71256,339.28232,669.61635)">
<path d="m 717.922 2497.88 c -2.2902 1.6807 -5.1399 -0.4558 -5.899 -6.1964 4.7677 1.4017 7.2847 3.8618 5.899 6.1964 z" fill="#fff"/>
<path d="m 717.191 2493.84 c 2.4292 1.0485 4.7333 -2.4113 5.1516 -8.0608 -4.7773 2.4493 -7.0067 5.6816 -5.1516 8.0608 z" fill="#fff"/>
<path d="m 717.518 2493.84 c -2.4292 1.0485 -4.7333 -2.4113 -5.1516 -8.0608 4.7773 2.4493 7.0067 5.6816 5.1516 8.0608 z" fill="#fff"/>
<path d="m 716.877 2497.88 c 2.2902 1.6807 5.1399 -0.4558 5.899 -6.1964 -4.7677 1.4017 -7.2847 3.8618 -5.899 6.1964 z" fill="#fff"/>
<path d="m 717.293 2480.81 v 17.8361" fill="none" stroke="#000" stroke-width="1.399"/>
<path d="m 717.293 2489.65 c 2.5524 -0.5771 2.6289 -4.5274 0 -9.0808 -2.6451 4.5814 -2.7798 8.3156 0 9.0808 z" fill="#fff"/>
<path d="m 714.408 2486.2 2.8855 3.9751 2.8855 -3.9751" fill="none" stroke="#000" stroke-width="1.399"/>
<path d="m 711.82 2489.96 5.4731 4.984 5.4731 -4.984" fill="none" stroke="#000" stroke-width="1.399"/>
</g>
<path d="m 709.005 2491.54 c -0.4811 4.1412 -0.4237 8.1686 0.797 12.1265" fill="none" stroke="#fff"/>
<path d="m 724.321 2502.09 c -0.1352 0.5563 -0.2129 1.132 -0.1897 1.7412" fill="none" stroke="#fff"/>
<path d="m 707.263 2503.76 h 20.9648" fill="none" stroke="#000"/>
<g transform="matrix(.66357,.26577,-.26577,.66357,912.63447,652.5916)">
<path d="m 717.922 2497.88 c -2.2902 1.6807 -5.1399 -0.4558 -5.899 -6.1964 4.7677 1.4017 7.2847 3.8618 5.899 6.1964 z" fill="#fff"/>
<path d="m 717.191 2493.84 c 2.4292 1.0485 4.7333 -2.4113 5.1516 -8.0608 -4.7773 2.4493 -7.0067 5.6816 -5.1516 8.0608 z" fill="#fff"/>
<path d="m 717.518 2493.84 c -2.4292 1.0485 -4.7333 -2.4113 -5.1516 -8.0608 4.7773 2.4493 7.0067 5.6816 5.1516 8.0608 z" fill="#fff"/>
<path d="m 716.877 2497.88 c 2.2902 1.6807 5.1399 -0.4558 5.899 -6.1964 -4.7677 1.4017 -7.2847 3.8618 -5.899 6.1964 z" fill="#fff"/>
<path d="m 717.293 2480.81 v 17.8361" fill="none" stroke="#000" stroke-width="1.399"/>
<path d="m 717.293 2489.65 c 2.5524 -0.5771 2.6289 -4.5274 0 -9.0808 -2.6451 4.5814 -2.7798 8.3156 0 9.0808 z" fill="#fff"/>
<path d="m 714.408 2486.2 2.8855 3.9751 2.8855 -3.9751" fill="none" stroke="#000" stroke-width="1.399"/>
<path d="m 711.82 2489.96 5.4731 4.984 5.4731 -4.984" fill="none" stroke="#000" stroke-width="1.399"/>
</g>
</g>
</svg>
