<svg viewBox="0 0 512 512" xmlns="http://www.w3.org/2000/svg">

<g transform="matrix(18.68858,0,0,18.68858,-9079.00959,-33370.52379)">
<path d="m510.6297,1802.679c4.3234-13.4612-16.483-21.248-22.1555-8.3221-4.9825,11.3539 10.4337,22.2943 17.621,11.4404 2.6254-3.9647-.8544-7.8992-6.1133-4.258-5.9236,4.1013-9.5962-5.0794-5.2341-6.3181" fill="none" stroke="#fff"/>
<path d="m510.222,1798.8896c.348-5.4779-5.6644-12.1609-16.1459-10.6385 10.424-3.9731 18.5787,3.957 18.0265,11.0952" fill="#fff"/>
<path d="m-785.914,989.6503c0,3.0924-2.5069,5.5993-5.5993,5.5993s-5.5993-2.5069-5.5993-5.5993 2.5069-5.5993 5.5993-5.5993 5.5993,2.5069 5.5993,5.5993z" fill="#fff" stroke="#000" stroke-width="3.1143" transform="matrix(.31649,.05421,-.05421,.31649,815.13283,1529.6948)"/>
<path d="m511.9343,1802.9603c-.3514,1.6314-2.8902,6.7182-4.7187,9.4864-.9172.2279-3.3472-.8021-2.8006-2.4024 2.5367-2.5058 4.5332-5.1511 4.7736-8.2501 .3355-1.4361 3.0189-.8204 2.7457,1.1661z" fill="#fff" stroke="#000"/>
<path d="m496.8602,1798.8248c2.0298-1.1989 1.1319-3.0255-.4525-3.499 2.0546-.1644 2.9686,1.3074 3.0522,2.3569 .7633-1.3516.1273-2.9606-2.0142-3.2833 .9736-.419 2.9847.065 3.7677,1.1112-.063-3.2973-6.1216-2.5431-8.35.7155 3.4837-1.4444 4.8313.9848 3.9967,2.5987z" fill="#fff"/>
</g>
</svg>
