<svg viewBox="0 0 512 512" xmlns="http://www.w3.org/2000/svg">

<g transform="matrix(18.68858,0,0,18.68858,-5277.35874,-14163.92283)">
<path d="m284.625,767.6602c6.3061,4.4364 2.7319,10.6427 7.25,16.6791h2.0625c.0338-.0423.0744-.0711.0937-.1264 2.2907-6.5419 7.659-9.4849 13.125-16.1104l-22.5312-.4422z" fill="#fff" fill-rule="evenodd"/>
<path d="m285.2853,770.8513c2.2842,9.9409 14.1666,7.3912 19.9375.8213l-19.9375-.8213z" fill-rule="evenodd"/>
<path d="m286.125,769.5872c2.2842,9.9409 14.1666,7.3912 19.9375.8213l-19.9375-.8213z" fill="#fff" fill-rule="evenodd"/>
<path d="m308.377,767.3635c0,3.2032-5.6348,5.5015-12.5778,5.1301s-12.5778-3.2726-12.5778-6.4758l25.1555,1.3457z"/>
<path d="m283.3224,764.9615c0,3.4825 6.2934,5.7705 13.1359,5.005 4.8562-.5432 8.9427-2.4516 10.7325-4.7704-2.3587,4.4051-7.6893,5.6902-12.5144,6.2172 6.0066.2756 14.0476-1.7651 14.0476-6.6473 0-3.4528-6.2934-5.7705-13.1359-5.005-4.8562.5432-8.9012,2.4516-10.6911,4.7704 .9851-2.6361 4.8938-5.0228 9.9452-5.9044-5.1422.395-11.5198,2.597-11.5198,6.3345z" fill="#fff"/>
<path d="m307,799.4247c0,3.003-4.5891,5.4375-10.25,5.4375s-10.25-2.4345-10.25-5.4375 4.5891-5.4375 10.25-5.4375 10.25,2.4345 10.25,5.4375z" transform="matrix(.84162,-.06181,0,.67967,46.77641,239.56024)"/>
<path d="m289.1992,768.6777c3.9419-3.7679 11.7201-2.8771 14.09-1.4456" fill="none" stroke="#fff"/>
<path d="m287.4839,766.0018c4.9017-4.71 14.5737-2.8308 17.5206-.7014" fill="none" stroke="#fff"/>
<path d="m297.7044,773.7302c-4.3083.0212-7.8557-.4346-11.8395-4.3109l-1.5837.8836c3.4363,4.177 7.6475,5.0335 13.4232,3.4272z"/>
<path d="m288.4996,776.0944c.9216,5.1197 9.1309,3.8431 12.3744-.8179" fill="none" stroke="#000"/>
<path d="m297.0557,778.8137c-1.1243,4.9965-7.051,2.8053-9.0301-2.2009" fill="none" stroke="#000"/>
</g>
</svg>
