<svg viewBox="0 0 512 512" xmlns="http://www.w3.org/2000/svg">

<g transform="matrix(18.68858,0,0,18.68858,-5277.35874,-14163.92283)">
<path d="m 284.625 767.66 c 6.3061 4.4364 2.7319 10.6427 7.25 16.6791 h 2.0625 c 0.0338 -0.0423 0.0744 -0.0711 0.0937 -0.1264 2.2907 -6.5419 7.659 -9.4849 13.125 -16.1104 l -22.5312 -0.4422 z" fill="#fff" fill-rule="evenodd"/>
<path d="m 285.285 770.851 c 2.2842 9.9409 14.1666 7.3912 19.9375 0.8213 l -19.9375 -0.8213 z" fill-rule="evenodd"/>
<path d="m 286.125 769.587 c 2.2842 9.9409 14.1666 7.3912 19.9375 0.8213 l -19.9375 -0.8213 z" fill="#fff" fill-rule="evenodd"/>
<path d="m 308.377 767.364 c 0 3.2032 -5.6348 5.5015 -12.5778 5.1301 s -12.5778 -3.2726 -12.5778 -6.4758 l 25.1555 1.3457 z"/>
<path d="m 283.322 764.962 c 0 3.4825 6.2934 5.7705 13.1359 5.005 4.8562 -0.5432 8.9427 -2.4516 10.7325 -4.7704 -2.3587 4.4051 -7.6893 5.6902 -12.5144 6.2172 6.0066 0.2756 14.0476 -1.7651 14.0476 -6.6473 0 -3.4528 -6.2934 -5.7705 -13.1359 -5.005 -4.8562 0.5432 -8.9012 2.4516 -10.6911 4.7704 0.9851 -2.6361 4.8938 -5.0228 9.9452 -5.9044 -5.1422 0.395 -11.5198 2.597 -11.5198 6.3345 z" fill="#fff"/>
<path d="m 307 799.425 c 0 3.003 -4.5891 5.4375 -10.25 5.4375 s -10.25 -2.4345 -10.25 -5.4375 4.5891 -5.4375 10.25 -5.4375 10.25 2.4345 10.25 5.4375 z" transform="matrix(.84162,-.06181,0,.67967,46.77641,239.56024)"/>
<path d="m 289.199 768.678 c 3.9419 -3.7679 11.7201 -2.8771 14.09 -1.4456" fill="none" stroke="#fff"/>
<path d="m 287.484 766.002 c 4.9017 -4.71 14.5737 -2.8308 17.5206 -0.7014" fill="none" stroke="#fff"/>
<path d="m 297.704 773.73 c -4.3083 0.0212 -7.8557 -0.4346 -11.8395 -4.3109 l -1.5837 0.8836 c 3.4363 4.177 7.6475 5.0335 13.4232 3.4272 z"/>
<path d="m 288.5 776.094 c 0.9216 5.1197 9.1309 3.8431 12.3744 -0.8179" fill="none" stroke="#000"/>
<path d="m 297.056 778.814 c -1.1243 4.9965 -7.051 2.8053 -9.0301 -2.2009" fill="none" stroke="#000"/>
</g>
</svg>
