<svg viewBox="0 0 512 512" xmlns="http://www.w3.org/2000/svg">

<g transform="matrix(-18.68858,0,0,18.68858,12314.7711,-35399.05233)">
<path d="m 634.934 1915.18 h 21.6543 c 5.5603 -7.5585 -2.9153 -16.0184 -12.3303 -8.5071 -9.3759 -6.6333 -11.3395 1.3932 -9.324 8.5071 z" fill="#fff" stroke="#000"/>
<path d="m 643.325 1895.2 c 4.5224 8.4475 0.1803 12.145 -4.5507 12.0866 -5.4732 -0.068 -9.4201 -4.3367 -4.6336 -12.1298 l 1.8715 3.0937 c 1.6091 -0.5214 4.0037 -0.4195 5.5106 0 z" fill="#fff" stroke="#000"/>
<path d="m 637.45 1903.48 c -1.9857 0.9583 -2.8876 0.1819 -3.2734 -1.4203 1.949 -1.2094 3.1097 -0.238 3.2734 1.4203 z"/>
<path d="m 639.929 1903.48 c 1.9857 0.9583 2.8876 0.1819 3.2734 -1.4203 -1.949 -1.2094 -3.1097 -0.238 -3.2734 1.4203 z"/>
<path d="m 655.555 1912.3 c -1.1034 2.4709 -2.3308 3.5615 -3.6303 4.0518 s -2.812 0.3821 -4.5247 0.1397 -3.6041 -0.634 -5.5759 -0.4938 -3.9785 0.8473 -5.8526 2.6776 c -1.2343 1.2055 0.2379 2.4229 1.2746 1.2925 1.5204 -1.658 3.1818 -2.0843 4.8428 -2.2026 s 3.4038 0.1984 5.1848 0.4504 3.5898 0.4431 5.3476 -0.2201 3.331 -2.1807 4.5511 -4.9127 l -1.6175 -0.7825 z" fill="#fff"/>
</g>
</svg>
