<svg viewBox="0 0 512 512" xmlns="http://www.w3.org/2000/svg">

<g transform="matrix(-18.68858,0,0,18.68858,12314.7711,-35399.05233)">
<path d="m634.9341,1915.1836h21.6543c5.5603-7.5585-2.9153-16.0184-12.3303-8.5071-9.3759-6.6333-11.3395,1.3932-9.324,8.5071z" fill="#fff" stroke="#000"/>
<path d="m643.3252,1895.2011c4.5224,8.4475.1803,12.145-4.5507,12.0866-5.4732-.068-9.4201-4.3367-4.6336-12.1298l1.8715,3.0937c1.6091-.5214 4.0037-.4195 5.5106,0z" fill="#fff" stroke="#000"/>
<path d="m637.4502,1903.4774c-1.9857.9583-2.8876.1819-3.2734-1.4203 1.949-1.2094 3.1097-.238 3.2734,1.4203z"/>
<path d="m639.9294,1903.4774c1.9857.9583 2.8876.1819 3.2734-1.4203-1.949-1.2094-3.1097-.238-3.2734,1.4203z"/>
<path d="m655.5546,1912.2981c-1.1034,2.4709-2.3308,3.5615-3.6303,4.0518s-2.812.3821-4.5247.1397-3.6041-.634-5.5759-.4938-3.9785.8473-5.8526,2.6776c-1.2343,1.2055.2379,2.4229 1.2746,1.2925 1.5204-1.658 3.1818-2.0843 4.8428-2.2026s3.4038.1984 5.1848.4504 3.5898.4431 5.3476-.2201 3.331-2.1807 4.5511-4.9127l-1.6175-.7825z" fill="#fff"/>
</g>
</svg>
