<svg viewBox="0 0 512 512" xmlns="http://www.w3.org/2000/svg">

<g transform="matrix(18.68858,0,0,18.68858,-3637.33946,-38100.82993)">
<path d="m203.7601,2042.7799c.2217.8449.5126,1.4933 1.184,2.0006-.0635-.8232.2929-2.413 1.0629-3.1329-.2214,1.4593-.004,2.9041 1.5544,3.6566 .832-1.8106.9922-3.2012.5556-5.6321 1.9645,2.5536 1.9532,9.9061-1.5829,10.6572-3.2918-.9944-3.6989-5.14-2.774-7.5494z" fill="#fff"/>
<path d="m204.4512,2050.9273c.1691,1.5772-1.4441,4.1989-3.2106,4.8004 1.8322-3.5069 1.9571-6.3169-.4489-9.1759 .9124,8.8435-4.1003,7.352-3.0159,1.6139-3.2517,4.2266-2.7037,12.6741 2.62,13.5994 5.7061-1.299 5.4672-8.0407 4.0554-10.8378z" fill="#fff"/>
<path d="m210.8168,2047.8069c-1.2831,3.3363.1743,4.4788 1.3724,3.4355 2.2386-1.9493-1.0866-2.5908 1.103-4.5797 .2062,2.0523 2.289,2.4641 2.5531-.3604 1.3634,1.8698.3121,4.6335.1492,6.6531-.3838,4.7598 4.1536,2.1484 2.0559-1.7863-1.1788-2.211-.4681-4.7066 2.4164-7.3735-2.3454,3.7869 2.1495,8.57.1547,14.2007-1.1291,3.1872-1.8306,5.519-5.0295,7.1532-6.5691-.6957-10.7945-11.3918-4.7752-17.3426z" fill="#fff"/>
<path d="m202.3459,2040.2445c-1.7932,1.0795-2.0991,3.6021-1.9438,5.5215-3.0128-2.3837-1.5808-7.935 1.9438-5.5215z" fill="#fff"/>
<path d="m211.6913,2040.285c.7985,1.5172.2289,4.4103-.4478,6.5464 1.9286-1.5935 2.8508-5.743.4478-6.5464z" fill="#fff"/>
<path d="m202.6444,2056.2936c-.2212.845-.5126,1.4933-1.1841,2.0007-.3949-.8997-1.2338-2.8874-1.9009-3.5901 .2214,1.4592.1183,2.9803-.7163,4.1137-.832-1.8106-.9922-3.2013-.5555-5.6321-1.9645,2.5536-1.4961,9.9442 2.04,10.6952 3.2918-.9944 3.2417-5.1781 2.3168-7.5874z"/>
<path d="m218.1105,2056.5939c-.5843,1.5675-2.5623,3.4249-4.0192,3.9209 1.5111-2.8922 1.6141-5.2097-.3703-7.5675 .7525,7.2934-3.3816,6.0633-2.4873,1.331-2.6817,3.4858-1.3726,10.2573 4.1416,11.2157 4.2869-2.0617 3.8994-6.5932 2.7351-8.9001z"/>
<path d="m207.9657,2046.881c-.1396.5331-.3234.9422-.7471,1.2624 .0401-.5195-.1848-1.5226-.6706-1.9769-.0732.7245-.2375,1.4035-.7141,1.9263 0,0-.8927-1.1438-.6172-2.6776-1.2395,1.6113-1.0801,5.0406 1.1512,5.0864 2.077-.1725 2.1815-2.1004 1.5979-3.6206z"/>
</g>
</svg>
