<svg viewBox="0 0 512 512" xmlns="http://www.w3.org/2000/svg">

<g transform="matrix(18.68858,0,0,18.68858,-4992.33295,-36086.3501)">
<path d="m 269.482 1931.58 -1.5312 1.5313 11.875 11.625 1.7812 -1.2813 -12.125 -11.875 z" fill="#fff" stroke="#000"/>
<path d="m 285.014 1939.58 c 2.3218 0.3673 4.0414 2.6465 3.6552 5.4919 -0.4413 3.2518 -2.7478 6.1225 -5.6516 6.3435 -0.7431 0.057 -2.1062 -0.2354 -2.5854 -1.0789 -0.436 0.7011 -1.9886 0.6373 -2.6906 0.3901 -2.7427 -0.966 -4.046 -4.318 -3.6047 -7.5699 s 3.0254 -5.1071 5.7682 -4.1413 c 0.6996 0.2465 1.3451 0.6484 1.9072 1.1705 0.6814 -0.3582 1.4114 -0.5787 2.1521 -0.6351 0.363 -0.028 0.718 -0.023 1.0497 0.029 z" fill="#fff" stroke="#000"/>
<path d="m 281.276 1941.18 c 0.1699 -1.6203 -0.1856 -2.7819 -1.069 -4.1919 0.1397 -0.8771 0.9928 -1.0696 1.4495 -1.0695 0.6148 1.9354 0.7856 3.572 0.4506 5.4523" fill="#fff" fill-rule="evenodd"/>
<path d="m 282.685 1948.2 4.3809 4.264 c 0 0 -0.5745 0.6649 -2.91 1.7608 2.5697 1.7131 6.584 3.2933 9.9117 3.4897 0.145 -3.3508 -1.6984 -7.1065 -3.5614 -9.6789 -0.5881 1.6689 -1.8946 2.9143 -1.8946 2.9143 l -4.381 -4.2642 c -0.8342 -0.8176 -2.4699 0.609 -1.5455 1.5145 z" fill="#fff" stroke="#000"/>
<path d="m 273.336 1936.88 -2.9921 0.4274 -2.0453 -2.0454 2.4302 -0.9893 0.9893 -2.4301 2.0454 2.0452 z" fill="#fff"/>
</g>
</svg>
