<svg viewBox="0 0 512 512" xmlns="http://www.w3.org/2000/svg">

<g transform="matrix(18.68858,0,0,18.68858,-4992.33295,-36086.3501)">
<path d="m269.4823,1931.5752-1.5312,1.5313 11.875,11.625 1.7812-1.2813-12.125-11.875z" fill="#fff" stroke="#000"/>
<path d="m285.0142,1939.5809c2.3218.3673 4.0414,2.6465 3.6552,5.4919-.4413,3.2518-2.7478,6.1225-5.6516,6.3435-.7431.057-2.1062-.2354-2.5854-1.0789-.436.7011-1.9886.6373-2.6906.3901-2.7427-.966-4.046-4.318-3.6047-7.5699s3.0254-5.1071 5.7682-4.1413c.6996.2465 1.3451.6484 1.9072,1.1705 .6814-.3582 1.4114-.5787 2.1521-.6351 .363-.028.718-.023 1.0497.029z" fill="#fff" stroke="#000"/>
<path d="m281.2765,1941.1798c.1699-1.6203-.1856-2.7819-1.069-4.1919 .1397-.8771.9928-1.0696 1.4495-1.0695 .6148,1.9354.7856,3.572.4506,5.4523" fill="#fff" fill-rule="evenodd"/>
<path d="m282.6854,1948.1975 4.3809,4.264c0,0-.5745.6649-2.91,1.7608 2.5697,1.7131 6.584,3.2933 9.9117,3.4897 .145-3.3508-1.6984-7.1065-3.5614-9.6789-.5881,1.6689-1.8946,2.9143-1.8946,2.9143l-4.381-4.2642c-.8342-.8176-2.4699.609-1.5455,1.5145z" fill="#fff" stroke="#000"/>
<path d="m273.3358,1936.8773-2.9921.4274-2.0453-2.0454 2.4302-.9893 .9893-2.4301 2.0454,2.0452z" fill="#fff"/>
</g>
</svg>
