<svg viewBox="0 0 512 512" xmlns="http://www.w3.org/2000/svg">

<g transform="matrix(18.68858,0,0,18.68858,-6353.3101,-36765.84631)">
<path d="m353.5312,1987.5416-3.8125,1.9873c.9075,1.4423 2.2813,2.8383 4.0625,4.1273 1.7011-1.2357 2.9642-2.5924 3.875-3.9745l-4.125-2.1401z" fill="#fff"/>
<g transform="translate(.1245)">
<path d="m355.8713,1975.9268c4.3756.9486 8.6919-1.8294 9.6953-6.1454 1.4207,4.3236-.9285,8.8875-5.1923,10.2532" fill="#fff"/>
<path d="m351.4352,1975.9268c-4.3756.9486-8.6919-1.8294-9.6953-6.1454-1.4207,4.3236.9285,8.8875 5.1923,10.2532" fill="#fff"/>
</g>
<g transform="translate(-.1056)">
<path d="m358.9938,1977.7817c2.1042,2.6507 5.5157,2.6504 7.629.067-.7612,3.6881-3.7157,5.8373-6.5898,4.8666" fill="#fff"/>
<path d="m348.7729,1977.7817c-2.1042,2.6507-5.5157,2.6504-7.629.067 .7612,3.6881 3.7157,5.8373 6.5898,4.8666" fill="#fff"/>
</g>
<g transform="translate(.147)">
<path d="m356.4311,1975.865c2.8742-.7703 4.5798-3.7248 3.86-6.5805 2.1545,2.1229 2.1545,5.5344.0504,7.6383" fill="#fff"/>
<path d="m350.8304,1975.865c-2.8742-.7703-4.5798-3.7248-3.86-6.5805-2.1545,2.1229-2.1545,5.5344-.0504,7.6383" fill="#fff"/>
</g>
<g transform="translate(.0866)">
<path d="m346.9867,1980.9829c.395,2.7284-1.1266,4.6198-3.3689,4.2692 2.1951,1.751 4.594,1.3792 5.3873-.7867" fill="#fff"/>
<path d="m360.3956,1980.9829c-.395,2.7284 1.1266,4.6198 3.3689,4.2692-2.1951,1.751-4.594,1.3792-5.3873-.7867" fill="#fff"/>
</g>
<path d="m346.4246,1975.6592c.0395,5.4181 2.4718,10.859 7.3413,15.5422 4.8408-4.6733 7.3222-10.1201 7.3652-15.5422-4.1749.9171-10.5314.9287-14.7064,0z" stroke="#fff"/>
</g>
</svg>
