<svg viewBox="0 0 512 512" xmlns="http://www.w3.org/2000/svg">

<g transform="matrix(18.68858,0,0,18.68858,-914.997,-38780.70888)">
<path d="m663.39,2050.5718c0,3.3026-6.8741,5.9799-15.3538,5.9799s-15.3537-2.6773-15.3537-5.9799 6.8741-5.9799 15.3537-5.9799 15.3538,2.6773 15.3538,5.9799z" fill="#fff" stroke="#000" stroke-width=".8227" transform="matrix(.71335,.71335,-1.03566,1.03566,1724.5418,-496.62234)"/>
<path d="m663.39,2050.5718c0,3.3026-6.8741,5.9799-15.3538,5.9799s-15.3537-2.6773-15.3537-5.9799 6.8741-5.9799 15.3537-5.9799 15.3538,2.6773 15.3538,5.9799z" transform="matrix(.62774,.62774,-.62774,.62774,940.60452,392.45374)"/>
<path d="m55.3515,2080.1389-1.4502,1.4503 13.5559,14.8168-3.121.8512 10.9393,4.256-4.2559-10.9708-.7881,3.0894-14.8799-13.4929z" fill="#fff" stroke="#000"/>
<path d="m52.8716,2075.9797 .6191,3.6905-3.723-.5866 2.6401,3.8132 4.0125-.2969 .297-4.0126z" fill="#fff"/>
<path d="m59.7087,2094.9669c-3.7844-1.014-7.0142-2.5431-9.1493-4.1826 1.6098,3.524 6.2308,6.9084 12.2341,8.5171z" fill="#fff"/>
<path d="m63.7163,2098.0277c-5.185,0-9.8375-.641-13.1282-1.6721 3.2648,2.9872 10.3312,5.0603 18.5563,5.0604z" fill="#fff"/>
<path d="m68.7918,2086.2544c-1.0139-3.7843-2.5431-7.0142-4.1825-9.1492 3.524,1.6098 6.9083,6.2308 8.517,12.2341z" fill="#fff"/>
<path d="m71.8526,2090.2619c5e-05-5.1849-.641-9.8374-1.672-13.1281 2.9873,3.2647 5.0604,10.3312 5.0605,18.5562z" fill="#fff"/>
<path d="m58.4995,2092.1364c-1.5089-2.0748-2.4771-4.16-2.8144-5.8359-.8473,2.347-.0383,5.897 2.3552,9.1883z" fill="#fff"/>
<path d="m65.9763,2084.9544c-2.0748-1.5089-4.1599-2.4771-5.8358-2.8144 2.3471-.8473 5.897-.038 9.1883,2.3553z" fill="#fff"/>
<path d="m61.1692,2094.2811c-1.4308-1.7831-2.3251-3.5926-2.6067-5.0607-.9141,2.0977-.2238,5.2047 2.0458,8.0333z" fill="#fff"/>
<path d="m68.2574,2087.5707c-1.7831-1.4307-3.5927-2.3251-5.0606-2.6066 2.0976-.9142 5.2045-.224 8.0332,2.0456z" fill="#fff"/>
</g>
</svg>
