<svg viewBox="0 0 512 512" xmlns="http://www.w3.org/2000/svg">

<g transform="matrix(18.68858,0,0,18.68858,-6353.3101,-36765.84631)">
<path d="m 353.531 1987.54 -3.8125 1.9873 c 0.9075 1.4423 2.2813 2.8383 4.0625 4.1273 1.7011 -1.2357 2.9642 -2.5924 3.875 -3.9745 l -4.125 -2.1401 z" fill="#fff"/>
<g transform="translate(.1245)">
<path d="m 355.871 1975.93 c 4.3756 0.9486 8.6919 -1.8294 9.6953 -6.1454 1.4207 4.3236 -0.9285 8.8875 -5.1923 10.2532" fill="#fff"/>
<path d="m 351.435 1975.93 c -4.3756 0.9486 -8.6919 -1.8294 -9.6953 -6.1454 -1.4207 4.3236 0.9285 8.8875 5.1923 10.2532" fill="#fff"/>
</g>
<g transform="translate(-.1056)">
<path d="m 358.994 1977.78 c 2.1042 2.6507 5.5157 2.6504 7.629 0.067 -0.7612 3.6881 -3.7157 5.8373 -6.5898 4.8666" fill="#fff"/>
<path d="m 348.773 1977.78 c -2.1042 2.6507 -5.5157 2.6504 -7.629 0.067 0.7612 3.6881 3.7157 5.8373 6.5898 4.8666" fill="#fff"/>
</g>
<g transform="translate(.147)">
<path d="m 356.431 1975.87 c 2.8742 -0.7703 4.5798 -3.7248 3.86 -6.5805 2.1545 2.1229 2.1545 5.5344 0.0504 7.6383" fill="#fff"/>
<path d="m 350.83 1975.87 c -2.8742 -0.7703 -4.5798 -3.7248 -3.86 -6.5805 -2.1545 2.1229 -2.1545 5.5344 -0.0504 7.6383" fill="#fff"/>
</g>
<g transform="translate(.0866)">
<path d="m 346.987 1980.98 c 0.395 2.7284 -1.1266 4.6198 -3.3689 4.2692 2.1951 1.751 4.594 1.3792 5.3873 -0.7867" fill="#fff"/>
<path d="m 360.396 1980.98 c -0.395 2.7284 1.1266 4.6198 3.3689 4.2692 -2.1951 1.751 -4.594 1.3792 -5.3873 -0.7867" fill="#fff"/>
</g>
<path d="m 346.425 1975.66 c 0.0395 5.4181 2.4718 10.859 7.3413 15.5422 4.8408 -4.6733 7.3222 -10.1201 7.3652 -15.5422 -4.1749 0.9171 -10.5314 0.9287 -14.7064 0 z" stroke="#fff"/>
</g>
</svg>
