<svg viewBox="0 0 512 512" xmlns="http://www.w3.org/2000/svg">

<g transform="matrix(18.68858,0,0,18.68858,-9079.97067,-23141.90208)">
<g transform="matrix(-.60053,.05843,.05843,.60053,624.60218,1058.4176)">
<path d="m232.4677,305.7292-7.3627,3.858c-3.4294-3.2341-6.8326-8.271-8.3262-12.4078l13.5675-1.3831 2.1213,9.9329z" fill="#fff" fill-rule="evenodd" stroke="#000" stroke-width="1.3176"/>
<path d="m218.5,301.9559 12.0682-2.1826" fill="none" stroke="#000" stroke-width="1.6574"/>
<path d="m231.3556,303.0241-9.4815,3.0482" fill="none" stroke="#000" stroke-width="1.6574"/>
<path d="m214.9375,292.2678 1.75,4.9411 12.3451-.4429c.131,4.5195 1.8608,9.2842 5.4839,12.4663l3.296-2.9858c-3.596-3.6355-4.5615-7.2853-4.3351-13.5996l-18.5399-.379z" fill="#fff" stroke="#000" stroke-width="1.6574"/>
</g>
<g transform="matrix(.60053,.05843,-.05843,.60053,374.50115,1058.4176)">
<path d="m232.4677,305.7292-7.3627,3.858c-3.4294-3.2341-6.8326-8.271-8.3262-12.4078l13.5675-1.3831 2.1213,9.9329z" fill="#fff" fill-rule="evenodd" stroke="#000" stroke-width="1.3176"/>
<path d="m218.5,301.9559 12.0682-2.1826" fill="none" stroke="#000" stroke-width="1.6574"/>
<path d="m231.3556,303.0241-9.4815,3.0482" fill="none" stroke="#000" stroke-width="1.6574"/>
<path d="m214.9375,292.2678 1.75,4.9411 12.3451-.4429c.131,4.5195 1.8608,9.2842 5.4839,12.4663l3.296-2.9858c-3.596-3.6355-4.5615-7.2853-4.3351-13.5996l-18.5399-.379z" fill="#fff" stroke="#000" stroke-width="1.6574"/>
</g>
<path d="m497.4275,1246.2137v14.9451l2.375,3.56 2.3438-3.56v-14.9451h-4.7188z" fill="#fff"/>
<path d="m496.7001,1263.1644 1.0088-19.3718 3.9882-.01 1.0091,19.3775" fill="none" stroke="#000"/>
<path d="m498.5613,1238.7891h2.2838v7.5583h-2.2838z" fill="#fff" stroke="#000"/>
<path d="m499.7032,1246.3862v14.8871" fill="none" stroke="#000"/>
<path d="m494.7,1247.346h10.0064v-2.7755c-3.3048.8651-6.7389.8554-10.0064,0v2.7755z" fill="#fff" stroke="#000"/>
</g>
</svg>
