<svg viewBox="0 0 512 512" xmlns="http://www.w3.org/2000/svg">

<g transform="matrix(18.68858,0,0,18.68858,-229.67542,-27901.08285)">
<path d="m21.5825,1498.5165c-.8054.8065.7202,2.0019.2119,4.1236-.8541,3.5653-5.1137,6.4626-8.5204,8.1193 1.3545,1.2955 3.9253,0 6.0728-2.0247-1.4706,1.9286-3.1882,3.5997-4.7938,5.0347 2.033,1.0987 4.7506-1.4206 6.6409-4.615-1.2948,2.8652-3.1317,5.4063-4.8599,7.5757 2.4569.8309 4.9394-2.5748 6.3611-6.4882-.6973,3.2803-1.8736,6.3831-3.0613,9.1087 5.2609.4171 7.0805-13.641 4.7432-18.9984-.6963-1.596-2.1813-2.4495-2.7944-1.8357z" fill="#fff"/>
<path d="m30.1995,1498.5165c.8054.8065-.7202,2.0019-.2119,4.1236 .8541,3.5653 5.1137,6.4626 8.5204,8.1193-1.3545,1.2955-3.9253,0-6.0728-2.0247 1.4706,1.9286 3.1882,3.5997 4.7938,5.0347-2.033,1.0987-4.7506-1.4206-6.6409-4.615 1.2948,2.8652 3.1317,5.4063 4.8599,7.5757-2.4569.8309-4.9394-2.5748-6.3611-6.4882 .6973,3.2803 1.8736,6.3831 3.0613,9.1087-5.2609.4171-7.0805-13.641-4.7432-18.9984 .6963-1.596 2.1813-2.4495 2.7944-1.8357z" fill="#fff"/>
<path d="m28.1283,1497.2185c0,1.5741-.9341,2.8501-2.0863,2.8501s-2.0863-1.276-2.0863-2.8501 .9341-2.8501 2.0863-2.8501 2.0863,1.276 2.0863,2.8501z" fill="#fff" stroke="#000" stroke-width=".8726" transform="matrix(1.14603,0,0,1.14603,-3.95203,-219.08494)"/>
</g>
</svg>
