<svg viewBox="0 0 512 512" xmlns="http://www.w3.org/2000/svg">

<g transform="matrix(18.68858,0,0,18.68858,-9079.97067,-23141.90208)">
<g transform="matrix(-.60053,.05843,.05843,.60053,624.60218,1058.4176)">
<path d="m 232.468 305.729 -7.3627 3.858 c -3.4294 -3.2341 -6.8326 -8.271 -8.3262 -12.4078 l 13.5675 -1.3831 2.1213 9.9329 z" fill="#fff" fill-rule="evenodd" stroke="#000" stroke-width="1.3176"/>
<path d="m 218.5 301.956 12.0682 -2.1826" fill="none" stroke="#000" stroke-width="1.6574"/>
<path d="m 231.356 303.024 -9.4815 3.0482" fill="none" stroke="#000" stroke-width="1.6574"/>
<path d="m 214.938 292.268 1.75 4.9411 12.3451 -0.4429 c 0.131 4.5195 1.8608 9.2842 5.4839 12.4663 l 3.296 -2.9858 c -3.596 -3.6355 -4.5615 -7.2853 -4.3351 -13.5996 l -18.5399 -0.379 z" fill="#fff" stroke="#000" stroke-width="1.6574"/>
</g>
<g transform="matrix(.60053,.05843,-.05843,.60053,374.50115,1058.4176)">
<path d="m 232.468 305.729 -7.3627 3.858 c -3.4294 -3.2341 -6.8326 -8.271 -8.3262 -12.4078 l 13.5675 -1.3831 2.1213 9.9329 z" fill="#fff" fill-rule="evenodd" stroke="#000" stroke-width="1.3176"/>
<path d="m 218.5 301.956 12.0682 -2.1826" fill="none" stroke="#000" stroke-width="1.6574"/>
<path d="m 231.356 303.024 -9.4815 3.0482" fill="none" stroke="#000" stroke-width="1.6574"/>
<path d="m 214.938 292.268 1.75 4.9411 12.3451 -0.4429 c 0.131 4.5195 1.8608 9.2842 5.4839 12.4663 l 3.296 -2.9858 c -3.596 -3.6355 -4.5615 -7.2853 -4.3351 -13.5996 l -18.5399 -0.379 z" fill="#fff" stroke="#000" stroke-width="1.6574"/>
</g>
<path d="m 497.428 1246.21 v 14.9451 l 2.375 3.56 2.3438 -3.56 v -14.9451 h -4.7188 z" fill="#fff"/>
<path d="m 496.7 1263.16 1.0088 -19.3718 3.9882 -0.01 1.0091 19.3775" fill="none" stroke="#000"/>
<path d="m 498.561 1238.79 h 2.2838 v 7.5583 h -2.2838 z" fill="#fff" stroke="#000"/>
<path d="m 499.703 1246.39 v 14.8871" fill="none" stroke="#000"/>
<path d="m 494.7 1247.35 h 10.0064 v -2.7755 c -3.3048 0.8651 -6.7389 0.8554 -10.0064 0 v 2.7755 z" fill="#fff" stroke="#000"/>
</g>
</svg>
