<svg viewBox="0 0 512 512" xmlns="http://www.w3.org/2000/svg">

<g transform="matrix(18.68858,0,0,18.68858,-2739.85184,-2847.142)">
<path d="m 173.553 152.973 -0.0008 6.3559 c -3.6225 1.2322 -7.8948 4.1935 -10.2023 7.6447 1.2041 4.3332 3.9853 9.2713 7.9496 10.8356 -5.6996 3.0919 -14.0391 0.0531 -15.7555 -5.9913 l -1.7568 0.6129 c -1.4536 -1.4509 -2.2589 -2.6092 -3.3018 -4.1129 4.5423 -6.2152 10.3374 -9.377 13.474 -15.2726 l 9.5936 -0.0723 z" fill="#fff" stroke="#000"/>
<path d="m 160.641 170.179 c -0.9373 -3.8863 -1.268 -8.1343 1.5517 -11.8539 -5.0936 -1.2845 -10.7238 -2.4759 -14.5313 -5.1713 -1.8474 2.0764 3.0802 5.9881 10.3068 7.2196" fill="#fff" fill-rule="evenodd" stroke="#000"/>
<path d="m 158.657 160.206 c -3.4824 -0.5414 -8.0126 -2.2224 -10.9556 -4.5497 -0.9925 2.6399 3.9595 6.8502 9.8162 6.9544" fill="#fff" fill-rule="evenodd" stroke="#000"/>
<path d="m 157.976 162.542 c -3.4628 -0.2392 -7.2551 -1.7223 -9.8692 -3.6512 -0.9098 2.3791 4.3657 6.5864 9.3218 6.7579" fill="#fff" fill-rule="evenodd" stroke="#000"/>
<path d="m 157.693 165.133 c -3.2322 -0.243 -6.039 -1.4695 -8.5727 -2.7178 -0.1881 3.342 3.8209 4.858 8.2301 5.4998 0.0625 0.9024 0.2954 1.4118 0.5886 1.9127" fill="#fff" fill-rule="evenodd" stroke="#000"/>
</g>
</svg>
