<svg viewBox="0 0 512 512" xmlns="http://www.w3.org/2000/svg">

<g transform="matrix(18.68858,0,0,18.68858,-212.02703,-332.25716)">
<path d="m13.3171,19.1791c3.0488,3.309 5.9558,6.0427 9.7704,7.5094 1.3503.5192 1.3127,1.6301.4401,2.6829-1.4338,1.7298-.7522,5.0509 2.0473,7.7007-.4602.9007-2.0527,1.3361-2.8251.8263-.3112-1.6629-.9943-3.5134-2.299-3.4106-2.6686.2102-5.2278-.2788-6.6831-1.6646 2.3431.299 4.6565.2746 6.806-.1648-3.562-.4055-7.6203-1.4787-8.6962-3.6097 3.0753.9572 5.6795,1.3169 8.6811,1.3666-3.6543-1.349-7.5902-3.1379-8.1343-5.7459 2.5336,1.6027 6.1548,2.9169 8.6581,3.6064-3.6434-2.0313-8.1761-6.1347-7.7653-9.0968z" fill="#fff" fill-rule="evenodd"/>
<path d="m36.6978,19.1791c-3.0488,3.309-5.9558,6.0427-9.7704,7.5094-1.3503.5192-1.3127,1.6301-.4401,2.6829 1.4338,1.7298.7522,5.0509-2.0473,7.7007 .4602.9007 2.0527,1.3361 2.8251.8263 .3112-1.6629.9943-3.5134 2.299-3.4106 2.6686.2102 5.2278-.2788 6.6831-1.6646-2.3431.299-4.6565.2746-6.806-.1648 3.562-.4055 7.6203-1.4787 8.6962-3.6097-3.0753.9572-5.6795,1.3169-8.6811,1.3666 3.6543-1.349 7.5902-3.1379 8.1343-5.7459-2.5336,1.6027-6.1548,2.9169-8.6581,3.6064 3.6434-2.0313 8.1761-6.1347 7.7653-9.0968z" fill="#fff" fill-rule="evenodd"/>
<path d="m55.9375,42.3309c0,1.6396-1.3292,2.9688-2.9688,2.9688s-2.9688-1.3292-2.9688-2.9688 1.3292-2.9688 2.9688-2.9688 2.9688,1.3292 2.9688,2.9688z" stroke="#fff" stroke-width=".8261" transform="matrix(1.21053,0,0,1.21053,-39.21526,-12.12086)"/>
<path d="m20.7369,43.1096-2.4405-1.2977-2.5289,1.2977 1.2977-2.4405-1.2977-2.5289 2.4405,1.2977 2.5289-1.2977-1.2977,2.4405z" fill="#fff" transform="matrix(.79622,.79622,-.79622,.79622,42.7392,-7.7441)"/>
</g>
</svg>
