<svg viewBox="0 0 512 512" xmlns="http://www.w3.org/2000/svg">

<path d="m 253.46 971.926 c 0 5.054 -4.0971 9.151 -9.151 9.151 s -9.151 -4.0971 -9.151 -9.151 4.0971 -9.151 9.151 -9.151 9.151 4.097 9.151 9.151 z" fill="#fff" stroke="#000" stroke-width=".6979" transform="matrix(26.7765,0,0,26.7765,-6287.16365,-25770.77392)"/>
<g transform="matrix(18.55768,0,0,18.55768,-4299.10717,-17807.4466)">
<path d="m 235.675 978.764 22.9364 -6.2196" fill="none" stroke="#000" stroke-width="1.0071"/>
<path d="m 231.813 977.677 c 2.6554 -0.8227 5.3108 -1.9593 7.9662 -0.3019 -0.1084 4.8385 -4.5399 4.415 -7.3251 5.2365 l 1.2822 -1.3166 -1.6929 -0.3469 1.2993 -1.1811 -1.6079 -0.5307 1.7393 -1.0084 -1.6611 -0.5508 z" fill-rule="evenodd"/>
<path d="m 241.489 980.09 7.4981 1.0264 2.2951 -4.3403 -5.1206 -2.545 c -0.4404 -1.8597 0.4196 -3.1014 1.8479 -3.6171 l -3.3355 -4.5452 c -1.5876 3.0444 -1.8784 4.6446 -1.6792 9.2473 l 2.4542 1.3069 -3.9599 3.467 z" fill-rule="evenodd"/>
<path d="m 245.452 967.413 3.6663 4.832 3.9378 1.8095" fill="none" stroke="#000" stroke-width="1.0071"/>
<path d="m 245.796 979.374 -2.2717 1.6995 3.8933 3.7942 -1.6216 -5.4937 z" fill-rule="evenodd"/>
<path d="m 247.587 979.113 -2.0442 1.5293 3.5035 3.4143 -1.4593 -4.9437 z" fill-rule="evenodd"/>
<path d="m 238.934 963.892 5.5135 -1.888 4.4774 3.2948 -4.5514 1.6288 c 0.2115 -3.0375 -2.6826 -3.2641 -5.4395 -3.0356 z" fill-rule="evenodd"/>
<path d="m 240.311 969.958 7.3843 -2.9226 c 2.267 -0.6859 2.4764 -3.2514 1.6635 -5.0333 -1.0239 3.8784 -6.3279 3.7728 -9.0478 7.9559 z" fill-rule="evenodd"/>
<path d="m 246.659 969.404 c 1.8605 0.2467 2.6289 -1.9553 1.6092 -3.1936 l -3.3622 0.7722 1.7531 2.4214 z" fill-rule="evenodd"/>
</g>
</svg>
