<svg viewBox="0 0 512 512" xmlns="http://www.w3.org/2000/svg">

<path d="m253.46,971.9255c0,5.054-4.0971,9.151-9.151,9.151s-9.151-4.0971-9.151-9.151 4.0971-9.151 9.151-9.151 9.151,4.097 9.151,9.151z" fill="#fff" stroke="#000" stroke-width=".6979" transform="matrix(26.7765,0,0,26.7765,-6287.16365,-25770.77392)"/>
<g transform="matrix(18.55768,0,0,18.55768,-4299.10717,-17807.4466)">
<path d="m235.6755,978.7639 22.9364-6.2196" fill="none" stroke="#000" stroke-width="1.0071"/>
<path d="m231.8131,977.6771c2.6554-.8227 5.3108-1.9593 7.9662-.3019-.1084,4.8385-4.5399,4.415-7.3251,5.2365l1.2822-1.3166-1.6929-.3469 1.2993-1.1811-1.6079-.5307 1.7393-1.0084-1.6611-.5508z" fill-rule="evenodd"/>
<path d="m241.4886,980.0897 7.4981,1.0264 2.2951-4.3403-5.1206-2.545c-.4404-1.8597.4196-3.1014 1.8479-3.6171l-3.3355-4.5452c-1.5876,3.0444-1.8784,4.6446-1.6792,9.2473l2.4542,1.3069-3.9599,3.467z" fill-rule="evenodd"/>
<path d="m245.4522,967.4129 3.6663,4.832 3.9378,1.8095" fill="none" stroke="#000" stroke-width="1.0071"/>
<path d="m245.7958,979.374-2.2717,1.6995 3.8933,3.7942-1.6216-5.4937z" fill-rule="evenodd"/>
<path d="m247.5873,979.1129-2.0442,1.5293 3.5035,3.4143-1.4593-4.9437z" fill-rule="evenodd"/>
<path d="m238.9341,963.8916 5.5135-1.888 4.4774,3.2948-4.5514,1.6288c.2115-3.0375-2.6826-3.2641-5.4395-3.0356z" fill-rule="evenodd"/>
<path d="m240.3107,969.958 7.3843-2.9226c2.267-.6859 2.4764-3.2514 1.6635-5.0333-1.0239,3.8784-6.3279,3.7728-9.0478,7.9559z" fill-rule="evenodd"/>
<path d="m246.6589,969.4042c1.8605.2467 2.6289-1.9553 1.6092-3.1936l-3.3622.7722 1.7531,2.4214z" fill-rule="evenodd"/>
</g>
</svg>
