<svg viewBox="0 0 512 512" xmlns="http://www.w3.org/2000/svg">

<g transform="matrix(18.68858,0,0,18.68858,-13164.15938,-36766.50789)">
<path d="m720.4898,1979.8873c-.3258,3.5635-5.2084,9.7552-10.5397,14.3143l-5.0835-.01 .0341-3.5967c5.8537-5.2411 8.1588-9.0521 8.5497-13.3385 .2831-3.104 2.1908-7.232 4.8898-8.503 4.2735-2.0122 10.1071-.5568 12.1659,3.8963 1.555,3.3639.4075,7.7261-3.0868,9.3235-2.6112,1.1938-5.9918.2911-7.2139-2.4384-.9027-2.016-.2039-4.6218 1.8978-5.5495 1.5331-.6768 3.5109-.1375 4.2042,1.4708 1.2799,2.2189-1.4169,4.4085-2.4282,1.9347" fill="#fff" stroke="#000"/>
<path d="m705.0625,1992.8622c4.1514-3.25 7.0987-6.5 9.1875-9.75" fill="none" stroke="#000"/>
<path d="m714.0625,1987.2997c6.9948-7.7956 1.1864-10.1213 5.9062-14.4687" fill="none" stroke="#000"/>
<path d="m706.9374,1994.188 3.4224-3.1332" fill="none" stroke="#000"/>
<path d="m715.7658,1976.3591c.7369-3.8816 3.7699-6.9519 7.3877-6.289" fill="none" stroke="#000"/>
<path d="m706.429,1993.2822c1.6267-1.1039 3.2597-2.109 4.9217-2.6481" fill="none" stroke="#fff"/>
<path d="m717.8557,1983.5679c-1.2453,1.5941-2.6964,3.1348-4.1756,3.9921" fill="none" stroke="#fff"/>
<path d="m714.4022,1982.6689c-.5362,1.9825-1.3384,3.8998-2.7059,5.4184" fill="none" stroke="#fff"/>
<path d="m720.5885,1972.6562c-1.2959.1651-2.4531.5116-3.3791,2.4598" fill="none" stroke="#fff"/>
<path d="m723.6005,1970.3564c-1.199-.9475-2.6739-1.5437-4.6143-.5214" fill="none" stroke="#fff"/>
<path d="m715.9054,1976.849c-.6541-1.4766-.8285-2.7537.4462-4.5384" fill="none" stroke="#fff"/>
<path d="m726.3383,1980.2857c3.3571-1.2451 2.9383-5.5705.9663-6.7203" fill="none" stroke="#000"/>
<path d="m726.0876,1972.4411c1.4045.6524 1.9415,2.9079 1.6985,4.2166" fill="none" stroke="#fff"/>
<path d="m725.6794,1980.1589c1.0781.6233 2.8831.1182 3.7098-1.3805" fill="none" stroke="#fff"/>
</g>
</svg>
