<svg viewBox="0 0 512 512" xmlns="http://www.w3.org/2000/svg">

<g transform="matrix(18.68858,0,0,18.68858,-13164.15938,-36766.50789)">
<path d="m 720.49 1979.89 c -0.3258 3.5635 -5.2084 9.7552 -10.5397 14.3143 l -5.0835 -0.01 0.0341 -3.5967 c 5.8537 -5.2411 8.1588 -9.0521 8.5497 -13.3385 0.2831 -3.104 2.1908 -7.232 4.8898 -8.503 4.2735 -2.0122 10.1071 -0.5568 12.1659 3.8963 1.555 3.3639 0.4075 7.7261 -3.0868 9.3235 -2.6112 1.1938 -5.9918 0.2911 -7.2139 -2.4384 -0.9027 -2.016 -0.2039 -4.6218 1.8978 -5.5495 1.5331 -0.6768 3.5109 -0.1375 4.2042 1.4708 1.2799 2.2189 -1.4169 4.4085 -2.4282 1.9347" fill="#fff" stroke="#000"/>
<path d="m 705.062 1992.86 c 4.1514 -3.25 7.0987 -6.5 9.1875 -9.75" fill="none" stroke="#000"/>
<path d="m 714.062 1987.3 c 6.9948 -7.7956 1.1864 -10.1213 5.9062 -14.4687" fill="none" stroke="#000"/>
<path d="m 706.937 1994.19 3.4224 -3.1332" fill="none" stroke="#000"/>
<path d="m 715.766 1976.36 c 0.7369 -3.8816 3.7699 -6.9519 7.3877 -6.289" fill="none" stroke="#000"/>
<path d="m 706.429 1993.28 c 1.6267 -1.1039 3.2597 -2.109 4.9217 -2.6481" fill="none" stroke="#fff"/>
<path d="m 717.856 1983.57 c -1.2453 1.5941 -2.6964 3.1348 -4.1756 3.9921" fill="none" stroke="#fff"/>
<path d="m 714.402 1982.67 c -0.5362 1.9825 -1.3384 3.8998 -2.7059 5.4184" fill="none" stroke="#fff"/>
<path d="m 720.588 1972.66 c -1.2959 0.1651 -2.4531 0.5116 -3.3791 2.4598" fill="none" stroke="#fff"/>
<path d="m 723.601 1970.36 c -1.199 -0.9475 -2.6739 -1.5437 -4.6143 -0.5214" fill="none" stroke="#fff"/>
<path d="m 715.905 1976.85 c -0.6541 -1.4766 -0.8285 -2.7537 0.4462 -4.5384" fill="none" stroke="#fff"/>
<path d="m 726.338 1980.29 c 3.3571 -1.2451 2.9383 -5.5705 0.9663 -6.7203" fill="none" stroke="#000"/>
<path d="m 726.088 1972.44 c 1.4045 0.6524 1.9415 2.9079 1.6985 4.2166" fill="none" stroke="#fff"/>
<path d="m 725.679 1980.16 c 1.0781 0.6233 2.8831 0.1182 3.7098 -1.3805" fill="none" stroke="#fff"/>
</g>
</svg>
