<svg viewBox="0 0 512 512" xmlns="http://www.w3.org/2000/svg">

<g transform="matrix(18.68858,0,0,18.68858,5158.98676,-7330.7024)">
<path d="m 493.207 403.415 c 0 6.7854 -5.5006 12.286 -12.286 12.286 s -12.286 -5.5006 -12.286 -12.286 5.5006 -12.286 12.286 -12.286 12.286 5.5006 12.286 12.286 z" fill="#fff" transform="translate(-743.2956,2.3091)"/>
<path d="m -256.158 396.625 c -2.148 1.3194 -4.1537 3.1502 -5.7853 4.5881 -1.1527 -0.3575 -3.3757 0.8381 -4.7981 1.9947 -2.7209 0.3112 -5.7244 2.3486 -7.4127 3.8342 2.3243 1.0521 3.9647 0.0876 5.8778 -0.2129 -1.7037 0.5867 -3.6426 1.5055 -5.8159 2.8202 l 2.4235 9.01 12.6521 -0.7212 c -2.142 -0.9608 -2.0641 -2.3614 -1.7338 -3.1479 0.7167 -1.7068 1.0426 -3.2546 1.0177 -4.5382 1.871 -1.3313 3.7061 -2.895 5.4545 -4.7052 0.0169 -0.7904 -0.1469 -1.517 -0.4865 -2.2161 -4.0217 4.3604 -5.0223 -2.5276 -0.7218 -3.6087 0.2441 -1.1736 -0.1007 -2.2325 -0.6715 -3.097 z" fill-rule="evenodd"/>
<path d="m -264.651 403.249 c 0.6983 -0.5309 1.4985 -0.8977 2.4528 -1.0165 0.1012 0.3535 -0.1155 0.9863 -0.4476 1.3447 -0.6362 -0.1752 -1.3586 -0.3302 -2.0051 -0.3283 z" fill="#fff" fill-rule="evenodd"/>
</g>
</svg>
