<svg viewBox="0 0 512 512" xmlns="http://www.w3.org/2000/svg">

<g transform="matrix(19.41374,0,0,19.41374,-9462.11703,-19338.64022)">
<path d="m497.6362,1008.002-1.7783,3.2383 2.773-.4235-.7173,3.6254 2.2488-1.1184 1.0494-.9119c2.6034-.7325 5.2888-1.2984 9.0509-1.461 1.8596-3.1361 2.0111-4.5529 2.6854-7.7795-2.8599-.1895-5.4775.2473-7.9364.5074-3.2459-1.8188-8.0777-1.3797-9.2712.9199l1.8958,3.4033z" fill="#fff" fill-rule="evenodd"/>
<path d="m501.1172,1003.7914c1.0735-.2114 2.0551.129 3.0438.4919-.2346.7362-.6726.9477-1.2727,1.066-.8319-.2273-1.4589-.803-1.7711-1.5579z" fill-rule="evenodd"/>
<path d="m496.6314,998.1366 2.23,4.8591-3.2549,1.7158c-.6115-2.5486-.1741-4.685 1.0249-6.5749z" fill="#fff" fill-rule="evenodd"/>
<path d="m512.5794,1004.9985-1.279,1.6614-.4059-1.4151-1.2577,1.5865-.3373-1.3859-1.2075,1.545-.3953-1.4526-1.2288,1.6199-.3952-1.4527-1.1615,2.1958-.063,2.1191 1.2288-1.6201 .3952,1.4529 1.2288-1.6202 .3876,1.3443 1.1572-1.5033 .4059,1.4152 1.2577-1.5867 .3846,1.4903 1.2909-2.2455-.006-2.1483z"/>
<path d="m496.9078,1004.8573c-2.5489-.7911-5.1425-1.1059-7.8032-.7033 1.7553.5239 2.718,1.2257 3.9501,2.407-1.3819.5027-3.1048,1.5583-4.7882,3.6176 1.8271-.4561 3.3406-.5908 4.608-.3251-1.9031,1.1571-3.3016,2.8923-4.5521,5.879 1.8493-.888 3.3429-.9697 5.3028-.9726-1.1881,1.6869-1.817,3.9811-1.8707,5.8128 1.2636-1.3397 2.9679-3.098 4.4908-4.0666 .1546,1.5401.774,3.0028 1.8514,4.3893-.0134-2.642.7305-5.3284 2.2395-8.0594" fill="#fff" fill-rule="evenodd"/>
<path d="m497.964,1007.2825-1.9795,3.9899c.9113-.3571 1.7925-.6457 2.7228-.4943l-.8304,3.7227c2.2374-1.4262 4.6396-2.1463 7.0392-2.2849" fill="none" stroke="#000" stroke-width=".9626"/>
<path d="m495.6459,1005.9456c-1.2438-2.2161-.8906-4.9465-.0514-7.0708" fill="none" stroke="#000" stroke-width=".9626"/>
</g>
</svg>
