<svg viewBox="0 0 512 512" xmlns="http://www.w3.org/2000/svg">

<g transform="matrix(18.68858,0,0,18.68858,-4320.58898,-45616.02073)">
<path d="m245.307,2463.8392c8.3788-1.0626 12.176-3.2665 12.2234-5.5805v-3.8253l-.6475,2.0643c-1.406,1.8942-5.1389,3.812-11.5759,4.6283z" fill="#fff" stroke="#000"/>
<path d="m257.1179,2456.2424c-1.2663-1.7628-5.4019-2.6375-11.8109-.847v-2.7132c9.4975-2.6534 14.0025.5461 11.5759,3.8155" fill="#fff" stroke="#000"/>
<path d="m249.4062,2452.7805 1.0826-4.1305 1.0772,3.6558z" fill="#fff"/>
<path d="m253.0656,2453.3033 1.0826-4.7636 1.0772,4.2889z" fill="#fff"/>
<path d="m245.8529,2453.1995 1.0826-3.0152 1.0772,2.5404z" fill="#fff"/>
<path d="m257.5865,2455.9896-.6003-5.524-1.3184,3.918z" fill="#fff"/>
<path d="m255.2255,2459.3104-1.0826-4.288-1.0772,4.7621z" fill="#fff"/>
<path d="m251.6722,2460.4527-1.1128-3.474-1.0471,3.9481z" fill="#fff"/>
<path d="m248.0128,2461.3168-1.2635-2.5395-.8964,3.0137z" fill="#fff"/>
<path d="m256.3507,2458.8195c1.0819-1.7657.8014-3.566.2771-4.7537" fill="none" stroke="#fff"/>
<g transform="matrix(-.98539,-.17029,-.17029,.98539,904.39015,77.47312)">
<path d="m245.4416,2463.8392c8.3788-1.0626 12.176-3.2665 12.2234-5.5805v-3.8253l-.6475,2.0643c-1.406,1.8942-5.1389,3.812-11.5759,4.6283z" fill="#fff" stroke="#000"/>
<path d="m257.2525,2456.2424c-1.2663-1.7628-5.4019-2.6375-11.8109-.847v-2.7132c9.4975-2.6534 14.0025.5461 11.5759,3.8155" fill="#fff" stroke="#000"/>
<path d="m249.5408,2452.7805 .9543-4.0209 1.2056,3.5462z" fill="#fff"/>
<path d="m253.2002,2453.3033 1.0826-4.7636 1.0772,4.2889z" fill="#fff"/>
<path d="m245.9875,2453.1995 .8945-3.1441 1.2653,2.6693z" fill="#fff"/>
<path d="m257.7211,2455.9896-.6003-5.524-1.3184,3.918z" fill="#fff"/>
<path d="m255.3601,2459.3104-1.0826-4.288-1.0772,4.7621z" fill="#fff"/>
<path d="m251.8068,2460.4527-1.2796-3.6796-.8803,4.1537z" fill="#fff"/>
<path d="m248.1474,2461.3168-1.3815-2.3816-.7784,2.8558z" fill="#fff"/>
<path d="m256.4853,2458.8195c1.0819-1.7657.8014-3.566.2771-4.7537" fill="none" stroke="#fff"/>
</g>
<path d="m247.2647,2461.9551c0,.8907-.7221,1.6128-1.6128,1.6128s-1.6129-.7221-1.6129-1.6128 .7221-1.6129 1.6129-1.6129 1.6128.7221 1.6128,1.6129z" fill="#fff" stroke="#000" stroke-width="1.2159" transform="matrix(-.82243,0,0,.82243,447.05203,429.34648)"/>
<path d="m245.0357,2453.7702-.8743,8.7125" fill="none" stroke="#fff"/>
<path d="m247.2647,2461.9551c0,.8907-.7221,1.6128-1.6128,1.6128s-1.6129-.7221-1.6129-1.6128 .7221-1.6129 1.6129-1.6129 1.6128.7221 1.6128,1.6129z" fill="#fff" stroke="#000" transform="matrix(-1,0,0,1,489.70776,.42206)"/>
<path d="m248.8927,2457.1165c0,.7159-1.5792,1.2963-3.5272,1.2963s-3.5272-.5804-3.5272-1.2963 1.5792-1.2964 3.5272-1.2964 3.5272.5804 3.5272,1.2964z" fill="#fff" stroke="#000" stroke-width=".9087" transform="matrix(1,.07252,0,1.21096,-.48235,-536.54184)"/>
</g>
</svg>
