<svg viewBox="0 0 512 512" xmlns="http://www.w3.org/2000/svg">

<g transform="matrix(18.68858,0,0,18.68858,5158.98676,-7330.7024)">
<path d="m493.207,403.4149c0,6.7854-5.5006,12.286-12.286,12.286s-12.286-5.5006-12.286-12.286 5.5006-12.286 12.286-12.286 12.286,5.5006 12.286,12.286z" fill="#fff" transform="translate(-743.2956,2.3091)"/>
<path d="m-256.1584,396.6251c-2.148,1.3194-4.1537,3.1502-5.7853,4.5881-1.1527-.3575-3.3757.8381-4.7981,1.9947-2.7209.3112-5.7244,2.3486-7.4127,3.8342 2.3243,1.0521 3.9647.0876 5.8778-.2129-1.7037.5867-3.6426,1.5055-5.8159,2.8202l2.4235,9.01 12.6521-.7212c-2.142-.9608-2.0641-2.3614-1.7338-3.1479 .7167-1.7068 1.0426-3.2546 1.0177-4.5382 1.871-1.3313 3.7061-2.895 5.4545-4.7052 .0169-.7904-.1469-1.517-.4865-2.2161-4.0217,4.3604-5.0223-2.5276-.7218-3.6087 .2441-1.1736-.1007-2.2325-.6715-3.097z" fill-rule="evenodd"/>
<path d="m-264.6506,403.2491c.6983-.5309 1.4985-.8977 2.4528-1.0165 .1012.3535-.1155.9863-.4476,1.3447-.6362-.1752-1.3586-.3302-2.0051-.3283z" fill="#fff" fill-rule="evenodd"/>
</g>
</svg>
