<svg viewBox="0 0 512 512" xmlns="http://www.w3.org/2000/svg">

<g transform="matrix(18.68858,0,0,18.68858,-4320.58898,-45616.02073)">
<path d="m 245.307 2463.84 c 8.3788 -1.0626 12.176 -3.2665 12.2234 -5.5805 v -3.8253 l -0.6475 2.0643 c -1.406 1.8942 -5.1389 3.812 -11.5759 4.6283 z" fill="#fff" stroke="#000"/>
<path d="m 257.118 2456.24 c -1.2663 -1.7628 -5.4019 -2.6375 -11.8109 -0.847 v -2.7132 c 9.4975 -2.6534 14.0025 0.5461 11.5759 3.8155" fill="#fff" stroke="#000"/>
<path d="m 249.406 2452.78 1.0826 -4.1305 1.0772 3.6558 z" fill="#fff"/>
<path d="m 253.066 2453.3 1.0826 -4.7636 1.0772 4.2889 z" fill="#fff"/>
<path d="m 245.853 2453.2 1.0826 -3.0152 1.0772 2.5404 z" fill="#fff"/>
<path d="m 257.587 2455.99 -0.6003 -5.524 -1.3184 3.918 z" fill="#fff"/>
<path d="m 255.226 2459.31 -1.0826 -4.288 -1.0772 4.7621 z" fill="#fff"/>
<path d="m 251.672 2460.45 -1.1128 -3.474 -1.0471 3.9481 z" fill="#fff"/>
<path d="m 248.013 2461.32 -1.2635 -2.5395 -0.8964 3.0137 z" fill="#fff"/>
<path d="m 256.351 2458.82 c 1.0819 -1.7657 0.8014 -3.566 0.2771 -4.7537" fill="none" stroke="#fff"/>
<g transform="matrix(-.98539,-.17029,-.17029,.98539,904.39015,77.47312)">
<path d="m 245.442 2463.84 c 8.3788 -1.0626 12.176 -3.2665 12.2234 -5.5805 v -3.8253 l -0.6475 2.0643 c -1.406 1.8942 -5.1389 3.812 -11.5759 4.6283 z" fill="#fff" stroke="#000"/>
<path d="m 257.252 2456.24 c -1.2663 -1.7628 -5.4019 -2.6375 -11.8109 -0.847 v -2.7132 c 9.4975 -2.6534 14.0025 0.5461 11.5759 3.8155" fill="#fff" stroke="#000"/>
<path d="m 249.541 2452.78 0.9543 -4.0209 1.2056 3.5462 z" fill="#fff"/>
<path d="m 253.2 2453.3 1.0826 -4.7636 1.0772 4.2889 z" fill="#fff"/>
<path d="m 245.988 2453.2 0.8945 -3.1441 1.2653 2.6693 z" fill="#fff"/>
<path d="m 257.721 2455.99 -0.6003 -5.524 -1.3184 3.918 z" fill="#fff"/>
<path d="m 255.36 2459.31 -1.0826 -4.288 -1.0772 4.7621 z" fill="#fff"/>
<path d="m 251.807 2460.45 -1.2796 -3.6796 -0.8803 4.1537 z" fill="#fff"/>
<path d="m 248.147 2461.32 -1.3815 -2.3816 -0.7784 2.8558 z" fill="#fff"/>
<path d="m 256.485 2458.82 c 1.0819 -1.7657 0.8014 -3.566 0.2771 -4.7537" fill="none" stroke="#fff"/>
</g>
<path d="m 247.265 2461.96 c 0 0.8907 -0.7221 1.6128 -1.6128 1.6128 s -1.6129 -0.7221 -1.6129 -1.6128 0.7221 -1.6129 1.6129 -1.6129 1.6128 0.7221 1.6128 1.6129 z" fill="#fff" stroke="#000" stroke-width="1.2159" transform="matrix(-.82243,0,0,.82243,447.05203,429.34648)"/>
<path d="m 245.036 2453.77 -0.8743 8.7125" fill="none" stroke="#fff"/>
<path d="m 247.265 2461.96 c 0 0.8907 -0.7221 1.6128 -1.6128 1.6128 s -1.6129 -0.7221 -1.6129 -1.6128 0.7221 -1.6129 1.6129 -1.6129 1.6128 0.7221 1.6128 1.6129 z" fill="#fff" stroke="#000" transform="matrix(-1,0,0,1,489.70776,.42206)"/>
<path d="m 248.893 2457.12 c 0 0.7159 -1.5792 1.2963 -3.5272 1.2963 s -3.5272 -0.5804 -3.5272 -1.2963 1.5792 -1.2964 3.5272 -1.2964 3.5272 0.5804 3.5272 1.2964 z" fill="#fff" stroke="#000" stroke-width=".9087" transform="matrix(1,.07252,0,1.21096,-.48235,-536.54184)"/>
</g>
</svg>
