<svg viewBox="0 0 512 512" xmlns="http://www.w3.org/2000/svg">

<g transform="matrix(18.68858,0,0,18.68858,5786.38856,-335.4473)">
<path d="m-308.6308,38.1734c2.232-6.5882 8.294-13.0957 18.125-19.1964-7.0109,7.0181-11.3678,11.0048-18.125,19.1964z" fill="#fff" fill-rule="evenodd"/>
<path d="m-306.0415,40.9413c2.232-6.5882 8.294-13.0957 18.125-19.1964-7.0109,7.0181-11.3678,11.0048-18.125,19.1964z" fill="#fff" fill-rule="evenodd"/>
<path d="m-303.7201,44.2448c2.232-6.5882 8.294-13.0957 18.125-19.1964-7.0109,7.0181-11.3678,11.0048-18.125,19.1964z" fill="#fff" fill-rule="evenodd"/>
<path d="m-283.4764,40.0969c-2.2973-6.781-8.5367-13.4789-18.6555-19.7582 7.2161,7.2236 11.7005,11.3269 18.6555,19.7582z" fill="#fff" fill-rule="evenodd"/>
<path d="m-285.3297,43.5415c-2.9348-7.7585-10.3761-15.4221-22.2373-22.6066 8.5827,8.2649 13.8988,12.9598 22.2373,22.6066z" fill="#fff" fill-rule="evenodd"/>
<path d="m-289.8967,44.4884c-2.288-6.7534-8.502-13.4242-18.5797-19.678 7.1868,7.1942 11.6529,11.2809 18.5797,19.678z" fill="#fff" fill-rule="evenodd"/>
</g>
</svg>
