<svg viewBox="0 0 512 512" xmlns="http://www.w3.org/2000/svg">

<g transform="matrix(18.68858,0,0,18.68858,-9080.99806,-28581.85549)">
<path d="m 490.976 1538.75 c 0 -11.6827 17.8512 -12.141 17.8512 0 v 17.4661 h -17.8512 z" fill="#fff" stroke="#000"/>
<path d="m 499.919 1529.52 v 26.4993" fill="none" stroke="#000"/>
<path d="m 504.5 1529.52 v 26.4993" fill="none" stroke="#000"/>
<path d="m 495.413 1529.52 v 26.4993" fill="none" stroke="#000"/>
<path d="m 489.949 1549.31 h 20.0345 v 2.7121 h -20.0345 z" fill="#fff" stroke="#000"/>
<path d="m 489.949 1538.62 h 20.0345 v 2.7121 h -20.0345 z" fill="#fff" stroke="#000"/>
<path d="m 496.906 1547.85 c 0 0.7507 -0.6086 1.3593 -1.3594 1.3593 s -1.3594 -0.6086 -1.3594 -1.3593 0.6086 -1.3594 1.3594 -1.3594 1.3594 0.6086 1.3594 1.3594 z" fill="#fff" stroke="#000" stroke-width=".8322" transform="matrix(1.20163,0,0,1.20163,-100.90423,-314.64277)"/>
<path d="m 508.856 1547.25 h 2.1162 v 6.7375 h -2.1162 z" fill="#fff" stroke="#000"/>
<path d="m 508.875 1549.31 h 3.125" fill="none" stroke="#000"/>
<path d="m 508.875 1552.03 h 3.125" fill="none" stroke="#000"/>
<path d="m 508.856 1536.56 h 2.1162 v 6.7375 h -2.1162 z" fill="#fff" stroke="#000"/>
<path d="m 508.875 1538.6 h 3.125" fill="none" stroke="#000"/>
<path d="m 508.875 1541.34 h 3.125" fill="none" stroke="#000"/>
</g>
</svg>
