<svg viewBox="0 0 512 512" xmlns="http://www.w3.org/2000/svg">

<g transform="matrix(18.68858,0,0,18.68858,-9080.99806,-28581.85549)">
<path d="m490.9759,1538.7539c0-11.6827 17.8512-12.141 17.8512,0v17.4661h-17.8512z" fill="#fff" stroke="#000"/>
<path d="m499.9192,1529.516v26.4993" fill="none" stroke="#000"/>
<path d="m504.5004,1529.516v26.4993" fill="none" stroke="#000"/>
<path d="m495.4131,1529.516v26.4993" fill="none" stroke="#000"/>
<path d="m489.9486,1549.3054h20.0345v2.7121h-20.0345z" fill="#fff" stroke="#000"/>
<path d="m489.9486,1538.6179h20.0345v2.7121h-20.0345z" fill="#fff" stroke="#000"/>
<path d="m496.9062,1547.8466c0,.7507-.6086,1.3593-1.3594,1.3593s-1.3594-.6086-1.3594-1.3593 .6086-1.3594 1.3594-1.3594 1.3594.6086 1.3594,1.3594z" fill="#fff" stroke="#000" stroke-width=".8322" transform="matrix(1.20163,0,0,1.20163,-100.90423,-314.64277)"/>
<path d="m508.8563,1547.2485h2.1162v6.7375h-2.1162z" fill="#fff" stroke="#000"/>
<path d="m508.875,1549.3142h3.125" fill="none" stroke="#000"/>
<path d="m508.875,1552.026h3.125" fill="none" stroke="#000"/>
<path d="m508.8563,1536.561h2.1162v6.7375h-2.1162z" fill="#fff" stroke="#000"/>
<path d="m508.875,1538.6046h3.125" fill="none" stroke="#000"/>
<path d="m508.875,1541.3385h3.125" fill="none" stroke="#000"/>
</g>
</svg>
