<svg viewBox="0 0 512 512" xmlns="http://www.w3.org/2000/svg">

<g transform="matrix(18.68858,0,0,18.68858,-2953.62005,-32001.9572)">
<path d="m 185.716 1729.5 c 0 6.5456 -5.3063 11.8519 -11.8518 11.8519 s -11.8518 -5.3063 -11.8518 -11.8519 5.3063 -11.8518 11.8518 -11.8518 11.8518 5.3062 11.8518 11.8518 z" fill="none" stroke="#fff" stroke-width=".9813" transform="matrix(1.01905,0,0,1.01905,-5.5692,-36.5548)"/>
<path d="m 164.345 1716.14 -0.2671 3.1567 2.322 -1.8259 3.8522 1.19 -1.204 -1.4673 1.4624 -0.7699 1.4347 1.5223 3.8001 0.5268 -0.1881 -1.8436 2.2199 0.6772 -0.0753 -1.9188 -5.5309 -1.8813 -5.4932 1.3169 z" fill="#fff"/>
<path d="m 164.758 1735.86 -0.6842 -2.7331 3.643 1.0148 2.6605 -1.4367 0.7449 2.2348 3.299 -0.3725 3.4586 -2.554 2.8201 2.022 -5.2677 3.4053 -5.7999 0.3193 z" fill="#fff"/>
<path d="m 160.514 1721.17 3.0983 0.9575 3.5653 -2.1496 2.4266 1.5855 -3.5978 2.0656 1.3436 0.836 -1.6481 1.3555 -0.262 0.9533 1.9981 0.092 -0.152 2.1895 -3.1685 0.5287 -1.7268 -0.9167 -1.6146 2.3018 -1.0745 -4.485 z" fill="#fff"/>
<path d="m 177.79 1722.48 -4.8706 0.5718 1.5459 2.3136 0.1703 3.4491 1.5603 0.7397 0.6125 -1.518 3.3528 2.6039 -0.9391 -2.5293 0.3421 -2.5873 -2.3403 -1.2161 z" fill="#fff"/>
<path d="m 170.131 1724.6 0.8921 -0.7909 -1.1532 -1.1346 -1.6918 1.1335 z" fill="#fff"/>
<path d="m 181.045 1727.59 2.2189 1.1703 -0.9002 2.1224 z" fill="#fff"/>
<path d="m 171.057 1730.42 2.0578 0.5371 -1.0576 2.277 z" fill="#fff"/>
</g>
</svg>
