<svg viewBox="0 0 512 512" xmlns="http://www.w3.org/2000/svg">

<g transform="matrix(18.68858,0,0,18.68858,-2953.62005,-32001.9572)">
<path d="m185.7165,1729.4974c0,6.5456-5.3063,11.8519-11.8518,11.8519s-11.8518-5.3063-11.8518-11.8519 5.3063-11.8518 11.8518-11.8518 11.8518,5.3062 11.8518,11.8518z" fill="none" stroke="#fff" stroke-width=".9813" transform="matrix(1.01905,0,0,1.01905,-5.5692,-36.5548)"/>
<path d="m164.3455,1716.1406-.2671,3.1567 2.322-1.8259 3.8522,1.19-1.204-1.4673 1.4624-.7699 1.4347,1.5223 3.8001.5268-.1881-1.8436 2.2199.6772-.0753-1.9188-5.5309-1.8813-5.4932,1.3169z" fill="#fff"/>
<path d="m164.758,1735.8556-.6842-2.7331 3.643,1.0148 2.6605-1.4367 .7449,2.2348 3.299-.3725 3.4586-2.554 2.8201,2.022-5.2677,3.4053-5.7999.3193z" fill="#fff"/>
<path d="m160.5142,1721.1746 3.0983.9575 3.5653-2.1496 2.4266,1.5855-3.5978,2.0656 1.3436.836-1.6481,1.3555-.262.9533 1.9981.092-.152,2.1895-3.1685.5287-1.7268-.9167-1.6146,2.3018-1.0745-4.485z" fill="#fff"/>
<path d="m177.7903,1722.4816-4.8706.5718 1.5459,2.3136 .1703,3.4491 1.5603.7397 .6125-1.518 3.3528,2.6039-.9391-2.5293 .3421-2.5873-2.3403-1.2161z" fill="#fff"/>
<path d="m170.1311,1724.6025 .8921-.7909-1.1532-1.1346-1.6918,1.1335z" fill="#fff"/>
<path d="m181.0446,1727.5888 2.2189,1.1703-.9002,2.1224z" fill="#fff"/>
<path d="m171.0571,1730.4196 2.0578.5371-1.0576,2.277z" fill="#fff"/>
</g>
</svg>
