<svg viewBox="0 0 512 512" xmlns="http://www.w3.org/2000/svg">

<path d="m -321.557 845.312 c 0 3.5391 -2.869 6.4082 -6.4082 6.4082 s -6.4082 -2.869 -6.4082 -6.4082 2.869 -6.4082 6.4082 -6.4082 6.4082 2.869 6.4082 6.4082 z" fill="none" stroke="#fff" stroke-width="2.6256" transform="matrix(7.56981,0,0,7.56981,2749.8393,-6141.1242)"/>
<path d="m -321.557 845.312 c 0 3.5391 -2.869 6.4082 -6.4082 6.4082 s -6.4082 -2.869 -6.4082 -6.4082 2.869 -6.4082 6.4082 -6.4082 6.4082 2.869 6.4082 6.4082 z" fill="none" stroke="#fff" stroke-width=".8896" transform="matrix(21.00858,0,0,21.00858,7156.6201,-17501.24611)"/>
<path d="m -321.557 845.312 c 0 3.5391 -2.869 6.4082 -6.4082 6.4082 s -6.4082 -2.869 -6.4082 -6.4082 2.869 -6.4082 6.4082 -6.4082 6.4082 2.869 6.4082 6.4082 z" fill="none" stroke="#fff" stroke-width="1.3182" transform="matrix(14.17753,0,0,14.17753,4917.358,-11726.918)"/>
<g fill="#fff" stroke="#000" transform="matrix(19.37277,-5.19094,5.19094,19.37277,2194.61672,-18418.6158)">
<path d="m -338.338 867.882 c 2.0268 -0.5458 3.6782 1.6413 4.3607 4.0207 0.5927 -2.3796 2.6423 -4.5315 4.3826 -4.0675 -0.1383 -7.3226 -8.8726 -6.7969 -8.7434 0.0468 z" fill="#fff" fill-rule="evenodd" stroke="#000"/>
<path d="m -339.354 868.704 c -1.1901 1.7411 -1.2446 3.4285 0.7891 4.8185 -2.4564 -0.187 -3.595 1.6286 -3.7311 3.4161 -6.9088 -2.4267 -3.515 -10.5026 2.942 -8.2346 z" fill="#fff" fill-rule="evenodd" stroke="#000"/>
<path d="m -328.567 868.511 c 1.2905 1.6681 1.4442 3.3493 -0.5042 4.8566 2.4412 -0.3312 3.6846 1.4142 3.9256 3.1906 6.7541 -2.829 2.891 -10.6912 -3.4214 -8.0472 z" fill="#fff" fill-rule="evenodd" stroke="#000"/>
<path d="m -325.309 878.007 c -1.4912 1.4913 -3.1395 1.8566 -4.8813 0.1147 0.6376 2.3796 -0.9364 3.834 -2.6679 4.298 3.6613 6.3416 10.9711 1.5141 7.5493 -4.4127 z" fill="#fff" fill-rule="evenodd" stroke="#000"/>
<path d="m -341.845 878.007 c 1.4912 1.4913 3.1395 1.8566 4.8813 0.1147 -0.6376 2.3796 0.9364 3.834 2.6679 4.298 -3.6613 6.3416 -10.9711 1.5141 -7.5493 -4.4127 z" fill="#fff" fill-rule="evenodd" stroke="#000"/>
</g>
</svg>
