<svg viewBox="0 0 512 512" xmlns="http://www.w3.org/2000/svg">

<g transform="matrix(18.68858,0,0,18.68858,5162.10327,-1582.65344)">
<path d="m-274.7193,99.3411c3.5235,4.031 8.1355,2.9546 11.4454-1.4674-2.18-4.6823-4.6207-8.7803-11.4454,1.4674z" fill="#fff"/>
<path d="m-249.872,99.3411c-3.5235,4.031-8.1355,2.9546-11.4454-1.4674 2.18-4.6823 4.6207-8.7803 11.4454,1.4674z" fill="#fff" fill-rule="evenodd"/>
<path d="m501.1607,96.0229c0,1.1342-.9194,2.0536-2.0536,2.0536s-2.0536-.9194-2.0536-2.0536 .9194-2.0536 2.0536-2.0536 2.0536.9194 2.0536,2.0536z" transform="matrix(1.09563,0,0,1.09563,-815.58969,-5.37548)"/>
<path d="m501.1607,96.0229c0,1.1342-.9194,2.0536-2.0536,2.0536s-2.0536-.9194-2.0536-2.0536 .9194-2.0536 2.0536-2.0536 2.0536.9194 2.0536,2.0536z" transform="matrix(1.09563,0,0,1.09563,-802.97035,-5.37548)"/>
</g>
</svg>
