<svg viewBox="0 0 512 512" xmlns="http://www.w3.org/2000/svg">

<g transform="matrix(18.68858,0,0,18.68858,-5276.42149,-13528.67339)">
<path d="m 283.668 729.917 c 1.9852 -6.5398 12.1052 -7.4253 13.0231 1.0689 8.0249 -11.0666 15.7526 0.661 10.1692 6.6701 -3.8788 4.1746 -12.5246 7.1983 -13.6595 12.7698 -7.5105 -6.0956 -10.8493 -16.1721 -9.5329 -20.5088 z" fill="#fff" fill-rule="evenodd"/>
<path d="m 284.125 726.862 23.5 12.0625" fill="none" stroke="#000"/>
<path d="m 284.312 740.737 24.6875 -9.125" fill="none" stroke="#000"/>
<path d="m 283.25 736.862 21.625 4" fill="none" stroke="#000"/>
<path d="m 287.438 744.55 h 11.5" fill="none" stroke="#000"/>
<path d="m 289.584 726.907 c -0.6247 0.956 -0.6541 1.7697 0.0421 2.5141 l -2.5275 -1.4593 2.4854 -1.0549 z"/>
<path d="m 298.397 731.376 c -0.6247 0.956 -0.6541 1.7697 0.0421 2.5141 l -2.5275 -1.4593 2.4854 -1.0549 z"/>
<path d="m 291.264 733.307 c 0.5156 -1.019 1.2055 -1.4513 2.1984 -1.2206 l -2.5275 -1.4593 0.3291 2.6799 z"/>
<path d="m 302.951 739.37 c 0.5156 -1.019 1.2055 -1.4513 2.1984 -1.2206 l -2.5275 -1.4593 0.3291 2.6799 z"/>
<g transform="matrix(-.9907,-.13609,-.13609,.9907,688.31167,50.77338)">
<path d="m 286.694 725.217 c -0.6247 0.956 -0.6541 1.7697 0.0421 2.5141 l -2.5275 -1.4593 2.4854 -1.0549 z"/>
<path d="m 297.213 730.901 c -0.6247 0.956 -0.6541 1.7697 0.0421 2.5141 l -2.5275 -1.4593 2.4854 -1.0549 z"/>
<path d="m 287.443 731.268 c 0.5156 -1.019 1.2055 -1.4513 2.1984 -1.2206 l -2.5275 -1.4593 0.3291 2.6799 z"/>
<path d="m 301.479 738.721 c 0.5156 -1.019 1.2055 -1.4513 2.1984 -1.2206 l -2.5275 -1.4593 0.3291 2.6799 z"/>
</g>
<g transform="matrix(.95829,-.2858,.2858,.95829,-195.39564,121.80176)">
<path d="m 288.152 726.023 c -0.6247 0.956 -0.6541 1.7697 0.0421 2.5141 l -2.5275 -1.4593 2.4854 -1.0549 z"/>
<path d="m 299.176 731.7 c -0.6247 0.956 -0.6541 1.7697 0.0421 2.5141 l -2.5275 -1.4593 2.4854 -1.0549 z"/>
<path d="m 291.52 733.465 c 0.5156 -1.019 1.2055 -1.4513 2.1984 -1.2206 l -2.5275 -1.4593 0.3291 2.6799 z"/>
</g>
<g transform="matrix(-.88183,-.47157,-.47157,.88183,893.12891,237.54602)">
<path d="m 289.584 726.907 c -0.6247 0.956 -0.6541 1.7697 0.0421 2.5141 l -2.5275 -1.4593 2.4854 -1.0549 z"/>
<path d="m 291.264 733.307 c 0.5156 -1.019 1.2055 -1.4513 2.1984 -1.2206 l -2.5275 -1.4593 0.3291 2.6799 z"/>
</g>
</g>
</svg>
