<svg viewBox="0 0 512 512" xmlns="http://www.w3.org/2000/svg">

<g transform="matrix(18.68858,0,0,18.68858,-5911.83322,-10388.99143)">
<path d="m 317.25 575.862 c 3.4698 -3.5932 3.9975 -2.8514 9.6041 -2.9608 -2.4224 4.6347 -3.6401 6.8012 -3.8541 9.7108 -3.927 -1.0264 -2.1993 -6.9094 -5.75 -6.75 z" fill="#fff" fill-rule="evenodd"/>
<path d="m 343.018 564.43 c -1.8346 2.9495 -5.4117 2.7799 -9.6483 1.8117 2.2015 -3.7875 2.4469 -5.3187 3.8983 -9.8481 4.7923 0.8015 2.1431 7.2365 5.75 8.0364 z" fill="#fff" fill-rule="evenodd"/>
<path d="m 320.719 574.683 c 1.6667 -1.0525 3.3333 -1.3755 5 -1.4383" fill="none" stroke="#000"/>
<path d="m 322.476 577.462 c 0.9171 -1.7449 2.199 -2.8579 3.611 -3.7456" fill="none" stroke="#000"/>
<path d="m 340.134 564.246 c -1.3375 1.2097 -2.8638 1.6811 -4.4574 1.8893" fill="none" stroke="#000"/>
<path d="m 338.172 560.126 c -0.5457 2.267 -1.7397 3.7873 -3.1648 5.0414" fill="none" stroke="#000"/>
<path d="m 336.688 570.393 c 0 4.0213 -3.2599 7.2812 -7.2812 7.2812 s -7.2812 -3.2599 -7.2812 -7.2812 3.2599 -7.2812 7.2812 -7.2812 7.2812 3.2599 7.2812 7.2812 z" fill="#fff" stroke="#000" stroke-width="1.2135" transform="matrix(-.58268,.58268,-.58268,-.58268,854.79406,709.77933)"/>
<path d="m 327.979 563.925 c 3.0232 -1.2803 8.7937 1.6674 5.6127 6.9827" fill="none" stroke="#000"/>
<path d="m 331.487 575.321 c -3.2515 0.4541 -8.0625 -3.8866 -3.6142 -8.1974" fill="none" stroke="#000"/>
</g>
</svg>
