<svg viewBox="0 0 512 512" xmlns="http://www.w3.org/2000/svg">

<g transform="matrix(18.68858,0,0,18.68858,-5911.83322,-10388.99143)">
<path d="m317.25,575.8622c3.4698-3.5932 3.9975-2.8514 9.6041-2.9608-2.4224,4.6347-3.6401,6.8012-3.8541,9.7108-3.927-1.0264-2.1993-6.9094-5.75-6.75z" fill="#fff" fill-rule="evenodd"/>
<path d="m343.0183,564.4304c-1.8346,2.9495-5.4117,2.7799-9.6483,1.8117 2.2015-3.7875 2.4469-5.3187 3.8983-9.8481 4.7923.8015 2.1431,7.2365 5.75,8.0364z" fill="#fff" fill-rule="evenodd"/>
<path d="m320.7188,574.683c1.6667-1.0525 3.3333-1.3755 5-1.4383" fill="none" stroke="#000"/>
<path d="m322.4758,577.4616c.9171-1.7449 2.199-2.8579 3.611-3.7456" fill="none" stroke="#000"/>
<path d="m340.1341,564.2461c-1.3375,1.2097-2.8638,1.6811-4.4574,1.8893" fill="none" stroke="#000"/>
<path d="m338.1716,560.1257c-.5457,2.267-1.7397,3.7873-3.1648,5.0414" fill="none" stroke="#000"/>
<path d="m336.6875,570.3934c0,4.0213-3.2599,7.2812-7.2812,7.2812s-7.2812-3.2599-7.2812-7.2812 3.2599-7.2812 7.2812-7.2812 7.2812,3.2599 7.2812,7.2812z" fill="#fff" stroke="#000" stroke-width="1.2135" transform="matrix(-.58268,.58268,-.58268,-.58268,854.79406,709.77933)"/>
<path d="m327.9795,563.925c3.0232-1.2803 8.7937,1.6674 5.6127,6.9827" fill="none" stroke="#000"/>
<path d="m331.4871,575.3209c-3.2515.4541-8.0625-3.8866-3.6142-8.1974" fill="none" stroke="#000"/>
</g>
</svg>
