<svg viewBox="0 0 512 512" xmlns="http://www.w3.org/2000/svg">

<g transform="matrix(18.68858,0,0,18.68858,-5276.42149,-13528.67339)">
<path d="m283.6683,729.9168c1.9852-6.5398 12.1052-7.4253 13.0231,1.0689 8.0249-11.0666 15.7526.661 10.1692,6.6701-3.8788,4.1746-12.5246,7.1983-13.6595,12.7698-7.5105-6.0956-10.8493-16.1721-9.5329-20.5088z" fill="#fff" fill-rule="evenodd"/>
<path d="m284.125,726.8622 23.5,12.0625" fill="none" stroke="#000"/>
<path d="m284.3125,740.7372 24.6875-9.125" fill="none" stroke="#000"/>
<path d="m283.25,736.8622 21.625,4" fill="none" stroke="#000"/>
<path d="m287.4375,744.5497h11.5" fill="none" stroke="#000"/>
<path d="m289.5845,726.907c-.6247.956-.6541,1.7697.0421,2.5141l-2.5275-1.4593 2.4854-1.0549z"/>
<path d="m298.397,731.3757c-.6247.956-.6541,1.7697.0421,2.5141l-2.5275-1.4593 2.4854-1.0549z"/>
<path d="m291.2639,733.3072c.5156-1.019 1.2055-1.4513 2.1984-1.2206l-2.5275-1.4593 .3291,2.6799z"/>
<path d="m302.9514,739.3697c.5156-1.019 1.2055-1.4513 2.1984-1.2206l-2.5275-1.4593 .3291,2.6799z"/>
<g transform="matrix(-.9907,-.13609,-.13609,.9907,688.31167,50.77338)">
<path d="m286.6939,725.2166c-.6247.956-.6541,1.7697.0421,2.5141l-2.5275-1.4593 2.4854-1.0549z"/>
<path d="m297.2131,730.9009c-.6247.956-.6541,1.7697.0421,2.5141l-2.5275-1.4593 2.4854-1.0549z"/>
<path d="m287.4434,731.2683c.5156-1.019 1.2055-1.4513 2.1984-1.2206l-2.5275-1.4593 .3291,2.6799z"/>
<path d="m301.4792,738.7214c.5156-1.019 1.2055-1.4513 2.1984-1.2206l-2.5275-1.4593 .3291,2.6799z"/>
</g>
<g transform="matrix(.95829,-.2858,.2858,.95829,-195.39564,121.80176)">
<path d="m288.1523,726.0233c-.6247.956-.6541,1.7697.0421,2.5141l-2.5275-1.4593 2.4854-1.0549z"/>
<path d="m299.1764,731.7004c-.6247.956-.6541,1.7697.0421,2.5141l-2.5275-1.4593 2.4854-1.0549z"/>
<path d="m291.5197,733.4646c.5156-1.019 1.2055-1.4513 2.1984-1.2206l-2.5275-1.4593 .3291,2.6799z"/>
</g>
<g transform="matrix(-.88183,-.47157,-.47157,.88183,893.12891,237.54602)">
<path d="m289.5845,726.907c-.6247.956-.6541,1.7697.0421,2.5141l-2.5275-1.4593 2.4854-1.0549z"/>
<path d="m291.2639,733.3072c.5156-1.019 1.2055-1.4513 2.1984-1.2206l-2.5275-1.4593 .3291,2.6799z"/>
</g>
</g>
</svg>
