<svg viewBox="0 0 512 512" xmlns="http://www.w3.org/2000/svg">

<g transform="matrix(18.68858,0,0,18.68858,-212.90618,-11022.36512)">
<path d="m19.625,600.0774c-3.2932-2.03-5.5194-5.7977-5.8125-10.0277" fill="none" stroke="#fff"/>
<path d="m23.4375,602.6434c0,1.1563-.9374,2.0938-2.0938,2.0938s-2.0938-.9374-2.0938-2.0938 .9374-2.0938 2.0938-2.0938 2.0938.9374 2.0938,2.0938z" stroke="#fff" stroke-width="1.7179" transform="matrix(.58209,0,0,.58209,1.52647,240.72757)"/>
<path d="m12.0938,590.2941h5.0625" fill="none" stroke="#000"/>
<path d="m23.4375,602.6434c0,1.1563-.9374,2.0938-2.0938,2.0938s-2.0938-.9374-2.0938-2.0938 .9374-2.0938 2.0938-2.0938 2.0938.9374 2.0938,2.0938z" stroke="#fff" stroke-width="1.7179" transform="matrix(.58209,0,0,.58209,5.98228,248.38225)"/>
<path d="m40.125,609.5184c0,4.0213-3.2599,7.2812-7.2812,7.2812s-7.2812-3.2599-7.2812-7.2812 3.2599-7.2812 7.2812-7.2812 7.2812,3.2599 7.2812,7.2812z" fill="#fff" stroke="#000" stroke-width=".6754" transform="matrix(1.48069,0,0,1.48069,-21.16255,-296.6124)"/>
<path d="m23.4375,602.6434c0,1.1563-.9374,2.0938-2.0938,2.0938s-2.0938-.9374-2.0938-2.0938 .9374-2.0938 2.0938-2.0938 2.0938.9374 2.0938,2.0938z" stroke="#fff" stroke-width="1.7179" transform="matrix(.58209,0,0,.58209,2.98228,244.94475)"/>
<path d="m27.9773,601.6692c.7921.028 1.593.1534 2.4103.3724 2.8463.7627 5.0701,2.5646 6.1068,4.6685 .0369-.4957.0058-1.0013-.1261-1.4935-.7998-2.9849-4.559-4.5742-8.391-3.5474z"/>
<path d="m34.678,610.3532c.1621-.9096.249-1.871.2652-2.8909 .0566-3.5524-.8572-6.8444-2.2873-8.9206 .4024.1705.7968.4224 1.1571.7827 2.1851,2.1851 2.5726,7.126.8649,11.0288z"/>
<path d="m18.4925,607.6478c2.6233,3.6021 6.903,6.0325 11.3713,7.1889-.4747.1365-1.0285.1626-1.6071.1874-4.0663.1743-9.0053-3.593-9.7642-7.3763z"/>
</g>
</svg>
