<svg viewBox="0 0 512 512" xmlns="http://www.w3.org/2000/svg">

<g transform="matrix(18.68858,0,0,18.68858,-212.90618,-11022.36512)">
<path d="m 19.625 600.077 c -3.2932 -2.03 -5.5194 -5.7977 -5.8125 -10.0277" fill="none" stroke="#fff"/>
<path d="m 23.4375 602.643 c 0 1.1563 -0.9374 2.0938 -2.0938 2.0938 s -2.0938 -0.9374 -2.0938 -2.0938 0.9374 -2.0938 2.0938 -2.0938 2.0938 0.9374 2.0938 2.0938 z" stroke="#fff" stroke-width="1.7179" transform="matrix(.58209,0,0,.58209,1.52647,240.72757)"/>
<path d="m 12.0938 590.294 h 5.0625" fill="none" stroke="#000"/>
<path d="m 23.4375 602.643 c 0 1.1563 -0.9374 2.0938 -2.0938 2.0938 s -2.0938 -0.9374 -2.0938 -2.0938 0.9374 -2.0938 2.0938 -2.0938 2.0938 0.9374 2.0938 2.0938 z" stroke="#fff" stroke-width="1.7179" transform="matrix(.58209,0,0,.58209,5.98228,248.38225)"/>
<path d="m 40.125 609.518 c 0 4.0213 -3.2599 7.2812 -7.2812 7.2812 s -7.2812 -3.2599 -7.2812 -7.2812 3.2599 -7.2812 7.2812 -7.2812 7.2812 3.2599 7.2812 7.2812 z" fill="#fff" stroke="#000" stroke-width=".6754" transform="matrix(1.48069,0,0,1.48069,-21.16255,-296.6124)"/>
<path d="m 23.4375 602.643 c 0 1.1563 -0.9374 2.0938 -2.0938 2.0938 s -2.0938 -0.9374 -2.0938 -2.0938 0.9374 -2.0938 2.0938 -2.0938 2.0938 0.9374 2.0938 2.0938 z" stroke="#fff" stroke-width="1.7179" transform="matrix(.58209,0,0,.58209,2.98228,244.94475)"/>
<path d="m 27.9773 601.669 c 0.7921 0.028 1.593 0.1534 2.4103 0.3724 2.8463 0.7627 5.0701 2.5646 6.1068 4.6685 0.0369 -0.4957 0.0058 -1.0013 -0.1261 -1.4935 -0.7998 -2.9849 -4.559 -4.5742 -8.391 -3.5474 z"/>
<path d="m 34.678 610.353 c 0.1621 -0.9096 0.249 -1.871 0.2652 -2.8909 0.0566 -3.5524 -0.8572 -6.8444 -2.2873 -8.9206 0.4024 0.1705 0.7968 0.4224 1.1571 0.7827 2.1851 2.1851 2.5726 7.126 0.8649 11.0288 z"/>
<path d="m 18.4925 607.648 c 2.6233 3.6021 6.903 6.0325 11.3713 7.1889 -0.4747 0.1365 -1.0285 0.1626 -1.6071 0.1874 -4.0663 0.1743 -9.0053 -3.593 -9.7642 -7.3763 z"/>
</g>
</svg>
