<svg xmlns="http://www.w3.org/2000/svg" viewBox="0 0 512 512">
<g transform="matrix(15 0 0 15 -4304 -3284)">
<use width="744.094" height="1052.362" transform="translate(324 216)"/>
<path fill="#fff" d="m297,220c-.9849,0-2,1.0151-2,2v7c0,.9849 .7964,1.7812 1.7812,1.7812h2.2188v10.4375h-2.2188c-.9849,0-1.7812,.7964-1.7812,1.7812v7c0,.9849 1.0151,2 2,2h2v-6l5-3 5,3v6h2c.9849,0 2-1.0151 2-2v-7c0-.9849-.7964-1.7812-1.7812-1.7812h-2.2188v-10.4375h2.2188c.9849,0 1.7812-.7964 1.7812-1.7812v-7c0-.9849-1.0151-2-2-2h-2v6l-5,3-5-3v-6h-2z"/>
</g>
</svg>
