<svg xmlns="http://www.w3.org/2000/svg" viewBox="0 0 512 512">
<g transform="matrix(18.68858 0 0 18.68858 -3632.18195 -3635.67816)">
<path fill="#fff" d="m205.5909,212.7937c0,2.599-2.1097,4.7083-4.7091,4.7083s-4.7091-2.1093-4.7091-4.7083h9.4183"/>
<path fill="none" stroke="#fff" d="m205.0641,212.8403v-16.7172h12.9156l-11.2601,6.3829h11.6487v13.3063"/>
</g>
<g fill="#fff" transform="matrix(18.68858 0 0 18.68858 -3632.18195 -3635.67816)">
<path d="m218.895,215.7397c0,2.599-2.1097,4.7083-4.7091,4.7083s-4.7091-2.1093-4.7091-4.7083h9.4183"/>
<path d="m205.097,196.2219h11.7893l-3.6224,2.7986h-8.1669v-2.7986z"/>
<path d="m205.097,205.408h13.1065l-.0329-2.7986h-13.0736v2.7986z"/>
</g>
<g fill-rule="evenodd" transform="matrix(18.68858 0 0 18.68858 -3632.18195 -3635.67816)">
<path d="m210.7074,203.4258-2.024,1.0536h10.6524v-1.0536h-8.6285z"/>
<path d="m209.8294,197.4934 2.0239-1.0536h-10.6524v1.0536h8.6285z"/>
</g>
<g fill="none" stroke="#fff" stroke-width=".949" transform="matrix(18.68858 0 0 18.68858 -3632.18195 -3635.67816)">
<path d="m203.6419,213.8812c0,2.2111-1.7925,4.0036-4.0036,4.0036s-4.0036-1.7925-4.0036-4.0036 1.7925-4.0036 4.0036-4.0036 4.0036,1.7925 4.0036,4.0036z" transform="matrix(1.05379 0 0 1.0536 -9.54422 -12.31338)"/>
<path d="m203.6419,213.8812c0,2.2111-1.7925,4.0036-4.0036,4.0036s-4.0036-1.7925-4.0036-4.0036 1.7925-4.0036 4.0036-4.0036 4.0036,1.7925 4.0036,4.0036z" transform="matrix(1.05379 0 0 1.0536 3.76826 -9.37775)"/>
</g>
</svg>
