<svg xmlns="http://www.w3.org/2000/svg" viewBox="0 0 512 512">
<g transform="matrix(18.68858 0 0 18.68858 -3632.18195 -3635.67816)">
<path fill="#fff" d="m205.5909,212.7937c0,2.599-2.1097,4.7083-4.7091,4.7083s-4.7091-2.1093-4.7091-4.7083h9.4183"/>
<path fill="none" stroke="#fff" d="m205.0641,212.8403v-16.7172h12.9156l-11.2601,6.3829h11.6487v13.3063"/>
</g>
<g fill="#fff" transform="matrix(18.68858 0 0 18.68858 -3632.18195 -3635.67816)">
<path d="m 218.895 215.74 c 0 2.599 -2.1097 4.7083 -4.7091 4.7083 s -4.7091 -2.1093 -4.7091 -4.7083 h 9.4183"/>
<path d="m 205.097 196.222 h 11.7893 l -3.6224 2.7986 h -8.1669 v -2.7986 z"/>
<path d="m 205.097 205.408 h 13.1065 l -0.0329 -2.7986 h -13.0736 v 2.7986 z"/>
</g>
<g fill-rule="evenodd" transform="matrix(18.68858 0 0 18.68858 -3632.18195 -3635.67816)">
<path d="m 210.707 203.426 -2.024 1.0536 h 10.6524 v -1.0536 h -8.6285 z"/>
<path d="m 209.829 197.493 2.0239 -1.0536 h -10.6524 v 1.0536 h 8.6285 z"/>
</g>
<g fill="none" stroke="#fff" stroke-width=".949" transform="matrix(18.68858 0 0 18.68858 -3632.18195 -3635.67816)">
<path d="m 203.642 213.881 c 0 2.2111 -1.7925 4.0036 -4.0036 4.0036 s -4.0036 -1.7925 -4.0036 -4.0036 1.7925 -4.0036 4.0036 -4.0036 4.0036 1.7925 4.0036 4.0036 z" transform="matrix(1.05379 0 0 1.0536 -9.54422 -12.31338)"/>
<path d="m 203.642 213.881 c 0 2.2111 -1.7925 4.0036 -4.0036 4.0036 s -4.0036 -1.7925 -4.0036 -4.0036 1.7925 -4.0036 4.0036 -4.0036 4.0036 1.7925 4.0036 4.0036 z" transform="matrix(1.05379 0 0 1.0536 3.76826 -9.37775)"/>
</g>
</svg>
