<svg viewBox="0 0 512 512" xmlns="http://www.w3.org/2000/svg">

<g transform="matrix(18.68858,0,0,18.68858,-11127.2951,-39463.4029)">
<path d="m603.7411,2129.2828c4.6787,13.3372 23.0048,8.9217 16.3934-16.4928-4.8586,3.3422-15.2918-.1922-19.4216,3.1978-4.5606,3.7438-4.2032,13.0826 3.0282,13.295z" fill="#fff"/>
<g transform="matrix(.82649,.73329,-.74456,.81398,1751.9098,-.19099)">
<path d="m532.3598,2138.5045 3.8849-2.6317c.6499-3.0381 4.0629-5.5726 8.2962-3.7005-4.5813-4.4822-11.2111-1.1093-12.1811,3.7268z"/>
<path d="m539.9101,2130.2811-3.3286.8681c-1.2521-2.4495-4.7519-3.8349-7.9436-1.2637 2.8911-4.8833 9.3344-3.5181 11.2723.3959z"/>
<path d="m532.788,2127.0879 2.8756-.02c.4811-2.2487 3.0073-4.1247 6.1408-2.739-3.3911-3.3177-8.2984-.8211-9.0164,2.7586z"/>
<path d="m537.7251,2123.3209-1.7385-.012c-.2908-1.3596-1.8182-2.4938-3.7126-1.656 2.0501-2.0058 5.0171-.4964 5.4511,1.6678z"/>
<path d="m533.5433,2121.1624 1.3111-.3616c-.0554-1.0862.869-2.2525 2.4701-2.003-1.9554-1.1007-3.8916.6406-3.7814,2.3639z"/>
</g>
<path d="m599.6766,2137.8648c1.3011-3.8259 3.2279-6.7542 6.1692-8.8967-4.2003.8405-6.8673,3.7482-9.3148,7.0185 .4393,1.2407 1.4055,1.9498 3.1456,1.8782z" fill="#fff"/>
<path d="m608.7488,2122.8897c.6264,1.1833 1.8224,3.8587.3169,5.9845-3.4011-1.225-7.5261.5954-9.5525,3.7123l3.3281-.7396c2.3871-3.0793 6.0159-2.4498 7.6536-2.0228 .6509-2.0513.6457-4.5021-.694-6.0822 1.2993-1.3466 3.608-1.7916 5.255-1.0499-2.0984-1.3193-4.3595-1.169-6.3072.1977z" fill="#fff"/>
</g>
</svg>
